<?xml version="1.0" encoding="UTF-8" standalone="no"?>
<!DOCTYPE svg PUBLIC "-//W3C//DTD SVG 1.1//EN"
 "http://www.w3.org/Graphics/SVG/1.1/DTD/svg11.dtd">
<!-- Generated by graphviz version 12.2.1 (20241206.2353)
 -->
<!-- Title: Foo Pages: 1 -->
<svg width="452pt" height="1540pt"
 viewBox="0.00 0.00 451.70 1539.88" xmlns="http://www.w3.org/2000/svg" xmlns:xlink="http://www.w3.org/1999/xlink">
<g id="graph0" class="graph" transform="scale(1 1) rotate(0) translate(4 1535.88)">
<title>Foo</title>
<polygon fill="white" stroke="none" points="-4,4 -4,-1535.88 447.7,-1535.88 447.7,4 -4,4"/>
<g id="clust1" class="cluster">
<title>cluster_attacksensors</title>
<polygon fill="none" stroke="black" points="17.88,-875.88 17.88,-1523.88 435.7,-1523.88 435.7,-875.88 17.88,-875.88"/>
<text text-anchor="middle" x="226.79" y="-1506.58" font-family="Helvetica,sans-Serif" font-size="14.00">Attack Sensors</text>
</g>
<!-- TurnAroundPoke -->
<g id="node1" class="node">
<title>TurnAroundPoke</title>
<polygon fill="none" stroke="black" points="45.12,-117.88 45.12,-139.62 160.62,-139.62 160.62,-117.88 45.12,-117.88"/>
<text text-anchor="start" x="48.12" y="-123.33" font-family="Helvetica,sans-Serif" font-size="14.00">TurnAroundPoke &#160;</text>
<polygon fill="none" stroke="black" points="45.12,-96.12 45.12,-117.88 160.62,-117.88 160.62,-96.12 45.12,-96.12"/>
<text text-anchor="start" x="48.12" y="-102.58" font-family="Helvetica,sans-Serif" font-size="12.00" fill="#838b8b">1.00s: Done</text>
<text text-anchor="start" x="112.62" y="-102.58" font-family="Helvetica,sans-Serif" font-size="14.00"> &#160;</text>
</g>
<!-- Engaging -->
<g id="node2" class="node">
<title>Engaging</title>
<polygon fill="none" stroke="black" points="403.85,-179.88 330.85,-179.88 330.85,-143.88 403.85,-143.88 403.85,-179.88"/>
<text text-anchor="middle" x="367.35" y="-156.45" font-family="Helvetica,sans-Serif" font-size="14.00">Engaging</text>
</g>
<!-- TurnAroundPoke&#45;&gt;Engaging -->
<g id="edge1" class="edge">
<title>TurnAroundPoke&#45;&gt;Engaging</title>
<path fill="none" stroke="#cdc8b1" d="M168.47,-136.63C186.26,-141.23 205.64,-145.73 223.75,-148.88 255.25,-154.35 291.1,-157.6 318.97,-159.49"/>
<polygon fill="#cdc8b1" stroke="#cdc8b1" points="318.68,-162.98 328.88,-160.12 319.12,-155.99 318.68,-162.98"/>
</g>
<!-- TurnAroundPoke_linked -->
<g id="node3" class="node">
<title>TurnAroundPoke_linked</title>
<polygon fill="none" stroke="black" stroke-dasharray="1,5" points="413.45,-124.88 321.25,-124.88 321.25,-88.88 413.45,-88.88 413.45,-124.88"/>
<text text-anchor="start" x="326.85" y="-101.45" font-family="Helvetica,sans-Serif" font-size="14.00">RollThrough &#160;</text>
</g>
<!-- TurnAroundPoke&#45;&gt;TurnAroundPoke_linked -->
<g id="edge2" class="edge">
<title>TurnAroundPoke&#45;&gt;TurnAroundPoke_linked</title>
<path fill="none" stroke="#66cdaa" d="M168.42,-115.17C211.71,-113.36 268.18,-110.99 309.72,-109.25"/>
<polygon fill="#66cdaa" stroke="#66cdaa" points="309.66,-112.75 319.51,-108.84 309.37,-105.76 309.66,-112.75"/>
<text text-anchor="middle" x="256.38" y="-115.15" font-family="Helvetica,sans-Serif" font-size="14.00" fill="#66cdaa">QueueEnd</text>
</g>
<!-- DoubleAttack -->
<g id="node4" class="node">
<title>DoubleAttack</title>
<polygon fill="none" stroke="black" points="44,-364 44,-385.75 161.75,-385.75 161.75,-364 44,-364"/>
<text text-anchor="start" x="59" y="-369.45" font-family="Helvetica,sans-Serif" font-size="14.00">DoubleAttack &#160;</text>
<polygon fill="none" stroke="black" points="44,-320 44,-364 161.75,-364 161.75,-320 44,-320"/>
<text text-anchor="start" x="47" y="-350.6" font-family="Helvetica,sans-Serif" font-size="12.00" fill="#838b8b">0.98s: CheckFacing</text>
<text text-anchor="start" x="47" y="-338.6" font-family="Helvetica,sans-Serif" font-size="12.00" fill="#838b8b">1.67s: LinkNextMove</text>
<text text-anchor="start" x="47" y="-324.7" font-family="Helvetica,sans-Serif" font-size="12.00" fill="#838b8b">2.67s: Done</text>
<text text-anchor="start" x="111.5" y="-324.7" font-family="Helvetica,sans-Serif" font-size="14.00"> &#160;</text>
</g>
<!-- PreAttack -->
<g id="node5" class="node">
<title>PreAttack</title>
<polygon fill="none" stroke="black" points="404.6,-588.88 330.1,-588.88 330.1,-552.88 404.6,-552.88 404.6,-588.88"/>
<text text-anchor="middle" x="367.35" y="-565.45" font-family="Helvetica,sans-Serif" font-size="14.00">PreAttack</text>
</g>
<!-- DoubleAttack&#45;&gt;PreAttack -->
<g id="edge3" class="edge">
<title>DoubleAttack&#45;&gt;PreAttack</title>
<path fill="none" stroke="#cdc8b1" d="M169.58,-377.9C182.09,-383.94 194.71,-390.96 205.75,-398.88 264.27,-440.82 318.34,-506.54 346.34,-543.41"/>
<polygon fill="#cdc8b1" stroke="#cdc8b1" points="343.5,-545.46 352.3,-551.36 349.1,-541.26 343.5,-545.46"/>
</g>
<!-- DoubleAttack_linked -->
<g id="node6" class="node">
<title>DoubleAttack_linked</title>
<polygon fill="none" stroke="black" stroke-dasharray="1,5" points="416.83,-310.23 317.88,-310.23 317.88,-263.52 416.83,-263.52 416.83,-310.23"/>
<text text-anchor="start" x="323.48" y="-291.32" font-family="Helvetica,sans-Serif" font-size="14.00">DangerSpear &#160;</text>
<text text-anchor="start" x="326.85" y="-271.57" font-family="Helvetica,sans-Serif" font-size="14.00">RollThrough &#160;</text>
</g>
<!-- DoubleAttack&#45;&gt;DoubleAttack_linked -->
<g id="edge4" class="edge">
<title>DoubleAttack&#45;&gt;DoubleAttack_linked</title>
<path fill="none" stroke="#66cdaa" d="M169.43,-336.39C211.49,-325.82 265.66,-312.19 306.54,-301.91"/>
<polygon fill="#66cdaa" stroke="#66cdaa" points="307.39,-305.31 316.23,-299.48 305.68,-298.52 307.39,-305.31"/>
<text text-anchor="middle" x="256.38" y="-324.3" font-family="Helvetica,sans-Serif" font-size="14.00" fill="#66cdaa">QueueEnd</text>
</g>
<!-- DoubleAttack_mustuse -->
<g id="node7" class="node">
<title>DoubleAttack_mustuse</title>
<polygon fill="none" stroke="black" stroke-dasharray="1,5" points="417.48,-395.5 317.23,-395.5 317.23,-328.25 417.48,-328.25 417.48,-395.5"/>
<text text-anchor="start" x="327.23" y="-376.2" font-family="Helvetica,sans-Serif" font-size="14.00">2 Undefined &#160;</text>
<text text-anchor="start" x="327.23" y="-356.45" font-family="Helvetica,sans-Serif" font-size="14.00">1 Undefined &#160;</text>
<text text-anchor="start" x="327.23" y="-336.7" font-family="Helvetica,sans-Serif" font-size="14.00">0 Undefined &#160;</text>
</g>
<!-- DoubleAttack&#45;&gt;DoubleAttack_mustuse -->
<g id="edge5" class="edge">
<title>DoubleAttack&#45;&gt;DoubleAttack_mustuse</title>
<path fill="none" stroke="#458b74" d="M169.43,-355.12C211.12,-356.55 264.72,-358.39 305.47,-359.79"/>
<polygon fill="#458b74" stroke="#458b74" points="305.24,-363.28 315.36,-360.13 305.48,-356.29 305.24,-363.28"/>
<text text-anchor="middle" x="256.38" y="-361.67" font-family="Helvetica,sans-Serif" font-size="14.00" fill="#458b74">Weight</text>
</g>
<!-- DangerSpear -->
<g id="node8" class="node">
<title>DangerSpear</title>
<polygon fill="none" stroke="black" points="44,-456 44,-477.75 161.75,-477.75 161.75,-456 44,-456"/>
<text text-anchor="start" x="59" y="-461.45" font-family="Helvetica,sans-Serif" font-size="14.00">DangerSpear &#160;</text>
<polygon fill="none" stroke="black" points="44,-412 44,-456 161.75,-456 161.75,-412 44,-412"/>
<text text-anchor="start" x="47" y="-442.6" font-family="Helvetica,sans-Serif" font-size="12.00" fill="#838b8b">0.33s: CheckFacing</text>
<text text-anchor="start" x="47" y="-430.6" font-family="Helvetica,sans-Serif" font-size="12.00" fill="#838b8b">2.27s: LinkNextMove</text>
<text text-anchor="start" x="47" y="-416.7" font-family="Helvetica,sans-Serif" font-size="12.00" fill="#838b8b">2.35s: Done</text>
<text text-anchor="start" x="111.5" y="-416.7" font-family="Helvetica,sans-Serif" font-size="14.00"> &#160;</text>
</g>
<!-- DangerSpear&#45;&gt;PreAttack -->
<g id="edge6" class="edge">
<title>DangerSpear&#45;&gt;PreAttack</title>
<path fill="none" stroke="#cdc8b1" d="M169.53,-474.08C181.62,-479.58 194.09,-485.34 205.75,-490.88 244.73,-509.37 288.54,-531.27 320.55,-547.48"/>
<polygon fill="#cdc8b1" stroke="#cdc8b1" points="318.65,-550.44 329.15,-551.85 321.82,-544.2 318.65,-550.44"/>
</g>
<!-- RunPoke -->
<g id="node9" class="node">
<title>RunPoke</title>
<polygon fill="none" stroke="black" points="44,-788 44,-809.75 161.75,-809.75 161.75,-788 44,-788"/>
<text text-anchor="start" x="71.38" y="-793.45" font-family="Helvetica,sans-Serif" font-size="14.00">RunPoke &#160;</text>
<polygon fill="none" stroke="black" points="44,-744 44,-788 161.75,-788 161.75,-744 44,-744"/>
<text text-anchor="start" x="47" y="-774.6" font-family="Helvetica,sans-Serif" font-size="12.00" fill="#838b8b">0.00s: DangerHint</text>
<text text-anchor="start" x="47" y="-762.6" font-family="Helvetica,sans-Serif" font-size="12.00" fill="#838b8b">1.57s: LinkNextMove</text>
<text text-anchor="start" x="47" y="-748.7" font-family="Helvetica,sans-Serif" font-size="12.00" fill="#838b8b">1.58s: Done</text>
<text text-anchor="start" x="111.5" y="-748.7" font-family="Helvetica,sans-Serif" font-size="14.00"> &#160;</text>
</g>
<!-- RunPoke&#45;&gt;PreAttack -->
<g id="edge7" class="edge">
<title>RunPoke&#45;&gt;PreAttack</title>
<path fill="none" stroke="#cdc8b1" d="M169.62,-751.4C182.07,-745.42 194.65,-738.53 205.75,-730.88 261.96,-692.1 315.74,-632.4 344.57,-597.94"/>
<polygon fill="#cdc8b1" stroke="#cdc8b1" points="347.05,-600.44 350.72,-590.5 341.65,-595.98 347.05,-600.44"/>
</g>
<!-- RunPoke_mustuse -->
<g id="node10" class="node">
<title>RunPoke_mustuse</title>
<polygon fill="none" stroke="black" stroke-dasharray="1,5" points="417.48,-800.62 317.23,-800.62 317.23,-753.12 417.48,-753.12 417.48,-800.62"/>
<text text-anchor="start" x="327.23" y="-781.33" font-family="Helvetica,sans-Serif" font-size="14.00">1 Undefined &#160;</text>
<text text-anchor="start" x="327.23" y="-761.58" font-family="Helvetica,sans-Serif" font-size="14.00">1 Undefined &#160;</text>
</g>
<!-- RunPoke&#45;&gt;RunPoke_mustuse -->
<g id="edge8" class="edge">
<title>RunPoke&#45;&gt;RunPoke_mustuse</title>
<path fill="none" stroke="#458b74" d="M169.43,-776.88C211.12,-776.88 264.72,-776.88 305.47,-776.88"/>
<polygon fill="#458b74" stroke="#458b74" points="305.36,-780.38 315.36,-776.88 305.36,-773.38 305.36,-780.38"/>
<text text-anchor="middle" x="256.38" y="-779.33" font-family="Helvetica,sans-Serif" font-size="14.00" fill="#458b74">Weight</text>
</g>
<!-- HurtState -->
<g id="node11" class="node">
<title>HurtState</title>
<polygon fill="none" stroke="black" points="44.38,-696 44.38,-717.75 161.38,-717.75 161.38,-696 44.38,-696"/>
<text text-anchor="start" x="70.62" y="-701.45" font-family="Helvetica,sans-Serif" font-size="14.00">HurtState &#160;</text>
<polygon fill="none" stroke="black" points="44.38,-664 44.38,-696 161.38,-696 161.38,-664 44.38,-664"/>
<text text-anchor="start" x="47.38" y="-682.6" font-family="Helvetica,sans-Serif" font-size="12.00" fill="#838b8b">0.00s: EnableGravity</text>
<text text-anchor="start" x="47.38" y="-668.7" font-family="Helvetica,sans-Serif" font-size="12.00" fill="#838b8b">0.18s: Done</text>
<text text-anchor="start" x="111.88" y="-668.7" font-family="Helvetica,sans-Serif" font-size="14.00"> &#160;</text>
</g>
<!-- HurtState&#45;&gt;PreAttack -->
<g id="edge9" class="edge">
<title>HurtState&#45;&gt;PreAttack</title>
<path fill="none" stroke="#cdc8b1" d="M169.17,-666.22C181.41,-661.33 194.03,-656.08 205.75,-650.88 245.56,-633.18 289.81,-610.94 321.76,-594.41"/>
<polygon fill="#cdc8b1" stroke="#cdc8b1" points="323.08,-597.67 330.34,-589.95 319.85,-591.45 323.08,-597.67"/>
</g>
<!-- Hurt_BigState -->
<g id="node12" class="node">
<title>Hurt_BigState</title>
<polygon fill="none" stroke="black" points="44.38,-616 44.38,-637.75 161.38,-637.75 161.38,-616 44.38,-616"/>
<text text-anchor="start" x="57.12" y="-621.45" font-family="Helvetica,sans-Serif" font-size="14.00">Hurt_BigState &#160;</text>
<polygon fill="none" stroke="black" points="44.38,-584 44.38,-616 161.38,-616 161.38,-584 44.38,-584"/>
<text text-anchor="start" x="47.38" y="-602.6" font-family="Helvetica,sans-Serif" font-size="12.00" fill="#838b8b">0.00s: EnableGravity</text>
<text text-anchor="start" x="47.38" y="-588.7" font-family="Helvetica,sans-Serif" font-size="12.00" fill="#838b8b">1.00s: Done</text>
<text text-anchor="start" x="111.88" y="-588.7" font-family="Helvetica,sans-Serif" font-size="14.00"> &#160;</text>
</g>
<!-- Hurt_BigState&#45;&gt;PreAttack -->
<g id="edge10" class="edge">
<title>Hurt_BigState&#45;&gt;PreAttack</title>
<path fill="none" stroke="#cdc8b1" d="M169.09,-600.94C215.45,-593.87 276.66,-584.54 318.52,-578.16"/>
<polygon fill="#cdc8b1" stroke="#cdc8b1" points="318.94,-581.64 328.29,-576.67 317.88,-574.72 318.94,-581.64"/>
</g>
<!-- JumpBack -->
<g id="node13" class="node">
<title>JumpBack</title>
<polygon fill="none" stroke="black" points="40.25,-204.88 40.25,-226.62 165.5,-226.62 165.5,-204.88 40.25,-204.88"/>
<text text-anchor="start" x="67.25" y="-210.32" font-family="Helvetica,sans-Serif" font-size="14.00">JumpBack &#160;</text>
<polygon fill="none" stroke="black" points="40.25,-183.12 40.25,-204.88 165.5,-204.88 165.5,-183.12 40.25,-183.12"/>
<text text-anchor="start" x="43.25" y="-189.57" font-family="Helvetica,sans-Serif" font-size="12.00" fill="#838b8b">0.83s: LinkNextMove</text>
<text text-anchor="start" x="155" y="-189.57" font-family="Helvetica,sans-Serif" font-size="14.00"> &#160;</text>
</g>
<!-- JumpBack&#45;&gt;Engaging -->
<g id="edge11" class="edge">
<title>JumpBack&#45;&gt;Engaging</title>
<path fill="none" stroke="#cdc8b1" d="M173.34,-193.72C208.08,-188.11 250.77,-181.18 289,-174.88 298.86,-173.25 309.42,-171.49 319.47,-169.8"/>
<polygon fill="#cdc8b1" stroke="#cdc8b1" points="319.77,-173.3 329.05,-168.19 318.61,-166.4 319.77,-173.3"/>
</g>
<!-- JumpBack_mustuse -->
<g id="node14" class="node">
<title>JumpBack_mustuse</title>
<polygon fill="none" stroke="black" stroke-dasharray="1,5" points="417.48,-245.62 317.23,-245.62 317.23,-198.12 417.48,-198.12 417.48,-245.62"/>
<text text-anchor="start" x="327.23" y="-226.32" font-family="Helvetica,sans-Serif" font-size="14.00">1 Undefined &#160;</text>
<text text-anchor="start" x="327.23" y="-206.57" font-family="Helvetica,sans-Serif" font-size="14.00">1 Undefined &#160;</text>
</g>
<!-- JumpBack&#45;&gt;JumpBack_mustuse -->
<g id="edge12" class="edge">
<title>JumpBack&#45;&gt;JumpBack_mustuse</title>
<path fill="none" stroke="#458b74" d="M173.18,-209.36C214.38,-212.03 266.13,-215.38 305.7,-217.95"/>
<polygon fill="#458b74" stroke="#458b74" points="305.33,-221.43 315.53,-218.58 305.78,-214.44 305.33,-221.43"/>
<text text-anchor="middle" x="256.38" y="-219.3" font-family="Helvetica,sans-Serif" font-size="14.00" fill="#458b74">Weight</text>
</g>
<!-- PostureBreak -->
<g id="node15" class="node">
<title>PostureBreak</title>
<polygon fill="none" stroke="black" points="44.38,-536 44.38,-557.75 161.38,-557.75 161.38,-536 44.38,-536"/>
<text text-anchor="start" x="58.25" y="-541.45" font-family="Helvetica,sans-Serif" font-size="14.00">PostureBreak &#160;</text>
<polygon fill="none" stroke="black" points="44.38,-504 44.38,-536 161.38,-536 161.38,-504 44.38,-504"/>
<text text-anchor="start" x="47.38" y="-522.6" font-family="Helvetica,sans-Serif" font-size="12.00" fill="#838b8b">0.00s: EnableGravity</text>
<text text-anchor="start" x="47.38" y="-508.7" font-family="Helvetica,sans-Serif" font-size="12.00" fill="#838b8b">1.50s: Done</text>
<text text-anchor="start" x="111.88" y="-508.7" font-family="Helvetica,sans-Serif" font-size="14.00"> &#160;</text>
</g>
<!-- PostureBreak&#45;&gt;PreAttack -->
<g id="edge13" class="edge">
<title>PostureBreak&#45;&gt;PreAttack</title>
<path fill="none" stroke="#cdc8b1" d="M169.09,-540.81C215.45,-547.88 276.66,-557.21 318.52,-563.59"/>
<polygon fill="#cdc8b1" stroke="#cdc8b1" points="317.88,-567.03 328.29,-565.08 318.94,-560.11 317.88,-567.03"/>
</g>
<!-- RollThrough -->
<g id="node16" class="node">
<title>RollThrough</title>
<polygon fill="none" stroke="black" points="8,-48 8,-69.75 197.75,-69.75 197.75,-48 8,-48"/>
<text text-anchor="start" x="62.38" y="-53.45" font-family="Helvetica,sans-Serif" font-size="14.00">RollThrough &#160;</text>
<polygon fill="none" stroke="black" points="8,-4 8,-48 197.75,-48 197.75,-4 8,-4"/>
<text text-anchor="start" x="11" y="-34.6" font-family="Helvetica,sans-Serif" font-size="12.00" fill="#838b8b">1.00s: InterruptFacing_TargetRight</text>
<text text-anchor="start" x="11" y="-22.6" font-family="Helvetica,sans-Serif" font-size="12.00" fill="#838b8b">1.02s: LinkNextMove</text>
<text text-anchor="start" x="11" y="-8.7" font-family="Helvetica,sans-Serif" font-size="12.00" fill="#838b8b">1.50s: Done</text>
<text text-anchor="start" x="75.5" y="-8.7" font-family="Helvetica,sans-Serif" font-size="14.00"> &#160;</text>
</g>
<!-- RollThrough&#45;&gt;Engaging -->
<g id="edge14" class="edge">
<title>RollThrough&#45;&gt;Engaging</title>
<path fill="none" stroke="#cdc8b1" d="M195.16,-73.58C198.92,-76.47 202.47,-79.56 205.75,-82.88 219.75,-97.02 208.64,-110.92 223.75,-123.88 238.14,-136.21 283.55,-146.99 319.3,-153.88"/>
<polygon fill="#cdc8b1" stroke="#cdc8b1" points="318.56,-157.3 329.03,-155.7 319.84,-150.42 318.56,-157.3"/>
</g>
<!-- RollThrough_mustuse -->
<g id="node17" class="node">
<title>RollThrough_mustuse</title>
<polygon fill="none" stroke="black" stroke-dasharray="1,5" points="417.48,-70.5 317.23,-70.5 317.23,-3.25 417.48,-3.25 417.48,-70.5"/>
<text text-anchor="start" x="327.23" y="-51.2" font-family="Helvetica,sans-Serif" font-size="14.00">1 Undefined &#160;</text>
<text text-anchor="start" x="327.23" y="-31.45" font-family="Helvetica,sans-Serif" font-size="14.00">1 Undefined &#160;</text>
<text text-anchor="start" x="327.23" y="-11.7" font-family="Helvetica,sans-Serif" font-size="14.00">1 Undefined &#160;</text>
</g>
<!-- RollThrough&#45;&gt;RollThrough_mustuse -->
<g id="edge15" class="edge">
<title>RollThrough&#45;&gt;RollThrough_mustuse</title>
<path fill="none" stroke="#458b74" d="M205.73,-36.88C239.44,-36.88 275.88,-36.88 305.52,-36.88"/>
<polygon fill="#458b74" stroke="#458b74" points="305.42,-40.38 315.42,-36.88 305.42,-33.38 305.42,-40.38"/>
<text text-anchor="middle" x="256.38" y="-39.33" font-family="Helvetica,sans-Serif" font-size="14.00" fill="#458b74">Weight</text>
</g>
<!-- Wandering_Idle -->
<g id="node18" class="node">
<title>Wandering_Idle</title>
<polygon fill="none" stroke="black" points="173.5,-867.88 32.25,-867.88 32.25,-831.88 173.5,-831.88 173.5,-867.88"/>
<text text-anchor="middle" x="102.88" y="-844.45" font-family="Helvetica,sans-Serif" font-size="14.00">Wandering_Idle (Init)</text>
</g>
<!-- Level Once Sensor -->
<g id="node19" class="node">
<title>Level Once Sensor</title>
<polygon fill="none" stroke="black" points="168.62,-943.88 37.12,-943.88 37.12,-907.88 168.62,-907.88 168.62,-943.88"/>
<text text-anchor="middle" x="102.88" y="-920.45" font-family="Helvetica,sans-Serif" font-size="14.00">Level Once Sensor</text>
</g>
<!-- Level Once Sensor_linked -->
<g id="node20" class="node">
<title>Level Once Sensor_linked</title>
<polygon fill="none" stroke="black" stroke-dasharray="1,5" points="427.7,-919.88 307,-919.88 307,-883.88 427.7,-883.88 427.7,-919.88"/>
<text text-anchor="start" x="312.6" y="-896.45" font-family="Helvetica,sans-Serif" font-size="14.00">TurnAroundPoke &#160;</text>
</g>
<!-- Level Once Sensor&#45;&gt;Level Once Sensor_linked -->
<g id="edge16" class="edge">
<title>Level Once Sensor&#45;&gt;Level Once Sensor_linked</title>
<path fill="none" stroke="#66cdaa" d="M168.87,-919.36C186.66,-917.62 205.95,-915.76 223.75,-914.12 247.03,-911.98 272.47,-909.76 295.33,-907.81"/>
<polygon fill="#66cdaa" stroke="#66cdaa" points="295.49,-911.31 305.16,-906.97 294.9,-904.33 295.49,-911.31"/>
<text text-anchor="middle" x="256.38" y="-916.58" font-family="Helvetica,sans-Serif" font-size="14.00" fill="#66cdaa">QueueEnd</text>
</g>
<!-- Level Once Sensor_mustuse -->
<g id="node21" class="node">
<title>Level Once Sensor_mustuse</title>
<polygon fill="none" stroke="black" stroke-dasharray="1,5" points="417.48,-973.88 317.23,-973.88 317.23,-937.88 417.48,-937.88 417.48,-973.88"/>
<text text-anchor="start" x="327.23" y="-950.45" font-family="Helvetica,sans-Serif" font-size="14.00">1 Undefined &#160;</text>
</g>
<!-- Level Once Sensor&#45;&gt;Level Once Sensor_mustuse -->
<g id="edge17" class="edge">
<title>Level Once Sensor&#45;&gt;Level Once Sensor_mustuse</title>
<path fill="none" stroke="#458b74" d="M169.09,-933.33C210.78,-938.09 264.47,-944.23 305.32,-948.9"/>
<polygon fill="#458b74" stroke="#458b74" points="304.91,-952.37 315.24,-950.03 305.7,-945.42 304.91,-952.37"/>
<text text-anchor="middle" x="256.38" y="-949.46" font-family="Helvetica,sans-Serif" font-size="14.00" fill="#458b74">Weight</text>
</g>
<!-- RunAwaySensor -->
<g id="node22" class="node">
<title>RunAwaySensor</title>
<polygon fill="none" stroke="black" points="161.12,-1029.88 44.62,-1029.88 44.62,-993.88 161.12,-993.88 161.12,-1029.88"/>
<text text-anchor="middle" x="102.88" y="-1006.45" font-family="Helvetica,sans-Serif" font-size="14.00">RunAwaySensor</text>
</g>
<!-- AttackSensor -->
<g id="node23" class="node">
<title>AttackSensor</title>
<polygon fill="none" stroke="black" points="44,-1077.88 44,-1099.62 161.75,-1099.62 161.75,-1077.88 44,-1077.88"/>
<text text-anchor="start" x="59" y="-1083.33" font-family="Helvetica,sans-Serif" font-size="14.00">AttackSensor &#160;</text>
<polygon fill="none" stroke="black" points="44,-1056.12 44,-1077.88 161.75,-1077.88 161.75,-1056.12 44,-1056.12"/>
<text text-anchor="start" x="47" y="-1062.58" font-family="Helvetica,sans-Serif" font-size="12.00" fill="#838b8b">if: state is PreAttack</text>
<text text-anchor="start" x="151.25" y="-1062.58" font-family="Helvetica,sans-Serif" font-size="14.00"> &#160;</text>
</g>
<!-- AttackSensor_linked -->
<g id="node24" class="node">
<title>AttackSensor_linked</title>
<polygon fill="none" stroke="black" stroke-dasharray="1,5" points="416.83,-1027.88 317.88,-1027.88 317.88,-991.88 416.83,-991.88 416.83,-1027.88"/>
<text text-anchor="start" x="323.48" y="-1004.45" font-family="Helvetica,sans-Serif" font-size="14.00">DoubleAttack &#160;</text>
</g>
<!-- AttackSensor&#45;&gt;AttackSensor_linked -->
<g id="edge18" class="edge">
<title>AttackSensor&#45;&gt;AttackSensor_linked</title>
<path fill="none" stroke="#66cdaa" d="M169.43,-1060.89C211.58,-1049.97 265.9,-1035.9 306.81,-1025.3"/>
<polygon fill="#66cdaa" stroke="#66cdaa" points="307.43,-1028.75 316.23,-1022.86 305.68,-1021.98 307.43,-1028.75"/>
<text text-anchor="middle" x="256.38" y="-1048.36" font-family="Helvetica,sans-Serif" font-size="14.00" fill="#66cdaa">QueueEnd</text>
</g>
<!-- AttackSensor_mustuse -->
<g id="node25" class="node">
<title>AttackSensor_mustuse</title>
<polygon fill="none" stroke="black" stroke-dasharray="1,5" points="417.48,-1113.5 317.23,-1113.5 317.23,-1046.25 417.48,-1046.25 417.48,-1113.5"/>
<text text-anchor="start" x="327.23" y="-1094.2" font-family="Helvetica,sans-Serif" font-size="14.00">2 Undefined &#160;</text>
<text text-anchor="start" x="327.23" y="-1074.45" font-family="Helvetica,sans-Serif" font-size="14.00">0 Undefined &#160;</text>
<text text-anchor="start" x="327.23" y="-1054.7" font-family="Helvetica,sans-Serif" font-size="14.00">1 Undefined &#160;</text>
</g>
<!-- AttackSensor&#45;&gt;AttackSensor_mustuse -->
<g id="edge19" class="edge">
<title>AttackSensor&#45;&gt;AttackSensor_mustuse</title>
<path fill="none" stroke="#458b74" d="M169.43,-1078.37C211.12,-1078.69 264.72,-1079.1 305.47,-1079.41"/>
<polygon fill="#458b74" stroke="#458b74" points="305.33,-1082.91 315.36,-1079.49 305.38,-1075.91 305.33,-1082.91"/>
<text text-anchor="middle" x="256.38" y="-1081.73" font-family="Helvetica,sans-Serif" font-size="14.00" fill="#458b74">Weight</text>
</g>
<!-- DodgePredictSensor -->
<g id="node26" class="node">
<title>DodgePredictSensor</title>
<polygon fill="none" stroke="black" points="33.88,-1149.88 33.88,-1171.62 171.88,-1171.62 171.88,-1149.88 33.88,-1149.88"/>
<text text-anchor="start" x="36.88" y="-1155.33" font-family="Helvetica,sans-Serif" font-size="14.00">DodgePredictSensor &#160;</text>
<polygon fill="none" stroke="black" points="33.88,-1128.12 33.88,-1149.88 171.88,-1149.88 171.88,-1128.12 33.88,-1128.12"/>
<text text-anchor="start" x="36.88" y="-1134.58" font-family="Helvetica,sans-Serif" font-size="12.00" fill="#838b8b">if: Dodge</text>
<text text-anchor="start" x="84.88" y="-1134.58" font-family="Helvetica,sans-Serif" font-size="14.00"> &#160;</text>
</g>
<!-- DodgePredictSensor_linked -->
<g id="node27" class="node">
<title>DodgePredictSensor_linked</title>
<polygon fill="none" stroke="black" stroke-dasharray="1,5" points="416.83,-1167.88 317.88,-1167.88 317.88,-1131.88 416.83,-1131.88 416.83,-1167.88"/>
<text text-anchor="start" x="323.48" y="-1144.45" font-family="Helvetica,sans-Serif" font-size="14.00">DoubleAttack &#160;</text>
</g>
<!-- DodgePredictSensor&#45;&gt;DodgePredictSensor_linked -->
<g id="edge20" class="edge">
<title>DodgePredictSensor&#45;&gt;DodgePredictSensor_linked</title>
<path fill="none" stroke="#66cdaa" d="M179.79,-1149.88C220,-1149.88 268.68,-1149.88 306.23,-1149.88"/>
<polygon fill="#66cdaa" stroke="#66cdaa" points="305.99,-1153.38 315.99,-1149.88 305.99,-1146.38 305.99,-1153.38"/>
<text text-anchor="middle" x="256.38" y="-1152.33" font-family="Helvetica,sans-Serif" font-size="14.00" fill="#66cdaa">QueueEnd</text>
</g>
<!-- AttackPredictSensor -->
<g id="node28" class="node">
<title>AttackPredictSensor</title>
<polygon fill="none" stroke="black" points="35,-1235.88 35,-1257.62 170.75,-1257.62 170.75,-1235.88 35,-1235.88"/>
<text text-anchor="start" x="38" y="-1241.33" font-family="Helvetica,sans-Serif" font-size="14.00">AttackPredictSensor &#160;</text>
<polygon fill="none" stroke="black" points="35,-1214.12 35,-1235.88 170.75,-1235.88 170.75,-1214.12 35,-1214.12"/>
<text text-anchor="start" x="38" y="-1220.58" font-family="Helvetica,sans-Serif" font-size="12.00" fill="#838b8b">if: Attack</text>
<text text-anchor="start" x="83" y="-1220.58" font-family="Helvetica,sans-Serif" font-size="14.00"> &#160;</text>
</g>
<!-- AttackPredictSensor_linked -->
<g id="node29" class="node">
<title>AttackPredictSensor_linked</title>
<polygon fill="none" stroke="black" stroke-dasharray="1,5" points="427.7,-1221.88 307,-1221.88 307,-1185.88 427.7,-1185.88 427.7,-1221.88"/>
<text text-anchor="start" x="312.6" y="-1198.45" font-family="Helvetica,sans-Serif" font-size="14.00">TurnAroundPoke &#160;</text>
</g>
<!-- AttackPredictSensor&#45;&gt;AttackPredictSensor_linked -->
<g id="edge21" class="edge">
<title>AttackPredictSensor&#45;&gt;AttackPredictSensor_linked</title>
<path fill="none" stroke="#66cdaa" d="M178.74,-1226.75C215.54,-1222.26 259.64,-1216.88 295.84,-1212.47"/>
<polygon fill="#66cdaa" stroke="#66cdaa" points="295.8,-1216 305.3,-1211.32 294.95,-1209.05 295.8,-1216"/>
<text text-anchor="middle" x="256.38" y="-1223.28" font-family="Helvetica,sans-Serif" font-size="14.00" fill="#66cdaa">QueueEnd</text>
</g>
<!-- AttackPredictSensor_mustuse -->
<g id="node33" class="node">
<title>AttackPredictSensor_mustuse</title>
<polygon fill="none" stroke="black" stroke-dasharray="1,5" points="417.48,-1275.88 317.23,-1275.88 317.23,-1239.88 417.48,-1239.88 417.48,-1275.88"/>
<text text-anchor="start" x="327.23" y="-1252.45" font-family="Helvetica,sans-Serif" font-size="14.00">1 Undefined &#160;</text>
</g>
<!-- AttackPredictSensor&#45;&gt;AttackPredictSensor_mustuse -->
<g id="edge24" class="edge">
<title>AttackPredictSensor&#45;&gt;AttackPredictSensor_mustuse</title>
<path fill="none" stroke="#458b74" d="M178.74,-1242.15C218.97,-1245.52 267.94,-1249.63 305.75,-1252.8"/>
<polygon fill="#458b74" stroke="#458b74" points="305.34,-1256.27 315.6,-1253.62 305.93,-1249.3 305.34,-1256.27"/>
<text text-anchor="middle" x="256.38" y="-1253.82" font-family="Helvetica,sans-Serif" font-size="14.00" fill="#458b74">Weight</text>
</g>
<!-- AttackRunToSensor -->
<g id="node30" class="node">
<title>AttackRunToSensor</title>
<polygon fill="none" stroke="black" points="36.5,-1342.88 36.5,-1364.62 169.25,-1364.62 169.25,-1342.88 36.5,-1342.88"/>
<text text-anchor="start" x="39.5" y="-1348.33" font-family="Helvetica,sans-Serif" font-size="14.00">AttackRunToSensor &#160;</text>
<polygon fill="none" stroke="black" points="36.5,-1321.12 36.5,-1342.88 169.25,-1342.88 169.25,-1321.12 36.5,-1321.12"/>
<text text-anchor="start" x="39.5" y="-1327.58" font-family="Helvetica,sans-Serif" font-size="12.00" fill="#838b8b">if: state is Engaging</text>
<text text-anchor="start" x="143.75" y="-1327.58" font-family="Helvetica,sans-Serif" font-size="14.00"> &#160;</text>
</g>
<!-- AttackRunToSensor_linked -->
<g id="node31" class="node">
<title>AttackRunToSensor_linked</title>
<polygon fill="none" stroke="black" stroke-dasharray="1,5" points="404.45,-1329.88 330.25,-1329.88 330.25,-1293.88 404.45,-1293.88 404.45,-1329.88"/>
<text text-anchor="start" x="335.85" y="-1306.45" font-family="Helvetica,sans-Serif" font-size="14.00">RunPoke &#160;</text>
</g>
<!-- AttackRunToSensor&#45;&gt;AttackRunToSensor_linked -->
<g id="edge22" class="edge">
<title>AttackRunToSensor&#45;&gt;AttackRunToSensor_linked</title>
<path fill="none" stroke="#66cdaa" d="M176.99,-1334.24C222.18,-1328.9 278.88,-1322.21 318.41,-1317.54"/>
<polygon fill="#66cdaa" stroke="#66cdaa" points="318.81,-1321.01 328.33,-1316.36 317.99,-1314.06 318.81,-1321.01"/>
<text text-anchor="middle" x="256.38" y="-1330.75" font-family="Helvetica,sans-Serif" font-size="14.00" fill="#66cdaa">QueueEnd</text>
</g>
<!-- AttackRunToSensor_mustuse -->
<g id="node32" class="node">
<title>AttackRunToSensor_mustuse</title>
<polygon fill="none" stroke="black" stroke-dasharray="1,5" points="417.48,-1383.88 317.23,-1383.88 317.23,-1347.88 417.48,-1347.88 417.48,-1383.88"/>
<text text-anchor="start" x="327.23" y="-1360.45" font-family="Helvetica,sans-Serif" font-size="14.00">1 Undefined &#160;</text>
</g>
<!-- AttackRunToSensor&#45;&gt;AttackRunToSensor_mustuse -->
<g id="edge23" class="edge">
<title>AttackRunToSensor&#45;&gt;AttackRunToSensor_mustuse</title>
<path fill="none" stroke="#458b74" d="M176.99,-1349.28C217.58,-1352.84 267.46,-1357.21 305.84,-1360.57"/>
<polygon fill="#458b74" stroke="#458b74" points="305.08,-1364.02 315.34,-1361.41 305.69,-1357.05 305.08,-1364.02"/>
<text text-anchor="middle" x="256.38" y="-1361.53" font-family="Helvetica,sans-Serif" font-size="14.00" fill="#458b74">Weight</text>
</g>
<!-- RollSensor -->
<g id="node34" class="node">
<title>RollSensor</title>
<polygon fill="none" stroke="black" points="143.88,-1437.88 61.88,-1437.88 61.88,-1401.88 143.88,-1401.88 143.88,-1437.88"/>
<text text-anchor="middle" x="102.88" y="-1414.45" font-family="Helvetica,sans-Serif" font-size="14.00">RollSensor</text>
</g>
<!-- RollSensor_linked -->
<g id="node35" class="node">
<title>RollSensor_linked</title>
<polygon fill="none" stroke="black" stroke-dasharray="1,5" points="413.45,-1437.88 321.25,-1437.88 321.25,-1401.88 413.45,-1401.88 413.45,-1437.88"/>
<text text-anchor="start" x="326.85" y="-1414.45" font-family="Helvetica,sans-Serif" font-size="14.00">RollThrough &#160;</text>
</g>
<!-- RollSensor&#45;&gt;RollSensor_linked -->
<g id="edge25" class="edge">
<title>RollSensor&#45;&gt;RollSensor_linked</title>
<path fill="none" stroke="#66cdaa" d="M144.31,-1419.88C188.6,-1419.88 259.96,-1419.88 309.79,-1419.88"/>
<polygon fill="#66cdaa" stroke="#66cdaa" points="309.51,-1423.38 319.51,-1419.88 309.51,-1416.38 309.51,-1423.38"/>
<text text-anchor="middle" x="256.38" y="-1422.33" font-family="Helvetica,sans-Serif" font-size="14.00" fill="#66cdaa">QueueEnd</text>
</g>
<!-- JumpAwaySensor -->
<g id="node36" class="node">
<title>JumpAwaySensor</title>
<polygon fill="none" stroke="black" points="165.62,-1491.88 40.12,-1491.88 40.12,-1455.88 165.62,-1455.88 165.62,-1491.88"/>
<text text-anchor="middle" x="102.88" y="-1468.45" font-family="Helvetica,sans-Serif" font-size="14.00">JumpAwaySensor</text>
</g>
<!-- JumpAwaySensor_linked -->
<g id="node37" class="node">
<title>JumpAwaySensor_linked</title>
<polygon fill="none" stroke="black" stroke-dasharray="1,5" points="413.45,-1491.88 321.25,-1491.88 321.25,-1455.88 413.45,-1455.88 413.45,-1491.88"/>
<text text-anchor="start" x="326.85" y="-1468.45" font-family="Helvetica,sans-Serif" font-size="14.00">RollThrough &#160;</text>
</g>
<!-- JumpAwaySensor&#45;&gt;JumpAwaySensor_linked -->
<g id="edge26" class="edge">
<title>JumpAwaySensor&#45;&gt;JumpAwaySensor_linked</title>
<path fill="none" stroke="#66cdaa" d="M166.08,-1473.88C209.59,-1473.88 267.25,-1473.88 309.53,-1473.88"/>
<polygon fill="#66cdaa" stroke="#66cdaa" points="309.51,-1477.38 319.51,-1473.88 309.51,-1470.38 309.51,-1477.38"/>
<text text-anchor="middle" x="256.38" y="-1476.33" font-family="Helvetica,sans-Serif" font-size="14.00" fill="#66cdaa">QueueEnd</text>
</g>
</g>
</svg>
