<?xml version="1.0" encoding="UTF-8" standalone="no"?>
<!DOCTYPE svg PUBLIC "-//W3C//DTD SVG 1.1//EN"
 "http://www.w3.org/Graphics/SVG/1.1/DTD/svg11.dtd">
<!-- Generated by graphviz version 12.2.1 (20241206.2353)
 -->
<!-- Title: Foo Pages: 1 -->
<svg width="488pt" height="1373pt"
 viewBox="0.00 0.00 487.75 1373.00" xmlns="http://www.w3.org/2000/svg" xmlns:xlink="http://www.w3.org/1999/xlink">
<g id="graph0" class="graph" transform="scale(1 1) rotate(0) translate(4 1369)">
<title>Foo</title>
<polygon fill="white" stroke="none" points="-4,4 -4,-1369 483.75,-1369 483.75,4 -4,4"/>
<g id="clust1" class="cluster">
<title>cluster_attacksensors</title>
<polygon fill="none" stroke="black" points="8,-8 8,-490 471.75,-490 471.75,-8 8,-8"/>
<text text-anchor="middle" x="239.88" y="-472.7" font-family="Helvetica,sans-Serif" font-size="14.00">Attack Sensors</text>
</g>
<!-- Level Once Sensor -->
<g id="node1" class="node">
<title>Level Once Sensor</title>
<polygon fill="none" stroke="black" points="28.5,-51.12 28.5,-72.88 157.5,-72.88 157.5,-51.12 28.5,-51.12"/>
<text text-anchor="start" x="31.5" y="-56.58" font-family="Helvetica,sans-Serif" font-size="14.00">Level Once Sensor &#160;</text>
</g>
<!-- Level Once Sensor_linked -->
<g id="node2" class="node">
<title>Level Once Sensor_linked</title>
<polygon fill="none" stroke="black" stroke-dasharray="1,5" points="431.23,-52 313.52,-52 313.52,-16 431.23,-16 431.23,-52"/>
<text text-anchor="start" x="319.12" y="-28.57" font-family="Helvetica,sans-Serif" font-size="14.00">BackJumpShoot &#160;</text>
</g>
<!-- Level Once Sensor&#45;&gt;Level Once Sensor_linked -->
<g id="edge1" class="edge">
<title>Level Once Sensor&#45;&gt;Level Once Sensor_linked</title>
<path fill="none" stroke="#66cdaa" d="M165.43,-54.79C207.39,-50.55 260.19,-45.22 301.83,-41.02"/>
<polygon fill="#66cdaa" stroke="#66cdaa" points="302.15,-44.51 311.75,-40.02 301.45,-37.54 302.15,-44.51"/>
<text text-anchor="middle" x="230.38" y="-53.78" font-family="Helvetica,sans-Serif" font-size="14.00" fill="#66cdaa">QueueEnd</text>
</g>
<!-- Level Once Sensor_weight -->
<g id="node3" class="node">
<title>Level Once Sensor_weight</title>
<polygon fill="none" stroke="black" stroke-dasharray="1,5" points="441.25,-106 303.5,-106 303.5,-70 441.25,-70 441.25,-106"/>
<text text-anchor="start" x="313.5" y="-82.58" font-family="Helvetica,sans-Serif" font-size="14.00">1 BackJumpShoot &#160;</text>
</g>
<!-- Level Once Sensor&#45;&gt;Level Once Sensor_weight -->
<g id="edge2" class="edge">
<title>Level Once Sensor&#45;&gt;Level Once Sensor_weight</title>
<path fill="none" stroke="#458b74" d="M165.43,-68.7C204.08,-72.32 251.93,-76.8 291.78,-80.54"/>
<polygon fill="#458b74" stroke="#458b74" points="291.27,-84.01 301.55,-81.45 291.92,-77.04 291.27,-84.01"/>
<text text-anchor="middle" x="230.38" y="-79.78" font-family="Helvetica,sans-Serif" font-size="14.00" fill="#458b74">Weight</text>
</g>
<!-- RunAwaySensor -->
<g id="node4" class="node">
<title>RunAwaySensor</title>
<polygon fill="none" stroke="black" points="36,-132.12 36,-153.88 150,-153.88 150,-132.12 36,-132.12"/>
<text text-anchor="start" x="39" y="-137.57" font-family="Helvetica,sans-Serif" font-size="14.00">RunAwaySensor &#160;</text>
</g>
<!-- AttackSensor -->
<g id="node5" class="node">
<title>AttackSensor</title>
<polygon fill="none" stroke="black" points="46.12,-193.12 46.12,-214.88 139.88,-214.88 139.88,-193.12 46.12,-193.12"/>
<text text-anchor="start" x="49.12" y="-198.57" font-family="Helvetica,sans-Serif" font-size="14.00">AttackSensor &#160;</text>
</g>
<!-- AttackSensor_linked -->
<g id="node6" class="node">
<title>AttackSensor_linked</title>
<polygon fill="none" stroke="black" stroke-dasharray="1,5" points="453.73,-190.22 291.02,-190.22 291.02,-123.78 453.73,-123.78 453.73,-190.22"/>
<text text-anchor="start" x="319.12" y="-171.32" font-family="Helvetica,sans-Serif" font-size="14.00">BackJumpShoot &#160;</text>
<text text-anchor="start" x="296.62" y="-151.57" font-family="Helvetica,sans-Serif" font-size="14.00">JumpJumpDoubleSlash &#160;</text>
<text text-anchor="start" x="309.75" y="-131.82" font-family="Helvetica,sans-Serif" font-size="14.00">JumpJumpAirSlash &#160;</text>
</g>
<!-- AttackSensor&#45;&gt;AttackSensor_linked -->
<g id="edge3" class="edge">
<title>AttackSensor&#45;&gt;AttackSensor_linked</title>
<path fill="none" stroke="#66cdaa" d="M147.84,-194.76C163.9,-192.01 181.54,-189 197.75,-186.25 224.25,-181.75 253.03,-176.89 279.4,-172.45"/>
<polygon fill="#66cdaa" stroke="#66cdaa" points="279.77,-175.94 289.05,-170.83 278.61,-169.03 279.77,-175.94"/>
<text text-anchor="middle" x="230.38" y="-188.7" font-family="Helvetica,sans-Serif" font-size="14.00" fill="#66cdaa">QueueEnd</text>
</g>
<!-- AttackSensor_weight -->
<g id="node7" class="node">
<title>AttackSensor_weight</title>
<polygon fill="none" stroke="black" stroke-dasharray="1,5" points="463.75,-295.5 281,-295.5 281,-208.5 463.75,-208.5 463.75,-295.5"/>
<text text-anchor="start" x="313.5" y="-276.2" font-family="Helvetica,sans-Serif" font-size="14.00">1 BackJumpShoot &#160;</text>
<text text-anchor="start" x="291" y="-256.45" font-family="Helvetica,sans-Serif" font-size="14.00">1 JumpJumpDoubleSlash &#160;</text>
<text text-anchor="start" x="304.12" y="-236.7" font-family="Helvetica,sans-Serif" font-size="14.00">1 JumpJumpAirSlash &#160;</text>
<text text-anchor="start" x="325.12" y="-216.95" font-family="Helvetica,sans-Serif" font-size="14.00">1 DangerDash &#160;</text>
</g>
<!-- AttackSensor&#45;&gt;AttackSensor_weight -->
<g id="edge4" class="edge">
<title>AttackSensor&#45;&gt;AttackSensor_weight</title>
<path fill="none" stroke="#458b74" d="M147.81,-213.31C182.3,-219.28 228.17,-227.22 269.38,-234.35"/>
<polygon fill="#458b74" stroke="#458b74" points="268.65,-237.77 279.1,-236.03 269.84,-230.88 268.65,-237.77"/>
<text text-anchor="middle" x="230.38" y="-234.75" font-family="Helvetica,sans-Serif" font-size="14.00" fill="#458b74">Weight</text>
</g>
<!-- DodgePredictSensor -->
<g id="node8" class="node">
<title>DodgePredictSensor</title>
<polygon fill="none" stroke="black" points="24,-292 24,-313.75 162,-313.75 162,-292 24,-292"/>
<text text-anchor="start" x="27" y="-297.45" font-family="Helvetica,sans-Serif" font-size="14.00">DodgePredictSensor &#160;</text>
<polygon fill="none" stroke="black" points="24,-270.25 24,-292 162,-292 162,-270.25 24,-270.25"/>
<text text-anchor="start" x="27" y="-276.7" font-family="Helvetica,sans-Serif" font-size="12.00" fill="#838b8b">if: rollingCondition</text>
<text text-anchor="start" x="123.75" y="-276.7" font-family="Helvetica,sans-Serif" font-size="14.00"> &#160;</text>
</g>
<!-- DodgePredictSensor_linked -->
<g id="node9" class="node">
<title>DodgePredictSensor_linked</title>
<polygon fill="none" stroke="black" stroke-dasharray="1,5" points="431.23,-350 313.52,-350 313.52,-314 431.23,-314 431.23,-350"/>
<text text-anchor="start" x="319.12" y="-326.57" font-family="Helvetica,sans-Serif" font-size="14.00">BackJumpShoot &#160;</text>
</g>
<!-- DodgePredictSensor&#45;&gt;DodgePredictSensor_linked -->
<g id="edge5" class="edge">
<title>DodgePredictSensor&#45;&gt;DodgePredictSensor_linked</title>
<path fill="none" stroke="#66cdaa" d="M169.79,-302.93C211.05,-308.88 261.73,-316.19 301.95,-321.99"/>
<polygon fill="#66cdaa" stroke="#66cdaa" points="301.38,-325.44 311.77,-323.4 302.37,-318.51 301.38,-325.44"/>
<text text-anchor="middle" x="230.38" y="-318.03" font-family="Helvetica,sans-Serif" font-size="14.00" fill="#66cdaa">QueueEnd</text>
</g>
<!-- AttackPredictSensor -->
<g id="node10" class="node">
<title>AttackPredictSensor</title>
<polygon fill="none" stroke="black" points="25.12,-362 25.12,-383.75 160.88,-383.75 160.88,-362 25.12,-362"/>
<text text-anchor="start" x="28.12" y="-367.45" font-family="Helvetica,sans-Serif" font-size="14.00">AttackPredictSensor &#160;</text>
<polygon fill="none" stroke="black" points="25.12,-340.25 25.12,-362 160.88,-362 160.88,-340.25 25.12,-340.25"/>
<text text-anchor="start" x="28.12" y="-346.7" font-family="Helvetica,sans-Serif" font-size="12.00" fill="#838b8b">if: attackCondition</text>
<text text-anchor="start" x="123.38" y="-346.7" font-family="Helvetica,sans-Serif" font-size="14.00"> &#160;</text>
</g>
<!-- AttackPredictSensor_linked -->
<g id="node11" class="node">
<title>AttackPredictSensor_linked</title>
<polygon fill="none" stroke="black" stroke-dasharray="1,5" points="431.23,-404 313.52,-404 313.52,-368 431.23,-368 431.23,-404"/>
<text text-anchor="start" x="319.12" y="-380.57" font-family="Helvetica,sans-Serif" font-size="14.00">BackJumpShoot &#160;</text>
</g>
<!-- AttackPredictSensor&#45;&gt;AttackPredictSensor_linked -->
<g id="edge6" class="edge">
<title>AttackPredictSensor&#45;&gt;AttackPredictSensor_linked</title>
<path fill="none" stroke="#66cdaa" d="M168.7,-368.46C210.11,-372.05 261.29,-376.47 301.85,-379.98"/>
<polygon fill="#66cdaa" stroke="#66cdaa" points="301.49,-383.47 311.75,-380.84 302.09,-376.49 301.49,-383.47"/>
<text text-anchor="middle" x="230.38" y="-378.6" font-family="Helvetica,sans-Serif" font-size="14.00" fill="#66cdaa">QueueEnd</text>
</g>
<!-- AttackRunToSensor -->
<g id="node12" class="node">
<title>AttackRunToSensor</title>
<polygon fill="none" stroke="black" points="26.62,-432 26.62,-453.75 159.38,-453.75 159.38,-432 26.62,-432"/>
<text text-anchor="start" x="29.62" y="-437.45" font-family="Helvetica,sans-Serif" font-size="14.00">AttackRunToSensor &#160;</text>
<polygon fill="none" stroke="black" points="26.62,-410.25 26.62,-432 159.38,-432 159.38,-410.25 26.62,-410.25"/>
<text text-anchor="start" x="29.62" y="-416.7" font-family="Helvetica,sans-Serif" font-size="12.00" fill="#838b8b">if: state is Engaging</text>
<text text-anchor="start" x="133.88" y="-416.7" font-family="Helvetica,sans-Serif" font-size="14.00"> &#160;</text>
</g>
<!-- AttackRunToSensor_linked -->
<g id="node13" class="node">
<title>AttackRunToSensor_linked</title>
<polygon fill="none" stroke="black" stroke-dasharray="1,5" points="431.23,-458 313.52,-458 313.52,-422 431.23,-422 431.23,-458"/>
<text text-anchor="start" x="319.12" y="-434.57" font-family="Helvetica,sans-Serif" font-size="14.00">BackJumpShoot &#160;</text>
</g>
<!-- AttackRunToSensor&#45;&gt;AttackRunToSensor_linked -->
<g id="edge7" class="edge">
<title>AttackRunToSensor&#45;&gt;AttackRunToSensor_linked</title>
<path fill="none" stroke="#66cdaa" d="M167.24,-434.11C208.91,-435.31 260.8,-436.81 301.83,-437.99"/>
<polygon fill="#66cdaa" stroke="#66cdaa" points="301.49,-441.49 311.59,-438.28 301.7,-434.49 301.49,-441.49"/>
<text text-anchor="middle" x="230.38" y="-439.17" font-family="Helvetica,sans-Serif" font-size="14.00" fill="#66cdaa">QueueEnd</text>
</g>
<!-- BackJumpShoot -->
<g id="node14" class="node">
<title>BackJumpShoot</title>
<polygon fill="none" stroke="black" points="36.75,-601.12 36.75,-622.88 149.25,-622.88 149.25,-601.12 36.75,-601.12"/>
<text text-anchor="start" x="39.75" y="-606.58" font-family="Helvetica,sans-Serif" font-size="14.00">BackJumpShoot &#160;</text>
<polygon fill="none" stroke="black" points="36.75,-569.12 36.75,-601.12 149.25,-601.12 149.25,-569.12 36.75,-569.12"/>
<text text-anchor="start" x="39.75" y="-587.73" font-family="Helvetica,sans-Serif" font-size="12.00" fill="#838b8b">0.42s: CheckFacing</text>
<text text-anchor="start" x="39.75" y="-573.83" font-family="Helvetica,sans-Serif" font-size="12.00" fill="#838b8b">1.75s: Done</text>
<text text-anchor="start" x="104.25" y="-573.83" font-family="Helvetica,sans-Serif" font-size="14.00"> &#160;</text>
</g>
<!-- Engaging -->
<g id="node15" class="node">
<title>Engaging</title>
<polygon fill="none" stroke="black" points="408.88,-853 335.88,-853 335.88,-817 408.88,-817 408.88,-853"/>
<text text-anchor="middle" x="372.38" y="-829.58" font-family="Helvetica,sans-Serif" font-size="14.00">Engaging</text>
</g>
<!-- BackJumpShoot&#45;&gt;Engaging -->
<g id="edge8" class="edge">
<title>BackJumpShoot&#45;&gt;Engaging</title>
<path fill="none" stroke="#cdc8b1" d="M118.61,-626.7C138.56,-650.58 168.14,-683.79 197.75,-709 224.19,-731.52 241.99,-724.34 263,-752 278.81,-772.82 262.32,-789.71 281,-808 292.67,-819.43 308.98,-826.06 324.53,-829.88"/>
<polygon fill="#cdc8b1" stroke="#cdc8b1" points="323.65,-833.27 334.16,-831.89 325.08,-826.42 323.65,-833.27"/>
</g>
<!-- BackJumpShoot_linked -->
<g id="node16" class="node">
<title>BackJumpShoot_linked</title>
<polygon fill="none" stroke="black" stroke-dasharray="1,5" points="453.73,-544.35 291.02,-544.35 291.02,-497.65 453.73,-497.65 453.73,-544.35"/>
<text text-anchor="start" x="296.62" y="-525.45" font-family="Helvetica,sans-Serif" font-size="14.00">JumpJumpDoubleSlash &#160;</text>
<text text-anchor="start" x="309.75" y="-505.7" font-family="Helvetica,sans-Serif" font-size="14.00">JumpJumpAirSlash &#160;</text>
</g>
<!-- BackJumpShoot&#45;&gt;BackJumpShoot_linked -->
<g id="edge9" class="edge">
<title>BackJumpShoot&#45;&gt;BackJumpShoot_linked</title>
<path fill="none" stroke="#66cdaa" d="M156.94,-578.98C193.25,-569.16 239.56,-556.64 279.84,-545.75"/>
<polygon fill="#66cdaa" stroke="#66cdaa" points="280.55,-549.18 289.29,-543.2 278.72,-542.43 280.55,-549.18"/>
<text text-anchor="middle" x="230.38" y="-569.87" font-family="Helvetica,sans-Serif" font-size="14.00" fill="#66cdaa">QueueEnd</text>
</g>
<!-- BackJumpShoot_weight -->
<g id="node17" class="node">
<title>BackJumpShoot_weight</title>
<polygon fill="none" stroke="black" stroke-dasharray="1,5" points="463.75,-629.62 281,-629.62 281,-562.38 463.75,-562.38 463.75,-629.62"/>
<text text-anchor="start" x="291" y="-610.33" font-family="Helvetica,sans-Serif" font-size="14.00">1 JumpJumpDoubleSlash &#160;</text>
<text text-anchor="start" x="304.12" y="-590.58" font-family="Helvetica,sans-Serif" font-size="14.00">1 JumpJumpAirSlash &#160;</text>
<text text-anchor="start" x="349.88" y="-570.83" font-family="Helvetica,sans-Serif" font-size="14.00">1 Skip &#160;</text>
</g>
<!-- BackJumpShoot&#45;&gt;BackJumpShoot_weight -->
<g id="edge10" class="edge">
<title>BackJumpShoot&#45;&gt;BackJumpShoot_weight</title>
<path fill="none" stroke="#458b74" d="M156.94,-596C190.18,-596 231.8,-596 269.5,-596"/>
<polygon fill="#458b74" stroke="#458b74" points="269.03,-599.5 279.03,-596 269.03,-592.5 269.03,-599.5"/>
<text text-anchor="middle" x="230.38" y="-598.45" font-family="Helvetica,sans-Serif" font-size="14.00" fill="#458b74">Weight</text>
</g>
<!-- JumpJumpDoubleSlash -->
<g id="node18" class="node">
<title>JumpJumpDoubleSlash</title>
<polygon fill="none" stroke="black" points="14.25,-1075.12 14.25,-1096.88 171.75,-1096.88 171.75,-1075.12 14.25,-1075.12"/>
<text text-anchor="start" x="17.25" y="-1080.58" font-family="Helvetica,sans-Serif" font-size="14.00">JumpJumpDoubleSlash &#160;</text>
<polygon fill="none" stroke="black" points="14.25,-959.12 14.25,-1075.12 171.75,-1075.12 171.75,-959.12 14.25,-959.12"/>
<text text-anchor="start" x="17.25" y="-1061.72" font-family="Helvetica,sans-Serif" font-size="12.00" fill="#838b8b">0.55s: CheckFacing</text>
<text text-anchor="start" x="17.25" y="-1049.72" font-family="Helvetica,sans-Serif" font-size="12.00" fill="#838b8b">0.58s: Evaluate</text>
<text text-anchor="start" x="17.25" y="-1037.72" font-family="Helvetica,sans-Serif" font-size="12.00" fill="#838b8b">1.08s: CheckFacing</text>
<text text-anchor="start" x="17.25" y="-1025.72" font-family="Helvetica,sans-Serif" font-size="12.00" fill="#838b8b">1.17s: Evaluate</text>
<text text-anchor="start" x="17.25" y="-1013.72" font-family="Helvetica,sans-Serif" font-size="12.00" fill="#838b8b">1.33s: ResetEvaluate</text>
<text text-anchor="start" x="17.25" y="-1001.72" font-family="Helvetica,sans-Serif" font-size="12.00" fill="#838b8b">1.42s: Evaluate</text>
<text text-anchor="start" x="17.25" y="-989.72" font-family="Helvetica,sans-Serif" font-size="12.00" fill="#838b8b">1.63s: ResetEvaluate</text>
<text text-anchor="start" x="17.25" y="-977.72" font-family="Helvetica,sans-Serif" font-size="12.00" fill="#838b8b">1.98s: LinkNextMove</text>
<text text-anchor="start" x="17.25" y="-963.82" font-family="Helvetica,sans-Serif" font-size="12.00" fill="#838b8b">2.08s: Done</text>
<text text-anchor="start" x="81.75" y="-963.82" font-family="Helvetica,sans-Serif" font-size="14.00"> &#160;</text>
</g>
<!-- JumpJumpDoubleSlash&#45;&gt;Engaging -->
<g id="edge11" class="edge">
<title>JumpJumpDoubleSlash&#45;&gt;Engaging</title>
<path fill="none" stroke="#cdc8b1" d="M179.48,-968.52C231.87,-932.07 296.2,-887.31 335.47,-859.99"/>
<polygon fill="#cdc8b1" stroke="#cdc8b1" points="337.44,-862.88 343.65,-854.29 333.44,-857.13 337.44,-862.88"/>
</g>
<!-- JumpJumpDoubleSlash_linked -->
<g id="node19" class="node">
<title>JumpJumpDoubleSlash_linked</title>
<polygon fill="none" stroke="black" stroke-dasharray="1,5" points="419.6,-1130.22 325.15,-1130.22 325.15,-1063.78 419.6,-1063.78 419.6,-1130.22"/>
<text text-anchor="start" x="340.12" y="-1111.33" font-family="Helvetica,sans-Serif" font-size="14.00">Engaging &#160;</text>
<text text-anchor="start" x="330.75" y="-1091.58" font-family="Helvetica,sans-Serif" font-size="14.00">DangerDash &#160;</text>
<text text-anchor="start" x="331.88" y="-1071.83" font-family="Helvetica,sans-Serif" font-size="14.00">RollThrough &#160;</text>
</g>
<!-- JumpJumpDoubleSlash&#45;&gt;JumpJumpDoubleSlash_linked -->
<g id="edge12" class="edge">
<title>JumpJumpDoubleSlash&#45;&gt;JumpJumpDoubleSlash_linked</title>
<path fill="none" stroke="#66cdaa" d="M179.48,-1049.27C223.09,-1060.11 274.97,-1073.02 313.79,-1082.67"/>
<polygon fill="#66cdaa" stroke="#66cdaa" points="312.86,-1086.05 323.41,-1085.07 314.55,-1079.26 312.86,-1086.05"/>
<text text-anchor="middle" x="230.38" y="-1071.13" font-family="Helvetica,sans-Serif" font-size="14.00" fill="#66cdaa">QueueEnd</text>
</g>
<!-- JumpJumpDoubleSlash_weight -->
<g id="node20" class="node">
<title>JumpJumpDoubleSlash_weight</title>
<polygon fill="none" stroke="black" stroke-dasharray="1,5" points="429.62,-1045.62 315.12,-1045.62 315.12,-978.38 429.62,-978.38 429.62,-1045.62"/>
<text text-anchor="start" x="349.88" y="-1026.33" font-family="Helvetica,sans-Serif" font-size="14.00">1 Skip &#160;</text>
<text text-anchor="start" x="325.12" y="-1006.58" font-family="Helvetica,sans-Serif" font-size="14.00">1 DangerDash &#160;</text>
<text text-anchor="start" x="326.25" y="-986.83" font-family="Helvetica,sans-Serif" font-size="14.00">1 RollThrough &#160;</text>
</g>
<!-- JumpJumpDoubleSlash&#45;&gt;JumpJumpDoubleSlash_weight -->
<g id="edge13" class="edge">
<title>JumpJumpDoubleSlash&#45;&gt;JumpJumpDoubleSlash_weight</title>
<path fill="none" stroke="#458b74" d="M179.48,-1023.07C219.3,-1020.77 266.01,-1018.08 303.37,-1015.92"/>
<polygon fill="#458b74" stroke="#458b74" points="303.36,-1019.43 313.14,-1015.36 302.96,-1012.44 303.36,-1019.43"/>
<text text-anchor="middle" x="230.38" y="-1024.35" font-family="Helvetica,sans-Serif" font-size="14.00" fill="#458b74">Weight</text>
</g>
<!-- JumpJumpAirSlash -->
<g id="node21" class="node">
<title>JumpJumpAirSlash</title>
<polygon fill="none" stroke="black" points="27.38,-761.12 27.38,-782.88 158.62,-782.88 158.62,-761.12 27.38,-761.12"/>
<text text-anchor="start" x="30.38" y="-766.58" font-family="Helvetica,sans-Serif" font-size="14.00">JumpJumpAirSlash &#160;</text>
<polygon fill="none" stroke="black" points="27.38,-717.12 27.38,-761.12 158.62,-761.12 158.62,-717.12 27.38,-717.12"/>
<text text-anchor="start" x="30.38" y="-747.73" font-family="Helvetica,sans-Serif" font-size="12.00" fill="#838b8b">0.53s: CheckFacing</text>
<text text-anchor="start" x="30.38" y="-735.73" font-family="Helvetica,sans-Serif" font-size="12.00" fill="#838b8b">1.50s: LinkNextMove</text>
<text text-anchor="start" x="30.38" y="-721.83" font-family="Helvetica,sans-Serif" font-size="12.00" fill="#838b8b">1.63s: Done</text>
<text text-anchor="start" x="94.88" y="-721.83" font-family="Helvetica,sans-Serif" font-size="14.00"> &#160;</text>
</g>
<!-- JumpJumpAirSlash&#45;&gt;Engaging -->
<g id="edge14" class="edge">
<title>JumpJumpAirSlash&#45;&gt;Engaging</title>
<path fill="none" stroke="#cdc8b1" d="M166.32,-772.62C200.99,-783.42 243.12,-796.47 281,-808 295.22,-812.33 310.71,-816.98 324.79,-821.18"/>
<polygon fill="#cdc8b1" stroke="#cdc8b1" points="323.69,-824.51 334.27,-824.01 325.69,-817.8 323.69,-824.51"/>
</g>
<!-- JumpJumpAirSlash_linked -->
<g id="node22" class="node">
<title>JumpJumpAirSlash_linked</title>
<polygon fill="none" stroke="black" stroke-dasharray="1,5" points="419.6,-799.23 325.15,-799.23 325.15,-732.77 419.6,-732.77 419.6,-799.23"/>
<text text-anchor="start" x="340.12" y="-780.33" font-family="Helvetica,sans-Serif" font-size="14.00">Engaging &#160;</text>
<text text-anchor="start" x="330.75" y="-760.58" font-family="Helvetica,sans-Serif" font-size="14.00">DangerDash &#160;</text>
<text text-anchor="start" x="331.88" y="-740.83" font-family="Helvetica,sans-Serif" font-size="14.00">RollThrough &#160;</text>
</g>
<!-- JumpJumpAirSlash&#45;&gt;JumpJumpAirSlash_linked -->
<g id="edge15" class="edge">
<title>JumpJumpAirSlash&#45;&gt;JumpJumpAirSlash_linked</title>
<path fill="none" stroke="#66cdaa" d="M166.51,-754.18C212.39,-756.83 270.88,-760.2 313.61,-762.67"/>
<polygon fill="#66cdaa" stroke="#66cdaa" points="313.25,-766.15 323.43,-763.23 313.65,-759.16 313.25,-766.15"/>
<text text-anchor="middle" x="230.38" y="-761.88" font-family="Helvetica,sans-Serif" font-size="14.00" fill="#66cdaa">QueueEnd</text>
</g>
<!-- JumpJumpAirSlash_weight -->
<g id="node23" class="node">
<title>JumpJumpAirSlash_weight</title>
<polygon fill="none" stroke="black" stroke-dasharray="1,5" points="429.62,-714.62 315.12,-714.62 315.12,-647.38 429.62,-647.38 429.62,-714.62"/>
<text text-anchor="start" x="349.88" y="-695.33" font-family="Helvetica,sans-Serif" font-size="14.00">1 Skip &#160;</text>
<text text-anchor="start" x="325.12" y="-675.58" font-family="Helvetica,sans-Serif" font-size="14.00">1 DangerDash &#160;</text>
<text text-anchor="start" x="326.25" y="-655.83" font-family="Helvetica,sans-Serif" font-size="14.00">1 RollThrough &#160;</text>
</g>
<!-- JumpJumpAirSlash&#45;&gt;JumpJumpAirSlash_weight -->
<g id="edge16" class="edge">
<title>JumpJumpAirSlash&#45;&gt;JumpJumpAirSlash_weight</title>
<path fill="none" stroke="#458b74" d="M166.51,-731.96C209.01,-721.39 262.33,-708.13 303.91,-697.78"/>
<polygon fill="#458b74" stroke="#458b74" points="304.71,-701.19 313.57,-695.38 303.02,-694.4 304.71,-701.19"/>
<text text-anchor="middle" x="230.38" y="-726.16" font-family="Helvetica,sans-Serif" font-size="14.00" fill="#458b74">Weight</text>
</g>
<!-- DangerDash -->
<g id="node24" class="node">
<title>DangerDash</title>
<polygon fill="none" stroke="black" points="48.38,-831 48.38,-852.75 137.62,-852.75 137.62,-831 48.38,-831"/>
<text text-anchor="start" x="51.38" y="-836.45" font-family="Helvetica,sans-Serif" font-size="14.00">DangerDash &#160;</text>
<polygon fill="none" stroke="black" points="48.38,-809.25 48.38,-831 137.62,-831 137.62,-809.25 48.38,-809.25"/>
<text text-anchor="start" x="51.38" y="-815.7" font-family="Helvetica,sans-Serif" font-size="12.00" fill="#838b8b">1.37s: Done</text>
<text text-anchor="start" x="115.88" y="-815.7" font-family="Helvetica,sans-Serif" font-size="14.00"> &#160;</text>
</g>
<!-- DangerDash&#45;&gt;Engaging -->
<g id="edge17" class="edge">
<title>DangerDash&#45;&gt;Engaging</title>
<path fill="none" stroke="#cdc8b1" d="M145.52,-831.74C196.72,-832.48 274.58,-833.6 324.2,-834.32"/>
<polygon fill="#cdc8b1" stroke="#cdc8b1" points="324,-837.82 334.05,-834.46 324.1,-830.82 324,-837.82"/>
</g>
<!-- HurtState -->
<g id="node25" class="node">
<title>HurtState</title>
<polygon fill="none" stroke="black" points="54,-1285 54,-1306.75 132,-1306.75 132,-1285 54,-1285"/>
<text text-anchor="start" x="60.75" y="-1290.45" font-family="Helvetica,sans-Serif" font-size="14.00">HurtState &#160;</text>
<polygon fill="none" stroke="black" points="54,-1263.25 54,-1285 132,-1285 132,-1263.25 54,-1263.25"/>
<text text-anchor="start" x="57" y="-1269.7" font-family="Helvetica,sans-Serif" font-size="12.00" fill="#838b8b">0.25s: Done</text>
<text text-anchor="start" x="121.5" y="-1269.7" font-family="Helvetica,sans-Serif" font-size="14.00"> &#160;</text>
</g>
<!-- PreAttack -->
<g id="node26" class="node">
<title>PreAttack</title>
<polygon fill="none" stroke="black" points="409.62,-1233 335.12,-1233 335.12,-1197 409.62,-1197 409.62,-1233"/>
<text text-anchor="middle" x="372.38" y="-1209.58" font-family="Helvetica,sans-Serif" font-size="14.00">PreAttack</text>
</g>
<!-- HurtState&#45;&gt;PreAttack -->
<g id="edge18" class="edge">
<title>HurtState&#45;&gt;PreAttack</title>
<path fill="none" stroke="#cdc8b1" d="M139.8,-1273.44C190.59,-1260.62 272.12,-1240.05 323.66,-1227.04"/>
<polygon fill="#cdc8b1" stroke="#cdc8b1" points="324.51,-1230.44 333.35,-1224.6 322.79,-1223.65 324.51,-1230.44"/>
</g>
<!-- Hurt_BigState -->
<g id="node27" class="node">
<title>Hurt_BigState</title>
<polygon fill="none" stroke="black" points="44.25,-1215 44.25,-1236.75 141.75,-1236.75 141.75,-1215 44.25,-1215"/>
<text text-anchor="start" x="47.25" y="-1220.45" font-family="Helvetica,sans-Serif" font-size="14.00">Hurt_BigState &#160;</text>
<polygon fill="none" stroke="black" points="44.25,-1193.25 44.25,-1215 141.75,-1215 141.75,-1193.25 44.25,-1193.25"/>
<text text-anchor="start" x="47.25" y="-1199.7" font-family="Helvetica,sans-Serif" font-size="12.00" fill="#838b8b">1.00s: Done</text>
<text text-anchor="start" x="111.75" y="-1199.7" font-family="Helvetica,sans-Serif" font-size="14.00"> &#160;</text>
</g>
<!-- Hurt_BigState&#45;&gt;PreAttack -->
<g id="edge19" class="edge">
<title>Hurt_BigState&#45;&gt;PreAttack</title>
<path fill="none" stroke="#cdc8b1" d="M149.46,-1215C200.44,-1215 275.21,-1215 323.6,-1215"/>
<polygon fill="#cdc8b1" stroke="#cdc8b1" points="323.48,-1218.5 333.48,-1215 323.48,-1211.5 323.48,-1218.5"/>
</g>
<!-- PostureBreak -->
<g id="node28" class="node">
<title>PostureBreak</title>
<polygon fill="none" stroke="black" points="45.38,-1145 45.38,-1166.75 140.62,-1166.75 140.62,-1145 45.38,-1145"/>
<text text-anchor="start" x="48.38" y="-1150.45" font-family="Helvetica,sans-Serif" font-size="14.00">PostureBreak &#160;</text>
<polygon fill="none" stroke="black" points="45.38,-1123.25 45.38,-1145 140.62,-1145 140.62,-1123.25 45.38,-1123.25"/>
<text text-anchor="start" x="48.38" y="-1129.7" font-family="Helvetica,sans-Serif" font-size="12.00" fill="#838b8b">1.50s: Done</text>
<text text-anchor="start" x="112.88" y="-1129.7" font-family="Helvetica,sans-Serif" font-size="14.00"> &#160;</text>
</g>
<!-- PostureBreak&#45;&gt;PreAttack -->
<g id="edge20" class="edge">
<title>PostureBreak&#45;&gt;PreAttack</title>
<path fill="none" stroke="#cdc8b1" d="M148.47,-1158.75C199.55,-1171.64 275.17,-1190.72 323.86,-1203.01"/>
<polygon fill="#cdc8b1" stroke="#cdc8b1" points="322.71,-1206.33 333.26,-1205.38 324.42,-1199.54 322.71,-1206.33"/>
</g>
<!-- RollThrough -->
<g id="node29" class="node">
<title>RollThrough</title>
<polygon fill="none" stroke="black" points="33,-911.12 33,-932.88 153,-932.88 153,-911.12 33,-911.12"/>
<text text-anchor="start" x="52.5" y="-916.58" font-family="Helvetica,sans-Serif" font-size="14.00">RollThrough &#160;</text>
<polygon fill="none" stroke="black" points="33,-879.12 33,-911.12 153,-911.12 153,-879.12 33,-879.12"/>
<text text-anchor="start" x="36" y="-897.73" font-family="Helvetica,sans-Serif" font-size="12.00" fill="#838b8b">0.00s: ResetEvaluate</text>
<text text-anchor="start" x="36" y="-883.83" font-family="Helvetica,sans-Serif" font-size="12.00" fill="#838b8b">0.58s: Done</text>
<text text-anchor="start" x="100.5" y="-883.83" font-family="Helvetica,sans-Serif" font-size="14.00"> &#160;</text>
</g>
<!-- RollThrough&#45;&gt;Engaging -->
<g id="edge21" class="edge">
<title>RollThrough&#45;&gt;Engaging</title>
<path fill="none" stroke="#cdc8b1" d="M160.79,-888.9C211.48,-875.93 279.88,-858.42 324.78,-846.93"/>
<polygon fill="#cdc8b1" stroke="#cdc8b1" points="325.38,-850.39 334.2,-844.52 323.64,-843.61 325.38,-850.39"/>
</g>
<!-- Wandering_Walking -->
<g id="node30" class="node">
<title>Wandering_Walking</title>
<polygon fill="none" stroke="black" points="176.75,-1365 9.25,-1365 9.25,-1329 176.75,-1329 176.75,-1365"/>
<text text-anchor="middle" x="93" y="-1341.58" font-family="Helvetica,sans-Serif" font-size="14.00">Wandering_Walking (Init)</text>
</g>
</g>
</svg>
