<?xml version="1.0" encoding="UTF-8" standalone="no"?>
<!DOCTYPE svg PUBLIC "-//W3C//DTD SVG 1.1//EN"
 "http://www.w3.org/Graphics/SVG/1.1/DTD/svg11.dtd">
<!-- Generated by graphviz version 12.2.1 (20241206.2353)
 -->
<!-- Title: Foo Pages: 1 -->
<svg width="468pt" height="1373pt"
 viewBox="0.00 0.00 467.70 1373.35" xmlns="http://www.w3.org/2000/svg" xmlns:xlink="http://www.w3.org/1999/xlink">
<g id="graph0" class="graph" transform="scale(1 1) rotate(0) translate(4 1369.35)">
<title>Foo</title>
<polygon fill="white" stroke="none" points="-4,4 -4,-1369.35 463.7,-1369.35 463.7,4 -4,4"/>
<g id="clust1" class="cluster">
<title>cluster_attacksensors</title>
<polygon fill="none" stroke="black" points="8,-875.35 8,-1357.35 451.7,-1357.35 451.7,-875.35 8,-875.35"/>
<text text-anchor="middle" x="229.85" y="-1340.05" font-family="Helvetica,sans-Serif" font-size="14.00">Attack Sensors</text>
</g>
<!-- BackJumpShoot -->
<g id="node1" class="node">
<title>BackJumpShoot</title>
<polygon fill="none" stroke="black" points="36.75,-103.47 36.75,-125.22 149.25,-125.22 149.25,-103.47 36.75,-103.47"/>
<text text-anchor="start" x="39.75" y="-108.92" font-family="Helvetica,sans-Serif" font-size="14.00">BackJumpShoot &#160;</text>
<polygon fill="none" stroke="black" points="36.75,-71.47 36.75,-103.47 149.25,-103.47 149.25,-71.47 36.75,-71.47"/>
<text text-anchor="start" x="39.75" y="-90.07" font-family="Helvetica,sans-Serif" font-size="12.00" fill="#838b8b">0.42s: CheckFacing</text>
<text text-anchor="start" x="39.75" y="-76.17" font-family="Helvetica,sans-Serif" font-size="12.00" fill="#838b8b">1.75s: Done</text>
<text text-anchor="start" x="104.25" y="-76.17" font-family="Helvetica,sans-Serif" font-size="14.00"> &#160;</text>
</g>
<!-- Engaging -->
<g id="node2" class="node">
<title>Engaging</title>
<polygon fill="none" stroke="black" points="398.85,-355.35 325.85,-355.35 325.85,-319.35 398.85,-319.35 398.85,-355.35"/>
<text text-anchor="middle" x="362.35" y="-331.93" font-family="Helvetica,sans-Serif" font-size="14.00">Engaging</text>
</g>
<!-- BackJumpShoot&#45;&gt;Engaging -->
<g id="edge1" class="edge">
<title>BackJumpShoot&#45;&gt;Engaging</title>
<path fill="none" stroke="#cdc8b1" d="M118.68,-128.96C138.68,-152.8 168.28,-185.98 197.75,-211.35 224.26,-234.17 241.92,-227.44 263,-255.35 278.5,-275.87 262.88,-292.09 281,-310.35 290.05,-319.47 302.26,-325.51 314.44,-329.51"/>
<polygon fill="#cdc8b1" stroke="#cdc8b1" points="313.49,-332.87 324.06,-332.23 315.39,-326.14 313.49,-332.87"/>
</g>
<!-- BackJumpShoot_linked -->
<g id="node3" class="node">
<title>BackJumpShoot_linked</title>
<polygon fill="none" stroke="black" stroke-dasharray="1,5" points="443.7,-46.7 281,-46.7 281,0 443.7,0 443.7,-46.7"/>
<text text-anchor="start" x="286.6" y="-27.8" font-family="Helvetica,sans-Serif" font-size="14.00">JumpJumpDoubleSlash &#160;</text>
<text text-anchor="start" x="299.73" y="-8.05" font-family="Helvetica,sans-Serif" font-size="14.00">JumpJumpAirSlash &#160;</text>
</g>
<!-- BackJumpShoot&#45;&gt;BackJumpShoot_linked -->
<g id="edge2" class="edge">
<title>BackJumpShoot&#45;&gt;BackJumpShoot_linked</title>
<path fill="none" stroke="#66cdaa" d="M157.02,-80.67C190.74,-71.21 232.88,-59.39 270.12,-48.94"/>
<polygon fill="#66cdaa" stroke="#66cdaa" points="270.85,-52.37 279.53,-46.3 268.96,-45.63 270.85,-52.37"/>
<text text-anchor="middle" x="230.38" y="-70.02" font-family="Helvetica,sans-Serif" font-size="14.00" fill="#66cdaa">QueueEnd</text>
</g>
<!-- BackJumpShoot_mustuse -->
<g id="node4" class="node">
<title>BackJumpShoot_mustuse</title>
<polygon fill="none" stroke="black" stroke-dasharray="1,5" points="394.85,-131.97 329.85,-131.97 329.85,-64.72 394.85,-64.72 394.85,-131.97"/>
<text text-anchor="start" x="339.85" y="-112.67" font-family="Helvetica,sans-Serif" font-size="14.00">1 Skip &#160;</text>
<text text-anchor="start" x="339.85" y="-92.92" font-family="Helvetica,sans-Serif" font-size="14.00">1 Skip &#160;</text>
<text text-anchor="start" x="339.85" y="-73.17" font-family="Helvetica,sans-Serif" font-size="14.00">1 Skip &#160;</text>
</g>
<!-- BackJumpShoot&#45;&gt;BackJumpShoot_mustuse -->
<g id="edge3" class="edge">
<title>BackJumpShoot&#45;&gt;BackJumpShoot_mustuse</title>
<path fill="none" stroke="#458b74" d="M157.02,-98.35C206.65,-98.35 274.53,-98.35 318.16,-98.35"/>
<polygon fill="#458b74" stroke="#458b74" points="318,-101.85 328,-98.35 318,-94.85 318,-101.85"/>
<text text-anchor="middle" x="230.38" y="-100.8" font-family="Helvetica,sans-Serif" font-size="14.00" fill="#458b74">Weight</text>
</g>
<!-- JumpJumpDoubleSlash -->
<g id="node5" class="node">
<title>JumpJumpDoubleSlash</title>
<polygon fill="none" stroke="black" points="14.25,-577.48 14.25,-599.23 171.75,-599.23 171.75,-577.48 14.25,-577.48"/>
<text text-anchor="start" x="17.25" y="-582.93" font-family="Helvetica,sans-Serif" font-size="14.00">JumpJumpDoubleSlash &#160;</text>
<polygon fill="none" stroke="black" points="14.25,-461.48 14.25,-577.48 171.75,-577.48 171.75,-461.48 14.25,-461.48"/>
<text text-anchor="start" x="17.25" y="-564.08" font-family="Helvetica,sans-Serif" font-size="12.00" fill="#838b8b">0.55s: CheckFacing</text>
<text text-anchor="start" x="17.25" y="-552.08" font-family="Helvetica,sans-Serif" font-size="12.00" fill="#838b8b">0.58s: Evaluate</text>
<text text-anchor="start" x="17.25" y="-540.08" font-family="Helvetica,sans-Serif" font-size="12.00" fill="#838b8b">1.08s: CheckFacing</text>
<text text-anchor="start" x="17.25" y="-528.08" font-family="Helvetica,sans-Serif" font-size="12.00" fill="#838b8b">1.17s: Evaluate</text>
<text text-anchor="start" x="17.25" y="-516.08" font-family="Helvetica,sans-Serif" font-size="12.00" fill="#838b8b">1.33s: ResetEvaluate</text>
<text text-anchor="start" x="17.25" y="-504.08" font-family="Helvetica,sans-Serif" font-size="12.00" fill="#838b8b">1.42s: Evaluate</text>
<text text-anchor="start" x="17.25" y="-492.08" font-family="Helvetica,sans-Serif" font-size="12.00" fill="#838b8b">1.63s: ResetEvaluate</text>
<text text-anchor="start" x="17.25" y="-480.08" font-family="Helvetica,sans-Serif" font-size="12.00" fill="#838b8b">1.98s: LinkNextMove</text>
<text text-anchor="start" x="17.25" y="-466.18" font-family="Helvetica,sans-Serif" font-size="12.00" fill="#838b8b">2.08s: Done</text>
<text text-anchor="start" x="81.75" y="-466.18" font-family="Helvetica,sans-Serif" font-size="14.00"> &#160;</text>
</g>
<!-- JumpJumpDoubleSlash&#45;&gt;Engaging -->
<g id="edge4" class="edge">
<title>JumpJumpDoubleSlash&#45;&gt;Engaging</title>
<path fill="none" stroke="#cdc8b1" d="M179.69,-468.49C229.68,-432.4 289.98,-388.87 326.99,-362.15"/>
<polygon fill="#cdc8b1" stroke="#cdc8b1" points="328.59,-365.32 334.65,-356.62 324.49,-359.64 328.59,-365.32"/>
</g>
<!-- JumpJumpDoubleSlash_linked -->
<g id="node6" class="node">
<title>JumpJumpDoubleSlash_linked</title>
<polygon fill="none" stroke="black" stroke-dasharray="1,5" points="409.58,-632.58 315.12,-632.58 315.12,-566.12 409.58,-566.12 409.58,-632.58"/>
<text text-anchor="start" x="330.1" y="-613.68" font-family="Helvetica,sans-Serif" font-size="14.00">Engaging &#160;</text>
<text text-anchor="start" x="320.73" y="-593.93" font-family="Helvetica,sans-Serif" font-size="14.00">DangerDash &#160;</text>
<text text-anchor="start" x="321.85" y="-574.18" font-family="Helvetica,sans-Serif" font-size="14.00">RollThrough &#160;</text>
</g>
<!-- JumpJumpDoubleSlash&#45;&gt;JumpJumpDoubleSlash_linked -->
<g id="edge5" class="edge">
<title>JumpJumpDoubleSlash&#45;&gt;JumpJumpDoubleSlash_linked</title>
<path fill="none" stroke="#66cdaa" d="M179.69,-552.47C220.25,-562.93 267.6,-575.15 303.79,-584.49"/>
<polygon fill="#66cdaa" stroke="#66cdaa" points="302.62,-587.81 313.17,-586.92 304.36,-581.03 302.62,-587.81"/>
<text text-anchor="middle" x="230.38" y="-575.51" font-family="Helvetica,sans-Serif" font-size="14.00" fill="#66cdaa">QueueEnd</text>
</g>
<!-- JumpJumpDoubleSlash_mustuse -->
<g id="node7" class="node">
<title>JumpJumpDoubleSlash_mustuse</title>
<polygon fill="none" stroke="black" stroke-dasharray="1,5" points="394.85,-547.98 329.85,-547.98 329.85,-480.73 394.85,-480.73 394.85,-547.98"/>
<text text-anchor="start" x="339.85" y="-528.68" font-family="Helvetica,sans-Serif" font-size="14.00">1 Skip &#160;</text>
<text text-anchor="start" x="339.85" y="-508.93" font-family="Helvetica,sans-Serif" font-size="14.00">1 Skip &#160;</text>
<text text-anchor="start" x="339.85" y="-489.18" font-family="Helvetica,sans-Serif" font-size="14.00">1 Skip &#160;</text>
</g>
<!-- JumpJumpDoubleSlash&#45;&gt;JumpJumpDoubleSlash_mustuse -->
<g id="edge6" class="edge">
<title>JumpJumpDoubleSlash&#45;&gt;JumpJumpDoubleSlash_mustuse</title>
<path fill="none" stroke="#458b74" d="M179.69,-525.22C225.86,-522.46 280.84,-519.17 318.12,-516.94"/>
<polygon fill="#458b74" stroke="#458b74" points="318.29,-520.43 328.06,-516.34 317.87,-513.45 318.29,-520.43"/>
<text text-anchor="middle" x="230.38" y="-526.23" font-family="Helvetica,sans-Serif" font-size="14.00" fill="#458b74">Weight</text>
</g>
<!-- JumpJumpAirSlash -->
<g id="node8" class="node">
<title>JumpJumpAirSlash</title>
<polygon fill="none" stroke="black" points="27.38,-263.48 27.38,-285.23 158.62,-285.23 158.62,-263.48 27.38,-263.48"/>
<text text-anchor="start" x="30.38" y="-268.93" font-family="Helvetica,sans-Serif" font-size="14.00">JumpJumpAirSlash &#160;</text>
<polygon fill="none" stroke="black" points="27.38,-219.47 27.38,-263.48 158.62,-263.48 158.62,-219.47 27.38,-219.47"/>
<text text-anchor="start" x="30.38" y="-250.08" font-family="Helvetica,sans-Serif" font-size="12.00" fill="#838b8b">0.53s: CheckFacing</text>
<text text-anchor="start" x="30.38" y="-238.08" font-family="Helvetica,sans-Serif" font-size="12.00" fill="#838b8b">1.50s: LinkNextMove</text>
<text text-anchor="start" x="30.38" y="-224.18" font-family="Helvetica,sans-Serif" font-size="12.00" fill="#838b8b">1.63s: Done</text>
<text text-anchor="start" x="94.88" y="-224.18" font-family="Helvetica,sans-Serif" font-size="14.00"> &#160;</text>
</g>
<!-- JumpJumpAirSlash&#45;&gt;Engaging -->
<g id="edge7" class="edge">
<title>JumpJumpAirSlash&#45;&gt;Engaging</title>
<path fill="none" stroke="#cdc8b1" d="M166.35,-275.35C213.52,-290.35 273.7,-309.48 314.64,-322.5"/>
<polygon fill="#cdc8b1" stroke="#cdc8b1" points="313.36,-325.77 323.95,-325.46 315.48,-319.09 313.36,-325.77"/>
</g>
<!-- JumpJumpAirSlash_linked -->
<g id="node9" class="node">
<title>JumpJumpAirSlash_linked</title>
<polygon fill="none" stroke="black" stroke-dasharray="1,5" points="409.58,-301.58 315.12,-301.58 315.12,-235.13 409.58,-235.13 409.58,-301.58"/>
<text text-anchor="start" x="330.1" y="-282.68" font-family="Helvetica,sans-Serif" font-size="14.00">Engaging &#160;</text>
<text text-anchor="start" x="320.73" y="-262.93" font-family="Helvetica,sans-Serif" font-size="14.00">DangerDash &#160;</text>
<text text-anchor="start" x="321.85" y="-243.18" font-family="Helvetica,sans-Serif" font-size="14.00">RollThrough &#160;</text>
</g>
<!-- JumpJumpAirSlash&#45;&gt;JumpJumpAirSlash_linked -->
<g id="edge8" class="edge">
<title>JumpJumpAirSlash&#45;&gt;JumpJumpAirSlash_linked</title>
<path fill="none" stroke="#66cdaa" d="M166.35,-256.68C209.28,-259.25 262.98,-262.46 303.15,-264.87"/>
<polygon fill="#66cdaa" stroke="#66cdaa" points="302.93,-268.36 313.12,-265.46 303.35,-261.37 302.93,-268.36"/>
<text text-anchor="middle" x="230.38" y="-264.7" font-family="Helvetica,sans-Serif" font-size="14.00" fill="#66cdaa">QueueEnd</text>
</g>
<!-- JumpJumpAirSlash_mustuse -->
<g id="node10" class="node">
<title>JumpJumpAirSlash_mustuse</title>
<polygon fill="none" stroke="black" stroke-dasharray="1,5" points="394.85,-216.97 329.85,-216.97 329.85,-149.72 394.85,-149.72 394.85,-216.97"/>
<text text-anchor="start" x="339.85" y="-197.67" font-family="Helvetica,sans-Serif" font-size="14.00">1 Skip &#160;</text>
<text text-anchor="start" x="339.85" y="-177.92" font-family="Helvetica,sans-Serif" font-size="14.00">1 Skip &#160;</text>
<text text-anchor="start" x="339.85" y="-158.17" font-family="Helvetica,sans-Serif" font-size="14.00">1 Skip &#160;</text>
</g>
<!-- JumpJumpAirSlash&#45;&gt;JumpJumpAirSlash_mustuse -->
<g id="edge9" class="edge">
<title>JumpJumpAirSlash&#45;&gt;JumpJumpAirSlash_mustuse</title>
<path fill="none" stroke="#458b74" d="M166.35,-233.68C215.12,-221.09 277.78,-204.92 318.73,-194.35"/>
<polygon fill="#458b74" stroke="#458b74" points="319.4,-197.79 328.21,-191.9 317.65,-191.01 319.4,-197.79"/>
<text text-anchor="middle" x="230.38" y="-226.48" font-family="Helvetica,sans-Serif" font-size="14.00" fill="#458b74">Weight</text>
</g>
<!-- DangerDash -->
<g id="node11" class="node">
<title>DangerDash</title>
<polygon fill="none" stroke="black" points="48.38,-333.35 48.38,-355.1 137.62,-355.1 137.62,-333.35 48.38,-333.35"/>
<text text-anchor="start" x="51.38" y="-338.8" font-family="Helvetica,sans-Serif" font-size="14.00">DangerDash &#160;</text>
<polygon fill="none" stroke="black" points="48.38,-311.6 48.38,-333.35 137.62,-333.35 137.62,-311.6 48.38,-311.6"/>
<text text-anchor="start" x="51.38" y="-318.05" font-family="Helvetica,sans-Serif" font-size="12.00" fill="#838b8b">1.37s: Done</text>
<text text-anchor="start" x="115.88" y="-318.05" font-family="Helvetica,sans-Serif" font-size="14.00"> &#160;</text>
</g>
<!-- DangerDash&#45;&gt;Engaging -->
<g id="edge10" class="edge">
<title>DangerDash&#45;&gt;Engaging</title>
<path fill="none" stroke="#cdc8b1" d="M145.55,-334.12C194.23,-334.85 266.63,-335.93 313.91,-336.64"/>
<polygon fill="#cdc8b1" stroke="#cdc8b1" points="313.8,-340.14 323.85,-336.79 313.9,-333.14 313.8,-340.14"/>
</g>
<!-- HurtState -->
<g id="node12" class="node">
<title>HurtState</title>
<polygon fill="none" stroke="black" points="54,-787.35 54,-809.1 132,-809.1 132,-787.35 54,-787.35"/>
<text text-anchor="start" x="60.75" y="-792.8" font-family="Helvetica,sans-Serif" font-size="14.00">HurtState &#160;</text>
<polygon fill="none" stroke="black" points="54,-765.6 54,-787.35 132,-787.35 132,-765.6 54,-765.6"/>
<text text-anchor="start" x="57" y="-772.05" font-family="Helvetica,sans-Serif" font-size="12.00" fill="#838b8b">0.25s: Done</text>
<text text-anchor="start" x="121.5" y="-772.05" font-family="Helvetica,sans-Serif" font-size="14.00"> &#160;</text>
</g>
<!-- PreAttack -->
<g id="node13" class="node">
<title>PreAttack</title>
<polygon fill="none" stroke="black" points="399.6,-735.35 325.1,-735.35 325.1,-699.35 399.6,-699.35 399.6,-735.35"/>
<text text-anchor="middle" x="362.35" y="-711.93" font-family="Helvetica,sans-Serif" font-size="14.00">PreAttack</text>
</g>
<!-- HurtState&#45;&gt;PreAttack -->
<g id="edge11" class="edge">
<title>HurtState&#45;&gt;PreAttack</title>
<path fill="none" stroke="#cdc8b1" d="M139.96,-775.32C188.57,-762.59 264.9,-742.6 314.03,-729.74"/>
<polygon fill="#cdc8b1" stroke="#cdc8b1" points="314.74,-733.17 323.52,-727.25 312.96,-726.4 314.74,-733.17"/>
</g>
<!-- Hurt_BigState -->
<g id="node14" class="node">
<title>Hurt_BigState</title>
<polygon fill="none" stroke="black" points="44.25,-717.35 44.25,-739.1 141.75,-739.1 141.75,-717.35 44.25,-717.35"/>
<text text-anchor="start" x="47.25" y="-722.8" font-family="Helvetica,sans-Serif" font-size="14.00">Hurt_BigState &#160;</text>
<polygon fill="none" stroke="black" points="44.25,-695.6 44.25,-717.35 141.75,-717.35 141.75,-695.6 44.25,-695.6"/>
<text text-anchor="start" x="47.25" y="-702.05" font-family="Helvetica,sans-Serif" font-size="12.00" fill="#838b8b">1.00s: Done</text>
<text text-anchor="start" x="111.75" y="-702.05" font-family="Helvetica,sans-Serif" font-size="14.00"> &#160;</text>
</g>
<!-- Hurt_BigState&#45;&gt;PreAttack -->
<g id="edge12" class="edge">
<title>Hurt_BigState&#45;&gt;PreAttack</title>
<path fill="none" stroke="#cdc8b1" d="M149.72,-717.35C198.15,-717.35 267.56,-717.35 313.51,-717.35"/>
<polygon fill="#cdc8b1" stroke="#cdc8b1" points="313.44,-720.85 323.44,-717.35 313.44,-713.85 313.44,-720.85"/>
</g>
<!-- PostureBreak -->
<g id="node15" class="node">
<title>PostureBreak</title>
<polygon fill="none" stroke="black" points="45.38,-647.35 45.38,-669.1 140.62,-669.1 140.62,-647.35 45.38,-647.35"/>
<text text-anchor="start" x="48.38" y="-652.8" font-family="Helvetica,sans-Serif" font-size="14.00">PostureBreak &#160;</text>
<polygon fill="none" stroke="black" points="45.38,-625.6 45.38,-647.35 140.62,-647.35 140.62,-625.6 45.38,-625.6"/>
<text text-anchor="start" x="48.38" y="-632.05" font-family="Helvetica,sans-Serif" font-size="12.00" fill="#838b8b">1.50s: Done</text>
<text text-anchor="start" x="112.88" y="-632.05" font-family="Helvetica,sans-Serif" font-size="14.00"> &#160;</text>
</g>
<!-- PostureBreak&#45;&gt;PreAttack -->
<g id="edge13" class="edge">
<title>PostureBreak&#45;&gt;PreAttack</title>
<path fill="none" stroke="#cdc8b1" d="M148.42,-661.6C197.08,-674.34 267.67,-692.82 314.03,-704.96"/>
<polygon fill="#cdc8b1" stroke="#cdc8b1" points="312.96,-708.3 323.52,-707.44 314.73,-701.53 312.96,-708.3"/>
</g>
<!-- RollThrough -->
<g id="node16" class="node">
<title>RollThrough</title>
<polygon fill="none" stroke="black" points="33,-413.48 33,-435.23 153,-435.23 153,-413.48 33,-413.48"/>
<text text-anchor="start" x="52.5" y="-418.93" font-family="Helvetica,sans-Serif" font-size="14.00">RollThrough &#160;</text>
<polygon fill="none" stroke="black" points="33,-381.48 33,-413.48 153,-413.48 153,-381.48 33,-381.48"/>
<text text-anchor="start" x="36" y="-400.08" font-family="Helvetica,sans-Serif" font-size="12.00" fill="#838b8b">0.00s: ResetEvaluate</text>
<text text-anchor="start" x="36" y="-386.18" font-family="Helvetica,sans-Serif" font-size="12.00" fill="#838b8b">0.58s: Done</text>
<text text-anchor="start" x="100.5" y="-386.18" font-family="Helvetica,sans-Serif" font-size="14.00"> &#160;</text>
</g>
<!-- RollThrough&#45;&gt;Engaging -->
<g id="edge14" class="edge">
<title>RollThrough&#45;&gt;Engaging</title>
<path fill="none" stroke="#cdc8b1" d="M160.77,-390.62C208.76,-377.87 272.25,-361.01 314.82,-349.71"/>
<polygon fill="#cdc8b1" stroke="#cdc8b1" points="315.48,-353.15 324.25,-347.2 313.69,-346.39 315.48,-353.15"/>
</g>
<!-- Wandering_Walking -->
<g id="node17" class="node">
<title>Wandering_Walking</title>
<polygon fill="none" stroke="black" points="176.75,-867.35 9.25,-867.35 9.25,-831.35 176.75,-831.35 176.75,-867.35"/>
<text text-anchor="middle" x="93" y="-843.93" font-family="Helvetica,sans-Serif" font-size="14.00">Wandering_Walking (Init)</text>
</g>
<!-- Level Once Sensor -->
<g id="node18" class="node">
<title>Level Once Sensor</title>
<polygon fill="none" stroke="black" points="158.75,-952.35 27.25,-952.35 27.25,-916.35 158.75,-916.35 158.75,-952.35"/>
<text text-anchor="middle" x="93" y="-928.93" font-family="Helvetica,sans-Serif" font-size="14.00">Level Once Sensor</text>
</g>
<!-- Level Once Sensor_linked -->
<g id="node19" class="node">
<title>Level Once Sensor_linked</title>
<polygon fill="none" stroke="black" stroke-dasharray="1,5" points="421.2,-919.35 303.5,-919.35 303.5,-883.35 421.2,-883.35 421.2,-919.35"/>
<text text-anchor="start" x="309.1" y="-895.93" font-family="Helvetica,sans-Serif" font-size="14.00">BackJumpShoot &#160;</text>
</g>
<!-- Level Once Sensor&#45;&gt;Level Once Sensor_linked -->
<g id="edge15" class="edge">
<title>Level Once Sensor&#45;&gt;Level Once Sensor_linked</title>
<path fill="none" stroke="#66cdaa" d="M159.06,-926.32C199.32,-921.35 250.98,-914.97 292.02,-909.91"/>
<polygon fill="#66cdaa" stroke="#66cdaa" points="292.3,-913.4 301.79,-908.7 291.44,-906.45 292.3,-913.4"/>
<text text-anchor="middle" x="230.38" y="-923.26" font-family="Helvetica,sans-Serif" font-size="14.00" fill="#66cdaa">QueueEnd</text>
</g>
<!-- Level Once Sensor_mustuse -->
<g id="node20" class="node">
<title>Level Once Sensor_mustuse</title>
<polygon fill="none" stroke="black" stroke-dasharray="1,5" points="412.48,-973.35 312.23,-973.35 312.23,-937.35 412.48,-937.35 412.48,-973.35"/>
<text text-anchor="start" x="322.23" y="-949.93" font-family="Helvetica,sans-Serif" font-size="14.00">1 Undefined &#160;</text>
</g>
<!-- Level Once Sensor&#45;&gt;Level Once Sensor_mustuse -->
<g id="edge16" class="edge">
<title>Level Once Sensor&#45;&gt;Level Once Sensor_mustuse</title>
<path fill="none" stroke="#458b74" d="M159.06,-939.46C202.24,-942.85 258.53,-947.27 300.77,-950.59"/>
<polygon fill="#458b74" stroke="#458b74" points="300.25,-954.06 310.5,-951.36 300.8,-947.08 300.25,-954.06"/>
<text text-anchor="middle" x="230.38" y="-949.8" font-family="Helvetica,sans-Serif" font-size="14.00" fill="#458b74">Weight</text>
</g>
<!-- RunAwaySensor -->
<g id="node21" class="node">
<title>RunAwaySensor</title>
<polygon fill="none" stroke="black" points="151.25,-1012.35 34.75,-1012.35 34.75,-976.35 151.25,-976.35 151.25,-1012.35"/>
<text text-anchor="middle" x="93" y="-988.93" font-family="Helvetica,sans-Serif" font-size="14.00">RunAwaySensor</text>
</g>
<!-- AttackSensor -->
<g id="node22" class="node">
<title>AttackSensor</title>
<polygon fill="none" stroke="black" points="141.12,-1069.35 44.88,-1069.35 44.88,-1033.35 141.12,-1033.35 141.12,-1069.35"/>
<text text-anchor="middle" x="93" y="-1045.92" font-family="Helvetica,sans-Serif" font-size="14.00">AttackSensor</text>
</g>
<!-- AttackSensor_linked -->
<g id="node23" class="node">
<title>AttackSensor_linked</title>
<polygon fill="none" stroke="black" stroke-dasharray="1,5" points="443.7,-1057.57 281,-1057.57 281,-991.12 443.7,-991.12 443.7,-1057.57"/>
<text text-anchor="start" x="309.1" y="-1038.67" font-family="Helvetica,sans-Serif" font-size="14.00">BackJumpShoot &#160;</text>
<text text-anchor="start" x="286.6" y="-1018.92" font-family="Helvetica,sans-Serif" font-size="14.00">JumpJumpDoubleSlash &#160;</text>
<text text-anchor="start" x="299.73" y="-999.17" font-family="Helvetica,sans-Serif" font-size="14.00">JumpJumpAirSlash &#160;</text>
</g>
<!-- AttackSensor&#45;&gt;AttackSensor_linked -->
<g id="edge17" class="edge">
<title>AttackSensor&#45;&gt;AttackSensor_linked</title>
<path fill="none" stroke="#66cdaa" d="M141.49,-1046.55C176.89,-1042.98 226.35,-1037.98 269.39,-1033.64"/>
<polygon fill="#66cdaa" stroke="#66cdaa" points="269.66,-1037.13 279.25,-1032.64 268.95,-1030.16 269.66,-1037.13"/>
<text text-anchor="middle" x="230.38" y="-1042.72" font-family="Helvetica,sans-Serif" font-size="14.00" fill="#66cdaa">QueueEnd</text>
</g>
<!-- AttackSensor_mustuse -->
<g id="node24" class="node">
<title>AttackSensor_mustuse</title>
<polygon fill="none" stroke="black" stroke-dasharray="1,5" points="412.48,-1162.85 312.23,-1162.85 312.23,-1075.85 412.48,-1075.85 412.48,-1162.85"/>
<text text-anchor="start" x="322.23" y="-1143.55" font-family="Helvetica,sans-Serif" font-size="14.00">1 Undefined &#160;</text>
<text text-anchor="start" x="322.23" y="-1123.8" font-family="Helvetica,sans-Serif" font-size="14.00">1 Undefined &#160;</text>
<text text-anchor="start" x="322.23" y="-1104.05" font-family="Helvetica,sans-Serif" font-size="14.00">1 Undefined &#160;</text>
<text text-anchor="start" x="322.23" y="-1084.3" font-family="Helvetica,sans-Serif" font-size="14.00">1 Undefined &#160;</text>
</g>
<!-- AttackSensor&#45;&gt;AttackSensor_mustuse -->
<g id="edge18" class="edge">
<title>AttackSensor&#45;&gt;AttackSensor_mustuse</title>
<path fill="none" stroke="#458b74" d="M141.49,-1063.43C186.03,-1074.76 252.84,-1091.75 301.12,-1104.03"/>
<polygon fill="#458b74" stroke="#458b74" points="300.02,-1107.36 310.57,-1106.44 301.75,-1100.58 300.02,-1107.36"/>
<text text-anchor="middle" x="230.38" y="-1095.89" font-family="Helvetica,sans-Serif" font-size="14.00" fill="#458b74">Weight</text>
</g>
<!-- DodgePredictSensor -->
<g id="node25" class="node">
<title>DodgePredictSensor</title>
<polygon fill="none" stroke="black" points="24,-1159.35 24,-1181.1 162,-1181.1 162,-1159.35 24,-1159.35"/>
<text text-anchor="start" x="27" y="-1164.8" font-family="Helvetica,sans-Serif" font-size="14.00">DodgePredictSensor &#160;</text>
<polygon fill="none" stroke="black" points="24,-1137.6 24,-1159.35 162,-1159.35 162,-1137.6 24,-1137.6"/>
<text text-anchor="start" x="27" y="-1144.05" font-family="Helvetica,sans-Serif" font-size="12.00" fill="#838b8b">if: Dodge</text>
<text text-anchor="start" x="75" y="-1144.05" font-family="Helvetica,sans-Serif" font-size="14.00"> &#160;</text>
</g>
<!-- DodgePredictSensor_linked -->
<g id="node26" class="node">
<title>DodgePredictSensor_linked</title>
<polygon fill="none" stroke="black" stroke-dasharray="1,5" points="421.2,-1217.35 303.5,-1217.35 303.5,-1181.35 421.2,-1181.35 421.2,-1217.35"/>
<text text-anchor="start" x="309.1" y="-1193.92" font-family="Helvetica,sans-Serif" font-size="14.00">BackJumpShoot &#160;</text>
</g>
<!-- DodgePredictSensor&#45;&gt;DodgePredictSensor_linked -->
<g id="edge19" class="edge">
<title>DodgePredictSensor&#45;&gt;DodgePredictSensor_linked</title>
<path fill="none" stroke="#66cdaa" d="M169.9,-1170.71C208.23,-1176.44 254.41,-1183.35 291.82,-1188.95"/>
<polygon fill="#66cdaa" stroke="#66cdaa" points="291.22,-1192.4 301.63,-1190.41 292.25,-1185.47 291.22,-1192.4"/>
<text text-anchor="middle" x="230.38" y="-1186.56" font-family="Helvetica,sans-Serif" font-size="14.00" fill="#66cdaa">QueueEnd</text>
</g>
<!-- AttackPredictSensor -->
<g id="node27" class="node">
<title>AttackPredictSensor</title>
<polygon fill="none" stroke="black" points="25.12,-1229.35 25.12,-1251.1 160.88,-1251.1 160.88,-1229.35 25.12,-1229.35"/>
<text text-anchor="start" x="28.12" y="-1234.8" font-family="Helvetica,sans-Serif" font-size="14.00">AttackPredictSensor &#160;</text>
<polygon fill="none" stroke="black" points="25.12,-1207.6 25.12,-1229.35 160.88,-1229.35 160.88,-1207.6 25.12,-1207.6"/>
<text text-anchor="start" x="28.12" y="-1214.05" font-family="Helvetica,sans-Serif" font-size="12.00" fill="#838b8b">if: Attack</text>
<text text-anchor="start" x="73.12" y="-1214.05" font-family="Helvetica,sans-Serif" font-size="14.00"> &#160;</text>
</g>
<!-- AttackPredictSensor_linked -->
<g id="node28" class="node">
<title>AttackPredictSensor_linked</title>
<polygon fill="none" stroke="black" stroke-dasharray="1,5" points="421.2,-1271.35 303.5,-1271.35 303.5,-1235.35 421.2,-1235.35 421.2,-1271.35"/>
<text text-anchor="start" x="309.1" y="-1247.92" font-family="Helvetica,sans-Serif" font-size="14.00">BackJumpShoot &#160;</text>
</g>
<!-- AttackPredictSensor&#45;&gt;AttackPredictSensor_linked -->
<g id="edge20" class="edge">
<title>AttackPredictSensor&#45;&gt;AttackPredictSensor_linked</title>
<path fill="none" stroke="#66cdaa" d="M168.83,-1236.07C207.33,-1239.52 253.96,-1243.71 291.69,-1247.1"/>
<polygon fill="#66cdaa" stroke="#66cdaa" points="291.31,-1250.58 301.58,-1247.98 291.94,-1243.6 291.31,-1250.58"/>
<text text-anchor="middle" x="230.38" y="-1246.66" font-family="Helvetica,sans-Serif" font-size="14.00" fill="#66cdaa">QueueEnd</text>
</g>
<!-- AttackRunToSensor -->
<g id="node29" class="node">
<title>AttackRunToSensor</title>
<polygon fill="none" stroke="black" points="26.62,-1299.35 26.62,-1321.1 159.38,-1321.1 159.38,-1299.35 26.62,-1299.35"/>
<text text-anchor="start" x="29.62" y="-1304.8" font-family="Helvetica,sans-Serif" font-size="14.00">AttackRunToSensor &#160;</text>
<polygon fill="none" stroke="black" points="26.62,-1277.6 26.62,-1299.35 159.38,-1299.35 159.38,-1277.6 26.62,-1277.6"/>
<text text-anchor="start" x="29.62" y="-1284.05" font-family="Helvetica,sans-Serif" font-size="12.00" fill="#838b8b">if: state is Engaging</text>
<text text-anchor="start" x="133.88" y="-1284.05" font-family="Helvetica,sans-Serif" font-size="14.00"> &#160;</text>
</g>
<!-- AttackRunToSensor_linked -->
<g id="node30" class="node">
<title>AttackRunToSensor_linked</title>
<polygon fill="none" stroke="black" stroke-dasharray="1,5" points="421.2,-1325.35 303.5,-1325.35 303.5,-1289.35 421.2,-1289.35 421.2,-1325.35"/>
<text text-anchor="start" x="309.1" y="-1301.92" font-family="Helvetica,sans-Serif" font-size="14.00">BackJumpShoot &#160;</text>
</g>
<!-- AttackRunToSensor&#45;&gt;AttackRunToSensor_linked -->
<g id="edge21" class="edge">
<title>AttackRunToSensor&#45;&gt;AttackRunToSensor_linked</title>
<path fill="none" stroke="#66cdaa" d="M167.05,-1301.54C206.03,-1302.7 253.73,-1304.13 292.12,-1305.28"/>
<polygon fill="#66cdaa" stroke="#66cdaa" points="291.58,-1308.76 301.68,-1305.56 291.79,-1301.77 291.58,-1308.76"/>
<text text-anchor="middle" x="230.38" y="-1306.75" font-family="Helvetica,sans-Serif" font-size="14.00" fill="#66cdaa">QueueEnd</text>
</g>
</g>
</svg>
