<?xml version="1.0" encoding="UTF-8" standalone="no"?>
<!DOCTYPE svg PUBLIC "-//W3C//DTD SVG 1.1//EN"
 "http://www.w3.org/Graphics/SVG/1.1/DTD/svg11.dtd">
<!-- Generated by graphviz version 12.2.1 (20241206.2353)
 -->
<!-- Title: Foo Pages: 1 -->
<svg width="1955pt" height="1045pt"
 viewBox="0.00 0.00 1955.25 1044.75" xmlns="http://www.w3.org/2000/svg" xmlns:xlink="http://www.w3.org/1999/xlink">
<g id="graph0" class="graph" transform="scale(1 1) rotate(0) translate(4 1040.75)">
<title>Foo</title>
<polygon fill="white" stroke="none" points="-4,4 -4,-1040.75 1951.25,-1040.75 1951.25,4 -4,4"/>
<g id="clust1" class="cluster">
<title>cluster_attacksensors</title>
<polygon fill="none" stroke="black" points="8,-616.75 8,-1028.75 493.5,-1028.75 493.5,-616.75 8,-616.75"/>
<text text-anchor="middle" x="250.75" y="-1011.45" font-family="Helvetica,sans-Serif" font-size="14.00">Attack Sensors</text>
</g>
<!-- A1_SpiningAttackStart -->
<g id="node1" class="node">
<title>A1_SpiningAttackStart</title>
<polygon fill="none" stroke="black" points="1419.62,-335.88 1419.62,-357.62 1571.12,-357.62 1571.12,-335.88 1419.62,-335.88"/>
<text text-anchor="start" x="1424.12" y="-341.32" font-family="Helvetica,sans-Serif" font-size="14.00">A1_SpiningAttackStart &#160;</text>
<polygon fill="none" stroke="black" points="1419.62,-279.88 1419.62,-335.88 1571.12,-335.88 1571.12,-279.88 1419.62,-279.88"/>
<text text-anchor="start" x="1422.62" y="-322.48" font-family="Helvetica,sans-Serif" font-size="12.00" fill="#838b8b">2.50s: CheckFacing</text>
<text text-anchor="start" x="1422.62" y="-310.48" font-family="Helvetica,sans-Serif" font-size="12.00" fill="#838b8b">4.48s: CheckFacingInverse</text>
<text text-anchor="start" x="1422.62" y="-298.48" font-family="Helvetica,sans-Serif" font-size="12.00" fill="#838b8b">4.50s: LinkNextMove</text>
<text text-anchor="start" x="1422.62" y="-284.58" font-family="Helvetica,sans-Serif" font-size="12.00" fill="#838b8b">4.67s: Done</text>
<text text-anchor="start" x="1487.12" y="-284.58" font-family="Helvetica,sans-Serif" font-size="14.00"> &#160;</text>
</g>
<!-- B2_SpinningAndDangerGrab_Left -->
<g id="node2" class="node">
<title>B2_SpinningAndDangerGrab_Left</title>
<polygon fill="none" stroke="black" points="1715.62,-377.88 1715.62,-399.62 1934.62,-399.62 1934.62,-377.88 1715.62,-377.88"/>
<text text-anchor="start" x="1718.62" y="-383.32" font-family="Helvetica,sans-Serif" font-size="14.00">B2_SpinningAndDangerGrab_Left &#160;</text>
<polygon fill="none" stroke="black" points="1715.62,-321.88 1715.62,-377.88 1934.62,-377.88 1934.62,-321.88 1715.62,-321.88"/>
<text text-anchor="start" x="1718.62" y="-364.48" font-family="Helvetica,sans-Serif" font-size="12.00" fill="#838b8b">0.02s: CheckFacingInverse</text>
<text text-anchor="start" x="1718.62" y="-352.48" font-family="Helvetica,sans-Serif" font-size="12.00" fill="#838b8b">3.35s: LinkMoveInterrupt</text>
<text text-anchor="start" x="1718.62" y="-340.48" font-family="Helvetica,sans-Serif" font-size="12.00" fill="#838b8b">4.83s: Done</text>
<text text-anchor="start" x="1718.62" y="-326.58" font-family="Helvetica,sans-Serif" font-size="12.00" fill="#838b8b">8.75s: Done</text>
<text text-anchor="start" x="1783.12" y="-326.58" font-family="Helvetica,sans-Serif" font-size="14.00"> &#160;</text>
</g>
<!-- A1_SpiningAttackStart&#45;&gt;B2_SpinningAndDangerGrab_Left -->
<g id="edge1" class="edge">
<title>A1_SpiningAttackStart&#45;&gt;B2_SpinningAndDangerGrab_Left</title>
<path fill="none" stroke="#cdc8b1" d="M1579.08,-323.4C1614.63,-327.19 1656.99,-332.4 1696.41,-337.78"/>
<polygon fill="#cdc8b1" stroke="#cdc8b1" points="1695.83,-341.24 1706.22,-339.13 1696.79,-334.3 1695.83,-341.24"/>
</g>
<!-- A1_SpiningAttackStart_linked -->
<g id="node3" class="node">
<title>A1_SpiningAttackStart_linked</title>
<polygon fill="none" stroke="black" stroke-dasharray="1,5" points="1937.22,-300.1 1713.03,-300.1 1713.03,-253.4 1937.22,-253.4 1937.22,-300.1"/>
<text text-anchor="start" x="1718.62" y="-281.2" font-family="Helvetica,sans-Serif" font-size="14.00">B2_SpinningAndDangerGrab_Left &#160;</text>
<text text-anchor="start" x="1743.38" y="-261.45" font-family="Helvetica,sans-Serif" font-size="14.00">B3_SpingJumpJump_Left &#160;</text>
</g>
<!-- A1_SpiningAttackStart&#45;&gt;A1_SpiningAttackStart_linked -->
<g id="edge2" class="edge">
<title>A1_SpiningAttackStart&#45;&gt;A1_SpiningAttackStart_linked</title>
<path fill="none" stroke="#66cdaa" d="M1579.08,-308.15C1616.09,-303.41 1660.48,-297.72 1701.26,-292.49"/>
<polygon fill="#66cdaa" stroke="#66cdaa" points="1701.68,-295.97 1711.16,-291.23 1700.79,-289.03 1701.68,-295.97"/>
<text text-anchor="middle" x="1652.38" y="-305.2" font-family="Helvetica,sans-Serif" font-size="14.00" fill="#66cdaa">QueueEnd</text>
</g>
<!-- A1_SpiningAttackStart_mustuse -->
<g id="node4" class="node">
<title>A1_SpiningAttackStart_mustuse</title>
<polygon fill="none" stroke="black" stroke-dasharray="1,5" points="1947.25,-235.38 1703,-235.38 1703,-168.12 1947.25,-168.12 1947.25,-235.38"/>
<text text-anchor="start" x="1713" y="-216.07" font-family="Helvetica,sans-Serif" font-size="14.00">1 B2_SpinningAndDangerGrab_Left &#160;</text>
<text text-anchor="start" x="1737.75" y="-196.32" font-family="Helvetica,sans-Serif" font-size="14.00">1 B3_SpingJumpJump_Left &#160;</text>
<text text-anchor="start" x="1764.75" y="-176.57" font-family="Helvetica,sans-Serif" font-size="14.00">0 B4_RightLeftEnd &#160;</text>
</g>
<!-- A1_SpiningAttackStart&#45;&gt;A1_SpiningAttackStart_mustuse -->
<g id="edge3" class="edge">
<title>A1_SpiningAttackStart&#45;&gt;A1_SpiningAttackStart_mustuse</title>
<path fill="none" stroke="#458b74" d="M1578.8,-289.17C1616.64,-275.61 1662.09,-259.34 1703,-244.75 1707.74,-243.06 1712.58,-241.33 1717.48,-239.59"/>
<polygon fill="#458b74" stroke="#458b74" points="1718.57,-242.92 1726.82,-236.27 1716.23,-236.32 1718.57,-242.92"/>
<text text-anchor="middle" x="1652.38" y="-275.62" font-family="Helvetica,sans-Serif" font-size="14.00" fill="#458b74">Weight</text>
</g>
<!-- B2_SpinningAndDangerGrab_Left&#45;&gt;A1_SpiningAttackStart -->
<g id="edge5" class="edge">
<title>B2_SpinningAndDangerGrab_Left&#45;&gt;A1_SpiningAttackStart</title>
<path fill="none" stroke="#cdc8b1" d="M1707.71,-352.32C1669.2,-347.82 1626.85,-342.28 1590.25,-336.95"/>
<polygon fill="#cdc8b1" stroke="#cdc8b1" points="1590.98,-333.52 1580.58,-335.52 1589.96,-340.44 1590.98,-333.52"/>
</g>
<!-- E10_GrabbedThanThoot -->
<g id="node5" class="node">
<title>E10_GrabbedThanThoot</title>
<polygon fill="none" stroke="black" points="839.88,-225.75 839.88,-247.5 1003.38,-247.5 1003.38,-225.75 839.88,-225.75"/>
<text text-anchor="start" x="842.88" y="-231.2" font-family="Helvetica,sans-Serif" font-size="14.00">E10_GrabbedThanThoot &#160;</text>
<polygon fill="none" stroke="black" points="839.88,-204 839.88,-225.75 1003.38,-225.75 1003.38,-204 839.88,-204"/>
<text text-anchor="start" x="842.88" y="-210.45" font-family="Helvetica,sans-Serif" font-size="12.00" fill="#838b8b">7.08s: Done</text>
<text text-anchor="start" x="907.38" y="-210.45" font-family="Helvetica,sans-Serif" font-size="14.00"> &#160;</text>
</g>
<!-- D7_SummonLongLaser -->
<g id="node6" class="node">
<title>D7_SummonLongLaser</title>
<polygon fill="none" stroke="black" points="1122.25,-229.88 1122.25,-251.62 1279.75,-251.62 1279.75,-229.88 1122.25,-229.88"/>
<text text-anchor="start" x="1125.25" y="-235.32" font-family="Helvetica,sans-Serif" font-size="14.00">D7_SummonLongLaser &#160;</text>
<polygon fill="none" stroke="black" points="1122.25,-197.88 1122.25,-229.88 1279.75,-229.88 1279.75,-197.88 1122.25,-197.88"/>
<text text-anchor="start" x="1125.25" y="-216.47" font-family="Helvetica,sans-Serif" font-size="12.00" fill="#838b8b">1.00s: LinkNextMove</text>
<text text-anchor="start" x="1125.25" y="-202.57" font-family="Helvetica,sans-Serif" font-size="12.00" fill="#838b8b">1.08s: Done</text>
<text text-anchor="start" x="1189.75" y="-202.57" font-family="Helvetica,sans-Serif" font-size="14.00"> &#160;</text>
</g>
<!-- E10_GrabbedThanThoot&#45;&gt;D7_SummonLongLaser -->
<g id="edge4" class="edge">
<title>E10_GrabbedThanThoot&#45;&gt;D7_SummonLongLaser</title>
<path fill="none" stroke="#cdc8b1" d="M1011.15,-225.43C1040.53,-225.32 1073.39,-225.21 1103.35,-225.1"/>
<polygon fill="#cdc8b1" stroke="#cdc8b1" points="1103.18,-228.6 1113.17,-225.06 1103.15,-221.6 1103.18,-228.6"/>
</g>
<!-- D7_SummonLongLaser&#45;&gt;A1_SpiningAttackStart -->
<g id="edge14" class="edge">
<title>D7_SummonLongLaser&#45;&gt;A1_SpiningAttackStart</title>
<path fill="none" stroke="#cdc8b1" d="M1287.75,-252.32C1323.33,-263.76 1364.7,-277.06 1401.04,-288.74"/>
<polygon fill="#cdc8b1" stroke="#cdc8b1" points="1399.62,-291.96 1410.21,-291.69 1401.76,-285.3 1399.62,-291.96"/>
</g>
<!-- D7_SummonLongLaser_linked -->
<g id="node16" class="node">
<title>D7_SummonLongLaser_linked</title>
<polygon fill="none" stroke="black" stroke-dasharray="1,5" points="1592.1,-257.98 1398.65,-257.98 1398.65,-191.53 1592.1,-191.53 1592.1,-257.98"/>
<text text-anchor="start" x="1424.12" y="-239.07" font-family="Helvetica,sans-Serif" font-size="14.00">A1_SpiningAttackStart &#160;</text>
<text text-anchor="start" x="1428.62" y="-219.32" font-family="Helvetica,sans-Serif" font-size="14.00">A5_DoubleGrabStart &#160;</text>
<text text-anchor="start" x="1404.25" y="-199.57" font-family="Helvetica,sans-Serif" font-size="14.00">A9_JumpToAnotherSideStart &#160;</text>
</g>
<!-- D7_SummonLongLaser&#45;&gt;D7_SummonLongLaser_linked -->
<g id="edge15" class="edge">
<title>D7_SummonLongLaser&#45;&gt;D7_SummonLongLaser_linked</title>
<path fill="none" stroke="#66cdaa" d="M1287.75,-224.75C1318.8,-224.75 1354.26,-224.75 1386.94,-224.75"/>
<polygon fill="#66cdaa" stroke="#66cdaa" points="1386.86,-228.25 1396.86,-224.75 1386.86,-221.25 1386.86,-228.25"/>
<text text-anchor="middle" x="1338.38" y="-227.2" font-family="Helvetica,sans-Serif" font-size="14.00" fill="#66cdaa">QueueEnd</text>
</g>
<!-- D7_SummonLongLaser_mustuse -->
<g id="node17" class="node">
<title>D7_SummonLongLaser_mustuse</title>
<polygon fill="none" stroke="black" stroke-dasharray="1,5" points="1601.75,-173.38 1389,-173.38 1389,-106.12 1601.75,-106.12 1601.75,-173.38"/>
<text text-anchor="start" x="1418.88" y="-154.07" font-family="Helvetica,sans-Serif" font-size="14.00">1 A1_SpiningAttackStart &#160;</text>
<text text-anchor="start" x="1423.38" y="-134.32" font-family="Helvetica,sans-Serif" font-size="14.00">1 A5_DoubleGrabStart &#160;</text>
<text text-anchor="start" x="1399" y="-114.58" font-family="Helvetica,sans-Serif" font-size="14.00">1 A9_JumpToAnotherSideStart &#160;</text>
</g>
<!-- D7_SummonLongLaser&#45;&gt;D7_SummonLongLaser_mustuse -->
<g id="edge16" class="edge">
<title>D7_SummonLongLaser&#45;&gt;D7_SummonLongLaser_mustuse</title>
<path fill="none" stroke="#458b74" d="M1287.75,-199.82C1315.88,-191.64 1347.65,-182.41 1377.68,-173.68"/>
<polygon fill="#458b74" stroke="#458b74" points="1378.58,-177.06 1387.2,-170.91 1376.62,-170.34 1378.58,-177.06"/>
<text text-anchor="middle" x="1338.38" y="-194.81" font-family="Helvetica,sans-Serif" font-size="14.00" fill="#458b74">Weight</text>
</g>
<!-- B3_SpingJumpJump_Left -->
<g id="node7" class="node">
<title>B3_SpingJumpJump_Left</title>
<polygon fill="none" stroke="black" points="309.38,-385.88 309.38,-407.62 478.88,-407.62 478.88,-385.88 309.38,-385.88"/>
<text text-anchor="start" x="312.38" y="-391.32" font-family="Helvetica,sans-Serif" font-size="14.00">B3_SpingJumpJump_Left &#160;</text>
<polygon fill="none" stroke="black" points="309.38,-317.88 309.38,-385.88 478.88,-385.88 478.88,-317.88 309.38,-317.88"/>
<text text-anchor="start" x="312.38" y="-372.48" font-family="Helvetica,sans-Serif" font-size="12.00" fill="#838b8b">0.02s: CheckFacingInverse</text>
<text text-anchor="start" x="312.38" y="-360.48" font-family="Helvetica,sans-Serif" font-size="12.00" fill="#838b8b">1.50s: CheckFacing</text>
<text text-anchor="start" x="312.38" y="-348.48" font-family="Helvetica,sans-Serif" font-size="12.00" fill="#838b8b">3.00s: CheckFacingInverse</text>
<text text-anchor="start" x="312.38" y="-336.48" font-family="Helvetica,sans-Serif" font-size="12.00" fill="#838b8b">6.02s: LinkNextMove</text>
<text text-anchor="start" x="312.38" y="-322.58" font-family="Helvetica,sans-Serif" font-size="12.00" fill="#838b8b">7.50s: Done</text>
<text text-anchor="start" x="376.88" y="-322.58" font-family="Helvetica,sans-Serif" font-size="14.00"> &#160;</text>
</g>
<!-- D6_SummonShortLaser -->
<g id="node8" class="node">
<title>D6_SummonShortLaser</title>
<polygon fill="none" stroke="black" points="561.25,-99.88 561.25,-121.62 721,-121.62 721,-99.88 561.25,-99.88"/>
<text text-anchor="start" x="564.25" y="-105.33" font-family="Helvetica,sans-Serif" font-size="14.00">D6_SummonShortLaser &#160;</text>
<polygon fill="none" stroke="black" points="561.25,-55.88 561.25,-99.88 721,-99.88 721,-55.88 561.25,-55.88"/>
<text text-anchor="start" x="564.25" y="-86.47" font-family="Helvetica,sans-Serif" font-size="12.00" fill="#838b8b">4.25s: LinkNextMove</text>
<text text-anchor="start" x="564.25" y="-74.47" font-family="Helvetica,sans-Serif" font-size="12.00" fill="#838b8b">8.50s: Done</text>
<text text-anchor="start" x="564.25" y="-60.57" font-family="Helvetica,sans-Serif" font-size="12.00" fill="#838b8b">13.00s: Done</text>
<text text-anchor="start" x="635.5" y="-60.57" font-family="Helvetica,sans-Serif" font-size="14.00"> &#160;</text>
</g>
<!-- B3_SpingJumpJump_Left&#45;&gt;D6_SummonShortLaser -->
<g id="edge6" class="edge">
<title>B3_SpingJumpJump_Left&#45;&gt;D6_SummonShortLaser</title>
<path fill="none" stroke="#cdc8b1" d="M486.67,-326.49C497.29,-320.15 507.45,-312.92 516.25,-304.75 567.39,-257.27 603.29,-183.78 622.84,-135.97"/>
<polygon fill="#cdc8b1" stroke="#cdc8b1" points="626.08,-137.27 626.54,-126.69 619.58,-134.68 626.08,-137.27"/>
</g>
<!-- C8_SuperLaser -->
<g id="node13" class="node">
<title>C8_SuperLaser</title>
<polygon fill="none" stroke="black" points="867.62,-155.75 867.62,-177.5 975.62,-177.5 975.62,-155.75 867.62,-155.75"/>
<text text-anchor="start" x="870.62" y="-161.2" font-family="Helvetica,sans-Serif" font-size="14.00">C8_SuperLaser &#160;</text>
<polygon fill="none" stroke="black" points="867.62,-134 867.62,-155.75 975.62,-155.75 975.62,-134 867.62,-134"/>
<text text-anchor="start" x="870.62" y="-140.45" font-family="Helvetica,sans-Serif" font-size="12.00" fill="#838b8b">19.50s: Done</text>
<text text-anchor="start" x="941.88" y="-140.45" font-family="Helvetica,sans-Serif" font-size="14.00"> &#160;</text>
</g>
<!-- D6_SummonShortLaser&#45;&gt;C8_SuperLaser -->
<g id="edge11" class="edge">
<title>D6_SummonShortLaser&#45;&gt;C8_SuperLaser</title>
<path fill="none" stroke="#cdc8b1" d="M728.72,-109.58C767.21,-118.84 812,-129.62 848.62,-138.43"/>
<polygon fill="#cdc8b1" stroke="#cdc8b1" points="847.69,-141.8 858.23,-140.74 849.33,-135 847.69,-141.8"/>
</g>
<!-- D6_SummonShortLaser_linked -->
<g id="node14" class="node">
<title>D6_SummonShortLaser_linked</title>
<polygon fill="none" stroke="black" stroke-dasharray="1,5" points="1002.98,-112.1 840.27,-112.1 840.27,-65.4 1002.98,-65.4 1002.98,-112.1"/>
<text text-anchor="start" x="845.88" y="-93.2" font-family="Helvetica,sans-Serif" font-size="14.00">D7_SummonLongLaser &#160;</text>
<text text-anchor="start" x="870.62" y="-73.45" font-family="Helvetica,sans-Serif" font-size="14.00">C8_SuperLaser &#160;</text>
</g>
<!-- D6_SummonShortLaser&#45;&gt;D6_SummonShortLaser_linked -->
<g id="edge12" class="edge">
<title>D6_SummonShortLaser&#45;&gt;D6_SummonShortLaser_linked</title>
<path fill="none" stroke="#66cdaa" d="M728.72,-88.75C760.43,-88.75 796.41,-88.75 828.58,-88.75"/>
<polygon fill="#66cdaa" stroke="#66cdaa" points="828.27,-92.25 838.27,-88.75 828.27,-85.25 828.27,-92.25"/>
<text text-anchor="middle" x="779.62" y="-91.2" font-family="Helvetica,sans-Serif" font-size="14.00" fill="#66cdaa">QueueEnd</text>
</g>
<!-- D6_SummonShortLaser_mustuse -->
<g id="node15" class="node">
<title>D6_SummonShortLaser_mustuse</title>
<polygon fill="none" stroke="black" stroke-dasharray="1,5" points="1013,-47.5 830.25,-47.5 830.25,0 1013,0 1013,-47.5"/>
<text text-anchor="start" x="840.25" y="-28.2" font-family="Helvetica,sans-Serif" font-size="14.00">1 D7_SummonLongLaser &#160;</text>
<text text-anchor="start" x="865" y="-8.45" font-family="Helvetica,sans-Serif" font-size="14.00">1 C8_SuperLaser &#160;</text>
</g>
<!-- D6_SummonShortLaser&#45;&gt;D6_SummonShortLaser_mustuse -->
<g id="edge13" class="edge">
<title>D6_SummonShortLaser&#45;&gt;D6_SummonShortLaser_mustuse</title>
<path fill="none" stroke="#458b74" d="M728.72,-68.54C757.44,-61.84 789.68,-54.31 819.41,-47.37"/>
<polygon fill="#458b74" stroke="#458b74" points="819.82,-50.87 828.76,-45.19 818.23,-44.06 819.82,-50.87"/>
<text text-anchor="middle" x="779.62" y="-66.43" font-family="Helvetica,sans-Serif" font-size="14.00" fill="#458b74">Weight</text>
</g>
<!-- B4_RightLeftEnd -->
<g id="node9" class="node">
<title>B4_RightLeftEnd</title>
<polygon fill="none" stroke="black" points="318.38,-99.88 318.38,-121.62 469.88,-121.62 469.88,-99.88 318.38,-99.88"/>
<text text-anchor="start" x="339.38" y="-105.33" font-family="Helvetica,sans-Serif" font-size="14.00">B4_RightLeftEnd &#160;</text>
<polygon fill="none" stroke="black" points="318.38,-31.88 318.38,-99.88 469.88,-99.88 469.88,-31.88 318.38,-31.88"/>
<text text-anchor="start" x="321.38" y="-86.47" font-family="Helvetica,sans-Serif" font-size="12.00" fill="#838b8b">0.02s: CheckFacingInverse</text>
<text text-anchor="start" x="321.38" y="-74.47" font-family="Helvetica,sans-Serif" font-size="12.00" fill="#838b8b">0.08s: CheckFacingInverse</text>
<text text-anchor="start" x="321.38" y="-62.47" font-family="Helvetica,sans-Serif" font-size="12.00" fill="#838b8b">2.00s: CheckFacing</text>
<text text-anchor="start" x="321.38" y="-50.47" font-family="Helvetica,sans-Serif" font-size="12.00" fill="#838b8b">6.02s: LinkNextMove</text>
<text text-anchor="start" x="321.38" y="-36.57" font-family="Helvetica,sans-Serif" font-size="12.00" fill="#838b8b">6.50s: Done</text>
<text text-anchor="start" x="385.88" y="-36.57" font-family="Helvetica,sans-Serif" font-size="14.00"> &#160;</text>
</g>
<!-- B4_RightLeftEnd&#45;&gt;D6_SummonShortLaser -->
<g id="edge7" class="edge">
<title>B4_RightLeftEnd&#45;&gt;D6_SummonShortLaser</title>
<path fill="none" stroke="#cdc8b1" d="M477.73,-80.8C498.34,-81.81 520.63,-82.9 541.91,-83.94"/>
<polygon fill="#cdc8b1" stroke="#cdc8b1" points="541.6,-87.43 551.76,-84.42 541.94,-80.44 541.6,-87.43"/>
</g>
<!-- A5_DoubleGrabStart -->
<g id="node10" class="node">
<title>A5_DoubleGrabStart</title>
<polygon fill="none" stroke="black" points="23.25,-285.88 23.25,-307.62 162.75,-307.62 162.75,-285.88 23.25,-285.88"/>
<text text-anchor="start" x="26.25" y="-291.32" font-family="Helvetica,sans-Serif" font-size="14.00">A5_DoubleGrabStart &#160;</text>
<polygon fill="none" stroke="black" points="23.25,-217.88 23.25,-285.88 162.75,-285.88 162.75,-217.88 23.25,-217.88"/>
<text text-anchor="start" x="26.25" y="-272.48" font-family="Helvetica,sans-Serif" font-size="12.00" fill="#838b8b">1.83s: LinkMoveInterrupt</text>
<text text-anchor="start" x="26.25" y="-260.48" font-family="Helvetica,sans-Serif" font-size="12.00" fill="#838b8b">3.95s: LinkMoveInterrupt</text>
<text text-anchor="start" x="26.25" y="-248.48" font-family="Helvetica,sans-Serif" font-size="12.00" fill="#838b8b">4.17s: CheckFacing</text>
<text text-anchor="start" x="26.25" y="-236.48" font-family="Helvetica,sans-Serif" font-size="12.00" fill="#838b8b">8.40s: LinkNextMove</text>
<text text-anchor="start" x="26.25" y="-222.58" font-family="Helvetica,sans-Serif" font-size="12.00" fill="#838b8b">8.73s: Done</text>
<text text-anchor="start" x="90.75" y="-222.58" font-family="Helvetica,sans-Serif" font-size="14.00"> &#160;</text>
</g>
<!-- A5_DoubleGrabStart&#45;&gt;B3_SpingJumpJump_Left -->
<g id="edge8" class="edge">
<title>A5_DoubleGrabStart&#45;&gt;B3_SpingJumpJump_Left</title>
<path fill="none" stroke="#cdc8b1" d="M170.64,-288.37C207.19,-300.59 251.43,-315.38 290.8,-328.54"/>
<polygon fill="#cdc8b1" stroke="#cdc8b1" points="289.47,-331.79 300.07,-331.64 291.69,-325.15 289.47,-331.79"/>
</g>
<!-- A5_DoubleGrabStart_linked -->
<g id="node11" class="node">
<title>A5_DoubleGrabStart_linked</title>
<polygon fill="none" stroke="black" stroke-dasharray="1,5" points="506.23,-295.98 282.02,-295.98 282.02,-229.53 506.23,-229.53 506.23,-295.98"/>
<text text-anchor="start" x="339.38" y="-277.07" font-family="Helvetica,sans-Serif" font-size="14.00">B4_RightLeftEnd &#160;</text>
<text text-anchor="start" x="312.38" y="-257.32" font-family="Helvetica,sans-Serif" font-size="14.00">B3_SpingJumpJump_Left &#160;</text>
<text text-anchor="start" x="287.62" y="-237.57" font-family="Helvetica,sans-Serif" font-size="14.00">B2_SpinningAndDangerGrab_Left &#160;</text>
</g>
<!-- A5_DoubleGrabStart&#45;&gt;A5_DoubleGrabStart_linked -->
<g id="edge9" class="edge">
<title>A5_DoubleGrabStart&#45;&gt;A5_DoubleGrabStart_linked</title>
<path fill="none" stroke="#66cdaa" d="M170.64,-262.75C200.97,-262.75 236.59,-262.75 270.33,-262.75"/>
<polygon fill="#66cdaa" stroke="#66cdaa" points="270.18,-266.25 280.18,-262.75 270.18,-259.25 270.18,-266.25"/>
<text text-anchor="middle" x="221.38" y="-265.2" font-family="Helvetica,sans-Serif" font-size="14.00" fill="#66cdaa">QueueEnd</text>
</g>
<!-- A5_DoubleGrabStart_mustuse -->
<g id="node12" class="node">
<title>A5_DoubleGrabStart_mustuse</title>
<polygon fill="none" stroke="black" stroke-dasharray="1,5" points="516.25,-211.38 272,-211.38 272,-144.12 516.25,-144.12 516.25,-211.38"/>
<text text-anchor="start" x="282" y="-192.07" font-family="Helvetica,sans-Serif" font-size="14.00">0 B2_SpinningAndDangerGrab_Left &#160;</text>
<text text-anchor="start" x="306.75" y="-172.32" font-family="Helvetica,sans-Serif" font-size="14.00">1 B3_SpingJumpJump_Left &#160;</text>
<text text-anchor="start" x="333.75" y="-152.57" font-family="Helvetica,sans-Serif" font-size="14.00">1 B4_RightLeftEnd &#160;</text>
</g>
<!-- A5_DoubleGrabStart&#45;&gt;A5_DoubleGrabStart_mustuse -->
<g id="edge10" class="edge">
<title>A5_DoubleGrabStart&#45;&gt;A5_DoubleGrabStart_mustuse</title>
<path fill="none" stroke="#458b74" d="M170.64,-240.97C198.52,-233.05 230.86,-223.86 262.11,-214.98"/>
<polygon fill="#458b74" stroke="#458b74" points="262.99,-218.37 271.65,-212.27 261.07,-211.64 262.99,-218.37"/>
<text text-anchor="middle" x="221.38" y="-237.71" font-family="Helvetica,sans-Serif" font-size="14.00" fill="#458b74">Weight</text>
</g>
<!-- C8_SuperLaser&#45;&gt;D7_SummonLongLaser -->
<g id="edge17" class="edge">
<title>C8_SuperLaser&#45;&gt;D7_SummonLongLaser</title>
<path fill="none" stroke="#cdc8b1" d="M983.5,-170.89C1018.55,-179.61 1063.42,-190.77 1103.21,-200.67"/>
<polygon fill="#cdc8b1" stroke="#cdc8b1" points="1102.26,-204.04 1112.81,-203.06 1103.95,-197.25 1102.26,-204.04"/>
</g>
<!-- C8_SuperLaser_linked -->
<g id="node18" class="node">
<title>C8_SuperLaser_linked</title>
<polygon fill="none" stroke="black" stroke-dasharray="1,5" points="1261.35,-173.75 1140.65,-173.75 1140.65,-137.75 1261.35,-137.75 1261.35,-173.75"/>
<text text-anchor="start" x="1146.25" y="-150.32" font-family="Helvetica,sans-Serif" font-size="14.00">B4_RightLeftEnd &#160;</text>
</g>
<!-- C8_SuperLaser&#45;&gt;C8_SuperLaser_linked -->
<g id="edge18" class="edge">
<title>C8_SuperLaser&#45;&gt;C8_SuperLaser_linked</title>
<path fill="none" stroke="#66cdaa" d="M983.5,-155.75C1026.33,-155.75 1083.81,-155.75 1128.78,-155.75"/>
<polygon fill="#66cdaa" stroke="#66cdaa" points="1128.71,-159.25 1138.71,-155.75 1128.71,-152.25 1128.71,-159.25"/>
<text text-anchor="middle" x="1063.62" y="-158.2" font-family="Helvetica,sans-Serif" font-size="14.00" fill="#66cdaa">QueueEnd</text>
</g>
<!-- A9_JumpToAnotherSideStart -->
<g id="node19" class="node">
<title>A9_JumpToAnotherSideStart</title>
<polygon fill="none" stroke="black" points="1401.25,-472.88 1401.25,-494.62 1589.5,-494.62 1589.5,-472.88 1401.25,-472.88"/>
<text text-anchor="start" x="1404.25" y="-478.32" font-family="Helvetica,sans-Serif" font-size="14.00">A9_JumpToAnotherSideStart &#160;</text>
<polygon fill="none" stroke="black" points="1401.25,-416.88 1401.25,-472.88 1589.5,-472.88 1589.5,-416.88 1401.25,-416.88"/>
<text text-anchor="start" x="1404.25" y="-459.48" font-family="Helvetica,sans-Serif" font-size="12.00" fill="#838b8b">2.00s: CheckFacing</text>
<text text-anchor="start" x="1404.25" y="-447.48" font-family="Helvetica,sans-Serif" font-size="12.00" fill="#838b8b">3.88s: CheckFacingInverse</text>
<text text-anchor="start" x="1404.25" y="-435.48" font-family="Helvetica,sans-Serif" font-size="12.00" fill="#838b8b">3.90s: LinkNextMove</text>
<text text-anchor="start" x="1404.25" y="-421.58" font-family="Helvetica,sans-Serif" font-size="12.00" fill="#838b8b">4.07s: Done</text>
<text text-anchor="start" x="1468.75" y="-421.58" font-family="Helvetica,sans-Serif" font-size="14.00"> &#160;</text>
</g>
<!-- A9_JumpToAnotherSideStart&#45;&gt;B2_SpinningAndDangerGrab_Left -->
<g id="edge19" class="edge">
<title>A9_JumpToAnotherSideStart&#45;&gt;B2_SpinningAndDangerGrab_Left</title>
<path fill="none" stroke="#cdc8b1" d="M1597.39,-426.47C1628.87,-417.35 1664,-407.16 1697.03,-397.59"/>
<polygon fill="#cdc8b1" stroke="#cdc8b1" points="1697.59,-401.07 1706.22,-394.93 1695.64,-394.35 1697.59,-401.07"/>
</g>
<!-- A9_JumpToAnotherSideStart_linked -->
<g id="node20" class="node">
<title>A9_JumpToAnotherSideStart_linked</title>
<polygon fill="none" stroke="black" stroke-dasharray="1,5" points="1937.22,-573.98 1713.03,-573.98 1713.03,-507.52 1937.22,-507.52 1937.22,-573.98"/>
<text text-anchor="start" x="1718.62" y="-555.08" font-family="Helvetica,sans-Serif" font-size="14.00">B2_SpinningAndDangerGrab_Left &#160;</text>
<text text-anchor="start" x="1743.38" y="-535.33" font-family="Helvetica,sans-Serif" font-size="14.00">B3_SpingJumpJump_Left &#160;</text>
<text text-anchor="start" x="1770.38" y="-515.58" font-family="Helvetica,sans-Serif" font-size="14.00">B4_RightLeftEnd &#160;</text>
</g>
<!-- A9_JumpToAnotherSideStart&#45;&gt;A9_JumpToAnotherSideStart_linked -->
<g id="edge20" class="edge">
<title>A9_JumpToAnotherSideStart&#45;&gt;A9_JumpToAnotherSideStart_linked</title>
<path fill="none" stroke="#66cdaa" d="M1597.39,-481.95C1630.31,-490.49 1667.23,-500.06 1701.56,-508.96"/>
<polygon fill="#66cdaa" stroke="#66cdaa" points="1700.58,-512.32 1711.14,-511.45 1702.34,-505.55 1700.58,-512.32"/>
<text text-anchor="middle" x="1652.38" y="-505.79" font-family="Helvetica,sans-Serif" font-size="14.00" fill="#66cdaa">QueueEnd</text>
</g>
<!-- A9_JumpToAnotherSideStart_mustuse -->
<g id="node21" class="node">
<title>A9_JumpToAnotherSideStart_mustuse</title>
<polygon fill="none" stroke="black" stroke-dasharray="1,5" points="1947.25,-489.38 1703,-489.38 1703,-422.12 1947.25,-422.12 1947.25,-489.38"/>
<text text-anchor="start" x="1713" y="-470.07" font-family="Helvetica,sans-Serif" font-size="14.00">1 B2_SpinningAndDangerGrab_Left &#160;</text>
<text text-anchor="start" x="1737.75" y="-450.32" font-family="Helvetica,sans-Serif" font-size="14.00">1 B3_SpingJumpJump_Left &#160;</text>
<text text-anchor="start" x="1764.75" y="-430.57" font-family="Helvetica,sans-Serif" font-size="14.00">1 B4_RightLeftEnd &#160;</text>
</g>
<!-- A9_JumpToAnotherSideStart&#45;&gt;A9_JumpToAnotherSideStart_mustuse -->
<g id="edge21" class="edge">
<title>A9_JumpToAnotherSideStart&#45;&gt;A9_JumpToAnotherSideStart_mustuse</title>
<path fill="none" stroke="#458b74" d="M1597.39,-455.75C1627.04,-455.75 1659.92,-455.75 1691.24,-455.75"/>
<polygon fill="#458b74" stroke="#458b74" points="1691.19,-459.25 1701.19,-455.75 1691.19,-452.25 1691.19,-459.25"/>
<text text-anchor="middle" x="1652.38" y="-458.2" font-family="Helvetica,sans-Serif" font-size="14.00" fill="#458b74">Weight</text>
</g>
<!-- LastHit -->
<g id="node22" class="node">
<title>LastHit</title>
<polygon fill="none" stroke="black" points="54,-447.75 54,-469.5 132,-469.5 132,-447.75 54,-447.75"/>
<text text-anchor="start" x="68.25" y="-453.2" font-family="Helvetica,sans-Serif" font-size="14.00">LastHit &#160;</text>
<polygon fill="none" stroke="black" points="54,-426 54,-447.75 132,-447.75 132,-426 54,-426"/>
<text text-anchor="start" x="57" y="-432.45" font-family="Helvetica,sans-Serif" font-size="12.00" fill="#838b8b">3.85s: Done</text>
<text text-anchor="start" x="121.5" y="-432.45" font-family="Helvetica,sans-Serif" font-size="14.00"> &#160;</text>
</g>
<!-- Die_WaitForHack -->
<g id="node23" class="node">
<title>Die_WaitForHack</title>
<polygon fill="none" stroke="black" points="455,-465.75 333.25,-465.75 333.25,-429.75 455,-429.75 455,-465.75"/>
<text text-anchor="middle" x="394.12" y="-442.32" font-family="Helvetica,sans-Serif" font-size="14.00">Die_WaitForHack</text>
</g>
<!-- LastHit&#45;&gt;Die_WaitForHack -->
<g id="edge22" class="edge">
<title>LastHit&#45;&gt;Die_WaitForHack</title>
<path fill="none" stroke="#cdc8b1" d="M139.76,-447.75C188.14,-447.75 265.12,-447.75 321.55,-447.75"/>
<polygon fill="#cdc8b1" stroke="#cdc8b1" points="321.39,-451.25 331.39,-447.75 321.39,-444.25 321.39,-451.25"/>
</g>
<!-- PostureBreak -->
<g id="node24" class="node">
<title>PostureBreak</title>
<polygon fill="none" stroke="black" points="34.12,-527.88 34.12,-549.62 151.88,-549.62 151.88,-527.88 34.12,-527.88"/>
<text text-anchor="start" x="48.38" y="-533.33" font-family="Helvetica,sans-Serif" font-size="14.00">PostureBreak &#160;</text>
<polygon fill="none" stroke="black" points="34.12,-495.88 34.12,-527.88 151.88,-527.88 151.88,-495.88 34.12,-495.88"/>
<text text-anchor="start" x="37.12" y="-514.48" font-family="Helvetica,sans-Serif" font-size="12.00" fill="#838b8b">2.50s: LinkNextMove</text>
<text text-anchor="start" x="37.12" y="-500.58" font-family="Helvetica,sans-Serif" font-size="12.00" fill="#838b8b">5.12s: Done</text>
<text text-anchor="start" x="101.62" y="-500.58" font-family="Helvetica,sans-Serif" font-size="14.00"> &#160;</text>
</g>
<!-- Wandering_Idle -->
<g id="node25" class="node">
<title>Wandering_Idle</title>
<polygon fill="none" stroke="black" points="163.62,-607.75 22.38,-607.75 22.38,-571.75 163.62,-571.75 163.62,-607.75"/>
<text text-anchor="middle" x="93" y="-584.33" font-family="Helvetica,sans-Serif" font-size="14.00">Wandering_Idle (Init)</text>
</g>
<!-- Level Once Sensor -->
<g id="node26" class="node">
<title>Level Once Sensor</title>
<polygon fill="none" stroke="black" points="158.75,-661.75 27.25,-661.75 27.25,-625.75 158.75,-625.75 158.75,-661.75"/>
<text text-anchor="middle" x="93" y="-638.33" font-family="Helvetica,sans-Serif" font-size="14.00">Level Once Sensor</text>
</g>
<!-- Level Once Sensor_linked -->
<g id="node27" class="node">
<title>Level Once Sensor_linked</title>
<polygon fill="none" stroke="black" stroke-dasharray="1,5" points="470.98,-660.75 317.27,-660.75 317.27,-624.75 470.98,-624.75 470.98,-660.75"/>
<text text-anchor="start" x="322.88" y="-637.33" font-family="Helvetica,sans-Serif" font-size="14.00">A1_SpiningAttackStart &#160;</text>
</g>
<!-- Level Once Sensor&#45;&gt;Level Once Sensor_linked -->
<g id="edge23" class="edge">
<title>Level Once Sensor&#45;&gt;Level Once Sensor_linked</title>
<path fill="none" stroke="#66cdaa" d="M158.91,-643.53C201.84,-643.39 258.66,-643.2 305.59,-643.04"/>
<polygon fill="#66cdaa" stroke="#66cdaa" points="305.47,-646.54 315.46,-643.01 305.45,-639.54 305.47,-646.54"/>
<text text-anchor="middle" x="221.38" y="-645.88" font-family="Helvetica,sans-Serif" font-size="14.00" fill="#66cdaa">QueueEnd</text>
</g>
<!-- Level Once Sensor_mustuse -->
<g id="node28" class="node">
<title>Level Once Sensor_mustuse</title>
<polygon fill="none" stroke="black" stroke-dasharray="1,5" points="480.62,-714.75 307.62,-714.75 307.62,-678.75 480.62,-678.75 480.62,-714.75"/>
<text text-anchor="start" x="317.62" y="-691.33" font-family="Helvetica,sans-Serif" font-size="14.00">1 A1_SpiningAttackStart &#160;</text>
</g>
<!-- Level Once Sensor&#45;&gt;Level Once Sensor_mustuse -->
<g id="edge24" class="edge">
<title>Level Once Sensor&#45;&gt;Level Once Sensor_mustuse</title>
<path fill="none" stroke="#458b74" d="M159.19,-657.12C169.08,-659.06 179.18,-660.99 188.75,-662.75 223.64,-669.15 261.97,-675.66 295.92,-681.25"/>
<polygon fill="#458b74" stroke="#458b74" points="295.32,-684.7 305.76,-682.87 296.45,-677.79 295.32,-684.7"/>
<text text-anchor="middle" x="221.38" y="-676.08" font-family="Helvetica,sans-Serif" font-size="14.00" fill="#458b74">Weight</text>
</g>
<!-- RunAwaySensor -->
<g id="node29" class="node">
<title>RunAwaySensor</title>
<polygon fill="none" stroke="black" points="151.25,-719.75 34.75,-719.75 34.75,-683.75 151.25,-683.75 151.25,-719.75"/>
<text text-anchor="middle" x="93" y="-696.33" font-family="Helvetica,sans-Serif" font-size="14.00">RunAwaySensor</text>
</g>
<!-- AttackSensor -->
<g id="node30" class="node">
<title>AttackSensor</title>
<polygon fill="none" stroke="black" points="141.12,-782.75 44.88,-782.75 44.88,-746.75 141.12,-746.75 141.12,-782.75"/>
<text text-anchor="middle" x="93" y="-759.33" font-family="Helvetica,sans-Serif" font-size="14.00">AttackSensor</text>
</g>
<!-- AttackSensor_linked -->
<g id="node31" class="node">
<title>AttackSensor_linked</title>
<polygon fill="none" stroke="black" stroke-dasharray="1,5" points="470.98,-768.75 317.27,-768.75 317.27,-732.75 470.98,-732.75 470.98,-768.75"/>
<text text-anchor="start" x="322.88" y="-745.33" font-family="Helvetica,sans-Serif" font-size="14.00">A1_SpiningAttackStart &#160;</text>
</g>
<!-- AttackSensor&#45;&gt;AttackSensor_linked -->
<g id="edge25" class="edge">
<title>AttackSensor&#45;&gt;AttackSensor_linked</title>
<path fill="none" stroke="#66cdaa" d="M141.4,-762.53C185.38,-760.47 251.95,-757.36 305.59,-754.85"/>
<polygon fill="#66cdaa" stroke="#66cdaa" points="305.49,-758.36 315.31,-754.39 305.16,-751.36 305.49,-758.36"/>
<text text-anchor="middle" x="221.38" y="-762.67" font-family="Helvetica,sans-Serif" font-size="14.00" fill="#66cdaa">QueueEnd</text>
</g>
<!-- AttackSensor_mustuse -->
<g id="node32" class="node">
<title>AttackSensor_mustuse</title>
<polygon fill="none" stroke="black" stroke-dasharray="1,5" points="485.5,-834.5 302.75,-834.5 302.75,-787 485.5,-787 485.5,-834.5"/>
<text text-anchor="start" x="312.75" y="-815.2" font-family="Helvetica,sans-Serif" font-size="14.00">1 D7_SummonLongLaser &#160;</text>
<text text-anchor="start" x="337.5" y="-795.45" font-family="Helvetica,sans-Serif" font-size="14.00">0 C8_SuperLaser &#160;</text>
</g>
<!-- AttackSensor&#45;&gt;AttackSensor_mustuse -->
<g id="edge26" class="edge">
<title>AttackSensor&#45;&gt;AttackSensor_mustuse</title>
<path fill="none" stroke="#458b74" d="M141.4,-772.04C181.45,-778.2 240.22,-787.24 290.9,-795.03"/>
<polygon fill="#458b74" stroke="#458b74" points="290.34,-798.48 300.76,-796.55 291.4,-791.57 290.34,-798.48"/>
<text text-anchor="middle" x="221.38" y="-791.58" font-family="Helvetica,sans-Serif" font-size="14.00" fill="#458b74">Weight</text>
</g>
<!-- DodgePredictSensor -->
<g id="node33" class="node">
<title>DodgePredictSensor</title>
<polygon fill="none" stroke="black" points="24,-830.75 24,-852.5 162,-852.5 162,-830.75 24,-830.75"/>
<text text-anchor="start" x="27" y="-836.2" font-family="Helvetica,sans-Serif" font-size="14.00">DodgePredictSensor &#160;</text>
<polygon fill="none" stroke="black" points="24,-809 24,-830.75 162,-830.75 162,-809 24,-809"/>
<text text-anchor="start" x="27" y="-815.45" font-family="Helvetica,sans-Serif" font-size="12.00" fill="#838b8b">if: rollingCondition</text>
<text text-anchor="start" x="123.75" y="-815.45" font-family="Helvetica,sans-Serif" font-size="14.00"> &#160;</text>
</g>
<!-- DodgePredictSensor_linked -->
<g id="node34" class="node">
<title>DodgePredictSensor_linked</title>
<polygon fill="none" stroke="black" stroke-dasharray="1,5" points="470.98,-888.75 317.27,-888.75 317.27,-852.75 470.98,-852.75 470.98,-888.75"/>
<text text-anchor="start" x="322.88" y="-865.33" font-family="Helvetica,sans-Serif" font-size="14.00">A1_SpiningAttackStart &#160;</text>
</g>
<!-- DodgePredictSensor&#45;&gt;DodgePredictSensor_linked -->
<g id="edge27" class="edge">
<title>DodgePredictSensor&#45;&gt;DodgePredictSensor_linked</title>
<path fill="none" stroke="#66cdaa" d="M169.87,-840.9C211.18,-846.42 262.49,-853.28 305.5,-859.03"/>
<polygon fill="#66cdaa" stroke="#66cdaa" points="304.94,-862.49 315.32,-860.35 305.87,-855.55 304.94,-862.49"/>
<text text-anchor="middle" x="221.38" y="-854.4" font-family="Helvetica,sans-Serif" font-size="14.00" fill="#66cdaa">QueueEnd</text>
</g>
<!-- AttackPredictSensor -->
<g id="node35" class="node">
<title>AttackPredictSensor</title>
<polygon fill="none" stroke="black" points="25.12,-900.75 25.12,-922.5 160.88,-922.5 160.88,-900.75 25.12,-900.75"/>
<text text-anchor="start" x="28.12" y="-906.2" font-family="Helvetica,sans-Serif" font-size="14.00">AttackPredictSensor &#160;</text>
<polygon fill="none" stroke="black" points="25.12,-879 25.12,-900.75 160.88,-900.75 160.88,-879 25.12,-879"/>
<text text-anchor="start" x="28.12" y="-885.45" font-family="Helvetica,sans-Serif" font-size="12.00" fill="#838b8b">if: attackCondition</text>
<text text-anchor="start" x="123.38" y="-885.45" font-family="Helvetica,sans-Serif" font-size="14.00"> &#160;</text>
</g>
<!-- AttackPredictSensor_linked -->
<g id="node36" class="node">
<title>AttackPredictSensor_linked</title>
<polygon fill="none" stroke="black" stroke-dasharray="1,5" points="470.98,-942.75 317.27,-942.75 317.27,-906.75 470.98,-906.75 470.98,-942.75"/>
<text text-anchor="start" x="322.88" y="-919.33" font-family="Helvetica,sans-Serif" font-size="14.00">A1_SpiningAttackStart &#160;</text>
</g>
<!-- AttackPredictSensor&#45;&gt;AttackPredictSensor_linked -->
<g id="edge28" class="edge">
<title>AttackPredictSensor&#45;&gt;AttackPredictSensor_linked</title>
<path fill="none" stroke="#66cdaa" d="M168.71,-906.74C210.25,-910.08 262.17,-914.24 305.6,-917.73"/>
<polygon fill="#66cdaa" stroke="#66cdaa" points="305.27,-921.21 315.52,-918.52 305.83,-914.23 305.27,-921.21"/>
<text text-anchor="middle" x="221.38" y="-915.92" font-family="Helvetica,sans-Serif" font-size="14.00" fill="#66cdaa">QueueEnd</text>
</g>
<!-- AttackRunToSensor -->
<g id="node37" class="node">
<title>AttackRunToSensor</title>
<polygon fill="none" stroke="black" points="26.62,-970.75 26.62,-992.5 159.38,-992.5 159.38,-970.75 26.62,-970.75"/>
<text text-anchor="start" x="29.62" y="-976.2" font-family="Helvetica,sans-Serif" font-size="14.00">AttackRunToSensor &#160;</text>
<polygon fill="none" stroke="black" points="26.62,-949 26.62,-970.75 159.38,-970.75 159.38,-949 26.62,-949"/>
<text text-anchor="start" x="29.62" y="-955.45" font-family="Helvetica,sans-Serif" font-size="12.00" fill="#838b8b">if: state is Engaging</text>
<text text-anchor="start" x="133.88" y="-955.45" font-family="Helvetica,sans-Serif" font-size="14.00"> &#160;</text>
</g>
<!-- AttackRunToSensor_linked -->
<g id="node38" class="node">
<title>AttackRunToSensor_linked</title>
<polygon fill="none" stroke="black" stroke-dasharray="1,5" points="470.98,-996.75 317.27,-996.75 317.27,-960.75 470.98,-960.75 470.98,-996.75"/>
<text text-anchor="start" x="322.88" y="-973.33" font-family="Helvetica,sans-Serif" font-size="14.00">A1_SpiningAttackStart &#160;</text>
</g>
<!-- AttackRunToSensor&#45;&gt;AttackRunToSensor_linked -->
<g id="edge29" class="edge">
<title>AttackRunToSensor&#45;&gt;AttackRunToSensor_linked</title>
<path fill="none" stroke="#66cdaa" d="M167.17,-972.71C208.94,-973.82 261.57,-975.23 305.53,-976.41"/>
<polygon fill="#66cdaa" stroke="#66cdaa" points="305.19,-979.9 315.28,-976.67 305.38,-972.9 305.19,-979.9"/>
<text text-anchor="middle" x="221.38" y="-977.44" font-family="Helvetica,sans-Serif" font-size="14.00" fill="#66cdaa">QueueEnd</text>
</g>
</g>
</svg>
