<?xml version="1.0" encoding="UTF-8" standalone="no"?>
<!DOCTYPE svg PUBLIC "-//W3C//DTD SVG 1.1//EN"
 "http://www.w3.org/Graphics/SVG/1.1/DTD/svg11.dtd">
<!-- Generated by graphviz version 12.2.1 (20241206.2353)
 -->
<!-- Title: Foo Pages: 1 -->
<svg width="1955pt" height="1016pt"
 viewBox="0.00 0.00 1955.25 1016.00" xmlns="http://www.w3.org/2000/svg" xmlns:xlink="http://www.w3.org/1999/xlink">
<g id="graph0" class="graph" transform="scale(1 1) rotate(0) translate(4 1012)">
<title>Foo</title>
<polygon fill="white" stroke="none" points="-4,4 -4,-1012 1951.25,-1012 1951.25,4 -4,4"/>
<g id="clust1" class="cluster">
<title>cluster_attacksensors</title>
<polygon fill="none" stroke="black" points="8,-8 8,-420 493.5,-420 493.5,-8 8,-8"/>
<text text-anchor="middle" x="250.75" y="-402.7" font-family="Helvetica,sans-Serif" font-size="14.00">Attack Sensors</text>
</g>
<!-- Level Once Sensor -->
<g id="node1" class="node">
<title>Level Once Sensor</title>
<polygon fill="none" stroke="black" points="28.5,-26.12 28.5,-47.88 157.5,-47.88 157.5,-26.12 28.5,-26.12"/>
<text text-anchor="start" x="31.5" y="-31.57" font-family="Helvetica,sans-Serif" font-size="14.00">Level Once Sensor &#160;</text>
</g>
<!-- Level Once Sensor_linked -->
<g id="node2" class="node">
<title>Level Once Sensor_linked</title>
<polygon fill="none" stroke="black" stroke-dasharray="1,5" points="470.98,-52 317.27,-52 317.27,-16 470.98,-16 470.98,-52"/>
<text text-anchor="start" x="322.88" y="-28.57" font-family="Helvetica,sans-Serif" font-size="14.00">A1_SpiningAttackStart &#160;</text>
</g>
<!-- Level Once Sensor&#45;&gt;Level Once Sensor_linked -->
<g id="edge1" class="edge">
<title>Level Once Sensor&#45;&gt;Level Once Sensor_linked</title>
<path fill="none" stroke="#66cdaa" d="M165.27,-36.29C207.31,-35.86 260.86,-35.33 305.47,-34.88"/>
<polygon fill="#66cdaa" stroke="#66cdaa" points="305.43,-38.38 315.4,-34.78 305.36,-31.38 305.43,-38.38"/>
<text text-anchor="middle" x="221.38" y="-38.48" font-family="Helvetica,sans-Serif" font-size="14.00" fill="#66cdaa">QueueEnd</text>
</g>
<!-- Level Once Sensor_weight -->
<g id="node3" class="node">
<title>Level Once Sensor_weight</title>
<polygon fill="none" stroke="black" stroke-dasharray="1,5" points="480.62,-106 307.62,-106 307.62,-70 480.62,-70 480.62,-106"/>
<text text-anchor="start" x="317.62" y="-82.58" font-family="Helvetica,sans-Serif" font-size="14.00">1 A1_SpiningAttackStart &#160;</text>
</g>
<!-- Level Once Sensor&#45;&gt;Level Once Sensor_weight -->
<g id="edge2" class="edge">
<title>Level Once Sensor&#45;&gt;Level Once Sensor_weight</title>
<path fill="none" stroke="#458b74" d="M165.33,-51.64C173.23,-53.16 181.15,-54.64 188.75,-56 223.61,-62.22 261.94,-68.4 295.89,-73.64"/>
<polygon fill="#458b74" stroke="#458b74" points="295.31,-77.09 305.73,-75.15 296.37,-70.17 295.31,-77.09"/>
<text text-anchor="middle" x="221.38" y="-68.9" font-family="Helvetica,sans-Serif" font-size="14.00" fill="#458b74">Weight</text>
</g>
<!-- RunAwaySensor -->
<g id="node4" class="node">
<title>RunAwaySensor</title>
<polygon fill="none" stroke="black" points="36,-82.12 36,-103.88 150,-103.88 150,-82.12 36,-82.12"/>
<text text-anchor="start" x="39" y="-87.58" font-family="Helvetica,sans-Serif" font-size="14.00">RunAwaySensor &#160;</text>
</g>
<!-- AttackSensor -->
<g id="node5" class="node">
<title>AttackSensor</title>
<polygon fill="none" stroke="black" points="46.12,-145.12 46.12,-166.88 139.88,-166.88 139.88,-145.12 46.12,-145.12"/>
<text text-anchor="start" x="49.12" y="-150.57" font-family="Helvetica,sans-Serif" font-size="14.00">AttackSensor &#160;</text>
</g>
<!-- AttackSensor_linked -->
<g id="node6" class="node">
<title>AttackSensor_linked</title>
<polygon fill="none" stroke="black" stroke-dasharray="1,5" points="470.98,-160 317.27,-160 317.27,-124 470.98,-124 470.98,-160"/>
<text text-anchor="start" x="322.88" y="-136.57" font-family="Helvetica,sans-Serif" font-size="14.00">A1_SpiningAttackStart &#160;</text>
</g>
<!-- AttackSensor&#45;&gt;AttackSensor_linked -->
<g id="edge3" class="edge">
<title>AttackSensor&#45;&gt;AttackSensor_linked</title>
<path fill="none" stroke="#66cdaa" d="M147.82,-153.48C191.69,-151.43 254.5,-148.49 305.59,-146.1"/>
<polygon fill="#66cdaa" stroke="#66cdaa" points="305.63,-149.6 315.45,-145.64 305.3,-142.61 305.63,-149.6"/>
<text text-anchor="middle" x="221.38" y="-153.92" font-family="Helvetica,sans-Serif" font-size="14.00" fill="#66cdaa">QueueEnd</text>
</g>
<!-- AttackSensor_weight -->
<g id="node7" class="node">
<title>AttackSensor_weight</title>
<polygon fill="none" stroke="black" stroke-dasharray="1,5" points="485.5,-225.75 302.75,-225.75 302.75,-178.25 485.5,-178.25 485.5,-225.75"/>
<text text-anchor="start" x="312.75" y="-206.45" font-family="Helvetica,sans-Serif" font-size="14.00">1 D7_SummonLongLaser &#160;</text>
<text text-anchor="start" x="337.5" y="-186.7" font-family="Helvetica,sans-Serif" font-size="14.00">0 C8_SuperLaser &#160;</text>
</g>
<!-- AttackSensor&#45;&gt;AttackSensor_weight -->
<g id="edge4" class="edge">
<title>AttackSensor&#45;&gt;AttackSensor_weight</title>
<path fill="none" stroke="#458b74" d="M147.82,-164.28C187.69,-170.41 243.22,-178.95 291.37,-186.35"/>
<polygon fill="#458b74" stroke="#458b74" points="290.56,-189.77 300.98,-187.83 291.62,-182.85 290.56,-189.77"/>
<text text-anchor="middle" x="221.38" y="-182.83" font-family="Helvetica,sans-Serif" font-size="14.00" fill="#458b74">Weight</text>
</g>
<!-- DodgePredictSensor -->
<g id="node8" class="node">
<title>DodgePredictSensor</title>
<polygon fill="none" stroke="black" points="24,-222 24,-243.75 162,-243.75 162,-222 24,-222"/>
<text text-anchor="start" x="27" y="-227.45" font-family="Helvetica,sans-Serif" font-size="14.00">DodgePredictSensor &#160;</text>
<polygon fill="none" stroke="black" points="24,-200.25 24,-222 162,-222 162,-200.25 24,-200.25"/>
<text text-anchor="start" x="27" y="-206.7" font-family="Helvetica,sans-Serif" font-size="12.00" fill="#838b8b">if: rollingCondition</text>
<text text-anchor="start" x="123.75" y="-206.7" font-family="Helvetica,sans-Serif" font-size="14.00"> &#160;</text>
</g>
<!-- DodgePredictSensor_linked -->
<g id="node9" class="node">
<title>DodgePredictSensor_linked</title>
<polygon fill="none" stroke="black" stroke-dasharray="1,5" points="470.98,-280 317.27,-280 317.27,-244 470.98,-244 470.98,-280"/>
<text text-anchor="start" x="322.88" y="-256.57" font-family="Helvetica,sans-Serif" font-size="14.00">A1_SpiningAttackStart &#160;</text>
</g>
<!-- DodgePredictSensor&#45;&gt;DodgePredictSensor_linked -->
<g id="edge5" class="edge">
<title>DodgePredictSensor&#45;&gt;DodgePredictSensor_linked</title>
<path fill="none" stroke="#66cdaa" d="M169.87,-232.15C211.18,-237.67 262.49,-244.53 305.5,-250.28"/>
<polygon fill="#66cdaa" stroke="#66cdaa" points="304.94,-253.74 315.32,-251.6 305.87,-246.8 304.94,-253.74"/>
<text text-anchor="middle" x="221.38" y="-245.65" font-family="Helvetica,sans-Serif" font-size="14.00" fill="#66cdaa">QueueEnd</text>
</g>
<!-- AttackPredictSensor -->
<g id="node10" class="node">
<title>AttackPredictSensor</title>
<polygon fill="none" stroke="black" points="25.12,-292 25.12,-313.75 160.88,-313.75 160.88,-292 25.12,-292"/>
<text text-anchor="start" x="28.12" y="-297.45" font-family="Helvetica,sans-Serif" font-size="14.00">AttackPredictSensor &#160;</text>
<polygon fill="none" stroke="black" points="25.12,-270.25 25.12,-292 160.88,-292 160.88,-270.25 25.12,-270.25"/>
<text text-anchor="start" x="28.12" y="-276.7" font-family="Helvetica,sans-Serif" font-size="12.00" fill="#838b8b">if: attackCondition</text>
<text text-anchor="start" x="123.38" y="-276.7" font-family="Helvetica,sans-Serif" font-size="14.00"> &#160;</text>
</g>
<!-- AttackPredictSensor_linked -->
<g id="node11" class="node">
<title>AttackPredictSensor_linked</title>
<polygon fill="none" stroke="black" stroke-dasharray="1,5" points="470.98,-334 317.27,-334 317.27,-298 470.98,-298 470.98,-334"/>
<text text-anchor="start" x="322.88" y="-310.57" font-family="Helvetica,sans-Serif" font-size="14.00">A1_SpiningAttackStart &#160;</text>
</g>
<!-- AttackPredictSensor&#45;&gt;AttackPredictSensor_linked -->
<g id="edge6" class="edge">
<title>AttackPredictSensor&#45;&gt;AttackPredictSensor_linked</title>
<path fill="none" stroke="#66cdaa" d="M168.71,-297.99C210.25,-301.33 262.17,-305.49 305.6,-308.98"/>
<polygon fill="#66cdaa" stroke="#66cdaa" points="305.27,-312.46 315.52,-309.77 305.83,-305.48 305.27,-312.46"/>
<text text-anchor="middle" x="221.38" y="-307.17" font-family="Helvetica,sans-Serif" font-size="14.00" fill="#66cdaa">QueueEnd</text>
</g>
<!-- AttackRunToSensor -->
<g id="node12" class="node">
<title>AttackRunToSensor</title>
<polygon fill="none" stroke="black" points="26.62,-362 26.62,-383.75 159.38,-383.75 159.38,-362 26.62,-362"/>
<text text-anchor="start" x="29.62" y="-367.45" font-family="Helvetica,sans-Serif" font-size="14.00">AttackRunToSensor &#160;</text>
<polygon fill="none" stroke="black" points="26.62,-340.25 26.62,-362 159.38,-362 159.38,-340.25 26.62,-340.25"/>
<text text-anchor="start" x="29.62" y="-346.7" font-family="Helvetica,sans-Serif" font-size="12.00" fill="#838b8b">if: state is Engaging</text>
<text text-anchor="start" x="133.88" y="-346.7" font-family="Helvetica,sans-Serif" font-size="14.00"> &#160;</text>
</g>
<!-- AttackRunToSensor_linked -->
<g id="node13" class="node">
<title>AttackRunToSensor_linked</title>
<polygon fill="none" stroke="black" stroke-dasharray="1,5" points="470.98,-388 317.27,-388 317.27,-352 470.98,-352 470.98,-388"/>
<text text-anchor="start" x="322.88" y="-364.57" font-family="Helvetica,sans-Serif" font-size="14.00">A1_SpiningAttackStart &#160;</text>
</g>
<!-- AttackRunToSensor&#45;&gt;AttackRunToSensor_linked -->
<g id="edge7" class="edge">
<title>AttackRunToSensor&#45;&gt;AttackRunToSensor_linked</title>
<path fill="none" stroke="#66cdaa" d="M167.17,-363.96C208.94,-365.07 261.57,-366.48 305.53,-367.66"/>
<polygon fill="#66cdaa" stroke="#66cdaa" points="305.19,-371.15 315.28,-367.92 305.38,-364.15 305.19,-371.15"/>
<text text-anchor="middle" x="221.38" y="-368.69" font-family="Helvetica,sans-Serif" font-size="14.00" fill="#66cdaa">QueueEnd</text>
</g>
<!-- A1_SpiningAttackStart -->
<g id="node14" class="node">
<title>A1_SpiningAttackStart</title>
<polygon fill="none" stroke="black" points="1419.62,-736.12 1419.62,-757.88 1571.12,-757.88 1571.12,-736.12 1419.62,-736.12"/>
<text text-anchor="start" x="1424.12" y="-741.58" font-family="Helvetica,sans-Serif" font-size="14.00">A1_SpiningAttackStart &#160;</text>
<polygon fill="none" stroke="black" points="1419.62,-680.12 1419.62,-736.12 1571.12,-736.12 1571.12,-680.12 1419.62,-680.12"/>
<text text-anchor="start" x="1422.62" y="-722.73" font-family="Helvetica,sans-Serif" font-size="12.00" fill="#838b8b">2.50s: CheckFacing</text>
<text text-anchor="start" x="1422.62" y="-710.73" font-family="Helvetica,sans-Serif" font-size="12.00" fill="#838b8b">4.48s: CheckFacingInverse</text>
<text text-anchor="start" x="1422.62" y="-698.73" font-family="Helvetica,sans-Serif" font-size="12.00" fill="#838b8b">4.50s: LinkNextMove</text>
<text text-anchor="start" x="1422.62" y="-684.83" font-family="Helvetica,sans-Serif" font-size="12.00" fill="#838b8b">4.67s: Done</text>
<text text-anchor="start" x="1487.12" y="-684.83" font-family="Helvetica,sans-Serif" font-size="14.00"> &#160;</text>
</g>
<!-- B2_SpinningAndDangerGrab_Left -->
<g id="node15" class="node">
<title>B2_SpinningAndDangerGrab_Left</title>
<polygon fill="none" stroke="black" points="1715.62,-790.12 1715.62,-811.88 1934.62,-811.88 1934.62,-790.12 1715.62,-790.12"/>
<text text-anchor="start" x="1718.62" y="-795.58" font-family="Helvetica,sans-Serif" font-size="14.00">B2_SpinningAndDangerGrab_Left &#160;</text>
<polygon fill="none" stroke="black" points="1715.62,-734.12 1715.62,-790.12 1934.62,-790.12 1934.62,-734.12 1715.62,-734.12"/>
<text text-anchor="start" x="1718.62" y="-776.73" font-family="Helvetica,sans-Serif" font-size="12.00" fill="#838b8b">0.02s: CheckFacingInverse</text>
<text text-anchor="start" x="1718.62" y="-764.73" font-family="Helvetica,sans-Serif" font-size="12.00" fill="#838b8b">3.35s: LinkMoveInterrupt</text>
<text text-anchor="start" x="1718.62" y="-752.73" font-family="Helvetica,sans-Serif" font-size="12.00" fill="#838b8b">4.83s: Done</text>
<text text-anchor="start" x="1718.62" y="-738.83" font-family="Helvetica,sans-Serif" font-size="12.00" fill="#838b8b">8.75s: Done</text>
<text text-anchor="start" x="1783.12" y="-738.83" font-family="Helvetica,sans-Serif" font-size="14.00"> &#160;</text>
</g>
<!-- A1_SpiningAttackStart&#45;&gt;B2_SpinningAndDangerGrab_Left -->
<g id="edge8" class="edge">
<title>A1_SpiningAttackStart&#45;&gt;B2_SpinningAndDangerGrab_Left</title>
<path fill="none" stroke="#cdc8b1" d="M1579.08,-726.67C1614.63,-731.77 1656.99,-738.53 1696.41,-745.36"/>
<polygon fill="#cdc8b1" stroke="#cdc8b1" points="1695.77,-748.8 1706.22,-747.07 1696.97,-741.9 1695.77,-748.8"/>
</g>
<!-- A1_SpiningAttackStart_linked -->
<g id="node16" class="node">
<title>A1_SpiningAttackStart_linked</title>
<polygon fill="none" stroke="black" stroke-dasharray="1,5" points="1937.22,-712.35 1713.03,-712.35 1713.03,-665.65 1937.22,-665.65 1937.22,-712.35"/>
<text text-anchor="start" x="1718.62" y="-693.45" font-family="Helvetica,sans-Serif" font-size="14.00">B2_SpinningAndDangerGrab_Left &#160;</text>
<text text-anchor="start" x="1743.38" y="-673.7" font-family="Helvetica,sans-Serif" font-size="14.00">B3_SpingJumpJump_Left &#160;</text>
</g>
<!-- A1_SpiningAttackStart&#45;&gt;A1_SpiningAttackStart_linked -->
<g id="edge9" class="edge">
<title>A1_SpiningAttackStart&#45;&gt;A1_SpiningAttackStart_linked</title>
<path fill="none" stroke="#66cdaa" d="M1579.08,-711.43C1616.09,-708.04 1660.48,-703.98 1701.26,-700.25"/>
<polygon fill="#66cdaa" stroke="#66cdaa" points="1701.51,-703.74 1711.15,-699.34 1700.87,-696.77 1701.51,-703.74"/>
<text text-anchor="middle" x="1652.38" y="-710.02" font-family="Helvetica,sans-Serif" font-size="14.00" fill="#66cdaa">QueueEnd</text>
</g>
<!-- A1_SpiningAttackStart_weight -->
<g id="node17" class="node">
<title>A1_SpiningAttackStart_weight</title>
<polygon fill="none" stroke="black" stroke-dasharray="1,5" points="1947.25,-647.62 1703,-647.62 1703,-580.38 1947.25,-580.38 1947.25,-647.62"/>
<text text-anchor="start" x="1713" y="-628.33" font-family="Helvetica,sans-Serif" font-size="14.00">1 B2_SpinningAndDangerGrab_Left &#160;</text>
<text text-anchor="start" x="1737.75" y="-608.58" font-family="Helvetica,sans-Serif" font-size="14.00">1 B3_SpingJumpJump_Left &#160;</text>
<text text-anchor="start" x="1764.75" y="-588.83" font-family="Helvetica,sans-Serif" font-size="14.00">0 B4_RightLeftEnd &#160;</text>
</g>
<!-- A1_SpiningAttackStart&#45;&gt;A1_SpiningAttackStart_weight -->
<g id="edge10" class="edge">
<title>A1_SpiningAttackStart&#45;&gt;A1_SpiningAttackStart_weight</title>
<path fill="none" stroke="#458b74" d="M1579.08,-692.5C1617.81,-680.1 1664.63,-665.1 1706.92,-651.55"/>
<polygon fill="#458b74" stroke="#458b74" points="1707.96,-654.89 1716.41,-648.51 1705.82,-648.22 1707.96,-654.89"/>
<text text-anchor="middle" x="1652.38" y="-681.44" font-family="Helvetica,sans-Serif" font-size="14.00" fill="#458b74">Weight</text>
</g>
<!-- B2_SpinningAndDangerGrab_Left&#45;&gt;A1_SpiningAttackStart -->
<g id="edge12" class="edge">
<title>B2_SpinningAndDangerGrab_Left&#45;&gt;A1_SpiningAttackStart</title>
<path fill="none" stroke="#cdc8b1" d="M1707.71,-760.31C1669.2,-754.4 1626.85,-747.31 1590.25,-740.64"/>
<polygon fill="#cdc8b1" stroke="#cdc8b1" points="1591.04,-737.22 1580.57,-738.85 1589.77,-744.11 1591.04,-737.22"/>
</g>
<!-- E10_GrabbedThanThoot -->
<g id="node18" class="node">
<title>E10_GrabbedThanThoot</title>
<polygon fill="none" stroke="black" points="839.88,-626 839.88,-647.75 1003.38,-647.75 1003.38,-626 839.88,-626"/>
<text text-anchor="start" x="842.88" y="-631.45" font-family="Helvetica,sans-Serif" font-size="14.00">E10_GrabbedThanThoot &#160;</text>
<polygon fill="none" stroke="black" points="839.88,-604.25 839.88,-626 1003.38,-626 1003.38,-604.25 839.88,-604.25"/>
<text text-anchor="start" x="842.88" y="-610.7" font-family="Helvetica,sans-Serif" font-size="12.00" fill="#838b8b">7.08s: Done</text>
<text text-anchor="start" x="907.38" y="-610.7" font-family="Helvetica,sans-Serif" font-size="14.00"> &#160;</text>
</g>
<!-- D7_SummonLongLaser -->
<g id="node19" class="node">
<title>D7_SummonLongLaser</title>
<polygon fill="none" stroke="black" points="1122.25,-630.12 1122.25,-651.88 1279.75,-651.88 1279.75,-630.12 1122.25,-630.12"/>
<text text-anchor="start" x="1125.25" y="-635.58" font-family="Helvetica,sans-Serif" font-size="14.00">D7_SummonLongLaser &#160;</text>
<polygon fill="none" stroke="black" points="1122.25,-598.12 1122.25,-630.12 1279.75,-630.12 1279.75,-598.12 1122.25,-598.12"/>
<text text-anchor="start" x="1125.25" y="-616.73" font-family="Helvetica,sans-Serif" font-size="12.00" fill="#838b8b">1.00s: LinkNextMove</text>
<text text-anchor="start" x="1125.25" y="-602.83" font-family="Helvetica,sans-Serif" font-size="12.00" fill="#838b8b">1.08s: Done</text>
<text text-anchor="start" x="1189.75" y="-602.83" font-family="Helvetica,sans-Serif" font-size="14.00"> &#160;</text>
</g>
<!-- E10_GrabbedThanThoot&#45;&gt;D7_SummonLongLaser -->
<g id="edge11" class="edge">
<title>E10_GrabbedThanThoot&#45;&gt;D7_SummonLongLaser</title>
<path fill="none" stroke="#cdc8b1" d="M1011.15,-625.68C1040.53,-625.57 1073.39,-625.46 1103.35,-625.35"/>
<polygon fill="#cdc8b1" stroke="#cdc8b1" points="1103.18,-628.85 1113.17,-625.31 1103.15,-621.85 1103.18,-628.85"/>
</g>
<!-- D7_SummonLongLaser&#45;&gt;A1_SpiningAttackStart -->
<g id="edge21" class="edge">
<title>D7_SummonLongLaser&#45;&gt;A1_SpiningAttackStart</title>
<path fill="none" stroke="#cdc8b1" d="M1287.75,-652.57C1323.33,-664.01 1364.7,-677.31 1401.04,-688.99"/>
<polygon fill="#cdc8b1" stroke="#cdc8b1" points="1399.62,-692.21 1410.21,-691.94 1401.76,-685.55 1399.62,-692.21"/>
</g>
<!-- D7_SummonLongLaser_linked -->
<g id="node29" class="node">
<title>D7_SummonLongLaser_linked</title>
<polygon fill="none" stroke="black" stroke-dasharray="1,5" points="1592.1,-658.23 1398.65,-658.23 1398.65,-591.77 1592.1,-591.77 1592.1,-658.23"/>
<text text-anchor="start" x="1424.12" y="-639.33" font-family="Helvetica,sans-Serif" font-size="14.00">A1_SpiningAttackStart &#160;</text>
<text text-anchor="start" x="1428.62" y="-619.58" font-family="Helvetica,sans-Serif" font-size="14.00">A5_DoubleGrabStart &#160;</text>
<text text-anchor="start" x="1404.25" y="-599.83" font-family="Helvetica,sans-Serif" font-size="14.00">A9_JumpToAnotherSideStart &#160;</text>
</g>
<!-- D7_SummonLongLaser&#45;&gt;D7_SummonLongLaser_linked -->
<g id="edge22" class="edge">
<title>D7_SummonLongLaser&#45;&gt;D7_SummonLongLaser_linked</title>
<path fill="none" stroke="#66cdaa" d="M1287.75,-625C1318.8,-625 1354.26,-625 1386.94,-625"/>
<polygon fill="#66cdaa" stroke="#66cdaa" points="1386.86,-628.5 1396.86,-625 1386.86,-621.5 1386.86,-628.5"/>
<text text-anchor="middle" x="1338.38" y="-627.45" font-family="Helvetica,sans-Serif" font-size="14.00" fill="#66cdaa">QueueEnd</text>
</g>
<!-- D7_SummonLongLaser_weight -->
<g id="node30" class="node">
<title>D7_SummonLongLaser_weight</title>
<polygon fill="none" stroke="black" stroke-dasharray="1,5" points="1601.75,-573.62 1389,-573.62 1389,-506.38 1601.75,-506.38 1601.75,-573.62"/>
<text text-anchor="start" x="1418.88" y="-554.33" font-family="Helvetica,sans-Serif" font-size="14.00">1 A1_SpiningAttackStart &#160;</text>
<text text-anchor="start" x="1423.38" y="-534.58" font-family="Helvetica,sans-Serif" font-size="14.00">1 A5_DoubleGrabStart &#160;</text>
<text text-anchor="start" x="1399" y="-514.83" font-family="Helvetica,sans-Serif" font-size="14.00">1 A9_JumpToAnotherSideStart &#160;</text>
</g>
<!-- D7_SummonLongLaser&#45;&gt;D7_SummonLongLaser_weight -->
<g id="edge23" class="edge">
<title>D7_SummonLongLaser&#45;&gt;D7_SummonLongLaser_weight</title>
<path fill="none" stroke="#458b74" d="M1287.75,-600.07C1315.88,-591.89 1347.65,-582.66 1377.68,-573.93"/>
<polygon fill="#458b74" stroke="#458b74" points="1378.58,-577.31 1387.2,-571.16 1376.62,-570.59 1378.58,-577.31"/>
<text text-anchor="middle" x="1338.38" y="-595.06" font-family="Helvetica,sans-Serif" font-size="14.00" fill="#458b74">Weight</text>
</g>
<!-- B3_SpingJumpJump_Left -->
<g id="node20" class="node">
<title>B3_SpingJumpJump_Left</title>
<polygon fill="none" stroke="black" points="309.38,-786.12 309.38,-807.88 478.88,-807.88 478.88,-786.12 309.38,-786.12"/>
<text text-anchor="start" x="312.38" y="-791.58" font-family="Helvetica,sans-Serif" font-size="14.00">B3_SpingJumpJump_Left &#160;</text>
<polygon fill="none" stroke="black" points="309.38,-718.12 309.38,-786.12 478.88,-786.12 478.88,-718.12 309.38,-718.12"/>
<text text-anchor="start" x="312.38" y="-772.73" font-family="Helvetica,sans-Serif" font-size="12.00" fill="#838b8b">0.02s: CheckFacingInverse</text>
<text text-anchor="start" x="312.38" y="-760.73" font-family="Helvetica,sans-Serif" font-size="12.00" fill="#838b8b">1.50s: CheckFacing</text>
<text text-anchor="start" x="312.38" y="-748.73" font-family="Helvetica,sans-Serif" font-size="12.00" fill="#838b8b">3.00s: CheckFacingInverse</text>
<text text-anchor="start" x="312.38" y="-736.73" font-family="Helvetica,sans-Serif" font-size="12.00" fill="#838b8b">6.02s: LinkNextMove</text>
<text text-anchor="start" x="312.38" y="-722.83" font-family="Helvetica,sans-Serif" font-size="12.00" fill="#838b8b">7.50s: Done</text>
<text text-anchor="start" x="376.88" y="-722.83" font-family="Helvetica,sans-Serif" font-size="14.00"> &#160;</text>
</g>
<!-- D6_SummonShortLaser -->
<g id="node21" class="node">
<title>D6_SummonShortLaser</title>
<polygon fill="none" stroke="black" points="561.25,-500.12 561.25,-521.88 721,-521.88 721,-500.12 561.25,-500.12"/>
<text text-anchor="start" x="564.25" y="-505.57" font-family="Helvetica,sans-Serif" font-size="14.00">D6_SummonShortLaser &#160;</text>
<polygon fill="none" stroke="black" points="561.25,-456.12 561.25,-500.12 721,-500.12 721,-456.12 561.25,-456.12"/>
<text text-anchor="start" x="564.25" y="-486.73" font-family="Helvetica,sans-Serif" font-size="12.00" fill="#838b8b">4.25s: LinkNextMove</text>
<text text-anchor="start" x="564.25" y="-474.73" font-family="Helvetica,sans-Serif" font-size="12.00" fill="#838b8b">8.50s: Done</text>
<text text-anchor="start" x="564.25" y="-460.83" font-family="Helvetica,sans-Serif" font-size="12.00" fill="#838b8b">13.00s: Done</text>
<text text-anchor="start" x="635.5" y="-460.83" font-family="Helvetica,sans-Serif" font-size="14.00"> &#160;</text>
</g>
<!-- B3_SpingJumpJump_Left&#45;&gt;D6_SummonShortLaser -->
<g id="edge13" class="edge">
<title>B3_SpingJumpJump_Left&#45;&gt;D6_SummonShortLaser</title>
<path fill="none" stroke="#cdc8b1" d="M486.67,-726.74C497.29,-720.4 507.45,-713.17 516.25,-705 567.39,-657.52 603.29,-584.03 622.84,-536.22"/>
<polygon fill="#cdc8b1" stroke="#cdc8b1" points="626.08,-537.52 626.54,-526.94 619.58,-534.93 626.08,-537.52"/>
</g>
<!-- C8_SuperLaser -->
<g id="node26" class="node">
<title>C8_SuperLaser</title>
<polygon fill="none" stroke="black" points="867.62,-556 867.62,-577.75 975.62,-577.75 975.62,-556 867.62,-556"/>
<text text-anchor="start" x="870.62" y="-561.45" font-family="Helvetica,sans-Serif" font-size="14.00">C8_SuperLaser &#160;</text>
<polygon fill="none" stroke="black" points="867.62,-534.25 867.62,-556 975.62,-556 975.62,-534.25 867.62,-534.25"/>
<text text-anchor="start" x="870.62" y="-540.7" font-family="Helvetica,sans-Serif" font-size="12.00" fill="#838b8b">19.50s: Done</text>
<text text-anchor="start" x="941.88" y="-540.7" font-family="Helvetica,sans-Serif" font-size="14.00"> &#160;</text>
</g>
<!-- D6_SummonShortLaser&#45;&gt;C8_SuperLaser -->
<g id="edge18" class="edge">
<title>D6_SummonShortLaser&#45;&gt;C8_SuperLaser</title>
<path fill="none" stroke="#cdc8b1" d="M728.72,-509.83C767.21,-519.09 812,-529.87 848.62,-538.68"/>
<polygon fill="#cdc8b1" stroke="#cdc8b1" points="847.69,-542.05 858.23,-540.99 849.33,-535.25 847.69,-542.05"/>
</g>
<!-- D6_SummonShortLaser_linked -->
<g id="node27" class="node">
<title>D6_SummonShortLaser_linked</title>
<polygon fill="none" stroke="black" stroke-dasharray="1,5" points="1002.98,-512.35 840.27,-512.35 840.27,-465.65 1002.98,-465.65 1002.98,-512.35"/>
<text text-anchor="start" x="845.88" y="-493.45" font-family="Helvetica,sans-Serif" font-size="14.00">D7_SummonLongLaser &#160;</text>
<text text-anchor="start" x="870.62" y="-473.7" font-family="Helvetica,sans-Serif" font-size="14.00">C8_SuperLaser &#160;</text>
</g>
<!-- D6_SummonShortLaser&#45;&gt;D6_SummonShortLaser_linked -->
<g id="edge19" class="edge">
<title>D6_SummonShortLaser&#45;&gt;D6_SummonShortLaser_linked</title>
<path fill="none" stroke="#66cdaa" d="M728.72,-489C760.43,-489 796.41,-489 828.58,-489"/>
<polygon fill="#66cdaa" stroke="#66cdaa" points="828.27,-492.5 838.27,-489 828.27,-485.5 828.27,-492.5"/>
<text text-anchor="middle" x="779.62" y="-491.45" font-family="Helvetica,sans-Serif" font-size="14.00" fill="#66cdaa">QueueEnd</text>
</g>
<!-- D6_SummonShortLaser_weight -->
<g id="node28" class="node">
<title>D6_SummonShortLaser_weight</title>
<polygon fill="none" stroke="black" stroke-dasharray="1,5" points="1013,-447.75 830.25,-447.75 830.25,-400.25 1013,-400.25 1013,-447.75"/>
<text text-anchor="start" x="840.25" y="-428.45" font-family="Helvetica,sans-Serif" font-size="14.00">1 D7_SummonLongLaser &#160;</text>
<text text-anchor="start" x="865" y="-408.7" font-family="Helvetica,sans-Serif" font-size="14.00">1 C8_SuperLaser &#160;</text>
</g>
<!-- D6_SummonShortLaser&#45;&gt;D6_SummonShortLaser_weight -->
<g id="edge20" class="edge">
<title>D6_SummonShortLaser&#45;&gt;D6_SummonShortLaser_weight</title>
<path fill="none" stroke="#458b74" d="M728.72,-468.79C757.44,-462.09 789.68,-454.56 819.41,-447.62"/>
<polygon fill="#458b74" stroke="#458b74" points="819.82,-451.12 828.76,-445.44 818.23,-444.31 819.82,-451.12"/>
<text text-anchor="middle" x="779.62" y="-466.68" font-family="Helvetica,sans-Serif" font-size="14.00" fill="#458b74">Weight</text>
</g>
<!-- B4_RightLeftEnd -->
<g id="node22" class="node">
<title>B4_RightLeftEnd</title>
<polygon fill="none" stroke="black" points="318.38,-500.12 318.38,-521.88 469.88,-521.88 469.88,-500.12 318.38,-500.12"/>
<text text-anchor="start" x="339.38" y="-505.57" font-family="Helvetica,sans-Serif" font-size="14.00">B4_RightLeftEnd &#160;</text>
<polygon fill="none" stroke="black" points="318.38,-432.12 318.38,-500.12 469.88,-500.12 469.88,-432.12 318.38,-432.12"/>
<text text-anchor="start" x="321.38" y="-486.73" font-family="Helvetica,sans-Serif" font-size="12.00" fill="#838b8b">0.02s: CheckFacingInverse</text>
<text text-anchor="start" x="321.38" y="-474.73" font-family="Helvetica,sans-Serif" font-size="12.00" fill="#838b8b">0.08s: CheckFacingInverse</text>
<text text-anchor="start" x="321.38" y="-462.73" font-family="Helvetica,sans-Serif" font-size="12.00" fill="#838b8b">2.00s: CheckFacing</text>
<text text-anchor="start" x="321.38" y="-450.73" font-family="Helvetica,sans-Serif" font-size="12.00" fill="#838b8b">6.02s: LinkNextMove</text>
<text text-anchor="start" x="321.38" y="-436.83" font-family="Helvetica,sans-Serif" font-size="12.00" fill="#838b8b">6.50s: Done</text>
<text text-anchor="start" x="385.88" y="-436.83" font-family="Helvetica,sans-Serif" font-size="14.00"> &#160;</text>
</g>
<!-- B4_RightLeftEnd&#45;&gt;D6_SummonShortLaser -->
<g id="edge14" class="edge">
<title>B4_RightLeftEnd&#45;&gt;D6_SummonShortLaser</title>
<path fill="none" stroke="#cdc8b1" d="M477.73,-481.05C498.34,-482.06 520.63,-483.15 541.91,-484.19"/>
<polygon fill="#cdc8b1" stroke="#cdc8b1" points="541.6,-487.68 551.76,-484.67 541.94,-480.69 541.6,-487.68"/>
</g>
<!-- A5_DoubleGrabStart -->
<g id="node23" class="node">
<title>A5_DoubleGrabStart</title>
<polygon fill="none" stroke="black" points="23.25,-686.12 23.25,-707.88 162.75,-707.88 162.75,-686.12 23.25,-686.12"/>
<text text-anchor="start" x="26.25" y="-691.58" font-family="Helvetica,sans-Serif" font-size="14.00">A5_DoubleGrabStart &#160;</text>
<polygon fill="none" stroke="black" points="23.25,-618.12 23.25,-686.12 162.75,-686.12 162.75,-618.12 23.25,-618.12"/>
<text text-anchor="start" x="26.25" y="-672.73" font-family="Helvetica,sans-Serif" font-size="12.00" fill="#838b8b">1.83s: LinkMoveInterrupt</text>
<text text-anchor="start" x="26.25" y="-660.73" font-family="Helvetica,sans-Serif" font-size="12.00" fill="#838b8b">3.95s: LinkMoveInterrupt</text>
<text text-anchor="start" x="26.25" y="-648.73" font-family="Helvetica,sans-Serif" font-size="12.00" fill="#838b8b">4.17s: CheckFacing</text>
<text text-anchor="start" x="26.25" y="-636.73" font-family="Helvetica,sans-Serif" font-size="12.00" fill="#838b8b">8.40s: LinkNextMove</text>
<text text-anchor="start" x="26.25" y="-622.83" font-family="Helvetica,sans-Serif" font-size="12.00" fill="#838b8b">8.73s: Done</text>
<text text-anchor="start" x="90.75" y="-622.83" font-family="Helvetica,sans-Serif" font-size="14.00"> &#160;</text>
</g>
<!-- A5_DoubleGrabStart&#45;&gt;B3_SpingJumpJump_Left -->
<g id="edge15" class="edge">
<title>A5_DoubleGrabStart&#45;&gt;B3_SpingJumpJump_Left</title>
<path fill="none" stroke="#cdc8b1" d="M170.64,-688.62C207.19,-700.84 251.43,-715.63 290.8,-728.79"/>
<polygon fill="#cdc8b1" stroke="#cdc8b1" points="289.47,-732.04 300.07,-731.89 291.69,-725.4 289.47,-732.04"/>
</g>
<!-- A5_DoubleGrabStart_linked -->
<g id="node24" class="node">
<title>A5_DoubleGrabStart_linked</title>
<polygon fill="none" stroke="black" stroke-dasharray="1,5" points="506.23,-696.23 282.02,-696.23 282.02,-629.77 506.23,-629.77 506.23,-696.23"/>
<text text-anchor="start" x="339.38" y="-677.33" font-family="Helvetica,sans-Serif" font-size="14.00">B4_RightLeftEnd &#160;</text>
<text text-anchor="start" x="312.38" y="-657.58" font-family="Helvetica,sans-Serif" font-size="14.00">B3_SpingJumpJump_Left &#160;</text>
<text text-anchor="start" x="287.62" y="-637.83" font-family="Helvetica,sans-Serif" font-size="14.00">B2_SpinningAndDangerGrab_Left &#160;</text>
</g>
<!-- A5_DoubleGrabStart&#45;&gt;A5_DoubleGrabStart_linked -->
<g id="edge16" class="edge">
<title>A5_DoubleGrabStart&#45;&gt;A5_DoubleGrabStart_linked</title>
<path fill="none" stroke="#66cdaa" d="M170.64,-663C200.97,-663 236.59,-663 270.33,-663"/>
<polygon fill="#66cdaa" stroke="#66cdaa" points="270.18,-666.5 280.18,-663 270.18,-659.5 270.18,-666.5"/>
<text text-anchor="middle" x="221.38" y="-665.45" font-family="Helvetica,sans-Serif" font-size="14.00" fill="#66cdaa">QueueEnd</text>
</g>
<!-- A5_DoubleGrabStart_weight -->
<g id="node25" class="node">
<title>A5_DoubleGrabStart_weight</title>
<polygon fill="none" stroke="black" stroke-dasharray="1,5" points="516.25,-611.62 272,-611.62 272,-544.38 516.25,-544.38 516.25,-611.62"/>
<text text-anchor="start" x="282" y="-592.33" font-family="Helvetica,sans-Serif" font-size="14.00">0 B2_SpinningAndDangerGrab_Left &#160;</text>
<text text-anchor="start" x="306.75" y="-572.58" font-family="Helvetica,sans-Serif" font-size="14.00">1 B3_SpingJumpJump_Left &#160;</text>
<text text-anchor="start" x="333.75" y="-552.83" font-family="Helvetica,sans-Serif" font-size="14.00">1 B4_RightLeftEnd &#160;</text>
</g>
<!-- A5_DoubleGrabStart&#45;&gt;A5_DoubleGrabStart_weight -->
<g id="edge17" class="edge">
<title>A5_DoubleGrabStart&#45;&gt;A5_DoubleGrabStart_weight</title>
<path fill="none" stroke="#458b74" d="M170.64,-641.22C198.52,-633.3 230.86,-624.11 262.11,-615.23"/>
<polygon fill="#458b74" stroke="#458b74" points="262.99,-618.62 271.65,-612.52 261.07,-611.89 262.99,-618.62"/>
<text text-anchor="middle" x="221.38" y="-637.96" font-family="Helvetica,sans-Serif" font-size="14.00" fill="#458b74">Weight</text>
</g>
<!-- C8_SuperLaser&#45;&gt;D7_SummonLongLaser -->
<g id="edge24" class="edge">
<title>C8_SuperLaser&#45;&gt;D7_SummonLongLaser</title>
<path fill="none" stroke="#cdc8b1" d="M983.5,-571.14C1018.55,-579.86 1063.42,-591.02 1103.21,-600.92"/>
<polygon fill="#cdc8b1" stroke="#cdc8b1" points="1102.26,-604.29 1112.81,-603.31 1103.95,-597.5 1102.26,-604.29"/>
</g>
<!-- C8_SuperLaser_linked -->
<g id="node31" class="node">
<title>C8_SuperLaser_linked</title>
<polygon fill="none" stroke="black" stroke-dasharray="1,5" points="1261.35,-574 1140.65,-574 1140.65,-538 1261.35,-538 1261.35,-574"/>
<text text-anchor="start" x="1146.25" y="-550.58" font-family="Helvetica,sans-Serif" font-size="14.00">B4_RightLeftEnd &#160;</text>
</g>
<!-- C8_SuperLaser&#45;&gt;C8_SuperLaser_linked -->
<g id="edge25" class="edge">
<title>C8_SuperLaser&#45;&gt;C8_SuperLaser_linked</title>
<path fill="none" stroke="#66cdaa" d="M983.5,-556C1026.33,-556 1083.81,-556 1128.78,-556"/>
<polygon fill="#66cdaa" stroke="#66cdaa" points="1128.71,-559.5 1138.71,-556 1128.71,-552.5 1128.71,-559.5"/>
<text text-anchor="middle" x="1063.62" y="-558.45" font-family="Helvetica,sans-Serif" font-size="14.00" fill="#66cdaa">QueueEnd</text>
</g>
<!-- A9_JumpToAnotherSideStart -->
<g id="node32" class="node">
<title>A9_JumpToAnotherSideStart</title>
<polygon fill="none" stroke="black" points="1401.25,-885.12 1401.25,-906.88 1589.5,-906.88 1589.5,-885.12 1401.25,-885.12"/>
<text text-anchor="start" x="1404.25" y="-890.58" font-family="Helvetica,sans-Serif" font-size="14.00">A9_JumpToAnotherSideStart &#160;</text>
<polygon fill="none" stroke="black" points="1401.25,-829.12 1401.25,-885.12 1589.5,-885.12 1589.5,-829.12 1401.25,-829.12"/>
<text text-anchor="start" x="1404.25" y="-871.73" font-family="Helvetica,sans-Serif" font-size="12.00" fill="#838b8b">2.00s: CheckFacing</text>
<text text-anchor="start" x="1404.25" y="-859.73" font-family="Helvetica,sans-Serif" font-size="12.00" fill="#838b8b">3.88s: CheckFacingInverse</text>
<text text-anchor="start" x="1404.25" y="-847.73" font-family="Helvetica,sans-Serif" font-size="12.00" fill="#838b8b">3.90s: LinkNextMove</text>
<text text-anchor="start" x="1404.25" y="-833.83" font-family="Helvetica,sans-Serif" font-size="12.00" fill="#838b8b">4.07s: Done</text>
<text text-anchor="start" x="1468.75" y="-833.83" font-family="Helvetica,sans-Serif" font-size="14.00"> &#160;</text>
</g>
<!-- A9_JumpToAnotherSideStart&#45;&gt;B2_SpinningAndDangerGrab_Left -->
<g id="edge26" class="edge">
<title>A9_JumpToAnotherSideStart&#45;&gt;B2_SpinningAndDangerGrab_Left</title>
<path fill="none" stroke="#cdc8b1" d="M1597.39,-838.72C1628.87,-829.6 1664,-819.41 1697.03,-809.84"/>
<polygon fill="#cdc8b1" stroke="#cdc8b1" points="1697.59,-813.32 1706.22,-807.18 1695.64,-806.6 1697.59,-813.32"/>
</g>
<!-- A9_JumpToAnotherSideStart_linked -->
<g id="node33" class="node">
<title>A9_JumpToAnotherSideStart_linked</title>
<polygon fill="none" stroke="black" stroke-dasharray="1,5" points="1937.22,-986.23 1713.03,-986.23 1713.03,-919.77 1937.22,-919.77 1937.22,-986.23"/>
<text text-anchor="start" x="1718.62" y="-967.33" font-family="Helvetica,sans-Serif" font-size="14.00">B2_SpinningAndDangerGrab_Left &#160;</text>
<text text-anchor="start" x="1743.38" y="-947.58" font-family="Helvetica,sans-Serif" font-size="14.00">B3_SpingJumpJump_Left &#160;</text>
<text text-anchor="start" x="1770.38" y="-927.83" font-family="Helvetica,sans-Serif" font-size="14.00">B4_RightLeftEnd &#160;</text>
</g>
<!-- A9_JumpToAnotherSideStart&#45;&gt;A9_JumpToAnotherSideStart_linked -->
<g id="edge27" class="edge">
<title>A9_JumpToAnotherSideStart&#45;&gt;A9_JumpToAnotherSideStart_linked</title>
<path fill="none" stroke="#66cdaa" d="M1597.39,-894.2C1630.31,-902.74 1667.23,-912.31 1701.56,-921.21"/>
<polygon fill="#66cdaa" stroke="#66cdaa" points="1700.58,-924.57 1711.14,-923.7 1702.34,-917.8 1700.58,-924.57"/>
<text text-anchor="middle" x="1652.38" y="-918.04" font-family="Helvetica,sans-Serif" font-size="14.00" fill="#66cdaa">QueueEnd</text>
</g>
<!-- A9_JumpToAnotherSideStart_weight -->
<g id="node34" class="node">
<title>A9_JumpToAnotherSideStart_weight</title>
<polygon fill="none" stroke="black" stroke-dasharray="1,5" points="1947.25,-901.62 1703,-901.62 1703,-834.38 1947.25,-834.38 1947.25,-901.62"/>
<text text-anchor="start" x="1713" y="-882.33" font-family="Helvetica,sans-Serif" font-size="14.00">1 B2_SpinningAndDangerGrab_Left &#160;</text>
<text text-anchor="start" x="1737.75" y="-862.58" font-family="Helvetica,sans-Serif" font-size="14.00">1 B3_SpingJumpJump_Left &#160;</text>
<text text-anchor="start" x="1764.75" y="-842.83" font-family="Helvetica,sans-Serif" font-size="14.00">1 B4_RightLeftEnd &#160;</text>
</g>
<!-- A9_JumpToAnotherSideStart&#45;&gt;A9_JumpToAnotherSideStart_weight -->
<g id="edge28" class="edge">
<title>A9_JumpToAnotherSideStart&#45;&gt;A9_JumpToAnotherSideStart_weight</title>
<path fill="none" stroke="#458b74" d="M1597.39,-868C1627.04,-868 1659.92,-868 1691.24,-868"/>
<polygon fill="#458b74" stroke="#458b74" points="1691.19,-871.5 1701.19,-868 1691.19,-864.5 1691.19,-871.5"/>
<text text-anchor="middle" x="1652.38" y="-870.45" font-family="Helvetica,sans-Serif" font-size="14.00" fill="#458b74">Weight</text>
</g>
<!-- LastHit -->
<g id="node35" class="node">
<title>LastHit</title>
<polygon fill="none" stroke="black" points="54,-848 54,-869.75 132,-869.75 132,-848 54,-848"/>
<text text-anchor="start" x="68.25" y="-853.45" font-family="Helvetica,sans-Serif" font-size="14.00">LastHit &#160;</text>
<polygon fill="none" stroke="black" points="54,-826.25 54,-848 132,-848 132,-826.25 54,-826.25"/>
<text text-anchor="start" x="57" y="-832.7" font-family="Helvetica,sans-Serif" font-size="12.00" fill="#838b8b">3.85s: Done</text>
<text text-anchor="start" x="121.5" y="-832.7" font-family="Helvetica,sans-Serif" font-size="14.00"> &#160;</text>
</g>
<!-- Die_WaitForHack -->
<g id="node36" class="node">
<title>Die_WaitForHack</title>
<polygon fill="none" stroke="black" points="334.5,-837.12 334.5,-858.88 453.75,-858.88 453.75,-837.12 334.5,-837.12"/>
<text text-anchor="start" x="337.5" y="-842.58" font-family="Helvetica,sans-Serif" font-size="14.00">Die_WaitForHack &#160;</text>
</g>
<!-- LastHit&#45;&gt;Die_WaitForHack -->
<g id="edge29" class="edge">
<title>LastHit&#45;&gt;Die_WaitForHack</title>
<path fill="none" stroke="#cdc8b1" d="M139.76,-848C186.38,-848 259.56,-848 315.31,-848"/>
<polygon fill="#cdc8b1" stroke="#cdc8b1" points="315.05,-851.5 325.05,-848 315.05,-844.5 315.05,-851.5"/>
</g>
<!-- PostureBreak -->
<g id="node37" class="node">
<title>PostureBreak</title>
<polygon fill="none" stroke="black" points="34.12,-928.12 34.12,-949.88 151.88,-949.88 151.88,-928.12 34.12,-928.12"/>
<text text-anchor="start" x="48.38" y="-933.58" font-family="Helvetica,sans-Serif" font-size="14.00">PostureBreak &#160;</text>
<polygon fill="none" stroke="black" points="34.12,-896.12 34.12,-928.12 151.88,-928.12 151.88,-896.12 34.12,-896.12"/>
<text text-anchor="start" x="37.12" y="-914.73" font-family="Helvetica,sans-Serif" font-size="12.00" fill="#838b8b">2.50s: LinkNextMove</text>
<text text-anchor="start" x="37.12" y="-900.83" font-family="Helvetica,sans-Serif" font-size="12.00" fill="#838b8b">5.12s: Done</text>
<text text-anchor="start" x="101.62" y="-900.83" font-family="Helvetica,sans-Serif" font-size="14.00"> &#160;</text>
</g>
<!-- Wandering_Idle -->
<g id="node38" class="node">
<title>Wandering_Idle</title>
<polygon fill="none" stroke="black" points="163.62,-1008 22.38,-1008 22.38,-972 163.62,-972 163.62,-1008"/>
<text text-anchor="middle" x="93" y="-984.58" font-family="Helvetica,sans-Serif" font-size="14.00">Wandering_Idle (Init)</text>
</g>
</g>
</svg>
