<?xml version="1.0" encoding="UTF-8" standalone="no"?>
<!DOCTYPE svg PUBLIC "-//W3C//DTD SVG 1.1//EN"
 "http://www.w3.org/Graphics/SVG/1.1/DTD/svg11.dtd">
<!-- Generated by graphviz version 12.2.1 (20241206.2353)
 -->
<!-- Title: Foo Pages: 1 -->
<svg width="429pt" height="1157pt"
 viewBox="0.00 0.00 428.70 1156.75" xmlns="http://www.w3.org/2000/svg" xmlns:xlink="http://www.w3.org/1999/xlink">
<g id="graph0" class="graph" transform="scale(1 1) rotate(0) translate(4 1152.75)">
<title>Foo</title>
<polygon fill="white" stroke="none" points="-4,4 -4,-1152.75 424.7,-1152.75 424.7,4 -4,4"/>
<g id="clust1" class="cluster">
<title>cluster_attacksensors</title>
<polygon fill="none" stroke="black" points="8,-568.75 8,-1140.75 412.7,-1140.75 412.7,-568.75 8,-568.75"/>
<text text-anchor="middle" x="210.35" y="-1123.45" font-family="Helvetica,sans-Serif" font-size="14.00">Attack Sensors</text>
</g>
<!-- DelayDoubleAttack -->
<g id="node1" class="node">
<title>DelayDoubleAttack</title>
<polygon fill="none" stroke="black" points="28.88,-182.75 28.88,-204.5 157.12,-204.5 157.12,-182.75 28.88,-182.75"/>
<text text-anchor="start" x="31.88" y="-188.2" font-family="Helvetica,sans-Serif" font-size="14.00">DelayDoubleAttack &#160;</text>
<polygon fill="none" stroke="black" points="28.88,-161 28.88,-182.75 157.12,-182.75 157.12,-161 28.88,-161"/>
<text text-anchor="start" x="31.88" y="-167.45" font-family="Helvetica,sans-Serif" font-size="12.00" fill="#838b8b">2.00s: Done</text>
<text text-anchor="start" x="96.38" y="-167.45" font-family="Helvetica,sans-Serif" font-size="14.00"> &#160;</text>
</g>
<!-- DeadState -->
<g id="node2" class="node">
<title>DeadState</title>
<polygon fill="none" stroke="black" points="377.85,-114.75 298.1,-114.75 298.1,-78.75 377.85,-78.75 377.85,-114.75"/>
<text text-anchor="middle" x="337.98" y="-91.33" font-family="Helvetica,sans-Serif" font-size="14.00">DeadState</text>
</g>
<!-- DelayDoubleAttack&#45;&gt;DeadState -->
<g id="edge1" class="edge">
<title>DelayDoubleAttack&#45;&gt;DeadState</title>
<path fill="none" stroke="#cdc8b1" d="M164.93,-157.64C204.16,-143.76 251.94,-126.85 287.18,-114.37"/>
<polygon fill="#cdc8b1" stroke="#cdc8b1" points="288.01,-117.79 296.27,-111.16 285.68,-111.19 288.01,-117.79"/>
</g>
<!-- DelayDoubleAttack_linked -->
<g id="node3" class="node">
<title>DelayDoubleAttack_linked</title>
<polygon fill="none" stroke="black" stroke-dasharray="1,5" points="387.45,-238.73 288.5,-238.73 288.5,-132.77 387.45,-132.77 387.45,-238.73"/>
<text text-anchor="start" x="305.73" y="-219.82" font-family="Helvetica,sans-Serif" font-size="14.00">Engaging &#160;</text>
<text text-anchor="start" x="305.73" y="-200.07" font-family="Helvetica,sans-Serif" font-size="14.00">Engaging &#160;</text>
<text text-anchor="start" x="305.73" y="-180.32" font-family="Helvetica,sans-Serif" font-size="14.00">Engaging &#160;</text>
<text text-anchor="start" x="294.1" y="-160.57" font-family="Helvetica,sans-Serif" font-size="14.00">DoubleAttack &#160;</text>
<text text-anchor="start" x="297.48" y="-140.82" font-family="Helvetica,sans-Serif" font-size="14.00">RollThrough &#160;</text>
</g>
<!-- DelayDoubleAttack&#45;&gt;DelayDoubleAttack_linked -->
<g id="edge2" class="edge">
<title>DelayDoubleAttack&#45;&gt;DelayDoubleAttack_linked</title>
<path fill="none" stroke="#66cdaa" d="M164.93,-183.63C200.55,-184.07 243.22,-184.59 277.15,-185.01"/>
<polygon fill="#66cdaa" stroke="#66cdaa" points="276.75,-188.51 286.79,-185.13 276.83,-181.51 276.75,-188.51"/>
<text text-anchor="middle" x="220.62" y="-187.14" font-family="Helvetica,sans-Serif" font-size="14.00" fill="#66cdaa">QueueEnd</text>
</g>
<!-- DoubleAttack -->
<g id="node4" class="node">
<title>DoubleAttack</title>
<polygon fill="none" stroke="black" points="30.38,-105.88 30.38,-127.62 155.62,-127.62 155.62,-105.88 30.38,-105.88"/>
<text text-anchor="start" x="49.12" y="-111.33" font-family="Helvetica,sans-Serif" font-size="14.00">DoubleAttack &#160;</text>
<polygon fill="none" stroke="black" points="30.38,-73.88 30.38,-105.88 155.62,-105.88 155.62,-73.88 30.38,-73.88"/>
<text text-anchor="start" x="33.38" y="-92.47" font-family="Helvetica,sans-Serif" font-size="12.00" fill="#838b8b">1.00s: Done</text>
<text text-anchor="start" x="33.38" y="-78.57" font-family="Helvetica,sans-Serif" font-size="12.00" fill="#838b8b">1.50s: LinkNextMove</text>
<text text-anchor="start" x="145.12" y="-78.57" font-family="Helvetica,sans-Serif" font-size="14.00"> &#160;</text>
</g>
<!-- DoubleAttack&#45;&gt;DeadState -->
<g id="edge3" class="edge">
<title>DoubleAttack&#45;&gt;DeadState</title>
<path fill="none" stroke="#cdc8b1" d="M163.3,-99.61C202.66,-98.96 251.05,-98.16 286.75,-97.58"/>
<polygon fill="#cdc8b1" stroke="#cdc8b1" points="286.41,-101.08 296.35,-97.42 286.29,-94.08 286.41,-101.08"/>
</g>
<!-- Hide -->
<g id="node5" class="node">
<title>Hide</title>
<polygon fill="none" stroke="black" points="54,-25.75 54,-47.5 132,-47.5 132,-25.75 54,-25.75"/>
<text text-anchor="start" x="75.38" y="-31.2" font-family="Helvetica,sans-Serif" font-size="14.00">Hide &#160;</text>
<polygon fill="none" stroke="black" points="54,-4 54,-25.75 132,-25.75 132,-4 54,-4"/>
<text text-anchor="start" x="57" y="-10.45" font-family="Helvetica,sans-Serif" font-size="12.00" fill="#838b8b">1.50s: Done</text>
<text text-anchor="start" x="121.5" y="-10.45" font-family="Helvetica,sans-Serif" font-size="14.00"> &#160;</text>
</g>
<!-- Hide&#45;&gt;DeadState -->
<g id="edge4" class="edge">
<title>Hide&#45;&gt;DeadState</title>
<path fill="none" stroke="#cdc8b1" d="M139.99,-39.19C182.01,-51.47 243.99,-69.58 287.17,-82.2"/>
<polygon fill="#cdc8b1" stroke="#cdc8b1" points="285.96,-85.49 296.54,-84.93 287.92,-78.77 285.96,-85.49"/>
</g>
<!-- HurtState -->
<g id="node6" class="node">
<title>HurtState</title>
<polygon fill="none" stroke="black" points="54,-392.75 54,-414.5 132,-414.5 132,-392.75 54,-392.75"/>
<text text-anchor="start" x="60.75" y="-398.2" font-family="Helvetica,sans-Serif" font-size="14.00">HurtState &#160;</text>
<polygon fill="none" stroke="black" points="54,-371 54,-392.75 132,-392.75 132,-371 54,-371"/>
<text text-anchor="start" x="57" y="-377.45" font-family="Helvetica,sans-Serif" font-size="12.00" fill="#838b8b">0.17s: Done</text>
<text text-anchor="start" x="121.5" y="-377.45" font-family="Helvetica,sans-Serif" font-size="14.00"> &#160;</text>
</g>
<!-- PreAttack -->
<g id="node7" class="node">
<title>PreAttack</title>
<polygon fill="none" stroke="black" points="375.23,-340.75 300.73,-340.75 300.73,-304.75 375.23,-304.75 375.23,-340.75"/>
<text text-anchor="middle" x="337.98" y="-317.32" font-family="Helvetica,sans-Serif" font-size="14.00">PreAttack</text>
</g>
<!-- HurtState&#45;&gt;PreAttack -->
<g id="edge5" class="edge">
<title>HurtState&#45;&gt;PreAttack</title>
<path fill="none" stroke="#cdc8b1" d="M139.99,-379.5C182.77,-367.18 246.24,-348.89 289.49,-336.43"/>
<polygon fill="#cdc8b1" stroke="#cdc8b1" points="290.2,-339.87 298.84,-333.74 288.27,-333.14 290.2,-339.87"/>
</g>
<!-- Hurt_BigState -->
<g id="node8" class="node">
<title>Hurt_BigState</title>
<polygon fill="none" stroke="black" points="44.25,-322.75 44.25,-344.5 141.75,-344.5 141.75,-322.75 44.25,-322.75"/>
<text text-anchor="start" x="47.25" y="-328.2" font-family="Helvetica,sans-Serif" font-size="14.00">Hurt_BigState &#160;</text>
<polygon fill="none" stroke="black" points="44.25,-301 44.25,-322.75 141.75,-322.75 141.75,-301 44.25,-301"/>
<text text-anchor="start" x="47.25" y="-307.45" font-family="Helvetica,sans-Serif" font-size="12.00" fill="#838b8b">1.00s: Done</text>
<text text-anchor="start" x="111.75" y="-307.45" font-family="Helvetica,sans-Serif" font-size="14.00"> &#160;</text>
</g>
<!-- Hurt_BigState&#45;&gt;PreAttack -->
<g id="edge6" class="edge">
<title>Hurt_BigState&#45;&gt;PreAttack</title>
<path fill="none" stroke="#cdc8b1" d="M149.74,-322.75C191.82,-322.75 248.97,-322.75 289.02,-322.75"/>
<polygon fill="#cdc8b1" stroke="#cdc8b1" points="288.83,-326.25 298.83,-322.75 288.83,-319.25 288.83,-326.25"/>
</g>
<!-- PostureBreak -->
<g id="node9" class="node">
<title>PostureBreak</title>
<polygon fill="none" stroke="black" points="45.38,-252.75 45.38,-274.5 140.62,-274.5 140.62,-252.75 45.38,-252.75"/>
<text text-anchor="start" x="48.38" y="-258.2" font-family="Helvetica,sans-Serif" font-size="14.00">PostureBreak &#160;</text>
<polygon fill="none" stroke="black" points="45.38,-231 45.38,-252.75 140.62,-252.75 140.62,-231 45.38,-231"/>
<text text-anchor="start" x="48.38" y="-237.45" font-family="Helvetica,sans-Serif" font-size="12.00" fill="#838b8b">1.50s: Done</text>
<text text-anchor="start" x="112.88" y="-237.45" font-family="Helvetica,sans-Serif" font-size="14.00"> &#160;</text>
</g>
<!-- PostureBreak&#45;&gt;PreAttack -->
<g id="edge7" class="edge">
<title>PostureBreak&#45;&gt;PreAttack</title>
<path fill="none" stroke="#cdc8b1" d="M148.53,-268.46C190.86,-280.66 248.97,-297.4 289.42,-309.05"/>
<polygon fill="#cdc8b1" stroke="#cdc8b1" points="288.3,-312.37 298.88,-311.78 290.24,-305.64 288.3,-312.37"/>
</g>
<!-- RollThrough -->
<g id="node10" class="node">
<title>RollThrough</title>
<polygon fill="none" stroke="black" points="34.12,-478.88 34.12,-500.62 151.88,-500.62 151.88,-478.88 34.12,-478.88"/>
<text text-anchor="start" x="52.5" y="-484.32" font-family="Helvetica,sans-Serif" font-size="14.00">RollThrough &#160;</text>
<polygon fill="none" stroke="black" points="34.12,-446.88 34.12,-478.88 151.88,-478.88 151.88,-446.88 34.12,-446.88"/>
<text text-anchor="start" x="37.12" y="-465.48" font-family="Helvetica,sans-Serif" font-size="12.00" fill="#838b8b">0.50s: LinkNextMove</text>
<text text-anchor="start" x="37.12" y="-451.58" font-family="Helvetica,sans-Serif" font-size="12.00" fill="#838b8b">0.58s: Done</text>
<text text-anchor="start" x="101.62" y="-451.58" font-family="Helvetica,sans-Serif" font-size="14.00"> &#160;</text>
</g>
<!-- Engaging -->
<g id="node11" class="node">
<title>Engaging</title>
<polygon fill="none" stroke="black" points="374.48,-497.75 301.48,-497.75 301.48,-461.75 374.48,-461.75 374.48,-497.75"/>
<text text-anchor="middle" x="337.98" y="-474.32" font-family="Helvetica,sans-Serif" font-size="14.00">Engaging</text>
</g>
<!-- RollThrough&#45;&gt;Engaging -->
<g id="edge8" class="edge">
<title>RollThrough&#45;&gt;Engaging</title>
<path fill="none" stroke="#cdc8b1" d="M159.75,-475.37C200.84,-476.39 252.79,-477.67 289.8,-478.59"/>
<polygon fill="#cdc8b1" stroke="#cdc8b1" points="289.66,-482.08 299.74,-478.83 289.83,-475.08 289.66,-482.08"/>
</g>
<!-- RollThrough_linked -->
<g id="node12" class="node">
<title>RollThrough_linked</title>
<polygon fill="none" stroke="black" stroke-dasharray="1,5" points="375.83,-443.75 300.12,-443.75 300.12,-407.75 375.83,-407.75 375.83,-443.75"/>
<text text-anchor="start" x="305.73" y="-420.32" font-family="Helvetica,sans-Serif" font-size="14.00">Engaging &#160;</text>
</g>
<!-- RollThrough&#45;&gt;RollThrough_linked -->
<g id="edge9" class="edge">
<title>RollThrough&#45;&gt;RollThrough_linked</title>
<path fill="none" stroke="#66cdaa" d="M159.75,-460.76C200.51,-452.71 251.95,-442.55 288.9,-435.25"/>
<polygon fill="#66cdaa" stroke="#66cdaa" points="289.26,-438.74 298.39,-433.37 287.9,-431.88 289.26,-438.74"/>
<text text-anchor="middle" x="220.62" y="-456.5" font-family="Helvetica,sans-Serif" font-size="14.00" fill="#66cdaa">QueueEnd</text>
</g>
<!-- Wandering_Idle -->
<g id="node13" class="node">
<title>Wandering_Idle</title>
<polygon fill="none" stroke="black" points="163.62,-558.75 22.38,-558.75 22.38,-522.75 163.62,-522.75 163.62,-558.75"/>
<text text-anchor="middle" x="93" y="-535.33" font-family="Helvetica,sans-Serif" font-size="14.00">Wandering_Idle (Init)</text>
</g>
<!-- Level Once Sensor -->
<g id="node14" class="node">
<title>Level Once Sensor</title>
<polygon fill="none" stroke="black" points="158.75,-612.75 27.25,-612.75 27.25,-576.75 158.75,-576.75 158.75,-612.75"/>
<text text-anchor="middle" x="93" y="-589.33" font-family="Helvetica,sans-Serif" font-size="14.00">Level Once Sensor</text>
</g>
<!-- Level Once Sensor_linked -->
<g id="node15" class="node">
<title>Level Once Sensor_linked</title>
<polygon fill="none" stroke="black" stroke-dasharray="1,5" points="404.7,-612.75 271.25,-612.75 271.25,-576.75 404.7,-576.75 404.7,-612.75"/>
<text text-anchor="start" x="276.85" y="-589.33" font-family="Helvetica,sans-Serif" font-size="14.00">DelayDoubleAttack &#160;</text>
</g>
<!-- Level Once Sensor&#45;&gt;Level Once Sensor_linked -->
<g id="edge10" class="edge">
<title>Level Once Sensor&#45;&gt;Level Once Sensor_linked</title>
<path fill="none" stroke="#66cdaa" d="M159.11,-594.75C190.05,-594.75 227.24,-594.75 259.61,-594.75"/>
<polygon fill="#66cdaa" stroke="#66cdaa" points="259.32,-598.25 269.32,-594.75 259.32,-591.25 259.32,-598.25"/>
<text text-anchor="middle" x="220.62" y="-597.2" font-family="Helvetica,sans-Serif" font-size="14.00" fill="#66cdaa">QueueEnd</text>
</g>
<!-- RunAwaySensor -->
<g id="node16" class="node">
<title>RunAwaySensor</title>
<polygon fill="none" stroke="black" points="151.25,-666.75 34.75,-666.75 34.75,-630.75 151.25,-630.75 151.25,-666.75"/>
<text text-anchor="middle" x="93" y="-643.33" font-family="Helvetica,sans-Serif" font-size="14.00">RunAwaySensor</text>
</g>
<!-- AttackSensor -->
<g id="node17" class="node">
<title>AttackSensor</title>
<polygon fill="none" stroke="black" points="141.12,-720.75 44.88,-720.75 44.88,-684.75 141.12,-684.75 141.12,-720.75"/>
<text text-anchor="middle" x="93" y="-697.33" font-family="Helvetica,sans-Serif" font-size="14.00">AttackSensor</text>
</g>
<!-- AttackSensor_linked -->
<g id="node18" class="node">
<title>AttackSensor_linked</title>
<polygon fill="none" stroke="black" stroke-dasharray="1,5" points="404.7,-728.85 271.25,-728.85 271.25,-642.65 404.7,-642.65 404.7,-728.85"/>
<text text-anchor="start" x="276.85" y="-709.95" font-family="Helvetica,sans-Serif" font-size="14.00">DelayDoubleAttack &#160;</text>
<text text-anchor="start" x="297.48" y="-690.2" font-family="Helvetica,sans-Serif" font-size="14.00">RollThrough &#160;</text>
<text text-anchor="start" x="294.1" y="-670.45" font-family="Helvetica,sans-Serif" font-size="14.00">DoubleAttack &#160;</text>
<text text-anchor="start" x="276.85" y="-650.7" font-family="Helvetica,sans-Serif" font-size="14.00">DelayDoubleAttack &#160;</text>
</g>
<!-- AttackSensor&#45;&gt;AttackSensor_linked -->
<g id="edge11" class="edge">
<title>AttackSensor&#45;&gt;AttackSensor_linked</title>
<path fill="none" stroke="#66cdaa" d="M141.42,-699.43C174.99,-697.08 220.74,-693.88 259.56,-691.17"/>
<polygon fill="#66cdaa" stroke="#66cdaa" points="259.59,-694.67 269.32,-690.48 259.1,-687.69 259.59,-694.67"/>
<text text-anchor="middle" x="220.62" y="-698.22" font-family="Helvetica,sans-Serif" font-size="14.00" fill="#66cdaa">QueueEnd</text>
</g>
<!-- DodgePredictSensor -->
<g id="node19" class="node">
<title>DodgePredictSensor</title>
<polygon fill="none" stroke="black" points="24,-764.75 24,-786.5 162,-786.5 162,-764.75 24,-764.75"/>
<text text-anchor="start" x="27" y="-770.2" font-family="Helvetica,sans-Serif" font-size="14.00">DodgePredictSensor &#160;</text>
<polygon fill="none" stroke="black" points="24,-743 24,-764.75 162,-764.75 162,-743 24,-743"/>
<text text-anchor="start" x="27" y="-749.45" font-family="Helvetica,sans-Serif" font-size="12.00" fill="#838b8b">if: Dodge</text>
<text text-anchor="start" x="75" y="-749.45" font-family="Helvetica,sans-Serif" font-size="14.00"> &#160;</text>
</g>
<!-- DodgePredictSensor_linked -->
<g id="node20" class="node">
<title>DodgePredictSensor_linked</title>
<polygon fill="none" stroke="black" stroke-dasharray="1,5" points="404.7,-782.75 271.25,-782.75 271.25,-746.75 404.7,-746.75 404.7,-782.75"/>
<text text-anchor="start" x="276.85" y="-759.33" font-family="Helvetica,sans-Serif" font-size="14.00">DelayDoubleAttack &#160;</text>
</g>
<!-- DodgePredictSensor&#45;&gt;DodgePredictSensor_linked -->
<g id="edge12" class="edge">
<title>DodgePredictSensor&#45;&gt;DodgePredictSensor_linked</title>
<path fill="none" stroke="#66cdaa" d="M169.88,-764.75C198.52,-764.75 231.12,-764.75 259.87,-764.75"/>
<polygon fill="#66cdaa" stroke="#66cdaa" points="259.59,-768.25 269.59,-764.75 259.59,-761.25 259.59,-768.25"/>
<text text-anchor="middle" x="220.62" y="-767.2" font-family="Helvetica,sans-Serif" font-size="14.00" fill="#66cdaa">QueueEnd</text>
</g>
<!-- AttackPredictSensor -->
<g id="node21" class="node">
<title>AttackPredictSensor</title>
<polygon fill="none" stroke="black" points="25.12,-834.75 25.12,-856.5 160.88,-856.5 160.88,-834.75 25.12,-834.75"/>
<text text-anchor="start" x="28.12" y="-840.2" font-family="Helvetica,sans-Serif" font-size="14.00">AttackPredictSensor &#160;</text>
<polygon fill="none" stroke="black" points="25.12,-813 25.12,-834.75 160.88,-834.75 160.88,-813 25.12,-813"/>
<text text-anchor="start" x="28.12" y="-819.45" font-family="Helvetica,sans-Serif" font-size="12.00" fill="#838b8b">if: Attack</text>
<text text-anchor="start" x="73.12" y="-819.45" font-family="Helvetica,sans-Serif" font-size="14.00"> &#160;</text>
</g>
<!-- AttackPredictSensor_linked -->
<g id="node22" class="node">
<title>AttackPredictSensor_linked</title>
<polygon fill="none" stroke="black" stroke-dasharray="1,5" points="404.7,-836.75 271.25,-836.75 271.25,-800.75 404.7,-800.75 404.7,-836.75"/>
<text text-anchor="start" x="276.85" y="-813.33" font-family="Helvetica,sans-Serif" font-size="14.00">DelayDoubleAttack &#160;</text>
</g>
<!-- AttackPredictSensor&#45;&gt;AttackPredictSensor_linked -->
<g id="edge13" class="edge">
<title>AttackPredictSensor&#45;&gt;AttackPredictSensor_linked</title>
<path fill="none" stroke="#66cdaa" d="M168.55,-829.84C197.37,-827.94 230.35,-825.77 259.44,-823.86"/>
<polygon fill="#66cdaa" stroke="#66cdaa" points="259.55,-827.36 269.3,-823.21 259.09,-820.37 259.55,-827.36"/>
<text text-anchor="middle" x="220.62" y="-830.63" font-family="Helvetica,sans-Serif" font-size="14.00" fill="#66cdaa">QueueEnd</text>
</g>
<!-- AttackPredictSensor_mustuse -->
<g id="node23" class="node">
<title>AttackPredictSensor_mustuse</title>
<polygon fill="none" stroke="black" stroke-dasharray="1,5" points="370.48,-890.75 305.48,-890.75 305.48,-854.75 370.48,-854.75 370.48,-890.75"/>
<text text-anchor="start" x="315.48" y="-867.33" font-family="Helvetica,sans-Serif" font-size="14.00">1 Skip &#160;</text>
</g>
<!-- AttackPredictSensor&#45;&gt;AttackPredictSensor_mustuse -->
<g id="edge14" class="edge">
<title>AttackPredictSensor&#45;&gt;AttackPredictSensor_mustuse</title>
<path fill="none" stroke="#458b74" d="M168.55,-846.41C209.66,-852.84 259.24,-860.59 293.92,-866.02"/>
<polygon fill="#458b74" stroke="#458b74" points="293.17,-869.44 303.59,-867.53 294.25,-862.52 293.17,-869.44"/>
<text text-anchor="middle" x="220.62" y="-861.82" font-family="Helvetica,sans-Serif" font-size="14.00" fill="#458b74">Weight</text>
</g>
<!-- AttackRunToSensor -->
<g id="node24" class="node">
<title>AttackRunToSensor</title>
<polygon fill="none" stroke="black" points="26.62,-904.75 26.62,-926.5 159.38,-926.5 159.38,-904.75 26.62,-904.75"/>
<text text-anchor="start" x="29.62" y="-910.2" font-family="Helvetica,sans-Serif" font-size="14.00">AttackRunToSensor &#160;</text>
<polygon fill="none" stroke="black" points="26.62,-883 26.62,-904.75 159.38,-904.75 159.38,-883 26.62,-883"/>
<text text-anchor="start" x="29.62" y="-889.45" font-family="Helvetica,sans-Serif" font-size="12.00" fill="#838b8b">if: state is Engaging</text>
<text text-anchor="start" x="133.88" y="-889.45" font-family="Helvetica,sans-Serif" font-size="14.00"> &#160;</text>
</g>
<!-- AttackRunToSensor_linked -->
<g id="node25" class="node">
<title>AttackRunToSensor_linked</title>
<polygon fill="none" stroke="black" stroke-dasharray="1,5" points="404.7,-944.75 271.25,-944.75 271.25,-908.75 404.7,-908.75 404.7,-944.75"/>
<text text-anchor="start" x="276.85" y="-921.33" font-family="Helvetica,sans-Serif" font-size="14.00">DelayDoubleAttack &#160;</text>
</g>
<!-- AttackRunToSensor&#45;&gt;AttackRunToSensor_linked -->
<g id="edge15" class="edge">
<title>AttackRunToSensor&#45;&gt;AttackRunToSensor_linked</title>
<path fill="none" stroke="#66cdaa" d="M167.23,-911.38C196.47,-914.03 230.17,-917.08 259.79,-919.76"/>
<polygon fill="#66cdaa" stroke="#66cdaa" points="259.14,-923.22 269.42,-920.63 259.77,-916.25 259.14,-923.22"/>
<text text-anchor="middle" x="220.62" y="-921.46" font-family="Helvetica,sans-Serif" font-size="14.00" fill="#66cdaa">QueueEnd</text>
</g>
<!-- ShootAttackSensor -->
<g id="node26" class="node">
<title>ShootAttackSensor</title>
<polygon fill="none" stroke="black" points="158.75,-984.75 27.25,-984.75 27.25,-948.75 158.75,-948.75 158.75,-984.75"/>
<text text-anchor="middle" x="93" y="-961.33" font-family="Helvetica,sans-Serif" font-size="14.00">ShootAttackSensor</text>
</g>
<!-- AttackUpSensor -->
<g id="node27" class="node">
<title>AttackUpSensor</title>
<polygon fill="none" stroke="black" points="37.5,-1028.75 37.5,-1050.5 148.5,-1050.5 148.5,-1028.75 37.5,-1028.75"/>
<text text-anchor="start" x="40.5" y="-1034.2" font-family="Helvetica,sans-Serif" font-size="14.00">AttackUpSensor &#160;</text>
<polygon fill="none" stroke="black" points="37.5,-1007 37.5,-1028.75 148.5,-1028.75 148.5,-1007 37.5,-1007"/>
<text text-anchor="start" x="40.5" y="-1013.45" font-family="Helvetica,sans-Serif" font-size="12.00" fill="#838b8b">if not:</text>
<text text-anchor="start" x="69" y="-1013.45" font-family="Helvetica,sans-Serif" font-size="14.00"> &#160;</text>
</g>
<!-- AttackUpSensor_linked -->
<g id="node28" class="node">
<title>AttackUpSensor_linked</title>
<polygon fill="none" stroke="black" stroke-dasharray="1,5" points="404.7,-1004.75 271.25,-1004.75 271.25,-968.75 404.7,-968.75 404.7,-1004.75"/>
<text text-anchor="start" x="276.85" y="-981.33" font-family="Helvetica,sans-Serif" font-size="14.00">DelayDoubleAttack &#160;</text>
</g>
<!-- AttackUpSensor&#45;&gt;AttackUpSensor_linked -->
<g id="edge16" class="edge">
<title>AttackUpSensor&#45;&gt;AttackUpSensor_linked</title>
<path fill="none" stroke="#66cdaa" d="M156.26,-1017.99C187.84,-1012.53 226.49,-1005.85 259.93,-1000.07"/>
<polygon fill="#66cdaa" stroke="#66cdaa" points="260.3,-1003.56 269.56,-998.4 259.11,-996.66 260.3,-1003.56"/>
<text text-anchor="middle" x="220.62" y="-1013.96" font-family="Helvetica,sans-Serif" font-size="14.00" fill="#66cdaa">QueueEnd</text>
</g>
<!-- AttackDownSensor -->
<g id="node29" class="node">
<title>AttackDownSensor</title>
<polygon fill="none" stroke="black" points="158.38,-1108.75 27.62,-1108.75 27.62,-1072.75 158.38,-1072.75 158.38,-1108.75"/>
<text text-anchor="middle" x="93" y="-1085.33" font-family="Helvetica,sans-Serif" font-size="14.00">AttackDownSensor</text>
</g>
<!-- AttackDownSensor_linked -->
<g id="node30" class="node">
<title>AttackDownSensor_linked</title>
<polygon fill="none" stroke="black" stroke-dasharray="1,5" points="404.7,-1108.85 271.25,-1108.85 271.25,-1022.65 404.7,-1022.65 404.7,-1108.85"/>
<text text-anchor="start" x="276.85" y="-1089.95" font-family="Helvetica,sans-Serif" font-size="14.00">DelayDoubleAttack &#160;</text>
<text text-anchor="start" x="297.48" y="-1070.2" font-family="Helvetica,sans-Serif" font-size="14.00">RollThrough &#160;</text>
<text text-anchor="start" x="294.1" y="-1050.45" font-family="Helvetica,sans-Serif" font-size="14.00">DoubleAttack &#160;</text>
<text text-anchor="start" x="276.85" y="-1030.7" font-family="Helvetica,sans-Serif" font-size="14.00">DelayDoubleAttack &#160;</text>
</g>
<!-- AttackDownSensor&#45;&gt;AttackDownSensor_linked -->
<g id="edge17" class="edge">
<title>AttackDownSensor&#45;&gt;AttackDownSensor_linked</title>
<path fill="none" stroke="#66cdaa" d="M158.79,-1084.08C189.86,-1080.89 227.29,-1077.04 259.81,-1073.69"/>
<polygon fill="#66cdaa" stroke="#66cdaa" points="260,-1077.19 269.59,-1072.68 259.28,-1070.23 260,-1077.19"/>
<text text-anchor="middle" x="220.62" y="-1082.94" font-family="Helvetica,sans-Serif" font-size="14.00" fill="#66cdaa">QueueEnd</text>
</g>
</g>
</svg>
