<?xml version="1.0" encoding="UTF-8" standalone="no"?>
<!DOCTYPE svg PUBLIC "-//W3C//DTD SVG 1.1//EN"
 "http://www.w3.org/Graphics/SVG/1.1/DTD/svg11.dtd">
<!-- Generated by graphviz version 12.2.1 (20241206.2353)
 -->
<!-- Title: Foo Pages: 1 -->
<svg width="623pt" height="1098pt"
 viewBox="0.00 0.00 623.12 1097.75" xmlns="http://www.w3.org/2000/svg" xmlns:xlink="http://www.w3.org/1999/xlink">
<g id="graph0" class="graph" transform="scale(1 1) rotate(0) translate(4 1093.75)">
<title>Foo</title>
<polygon fill="white" stroke="none" points="-4,4 -4,-1093.75 619.12,-1093.75 619.12,4 -4,4"/>
<g id="clust1" class="cluster">
<title>cluster_attacksensors</title>
<polygon fill="none" stroke="black" points="8,-465.75 8,-1081.75 439.48,-1081.75 439.48,-465.75 8,-465.75"/>
<text text-anchor="middle" x="223.74" y="-1064.45" font-family="Helvetica,sans-Serif" font-size="14.00">Attack Sensors</text>
</g>
<!-- Attack_StartRunning -->
<g id="node1" class="node">
<title>Attack_StartRunning</title>
<polygon fill="none" stroke="black" points="291.62,-67.88 291.62,-89.62 428.88,-89.62 428.88,-67.88 291.62,-67.88"/>
<text text-anchor="start" x="294.62" y="-73.33" font-family="Helvetica,sans-Serif" font-size="14.00">Attack_StartRunning &#160;</text>
<polygon fill="none" stroke="black" points="291.62,-35.88 291.62,-67.88 428.88,-67.88 428.88,-35.88 291.62,-35.88"/>
<text text-anchor="start" x="294.62" y="-54.48" font-family="Helvetica,sans-Serif" font-size="12.00" fill="#838b8b">0.25s: LinkNextMove</text>
<text text-anchor="start" x="294.62" y="-40.58" font-family="Helvetica,sans-Serif" font-size="12.00" fill="#838b8b">0.67s: Done</text>
<text text-anchor="start" x="359.12" y="-40.58" font-family="Helvetica,sans-Serif" font-size="14.00"> &#160;</text>
</g>
<!-- Engaging -->
<g id="node2" class="node">
<title>Engaging</title>
<polygon fill="none" stroke="black" points="601.5,-148.75 528.5,-148.75 528.5,-112.75 601.5,-112.75 601.5,-148.75"/>
<text text-anchor="middle" x="565" y="-125.33" font-family="Helvetica,sans-Serif" font-size="14.00">Engaging</text>
</g>
<!-- Attack_StartRunning&#45;&gt;Engaging -->
<g id="edge1" class="edge">
<title>Attack_StartRunning&#45;&gt;Engaging</title>
<path fill="none" stroke="#cdc8b1" d="M436.75,-88.07C463.77,-97.13 493.42,-107.08 517.29,-115.08"/>
<polygon fill="#cdc8b1" stroke="#cdc8b1" points="516.14,-118.39 526.73,-118.25 518.37,-111.75 516.14,-118.39"/>
</g>
<!-- Attack_StartRunning_mustuse -->
<g id="node3" class="node">
<title>Attack_StartRunning_mustuse</title>
<polygon fill="none" stroke="black" stroke-dasharray="1,5" points="615.12,-86.5 514.88,-86.5 514.88,-39 615.12,-39 615.12,-86.5"/>
<text text-anchor="start" x="524.88" y="-67.2" font-family="Helvetica,sans-Serif" font-size="14.00">1 Undefined &#160;</text>
<text text-anchor="start" x="524.88" y="-47.45" font-family="Helvetica,sans-Serif" font-size="14.00">1 Undefined &#160;</text>
</g>
<!-- Attack_StartRunning&#45;&gt;Attack_StartRunning_mustuse -->
<g id="edge2" class="edge">
<title>Attack_StartRunning&#45;&gt;Attack_StartRunning_mustuse</title>
<path fill="none" stroke="#458b74" d="M436.75,-62.75C458.69,-62.75 482.37,-62.75 503.28,-62.75"/>
<polygon fill="#458b74" stroke="#458b74" points="503.07,-66.25 513.07,-62.75 503.07,-59.25 503.07,-66.25"/>
<text text-anchor="middle" x="475.88" y="-65.2" font-family="Helvetica,sans-Serif" font-size="14.00" fill="#458b74">Weight</text>
</g>
<!-- Attack_Grabbed_absorb -->
<g id="node4" class="node">
<title>Attack_Grabbed_absorb</title>
<polygon fill="none" stroke="black" points="13.88,-105.88 13.88,-127.62 174.38,-127.62 174.38,-105.88 13.88,-105.88"/>
<text text-anchor="start" x="16.88" y="-111.33" font-family="Helvetica,sans-Serif" font-size="14.00">Attack_Grabbed_absorb &#160;</text>
<polygon fill="none" stroke="black" points="13.88,-73.88 13.88,-105.88 174.38,-105.88 174.38,-73.88 13.88,-73.88"/>
<text text-anchor="start" x="16.88" y="-92.47" font-family="Helvetica,sans-Serif" font-size="12.00" fill="#838b8b">0.33s: Done</text>
<text text-anchor="start" x="16.88" y="-78.57" font-family="Helvetica,sans-Serif" font-size="12.00" fill="#838b8b">0.67s: LinkNextMove</text>
<text text-anchor="start" x="128.62" y="-78.57" font-family="Helvetica,sans-Serif" font-size="14.00"> &#160;</text>
</g>
<!-- Attack_Grabbed_absorb&#45;&gt;Attack_StartRunning -->
<g id="edge3" class="edge">
<title>Attack_Grabbed_absorb&#45;&gt;Attack_StartRunning</title>
<path fill="none" stroke="#cdc8b1" d="M182.34,-88.2C211.26,-84.04 243.43,-79.41 272.33,-75.26"/>
<polygon fill="#cdc8b1" stroke="#cdc8b1" points="272.75,-78.73 282.15,-73.84 271.75,-71.8 272.75,-78.73"/>
</g>
<!-- Attack_Jump -->
<g id="node5" class="node">
<title>Attack_Jump</title>
<polygon fill="none" stroke="black" points="314.12,-137.75 314.12,-159.5 406.38,-159.5 406.38,-137.75 314.12,-137.75"/>
<text text-anchor="start" x="317.12" y="-143.2" font-family="Helvetica,sans-Serif" font-size="14.00">Attack_Jump &#160;</text>
<polygon fill="none" stroke="black" points="314.12,-116 314.12,-137.75 406.38,-137.75 406.38,-116 314.12,-116"/>
<text text-anchor="start" x="317.12" y="-122.45" font-family="Helvetica,sans-Serif" font-size="12.00" fill="#838b8b">0.67s: Done</text>
<text text-anchor="start" x="381.62" y="-122.45" font-family="Helvetica,sans-Serif" font-size="14.00"> &#160;</text>
</g>
<!-- Attack_Jump&#45;&gt;Engaging -->
<g id="edge4" class="edge">
<title>Attack_Jump&#45;&gt;Engaging</title>
<path fill="none" stroke="#cdc8b1" d="M414.26,-135.92C446.09,-134.82 486.24,-133.43 516.95,-132.37"/>
<polygon fill="#cdc8b1" stroke="#cdc8b1" points="516.83,-135.88 526.71,-132.04 516.59,-128.88 516.83,-135.88"/>
</g>
<!-- FakeDead -->
<g id="node6" class="node">
<title>FakeDead</title>
<polygon fill="none" stroke="black" points="35.25,-237.88 35.25,-259.62 153,-259.62 153,-237.88 35.25,-237.88"/>
<text text-anchor="start" x="59.25" y="-243.32" font-family="Helvetica,sans-Serif" font-size="14.00">FakeDead &#160;</text>
<polygon fill="none" stroke="black" points="35.25,-193.88 35.25,-237.88 153,-237.88 153,-193.88 35.25,-193.88"/>
<text text-anchor="start" x="38.25" y="-224.47" font-family="Helvetica,sans-Serif" font-size="12.00" fill="#838b8b">0.00s: EnableGravity</text>
<text text-anchor="start" x="38.25" y="-212.47" font-family="Helvetica,sans-Serif" font-size="12.00" fill="#838b8b">1.50s: LinkNextMove</text>
<text text-anchor="start" x="38.25" y="-198.57" font-family="Helvetica,sans-Serif" font-size="12.00" fill="#838b8b">2.00s: Done</text>
<text text-anchor="start" x="102.75" y="-198.57" font-family="Helvetica,sans-Serif" font-size="14.00"> &#160;</text>
</g>
<!-- Revive -->
<g id="node7" class="node">
<title>Revive</title>
<polygon fill="none" stroke="black" points="388.88,-271.75 331.62,-271.75 331.62,-235.75 388.88,-235.75 388.88,-271.75"/>
<text text-anchor="middle" x="360.25" y="-248.32" font-family="Helvetica,sans-Serif" font-size="14.00">Revive</text>
</g>
<!-- FakeDead&#45;&gt;Revive -->
<g id="edge5" class="edge">
<title>FakeDead&#45;&gt;Revive</title>
<path fill="none" stroke="#cdc8b1" d="M160.75,-233.46C210.78,-238.57 278.01,-245.45 319.97,-249.73"/>
<polygon fill="#cdc8b1" stroke="#cdc8b1" points="319.55,-253.21 329.86,-250.75 320.26,-246.25 319.55,-253.21"/>
</g>
<!-- FakeDead_mustuse -->
<g id="node8" class="node">
<title>FakeDead_mustuse</title>
<polygon fill="none" stroke="black" stroke-dasharray="1,5" points="392.75,-217.75 327.75,-217.75 327.75,-181.75 392.75,-181.75 392.75,-217.75"/>
<text text-anchor="start" x="337.75" y="-194.32" font-family="Helvetica,sans-Serif" font-size="14.00">1 Skip &#160;</text>
</g>
<!-- FakeDead&#45;&gt;FakeDead_mustuse -->
<g id="edge6" class="edge">
<title>FakeDead&#45;&gt;FakeDead_mustuse</title>
<path fill="none" stroke="#458b74" d="M160.75,-220.04C209.35,-215.07 274.18,-208.45 316.31,-204.14"/>
<polygon fill="#458b74" stroke="#458b74" points="316.47,-207.64 326.06,-203.14 315.75,-200.68 316.47,-207.64"/>
<text text-anchor="middle" x="233" y="-218.12" font-family="Helvetica,sans-Serif" font-size="14.00" fill="#458b74">Weight</text>
</g>
<!-- HurtState -->
<g id="node9" class="node">
<title>HurtState</title>
<polygon fill="none" stroke="black" points="55.12,-25.75 55.12,-47.5 133.12,-47.5 133.12,-25.75 55.12,-25.75"/>
<text text-anchor="start" x="61.88" y="-31.2" font-family="Helvetica,sans-Serif" font-size="14.00">HurtState &#160;</text>
<polygon fill="none" stroke="black" points="55.12,-4 55.12,-25.75 133.12,-25.75 133.12,-4 55.12,-4"/>
<text text-anchor="start" x="58.12" y="-10.45" font-family="Helvetica,sans-Serif" font-size="12.00" fill="#838b8b">0.33s: Done</text>
<text text-anchor="start" x="122.62" y="-10.45" font-family="Helvetica,sans-Serif" font-size="14.00"> &#160;</text>
</g>
<!-- HurtState&#45;&gt;Attack_StartRunning -->
<g id="edge7" class="edge">
<title>HurtState&#45;&gt;Attack_StartRunning</title>
<path fill="none" stroke="#cdc8b1" d="M140.83,-32.15C176.96,-37.21 228.45,-44.43 272.36,-50.58"/>
<polygon fill="#cdc8b1" stroke="#cdc8b1" points="271.75,-54.03 282.14,-51.95 272.72,-47.09 271.75,-54.03"/>
</g>
<!-- Hurt_BigState -->
<g id="node10" class="node">
<title>Hurt_BigState</title>
<polygon fill="none" stroke="black" points="45.38,-307.75 45.38,-329.5 142.88,-329.5 142.88,-307.75 45.38,-307.75"/>
<text text-anchor="start" x="48.38" y="-313.2" font-family="Helvetica,sans-Serif" font-size="14.00">Hurt_BigState &#160;</text>
<polygon fill="none" stroke="black" points="45.38,-286 45.38,-307.75 142.88,-307.75 142.88,-286 45.38,-286"/>
<text text-anchor="start" x="48.38" y="-292.45" font-family="Helvetica,sans-Serif" font-size="12.00" fill="#838b8b">0.33s: Done</text>
<text text-anchor="start" x="112.88" y="-292.45" font-family="Helvetica,sans-Serif" font-size="14.00"> &#160;</text>
</g>
<!-- PostureBreak -->
<g id="node11" class="node">
<title>PostureBreak</title>
<polygon fill="none" stroke="black" points="46.5,-377.75 46.5,-399.5 141.75,-399.5 141.75,-377.75 46.5,-377.75"/>
<text text-anchor="start" x="49.5" y="-383.2" font-family="Helvetica,sans-Serif" font-size="14.00">PostureBreak &#160;</text>
<polygon fill="none" stroke="black" points="46.5,-356 46.5,-377.75 141.75,-377.75 141.75,-356 46.5,-356"/>
<text text-anchor="start" x="49.5" y="-362.45" font-family="Helvetica,sans-Serif" font-size="12.00" fill="#838b8b">0.50s: Done</text>
<text text-anchor="start" x="114" y="-362.45" font-family="Helvetica,sans-Serif" font-size="14.00"> &#160;</text>
</g>
<!-- Wandering_Idle -->
<g id="node12" class="node">
<title>Wandering_Idle</title>
<polygon fill="none" stroke="black" points="164.75,-457.75 23.5,-457.75 23.5,-421.75 164.75,-421.75 164.75,-457.75"/>
<text text-anchor="middle" x="94.12" y="-434.32" font-family="Helvetica,sans-Serif" font-size="14.00">Wandering_Idle (Init)</text>
</g>
<!-- Level Once Sensor -->
<g id="node13" class="node">
<title>Level Once Sensor</title>
<polygon fill="none" stroke="black" points="159.88,-512.75 28.38,-512.75 28.38,-476.75 159.88,-476.75 159.88,-512.75"/>
<text text-anchor="middle" x="94.12" y="-489.32" font-family="Helvetica,sans-Serif" font-size="14.00">Level Once Sensor</text>
</g>
<!-- Level Once Sensor_linked -->
<g id="node14" class="node">
<title>Level Once Sensor_linked</title>
<polygon fill="none" stroke="black" stroke-dasharray="1,5" points="431.48,-509.75 289.02,-509.75 289.02,-473.75 431.48,-473.75 431.48,-509.75"/>
<text text-anchor="start" x="294.62" y="-486.32" font-family="Helvetica,sans-Serif" font-size="14.00">Attack_StartRunning &#160;</text>
</g>
<!-- Level Once Sensor&#45;&gt;Level Once Sensor_linked -->
<g id="edge8" class="edge">
<title>Level Once Sensor&#45;&gt;Level Once Sensor_linked</title>
<path fill="none" stroke="#66cdaa" d="M160.08,-494.01C195.51,-493.61 239.73,-493.11 277.49,-492.68"/>
<polygon fill="#66cdaa" stroke="#66cdaa" points="277.52,-496.18 287.48,-492.57 277.44,-489.18 277.52,-496.18"/>
<text text-anchor="middle" x="233" y="-495.97" font-family="Helvetica,sans-Serif" font-size="14.00" fill="#66cdaa">QueueEnd</text>
</g>
<!-- Level Once Sensor_mustuse -->
<g id="node15" class="node">
<title>Level Once Sensor_mustuse</title>
<polygon fill="none" stroke="black" stroke-dasharray="1,5" points="410.38,-563.75 310.12,-563.75 310.12,-527.75 410.38,-527.75 410.38,-563.75"/>
<text text-anchor="start" x="320.12" y="-540.33" font-family="Helvetica,sans-Serif" font-size="14.00">1 Undefined &#160;</text>
</g>
<!-- Level Once Sensor&#45;&gt;Level Once Sensor_mustuse -->
<g id="edge9" class="edge">
<title>Level Once Sensor&#45;&gt;Level Once Sensor_mustuse</title>
<path fill="none" stroke="#458b74" d="M160.08,-507.29C202.38,-515.46 257.2,-526.04 298.61,-534.04"/>
<polygon fill="#458b74" stroke="#458b74" points="297.95,-537.48 308.43,-535.94 299.27,-530.6 297.95,-537.48"/>
<text text-anchor="middle" x="233" y="-528.77" font-family="Helvetica,sans-Serif" font-size="14.00" fill="#458b74">Weight</text>
</g>
<!-- RunAwaySensor -->
<g id="node16" class="node">
<title>RunAwaySensor</title>
<polygon fill="none" stroke="black" points="152.38,-567.75 35.88,-567.75 35.88,-531.75 152.38,-531.75 152.38,-567.75"/>
<text text-anchor="middle" x="94.12" y="-544.33" font-family="Helvetica,sans-Serif" font-size="14.00">RunAwaySensor</text>
</g>
<!-- AttackSensor -->
<g id="node17" class="node">
<title>AttackSensor</title>
<polygon fill="none" stroke="black" points="38.62,-621.88 38.62,-643.62 149.62,-643.62 149.62,-621.88 38.62,-621.88"/>
<text text-anchor="start" x="50.25" y="-627.33" font-family="Helvetica,sans-Serif" font-size="14.00">AttackSensor &#160;</text>
<polygon fill="none" stroke="black" points="38.62,-589.88 38.62,-621.88 149.62,-621.88 149.62,-589.88 38.62,-589.88"/>
<text text-anchor="start" x="41.62" y="-608.48" font-family="Helvetica,sans-Serif" font-size="12.00" fill="#838b8b">if not: Not Engaging</text>
<text text-anchor="start" x="41.62" y="-594.58" font-family="Helvetica,sans-Serif" font-size="12.00" fill="#838b8b">if not: Not Attack1</text>
<text text-anchor="start" x="134.62" y="-594.58" font-family="Helvetica,sans-Serif" font-size="14.00"> &#160;</text>
</g>
<!-- AttackSensor_linked -->
<g id="node18" class="node">
<title>AttackSensor_linked</title>
<polygon fill="none" stroke="black" stroke-dasharray="1,5" points="431.48,-617.75 289.02,-617.75 289.02,-581.75 431.48,-581.75 431.48,-617.75"/>
<text text-anchor="start" x="294.62" y="-594.33" font-family="Helvetica,sans-Serif" font-size="14.00">Attack_StartRunning &#160;</text>
</g>
<!-- AttackSensor&#45;&gt;AttackSensor_linked -->
<g id="edge10" class="edge">
<title>AttackSensor&#45;&gt;AttackSensor_linked</title>
<path fill="none" stroke="#66cdaa" d="M157.38,-612.74C193.2,-610.44 238.62,-607.51 277.31,-605.02"/>
<polygon fill="#66cdaa" stroke="#66cdaa" points="277.29,-608.53 287.04,-604.4 276.84,-601.55 277.29,-608.53"/>
<text text-anchor="middle" x="233" y="-612.22" font-family="Helvetica,sans-Serif" font-size="14.00" fill="#66cdaa">QueueEnd</text>
</g>
<!-- AttackSensor_mustuse -->
<g id="node19" class="node">
<title>AttackSensor_mustuse</title>
<polygon fill="none" stroke="black" stroke-dasharray="1,5" points="410.38,-671.75 310.12,-671.75 310.12,-635.75 410.38,-635.75 410.38,-671.75"/>
<text text-anchor="start" x="320.12" y="-648.33" font-family="Helvetica,sans-Serif" font-size="14.00">1 Undefined &#160;</text>
</g>
<!-- AttackSensor&#45;&gt;AttackSensor_mustuse -->
<g id="edge11" class="edge">
<title>AttackSensor&#45;&gt;AttackSensor_mustuse</title>
<path fill="none" stroke="#458b74" d="M157.38,-625.47C199.99,-631.44 256.21,-639.32 298.49,-645.24"/>
<polygon fill="#458b74" stroke="#458b74" points="297.86,-648.68 308.25,-646.61 298.84,-641.75 297.86,-648.68"/>
<text text-anchor="middle" x="233" y="-642.1" font-family="Helvetica,sans-Serif" font-size="14.00" fill="#458b74">Weight</text>
</g>
<!-- DodgePredictSensor -->
<g id="node20" class="node">
<title>DodgePredictSensor</title>
<polygon fill="none" stroke="black" points="25.12,-691.75 25.12,-713.5 163.12,-713.5 163.12,-691.75 25.12,-691.75"/>
<text text-anchor="start" x="28.12" y="-697.2" font-family="Helvetica,sans-Serif" font-size="14.00">DodgePredictSensor &#160;</text>
<polygon fill="none" stroke="black" points="25.12,-670 25.12,-691.75 163.12,-691.75 163.12,-670 25.12,-670"/>
<text text-anchor="start" x="28.12" y="-676.45" font-family="Helvetica,sans-Serif" font-size="12.00" fill="#838b8b">if: Dodge</text>
<text text-anchor="start" x="76.12" y="-676.45" font-family="Helvetica,sans-Serif" font-size="14.00"> &#160;</text>
</g>
<!-- DodgePredictSensor_linked -->
<g id="node21" class="node">
<title>DodgePredictSensor_linked</title>
<polygon fill="none" stroke="black" stroke-dasharray="1,5" points="431.48,-725.75 289.02,-725.75 289.02,-689.75 431.48,-689.75 431.48,-725.75"/>
<text text-anchor="start" x="294.62" y="-702.33" font-family="Helvetica,sans-Serif" font-size="14.00">Attack_StartRunning &#160;</text>
</g>
<!-- DodgePredictSensor&#45;&gt;DodgePredictSensor_linked -->
<g id="edge12" class="edge">
<title>DodgePredictSensor&#45;&gt;DodgePredictSensor_linked</title>
<path fill="none" stroke="#66cdaa" d="M170.81,-696.33C204.09,-698.35 243.25,-700.72 277.23,-702.78"/>
<polygon fill="#66cdaa" stroke="#66cdaa" points="276.83,-706.26 287.03,-703.37 277.25,-699.28 276.83,-706.26"/>
<text text-anchor="middle" x="233" y="-704.1" font-family="Helvetica,sans-Serif" font-size="14.00" fill="#66cdaa">QueueEnd</text>
</g>
<!-- AttackPredictSensor -->
<g id="node22" class="node">
<title>AttackPredictSensor</title>
<polygon fill="none" stroke="black" points="26.25,-761.75 26.25,-783.5 162,-783.5 162,-761.75 26.25,-761.75"/>
<text text-anchor="start" x="29.25" y="-767.2" font-family="Helvetica,sans-Serif" font-size="14.00">AttackPredictSensor &#160;</text>
<polygon fill="none" stroke="black" points="26.25,-740 26.25,-761.75 162,-761.75 162,-740 26.25,-740"/>
<text text-anchor="start" x="29.25" y="-746.45" font-family="Helvetica,sans-Serif" font-size="12.00" fill="#838b8b">if: Attack</text>
<text text-anchor="start" x="74.25" y="-746.45" font-family="Helvetica,sans-Serif" font-size="14.00"> &#160;</text>
</g>
<!-- AttackPredictSensor_linked -->
<g id="node23" class="node">
<title>AttackPredictSensor_linked</title>
<polygon fill="none" stroke="black" stroke-dasharray="1,5" points="431.48,-779.75 289.02,-779.75 289.02,-743.75 431.48,-743.75 431.48,-779.75"/>
<text text-anchor="start" x="294.62" y="-756.33" font-family="Helvetica,sans-Serif" font-size="14.00">Attack_StartRunning &#160;</text>
</g>
<!-- AttackPredictSensor&#45;&gt;AttackPredictSensor_linked -->
<g id="edge13" class="edge">
<title>AttackPredictSensor&#45;&gt;AttackPredictSensor_linked</title>
<path fill="none" stroke="#66cdaa" d="M169.75,-761.75C203.33,-761.75 243.06,-761.75 277.45,-761.75"/>
<polygon fill="#66cdaa" stroke="#66cdaa" points="277.38,-765.25 287.38,-761.75 277.38,-758.25 277.38,-765.25"/>
<text text-anchor="middle" x="233" y="-764.2" font-family="Helvetica,sans-Serif" font-size="14.00" fill="#66cdaa">QueueEnd</text>
</g>
<!-- AttackRunToSensor -->
<g id="node24" class="node">
<title>AttackRunToSensor</title>
<polygon fill="none" stroke="black" points="27.75,-831.75 27.75,-853.5 160.5,-853.5 160.5,-831.75 27.75,-831.75"/>
<text text-anchor="start" x="30.75" y="-837.2" font-family="Helvetica,sans-Serif" font-size="14.00">AttackRunToSensor &#160;</text>
<polygon fill="none" stroke="black" points="27.75,-810 27.75,-831.75 160.5,-831.75 160.5,-810 27.75,-810"/>
<text text-anchor="start" x="30.75" y="-816.45" font-family="Helvetica,sans-Serif" font-size="12.00" fill="#838b8b">if: state is Engaging</text>
<text text-anchor="start" x="135" y="-816.45" font-family="Helvetica,sans-Serif" font-size="14.00"> &#160;</text>
</g>
<!-- AttackRunToSensor_linked -->
<g id="node25" class="node">
<title>AttackRunToSensor_linked</title>
<polygon fill="none" stroke="black" stroke-dasharray="1,5" points="431.48,-833.75 289.02,-833.75 289.02,-797.75 431.48,-797.75 431.48,-833.75"/>
<text text-anchor="start" x="294.62" y="-810.33" font-family="Helvetica,sans-Serif" font-size="14.00">Attack_StartRunning &#160;</text>
</g>
<!-- AttackRunToSensor&#45;&gt;AttackRunToSensor_linked -->
<g id="edge14" class="edge">
<title>AttackRunToSensor&#45;&gt;AttackRunToSensor_linked</title>
<path fill="none" stroke="#66cdaa" d="M168.35,-827.31C202.24,-825.26 242.62,-822.81 277.5,-820.7"/>
<polygon fill="#66cdaa" stroke="#66cdaa" points="277.34,-824.22 287.11,-820.12 276.92,-817.23 277.34,-824.22"/>
<text text-anchor="middle" x="233" y="-827.63" font-family="Helvetica,sans-Serif" font-size="14.00" fill="#66cdaa">QueueEnd</text>
</g>
<!-- AttackSensorJump -->
<g id="node26" class="node">
<title>AttackSensorJump</title>
<polygon fill="none" stroke="black" points="27.38,-916.88 27.38,-938.62 160.88,-938.62 160.88,-916.88 27.38,-916.88"/>
<text text-anchor="start" x="33.38" y="-922.33" font-family="Helvetica,sans-Serif" font-size="14.00">AttackSensorJump &#160;</text>
<polygon fill="none" stroke="black" points="27.38,-884.88 27.38,-916.88 160.88,-916.88 160.88,-884.88 27.38,-884.88"/>
<text text-anchor="start" x="30.38" y="-903.48" font-family="Helvetica,sans-Serif" font-size="12.00" fill="#838b8b">if: state is Engaging</text>
<text text-anchor="start" x="30.38" y="-889.58" font-family="Helvetica,sans-Serif" font-size="12.00" fill="#838b8b">if not: not above player</text>
<text text-anchor="start" x="150.38" y="-889.58" font-family="Helvetica,sans-Serif" font-size="14.00"> &#160;</text>
</g>
<!-- AttackSensorJump_linked -->
<g id="node27" class="node">
<title>AttackSensorJump_linked</title>
<polygon fill="none" stroke="black" stroke-dasharray="1,5" points="431.48,-887.75 289.02,-887.75 289.02,-851.75 431.48,-851.75 431.48,-887.75"/>
<text text-anchor="start" x="294.62" y="-864.33" font-family="Helvetica,sans-Serif" font-size="14.00">Attack_StartRunning &#160;</text>
</g>
<!-- AttackSensorJump&#45;&gt;AttackSensorJump_linked -->
<g id="edge15" class="edge">
<title>AttackSensorJump&#45;&gt;AttackSensorJump_linked</title>
<path fill="none" stroke="#66cdaa" d="M168.7,-900.05C202.58,-894.66 242.9,-888.25 277.71,-882.72"/>
<polygon fill="#66cdaa" stroke="#66cdaa" points="277.98,-886.22 287.31,-881.19 276.88,-879.3 277.98,-886.22"/>
<text text-anchor="middle" x="233" y="-896.96" font-family="Helvetica,sans-Serif" font-size="14.00" fill="#66cdaa">QueueEnd</text>
</g>
<!-- AttackSensorJump_mustuse -->
<g id="node28" class="node">
<title>AttackSensorJump_mustuse</title>
<polygon fill="none" stroke="black" stroke-dasharray="1,5" points="410.38,-941.75 310.12,-941.75 310.12,-905.75 410.38,-905.75 410.38,-941.75"/>
<text text-anchor="start" x="320.12" y="-918.33" font-family="Helvetica,sans-Serif" font-size="14.00">1 Undefined &#160;</text>
</g>
<!-- AttackSensorJump&#45;&gt;AttackSensorJump_mustuse -->
<g id="edge16" class="edge">
<title>AttackSensorJump&#45;&gt;AttackSensorJump_mustuse</title>
<path fill="none" stroke="#458b74" d="M168.7,-915.09C209.68,-916.95 260.08,-919.24 298.75,-921"/>
<polygon fill="#458b74" stroke="#458b74" points="298.18,-924.48 308.33,-921.44 298.5,-917.49 298.18,-924.48"/>
<text text-anchor="middle" x="233" y="-921.63" font-family="Helvetica,sans-Serif" font-size="14.00" fill="#458b74">Weight</text>
</g>
<!-- AttackSensorNotReach -->
<g id="node29" class="node">
<title>AttackSensorNotReach</title>
<polygon fill="none" stroke="black" points="172.25,-1023.75 16,-1023.75 16,-987.75 172.25,-987.75 172.25,-1023.75"/>
<text text-anchor="middle" x="94.12" y="-1000.33" font-family="Helvetica,sans-Serif" font-size="14.00">AttackSensorNotReach</text>
</g>
<!-- AttackSensorNotReach_linked -->
<g id="node30" class="node">
<title>AttackSensorNotReach_linked</title>
<polygon fill="none" stroke="black" stroke-dasharray="1,5" points="431.48,-995.75 289.02,-995.75 289.02,-959.75 431.48,-959.75 431.48,-995.75"/>
<text text-anchor="start" x="294.62" y="-972.33" font-family="Helvetica,sans-Serif" font-size="14.00">Attack_StartRunning &#160;</text>
</g>
<!-- AttackSensorNotReach&#45;&gt;AttackSensorNotReach_linked -->
<g id="edge17" class="edge">
<title>AttackSensorNotReach&#45;&gt;AttackSensorNotReach_linked</title>
<path fill="none" stroke="#66cdaa" d="M172.59,-997.54C205.55,-994.04 244.01,-989.97 277.43,-986.42"/>
<polygon fill="#66cdaa" stroke="#66cdaa" points="277.48,-989.94 287.05,-985.4 276.74,-982.98 277.48,-989.94"/>
<text text-anchor="middle" x="233" y="-996.71" font-family="Helvetica,sans-Serif" font-size="14.00" fill="#66cdaa">QueueEnd</text>
</g>
<!-- AttackSensorNotReach_mustuse -->
<g id="node31" class="node">
<title>AttackSensorNotReach_mustuse</title>
<polygon fill="none" stroke="black" stroke-dasharray="1,5" points="410.38,-1049.75 310.12,-1049.75 310.12,-1013.75 410.38,-1013.75 410.38,-1049.75"/>
<text text-anchor="start" x="320.12" y="-1026.33" font-family="Helvetica,sans-Serif" font-size="14.00">1 Undefined &#160;</text>
</g>
<!-- AttackSensorNotReach&#45;&gt;AttackSensorNotReach_mustuse -->
<g id="edge18" class="edge">
<title>AttackSensorNotReach&#45;&gt;AttackSensorNotReach_mustuse</title>
<path fill="none" stroke="#458b74" d="M172.59,-1013.38C212.73,-1017.33 261.04,-1022.08 298.46,-1025.77"/>
<polygon fill="#458b74" stroke="#458b74" points="297.9,-1029.23 308.19,-1026.72 298.58,-1022.26 297.9,-1029.23"/>
<text text-anchor="middle" x="233" y="-1024.29" font-family="Helvetica,sans-Serif" font-size="14.00" fill="#458b74">Weight</text>
</g>
</g>
</svg>
