<?xml version="1.0" encoding="UTF-8" standalone="no"?>
<!DOCTYPE svg PUBLIC "-//W3C//DTD SVG 1.1//EN"
 "http://www.w3.org/Graphics/SVG/1.1/DTD/svg11.dtd">
<!-- Generated by graphviz version 12.2.1 (20241206.2353)
 -->
<!-- Title: Foo Pages: 1 -->
<svg width="655pt" height="1077pt"
 viewBox="0.00 0.00 654.88 1077.00" xmlns="http://www.w3.org/2000/svg" xmlns:xlink="http://www.w3.org/1999/xlink">
<g id="graph0" class="graph" transform="scale(1 1) rotate(0) translate(4 1073)">
<title>Foo</title>
<polygon fill="white" stroke="none" points="-4,4 -4,-1073 650.88,-1073 650.88,4 -4,4"/>
<g id="clust1" class="cluster">
<title>cluster_attacksensors</title>
<polygon fill="none" stroke="black" points="8,-8 8,-624 460.12,-624 460.12,-8 8,-8"/>
<text text-anchor="middle" x="234.06" y="-606.7" font-family="Helvetica,sans-Serif" font-size="14.00">Attack Sensors</text>
</g>
<!-- Level Once Sensor -->
<g id="node1" class="node">
<title>Level Once Sensor</title>
<polygon fill="none" stroke="black" points="36.38,-23.12 36.38,-44.88 165.38,-44.88 165.38,-23.12 36.38,-23.12"/>
<text text-anchor="start" x="39.38" y="-28.57" font-family="Helvetica,sans-Serif" font-size="14.00">Level Once Sensor &#160;</text>
</g>
<!-- Level Once Sensor_linked -->
<g id="node2" class="node">
<title>Level Once Sensor_linked</title>
<polygon fill="none" stroke="black" stroke-dasharray="1,5" points="442.48,-52 300.02,-52 300.02,-16 442.48,-16 442.48,-52"/>
<text text-anchor="start" x="305.62" y="-28.57" font-family="Helvetica,sans-Serif" font-size="14.00">Attack_StartRunning &#160;</text>
</g>
<!-- Level Once Sensor&#45;&gt;Level Once Sensor_linked -->
<g id="edge1" class="edge">
<title>Level Once Sensor&#45;&gt;Level Once Sensor_linked</title>
<path fill="none" stroke="#66cdaa" d="M173.09,-34C208.55,-34 251.61,-34 288.42,-34"/>
<polygon fill="#66cdaa" stroke="#66cdaa" points="288.12,-37.5 298.12,-34 288.12,-30.5 288.12,-37.5"/>
<text text-anchor="middle" x="239.75" y="-36.45" font-family="Helvetica,sans-Serif" font-size="14.00" fill="#66cdaa">QueueEnd</text>
</g>
<!-- Level Once Sensor_weight -->
<g id="node3" class="node">
<title>Level Once Sensor_weight</title>
<polygon fill="none" stroke="black" stroke-dasharray="1,5" points="452.12,-106 290.38,-106 290.38,-70 452.12,-70 452.12,-106"/>
<text text-anchor="start" x="300.38" y="-82.58" font-family="Helvetica,sans-Serif" font-size="14.00">1 Attack_StartRunning &#160;</text>
</g>
<!-- Level Once Sensor&#45;&gt;Level Once Sensor_weight -->
<g id="edge2" class="edge">
<title>Level Once Sensor&#45;&gt;Level Once Sensor_weight</title>
<path fill="none" stroke="#458b74" d="M173.09,-48.33C205.6,-54.87 244.48,-62.69 279.1,-69.66"/>
<polygon fill="#458b74" stroke="#458b74" points="278.19,-73.05 288.69,-71.59 279.57,-66.18 278.19,-73.05"/>
<text text-anchor="middle" x="239.75" y="-69.87" font-family="Helvetica,sans-Serif" font-size="14.00" fill="#458b74">Weight</text>
</g>
<!-- RunAwaySensor -->
<g id="node4" class="node">
<title>RunAwaySensor</title>
<polygon fill="none" stroke="black" points="43.88,-78.12 43.88,-99.88 157.88,-99.88 157.88,-78.12 43.88,-78.12"/>
<text text-anchor="start" x="46.88" y="-83.58" font-family="Helvetica,sans-Serif" font-size="14.00">RunAwaySensor &#160;</text>
</g>
<!-- AttackSensor -->
<g id="node5" class="node">
<title>AttackSensor</title>
<polygon fill="none" stroke="black" points="45.38,-163.12 45.38,-184.88 156.38,-184.88 156.38,-163.12 45.38,-163.12"/>
<text text-anchor="start" x="57" y="-168.57" font-family="Helvetica,sans-Serif" font-size="14.00">AttackSensor &#160;</text>
<polygon fill="none" stroke="black" points="45.38,-131.12 45.38,-163.12 156.38,-163.12 156.38,-131.12 45.38,-131.12"/>
<text text-anchor="start" x="48.38" y="-149.72" font-family="Helvetica,sans-Serif" font-size="12.00" fill="#838b8b">if not: Not Engaging</text>
<text text-anchor="start" x="48.38" y="-135.82" font-family="Helvetica,sans-Serif" font-size="12.00" fill="#838b8b">if not: Not Attack1</text>
<text text-anchor="start" x="141.38" y="-135.82" font-family="Helvetica,sans-Serif" font-size="14.00"> &#160;</text>
</g>
<!-- AttackSensor_linked -->
<g id="node6" class="node">
<title>AttackSensor_linked</title>
<polygon fill="none" stroke="black" stroke-dasharray="1,5" points="442.48,-160 300.02,-160 300.02,-124 442.48,-124 442.48,-160"/>
<text text-anchor="start" x="305.62" y="-136.57" font-family="Helvetica,sans-Serif" font-size="14.00">Attack_StartRunning &#160;</text>
</g>
<!-- AttackSensor&#45;&gt;AttackSensor_linked -->
<g id="edge3" class="edge">
<title>AttackSensor&#45;&gt;AttackSensor_linked</title>
<path fill="none" stroke="#66cdaa" d="M164.12,-154.29C201.12,-152.08 248.49,-149.26 288.48,-146.87"/>
<polygon fill="#66cdaa" stroke="#66cdaa" points="288.54,-150.38 298.31,-146.29 288.12,-143.39 288.54,-150.38"/>
<text text-anchor="middle" x="239.75" y="-153.88" font-family="Helvetica,sans-Serif" font-size="14.00" fill="#66cdaa">QueueEnd</text>
</g>
<!-- AttackSensor_weight -->
<g id="node7" class="node">
<title>AttackSensor_weight</title>
<polygon fill="none" stroke="black" stroke-dasharray="1,5" points="452.12,-214 290.38,-214 290.38,-178 452.12,-178 452.12,-214"/>
<text text-anchor="start" x="300.38" y="-190.57" font-family="Helvetica,sans-Serif" font-size="14.00">1 Attack_StartRunning &#160;</text>
</g>
<!-- AttackSensor&#45;&gt;AttackSensor_weight -->
<g id="edge4" class="edge">
<title>AttackSensor&#45;&gt;AttackSensor_weight</title>
<path fill="none" stroke="#458b74" d="M164.12,-166.81C198.23,-171.64 241.14,-177.72 278.96,-183.07"/>
<polygon fill="#458b74" stroke="#458b74" points="278.11,-186.49 288.5,-184.43 279.09,-179.56 278.11,-186.49"/>
<text text-anchor="middle" x="239.75" y="-183.97" font-family="Helvetica,sans-Serif" font-size="14.00" fill="#458b74">Weight</text>
</g>
<!-- DodgePredictSensor -->
<g id="node8" class="node">
<title>DodgePredictSensor</title>
<polygon fill="none" stroke="black" points="31.88,-234 31.88,-255.75 169.88,-255.75 169.88,-234 31.88,-234"/>
<text text-anchor="start" x="34.88" y="-239.45" font-family="Helvetica,sans-Serif" font-size="14.00">DodgePredictSensor &#160;</text>
<polygon fill="none" stroke="black" points="31.88,-212.25 31.88,-234 169.88,-234 169.88,-212.25 31.88,-212.25"/>
<text text-anchor="start" x="34.88" y="-218.7" font-family="Helvetica,sans-Serif" font-size="12.00" fill="#838b8b">if: rollingCondition</text>
<text text-anchor="start" x="131.62" y="-218.7" font-family="Helvetica,sans-Serif" font-size="14.00"> &#160;</text>
</g>
<!-- DodgePredictSensor_linked -->
<g id="node9" class="node">
<title>DodgePredictSensor_linked</title>
<polygon fill="none" stroke="black" stroke-dasharray="1,5" points="442.48,-268 300.02,-268 300.02,-232 442.48,-232 442.48,-268"/>
<text text-anchor="start" x="305.62" y="-244.57" font-family="Helvetica,sans-Serif" font-size="14.00">Attack_StartRunning &#160;</text>
</g>
<!-- DodgePredictSensor&#45;&gt;DodgePredictSensor_linked -->
<g id="edge5" class="edge">
<title>DodgePredictSensor&#45;&gt;DodgePredictSensor_linked</title>
<path fill="none" stroke="#66cdaa" d="M177.7,-238.52C212.25,-240.58 253.21,-243.02 288.45,-245.12"/>
<polygon fill="#66cdaa" stroke="#66cdaa" points="287.97,-248.6 298.16,-245.7 288.39,-241.61 287.97,-248.6"/>
<text text-anchor="middle" x="239.75" y="-246.35" font-family="Helvetica,sans-Serif" font-size="14.00" fill="#66cdaa">QueueEnd</text>
</g>
<!-- AttackPredictSensor -->
<g id="node10" class="node">
<title>AttackPredictSensor</title>
<polygon fill="none" stroke="black" points="33,-304 33,-325.75 168.75,-325.75 168.75,-304 33,-304"/>
<text text-anchor="start" x="36" y="-309.45" font-family="Helvetica,sans-Serif" font-size="14.00">AttackPredictSensor &#160;</text>
<polygon fill="none" stroke="black" points="33,-282.25 33,-304 168.75,-304 168.75,-282.25 33,-282.25"/>
<text text-anchor="start" x="36" y="-288.7" font-family="Helvetica,sans-Serif" font-size="12.00" fill="#838b8b">if: attackCondition</text>
<text text-anchor="start" x="131.25" y="-288.7" font-family="Helvetica,sans-Serif" font-size="14.00"> &#160;</text>
</g>
<!-- AttackPredictSensor_linked -->
<g id="node11" class="node">
<title>AttackPredictSensor_linked</title>
<polygon fill="none" stroke="black" stroke-dasharray="1,5" points="442.48,-322 300.02,-322 300.02,-286 442.48,-286 442.48,-322"/>
<text text-anchor="start" x="305.62" y="-298.57" font-family="Helvetica,sans-Serif" font-size="14.00">Attack_StartRunning &#160;</text>
</g>
<!-- AttackPredictSensor&#45;&gt;AttackPredictSensor_linked -->
<g id="edge6" class="edge">
<title>AttackPredictSensor&#45;&gt;AttackPredictSensor_linked</title>
<path fill="none" stroke="#66cdaa" d="M176.63,-304C211.34,-304 252.7,-304 288.26,-304"/>
<polygon fill="#66cdaa" stroke="#66cdaa" points="288.07,-307.5 298.07,-304 288.07,-300.5 288.07,-307.5"/>
<text text-anchor="middle" x="239.75" y="-306.45" font-family="Helvetica,sans-Serif" font-size="14.00" fill="#66cdaa">QueueEnd</text>
</g>
<!-- AttackRunToSensor -->
<g id="node12" class="node">
<title>AttackRunToSensor</title>
<polygon fill="none" stroke="black" points="34.5,-374 34.5,-395.75 167.25,-395.75 167.25,-374 34.5,-374"/>
<text text-anchor="start" x="37.5" y="-379.45" font-family="Helvetica,sans-Serif" font-size="14.00">AttackRunToSensor &#160;</text>
<polygon fill="none" stroke="black" points="34.5,-352.25 34.5,-374 167.25,-374 167.25,-352.25 34.5,-352.25"/>
<text text-anchor="start" x="37.5" y="-358.7" font-family="Helvetica,sans-Serif" font-size="12.00" fill="#838b8b">if: state is Engaging</text>
<text text-anchor="start" x="141.75" y="-358.7" font-family="Helvetica,sans-Serif" font-size="14.00"> &#160;</text>
</g>
<!-- AttackRunToSensor_linked -->
<g id="node13" class="node">
<title>AttackRunToSensor_linked</title>
<polygon fill="none" stroke="black" stroke-dasharray="1,5" points="442.48,-376 300.02,-376 300.02,-340 442.48,-340 442.48,-376"/>
<text text-anchor="start" x="305.62" y="-352.57" font-family="Helvetica,sans-Serif" font-size="14.00">Attack_StartRunning &#160;</text>
</g>
<!-- AttackRunToSensor&#45;&gt;AttackRunToSensor_linked -->
<g id="edge7" class="edge">
<title>AttackRunToSensor&#45;&gt;AttackRunToSensor_linked</title>
<path fill="none" stroke="#66cdaa" d="M175.21,-369.63C210.22,-367.54 252.24,-365.04 288.3,-362.89"/>
<polygon fill="#66cdaa" stroke="#66cdaa" points="288.5,-366.38 298.27,-362.29 288.08,-359.39 288.5,-366.38"/>
<text text-anchor="middle" x="239.75" y="-369.88" font-family="Helvetica,sans-Serif" font-size="14.00" fill="#66cdaa">QueueEnd</text>
</g>
<!-- AttackSensorJump -->
<g id="node14" class="node">
<title>AttackSensorJump</title>
<polygon fill="none" stroke="black" points="34.12,-459.12 34.12,-480.88 167.62,-480.88 167.62,-459.12 34.12,-459.12"/>
<text text-anchor="start" x="40.12" y="-464.57" font-family="Helvetica,sans-Serif" font-size="14.00">AttackSensorJump &#160;</text>
<polygon fill="none" stroke="black" points="34.12,-427.12 34.12,-459.12 167.62,-459.12 167.62,-427.12 34.12,-427.12"/>
<text text-anchor="start" x="37.12" y="-445.73" font-family="Helvetica,sans-Serif" font-size="12.00" fill="#838b8b">if: state is Engaging</text>
<text text-anchor="start" x="37.12" y="-431.83" font-family="Helvetica,sans-Serif" font-size="12.00" fill="#838b8b">if not: not above player</text>
<text text-anchor="start" x="157.12" y="-431.83" font-family="Helvetica,sans-Serif" font-size="14.00"> &#160;</text>
</g>
<!-- AttackSensorJump_linked -->
<g id="node15" class="node">
<title>AttackSensorJump_linked</title>
<polygon fill="none" stroke="black" stroke-dasharray="1,5" points="442.48,-430 300.02,-430 300.02,-394 442.48,-394 442.48,-430"/>
<text text-anchor="start" x="305.62" y="-406.57" font-family="Helvetica,sans-Serif" font-size="14.00">Attack_StartRunning &#160;</text>
</g>
<!-- AttackSensorJump&#45;&gt;AttackSensorJump_linked -->
<g id="edge8" class="edge">
<title>AttackSensorJump&#45;&gt;AttackSensorJump_linked</title>
<path fill="none" stroke="#66cdaa" d="M175.56,-442.47C210.72,-436.97 252.89,-430.37 288.97,-424.72"/>
<polygon fill="#66cdaa" stroke="#66cdaa" points="289.13,-428.24 298.47,-423.23 288.04,-421.32 289.13,-428.24"/>
<text text-anchor="middle" x="239.75" y="-439.21" font-family="Helvetica,sans-Serif" font-size="14.00" fill="#66cdaa">QueueEnd</text>
</g>
<!-- AttackSensorJump_weight -->
<g id="node16" class="node">
<title>AttackSensorJump_weight</title>
<polygon fill="none" stroke="black" stroke-dasharray="1,5" points="429.62,-484 312.88,-484 312.88,-448 429.62,-448 429.62,-484"/>
<text text-anchor="start" x="322.88" y="-460.57" font-family="Helvetica,sans-Serif" font-size="14.00">1 Attack_Jump &#160;</text>
</g>
<!-- AttackSensorJump&#45;&gt;AttackSensorJump_weight -->
<g id="edge9" class="edge">
<title>AttackSensorJump&#45;&gt;AttackSensorJump_weight</title>
<path fill="none" stroke="#458b74" d="M175.56,-457.29C214.83,-459.05 262.83,-461.2 301.35,-462.92"/>
<polygon fill="#458b74" stroke="#458b74" points="300.8,-466.4 310.94,-463.35 301.11,-459.4 300.8,-466.4"/>
<text text-anchor="middle" x="239.75" y="-463.88" font-family="Helvetica,sans-Serif" font-size="14.00" fill="#458b74">Weight</text>
</g>
<!-- AttackSensorNotReach -->
<g id="node17" class="node">
<title>AttackSensorNotReach</title>
<polygon fill="none" stroke="black" points="24,-537.12 24,-558.88 177.75,-558.88 177.75,-537.12 24,-537.12"/>
<text text-anchor="start" x="27" y="-542.58" font-family="Helvetica,sans-Serif" font-size="14.00">AttackSensorNotReach &#160;</text>
</g>
<!-- AttackSensorNotReach_linked -->
<g id="node18" class="node">
<title>AttackSensorNotReach_linked</title>
<polygon fill="none" stroke="black" stroke-dasharray="1,5" points="442.48,-538 300.02,-538 300.02,-502 442.48,-502 442.48,-538"/>
<text text-anchor="start" x="305.62" y="-514.58" font-family="Helvetica,sans-Serif" font-size="14.00">Attack_StartRunning &#160;</text>
</g>
<!-- AttackSensorNotReach&#45;&gt;AttackSensorNotReach_linked -->
<g id="edge10" class="edge">
<title>AttackSensorNotReach&#45;&gt;AttackSensorNotReach_linked</title>
<path fill="none" stroke="#66cdaa" d="M185.69,-539.26C218.43,-535.84 255.85,-531.94 288.41,-528.54"/>
<polygon fill="#66cdaa" stroke="#66cdaa" points="288.61,-532.04 298.2,-527.52 287.89,-525.07 288.61,-532.04"/>
<text text-anchor="middle" x="239.75" y="-538.96" font-family="Helvetica,sans-Serif" font-size="14.00" fill="#66cdaa">QueueEnd</text>
</g>
<!-- AttackSensorNotReach_weight -->
<g id="node19" class="node">
<title>AttackSensorNotReach_weight</title>
<polygon fill="none" stroke="black" stroke-dasharray="1,5" points="452.12,-592 290.38,-592 290.38,-556 452.12,-556 452.12,-592"/>
<text text-anchor="start" x="300.38" y="-568.58" font-family="Helvetica,sans-Serif" font-size="14.00">1 Attack_StartRunning &#160;</text>
</g>
<!-- AttackSensorNotReach&#45;&gt;AttackSensorNotReach_weight -->
<g id="edge11" class="edge">
<title>AttackSensorNotReach&#45;&gt;AttackSensorNotReach_weight</title>
<path fill="none" stroke="#458b74" d="M185.69,-556.12C215.28,-558.99 248.7,-562.22 278.88,-565.15"/>
<polygon fill="#458b74" stroke="#458b74" points="278.48,-568.63 288.78,-566.11 279.16,-561.66 278.48,-568.63"/>
<text text-anchor="middle" x="239.75" y="-566.54" font-family="Helvetica,sans-Serif" font-size="14.00" fill="#458b74">Weight</text>
</g>
<!-- Attack_StartRunning -->
<g id="node20" class="node">
<title>Attack_StartRunning</title>
<polygon fill="none" stroke="black" points="302.62,-668.12 302.62,-689.88 439.88,-689.88 439.88,-668.12 302.62,-668.12"/>
<text text-anchor="start" x="305.62" y="-673.58" font-family="Helvetica,sans-Serif" font-size="14.00">Attack_StartRunning &#160;</text>
<polygon fill="none" stroke="black" points="302.62,-636.12 302.62,-668.12 439.88,-668.12 439.88,-636.12 302.62,-636.12"/>
<text text-anchor="start" x="305.62" y="-654.73" font-family="Helvetica,sans-Serif" font-size="12.00" fill="#838b8b">0.25s: LinkNextMove</text>
<text text-anchor="start" x="305.62" y="-640.83" font-family="Helvetica,sans-Serif" font-size="12.00" fill="#838b8b">0.67s: Done</text>
<text text-anchor="start" x="370.12" y="-640.83" font-family="Helvetica,sans-Serif" font-size="14.00"> &#160;</text>
</g>
<!-- Engaging -->
<g id="node21" class="node">
<title>Engaging</title>
<polygon fill="none" stroke="black" points="625,-749 552,-749 552,-713 625,-713 625,-749"/>
<text text-anchor="middle" x="588.5" y="-725.58" font-family="Helvetica,sans-Serif" font-size="14.00">Engaging</text>
</g>
<!-- Attack_StartRunning&#45;&gt;Engaging -->
<g id="edge12" class="edge">
<title>Attack_StartRunning&#45;&gt;Engaging</title>
<path fill="none" stroke="#cdc8b1" d="M447.84,-686.88C478.82,-696.67 513.7,-707.69 540.85,-716.26"/>
<polygon fill="#cdc8b1" stroke="#cdc8b1" points="539.57,-719.53 550.16,-719.2 541.68,-712.85 539.57,-719.53"/>
</g>
<!-- Attack_StartRunning_weight -->
<g id="node22" class="node">
<title>Attack_StartRunning_weight</title>
<polygon fill="none" stroke="black" stroke-dasharray="1,5" points="646.88,-686.75 530.12,-686.75 530.12,-639.25 646.88,-639.25 646.88,-686.75"/>
<text text-anchor="start" x="540.12" y="-667.45" font-family="Helvetica,sans-Serif" font-size="14.00">1 Attack_Jump &#160;</text>
<text text-anchor="start" x="566" y="-647.7" font-family="Helvetica,sans-Serif" font-size="14.00">1 Skip &#160;</text>
</g>
<!-- Attack_StartRunning&#45;&gt;Attack_StartRunning_weight -->
<g id="edge13" class="edge">
<title>Attack_StartRunning&#45;&gt;Attack_StartRunning_weight</title>
<path fill="none" stroke="#458b74" d="M447.84,-663C470.74,-663 495.77,-663 518.23,-663"/>
<polygon fill="#458b74" stroke="#458b74" points="518.21,-666.5 528.21,-663 518.21,-659.5 518.21,-666.5"/>
<text text-anchor="middle" x="491.12" y="-665.45" font-family="Helvetica,sans-Serif" font-size="14.00" fill="#458b74">Weight</text>
</g>
<!-- Attack_Grabbed_absorb -->
<g id="node23" class="node">
<title>Attack_Grabbed_absorb</title>
<polygon fill="none" stroke="black" points="20.62,-741.12 20.62,-762.88 181.12,-762.88 181.12,-741.12 20.62,-741.12"/>
<text text-anchor="start" x="23.62" y="-746.58" font-family="Helvetica,sans-Serif" font-size="14.00">Attack_Grabbed_absorb &#160;</text>
<polygon fill="none" stroke="black" points="20.62,-709.12 20.62,-741.12 181.12,-741.12 181.12,-709.12 20.62,-709.12"/>
<text text-anchor="start" x="23.62" y="-727.73" font-family="Helvetica,sans-Serif" font-size="12.00" fill="#838b8b">0.33s: Done</text>
<text text-anchor="start" x="23.62" y="-713.83" font-family="Helvetica,sans-Serif" font-size="12.00" fill="#838b8b">0.67s: LinkNextMove</text>
<text text-anchor="start" x="135.38" y="-713.83" font-family="Helvetica,sans-Serif" font-size="14.00"> &#160;</text>
</g>
<!-- Attack_Grabbed_absorb&#45;&gt;Attack_StartRunning -->
<g id="edge14" class="edge">
<title>Attack_Grabbed_absorb&#45;&gt;Attack_StartRunning</title>
<path fill="none" stroke="#cdc8b1" d="M189.01,-712.3C219.41,-704.03 253.49,-694.76 283.83,-686.51"/>
<polygon fill="#cdc8b1" stroke="#cdc8b1" points="284.64,-689.91 293.37,-683.91 282.8,-683.16 284.64,-689.91"/>
</g>
<!-- Attack_Jump -->
<g id="node24" class="node">
<title>Attack_Jump</title>
<polygon fill="none" stroke="black" points="325.12,-738 325.12,-759.75 417.38,-759.75 417.38,-738 325.12,-738"/>
<text text-anchor="start" x="328.12" y="-743.45" font-family="Helvetica,sans-Serif" font-size="14.00">Attack_Jump &#160;</text>
<polygon fill="none" stroke="black" points="325.12,-716.25 325.12,-738 417.38,-738 417.38,-716.25 325.12,-716.25"/>
<text text-anchor="start" x="328.12" y="-722.7" font-family="Helvetica,sans-Serif" font-size="12.00" fill="#838b8b">0.67s: Done</text>
<text text-anchor="start" x="392.62" y="-722.7" font-family="Helvetica,sans-Serif" font-size="14.00"> &#160;</text>
</g>
<!-- Attack_Jump&#45;&gt;Engaging -->
<g id="edge15" class="edge">
<title>Attack_Jump&#45;&gt;Engaging</title>
<path fill="none" stroke="#cdc8b1" d="M425.18,-736.28C460.37,-735.13 506.18,-733.64 540.16,-732.54"/>
<polygon fill="#cdc8b1" stroke="#cdc8b1" points="540.25,-736.04 550.13,-732.22 540.02,-729.04 540.25,-736.04"/>
</g>
<!-- FakeDead -->
<g id="node25" class="node">
<title>FakeDead</title>
<polygon fill="none" stroke="black" points="42,-849.12 42,-870.88 159.75,-870.88 159.75,-849.12 42,-849.12"/>
<text text-anchor="start" x="66" y="-854.58" font-family="Helvetica,sans-Serif" font-size="14.00">FakeDead &#160;</text>
<polygon fill="none" stroke="black" points="42,-805.12 42,-849.12 159.75,-849.12 159.75,-805.12 42,-805.12"/>
<text text-anchor="start" x="45" y="-835.73" font-family="Helvetica,sans-Serif" font-size="12.00" fill="#838b8b">0.00s: EnableGravity</text>
<text text-anchor="start" x="45" y="-823.73" font-family="Helvetica,sans-Serif" font-size="12.00" fill="#838b8b">1.50s: LinkNextMove</text>
<text text-anchor="start" x="45" y="-809.83" font-family="Helvetica,sans-Serif" font-size="12.00" fill="#838b8b">2.00s: Done</text>
<text text-anchor="start" x="109.5" y="-809.83" font-family="Helvetica,sans-Serif" font-size="14.00"> &#160;</text>
</g>
<!-- Revive -->
<g id="node26" class="node">
<title>Revive</title>
<polygon fill="none" stroke="black" points="399.88,-872 342.62,-872 342.62,-836 399.88,-836 399.88,-872"/>
<text text-anchor="middle" x="371.25" y="-848.58" font-family="Helvetica,sans-Serif" font-size="14.00">Revive</text>
</g>
<!-- FakeDead&#45;&gt;Revive -->
<g id="edge16" class="edge">
<title>FakeDead&#45;&gt;Revive</title>
<path fill="none" stroke="#cdc8b1" d="M167.53,-841.91C218.73,-844.97 288.14,-849.1 331.02,-851.66"/>
<polygon fill="#cdc8b1" stroke="#cdc8b1" points="330.67,-855.15 340.86,-852.25 331.09,-848.16 330.67,-855.15"/>
</g>
<!-- FakeDead_weight -->
<g id="node27" class="node">
<title>FakeDead_weight</title>
<polygon fill="none" stroke="black" stroke-dasharray="1,5" points="411.25,-818 331.25,-818 331.25,-782 411.25,-782 411.25,-818"/>
<text text-anchor="start" x="341.25" y="-794.58" font-family="Helvetica,sans-Serif" font-size="14.00">1 Revive &#160;</text>
</g>
<!-- FakeDead&#45;&gt;FakeDead_weight -->
<g id="edge17" class="edge">
<title>FakeDead&#45;&gt;FakeDead_weight</title>
<path fill="none" stroke="#458b74" d="M167.53,-828.7C214.44,-822.06 276.62,-813.26 319.69,-807.16"/>
<polygon fill="#458b74" stroke="#458b74" points="320.12,-810.63 329.53,-805.77 319.14,-803.7 320.12,-810.63"/>
<text text-anchor="middle" x="239.75" y="-824.85" font-family="Helvetica,sans-Serif" font-size="14.00" fill="#458b74">Weight</text>
</g>
<!-- HurtState -->
<g id="node28" class="node">
<title>HurtState</title>
<polygon fill="none" stroke="black" points="61.88,-661 61.88,-682.75 139.88,-682.75 139.88,-661 61.88,-661"/>
<text text-anchor="start" x="68.62" y="-666.45" font-family="Helvetica,sans-Serif" font-size="14.00">HurtState &#160;</text>
<polygon fill="none" stroke="black" points="61.88,-639.25 61.88,-661 139.88,-661 139.88,-639.25 61.88,-639.25"/>
<text text-anchor="start" x="64.88" y="-645.7" font-family="Helvetica,sans-Serif" font-size="12.00" fill="#838b8b">0.33s: Done</text>
<text text-anchor="start" x="129.38" y="-645.7" font-family="Helvetica,sans-Serif" font-size="14.00"> &#160;</text>
</g>
<!-- HurtState&#45;&gt;Attack_StartRunning -->
<g id="edge18" class="edge">
<title>HurtState&#45;&gt;Attack_StartRunning</title>
<path fill="none" stroke="#cdc8b1" d="M147.71,-661.34C184.83,-661.62 238.2,-662.02 283.37,-662.35"/>
<polygon fill="#cdc8b1" stroke="#cdc8b1" points="283.12,-665.85 293.15,-662.43 283.17,-658.85 283.12,-665.85"/>
</g>
<!-- Hurt_BigState -->
<g id="node29" class="node">
<title>Hurt_BigState</title>
<polygon fill="none" stroke="black" points="52.12,-919 52.12,-940.75 149.62,-940.75 149.62,-919 52.12,-919"/>
<text text-anchor="start" x="55.12" y="-924.45" font-family="Helvetica,sans-Serif" font-size="14.00">Hurt_BigState &#160;</text>
<polygon fill="none" stroke="black" points="52.12,-897.25 52.12,-919 149.62,-919 149.62,-897.25 52.12,-897.25"/>
<text text-anchor="start" x="55.12" y="-903.7" font-family="Helvetica,sans-Serif" font-size="12.00" fill="#838b8b">0.33s: Done</text>
<text text-anchor="start" x="119.62" y="-903.7" font-family="Helvetica,sans-Serif" font-size="14.00"> &#160;</text>
</g>
<!-- PostureBreak -->
<g id="node30" class="node">
<title>PostureBreak</title>
<polygon fill="none" stroke="black" points="53.25,-989 53.25,-1010.75 148.5,-1010.75 148.5,-989 53.25,-989"/>
<text text-anchor="start" x="56.25" y="-994.45" font-family="Helvetica,sans-Serif" font-size="14.00">PostureBreak &#160;</text>
<polygon fill="none" stroke="black" points="53.25,-967.25 53.25,-989 148.5,-989 148.5,-967.25 53.25,-967.25"/>
<text text-anchor="start" x="56.25" y="-973.7" font-family="Helvetica,sans-Serif" font-size="12.00" fill="#838b8b">0.50s: Done</text>
<text text-anchor="start" x="120.75" y="-973.7" font-family="Helvetica,sans-Serif" font-size="14.00"> &#160;</text>
</g>
<!-- Wandering_Idle -->
<g id="node31" class="node">
<title>Wandering_Idle</title>
<polygon fill="none" stroke="black" points="171.5,-1069 30.25,-1069 30.25,-1033 171.5,-1033 171.5,-1069"/>
<text text-anchor="middle" x="100.88" y="-1045.58" font-family="Helvetica,sans-Serif" font-size="14.00">Wandering_Idle (Init)</text>
</g>
</g>
</svg>
