<?xml version="1.0" encoding="UTF-8" standalone="no"?>
<!DOCTYPE svg PUBLIC "-//W3C//DTD SVG 1.1//EN"
 "http://www.w3.org/Graphics/SVG/1.1/DTD/svg11.dtd">
<!-- Generated by graphviz version 12.2.1 (20241206.2353)
 -->
<!-- Title: Foo Pages: 1 -->
<svg width="419pt" height="536pt"
 viewBox="0.00 0.00 418.95 535.75" xmlns="http://www.w3.org/2000/svg" xmlns:xlink="http://www.w3.org/1999/xlink">
<g id="graph0" class="graph" transform="scale(1 1) rotate(0) translate(4 531.75)">
<title>Foo</title>
<polygon fill="white" stroke="none" points="-4,4 -4,-531.75 414.95,-531.75 414.95,4 -4,4"/>
<g id="clust1" class="cluster">
<title>cluster_attacksensors</title>
<polygon fill="none" stroke="black" points="8,-265.75 8,-519.75 402.95,-519.75 402.95,-265.75 8,-265.75"/>
<text text-anchor="middle" x="205.48" y="-502.45" font-family="Helvetica,sans-Serif" font-size="14.00">Attack Sensors</text>
</g>
<!-- FlyingDashAttack -->
<g id="node1" class="node">
<title>FlyingDashAttack</title>
<polygon fill="none" stroke="black" points="33.75,-175.88 33.75,-197.62 152.25,-197.62 152.25,-175.88 33.75,-175.88"/>
<text text-anchor="start" x="36.75" y="-181.32" font-family="Helvetica,sans-Serif" font-size="14.00">FlyingDashAttack &#160;</text>
<polygon fill="none" stroke="black" points="33.75,-143.88 33.75,-175.88 152.25,-175.88 152.25,-143.88 33.75,-143.88"/>
<text text-anchor="start" x="36.75" y="-162.47" font-family="Helvetica,sans-Serif" font-size="12.00" fill="#838b8b">0.33s: CheckFacing</text>
<text text-anchor="start" x="36.75" y="-148.57" font-family="Helvetica,sans-Serif" font-size="12.00" fill="#838b8b">1.53s: Done</text>
<text text-anchor="start" x="101.25" y="-148.57" font-family="Helvetica,sans-Serif" font-size="14.00"> &#160;</text>
</g>
<!-- Engaging -->
<g id="node2" class="node">
<title>Engaging</title>
<polygon fill="none" stroke="black" points="369.6,-113.75 296.6,-113.75 296.6,-77.75 369.6,-77.75 369.6,-113.75"/>
<text text-anchor="middle" x="333.1" y="-90.33" font-family="Helvetica,sans-Serif" font-size="14.00">Engaging</text>
</g>
<!-- FlyingDashAttack&#45;&gt;Engaging -->
<g id="edge1" class="edge">
<title>FlyingDashAttack&#45;&gt;Engaging</title>
<path fill="none" stroke="#cdc8b1" d="M160.01,-149.96C199.92,-137.39 249.83,-121.66 285.61,-110.4"/>
<polygon fill="#cdc8b1" stroke="#cdc8b1" points="286.3,-113.85 294.78,-107.5 284.2,-107.17 286.3,-113.85"/>
</g>
<!-- Hurt1 -->
<g id="node3" class="node">
<title>Hurt1</title>
<polygon fill="none" stroke="black" points="54,-95.75 54,-117.5 132,-117.5 132,-95.75 54,-95.75"/>
<text text-anchor="start" x="72.75" y="-101.2" font-family="Helvetica,sans-Serif" font-size="14.00">Hurt1 &#160;</text>
<polygon fill="none" stroke="black" points="54,-74 54,-95.75 132,-95.75 132,-74 54,-74"/>
<text text-anchor="start" x="57" y="-80.45" font-family="Helvetica,sans-Serif" font-size="12.00" fill="#838b8b">0.25s: Done</text>
<text text-anchor="start" x="121.5" y="-80.45" font-family="Helvetica,sans-Serif" font-size="14.00"> &#160;</text>
</g>
<!-- Hurt1&#45;&gt;Engaging -->
<g id="edge2" class="edge">
<title>Hurt1&#45;&gt;Engaging</title>
<path fill="none" stroke="#cdc8b1" d="M139.91,-95.75C181.66,-95.75 243,-95.75 285.09,-95.75"/>
<polygon fill="#cdc8b1" stroke="#cdc8b1" points="284.91,-99.25 294.91,-95.75 284.91,-92.25 284.91,-99.25"/>
</g>
<!-- Hurt2 -->
<g id="node4" class="node">
<title>Hurt2</title>
<polygon fill="none" stroke="black" points="54,-25.75 54,-47.5 132,-47.5 132,-25.75 54,-25.75"/>
<text text-anchor="start" x="72.75" y="-31.2" font-family="Helvetica,sans-Serif" font-size="14.00">Hurt2 &#160;</text>
<polygon fill="none" stroke="black" points="54,-4 54,-25.75 132,-25.75 132,-4 54,-4"/>
<text text-anchor="start" x="57" y="-10.45" font-family="Helvetica,sans-Serif" font-size="12.00" fill="#838b8b">0.25s: Done</text>
<text text-anchor="start" x="121.5" y="-10.45" font-family="Helvetica,sans-Serif" font-size="14.00"> &#160;</text>
</g>
<!-- Hurt2&#45;&gt;Engaging -->
<g id="edge3" class="edge">
<title>Hurt2&#45;&gt;Engaging</title>
<path fill="none" stroke="#cdc8b1" d="M139.91,-39.25C181.84,-51.57 243.53,-69.71 285.63,-82.09"/>
<polygon fill="#cdc8b1" stroke="#cdc8b1" points="284.39,-85.37 294.97,-84.83 286.36,-78.66 284.39,-85.37"/>
</g>
<!-- Idle -->
<g id="node5" class="node">
<title>Idle</title>
<polygon fill="none" stroke="black" points="127.25,-255.75 58.75,-255.75 58.75,-219.75 127.25,-219.75 127.25,-255.75"/>
<text text-anchor="middle" x="93" y="-232.32" font-family="Helvetica,sans-Serif" font-size="14.00">Idle (Init)</text>
</g>
<!-- Level Once Sensor -->
<g id="node6" class="node">
<title>Level Once Sensor</title>
<polygon fill="none" stroke="black" points="158.75,-309.75 27.25,-309.75 27.25,-273.75 158.75,-273.75 158.75,-309.75"/>
<text text-anchor="middle" x="93" y="-286.32" font-family="Helvetica,sans-Serif" font-size="14.00">Level Once Sensor</text>
</g>
<!-- Level Once Sensor_linked -->
<g id="node7" class="node">
<title>Level Once Sensor_linked</title>
<polygon fill="none" stroke="black" stroke-dasharray="1,5" points="394.95,-309.75 271.25,-309.75 271.25,-273.75 394.95,-273.75 394.95,-309.75"/>
<text text-anchor="start" x="276.85" y="-286.32" font-family="Helvetica,sans-Serif" font-size="14.00">FlyingDashAttack &#160;</text>
</g>
<!-- Level Once Sensor&#45;&gt;Level Once Sensor_linked -->
<g id="edge4" class="edge">
<title>Level Once Sensor&#45;&gt;Level Once Sensor_linked</title>
<path fill="none" stroke="#66cdaa" d="M159.06,-291.75C190.22,-291.75 227.65,-291.75 259.71,-291.75"/>
<polygon fill="#66cdaa" stroke="#66cdaa" points="259.29,-295.25 269.29,-291.75 259.29,-288.25 259.29,-295.25"/>
<text text-anchor="middle" x="220.63" y="-294.2" font-family="Helvetica,sans-Serif" font-size="14.00" fill="#66cdaa">QueueEnd</text>
</g>
<!-- Level Once Sensor_mustuse -->
<g id="node8" class="node">
<title>Level Once Sensor_mustuse</title>
<polygon fill="none" stroke="black" stroke-dasharray="1,5" points="383.23,-363.75 282.98,-363.75 282.98,-327.75 383.23,-327.75 383.23,-363.75"/>
<text text-anchor="start" x="292.98" y="-340.32" font-family="Helvetica,sans-Serif" font-size="14.00">1 Undefined &#160;</text>
</g>
<!-- Level Once Sensor&#45;&gt;Level Once Sensor_mustuse -->
<g id="edge5" class="edge">
<title>Level Once Sensor&#45;&gt;Level Once Sensor_mustuse</title>
<path fill="none" stroke="#458b74" d="M159.06,-306.51C194.22,-314.48 237.35,-324.26 271.76,-332.07"/>
<polygon fill="#458b74" stroke="#458b74" points="270.6,-335.39 281.13,-334.19 272.15,-328.56 270.6,-335.39"/>
<text text-anchor="middle" x="220.63" y="-329.19" font-family="Helvetica,sans-Serif" font-size="14.00" fill="#458b74">Weight</text>
</g>
<!-- RunAwaySensor -->
<g id="node9" class="node">
<title>RunAwaySensor</title>
<polygon fill="none" stroke="black" points="151.25,-363.75 34.75,-363.75 34.75,-327.75 151.25,-327.75 151.25,-363.75"/>
<text text-anchor="middle" x="93" y="-340.32" font-family="Helvetica,sans-Serif" font-size="14.00">RunAwaySensor</text>
</g>
<!-- AttackSensor -->
<g id="node10" class="node">
<title>AttackSensor</title>
<polygon fill="none" stroke="black" points="141.12,-417.75 44.88,-417.75 44.88,-381.75 141.12,-381.75 141.12,-417.75"/>
<text text-anchor="middle" x="93" y="-394.32" font-family="Helvetica,sans-Serif" font-size="14.00">AttackSensor</text>
</g>
<!-- AttackSensor_linked -->
<g id="node11" class="node">
<title>AttackSensor_linked</title>
<polygon fill="none" stroke="black" stroke-dasharray="1,5" points="394.95,-417.75 271.25,-417.75 271.25,-381.75 394.95,-381.75 394.95,-417.75"/>
<text text-anchor="start" x="276.85" y="-394.32" font-family="Helvetica,sans-Serif" font-size="14.00">FlyingDashAttack &#160;</text>
</g>
<!-- AttackSensor&#45;&gt;AttackSensor_linked -->
<g id="edge6" class="edge">
<title>AttackSensor&#45;&gt;AttackSensor_linked</title>
<path fill="none" stroke="#66cdaa" d="M141.61,-399.75C175.45,-399.75 221.52,-399.75 259.88,-399.75"/>
<polygon fill="#66cdaa" stroke="#66cdaa" points="259.48,-403.25 269.48,-399.75 259.48,-396.25 259.48,-403.25"/>
<text text-anchor="middle" x="220.63" y="-402.2" font-family="Helvetica,sans-Serif" font-size="14.00" fill="#66cdaa">QueueEnd</text>
</g>
<!-- DodgePredictSensor -->
<g id="node12" class="node">
<title>DodgePredictSensor</title>
<polygon fill="none" stroke="black" points="24,-461.75 24,-483.5 162,-483.5 162,-461.75 24,-461.75"/>
<text text-anchor="start" x="27" y="-467.2" font-family="Helvetica,sans-Serif" font-size="14.00">DodgePredictSensor &#160;</text>
<polygon fill="none" stroke="black" points="24,-440 24,-461.75 162,-461.75 162,-440 24,-440"/>
<text text-anchor="start" x="27" y="-446.45" font-family="Helvetica,sans-Serif" font-size="12.00" fill="#838b8b">if: Dodge</text>
<text text-anchor="start" x="75" y="-446.45" font-family="Helvetica,sans-Serif" font-size="14.00"> &#160;</text>
</g>
<!-- DodgePredictSensor_linked -->
<g id="node13" class="node">
<title>DodgePredictSensor_linked</title>
<polygon fill="none" stroke="black" stroke-dasharray="1,5" points="394.95,-479.75 271.25,-479.75 271.25,-443.75 394.95,-443.75 394.95,-479.75"/>
<text text-anchor="start" x="276.85" y="-456.32" font-family="Helvetica,sans-Serif" font-size="14.00">FlyingDashAttack &#160;</text>
</g>
<!-- DodgePredictSensor&#45;&gt;DodgePredictSensor_linked -->
<g id="edge7" class="edge">
<title>DodgePredictSensor&#45;&gt;DodgePredictSensor_linked</title>
<path fill="none" stroke="#66cdaa" d="M169.99,-461.75C198.7,-461.75 231.27,-461.75 259.64,-461.75"/>
<polygon fill="#66cdaa" stroke="#66cdaa" points="259.6,-465.25 269.6,-461.75 259.6,-458.25 259.6,-465.25"/>
<text text-anchor="middle" x="220.63" y="-464.2" font-family="Helvetica,sans-Serif" font-size="14.00" fill="#66cdaa">QueueEnd</text>
</g>
</g>
</svg>
