<?xml version="1.0" encoding="UTF-8" standalone="no"?>
<!DOCTYPE svg PUBLIC "-//W3C//DTD SVG 1.1//EN"
 "http://www.w3.org/Graphics/SVG/1.1/DTD/svg11.dtd">
<!-- Generated by graphviz version 12.2.1 (20241206.2353)
 -->
<!-- Title: Foo Pages: 1 -->
<svg width="479pt" height="1919pt"
 viewBox="0.00 0.00 478.75 1919.00" xmlns="http://www.w3.org/2000/svg" xmlns:xlink="http://www.w3.org/1999/xlink">
<g id="graph0" class="graph" transform="scale(1 1) rotate(0) translate(4 1915)">
<title>Foo</title>
<polygon fill="white" stroke="none" points="-4,4 -4,-1915 474.75,-1915 474.75,4 -4,4"/>
<g id="clust1" class="cluster">
<title>cluster_attacksensors</title>
<polygon fill="none" stroke="black" points="8,-8 8,-633 462.75,-633 462.75,-8 8,-8"/>
<text text-anchor="middle" x="235.38" y="-615.7" font-family="Helvetica,sans-Serif" font-size="14.00">Attack Sensors</text>
</g>
<!-- Level Once Sensor -->
<g id="node1" class="node">
<title>Level Once Sensor</title>
<polygon fill="none" stroke="black" points="28.5,-29.12 28.5,-50.88 157.5,-50.88 157.5,-29.12 28.5,-29.12"/>
<text text-anchor="start" x="31.5" y="-34.58" font-family="Helvetica,sans-Serif" font-size="14.00">Level Once Sensor &#160;</text>
</g>
<!-- Level Once Sensor_linked -->
<g id="node2" class="node">
<title>Level Once Sensor_linked</title>
<polygon fill="none" stroke="black" stroke-dasharray="1,5" points="427.85,-52 304.9,-52 304.9,-16 427.85,-16 427.85,-52"/>
<text text-anchor="start" x="310.5" y="-28.57" font-family="Helvetica,sans-Serif" font-size="14.00">Attack1 RunPush &#160;</text>
</g>
<!-- Level Once Sensor&#45;&gt;Level Once Sensor_linked -->
<g id="edge1" class="edge">
<title>Level Once Sensor&#45;&gt;Level Once Sensor_linked</title>
<path fill="none" stroke="#66cdaa" d="M165.3,-38.42C204.75,-37.55 253.65,-36.47 293.23,-35.6"/>
<polygon fill="#66cdaa" stroke="#66cdaa" points="293.23,-39.1 303.15,-35.38 293.08,-32.1 293.23,-39.1"/>
<text text-anchor="middle" x="227.38" y="-40.16" font-family="Helvetica,sans-Serif" font-size="14.00" fill="#66cdaa">QueueEnd</text>
</g>
<!-- Level Once Sensor_weight -->
<g id="node3" class="node">
<title>Level Once Sensor_weight</title>
<polygon fill="none" stroke="black" stroke-dasharray="1,5" points="437.5,-106 295.25,-106 295.25,-70 437.5,-70 437.5,-106"/>
<text text-anchor="start" x="305.25" y="-82.58" font-family="Helvetica,sans-Serif" font-size="14.00">1 Attack1 RunPush &#160;</text>
</g>
<!-- Level Once Sensor&#45;&gt;Level Once Sensor_weight -->
<g id="edge2" class="edge">
<title>Level Once Sensor&#45;&gt;Level Once Sensor_weight</title>
<path fill="none" stroke="#458b74" d="M165.3,-52.61C201.75,-59.06 246.26,-66.93 284.04,-73.61"/>
<polygon fill="#458b74" stroke="#458b74" points="283.07,-77 293.53,-75.29 284.29,-70.1 283.07,-77"/>
<text text-anchor="middle" x="227.38" y="-70.75" font-family="Helvetica,sans-Serif" font-size="14.00" fill="#458b74">Weight</text>
</g>
<!-- RunAwaySensor -->
<g id="node4" class="node">
<title>RunAwaySensor</title>
<polygon fill="none" stroke="black" points="36,-114.12 36,-135.88 150,-135.88 150,-114.12 36,-114.12"/>
<text text-anchor="start" x="39" y="-119.58" font-family="Helvetica,sans-Serif" font-size="14.00">RunAwaySensor &#160;</text>
</g>
<!-- AttackSensor -->
<g id="node5" class="node">
<title>AttackSensor</title>
<polygon fill="none" stroke="black" points="34.12,-202 34.12,-223.75 151.88,-223.75 151.88,-202 34.12,-202"/>
<text text-anchor="start" x="49.12" y="-207.45" font-family="Helvetica,sans-Serif" font-size="14.00">AttackSensor &#160;</text>
<polygon fill="none" stroke="black" points="34.12,-180.25 34.12,-202 151.88,-202 151.88,-180.25 34.12,-180.25"/>
<text text-anchor="start" x="37.12" y="-186.7" font-family="Helvetica,sans-Serif" font-size="12.00" fill="#838b8b">if: state is PreAttack</text>
<text text-anchor="start" x="141.38" y="-186.7" font-family="Helvetica,sans-Serif" font-size="14.00"> &#160;</text>
</g>
<!-- AttackSensor_linked -->
<g id="node6" class="node">
<title>AttackSensor_linked</title>
<polygon fill="none" stroke="black" stroke-dasharray="1,5" points="415.85,-160 316.9,-160 316.9,-124 415.85,-124 415.85,-160"/>
<text text-anchor="start" x="322.5" y="-136.57" font-family="Helvetica,sans-Serif" font-size="14.00">DoubleAttack &#160;</text>
</g>
<!-- AttackSensor&#45;&gt;AttackSensor_linked -->
<g id="edge3" class="edge">
<title>AttackSensor&#45;&gt;AttackSensor_linked</title>
<path fill="none" stroke="#66cdaa" d="M159.69,-187.48C204.04,-177.67 262.13,-164.83 305.26,-155.29"/>
<polygon fill="#66cdaa" stroke="#66cdaa" points="305.96,-158.72 314.97,-153.14 304.45,-151.89 305.96,-158.72"/>
<text text-anchor="middle" x="227.38" y="-181.59" font-family="Helvetica,sans-Serif" font-size="14.00" fill="#66cdaa">QueueEnd</text>
</g>
<!-- AttackSensor_weight -->
<g id="node7" class="node">
<title>AttackSensor_weight</title>
<polygon fill="none" stroke="black" stroke-dasharray="1,5" points="417.62,-245.62 315.12,-245.62 315.12,-178.38 417.62,-178.38 417.62,-245.62"/>
<text text-anchor="start" x="325.12" y="-226.32" font-family="Helvetica,sans-Serif" font-size="14.00">1 JumpBack &#160;</text>
<text text-anchor="start" x="327.38" y="-206.57" font-family="Helvetica,sans-Serif" font-size="14.00">2 PokeStart &#160;</text>
<text text-anchor="start" x="336.75" y="-186.82" font-family="Helvetica,sans-Serif" font-size="14.00">1 Starter &#160;</text>
</g>
<!-- AttackSensor&#45;&gt;AttackSensor_weight -->
<g id="edge4" class="edge">
<title>AttackSensor&#45;&gt;AttackSensor_weight</title>
<path fill="none" stroke="#458b74" d="M159.69,-204.42C203.37,-206.03 260.38,-208.13 303.3,-209.71"/>
<polygon fill="#458b74" stroke="#458b74" points="303.09,-213.21 313.22,-210.08 303.35,-206.21 303.09,-213.21"/>
<text text-anchor="middle" x="227.38" y="-210.35" font-family="Helvetica,sans-Serif" font-size="14.00" fill="#458b74">Weight</text>
</g>
<!-- DodgePredictSensor -->
<g id="node8" class="node">
<title>DodgePredictSensor</title>
<polygon fill="none" stroke="black" points="24,-282 24,-303.75 162,-303.75 162,-282 24,-282"/>
<text text-anchor="start" x="27" y="-287.45" font-family="Helvetica,sans-Serif" font-size="14.00">DodgePredictSensor &#160;</text>
<polygon fill="none" stroke="black" points="24,-260.25 24,-282 162,-282 162,-260.25 24,-260.25"/>
<text text-anchor="start" x="27" y="-266.7" font-family="Helvetica,sans-Serif" font-size="12.00" fill="#838b8b">if: rollingCondition</text>
<text text-anchor="start" x="123.75" y="-266.7" font-family="Helvetica,sans-Serif" font-size="14.00"> &#160;</text>
</g>
<!-- DodgePredictSensor_linked -->
<g id="node9" class="node">
<title>DodgePredictSensor_linked</title>
<polygon fill="none" stroke="black" stroke-dasharray="1,5" points="415.85,-300 316.9,-300 316.9,-264 415.85,-264 415.85,-300"/>
<text text-anchor="start" x="322.5" y="-276.57" font-family="Helvetica,sans-Serif" font-size="14.00">DoubleAttack &#160;</text>
</g>
<!-- DodgePredictSensor&#45;&gt;DodgePredictSensor_linked -->
<g id="edge5" class="edge">
<title>DodgePredictSensor&#45;&gt;DodgePredictSensor_linked</title>
<path fill="none" stroke="#66cdaa" d="M169.95,-282C212.77,-282 265.5,-282 305.39,-282"/>
<polygon fill="#66cdaa" stroke="#66cdaa" points="305.29,-285.5 315.29,-282 305.29,-278.5 305.29,-285.5"/>
<text text-anchor="middle" x="227.38" y="-284.45" font-family="Helvetica,sans-Serif" font-size="14.00" fill="#66cdaa">QueueEnd</text>
</g>
<!-- AttackPredictSensor -->
<g id="node10" class="node">
<title>AttackPredictSensor</title>
<polygon fill="none" stroke="black" points="25.12,-368 25.12,-389.75 160.88,-389.75 160.88,-368 25.12,-368"/>
<text text-anchor="start" x="28.12" y="-373.45" font-family="Helvetica,sans-Serif" font-size="14.00">AttackPredictSensor &#160;</text>
<polygon fill="none" stroke="black" points="25.12,-346.25 25.12,-368 160.88,-368 160.88,-346.25 25.12,-346.25"/>
<text text-anchor="start" x="28.12" y="-352.7" font-family="Helvetica,sans-Serif" font-size="12.00" fill="#838b8b">if: attackCondition</text>
<text text-anchor="start" x="123.38" y="-352.7" font-family="Helvetica,sans-Serif" font-size="14.00"> &#160;</text>
</g>
<!-- AttackPredictSensor_linked -->
<g id="node11" class="node">
<title>AttackPredictSensor_linked</title>
<polygon fill="none" stroke="black" stroke-dasharray="1,5" points="427.85,-354 304.9,-354 304.9,-318 427.85,-318 427.85,-354"/>
<text text-anchor="start" x="310.5" y="-330.57" font-family="Helvetica,sans-Serif" font-size="14.00">Attack1 RunPush &#160;</text>
</g>
<!-- AttackPredictSensor&#45;&gt;AttackPredictSensor_linked -->
<g id="edge6" class="edge">
<title>AttackPredictSensor&#45;&gt;AttackPredictSensor_linked</title>
<path fill="none" stroke="#66cdaa" d="M168.87,-359.17C207.71,-354.59 254.93,-349.02 293.35,-344.49"/>
<polygon fill="#66cdaa" stroke="#66cdaa" points="293.43,-348.01 302.95,-343.36 292.61,-341.06 293.43,-348.01"/>
<text text-anchor="middle" x="227.38" y="-358.26" font-family="Helvetica,sans-Serif" font-size="14.00" fill="#66cdaa">QueueEnd</text>
</g>
<!-- AttackPredictSensor_weight -->
<g id="node15" class="node">
<title>AttackPredictSensor_weight</title>
<polygon fill="none" stroke="black" stroke-dasharray="1,5" points="417.62,-408 315.12,-408 315.12,-372 417.62,-372 417.62,-408"/>
<text text-anchor="start" x="325.12" y="-384.57" font-family="Helvetica,sans-Serif" font-size="14.00">1 JumpBack &#160;</text>
</g>
<!-- AttackPredictSensor&#45;&gt;AttackPredictSensor_weight -->
<g id="edge9" class="edge">
<title>AttackPredictSensor&#45;&gt;AttackPredictSensor_weight</title>
<path fill="none" stroke="#458b74" d="M168.87,-374.07C211.14,-377.5 263.33,-381.73 303.3,-384.97"/>
<polygon fill="#458b74" stroke="#458b74" points="303,-388.45 313.25,-385.77 303.57,-381.48 303,-388.45"/>
<text text-anchor="middle" x="227.38" y="-383.42" font-family="Helvetica,sans-Serif" font-size="14.00" fill="#458b74">Weight</text>
</g>
<!-- AttackRunToSensor -->
<g id="node12" class="node">
<title>AttackRunToSensor</title>
<polygon fill="none" stroke="black" points="26.62,-468 26.62,-489.75 159.38,-489.75 159.38,-468 26.62,-468"/>
<text text-anchor="start" x="29.62" y="-473.45" font-family="Helvetica,sans-Serif" font-size="14.00">AttackRunToSensor &#160;</text>
<polygon fill="none" stroke="black" points="26.62,-446.25 26.62,-468 159.38,-468 159.38,-446.25 26.62,-446.25"/>
<text text-anchor="start" x="29.62" y="-452.7" font-family="Helvetica,sans-Serif" font-size="12.00" fill="#838b8b">if: state is Engaging</text>
<text text-anchor="start" x="133.88" y="-452.7" font-family="Helvetica,sans-Serif" font-size="14.00"> &#160;</text>
</g>
<!-- AttackRunToSensor_linked -->
<g id="node13" class="node">
<title>AttackRunToSensor_linked</title>
<polygon fill="none" stroke="black" stroke-dasharray="1,5" points="444.73,-462 288.02,-462 288.02,-426 444.73,-426 444.73,-462"/>
<text text-anchor="start" x="293.62" y="-438.57" font-family="Helvetica,sans-Serif" font-size="14.00">RunPoke(For Enaging) &#160;</text>
</g>
<!-- AttackRunToSensor&#45;&gt;AttackRunToSensor_linked -->
<g id="edge7" class="edge">
<title>AttackRunToSensor&#45;&gt;AttackRunToSensor_linked</title>
<path fill="none" stroke="#66cdaa" d="M167.36,-456.46C176.57,-455.25 185.87,-454.14 194.75,-453.25 221.11,-450.61 249.83,-448.69 276.07,-447.3"/>
<polygon fill="#66cdaa" stroke="#66cdaa" points="276.22,-450.8 286.03,-446.8 275.86,-443.81 276.22,-450.8"/>
<text text-anchor="middle" x="227.38" y="-455.7" font-family="Helvetica,sans-Serif" font-size="14.00" fill="#66cdaa">QueueEnd</text>
</g>
<!-- AttackRunToSensor_weight -->
<g id="node14" class="node">
<title>AttackRunToSensor_weight</title>
<polygon fill="none" stroke="black" stroke-dasharray="1,5" points="454.75,-516 278,-516 278,-480 454.75,-480 454.75,-516"/>
<text text-anchor="start" x="288" y="-492.57" font-family="Helvetica,sans-Serif" font-size="14.00">1 RunPoke(For Enaging) &#160;</text>
</g>
<!-- AttackRunToSensor&#45;&gt;AttackRunToSensor_weight -->
<g id="edge8" class="edge">
<title>AttackRunToSensor&#45;&gt;AttackRunToSensor_weight</title>
<path fill="none" stroke="#458b74" d="M167.08,-476.08C197.69,-479.46 233.74,-483.45 266.65,-487.09"/>
<polygon fill="#458b74" stroke="#458b74" points="265.85,-490.52 276.17,-488.14 266.61,-483.56 265.85,-490.52"/>
<text text-anchor="middle" x="227.38" y="-488.14" font-family="Helvetica,sans-Serif" font-size="14.00" fill="#458b74">Weight</text>
</g>
<!-- Jumpback Sensor -->
<g id="node16" class="node">
<title>Jumpback Sensor</title>
<polygon fill="none" stroke="black" points="31.88,-557.12 31.88,-578.88 154.12,-578.88 154.12,-557.12 31.88,-557.12"/>
<text text-anchor="start" x="34.88" y="-562.58" font-family="Helvetica,sans-Serif" font-size="14.00">Jumpback Sensor &#160;</text>
</g>
<!-- Jumpback Sensor_weight -->
<g id="node17" class="node">
<title>Jumpback Sensor_weight</title>
<polygon fill="none" stroke="black" stroke-dasharray="1,5" points="437.5,-601.62 295.25,-601.62 295.25,-534.38 437.5,-534.38 437.5,-601.62"/>
<text text-anchor="start" x="325.12" y="-582.33" font-family="Helvetica,sans-Serif" font-size="14.00">2 JumpBack &#160;</text>
<text text-anchor="start" x="305.25" y="-562.58" font-family="Helvetica,sans-Serif" font-size="14.00">1 Attack1 RunPush &#160;</text>
<text text-anchor="start" x="327.38" y="-542.83" font-family="Helvetica,sans-Serif" font-size="14.00">1 PokeStart &#160;</text>
</g>
<!-- Jumpback Sensor&#45;&gt;Jumpback Sensor_weight -->
<g id="edge10" class="edge">
<title>Jumpback Sensor&#45;&gt;Jumpback Sensor_weight</title>
<path fill="none" stroke="#458b74" d="M161.78,-568C198.79,-568 244.87,-568 283.84,-568"/>
<polygon fill="#458b74" stroke="#458b74" points="283.64,-571.5 293.64,-568 283.64,-564.5 283.64,-571.5"/>
<text text-anchor="middle" x="227.38" y="-570.45" font-family="Helvetica,sans-Serif" font-size="14.00" fill="#458b74">Weight</text>
</g>
<!-- Attack1 RunPush -->
<g id="node18" class="node">
<title>Attack1 RunPush</title>
<polygon fill="none" stroke="black" points="34.12,-1751.12 34.12,-1772.88 151.88,-1772.88 151.88,-1751.12 34.12,-1751.12"/>
<text text-anchor="start" x="37.12" y="-1756.58" font-family="Helvetica,sans-Serif" font-size="14.00">Attack1 RunPush &#160;</text>
<polygon fill="none" stroke="black" points="34.12,-1719.12 34.12,-1751.12 151.88,-1751.12 151.88,-1719.12 34.12,-1719.12"/>
<text text-anchor="start" x="37.12" y="-1737.72" font-family="Helvetica,sans-Serif" font-size="12.00" fill="#838b8b">2.50s: LinkNextMove</text>
<text text-anchor="start" x="37.12" y="-1723.82" font-family="Helvetica,sans-Serif" font-size="12.00" fill="#838b8b">3.17s: Done</text>
<text text-anchor="start" x="101.62" y="-1723.82" font-family="Helvetica,sans-Serif" font-size="14.00"> &#160;</text>
</g>
<!-- PreAttack -->
<g id="node19" class="node">
<title>PreAttack</title>
<polygon fill="none" stroke="black" points="403.62,-1248 329.12,-1248 329.12,-1212 403.62,-1212 403.62,-1248"/>
<text text-anchor="middle" x="366.38" y="-1224.58" font-family="Helvetica,sans-Serif" font-size="14.00">PreAttack</text>
</g>
<!-- Attack1 RunPush&#45;&gt;PreAttack -->
<g id="edge11" class="edge">
<title>Attack1 RunPush&#45;&gt;PreAttack</title>
<path fill="none" stroke="#cdc8b1" d="M159.79,-1736.48C195.1,-1727.82 236.14,-1711.34 260,-1680 282.21,-1650.83 270.61,-1551.91 278,-1516 297.75,-1420.03 335.86,-1310.12 354.54,-1258.99"/>
<polygon fill="#cdc8b1" stroke="#cdc8b1" points="357.73,-1260.44 357.9,-1249.85 351.16,-1258.02 357.73,-1260.44"/>
</g>
<!-- Attack1 RunPush_weight -->
<g id="node20" class="node">
<title>Attack1 RunPush_weight</title>
<polygon fill="none" stroke="black" stroke-dasharray="1,5" points="454.75,-1789.5 278,-1789.5 278,-1702.5 454.75,-1702.5 454.75,-1789.5"/>
<text text-anchor="start" x="288" y="-1770.2" font-family="Helvetica,sans-Serif" font-size="14.00">1 RunPoke(For Enaging) &#160;</text>
<text text-anchor="start" x="305.25" y="-1750.45" font-family="Helvetica,sans-Serif" font-size="14.00">1 Attack1 RunPush &#160;</text>
<text text-anchor="start" x="343.88" y="-1730.7" font-family="Helvetica,sans-Serif" font-size="14.00">1 Skip &#160;</text>
<text text-anchor="start" x="316.88" y="-1710.95" font-family="Helvetica,sans-Serif" font-size="14.00">1 DangerSpear &#160;</text>
</g>
<!-- Attack1 RunPush&#45;&gt;Attack1 RunPush_weight -->
<g id="edge12" class="edge">
<title>Attack1 RunPush&#45;&gt;Attack1 RunPush_weight</title>
<path fill="none" stroke="#458b74" d="M159.69,-1746C191.68,-1746 230.82,-1746 266.33,-1746"/>
<polygon fill="#458b74" stroke="#458b74" points="266.21,-1749.5 276.21,-1746 266.21,-1742.5 266.21,-1749.5"/>
<text text-anchor="middle" x="227.38" y="-1748.45" font-family="Helvetica,sans-Serif" font-size="14.00" fill="#458b74">Weight</text>
</g>
<!-- DoubleAttack -->
<g id="node21" class="node">
<title>DoubleAttack</title>
<polygon fill="none" stroke="black" points="34.12,-1579.12 34.12,-1600.88 151.88,-1600.88 151.88,-1579.12 34.12,-1579.12"/>
<text text-anchor="start" x="49.12" y="-1584.58" font-family="Helvetica,sans-Serif" font-size="14.00">DoubleAttack &#160;</text>
<polygon fill="none" stroke="black" points="34.12,-1535.12 34.12,-1579.12 151.88,-1579.12 151.88,-1535.12 34.12,-1535.12"/>
<text text-anchor="start" x="37.12" y="-1565.72" font-family="Helvetica,sans-Serif" font-size="12.00" fill="#838b8b">1.00s: CheckFacing</text>
<text text-anchor="start" x="37.12" y="-1553.72" font-family="Helvetica,sans-Serif" font-size="12.00" fill="#838b8b">1.83s: LinkNextMove</text>
<text text-anchor="start" x="37.12" y="-1539.82" font-family="Helvetica,sans-Serif" font-size="12.00" fill="#838b8b">1.92s: Done</text>
<text text-anchor="start" x="101.62" y="-1539.82" font-family="Helvetica,sans-Serif" font-size="14.00"> &#160;</text>
</g>
<!-- DoubleAttack&#45;&gt;PreAttack -->
<g id="edge13" class="edge">
<title>DoubleAttack&#45;&gt;PreAttack</title>
<path fill="none" stroke="#cdc8b1" d="M159.49,-1535.13C165.57,-1531.05 171.43,-1526.66 176.75,-1522 265.27,-1444.45 328.38,-1315.62 353.43,-1258.63"/>
<polygon fill="#cdc8b1" stroke="#cdc8b1" points="356.57,-1260.18 357.33,-1249.61 350.14,-1257.4 356.57,-1260.18"/>
</g>
<!-- DoubleAttack_weight -->
<g id="node22" class="node">
<title>DoubleAttack_weight</title>
<polygon fill="none" stroke="black" stroke-dasharray="1,5" points="437.5,-1611.5 295.25,-1611.5 295.25,-1524.5 437.5,-1524.5 437.5,-1611.5"/>
<text text-anchor="start" x="305.25" y="-1592.2" font-family="Helvetica,sans-Serif" font-size="14.00">2 Attack1 RunPush &#160;</text>
<text text-anchor="start" x="316.88" y="-1572.45" font-family="Helvetica,sans-Serif" font-size="14.00">0 DangerSpear &#160;</text>
<text text-anchor="start" x="316.88" y="-1552.7" font-family="Helvetica,sans-Serif" font-size="14.00">0 DoubleAttack &#160;</text>
<text text-anchor="start" x="325.88" y="-1532.95" font-family="Helvetica,sans-Serif" font-size="14.00">0 FireSpead &#160;</text>
</g>
<!-- DoubleAttack&#45;&gt;DoubleAttack_weight -->
<g id="edge14" class="edge">
<title>DoubleAttack&#45;&gt;DoubleAttack_weight</title>
<path fill="none" stroke="#458b74" d="M159.69,-1568C196.96,-1568 243.92,-1568 283.56,-1568"/>
<polygon fill="#458b74" stroke="#458b74" points="283.55,-1571.5 293.55,-1568 283.55,-1564.5 283.55,-1571.5"/>
<text text-anchor="middle" x="227.38" y="-1570.45" font-family="Helvetica,sans-Serif" font-size="14.00" fill="#458b74">Weight</text>
</g>
<!-- DangerSpear -->
<g id="node23" class="node">
<title>DangerSpear</title>
<polygon fill="none" stroke="black" points="34.12,-1155.12 34.12,-1176.88 151.88,-1176.88 151.88,-1155.12 34.12,-1155.12"/>
<text text-anchor="start" x="49.12" y="-1160.58" font-family="Helvetica,sans-Serif" font-size="14.00">DangerSpear &#160;</text>
<polygon fill="none" stroke="black" points="34.12,-1111.12 34.12,-1155.12 151.88,-1155.12 151.88,-1111.12 34.12,-1111.12"/>
<text text-anchor="start" x="37.12" y="-1141.72" font-family="Helvetica,sans-Serif" font-size="12.00" fill="#838b8b">0.33s: CheckFacing</text>
<text text-anchor="start" x="37.12" y="-1129.72" font-family="Helvetica,sans-Serif" font-size="12.00" fill="#838b8b">2.50s: LinkNextMove</text>
<text text-anchor="start" x="37.12" y="-1115.82" font-family="Helvetica,sans-Serif" font-size="12.00" fill="#838b8b">2.57s: Done</text>
<text text-anchor="start" x="101.62" y="-1115.82" font-family="Helvetica,sans-Serif" font-size="14.00"> &#160;</text>
</g>
<!-- DangerSpear&#45;&gt;PreAttack -->
<g id="edge15" class="edge">
<title>DangerSpear&#45;&gt;PreAttack</title>
<path fill="none" stroke="#cdc8b1" d="M159.69,-1164.82C208.47,-1180.27 273.86,-1201 317.69,-1214.89"/>
<polygon fill="#cdc8b1" stroke="#cdc8b1" points="316.59,-1218.21 327.18,-1217.9 318.71,-1211.54 316.59,-1218.21"/>
</g>
<!-- RunPoke(For Enaging) -->
<g id="node24" class="node">
<title>RunPoke(For Enaging)</title>
<polygon fill="none" stroke="black" points="17.25,-1063.12 17.25,-1084.88 168.75,-1084.88 168.75,-1063.12 17.25,-1063.12"/>
<text text-anchor="start" x="20.25" y="-1068.58" font-family="Helvetica,sans-Serif" font-size="14.00">RunPoke(For Enaging) &#160;</text>
<polygon fill="none" stroke="black" points="17.25,-1019.12 17.25,-1063.12 168.75,-1063.12 168.75,-1019.12 17.25,-1019.12"/>
<text text-anchor="start" x="20.25" y="-1049.72" font-family="Helvetica,sans-Serif" font-size="12.00" fill="#838b8b">0.00s: DangerHint</text>
<text text-anchor="start" x="20.25" y="-1037.72" font-family="Helvetica,sans-Serif" font-size="12.00" fill="#838b8b">0.83s: LinkNextMove</text>
<text text-anchor="start" x="20.25" y="-1023.82" font-family="Helvetica,sans-Serif" font-size="12.00" fill="#838b8b">1.00s: Done</text>
<text text-anchor="start" x="84.75" y="-1023.82" font-family="Helvetica,sans-Serif" font-size="14.00"> &#160;</text>
</g>
<!-- RunPoke(For Enaging)&#45;&gt;PreAttack -->
<g id="edge16" class="edge">
<title>RunPoke(For Enaging)&#45;&gt;PreAttack</title>
<path fill="none" stroke="#cdc8b1" d="M161.63,-1088.83C166.78,-1091.87 171.87,-1094.95 176.75,-1098 232.67,-1132.98 294.87,-1177.71 332.02,-1205.09"/>
<polygon fill="#cdc8b1" stroke="#cdc8b1" points="329.57,-1207.63 339.69,-1210.76 333.73,-1202 329.57,-1207.63"/>
</g>
<!-- RunPoke(For Enaging)_weight -->
<g id="node25" class="node">
<title>RunPoke(For Enaging)_weight</title>
<polygon fill="none" stroke="black" stroke-dasharray="1,5" points="417.62,-1120.75 315.12,-1120.75 315.12,-1073.25 417.62,-1073.25 417.62,-1120.75"/>
<text text-anchor="start" x="325.12" y="-1101.45" font-family="Helvetica,sans-Serif" font-size="14.00">1 JumpBack &#160;</text>
<text text-anchor="start" x="343.88" y="-1081.7" font-family="Helvetica,sans-Serif" font-size="14.00">1 Skip &#160;</text>
</g>
<!-- RunPoke(For Enaging)&#45;&gt;RunPoke(For Enaging)_weight -->
<g id="edge17" class="edge">
<title>RunPoke(For Enaging)&#45;&gt;RunPoke(For Enaging)_weight</title>
<path fill="none" stroke="#458b74" d="M176.53,-1065.68C217.37,-1072.46 265.84,-1080.5 303.45,-1086.73"/>
<polygon fill="#458b74" stroke="#458b74" points="302.82,-1090.18 313.26,-1088.36 303.97,-1083.27 302.82,-1090.18"/>
<text text-anchor="middle" x="227.38" y="-1080.98" font-family="Helvetica,sans-Serif" font-size="14.00" fill="#458b74">Weight</text>
</g>
<!-- FireSpead -->
<g id="node26" class="node">
<title>FireSpead</title>
<polygon fill="none" stroke="black" points="36.75,-1407.12 36.75,-1428.88 149.25,-1428.88 149.25,-1407.12 36.75,-1407.12"/>
<text text-anchor="start" x="58.12" y="-1412.58" font-family="Helvetica,sans-Serif" font-size="14.00">FireSpead &#160;</text>
<polygon fill="none" stroke="black" points="36.75,-1363.12 36.75,-1407.12 149.25,-1407.12 149.25,-1363.12 36.75,-1363.12"/>
<text text-anchor="start" x="39.75" y="-1393.72" font-family="Helvetica,sans-Serif" font-size="12.00" fill="#838b8b">0.00s: DangerHint</text>
<text text-anchor="start" x="39.75" y="-1381.72" font-family="Helvetica,sans-Serif" font-size="12.00" fill="#838b8b">1.17s: CheckFacing</text>
<text text-anchor="start" x="39.75" y="-1367.82" font-family="Helvetica,sans-Serif" font-size="12.00" fill="#838b8b">5.00s: Done</text>
<text text-anchor="start" x="104.25" y="-1367.82" font-family="Helvetica,sans-Serif" font-size="14.00"> &#160;</text>
</g>
<!-- FireSpead&#45;&gt;PreAttack -->
<g id="edge18" class="edge">
<title>FireSpead&#45;&gt;PreAttack</title>
<path fill="none" stroke="#cdc8b1" d="M157.03,-1361.48C163.72,-1357.66 170.39,-1353.78 176.75,-1350 230.02,-1318.29 290.25,-1279.43 328.01,-1254.69"/>
<polygon fill="#cdc8b1" stroke="#cdc8b1" points="329.87,-1257.66 336.31,-1249.25 326.03,-1251.81 329.87,-1257.66"/>
</g>
<!-- PokeDown -->
<g id="node27" class="node">
<title>PokeDown</title>
<polygon fill="none" stroke="black" points="34.12,-971.12 34.12,-992.88 151.88,-992.88 151.88,-971.12 34.12,-971.12"/>
<text text-anchor="start" x="56.62" y="-976.58" font-family="Helvetica,sans-Serif" font-size="14.00">PokeDown &#160;</text>
<polygon fill="none" stroke="black" points="34.12,-927.12 34.12,-971.12 151.88,-971.12 151.88,-927.12 34.12,-927.12"/>
<text text-anchor="start" x="37.12" y="-957.73" font-family="Helvetica,sans-Serif" font-size="12.00" fill="#838b8b">0.00s: DangerHint</text>
<text text-anchor="start" x="37.12" y="-945.73" font-family="Helvetica,sans-Serif" font-size="12.00" fill="#838b8b">0.83s: LinkNextMove</text>
<text text-anchor="start" x="37.12" y="-931.83" font-family="Helvetica,sans-Serif" font-size="12.00" fill="#838b8b">1.00s: Done</text>
<text text-anchor="start" x="101.62" y="-931.83" font-family="Helvetica,sans-Serif" font-size="14.00"> &#160;</text>
</g>
<!-- PokeDown&#45;&gt;PreAttack -->
<g id="edge19" class="edge">
<title>PokeDown&#45;&gt;PreAttack</title>
<path fill="none" stroke="#cdc8b1" d="M159.56,-990.66C165.84,-995.24 171.73,-1000.35 176.75,-1006 190.78,-1021.8 179.94,-1034.93 194.75,-1050 216.87,-1072.5 238.5,-1054.9 260,-1078 276.66,-1095.91 265.73,-1108.85 278,-1130 294.12,-1157.79 318.59,-1184.96 337.53,-1203.95"/>
<polygon fill="#cdc8b1" stroke="#cdc8b1" points="334.87,-1206.24 344.46,-1210.76 339.78,-1201.25 334.87,-1206.24"/>
</g>
<!-- PokeDown_weight -->
<g id="node28" class="node">
<title>PokeDown_weight</title>
<polygon fill="none" stroke="black" stroke-dasharray="1,5" points="454.75,-991.62 278,-991.62 278,-924.38 454.75,-924.38 454.75,-991.62"/>
<text text-anchor="start" x="330.38" y="-972.33" font-family="Helvetica,sans-Serif" font-size="14.00">2 PokeFlat &#160;</text>
<text text-anchor="start" x="316.88" y="-952.58" font-family="Helvetica,sans-Serif" font-size="14.00">1 DangerSpear &#160;</text>
<text text-anchor="start" x="288" y="-932.83" font-family="Helvetica,sans-Serif" font-size="14.00">1 RunPoke(For Enaging) &#160;</text>
</g>
<!-- PokeDown&#45;&gt;PokeDown_weight -->
<g id="edge20" class="edge">
<title>PokeDown&#45;&gt;PokeDown_weight</title>
<path fill="none" stroke="#458b74" d="M159.69,-959.52C191.68,-959.28 230.82,-958.99 266.33,-958.73"/>
<polygon fill="#458b74" stroke="#458b74" points="266.24,-962.23 276.21,-958.66 266.18,-955.23 266.24,-962.23"/>
<text text-anchor="middle" x="227.38" y="-961.69" font-family="Helvetica,sans-Serif" font-size="14.00" fill="#458b74">Weight</text>
</g>
<!-- PokeFlat -->
<g id="node29" class="node">
<title>PokeFlat</title>
<polygon fill="none" stroke="black" points="34.12,-1671.12 34.12,-1692.88 151.88,-1692.88 151.88,-1671.12 34.12,-1671.12"/>
<text text-anchor="start" x="62.62" y="-1676.58" font-family="Helvetica,sans-Serif" font-size="14.00">PokeFlat &#160;</text>
<polygon fill="none" stroke="black" points="34.12,-1627.12 34.12,-1671.12 151.88,-1671.12 151.88,-1627.12 34.12,-1627.12"/>
<text text-anchor="start" x="37.12" y="-1657.72" font-family="Helvetica,sans-Serif" font-size="12.00" fill="#838b8b">0.00s: DangerHint</text>
<text text-anchor="start" x="37.12" y="-1645.72" font-family="Helvetica,sans-Serif" font-size="12.00" fill="#838b8b">0.83s: LinkNextMove</text>
<text text-anchor="start" x="37.12" y="-1631.82" font-family="Helvetica,sans-Serif" font-size="12.00" fill="#838b8b">1.00s: Done</text>
<text text-anchor="start" x="101.62" y="-1631.82" font-family="Helvetica,sans-Serif" font-size="14.00"> &#160;</text>
</g>
<!-- PokeFlat&#45;&gt;PreAttack -->
<g id="edge21" class="edge">
<title>PokeFlat&#45;&gt;PreAttack</title>
<path fill="none" stroke="#cdc8b1" d="M159.81,-1629.55C166.04,-1624.94 171.85,-1619.76 176.75,-1614 192.05,-1596 183.36,-1584.69 194.75,-1564 217.54,-1522.58 236.12,-1520.8 260,-1480 304.19,-1404.52 339.71,-1307.01 355.89,-1259.14"/>
<polygon fill="#cdc8b1" stroke="#cdc8b1" points="359.17,-1260.38 359.02,-1249.78 352.53,-1258.16 359.17,-1260.38"/>
</g>
<!-- PokeFlat_weight -->
<g id="node30" class="node">
<title>PokeFlat_weight</title>
<polygon fill="none" stroke="black" stroke-dasharray="1,5" points="418.38,-1683.75 314.38,-1683.75 314.38,-1636.25 418.38,-1636.25 418.38,-1683.75"/>
<text text-anchor="start" x="324.38" y="-1664.45" font-family="Helvetica,sans-Serif" font-size="14.00">2 PokeDown &#160;</text>
<text text-anchor="start" x="343.88" y="-1644.7" font-family="Helvetica,sans-Serif" font-size="14.00">0 Skip &#160;</text>
</g>
<!-- PokeFlat&#45;&gt;PokeFlat_weight -->
<g id="edge22" class="edge">
<title>PokeFlat&#45;&gt;PokeFlat_weight</title>
<path fill="none" stroke="#458b74" d="M159.69,-1660C203.23,-1660 260.01,-1660 302.88,-1660"/>
<polygon fill="#458b74" stroke="#458b74" points="302.78,-1663.5 312.78,-1660 302.78,-1656.5 302.78,-1663.5"/>
<text text-anchor="middle" x="227.38" y="-1662.45" font-family="Helvetica,sans-Serif" font-size="14.00" fill="#458b74">Weight</text>
</g>
<!-- Starter -->
<g id="node31" class="node">
<title>Starter</title>
<polygon fill="none" stroke="black" points="34.12,-879.12 34.12,-900.88 151.88,-900.88 151.88,-879.12 34.12,-879.12"/>
<text text-anchor="start" x="69" y="-884.58" font-family="Helvetica,sans-Serif" font-size="14.00">Starter &#160;</text>
<polygon fill="none" stroke="black" points="34.12,-835.12 34.12,-879.12 151.88,-879.12 151.88,-835.12 34.12,-835.12"/>
<text text-anchor="start" x="37.12" y="-865.73" font-family="Helvetica,sans-Serif" font-size="12.00" fill="#838b8b">0.00s: DangerHint</text>
<text text-anchor="start" x="37.12" y="-853.73" font-family="Helvetica,sans-Serif" font-size="12.00" fill="#838b8b">0.33s: LinkNextMove</text>
<text text-anchor="start" x="37.12" y="-839.83" font-family="Helvetica,sans-Serif" font-size="12.00" fill="#838b8b">0.50s: Done</text>
<text text-anchor="start" x="101.62" y="-839.83" font-family="Helvetica,sans-Serif" font-size="14.00"> &#160;</text>
</g>
<!-- Starter&#45;&gt;PreAttack -->
<g id="edge23" class="edge">
<title>Starter&#45;&gt;PreAttack</title>
<path fill="none" stroke="#cdc8b1" d="M159.74,-896.66C166.23,-901.65 172.12,-907.41 176.75,-914 205.47,-954.9 163.99,-985.61 194.75,-1025 214.18,-1049.87 239.73,-1028.81 260,-1053 282.57,-1079.94 261.96,-1098.73 278,-1130 292.48,-1158.23 316.65,-1185.01 335.9,-1203.74"/>
<polygon fill="#cdc8b1" stroke="#cdc8b1" points="333.31,-1206.12 342.98,-1210.46 338.13,-1201.04 333.31,-1206.12"/>
</g>
<!-- Starter_weight -->
<g id="node32" class="node">
<title>Starter_weight</title>
<polygon fill="none" stroke="black" points="311.88,-876.88 311.88,-902.62 420.88,-902.62 420.88,-876.88 311.88,-876.88"/>
<text text-anchor="start" x="316.88" y="-884.33" font-family="Helvetica,sans-Serif" font-size="14.00">2 DoubleAttack &#160;</text>
<polygon fill="none" stroke="black" points="311.88,-851.12 311.88,-876.88 420.88,-876.88 420.88,-851.12 311.88,-851.12"/>
<text text-anchor="start" x="316.88" y="-858.58" font-family="Helvetica,sans-Serif" font-size="14.00">1 DangerSpear &#160;</text>
<polygon fill="none" stroke="black" points="311.88,-825.38 311.88,-851.12 420.88,-851.12 420.88,-825.38 311.88,-825.38"/>
<text text-anchor="start" x="325.88" y="-832.83" font-family="Helvetica,sans-Serif" font-size="14.00">0 FireSpead &#160;</text>
</g>
<!-- Starter&#45;&gt;Starter_weight -->
<g id="edge24" class="edge">
<title>Starter&#45;&gt;Starter_weight</title>
<path fill="none" stroke="#458b74" d="M159.69,-867.03C199.84,-866.44 251.24,-865.68 292.62,-865.07"/>
<polygon fill="#458b74" stroke="#458b74" points="292.55,-868.57 302.49,-864.93 292.44,-861.57 292.55,-868.57"/>
<text text-anchor="middle" x="227.38" y="-868.93" font-family="Helvetica,sans-Serif" font-size="14.00" fill="#458b74">Weight</text>
</g>
<!-- PokeStart -->
<g id="node33" class="node">
<title>PokeStart</title>
<polygon fill="none" stroke="black" points="30.38,-787.12 30.38,-808.88 155.62,-808.88 155.62,-787.12 30.38,-787.12"/>
<text text-anchor="start" x="59.62" y="-792.58" font-family="Helvetica,sans-Serif" font-size="14.00">PokeStart &#160;</text>
<polygon fill="none" stroke="black" points="30.38,-755.12 30.38,-787.12 155.62,-787.12 155.62,-755.12 30.38,-755.12"/>
<text text-anchor="start" x="33.38" y="-773.73" font-family="Helvetica,sans-Serif" font-size="12.00" fill="#838b8b">0.00s: DangerHint</text>
<text text-anchor="start" x="33.38" y="-759.83" font-family="Helvetica,sans-Serif" font-size="12.00" fill="#838b8b">0.50s: LinkNextMove</text>
<text text-anchor="start" x="145.12" y="-759.83" font-family="Helvetica,sans-Serif" font-size="14.00"> &#160;</text>
</g>
<!-- PokeStart&#45;&gt;PreAttack -->
<g id="edge25" class="edge">
<title>PokeStart&#45;&gt;PreAttack</title>
<path fill="none" stroke="#cdc8b1" d="M163.5,-808.21C168.55,-812.2 173.09,-816.77 176.75,-822 222.34,-887.14 147.7,-935.9 194.75,-1000 213.42,-1025.44 240.4,-1003.27 260,-1028 288.59,-1064.08 258.13,-1088.48 278,-1130 291.7,-1158.62 315.92,-1185.37 335.4,-1203.99"/>
<polygon fill="#cdc8b1" stroke="#cdc8b1" points="332.87,-1206.42 342.57,-1210.67 337.64,-1201.29 332.87,-1206.42"/>
</g>
<!-- PokeStart_weight -->
<g id="node34" class="node">
<title>PokeStart_weight</title>
<polygon fill="none" stroke="black" points="325.38,-770.12 325.38,-795.88 407.38,-795.88 407.38,-770.12 325.38,-770.12"/>
<text text-anchor="start" x="330.38" y="-777.58" font-family="Helvetica,sans-Serif" font-size="14.00">1 PokeFlat &#160;</text>
</g>
<!-- PokeStart&#45;&gt;PokeStart_weight -->
<g id="edge26" class="edge">
<title>PokeStart&#45;&gt;PokeStart_weight</title>
<path fill="none" stroke="#458b74" d="M163.53,-782.26C207.6,-782.42 264,-782.63 305.97,-782.78"/>
<polygon fill="#458b74" stroke="#458b74" points="305.87,-786.28 315.89,-782.82 305.9,-779.28 305.87,-786.28"/>
<text text-anchor="middle" x="227.38" y="-785.04" font-family="Helvetica,sans-Serif" font-size="14.00" fill="#458b74">Weight</text>
</g>
<!-- HurtState -->
<g id="node35" class="node">
<title>HurtState</title>
<polygon fill="none" stroke="black" points="34.5,-1235.12 34.5,-1256.88 151.5,-1256.88 151.5,-1235.12 34.5,-1235.12"/>
<text text-anchor="start" x="60.75" y="-1240.58" font-family="Helvetica,sans-Serif" font-size="14.00">HurtState &#160;</text>
<polygon fill="none" stroke="black" points="34.5,-1203.12 34.5,-1235.12 151.5,-1235.12 151.5,-1203.12 34.5,-1203.12"/>
<text text-anchor="start" x="37.5" y="-1221.72" font-family="Helvetica,sans-Serif" font-size="12.00" fill="#838b8b">0.00s: EnableGravity</text>
<text text-anchor="start" x="37.5" y="-1207.82" font-family="Helvetica,sans-Serif" font-size="12.00" fill="#838b8b">0.18s: Done</text>
<text text-anchor="start" x="102" y="-1207.82" font-family="Helvetica,sans-Serif" font-size="14.00"> &#160;</text>
</g>
<!-- HurtState&#45;&gt;PreAttack -->
<g id="edge27" class="edge">
<title>HurtState&#45;&gt;PreAttack</title>
<path fill="none" stroke="#cdc8b1" d="M159.35,-1230C208.15,-1230 273.74,-1230 317.68,-1230"/>
<polygon fill="#cdc8b1" stroke="#cdc8b1" points="317.4,-1233.5 327.4,-1230 317.4,-1226.5 317.4,-1233.5"/>
</g>
<!-- Hurt_BigState -->
<g id="node36" class="node">
<title>Hurt_BigState</title>
<polygon fill="none" stroke="black" points="34.5,-1487.12 34.5,-1508.88 151.5,-1508.88 151.5,-1487.12 34.5,-1487.12"/>
<text text-anchor="start" x="47.25" y="-1492.58" font-family="Helvetica,sans-Serif" font-size="14.00">Hurt_BigState &#160;</text>
<polygon fill="none" stroke="black" points="34.5,-1455.12 34.5,-1487.12 151.5,-1487.12 151.5,-1455.12 34.5,-1455.12"/>
<text text-anchor="start" x="37.5" y="-1473.72" font-family="Helvetica,sans-Serif" font-size="12.00" fill="#838b8b">0.00s: EnableGravity</text>
<text text-anchor="start" x="37.5" y="-1459.82" font-family="Helvetica,sans-Serif" font-size="12.00" fill="#838b8b">2.00s: Done</text>
<text text-anchor="start" x="102" y="-1459.82" font-family="Helvetica,sans-Serif" font-size="14.00"> &#160;</text>
</g>
<!-- Hurt_BigState&#45;&gt;PreAttack -->
<g id="edge28" class="edge">
<title>Hurt_BigState&#45;&gt;PreAttack</title>
<path fill="none" stroke="#cdc8b1" d="M159.16,-1453.6C165.3,-1450.01 171.28,-1446.14 176.75,-1442 249.29,-1387.2 315.27,-1301.24 346.45,-1257.52"/>
<polygon fill="#cdc8b1" stroke="#cdc8b1" points="349.13,-1259.79 352.04,-1249.6 343.41,-1255.75 349.13,-1259.79"/>
</g>
<!-- JumpBack -->
<g id="node37" class="node">
<title>JumpBack</title>
<polygon fill="none" stroke="black" points="34.12,-706.12 34.12,-727.88 151.88,-727.88 151.88,-706.12 34.12,-706.12"/>
<text text-anchor="start" x="57.38" y="-711.58" font-family="Helvetica,sans-Serif" font-size="14.00">JumpBack &#160;</text>
<polygon fill="none" stroke="black" points="34.12,-662.12 34.12,-706.12 151.88,-706.12 151.88,-662.12 34.12,-662.12"/>
<text text-anchor="start" x="37.12" y="-692.73" font-family="Helvetica,sans-Serif" font-size="12.00" fill="#838b8b">0.00s: EnableGravity</text>
<text text-anchor="start" x="37.12" y="-680.73" font-family="Helvetica,sans-Serif" font-size="12.00" fill="#838b8b">0.50s: LinkNextMove</text>
<text text-anchor="start" x="37.12" y="-666.83" font-family="Helvetica,sans-Serif" font-size="12.00" fill="#838b8b">0.83s: Done</text>
<text text-anchor="start" x="101.62" y="-666.83" font-family="Helvetica,sans-Serif" font-size="14.00"> &#160;</text>
</g>
<!-- JumpBack&#45;&gt;PreAttack -->
<g id="edge29" class="edge">
<title>JumpBack&#45;&gt;PreAttack</title>
<path fill="none" stroke="#cdc8b1" d="M159.52,-723.46C166.23,-728.74 172.23,-734.89 176.75,-742 204.58,-785.84 164.52,-932.77 194.75,-975 213.12,-1000.66 240.82,-977.94 260,-1003 294.64,-1048.28 254.26,-1078.17 278,-1130 291.21,-1158.85 315.47,-1185.58 335.08,-1204.14"/>
<polygon fill="#cdc8b1" stroke="#cdc8b1" points="332.59,-1206.6 342.32,-1210.79 337.33,-1201.45 332.59,-1206.6"/>
</g>
<!-- JumpBack_weight -->
<g id="node38" class="node">
<title>JumpBack_weight</title>
<polygon fill="none" stroke="black" stroke-dasharray="1,5" points="437.5,-747.38 295.25,-747.38 295.25,-640.62 437.5,-640.62 437.5,-747.38"/>
<text text-anchor="start" x="316.88" y="-728.08" font-family="Helvetica,sans-Serif" font-size="14.00">2 DoubleAttack &#160;</text>
<text text-anchor="start" x="316.88" y="-708.33" font-family="Helvetica,sans-Serif" font-size="14.00">1 DangerSpear &#160;</text>
<text text-anchor="start" x="305.25" y="-688.58" font-family="Helvetica,sans-Serif" font-size="14.00">1 Attack1 RunPush &#160;</text>
<text text-anchor="start" x="343.88" y="-668.83" font-family="Helvetica,sans-Serif" font-size="14.00">2 Skip &#160;</text>
<text text-anchor="start" x="327.38" y="-649.08" font-family="Helvetica,sans-Serif" font-size="14.00">1 PokeStart &#160;</text>
</g>
<!-- JumpBack&#45;&gt;JumpBack_weight -->
<g id="edge30" class="edge">
<title>JumpBack&#45;&gt;JumpBack_weight</title>
<path fill="none" stroke="#458b74" d="M159.69,-694.76C196.96,-694.62 243.92,-694.45 283.56,-694.3"/>
<polygon fill="#458b74" stroke="#458b74" points="283.56,-697.8 293.55,-694.26 283.54,-690.8 283.56,-697.8"/>
<text text-anchor="middle" x="227.38" y="-697.07" font-family="Helvetica,sans-Serif" font-size="14.00" fill="#458b74">Weight</text>
</g>
<!-- LastHit -->
<g id="node39" class="node">
<title>LastHit</title>
<polygon fill="none" stroke="black" points="34.5,-1831.12 34.5,-1852.88 151.5,-1852.88 151.5,-1831.12 34.5,-1831.12"/>
<text text-anchor="start" x="68.25" y="-1836.58" font-family="Helvetica,sans-Serif" font-size="14.00">LastHit &#160;</text>
<polygon fill="none" stroke="black" points="34.5,-1799.12 34.5,-1831.12 151.5,-1831.12 151.5,-1799.12 34.5,-1799.12"/>
<text text-anchor="start" x="37.5" y="-1817.72" font-family="Helvetica,sans-Serif" font-size="12.00" fill="#838b8b">0.00s: EnableGravity</text>
<text text-anchor="start" x="37.5" y="-1803.82" font-family="Helvetica,sans-Serif" font-size="12.00" fill="#838b8b">1.00s: Done</text>
<text text-anchor="start" x="102" y="-1803.82" font-family="Helvetica,sans-Serif" font-size="14.00"> &#160;</text>
</g>
<!-- DeadState -->
<g id="node40" class="node">
<title>DeadState</title>
<polygon fill="none" stroke="black" points="406.25,-1844 326.5,-1844 326.5,-1808 406.25,-1808 406.25,-1844"/>
<text text-anchor="middle" x="366.38" y="-1820.58" font-family="Helvetica,sans-Serif" font-size="14.00">DeadState</text>
</g>
<!-- LastHit&#45;&gt;DeadState -->
<g id="edge31" class="edge">
<title>LastHit&#45;&gt;DeadState</title>
<path fill="none" stroke="#cdc8b1" d="M159.35,-1826C207.14,-1826 271.04,-1826 314.93,-1826"/>
<polygon fill="#cdc8b1" stroke="#cdc8b1" points="314.68,-1829.5 324.68,-1826 314.68,-1822.5 314.68,-1829.5"/>
</g>
<!-- PostureBreak -->
<g id="node41" class="node">
<title>PostureBreak</title>
<polygon fill="none" stroke="black" points="34.5,-1315.12 34.5,-1336.88 151.5,-1336.88 151.5,-1315.12 34.5,-1315.12"/>
<text text-anchor="start" x="48.38" y="-1320.58" font-family="Helvetica,sans-Serif" font-size="14.00">PostureBreak &#160;</text>
<polygon fill="none" stroke="black" points="34.5,-1283.12 34.5,-1315.12 151.5,-1315.12 151.5,-1283.12 34.5,-1283.12"/>
<text text-anchor="start" x="37.5" y="-1301.72" font-family="Helvetica,sans-Serif" font-size="12.00" fill="#838b8b">0.00s: EnableGravity</text>
<text text-anchor="start" x="37.5" y="-1287.82" font-family="Helvetica,sans-Serif" font-size="12.00" fill="#838b8b">1.50s: Done</text>
<text text-anchor="start" x="102" y="-1287.82" font-family="Helvetica,sans-Serif" font-size="14.00"> &#160;</text>
</g>
<!-- PostureBreak&#45;&gt;PreAttack -->
<g id="edge32" class="edge">
<title>PostureBreak&#45;&gt;PreAttack</title>
<path fill="none" stroke="#cdc8b1" d="M159.35,-1290.74C208.26,-1276.32 274.02,-1256.93 317.96,-1243.98"/>
<polygon fill="#cdc8b1" stroke="#cdc8b1" points="318.86,-1247.36 327.46,-1241.18 316.88,-1240.65 318.86,-1247.36"/>
</g>
<!-- Wandering_Idle -->
<g id="node42" class="node">
<title>Wandering_Idle</title>
<polygon fill="none" stroke="black" points="163.62,-1911 22.38,-1911 22.38,-1875 163.62,-1875 163.62,-1911"/>
<text text-anchor="middle" x="93" y="-1887.58" font-family="Helvetica,sans-Serif" font-size="14.00">Wandering_Idle (Init)</text>
</g>
</g>
</svg>
