<?xml version="1.0" encoding="UTF-8" standalone="no"?>
<!DOCTYPE svg PUBLIC "-//W3C//DTD SVG 1.1//EN"
 "http://www.w3.org/Graphics/SVG/1.1/DTD/svg11.dtd">
<!-- Generated by graphviz version 12.2.1 (20241206.2353)
 -->
<!-- Title: Foo Pages: 1 -->
<svg width="401pt" height="524pt"
 viewBox="0.00 0.00 400.95 524.00" xmlns="http://www.w3.org/2000/svg" xmlns:xlink="http://www.w3.org/1999/xlink">
<g id="graph0" class="graph" transform="scale(1 1) rotate(0) translate(4 520)">
<title>Foo</title>
<polygon fill="white" stroke="none" points="-4,4 -4,-520 396.95,-520 396.95,4 -4,4"/>
<g id="clust1" class="cluster">
<title>cluster_attacksensors</title>
<polygon fill="none" stroke="black" points="8,-8 8,-262 384.95,-262 384.95,-8 8,-8"/>
<text text-anchor="middle" x="196.47" y="-244.7" font-family="Helvetica,sans-Serif" font-size="14.00">Attack Sensors</text>
</g>
<!-- Level Once Sensor -->
<g id="node1" class="node">
<title>Level Once Sensor</title>
<polygon fill="none" stroke="black" points="28.5,-23.12 28.5,-44.88 157.5,-44.88 157.5,-23.12 28.5,-23.12"/>
<text text-anchor="start" x="31.5" y="-28.57" font-family="Helvetica,sans-Serif" font-size="14.00">Level Once Sensor &#160;</text>
</g>
<!-- Level Once Sensor_linked -->
<g id="node2" class="node">
<title>Level Once Sensor_linked</title>
<polygon fill="none" stroke="black" stroke-dasharray="1,5" points="376.95,-52 271.25,-52 271.25,-16 376.95,-16 376.95,-52"/>
<text text-anchor="start" x="276.85" y="-28.57" font-family="Helvetica,sans-Serif" font-size="14.00"> Attack1 Shoot &#160;</text>
</g>
<!-- Level Once Sensor&#45;&gt;Level Once Sensor_linked -->
<g id="edge1" class="edge">
<title>Level Once Sensor&#45;&gt;Level Once Sensor_linked</title>
<path fill="none" stroke="#66cdaa" d="M165.23,-34C195.38,-34 230.23,-34 259.5,-34"/>
<polygon fill="#66cdaa" stroke="#66cdaa" points="259.32,-37.5 269.32,-34 259.32,-30.5 259.32,-37.5"/>
<text text-anchor="middle" x="220.62" y="-36.45" font-family="Helvetica,sans-Serif" font-size="14.00" fill="#66cdaa">QueueEnd</text>
</g>
<!-- RunAwaySensor -->
<g id="node3" class="node">
<title>RunAwaySensor</title>
<polygon fill="none" stroke="black" points="36,-77.12 36,-98.88 150,-98.88 150,-77.12 36,-77.12"/>
<text text-anchor="start" x="39" y="-82.58" font-family="Helvetica,sans-Serif" font-size="14.00">RunAwaySensor &#160;</text>
</g>
<!-- AttackSensor -->
<g id="node4" class="node">
<title>AttackSensor</title>
<polygon fill="none" stroke="black" points="46.12,-131.12 46.12,-152.88 139.88,-152.88 139.88,-131.12 46.12,-131.12"/>
<text text-anchor="start" x="49.12" y="-136.57" font-family="Helvetica,sans-Serif" font-size="14.00">AttackSensor &#160;</text>
</g>
<!-- AttackSensor_linked -->
<g id="node5" class="node">
<title>AttackSensor_linked</title>
<polygon fill="none" stroke="black" stroke-dasharray="1,5" points="376.95,-160 271.25,-160 271.25,-124 376.95,-124 376.95,-160"/>
<text text-anchor="start" x="276.85" y="-136.57" font-family="Helvetica,sans-Serif" font-size="14.00"> Attack1 Shoot &#160;</text>
</g>
<!-- AttackSensor&#45;&gt;AttackSensor_linked -->
<g id="edge2" class="edge">
<title>AttackSensor&#45;&gt;AttackSensor_linked</title>
<path fill="none" stroke="#66cdaa" d="M147.71,-142C181.25,-142 224.58,-142 259.79,-142"/>
<polygon fill="#66cdaa" stroke="#66cdaa" points="259.39,-145.5 269.39,-142 259.39,-138.5 259.39,-145.5"/>
<text text-anchor="middle" x="220.62" y="-144.45" font-family="Helvetica,sans-Serif" font-size="14.00" fill="#66cdaa">QueueEnd</text>
</g>
<!-- DodgePredictSensor -->
<g id="node6" class="node">
<title>DodgePredictSensor</title>
<polygon fill="none" stroke="black" points="24,-204 24,-225.75 162,-225.75 162,-204 24,-204"/>
<text text-anchor="start" x="27" y="-209.45" font-family="Helvetica,sans-Serif" font-size="14.00">DodgePredictSensor &#160;</text>
<polygon fill="none" stroke="black" points="24,-182.25 24,-204 162,-204 162,-182.25 24,-182.25"/>
<text text-anchor="start" x="27" y="-188.7" font-family="Helvetica,sans-Serif" font-size="12.00" fill="#838b8b">if: rollingCondition</text>
<text text-anchor="start" x="123.75" y="-188.7" font-family="Helvetica,sans-Serif" font-size="14.00"> &#160;</text>
</g>
<!-- DodgePredictSensor_linked -->
<g id="node7" class="node">
<title>DodgePredictSensor_linked</title>
<polygon fill="none" stroke="black" stroke-dasharray="1,5" points="376.95,-222 271.25,-222 271.25,-186 376.95,-186 376.95,-222"/>
<text text-anchor="start" x="276.85" y="-198.57" font-family="Helvetica,sans-Serif" font-size="14.00"> Attack1 Shoot &#160;</text>
</g>
<!-- DodgePredictSensor&#45;&gt;DodgePredictSensor_linked -->
<g id="edge3" class="edge">
<title>DodgePredictSensor&#45;&gt;DodgePredictSensor_linked</title>
<path fill="none" stroke="#66cdaa" d="M169.97,-204C199.05,-204 231.88,-204 259.67,-204"/>
<polygon fill="#66cdaa" stroke="#66cdaa" points="259.33,-207.5 269.33,-204 259.33,-200.5 259.33,-207.5"/>
<text text-anchor="middle" x="220.62" y="-206.45" font-family="Helvetica,sans-Serif" font-size="14.00" fill="#66cdaa">QueueEnd</text>
</g>
<!--  Attack1 Shoot -->
<g id="node8" class="node">
<title> Attack1 Shoot</title>
<polygon fill="none" stroke="black" points="42.75,-436 42.75,-457.75 143.25,-457.75 143.25,-436 42.75,-436"/>
<text text-anchor="start" x="45.75" y="-441.45" font-family="Helvetica,sans-Serif" font-size="14.00"> Attack1 Shoot &#160;</text>
<polygon fill="none" stroke="black" points="42.75,-414.25 42.75,-436 143.25,-436 143.25,-414.25 42.75,-414.25"/>
<text text-anchor="start" x="45.75" y="-420.7" font-family="Helvetica,sans-Serif" font-size="12.00" fill="#838b8b">1.50s: Done</text>
<text text-anchor="start" x="110.25" y="-420.7" font-family="Helvetica,sans-Serif" font-size="14.00"> &#160;</text>
</g>
<!-- Engaging -->
<g id="node9" class="node">
<title>Engaging</title>
<polygon fill="none" stroke="black" points="360.6,-384 287.6,-384 287.6,-348 360.6,-348 360.6,-384"/>
<text text-anchor="middle" x="324.1" y="-360.57" font-family="Helvetica,sans-Serif" font-size="14.00">Engaging</text>
</g>
<!--  Attack1 Shoot&#45;&gt;Engaging -->
<g id="edge4" class="edge">
<title> Attack1 Shoot&#45;&gt;Engaging</title>
<path fill="none" stroke="#cdc8b1" d="M151.22,-418.52C189.9,-406.7 240.32,-391.29 276.53,-380.23"/>
<polygon fill="#cdc8b1" stroke="#cdc8b1" points="277.3,-383.65 285.84,-377.38 275.26,-376.96 277.3,-383.65"/>
</g>
<!-- Hurt1 -->
<g id="node10" class="node">
<title>Hurt1</title>
<polygon fill="none" stroke="black" points="54,-366 54,-387.75 132,-387.75 132,-366 54,-366"/>
<text text-anchor="start" x="72.75" y="-371.45" font-family="Helvetica,sans-Serif" font-size="14.00">Hurt1 &#160;</text>
<polygon fill="none" stroke="black" points="54,-344.25 54,-366 132,-366 132,-344.25 54,-344.25"/>
<text text-anchor="start" x="57" y="-350.7" font-family="Helvetica,sans-Serif" font-size="12.00" fill="#838b8b">0.25s: Done</text>
<text text-anchor="start" x="121.5" y="-350.7" font-family="Helvetica,sans-Serif" font-size="14.00"> &#160;</text>
</g>
<!-- Hurt1&#45;&gt;Engaging -->
<g id="edge5" class="edge">
<title>Hurt1&#45;&gt;Engaging</title>
<path fill="none" stroke="#cdc8b1" d="M139.81,-366C179.27,-366 235.99,-366 275.86,-366"/>
<polygon fill="#cdc8b1" stroke="#cdc8b1" points="275.63,-369.5 285.63,-366 275.63,-362.5 275.63,-369.5"/>
</g>
<!-- Hurt2 -->
<g id="node11" class="node">
<title>Hurt2</title>
<polygon fill="none" stroke="black" points="54,-296 54,-317.75 132,-317.75 132,-296 54,-296"/>
<text text-anchor="start" x="72.75" y="-301.45" font-family="Helvetica,sans-Serif" font-size="14.00">Hurt2 &#160;</text>
<polygon fill="none" stroke="black" points="54,-274.25 54,-296 132,-296 132,-274.25 54,-274.25"/>
<text text-anchor="start" x="57" y="-280.7" font-family="Helvetica,sans-Serif" font-size="12.00" fill="#838b8b">0.33s: Done</text>
<text text-anchor="start" x="121.5" y="-280.7" font-family="Helvetica,sans-Serif" font-size="14.00"> &#160;</text>
</g>
<!-- Hurt2&#45;&gt;Engaging -->
<g id="edge6" class="edge">
<title>Hurt2&#45;&gt;Engaging</title>
<path fill="none" stroke="#cdc8b1" d="M139.81,-310C179.44,-322.11 236.48,-339.53 276.37,-351.72"/>
<polygon fill="#cdc8b1" stroke="#cdc8b1" points="275.11,-355 285.69,-354.57 277.15,-348.3 275.11,-355"/>
</g>
<!-- Idle -->
<g id="node12" class="node">
<title>Idle</title>
<polygon fill="none" stroke="black" points="127.25,-516 58.75,-516 58.75,-480 127.25,-480 127.25,-516"/>
<text text-anchor="middle" x="93" y="-492.57" font-family="Helvetica,sans-Serif" font-size="14.00">Idle (Init)</text>
</g>
</g>
</svg>
