<?xml version="1.0" encoding="UTF-8" standalone="no"?>
<!DOCTYPE svg PUBLIC "-//W3C//DTD SVG 1.1//EN"
 "http://www.w3.org/Graphics/SVG/1.1/DTD/svg11.dtd">
<!-- Generated by graphviz version 12.2.1 (20241206.2353)
 -->
<!-- Title: Foo Pages: 1 -->
<svg width="380pt" height="734pt"
 viewBox="0.00 0.00 379.62 734.00" xmlns="http://www.w3.org/2000/svg" xmlns:xlink="http://www.w3.org/1999/xlink">
<g id="graph0" class="graph" transform="scale(1 1) rotate(0) translate(4 730)">
<title>Foo</title>
<polygon fill="white" stroke="none" points="-4,4 -4,-730 375.62,-730 375.62,4 -4,4"/>
<g id="clust1" class="cluster">
<title>cluster_attacksensors</title>
<polygon fill="none" stroke="black" points="8,-8 8,-402 363.62,-402 363.62,-8 8,-8"/>
<text text-anchor="middle" x="185.81" y="-384.7" font-family="Helvetica,sans-Serif" font-size="14.00">Attack Sensors</text>
</g>
<!-- Level Once Sensor -->
<g id="node1" class="node">
<title>Level Once Sensor</title>
<polygon fill="none" stroke="black" points="28.5,-23.12 28.5,-44.88 157.5,-44.88 157.5,-23.12 28.5,-23.12"/>
<text text-anchor="start" x="31.5" y="-28.57" font-family="Helvetica,sans-Serif" font-size="14.00">Level Once Sensor &#160;</text>
</g>
<!-- Level Once Sensor_linked -->
<g id="node2" class="node">
<title>Level Once Sensor_linked</title>
<polygon fill="none" stroke="black" stroke-dasharray="1,5" points="345.98,-52 289.77,-52 289.77,-16 345.98,-16 345.98,-52"/>
<text text-anchor="start" x="295.38" y="-28.57" font-family="Helvetica,sans-Serif" font-size="14.00">Attack &#160;</text>
</g>
<!-- Level Once Sensor&#45;&gt;Level Once Sensor_linked -->
<g id="edge1" class="edge">
<title>Level Once Sensor&#45;&gt;Level Once Sensor_linked</title>
<path fill="none" stroke="#66cdaa" d="M165.44,-34C202.81,-34 247.1,-34 278.09,-34"/>
<polygon fill="#66cdaa" stroke="#66cdaa" points="277.77,-37.5 287.77,-34 277.77,-30.5 277.77,-37.5"/>
<text text-anchor="middle" x="227.38" y="-36.45" font-family="Helvetica,sans-Serif" font-size="14.00" fill="#66cdaa">QueueEnd</text>
</g>
<!-- Level Once Sensor_weight -->
<g id="node3" class="node">
<title>Level Once Sensor_weight</title>
<polygon fill="none" stroke="black" stroke-dasharray="1,5" points="355.62,-106 280.12,-106 280.12,-70 355.62,-70 355.62,-106"/>
<text text-anchor="start" x="290.12" y="-82.58" font-family="Helvetica,sans-Serif" font-size="14.00">1 Attack &#160;</text>
</g>
<!-- Level Once Sensor&#45;&gt;Level Once Sensor_weight -->
<g id="edge2" class="edge">
<title>Level Once Sensor&#45;&gt;Level Once Sensor_weight</title>
<path fill="none" stroke="#458b74" d="M165.44,-51.31C199.2,-59.49 238.6,-69.03 268.75,-76.34"/>
<polygon fill="#458b74" stroke="#458b74" points="267.81,-79.71 278.35,-78.67 269.46,-72.91 267.81,-79.71"/>
<text text-anchor="middle" x="227.38" y="-75.97" font-family="Helvetica,sans-Serif" font-size="14.00" fill="#458b74">Weight</text>
</g>
<!-- RunAwaySensor -->
<g id="node4" class="node">
<title>RunAwaySensor</title>
<polygon fill="none" stroke="black" points="36,-77.12 36,-98.88 150,-98.88 150,-77.12 36,-77.12"/>
<text text-anchor="start" x="39" y="-82.58" font-family="Helvetica,sans-Serif" font-size="14.00">RunAwaySensor &#160;</text>
</g>
<!-- AttackSensor -->
<g id="node5" class="node">
<title>AttackSensor</title>
<polygon fill="none" stroke="black" points="46.12,-131.12 46.12,-152.88 139.88,-152.88 139.88,-131.12 46.12,-131.12"/>
<text text-anchor="start" x="49.12" y="-136.57" font-family="Helvetica,sans-Serif" font-size="14.00">AttackSensor &#160;</text>
</g>
<!-- AttackSensor_linked -->
<g id="node6" class="node">
<title>AttackSensor_linked</title>
<polygon fill="none" stroke="black" stroke-dasharray="1,5" points="345.98,-160 289.77,-160 289.77,-124 345.98,-124 345.98,-160"/>
<text text-anchor="start" x="295.38" y="-136.57" font-family="Helvetica,sans-Serif" font-size="14.00">Attack &#160;</text>
</g>
<!-- AttackSensor&#45;&gt;AttackSensor_linked -->
<g id="edge3" class="edge">
<title>AttackSensor&#45;&gt;AttackSensor_linked</title>
<path fill="none" stroke="#66cdaa" d="M147.67,-142C187.82,-142 241.81,-142 277.9,-142"/>
<polygon fill="#66cdaa" stroke="#66cdaa" points="277.89,-145.5 287.89,-142 277.89,-138.5 277.89,-145.5"/>
<text text-anchor="middle" x="227.38" y="-144.45" font-family="Helvetica,sans-Serif" font-size="14.00" fill="#66cdaa">QueueEnd</text>
</g>
<!-- DodgePredictSensor -->
<g id="node7" class="node">
<title>DodgePredictSensor</title>
<polygon fill="none" stroke="black" points="24,-204 24,-225.75 162,-225.75 162,-204 24,-204"/>
<text text-anchor="start" x="27" y="-209.45" font-family="Helvetica,sans-Serif" font-size="14.00">DodgePredictSensor &#160;</text>
<polygon fill="none" stroke="black" points="24,-182.25 24,-204 162,-204 162,-182.25 24,-182.25"/>
<text text-anchor="start" x="27" y="-188.7" font-family="Helvetica,sans-Serif" font-size="12.00" fill="#838b8b">if: rollingCondition</text>
<text text-anchor="start" x="123.75" y="-188.7" font-family="Helvetica,sans-Serif" font-size="14.00"> &#160;</text>
</g>
<!-- DodgePredictSensor_linked -->
<g id="node8" class="node">
<title>DodgePredictSensor_linked</title>
<polygon fill="none" stroke="black" stroke-dasharray="1,5" points="345.98,-222 289.77,-222 289.77,-186 345.98,-186 345.98,-222"/>
<text text-anchor="start" x="295.38" y="-198.57" font-family="Helvetica,sans-Serif" font-size="14.00">Attack &#160;</text>
</g>
<!-- DodgePredictSensor&#45;&gt;DodgePredictSensor_linked -->
<g id="edge4" class="edge">
<title>DodgePredictSensor&#45;&gt;DodgePredictSensor_linked</title>
<path fill="none" stroke="#66cdaa" d="M169.77,-204C206.2,-204 248.31,-204 278.12,-204"/>
<polygon fill="#66cdaa" stroke="#66cdaa" points="277.79,-207.5 287.79,-204 277.78,-200.5 277.79,-207.5"/>
<text text-anchor="middle" x="227.38" y="-206.45" font-family="Helvetica,sans-Serif" font-size="14.00" fill="#66cdaa">QueueEnd</text>
</g>
<!-- AttackPredictSensor -->
<g id="node9" class="node">
<title>AttackPredictSensor</title>
<polygon fill="none" stroke="black" points="25.12,-274 25.12,-295.75 160.88,-295.75 160.88,-274 25.12,-274"/>
<text text-anchor="start" x="28.12" y="-279.45" font-family="Helvetica,sans-Serif" font-size="14.00">AttackPredictSensor &#160;</text>
<polygon fill="none" stroke="black" points="25.12,-252.25 25.12,-274 160.88,-274 160.88,-252.25 25.12,-252.25"/>
<text text-anchor="start" x="28.12" y="-258.7" font-family="Helvetica,sans-Serif" font-size="12.00" fill="#838b8b">if: attackCondition</text>
<text text-anchor="start" x="123.38" y="-258.7" font-family="Helvetica,sans-Serif" font-size="14.00"> &#160;</text>
</g>
<!-- AttackPredictSensor_linked -->
<g id="node10" class="node">
<title>AttackPredictSensor_linked</title>
<polygon fill="none" stroke="black" stroke-dasharray="1,5" points="345.98,-292 289.77,-292 289.77,-256 345.98,-256 345.98,-292"/>
<text text-anchor="start" x="295.38" y="-268.57" font-family="Helvetica,sans-Serif" font-size="14.00">Attack &#160;</text>
</g>
<!-- AttackPredictSensor&#45;&gt;AttackPredictSensor_linked -->
<g id="edge5" class="edge">
<title>AttackPredictSensor&#45;&gt;AttackPredictSensor_linked</title>
<path fill="none" stroke="#66cdaa" d="M168.83,-274C205.45,-274 248,-274 278.06,-274"/>
<polygon fill="#66cdaa" stroke="#66cdaa" points="277.82,-277.5 287.82,-274 277.82,-270.5 277.82,-277.5"/>
<text text-anchor="middle" x="227.38" y="-276.45" font-family="Helvetica,sans-Serif" font-size="14.00" fill="#66cdaa">QueueEnd</text>
</g>
<!-- AttackRunToSensor -->
<g id="node11" class="node">
<title>AttackRunToSensor</title>
<polygon fill="none" stroke="black" points="26.62,-344 26.62,-365.75 159.38,-365.75 159.38,-344 26.62,-344"/>
<text text-anchor="start" x="29.62" y="-349.45" font-family="Helvetica,sans-Serif" font-size="14.00">AttackRunToSensor &#160;</text>
<polygon fill="none" stroke="black" points="26.62,-322.25 26.62,-344 159.38,-344 159.38,-322.25 26.62,-322.25"/>
<text text-anchor="start" x="29.62" y="-328.7" font-family="Helvetica,sans-Serif" font-size="12.00" fill="#838b8b">if: state is Engaging</text>
<text text-anchor="start" x="133.88" y="-328.7" font-family="Helvetica,sans-Serif" font-size="14.00"> &#160;</text>
</g>
<!-- AttackRunToSensor_linked -->
<g id="node12" class="node">
<title>AttackRunToSensor_linked</title>
<polygon fill="none" stroke="black" stroke-dasharray="1,5" points="345.98,-362 289.77,-362 289.77,-326 345.98,-326 345.98,-362"/>
<text text-anchor="start" x="295.38" y="-338.57" font-family="Helvetica,sans-Serif" font-size="14.00">Attack &#160;</text>
</g>
<!-- AttackRunToSensor&#45;&gt;AttackRunToSensor_linked -->
<g id="edge6" class="edge">
<title>AttackRunToSensor&#45;&gt;AttackRunToSensor_linked</title>
<path fill="none" stroke="#66cdaa" d="M167.29,-344C204.25,-344 247.58,-344 278.06,-344"/>
<polygon fill="#66cdaa" stroke="#66cdaa" points="277.97,-347.5 287.97,-344 277.97,-340.5 277.97,-347.5"/>
<text text-anchor="middle" x="227.38" y="-346.45" font-family="Helvetica,sans-Serif" font-size="14.00" fill="#66cdaa">QueueEnd</text>
</g>
<!-- Attack -->
<g id="node13" class="node">
<title>Attack</title>
<polygon fill="none" stroke="black" points="54,-646 54,-667.75 132,-667.75 132,-646 54,-646"/>
<text text-anchor="start" x="70.5" y="-651.45" font-family="Helvetica,sans-Serif" font-size="14.00">Attack &#160;</text>
<polygon fill="none" stroke="black" points="54,-624.25 54,-646 132,-646 132,-624.25 54,-624.25"/>
<text text-anchor="start" x="57" y="-630.7" font-family="Helvetica,sans-Serif" font-size="12.00" fill="#838b8b">0.58s: Done</text>
<text text-anchor="start" x="121.5" y="-630.7" font-family="Helvetica,sans-Serif" font-size="14.00"> &#160;</text>
</g>
<!-- DeadState -->
<g id="node14" class="node">
<title>DeadState</title>
<polygon fill="none" stroke="black" points="357.75,-559 278,-559 278,-523 357.75,-523 357.75,-559"/>
<text text-anchor="middle" x="317.88" y="-535.58" font-family="Helvetica,sans-Serif" font-size="14.00">DeadState</text>
</g>
<!-- Attack&#45;&gt;DeadState -->
<g id="edge7" class="edge">
<title>Attack&#45;&gt;DeadState</title>
<path fill="none" stroke="#cdc8b1" d="M139.75,-627.26C151.85,-622.14 164.85,-616.48 176.75,-611 208.73,-596.27 244.2,-578.54 271.45,-564.6"/>
<polygon fill="#cdc8b1" stroke="#cdc8b1" points="272.82,-567.83 280.12,-560.15 269.63,-561.61 272.82,-567.83"/>
</g>
<!-- Explode -->
<g id="node15" class="node">
<title>Explode</title>
<polygon fill="none" stroke="black" points="54,-576 54,-597.75 132,-597.75 132,-576 54,-576"/>
<text text-anchor="start" x="64.88" y="-581.45" font-family="Helvetica,sans-Serif" font-size="14.00">Explode &#160;</text>
<polygon fill="none" stroke="black" points="54,-554.25 54,-576 132,-576 132,-554.25 54,-554.25"/>
<text text-anchor="start" x="57" y="-560.7" font-family="Helvetica,sans-Serif" font-size="12.00" fill="#838b8b">0.25s: Done</text>
<text text-anchor="start" x="121.5" y="-560.7" font-family="Helvetica,sans-Serif" font-size="14.00"> &#160;</text>
</g>
<!-- Explode&#45;&gt;DeadState -->
<g id="edge8" class="edge">
<title>Explode&#45;&gt;DeadState</title>
<path fill="none" stroke="#cdc8b1" d="M139.91,-568.79C176.75,-563.01 228.41,-554.89 266.4,-548.93"/>
<polygon fill="#cdc8b1" stroke="#cdc8b1" points="266.89,-552.39 276.23,-547.38 265.81,-545.48 266.89,-552.39"/>
</g>
<!-- HurtState -->
<g id="node16" class="node">
<title>HurtState</title>
<polygon fill="none" stroke="black" points="54,-506 54,-527.75 132,-527.75 132,-506 54,-506"/>
<text text-anchor="start" x="60.75" y="-511.45" font-family="Helvetica,sans-Serif" font-size="14.00">HurtState &#160;</text>
<polygon fill="none" stroke="black" points="54,-484.25 54,-506 132,-506 132,-484.25 54,-484.25"/>
<text text-anchor="start" x="57" y="-490.7" font-family="Helvetica,sans-Serif" font-size="12.00" fill="#838b8b">0.08s: Done</text>
<text text-anchor="start" x="121.5" y="-490.7" font-family="Helvetica,sans-Serif" font-size="14.00"> &#160;</text>
</g>
<!-- HurtState&#45;&gt;DeadState -->
<g id="edge9" class="edge">
<title>HurtState&#45;&gt;DeadState</title>
<path fill="none" stroke="#cdc8b1" d="M139.91,-513.21C176.75,-518.99 228.41,-527.11 266.4,-533.07"/>
<polygon fill="#cdc8b1" stroke="#cdc8b1" points="265.81,-536.52 276.23,-534.62 266.89,-529.61 265.81,-536.52"/>
</g>
<!-- Hurt_BigState -->
<g id="node17" class="node">
<title>Hurt_BigState</title>
<polygon fill="none" stroke="black" points="44.25,-436 44.25,-457.75 141.75,-457.75 141.75,-436 44.25,-436"/>
<text text-anchor="start" x="47.25" y="-441.45" font-family="Helvetica,sans-Serif" font-size="14.00">Hurt_BigState &#160;</text>
<polygon fill="none" stroke="black" points="44.25,-414.25 44.25,-436 141.75,-436 141.75,-414.25 44.25,-414.25"/>
<text text-anchor="start" x="47.25" y="-420.7" font-family="Helvetica,sans-Serif" font-size="12.00" fill="#838b8b">0.08s: Done</text>
<text text-anchor="start" x="111.75" y="-420.7" font-family="Helvetica,sans-Serif" font-size="14.00"> &#160;</text>
</g>
<!-- Hurt_BigState&#45;&gt;DeadState -->
<g id="edge10" class="edge">
<title>Hurt_BigState&#45;&gt;DeadState</title>
<path fill="none" stroke="#cdc8b1" d="M149.41,-458.86C158.58,-462.81 167.97,-466.95 176.75,-471 208.73,-485.73 244.2,-503.46 271.45,-517.4"/>
<polygon fill="#cdc8b1" stroke="#cdc8b1" points="269.63,-520.39 280.12,-521.85 272.82,-514.17 269.63,-520.39"/>
</g>
<!-- Wandering_Walking -->
<g id="node18" class="node">
<title>Wandering_Walking</title>
<polygon fill="none" stroke="black" points="176.75,-726 9.25,-726 9.25,-690 176.75,-690 176.75,-726"/>
<text text-anchor="middle" x="93" y="-702.58" font-family="Helvetica,sans-Serif" font-size="14.00">Wandering_Walking (Init)</text>
</g>
</g>
</svg>
