<?xml version="1.0" encoding="UTF-8" standalone="no"?>
<!DOCTYPE svg PUBLIC "-//W3C//DTD SVG 1.1//EN"
 "http://www.w3.org/Graphics/SVG/1.1/DTD/svg11.dtd">
<!-- Generated by graphviz version 12.2.1 (20241206.2353)
 -->
<!-- Title: Foo Pages: 1 -->
<svg width="402pt" height="736pt"
 viewBox="0.00 0.00 402.25 735.75" xmlns="http://www.w3.org/2000/svg" xmlns:xlink="http://www.w3.org/1999/xlink">
<g id="graph0" class="graph" transform="scale(1 1) rotate(0) translate(4 731.75)">
<title>Foo</title>
<polygon fill="white" stroke="none" points="-4,4 -4,-731.75 398.25,-731.75 398.25,4 -4,4"/>
<g id="clust1" class="cluster">
<title>cluster_attacksensors</title>
<polygon fill="none" stroke="black" points="8,-325.75 8,-719.75 386.25,-719.75 386.25,-325.75 8,-325.75"/>
<text text-anchor="middle" x="197.12" y="-702.45" font-family="Helvetica,sans-Serif" font-size="14.00">Attack Sensors</text>
</g>
<!-- Attack -->
<g id="node1" class="node">
<title>Attack</title>
<polygon fill="none" stroke="black" points="54,-235.75 54,-257.5 132,-257.5 132,-235.75 54,-235.75"/>
<text text-anchor="start" x="70.5" y="-241.2" font-family="Helvetica,sans-Serif" font-size="14.00">Attack &#160;</text>
<polygon fill="none" stroke="black" points="54,-214 54,-235.75 132,-235.75 132,-214 54,-214"/>
<text text-anchor="start" x="57" y="-220.45" font-family="Helvetica,sans-Serif" font-size="12.00" fill="#838b8b">0.58s: Done</text>
<text text-anchor="start" x="121.5" y="-220.45" font-family="Helvetica,sans-Serif" font-size="14.00"> &#160;</text>
</g>
<!-- DeadState -->
<g id="node2" class="node">
<title>DeadState</title>
<polygon fill="none" stroke="black" points="368,-148.75 288.25,-148.75 288.25,-112.75 368,-112.75 368,-148.75"/>
<text text-anchor="middle" x="328.12" y="-125.33" font-family="Helvetica,sans-Serif" font-size="14.00">DeadState</text>
</g>
<!-- Attack&#45;&gt;DeadState -->
<g id="edge1" class="edge">
<title>Attack&#45;&gt;DeadState</title>
<path fill="none" stroke="#cdc8b1" d="M139.65,-216.78C151.75,-211.66 164.77,-206.07 176.75,-200.75 210.86,-185.61 248.96,-167.86 278.28,-154.02"/>
<polygon fill="#cdc8b1" stroke="#cdc8b1" points="279.75,-157.2 287.3,-149.76 276.76,-150.87 279.75,-157.2"/>
</g>
<!-- Explode -->
<g id="node3" class="node">
<title>Explode</title>
<polygon fill="none" stroke="black" points="54,-165.75 54,-187.5 132,-187.5 132,-165.75 54,-165.75"/>
<text text-anchor="start" x="64.88" y="-171.2" font-family="Helvetica,sans-Serif" font-size="14.00">Explode &#160;</text>
<polygon fill="none" stroke="black" points="54,-144 54,-165.75 132,-165.75 132,-144 54,-144"/>
<text text-anchor="start" x="57" y="-150.45" font-family="Helvetica,sans-Serif" font-size="12.00" fill="#838b8b">0.25s: Done</text>
<text text-anchor="start" x="121.5" y="-150.45" font-family="Helvetica,sans-Serif" font-size="14.00"> &#160;</text>
</g>
<!-- Explode&#45;&gt;DeadState -->
<g id="edge2" class="edge">
<title>Explode&#45;&gt;DeadState</title>
<path fill="none" stroke="#cdc8b1" d="M139.78,-158.88C179.21,-152.96 236.03,-144.43 276.74,-138.31"/>
<polygon fill="#cdc8b1" stroke="#cdc8b1" points="277.16,-141.79 286.53,-136.84 276.12,-134.87 277.16,-141.79"/>
</g>
<!-- HurtState -->
<g id="node4" class="node">
<title>HurtState</title>
<polygon fill="none" stroke="black" points="54,-95.75 54,-117.5 132,-117.5 132,-95.75 54,-95.75"/>
<text text-anchor="start" x="60.75" y="-101.2" font-family="Helvetica,sans-Serif" font-size="14.00">HurtState &#160;</text>
<polygon fill="none" stroke="black" points="54,-74 54,-95.75 132,-95.75 132,-74 54,-74"/>
<text text-anchor="start" x="57" y="-80.45" font-family="Helvetica,sans-Serif" font-size="12.00" fill="#838b8b">0.08s: Done</text>
<text text-anchor="start" x="121.5" y="-80.45" font-family="Helvetica,sans-Serif" font-size="14.00"> &#160;</text>
</g>
<!-- HurtState&#45;&gt;DeadState -->
<g id="edge3" class="edge">
<title>HurtState&#45;&gt;DeadState</title>
<path fill="none" stroke="#cdc8b1" d="M139.78,-102.62C179.21,-108.54 236.03,-117.07 276.74,-123.19"/>
<polygon fill="#cdc8b1" stroke="#cdc8b1" points="276.12,-126.63 286.53,-124.66 277.16,-119.71 276.12,-126.63"/>
</g>
<!-- Hurt_BigState -->
<g id="node5" class="node">
<title>Hurt_BigState</title>
<polygon fill="none" stroke="black" points="44.25,-25.75 44.25,-47.5 141.75,-47.5 141.75,-25.75 44.25,-25.75"/>
<text text-anchor="start" x="47.25" y="-31.2" font-family="Helvetica,sans-Serif" font-size="14.00">Hurt_BigState &#160;</text>
<polygon fill="none" stroke="black" points="44.25,-4 44.25,-25.75 141.75,-25.75 141.75,-4 44.25,-4"/>
<text text-anchor="start" x="47.25" y="-10.45" font-family="Helvetica,sans-Serif" font-size="12.00" fill="#838b8b">0.08s: Done</text>
<text text-anchor="start" x="111.75" y="-10.45" font-family="Helvetica,sans-Serif" font-size="14.00"> &#160;</text>
</g>
<!-- Hurt_BigState&#45;&gt;DeadState -->
<g id="edge4" class="edge">
<title>Hurt_BigState&#45;&gt;DeadState</title>
<path fill="none" stroke="#cdc8b1" d="M149.31,-48.82C158.5,-52.75 167.91,-56.83 176.75,-60.75 210.86,-75.89 248.96,-93.64 278.28,-107.48"/>
<polygon fill="#cdc8b1" stroke="#cdc8b1" points="276.76,-110.63 287.3,-111.74 279.75,-104.3 276.76,-110.63"/>
</g>
<!-- Wandering_Walking -->
<g id="node6" class="node">
<title>Wandering_Walking</title>
<polygon fill="none" stroke="black" points="176.75,-315.75 9.25,-315.75 9.25,-279.75 176.75,-279.75 176.75,-315.75"/>
<text text-anchor="middle" x="93" y="-292.32" font-family="Helvetica,sans-Serif" font-size="14.00">Wandering_Walking (Init)</text>
</g>
<!-- Level Once Sensor -->
<g id="node7" class="node">
<title>Level Once Sensor</title>
<polygon fill="none" stroke="black" points="158.75,-369.75 27.25,-369.75 27.25,-333.75 158.75,-333.75 158.75,-369.75"/>
<text text-anchor="middle" x="93" y="-346.32" font-family="Helvetica,sans-Serif" font-size="14.00">Level Once Sensor</text>
</g>
<!-- Level Once Sensor_linked -->
<g id="node8" class="node">
<title>Level Once Sensor_linked</title>
<polygon fill="none" stroke="black" stroke-dasharray="1,5" points="356.23,-369.75 300.02,-369.75 300.02,-333.75 356.23,-333.75 356.23,-369.75"/>
<text text-anchor="start" x="305.62" y="-346.32" font-family="Helvetica,sans-Serif" font-size="14.00">Attack &#160;</text>
</g>
<!-- Level Once Sensor&#45;&gt;Level Once Sensor_linked -->
<g id="edge5" class="edge">
<title>Level Once Sensor&#45;&gt;Level Once Sensor_linked</title>
<path fill="none" stroke="#66cdaa" d="M159.25,-351.75C200.88,-351.75 253.42,-351.75 288.53,-351.75"/>
<polygon fill="#66cdaa" stroke="#66cdaa" points="288.22,-355.25 298.22,-351.75 288.22,-348.25 288.22,-355.25"/>
<text text-anchor="middle" x="227.38" y="-354.2" font-family="Helvetica,sans-Serif" font-size="14.00" fill="#66cdaa">QueueEnd</text>
</g>
<!-- Level Once Sensor_mustuse -->
<g id="node9" class="node">
<title>Level Once Sensor_mustuse</title>
<polygon fill="none" stroke="black" stroke-dasharray="1,5" points="378.25,-423.75 278,-423.75 278,-387.75 378.25,-387.75 378.25,-423.75"/>
<text text-anchor="start" x="288" y="-400.32" font-family="Helvetica,sans-Serif" font-size="14.00">1 Undefined &#160;</text>
</g>
<!-- Level Once Sensor&#45;&gt;Level Once Sensor_mustuse -->
<g id="edge6" class="edge">
<title>Level Once Sensor&#45;&gt;Level Once Sensor_mustuse</title>
<path fill="none" stroke="#458b74" d="M159.25,-366.86C193.01,-374.68 233.95,-384.17 266.95,-391.81"/>
<polygon fill="#458b74" stroke="#458b74" points="265.81,-395.14 276.34,-393.99 267.39,-388.32 265.81,-395.14"/>
<text text-anchor="middle" x="227.38" y="-392.24" font-family="Helvetica,sans-Serif" font-size="14.00" fill="#458b74">Weight</text>
</g>
<!-- RunAwaySensor -->
<g id="node10" class="node">
<title>RunAwaySensor</title>
<polygon fill="none" stroke="black" points="151.25,-423.75 34.75,-423.75 34.75,-387.75 151.25,-387.75 151.25,-423.75"/>
<text text-anchor="middle" x="93" y="-400.32" font-family="Helvetica,sans-Serif" font-size="14.00">RunAwaySensor</text>
</g>
<!-- AttackSensor -->
<g id="node11" class="node">
<title>AttackSensor</title>
<polygon fill="none" stroke="black" points="141.12,-477.75 44.88,-477.75 44.88,-441.75 141.12,-441.75 141.12,-477.75"/>
<text text-anchor="middle" x="93" y="-454.32" font-family="Helvetica,sans-Serif" font-size="14.00">AttackSensor</text>
</g>
<!-- AttackSensor_linked -->
<g id="node12" class="node">
<title>AttackSensor_linked</title>
<polygon fill="none" stroke="black" stroke-dasharray="1,5" points="356.23,-477.75 300.02,-477.75 300.02,-441.75 356.23,-441.75 356.23,-477.75"/>
<text text-anchor="start" x="305.62" y="-454.32" font-family="Helvetica,sans-Serif" font-size="14.00">Attack &#160;</text>
</g>
<!-- AttackSensor&#45;&gt;AttackSensor_linked -->
<g id="edge7" class="edge">
<title>AttackSensor&#45;&gt;AttackSensor_linked</title>
<path fill="none" stroke="#66cdaa" d="M141.46,-459.75C184.74,-459.75 247.93,-459.75 288.28,-459.75"/>
<polygon fill="#66cdaa" stroke="#66cdaa" points="288.26,-463.25 298.26,-459.75 288.26,-456.25 288.26,-463.25"/>
<text text-anchor="middle" x="227.38" y="-462.2" font-family="Helvetica,sans-Serif" font-size="14.00" fill="#66cdaa">QueueEnd</text>
</g>
<!-- DodgePredictSensor -->
<g id="node13" class="node">
<title>DodgePredictSensor</title>
<polygon fill="none" stroke="black" points="24,-521.75 24,-543.5 162,-543.5 162,-521.75 24,-521.75"/>
<text text-anchor="start" x="27" y="-527.2" font-family="Helvetica,sans-Serif" font-size="14.00">DodgePredictSensor &#160;</text>
<polygon fill="none" stroke="black" points="24,-500 24,-521.75 162,-521.75 162,-500 24,-500"/>
<text text-anchor="start" x="27" y="-506.45" font-family="Helvetica,sans-Serif" font-size="12.00" fill="#838b8b">if: Dodge</text>
<text text-anchor="start" x="75" y="-506.45" font-family="Helvetica,sans-Serif" font-size="14.00"> &#160;</text>
</g>
<!-- DodgePredictSensor_linked -->
<g id="node14" class="node">
<title>DodgePredictSensor_linked</title>
<polygon fill="none" stroke="black" stroke-dasharray="1,5" points="356.23,-539.75 300.02,-539.75 300.02,-503.75 356.23,-503.75 356.23,-539.75"/>
<text text-anchor="start" x="305.62" y="-516.33" font-family="Helvetica,sans-Serif" font-size="14.00">Attack &#160;</text>
</g>
<!-- DodgePredictSensor&#45;&gt;DodgePredictSensor_linked -->
<g id="edge8" class="edge">
<title>DodgePredictSensor&#45;&gt;DodgePredictSensor_linked</title>
<path fill="none" stroke="#66cdaa" d="M169.69,-521.75C209.36,-521.75 256.25,-521.75 288.49,-521.75"/>
<polygon fill="#66cdaa" stroke="#66cdaa" points="288.14,-525.25 298.14,-521.75 288.14,-518.25 288.14,-525.25"/>
<text text-anchor="middle" x="227.38" y="-524.2" font-family="Helvetica,sans-Serif" font-size="14.00" fill="#66cdaa">QueueEnd</text>
</g>
<!-- AttackPredictSensor -->
<g id="node15" class="node">
<title>AttackPredictSensor</title>
<polygon fill="none" stroke="black" points="25.12,-591.75 25.12,-613.5 160.88,-613.5 160.88,-591.75 25.12,-591.75"/>
<text text-anchor="start" x="28.12" y="-597.2" font-family="Helvetica,sans-Serif" font-size="14.00">AttackPredictSensor &#160;</text>
<polygon fill="none" stroke="black" points="25.12,-570 25.12,-591.75 160.88,-591.75 160.88,-570 25.12,-570"/>
<text text-anchor="start" x="28.12" y="-576.45" font-family="Helvetica,sans-Serif" font-size="12.00" fill="#838b8b">if: Attack</text>
<text text-anchor="start" x="73.12" y="-576.45" font-family="Helvetica,sans-Serif" font-size="14.00"> &#160;</text>
</g>
<!-- AttackPredictSensor_linked -->
<g id="node16" class="node">
<title>AttackPredictSensor_linked</title>
<polygon fill="none" stroke="black" stroke-dasharray="1,5" points="356.23,-609.75 300.02,-609.75 300.02,-573.75 356.23,-573.75 356.23,-609.75"/>
<text text-anchor="start" x="305.62" y="-586.33" font-family="Helvetica,sans-Serif" font-size="14.00">Attack &#160;</text>
</g>
<!-- AttackPredictSensor&#45;&gt;AttackPredictSensor_linked -->
<g id="edge9" class="edge">
<title>AttackPredictSensor&#45;&gt;AttackPredictSensor_linked</title>
<path fill="none" stroke="#66cdaa" d="M168.72,-591.75C208.58,-591.75 255.96,-591.75 288.45,-591.75"/>
<polygon fill="#66cdaa" stroke="#66cdaa" points="288.19,-595.25 298.19,-591.75 288.19,-588.25 288.19,-595.25"/>
<text text-anchor="middle" x="227.38" y="-594.2" font-family="Helvetica,sans-Serif" font-size="14.00" fill="#66cdaa">QueueEnd</text>
</g>
<!-- AttackRunToSensor -->
<g id="node17" class="node">
<title>AttackRunToSensor</title>
<polygon fill="none" stroke="black" points="26.62,-661.75 26.62,-683.5 159.38,-683.5 159.38,-661.75 26.62,-661.75"/>
<text text-anchor="start" x="29.62" y="-667.2" font-family="Helvetica,sans-Serif" font-size="14.00">AttackRunToSensor &#160;</text>
<polygon fill="none" stroke="black" points="26.62,-640 26.62,-661.75 159.38,-661.75 159.38,-640 26.62,-640"/>
<text text-anchor="start" x="29.62" y="-646.45" font-family="Helvetica,sans-Serif" font-size="12.00" fill="#838b8b">if: state is Engaging</text>
<text text-anchor="start" x="133.88" y="-646.45" font-family="Helvetica,sans-Serif" font-size="14.00"> &#160;</text>
</g>
<!-- AttackRunToSensor_linked -->
<g id="node18" class="node">
<title>AttackRunToSensor_linked</title>
<polygon fill="none" stroke="black" stroke-dasharray="1,5" points="356.23,-679.75 300.02,-679.75 300.02,-643.75 356.23,-643.75 356.23,-679.75"/>
<text text-anchor="start" x="305.62" y="-656.33" font-family="Helvetica,sans-Serif" font-size="14.00">Attack &#160;</text>
</g>
<!-- AttackRunToSensor&#45;&gt;AttackRunToSensor_linked -->
<g id="edge10" class="edge">
<title>AttackRunToSensor&#45;&gt;AttackRunToSensor_linked</title>
<path fill="none" stroke="#66cdaa" d="M167.12,-661.75C207.2,-661.75 255.27,-661.75 288.2,-661.75"/>
<polygon fill="#66cdaa" stroke="#66cdaa" points="288.08,-665.25 298.08,-661.75 288.08,-658.25 288.08,-665.25"/>
<text text-anchor="middle" x="227.38" y="-664.2" font-family="Helvetica,sans-Serif" font-size="14.00" fill="#66cdaa">QueueEnd</text>
</g>
</g>
</svg>
