<?xml version="1.0" encoding="UTF-8" standalone="no"?>
<!DOCTYPE svg PUBLIC "-//W3C//DTD SVG 1.1//EN"
 "http://www.w3.org/Graphics/SVG/1.1/DTD/svg11.dtd">
<!-- Generated by graphviz version 12.2.1 (20241206.2353)
 -->
<!-- Title: Foo Pages: 1 -->
<svg width="448pt" height="1124pt"
 viewBox="0.00 0.00 448.00 1124.00" xmlns="http://www.w3.org/2000/svg" xmlns:xlink="http://www.w3.org/1999/xlink">
<g id="graph0" class="graph" transform="scale(1 1) rotate(0) translate(4 1120)">
<title>Foo</title>
<polygon fill="white" stroke="none" points="-4,4 -4,-1120 444,-1120 444,4 -4,4"/>
<g id="clust1" class="cluster">
<title>cluster_attacksensors</title>
<polygon fill="none" stroke="black" points="8,-8 8,-564 432,-564 432,-8 8,-8"/>
<text text-anchor="middle" x="220" y="-546.7" font-family="Helvetica,sans-Serif" font-size="14.00">Attack Sensors</text>
</g>
<!-- Level Once Sensor -->
<g id="node1" class="node">
<title>Level Once Sensor</title>
<polygon fill="none" stroke="black" points="28.88,-51.12 28.88,-72.88 157.88,-72.88 157.88,-51.12 28.88,-51.12"/>
<text text-anchor="start" x="31.88" y="-56.58" font-family="Helvetica,sans-Serif" font-size="14.00">Level Once Sensor &#160;</text>
</g>
<!-- Level Once Sensor_linked -->
<g id="node2" class="node">
<title>Level Once Sensor_linked</title>
<polygon fill="none" stroke="black" stroke-dasharray="1,5" points="376.1,-52 319.9,-52 319.9,-16 376.1,-16 376.1,-52"/>
<text text-anchor="start" x="325.5" y="-28.57" font-family="Helvetica,sans-Serif" font-size="14.00">Attack &#160;</text>
</g>
<!-- Level Once Sensor&#45;&gt;Level Once Sensor_linked -->
<g id="edge1" class="edge">
<title>Level Once Sensor&#45;&gt;Level Once Sensor_linked</title>
<path fill="none" stroke="#66cdaa" d="M165.75,-54.09C212.17,-48.94 270.87,-42.44 308.67,-38.25"/>
<polygon fill="#66cdaa" stroke="#66cdaa" points="308.64,-41.77 318.19,-37.19 307.87,-34.82 308.64,-41.77"/>
<text text-anchor="middle" x="221.38" y="-53.78" font-family="Helvetica,sans-Serif" font-size="14.00" fill="#66cdaa">QueueEnd</text>
</g>
<!-- Level Once Sensor_weight -->
<g id="node3" class="node">
<title>Level Once Sensor_weight</title>
<polygon fill="none" stroke="black" stroke-dasharray="1,5" points="385.75,-106 310.25,-106 310.25,-70 385.75,-70 385.75,-106"/>
<text text-anchor="start" x="320.25" y="-82.58" font-family="Helvetica,sans-Serif" font-size="14.00">1 Attack &#160;</text>
</g>
<!-- Level Once Sensor&#45;&gt;Level Once Sensor_weight -->
<g id="edge2" class="edge">
<title>Level Once Sensor&#45;&gt;Level Once Sensor_weight</title>
<path fill="none" stroke="#458b74" d="M165.75,-69.35C208.33,-73.73 261.25,-79.17 298.89,-83.05"/>
<polygon fill="#458b74" stroke="#458b74" points="298.24,-86.5 308.55,-84.04 298.96,-79.54 298.24,-86.5"/>
<text text-anchor="middle" x="221.38" y="-80.54" font-family="Helvetica,sans-Serif" font-size="14.00" fill="#458b74">Weight</text>
</g>
<!-- RunAwaySensor -->
<g id="node4" class="node">
<title>RunAwaySensor</title>
<polygon fill="none" stroke="black" points="36.38,-147.12 36.38,-168.88 150.38,-168.88 150.38,-147.12 36.38,-147.12"/>
<text text-anchor="start" x="39.38" y="-152.57" font-family="Helvetica,sans-Serif" font-size="14.00">RunAwaySensor &#160;</text>
</g>
<!-- AttackSensor -->
<g id="node5" class="node">
<title>AttackSensor</title>
<polygon fill="none" stroke="black" points="46.5,-218.12 46.5,-239.88 140.25,-239.88 140.25,-218.12 46.5,-218.12"/>
<text text-anchor="start" x="49.5" y="-223.57" font-family="Helvetica,sans-Serif" font-size="14.00">AttackSensor &#160;</text>
</g>
<!-- AttackSensor_linked -->
<g id="node6" class="node">
<title>AttackSensor_linked</title>
<polygon fill="none" stroke="black" stroke-dasharray="1,5" points="414.35,-229.98 281.65,-229.98 281.65,-124.02 414.35,-124.02 414.35,-229.98"/>
<text text-anchor="start" x="325.5" y="-211.07" font-family="Helvetica,sans-Serif" font-size="14.00">Attack &#160;</text>
<text text-anchor="start" x="321.75" y="-191.32" font-family="Helvetica,sans-Serif" font-size="14.00">Attack2 &#160;</text>
<text text-anchor="start" x="325.5" y="-171.57" font-family="Helvetica,sans-Serif" font-size="14.00">Attack &#160;</text>
<text text-anchor="start" x="321.75" y="-151.82" font-family="Helvetica,sans-Serif" font-size="14.00">Attack2 &#160;</text>
<text text-anchor="start" x="287.25" y="-132.07" font-family="Helvetica,sans-Serif" font-size="14.00">Attack3 danger run &#160;</text>
</g>
<!-- AttackSensor&#45;&gt;AttackSensor_linked -->
<g id="edge3" class="edge">
<title>AttackSensor&#45;&gt;AttackSensor_linked</title>
<path fill="none" stroke="#66cdaa" d="M147.95,-217.97C183.49,-210.66 230.68,-200.94 270.19,-192.81"/>
<polygon fill="#66cdaa" stroke="#66cdaa" points="270.81,-196.26 279.9,-190.81 269.4,-189.4 270.81,-196.26"/>
<text text-anchor="middle" x="221.38" y="-211.64" font-family="Helvetica,sans-Serif" font-size="14.00" fill="#66cdaa">QueueEnd</text>
</g>
<!-- AttackSensor_weight -->
<g id="node7" class="node">
<title>AttackSensor_weight</title>
<polygon fill="none" stroke="black" stroke-dasharray="1,5" points="424,-315.62 272,-315.62 272,-248.38 424,-248.38 424,-315.62"/>
<text text-anchor="start" x="320.25" y="-296.32" font-family="Helvetica,sans-Serif" font-size="14.00">1 Attack &#160;</text>
<text text-anchor="start" x="282" y="-276.57" font-family="Helvetica,sans-Serif" font-size="14.00">1 Attack3 danger run &#160;</text>
<text text-anchor="start" x="287.25" y="-256.82" font-family="Helvetica,sans-Serif" font-size="14.00">1 Attack4 tripple hit &#160;</text>
</g>
<!-- AttackSensor&#45;&gt;AttackSensor_weight -->
<g id="edge4" class="edge">
<title>AttackSensor&#45;&gt;AttackSensor_weight</title>
<path fill="none" stroke="#458b74" d="M147.95,-240.24C180.77,-247.13 223.54,-256.1 261.01,-263.96"/>
<polygon fill="#458b74" stroke="#458b74" points="259.95,-267.31 270.46,-265.94 261.39,-260.46 259.95,-267.31"/>
<text text-anchor="middle" x="221.38" y="-264.26" font-family="Helvetica,sans-Serif" font-size="14.00" fill="#458b74">Weight</text>
</g>
<!-- DodgePredictSensor -->
<g id="node8" class="node">
<title>DodgePredictSensor</title>
<polygon fill="none" stroke="black" points="24.38,-312 24.38,-333.75 162.38,-333.75 162.38,-312 24.38,-312"/>
<text text-anchor="start" x="27.38" y="-317.45" font-family="Helvetica,sans-Serif" font-size="14.00">DodgePredictSensor &#160;</text>
<polygon fill="none" stroke="black" points="24.38,-290.25 24.38,-312 162.38,-312 162.38,-290.25 24.38,-290.25"/>
<text text-anchor="start" x="27.38" y="-296.7" font-family="Helvetica,sans-Serif" font-size="12.00" fill="#838b8b">if: rollingCondition</text>
<text text-anchor="start" x="124.12" y="-296.7" font-family="Helvetica,sans-Serif" font-size="14.00"> &#160;</text>
</g>
<!-- DodgePredictSensor_linked -->
<g id="node9" class="node">
<title>DodgePredictSensor_linked</title>
<polygon fill="none" stroke="black" stroke-dasharray="1,5" points="376.1,-370 319.9,-370 319.9,-334 376.1,-334 376.1,-370"/>
<text text-anchor="start" x="325.5" y="-346.57" font-family="Helvetica,sans-Serif" font-size="14.00">Attack &#160;</text>
</g>
<!-- DodgePredictSensor&#45;&gt;DodgePredictSensor_linked -->
<g id="edge5" class="edge">
<title>DodgePredictSensor&#45;&gt;DodgePredictSensor_linked</title>
<path fill="none" stroke="#66cdaa" d="M170.17,-324C215.68,-331.21 271.66,-340.07 308.28,-345.87"/>
<polygon fill="#66cdaa" stroke="#66cdaa" points="307.54,-349.29 317.96,-347.4 308.63,-342.38 307.54,-349.29"/>
<text text-anchor="middle" x="221.38" y="-339.21" font-family="Helvetica,sans-Serif" font-size="14.00" fill="#66cdaa">QueueEnd</text>
</g>
<!-- AttackPredictSensor -->
<g id="node10" class="node">
<title>AttackPredictSensor</title>
<polygon fill="none" stroke="black" points="25.5,-382 25.5,-403.75 161.25,-403.75 161.25,-382 25.5,-382"/>
<text text-anchor="start" x="28.5" y="-387.45" font-family="Helvetica,sans-Serif" font-size="14.00">AttackPredictSensor &#160;</text>
<polygon fill="none" stroke="black" points="25.5,-360.25 25.5,-382 161.25,-382 161.25,-360.25 25.5,-360.25"/>
<text text-anchor="start" x="28.5" y="-366.7" font-family="Helvetica,sans-Serif" font-size="12.00" fill="#838b8b">if: attackCondition</text>
<text text-anchor="start" x="123.75" y="-366.7" font-family="Helvetica,sans-Serif" font-size="14.00"> &#160;</text>
</g>
<!-- AttackPredictSensor_linked -->
<g id="node11" class="node">
<title>AttackPredictSensor_linked</title>
<polygon fill="none" stroke="black" stroke-dasharray="1,5" points="376.1,-424 319.9,-424 319.9,-388 376.1,-388 376.1,-424"/>
<text text-anchor="start" x="325.5" y="-400.57" font-family="Helvetica,sans-Serif" font-size="14.00">Attack &#160;</text>
</g>
<!-- AttackPredictSensor&#45;&gt;AttackPredictSensor_linked -->
<g id="edge6" class="edge">
<title>AttackPredictSensor&#45;&gt;AttackPredictSensor_linked</title>
<path fill="none" stroke="#66cdaa" d="M169.15,-389.1C214.83,-393.44 271.38,-398.82 308.28,-402.32"/>
<polygon fill="#66cdaa" stroke="#66cdaa" points="307.74,-405.79 318.02,-403.25 308.4,-398.82 307.74,-405.79"/>
<text text-anchor="middle" x="221.38" y="-399.31" font-family="Helvetica,sans-Serif" font-size="14.00" fill="#66cdaa">QueueEnd</text>
</g>
<!-- AttackRunToSensor -->
<g id="node12" class="node">
<title>AttackRunToSensor</title>
<polygon fill="none" stroke="black" points="27,-452 27,-473.75 159.75,-473.75 159.75,-452 27,-452"/>
<text text-anchor="start" x="30" y="-457.45" font-family="Helvetica,sans-Serif" font-size="14.00">AttackRunToSensor &#160;</text>
<polygon fill="none" stroke="black" points="27,-430.25 27,-452 159.75,-452 159.75,-430.25 27,-430.25"/>
<text text-anchor="start" x="30" y="-436.7" font-family="Helvetica,sans-Serif" font-size="12.00" fill="#838b8b">if: state is Engaging</text>
<text text-anchor="start" x="134.25" y="-436.7" font-family="Helvetica,sans-Serif" font-size="14.00"> &#160;</text>
</g>
<!-- AttackRunToSensor_linked -->
<g id="node13" class="node">
<title>AttackRunToSensor_linked</title>
<polygon fill="none" stroke="black" stroke-dasharray="1,5" points="376.1,-478 319.9,-478 319.9,-442 376.1,-442 376.1,-478"/>
<text text-anchor="start" x="325.5" y="-454.57" font-family="Helvetica,sans-Serif" font-size="14.00">Attack &#160;</text>
</g>
<!-- AttackRunToSensor&#45;&gt;AttackRunToSensor_linked -->
<g id="edge7" class="edge">
<title>AttackRunToSensor&#45;&gt;AttackRunToSensor_linked</title>
<path fill="none" stroke="#66cdaa" d="M167.44,-454.31C213.34,-455.77 270.7,-457.58 308.07,-458.77"/>
<polygon fill="#66cdaa" stroke="#66cdaa" points="307.84,-462.26 317.94,-459.08 308.06,-455.26 307.84,-462.26"/>
<text text-anchor="middle" x="221.38" y="-459.4" font-family="Helvetica,sans-Serif" font-size="14.00" fill="#66cdaa">QueueEnd</text>
</g>
<!-- AttackSensor(chase) -->
<g id="node14" class="node">
<title>AttackSensor(chase)</title>
<polygon fill="none" stroke="black" points="24,-503.12 24,-524.88 162.75,-524.88 162.75,-503.12 24,-503.12"/>
<text text-anchor="start" x="27" y="-508.57" font-family="Helvetica,sans-Serif" font-size="14.00">AttackSensor(chase) &#160;</text>
</g>
<!-- AttackSensor(chase)_linked -->
<g id="node15" class="node">
<title>AttackSensor(chase)_linked</title>
<polygon fill="none" stroke="black" stroke-dasharray="1,5" points="414.35,-532 281.65,-532 281.65,-496 414.35,-496 414.35,-532"/>
<text text-anchor="start" x="287.25" y="-508.57" font-family="Helvetica,sans-Serif" font-size="14.00">Attack3 danger run &#160;</text>
</g>
<!-- AttackSensor(chase)&#45;&gt;AttackSensor(chase)_linked -->
<g id="edge8" class="edge">
<title>AttackSensor(chase)&#45;&gt;AttackSensor(chase)_linked</title>
<path fill="none" stroke="#66cdaa" d="M170.51,-514C201.96,-514 238.35,-514 269.89,-514"/>
<polygon fill="#66cdaa" stroke="#66cdaa" points="269.76,-517.5 279.76,-514 269.76,-510.5 269.76,-517.5"/>
<text text-anchor="middle" x="221.38" y="-516.45" font-family="Helvetica,sans-Serif" font-size="14.00" fill="#66cdaa">QueueEnd</text>
</g>
<!-- Attack -->
<g id="node16" class="node">
<title>Attack</title>
<polygon fill="none" stroke="black" points="34.5,-896.12 34.5,-917.88 152.25,-917.88 152.25,-896.12 34.5,-896.12"/>
<text text-anchor="start" x="70.88" y="-901.58" font-family="Helvetica,sans-Serif" font-size="14.00">Attack &#160;</text>
<polygon fill="none" stroke="black" points="34.5,-852.12 34.5,-896.12 152.25,-896.12 152.25,-852.12 34.5,-852.12"/>
<text text-anchor="start" x="37.5" y="-882.73" font-family="Helvetica,sans-Serif" font-size="12.00" fill="#838b8b">0.83s: CheckFacing</text>
<text text-anchor="start" x="37.5" y="-870.73" font-family="Helvetica,sans-Serif" font-size="12.00" fill="#838b8b">1.50s: LinkNextMove</text>
<text text-anchor="start" x="37.5" y="-856.83" font-family="Helvetica,sans-Serif" font-size="12.00" fill="#838b8b">2.83s: Done</text>
<text text-anchor="start" x="102" y="-856.83" font-family="Helvetica,sans-Serif" font-size="14.00"> &#160;</text>
</g>
<!-- Engaging -->
<g id="node17" class="node">
<title>Engaging</title>
<polygon fill="none" stroke="black" points="384.5,-768 311.5,-768 311.5,-732 384.5,-732 384.5,-768"/>
<text text-anchor="middle" x="348" y="-744.58" font-family="Helvetica,sans-Serif" font-size="14.00">Engaging</text>
</g>
<!-- Attack&#45;&gt;Engaging -->
<g id="edge9" class="edge">
<title>Attack&#45;&gt;Engaging</title>
<path fill="none" stroke="#cdc8b1" d="M160.09,-849.88C204.91,-825.93 263.08,-794.85 302.53,-773.76"/>
<polygon fill="#cdc8b1" stroke="#cdc8b1" points="304.14,-776.87 311.31,-769.07 300.84,-770.7 304.14,-776.87"/>
</g>
<!-- Attack_weight -->
<g id="node18" class="node">
<title>Attack_weight</title>
<polygon fill="none" stroke="black" stroke-dasharray="1,5" points="389.5,-908.75 306.5,-908.75 306.5,-861.25 389.5,-861.25 389.5,-908.75"/>
<text text-anchor="start" x="316.5" y="-889.45" font-family="Helvetica,sans-Serif" font-size="14.00">1 Attack2 &#160;</text>
<text text-anchor="start" x="325.5" y="-869.7" font-family="Helvetica,sans-Serif" font-size="14.00">0 Skip &#160;</text>
</g>
<!-- Attack&#45;&gt;Attack_weight -->
<g id="edge10" class="edge">
<title>Attack&#45;&gt;Attack_weight</title>
<path fill="none" stroke="#458b74" d="M160.09,-885C202.05,-885 255.69,-885 294.74,-885"/>
<polygon fill="#458b74" stroke="#458b74" points="294.6,-888.5 304.6,-885 294.6,-881.5 294.6,-888.5"/>
<text text-anchor="middle" x="221.38" y="-887.45" font-family="Helvetica,sans-Serif" font-size="14.00" fill="#458b74">Weight</text>
</g>
<!-- Attack2 -->
<g id="node19" class="node">
<title>Attack2</title>
<polygon fill="none" stroke="black" points="34.5,-632.12 34.5,-653.88 152.25,-653.88 152.25,-632.12 34.5,-632.12"/>
<text text-anchor="start" x="67.12" y="-637.58" font-family="Helvetica,sans-Serif" font-size="14.00">Attack2 &#160;</text>
<polygon fill="none" stroke="black" points="34.5,-576.12 34.5,-632.12 152.25,-632.12 152.25,-576.12 34.5,-576.12"/>
<text text-anchor="start" x="37.5" y="-618.73" font-family="Helvetica,sans-Serif" font-size="12.00" fill="#838b8b">0.67s: CheckFacing</text>
<text text-anchor="start" x="37.5" y="-606.73" font-family="Helvetica,sans-Serif" font-size="12.00" fill="#838b8b">1.05s: CheckFacing</text>
<text text-anchor="start" x="37.5" y="-594.73" font-family="Helvetica,sans-Serif" font-size="12.00" fill="#838b8b">1.50s: LinkNextMove</text>
<text text-anchor="start" x="37.5" y="-580.83" font-family="Helvetica,sans-Serif" font-size="12.00" fill="#838b8b">3.00s: Done</text>
<text text-anchor="start" x="102" y="-580.83" font-family="Helvetica,sans-Serif" font-size="14.00"> &#160;</text>
</g>
<!-- Attack2&#45;&gt;Engaging -->
<g id="edge11" class="edge">
<title>Attack2&#45;&gt;Engaging</title>
<path fill="none" stroke="#cdc8b1" d="M160.09,-650.12C204.91,-674.07 263.08,-705.15 302.53,-726.24"/>
<polygon fill="#cdc8b1" stroke="#cdc8b1" points="300.84,-729.3 311.31,-730.93 304.14,-723.13 300.84,-729.3"/>
</g>
<!-- Attack2_weight -->
<g id="node20" class="node">
<title>Attack2_weight</title>
<polygon fill="none" stroke="black" stroke-dasharray="1,5" points="389.5,-638.75 306.5,-638.75 306.5,-591.25 389.5,-591.25 389.5,-638.75"/>
<text text-anchor="start" x="316.5" y="-619.45" font-family="Helvetica,sans-Serif" font-size="14.00">1 Attack2 &#160;</text>
<text text-anchor="start" x="325.5" y="-599.7" font-family="Helvetica,sans-Serif" font-size="14.00">1 Skip &#160;</text>
</g>
<!-- Attack2&#45;&gt;Attack2_weight -->
<g id="edge12" class="edge">
<title>Attack2&#45;&gt;Attack2_weight</title>
<path fill="none" stroke="#458b74" d="M160.09,-615C202.05,-615 255.69,-615 294.74,-615"/>
<polygon fill="#458b74" stroke="#458b74" points="294.6,-618.5 304.6,-615 294.6,-611.5 294.6,-618.5"/>
<text text-anchor="middle" x="221.38" y="-617.45" font-family="Helvetica,sans-Serif" font-size="14.00" fill="#458b74">Weight</text>
</g>
<!-- Attack3 danger run -->
<g id="node21" class="node">
<title>Attack3 danger run</title>
<polygon fill="none" stroke="black" points="29.62,-712.12 29.62,-733.88 157.12,-733.88 157.12,-712.12 29.62,-712.12"/>
<text text-anchor="start" x="32.62" y="-717.58" font-family="Helvetica,sans-Serif" font-size="14.00">Attack3 danger run &#160;</text>
<polygon fill="none" stroke="black" points="29.62,-680.12 29.62,-712.12 157.12,-712.12 157.12,-680.12 29.62,-680.12"/>
<text text-anchor="start" x="32.62" y="-698.73" font-family="Helvetica,sans-Serif" font-size="12.00" fill="#838b8b">0.50s: CheckFacing</text>
<text text-anchor="start" x="32.62" y="-684.83" font-family="Helvetica,sans-Serif" font-size="12.00" fill="#838b8b">4.37s: Done</text>
<text text-anchor="start" x="97.12" y="-684.83" font-family="Helvetica,sans-Serif" font-size="14.00"> &#160;</text>
</g>
<!-- Attack3 danger run&#45;&gt;Engaging -->
<g id="edge13" class="edge">
<title>Attack3 danger run&#45;&gt;Engaging</title>
<path fill="none" stroke="#cdc8b1" d="M165.08,-719.04C208.21,-726.38 262.13,-735.55 300.04,-742.01"/>
<polygon fill="#cdc8b1" stroke="#cdc8b1" points="299.32,-745.43 309.77,-743.66 300.5,-738.53 299.32,-745.43"/>
</g>
<!-- Attack4 tripple hit -->
<g id="node22" class="node">
<title>Attack4 tripple hit</title>
<polygon fill="none" stroke="black" points="34.88,-804.12 34.88,-825.88 151.88,-825.88 151.88,-804.12 34.88,-804.12"/>
<text text-anchor="start" x="37.88" y="-809.58" font-family="Helvetica,sans-Serif" font-size="14.00">Attack4 tripple hit &#160;</text>
<polygon fill="none" stroke="black" points="34.88,-760.12 34.88,-804.12 151.88,-804.12 151.88,-760.12 34.88,-760.12"/>
<text text-anchor="start" x="37.88" y="-790.73" font-family="Helvetica,sans-Serif" font-size="12.00" fill="#838b8b">0.83s: CheckFacing</text>
<text text-anchor="start" x="37.88" y="-778.73" font-family="Helvetica,sans-Serif" font-size="12.00" fill="#838b8b">2.02s: CheckFacing</text>
<text text-anchor="start" x="37.88" y="-764.83" font-family="Helvetica,sans-Serif" font-size="12.00" fill="#838b8b">4.33s: Done</text>
<text text-anchor="start" x="102.38" y="-764.83" font-family="Helvetica,sans-Serif" font-size="14.00"> &#160;</text>
</g>
<!-- Attack4 tripple hit&#45;&gt;Engaging -->
<g id="edge14" class="edge">
<title>Attack4 tripple hit&#45;&gt;Engaging</title>
<path fill="none" stroke="#cdc8b1" d="M159.76,-781.87C203.67,-774.4 260.5,-764.72 299.98,-758"/>
<polygon fill="#cdc8b1" stroke="#cdc8b1" points="300.37,-761.49 309.64,-756.36 299.19,-754.59 300.37,-761.49"/>
</g>
<!-- HurtState -->
<g id="node23" class="node">
<title>HurtState</title>
<polygon fill="none" stroke="black" points="54.38,-1036 54.38,-1057.75 132.38,-1057.75 132.38,-1036 54.38,-1036"/>
<text text-anchor="start" x="61.12" y="-1041.45" font-family="Helvetica,sans-Serif" font-size="14.00">HurtState &#160;</text>
<polygon fill="none" stroke="black" points="54.38,-1014.25 54.38,-1036 132.38,-1036 132.38,-1014.25 54.38,-1014.25"/>
<text text-anchor="start" x="57.38" y="-1020.7" font-family="Helvetica,sans-Serif" font-size="12.00" fill="#838b8b">0.33s: Done</text>
<text text-anchor="start" x="121.88" y="-1020.7" font-family="Helvetica,sans-Serif" font-size="14.00"> &#160;</text>
</g>
<!-- PreAttack -->
<g id="node24" class="node">
<title>PreAttack</title>
<polygon fill="none" stroke="black" points="385.25,-1019 310.75,-1019 310.75,-983 385.25,-983 385.25,-1019"/>
<text text-anchor="middle" x="348" y="-995.58" font-family="Helvetica,sans-Serif" font-size="14.00">PreAttack</text>
</g>
<!-- HurtState&#45;&gt;PreAttack -->
<g id="edge15" class="edge">
<title>HurtState&#45;&gt;PreAttack</title>
<path fill="none" stroke="#cdc8b1" d="M140.12,-1029.66C185.12,-1023.43 253.52,-1013.95 299.21,-1007.62"/>
<polygon fill="#cdc8b1" stroke="#cdc8b1" points="299.67,-1011.09 309.1,-1006.25 298.71,-1004.16 299.67,-1011.09"/>
</g>
<!-- Hurt_BigState -->
<g id="node25" class="node">
<title>Hurt_BigState</title>
<polygon fill="none" stroke="black" points="44.62,-966 44.62,-987.75 142.12,-987.75 142.12,-966 44.62,-966"/>
<text text-anchor="start" x="47.62" y="-971.45" font-family="Helvetica,sans-Serif" font-size="14.00">Hurt_BigState &#160;</text>
<polygon fill="none" stroke="black" points="44.62,-944.25 44.62,-966 142.12,-966 142.12,-944.25 44.62,-944.25"/>
<text text-anchor="start" x="47.62" y="-950.7" font-family="Helvetica,sans-Serif" font-size="12.00" fill="#838b8b">1.00s: Done</text>
<text text-anchor="start" x="112.12" y="-950.7" font-family="Helvetica,sans-Serif" font-size="14.00"> &#160;</text>
</g>
<!-- Hurt_BigState&#45;&gt;PreAttack -->
<g id="edge16" class="edge">
<title>Hurt_BigState&#45;&gt;PreAttack</title>
<path fill="none" stroke="#cdc8b1" d="M149.81,-973.68C194.52,-979.87 256.73,-988.49 299.25,-994.38"/>
<polygon fill="#cdc8b1" stroke="#cdc8b1" points="298.53,-997.82 308.92,-995.72 299.49,-990.88 298.53,-997.82"/>
</g>
<!-- Wandering_Idle -->
<g id="node26" class="node">
<title>Wandering_Idle</title>
<polygon fill="none" stroke="black" points="164,-1116 22.75,-1116 22.75,-1080 164,-1080 164,-1116"/>
<text text-anchor="middle" x="93.38" y="-1092.58" font-family="Helvetica,sans-Serif" font-size="14.00">Wandering_Idle (Init)</text>
</g>
</g>
</svg>
