<?xml version="1.0" encoding="UTF-8" standalone="no"?>
<!DOCTYPE svg PUBLIC "-//W3C//DTD SVG 1.1//EN"
 "http://www.w3.org/Graphics/SVG/1.1/DTD/svg11.dtd">
<!-- Generated by graphviz version 12.2.1 (20241206.2353)
 -->
<!-- Title: Foo Pages: 1 -->
<svg width="644pt" height="2244pt"
 viewBox="0.00 0.00 644.25 2243.88" xmlns="http://www.w3.org/2000/svg" xmlns:xlink="http://www.w3.org/1999/xlink">
<g id="graph0" class="graph" transform="scale(1 1) rotate(0) translate(4 2239.88)">
<title>Foo</title>
<polygon fill="white" stroke="none" points="-4,4 -4,-2239.88 640.25,-2239.88 640.25,4 -4,4"/>
<g id="clust1" class="cluster">
<title>cluster_attacksensors</title>
<polygon fill="none" stroke="black" points="46.75,-1717.88 46.75,-2227.88 628.25,-2227.88 628.25,-1717.88 46.75,-1717.88"/>
<text text-anchor="middle" x="337.5" y="-2210.57" font-family="Helvetica,sans-Serif" font-size="14.00">Attack Sensors</text>
</g>
<!-- Divination Free Zone -->
<g id="node1" class="node">
<title>Divination Free Zone</title>
<polygon fill="none" stroke="black" points="62.38,-1362 62.38,-1383.75 201.12,-1383.75 201.12,-1362 62.38,-1362"/>
<text text-anchor="start" x="65.38" y="-1367.45" font-family="Helvetica,sans-Serif" font-size="14.00">Divination Free Zone &#160;</text>
<polygon fill="none" stroke="black" points="62.38,-1318 62.38,-1362 201.12,-1362 201.12,-1318 62.38,-1318"/>
<text text-anchor="start" x="65.38" y="-1348.6" font-family="Helvetica,sans-Serif" font-size="12.00" fill="#838b8b">2.98s: JeeQTELoop</text>
<text text-anchor="start" x="65.38" y="-1336.6" font-family="Helvetica,sans-Serif" font-size="12.00" fill="#838b8b">7.00s: LinkNextMove</text>
<text text-anchor="start" x="65.38" y="-1322.7" font-family="Helvetica,sans-Serif" font-size="12.00" fill="#838b8b">7.17s: Done</text>
<text text-anchor="start" x="129.88" y="-1322.7" font-family="Helvetica,sans-Serif" font-size="14.00"> &#160;</text>
</g>
<!-- Engaging -->
<g id="node2" class="node">
<title>Engaging</title>
<polygon fill="none" stroke="black" points="529,-680.88 456,-680.88 456,-644.88 529,-644.88 529,-680.88"/>
<text text-anchor="middle" x="492.5" y="-657.45" font-family="Helvetica,sans-Serif" font-size="14.00">Engaging</text>
</g>
<!-- Divination Free Zone&#45;&gt;Engaging -->
<g id="edge1" class="edge">
<title>Divination Free Zone&#45;&gt;Engaging</title>
<path fill="none" stroke="#cdc8b1" d="M209.08,-1333.51C228.16,-1326.73 247.68,-1317.45 263.5,-1304.88 317.51,-1261.96 318.55,-1236.83 346.75,-1173.88 424.9,-999.38 471.42,-772.31 486.27,-692.31"/>
<polygon fill="#cdc8b1" stroke="#cdc8b1" points="489.68,-693.14 488.04,-682.67 482.79,-691.88 489.68,-693.14"/>
</g>
<!-- [Altar]SmallBlackHole -->
<g id="node3" class="node">
<title>[Altar]SmallBlackHole</title>
<polygon fill="none" stroke="black" points="59.75,-1270 59.75,-1291.75 203.75,-1291.75 203.75,-1270 59.75,-1270"/>
<text text-anchor="start" x="62.75" y="-1275.45" font-family="Helvetica,sans-Serif" font-size="14.00">[Altar]SmallBlackHole &#160;</text>
<polygon fill="none" stroke="black" points="59.75,-1238 59.75,-1270 203.75,-1270 203.75,-1238 59.75,-1238"/>
<text text-anchor="start" x="62.75" y="-1256.6" font-family="Helvetica,sans-Serif" font-size="12.00" fill="#838b8b">3.42s: LinkNextMove</text>
<text text-anchor="start" x="62.75" y="-1242.7" font-family="Helvetica,sans-Serif" font-size="12.00" fill="#838b8b">3.58s: Done</text>
<text text-anchor="start" x="127.25" y="-1242.7" font-family="Helvetica,sans-Serif" font-size="14.00"> &#160;</text>
</g>
<!-- [Altar]SmallBlackHole&#45;&gt;Engaging -->
<g id="edge2" class="edge">
<title>[Altar]SmallBlackHole&#45;&gt;Engaging</title>
<path fill="none" stroke="#cdc8b1" d="M211.61,-1249.7C229.72,-1243.86 248.15,-1235.85 263.5,-1224.88 314.83,-1188.18 318.18,-1166.13 346.75,-1109.88 422.15,-961.4 469.34,-765.49 485.37,-692.2"/>
<polygon fill="#cdc8b1" stroke="#cdc8b1" points="488.75,-693.12 487.44,-682.61 481.91,-691.65 488.75,-693.12"/>
</g>
<!-- [Short]ShorFlyingSword -->
<g id="node4" class="node">
<title>[Short]ShorFlyingSword</title>
<polygon fill="none" stroke="black" points="53.75,-1190 53.75,-1211.75 209.75,-1211.75 209.75,-1190 53.75,-1190"/>
<text text-anchor="start" x="56.75" y="-1195.45" font-family="Helvetica,sans-Serif" font-size="14.00">[Short]ShorFlyingSword &#160;</text>
<polygon fill="none" stroke="black" points="53.75,-1158 53.75,-1190 209.75,-1190 209.75,-1158 53.75,-1158"/>
<text text-anchor="start" x="56.75" y="-1176.6" font-family="Helvetica,sans-Serif" font-size="12.00" fill="#838b8b">1.00s: LinkNextMove</text>
<text text-anchor="start" x="56.75" y="-1162.7" font-family="Helvetica,sans-Serif" font-size="12.00" fill="#838b8b">1.17s: Done</text>
<text text-anchor="start" x="121.25" y="-1162.7" font-family="Helvetica,sans-Serif" font-size="14.00"> &#160;</text>
</g>
<!-- [Short]ShorFlyingSword&#45;&gt;Engaging -->
<g id="edge3" class="edge">
<title>[Short]ShorFlyingSword&#45;&gt;Engaging</title>
<path fill="none" stroke="#cdc8b1" d="M217.73,-1168.17C233.91,-1162.5 249.98,-1154.94 263.5,-1144.88 419.7,-1028.56 473.15,-777.9 487.24,-692.26"/>
<polygon fill="#cdc8b1" stroke="#cdc8b1" points="490.67,-693 488.77,-682.57 483.75,-691.9 490.67,-693"/>
</g>
<!-- [Short]QuickHorizontalDoubleSword -->
<g id="node5" class="node">
<title>[Short]QuickHorizontalDoubleSword</title>
<polygon fill="none" stroke="black" points="16.62,-1110 16.62,-1131.75 246.88,-1131.75 246.88,-1110 16.62,-1110"/>
<text text-anchor="start" x="19.62" y="-1115.45" font-family="Helvetica,sans-Serif" font-size="14.00">[Short]QuickHorizontalDoubleSword &#160;</text>
<polygon fill="none" stroke="black" points="16.62,-1066 16.62,-1110 246.88,-1110 246.88,-1066 16.62,-1066"/>
<text text-anchor="start" x="19.62" y="-1096.6" font-family="Helvetica,sans-Serif" font-size="12.00" fill="#838b8b">0.00s: CheckFacing</text>
<text text-anchor="start" x="19.62" y="-1084.6" font-family="Helvetica,sans-Serif" font-size="12.00" fill="#838b8b">1.50s: LinkNextMove</text>
<text text-anchor="start" x="19.62" y="-1070.7" font-family="Helvetica,sans-Serif" font-size="12.00" fill="#838b8b">1.83s: Done</text>
<text text-anchor="start" x="84.12" y="-1070.7" font-family="Helvetica,sans-Serif" font-size="14.00"> &#160;</text>
</g>
<!-- [Short]QuickHorizontalDoubleSword&#45;&gt;Engaging -->
<g id="edge4" class="edge">
<title>[Short]QuickHorizontalDoubleSword&#45;&gt;Engaging</title>
<path fill="none" stroke="#cdc8b1" d="M250.45,-1062.18C255.01,-1059.3 259.38,-1056.2 263.5,-1052.88 388,-952.22 458.92,-764.11 482.55,-692.02"/>
<polygon fill="#cdc8b1" stroke="#cdc8b1" points="485.87,-693.12 485.59,-682.53 479.2,-690.98 485.87,-693.12"/>
</g>
<!-- [Finisher]QuickTeleportSword 危戳 -->
<g id="node6" class="node">
<title>[Finisher]QuickTeleportSword 危戳</title>
<polygon fill="none" stroke="black" points="17.38,-1018 17.38,-1039.75 246.12,-1039.75 246.12,-1018 17.38,-1018"/>
<text text-anchor="start" x="20.38" y="-1023.45" font-family="Helvetica,sans-Serif" font-size="14.00">[Finisher]QuickTeleportSword 危戳 &#160;</text>
<polygon fill="none" stroke="black" points="17.38,-962 17.38,-1018 246.12,-1018 246.12,-962 17.38,-962"/>
<text text-anchor="start" x="20.38" y="-1004.6" font-family="Helvetica,sans-Serif" font-size="12.00" fill="#838b8b">0.00s: CheckFacing</text>
<text text-anchor="start" x="20.38" y="-992.6" font-family="Helvetica,sans-Serif" font-size="12.00" fill="#838b8b">1.17s: CheckFacing</text>
<text text-anchor="start" x="20.38" y="-980.6" font-family="Helvetica,sans-Serif" font-size="12.00" fill="#838b8b">3.08s: LinkNextMove</text>
<text text-anchor="start" x="20.38" y="-966.7" font-family="Helvetica,sans-Serif" font-size="12.00" fill="#838b8b">3.17s: Done</text>
<text text-anchor="start" x="84.88" y="-966.7" font-family="Helvetica,sans-Serif" font-size="14.00"> &#160;</text>
</g>
<!-- [Finisher]QuickTeleportSword 危戳&#45;&gt;Engaging -->
<g id="edge5" class="edge">
<title>[Finisher]QuickTeleportSword 危戳&#45;&gt;Engaging</title>
<path fill="none" stroke="#cdc8b1" d="M249.56,-958.09C254.39,-955.18 259.06,-952.11 263.5,-948.88 363.76,-875.77 443.8,-747.64 476.08,-691.07"/>
<polygon fill="#cdc8b1" stroke="#cdc8b1" points="479.12,-692.81 480.97,-682.38 473.02,-689.38 479.12,-692.81"/>
</g>
<!-- [Altar]Laser Altar Circle -->
<g id="node7" class="node">
<title>[Altar]Laser Altar Circle</title>
<polygon fill="none" stroke="black" points="56,-914 56,-935.75 207.5,-935.75 207.5,-914 56,-914"/>
<text text-anchor="start" x="59" y="-919.45" font-family="Helvetica,sans-Serif" font-size="14.00">[Altar]Laser Altar Circle &#160;</text>
<polygon fill="none" stroke="black" points="56,-882 56,-914 207.5,-914 207.5,-882 56,-882"/>
<text text-anchor="start" x="59" y="-900.6" font-family="Helvetica,sans-Serif" font-size="12.00" fill="#838b8b">4.17s: LinkNextMove</text>
<text text-anchor="start" x="59" y="-886.7" font-family="Helvetica,sans-Serif" font-size="12.00" fill="#838b8b">4.33s: Done</text>
<text text-anchor="start" x="123.5" y="-886.7" font-family="Helvetica,sans-Serif" font-size="14.00"> &#160;</text>
</g>
<!-- [Altar]Laser Altar Circle&#45;&gt;Engaging -->
<g id="edge6" class="edge">
<title>[Altar]Laser Altar Circle&#45;&gt;Engaging</title>
<path fill="none" stroke="#cdc8b1" d="M215.25,-889.65C231.79,-884.16 248.63,-877.31 263.5,-868.88 349.72,-819.99 430.88,-733.56 468.91,-689.83"/>
<polygon fill="#cdc8b1" stroke="#cdc8b1" points="471.5,-692.19 475.37,-682.32 466.2,-687.62 471.5,-692.19"/>
</g>
<!-- [Altar]Health Altar -->
<g id="node8" class="node">
<title>[Altar]Health Altar</title>
<polygon fill="none" stroke="black" points="72.5,-834 72.5,-855.75 191,-855.75 191,-834 72.5,-834"/>
<text text-anchor="start" x="75.5" y="-839.45" font-family="Helvetica,sans-Serif" font-size="14.00">[Altar]Health Altar &#160;</text>
<polygon fill="none" stroke="black" points="72.5,-802 72.5,-834 191,-834 191,-802 72.5,-802"/>
<text text-anchor="start" x="75.5" y="-820.6" font-family="Helvetica,sans-Serif" font-size="12.00" fill="#838b8b">2.08s: LinkNextMove</text>
<text text-anchor="start" x="75.5" y="-806.7" font-family="Helvetica,sans-Serif" font-size="12.00" fill="#838b8b">2.25s: Done</text>
<text text-anchor="start" x="140" y="-806.7" font-family="Helvetica,sans-Serif" font-size="14.00"> &#160;</text>
</g>
<!-- [Altar]Health Altar&#45;&gt;Engaging -->
<g id="edge7" class="edge">
<title>[Altar]Health Altar&#45;&gt;Engaging</title>
<path fill="none" stroke="#cdc8b1" d="M198.88,-811.55C219.87,-805.29 242.96,-797.58 263.5,-788.88 333.04,-759.4 408.87,-714.77 453.2,-687.29"/>
<polygon fill="#cdc8b1" stroke="#cdc8b1" points="455.05,-690.26 461.68,-682 451.34,-684.32 455.05,-690.26"/>
</g>
<!-- Divination JumpKicked -->
<g id="node9" class="node">
<title>Divination JumpKicked</title>
<polygon fill="none" stroke="black" points="56.38,-754 56.38,-775.75 207.12,-775.75 207.12,-754 56.38,-754"/>
<text text-anchor="start" x="59.38" y="-759.45" font-family="Helvetica,sans-Serif" font-size="14.00">Divination JumpKicked &#160;</text>
<polygon fill="none" stroke="black" points="56.38,-722 56.38,-754 207.12,-754 207.12,-722 56.38,-722"/>
<text text-anchor="start" x="59.38" y="-740.6" font-family="Helvetica,sans-Serif" font-size="12.00" fill="#838b8b">2.58s: LinkNextMove</text>
<text text-anchor="start" x="59.38" y="-726.7" font-family="Helvetica,sans-Serif" font-size="12.00" fill="#838b8b">3.50s: Done</text>
<text text-anchor="start" x="123.88" y="-726.7" font-family="Helvetica,sans-Serif" font-size="14.00"> &#160;</text>
</g>
<!-- Divination JumpKicked&#45;&gt;Engaging -->
<g id="edge8" class="edge">
<title>Divination JumpKicked&#45;&gt;Engaging</title>
<path fill="none" stroke="#cdc8b1" d="M215.05,-729.14C286.23,-712.08 386.58,-688.03 444.76,-674.08"/>
<polygon fill="#cdc8b1" stroke="#cdc8b1" points="445.43,-677.52 454.34,-671.78 443.8,-670.71 445.43,-677.52"/>
</g>
<!-- [Short]Flying Projectiles -->
<g id="node10" class="node">
<title>[Short]Flying Projectiles</title>
<polygon fill="none" stroke="black" points="54.12,-674 54.12,-695.75 209.38,-695.75 209.38,-674 54.12,-674"/>
<text text-anchor="start" x="57.12" y="-679.45" font-family="Helvetica,sans-Serif" font-size="14.00">[Short]Flying Projectiles &#160;</text>
<polygon fill="none" stroke="black" points="54.12,-630 54.12,-674 209.38,-674 209.38,-630 54.12,-630"/>
<text text-anchor="start" x="57.12" y="-660.6" font-family="Helvetica,sans-Serif" font-size="12.00" fill="#838b8b">0.50s: CheckFacing</text>
<text text-anchor="start" x="57.12" y="-648.6" font-family="Helvetica,sans-Serif" font-size="12.00" fill="#838b8b">4.08s: LinkNextMove</text>
<text text-anchor="start" x="57.12" y="-634.7" font-family="Helvetica,sans-Serif" font-size="12.00" fill="#838b8b">4.25s: Done</text>
<text text-anchor="start" x="121.62" y="-634.7" font-family="Helvetica,sans-Serif" font-size="14.00"> &#160;</text>
</g>
<!-- [Short]Flying Projectiles&#45;&gt;Engaging -->
<g id="edge9" class="edge">
<title>[Short]Flying Projectiles&#45;&gt;Engaging</title>
<path fill="none" stroke="#cdc8b1" d="M217.31,-662.88C288.25,-662.88 386.93,-662.88 444.53,-662.88"/>
<polygon fill="#cdc8b1" stroke="#cdc8b1" points="444.31,-666.38 454.31,-662.88 444.31,-659.38 444.31,-666.38"/>
</g>
<!-- [Finisher]BlackHoleAttack -->
<g id="node11" class="node">
<title>[Finisher]BlackHoleAttack</title>
<polygon fill="none" stroke="black" points="48.12,-582 48.12,-603.75 215.38,-603.75 215.38,-582 48.12,-582"/>
<text text-anchor="start" x="51.12" y="-587.45" font-family="Helvetica,sans-Serif" font-size="14.00">[Finisher]BlackHoleAttack &#160;</text>
<polygon fill="none" stroke="black" points="48.12,-550 48.12,-582 215.38,-582 215.38,-550 48.12,-550"/>
<text text-anchor="start" x="51.12" y="-568.6" font-family="Helvetica,sans-Serif" font-size="12.00" fill="#838b8b">10.72s: LinkNextMove</text>
<text text-anchor="start" x="51.12" y="-554.7" font-family="Helvetica,sans-Serif" font-size="12.00" fill="#838b8b">11.17s: Done</text>
<text text-anchor="start" x="121.62" y="-554.7" font-family="Helvetica,sans-Serif" font-size="14.00"> &#160;</text>
</g>
<!-- [Finisher]BlackHoleAttack&#45;&gt;Engaging -->
<g id="edge10" class="edge">
<title>[Finisher]BlackHoleAttack&#45;&gt;Engaging</title>
<path fill="none" stroke="#cdc8b1" d="M223.28,-598.58C293.77,-615.47 388.75,-638.24 444.73,-651.66"/>
<polygon fill="#cdc8b1" stroke="#cdc8b1" points="443.71,-655.02 454.25,-653.94 445.34,-648.21 443.71,-655.02"/>
</g>
<!-- [Altar]Set Laser Altar Environment -->
<g id="node12" class="node">
<title>[Altar]Set Laser Altar Environment</title>
<polygon fill="none" stroke="black" points="23,-502 23,-523.75 240.5,-523.75 240.5,-502 23,-502"/>
<text text-anchor="start" x="26" y="-507.45" font-family="Helvetica,sans-Serif" font-size="14.00">[Altar]Set Laser Altar Environment &#160;</text>
<polygon fill="none" stroke="black" points="23,-470 23,-502 240.5,-502 240.5,-470 23,-470"/>
<text text-anchor="start" x="26" y="-488.6" font-family="Helvetica,sans-Serif" font-size="12.00" fill="#838b8b">3.75s: LinkNextMove</text>
<text text-anchor="start" x="26" y="-474.7" font-family="Helvetica,sans-Serif" font-size="12.00" fill="#838b8b">3.92s: Done</text>
<text text-anchor="start" x="90.5" y="-474.7" font-family="Helvetica,sans-Serif" font-size="14.00"> &#160;</text>
</g>
<!-- [Altar]Set Laser Altar Environment&#45;&gt;Engaging -->
<g id="edge11" class="edge">
<title>[Altar]Set Laser Altar Environment&#45;&gt;Engaging</title>
<path fill="none" stroke="#cdc8b1" d="M240.08,-527.71C248.08,-530.62 255.96,-533.68 263.5,-536.88 333.04,-566.35 408.87,-610.98 453.2,-638.46"/>
<polygon fill="#cdc8b1" stroke="#cdc8b1" points="451.34,-641.43 461.68,-643.75 455.05,-635.49 451.34,-641.43"/>
</g>
<!-- [Short]SuckSword 往內 -->
<g id="node13" class="node">
<title>[Short]SuckSword 往內</title>
<polygon fill="none" stroke="black" points="51.88,-422 51.88,-443.75 211.62,-443.75 211.62,-422 51.88,-422"/>
<text text-anchor="start" x="54.88" y="-427.45" font-family="Helvetica,sans-Serif" font-size="14.00">[Short]SuckSword 往內 &#160;</text>
<polygon fill="none" stroke="black" points="51.88,-390 51.88,-422 211.62,-422 211.62,-390 51.88,-390"/>
<text text-anchor="start" x="54.88" y="-408.6" font-family="Helvetica,sans-Serif" font-size="12.00" fill="#838b8b">3.58s: LinkNextMove</text>
<text text-anchor="start" x="54.88" y="-394.7" font-family="Helvetica,sans-Serif" font-size="12.00" fill="#838b8b">3.67s: Done</text>
<text text-anchor="start" x="119.38" y="-394.7" font-family="Helvetica,sans-Serif" font-size="14.00"> &#160;</text>
</g>
<!-- [Short]SuckSword 往內&#45;&gt;Engaging -->
<g id="edge12" class="edge">
<title>[Short]SuckSword 往內&#45;&gt;Engaging</title>
<path fill="none" stroke="#cdc8b1" d="M219.39,-437.5C234.58,-442.75 249.87,-449.15 263.5,-456.88 349.72,-505.76 430.88,-592.19 468.91,-635.92"/>
<polygon fill="#cdc8b1" stroke="#cdc8b1" points="466.2,-638.13 475.37,-643.43 471.5,-633.56 466.2,-638.13"/>
</g>
<!-- [Finisher]Teleport3Sword Smash 下砸 -->
<g id="node14" class="node">
<title>[Finisher]Teleport3Sword Smash 下砸</title>
<polygon fill="none" stroke="black" points="8,-342 8,-363.75 255.5,-363.75 255.5,-342 8,-342"/>
<text text-anchor="start" x="11" y="-347.45" font-family="Helvetica,sans-Serif" font-size="14.00">[Finisher]Teleport3Sword Smash 下砸 &#160;</text>
<polygon fill="none" stroke="black" points="8,-298 8,-342 255.5,-342 255.5,-298 8,-298"/>
<text text-anchor="start" x="11" y="-328.6" font-family="Helvetica,sans-Serif" font-size="12.00" fill="#838b8b">2.00s: CheckFacing</text>
<text text-anchor="start" x="11" y="-316.6" font-family="Helvetica,sans-Serif" font-size="12.00" fill="#838b8b">4.25s: LinkNextMove</text>
<text text-anchor="start" x="11" y="-302.7" font-family="Helvetica,sans-Serif" font-size="12.00" fill="#838b8b">4.33s: Done</text>
<text text-anchor="start" x="75.5" y="-302.7" font-family="Helvetica,sans-Serif" font-size="14.00"> &#160;</text>
</g>
<!-- [Finisher]Teleport3Sword Smash 下砸&#45;&gt;Engaging -->
<g id="edge13" class="edge">
<title>[Finisher]Teleport3Sword Smash 下砸&#45;&gt;Engaging</title>
<path fill="none" stroke="#cdc8b1" d="M247.7,-367.61C253.16,-370.5 258.46,-373.59 263.5,-376.88 367.86,-445.03 446.22,-576.8 477.1,-634.57"/>
<polygon fill="#cdc8b1" stroke="#cdc8b1" points="473.85,-635.91 481.61,-643.13 480.05,-632.65 473.85,-635.91"/>
</g>
<!-- [Finisher]SwordBlizzard -->
<g id="node15" class="node">
<title>[Finisher]SwordBlizzard</title>
<polygon fill="none" stroke="black" points="54.12,-250 54.12,-271.75 209.38,-271.75 209.38,-250 54.12,-250"/>
<text text-anchor="start" x="57.12" y="-255.45" font-family="Helvetica,sans-Serif" font-size="14.00">[Finisher]SwordBlizzard &#160;</text>
<polygon fill="none" stroke="black" points="54.12,-218 54.12,-250 209.38,-250 209.38,-218 54.12,-218"/>
<text text-anchor="start" x="57.12" y="-236.6" font-family="Helvetica,sans-Serif" font-size="12.00" fill="#838b8b">5.93s: LinkNextMove</text>
<text text-anchor="start" x="57.12" y="-222.7" font-family="Helvetica,sans-Serif" font-size="12.00" fill="#838b8b">6.27s: Done</text>
<text text-anchor="start" x="121.62" y="-222.7" font-family="Helvetica,sans-Serif" font-size="14.00"> &#160;</text>
</g>
<!-- [Finisher]SwordBlizzard&#45;&gt;Engaging -->
<g id="edge14" class="edge">
<title>[Finisher]SwordBlizzard&#45;&gt;Engaging</title>
<path fill="none" stroke="#cdc8b1" d="M217.09,-262.47C233.32,-268.07 249.58,-275.38 263.5,-284.88 392.74,-373.04 460.84,-560.95 483.13,-633.47"/>
<polygon fill="#cdc8b1" stroke="#cdc8b1" points="479.77,-634.45 486,-643.02 486.48,-632.44 479.77,-634.45"/>
</g>
<!-- Divination Free Zone_EndLessLoop -->
<g id="node16" class="node">
<title>Divination Free Zone_EndLessLoop</title>
<polygon fill="none" stroke="black" points="247.38,-195.88 16.12,-195.88 16.12,-159.88 247.38,-159.88 247.38,-195.88"/>
<text text-anchor="middle" x="131.75" y="-172.45" font-family="Helvetica,sans-Serif" font-size="14.00">Divination Free Zone_EndLessLoop</text>
</g>
<!-- Divination Free Zone_EndLessLoop&#45;&gt;Engaging -->
<g id="edge15" class="edge">
<title>Divination Free Zone_EndLessLoop&#45;&gt;Engaging</title>
<path fill="none" stroke="#cdc8b1" d="M245.37,-196.25C251.66,-198.77 257.75,-201.63 263.5,-204.88 310.95,-231.66 317.78,-248.73 346.75,-294.88 419.43,-410.65 466.62,-568.94 484,-633.58"/>
<polygon fill="#cdc8b1" stroke="#cdc8b1" points="480.57,-634.3 486.51,-643.07 487.33,-632.5 480.57,-634.3"/>
</g>
<!-- Divination Free Zone_EndLessLoop_linked -->
<g id="node17" class="node">
<title>Divination Free Zone_EndLessLoop_linked</title>
<polygon fill="none" stroke="black" stroke-dasharray="1,5" points="533.73,-195.88 451.27,-195.88 451.27,-159.88 533.73,-159.88 533.73,-195.88"/>
<text text-anchor="start" x="456.88" y="-172.45" font-family="Helvetica,sans-Serif" font-size="14.00">JumpBack &#160;</text>
</g>
<!-- Divination Free Zone_EndLessLoop&#45;&gt;Divination Free Zone_EndLessLoop_linked -->
<g id="edge16" class="edge">
<title>Divination Free Zone_EndLessLoop&#45;&gt;Divination Free Zone_EndLessLoop_linked</title>
<path fill="none" stroke="#66cdaa" d="M247.74,-177.88C312.25,-177.88 389.57,-177.88 439.57,-177.88"/>
<polygon fill="#66cdaa" stroke="#66cdaa" points="439.53,-181.38 449.53,-177.88 439.53,-174.38 439.53,-181.38"/>
<text text-anchor="middle" x="314.12" y="-180.32" font-family="Helvetica,sans-Serif" font-size="14.00" fill="#66cdaa">QueueEnd</text>
</g>
<!-- [Short]GroundSword -->
<g id="node18" class="node">
<title>[Short]GroundSword</title>
<polygon fill="none" stroke="black" points="63.12,-116 63.12,-137.75 200.38,-137.75 200.38,-116 63.12,-116"/>
<text text-anchor="start" x="66.12" y="-121.45" font-family="Helvetica,sans-Serif" font-size="14.00">[Short]GroundSword &#160;</text>
<polygon fill="none" stroke="black" points="63.12,-84 63.12,-116 200.38,-116 200.38,-84 63.12,-84"/>
<text text-anchor="start" x="66.12" y="-102.6" font-family="Helvetica,sans-Serif" font-size="12.00" fill="#838b8b">2.92s: LinkNextMove</text>
<text text-anchor="start" x="66.12" y="-88.7" font-family="Helvetica,sans-Serif" font-size="12.00" fill="#838b8b">3.08s: Done</text>
<text text-anchor="start" x="130.62" y="-88.7" font-family="Helvetica,sans-Serif" font-size="14.00"> &#160;</text>
</g>
<!-- [Short]GroundSword&#45;&gt;Engaging -->
<g id="edge17" class="edge">
<title>[Short]GroundSword&#45;&gt;Engaging</title>
<path fill="none" stroke="#cdc8b1" d="M208.24,-115.32C253.96,-121.9 310.3,-137.48 346.75,-173.88 380.62,-207.69 460.53,-533.19 484.55,-633.56"/>
<polygon fill="#cdc8b1" stroke="#cdc8b1" points="481.12,-634.26 486.85,-643.18 487.93,-632.64 481.12,-634.26"/>
</g>
<!-- HurtState -->
<g id="node19" class="node">
<title>HurtState</title>
<polygon fill="none" stroke="black" points="72.88,-1576 72.88,-1597.75 190.62,-1597.75 190.62,-1576 72.88,-1576"/>
<text text-anchor="start" x="99.5" y="-1581.45" font-family="Helvetica,sans-Serif" font-size="14.00">HurtState &#160;</text>
<polygon fill="none" stroke="black" points="72.88,-1544 72.88,-1576 190.62,-1576 190.62,-1544 72.88,-1544"/>
<text text-anchor="start" x="75.88" y="-1562.6" font-family="Helvetica,sans-Serif" font-size="12.00" fill="#838b8b">0.83s: LinkNextMove</text>
<text text-anchor="start" x="75.88" y="-1548.7" font-family="Helvetica,sans-Serif" font-size="12.00" fill="#838b8b">0.92s: Done</text>
<text text-anchor="start" x="140.38" y="-1548.7" font-family="Helvetica,sans-Serif" font-size="14.00"> &#160;</text>
</g>
<!-- PreAttack -->
<g id="node20" class="node">
<title>PreAttack</title>
<polygon fill="none" stroke="black" points="529.75,-1508.88 455.25,-1508.88 455.25,-1472.88 529.75,-1472.88 529.75,-1508.88"/>
<text text-anchor="middle" x="492.5" y="-1485.45" font-family="Helvetica,sans-Serif" font-size="14.00">PreAttack</text>
</g>
<!-- HurtState&#45;&gt;PreAttack -->
<g id="edge18" class="edge">
<title>HurtState&#45;&gt;PreAttack</title>
<path fill="none" stroke="#cdc8b1" d="M198.55,-1556.2C269.58,-1540.36 380.97,-1515.52 443.96,-1501.48"/>
<polygon fill="#cdc8b1" stroke="#cdc8b1" points="444.66,-1504.91 453.65,-1499.31 443.13,-1498.07 444.66,-1504.91"/>
</g>
<!-- Hurt_BigState -->
<g id="node21" class="node">
<title>Hurt_BigState</title>
<polygon fill="none" stroke="black" points="72.88,-1496 72.88,-1517.75 190.62,-1517.75 190.62,-1496 72.88,-1496"/>
<text text-anchor="start" x="86" y="-1501.45" font-family="Helvetica,sans-Serif" font-size="14.00">Hurt_BigState &#160;</text>
<polygon fill="none" stroke="black" points="72.88,-1464 72.88,-1496 190.62,-1496 190.62,-1464 72.88,-1464"/>
<text text-anchor="start" x="75.88" y="-1482.6" font-family="Helvetica,sans-Serif" font-size="12.00" fill="#838b8b">0.83s: LinkNextMove</text>
<text text-anchor="start" x="75.88" y="-1468.7" font-family="Helvetica,sans-Serif" font-size="12.00" fill="#838b8b">0.92s: Done</text>
<text text-anchor="start" x="140.38" y="-1468.7" font-family="Helvetica,sans-Serif" font-size="14.00"> &#160;</text>
</g>
<!-- Hurt_BigState&#45;&gt;PreAttack -->
<g id="edge19" class="edge">
<title>Hurt_BigState&#45;&gt;PreAttack</title>
<path fill="none" stroke="#cdc8b1" d="M198.55,-1490.88C269.58,-1490.88 380.97,-1490.88 443.96,-1490.88"/>
<polygon fill="#cdc8b1" stroke="#cdc8b1" points="443.62,-1494.38 453.62,-1490.88 443.62,-1487.38 443.62,-1494.38"/>
</g>
<!-- JumpBack -->
<g id="node22" class="node">
<title>JumpBack</title>
<polygon fill="none" stroke="black" points="72.88,-36 72.88,-57.75 190.62,-57.75 190.62,-36 72.88,-36"/>
<text text-anchor="start" x="96.12" y="-41.45" font-family="Helvetica,sans-Serif" font-size="14.00">JumpBack &#160;</text>
<polygon fill="none" stroke="black" points="72.88,-4 72.88,-36 190.62,-36 190.62,-4 72.88,-4"/>
<text text-anchor="start" x="75.88" y="-22.6" font-family="Helvetica,sans-Serif" font-size="12.00" fill="#838b8b">0.50s: LinkNextMove</text>
<text text-anchor="start" x="75.88" y="-8.7" font-family="Helvetica,sans-Serif" font-size="12.00" fill="#838b8b">1.17s: Done</text>
<text text-anchor="start" x="140.38" y="-8.7" font-family="Helvetica,sans-Serif" font-size="14.00"> &#160;</text>
</g>
<!-- JumpBack&#45;&gt;Engaging -->
<g id="edge20" class="edge">
<title>JumpBack&#45;&gt;Engaging</title>
<path fill="none" stroke="#cdc8b1" d="M198.59,-43.12C248.24,-56.11 313.32,-81.95 346.75,-131.88 365.34,-159.64 356.29,-172.55 364.75,-204.88 407.28,-367.43 462.36,-561.21 483.11,-633.66"/>
<polygon fill="#cdc8b1" stroke="#cdc8b1" points="479.71,-634.5 485.83,-643.14 486.43,-632.57 479.71,-634.5"/>
</g>
<!-- JumpBack_linked -->
<g id="node23" class="node">
<title>JumpBack_linked</title>
<polygon fill="none" stroke="black" stroke-dasharray="1,5" points="572.73,-48.88 412.27,-48.88 412.27,-12.88 572.73,-12.88 572.73,-48.88"/>
<text text-anchor="start" x="417.88" y="-25.45" font-family="Helvetica,sans-Serif" font-size="14.00">[Short]Flying Projectiles &#160;</text>
</g>
<!-- JumpBack&#45;&gt;JumpBack_linked -->
<g id="edge21" class="edge">
<title>JumpBack&#45;&gt;JumpBack_linked</title>
<path fill="none" stroke="#66cdaa" d="M198.55,-30.88C255.32,-30.88 337.87,-30.88 400.89,-30.88"/>
<polygon fill="#66cdaa" stroke="#66cdaa" points="400.5,-34.38 410.5,-30.88 400.5,-27.38 400.5,-34.38"/>
<text text-anchor="middle" x="314.12" y="-33.33" font-family="Helvetica,sans-Serif" font-size="14.00" fill="#66cdaa">QueueEnd</text>
</g>
<!-- LastHit -->
<g id="node24" class="node">
<title>LastHit</title>
<polygon fill="none" stroke="black" points="160.75,-1655.88 102.75,-1655.88 102.75,-1619.88 160.75,-1619.88 160.75,-1655.88"/>
<text text-anchor="middle" x="131.75" y="-1632.45" font-family="Helvetica,sans-Serif" font-size="14.00">LastHit</text>
</g>
<!-- DeadState -->
<g id="node25" class="node">
<title>DeadState</title>
<polygon fill="none" stroke="black" points="532.38,-1655.88 452.62,-1655.88 452.62,-1619.88 532.38,-1619.88 532.38,-1655.88"/>
<text text-anchor="middle" x="492.5" y="-1632.45" font-family="Helvetica,sans-Serif" font-size="14.00">DeadState</text>
</g>
<!-- LastHit&#45;&gt;DeadState -->
<g id="edge22" class="edge">
<title>LastHit&#45;&gt;DeadState</title>
<path fill="none" stroke="#cdc8b1" d="M161.2,-1637.88C221.89,-1637.88 364.73,-1637.88 441.17,-1637.88"/>
<polygon fill="#cdc8b1" stroke="#cdc8b1" points="440.88,-1641.38 450.88,-1637.88 440.88,-1634.38 440.88,-1641.38"/>
</g>
<!-- PostureBreak -->
<g id="node26" class="node">
<title>PostureBreak</title>
<polygon fill="none" stroke="black" points="180.62,-1441.88 82.88,-1441.88 82.88,-1405.88 180.62,-1405.88 180.62,-1441.88"/>
<text text-anchor="middle" x="131.75" y="-1418.45" font-family="Helvetica,sans-Serif" font-size="14.00">PostureBreak</text>
</g>
<!-- PostureBreak&#45;&gt;PreAttack -->
<g id="edge23" class="edge">
<title>PostureBreak&#45;&gt;PreAttack</title>
<path fill="none" stroke="#cdc8b1" d="M180.76,-1432.84C249.44,-1445.67 374.98,-1469.11 443.6,-1481.93"/>
<polygon fill="#cdc8b1" stroke="#cdc8b1" points="442.95,-1485.37 453.42,-1483.76 444.24,-1478.49 442.95,-1485.37"/>
</g>
<!-- Wandering_Idle -->
<g id="node27" class="node">
<title>Wandering_Idle</title>
<polygon fill="none" stroke="black" points="202.38,-1709.88 61.12,-1709.88 61.12,-1673.88 202.38,-1673.88 202.38,-1709.88"/>
<text text-anchor="middle" x="131.75" y="-1686.45" font-family="Helvetica,sans-Serif" font-size="14.00">Wandering_Idle (Init)</text>
</g>
<!-- Level Once Sensor -->
<g id="node28" class="node">
<title>Level Once Sensor</title>
<polygon fill="none" stroke="black" points="197.5,-1782.88 66,-1782.88 66,-1746.88 197.5,-1746.88 197.5,-1782.88"/>
<text text-anchor="middle" x="131.75" y="-1759.45" font-family="Helvetica,sans-Serif" font-size="14.00">Level Once Sensor</text>
</g>
<!-- Level Once Sensor_linked -->
<g id="node29" class="node">
<title>Level Once Sensor_linked</title>
<polygon fill="none" stroke="black" stroke-dasharray="1,5" points="564.48,-1761.88 420.52,-1761.88 420.52,-1725.88 564.48,-1725.88 564.48,-1761.88"/>
<text text-anchor="start" x="426.12" y="-1738.45" font-family="Helvetica,sans-Serif" font-size="14.00">Divination Free Zone &#160;</text>
</g>
<!-- Level Once Sensor&#45;&gt;Level Once Sensor_linked -->
<g id="edge24" class="edge">
<title>Level Once Sensor&#45;&gt;Level Once Sensor_linked</title>
<path fill="none" stroke="#66cdaa" d="M197.88,-1759.24C223.88,-1757.11 254.09,-1754.81 281.5,-1753.12 323.44,-1750.55 370.13,-1748.42 408.82,-1746.85"/>
<polygon fill="#66cdaa" stroke="#66cdaa" points="408.66,-1750.36 418.51,-1746.47 408.38,-1743.37 408.66,-1750.36"/>
<text text-anchor="middle" x="314.12" y="-1755.58" font-family="Helvetica,sans-Serif" font-size="14.00" fill="#66cdaa">QueueEnd</text>
</g>
<!-- Level Once Sensor_mustuse -->
<g id="node30" class="node">
<title>Level Once Sensor_mustuse</title>
<polygon fill="none" stroke="black" stroke-dasharray="1,5" points="574.5,-1815.88 410.5,-1815.88 410.5,-1779.88 574.5,-1779.88 574.5,-1815.88"/>
<text text-anchor="start" x="420.5" y="-1792.45" font-family="Helvetica,sans-Serif" font-size="14.00">1 Divination Free Zone &#160;</text>
</g>
<!-- Level Once Sensor&#45;&gt;Level Once Sensor_mustuse -->
<g id="edge25" class="edge">
<title>Level Once Sensor&#45;&gt;Level Once Sensor_mustuse</title>
<path fill="none" stroke="#458b74" d="M197.72,-1770.85C253.91,-1776.02 335.81,-1783.55 398.87,-1789.35"/>
<polygon fill="#458b74" stroke="#458b74" points="398.23,-1792.81 408.51,-1790.24 398.87,-1785.84 398.23,-1792.81"/>
<text text-anchor="middle" x="314.12" y="-1786.78" font-family="Helvetica,sans-Serif" font-size="14.00" fill="#458b74">Weight</text>
</g>
<!-- RunAwaySensor -->
<g id="node31" class="node">
<title>RunAwaySensor</title>
<polygon fill="none" stroke="black" points="190,-1851.88 73.5,-1851.88 73.5,-1815.88 190,-1815.88 190,-1851.88"/>
<text text-anchor="middle" x="131.75" y="-1828.45" font-family="Helvetica,sans-Serif" font-size="14.00">RunAwaySensor</text>
</g>
<!-- AttackSensor -->
<g id="node32" class="node">
<title>AttackSensor</title>
<polygon fill="none" stroke="black" points="179.88,-1928.88 83.62,-1928.88 83.62,-1892.88 179.88,-1892.88 179.88,-1928.88"/>
<text text-anchor="middle" x="131.75" y="-1905.45" font-family="Helvetica,sans-Serif" font-size="14.00">AttackSensor</text>
</g>
<!-- AttackSensor_linked -->
<g id="node33" class="node">
<title>AttackSensor_linked</title>
<polygon fill="none" stroke="black" stroke-dasharray="1,5" points="573.1,-1869.88 411.9,-1869.88 411.9,-1833.88 573.1,-1833.88 573.1,-1869.88"/>
<text text-anchor="start" x="417.5" y="-1846.45" font-family="Helvetica,sans-Serif" font-size="14.00">[Short]ShorFlyingSword &#160;</text>
</g>
<!-- AttackSensor&#45;&gt;AttackSensor_linked -->
<g id="edge26" class="edge">
<title>AttackSensor&#45;&gt;AttackSensor_linked</title>
<path fill="none" stroke="#66cdaa" d="M180.02,-1903.1C235.92,-1893.91 330.22,-1878.4 400.45,-1866.85"/>
<polygon fill="#66cdaa" stroke="#66cdaa" points="400.71,-1870.35 410.01,-1865.28 399.58,-1863.45 400.71,-1870.35"/>
<text text-anchor="middle" x="314.12" y="-1887.36" font-family="Helvetica,sans-Serif" font-size="14.00" fill="#66cdaa">QueueEnd</text>
</g>
<!-- AttackSensor_mustuse -->
<g id="node34" class="node">
<title>AttackSensor_mustuse</title>
<polygon fill="none" stroke="black" stroke-dasharray="1,5" points="620.25,-2034 364.75,-2034 364.75,-1887.75 620.25,-1887.75 620.25,-2034"/>
<text text-anchor="start" x="381.12" y="-2014.7" font-family="Helvetica,sans-Serif" font-size="14.00">0 [Altar]Set Laser Altar Environment &#160;</text>
<text text-anchor="start" x="417.88" y="-1994.95" font-family="Helvetica,sans-Serif" font-size="14.00">0 [Altar]SmallBlackHole &#160;</text>
<text text-anchor="start" x="410" y="-1975.2" font-family="Helvetica,sans-Serif" font-size="14.00">0 [Short]SuckSword 往內 &#160;</text>
<text text-anchor="start" x="421.25" y="-1955.45" font-family="Helvetica,sans-Serif" font-size="14.00">0 [Short]GroundSword &#160;</text>
<text text-anchor="start" x="411.88" y="-1935.7" font-family="Helvetica,sans-Serif" font-size="14.00">0 [Short]ShorFlyingSword &#160;</text>
<text text-anchor="start" x="374.75" y="-1915.95" font-family="Helvetica,sans-Serif" font-size="14.00">0 [Short]QuickHorizontalDoubleSword &#160;</text>
<text text-anchor="start" x="420.5" y="-1896.2" font-family="Helvetica,sans-Serif" font-size="14.00">1 Divination Free Zone &#160;</text>
</g>
<!-- AttackSensor&#45;&gt;AttackSensor_mustuse -->
<g id="edge27" class="edge">
<title>AttackSensor&#45;&gt;AttackSensor_mustuse</title>
<path fill="none" stroke="#458b74" d="M180.02,-1917.46C224.08,-1923.6 292.01,-1933.07 353.2,-1941.6"/>
<polygon fill="#458b74" stroke="#458b74" points="352.65,-1945.06 363.04,-1942.97 353.62,-1938.12 352.65,-1945.06"/>
<text text-anchor="middle" x="314.12" y="-1942.8" font-family="Helvetica,sans-Serif" font-size="14.00" fill="#458b74">Weight</text>
</g>
<!-- DodgePredictSensor -->
<g id="node35" class="node">
<title>DodgePredictSensor</title>
<polygon fill="none" stroke="black" points="62.75,-2029.88 62.75,-2051.62 200.75,-2051.62 200.75,-2029.88 62.75,-2029.88"/>
<text text-anchor="start" x="65.75" y="-2035.33" font-family="Helvetica,sans-Serif" font-size="14.00">DodgePredictSensor &#160;</text>
<polygon fill="none" stroke="black" points="62.75,-2008.12 62.75,-2029.88 200.75,-2029.88 200.75,-2008.12 62.75,-2008.12"/>
<text text-anchor="start" x="65.75" y="-2014.58" font-family="Helvetica,sans-Serif" font-size="12.00" fill="#838b8b">if: rollingCondition</text>
<text text-anchor="start" x="162.5" y="-2014.58" font-family="Helvetica,sans-Serif" font-size="14.00"> &#160;</text>
</g>
<!-- DodgePredictSensor_linked -->
<g id="node36" class="node">
<title>DodgePredictSensor_linked</title>
<polygon fill="none" stroke="black" stroke-dasharray="1,5" points="564.48,-2087.88 420.52,-2087.88 420.52,-2051.88 564.48,-2051.88 564.48,-2087.88"/>
<text text-anchor="start" x="426.12" y="-2064.45" font-family="Helvetica,sans-Serif" font-size="14.00">Divination Free Zone &#160;</text>
</g>
<!-- DodgePredictSensor&#45;&gt;DodgePredictSensor_linked -->
<g id="edge28" class="edge">
<title>DodgePredictSensor&#45;&gt;DodgePredictSensor_linked</title>
<path fill="none" stroke="#66cdaa" d="M208.39,-2038.31C267.1,-2044.86 348.4,-2053.92 408.82,-2060.66"/>
<polygon fill="#66cdaa" stroke="#66cdaa" points="408.4,-2064.13 418.73,-2061.76 409.18,-2057.17 408.4,-2064.13"/>
<text text-anchor="middle" x="314.12" y="-2055.91" font-family="Helvetica,sans-Serif" font-size="14.00" fill="#66cdaa">QueueEnd</text>
</g>
<!-- AttackPredictSensor -->
<g id="node37" class="node">
<title>AttackPredictSensor</title>
<polygon fill="none" stroke="black" points="63.88,-2099.88 63.88,-2121.62 199.62,-2121.62 199.62,-2099.88 63.88,-2099.88"/>
<text text-anchor="start" x="66.88" y="-2105.32" font-family="Helvetica,sans-Serif" font-size="14.00">AttackPredictSensor &#160;</text>
<polygon fill="none" stroke="black" points="63.88,-2078.12 63.88,-2099.88 199.62,-2099.88 199.62,-2078.12 63.88,-2078.12"/>
<text text-anchor="start" x="66.88" y="-2084.57" font-family="Helvetica,sans-Serif" font-size="12.00" fill="#838b8b">if: attackCondition</text>
<text text-anchor="start" x="162.12" y="-2084.57" font-family="Helvetica,sans-Serif" font-size="14.00"> &#160;</text>
</g>
<!-- AttackPredictSensor_linked -->
<g id="node38" class="node">
<title>AttackPredictSensor_linked</title>
<polygon fill="none" stroke="black" stroke-dasharray="1,5" points="564.48,-2141.88 420.52,-2141.88 420.52,-2105.88 564.48,-2105.88 564.48,-2141.88"/>
<text text-anchor="start" x="426.12" y="-2118.45" font-family="Helvetica,sans-Serif" font-size="14.00">Divination Free Zone &#160;</text>
</g>
<!-- AttackPredictSensor&#45;&gt;AttackPredictSensor_linked -->
<g id="edge29" class="edge">
<title>AttackPredictSensor&#45;&gt;AttackPredictSensor_linked</title>
<path fill="none" stroke="#66cdaa" d="M207.52,-2104.88C266.26,-2108.81 348.01,-2114.28 408.72,-2118.34"/>
<polygon fill="#66cdaa" stroke="#66cdaa" points="408.47,-2121.83 418.68,-2119 408.93,-2114.84 408.47,-2121.83"/>
<text text-anchor="middle" x="314.12" y="-2116.47" font-family="Helvetica,sans-Serif" font-size="14.00" fill="#66cdaa">QueueEnd</text>
</g>
<!-- AttackRunToSensor -->
<g id="node39" class="node">
<title>AttackRunToSensor</title>
<polygon fill="none" stroke="black" points="65.38,-2169.88 65.38,-2191.62 198.12,-2191.62 198.12,-2169.88 65.38,-2169.88"/>
<text text-anchor="start" x="68.38" y="-2175.32" font-family="Helvetica,sans-Serif" font-size="14.00">AttackRunToSensor &#160;</text>
<polygon fill="none" stroke="black" points="65.38,-2148.12 65.38,-2169.88 198.12,-2169.88 198.12,-2148.12 65.38,-2148.12"/>
<text text-anchor="start" x="68.38" y="-2154.57" font-family="Helvetica,sans-Serif" font-size="12.00" fill="#838b8b">if: state is Engaging</text>
<text text-anchor="start" x="172.62" y="-2154.57" font-family="Helvetica,sans-Serif" font-size="14.00"> &#160;</text>
</g>
<!-- AttackRunToSensor_linked -->
<g id="node40" class="node">
<title>AttackRunToSensor_linked</title>
<polygon fill="none" stroke="black" stroke-dasharray="1,5" points="564.48,-2195.88 420.52,-2195.88 420.52,-2159.88 564.48,-2159.88 564.48,-2195.88"/>
<text text-anchor="start" x="426.12" y="-2172.45" font-family="Helvetica,sans-Serif" font-size="14.00">Divination Free Zone &#160;</text>
</g>
<!-- AttackRunToSensor&#45;&gt;AttackRunToSensor_linked -->
<g id="edge30" class="edge">
<title>AttackRunToSensor&#45;&gt;AttackRunToSensor_linked</title>
<path fill="none" stroke="#66cdaa" d="M205.78,-2171.5C264.7,-2172.82 347.58,-2174.67 408.91,-2176.03"/>
<polygon fill="#66cdaa" stroke="#66cdaa" points="408.51,-2179.53 418.59,-2176.25 408.67,-2172.53 408.51,-2179.53"/>
<text text-anchor="middle" x="314.12" y="-2177.04" font-family="Helvetica,sans-Serif" font-size="14.00" fill="#66cdaa">QueueEnd</text>
</g>
</g>
</svg>
