<?xml version="1.0" encoding="UTF-8" standalone="no"?>
<!DOCTYPE svg PUBLIC "-//W3C//DTD SVG 1.1//EN"
 "http://www.w3.org/Graphics/SVG/1.1/DTD/svg11.dtd">
<!-- Generated by graphviz version 12.2.1 (20241206.2353)
 -->
<!-- Title: Foo Pages: 1 -->
<svg width="439pt" height="1256pt"
 viewBox="0.00 0.00 439.00 1256.00" xmlns="http://www.w3.org/2000/svg" xmlns:xlink="http://www.w3.org/1999/xlink">
<g id="graph0" class="graph" transform="scale(1 1) rotate(0) translate(4 1252)">
<title>Foo</title>
<polygon fill="white" stroke="none" points="-4,4 -4,-1252 435,-1252 435,4 -4,4"/>
<g id="clust1" class="cluster">
<title>cluster_attacksensors</title>
<polygon fill="none" stroke="black" points="8,-8 8,-490 423,-490 423,-8 8,-8"/>
<text text-anchor="middle" x="215.5" y="-472.7" font-family="Helvetica,sans-Serif" font-size="14.00">Attack Sensors</text>
</g>
<!-- Level Once Sensor -->
<g id="node1" class="node">
<title>Level Once Sensor</title>
<polygon fill="none" stroke="black" points="28.5,-51.12 28.5,-72.88 157.5,-72.88 157.5,-51.12 28.5,-51.12"/>
<text text-anchor="start" x="31.5" y="-56.58" font-family="Helvetica,sans-Serif" font-size="14.00">Level Once Sensor &#160;</text>
</g>
<!-- Level Once Sensor_linked -->
<g id="node2" class="node">
<title>Level Once Sensor_linked</title>
<polygon fill="none" stroke="black" stroke-dasharray="1,5" points="374.6,-52 318.4,-52 318.4,-16 374.6,-16 374.6,-52"/>
<text text-anchor="start" x="324" y="-28.57" font-family="Helvetica,sans-Serif" font-size="14.00">Attack &#160;</text>
</g>
<!-- Level Once Sensor&#45;&gt;Level Once Sensor_linked -->
<g id="edge1" class="edge">
<title>Level Once Sensor&#45;&gt;Level Once Sensor_linked</title>
<path fill="none" stroke="#66cdaa" d="M165.4,-54.05C211.46,-48.92 269.57,-42.45 307.13,-38.27"/>
<polygon fill="#66cdaa" stroke="#66cdaa" points="307.03,-41.8 316.58,-37.22 306.25,-34.85 307.03,-41.8"/>
<text text-anchor="middle" x="227.38" y="-52.96" font-family="Helvetica,sans-Serif" font-size="14.00" fill="#66cdaa">QueueEnd</text>
</g>
<!-- Level Once Sensor_weight -->
<g id="node3" class="node">
<title>Level Once Sensor_weight</title>
<polygon fill="none" stroke="black" stroke-dasharray="1,5" points="384.25,-106 308.75,-106 308.75,-70 384.25,-70 384.25,-106"/>
<text text-anchor="start" x="318.75" y="-82.58" font-family="Helvetica,sans-Serif" font-size="14.00">1 Attack &#160;</text>
</g>
<!-- Level Once Sensor&#45;&gt;Level Once Sensor_weight -->
<g id="edge2" class="edge">
<title>Level Once Sensor&#45;&gt;Level Once Sensor_weight</title>
<path fill="none" stroke="#458b74" d="M165.4,-69.38C207.64,-73.75 260.02,-79.16 297.39,-83.03"/>
<polygon fill="#458b74" stroke="#458b74" points="296.66,-86.47 306.97,-84.02 297.38,-79.51 296.66,-86.47"/>
<text text-anchor="middle" x="227.38" y="-81.3" font-family="Helvetica,sans-Serif" font-size="14.00" fill="#458b74">Weight</text>
</g>
<!-- RunAwaySensor -->
<g id="node4" class="node">
<title>RunAwaySensor</title>
<polygon fill="none" stroke="black" points="36,-132.12 36,-153.88 150,-153.88 150,-132.12 36,-132.12"/>
<text text-anchor="start" x="39" y="-137.57" font-family="Helvetica,sans-Serif" font-size="14.00">RunAwaySensor &#160;</text>
</g>
<!-- AttackSensor -->
<g id="node5" class="node">
<title>AttackSensor</title>
<polygon fill="none" stroke="black" points="46.12,-193.12 46.12,-214.88 139.88,-214.88 139.88,-193.12 46.12,-193.12"/>
<text text-anchor="start" x="49.12" y="-198.57" font-family="Helvetica,sans-Serif" font-size="14.00">AttackSensor &#160;</text>
</g>
<!-- AttackSensor_linked -->
<g id="node6" class="node">
<title>AttackSensor_linked</title>
<polygon fill="none" stroke="black" stroke-dasharray="1,5" points="404.98,-190.22 288.02,-190.22 288.02,-123.78 404.98,-123.78 404.98,-190.22"/>
<text text-anchor="start" x="324" y="-171.32" font-family="Helvetica,sans-Serif" font-size="14.00">Attack &#160;</text>
<text text-anchor="start" x="304.5" y="-151.57" font-family="Helvetica,sans-Serif" font-size="14.00"> Hori Attack2 &#160;</text>
<text text-anchor="start" x="293.62" y="-131.82" font-family="Helvetica,sans-Serif" font-size="14.00"> Double Attack 3 &#160;</text>
</g>
<!-- AttackSensor&#45;&gt;AttackSensor_linked -->
<g id="edge3" class="edge">
<title>AttackSensor&#45;&gt;AttackSensor_linked</title>
<path fill="none" stroke="#66cdaa" d="M147.64,-193.97C185.23,-186.95 235.79,-177.5 276.39,-169.92"/>
<polygon fill="#66cdaa" stroke="#66cdaa" points="276.88,-173.38 286.07,-168.11 275.6,-166.5 276.88,-173.38"/>
<text text-anchor="middle" x="227.38" y="-187.16" font-family="Helvetica,sans-Serif" font-size="14.00" fill="#66cdaa">QueueEnd</text>
</g>
<!-- AttackSensor_weight -->
<g id="node7" class="node">
<title>AttackSensor_weight</title>
<polygon fill="none" stroke="black" stroke-dasharray="1,5" points="415,-295.5 278,-295.5 278,-208.5 415,-208.5 415,-295.5"/>
<text text-anchor="start" x="318.75" y="-276.2" font-family="Helvetica,sans-Serif" font-size="14.00">1 Attack &#160;</text>
<text text-anchor="start" x="298.88" y="-256.45" font-family="Helvetica,sans-Serif" font-size="14.00">0 &#160;Hori Attack2 &#160;</text>
<text text-anchor="start" x="288" y="-236.7" font-family="Helvetica,sans-Serif" font-size="14.00">1 &#160;Double Attack 3 &#160;</text>
<text text-anchor="start" x="292.88" y="-216.95" font-family="Helvetica,sans-Serif" font-size="14.00">2 &#160;Danger Attack &#160;</text>
</g>
<!-- AttackSensor&#45;&gt;AttackSensor_weight -->
<g id="edge4" class="edge">
<title>AttackSensor&#45;&gt;AttackSensor_weight</title>
<path fill="none" stroke="#458b74" d="M147.64,-214.24C182.18,-220.83 227.67,-229.51 266.32,-236.89"/>
<polygon fill="#458b74" stroke="#458b74" points="265.58,-240.31 276.06,-238.75 266.9,-233.43 265.58,-240.31"/>
<text text-anchor="middle" x="227.38" y="-237.55" font-family="Helvetica,sans-Serif" font-size="14.00" fill="#458b74">Weight</text>
</g>
<!-- DodgePredictSensor -->
<g id="node8" class="node">
<title>DodgePredictSensor</title>
<polygon fill="none" stroke="black" points="24,-292 24,-313.75 162,-313.75 162,-292 24,-292"/>
<text text-anchor="start" x="27" y="-297.45" font-family="Helvetica,sans-Serif" font-size="14.00">DodgePredictSensor &#160;</text>
<polygon fill="none" stroke="black" points="24,-270.25 24,-292 162,-292 162,-270.25 24,-270.25"/>
<text text-anchor="start" x="27" y="-276.7" font-family="Helvetica,sans-Serif" font-size="12.00" fill="#838b8b">if: rollingCondition</text>
<text text-anchor="start" x="123.75" y="-276.7" font-family="Helvetica,sans-Serif" font-size="14.00"> &#160;</text>
</g>
<!-- DodgePredictSensor_linked -->
<g id="node9" class="node">
<title>DodgePredictSensor_linked</title>
<polygon fill="none" stroke="black" stroke-dasharray="1,5" points="374.6,-350 318.4,-350 318.4,-314 374.6,-314 374.6,-350"/>
<text text-anchor="start" x="324" y="-326.57" font-family="Helvetica,sans-Serif" font-size="14.00">Attack &#160;</text>
</g>
<!-- DodgePredictSensor&#45;&gt;DodgePredictSensor_linked -->
<g id="edge5" class="edge">
<title>DodgePredictSensor&#45;&gt;DodgePredictSensor_linked</title>
<path fill="none" stroke="#66cdaa" d="M169.8,-304.06C215.09,-311.26 270.69,-320.1 307.06,-325.89"/>
<polygon fill="#66cdaa" stroke="#66cdaa" points="306.24,-329.3 316.66,-327.41 307.33,-322.39 306.24,-329.3"/>
<text text-anchor="middle" x="227.38" y="-320.37" font-family="Helvetica,sans-Serif" font-size="14.00" fill="#66cdaa">QueueEnd</text>
</g>
<!-- AttackPredictSensor -->
<g id="node10" class="node">
<title>AttackPredictSensor</title>
<polygon fill="none" stroke="black" points="25.12,-362 25.12,-383.75 160.88,-383.75 160.88,-362 25.12,-362"/>
<text text-anchor="start" x="28.12" y="-367.45" font-family="Helvetica,sans-Serif" font-size="14.00">AttackPredictSensor &#160;</text>
<polygon fill="none" stroke="black" points="25.12,-340.25 25.12,-362 160.88,-362 160.88,-340.25 25.12,-340.25"/>
<text text-anchor="start" x="28.12" y="-346.7" font-family="Helvetica,sans-Serif" font-size="12.00" fill="#838b8b">if: attackCondition</text>
<text text-anchor="start" x="123.38" y="-346.7" font-family="Helvetica,sans-Serif" font-size="14.00"> &#160;</text>
</g>
<!-- AttackPredictSensor_linked -->
<g id="node11" class="node">
<title>AttackPredictSensor_linked</title>
<polygon fill="none" stroke="black" stroke-dasharray="1,5" points="374.6,-404 318.4,-404 318.4,-368 374.6,-368 374.6,-404"/>
<text text-anchor="start" x="324" y="-380.57" font-family="Helvetica,sans-Serif" font-size="14.00">Attack &#160;</text>
</g>
<!-- AttackPredictSensor&#45;&gt;AttackPredictSensor_linked -->
<g id="edge6" class="edge">
<title>AttackPredictSensor&#45;&gt;AttackPredictSensor_linked</title>
<path fill="none" stroke="#66cdaa" d="M168.78,-369.14C214.11,-373.46 270.09,-378.8 306.74,-382.3"/>
<polygon fill="#66cdaa" stroke="#66cdaa" points="306.13,-385.76 316.42,-383.22 306.79,-378.79 306.13,-385.76"/>
<text text-anchor="middle" x="227.38" y="-380" font-family="Helvetica,sans-Serif" font-size="14.00" fill="#66cdaa">QueueEnd</text>
</g>
<!-- AttackRunToSensor -->
<g id="node12" class="node">
<title>AttackRunToSensor</title>
<polygon fill="none" stroke="black" points="26.62,-432 26.62,-453.75 159.38,-453.75 159.38,-432 26.62,-432"/>
<text text-anchor="start" x="29.62" y="-437.45" font-family="Helvetica,sans-Serif" font-size="14.00">AttackRunToSensor &#160;</text>
<polygon fill="none" stroke="black" points="26.62,-410.25 26.62,-432 159.38,-432 159.38,-410.25 26.62,-410.25"/>
<text text-anchor="start" x="29.62" y="-416.7" font-family="Helvetica,sans-Serif" font-size="12.00" fill="#838b8b">if: state is Engaging</text>
<text text-anchor="start" x="133.88" y="-416.7" font-family="Helvetica,sans-Serif" font-size="14.00"> &#160;</text>
</g>
<!-- AttackRunToSensor_linked -->
<g id="node13" class="node">
<title>AttackRunToSensor_linked</title>
<polygon fill="none" stroke="black" stroke-dasharray="1,5" points="374.6,-458 318.4,-458 318.4,-422 374.6,-422 374.6,-458"/>
<text text-anchor="start" x="324" y="-434.57" font-family="Helvetica,sans-Serif" font-size="14.00">Attack &#160;</text>
</g>
<!-- AttackRunToSensor&#45;&gt;AttackRunToSensor_linked -->
<g id="edge7" class="edge">
<title>AttackRunToSensor&#45;&gt;AttackRunToSensor_linked</title>
<path fill="none" stroke="#66cdaa" d="M167.08,-434.32C212.76,-435.78 269.74,-437.59 306.85,-438.77"/>
<polygon fill="#66cdaa" stroke="#66cdaa" points="306.54,-442.26 316.64,-439.08 306.76,-435.27 306.54,-442.26"/>
<text text-anchor="middle" x="227.38" y="-439.63" font-family="Helvetica,sans-Serif" font-size="14.00" fill="#66cdaa">QueueEnd</text>
</g>
<!-- Attack -->
<g id="node14" class="node">
<title>Attack</title>
<polygon fill="none" stroke="black" points="33,-1168.12 33,-1189.88 153,-1189.88 153,-1168.12 33,-1168.12"/>
<text text-anchor="start" x="70.5" y="-1173.58" font-family="Helvetica,sans-Serif" font-size="14.00">Attack &#160;</text>
<polygon fill="none" stroke="black" points="33,-1100.12 33,-1168.12 153,-1168.12 153,-1100.12 33,-1100.12"/>
<text text-anchor="start" x="36" y="-1154.72" font-family="Helvetica,sans-Serif" font-size="12.00" fill="#838b8b">0.33s: CheckFacing</text>
<text text-anchor="start" x="36" y="-1142.72" font-family="Helvetica,sans-Serif" font-size="12.00" fill="#838b8b">0.50s: Evaluate</text>
<text text-anchor="start" x="36" y="-1130.72" font-family="Helvetica,sans-Serif" font-size="12.00" fill="#838b8b">0.63s: ResetEvaluate</text>
<text text-anchor="start" x="36" y="-1118.72" font-family="Helvetica,sans-Serif" font-size="12.00" fill="#838b8b">1.08s: LinkNextMove</text>
<text text-anchor="start" x="36" y="-1104.82" font-family="Helvetica,sans-Serif" font-size="12.00" fill="#838b8b">1.25s: Done</text>
<text text-anchor="start" x="100.5" y="-1104.82" font-family="Helvetica,sans-Serif" font-size="14.00"> &#160;</text>
</g>
<!-- PreAttack -->
<g id="node15" class="node">
<title>PreAttack</title>
<polygon fill="none" stroke="black" points="383.75,-825 309.25,-825 309.25,-789 383.75,-789 383.75,-825"/>
<text text-anchor="middle" x="346.5" y="-801.58" font-family="Helvetica,sans-Serif" font-size="14.00">PreAttack</text>
</g>
<!-- Attack&#45;&gt;PreAttack -->
<g id="edge8" class="edge">
<title>Attack&#45;&gt;PreAttack</title>
<path fill="none" stroke="#cdc8b1" d="M160.85,-1101.53C166.46,-1096.89 171.85,-1092.02 176.75,-1087 253.01,-1008.9 309.93,-890.12 333.53,-835.86"/>
<polygon fill="#cdc8b1" stroke="#cdc8b1" points="336.73,-837.26 337.45,-826.69 330.3,-834.5 336.73,-837.26"/>
</g>
<!--  Hori Attack2 -->
<g id="node16" class="node">
<title> Hori Attack2</title>
<polygon fill="none" stroke="black" points="34.12,-1052.12 34.12,-1073.88 151.88,-1073.88 151.88,-1052.12 34.12,-1052.12"/>
<text text-anchor="start" x="51" y="-1057.58" font-family="Helvetica,sans-Serif" font-size="14.00"> Hori Attack2 &#160;</text>
<polygon fill="none" stroke="black" points="34.12,-1008.12 34.12,-1052.12 151.88,-1052.12 151.88,-1008.12 34.12,-1008.12"/>
<text text-anchor="start" x="37.12" y="-1038.72" font-family="Helvetica,sans-Serif" font-size="12.00" fill="#838b8b">1.00s: CheckFacing</text>
<text text-anchor="start" x="37.12" y="-1026.72" font-family="Helvetica,sans-Serif" font-size="12.00" fill="#838b8b">1.83s: LinkNextMove</text>
<text text-anchor="start" x="37.12" y="-1012.82" font-family="Helvetica,sans-Serif" font-size="12.00" fill="#838b8b">2.00s: Done</text>
<text text-anchor="start" x="101.62" y="-1012.82" font-family="Helvetica,sans-Serif" font-size="14.00"> &#160;</text>
</g>
<!--  Hori Attack2&#45;&gt;PreAttack -->
<g id="edge9" class="edge">
<title> Hori Attack2&#45;&gt;PreAttack</title>
<path fill="none" stroke="#cdc8b1" d="M159.49,-1007.33C165.5,-1003.44 171.35,-999.3 176.75,-995 238.07,-946.09 296.07,-873.76 325.46,-834.61"/>
<polygon fill="#cdc8b1" stroke="#cdc8b1" points="328.25,-836.73 331.4,-826.62 322.63,-832.56 328.25,-836.73"/>
</g>
<!--  Double Attack 3 -->
<g id="node17" class="node">
<title> Double Attack 3</title>
<polygon fill="none" stroke="black" points="36.75,-960.12 36.75,-981.88 149.25,-981.88 149.25,-960.12 36.75,-960.12"/>
<text text-anchor="start" x="40.12" y="-965.58" font-family="Helvetica,sans-Serif" font-size="14.00"> Double Attack 3 &#160;</text>
<polygon fill="none" stroke="black" points="36.75,-916.12 36.75,-960.12 149.25,-960.12 149.25,-916.12 36.75,-916.12"/>
<text text-anchor="start" x="39.75" y="-946.73" font-family="Helvetica,sans-Serif" font-size="12.00" fill="#838b8b">1.00s: CheckFacing</text>
<text text-anchor="start" x="39.75" y="-934.73" font-family="Helvetica,sans-Serif" font-size="12.00" fill="#838b8b">1.83s: CheckFacing</text>
<text text-anchor="start" x="39.75" y="-920.83" font-family="Helvetica,sans-Serif" font-size="12.00" fill="#838b8b">3.00s: Done</text>
<text text-anchor="start" x="104.25" y="-920.83" font-family="Helvetica,sans-Serif" font-size="14.00"> &#160;</text>
</g>
<!--  Double Attack 3&#45;&gt;PreAttack -->
<g id="edge10" class="edge">
<title> Double Attack 3&#45;&gt;PreAttack</title>
<path fill="none" stroke="#cdc8b1" d="M156.84,-914.15C163.57,-910.4 170.3,-906.63 176.75,-903 220.07,-878.64 269.47,-850.49 303.57,-831.01"/>
<polygon fill="#cdc8b1" stroke="#cdc8b1" points="304.94,-834.25 311.89,-826.25 301.47,-828.17 304.94,-834.25"/>
</g>
<!--  Danger Attack -->
<g id="node18" class="node">
<title> Danger Attack</title>
<polygon fill="none" stroke="black" points="33,-868.12 33,-889.88 153,-889.88 153,-868.12 33,-868.12"/>
<text text-anchor="start" x="45" y="-873.58" font-family="Helvetica,sans-Serif" font-size="14.00"> Danger Attack &#160;</text>
<polygon fill="none" stroke="black" points="33,-812.12 33,-868.12 153,-868.12 153,-812.12 33,-812.12"/>
<text text-anchor="start" x="36" y="-854.73" font-family="Helvetica,sans-Serif" font-size="12.00" fill="#838b8b">0.33s: CheckFacing</text>
<text text-anchor="start" x="36" y="-842.73" font-family="Helvetica,sans-Serif" font-size="12.00" fill="#838b8b">1.08s: Evaluate</text>
<text text-anchor="start" x="36" y="-830.73" font-family="Helvetica,sans-Serif" font-size="12.00" fill="#838b8b">1.22s: ResetEvaluate</text>
<text text-anchor="start" x="36" y="-816.83" font-family="Helvetica,sans-Serif" font-size="12.00" fill="#838b8b">1.78s: Done</text>
<text text-anchor="start" x="100.5" y="-816.83" font-family="Helvetica,sans-Serif" font-size="14.00"> &#160;</text>
</g>
<!--  Danger Attack&#45;&gt;PreAttack -->
<g id="edge11" class="edge">
<title> Danger Attack&#45;&gt;PreAttack</title>
<path fill="none" stroke="#cdc8b1" d="M160.74,-839.32C203.92,-831.77 259.1,-822.12 297.87,-815.33"/>
<polygon fill="#cdc8b1" stroke="#cdc8b1" points="298.11,-818.84 307.36,-813.67 296.9,-811.95 298.11,-818.84"/>
</g>
<!-- AttackParrying -->
<g id="node19" class="node">
<title>AttackParrying</title>
<polygon fill="none" stroke="black" points="42.38,-764 42.38,-785.75 143.62,-785.75 143.62,-764 42.38,-764"/>
<text text-anchor="start" x="45.38" y="-769.45" font-family="Helvetica,sans-Serif" font-size="14.00">AttackParrying &#160;</text>
<polygon fill="none" stroke="black" points="42.38,-742.25 42.38,-764 143.62,-764 143.62,-742.25 42.38,-742.25"/>
<text text-anchor="start" x="45.38" y="-748.7" font-family="Helvetica,sans-Serif" font-size="12.00" fill="#838b8b">0.83s: Done</text>
<text text-anchor="start" x="109.88" y="-748.7" font-family="Helvetica,sans-Serif" font-size="14.00"> &#160;</text>
</g>
<!-- AttackParrying&#45;&gt;PreAttack -->
<g id="edge12" class="edge">
<title>AttackParrying&#45;&gt;PreAttack</title>
<path fill="none" stroke="#cdc8b1" d="M151.38,-773.81C195.64,-781.38 256.14,-791.72 297.77,-798.84"/>
<polygon fill="#cdc8b1" stroke="#cdc8b1" points="297.05,-802.27 307.49,-800.5 298.23,-795.37 297.05,-802.27"/>
</g>
<!-- HurtState -->
<g id="node20" class="node">
<title>HurtState</title>
<polygon fill="none" stroke="black" points="34.5,-694.12 34.5,-715.88 151.5,-715.88 151.5,-694.12 34.5,-694.12"/>
<text text-anchor="start" x="60.75" y="-699.58" font-family="Helvetica,sans-Serif" font-size="14.00">HurtState &#160;</text>
<polygon fill="none" stroke="black" points="34.5,-662.12 34.5,-694.12 151.5,-694.12 151.5,-662.12 34.5,-662.12"/>
<text text-anchor="start" x="37.5" y="-680.73" font-family="Helvetica,sans-Serif" font-size="12.00" fill="#838b8b">0.00s: EnableGravity</text>
<text text-anchor="start" x="37.5" y="-666.83" font-family="Helvetica,sans-Serif" font-size="12.00" fill="#838b8b">0.25s: Done</text>
<text text-anchor="start" x="102" y="-666.83" font-family="Helvetica,sans-Serif" font-size="14.00"> &#160;</text>
</g>
<!-- HurtState&#45;&gt;PreAttack -->
<g id="edge13" class="edge">
<title>HurtState&#45;&gt;PreAttack</title>
<path fill="none" stroke="#cdc8b1" d="M159.42,-719.7C203.02,-740.15 259.29,-766.55 298.49,-784.94"/>
<polygon fill="#cdc8b1" stroke="#cdc8b1" points="296.91,-788.07 307.44,-789.15 299.88,-781.73 296.91,-788.07"/>
</g>
<!-- Hurt_BigState -->
<g id="node21" class="node">
<title>Hurt_BigState</title>
<polygon fill="none" stroke="black" points="34.5,-614.12 34.5,-635.88 151.5,-635.88 151.5,-614.12 34.5,-614.12"/>
<text text-anchor="start" x="47.25" y="-619.58" font-family="Helvetica,sans-Serif" font-size="14.00">Hurt_BigState &#160;</text>
<polygon fill="none" stroke="black" points="34.5,-582.12 34.5,-614.12 151.5,-614.12 151.5,-582.12 34.5,-582.12"/>
<text text-anchor="start" x="37.5" y="-600.73" font-family="Helvetica,sans-Serif" font-size="12.00" fill="#838b8b">0.00s: EnableGravity</text>
<text text-anchor="start" x="37.5" y="-586.83" font-family="Helvetica,sans-Serif" font-size="12.00" fill="#838b8b">1.00s: Done</text>
<text text-anchor="start" x="102" y="-586.83" font-family="Helvetica,sans-Serif" font-size="14.00"> &#160;</text>
</g>
<!-- Hurt_BigState&#45;&gt;PreAttack -->
<g id="edge14" class="edge">
<title>Hurt_BigState&#45;&gt;PreAttack</title>
<path fill="none" stroke="#cdc8b1" d="M159.21,-638.17C165.28,-641.58 171.22,-645.21 176.75,-649 233.86,-688.19 290.66,-746.34 321.61,-780.09"/>
<polygon fill="#cdc8b1" stroke="#cdc8b1" points="318.94,-782.35 328.26,-787.39 324.12,-777.64 318.94,-782.35"/>
</g>
<!-- PostureBreak -->
<g id="node22" class="node">
<title>PostureBreak</title>
<polygon fill="none" stroke="black" points="34.5,-534.12 34.5,-555.88 151.5,-555.88 151.5,-534.12 34.5,-534.12"/>
<text text-anchor="start" x="48.38" y="-539.58" font-family="Helvetica,sans-Serif" font-size="14.00">PostureBreak &#160;</text>
<polygon fill="none" stroke="black" points="34.5,-502.12 34.5,-534.12 151.5,-534.12 151.5,-502.12 34.5,-502.12"/>
<text text-anchor="start" x="37.5" y="-520.73" font-family="Helvetica,sans-Serif" font-size="12.00" fill="#838b8b">0.00s: EnableGravity</text>
<text text-anchor="start" x="37.5" y="-506.83" font-family="Helvetica,sans-Serif" font-size="12.00" fill="#838b8b">3.50s: Done</text>
<text text-anchor="start" x="102" y="-506.83" font-family="Helvetica,sans-Serif" font-size="14.00"> &#160;</text>
</g>
<!-- PostureBreak&#45;&gt;PreAttack -->
<g id="edge15" class="edge">
<title>PostureBreak&#45;&gt;PreAttack</title>
<path fill="none" stroke="#cdc8b1" d="M159.1,-557.48C165.26,-561.05 171.25,-564.9 176.75,-569 253.42,-626.09 308.76,-728.36 332.55,-778.16"/>
<polygon fill="#cdc8b1" stroke="#cdc8b1" points="329.35,-779.58 336.76,-787.15 335.69,-776.61 329.35,-779.58"/>
</g>
<!-- Wandering_Walking -->
<g id="node23" class="node">
<title>Wandering_Walking</title>
<polygon fill="none" stroke="black" points="176.75,-1248 9.25,-1248 9.25,-1212 176.75,-1212 176.75,-1248"/>
<text text-anchor="middle" x="93" y="-1224.58" font-family="Helvetica,sans-Serif" font-size="14.00">Wandering_Walking (Init)</text>
</g>
</g>
</svg>
