<?xml version="1.0" encoding="UTF-8" standalone="no"?>
<!DOCTYPE svg PUBLIC "-//W3C//DTD SVG 1.1//EN"
 "http://www.w3.org/Graphics/SVG/1.1/DTD/svg11.dtd">
<!-- Generated by graphviz version 12.2.1 (20241206.2353)
 -->
<!-- Title: Foo Pages: 1 -->
<svg width="419pt" height="1256pt"
 viewBox="0.00 0.00 418.95 1255.88" xmlns="http://www.w3.org/2000/svg" xmlns:xlink="http://www.w3.org/1999/xlink">
<g id="graph0" class="graph" transform="scale(1 1) rotate(0) translate(4 1251.88)">
<title>Foo</title>
<polygon fill="white" stroke="none" points="-4,4 -4,-1251.88 414.95,-1251.88 414.95,4 -4,4"/>
<g id="clust1" class="cluster">
<title>cluster_attacksensors</title>
<polygon fill="none" stroke="black" points="8,-757.88 8,-1239.88 402.95,-1239.88 402.95,-757.88 8,-757.88"/>
<text text-anchor="middle" x="205.47" y="-1222.58" font-family="Helvetica,sans-Serif" font-size="14.00">Attack Sensors</text>
</g>
<!-- Attack -->
<g id="node1" class="node">
<title>Attack</title>
<polygon fill="none" stroke="black" points="33,-670 33,-691.75 153,-691.75 153,-670 33,-670"/>
<text text-anchor="start" x="70.5" y="-675.45" font-family="Helvetica,sans-Serif" font-size="14.00">Attack &#160;</text>
<polygon fill="none" stroke="black" points="33,-602 33,-670 153,-670 153,-602 33,-602"/>
<text text-anchor="start" x="36" y="-656.6" font-family="Helvetica,sans-Serif" font-size="12.00" fill="#838b8b">0.33s: CheckFacing</text>
<text text-anchor="start" x="36" y="-644.6" font-family="Helvetica,sans-Serif" font-size="12.00" fill="#838b8b">0.50s: Evaluate</text>
<text text-anchor="start" x="36" y="-632.6" font-family="Helvetica,sans-Serif" font-size="12.00" fill="#838b8b">0.63s: ResetEvaluate</text>
<text text-anchor="start" x="36" y="-620.6" font-family="Helvetica,sans-Serif" font-size="12.00" fill="#838b8b">1.08s: LinkNextMove</text>
<text text-anchor="start" x="36" y="-606.7" font-family="Helvetica,sans-Serif" font-size="12.00" fill="#838b8b">1.25s: Done</text>
<text text-anchor="start" x="100.5" y="-606.7" font-family="Helvetica,sans-Serif" font-size="14.00"> &#160;</text>
</g>
<!-- PreAttack -->
<g id="node2" class="node">
<title>PreAttack</title>
<polygon fill="none" stroke="black" points="373.73,-326.88 299.23,-326.88 299.23,-290.88 373.73,-290.88 373.73,-326.88"/>
<text text-anchor="middle" x="336.48" y="-303.45" font-family="Helvetica,sans-Serif" font-size="14.00">PreAttack</text>
</g>
<!-- Attack&#45;&gt;PreAttack -->
<g id="edge1" class="edge">
<title>Attack&#45;&gt;PreAttack</title>
<path fill="none" stroke="#cdc8b1" d="M160.89,-603.44C166.49,-598.79 171.87,-593.91 176.75,-588.88 251.55,-511.71 303.54,-392.46 324.78,-337.91"/>
<polygon fill="#cdc8b1" stroke="#cdc8b1" points="328,-339.29 328.3,-328.7 321.46,-336.79 328,-339.29"/>
</g>
<!--  Hori Attack2 -->
<g id="node3" class="node">
<title> Hori Attack2</title>
<polygon fill="none" stroke="black" points="34.12,-554 34.12,-575.75 151.88,-575.75 151.88,-554 34.12,-554"/>
<text text-anchor="start" x="51" y="-559.45" font-family="Helvetica,sans-Serif" font-size="14.00"> Hori Attack2 &#160;</text>
<polygon fill="none" stroke="black" points="34.12,-510 34.12,-554 151.88,-554 151.88,-510 34.12,-510"/>
<text text-anchor="start" x="37.12" y="-540.6" font-family="Helvetica,sans-Serif" font-size="12.00" fill="#838b8b">1.00s: CheckFacing</text>
<text text-anchor="start" x="37.12" y="-528.6" font-family="Helvetica,sans-Serif" font-size="12.00" fill="#838b8b">1.83s: LinkNextMove</text>
<text text-anchor="start" x="37.12" y="-514.7" font-family="Helvetica,sans-Serif" font-size="12.00" fill="#838b8b">2.00s: Done</text>
<text text-anchor="start" x="101.62" y="-514.7" font-family="Helvetica,sans-Serif" font-size="14.00"> &#160;</text>
</g>
<!--  Hori Attack2&#45;&gt;PreAttack -->
<g id="edge2" class="edge">
<title> Hori Attack2&#45;&gt;PreAttack</title>
<path fill="none" stroke="#cdc8b1" d="M159.62,-509.38C165.61,-505.45 171.42,-501.26 176.75,-496.88 235.62,-448.44 289.55,-376.17 316.81,-336.84"/>
<polygon fill="#cdc8b1" stroke="#cdc8b1" points="319.69,-338.83 322.46,-328.6 313.92,-334.87 319.69,-338.83"/>
</g>
<!--  Double Attack 3 -->
<g id="node4" class="node">
<title> Double Attack 3</title>
<polygon fill="none" stroke="black" points="36.75,-462 36.75,-483.75 149.25,-483.75 149.25,-462 36.75,-462"/>
<text text-anchor="start" x="40.12" y="-467.45" font-family="Helvetica,sans-Serif" font-size="14.00"> Double Attack 3 &#160;</text>
<polygon fill="none" stroke="black" points="36.75,-418 36.75,-462 149.25,-462 149.25,-418 36.75,-418"/>
<text text-anchor="start" x="39.75" y="-448.6" font-family="Helvetica,sans-Serif" font-size="12.00" fill="#838b8b">1.00s: CheckFacing</text>
<text text-anchor="start" x="39.75" y="-436.6" font-family="Helvetica,sans-Serif" font-size="12.00" fill="#838b8b">1.83s: CheckFacing</text>
<text text-anchor="start" x="39.75" y="-422.7" font-family="Helvetica,sans-Serif" font-size="12.00" fill="#838b8b">3.00s: Done</text>
<text text-anchor="start" x="104.25" y="-422.7" font-family="Helvetica,sans-Serif" font-size="14.00"> &#160;</text>
</g>
<!--  Double Attack 3&#45;&gt;PreAttack -->
<g id="edge3" class="edge">
<title> Double Attack 3&#45;&gt;PreAttack</title>
<path fill="none" stroke="#cdc8b1" d="M156.94,-416.2C163.65,-412.41 170.35,-408.59 176.75,-404.88 217.9,-381 264.41,-352.72 296.39,-333.06"/>
<polygon fill="#cdc8b1" stroke="#cdc8b1" points="297.86,-336.27 304.54,-328.04 294.19,-330.3 297.86,-336.27"/>
</g>
<!--  Danger Attack -->
<g id="node5" class="node">
<title> Danger Attack</title>
<polygon fill="none" stroke="black" points="33,-370 33,-391.75 153,-391.75 153,-370 33,-370"/>
<text text-anchor="start" x="45" y="-375.45" font-family="Helvetica,sans-Serif" font-size="14.00"> Danger Attack &#160;</text>
<polygon fill="none" stroke="black" points="33,-314 33,-370 153,-370 153,-314 33,-314"/>
<text text-anchor="start" x="36" y="-356.6" font-family="Helvetica,sans-Serif" font-size="12.00" fill="#838b8b">0.33s: CheckFacing</text>
<text text-anchor="start" x="36" y="-344.6" font-family="Helvetica,sans-Serif" font-size="12.00" fill="#838b8b">1.08s: Evaluate</text>
<text text-anchor="start" x="36" y="-332.6" font-family="Helvetica,sans-Serif" font-size="12.00" fill="#838b8b">1.22s: ResetEvaluate</text>
<text text-anchor="start" x="36" y="-318.7" font-family="Helvetica,sans-Serif" font-size="12.00" fill="#838b8b">1.78s: Done</text>
<text text-anchor="start" x="100.5" y="-318.7" font-family="Helvetica,sans-Serif" font-size="14.00"> &#160;</text>
</g>
<!--  Danger Attack&#45;&gt;PreAttack -->
<g id="edge4" class="edge">
<title> Danger Attack&#45;&gt;PreAttack</title>
<path fill="none" stroke="#cdc8b1" d="M160.94,-340.68C201.12,-333.36 251.29,-324.22 287.51,-317.61"/>
<polygon fill="#cdc8b1" stroke="#cdc8b1" points="288.05,-321.07 297.26,-315.84 286.8,-314.19 288.05,-321.07"/>
</g>
<!-- AttackParrying -->
<g id="node6" class="node">
<title>AttackParrying</title>
<polygon fill="none" stroke="black" points="42.38,-265.88 42.38,-287.62 143.62,-287.62 143.62,-265.88 42.38,-265.88"/>
<text text-anchor="start" x="45.38" y="-271.32" font-family="Helvetica,sans-Serif" font-size="14.00">AttackParrying &#160;</text>
<polygon fill="none" stroke="black" points="42.38,-244.12 42.38,-265.88 143.62,-265.88 143.62,-244.12 42.38,-244.12"/>
<text text-anchor="start" x="45.38" y="-250.57" font-family="Helvetica,sans-Serif" font-size="12.00" fill="#838b8b">0.83s: Done</text>
<text text-anchor="start" x="109.88" y="-250.57" font-family="Helvetica,sans-Serif" font-size="14.00"> &#160;</text>
</g>
<!-- AttackParrying&#45;&gt;PreAttack -->
<g id="edge5" class="edge">
<title>AttackParrying&#45;&gt;PreAttack</title>
<path fill="none" stroke="#cdc8b1" d="M151.53,-276.12C193.09,-283.52 248.55,-293.4 287.68,-300.36"/>
<polygon fill="#cdc8b1" stroke="#cdc8b1" points="287.06,-303.81 297.52,-302.12 288.29,-296.92 287.06,-303.81"/>
</g>
<!-- HurtState -->
<g id="node7" class="node">
<title>HurtState</title>
<polygon fill="none" stroke="black" points="34.5,-196 34.5,-217.75 151.5,-217.75 151.5,-196 34.5,-196"/>
<text text-anchor="start" x="60.75" y="-201.45" font-family="Helvetica,sans-Serif" font-size="14.00">HurtState &#160;</text>
<polygon fill="none" stroke="black" points="34.5,-164 34.5,-196 151.5,-196 151.5,-164 34.5,-164"/>
<text text-anchor="start" x="37.5" y="-182.6" font-family="Helvetica,sans-Serif" font-size="12.00" fill="#838b8b">0.00s: EnableGravity</text>
<text text-anchor="start" x="37.5" y="-168.7" font-family="Helvetica,sans-Serif" font-size="12.00" fill="#838b8b">0.25s: Done</text>
<text text-anchor="start" x="102" y="-168.7" font-family="Helvetica,sans-Serif" font-size="14.00"> &#160;</text>
</g>
<!-- HurtState&#45;&gt;PreAttack -->
<g id="edge6" class="edge">
<title>HurtState&#45;&gt;PreAttack</title>
<path fill="none" stroke="#cdc8b1" d="M157.72,-221.63C164.15,-224.74 170.58,-227.87 176.75,-230.88 214.44,-249.25 257.09,-270.21 288.68,-285.78"/>
<polygon fill="#cdc8b1" stroke="#cdc8b1" points="287.07,-288.89 297.59,-290.17 290.16,-282.61 287.07,-288.89"/>
</g>
<!-- Hurt_BigState -->
<g id="node8" class="node">
<title>Hurt_BigState</title>
<polygon fill="none" stroke="black" points="34.5,-116 34.5,-137.75 151.5,-137.75 151.5,-116 34.5,-116"/>
<text text-anchor="start" x="47.25" y="-121.45" font-family="Helvetica,sans-Serif" font-size="14.00">Hurt_BigState &#160;</text>
<polygon fill="none" stroke="black" points="34.5,-84 34.5,-116 151.5,-116 151.5,-84 34.5,-84"/>
<text text-anchor="start" x="37.5" y="-102.6" font-family="Helvetica,sans-Serif" font-size="12.00" fill="#838b8b">0.00s: EnableGravity</text>
<text text-anchor="start" x="37.5" y="-88.7" font-family="Helvetica,sans-Serif" font-size="12.00" fill="#838b8b">1.00s: Done</text>
<text text-anchor="start" x="102" y="-88.7" font-family="Helvetica,sans-Serif" font-size="14.00"> &#160;</text>
</g>
<!-- Hurt_BigState&#45;&gt;PreAttack -->
<g id="edge7" class="edge">
<title>Hurt_BigState&#45;&gt;PreAttack</title>
<path fill="none" stroke="#cdc8b1" d="M159.34,-139.87C165.38,-143.32 171.28,-147 176.75,-150.88 231.78,-189.89 285.12,-248.59 313.79,-282.38"/>
<polygon fill="#cdc8b1" stroke="#cdc8b1" points="310.78,-284.24 319.9,-289.65 316.15,-279.74 310.78,-284.24"/>
</g>
<!-- PostureBreak -->
<g id="node9" class="node">
<title>PostureBreak</title>
<polygon fill="none" stroke="black" points="34.5,-36 34.5,-57.75 151.5,-57.75 151.5,-36 34.5,-36"/>
<text text-anchor="start" x="48.38" y="-41.45" font-family="Helvetica,sans-Serif" font-size="14.00">PostureBreak &#160;</text>
<polygon fill="none" stroke="black" points="34.5,-4 34.5,-36 151.5,-36 151.5,-4 34.5,-4"/>
<text text-anchor="start" x="37.5" y="-22.6" font-family="Helvetica,sans-Serif" font-size="12.00" fill="#838b8b">0.00s: EnableGravity</text>
<text text-anchor="start" x="37.5" y="-8.7" font-family="Helvetica,sans-Serif" font-size="12.00" fill="#838b8b">3.50s: Done</text>
<text text-anchor="start" x="102" y="-8.7" font-family="Helvetica,sans-Serif" font-size="14.00"> &#160;</text>
</g>
<!-- PostureBreak&#45;&gt;PreAttack -->
<g id="edge8" class="edge">
<title>PostureBreak&#45;&gt;PreAttack</title>
<path fill="none" stroke="#cdc8b1" d="M159.1,-59.36C165.26,-62.93 171.25,-66.78 176.75,-70.88 252.11,-126.99 302.78,-230.15 324.09,-280.17"/>
<polygon fill="#cdc8b1" stroke="#cdc8b1" points="320.76,-281.29 327.83,-289.17 327.22,-278.59 320.76,-281.29"/>
</g>
<!-- Wandering_Walking -->
<g id="node10" class="node">
<title>Wandering_Walking</title>
<polygon fill="none" stroke="black" points="176.75,-749.88 9.25,-749.88 9.25,-713.88 176.75,-713.88 176.75,-749.88"/>
<text text-anchor="middle" x="93" y="-726.45" font-family="Helvetica,sans-Serif" font-size="14.00">Wandering_Walking (Init)</text>
</g>
<!-- Level Once Sensor -->
<g id="node11" class="node">
<title>Level Once Sensor</title>
<polygon fill="none" stroke="black" points="158.75,-834.88 27.25,-834.88 27.25,-798.88 158.75,-798.88 158.75,-834.88"/>
<text text-anchor="middle" x="93" y="-811.45" font-family="Helvetica,sans-Serif" font-size="14.00">Level Once Sensor</text>
</g>
<!-- Level Once Sensor_linked -->
<g id="node12" class="node">
<title>Level Once Sensor_linked</title>
<polygon fill="none" stroke="black" stroke-dasharray="1,5" points="364.58,-801.88 308.38,-801.88 308.38,-765.88 364.58,-765.88 364.58,-801.88"/>
<text text-anchor="start" x="313.98" y="-778.45" font-family="Helvetica,sans-Serif" font-size="14.00">Attack &#160;</text>
</g>
<!-- Level Once Sensor&#45;&gt;Level Once Sensor_linked -->
<g id="edge9" class="edge">
<title>Level Once Sensor&#45;&gt;Level Once Sensor_linked</title>
<path fill="none" stroke="#66cdaa" d="M159.03,-807.99C203.02,-801.98 259.65,-794.24 296.72,-789.17"/>
<polygon fill="#66cdaa" stroke="#66cdaa" points="297.1,-792.65 306.54,-787.83 296.15,-785.72 297.1,-792.65"/>
<text text-anchor="middle" x="227.38" y="-804.8" font-family="Helvetica,sans-Serif" font-size="14.00" fill="#66cdaa">QueueEnd</text>
</g>
<!-- Level Once Sensor_mustuse -->
<g id="node13" class="node">
<title>Level Once Sensor_mustuse</title>
<polygon fill="none" stroke="black" stroke-dasharray="1,5" points="386.6,-855.88 286.35,-855.88 286.35,-819.88 386.6,-819.88 386.6,-855.88"/>
<text text-anchor="start" x="296.35" y="-832.45" font-family="Helvetica,sans-Serif" font-size="14.00">1 Undefined &#160;</text>
</g>
<!-- Level Once Sensor&#45;&gt;Level Once Sensor_mustuse -->
<g id="edge10" class="edge">
<title>Level Once Sensor&#45;&gt;Level Once Sensor_mustuse</title>
<path fill="none" stroke="#458b74" d="M159.03,-822.53C195.08,-825.67 239.61,-829.54 274.92,-832.61"/>
<polygon fill="#458b74" stroke="#458b74" points="274.27,-836.07 284.53,-833.44 274.87,-829.09 274.27,-836.07"/>
<text text-anchor="middle" x="227.38" y="-833.53" font-family="Helvetica,sans-Serif" font-size="14.00" fill="#458b74">Weight</text>
</g>
<!-- RunAwaySensor -->
<g id="node14" class="node">
<title>RunAwaySensor</title>
<polygon fill="none" stroke="black" points="151.25,-894.88 34.75,-894.88 34.75,-858.88 151.25,-858.88 151.25,-894.88"/>
<text text-anchor="middle" x="93" y="-871.45" font-family="Helvetica,sans-Serif" font-size="14.00">RunAwaySensor</text>
</g>
<!-- AttackSensor -->
<g id="node15" class="node">
<title>AttackSensor</title>
<polygon fill="none" stroke="black" points="141.12,-951.88 44.88,-951.88 44.88,-915.88 141.12,-915.88 141.12,-951.88"/>
<text text-anchor="middle" x="93" y="-928.45" font-family="Helvetica,sans-Serif" font-size="14.00">AttackSensor</text>
</g>
<!-- AttackSensor_linked -->
<g id="node16" class="node">
<title>AttackSensor_linked</title>
<polygon fill="none" stroke="black" stroke-dasharray="1,5" points="394.95,-940.1 278,-940.1 278,-873.65 394.95,-873.65 394.95,-940.1"/>
<text text-anchor="start" x="313.98" y="-921.2" font-family="Helvetica,sans-Serif" font-size="14.00">Attack &#160;</text>
<text text-anchor="start" x="294.48" y="-901.45" font-family="Helvetica,sans-Serif" font-size="14.00"> Hori Attack2 &#160;</text>
<text text-anchor="start" x="283.6" y="-881.7" font-family="Helvetica,sans-Serif" font-size="14.00"> Double Attack 3 &#160;</text>
</g>
<!-- AttackSensor&#45;&gt;AttackSensor_linked -->
<g id="edge11" class="edge">
<title>AttackSensor&#45;&gt;AttackSensor_linked</title>
<path fill="none" stroke="#66cdaa" d="M141.42,-928.57C177,-924.59 226.25,-919.09 266.23,-914.62"/>
<polygon fill="#66cdaa" stroke="#66cdaa" points="266.46,-918.11 276,-913.52 265.68,-911.16 266.46,-918.11"/>
<text text-anchor="middle" x="227.38" y="-924.44" font-family="Helvetica,sans-Serif" font-size="14.00" fill="#66cdaa">QueueEnd</text>
</g>
<!-- AttackSensor_mustuse -->
<g id="node17" class="node">
<title>AttackSensor_mustuse</title>
<polygon fill="none" stroke="black" stroke-dasharray="1,5" points="368.98,-1045.38 303.98,-1045.38 303.98,-958.38 368.98,-958.38 368.98,-1045.38"/>
<text text-anchor="start" x="313.98" y="-1026.08" font-family="Helvetica,sans-Serif" font-size="14.00">1 Skip &#160;</text>
<text text-anchor="start" x="313.98" y="-1006.33" font-family="Helvetica,sans-Serif" font-size="14.00">0 Skip &#160;</text>
<text text-anchor="start" x="313.98" y="-986.58" font-family="Helvetica,sans-Serif" font-size="14.00">1 Skip &#160;</text>
<text text-anchor="start" x="313.98" y="-966.83" font-family="Helvetica,sans-Serif" font-size="14.00">2 Skip &#160;</text>
</g>
<!-- AttackSensor&#45;&gt;AttackSensor_mustuse -->
<g id="edge12" class="edge">
<title>AttackSensor&#45;&gt;AttackSensor_mustuse</title>
<path fill="none" stroke="#458b74" d="M141.42,-947.23C185.33,-959.59 250.06,-977.82 292.49,-989.77"/>
<polygon fill="#458b74" stroke="#458b74" points="291.54,-993.14 302.11,-992.48 293.44,-986.4 291.54,-993.14"/>
<text text-anchor="middle" x="227.38" y="-982.33" font-family="Helvetica,sans-Serif" font-size="14.00" fill="#458b74">Weight</text>
</g>
<!-- DodgePredictSensor -->
<g id="node18" class="node">
<title>DodgePredictSensor</title>
<polygon fill="none" stroke="black" points="24,-1041.88 24,-1063.62 162,-1063.62 162,-1041.88 24,-1041.88"/>
<text text-anchor="start" x="27" y="-1047.33" font-family="Helvetica,sans-Serif" font-size="14.00">DodgePredictSensor &#160;</text>
<polygon fill="none" stroke="black" points="24,-1020.12 24,-1041.88 162,-1041.88 162,-1020.12 24,-1020.12"/>
<text text-anchor="start" x="27" y="-1026.58" font-family="Helvetica,sans-Serif" font-size="12.00" fill="#838b8b">if: Dodge</text>
<text text-anchor="start" x="75" y="-1026.58" font-family="Helvetica,sans-Serif" font-size="14.00"> &#160;</text>
</g>
<!-- DodgePredictSensor_linked -->
<g id="node19" class="node">
<title>DodgePredictSensor_linked</title>
<polygon fill="none" stroke="black" stroke-dasharray="1,5" points="364.58,-1099.88 308.38,-1099.88 308.38,-1063.88 364.58,-1063.88 364.58,-1099.88"/>
<text text-anchor="start" x="313.98" y="-1076.45" font-family="Helvetica,sans-Serif" font-size="14.00">Attack &#160;</text>
</g>
<!-- DodgePredictSensor&#45;&gt;DodgePredictSensor_linked -->
<g id="edge13" class="edge">
<title>DodgePredictSensor&#45;&gt;DodgePredictSensor_linked</title>
<path fill="none" stroke="#66cdaa" d="M169.74,-1054.42C211.93,-1061.41 262.68,-1069.82 296.81,-1075.47"/>
<polygon fill="#66cdaa" stroke="#66cdaa" points="296.22,-1078.92 306.65,-1077.1 297.36,-1072.01 296.22,-1078.92"/>
<text text-anchor="middle" x="227.38" y="-1071.39" font-family="Helvetica,sans-Serif" font-size="14.00" fill="#66cdaa">QueueEnd</text>
</g>
<!-- AttackPredictSensor -->
<g id="node20" class="node">
<title>AttackPredictSensor</title>
<polygon fill="none" stroke="black" points="25.12,-1111.88 25.12,-1133.62 160.88,-1133.62 160.88,-1111.88 25.12,-1111.88"/>
<text text-anchor="start" x="28.12" y="-1117.33" font-family="Helvetica,sans-Serif" font-size="14.00">AttackPredictSensor &#160;</text>
<polygon fill="none" stroke="black" points="25.12,-1090.12 25.12,-1111.88 160.88,-1111.88 160.88,-1090.12 25.12,-1090.12"/>
<text text-anchor="start" x="28.12" y="-1096.58" font-family="Helvetica,sans-Serif" font-size="12.00" fill="#838b8b">if: Attack</text>
<text text-anchor="start" x="73.12" y="-1096.58" font-family="Helvetica,sans-Serif" font-size="14.00"> &#160;</text>
</g>
<!-- AttackPredictSensor_linked -->
<g id="node21" class="node">
<title>AttackPredictSensor_linked</title>
<polygon fill="none" stroke="black" stroke-dasharray="1,5" points="364.58,-1153.88 308.38,-1153.88 308.38,-1117.88 364.58,-1117.88 364.58,-1153.88"/>
<text text-anchor="start" x="313.98" y="-1130.45" font-family="Helvetica,sans-Serif" font-size="14.00">Attack &#160;</text>
</g>
<!-- AttackPredictSensor&#45;&gt;AttackPredictSensor_linked -->
<g id="edge14" class="edge">
<title>AttackPredictSensor&#45;&gt;AttackPredictSensor_linked</title>
<path fill="none" stroke="#66cdaa" d="M168.75,-1119.3C211,-1123.5 262.09,-1128.58 296.48,-1132"/>
<polygon fill="#66cdaa" stroke="#66cdaa" points="296.11,-1135.48 306.41,-1132.99 296.8,-1128.51 296.11,-1135.48"/>
<text text-anchor="middle" x="227.38" y="-1130.56" font-family="Helvetica,sans-Serif" font-size="14.00" fill="#66cdaa">QueueEnd</text>
</g>
<!-- AttackRunToSensor -->
<g id="node22" class="node">
<title>AttackRunToSensor</title>
<polygon fill="none" stroke="black" points="26.62,-1181.88 26.62,-1203.62 159.38,-1203.62 159.38,-1181.88 26.62,-1181.88"/>
<text text-anchor="start" x="29.62" y="-1187.33" font-family="Helvetica,sans-Serif" font-size="14.00">AttackRunToSensor &#160;</text>
<polygon fill="none" stroke="black" points="26.62,-1160.12 26.62,-1181.88 159.38,-1181.88 159.38,-1160.12 26.62,-1160.12"/>
<text text-anchor="start" x="29.62" y="-1166.58" font-family="Helvetica,sans-Serif" font-size="12.00" fill="#838b8b">if: state is Engaging</text>
<text text-anchor="start" x="133.88" y="-1166.58" font-family="Helvetica,sans-Serif" font-size="14.00"> &#160;</text>
</g>
<!-- AttackRunToSensor_linked -->
<g id="node23" class="node">
<title>AttackRunToSensor_linked</title>
<polygon fill="none" stroke="black" stroke-dasharray="1,5" points="364.58,-1207.88 308.38,-1207.88 308.38,-1171.88 364.58,-1171.88 364.58,-1207.88"/>
<text text-anchor="start" x="313.98" y="-1184.45" font-family="Helvetica,sans-Serif" font-size="14.00">Attack &#160;</text>
</g>
<!-- AttackRunToSensor&#45;&gt;AttackRunToSensor_linked -->
<g id="edge15" class="edge">
<title>AttackRunToSensor&#45;&gt;AttackRunToSensor_linked</title>
<path fill="none" stroke="#66cdaa" d="M167.11,-1184.3C209.88,-1185.71 262.16,-1187.45 297.01,-1188.6"/>
<polygon fill="#66cdaa" stroke="#66cdaa" points="296.49,-1192.09 306.6,-1188.92 296.72,-1185.09 296.49,-1192.09"/>
<text text-anchor="middle" x="227.38" y="-1189.74" font-family="Helvetica,sans-Serif" font-size="14.00" fill="#66cdaa">QueueEnd</text>
</g>
</g>
</svg>
