<?xml version="1.0" encoding="UTF-8" standalone="no"?>
<!DOCTYPE svg PUBLIC "-//W3C//DTD SVG 1.1//EN"
 "http://www.w3.org/Graphics/SVG/1.1/DTD/svg11.dtd">
<!-- Generated by graphviz version 12.2.1 (20241206.2353)
 -->
<!-- Title: Foo Pages: 1 -->
<svg width="712pt" height="1967pt"
 viewBox="0.00 0.00 712.00 1967.00" xmlns="http://www.w3.org/2000/svg" xmlns:xlink="http://www.w3.org/1999/xlink">
<g id="graph0" class="graph" transform="scale(1 1) rotate(0) translate(4 1963)">
<title>Foo</title>
<polygon fill="white" stroke="none" points="-4,4 -4,-1963 708,-1963 708,4 -4,4"/>
<g id="clust1" class="cluster">
<title>cluster_attacksensors</title>
<polygon fill="none" stroke="black" points="8,-1053 8,-1951 584.12,-1951 584.12,-1053 8,-1053"/>
<text text-anchor="middle" x="296.06" y="-1933.7" font-family="Helvetica,sans-Serif" font-size="14.00">Attack Sensors</text>
</g>
<!-- Attack_DownDangerDash -->
<g id="node1" class="node">
<title>Attack_DownDangerDash</title>
<polygon fill="none" stroke="black" points="391,-828 391,-849.75 559.75,-849.75 559.75,-828 391,-828"/>
<text text-anchor="start" x="394" y="-833.45" font-family="Helvetica,sans-Serif" font-size="14.00">Attack_DownDangerDash &#160;</text>
<polygon fill="none" stroke="black" points="391,-806.25 391,-828 559.75,-828 559.75,-806.25 391,-806.25"/>
<text text-anchor="start" x="394" y="-812.7" font-family="Helvetica,sans-Serif" font-size="12.00" fill="#838b8b">3.00s: Done</text>
<text text-anchor="start" x="458.5" y="-812.7" font-family="Helvetica,sans-Serif" font-size="14.00"> &#160;</text>
</g>
<!-- Engaging -->
<g id="node2" class="node">
<title>Engaging</title>
<polygon fill="none" stroke="black" points="704,-421 631,-421 631,-385 704,-385 704,-421"/>
<text text-anchor="middle" x="667.5" y="-397.57" font-family="Helvetica,sans-Serif" font-size="14.00">Engaging</text>
</g>
<!-- Attack_DownDangerDash&#45;&gt;Engaging -->
<g id="edge1" class="edge">
<title>Attack_DownDangerDash&#45;&gt;Engaging</title>
<path fill="none" stroke="#cdc8b1" d="M567.61,-811.92C577.48,-807.13 586.6,-800.95 594,-793 642.98,-740.37 660.29,-514.19 665.01,-432.54"/>
<polygon fill="#cdc8b1" stroke="#cdc8b1" points="668.5,-432.84 665.56,-422.66 661.51,-432.45 668.5,-432.84"/>
</g>
<!-- SignatureChargedHorizontalAttack -->
<g id="node3" class="node">
<title>SignatureChargedHorizontalAttack</title>
<polygon fill="none" stroke="black" points="364.75,-758 364.75,-779.75 586,-779.75 586,-758 364.75,-758"/>
<text text-anchor="start" x="367.75" y="-763.45" font-family="Helvetica,sans-Serif" font-size="14.00">SignatureChargedHorizontalAttack &#160;</text>
<polygon fill="none" stroke="black" points="364.75,-736.25 364.75,-758 586,-758 586,-736.25 364.75,-736.25"/>
<text text-anchor="start" x="367.75" y="-742.7" font-family="Helvetica,sans-Serif" font-size="12.00" fill="#838b8b">6.48s: Done</text>
<text text-anchor="start" x="432.25" y="-742.7" font-family="Helvetica,sans-Serif" font-size="14.00"> &#160;</text>
</g>
<!-- SignatureChargedHorizontalAttack&#45;&gt;Engaging -->
<g id="edge2" class="edge">
<title>SignatureChargedHorizontalAttack&#45;&gt;Engaging</title>
<path fill="none" stroke="#cdc8b1" d="M583.46,-732.26C587.24,-729.48 590.77,-726.4 594,-723 633.92,-680.9 656.22,-503.17 663.66,-432.32"/>
<polygon fill="#cdc8b1" stroke="#cdc8b1" points="667.11,-432.96 664.65,-422.65 660.15,-432.25 667.11,-432.96"/>
</g>
<!-- AttackDangerProjectile -->
<g id="node4" class="node">
<title>AttackDangerProjectile</title>
<polygon fill="none" stroke="black" points="400,-688 400,-709.75 550.75,-709.75 550.75,-688 400,-688"/>
<text text-anchor="start" x="403" y="-693.45" font-family="Helvetica,sans-Serif" font-size="14.00">AttackDangerProjectile &#160;</text>
<polygon fill="none" stroke="black" points="400,-666.25 400,-688 550.75,-688 550.75,-666.25 400,-666.25"/>
<text text-anchor="start" x="403" y="-672.7" font-family="Helvetica,sans-Serif" font-size="12.00" fill="#838b8b">3.50s: Done</text>
<text text-anchor="start" x="467.5" y="-672.7" font-family="Helvetica,sans-Serif" font-size="14.00"> &#160;</text>
</g>
<!-- AttackDangerProjectile&#45;&gt;Engaging -->
<g id="edge3" class="edge">
<title>AttackDangerProjectile&#45;&gt;Engaging</title>
<path fill="none" stroke="#cdc8b1" d="M558.5,-675.15C571.66,-670.03 584.17,-662.9 594,-653 654.29,-592.29 665.06,-484.65 666.58,-432.69"/>
<polygon fill="#cdc8b1" stroke="#cdc8b1" points="670.07,-432.9 666.76,-422.83 663.07,-432.77 670.07,-432.9"/>
</g>
<!-- Attack_HorizontalAttack -->
<g id="node5" class="node">
<title>Attack_HorizontalAttack</title>
<polygon fill="none" stroke="black" points="397,-618 397,-639.75 553.75,-639.75 553.75,-618 397,-618"/>
<text text-anchor="start" x="400" y="-623.45" font-family="Helvetica,sans-Serif" font-size="14.00">Attack_HorizontalAttack &#160;</text>
<polygon fill="none" stroke="black" points="397,-596.25 397,-618 553.75,-618 553.75,-596.25 397,-596.25"/>
<text text-anchor="start" x="400" y="-602.7" font-family="Helvetica,sans-Serif" font-size="12.00" fill="#838b8b">3.83s: Done</text>
<text text-anchor="start" x="464.5" y="-602.7" font-family="Helvetica,sans-Serif" font-size="14.00"> &#160;</text>
</g>
<!-- Attack_HorizontalAttack&#45;&gt;Engaging -->
<g id="edge4" class="edge">
<title>Attack_HorizontalAttack&#45;&gt;Engaging</title>
<path fill="none" stroke="#cdc8b1" d="M561.62,-602.75C573.45,-597.88 584.7,-591.46 594,-583 638.02,-542.92 655.82,-472.4 662.61,-432.57"/>
<polygon fill="#cdc8b1" stroke="#cdc8b1" points="666.06,-433.17 664.15,-422.75 659.15,-432.09 666.06,-433.17"/>
</g>
<!-- AttackProjectile -->
<g id="node6" class="node">
<title>AttackProjectile</title>
<polygon fill="none" stroke="black" points="422.12,-548 422.12,-569.75 528.62,-569.75 528.62,-548 422.12,-548"/>
<text text-anchor="start" x="425.12" y="-553.45" font-family="Helvetica,sans-Serif" font-size="14.00">AttackProjectile &#160;</text>
<polygon fill="none" stroke="black" points="422.12,-526.25 422.12,-548 528.62,-548 528.62,-526.25 422.12,-526.25"/>
<text text-anchor="start" x="425.12" y="-532.7" font-family="Helvetica,sans-Serif" font-size="12.00" fill="#838b8b">4.37s: Done</text>
<text text-anchor="start" x="489.62" y="-532.7" font-family="Helvetica,sans-Serif" font-size="14.00"> &#160;</text>
</g>
<!-- AttackProjectile&#45;&gt;Engaging -->
<g id="edge5" class="edge">
<title>AttackProjectile&#45;&gt;Engaging</title>
<path fill="none" stroke="#cdc8b1" d="M536.33,-538.68C556.07,-533.49 577.24,-525.45 594,-513 622.15,-492.1 642.59,-456.78 654.45,-431.81"/>
<polygon fill="#cdc8b1" stroke="#cdc8b1" points="657.57,-433.41 658.53,-422.86 651.2,-430.51 657.57,-433.41"/>
</g>
<!-- BlueProjectile -->
<g id="node7" class="node">
<title>BlueProjectile</title>
<polygon fill="none" stroke="black" points="427.38,-478 427.38,-499.75 523.38,-499.75 523.38,-478 427.38,-478"/>
<text text-anchor="start" x="430.38" y="-483.45" font-family="Helvetica,sans-Serif" font-size="14.00">BlueProjectile &#160;</text>
<polygon fill="none" stroke="black" points="427.38,-456.25 427.38,-478 523.38,-478 523.38,-456.25 427.38,-456.25"/>
<text text-anchor="start" x="430.38" y="-462.7" font-family="Helvetica,sans-Serif" font-size="12.00" fill="#838b8b">3.33s: Done</text>
<text text-anchor="start" x="494.88" y="-462.7" font-family="Helvetica,sans-Serif" font-size="14.00"> &#160;</text>
</g>
<!-- BlueProjectile&#45;&gt;Engaging -->
<g id="edge6" class="edge">
<title>BlueProjectile&#45;&gt;Engaging</title>
<path fill="none" stroke="#cdc8b1" d="M531.1,-464.36C551.21,-458.66 573.96,-451.4 594,-443 604.84,-438.46 616.15,-432.74 626.52,-427.06"/>
<polygon fill="#cdc8b1" stroke="#cdc8b1" points="628.21,-430.12 635.21,-422.17 624.78,-424.02 628.21,-430.12"/>
</g>
<!-- DoubleSlash -->
<g id="node8" class="node">
<title>DoubleSlash</title>
<polygon fill="none" stroke="black" points="419.12,-408.12 419.12,-429.88 531.62,-429.88 531.62,-408.12 419.12,-408.12"/>
<text text-anchor="start" x="433.38" y="-413.57" font-family="Helvetica,sans-Serif" font-size="14.00">DoubleSlash &#160;</text>
<polygon fill="none" stroke="black" points="419.12,-376.12 419.12,-408.12 531.62,-408.12 531.62,-376.12 419.12,-376.12"/>
<text text-anchor="start" x="422.12" y="-394.73" font-family="Helvetica,sans-Serif" font-size="12.00" fill="#838b8b">0.42s: CheckFacing</text>
<text text-anchor="start" x="422.12" y="-380.83" font-family="Helvetica,sans-Serif" font-size="12.00" fill="#838b8b">3.83s: Done</text>
<text text-anchor="start" x="486.62" y="-380.83" font-family="Helvetica,sans-Serif" font-size="14.00"> &#160;</text>
</g>
<!-- DoubleSlash&#45;&gt;Engaging -->
<g id="edge7" class="edge">
<title>DoubleSlash&#45;&gt;Engaging</title>
<path fill="none" stroke="#cdc8b1" d="M539.42,-403C565.43,-403 595.06,-403 619.16,-403"/>
<polygon fill="#cdc8b1" stroke="#cdc8b1" points="619,-406.5 629,-403 619,-399.5 619,-406.5"/>
</g>
<!-- DangerDash -->
<g id="node9" class="node">
<title>DangerDash</title>
<polygon fill="none" stroke="black" points="430.75,-328 430.75,-349.75 520,-349.75 520,-328 430.75,-328"/>
<text text-anchor="start" x="433.75" y="-333.45" font-family="Helvetica,sans-Serif" font-size="14.00">DangerDash &#160;</text>
<polygon fill="none" stroke="black" points="430.75,-306.25 430.75,-328 520,-328 520,-306.25 430.75,-306.25"/>
<text text-anchor="start" x="433.75" y="-312.7" font-family="Helvetica,sans-Serif" font-size="12.00" fill="#838b8b">2.75s: Done</text>
<text text-anchor="start" x="498.25" y="-312.7" font-family="Helvetica,sans-Serif" font-size="14.00"> &#160;</text>
</g>
<!-- DangerDash&#45;&gt;Engaging -->
<g id="edge8" class="edge">
<title>DangerDash&#45;&gt;Engaging</title>
<path fill="none" stroke="#cdc8b1" d="M527.87,-340.74C548.75,-346.56 572.87,-354.15 594,-363 604.84,-367.54 616.15,-373.26 626.52,-378.94"/>
<polygon fill="#cdc8b1" stroke="#cdc8b1" points="624.78,-381.98 635.21,-383.83 628.21,-375.88 624.78,-381.98"/>
</g>
<!-- PhantomDodge -->
<g id="node10" class="node">
<title>PhantomDodge</title>
<polygon fill="none" stroke="black" points="421.38,-258 421.38,-279.75 529.38,-279.75 529.38,-258 421.38,-258"/>
<text text-anchor="start" x="424.38" y="-263.45" font-family="Helvetica,sans-Serif" font-size="14.00">PhantomDodge &#160;</text>
<polygon fill="none" stroke="black" points="421.38,-236.25 421.38,-258 529.38,-258 529.38,-236.25 421.38,-236.25"/>
<text text-anchor="start" x="424.38" y="-242.7" font-family="Helvetica,sans-Serif" font-size="12.00" fill="#838b8b">0.67s: Done</text>
<text text-anchor="start" x="488.88" y="-242.7" font-family="Helvetica,sans-Serif" font-size="14.00"> &#160;</text>
</g>
<!-- PhantomDodge&#45;&gt;Engaging -->
<g id="edge9" class="edge">
<title>PhantomDodge&#45;&gt;Engaging</title>
<path fill="none" stroke="#cdc8b1" d="M537.23,-267.56C556.72,-272.75 577.49,-280.74 594,-293 622.15,-313.9 642.59,-349.22 654.45,-374.19"/>
<polygon fill="#cdc8b1" stroke="#cdc8b1" points="651.2,-375.49 658.53,-383.14 657.57,-372.59 651.2,-375.49"/>
</g>
<!-- SignatureCrashTheGround -->
<g id="node11" class="node">
<title>SignatureCrashTheGround</title>
<polygon fill="none" stroke="black" points="387.25,-188 387.25,-209.75 563.5,-209.75 563.5,-188 387.25,-188"/>
<text text-anchor="start" x="390.25" y="-193.45" font-family="Helvetica,sans-Serif" font-size="14.00">SignatureCrashTheGround &#160;</text>
<polygon fill="none" stroke="black" points="387.25,-166.25 387.25,-188 563.5,-188 563.5,-166.25 387.25,-166.25"/>
<text text-anchor="start" x="390.25" y="-172.7" font-family="Helvetica,sans-Serif" font-size="12.00" fill="#838b8b">7.00s: Done</text>
<text text-anchor="start" x="454.75" y="-172.7" font-family="Helvetica,sans-Serif" font-size="14.00"> &#160;</text>
</g>
<!-- SignatureCrashTheGround&#45;&gt;Engaging -->
<g id="edge10" class="edge">
<title>SignatureCrashTheGround&#45;&gt;Engaging</title>
<path fill="none" stroke="#cdc8b1" d="M571.38,-207.71C579.59,-211.87 587.3,-216.9 594,-223 638.02,-263.08 655.82,-333.6 662.61,-373.43"/>
<polygon fill="#cdc8b1" stroke="#cdc8b1" points="659.15,-373.91 664.15,-383.25 666.06,-372.83 659.15,-373.91"/>
</g>
<!-- AttackParrying -->
<g id="node12" class="node">
<title>AttackParrying</title>
<polygon fill="none" stroke="black" points="527.25,-144 423.5,-144 423.5,-108 527.25,-108 527.25,-144"/>
<text text-anchor="middle" x="475.38" y="-120.58" font-family="Helvetica,sans-Serif" font-size="14.00">AttackParrying</text>
</g>
<!-- AttackParrying&#45;&gt;Engaging -->
<g id="edge11" class="edge">
<title>AttackParrying&#45;&gt;Engaging</title>
<path fill="none" stroke="#cdc8b1" d="M527.58,-126.42C550.53,-129.2 576.33,-136.31 594,-153 656.34,-211.9 666.09,-320.87 666.97,-373.3"/>
<polygon fill="#cdc8b1" stroke="#cdc8b1" points="663.47,-373.27 667.02,-383.25 670.47,-373.23 663.47,-373.27"/>
</g>
<!-- HurtState -->
<g id="node13" class="node">
<title>HurtState</title>
<polygon fill="none" stroke="black" points="172.25,-261 99.25,-261 99.25,-225 172.25,-225 172.25,-261"/>
<text text-anchor="middle" x="135.75" y="-237.57" font-family="Helvetica,sans-Serif" font-size="14.00">HurtState</text>
</g>
<!-- Hurt_BigState -->
<g id="node14" class="node">
<title>Hurt_BigState</title>
<polygon fill="none" stroke="black" points="87,-645 87,-666.75 184.5,-666.75 184.5,-645 87,-645"/>
<text text-anchor="start" x="90" y="-650.45" font-family="Helvetica,sans-Serif" font-size="14.00">Hurt_BigState &#160;</text>
<polygon fill="none" stroke="black" points="87,-623.25 87,-645 184.5,-645 184.5,-623.25 87,-623.25"/>
<text text-anchor="start" x="90" y="-629.7" font-family="Helvetica,sans-Serif" font-size="12.00" fill="#838b8b">0.92s: Done</text>
<text text-anchor="start" x="154.5" y="-629.7" font-family="Helvetica,sans-Serif" font-size="14.00"> &#160;</text>
</g>
<!-- LastHit -->
<g id="node15" class="node">
<title>LastHit</title>
<polygon fill="none" stroke="black" points="71.62,-895.12 71.62,-916.88 199.88,-916.88 199.88,-895.12 71.62,-895.12"/>
<text text-anchor="start" x="111" y="-900.58" font-family="Helvetica,sans-Serif" font-size="14.00">LastHit &#160;</text>
<polygon fill="none" stroke="black" points="71.62,-863.12 71.62,-895.12 199.88,-895.12 199.88,-863.12 71.62,-863.12"/>
<text text-anchor="start" x="74.62" y="-881.73" font-family="Helvetica,sans-Serif" font-size="12.00" fill="#838b8b">0.15s: ForceFacingLeft</text>
<text text-anchor="start" x="74.62" y="-867.83" font-family="Helvetica,sans-Serif" font-size="12.00" fill="#838b8b">1.00s: Done</text>
<text text-anchor="start" x="139.12" y="-867.83" font-family="Helvetica,sans-Serif" font-size="14.00"> &#160;</text>
</g>
<!-- DeadState -->
<g id="node16" class="node">
<title>DeadState</title>
<polygon fill="none" stroke="black" points="515.25,-908 435.5,-908 435.5,-872 515.25,-872 515.25,-908"/>
<text text-anchor="middle" x="475.38" y="-884.58" font-family="Helvetica,sans-Serif" font-size="14.00">DeadState</text>
</g>
<!-- LastHit&#45;&gt;DeadState -->
<g id="edge12" class="edge">
<title>LastHit&#45;&gt;DeadState</title>
<path fill="none" stroke="#cdc8b1" d="M207.53,-890C272.29,-890 366.51,-890 423.94,-890"/>
<polygon fill="#cdc8b1" stroke="#cdc8b1" points="423.75,-893.5 433.75,-890 423.75,-886.5 423.75,-893.5"/>
</g>
<!-- PostureBreak -->
<g id="node17" class="node">
<title>PostureBreak</title>
<polygon fill="none" stroke="black" points="88.12,-965 88.12,-986.75 183.38,-986.75 183.38,-965 88.12,-965"/>
<text text-anchor="start" x="91.12" y="-970.45" font-family="Helvetica,sans-Serif" font-size="14.00">PostureBreak &#160;</text>
<polygon fill="none" stroke="black" points="88.12,-943.25 88.12,-965 183.38,-965 183.38,-943.25 88.12,-943.25"/>
<text text-anchor="start" x="91.12" y="-949.7" font-family="Helvetica,sans-Serif" font-size="12.00" fill="#838b8b">2.25s: Done</text>
<text text-anchor="start" x="155.62" y="-949.7" font-family="Helvetica,sans-Serif" font-size="14.00"> &#160;</text>
</g>
<!-- StandUp -->
<g id="node18" class="node">
<title>StandUp</title>
<polygon fill="none" stroke="black" points="509.62,-90 441.12,-90 441.12,-54 509.62,-54 509.62,-90"/>
<text text-anchor="middle" x="475.38" y="-66.58" font-family="Helvetica,sans-Serif" font-size="14.00">StandUp</text>
</g>
<!-- StandUp&#45;&gt;Engaging -->
<g id="edge13" class="edge">
<title>StandUp&#45;&gt;Engaging</title>
<path fill="none" stroke="#cdc8b1" d="M509.87,-70.88C536.1,-71.85 571.76,-77.54 594,-99 633.51,-137.12 655.86,-304.91 663.49,-373.56"/>
<polygon fill="#cdc8b1" stroke="#cdc8b1" points="659.99,-373.74 664.54,-383.3 666.95,-372.99 659.99,-373.74"/>
</g>
<!-- ZEnterState -->
<g id="node19" class="node">
<title>ZEnterState</title>
<polygon fill="none" stroke="black" points="519.38,-36 431.38,-36 431.38,0 519.38,0 519.38,-36"/>
<text text-anchor="middle" x="475.38" y="-12.57" font-family="Helvetica,sans-Serif" font-size="14.00">ZEnterState</text>
</g>
<!-- ZEnterState&#45;&gt;Engaging -->
<g id="edge14" class="edge">
<title>ZEnterState&#45;&gt;Engaging</title>
<path fill="none" stroke="#cdc8b1" d="M519.72,-17.28C544.58,-19.2 574.61,-25.87 594,-45 640.7,-91.08 659.27,-296.58 664.68,-373.66"/>
<polygon fill="#cdc8b1" stroke="#cdc8b1" points="661.17,-373.63 665.33,-383.38 668.15,-373.16 661.17,-373.63"/>
</g>
<!-- ZExitState -->
<g id="node20" class="node">
<title>ZExitState</title>
<polygon fill="none" stroke="black" points="174.88,-36 96.62,-36 96.62,0 174.88,0 174.88,-36"/>
<text text-anchor="middle" x="135.75" y="-12.57" font-family="Helvetica,sans-Serif" font-size="14.00">ZExitState</text>
</g>
<!-- ZExitState&#45;&gt;ZEnterState -->
<g id="edge15" class="edge">
<title>ZExitState&#45;&gt;ZEnterState</title>
<path fill="none" stroke="#cdc8b1" d="M175.15,-18C235.03,-18 350.88,-18 419.54,-18"/>
<polygon fill="#cdc8b1" stroke="#cdc8b1" points="419.45,-21.5 429.45,-18 419.45,-14.5 419.45,-21.5"/>
</g>
<!-- Wandering_Idle -->
<g id="node21" class="node">
<title>Wandering_Idle</title>
<polygon fill="none" stroke="black" points="206.38,-1045 65.12,-1045 65.12,-1009 206.38,-1009 206.38,-1045"/>
<text text-anchor="middle" x="135.75" y="-1021.58" font-family="Helvetica,sans-Serif" font-size="14.00">Wandering_Idle (Init)</text>
</g>
<!-- Level Once Sensor -->
<g id="node22" class="node">
<title>Level Once Sensor</title>
<polygon fill="none" stroke="black" points="201.5,-1124 70,-1124 70,-1088 201.5,-1088 201.5,-1124"/>
<text text-anchor="middle" x="135.75" y="-1100.58" font-family="Helvetica,sans-Serif" font-size="14.00">Level Once Sensor</text>
</g>
<!-- Level Once Sensor_linked -->
<g id="node23" class="node">
<title>Level Once Sensor_linked</title>
<polygon fill="none" stroke="black" stroke-dasharray="1,5" points="562.35,-1097 388.4,-1097 388.4,-1061 562.35,-1061 562.35,-1097"/>
<text text-anchor="start" x="394" y="-1073.58" font-family="Helvetica,sans-Serif" font-size="14.00">Attack_DownDangerDash &#160;</text>
</g>
<!-- Level Once Sensor&#45;&gt;Level Once Sensor_linked -->
<g id="edge16" class="edge">
<title>Level Once Sensor&#45;&gt;Level Once Sensor_linked</title>
<path fill="none" stroke="#66cdaa" d="M201.73,-1098.37C224.42,-1095.87 250.06,-1093.23 273.5,-1091.25 307.13,-1088.41 343.99,-1085.97 376.85,-1084.03"/>
<polygon fill="#66cdaa" stroke="#66cdaa" points="377,-1087.53 386.78,-1083.46 376.59,-1080.54 377,-1087.53"/>
<text text-anchor="middle" x="306.12" y="-1093.7" font-family="Helvetica,sans-Serif" font-size="14.00" fill="#66cdaa">QueueEnd</text>
</g>
<!-- Level Once Sensor_mustuse -->
<g id="node24" class="node">
<title>Level Once Sensor_mustuse</title>
<polygon fill="none" stroke="black" stroke-dasharray="1,5" points="572,-1151 378.75,-1151 378.75,-1115 572,-1115 572,-1151"/>
<text text-anchor="start" x="388.75" y="-1127.58" font-family="Helvetica,sans-Serif" font-size="14.00">1 Attack_DownDangerDash &#160;</text>
</g>
<!-- Level Once Sensor&#45;&gt;Level Once Sensor_mustuse -->
<g id="edge17" class="edge">
<title>Level Once Sensor&#45;&gt;Level Once Sensor_mustuse</title>
<path fill="none" stroke="#458b74" d="M201.85,-1111.21C248.63,-1114.95 312.76,-1120.08 367.06,-1124.42"/>
<polygon fill="#458b74" stroke="#458b74" points="366.73,-1127.9 376.98,-1125.21 367.29,-1120.92 366.73,-1127.9"/>
<text text-anchor="middle" x="306.12" y="-1124.37" font-family="Helvetica,sans-Serif" font-size="14.00" fill="#458b74">Weight</text>
</g>
<!-- RunAwaySensor -->
<g id="node25" class="node">
<title>RunAwaySensor</title>
<polygon fill="none" stroke="black" points="194,-1203 77.5,-1203 77.5,-1167 194,-1167 194,-1203"/>
<text text-anchor="middle" x="135.75" y="-1179.58" font-family="Helvetica,sans-Serif" font-size="14.00">RunAwaySensor</text>
</g>
<!-- AttackSensor -->
<g id="node26" class="node">
<title>AttackSensor</title>
<polygon fill="none" stroke="black" points="183.88,-1258 87.62,-1258 87.62,-1222 183.88,-1222 183.88,-1258"/>
<text text-anchor="middle" x="135.75" y="-1234.58" font-family="Helvetica,sans-Serif" font-size="14.00">AttackSensor</text>
</g>
<!-- AttackSensor_linked -->
<g id="node27" class="node">
<title>AttackSensor_linked</title>
<polygon fill="none" stroke="black" stroke-dasharray="1,5" points="562.35,-1205 388.4,-1205 388.4,-1169 562.35,-1169 562.35,-1205"/>
<text text-anchor="start" x="394" y="-1181.58" font-family="Helvetica,sans-Serif" font-size="14.00">Attack_DownDangerDash &#160;</text>
</g>
<!-- AttackSensor&#45;&gt;AttackSensor_linked -->
<g id="edge18" class="edge">
<title>AttackSensor&#45;&gt;AttackSensor_linked</title>
<path fill="none" stroke="#66cdaa" d="M184.05,-1232.57C233.79,-1224.77 313.45,-1212.26 376.76,-1202.32"/>
<polygon fill="#66cdaa" stroke="#66cdaa" points="377.15,-1205.81 386.49,-1200.8 376.06,-1198.89 377.15,-1205.81"/>
<text text-anchor="middle" x="306.12" y="-1220.7" font-family="Helvetica,sans-Serif" font-size="14.00" fill="#66cdaa">QueueEnd</text>
</g>
<!-- AttackSensor_mustuse -->
<g id="node28" class="node">
<title>AttackSensor_mustuse</title>
<polygon fill="none" stroke="black" stroke-dasharray="1,5" points="572,-1349.25 378.75,-1349.25 378.75,-1222.75 572,-1222.75 572,-1349.25"/>
<text text-anchor="start" x="388.75" y="-1329.95" font-family="Helvetica,sans-Serif" font-size="14.00">1 Attack_DownDangerDash &#160;</text>
<text text-anchor="start" x="394.75" y="-1310.2" font-family="Helvetica,sans-Serif" font-size="14.00">1 Attack_HorizontalAttack &#160;</text>
<text text-anchor="start" x="419.88" y="-1290.45" font-family="Helvetica,sans-Serif" font-size="14.00">2 AttackProjectile &#160;</text>
<text text-anchor="start" x="424.75" y="-1270.7" font-family="Helvetica,sans-Serif" font-size="14.00">0 BlueProjectile &#160;</text>
<text text-anchor="start" x="427.75" y="-1250.95" font-family="Helvetica,sans-Serif" font-size="14.00">1 DoubleSlash &#160;</text>
<text text-anchor="start" x="428.12" y="-1231.2" font-family="Helvetica,sans-Serif" font-size="14.00">1 DangerDash &#160;</text>
</g>
<!-- AttackSensor&#45;&gt;AttackSensor_mustuse -->
<g id="edge19" class="edge">
<title>AttackSensor&#45;&gt;AttackSensor_mustuse</title>
<path fill="none" stroke="#458b74" d="M184.05,-1246.44C231.29,-1252.88 305.54,-1263 367.12,-1271.39"/>
<polygon fill="#458b74" stroke="#458b74" points="366.58,-1274.85 376.96,-1272.73 367.53,-1267.91 366.58,-1274.85"/>
<text text-anchor="middle" x="306.12" y="-1269.57" font-family="Helvetica,sans-Serif" font-size="14.00" fill="#458b74">Weight</text>
</g>
<!-- DodgePredictSensor -->
<g id="node29" class="node">
<title>DodgePredictSensor</title>
<polygon fill="none" stroke="black" points="66.75,-1369 66.75,-1390.75 204.75,-1390.75 204.75,-1369 66.75,-1369"/>
<text text-anchor="start" x="69.75" y="-1374.45" font-family="Helvetica,sans-Serif" font-size="14.00">DodgePredictSensor &#160;</text>
<polygon fill="none" stroke="black" points="66.75,-1347.25 66.75,-1369 204.75,-1369 204.75,-1347.25 66.75,-1347.25"/>
<text text-anchor="start" x="69.75" y="-1353.7" font-family="Helvetica,sans-Serif" font-size="12.00" fill="#838b8b">if: rollingCondition</text>
<text text-anchor="start" x="166.5" y="-1353.7" font-family="Helvetica,sans-Serif" font-size="14.00"> &#160;</text>
</g>
<!-- DodgePredictSensor_linked -->
<g id="node30" class="node">
<title>DodgePredictSensor_linked</title>
<polygon fill="none" stroke="black" stroke-dasharray="1,5" points="562.35,-1403 388.4,-1403 388.4,-1367 562.35,-1367 562.35,-1403"/>
<text text-anchor="start" x="394" y="-1379.58" font-family="Helvetica,sans-Serif" font-size="14.00">Attack_DownDangerDash &#160;</text>
</g>
<!-- DodgePredictSensor&#45;&gt;DodgePredictSensor_linked -->
<g id="edge20" class="edge">
<title>DodgePredictSensor&#45;&gt;DodgePredictSensor_linked</title>
<path fill="none" stroke="#66cdaa" d="M212.52,-1372.59C261.06,-1374.89 324.53,-1377.9 376.83,-1380.38"/>
<polygon fill="#66cdaa" stroke="#66cdaa" points="376.48,-1383.86 386.64,-1380.84 376.81,-1376.87 376.48,-1383.86"/>
<text text-anchor="middle" x="306.12" y="-1380.88" font-family="Helvetica,sans-Serif" font-size="14.00" fill="#66cdaa">QueueEnd</text>
</g>
<!-- AttackPredictSensor -->
<g id="node31" class="node">
<title>AttackPredictSensor</title>
<polygon fill="none" stroke="black" points="67.88,-1439 67.88,-1460.75 203.62,-1460.75 203.62,-1439 67.88,-1439"/>
<text text-anchor="start" x="70.88" y="-1444.45" font-family="Helvetica,sans-Serif" font-size="14.00">AttackPredictSensor &#160;</text>
<polygon fill="none" stroke="black" points="67.88,-1417.25 67.88,-1439 203.62,-1439 203.62,-1417.25 67.88,-1417.25"/>
<text text-anchor="start" x="70.88" y="-1423.7" font-family="Helvetica,sans-Serif" font-size="12.00" fill="#838b8b">if: attackCondition</text>
<text text-anchor="start" x="166.12" y="-1423.7" font-family="Helvetica,sans-Serif" font-size="14.00"> &#160;</text>
</g>
<!-- AttackPredictSensor_linked -->
<g id="node32" class="node">
<title>AttackPredictSensor_linked</title>
<polygon fill="none" stroke="black" stroke-dasharray="1,5" points="562.35,-1457 388.4,-1457 388.4,-1421 562.35,-1421 562.35,-1457"/>
<text text-anchor="start" x="394" y="-1433.58" font-family="Helvetica,sans-Serif" font-size="14.00">Attack_DownDangerDash &#160;</text>
</g>
<!-- AttackPredictSensor&#45;&gt;AttackPredictSensor_linked -->
<g id="edge21" class="edge">
<title>AttackPredictSensor&#45;&gt;AttackPredictSensor_linked</title>
<path fill="none" stroke="#66cdaa" d="M211.26,-1439C259.93,-1439 323.99,-1439 376.72,-1439"/>
<polygon fill="#66cdaa" stroke="#66cdaa" points="376.62,-1442.5 386.62,-1439 376.62,-1435.5 376.62,-1442.5"/>
<text text-anchor="middle" x="306.12" y="-1441.45" font-family="Helvetica,sans-Serif" font-size="14.00" fill="#66cdaa">QueueEnd</text>
</g>
<!-- AttackRunToSensor -->
<g id="node33" class="node">
<title>AttackRunToSensor</title>
<polygon fill="none" stroke="black" points="69.38,-1509 69.38,-1530.75 202.12,-1530.75 202.12,-1509 69.38,-1509"/>
<text text-anchor="start" x="72.38" y="-1514.45" font-family="Helvetica,sans-Serif" font-size="14.00">AttackRunToSensor &#160;</text>
<polygon fill="none" stroke="black" points="69.38,-1487.25 69.38,-1509 202.12,-1509 202.12,-1487.25 69.38,-1487.25"/>
<text text-anchor="start" x="72.38" y="-1493.7" font-family="Helvetica,sans-Serif" font-size="12.00" fill="#838b8b">if: state is Engaging</text>
<text text-anchor="start" x="176.62" y="-1493.7" font-family="Helvetica,sans-Serif" font-size="14.00"> &#160;</text>
</g>
<!-- AttackRunToSensor_linked -->
<g id="node34" class="node">
<title>AttackRunToSensor_linked</title>
<polygon fill="none" stroke="black" stroke-dasharray="1,5" points="562.35,-1511 388.4,-1511 388.4,-1475 562.35,-1475 562.35,-1511"/>
<text text-anchor="start" x="394" y="-1487.58" font-family="Helvetica,sans-Serif" font-size="14.00">Attack_DownDangerDash &#160;</text>
</g>
<!-- AttackRunToSensor&#45;&gt;AttackRunToSensor_linked -->
<g id="edge22" class="edge">
<title>AttackRunToSensor&#45;&gt;AttackRunToSensor_linked</title>
<path fill="none" stroke="#66cdaa" d="M210.01,-1505.53C258.9,-1503.21 323.72,-1500.14 376.95,-1497.62"/>
<polygon fill="#66cdaa" stroke="#66cdaa" points="376.78,-1501.13 386.61,-1497.16 376.45,-1494.14 376.78,-1501.13"/>
<text text-anchor="middle" x="306.12" y="-1504.88" font-family="Helvetica,sans-Serif" font-size="14.00" fill="#66cdaa">QueueEnd</text>
</g>
<!-- AttackGroupForNearAttack_ComboA -->
<g id="node35" class="node">
<title>AttackGroupForNearAttack_ComboA</title>
<polygon fill="none" stroke="black" points="255.5,-1603 16,-1603 16,-1567 255.5,-1567 255.5,-1603"/>
<text text-anchor="middle" x="135.75" y="-1579.58" font-family="Helvetica,sans-Serif" font-size="14.00">AttackGroupForNearAttack_ComboA</text>
</g>
<!-- AttackGroupForNearAttack_ComboA_linked -->
<g id="node36" class="node">
<title>AttackGroupForNearAttack_ComboA_linked</title>
<polygon fill="none" stroke="black" stroke-dasharray="1,5" points="562.35,-1565 388.4,-1565 388.4,-1529 562.35,-1529 562.35,-1565"/>
<text text-anchor="start" x="394" y="-1541.58" font-family="Helvetica,sans-Serif" font-size="14.00">Attack_DownDangerDash &#160;</text>
</g>
<!-- AttackGroupForNearAttack_ComboA&#45;&gt;AttackGroupForNearAttack_ComboA_linked -->
<g id="edge23" class="edge">
<title>AttackGroupForNearAttack_ComboA&#45;&gt;AttackGroupForNearAttack_ComboA_linked</title>
<path fill="none" stroke="#66cdaa" d="M255.78,-1571.6C295.44,-1567.14 339.12,-1562.22 376.94,-1557.97"/>
<polygon fill="#66cdaa" stroke="#66cdaa" points="376.91,-1561.49 386.46,-1556.9 376.13,-1554.54 376.91,-1561.49"/>
<text text-anchor="middle" x="306.12" y="-1571.85" font-family="Helvetica,sans-Serif" font-size="14.00" fill="#66cdaa">QueueEnd</text>
</g>
<!-- AttackGroupForNearAttack_ComboA_mustuse -->
<g id="node37" class="node">
<title>AttackGroupForNearAttack_ComboA_mustuse</title>
<polygon fill="none" stroke="black" stroke-dasharray="1,5" points="572,-1670.5 378.75,-1670.5 378.75,-1583.5 572,-1583.5 572,-1670.5"/>
<text text-anchor="start" x="388.75" y="-1651.2" font-family="Helvetica,sans-Serif" font-size="14.00">1 Attack_DownDangerDash &#160;</text>
<text text-anchor="start" x="394.75" y="-1631.45" font-family="Helvetica,sans-Serif" font-size="14.00">1 Attack_HorizontalAttack &#160;</text>
<text text-anchor="start" x="427.75" y="-1611.7" font-family="Helvetica,sans-Serif" font-size="14.00">1 DoubleSlash &#160;</text>
<text text-anchor="start" x="428.12" y="-1591.95" font-family="Helvetica,sans-Serif" font-size="14.00">1 DangerDash &#160;</text>
</g>
<!-- AttackGroupForNearAttack_ComboA&#45;&gt;AttackGroupForNearAttack_ComboA_mustuse -->
<g id="edge24" class="edge">
<title>AttackGroupForNearAttack_ComboA&#45;&gt;AttackGroupForNearAttack_ComboA_mustuse</title>
<path fill="none" stroke="#458b74" d="M255.78,-1599.81C292.02,-1604.31 331.61,-1609.24 367.02,-1613.65"/>
<polygon fill="#458b74" stroke="#458b74" points="366.51,-1617.11 376.86,-1614.87 367.37,-1610.16 366.51,-1617.11"/>
<text text-anchor="middle" x="306.12" y="-1612.21" font-family="Helvetica,sans-Serif" font-size="14.00" fill="#458b74">Weight</text>
</g>
<!-- AttackGroupForProjectile_ComboB -->
<g id="node38" class="node">
<title>AttackGroupForProjectile_ComboB</title>
<polygon fill="none" stroke="black" points="249.88,-1760 21.62,-1760 21.62,-1724 249.88,-1724 249.88,-1760"/>
<text text-anchor="middle" x="135.75" y="-1736.58" font-family="Helvetica,sans-Serif" font-size="14.00">AttackGroupForProjectile_ComboB</text>
</g>
<!-- AttackGroupForProjectile_ComboB_linked -->
<g id="node39" class="node">
<title>AttackGroupForProjectile_ComboB_linked</title>
<polygon fill="none" stroke="black" stroke-dasharray="1,5" points="562.35,-1725 388.4,-1725 388.4,-1689 562.35,-1689 562.35,-1725"/>
<text text-anchor="start" x="394" y="-1701.58" font-family="Helvetica,sans-Serif" font-size="14.00">Attack_DownDangerDash &#160;</text>
</g>
<!-- AttackGroupForProjectile_ComboB&#45;&gt;AttackGroupForProjectile_ComboB_linked -->
<g id="edge25" class="edge">
<title>AttackGroupForProjectile_ComboB&#45;&gt;AttackGroupForProjectile_ComboB_linked</title>
<path fill="none" stroke="#66cdaa" d="M250.11,-1730.25C291.18,-1725.99 337.16,-1721.22 376.75,-1717.12"/>
<polygon fill="#66cdaa" stroke="#66cdaa" points="376.92,-1720.62 386.5,-1716.11 376.2,-1713.66 376.92,-1720.62"/>
<text text-anchor="middle" x="306.12" y="-1730.08" font-family="Helvetica,sans-Serif" font-size="14.00" fill="#66cdaa">QueueEnd</text>
</g>
<!-- AttackGroupForProjectile_ComboB_mustuse -->
<g id="node40" class="node">
<title>AttackGroupForProjectile_ComboB_mustuse</title>
<polygon fill="none" stroke="black" stroke-dasharray="1,5" points="563,-1810.62 387.75,-1810.62 387.75,-1743.38 563,-1743.38 563,-1810.62"/>
<text text-anchor="start" x="419.88" y="-1791.33" font-family="Helvetica,sans-Serif" font-size="14.00">1 AttackProjectile &#160;</text>
<text text-anchor="start" x="424.75" y="-1771.58" font-family="Helvetica,sans-Serif" font-size="14.00">1 BlueProjectile &#160;</text>
<text text-anchor="start" x="397.75" y="-1751.83" font-family="Helvetica,sans-Serif" font-size="14.00">1 AttackDangerProjectile &#160;</text>
</g>
<!-- AttackGroupForProjectile_ComboB&#45;&gt;AttackGroupForProjectile_ComboB_mustuse -->
<g id="edge26" class="edge">
<title>AttackGroupForProjectile_ComboB&#45;&gt;AttackGroupForProjectile_ComboB_mustuse</title>
<path fill="none" stroke="#458b74" d="M250.11,-1753.75C291,-1757.99 336.77,-1762.74 376.25,-1766.83"/>
<polygon fill="#458b74" stroke="#458b74" points="375.66,-1770.29 385.97,-1767.84 376.38,-1763.32 375.66,-1770.29"/>
<text text-anchor="middle" x="306.12" y="-1765.08" font-family="Helvetica,sans-Serif" font-size="14.00" fill="#458b74">Weight</text>
</g>
<!-- AttackGroupForFinisher -->
<g id="node41" class="node">
<title>AttackGroupForFinisher</title>
<polygon fill="none" stroke="black" points="215.75,-1892 55.75,-1892 55.75,-1856 215.75,-1856 215.75,-1892"/>
<text text-anchor="middle" x="135.75" y="-1868.58" font-family="Helvetica,sans-Serif" font-size="14.00">AttackGroupForFinisher</text>
</g>
<!-- AttackGroupForFinisher_linked -->
<g id="node42" class="node">
<title>AttackGroupForFinisher_linked</title>
<polygon fill="none" stroke="black" stroke-dasharray="1,5" points="562.35,-1865 388.4,-1865 388.4,-1829 562.35,-1829 562.35,-1865"/>
<text text-anchor="start" x="394" y="-1841.58" font-family="Helvetica,sans-Serif" font-size="14.00">Attack_DownDangerDash &#160;</text>
</g>
<!-- AttackGroupForFinisher&#45;&gt;AttackGroupForFinisher_linked -->
<g id="edge27" class="edge">
<title>AttackGroupForFinisher&#45;&gt;AttackGroupForFinisher_linked</title>
<path fill="none" stroke="#66cdaa" d="M216.23,-1864.79C235,-1862.8 254.94,-1860.82 273.5,-1859.25 307.13,-1856.41 343.99,-1853.97 376.85,-1852.03"/>
<polygon fill="#66cdaa" stroke="#66cdaa" points="377,-1855.53 386.78,-1851.46 376.59,-1848.54 377,-1855.53"/>
<text text-anchor="middle" x="306.12" y="-1861.7" font-family="Helvetica,sans-Serif" font-size="14.00" fill="#66cdaa">QueueEnd</text>
</g>
<!-- AttackGroupForFinisher_mustuse -->
<g id="node43" class="node">
<title>AttackGroupForFinisher_mustuse</title>
<polygon fill="none" stroke="black" stroke-dasharray="1,5" points="576.12,-1919 374.62,-1919 374.62,-1883 576.12,-1883 576.12,-1919"/>
<text text-anchor="start" x="384.62" y="-1895.58" font-family="Helvetica,sans-Serif" font-size="14.00">1 SignatureCrashTheGround &#160;</text>
</g>
<!-- AttackGroupForFinisher&#45;&gt;AttackGroupForFinisher_mustuse -->
<g id="edge28" class="edge">
<title>AttackGroupForFinisher&#45;&gt;AttackGroupForFinisher_mustuse</title>
<path fill="none" stroke="#458b74" d="M215.91,-1880.33C259.66,-1883.83 314.74,-1888.23 362.8,-1892.08"/>
<polygon fill="#458b74" stroke="#458b74" points="362.46,-1895.56 372.71,-1892.87 363.02,-1888.58 362.46,-1895.56"/>
<text text-anchor="middle" x="306.12" y="-1892.37" font-family="Helvetica,sans-Serif" font-size="14.00" fill="#458b74">Weight</text>
</g>
</g>
</svg>
