<?xml version="1.0" encoding="UTF-8" standalone="no"?>
<!DOCTYPE svg PUBLIC "-//W3C//DTD SVG 1.1//EN"
 "http://www.w3.org/Graphics/SVG/1.1/DTD/svg11.dtd">
<!-- Generated by graphviz version 12.2.1 (20241206.2353)
 -->
<!-- Title: Foo Pages: 1 -->
<svg width="725pt" height="1967pt"
 viewBox="0.00 0.00 724.75 1967.00" xmlns="http://www.w3.org/2000/svg" xmlns:xlink="http://www.w3.org/1999/xlink">
<g id="graph0" class="graph" transform="scale(1 1) rotate(0) translate(4 1963)">
<title>Foo</title>
<polygon fill="white" stroke="none" points="-4,4 -4,-1963 720.75,-1963 720.75,4 -4,4"/>
<g id="clust1" class="cluster">
<title>cluster_attacksensors</title>
<polygon fill="none" stroke="black" points="8,-8 8,-906 596.88,-906 596.88,-8 8,-8"/>
<text text-anchor="middle" x="302.44" y="-888.7" font-family="Helvetica,sans-Serif" font-size="14.00">Attack Sensors</text>
</g>
<!-- Level Once Sensor -->
<g id="node1" class="node">
<title>Level Once Sensor</title>
<polygon fill="none" stroke="black" points="77.62,-36.12 77.62,-57.88 206.62,-57.88 206.62,-36.12 77.62,-36.12"/>
<text text-anchor="start" x="80.62" y="-41.58" font-family="Helvetica,sans-Serif" font-size="14.00">Level Once Sensor &#160;</text>
</g>
<!-- Level Once Sensor_linked -->
<g id="node2" class="node">
<title>Level Once Sensor_linked</title>
<polygon fill="none" stroke="black" stroke-dasharray="1,5" points="575.1,-52 401.15,-52 401.15,-16 575.1,-16 575.1,-52"/>
<text text-anchor="start" x="406.75" y="-28.57" font-family="Helvetica,sans-Serif" font-size="14.00">Attack_DownDangerDash &#160;</text>
</g>
<!-- Level Once Sensor&#45;&gt;Level Once Sensor_linked -->
<g id="edge1" class="edge">
<title>Level Once Sensor&#45;&gt;Level Once Sensor_linked</title>
<path fill="none" stroke="#66cdaa" d="M214.4,-44.31C265.03,-42.39 333.64,-39.8 389.38,-37.69"/>
<polygon fill="#66cdaa" stroke="#66cdaa" points="389.33,-41.2 399.19,-37.32 389.07,-34.2 389.33,-41.2"/>
<text text-anchor="middle" x="318.88" y="-43.73" font-family="Helvetica,sans-Serif" font-size="14.00" fill="#66cdaa">QueueEnd</text>
</g>
<!-- Level Once Sensor_weight -->
<g id="node3" class="node">
<title>Level Once Sensor_weight</title>
<polygon fill="none" stroke="black" stroke-dasharray="1,5" points="584.75,-106 391.5,-106 391.5,-70 584.75,-70 584.75,-106"/>
<text text-anchor="start" x="401.5" y="-82.58" font-family="Helvetica,sans-Serif" font-size="14.00">1 Attack_DownDangerDash &#160;</text>
</g>
<!-- Level Once Sensor&#45;&gt;Level Once Sensor_weight -->
<g id="edge2" class="edge">
<title>Level Once Sensor&#45;&gt;Level Once Sensor_weight</title>
<path fill="none" stroke="#458b74" d="M214.4,-55.5C262.17,-61.19 325.94,-68.79 379.81,-75.21"/>
<polygon fill="#458b74" stroke="#458b74" points="379.3,-78.67 389.64,-76.38 380.13,-71.72 379.3,-78.67"/>
<text text-anchor="middle" x="318.88" y="-73.62" font-family="Helvetica,sans-Serif" font-size="14.00" fill="#458b74">Weight</text>
</g>
<!-- RunAwaySensor -->
<g id="node4" class="node">
<title>RunAwaySensor</title>
<polygon fill="none" stroke="black" points="85.12,-95.12 85.12,-116.88 199.12,-116.88 199.12,-95.12 85.12,-95.12"/>
<text text-anchor="start" x="88.12" y="-100.58" font-family="Helvetica,sans-Serif" font-size="14.00">RunAwaySensor &#160;</text>
</g>
<!-- AttackSensor -->
<g id="node5" class="node">
<title>AttackSensor</title>
<polygon fill="none" stroke="black" points="95.25,-183.12 95.25,-204.88 189,-204.88 189,-183.12 95.25,-183.12"/>
<text text-anchor="start" x="98.25" y="-188.57" font-family="Helvetica,sans-Serif" font-size="14.00">AttackSensor &#160;</text>
</g>
<!-- AttackSensor_linked -->
<g id="node6" class="node">
<title>AttackSensor_linked</title>
<polygon fill="none" stroke="black" stroke-dasharray="1,5" points="575.1,-160 401.15,-160 401.15,-124 575.1,-124 575.1,-160"/>
<text text-anchor="start" x="406.75" y="-136.57" font-family="Helvetica,sans-Serif" font-size="14.00">Attack_DownDangerDash &#160;</text>
</g>
<!-- AttackSensor&#45;&gt;AttackSensor_linked -->
<g id="edge3" class="edge">
<title>AttackSensor&#45;&gt;AttackSensor_linked</title>
<path fill="none" stroke="#66cdaa" d="M196.88,-185.88C248.3,-178.1 327.07,-166.19 389.58,-156.75"/>
<polygon fill="#66cdaa" stroke="#66cdaa" points="389.79,-160.25 399.16,-155.3 388.74,-153.33 389.79,-160.25"/>
<text text-anchor="middle" x="318.88" y="-173.56" font-family="Helvetica,sans-Serif" font-size="14.00" fill="#66cdaa">QueueEnd</text>
</g>
<!-- AttackSensor_weight -->
<g id="node7" class="node">
<title>AttackSensor_weight</title>
<polygon fill="none" stroke="black" stroke-dasharray="1,5" points="584.75,-304.25 391.5,-304.25 391.5,-177.75 584.75,-177.75 584.75,-304.25"/>
<text text-anchor="start" x="401.5" y="-284.95" font-family="Helvetica,sans-Serif" font-size="14.00">1 Attack_DownDangerDash &#160;</text>
<text text-anchor="start" x="407.5" y="-265.2" font-family="Helvetica,sans-Serif" font-size="14.00">1 Attack_HorizontalAttack &#160;</text>
<text text-anchor="start" x="432.62" y="-245.45" font-family="Helvetica,sans-Serif" font-size="14.00">2 AttackProjectile &#160;</text>
<text text-anchor="start" x="437.5" y="-225.7" font-family="Helvetica,sans-Serif" font-size="14.00">0 BlueProjectile &#160;</text>
<text text-anchor="start" x="440.5" y="-205.95" font-family="Helvetica,sans-Serif" font-size="14.00">1 DoubleSlash &#160;</text>
<text text-anchor="start" x="440.88" y="-186.2" font-family="Helvetica,sans-Serif" font-size="14.00">1 DangerDash &#160;</text>
</g>
<!-- AttackSensor&#45;&gt;AttackSensor_weight -->
<g id="edge4" class="edge">
<title>AttackSensor&#45;&gt;AttackSensor_weight</title>
<path fill="none" stroke="#458b74" d="M196.88,-201.34C245.71,-208.02 319.18,-218.05 379.99,-226.36"/>
<polygon fill="#458b74" stroke="#458b74" points="379.31,-229.8 389.69,-227.69 380.25,-222.87 379.31,-229.8"/>
<text text-anchor="middle" x="318.88" y="-224.16" font-family="Helvetica,sans-Serif" font-size="14.00" fill="#458b74">Weight</text>
</g>
<!-- DodgePredictSensor -->
<g id="node8" class="node">
<title>DodgePredictSensor</title>
<polygon fill="none" stroke="black" points="73.12,-324 73.12,-345.75 211.12,-345.75 211.12,-324 73.12,-324"/>
<text text-anchor="start" x="76.12" y="-329.45" font-family="Helvetica,sans-Serif" font-size="14.00">DodgePredictSensor &#160;</text>
<polygon fill="none" stroke="black" points="73.12,-302.25 73.12,-324 211.12,-324 211.12,-302.25 73.12,-302.25"/>
<text text-anchor="start" x="76.12" y="-308.7" font-family="Helvetica,sans-Serif" font-size="12.00" fill="#838b8b">if: rollingCondition</text>
<text text-anchor="start" x="172.88" y="-308.7" font-family="Helvetica,sans-Serif" font-size="14.00"> &#160;</text>
</g>
<!-- DodgePredictSensor_linked -->
<g id="node9" class="node">
<title>DodgePredictSensor_linked</title>
<polygon fill="none" stroke="black" stroke-dasharray="1,5" points="575.1,-358 401.15,-358 401.15,-322 575.1,-322 575.1,-358"/>
<text text-anchor="start" x="406.75" y="-334.57" font-family="Helvetica,sans-Serif" font-size="14.00">Attack_DownDangerDash &#160;</text>
</g>
<!-- DodgePredictSensor&#45;&gt;DodgePredictSensor_linked -->
<g id="edge5" class="edge">
<title>DodgePredictSensor&#45;&gt;DodgePredictSensor_linked</title>
<path fill="none" stroke="#66cdaa" d="M219.04,-327.53C269.19,-329.86 335.39,-332.94 389.46,-335.46"/>
<polygon fill="#66cdaa" stroke="#66cdaa" points="389.14,-338.95 399.29,-335.91 389.46,-331.95 389.14,-338.95"/>
<text text-anchor="middle" x="318.88" y="-335.88" font-family="Helvetica,sans-Serif" font-size="14.00" fill="#66cdaa">QueueEnd</text>
</g>
<!-- AttackPredictSensor -->
<g id="node10" class="node">
<title>AttackPredictSensor</title>
<polygon fill="none" stroke="black" points="74.25,-394 74.25,-415.75 210,-415.75 210,-394 74.25,-394"/>
<text text-anchor="start" x="77.25" y="-399.45" font-family="Helvetica,sans-Serif" font-size="14.00">AttackPredictSensor &#160;</text>
<polygon fill="none" stroke="black" points="74.25,-372.25 74.25,-394 210,-394 210,-372.25 74.25,-372.25"/>
<text text-anchor="start" x="77.25" y="-378.7" font-family="Helvetica,sans-Serif" font-size="12.00" fill="#838b8b">if: attackCondition</text>
<text text-anchor="start" x="172.5" y="-378.7" font-family="Helvetica,sans-Serif" font-size="14.00"> &#160;</text>
</g>
<!-- AttackPredictSensor_linked -->
<g id="node11" class="node">
<title>AttackPredictSensor_linked</title>
<polygon fill="none" stroke="black" stroke-dasharray="1,5" points="575.1,-412 401.15,-412 401.15,-376 575.1,-376 575.1,-412"/>
<text text-anchor="start" x="406.75" y="-388.57" font-family="Helvetica,sans-Serif" font-size="14.00">Attack_DownDangerDash &#160;</text>
</g>
<!-- AttackPredictSensor&#45;&gt;AttackPredictSensor_linked -->
<g id="edge6" class="edge">
<title>AttackPredictSensor&#45;&gt;AttackPredictSensor_linked</title>
<path fill="none" stroke="#66cdaa" d="M217.77,-394C268.04,-394 334.85,-394 389.36,-394"/>
<polygon fill="#66cdaa" stroke="#66cdaa" points="389.28,-397.5 399.28,-394 389.28,-390.5 389.28,-397.5"/>
<text text-anchor="middle" x="318.88" y="-396.45" font-family="Helvetica,sans-Serif" font-size="14.00" fill="#66cdaa">QueueEnd</text>
</g>
<!-- AttackRunToSensor -->
<g id="node12" class="node">
<title>AttackRunToSensor</title>
<polygon fill="none" stroke="black" points="75.75,-464 75.75,-485.75 208.5,-485.75 208.5,-464 75.75,-464"/>
<text text-anchor="start" x="78.75" y="-469.45" font-family="Helvetica,sans-Serif" font-size="14.00">AttackRunToSensor &#160;</text>
<polygon fill="none" stroke="black" points="75.75,-442.25 75.75,-464 208.5,-464 208.5,-442.25 75.75,-442.25"/>
<text text-anchor="start" x="78.75" y="-448.7" font-family="Helvetica,sans-Serif" font-size="12.00" fill="#838b8b">if: state is Engaging</text>
<text text-anchor="start" x="183" y="-448.7" font-family="Helvetica,sans-Serif" font-size="14.00"> &#160;</text>
</g>
<!-- AttackRunToSensor_linked -->
<g id="node13" class="node">
<title>AttackRunToSensor_linked</title>
<polygon fill="none" stroke="black" stroke-dasharray="1,5" points="575.1,-466 401.15,-466 401.15,-430 575.1,-430 575.1,-466"/>
<text text-anchor="start" x="406.75" y="-442.57" font-family="Helvetica,sans-Serif" font-size="14.00">Attack_DownDangerDash &#160;</text>
</g>
<!-- AttackRunToSensor&#45;&gt;AttackRunToSensor_linked -->
<g id="edge7" class="edge">
<title>AttackRunToSensor&#45;&gt;AttackRunToSensor_linked</title>
<path fill="none" stroke="#66cdaa" d="M216.5,-460.59C266.99,-458.24 334.6,-455.09 389.62,-452.54"/>
<polygon fill="#66cdaa" stroke="#66cdaa" points="389.46,-456.05 399.28,-452.09 389.13,-449.05 389.46,-456.05"/>
<text text-anchor="middle" x="318.88" y="-459.41" font-family="Helvetica,sans-Serif" font-size="14.00" fill="#66cdaa">QueueEnd</text>
</g>
<!-- AttackGroupForNearAttack_ComboA -->
<g id="node14" class="node">
<title>AttackGroupForNearAttack_ComboA</title>
<polygon fill="none" stroke="black" points="24,-533.12 24,-554.88 260.25,-554.88 260.25,-533.12 24,-533.12"/>
<text text-anchor="start" x="27" y="-538.58" font-family="Helvetica,sans-Serif" font-size="14.00">AttackGroupForNearAttack_ComboA &#160;</text>
</g>
<!-- AttackGroupForNearAttack_ComboA_linked -->
<g id="node15" class="node">
<title>AttackGroupForNearAttack_ComboA_linked</title>
<polygon fill="none" stroke="black" stroke-dasharray="1,5" points="575.1,-520 401.15,-520 401.15,-484 575.1,-484 575.1,-520"/>
<text text-anchor="start" x="406.75" y="-496.57" font-family="Helvetica,sans-Serif" font-size="14.00">Attack_DownDangerDash &#160;</text>
</g>
<!-- AttackGroupForNearAttack_ComboA&#45;&gt;AttackGroupForNearAttack_ComboA_linked -->
<g id="edge8" class="edge">
<title>AttackGroupForNearAttack_ComboA&#45;&gt;AttackGroupForNearAttack_ComboA_linked</title>
<path fill="none" stroke="#66cdaa" d="M267.8,-528.78C307.97,-523.87 351.86,-518.51 389.76,-513.89"/>
<polygon fill="#66cdaa" stroke="#66cdaa" points="389.8,-517.41 399.3,-512.72 388.95,-510.46 389.8,-517.41"/>
<text text-anchor="middle" x="318.88" y="-527.96" font-family="Helvetica,sans-Serif" font-size="14.00" fill="#66cdaa">QueueEnd</text>
</g>
<!-- AttackGroupForNearAttack_ComboA_weight -->
<g id="node16" class="node">
<title>AttackGroupForNearAttack_ComboA_weight</title>
<polygon fill="none" stroke="black" stroke-dasharray="1,5" points="584.75,-625.5 391.5,-625.5 391.5,-538.5 584.75,-538.5 584.75,-625.5"/>
<text text-anchor="start" x="401.5" y="-606.2" font-family="Helvetica,sans-Serif" font-size="14.00">1 Attack_DownDangerDash &#160;</text>
<text text-anchor="start" x="407.5" y="-586.45" font-family="Helvetica,sans-Serif" font-size="14.00">1 Attack_HorizontalAttack &#160;</text>
<text text-anchor="start" x="440.5" y="-566.7" font-family="Helvetica,sans-Serif" font-size="14.00">1 DoubleSlash &#160;</text>
<text text-anchor="start" x="440.88" y="-546.95" font-family="Helvetica,sans-Serif" font-size="14.00">1 DangerDash &#160;</text>
</g>
<!-- AttackGroupForNearAttack_ComboA&#45;&gt;AttackGroupForNearAttack_ComboA_weight -->
<g id="edge9" class="edge">
<title>AttackGroupForNearAttack_ComboA&#45;&gt;AttackGroupForNearAttack_ComboA_weight</title>
<path fill="none" stroke="#458b74" d="M267.8,-557.77C304.5,-561.83 344.31,-566.22 379.82,-570.15"/>
<polygon fill="#458b74" stroke="#458b74" points="379.36,-573.62 389.68,-571.24 380.12,-566.66 379.36,-573.62"/>
<text text-anchor="middle" x="318.88" y="-568.85" font-family="Helvetica,sans-Serif" font-size="14.00" fill="#458b74">Weight</text>
</g>
<!-- AttackGroupForProjectile_ComboB -->
<g id="node17" class="node">
<title>AttackGroupForProjectile_ComboB</title>
<polygon fill="none" stroke="black" points="29.25,-683.12 29.25,-704.88 255,-704.88 255,-683.12 29.25,-683.12"/>
<text text-anchor="start" x="32.25" y="-688.58" font-family="Helvetica,sans-Serif" font-size="14.00">AttackGroupForProjectile_ComboB &#160;</text>
</g>
<!-- AttackGroupForProjectile_ComboB_linked -->
<g id="node18" class="node">
<title>AttackGroupForProjectile_ComboB_linked</title>
<polygon fill="none" stroke="black" stroke-dasharray="1,5" points="575.1,-680 401.15,-680 401.15,-644 575.1,-644 575.1,-680"/>
<text text-anchor="start" x="406.75" y="-656.58" font-family="Helvetica,sans-Serif" font-size="14.00">Attack_DownDangerDash &#160;</text>
</g>
<!-- AttackGroupForProjectile_ComboB&#45;&gt;AttackGroupForProjectile_ComboB_linked -->
<g id="edge10" class="edge">
<title>AttackGroupForProjectile_ComboB&#45;&gt;AttackGroupForProjectile_ComboB_linked</title>
<path fill="none" stroke="#66cdaa" d="M262.98,-681.5C270.86,-680.72 278.66,-679.97 286.25,-679.25 319.92,-676.07 356.78,-672.83 389.63,-670.04"/>
<polygon fill="#66cdaa" stroke="#66cdaa" points="389.9,-673.53 399.57,-669.19 389.31,-666.55 389.9,-673.53"/>
<text text-anchor="middle" x="318.88" y="-681.7" font-family="Helvetica,sans-Serif" font-size="14.00" fill="#66cdaa">QueueEnd</text>
</g>
<!-- AttackGroupForProjectile_ComboB_weight -->
<g id="node19" class="node">
<title>AttackGroupForProjectile_ComboB_weight</title>
<polygon fill="none" stroke="black" stroke-dasharray="1,5" points="575.75,-765.62 400.5,-765.62 400.5,-698.38 575.75,-698.38 575.75,-765.62"/>
<text text-anchor="start" x="432.62" y="-746.33" font-family="Helvetica,sans-Serif" font-size="14.00">1 AttackProjectile &#160;</text>
<text text-anchor="start" x="437.5" y="-726.58" font-family="Helvetica,sans-Serif" font-size="14.00">1 BlueProjectile &#160;</text>
<text text-anchor="start" x="410.5" y="-706.83" font-family="Helvetica,sans-Serif" font-size="14.00">1 AttackDangerProjectile &#160;</text>
</g>
<!-- AttackGroupForProjectile_ComboB&#45;&gt;AttackGroupForProjectile_ComboB_weight -->
<g id="edge11" class="edge">
<title>AttackGroupForProjectile_ComboB&#45;&gt;AttackGroupForProjectile_ComboB_weight</title>
<path fill="none" stroke="#458b74" d="M262.96,-707.24C304.08,-711.78 349.59,-716.81 388.8,-721.14"/>
<polygon fill="#458b74" stroke="#458b74" points="388.39,-724.61 398.72,-722.23 389.16,-717.66 388.39,-724.61"/>
<text text-anchor="middle" x="318.88" y="-718.85" font-family="Helvetica,sans-Serif" font-size="14.00" fill="#458b74">Weight</text>
</g>
<!-- AttackGroupForFinisher -->
<g id="node20" class="node">
<title>AttackGroupForFinisher</title>
<polygon fill="none" stroke="black" points="63.38,-818.12 63.38,-839.88 220.88,-839.88 220.88,-818.12 63.38,-818.12"/>
<text text-anchor="start" x="66.38" y="-823.58" font-family="Helvetica,sans-Serif" font-size="14.00">AttackGroupForFinisher &#160;</text>
</g>
<!-- AttackGroupForFinisher_linked -->
<g id="node21" class="node">
<title>AttackGroupForFinisher_linked</title>
<polygon fill="none" stroke="black" stroke-dasharray="1,5" points="575.1,-820 401.15,-820 401.15,-784 575.1,-784 575.1,-820"/>
<text text-anchor="start" x="406.75" y="-796.58" font-family="Helvetica,sans-Serif" font-size="14.00">Attack_DownDangerDash &#160;</text>
</g>
<!-- AttackGroupForFinisher&#45;&gt;AttackGroupForFinisher_linked -->
<g id="edge12" class="edge">
<title>AttackGroupForFinisher&#45;&gt;AttackGroupForFinisher_linked</title>
<path fill="none" stroke="#66cdaa" d="M228.59,-819.6C247.56,-817.68 267.58,-815.78 286.25,-814.25 319.89,-811.49 356.75,-809.07 389.61,-807.13"/>
<polygon fill="#66cdaa" stroke="#66cdaa" points="389.76,-810.62 399.54,-806.55 389.35,-803.63 389.76,-810.62"/>
<text text-anchor="middle" x="318.88" y="-816.7" font-family="Helvetica,sans-Serif" font-size="14.00" fill="#66cdaa">QueueEnd</text>
</g>
<!-- AttackGroupForFinisher_weight -->
<g id="node22" class="node">
<title>AttackGroupForFinisher_weight</title>
<polygon fill="none" stroke="black" stroke-dasharray="1,5" points="588.88,-874 387.38,-874 387.38,-838 588.88,-838 588.88,-874"/>
<text text-anchor="start" x="397.38" y="-850.58" font-family="Helvetica,sans-Serif" font-size="14.00">1 SignatureCrashTheGround &#160;</text>
</g>
<!-- AttackGroupForFinisher&#45;&gt;AttackGroupForFinisher_weight -->
<g id="edge13" class="edge">
<title>AttackGroupForFinisher&#45;&gt;AttackGroupForFinisher_weight</title>
<path fill="none" stroke="#458b74" d="M228.6,-835.71C273.09,-839.2 328.02,-843.51 375.79,-847.26"/>
<polygon fill="#458b74" stroke="#458b74" points="375.38,-850.74 385.62,-848.03 375.93,-843.76 375.38,-850.74"/>
<text text-anchor="middle" x="318.88" y="-847.37" font-family="Helvetica,sans-Serif" font-size="14.00" fill="#458b74">Weight</text>
</g>
<!-- Attack_DownDangerDash -->
<g id="node23" class="node">
<title>Attack_DownDangerDash</title>
<polygon fill="none" stroke="black" points="403.75,-1742 403.75,-1763.75 572.5,-1763.75 572.5,-1742 403.75,-1742"/>
<text text-anchor="start" x="406.75" y="-1747.45" font-family="Helvetica,sans-Serif" font-size="14.00">Attack_DownDangerDash &#160;</text>
<polygon fill="none" stroke="black" points="403.75,-1720.25 403.75,-1742 572.5,-1742 572.5,-1720.25 403.75,-1720.25"/>
<text text-anchor="start" x="406.75" y="-1726.7" font-family="Helvetica,sans-Serif" font-size="12.00" fill="#838b8b">3.00s: Done</text>
<text text-anchor="start" x="471.25" y="-1726.7" font-family="Helvetica,sans-Serif" font-size="14.00"> &#160;</text>
</g>
<!-- Engaging -->
<g id="node24" class="node">
<title>Engaging</title>
<polygon fill="none" stroke="black" points="716.75,-1335 643.75,-1335 643.75,-1299 716.75,-1299 716.75,-1335"/>
<text text-anchor="middle" x="680.25" y="-1311.58" font-family="Helvetica,sans-Serif" font-size="14.00">Engaging</text>
</g>
<!-- Attack_DownDangerDash&#45;&gt;Engaging -->
<g id="edge14" class="edge">
<title>Attack_DownDangerDash&#45;&gt;Engaging</title>
<path fill="none" stroke="#cdc8b1" d="M580.36,-1725.92C590.23,-1721.13 599.35,-1714.95 606.75,-1707 655.73,-1654.37 673.04,-1428.19 677.76,-1346.54"/>
<polygon fill="#cdc8b1" stroke="#cdc8b1" points="681.25,-1346.84 678.31,-1336.66 674.26,-1346.45 681.25,-1346.84"/>
</g>
<!-- SignatureChargedHorizontalAttack -->
<g id="node25" class="node">
<title>SignatureChargedHorizontalAttack</title>
<polygon fill="none" stroke="black" points="377.5,-1672 377.5,-1693.75 598.75,-1693.75 598.75,-1672 377.5,-1672"/>
<text text-anchor="start" x="380.5" y="-1677.45" font-family="Helvetica,sans-Serif" font-size="14.00">SignatureChargedHorizontalAttack &#160;</text>
<polygon fill="none" stroke="black" points="377.5,-1650.25 377.5,-1672 598.75,-1672 598.75,-1650.25 377.5,-1650.25"/>
<text text-anchor="start" x="380.5" y="-1656.7" font-family="Helvetica,sans-Serif" font-size="12.00" fill="#838b8b">6.48s: Done</text>
<text text-anchor="start" x="445" y="-1656.7" font-family="Helvetica,sans-Serif" font-size="14.00"> &#160;</text>
</g>
<!-- SignatureChargedHorizontalAttack&#45;&gt;Engaging -->
<g id="edge15" class="edge">
<title>SignatureChargedHorizontalAttack&#45;&gt;Engaging</title>
<path fill="none" stroke="#cdc8b1" d="M596.21,-1646.26C599.99,-1643.48 603.52,-1640.4 606.75,-1637 646.67,-1594.9 668.97,-1417.17 676.41,-1346.32"/>
<polygon fill="#cdc8b1" stroke="#cdc8b1" points="679.86,-1346.96 677.4,-1336.65 672.9,-1346.25 679.86,-1346.96"/>
</g>
<!-- AttackDangerProjectile -->
<g id="node26" class="node">
<title>AttackDangerProjectile</title>
<polygon fill="none" stroke="black" points="412.75,-1602 412.75,-1623.75 563.5,-1623.75 563.5,-1602 412.75,-1602"/>
<text text-anchor="start" x="415.75" y="-1607.45" font-family="Helvetica,sans-Serif" font-size="14.00">AttackDangerProjectile &#160;</text>
<polygon fill="none" stroke="black" points="412.75,-1580.25 412.75,-1602 563.5,-1602 563.5,-1580.25 412.75,-1580.25"/>
<text text-anchor="start" x="415.75" y="-1586.7" font-family="Helvetica,sans-Serif" font-size="12.00" fill="#838b8b">3.50s: Done</text>
<text text-anchor="start" x="480.25" y="-1586.7" font-family="Helvetica,sans-Serif" font-size="14.00"> &#160;</text>
</g>
<!-- AttackDangerProjectile&#45;&gt;Engaging -->
<g id="edge16" class="edge">
<title>AttackDangerProjectile&#45;&gt;Engaging</title>
<path fill="none" stroke="#cdc8b1" d="M571.25,-1589.15C584.41,-1584.03 596.92,-1576.9 606.75,-1567 667.04,-1506.29 677.81,-1398.65 679.33,-1346.69"/>
<polygon fill="#cdc8b1" stroke="#cdc8b1" points="682.82,-1346.9 679.51,-1336.83 675.82,-1346.77 682.82,-1346.9"/>
</g>
<!-- Attack_HorizontalAttack -->
<g id="node27" class="node">
<title>Attack_HorizontalAttack</title>
<polygon fill="none" stroke="black" points="409.75,-1532 409.75,-1553.75 566.5,-1553.75 566.5,-1532 409.75,-1532"/>
<text text-anchor="start" x="412.75" y="-1537.45" font-family="Helvetica,sans-Serif" font-size="14.00">Attack_HorizontalAttack &#160;</text>
<polygon fill="none" stroke="black" points="409.75,-1510.25 409.75,-1532 566.5,-1532 566.5,-1510.25 409.75,-1510.25"/>
<text text-anchor="start" x="412.75" y="-1516.7" font-family="Helvetica,sans-Serif" font-size="12.00" fill="#838b8b">3.83s: Done</text>
<text text-anchor="start" x="477.25" y="-1516.7" font-family="Helvetica,sans-Serif" font-size="14.00"> &#160;</text>
</g>
<!-- Attack_HorizontalAttack&#45;&gt;Engaging -->
<g id="edge17" class="edge">
<title>Attack_HorizontalAttack&#45;&gt;Engaging</title>
<path fill="none" stroke="#cdc8b1" d="M574.37,-1516.75C586.2,-1511.88 597.45,-1505.46 606.75,-1497 650.77,-1456.92 668.57,-1386.4 675.36,-1346.57"/>
<polygon fill="#cdc8b1" stroke="#cdc8b1" points="678.81,-1347.17 676.9,-1336.75 671.9,-1346.09 678.81,-1347.17"/>
</g>
<!-- AttackProjectile -->
<g id="node28" class="node">
<title>AttackProjectile</title>
<polygon fill="none" stroke="black" points="434.88,-1462 434.88,-1483.75 541.38,-1483.75 541.38,-1462 434.88,-1462"/>
<text text-anchor="start" x="437.88" y="-1467.45" font-family="Helvetica,sans-Serif" font-size="14.00">AttackProjectile &#160;</text>
<polygon fill="none" stroke="black" points="434.88,-1440.25 434.88,-1462 541.38,-1462 541.38,-1440.25 434.88,-1440.25"/>
<text text-anchor="start" x="437.88" y="-1446.7" font-family="Helvetica,sans-Serif" font-size="12.00" fill="#838b8b">4.37s: Done</text>
<text text-anchor="start" x="502.38" y="-1446.7" font-family="Helvetica,sans-Serif" font-size="14.00"> &#160;</text>
</g>
<!-- AttackProjectile&#45;&gt;Engaging -->
<g id="edge18" class="edge">
<title>AttackProjectile&#45;&gt;Engaging</title>
<path fill="none" stroke="#cdc8b1" d="M549.08,-1452.68C568.82,-1447.49 589.99,-1439.45 606.75,-1427 634.9,-1406.1 655.34,-1370.78 667.2,-1345.81"/>
<polygon fill="#cdc8b1" stroke="#cdc8b1" points="670.32,-1347.41 671.28,-1336.86 663.95,-1344.51 670.32,-1347.41"/>
</g>
<!-- BlueProjectile -->
<g id="node29" class="node">
<title>BlueProjectile</title>
<polygon fill="none" stroke="black" points="440.12,-1392 440.12,-1413.75 536.12,-1413.75 536.12,-1392 440.12,-1392"/>
<text text-anchor="start" x="443.12" y="-1397.45" font-family="Helvetica,sans-Serif" font-size="14.00">BlueProjectile &#160;</text>
<polygon fill="none" stroke="black" points="440.12,-1370.25 440.12,-1392 536.12,-1392 536.12,-1370.25 440.12,-1370.25"/>
<text text-anchor="start" x="443.12" y="-1376.7" font-family="Helvetica,sans-Serif" font-size="12.00" fill="#838b8b">3.33s: Done</text>
<text text-anchor="start" x="507.62" y="-1376.7" font-family="Helvetica,sans-Serif" font-size="14.00"> &#160;</text>
</g>
<!-- BlueProjectile&#45;&gt;Engaging -->
<g id="edge19" class="edge">
<title>BlueProjectile&#45;&gt;Engaging</title>
<path fill="none" stroke="#cdc8b1" d="M543.85,-1378.36C563.96,-1372.66 586.71,-1365.4 606.75,-1357 617.59,-1352.46 628.9,-1346.74 639.27,-1341.06"/>
<polygon fill="#cdc8b1" stroke="#cdc8b1" points="640.96,-1344.12 647.96,-1336.17 637.53,-1338.02 640.96,-1344.12"/>
</g>
<!-- DoubleSlash -->
<g id="node30" class="node">
<title>DoubleSlash</title>
<polygon fill="none" stroke="black" points="431.88,-1322.12 431.88,-1343.88 544.38,-1343.88 544.38,-1322.12 431.88,-1322.12"/>
<text text-anchor="start" x="446.12" y="-1327.58" font-family="Helvetica,sans-Serif" font-size="14.00">DoubleSlash &#160;</text>
<polygon fill="none" stroke="black" points="431.88,-1290.12 431.88,-1322.12 544.38,-1322.12 544.38,-1290.12 431.88,-1290.12"/>
<text text-anchor="start" x="434.88" y="-1308.72" font-family="Helvetica,sans-Serif" font-size="12.00" fill="#838b8b">0.42s: CheckFacing</text>
<text text-anchor="start" x="434.88" y="-1294.82" font-family="Helvetica,sans-Serif" font-size="12.00" fill="#838b8b">3.83s: Done</text>
<text text-anchor="start" x="499.38" y="-1294.82" font-family="Helvetica,sans-Serif" font-size="14.00"> &#160;</text>
</g>
<!-- DoubleSlash&#45;&gt;Engaging -->
<g id="edge20" class="edge">
<title>DoubleSlash&#45;&gt;Engaging</title>
<path fill="none" stroke="#cdc8b1" d="M552.17,-1317C578.18,-1317 607.81,-1317 631.91,-1317"/>
<polygon fill="#cdc8b1" stroke="#cdc8b1" points="631.75,-1320.5 641.75,-1317 631.75,-1313.5 631.75,-1320.5"/>
</g>
<!-- DangerDash -->
<g id="node31" class="node">
<title>DangerDash</title>
<polygon fill="none" stroke="black" points="443.5,-1242 443.5,-1263.75 532.75,-1263.75 532.75,-1242 443.5,-1242"/>
<text text-anchor="start" x="446.5" y="-1247.45" font-family="Helvetica,sans-Serif" font-size="14.00">DangerDash &#160;</text>
<polygon fill="none" stroke="black" points="443.5,-1220.25 443.5,-1242 532.75,-1242 532.75,-1220.25 443.5,-1220.25"/>
<text text-anchor="start" x="446.5" y="-1226.7" font-family="Helvetica,sans-Serif" font-size="12.00" fill="#838b8b">2.75s: Done</text>
<text text-anchor="start" x="511" y="-1226.7" font-family="Helvetica,sans-Serif" font-size="14.00"> &#160;</text>
</g>
<!-- DangerDash&#45;&gt;Engaging -->
<g id="edge21" class="edge">
<title>DangerDash&#45;&gt;Engaging</title>
<path fill="none" stroke="#cdc8b1" d="M540.62,-1254.74C561.5,-1260.56 585.62,-1268.15 606.75,-1277 617.59,-1281.54 628.9,-1287.26 639.27,-1292.94"/>
<polygon fill="#cdc8b1" stroke="#cdc8b1" points="637.53,-1295.98 647.96,-1297.83 640.96,-1289.88 637.53,-1295.98"/>
</g>
<!-- PhantomDodge -->
<g id="node32" class="node">
<title>PhantomDodge</title>
<polygon fill="none" stroke="black" points="434.12,-1172 434.12,-1193.75 542.12,-1193.75 542.12,-1172 434.12,-1172"/>
<text text-anchor="start" x="437.12" y="-1177.45" font-family="Helvetica,sans-Serif" font-size="14.00">PhantomDodge &#160;</text>
<polygon fill="none" stroke="black" points="434.12,-1150.25 434.12,-1172 542.12,-1172 542.12,-1150.25 434.12,-1150.25"/>
<text text-anchor="start" x="437.12" y="-1156.7" font-family="Helvetica,sans-Serif" font-size="12.00" fill="#838b8b">0.67s: Done</text>
<text text-anchor="start" x="501.62" y="-1156.7" font-family="Helvetica,sans-Serif" font-size="14.00"> &#160;</text>
</g>
<!-- PhantomDodge&#45;&gt;Engaging -->
<g id="edge22" class="edge">
<title>PhantomDodge&#45;&gt;Engaging</title>
<path fill="none" stroke="#cdc8b1" d="M549.98,-1181.56C569.47,-1186.75 590.24,-1194.74 606.75,-1207 634.9,-1227.9 655.34,-1263.22 667.2,-1288.19"/>
<polygon fill="#cdc8b1" stroke="#cdc8b1" points="663.95,-1289.49 671.28,-1297.14 670.32,-1286.59 663.95,-1289.49"/>
</g>
<!-- SignatureCrashTheGround -->
<g id="node33" class="node">
<title>SignatureCrashTheGround</title>
<polygon fill="none" stroke="black" points="400,-1102 400,-1123.75 576.25,-1123.75 576.25,-1102 400,-1102"/>
<text text-anchor="start" x="403" y="-1107.45" font-family="Helvetica,sans-Serif" font-size="14.00">SignatureCrashTheGround &#160;</text>
<polygon fill="none" stroke="black" points="400,-1080.25 400,-1102 576.25,-1102 576.25,-1080.25 400,-1080.25"/>
<text text-anchor="start" x="403" y="-1086.7" font-family="Helvetica,sans-Serif" font-size="12.00" fill="#838b8b">7.00s: Done</text>
<text text-anchor="start" x="467.5" y="-1086.7" font-family="Helvetica,sans-Serif" font-size="14.00"> &#160;</text>
</g>
<!-- SignatureCrashTheGround&#45;&gt;Engaging -->
<g id="edge23" class="edge">
<title>SignatureCrashTheGround&#45;&gt;Engaging</title>
<path fill="none" stroke="#cdc8b1" d="M584.13,-1121.71C592.34,-1125.87 600.05,-1130.9 606.75,-1137 650.77,-1177.08 668.57,-1247.6 675.36,-1287.43"/>
<polygon fill="#cdc8b1" stroke="#cdc8b1" points="671.9,-1287.91 676.9,-1297.25 678.81,-1286.83 671.9,-1287.91"/>
</g>
<!-- AttackParrying -->
<g id="node34" class="node">
<title>AttackParrying</title>
<polygon fill="none" stroke="black" points="437.5,-1029.12 437.5,-1050.88 538.75,-1050.88 538.75,-1029.12 437.5,-1029.12"/>
<text text-anchor="start" x="440.5" y="-1034.58" font-family="Helvetica,sans-Serif" font-size="14.00">AttackParrying &#160;</text>
</g>
<!-- AttackParrying&#45;&gt;Engaging -->
<g id="edge24" class="edge">
<title>AttackParrying&#45;&gt;Engaging</title>
<path fill="none" stroke="#cdc8b1" d="M546.63,-1041.28C567.88,-1044.56 590.68,-1051.82 606.75,-1067 669.09,-1125.9 678.84,-1234.87 679.72,-1287.3"/>
<polygon fill="#cdc8b1" stroke="#cdc8b1" points="676.22,-1287.27 679.77,-1297.25 683.22,-1287.23 676.22,-1287.27"/>
</g>
<!-- HurtState -->
<g id="node35" class="node">
<title>HurtState</title>
<polygon fill="none" stroke="black" points="106.88,-1146.12 106.88,-1167.88 177.38,-1167.88 177.38,-1146.12 106.88,-1146.12"/>
<text text-anchor="start" x="109.88" y="-1151.58" font-family="Helvetica,sans-Serif" font-size="14.00">HurtState &#160;</text>
</g>
<!-- Hurt_BigState -->
<g id="node36" class="node">
<title>Hurt_BigState</title>
<polygon fill="none" stroke="black" points="93.38,-1559 93.38,-1580.75 190.88,-1580.75 190.88,-1559 93.38,-1559"/>
<text text-anchor="start" x="96.38" y="-1564.45" font-family="Helvetica,sans-Serif" font-size="14.00">Hurt_BigState &#160;</text>
<polygon fill="none" stroke="black" points="93.38,-1537.25 93.38,-1559 190.88,-1559 190.88,-1537.25 93.38,-1537.25"/>
<text text-anchor="start" x="96.38" y="-1543.7" font-family="Helvetica,sans-Serif" font-size="12.00" fill="#838b8b">0.92s: Done</text>
<text text-anchor="start" x="160.88" y="-1543.7" font-family="Helvetica,sans-Serif" font-size="14.00"> &#160;</text>
</g>
<!-- LastHit -->
<g id="node37" class="node">
<title>LastHit</title>
<polygon fill="none" stroke="black" points="78,-1809.12 78,-1830.88 206.25,-1830.88 206.25,-1809.12 78,-1809.12"/>
<text text-anchor="start" x="117.38" y="-1814.58" font-family="Helvetica,sans-Serif" font-size="14.00">LastHit &#160;</text>
<polygon fill="none" stroke="black" points="78,-1777.12 78,-1809.12 206.25,-1809.12 206.25,-1777.12 78,-1777.12"/>
<text text-anchor="start" x="81" y="-1795.72" font-family="Helvetica,sans-Serif" font-size="12.00" fill="#838b8b">0.15s: ForceFacingLeft</text>
<text text-anchor="start" x="81" y="-1781.82" font-family="Helvetica,sans-Serif" font-size="12.00" fill="#838b8b">1.00s: Done</text>
<text text-anchor="start" x="145.5" y="-1781.82" font-family="Helvetica,sans-Serif" font-size="14.00"> &#160;</text>
</g>
<!-- DeadState -->
<g id="node38" class="node">
<title>DeadState</title>
<polygon fill="none" stroke="black" points="528,-1822 448.25,-1822 448.25,-1786 528,-1786 528,-1822"/>
<text text-anchor="middle" x="488.12" y="-1798.58" font-family="Helvetica,sans-Serif" font-size="14.00">DeadState</text>
</g>
<!-- LastHit&#45;&gt;DeadState -->
<g id="edge25" class="edge">
<title>LastHit&#45;&gt;DeadState</title>
<path fill="none" stroke="#cdc8b1" d="M213.98,-1804C280.37,-1804 377.92,-1804 436.7,-1804"/>
<polygon fill="#cdc8b1" stroke="#cdc8b1" points="436.41,-1807.5 446.41,-1804 436.41,-1800.5 436.41,-1807.5"/>
</g>
<!-- PostureBreak -->
<g id="node39" class="node">
<title>PostureBreak</title>
<polygon fill="none" stroke="black" points="94.5,-1879 94.5,-1900.75 189.75,-1900.75 189.75,-1879 94.5,-1879"/>
<text text-anchor="start" x="97.5" y="-1884.45" font-family="Helvetica,sans-Serif" font-size="14.00">PostureBreak &#160;</text>
<polygon fill="none" stroke="black" points="94.5,-1857.25 94.5,-1879 189.75,-1879 189.75,-1857.25 94.5,-1857.25"/>
<text text-anchor="start" x="97.5" y="-1863.7" font-family="Helvetica,sans-Serif" font-size="12.00" fill="#838b8b">2.25s: Done</text>
<text text-anchor="start" x="162" y="-1863.7" font-family="Helvetica,sans-Serif" font-size="14.00"> &#160;</text>
</g>
<!-- StandUp -->
<g id="node40" class="node">
<title>StandUp</title>
<polygon fill="none" stroke="black" points="455.12,-975.12 455.12,-996.88 521.12,-996.88 521.12,-975.12 455.12,-975.12"/>
<text text-anchor="start" x="458.12" y="-980.58" font-family="Helvetica,sans-Serif" font-size="14.00">StandUp &#160;</text>
</g>
<!-- StandUp&#45;&gt;Engaging -->
<g id="edge26" class="edge">
<title>StandUp&#45;&gt;Engaging</title>
<path fill="none" stroke="#cdc8b1" d="M528.91,-985.19C554.33,-986.83 586.24,-993.22 606.75,-1013 646.26,-1051.12 668.61,-1218.91 676.24,-1287.56"/>
<polygon fill="#cdc8b1" stroke="#cdc8b1" points="672.74,-1287.74 677.29,-1297.3 679.7,-1286.99 672.74,-1287.74"/>
</g>
<!-- ZEnterState -->
<g id="node41" class="node">
<title>ZEnterState</title>
<polygon fill="none" stroke="black" points="445.38,-921.12 445.38,-942.88 530.88,-942.88 530.88,-921.12 445.38,-921.12"/>
<text text-anchor="start" x="448.38" y="-926.58" font-family="Helvetica,sans-Serif" font-size="14.00">ZEnterState &#160;</text>
</g>
<!-- ZEnterState&#45;&gt;Engaging -->
<g id="edge27" class="edge">
<title>ZEnterState&#45;&gt;Engaging</title>
<path fill="none" stroke="#cdc8b1" d="M538.59,-931.84C562.11,-934.36 588.93,-941.41 606.75,-959 653.45,-1005.08 672.02,-1210.58 677.43,-1287.66"/>
<polygon fill="#cdc8b1" stroke="#cdc8b1" points="673.92,-1287.63 678.08,-1297.38 680.9,-1287.16 673.92,-1287.63"/>
</g>
<!-- ZExitState -->
<g id="node42" class="node">
<title>ZExitState</title>
<polygon fill="none" stroke="black" points="104.25,-921.12 104.25,-942.88 180,-942.88 180,-921.12 104.25,-921.12"/>
<text text-anchor="start" x="107.25" y="-926.58" font-family="Helvetica,sans-Serif" font-size="14.00">ZExitState &#160;</text>
</g>
<!-- ZExitState&#45;&gt;ZEnterState -->
<g id="edge28" class="edge">
<title>ZExitState&#45;&gt;ZEnterState</title>
<path fill="none" stroke="#cdc8b1" d="M187.74,-932C248.58,-932 357.78,-932 426.14,-932"/>
<polygon fill="#cdc8b1" stroke="#cdc8b1" points="426.06,-935.5 436.06,-932 426.06,-928.5 426.06,-935.5"/>
</g>
<!-- Wandering_Idle -->
<g id="node43" class="node">
<title>Wandering_Idle</title>
<polygon fill="none" stroke="black" points="212.75,-1959 71.5,-1959 71.5,-1923 212.75,-1923 212.75,-1959"/>
<text text-anchor="middle" x="142.12" y="-1935.58" font-family="Helvetica,sans-Serif" font-size="14.00">Wandering_Idle (Init)</text>
</g>
</g>
</svg>
