<?xml version="1.0" encoding="UTF-8" standalone="no"?>
<!DOCTYPE svg PUBLIC "-//W3C//DTD SVG 1.1//EN"
 "http://www.w3.org/Graphics/SVG/1.1/DTD/svg11.dtd">
<!-- Generated by graphviz version 12.2.1 (20241206.2353)
 -->
<!-- Title: Foo Pages: 1 -->
<svg width="412pt" height="1256pt"
 viewBox="0.00 0.00 412.20 1255.88" xmlns="http://www.w3.org/2000/svg" xmlns:xlink="http://www.w3.org/1999/xlink">
<g id="graph0" class="graph" transform="scale(1 1) rotate(0) translate(4 1251.88)">
<title>Foo</title>
<polygon fill="white" stroke="none" points="-4,4 -4,-1251.88 408.2,-1251.88 408.2,4 -4,4"/>
<g id="clust1" class="cluster">
<title>cluster_attacksensors</title>
<polygon fill="none" stroke="black" points="8,-757.88 8,-1239.88 396.2,-1239.88 396.2,-757.88 8,-757.88"/>
<text text-anchor="middle" x="202.1" y="-1222.58" font-family="Helvetica,sans-Serif" font-size="14.00">Attack Sensors</text>
</g>
<!-- Attack -->
<g id="node1" class="node">
<title>Attack</title>
<polygon fill="none" stroke="black" points="33,-670 33,-691.75 153,-691.75 153,-670 33,-670"/>
<text text-anchor="start" x="70.5" y="-675.45" font-family="Helvetica,sans-Serif" font-size="14.00">Attack &#160;</text>
<polygon fill="none" stroke="black" points="33,-602 33,-670 153,-670 153,-602 33,-602"/>
<text text-anchor="start" x="36" y="-656.6" font-family="Helvetica,sans-Serif" font-size="12.00" fill="#838b8b">0.33s: CheckFacing</text>
<text text-anchor="start" x="36" y="-644.6" font-family="Helvetica,sans-Serif" font-size="12.00" fill="#838b8b">0.50s: Evaluate</text>
<text text-anchor="start" x="36" y="-632.6" font-family="Helvetica,sans-Serif" font-size="12.00" fill="#838b8b">0.63s: ResetEvaluate</text>
<text text-anchor="start" x="36" y="-620.6" font-family="Helvetica,sans-Serif" font-size="12.00" fill="#838b8b">1.08s: LinkNextMove</text>
<text text-anchor="start" x="36" y="-606.7" font-family="Helvetica,sans-Serif" font-size="12.00" fill="#838b8b">1.25s: Done</text>
<text text-anchor="start" x="100.5" y="-606.7" font-family="Helvetica,sans-Serif" font-size="14.00"> &#160;</text>
</g>
<!-- PreAttack -->
<g id="node2" class="node">
<title>PreAttack</title>
<polygon fill="none" stroke="black" points="366.98,-326.88 292.48,-326.88 292.48,-290.88 366.98,-290.88 366.98,-326.88"/>
<text text-anchor="middle" x="329.73" y="-303.45" font-family="Helvetica,sans-Serif" font-size="14.00">PreAttack</text>
</g>
<!-- Attack&#45;&gt;PreAttack -->
<g id="edge1" class="edge">
<title>Attack&#45;&gt;PreAttack</title>
<path fill="none" stroke="#cdc8b1" d="M160.7,-598.21C163.94,-595.16 167.07,-592.04 170,-588.88 243.08,-510.08 295.94,-391.65 317.71,-337.61"/>
<polygon fill="#cdc8b1" stroke="#cdc8b1" points="320.89,-339.08 321.33,-328.49 314.39,-336.5 320.89,-339.08"/>
</g>
<!--  Hori Attack2 -->
<g id="node3" class="node">
<title> Hori Attack2</title>
<polygon fill="none" stroke="black" points="34.12,-554 34.12,-575.75 151.88,-575.75 151.88,-554 34.12,-554"/>
<text text-anchor="start" x="51" y="-559.45" font-family="Helvetica,sans-Serif" font-size="14.00"> Hori Attack2 &#160;</text>
<polygon fill="none" stroke="black" points="34.12,-510 34.12,-554 151.88,-554 151.88,-510 34.12,-510"/>
<text text-anchor="start" x="37.12" y="-540.6" font-family="Helvetica,sans-Serif" font-size="12.00" fill="#838b8b">1.00s: CheckFacing</text>
<text text-anchor="start" x="37.12" y="-528.6" font-family="Helvetica,sans-Serif" font-size="12.00" fill="#838b8b">1.83s: LinkNextMove</text>
<text text-anchor="start" x="37.12" y="-514.7" font-family="Helvetica,sans-Serif" font-size="12.00" fill="#838b8b">2.00s: Done</text>
<text text-anchor="start" x="101.62" y="-514.7" font-family="Helvetica,sans-Serif" font-size="14.00"> &#160;</text>
</g>
<!--  Hori Attack2&#45;&gt;PreAttack -->
<g id="edge2" class="edge">
<title> Hori Attack2&#45;&gt;PreAttack</title>
<path fill="none" stroke="#cdc8b1" d="M158.12,-506.21C162.25,-503.2 166.25,-500.08 170,-496.88 227.96,-447.36 282.25,-375.52 309.82,-336.54"/>
<polygon fill="#cdc8b1" stroke="#cdc8b1" points="312.66,-338.58 315.52,-328.38 306.92,-334.57 312.66,-338.58"/>
</g>
<!--  Double Attack 3 -->
<g id="node4" class="node">
<title> Double Attack 3</title>
<polygon fill="none" stroke="black" points="36.75,-462 36.75,-483.75 149.25,-483.75 149.25,-462 36.75,-462"/>
<text text-anchor="start" x="40.12" y="-467.45" font-family="Helvetica,sans-Serif" font-size="14.00"> Double Attack 3 &#160;</text>
<polygon fill="none" stroke="black" points="36.75,-418 36.75,-462 149.25,-462 149.25,-418 36.75,-418"/>
<text text-anchor="start" x="39.75" y="-448.6" font-family="Helvetica,sans-Serif" font-size="12.00" fill="#838b8b">1.00s: CheckFacing</text>
<text text-anchor="start" x="39.75" y="-436.6" font-family="Helvetica,sans-Serif" font-size="12.00" fill="#838b8b">1.83s: CheckFacing</text>
<text text-anchor="start" x="39.75" y="-422.7" font-family="Helvetica,sans-Serif" font-size="12.00" fill="#838b8b">3.00s: Done</text>
<text text-anchor="start" x="104.25" y="-422.7" font-family="Helvetica,sans-Serif" font-size="14.00"> &#160;</text>
</g>
<!--  Double Attack 3&#45;&gt;PreAttack -->
<g id="edge3" class="edge">
<title> Double Attack 3&#45;&gt;PreAttack</title>
<path fill="none" stroke="#cdc8b1" d="M154.75,-414.12C197.02,-388.55 252.18,-355.18 288.94,-332.94"/>
<polygon fill="#cdc8b1" stroke="#cdc8b1" points="290.29,-336.22 297.04,-328.04 286.67,-330.23 290.29,-336.22"/>
</g>
<!--  Danger Attack -->
<g id="node5" class="node">
<title> Danger Attack</title>
<polygon fill="none" stroke="black" points="33,-370 33,-391.75 153,-391.75 153,-370 33,-370"/>
<text text-anchor="start" x="45" y="-375.45" font-family="Helvetica,sans-Serif" font-size="14.00"> Danger Attack &#160;</text>
<polygon fill="none" stroke="black" points="33,-314 33,-370 153,-370 153,-314 33,-314"/>
<text text-anchor="start" x="36" y="-356.6" font-family="Helvetica,sans-Serif" font-size="12.00" fill="#838b8b">0.33s: CheckFacing</text>
<text text-anchor="start" x="36" y="-344.6" font-family="Helvetica,sans-Serif" font-size="12.00" fill="#838b8b">1.08s: Evaluate</text>
<text text-anchor="start" x="36" y="-332.6" font-family="Helvetica,sans-Serif" font-size="12.00" fill="#838b8b">1.22s: ResetEvaluate</text>
<text text-anchor="start" x="36" y="-318.7" font-family="Helvetica,sans-Serif" font-size="12.00" fill="#838b8b">1.78s: Done</text>
<text text-anchor="start" x="100.5" y="-318.7" font-family="Helvetica,sans-Serif" font-size="14.00"> &#160;</text>
</g>
<!--  Danger Attack&#45;&gt;PreAttack -->
<g id="edge4" class="edge">
<title> Danger Attack&#45;&gt;PreAttack</title>
<path fill="none" stroke="#cdc8b1" d="M160.95,-340.33C199.3,-333.14 246.51,-324.29 281.08,-317.81"/>
<polygon fill="#cdc8b1" stroke="#cdc8b1" points="281.61,-321.27 290.79,-315.99 280.32,-314.39 281.61,-321.27"/>
</g>
<!-- AttackParrying -->
<g id="node6" class="node">
<title>AttackParrying</title>
<polygon fill="none" stroke="black" points="42.38,-265.88 42.38,-287.62 143.62,-287.62 143.62,-265.88 42.38,-265.88"/>
<text text-anchor="start" x="45.38" y="-271.32" font-family="Helvetica,sans-Serif" font-size="14.00">AttackParrying &#160;</text>
<polygon fill="none" stroke="black" points="42.38,-244.12 42.38,-265.88 143.62,-265.88 143.62,-244.12 42.38,-244.12"/>
<text text-anchor="start" x="45.38" y="-250.57" font-family="Helvetica,sans-Serif" font-size="12.00" fill="#838b8b">0.83s: Done</text>
<text text-anchor="start" x="109.88" y="-250.57" font-family="Helvetica,sans-Serif" font-size="14.00"> &#160;</text>
</g>
<!-- AttackParrying&#45;&gt;PreAttack -->
<g id="edge5" class="edge">
<title>AttackParrying&#45;&gt;PreAttack</title>
<path fill="none" stroke="#cdc8b1" d="M151.42,-276.39C191.15,-283.67 243.4,-293.24 280.88,-300.11"/>
<polygon fill="#cdc8b1" stroke="#cdc8b1" points="280.05,-303.52 290.51,-301.87 281.31,-296.63 280.05,-303.52"/>
</g>
<!-- HurtState -->
<g id="node7" class="node">
<title>HurtState</title>
<polygon fill="none" stroke="black" points="34.5,-196 34.5,-217.75 151.5,-217.75 151.5,-196 34.5,-196"/>
<text text-anchor="start" x="60.75" y="-201.45" font-family="Helvetica,sans-Serif" font-size="14.00">HurtState &#160;</text>
<polygon fill="none" stroke="black" points="34.5,-164 34.5,-196 151.5,-196 151.5,-164 34.5,-164"/>
<text text-anchor="start" x="37.5" y="-182.6" font-family="Helvetica,sans-Serif" font-size="12.00" fill="#838b8b">0.00s: EnableGravity</text>
<text text-anchor="start" x="37.5" y="-168.7" font-family="Helvetica,sans-Serif" font-size="12.00" fill="#838b8b">0.25s: Done</text>
<text text-anchor="start" x="102" y="-168.7" font-family="Helvetica,sans-Serif" font-size="14.00"> &#160;</text>
</g>
<!-- HurtState&#45;&gt;PreAttack -->
<g id="edge6" class="edge">
<title>HurtState&#45;&gt;PreAttack</title>
<path fill="none" stroke="#cdc8b1" d="M155.36,-221.72C195.1,-241.7 246.01,-267.29 282.36,-285.57"/>
<polygon fill="#cdc8b1" stroke="#cdc8b1" points="280.35,-288.47 290.86,-289.84 283.5,-282.22 280.35,-288.47"/>
</g>
<!-- Hurt_BigState -->
<g id="node8" class="node">
<title>Hurt_BigState</title>
<polygon fill="none" stroke="black" points="34.5,-116 34.5,-137.75 151.5,-137.75 151.5,-116 34.5,-116"/>
<text text-anchor="start" x="47.25" y="-121.45" font-family="Helvetica,sans-Serif" font-size="14.00">Hurt_BigState &#160;</text>
<polygon fill="none" stroke="black" points="34.5,-84 34.5,-116 151.5,-116 151.5,-84 34.5,-84"/>
<text text-anchor="start" x="37.5" y="-102.6" font-family="Helvetica,sans-Serif" font-size="12.00" fill="#838b8b">0.00s: EnableGravity</text>
<text text-anchor="start" x="37.5" y="-88.7" font-family="Helvetica,sans-Serif" font-size="12.00" fill="#838b8b">1.00s: Done</text>
<text text-anchor="start" x="102" y="-88.7" font-family="Helvetica,sans-Serif" font-size="14.00"> &#160;</text>
</g>
<!-- Hurt_BigState&#45;&gt;PreAttack -->
<g id="edge7" class="edge">
<title>Hurt_BigState&#45;&gt;PreAttack</title>
<path fill="none" stroke="#cdc8b1" d="M156.33,-141.68C161.06,-144.62 165.67,-147.7 170,-150.88 224.07,-190.61 277.37,-248.58 306.37,-282.14"/>
<polygon fill="#cdc8b1" stroke="#cdc8b1" points="303.4,-284.05 312.56,-289.37 308.72,-279.49 303.4,-284.05"/>
</g>
<!-- PostureBreak -->
<g id="node9" class="node">
<title>PostureBreak</title>
<polygon fill="none" stroke="black" points="34.5,-36 34.5,-57.75 151.5,-57.75 151.5,-36 34.5,-36"/>
<text text-anchor="start" x="48.38" y="-41.45" font-family="Helvetica,sans-Serif" font-size="14.00">PostureBreak &#160;</text>
<polygon fill="none" stroke="black" points="34.5,-4 34.5,-36 151.5,-36 151.5,-4 34.5,-4"/>
<text text-anchor="start" x="37.5" y="-22.6" font-family="Helvetica,sans-Serif" font-size="12.00" fill="#838b8b">0.00s: EnableGravity</text>
<text text-anchor="start" x="37.5" y="-8.7" font-family="Helvetica,sans-Serif" font-size="12.00" fill="#838b8b">3.50s: Done</text>
<text text-anchor="start" x="102" y="-8.7" font-family="Helvetica,sans-Serif" font-size="14.00"> &#160;</text>
</g>
<!-- PostureBreak&#45;&gt;PreAttack -->
<g id="edge8" class="edge">
<title>PostureBreak&#45;&gt;PreAttack</title>
<path fill="none" stroke="#cdc8b1" d="M156.89,-61.71C161.45,-64.62 165.87,-67.69 170,-70.88 213.4,-104.36 221.95,-116.87 253.25,-161.88 280.09,-200.47 303.5,-249.89 316.87,-280.46"/>
<polygon fill="#cdc8b1" stroke="#cdc8b1" points="313.56,-281.63 320.73,-289.43 319.99,-278.86 313.56,-281.63"/>
</g>
<!-- Wandering_Idle -->
<g id="node10" class="node">
<title>Wandering_Idle</title>
<polygon fill="none" stroke="black" points="163.62,-749.88 22.38,-749.88 22.38,-713.88 163.62,-713.88 163.62,-749.88"/>
<text text-anchor="middle" x="93" y="-726.45" font-family="Helvetica,sans-Serif" font-size="14.00">Wandering_Idle (Init)</text>
</g>
<!-- Level Once Sensor -->
<g id="node11" class="node">
<title>Level Once Sensor</title>
<polygon fill="none" stroke="black" points="158.75,-834.88 27.25,-834.88 27.25,-798.88 158.75,-798.88 158.75,-834.88"/>
<text text-anchor="middle" x="93" y="-811.45" font-family="Helvetica,sans-Serif" font-size="14.00">Level Once Sensor</text>
</g>
<!-- Level Once Sensor_linked -->
<g id="node12" class="node">
<title>Level Once Sensor_linked</title>
<polygon fill="none" stroke="black" stroke-dasharray="1,5" points="357.83,-801.88 301.62,-801.88 301.62,-765.88 357.83,-765.88 357.83,-801.88"/>
<text text-anchor="start" x="307.23" y="-778.45" font-family="Helvetica,sans-Serif" font-size="14.00">Attack &#160;</text>
</g>
<!-- Level Once Sensor&#45;&gt;Level Once Sensor_linked -->
<g id="edge9" class="edge">
<title>Level Once Sensor&#45;&gt;Level Once Sensor_linked</title>
<path fill="none" stroke="#66cdaa" d="M159.07,-807.73C201.13,-801.81 254.44,-794.32 289.97,-789.32"/>
<polygon fill="#66cdaa" stroke="#66cdaa" points="290.38,-792.8 299.79,-787.94 289.4,-785.87 290.38,-792.8"/>
<text text-anchor="middle" x="220.62" y="-805.78" font-family="Helvetica,sans-Serif" font-size="14.00" fill="#66cdaa">QueueEnd</text>
</g>
<!-- Level Once Sensor_mustuse -->
<g id="node13" class="node">
<title>Level Once Sensor_mustuse</title>
<polygon fill="none" stroke="black" stroke-dasharray="1,5" points="379.85,-855.88 279.6,-855.88 279.6,-819.88 379.85,-819.88 379.85,-855.88"/>
<text text-anchor="start" x="289.6" y="-832.45" font-family="Helvetica,sans-Serif" font-size="14.00">1 Undefined &#160;</text>
</g>
<!-- Level Once Sensor&#45;&gt;Level Once Sensor_mustuse -->
<g id="edge10" class="edge">
<title>Level Once Sensor&#45;&gt;Level Once Sensor_mustuse</title>
<path fill="none" stroke="#458b74" d="M159.07,-822.7C193.05,-825.74 234.39,-829.44 267.75,-832.42"/>
<polygon fill="#458b74" stroke="#458b74" points="267.41,-835.9 277.68,-833.31 268.04,-828.93 267.41,-835.9"/>
<text text-anchor="middle" x="220.62" y="-833.53" font-family="Helvetica,sans-Serif" font-size="14.00" fill="#458b74">Weight</text>
</g>
<!-- RunAwaySensor -->
<g id="node14" class="node">
<title>RunAwaySensor</title>
<polygon fill="none" stroke="black" points="151.25,-894.88 34.75,-894.88 34.75,-858.88 151.25,-858.88 151.25,-894.88"/>
<text text-anchor="middle" x="93" y="-871.45" font-family="Helvetica,sans-Serif" font-size="14.00">RunAwaySensor</text>
</g>
<!-- AttackSensor -->
<g id="node15" class="node">
<title>AttackSensor</title>
<polygon fill="none" stroke="black" points="141.12,-951.88 44.88,-951.88 44.88,-915.88 141.12,-915.88 141.12,-951.88"/>
<text text-anchor="middle" x="93" y="-928.45" font-family="Helvetica,sans-Serif" font-size="14.00">AttackSensor</text>
</g>
<!-- AttackSensor_linked -->
<g id="node16" class="node">
<title>AttackSensor_linked</title>
<polygon fill="none" stroke="black" stroke-dasharray="1,5" points="388.2,-940.1 271.25,-940.1 271.25,-873.65 388.2,-873.65 388.2,-940.1"/>
<text text-anchor="start" x="307.23" y="-921.2" font-family="Helvetica,sans-Serif" font-size="14.00">Attack &#160;</text>
<text text-anchor="start" x="287.73" y="-901.45" font-family="Helvetica,sans-Serif" font-size="14.00"> Hori Attack2 &#160;</text>
<text text-anchor="start" x="276.85" y="-881.7" font-family="Helvetica,sans-Serif" font-size="14.00"> Double Attack 3 &#160;</text>
</g>
<!-- AttackSensor&#45;&gt;AttackSensor_linked -->
<g id="edge11" class="edge">
<title>AttackSensor&#45;&gt;AttackSensor_linked</title>
<path fill="none" stroke="#66cdaa" d="M141.5,-928.41C175.52,-924.5 221.85,-919.17 259.91,-914.79"/>
<polygon fill="#66cdaa" stroke="#66cdaa" points="259.88,-918.32 269.41,-913.7 259.08,-911.36 259.88,-918.32"/>
<text text-anchor="middle" x="220.62" y="-925.24" font-family="Helvetica,sans-Serif" font-size="14.00" fill="#66cdaa">QueueEnd</text>
</g>
<!-- AttackSensor_mustuse -->
<g id="node17" class="node">
<title>AttackSensor_mustuse</title>
<polygon fill="none" stroke="black" stroke-dasharray="1,5" points="362.23,-1045.38 297.23,-1045.38 297.23,-958.38 362.23,-958.38 362.23,-1045.38"/>
<text text-anchor="start" x="307.23" y="-1026.08" font-family="Helvetica,sans-Serif" font-size="14.00">1 Skip &#160;</text>
<text text-anchor="start" x="307.23" y="-1006.33" font-family="Helvetica,sans-Serif" font-size="14.00">0 Skip &#160;</text>
<text text-anchor="start" x="307.23" y="-986.58" font-family="Helvetica,sans-Serif" font-size="14.00">1 Skip &#160;</text>
<text text-anchor="start" x="307.23" y="-966.83" font-family="Helvetica,sans-Serif" font-size="14.00">1 Skip &#160;</text>
</g>
<!-- AttackSensor&#45;&gt;AttackSensor_mustuse -->
<g id="edge12" class="edge">
<title>AttackSensor&#45;&gt;AttackSensor_mustuse</title>
<path fill="none" stroke="#458b74" d="M141.5,-947.64C183.87,-959.91 245.33,-977.72 286.13,-989.54"/>
<polygon fill="#458b74" stroke="#458b74" points="285.03,-992.86 295.61,-992.28 286.98,-986.14 285.03,-992.86"/>
<text text-anchor="middle" x="220.62" y="-982.33" font-family="Helvetica,sans-Serif" font-size="14.00" fill="#458b74">Weight</text>
</g>
<!-- DodgePredictSensor -->
<g id="node18" class="node">
<title>DodgePredictSensor</title>
<polygon fill="none" stroke="black" points="24,-1041.88 24,-1063.62 162,-1063.62 162,-1041.88 24,-1041.88"/>
<text text-anchor="start" x="27" y="-1047.33" font-family="Helvetica,sans-Serif" font-size="14.00">DodgePredictSensor &#160;</text>
<polygon fill="none" stroke="black" points="24,-1020.12 24,-1041.88 162,-1041.88 162,-1020.12 24,-1020.12"/>
<text text-anchor="start" x="27" y="-1026.58" font-family="Helvetica,sans-Serif" font-size="12.00" fill="#838b8b">if: Dodge</text>
<text text-anchor="start" x="75" y="-1026.58" font-family="Helvetica,sans-Serif" font-size="14.00"> &#160;</text>
</g>
<!-- DodgePredictSensor_linked -->
<g id="node19" class="node">
<title>DodgePredictSensor_linked</title>
<polygon fill="none" stroke="black" stroke-dasharray="1,5" points="357.83,-1099.88 301.62,-1099.88 301.62,-1063.88 357.83,-1063.88 357.83,-1099.88"/>
<text text-anchor="start" x="307.23" y="-1076.45" font-family="Helvetica,sans-Serif" font-size="14.00">Attack &#160;</text>
</g>
<!-- DodgePredictSensor&#45;&gt;DodgePredictSensor_linked -->
<g id="edge13" class="edge">
<title>DodgePredictSensor&#45;&gt;DodgePredictSensor_linked</title>
<path fill="none" stroke="#66cdaa" d="M169.88,-1054.81C209.97,-1061.64 257.46,-1069.73 290,-1075.28"/>
<polygon fill="#66cdaa" stroke="#66cdaa" points="289.34,-1078.71 299.78,-1076.94 290.51,-1071.81 289.34,-1078.71"/>
<text text-anchor="middle" x="220.62" y="-1071.39" font-family="Helvetica,sans-Serif" font-size="14.00" fill="#66cdaa">QueueEnd</text>
</g>
<!-- AttackPredictSensor -->
<g id="node20" class="node">
<title>AttackPredictSensor</title>
<polygon fill="none" stroke="black" points="25.12,-1111.88 25.12,-1133.62 160.88,-1133.62 160.88,-1111.88 25.12,-1111.88"/>
<text text-anchor="start" x="28.12" y="-1117.33" font-family="Helvetica,sans-Serif" font-size="14.00">AttackPredictSensor &#160;</text>
<polygon fill="none" stroke="black" points="25.12,-1090.12 25.12,-1111.88 160.88,-1111.88 160.88,-1090.12 25.12,-1090.12"/>
<text text-anchor="start" x="28.12" y="-1096.58" font-family="Helvetica,sans-Serif" font-size="12.00" fill="#838b8b">if: Attack</text>
<text text-anchor="start" x="73.12" y="-1096.58" font-family="Helvetica,sans-Serif" font-size="14.00"> &#160;</text>
</g>
<!-- AttackPredictSensor_linked -->
<g id="node21" class="node">
<title>AttackPredictSensor_linked</title>
<polygon fill="none" stroke="black" stroke-dasharray="1,5" points="357.83,-1153.88 301.62,-1153.88 301.62,-1117.88 357.83,-1117.88 357.83,-1153.88"/>
<text text-anchor="start" x="307.23" y="-1130.45" font-family="Helvetica,sans-Serif" font-size="14.00">Attack &#160;</text>
</g>
<!-- AttackPredictSensor&#45;&gt;AttackPredictSensor_linked -->
<g id="edge14" class="edge">
<title>AttackPredictSensor&#45;&gt;AttackPredictSensor_linked</title>
<path fill="none" stroke="#66cdaa" d="M168.59,-1119.5C208.88,-1123.62 256.96,-1128.54 289.86,-1131.9"/>
<polygon fill="#66cdaa" stroke="#66cdaa" points="289.44,-1135.38 299.74,-1132.91 290.15,-1128.41 289.44,-1135.38"/>
<text text-anchor="middle" x="220.62" y="-1130.56" font-family="Helvetica,sans-Serif" font-size="14.00" fill="#66cdaa">QueueEnd</text>
</g>
<!-- AttackRunToSensor -->
<g id="node22" class="node">
<title>AttackRunToSensor</title>
<polygon fill="none" stroke="black" points="26.62,-1181.88 26.62,-1203.62 159.38,-1203.62 159.38,-1181.88 26.62,-1181.88"/>
<text text-anchor="start" x="29.62" y="-1187.33" font-family="Helvetica,sans-Serif" font-size="14.00">AttackRunToSensor &#160;</text>
<polygon fill="none" stroke="black" points="26.62,-1160.12 26.62,-1181.88 159.38,-1181.88 159.38,-1160.12 26.62,-1160.12"/>
<text text-anchor="start" x="29.62" y="-1166.58" font-family="Helvetica,sans-Serif" font-size="12.00" fill="#838b8b">if: state is Engaging</text>
<text text-anchor="start" x="133.88" y="-1166.58" font-family="Helvetica,sans-Serif" font-size="14.00"> &#160;</text>
</g>
<!-- AttackRunToSensor_linked -->
<g id="node23" class="node">
<title>AttackRunToSensor_linked</title>
<polygon fill="none" stroke="black" stroke-dasharray="1,5" points="357.83,-1207.88 301.62,-1207.88 301.62,-1171.88 357.83,-1171.88 357.83,-1207.88"/>
<text text-anchor="start" x="307.23" y="-1184.45" font-family="Helvetica,sans-Serif" font-size="14.00">Attack &#160;</text>
</g>
<!-- AttackRunToSensor&#45;&gt;AttackRunToSensor_linked -->
<g id="edge15" class="edge">
<title>AttackRunToSensor&#45;&gt;AttackRunToSensor_linked</title>
<path fill="none" stroke="#66cdaa" d="M167.3,-1184.37C207.8,-1185.75 256.47,-1187.41 289.72,-1188.55"/>
<polygon fill="#66cdaa" stroke="#66cdaa" points="289.59,-1192.04 299.71,-1188.89 289.83,-1185.05 289.59,-1192.04"/>
<text text-anchor="middle" x="220.62" y="-1189.74" font-family="Helvetica,sans-Serif" font-size="14.00" fill="#66cdaa">QueueEnd</text>
</g>
</g>
</svg>
