<?xml version="1.0" encoding="UTF-8" standalone="no"?>
<!DOCTYPE svg PUBLIC "-//W3C//DTD SVG 1.1//EN"
 "http://www.w3.org/Graphics/SVG/1.1/DTD/svg11.dtd">
<!-- Generated by graphviz version 12.2.1 (20241206.2353)
 -->
<!-- Title: Foo Pages: 1 -->
<svg width="393pt" height="1110pt"
 viewBox="0.00 0.00 393.25 1109.75" xmlns="http://www.w3.org/2000/svg" xmlns:xlink="http://www.w3.org/1999/xlink">
<g id="graph0" class="graph" transform="scale(1 1) rotate(0) translate(4 1105.75)">
<title>Foo</title>
<polygon fill="white" stroke="none" points="-4,4 -4,-1105.75 389.25,-1105.75 389.25,4 -4,4"/>
<g id="clust1" class="cluster">
<title>cluster_attacksensors</title>
<polygon fill="none" stroke="black" points="8,-413.75 8,-1093.75 377.25,-1093.75 377.25,-413.75 8,-413.75"/>
<text text-anchor="middle" x="192.62" y="-1076.45" font-family="Helvetica,sans-Serif" font-size="14.00">Attack Sensors</text>
</g>
<!-- JumpAway -->
<g id="node1" class="node">
<title>JumpAway</title>
<polygon fill="none" stroke="black" points="51.75,-95.75 51.75,-117.5 132,-117.5 132,-95.75 51.75,-95.75"/>
<text text-anchor="start" x="54.75" y="-101.2" font-family="Helvetica,sans-Serif" font-size="14.00">JumpAway &#160;</text>
<polygon fill="none" stroke="black" points="51.75,-74 51.75,-95.75 132,-95.75 132,-74 51.75,-74"/>
<text text-anchor="start" x="54.75" y="-80.45" font-family="Helvetica,sans-Serif" font-size="12.00" fill="#838b8b">0.92s: Done</text>
<text text-anchor="start" x="119.25" y="-80.45" font-family="Helvetica,sans-Serif" font-size="14.00"> &#160;</text>
</g>
<!-- Engaging -->
<g id="node2" class="node">
<title>Engaging</title>
<polygon fill="none" stroke="black" points="355.62,-78.75 282.62,-78.75 282.62,-42.75 355.62,-42.75 355.62,-78.75"/>
<text text-anchor="middle" x="319.12" y="-55.33" font-family="Helvetica,sans-Serif" font-size="14.00">Engaging</text>
</g>
<!-- JumpAway&#45;&gt;Engaging -->
<g id="edge1" class="edge">
<title>JumpAway&#45;&gt;Engaging</title>
<path fill="none" stroke="#cdc8b1" d="M139.82,-88.46C178.43,-82.46 232.87,-74 271.41,-68.01"/>
<polygon fill="#cdc8b1" stroke="#cdc8b1" points="271.49,-71.54 280.83,-66.54 270.42,-64.62 271.49,-71.54"/>
</g>
<!-- Shoot -->
<g id="node3" class="node">
<title>Shoot</title>
<polygon fill="none" stroke="black" points="52.88,-25.75 52.88,-47.5 130.88,-47.5 130.88,-25.75 52.88,-25.75"/>
<text text-anchor="start" x="70.5" y="-31.2" font-family="Helvetica,sans-Serif" font-size="14.00">Shoot &#160;</text>
<polygon fill="none" stroke="black" points="52.88,-4 52.88,-25.75 130.88,-25.75 130.88,-4 52.88,-4"/>
<text text-anchor="start" x="55.88" y="-10.45" font-family="Helvetica,sans-Serif" font-size="12.00" fill="#838b8b">1.17s: Done</text>
<text text-anchor="start" x="120.38" y="-10.45" font-family="Helvetica,sans-Serif" font-size="14.00"> &#160;</text>
</g>
<!-- Shoot&#45;&gt;Engaging -->
<g id="edge2" class="edge">
<title>Shoot&#45;&gt;Engaging</title>
<path fill="none" stroke="#cdc8b1" d="M138.73,-32.87C177.28,-38.87 232.17,-47.39 271.06,-53.44"/>
<polygon fill="#cdc8b1" stroke="#cdc8b1" points="270.41,-56.88 280.83,-54.96 271.49,-49.96 270.41,-56.88"/>
</g>
<!-- HurtState -->
<g id="node4" class="node">
<title>HurtState</title>
<polygon fill="none" stroke="black" points="33.38,-255.88 33.38,-277.62 150.38,-277.62 150.38,-255.88 33.38,-255.88"/>
<text text-anchor="start" x="59.62" y="-261.32" font-family="Helvetica,sans-Serif" font-size="14.00">HurtState &#160;</text>
<polygon fill="none" stroke="black" points="33.38,-223.88 33.38,-255.88 150.38,-255.88 150.38,-223.88 33.38,-223.88"/>
<text text-anchor="start" x="36.38" y="-242.47" font-family="Helvetica,sans-Serif" font-size="12.00" fill="#838b8b">0.00s: EnableGravity</text>
<text text-anchor="start" x="36.38" y="-228.57" font-family="Helvetica,sans-Serif" font-size="12.00" fill="#838b8b">0.25s: Done</text>
<text text-anchor="start" x="100.88" y="-228.57" font-family="Helvetica,sans-Serif" font-size="14.00"> &#160;</text>
</g>
<!-- PreAttack -->
<g id="node5" class="node">
<title>PreAttack</title>
<polygon fill="none" stroke="black" points="356.38,-228.75 281.88,-228.75 281.88,-192.75 356.38,-192.75 356.38,-228.75"/>
<text text-anchor="middle" x="319.12" y="-205.32" font-family="Helvetica,sans-Serif" font-size="14.00">PreAttack</text>
</g>
<!-- HurtState&#45;&gt;PreAttack -->
<g id="edge3" class="edge">
<title>HurtState&#45;&gt;PreAttack</title>
<path fill="none" stroke="#cdc8b1" d="M158.33,-239.13C194.23,-232.75 237.94,-224.99 270.57,-219.2"/>
<polygon fill="#cdc8b1" stroke="#cdc8b1" points="270.89,-222.69 280.12,-217.5 269.67,-215.8 270.89,-222.69"/>
</g>
<!-- Hurt_BigState -->
<g id="node6" class="node">
<title>Hurt_BigState</title>
<polygon fill="none" stroke="black" points="33.38,-175.88 33.38,-197.62 150.38,-197.62 150.38,-175.88 33.38,-175.88"/>
<text text-anchor="start" x="46.12" y="-181.32" font-family="Helvetica,sans-Serif" font-size="14.00">Hurt_BigState &#160;</text>
<polygon fill="none" stroke="black" points="33.38,-143.88 33.38,-175.88 150.38,-175.88 150.38,-143.88 33.38,-143.88"/>
<text text-anchor="start" x="36.38" y="-162.47" font-family="Helvetica,sans-Serif" font-size="12.00" fill="#838b8b">0.00s: EnableGravity</text>
<text text-anchor="start" x="36.38" y="-148.57" font-family="Helvetica,sans-Serif" font-size="12.00" fill="#838b8b">1.00s: Done</text>
<text text-anchor="start" x="100.88" y="-148.57" font-family="Helvetica,sans-Serif" font-size="14.00"> &#160;</text>
</g>
<!-- Hurt_BigState&#45;&gt;PreAttack -->
<g id="edge4" class="edge">
<title>Hurt_BigState&#45;&gt;PreAttack</title>
<path fill="none" stroke="#cdc8b1" d="M158.33,-182.37C194.23,-188.75 237.94,-196.51 270.57,-202.3"/>
<polygon fill="#cdc8b1" stroke="#cdc8b1" points="269.67,-205.7 280.12,-204 270.89,-198.81 269.67,-205.7"/>
</g>
<!-- ZExitState -->
<g id="node7" class="node">
<title>ZExitState</title>
<polygon fill="none" stroke="black" points="29.62,-325.75 29.62,-347.5 154.12,-347.5 154.12,-325.75 29.62,-325.75"/>
<text text-anchor="start" x="57" y="-331.2" font-family="Helvetica,sans-Serif" font-size="14.00">ZExitState &#160;</text>
<polygon fill="none" stroke="black" points="29.62,-304 29.62,-325.75 154.12,-325.75 154.12,-304 29.62,-304"/>
<text text-anchor="start" x="32.62" y="-310.45" font-family="Helvetica,sans-Serif" font-size="12.00" fill="#838b8b">0.00s: EnableGravity</text>
<text text-anchor="start" x="143.62" y="-310.45" font-family="Helvetica,sans-Serif" font-size="14.00"> &#160;</text>
</g>
<!-- Wandering_Idle -->
<g id="node8" class="node">
<title>Wandering_Idle</title>
<polygon fill="none" stroke="black" points="162.5,-405.75 21.25,-405.75 21.25,-369.75 162.5,-369.75 162.5,-405.75"/>
<text text-anchor="middle" x="91.88" y="-382.32" font-family="Helvetica,sans-Serif" font-size="14.00">Wandering_Idle (Init)</text>
</g>
<!-- Level Once Sensor -->
<g id="node9" class="node">
<title>Level Once Sensor</title>
<polygon fill="none" stroke="black" points="157.62,-496.75 26.12,-496.75 26.12,-460.75 157.62,-460.75 157.62,-496.75"/>
<text text-anchor="middle" x="91.88" y="-473.32" font-family="Helvetica,sans-Serif" font-size="14.00">Level Once Sensor</text>
</g>
<!-- Level Once Sensor_linked -->
<g id="node10" class="node">
<title>Level Once Sensor_linked</title>
<polygon fill="none" stroke="black" stroke-dasharray="1,5" points="361.85,-457.75 276.4,-457.75 276.4,-421.75 361.85,-421.75 361.85,-457.75"/>
<text text-anchor="start" x="282" y="-434.32" font-family="Helvetica,sans-Serif" font-size="14.00">JumpAway &#160;</text>
</g>
<!-- Level Once Sensor&#45;&gt;Level Once Sensor_linked -->
<g id="edge5" class="edge">
<title>Level Once Sensor&#45;&gt;Level Once Sensor_linked</title>
<path fill="none" stroke="#66cdaa" d="M158.03,-467.47C192.08,-461.57 233.22,-454.45 265.27,-448.9"/>
<polygon fill="#66cdaa" stroke="#66cdaa" points="265.46,-452.42 274.71,-447.27 264.26,-445.52 265.46,-452.42"/>
<text text-anchor="middle" x="218.38" y="-464.04" font-family="Helvetica,sans-Serif" font-size="14.00" fill="#66cdaa">QueueEnd</text>
</g>
<!-- Level Once Sensor_mustuse -->
<g id="node11" class="node">
<title>Level Once Sensor_mustuse</title>
<polygon fill="none" stroke="black" stroke-dasharray="1,5" points="369.25,-511.75 269,-511.75 269,-475.75 369.25,-475.75 369.25,-511.75"/>
<text text-anchor="start" x="279" y="-488.32" font-family="Helvetica,sans-Serif" font-size="14.00">1 Undefined &#160;</text>
</g>
<!-- Level Once Sensor&#45;&gt;Level Once Sensor_mustuse -->
<g id="edge6" class="edge">
<title>Level Once Sensor&#45;&gt;Level Once Sensor_mustuse</title>
<path fill="none" stroke="#458b74" d="M158.03,-483.09C189.25,-485.17 226.43,-487.64 257.1,-489.69"/>
<polygon fill="#458b74" stroke="#458b74" points="256.79,-493.17 267,-490.35 257.25,-486.19 256.79,-493.17"/>
<text text-anchor="middle" x="218.38" y="-491.35" font-family="Helvetica,sans-Serif" font-size="14.00" fill="#458b74">Weight</text>
</g>
<!-- RunAwaySensor -->
<g id="node12" class="node">
<title>RunAwaySensor</title>
<polygon fill="none" stroke="black" points="150.12,-576.75 33.62,-576.75 33.62,-540.75 150.12,-540.75 150.12,-576.75"/>
<text text-anchor="middle" x="91.88" y="-553.33" font-family="Helvetica,sans-Serif" font-size="14.00">RunAwaySensor</text>
</g>
<!-- RunAwaySensor_linked -->
<g id="node13" class="node">
<title>RunAwaySensor_linked</title>
<polygon fill="none" stroke="black" stroke-dasharray="1,5" points="357.35,-565.75 280.9,-565.75 280.9,-529.75 357.35,-529.75 357.35,-565.75"/>
<text text-anchor="start" x="286.5" y="-542.33" font-family="Helvetica,sans-Serif" font-size="14.00">RunAway &#160;</text>
</g>
<!-- RunAwaySensor&#45;&gt;RunAwaySensor_linked -->
<g id="edge7" class="edge">
<title>RunAwaySensor&#45;&gt;RunAwaySensor_linked</title>
<path fill="none" stroke="#66cdaa" d="M150.59,-555.93C187.36,-554.14 234.47,-551.84 269.37,-550.13"/>
<polygon fill="#66cdaa" stroke="#66cdaa" points="269.37,-553.64 279.19,-549.65 269.03,-546.64 269.37,-553.64"/>
<text text-anchor="middle" x="218.38" y="-556.36" font-family="Helvetica,sans-Serif" font-size="14.00" fill="#66cdaa">QueueEnd</text>
</g>
<!-- RunAwaySensor_mustuse -->
<g id="node14" class="node">
<title>RunAwaySensor_mustuse</title>
<polygon fill="none" stroke="black" stroke-dasharray="1,5" points="351.62,-619.75 286.62,-619.75 286.62,-583.75 351.62,-583.75 351.62,-619.75"/>
<text text-anchor="start" x="296.62" y="-596.33" font-family="Helvetica,sans-Serif" font-size="14.00">1 Skip &#160;</text>
</g>
<!-- RunAwaySensor&#45;&gt;RunAwaySensor_mustuse -->
<g id="edge8" class="edge">
<title>RunAwaySensor&#45;&gt;RunAwaySensor_mustuse</title>
<path fill="none" stroke="#458b74" d="M150.59,-569.77C189.52,-577.2 240.04,-586.84 275.39,-593.59"/>
<polygon fill="#458b74" stroke="#458b74" points="274.33,-596.95 284.81,-595.39 275.64,-590.08 274.33,-596.95"/>
<text text-anchor="middle" x="218.38" y="-590.29" font-family="Helvetica,sans-Serif" font-size="14.00" fill="#458b74">Weight</text>
</g>
<!-- AttackSensor -->
<g id="node15" class="node">
<title>AttackSensor</title>
<polygon fill="none" stroke="black" points="140,-698.75 43.75,-698.75 43.75,-662.75 140,-662.75 140,-698.75"/>
<text text-anchor="middle" x="91.88" y="-675.33" font-family="Helvetica,sans-Serif" font-size="14.00">AttackSensor</text>
</g>
<!-- AttackSensor_linked -->
<g id="node16" class="node">
<title>AttackSensor_linked</title>
<polygon fill="none" stroke="black" stroke-dasharray="1,5" points="361.85,-673.75 276.4,-673.75 276.4,-637.75 361.85,-637.75 361.85,-673.75"/>
<text text-anchor="start" x="282" y="-650.33" font-family="Helvetica,sans-Serif" font-size="14.00">JumpAway &#160;</text>
</g>
<!-- AttackSensor&#45;&gt;AttackSensor_linked -->
<g id="edge9" class="edge">
<title>AttackSensor&#45;&gt;AttackSensor_linked</title>
<path fill="none" stroke="#66cdaa" d="M140.47,-671.76C154.97,-669.27 170.97,-666.76 185.75,-665 211.6,-661.91 240.42,-659.75 264.56,-658.29"/>
<polygon fill="#66cdaa" stroke="#66cdaa" points="264.7,-661.79 274.48,-657.72 264.3,-654.8 264.7,-661.79"/>
<text text-anchor="middle" x="218.38" y="-667.45" font-family="Helvetica,sans-Serif" font-size="14.00" fill="#66cdaa">QueueEnd</text>
</g>
<!-- AttackSensor_mustuse -->
<g id="node17" class="node">
<title>AttackSensor_mustuse</title>
<polygon fill="none" stroke="black" stroke-dasharray="1,5" points="369.25,-727.75 269,-727.75 269,-691.75 369.25,-691.75 369.25,-727.75"/>
<text text-anchor="start" x="279" y="-704.33" font-family="Helvetica,sans-Serif" font-size="14.00">1 Undefined &#160;</text>
</g>
<!-- AttackSensor&#45;&gt;AttackSensor_mustuse -->
<g id="edge10" class="edge">
<title>AttackSensor&#45;&gt;AttackSensor_mustuse</title>
<path fill="none" stroke="#458b74" d="M140.37,-686.86C174.53,-691.26 220.86,-697.23 257.66,-701.97"/>
<polygon fill="#458b74" stroke="#458b74" points="256.88,-705.39 267.25,-703.2 257.77,-698.45 256.88,-705.39"/>
<text text-anchor="middle" x="218.38" y="-702.82" font-family="Helvetica,sans-Serif" font-size="14.00" fill="#458b74">Weight</text>
</g>
<!-- DodgePredictSensor -->
<g id="node18" class="node">
<title>DodgePredictSensor</title>
<polygon fill="none" stroke="black" points="162.12,-781.75 21.62,-781.75 21.62,-745.75 162.12,-745.75 162.12,-781.75"/>
<text text-anchor="middle" x="91.88" y="-758.33" font-family="Helvetica,sans-Serif" font-size="14.00">DodgePredictSensor</text>
</g>
<!-- DodgePredictSensor_linked -->
<g id="node19" class="node">
<title>DodgePredictSensor_linked</title>
<polygon fill="none" stroke="black" stroke-dasharray="1,5" points="361.85,-781.75 276.4,-781.75 276.4,-745.75 361.85,-745.75 361.85,-781.75"/>
<text text-anchor="start" x="282" y="-758.33" font-family="Helvetica,sans-Serif" font-size="14.00">JumpAway &#160;</text>
</g>
<!-- DodgePredictSensor&#45;&gt;DodgePredictSensor_linked -->
<g id="edge11" class="edge">
<title>DodgePredictSensor&#45;&gt;DodgePredictSensor_linked</title>
<path fill="none" stroke="#66cdaa" d="M162.6,-763.75C195.48,-763.75 234.1,-763.75 264.63,-763.75"/>
<polygon fill="#66cdaa" stroke="#66cdaa" points="264.39,-767.25 274.39,-763.75 264.39,-760.25 264.39,-767.25"/>
<text text-anchor="middle" x="218.38" y="-766.2" font-family="Helvetica,sans-Serif" font-size="14.00" fill="#66cdaa">QueueEnd</text>
</g>
<!-- AttackPredictSensor -->
<g id="node20" class="node">
<title>AttackPredictSensor</title>
<polygon fill="none" stroke="black" points="24,-841.75 24,-863.5 159.75,-863.5 159.75,-841.75 24,-841.75"/>
<text text-anchor="start" x="27" y="-847.2" font-family="Helvetica,sans-Serif" font-size="14.00">AttackPredictSensor &#160;</text>
<polygon fill="none" stroke="black" points="24,-820 24,-841.75 159.75,-841.75 159.75,-820 24,-820"/>
<text text-anchor="start" x="27" y="-826.45" font-family="Helvetica,sans-Serif" font-size="12.00" fill="#838b8b">if: Attack</text>
<text text-anchor="start" x="72" y="-826.45" font-family="Helvetica,sans-Serif" font-size="14.00"> &#160;</text>
</g>
<!-- AttackPredictSensor_linked -->
<g id="node21" class="node">
<title>AttackPredictSensor_linked</title>
<polygon fill="none" stroke="black" stroke-dasharray="1,5" points="361.85,-835.75 276.4,-835.75 276.4,-799.75 361.85,-799.75 361.85,-835.75"/>
<text text-anchor="start" x="282" y="-812.33" font-family="Helvetica,sans-Serif" font-size="14.00">JumpAway &#160;</text>
</g>
<!-- AttackPredictSensor&#45;&gt;AttackPredictSensor_linked -->
<g id="edge12" class="edge">
<title>AttackPredictSensor&#45;&gt;AttackPredictSensor_linked</title>
<path fill="none" stroke="#66cdaa" d="M167.57,-833.79C199.45,-830.39 235.92,-826.51 264.98,-823.41"/>
<polygon fill="#66cdaa" stroke="#66cdaa" points="265.06,-826.92 274.63,-822.38 264.32,-819.96 265.06,-826.92"/>
<text text-anchor="middle" x="218.38" y="-833.64" font-family="Helvetica,sans-Serif" font-size="14.00" fill="#66cdaa">QueueEnd</text>
</g>
<!-- AttackPredictSensor_mustuse -->
<g id="node22" class="node">
<title>AttackPredictSensor_mustuse</title>
<polygon fill="none" stroke="black" stroke-dasharray="1,5" points="351.62,-889.75 286.62,-889.75 286.62,-853.75 351.62,-853.75 351.62,-889.75"/>
<text text-anchor="start" x="296.62" y="-866.33" font-family="Helvetica,sans-Serif" font-size="14.00">1 Skip &#160;</text>
</g>
<!-- AttackPredictSensor&#45;&gt;AttackPredictSensor_mustuse -->
<g id="edge13" class="edge">
<title>AttackPredictSensor&#45;&gt;AttackPredictSensor_mustuse</title>
<path fill="none" stroke="#458b74" d="M167.57,-851.7C203.34,-856.46 244.89,-862 275.27,-866.04"/>
<polygon fill="#458b74" stroke="#458b74" points="274.45,-869.46 284.83,-867.31 275.38,-862.53 274.45,-869.46"/>
<text text-anchor="middle" x="218.38" y="-864.5" font-family="Helvetica,sans-Serif" font-size="14.00" fill="#458b74">Weight</text>
</g>
<!-- AttackRunToSensor -->
<g id="node23" class="node">
<title>AttackRunToSensor</title>
<polygon fill="none" stroke="black" points="25.5,-925.75 25.5,-947.5 158.25,-947.5 158.25,-925.75 25.5,-925.75"/>
<text text-anchor="start" x="28.5" y="-931.2" font-family="Helvetica,sans-Serif" font-size="14.00">AttackRunToSensor &#160;</text>
<polygon fill="none" stroke="black" points="25.5,-904 25.5,-925.75 158.25,-925.75 158.25,-904 25.5,-904"/>
<text text-anchor="start" x="28.5" y="-910.45" font-family="Helvetica,sans-Serif" font-size="12.00" fill="#838b8b">if: state is Engaging</text>
<text text-anchor="start" x="132.75" y="-910.45" font-family="Helvetica,sans-Serif" font-size="14.00"> &#160;</text>
</g>
<!-- AttackRunToSensor_linked -->
<g id="node24" class="node">
<title>AttackRunToSensor_linked</title>
<polygon fill="none" stroke="black" stroke-dasharray="1,5" points="361.85,-943.75 276.4,-943.75 276.4,-907.75 361.85,-907.75 361.85,-943.75"/>
<text text-anchor="start" x="282" y="-920.33" font-family="Helvetica,sans-Serif" font-size="14.00">JumpAway &#160;</text>
</g>
<!-- AttackRunToSensor&#45;&gt;AttackRunToSensor_linked -->
<g id="edge14" class="edge">
<title>AttackRunToSensor&#45;&gt;AttackRunToSensor_linked</title>
<path fill="none" stroke="#66cdaa" d="M166.01,-925.75C198.21,-925.75 235.36,-925.75 264.88,-925.75"/>
<polygon fill="#66cdaa" stroke="#66cdaa" points="264.69,-929.25 274.69,-925.75 264.69,-922.25 264.69,-929.25"/>
<text text-anchor="middle" x="218.38" y="-928.2" font-family="Helvetica,sans-Serif" font-size="14.00" fill="#66cdaa">QueueEnd</text>
</g>
<!-- ShootSensor -->
<g id="node25" class="node">
<title>ShootSensor</title>
<polygon fill="none" stroke="black" points="138.88,-1013.75 44.87,-1013.75 44.87,-977.75 138.88,-977.75 138.88,-1013.75"/>
<text text-anchor="middle" x="91.88" y="-990.33" font-family="Helvetica,sans-Serif" font-size="14.00">ShootSensor</text>
</g>
<!-- ShootSensor_linked -->
<g id="node26" class="node">
<title>ShootSensor_linked</title>
<polygon fill="none" stroke="black" stroke-dasharray="1,5" points="359.6,-1008.1 278.65,-1008.1 278.65,-961.4 359.6,-961.4 359.6,-1008.1"/>
<text text-anchor="start" x="297.75" y="-989.2" font-family="Helvetica,sans-Serif" font-size="14.00">Shoot &#160;</text>
<text text-anchor="start" x="284.25" y="-969.45" font-family="Helvetica,sans-Serif" font-size="14.00">ZExitState &#160;</text>
</g>
<!-- ShootSensor&#45;&gt;ShootSensor_linked -->
<g id="edge15" class="edge">
<title>ShootSensor&#45;&gt;ShootSensor_linked</title>
<path fill="none" stroke="#66cdaa" d="M139.27,-993.48C176.39,-991.67 228.39,-989.13 266.75,-987.26"/>
<polygon fill="#66cdaa" stroke="#66cdaa" points="266.86,-990.76 276.68,-986.77 266.52,-983.77 266.86,-990.76"/>
<text text-anchor="middle" x="218.38" y="-993.36" font-family="Helvetica,sans-Serif" font-size="14.00" fill="#66cdaa">QueueEnd</text>
</g>
<!-- ShootSensor_mustuse -->
<g id="node27" class="node">
<title>ShootSensor_mustuse</title>
<polygon fill="none" stroke="black" stroke-dasharray="1,5" points="369.25,-1061.75 269,-1061.75 269,-1025.75 369.25,-1025.75 369.25,-1061.75"/>
<text text-anchor="start" x="279" y="-1038.33" font-family="Helvetica,sans-Serif" font-size="14.00">3 Undefined &#160;</text>
</g>
<!-- ShootSensor&#45;&gt;ShootSensor_mustuse -->
<g id="edge16" class="edge">
<title>ShootSensor&#45;&gt;ShootSensor_mustuse</title>
<path fill="none" stroke="#458b74" d="M139.27,-1005.64C173.47,-1012.92 220.3,-1022.9 257.46,-1030.82"/>
<polygon fill="#458b74" stroke="#458b74" points="256.67,-1034.23 267.18,-1032.89 258.13,-1027.39 256.67,-1034.23"/>
<text text-anchor="middle" x="218.38" y="-1030.67" font-family="Helvetica,sans-Serif" font-size="14.00" fill="#458b74">Weight</text>
</g>
</g>
</svg>
