<?xml version="1.0" encoding="UTF-8" standalone="no"?>
<!DOCTYPE svg PUBLIC "-//W3C//DTD SVG 1.1//EN"
 "http://www.w3.org/Graphics/SVG/1.1/DTD/svg11.dtd">
<!-- Generated by graphviz version 12.2.1 (20241206.2353)
 -->
<!-- Title: Foo Pages: 1 -->
<svg width="401pt" height="1110pt"
 viewBox="0.00 0.00 400.75 1110.00" xmlns="http://www.w3.org/2000/svg" xmlns:xlink="http://www.w3.org/1999/xlink">
<g id="graph0" class="graph" transform="scale(1 1) rotate(0) translate(4 1106)">
<title>Foo</title>
<polygon fill="white" stroke="none" points="-4,4 -4,-1106 396.75,-1106 396.75,4 -4,4"/>
<g id="clust1" class="cluster">
<title>cluster_attacksensors</title>
<polygon fill="none" stroke="black" points="8,-8 8,-688 384.75,-688 384.75,-8 8,-8"/>
<text text-anchor="middle" x="196.38" y="-670.7" font-family="Helvetica,sans-Serif" font-size="14.00">Attack Sensors</text>
</g>
<!-- Level Once Sensor -->
<g id="node1" class="node">
<title>Level Once Sensor</title>
<polygon fill="none" stroke="black" points="28.5,-48.12 28.5,-69.88 157.5,-69.88 157.5,-48.12 28.5,-48.12"/>
<text text-anchor="start" x="31.5" y="-53.58" font-family="Helvetica,sans-Serif" font-size="14.00">Level Once Sensor &#160;</text>
</g>
<!-- Level Once Sensor_linked -->
<g id="node2" class="node">
<title>Level Once Sensor_linked</title>
<polygon fill="none" stroke="black" stroke-dasharray="1,5" points="366.73,-52 281.27,-52 281.27,-16 366.73,-16 366.73,-52"/>
<text text-anchor="start" x="286.88" y="-28.57" font-family="Helvetica,sans-Serif" font-size="14.00">JumpAway &#160;</text>
</g>
<!-- Level Once Sensor&#45;&gt;Level Once Sensor_linked -->
<g id="edge1" class="edge">
<title>Level Once Sensor&#45;&gt;Level Once Sensor_linked</title>
<path fill="none" stroke="#66cdaa" d="M165.49,-46.28C173.08,-45.15 180.69,-44.11 188,-43.25 214.79,-40.1 244.7,-37.91 269.55,-36.46"/>
<polygon fill="#66cdaa" stroke="#66cdaa" points="269.64,-39.96 279.43,-35.91 269.25,-32.97 269.64,-39.96"/>
<text text-anchor="middle" x="220.62" y="-45.7" font-family="Helvetica,sans-Serif" font-size="14.00" fill="#66cdaa">QueueEnd</text>
</g>
<!-- Level Once Sensor_weight -->
<g id="node3" class="node">
<title>Level Once Sensor_weight</title>
<polygon fill="none" stroke="black" stroke-dasharray="1,5" points="361,-106 287,-106 287,-70 361,-70 361,-106"/>
<text text-anchor="start" x="297" y="-82.58" font-family="Helvetica,sans-Serif" font-size="14.00">1 Shoot &#160;</text>
</g>
<!-- Level Once Sensor&#45;&gt;Level Once Sensor_weight -->
<g id="edge2" class="edge">
<title>Level Once Sensor&#45;&gt;Level Once Sensor_weight</title>
<path fill="none" stroke="#458b74" d="M165.2,-68.02C201.1,-72.56 243.66,-77.95 275.53,-81.99"/>
<polygon fill="#458b74" stroke="#458b74" points="274.89,-85.44 285.25,-83.22 275.77,-78.49 274.89,-85.44"/>
<text text-anchor="middle" x="220.62" y="-81.07" font-family="Helvetica,sans-Serif" font-size="14.00" fill="#458b74">Weight</text>
</g>
<!-- RunAwaySensor -->
<g id="node4" class="node">
<title>RunAwaySensor</title>
<polygon fill="none" stroke="black" points="36,-156.12 36,-177.88 150,-177.88 150,-156.12 36,-156.12"/>
<text text-anchor="start" x="39" y="-161.57" font-family="Helvetica,sans-Serif" font-size="14.00">RunAwaySensor &#160;</text>
</g>
<!-- RunAwaySensor_linked -->
<g id="node5" class="node">
<title>RunAwaySensor_linked</title>
<polygon fill="none" stroke="black" stroke-dasharray="1,5" points="362.23,-160 285.77,-160 285.77,-124 362.23,-124 362.23,-160"/>
<text text-anchor="start" x="291.38" y="-136.57" font-family="Helvetica,sans-Serif" font-size="14.00">RunAway &#160;</text>
</g>
<!-- RunAwaySensor&#45;&gt;RunAwaySensor_linked -->
<g id="edge3" class="edge">
<title>RunAwaySensor&#45;&gt;RunAwaySensor_linked</title>
<path fill="none" stroke="#66cdaa" d="M157.84,-155.44C167.91,-153.87 178.22,-152.4 188,-151.25 216.43,-147.9 248.37,-145.65 274.05,-144.2"/>
<polygon fill="#66cdaa" stroke="#66cdaa" points="274.07,-147.71 283.86,-143.67 273.69,-140.72 274.07,-147.71"/>
<text text-anchor="middle" x="220.62" y="-153.7" font-family="Helvetica,sans-Serif" font-size="14.00" fill="#66cdaa">QueueEnd</text>
</g>
<!-- RunAwaySensor_weight -->
<g id="node6" class="node">
<title>RunAwaySensor_weight</title>
<polygon fill="none" stroke="black" stroke-dasharray="1,5" points="372.25,-214 275.75,-214 275.75,-178 372.25,-178 372.25,-214"/>
<text text-anchor="start" x="285.75" y="-190.57" font-family="Helvetica,sans-Serif" font-size="14.00">1 RunAway &#160;</text>
</g>
<!-- RunAwaySensor&#45;&gt;RunAwaySensor_weight -->
<g id="edge4" class="edge">
<title>RunAwaySensor&#45;&gt;RunAwaySensor_weight</title>
<path fill="none" stroke="#458b74" d="M157.79,-175.08C191.17,-179.31 231.77,-184.45 264.36,-188.57"/>
<polygon fill="#458b74" stroke="#458b74" points="263.67,-192.01 274.03,-189.8 264.55,-185.07 263.67,-192.01"/>
<text text-anchor="middle" x="220.62" y="-189.07" font-family="Helvetica,sans-Serif" font-size="14.00" fill="#458b74">Weight</text>
</g>
<!-- AttackSensor -->
<g id="node7" class="node">
<title>AttackSensor</title>
<polygon fill="none" stroke="black" points="46.12,-264.12 46.12,-285.88 139.88,-285.88 139.88,-264.12 46.12,-264.12"/>
<text text-anchor="start" x="49.12" y="-269.57" font-family="Helvetica,sans-Serif" font-size="14.00">AttackSensor &#160;</text>
</g>
<!-- AttackSensor_linked -->
<g id="node8" class="node">
<title>AttackSensor_linked</title>
<polygon fill="none" stroke="black" stroke-dasharray="1,5" points="366.73,-268 281.27,-268 281.27,-232 366.73,-232 366.73,-268"/>
<text text-anchor="start" x="286.88" y="-244.57" font-family="Helvetica,sans-Serif" font-size="14.00">JumpAway &#160;</text>
</g>
<!-- AttackSensor&#45;&gt;AttackSensor_linked -->
<g id="edge5" class="edge">
<title>AttackSensor&#45;&gt;AttackSensor_linked</title>
<path fill="none" stroke="#66cdaa" d="M147.56,-265.1C160.74,-262.92 174.85,-260.8 188,-259.25 214.79,-256.1 244.7,-253.91 269.55,-252.46"/>
<polygon fill="#66cdaa" stroke="#66cdaa" points="269.64,-255.96 279.43,-251.91 269.25,-248.97 269.64,-255.96"/>
<text text-anchor="middle" x="220.62" y="-261.7" font-family="Helvetica,sans-Serif" font-size="14.00" fill="#66cdaa">QueueEnd</text>
</g>
<!-- AttackSensor_weight -->
<g id="node9" class="node">
<title>AttackSensor_weight</title>
<polygon fill="none" stroke="black" stroke-dasharray="1,5" points="374.5,-322 273.5,-322 273.5,-286 374.5,-286 374.5,-322"/>
<text text-anchor="start" x="283.5" y="-298.57" font-family="Helvetica,sans-Serif" font-size="14.00">1 ZExitState &#160;</text>
</g>
<!-- AttackSensor&#45;&gt;AttackSensor_weight -->
<g id="edge6" class="edge">
<title>AttackSensor&#45;&gt;AttackSensor_weight</title>
<path fill="none" stroke="#458b74" d="M147.69,-281.8C181.93,-286.13 226.38,-291.76 261.96,-296.27"/>
<polygon fill="#458b74" stroke="#458b74" points="261.31,-299.72 271.67,-297.5 262.19,-292.77 261.31,-299.72"/>
<text text-anchor="middle" x="220.62" y="-297.07" font-family="Helvetica,sans-Serif" font-size="14.00" fill="#458b74">Weight</text>
</g>
<!-- DodgePredictSensor -->
<g id="node10" class="node">
<title>DodgePredictSensor</title>
<polygon fill="none" stroke="black" points="24,-347.12 24,-368.88 162,-368.88 162,-347.12 24,-347.12"/>
<text text-anchor="start" x="27" y="-352.57" font-family="Helvetica,sans-Serif" font-size="14.00">DodgePredictSensor &#160;</text>
</g>
<!-- DodgePredictSensor_linked -->
<g id="node11" class="node">
<title>DodgePredictSensor_linked</title>
<polygon fill="none" stroke="black" stroke-dasharray="1,5" points="366.73,-376 281.27,-376 281.27,-340 366.73,-340 366.73,-376"/>
<text text-anchor="start" x="286.88" y="-352.57" font-family="Helvetica,sans-Serif" font-size="14.00">JumpAway &#160;</text>
</g>
<!-- DodgePredictSensor&#45;&gt;DodgePredictSensor_linked -->
<g id="edge7" class="edge">
<title>DodgePredictSensor&#45;&gt;DodgePredictSensor_linked</title>
<path fill="none" stroke="#66cdaa" d="M169.94,-358C202.58,-358 239.95,-358 269.6,-358"/>
<polygon fill="#66cdaa" stroke="#66cdaa" points="269.46,-361.5 279.46,-358 269.46,-354.5 269.46,-361.5"/>
<text text-anchor="middle" x="220.62" y="-360.45" font-family="Helvetica,sans-Serif" font-size="14.00" fill="#66cdaa">QueueEnd</text>
</g>
<!-- AttackPredictSensor -->
<g id="node12" class="node">
<title>AttackPredictSensor</title>
<polygon fill="none" stroke="black" points="25.12,-436 25.12,-457.75 160.88,-457.75 160.88,-436 25.12,-436"/>
<text text-anchor="start" x="28.12" y="-441.45" font-family="Helvetica,sans-Serif" font-size="14.00">AttackPredictSensor &#160;</text>
<polygon fill="none" stroke="black" points="25.12,-414.25 25.12,-436 160.88,-436 160.88,-414.25 25.12,-414.25"/>
<text text-anchor="start" x="28.12" y="-420.7" font-family="Helvetica,sans-Serif" font-size="12.00" fill="#838b8b">if: attackCondition</text>
<text text-anchor="start" x="123.38" y="-420.7" font-family="Helvetica,sans-Serif" font-size="14.00"> &#160;</text>
</g>
<!-- AttackPredictSensor_linked -->
<g id="node13" class="node">
<title>AttackPredictSensor_linked</title>
<polygon fill="none" stroke="black" stroke-dasharray="1,5" points="366.73,-430 281.27,-430 281.27,-394 366.73,-394 366.73,-430"/>
<text text-anchor="start" x="286.88" y="-406.57" font-family="Helvetica,sans-Serif" font-size="14.00">JumpAway &#160;</text>
</g>
<!-- AttackPredictSensor&#45;&gt;AttackPredictSensor_linked -->
<g id="edge8" class="edge">
<title>AttackPredictSensor&#45;&gt;AttackPredictSensor_linked</title>
<path fill="none" stroke="#66cdaa" d="M168.67,-428.17C201.65,-424.72 239.67,-420.73 269.73,-417.58"/>
<polygon fill="#66cdaa" stroke="#66cdaa" points="269.74,-421.1 279.32,-416.58 269.01,-414.14 269.74,-421.1"/>
<text text-anchor="middle" x="220.62" y="-427.89" font-family="Helvetica,sans-Serif" font-size="14.00" fill="#66cdaa">QueueEnd</text>
</g>
<!-- AttackPredictSensor_weight -->
<g id="node14" class="node">
<title>AttackPredictSensor_weight</title>
<polygon fill="none" stroke="black" stroke-dasharray="1,5" points="376.75,-484 271.25,-484 271.25,-448 376.75,-448 376.75,-484"/>
<text text-anchor="start" x="281.25" y="-460.57" font-family="Helvetica,sans-Serif" font-size="14.00">1 JumpAway &#160;</text>
</g>
<!-- AttackPredictSensor&#45;&gt;AttackPredictSensor_weight -->
<g id="edge9" class="edge">
<title>AttackPredictSensor&#45;&gt;AttackPredictSensor_weight</title>
<path fill="none" stroke="#458b74" d="M168.67,-445.78C198.03,-449.63 231.39,-454 259.57,-457.69"/>
<polygon fill="#458b74" stroke="#458b74" points="259.02,-461.15 269.39,-458.98 259.93,-454.21 259.02,-461.15"/>
<text text-anchor="middle" x="220.62" y="-458.75" font-family="Helvetica,sans-Serif" font-size="14.00" fill="#458b74">Weight</text>
</g>
<!-- AttackRunToSensor -->
<g id="node15" class="node">
<title>AttackRunToSensor</title>
<polygon fill="none" stroke="black" points="26.62,-520 26.62,-541.75 159.38,-541.75 159.38,-520 26.62,-520"/>
<text text-anchor="start" x="29.62" y="-525.45" font-family="Helvetica,sans-Serif" font-size="14.00">AttackRunToSensor &#160;</text>
<polygon fill="none" stroke="black" points="26.62,-498.25 26.62,-520 159.38,-520 159.38,-498.25 26.62,-498.25"/>
<text text-anchor="start" x="29.62" y="-504.7" font-family="Helvetica,sans-Serif" font-size="12.00" fill="#838b8b">if: state is Engaging</text>
<text text-anchor="start" x="133.88" y="-504.7" font-family="Helvetica,sans-Serif" font-size="14.00"> &#160;</text>
</g>
<!-- AttackRunToSensor_linked -->
<g id="node16" class="node">
<title>AttackRunToSensor_linked</title>
<polygon fill="none" stroke="black" stroke-dasharray="1,5" points="366.73,-538 281.27,-538 281.27,-502 366.73,-502 366.73,-538"/>
<text text-anchor="start" x="286.88" y="-514.58" font-family="Helvetica,sans-Serif" font-size="14.00">JumpAway &#160;</text>
</g>
<!-- AttackRunToSensor&#45;&gt;AttackRunToSensor_linked -->
<g id="edge10" class="edge">
<title>AttackRunToSensor&#45;&gt;AttackRunToSensor_linked</title>
<path fill="none" stroke="#66cdaa" d="M167.09,-520C200.4,-520 239.11,-520 269.63,-520"/>
<polygon fill="#66cdaa" stroke="#66cdaa" points="269.39,-523.5 279.39,-520 269.39,-516.5 269.39,-523.5"/>
<text text-anchor="middle" x="220.62" y="-522.45" font-family="Helvetica,sans-Serif" font-size="14.00" fill="#66cdaa">QueueEnd</text>
</g>
<!-- ShootSensor -->
<g id="node17" class="node">
<title>ShootSensor</title>
<polygon fill="none" stroke="black" points="47.25,-589.12 47.25,-610.88 138.75,-610.88 138.75,-589.12 47.25,-589.12"/>
<text text-anchor="start" x="50.25" y="-594.58" font-family="Helvetica,sans-Serif" font-size="14.00">ShootSensor &#160;</text>
</g>
<!-- ShootSensor_linked -->
<g id="node18" class="node">
<title>ShootSensor_linked</title>
<polygon fill="none" stroke="black" stroke-dasharray="1,5" points="364.48,-602.35 283.52,-602.35 283.52,-555.65 364.48,-555.65 364.48,-602.35"/>
<text text-anchor="start" x="302.62" y="-583.45" font-family="Helvetica,sans-Serif" font-size="14.00">Shoot &#160;</text>
<text text-anchor="start" x="289.12" y="-563.7" font-family="Helvetica,sans-Serif" font-size="14.00">ZExitState &#160;</text>
</g>
<!-- ShootSensor&#45;&gt;ShootSensor_linked -->
<g id="edge11" class="edge">
<title>ShootSensor&#45;&gt;ShootSensor_linked</title>
<path fill="none" stroke="#66cdaa" d="M146.54,-595.18C184.23,-591.73 234.75,-587.09 272.07,-583.67"/>
<polygon fill="#66cdaa" stroke="#66cdaa" points="272.06,-587.19 281.7,-582.79 271.42,-580.22 272.06,-587.19"/>
<text text-anchor="middle" x="220.62" y="-593.21" font-family="Helvetica,sans-Serif" font-size="14.00" fill="#66cdaa">QueueEnd</text>
</g>
<!-- ShootSensor_weight -->
<g id="node19" class="node">
<title>ShootSensor_weight</title>
<polygon fill="none" stroke="black" stroke-dasharray="1,5" points="376.75,-656 271.25,-656 271.25,-620 376.75,-620 376.75,-656"/>
<text text-anchor="start" x="281.25" y="-632.58" font-family="Helvetica,sans-Serif" font-size="14.00">3 JumpAway &#160;</text>
</g>
<!-- ShootSensor&#45;&gt;ShootSensor_weight -->
<g id="edge12" class="edge">
<title>ShootSensor&#45;&gt;ShootSensor_weight</title>
<path fill="none" stroke="#458b74" d="M146.54,-608.72C180.26,-614.31 224.24,-621.61 259.86,-627.52"/>
<polygon fill="#458b74" stroke="#458b74" points="259.17,-630.96 269.61,-629.14 260.32,-624.05 259.17,-630.96"/>
<text text-anchor="middle" x="220.62" y="-628.16" font-family="Helvetica,sans-Serif" font-size="14.00" fill="#458b74">Weight</text>
</g>
<!-- JumpAway -->
<g id="node20" class="node">
<title>JumpAway</title>
<polygon fill="none" stroke="black" points="52.88,-792 52.88,-813.75 133.12,-813.75 133.12,-792 52.88,-792"/>
<text text-anchor="start" x="55.88" y="-797.45" font-family="Helvetica,sans-Serif" font-size="14.00">JumpAway &#160;</text>
<polygon fill="none" stroke="black" points="52.88,-770.25 52.88,-792 133.12,-792 133.12,-770.25 52.88,-770.25"/>
<text text-anchor="start" x="55.88" y="-776.7" font-family="Helvetica,sans-Serif" font-size="12.00" fill="#838b8b">0.92s: Done</text>
<text text-anchor="start" x="120.38" y="-776.7" font-family="Helvetica,sans-Serif" font-size="14.00"> &#160;</text>
</g>
<!-- Engaging -->
<g id="node21" class="node">
<title>Engaging</title>
<polygon fill="none" stroke="black" points="360.5,-775 287.5,-775 287.5,-739 360.5,-739 360.5,-775"/>
<text text-anchor="middle" x="324" y="-751.58" font-family="Helvetica,sans-Serif" font-size="14.00">Engaging</text>
</g>
<!-- JumpAway&#45;&gt;Engaging -->
<g id="edge13" class="edge">
<title>JumpAway&#45;&gt;Engaging</title>
<path fill="none" stroke="#cdc8b1" d="M140.89,-784.83C180.32,-778.81 236.39,-770.24 275.88,-764.2"/>
<polygon fill="#cdc8b1" stroke="#cdc8b1" points="276.2,-767.69 285.56,-762.72 275.14,-760.77 276.2,-767.69"/>
</g>
<!-- Shoot -->
<g id="node22" class="node">
<title>Shoot</title>
<polygon fill="none" stroke="black" points="54,-722 54,-743.75 132,-743.75 132,-722 54,-722"/>
<text text-anchor="start" x="71.62" y="-727.45" font-family="Helvetica,sans-Serif" font-size="14.00">Shoot &#160;</text>
<polygon fill="none" stroke="black" points="54,-700.25 54,-722 132,-722 132,-700.25 54,-700.25"/>
<text text-anchor="start" x="57" y="-706.7" font-family="Helvetica,sans-Serif" font-size="12.00" fill="#838b8b">1.17s: Done</text>
<text text-anchor="start" x="121.5" y="-706.7" font-family="Helvetica,sans-Serif" font-size="14.00"> &#160;</text>
</g>
<!-- Shoot&#45;&gt;Engaging -->
<g id="edge14" class="edge">
<title>Shoot&#45;&gt;Engaging</title>
<path fill="none" stroke="#cdc8b1" d="M139.79,-729C179.23,-735.03 235.93,-743.69 275.78,-749.78"/>
<polygon fill="#cdc8b1" stroke="#cdc8b1" points="275.15,-753.23 285.56,-751.28 276.2,-746.31 275.15,-753.23"/>
</g>
<!-- HurtState -->
<g id="node23" class="node">
<title>HurtState</title>
<polygon fill="none" stroke="black" points="34.5,-952.12 34.5,-973.88 151.5,-973.88 151.5,-952.12 34.5,-952.12"/>
<text text-anchor="start" x="60.75" y="-957.58" font-family="Helvetica,sans-Serif" font-size="14.00">HurtState &#160;</text>
<polygon fill="none" stroke="black" points="34.5,-920.12 34.5,-952.12 151.5,-952.12 151.5,-920.12 34.5,-920.12"/>
<text text-anchor="start" x="37.5" y="-938.73" font-family="Helvetica,sans-Serif" font-size="12.00" fill="#838b8b">0.00s: EnableGravity</text>
<text text-anchor="start" x="37.5" y="-924.83" font-family="Helvetica,sans-Serif" font-size="12.00" fill="#838b8b">0.25s: Done</text>
<text text-anchor="start" x="102" y="-924.83" font-family="Helvetica,sans-Serif" font-size="14.00"> &#160;</text>
</g>
<!-- PreAttack -->
<g id="node24" class="node">
<title>PreAttack</title>
<polygon fill="none" stroke="black" points="361.25,-925 286.75,-925 286.75,-889 361.25,-889 361.25,-925"/>
<text text-anchor="middle" x="324" y="-901.58" font-family="Helvetica,sans-Serif" font-size="14.00">PreAttack</text>
</g>
<!-- HurtState&#45;&gt;PreAttack -->
<g id="edge15" class="edge">
<title>HurtState&#45;&gt;PreAttack</title>
<path fill="none" stroke="#cdc8b1" d="M159.32,-935.59C196.37,-929.12 241.92,-921.16 275.55,-915.29"/>
<polygon fill="#cdc8b1" stroke="#cdc8b1" points="275.73,-918.81 284.97,-913.64 274.52,-911.92 275.73,-918.81"/>
</g>
<!-- Hurt_BigState -->
<g id="node25" class="node">
<title>Hurt_BigState</title>
<polygon fill="none" stroke="black" points="34.5,-872.12 34.5,-893.88 151.5,-893.88 151.5,-872.12 34.5,-872.12"/>
<text text-anchor="start" x="47.25" y="-877.58" font-family="Helvetica,sans-Serif" font-size="14.00">Hurt_BigState &#160;</text>
<polygon fill="none" stroke="black" points="34.5,-840.12 34.5,-872.12 151.5,-872.12 151.5,-840.12 34.5,-840.12"/>
<text text-anchor="start" x="37.5" y="-858.73" font-family="Helvetica,sans-Serif" font-size="12.00" fill="#838b8b">0.00s: EnableGravity</text>
<text text-anchor="start" x="37.5" y="-844.83" font-family="Helvetica,sans-Serif" font-size="12.00" fill="#838b8b">1.00s: Done</text>
<text text-anchor="start" x="102" y="-844.83" font-family="Helvetica,sans-Serif" font-size="14.00"> &#160;</text>
</g>
<!-- Hurt_BigState&#45;&gt;PreAttack -->
<g id="edge16" class="edge">
<title>Hurt_BigState&#45;&gt;PreAttack</title>
<path fill="none" stroke="#cdc8b1" d="M159.32,-878.41C196.37,-884.88 241.92,-892.84 275.55,-898.71"/>
<polygon fill="#cdc8b1" stroke="#cdc8b1" points="274.52,-902.08 284.97,-900.36 275.73,-895.19 274.52,-902.08"/>
</g>
<!-- ZExitState -->
<g id="node26" class="node">
<title>ZExitState</title>
<polygon fill="none" stroke="black" points="30.75,-1022 30.75,-1043.75 155.25,-1043.75 155.25,-1022 30.75,-1022"/>
<text text-anchor="start" x="58.12" y="-1027.45" font-family="Helvetica,sans-Serif" font-size="14.00">ZExitState &#160;</text>
<polygon fill="none" stroke="black" points="30.75,-1000.25 30.75,-1022 155.25,-1022 155.25,-1000.25 30.75,-1000.25"/>
<text text-anchor="start" x="33.75" y="-1006.7" font-family="Helvetica,sans-Serif" font-size="12.00" fill="#838b8b">0.00s: EnableGravity</text>
<text text-anchor="start" x="144.75" y="-1006.7" font-family="Helvetica,sans-Serif" font-size="14.00"> &#160;</text>
</g>
<!-- Wandering_Idle -->
<g id="node27" class="node">
<title>Wandering_Idle</title>
<polygon fill="none" stroke="black" points="163.62,-1102 22.38,-1102 22.38,-1066 163.62,-1066 163.62,-1102"/>
<text text-anchor="middle" x="93" y="-1078.58" font-family="Helvetica,sans-Serif" font-size="14.00">Wandering_Idle (Init)</text>
</g>
</g>
</svg>
