<?xml version="1.0" encoding="UTF-8" standalone="no"?>
<!DOCTYPE svg PUBLIC "-//W3C//DTD SVG 1.1//EN"
 "http://www.w3.org/Graphics/SVG/1.1/DTD/svg11.dtd">
<!-- Generated by graphviz version 12.2.1 (20241206.2353)
 -->
<!-- Title: Foo Pages: 1 -->
<svg width="421pt" height="644pt"
 viewBox="0.00 0.00 420.50 643.88" xmlns="http://www.w3.org/2000/svg" xmlns:xlink="http://www.w3.org/1999/xlink">
<g id="graph0" class="graph" transform="scale(1 1) rotate(0) translate(4 639.88)">
<title>Foo</title>
<polygon fill="white" stroke="none" points="-4,4 -4,-639.88 416.5,-639.88 416.5,4 -4,4"/>
<g id="clust1" class="cluster">
<title>cluster_attacksensors</title>
<polygon fill="none" stroke="black" points="8,-233.88 8,-627.88 400,-627.88 400,-233.88 8,-233.88"/>
<text text-anchor="middle" x="204" y="-610.58" font-family="Helvetica,sans-Serif" font-size="14.00">Attack Sensors</text>
</g>
<!-- Attack -->
<g id="node1" class="node">
<title>Attack</title>
<polygon fill="none" stroke="black" points="54,-36 54,-57.75 132,-57.75 132,-36 54,-36"/>
<text text-anchor="start" x="70.5" y="-41.45" font-family="Helvetica,sans-Serif" font-size="14.00">Attack &#160;</text>
<polygon fill="none" stroke="black" points="54,-4 54,-36 132,-36 132,-4 54,-4"/>
<text text-anchor="start" x="57" y="-22.6" font-family="Helvetica,sans-Serif" font-size="12.00" fill="#838b8b">0.67s: Shoot</text>
<text text-anchor="start" x="57" y="-8.7" font-family="Helvetica,sans-Serif" font-size="12.00" fill="#838b8b">3.50s: Done</text>
<text text-anchor="start" x="121.5" y="-8.7" font-family="Helvetica,sans-Serif" font-size="14.00"> &#160;</text>
</g>
<!-- Wandering_Idle -->
<g id="node2" class="node">
<title>Wandering_Idle</title>
<polygon fill="none" stroke="black" points="412.5,-48.88 271.25,-48.88 271.25,-12.88 412.5,-12.88 412.5,-48.88"/>
<text text-anchor="middle" x="341.88" y="-25.45" font-family="Helvetica,sans-Serif" font-size="14.00">Wandering_Idle (Init)</text>
</g>
<!-- Attack&#45;&gt;Wandering_Idle -->
<g id="edge1" class="edge">
<title>Attack&#45;&gt;Wandering_Idle</title>
<path fill="none" stroke="#cdc8b1" d="M139.86,-30.88C173.43,-30.88 219.89,-30.88 259.69,-30.88"/>
<polygon fill="#cdc8b1" stroke="#cdc8b1" points="259.47,-34.38 269.47,-30.88 259.47,-27.38 259.47,-34.38"/>
</g>
<!-- HurtState -->
<g id="node3" class="node">
<title>HurtState</title>
<polygon fill="none" stroke="black" points="129.5,-223.88 56.5,-223.88 56.5,-187.88 129.5,-187.88 129.5,-223.88"/>
<text text-anchor="middle" x="93" y="-200.45" font-family="Helvetica,sans-Serif" font-size="14.00">HurtState</text>
</g>
<!-- PreAttack -->
<g id="node4" class="node">
<title>PreAttack</title>
<polygon fill="none" stroke="black" points="379.12,-169.88 304.62,-169.88 304.62,-133.88 379.12,-133.88 379.12,-169.88"/>
<text text-anchor="middle" x="341.88" y="-146.45" font-family="Helvetica,sans-Serif" font-size="14.00">PreAttack</text>
</g>
<!-- HurtState&#45;&gt;PreAttack -->
<g id="edge2" class="edge">
<title>HurtState&#45;&gt;PreAttack</title>
<path fill="none" stroke="#cdc8b1" d="M129.9,-198.02C172.98,-188.6 245.38,-172.76 293.14,-162.32"/>
<polygon fill="#cdc8b1" stroke="#cdc8b1" points="293.63,-165.79 302.65,-160.24 292.13,-158.95 293.63,-165.79"/>
</g>
<!-- Hurt_BigState -->
<g id="node5" class="node">
<title>Hurt_BigState</title>
<polygon fill="none" stroke="black" points="143,-169.88 43,-169.88 43,-133.88 143,-133.88 143,-169.88"/>
<text text-anchor="middle" x="93" y="-146.45" font-family="Helvetica,sans-Serif" font-size="14.00">Hurt_BigState</text>
</g>
<!-- Hurt_BigState&#45;&gt;PreAttack -->
<g id="edge3" class="edge">
<title>Hurt_BigState&#45;&gt;PreAttack</title>
<path fill="none" stroke="#cdc8b1" d="M143.37,-151.88C186.93,-151.88 250.03,-151.88 293.11,-151.88"/>
<polygon fill="#cdc8b1" stroke="#cdc8b1" points="292.91,-155.38 302.91,-151.88 292.91,-148.38 292.91,-155.38"/>
</g>
<!-- PostureBreak -->
<g id="node6" class="node">
<title>PostureBreak</title>
<polygon fill="none" stroke="black" points="141.88,-115.88 44.12,-115.88 44.12,-79.88 141.88,-79.88 141.88,-115.88"/>
<text text-anchor="middle" x="93" y="-92.45" font-family="Helvetica,sans-Serif" font-size="14.00">PostureBreak</text>
</g>
<!-- PostureBreak&#45;&gt;PreAttack -->
<g id="edge4" class="edge">
<title>PostureBreak&#45;&gt;PreAttack</title>
<path fill="none" stroke="#cdc8b1" d="M142.19,-108.41C185.85,-117.97 249.84,-131.96 293.31,-141.47"/>
<polygon fill="#cdc8b1" stroke="#cdc8b1" points="292.45,-144.87 302.97,-143.58 293.94,-138.03 292.45,-144.87"/>
</g>
<!-- Level Once Sensor -->
<g id="node7" class="node">
<title>Level Once Sensor</title>
<polygon fill="none" stroke="black" points="158.75,-277.88 27.25,-277.88 27.25,-241.88 158.75,-241.88 158.75,-277.88"/>
<text text-anchor="middle" x="93" y="-254.45" font-family="Helvetica,sans-Serif" font-size="14.00">Level Once Sensor</text>
</g>
<!-- Level Once Sensor_linked -->
<g id="node8" class="node">
<title>Level Once Sensor_linked</title>
<polygon fill="none" stroke="black" stroke-dasharray="1,5" points="369.98,-277.88 313.77,-277.88 313.77,-241.88 369.98,-241.88 369.98,-277.88"/>
<text text-anchor="start" x="319.38" y="-254.45" font-family="Helvetica,sans-Serif" font-size="14.00">Attack &#160;</text>
</g>
<!-- Level Once Sensor&#45;&gt;Level Once Sensor_linked -->
<g id="edge5" class="edge">
<title>Level Once Sensor&#45;&gt;Level Once Sensor_linked</title>
<path fill="none" stroke="#66cdaa" d="M159.19,-259.88C204.76,-259.88 264.07,-259.88 302.31,-259.88"/>
<polygon fill="#66cdaa" stroke="#66cdaa" points="301.95,-263.38 311.95,-259.88 301.95,-256.38 301.95,-263.38"/>
<text text-anchor="middle" x="220.62" y="-262.32" font-family="Helvetica,sans-Serif" font-size="14.00" fill="#66cdaa">QueueEnd</text>
</g>
<!-- Level Once Sensor_mustuse -->
<g id="node9" class="node">
<title>Level Once Sensor_mustuse</title>
<polygon fill="none" stroke="black" stroke-dasharray="1,5" points="392,-331.88 291.75,-331.88 291.75,-295.88 392,-295.88 392,-331.88"/>
<text text-anchor="start" x="301.75" y="-308.45" font-family="Helvetica,sans-Serif" font-size="14.00">1 Undefined &#160;</text>
</g>
<!-- Level Once Sensor&#45;&gt;Level Once Sensor_mustuse -->
<g id="edge6" class="edge">
<title>Level Once Sensor&#45;&gt;Level Once Sensor_mustuse</title>
<path fill="none" stroke="#458b74" d="M159.19,-274.13C196.73,-282.35 243.6,-292.6 280.34,-300.63"/>
<polygon fill="#458b74" stroke="#458b74" points="279.39,-304.01 289.91,-302.73 280.89,-297.17 279.39,-304.01"/>
<text text-anchor="middle" x="220.62" y="-295.75" font-family="Helvetica,sans-Serif" font-size="14.00" fill="#458b74">Weight</text>
</g>
<!-- RunAwaySensor -->
<g id="node10" class="node">
<title>RunAwaySensor</title>
<polygon fill="none" stroke="black" points="151.25,-331.88 34.75,-331.88 34.75,-295.88 151.25,-295.88 151.25,-331.88"/>
<text text-anchor="middle" x="93" y="-308.45" font-family="Helvetica,sans-Serif" font-size="14.00">RunAwaySensor</text>
</g>
<!-- AttackSensor -->
<g id="node11" class="node">
<title>AttackSensor</title>
<polygon fill="none" stroke="black" points="141.12,-385.88 44.88,-385.88 44.88,-349.88 141.12,-349.88 141.12,-385.88"/>
<text text-anchor="middle" x="93" y="-362.45" font-family="Helvetica,sans-Serif" font-size="14.00">AttackSensor</text>
</g>
<!-- AttackSensor_linked -->
<g id="node12" class="node">
<title>AttackSensor_linked</title>
<polygon fill="none" stroke="black" stroke-dasharray="1,5" points="369.98,-385.88 313.77,-385.88 313.77,-349.88 369.98,-349.88 369.98,-385.88"/>
<text text-anchor="start" x="319.38" y="-362.45" font-family="Helvetica,sans-Serif" font-size="14.00">Attack &#160;</text>
</g>
<!-- AttackSensor&#45;&gt;AttackSensor_linked -->
<g id="edge7" class="edge">
<title>AttackSensor&#45;&gt;AttackSensor_linked</title>
<path fill="none" stroke="#66cdaa" d="M141.6,-367.88C188.22,-367.88 258.4,-367.88 301.83,-367.88"/>
<polygon fill="#66cdaa" stroke="#66cdaa" points="301.82,-371.38 311.82,-367.88 301.82,-364.38 301.82,-371.38"/>
<text text-anchor="middle" x="220.62" y="-370.32" font-family="Helvetica,sans-Serif" font-size="14.00" fill="#66cdaa">QueueEnd</text>
</g>
<!-- DodgePredictSensor -->
<g id="node13" class="node">
<title>DodgePredictSensor</title>
<polygon fill="none" stroke="black" points="24,-429.88 24,-451.62 162,-451.62 162,-429.88 24,-429.88"/>
<text text-anchor="start" x="27" y="-435.32" font-family="Helvetica,sans-Serif" font-size="14.00">DodgePredictSensor &#160;</text>
<polygon fill="none" stroke="black" points="24,-408.12 24,-429.88 162,-429.88 162,-408.12 24,-408.12"/>
<text text-anchor="start" x="27" y="-414.57" font-family="Helvetica,sans-Serif" font-size="12.00" fill="#838b8b">if: Dodge</text>
<text text-anchor="start" x="75" y="-414.57" font-family="Helvetica,sans-Serif" font-size="14.00"> &#160;</text>
</g>
<!-- DodgePredictSensor_linked -->
<g id="node14" class="node">
<title>DodgePredictSensor_linked</title>
<polygon fill="none" stroke="black" stroke-dasharray="1,5" points="369.98,-447.88 313.77,-447.88 313.77,-411.88 369.98,-411.88 369.98,-447.88"/>
<text text-anchor="start" x="319.38" y="-424.45" font-family="Helvetica,sans-Serif" font-size="14.00">Attack &#160;</text>
</g>
<!-- DodgePredictSensor&#45;&gt;DodgePredictSensor_linked -->
<g id="edge8" class="edge">
<title>DodgePredictSensor&#45;&gt;DodgePredictSensor_linked</title>
<path fill="none" stroke="#66cdaa" d="M169.75,-429.88C213.55,-429.88 266.83,-429.88 302.18,-429.88"/>
<polygon fill="#66cdaa" stroke="#66cdaa" points="301.93,-433.38 311.93,-429.88 301.93,-426.38 301.93,-433.38"/>
<text text-anchor="middle" x="220.62" y="-432.32" font-family="Helvetica,sans-Serif" font-size="14.00" fill="#66cdaa">QueueEnd</text>
</g>
<!-- AttackPredictSensor -->
<g id="node15" class="node">
<title>AttackPredictSensor</title>
<polygon fill="none" stroke="black" points="25.12,-499.88 25.12,-521.62 160.88,-521.62 160.88,-499.88 25.12,-499.88"/>
<text text-anchor="start" x="28.12" y="-505.32" font-family="Helvetica,sans-Serif" font-size="14.00">AttackPredictSensor &#160;</text>
<polygon fill="none" stroke="black" points="25.12,-478.12 25.12,-499.88 160.88,-499.88 160.88,-478.12 25.12,-478.12"/>
<text text-anchor="start" x="28.12" y="-484.57" font-family="Helvetica,sans-Serif" font-size="12.00" fill="#838b8b">if: Attack</text>
<text text-anchor="start" x="73.12" y="-484.57" font-family="Helvetica,sans-Serif" font-size="14.00"> &#160;</text>
</g>
<!-- AttackPredictSensor_linked -->
<g id="node16" class="node">
<title>AttackPredictSensor_linked</title>
<polygon fill="none" stroke="black" stroke-dasharray="1,5" points="369.98,-517.88 313.77,-517.88 313.77,-481.88 369.98,-481.88 369.98,-517.88"/>
<text text-anchor="start" x="319.38" y="-494.45" font-family="Helvetica,sans-Serif" font-size="14.00">Attack &#160;</text>
</g>
<!-- AttackPredictSensor&#45;&gt;AttackPredictSensor_linked -->
<g id="edge9" class="edge">
<title>AttackPredictSensor&#45;&gt;AttackPredictSensor_linked</title>
<path fill="none" stroke="#66cdaa" d="M168.74,-499.88C212.73,-499.88 266.54,-499.88 302.17,-499.88"/>
<polygon fill="#66cdaa" stroke="#66cdaa" points="302,-503.38 312,-499.88 302,-496.38 302,-503.38"/>
<text text-anchor="middle" x="220.62" y="-502.32" font-family="Helvetica,sans-Serif" font-size="14.00" fill="#66cdaa">QueueEnd</text>
</g>
<!-- AttackRunToSensor -->
<g id="node17" class="node">
<title>AttackRunToSensor</title>
<polygon fill="none" stroke="black" points="26.62,-569.88 26.62,-591.62 159.38,-591.62 159.38,-569.88 26.62,-569.88"/>
<text text-anchor="start" x="29.62" y="-575.33" font-family="Helvetica,sans-Serif" font-size="14.00">AttackRunToSensor &#160;</text>
<polygon fill="none" stroke="black" points="26.62,-548.12 26.62,-569.88 159.38,-569.88 159.38,-548.12 26.62,-548.12"/>
<text text-anchor="start" x="29.62" y="-554.58" font-family="Helvetica,sans-Serif" font-size="12.00" fill="#838b8b">if: state is Engaging</text>
<text text-anchor="start" x="133.88" y="-554.58" font-family="Helvetica,sans-Serif" font-size="14.00"> &#160;</text>
</g>
<!-- AttackRunToSensor_linked -->
<g id="node18" class="node">
<title>AttackRunToSensor_linked</title>
<polygon fill="none" stroke="black" stroke-dasharray="1,5" points="369.98,-587.88 313.77,-587.88 313.77,-551.88 369.98,-551.88 369.98,-587.88"/>
<text text-anchor="start" x="319.38" y="-564.45" font-family="Helvetica,sans-Serif" font-size="14.00">Attack &#160;</text>
</g>
<!-- AttackRunToSensor&#45;&gt;AttackRunToSensor_linked -->
<g id="edge10" class="edge">
<title>AttackRunToSensor&#45;&gt;AttackRunToSensor_linked</title>
<path fill="none" stroke="#66cdaa" d="M167.07,-569.88C211.27,-569.88 265.87,-569.88 301.94,-569.88"/>
<polygon fill="#66cdaa" stroke="#66cdaa" points="301.91,-573.38 311.91,-569.88 301.91,-566.38 301.91,-573.38"/>
<text text-anchor="middle" x="220.62" y="-572.33" font-family="Helvetica,sans-Serif" font-size="14.00" fill="#66cdaa">QueueEnd</text>
</g>
</g>
</svg>
