<?xml version="1.0" encoding="UTF-8" standalone="no"?>
<!DOCTYPE svg PUBLIC "-//W3C//DTD SVG 1.1//EN"
 "http://www.w3.org/Graphics/SVG/1.1/DTD/svg11.dtd">
<!-- Generated by graphviz version 12.2.1 (20241206.2353)
 -->
<!-- Title: Foo Pages: 1 -->
<svg width="656pt" height="976pt"
 viewBox="0.00 0.00 655.95 975.75" xmlns="http://www.w3.org/2000/svg" xmlns:xlink="http://www.w3.org/1999/xlink">
<g id="graph0" class="graph" transform="scale(1 1) rotate(0) translate(4 971.75)">
<title>Foo</title>
<polygon fill="white" stroke="none" points="-4,4 -4,-971.75 651.95,-971.75 651.95,4 -4,4"/>
<g id="clust1" class="cluster">
<title>cluster_attacksensors</title>
<polygon fill="none" stroke="black" points="54.25,-705.75 54.25,-959.75 539.2,-959.75 539.2,-705.75 54.25,-705.75"/>
<text text-anchor="middle" x="296.73" y="-942.45" font-family="Helvetica,sans-Serif" font-size="14.00">Attack Sensors</text>
</g>
<!-- FollowChaseHitPlayer -->
<g id="node1" class="node">
<title>FollowChaseHitPlayer</title>
<polygon fill="none" stroke="black" points="66.13,-325.88 66.13,-347.62 212.38,-347.62 212.38,-325.88 66.13,-325.88"/>
<text text-anchor="start" x="69.13" y="-331.32" font-family="Helvetica,sans-Serif" font-size="14.00">FollowChaseHitPlayer &#160;</text>
<polygon fill="none" stroke="black" points="66.13,-281.88 66.13,-325.88 212.38,-325.88 212.38,-281.88 66.13,-281.88"/>
<text text-anchor="start" x="69.13" y="-312.48" font-family="Helvetica,sans-Serif" font-size="12.00" fill="#838b8b">0.00s: CheckFacing</text>
<text text-anchor="start" x="69.13" y="-300.48" font-family="Helvetica,sans-Serif" font-size="12.00" fill="#838b8b">0.50s: CheckFacing</text>
<text text-anchor="start" x="69.13" y="-286.58" font-family="Helvetica,sans-Serif" font-size="12.00" fill="#838b8b">1.62s: Done</text>
<text text-anchor="start" x="133.63" y="-286.58" font-family="Helvetica,sans-Serif" font-size="14.00"> &#160;</text>
</g>
<!-- Explosion -->
<g id="node2" class="node">
<title>Explosion</title>
<polygon fill="none" stroke="black" points="416.48,-152.75 416.48,-174.5 494.48,-174.5 494.48,-152.75 416.48,-152.75"/>
<text text-anchor="start" x="422.48" y="-158.2" font-family="Helvetica,sans-Serif" font-size="14.00">Explosion &#160;</text>
<polygon fill="none" stroke="black" points="416.48,-131 416.48,-152.75 494.48,-152.75 494.48,-131 416.48,-131"/>
<text text-anchor="start" x="419.48" y="-137.45" font-family="Helvetica,sans-Serif" font-size="12.00" fill="#838b8b">0.08s: Done</text>
<text text-anchor="start" x="483.98" y="-137.45" font-family="Helvetica,sans-Serif" font-size="14.00"> &#160;</text>
</g>
<!-- FollowChaseHitPlayer&#45;&gt;Explosion -->
<g id="edge1" class="edge">
<title>FollowChaseHitPlayer&#45;&gt;Explosion</title>
<path fill="none" stroke="#cdc8b1" d="M220.26,-292.07C239.71,-285.49 260.18,-277.64 278.5,-268.75 327,-245.2 377.96,-210.34 412.49,-184.98"/>
<polygon fill="#cdc8b1" stroke="#cdc8b1" points="414.17,-188.09 420.12,-179.33 410,-182.47 414.17,-188.09"/>
</g>
<!-- DeadState -->
<g id="node3" class="node">
<title>DeadState</title>
<polygon fill="none" stroke="black" points="647.95,-170.75 568.2,-170.75 568.2,-134.75 647.95,-134.75 647.95,-170.75"/>
<text text-anchor="middle" x="608.08" y="-147.32" font-family="Helvetica,sans-Serif" font-size="14.00">DeadState</text>
</g>
<!-- Explosion&#45;&gt;DeadState -->
<g id="edge2" class="edge">
<title>Explosion&#45;&gt;DeadState</title>
<path fill="none" stroke="#cdc8b1" d="M502.07,-152.75C519.17,-152.75 538.71,-152.75 556.26,-152.75"/>
<polygon fill="#cdc8b1" stroke="#cdc8b1" points="556.23,-156.25 566.23,-152.75 556.23,-149.25 556.23,-156.25"/>
</g>
<!-- FollowChaseHitPlayer(QuickVer航母版) -->
<g id="node4" class="node">
<title>FollowChaseHitPlayer(QuickVer航母版)</title>
<polygon fill="none" stroke="black" points="8,-233.88 8,-255.62 270.5,-255.62 270.5,-233.88 8,-233.88"/>
<text text-anchor="start" x="11" y="-239.32" font-family="Helvetica,sans-Serif" font-size="14.00">FollowChaseHitPlayer(QuickVer航母版) &#160;</text>
<polygon fill="none" stroke="black" points="8,-153.88 8,-233.88 270.5,-233.88 270.5,-153.88 8,-153.88"/>
<text text-anchor="start" x="11" y="-220.47" font-family="Helvetica,sans-Serif" font-size="12.00" fill="#838b8b">0.00s: CheckFacing</text>
<text text-anchor="start" x="11" y="-208.47" font-family="Helvetica,sans-Serif" font-size="12.00" fill="#838b8b">0.08s: CheckFacing</text>
<text text-anchor="start" x="11" y="-196.47" font-family="Helvetica,sans-Serif" font-size="12.00" fill="#838b8b">0.17s: CheckFacing</text>
<text text-anchor="start" x="11" y="-184.47" font-family="Helvetica,sans-Serif" font-size="12.00" fill="#838b8b">0.25s: CheckFacing</text>
<text text-anchor="start" x="11" y="-172.47" font-family="Helvetica,sans-Serif" font-size="12.00" fill="#838b8b">0.33s: CheckFacing</text>
<text text-anchor="start" x="11" y="-158.57" font-family="Helvetica,sans-Serif" font-size="12.00" fill="#838b8b">1.12s: Done</text>
<text text-anchor="start" x="75.5" y="-158.57" font-family="Helvetica,sans-Serif" font-size="14.00"> &#160;</text>
</g>
<!-- FollowChaseHitPlayer(QuickVer航母版)&#45;&gt;Explosion -->
<g id="edge3" class="edge">
<title>FollowChaseHitPlayer(QuickVer航母版)&#45;&gt;Explosion</title>
<path fill="none" stroke="#cdc8b1" d="M278.07,-181.94C320.15,-174.98 364.1,-167.71 397.6,-162.16"/>
<polygon fill="#cdc8b1" stroke="#cdc8b1" points="397.76,-165.68 407.05,-160.6 396.62,-158.78 397.76,-165.68"/>
</g>
<!-- Forward Chase 直射 -->
<g id="node5" class="node">
<title>Forward Chase 直射</title>
<polygon fill="none" stroke="black" points="67.25,-105.88 67.25,-127.62 211.25,-127.62 211.25,-105.88 67.25,-105.88"/>
<text text-anchor="start" x="70.25" y="-111.33" font-family="Helvetica,sans-Serif" font-size="14.00">Forward Chase 直射 &#160;</text>
<polygon fill="none" stroke="black" points="67.25,-73.88 67.25,-105.88 211.25,-105.88 211.25,-73.88 67.25,-73.88"/>
<text text-anchor="start" x="70.25" y="-92.47" font-family="Helvetica,sans-Serif" font-size="12.00" fill="#838b8b">0.00s: CheckFacing</text>
<text text-anchor="start" x="70.25" y="-78.57" font-family="Helvetica,sans-Serif" font-size="12.00" fill="#838b8b">1.12s: Done</text>
<text text-anchor="start" x="134.75" y="-78.57" font-family="Helvetica,sans-Serif" font-size="14.00"> &#160;</text>
</g>
<!-- Forward Chase 直射&#45;&gt;Explosion -->
<g id="edge4" class="edge">
<title>Forward Chase 直射&#45;&gt;Explosion</title>
<path fill="none" stroke="#cdc8b1" d="M219.14,-113.8C274.63,-122.99 347.59,-135.06 397.48,-143.32"/>
<polygon fill="#cdc8b1" stroke="#cdc8b1" points="396.76,-146.75 407.2,-144.93 397.91,-139.84 396.76,-146.75"/>
</g>
<!-- AttackParrying -->
<g id="node6" class="node">
<title>AttackParrying</title>
<polygon fill="none" stroke="black" points="88.63,-25.75 88.63,-47.5 189.88,-47.5 189.88,-25.75 88.63,-25.75"/>
<text text-anchor="start" x="91.63" y="-31.2" font-family="Helvetica,sans-Serif" font-size="14.00">AttackParrying &#160;</text>
<polygon fill="none" stroke="black" points="88.63,-4 88.63,-25.75 189.88,-25.75 189.88,-4 88.63,-4"/>
<text text-anchor="start" x="91.63" y="-10.45" font-family="Helvetica,sans-Serif" font-size="12.00" fill="#838b8b">0.58s: Done</text>
<text text-anchor="start" x="156.13" y="-10.45" font-family="Helvetica,sans-Serif" font-size="14.00"> &#160;</text>
</g>
<!-- AttackParrying&#45;&gt;Explosion -->
<g id="edge5" class="edge">
<title>AttackParrying&#45;&gt;Explosion</title>
<path fill="none" stroke="#cdc8b1" d="M197.68,-37.12C222.9,-42.92 252.6,-50.86 278.5,-60.75 321.88,-77.32 368.33,-101.92 402.61,-121.52"/>
<polygon fill="#cdc8b1" stroke="#cdc8b1" points="400.67,-124.44 411.08,-126.41 404.17,-118.38 400.67,-124.44"/>
</g>
<!-- Hurt1 -->
<g id="node7" class="node">
<title>Hurt1</title>
<polygon fill="none" stroke="black" points="100.25,-615.75 100.25,-637.5 178.25,-637.5 178.25,-615.75 100.25,-615.75"/>
<text text-anchor="start" x="119" y="-621.2" font-family="Helvetica,sans-Serif" font-size="14.00">Hurt1 &#160;</text>
<polygon fill="none" stroke="black" points="100.25,-594 100.25,-615.75 178.25,-615.75 178.25,-594 100.25,-594"/>
<text text-anchor="start" x="103.25" y="-600.45" font-family="Helvetica,sans-Serif" font-size="12.00" fill="#838b8b">0.25s: Done</text>
<text text-anchor="start" x="167.75" y="-600.45" font-family="Helvetica,sans-Serif" font-size="14.00"> &#160;</text>
</g>
<!-- Engaging -->
<g id="node8" class="node">
<title>Engaging</title>
<polygon fill="none" stroke="black" points="491.98,-528.75 418.98,-528.75 418.98,-492.75 491.98,-492.75 491.98,-528.75"/>
<text text-anchor="middle" x="455.48" y="-505.32" font-family="Helvetica,sans-Serif" font-size="14.00">Engaging</text>
</g>
<!-- Hurt1&#45;&gt;Engaging -->
<g id="edge6" class="edge">
<title>Hurt1&#45;&gt;Engaging</title>
<path fill="none" stroke="#cdc8b1" d="M186.13,-605.72C213.25,-599.4 248.12,-590.59 278.5,-580.75 323.29,-566.24 373.03,-546.06 408.17,-531.1"/>
<polygon fill="#cdc8b1" stroke="#cdc8b1" points="409.38,-534.39 417.19,-527.23 406.62,-527.95 409.38,-534.39"/>
</g>
<!-- Hurt2 -->
<g id="node9" class="node">
<title>Hurt2</title>
<polygon fill="none" stroke="black" points="100.25,-545.75 100.25,-567.5 178.25,-567.5 178.25,-545.75 100.25,-545.75"/>
<text text-anchor="start" x="119" y="-551.2" font-family="Helvetica,sans-Serif" font-size="14.00">Hurt2 &#160;</text>
<polygon fill="none" stroke="black" points="100.25,-524 100.25,-545.75 178.25,-545.75 178.25,-524 100.25,-524"/>
<text text-anchor="start" x="103.25" y="-530.45" font-family="Helvetica,sans-Serif" font-size="12.00" fill="#838b8b">0.25s: Done</text>
<text text-anchor="start" x="167.75" y="-530.45" font-family="Helvetica,sans-Serif" font-size="14.00"> &#160;</text>
</g>
<!-- Hurt2&#45;&gt;Engaging -->
<g id="edge7" class="edge">
<title>Hurt2&#45;&gt;Engaging</title>
<path fill="none" stroke="#cdc8b1" d="M185.94,-540.66C244.98,-534.08 347.28,-522.69 407.12,-516.02"/>
<polygon fill="#cdc8b1" stroke="#cdc8b1" points="407.44,-519.51 416.99,-514.92 406.67,-512.55 407.44,-519.51"/>
</g>
<!-- Sleep -->
<g id="node10" class="node">
<title>Sleep</title>
<polygon fill="none" stroke="black" points="75.5,-475.75 75.5,-497.5 203,-497.5 203,-475.75 75.5,-475.75"/>
<text text-anchor="start" x="118.25" y="-481.2" font-family="Helvetica,sans-Serif" font-size="14.00">Sleep &#160;</text>
<polygon fill="none" stroke="black" points="75.5,-454 75.5,-475.75 203,-475.75 203,-454 75.5,-454"/>
<text text-anchor="start" x="78.5" y="-460.45" font-family="Helvetica,sans-Serif" font-size="12.00" fill="#838b8b">0.08s: DisableGravity</text>
<text text-anchor="start" x="192.5" y="-460.45" font-family="Helvetica,sans-Serif" font-size="14.00"> &#160;</text>
</g>
<!-- Sleep&#45;&gt;Engaging -->
<g id="edge8" class="edge">
<title>Sleep&#45;&gt;Engaging</title>
<path fill="none" stroke="#cdc8b1" d="M210.77,-483.6C270.82,-490.29 355.43,-499.72 407.52,-505.52"/>
<polygon fill="#cdc8b1" stroke="#cdc8b1" points="406.92,-508.97 417.25,-506.6 407.7,-502.02 406.92,-508.97"/>
</g>
<!-- WakeUp -->
<g id="node11" class="node">
<title>WakeUp</title>
<polygon fill="none" stroke="black" points="79.25,-405.88 79.25,-427.62 199.25,-427.62 199.25,-405.88 79.25,-405.88"/>
<text text-anchor="start" x="109.63" y="-411.32" font-family="Helvetica,sans-Serif" font-size="14.00">WakeUp &#160;</text>
<polygon fill="none" stroke="black" points="79.25,-373.88 79.25,-405.88 199.25,-405.88 199.25,-373.88 79.25,-373.88"/>
<text text-anchor="start" x="82.25" y="-392.48" font-family="Helvetica,sans-Serif" font-size="12.00" fill="#838b8b">0.08s: DisableGravity</text>
<text text-anchor="start" x="82.25" y="-378.58" font-family="Helvetica,sans-Serif" font-size="12.00" fill="#838b8b">1.00s: Done</text>
<text text-anchor="start" x="146.75" y="-378.58" font-family="Helvetica,sans-Serif" font-size="14.00"> &#160;</text>
</g>
<!-- WakeUp&#45;&gt;Engaging -->
<g id="edge9" class="edge">
<title>WakeUp&#45;&gt;Engaging</title>
<path fill="none" stroke="#cdc8b1" d="M207.11,-418.68C229.91,-425.17 255.45,-432.85 278.5,-440.75 323.18,-456.06 373.12,-476.23 408.35,-490.98"/>
<polygon fill="#cdc8b1" stroke="#cdc8b1" points="406.82,-494.13 417.4,-494.79 409.54,-487.68 406.82,-494.13"/>
</g>
<!-- Idle -->
<g id="node12" class="node">
<title>Idle</title>
<polygon fill="none" stroke="black" points="173.5,-695.75 105,-695.75 105,-659.75 173.5,-659.75 173.5,-695.75"/>
<text text-anchor="middle" x="139.25" y="-672.33" font-family="Helvetica,sans-Serif" font-size="14.00">Idle (Init)</text>
</g>
<!-- Level Once Sensor -->
<g id="node13" class="node">
<title>Level Once Sensor</title>
<polygon fill="none" stroke="black" points="205,-749.75 73.5,-749.75 73.5,-713.75 205,-713.75 205,-749.75"/>
<text text-anchor="middle" x="139.25" y="-726.33" font-family="Helvetica,sans-Serif" font-size="14.00">Level Once Sensor</text>
</g>
<!-- Level Once Sensor_linked -->
<g id="node14" class="node">
<title>Level Once Sensor_linked</title>
<polygon fill="none" stroke="black" stroke-dasharray="1,5" points="531.2,-749.75 379.75,-749.75 379.75,-713.75 531.2,-713.75 531.2,-749.75"/>
<text text-anchor="start" x="385.35" y="-726.33" font-family="Helvetica,sans-Serif" font-size="14.00">FollowChaseHitPlayer &#160;</text>
</g>
<!-- Level Once Sensor&#45;&gt;Level Once Sensor_linked -->
<g id="edge10" class="edge">
<title>Level Once Sensor&#45;&gt;Level Once Sensor_linked</title>
<path fill="none" stroke="#66cdaa" d="M205.36,-731.75C252.49,-731.75 316.67,-731.75 368.08,-731.75"/>
<polygon fill="#66cdaa" stroke="#66cdaa" points="368,-735.25 378,-731.75 368,-728.25 368,-735.25"/>
<text text-anchor="middle" x="329.13" y="-734.2" font-family="Helvetica,sans-Serif" font-size="14.00" fill="#66cdaa">QueueEnd</text>
</g>
<!-- Level Once Sensor_mustuse -->
<g id="node15" class="node">
<title>Level Once Sensor_mustuse</title>
<polygon fill="none" stroke="black" stroke-dasharray="1,5" points="505.6,-803.75 405.35,-803.75 405.35,-767.75 505.6,-767.75 505.6,-803.75"/>
<text text-anchor="start" x="415.35" y="-780.33" font-family="Helvetica,sans-Serif" font-size="14.00">1 Undefined &#160;</text>
</g>
<!-- Level Once Sensor&#45;&gt;Level Once Sensor_mustuse -->
<g id="edge11" class="edge">
<title>Level Once Sensor&#45;&gt;Level Once Sensor_mustuse</title>
<path fill="none" stroke="#458b74" d="M205.36,-742.94C260.74,-752.46 339.67,-766.02 393.76,-775.32"/>
<polygon fill="#458b74" stroke="#458b74" points="392.97,-778.73 403.42,-776.98 394.15,-771.83 392.97,-778.73"/>
<text text-anchor="middle" x="329.13" y="-772.24" font-family="Helvetica,sans-Serif" font-size="14.00" fill="#458b74">Weight</text>
</g>
<!-- RunAwaySensor -->
<g id="node16" class="node">
<title>RunAwaySensor</title>
<polygon fill="none" stroke="black" points="197.5,-803.75 81,-803.75 81,-767.75 197.5,-767.75 197.5,-803.75"/>
<text text-anchor="middle" x="139.25" y="-780.33" font-family="Helvetica,sans-Serif" font-size="14.00">RunAwaySensor</text>
</g>
<!-- AttackSensor -->
<g id="node17" class="node">
<title>AttackSensor</title>
<polygon fill="none" stroke="black" points="187.38,-857.75 91.13,-857.75 91.13,-821.75 187.38,-821.75 187.38,-857.75"/>
<text text-anchor="middle" x="139.25" y="-834.33" font-family="Helvetica,sans-Serif" font-size="14.00">AttackSensor</text>
</g>
<!-- AttackSensor_linked -->
<g id="node18" class="node">
<title>AttackSensor_linked</title>
<polygon fill="none" stroke="black" stroke-dasharray="1,5" points="531.2,-857.75 379.75,-857.75 379.75,-821.75 531.2,-821.75 531.2,-857.75"/>
<text text-anchor="start" x="385.35" y="-834.33" font-family="Helvetica,sans-Serif" font-size="14.00">FollowChaseHitPlayer &#160;</text>
</g>
<!-- AttackSensor&#45;&gt;AttackSensor_linked -->
<g id="edge12" class="edge">
<title>AttackSensor&#45;&gt;AttackSensor_linked</title>
<path fill="none" stroke="#66cdaa" d="M187.63,-839.75C235.29,-839.75 309.85,-839.75 368.06,-839.75"/>
<polygon fill="#66cdaa" stroke="#66cdaa" points="367.95,-843.25 377.95,-839.75 367.95,-836.25 367.95,-843.25"/>
<text text-anchor="middle" x="329.13" y="-842.2" font-family="Helvetica,sans-Serif" font-size="14.00" fill="#66cdaa">QueueEnd</text>
</g>
<!-- DodgePredictSensor -->
<g id="node19" class="node">
<title>DodgePredictSensor</title>
<polygon fill="none" stroke="black" points="70.25,-901.75 70.25,-923.5 208.25,-923.5 208.25,-901.75 70.25,-901.75"/>
<text text-anchor="start" x="73.25" y="-907.2" font-family="Helvetica,sans-Serif" font-size="14.00">DodgePredictSensor &#160;</text>
<polygon fill="none" stroke="black" points="70.25,-880 70.25,-901.75 208.25,-901.75 208.25,-880 70.25,-880"/>
<text text-anchor="start" x="73.25" y="-886.45" font-family="Helvetica,sans-Serif" font-size="12.00" fill="#838b8b">if: Dodge</text>
<text text-anchor="start" x="121.25" y="-886.45" font-family="Helvetica,sans-Serif" font-size="14.00"> &#160;</text>
</g>
<!-- DodgePredictSensor_linked -->
<g id="node20" class="node">
<title>DodgePredictSensor_linked</title>
<polygon fill="none" stroke="black" stroke-dasharray="1,5" points="531.2,-919.75 379.75,-919.75 379.75,-883.75 531.2,-883.75 531.2,-919.75"/>
<text text-anchor="start" x="385.35" y="-896.33" font-family="Helvetica,sans-Serif" font-size="14.00">FollowChaseHitPlayer &#160;</text>
</g>
<!-- DodgePredictSensor&#45;&gt;DodgePredictSensor_linked -->
<g id="edge13" class="edge">
<title>DodgePredictSensor&#45;&gt;DodgePredictSensor_linked</title>
<path fill="none" stroke="#66cdaa" d="M215.91,-901.75C261.81,-901.75 320.53,-901.75 368.22,-901.75"/>
<polygon fill="#66cdaa" stroke="#66cdaa" points="367.95,-905.25 377.95,-901.75 367.95,-898.25 367.95,-905.25"/>
<text text-anchor="middle" x="329.13" y="-904.2" font-family="Helvetica,sans-Serif" font-size="14.00" fill="#66cdaa">QueueEnd</text>
</g>
</g>
</svg>
