<?xml version="1.0" encoding="UTF-8" standalone="no"?>
<!DOCTYPE svg PUBLIC "-//W3C//DTD SVG 1.1//EN"
 "http://www.w3.org/Graphics/SVG/1.1/DTD/svg11.dtd">
<!-- Generated by graphviz version 12.2.1 (20241206.2353)
 -->
<!-- Title: Foo Pages: 1 -->
<svg width="472pt" height="1537pt"
 viewBox="0.00 0.00 471.75 1537.00" xmlns="http://www.w3.org/2000/svg" xmlns:xlink="http://www.w3.org/1999/xlink">
<g id="graph0" class="graph" transform="scale(1 1) rotate(0) translate(4 1533)">
<title>Foo</title>
<polygon fill="white" stroke="none" points="-4,4 -4,-1533 467.75,-1533 467.75,4 -4,4"/>
<g id="clust1" class="cluster">
<title>cluster_attacksensors</title>
<polygon fill="none" stroke="black" points="17.88,-8 17.88,-656 455.75,-656 455.75,-8 17.88,-8"/>
<text text-anchor="middle" x="236.81" y="-638.7" font-family="Helvetica,sans-Serif" font-size="14.00">Attack Sensors</text>
</g>
<!-- Level Once Sensor -->
<g id="node1" class="node">
<title>Level Once Sensor</title>
<polygon fill="none" stroke="black" points="38.38,-34.12 38.38,-55.88 167.38,-55.88 167.38,-34.12 38.38,-34.12"/>
<text text-anchor="start" x="41.38" y="-39.58" font-family="Helvetica,sans-Serif" font-size="14.00">Level Once Sensor &#160;</text>
</g>
<!-- Level Once Sensor_linked -->
<g id="node2" class="node">
<title>Level Once Sensor_linked</title>
<polygon fill="none" stroke="black" stroke-dasharray="1,5" points="437.73,-52 317.02,-52 317.02,-16 437.73,-16 437.73,-52"/>
<text text-anchor="start" x="322.62" y="-28.57" font-family="Helvetica,sans-Serif" font-size="14.00">TurnAroundPoke &#160;</text>
</g>
<!-- Level Once Sensor&#45;&gt;Level Once Sensor_linked -->
<g id="edge1" class="edge">
<title>Level Once Sensor&#45;&gt;Level Once Sensor_linked</title>
<path fill="none" stroke="#66cdaa" d="M175.12,-42.12C215.24,-40.5 265.2,-38.49 305.3,-36.87"/>
<polygon fill="#66cdaa" stroke="#66cdaa" points="305.24,-40.37 315.09,-36.47 304.96,-33.38 305.24,-40.37"/>
<text text-anchor="middle" x="256.38" y="-42.61" font-family="Helvetica,sans-Serif" font-size="14.00" fill="#66cdaa">QueueEnd</text>
</g>
<!-- Level Once Sensor_weight -->
<g id="node3" class="node">
<title>Level Once Sensor_weight</title>
<polygon fill="none" stroke="black" stroke-dasharray="1,5" points="447.75,-106 307,-106 307,-70 447.75,-70 447.75,-106"/>
<text text-anchor="start" x="317" y="-82.58" font-family="Helvetica,sans-Serif" font-size="14.00">1 TurnAroundPoke &#160;</text>
</g>
<!-- Level Once Sensor&#45;&gt;Level Once Sensor_weight -->
<g id="edge2" class="edge">
<title>Level Once Sensor&#45;&gt;Level Once Sensor_weight</title>
<path fill="none" stroke="#458b74" d="M175.12,-56.24C212.14,-62.08 257.54,-69.25 295.84,-75.29"/>
<polygon fill="#458b74" stroke="#458b74" points="295.04,-78.71 305.47,-76.81 296.14,-71.8 295.04,-78.71"/>
<text text-anchor="middle" x="256.38" y="-76.54" font-family="Helvetica,sans-Serif" font-size="14.00" fill="#458b74">Weight</text>
</g>
<!-- RunAwaySensor -->
<g id="node4" class="node">
<title>RunAwaySensor</title>
<polygon fill="none" stroke="black" points="45.88,-93.12 45.88,-114.88 159.88,-114.88 159.88,-93.12 45.88,-93.12"/>
<text text-anchor="start" x="48.88" y="-98.58" font-family="Helvetica,sans-Serif" font-size="14.00">RunAwaySensor &#160;</text>
</g>
<!-- AttackSensor -->
<g id="node5" class="node">
<title>AttackSensor</title>
<polygon fill="none" stroke="black" points="44,-197 44,-218.75 161.75,-218.75 161.75,-197 44,-197"/>
<text text-anchor="start" x="59" y="-202.45" font-family="Helvetica,sans-Serif" font-size="14.00">AttackSensor &#160;</text>
<polygon fill="none" stroke="black" points="44,-175.25 44,-197 161.75,-197 161.75,-175.25 44,-175.25"/>
<text text-anchor="start" x="47" y="-181.7" font-family="Helvetica,sans-Serif" font-size="12.00" fill="#838b8b">if: state is PreAttack</text>
<text text-anchor="start" x="151.25" y="-181.7" font-family="Helvetica,sans-Serif" font-size="14.00"> &#160;</text>
</g>
<!-- AttackSensor_linked -->
<g id="node6" class="node">
<title>AttackSensor_linked</title>
<polygon fill="none" stroke="black" stroke-dasharray="1,5" points="426.85,-160 327.9,-160 327.9,-124 426.85,-124 426.85,-160"/>
<text text-anchor="start" x="333.5" y="-136.57" font-family="Helvetica,sans-Serif" font-size="14.00">DoubleAttack &#160;</text>
</g>
<!-- AttackSensor&#45;&gt;AttackSensor_linked -->
<g id="edge3" class="edge">
<title>AttackSensor&#45;&gt;AttackSensor_linked</title>
<path fill="none" stroke="#66cdaa" d="M169.49,-183.76C214.16,-174.74 272.84,-162.9 316.28,-154.13"/>
<polygon fill="#66cdaa" stroke="#66cdaa" points="316.95,-157.56 326.06,-152.15 315.57,-150.7 316.95,-157.56"/>
<text text-anchor="middle" x="256.38" y="-175.24" font-family="Helvetica,sans-Serif" font-size="14.00" fill="#66cdaa">QueueEnd</text>
</g>
<!-- AttackSensor_weight -->
<g id="node7" class="node">
<title>AttackSensor_weight</title>
<polygon fill="none" stroke="black" stroke-dasharray="1,5" points="436.88,-245.62 317.88,-245.62 317.88,-178.38 436.88,-178.38 436.88,-245.62"/>
<text text-anchor="start" x="327.88" y="-226.32" font-family="Helvetica,sans-Serif" font-size="14.00">2 DoubleAttack &#160;</text>
<text text-anchor="start" x="331.25" y="-206.57" font-family="Helvetica,sans-Serif" font-size="14.00">0 RollThrough &#160;</text>
<text text-anchor="start" x="336.12" y="-186.82" font-family="Helvetica,sans-Serif" font-size="14.00">1 JumpBack &#160;</text>
</g>
<!-- AttackSensor&#45;&gt;AttackSensor_weight -->
<g id="edge4" class="edge">
<title>AttackSensor&#45;&gt;AttackSensor_weight</title>
<path fill="none" stroke="#458b74" d="M169.49,-200.61C210.89,-202.89 264.32,-205.83 306.51,-208.15"/>
<polygon fill="#458b74" stroke="#458b74" points="306.13,-211.64 316.31,-208.69 306.51,-204.65 306.13,-211.64"/>
<text text-anchor="middle" x="256.38" y="-209.6" font-family="Helvetica,sans-Serif" font-size="14.00" fill="#458b74">Weight</text>
</g>
<!-- DodgePredictSensor -->
<g id="node8" class="node">
<title>DodgePredictSensor</title>
<polygon fill="none" stroke="black" points="33.88,-282 33.88,-303.75 171.88,-303.75 171.88,-282 33.88,-282"/>
<text text-anchor="start" x="36.88" y="-287.45" font-family="Helvetica,sans-Serif" font-size="14.00">DodgePredictSensor &#160;</text>
<polygon fill="none" stroke="black" points="33.88,-260.25 33.88,-282 171.88,-282 171.88,-260.25 33.88,-260.25"/>
<text text-anchor="start" x="36.88" y="-266.7" font-family="Helvetica,sans-Serif" font-size="12.00" fill="#838b8b">if: rollingCondition</text>
<text text-anchor="start" x="133.62" y="-266.7" font-family="Helvetica,sans-Serif" font-size="14.00"> &#160;</text>
</g>
<!-- DodgePredictSensor_linked -->
<g id="node9" class="node">
<title>DodgePredictSensor_linked</title>
<polygon fill="none" stroke="black" stroke-dasharray="1,5" points="426.85,-300 327.9,-300 327.9,-264 426.85,-264 426.85,-300"/>
<text text-anchor="start" x="333.5" y="-276.57" font-family="Helvetica,sans-Serif" font-size="14.00">DoubleAttack &#160;</text>
</g>
<!-- DodgePredictSensor&#45;&gt;DodgePredictSensor_linked -->
<g id="edge5" class="edge">
<title>DodgePredictSensor&#45;&gt;DodgePredictSensor_linked</title>
<path fill="none" stroke="#66cdaa" d="M179.78,-282C222.78,-282 275.83,-282 315.98,-282"/>
<polygon fill="#66cdaa" stroke="#66cdaa" points="315.96,-285.5 325.96,-282 315.96,-278.5 315.96,-285.5"/>
<text text-anchor="middle" x="256.38" y="-284.45" font-family="Helvetica,sans-Serif" font-size="14.00" fill="#66cdaa">QueueEnd</text>
</g>
<!-- AttackPredictSensor -->
<g id="node10" class="node">
<title>AttackPredictSensor</title>
<polygon fill="none" stroke="black" points="35,-368 35,-389.75 170.75,-389.75 170.75,-368 35,-368"/>
<text text-anchor="start" x="38" y="-373.45" font-family="Helvetica,sans-Serif" font-size="14.00">AttackPredictSensor &#160;</text>
<polygon fill="none" stroke="black" points="35,-346.25 35,-368 170.75,-368 170.75,-346.25 35,-346.25"/>
<text text-anchor="start" x="38" y="-352.7" font-family="Helvetica,sans-Serif" font-size="12.00" fill="#838b8b">if: attackCondition</text>
<text text-anchor="start" x="133.25" y="-352.7" font-family="Helvetica,sans-Serif" font-size="14.00"> &#160;</text>
</g>
<!-- AttackPredictSensor_linked -->
<g id="node11" class="node">
<title>AttackPredictSensor_linked</title>
<polygon fill="none" stroke="black" stroke-dasharray="1,5" points="437.73,-354 317.02,-354 317.02,-318 437.73,-318 437.73,-354"/>
<text text-anchor="start" x="322.62" y="-330.57" font-family="Helvetica,sans-Serif" font-size="14.00">TurnAroundPoke &#160;</text>
</g>
<!-- AttackPredictSensor&#45;&gt;AttackPredictSensor_linked -->
<g id="edge6" class="edge">
<title>AttackPredictSensor&#45;&gt;AttackPredictSensor_linked</title>
<path fill="none" stroke="#66cdaa" d="M178.7,-359.21C218.28,-354.57 266.6,-348.89 305.57,-344.32"/>
<polygon fill="#66cdaa" stroke="#66cdaa" points="305.79,-347.81 315.31,-343.17 304.97,-340.86 305.79,-347.81"/>
<text text-anchor="middle" x="256.38" y="-356.37" font-family="Helvetica,sans-Serif" font-size="14.00" fill="#66cdaa">QueueEnd</text>
</g>
<!-- AttackPredictSensor_weight -->
<g id="node15" class="node">
<title>AttackPredictSensor_weight</title>
<polygon fill="none" stroke="black" stroke-dasharray="1,5" points="428.62,-408 326.12,-408 326.12,-372 428.62,-372 428.62,-408"/>
<text text-anchor="start" x="336.12" y="-384.57" font-family="Helvetica,sans-Serif" font-size="14.00">1 JumpBack &#160;</text>
</g>
<!-- AttackPredictSensor&#45;&gt;AttackPredictSensor_weight -->
<g id="edge9" class="edge">
<title>AttackPredictSensor&#45;&gt;AttackPredictSensor_weight</title>
<path fill="none" stroke="#458b74" d="M178.7,-374.04C221.38,-377.49 274.23,-381.75 314.55,-385.01"/>
<polygon fill="#458b74" stroke="#458b74" points="314.07,-388.48 324.32,-385.8 314.64,-381.5 314.07,-388.48"/>
<text text-anchor="middle" x="256.38" y="-385.33" font-family="Helvetica,sans-Serif" font-size="14.00" fill="#458b74">Weight</text>
</g>
<!-- AttackRunToSensor -->
<g id="node12" class="node">
<title>AttackRunToSensor</title>
<polygon fill="none" stroke="black" points="36.5,-475 36.5,-496.75 169.25,-496.75 169.25,-475 36.5,-475"/>
<text text-anchor="start" x="39.5" y="-480.45" font-family="Helvetica,sans-Serif" font-size="14.00">AttackRunToSensor &#160;</text>
<polygon fill="none" stroke="black" points="36.5,-453.25 36.5,-475 169.25,-475 169.25,-453.25 36.5,-453.25"/>
<text text-anchor="start" x="39.5" y="-459.7" font-family="Helvetica,sans-Serif" font-size="12.00" fill="#838b8b">if: state is Engaging</text>
<text text-anchor="start" x="143.75" y="-459.7" font-family="Helvetica,sans-Serif" font-size="14.00"> &#160;</text>
</g>
<!-- AttackRunToSensor_linked -->
<g id="node13" class="node">
<title>AttackRunToSensor_linked</title>
<polygon fill="none" stroke="black" stroke-dasharray="1,5" points="414.48,-462 340.27,-462 340.27,-426 414.48,-426 414.48,-462"/>
<text text-anchor="start" x="345.88" y="-438.57" font-family="Helvetica,sans-Serif" font-size="14.00">RunPoke &#160;</text>
</g>
<!-- AttackRunToSensor&#45;&gt;AttackRunToSensor_linked -->
<g id="edge7" class="edge">
<title>AttackRunToSensor&#45;&gt;AttackRunToSensor_linked</title>
<path fill="none" stroke="#66cdaa" d="M176.9,-466.69C225.03,-461.22 286.69,-454.2 328.62,-449.43"/>
<polygon fill="#66cdaa" stroke="#66cdaa" points="328.86,-452.93 338.4,-448.32 328.07,-445.97 328.86,-452.93"/>
<text text-anchor="middle" x="256.38" y="-463.81" font-family="Helvetica,sans-Serif" font-size="14.00" fill="#66cdaa">QueueEnd</text>
</g>
<!-- AttackRunToSensor_weight -->
<g id="node14" class="node">
<title>AttackRunToSensor_weight</title>
<polygon fill="none" stroke="black" stroke-dasharray="1,5" points="424.5,-516 330.25,-516 330.25,-480 424.5,-480 424.5,-516"/>
<text text-anchor="start" x="340.25" y="-492.57" font-family="Helvetica,sans-Serif" font-size="14.00">1 RunPoke &#160;</text>
</g>
<!-- AttackRunToSensor&#45;&gt;AttackRunToSensor_weight -->
<g id="edge8" class="edge">
<title>AttackRunToSensor&#45;&gt;AttackRunToSensor_weight</title>
<path fill="none" stroke="#458b74" d="M176.9,-481.16C221.43,-484.92 277.53,-489.66 318.89,-493.15"/>
<polygon fill="#458b74" stroke="#458b74" points="318.37,-496.62 328.63,-493.97 318.96,-489.64 318.37,-496.62"/>
<text text-anchor="middle" x="256.38" y="-493.01" font-family="Helvetica,sans-Serif" font-size="14.00" fill="#458b74">Weight</text>
</g>
<!-- RollSensor -->
<g id="node16" class="node">
<title>RollSensor</title>
<polygon fill="none" stroke="black" points="63.12,-541.12 63.12,-562.88 142.62,-562.88 142.62,-541.12 63.12,-541.12"/>
<text text-anchor="start" x="66.12" y="-546.58" font-family="Helvetica,sans-Serif" font-size="14.00">RollSensor &#160;</text>
</g>
<!-- RollSensor_linked -->
<g id="node17" class="node">
<title>RollSensor_linked</title>
<polygon fill="none" stroke="black" stroke-dasharray="1,5" points="423.48,-570 331.27,-570 331.27,-534 423.48,-534 423.48,-570"/>
<text text-anchor="start" x="336.88" y="-546.58" font-family="Helvetica,sans-Serif" font-size="14.00">RollThrough &#160;</text>
</g>
<!-- RollSensor&#45;&gt;RollSensor_linked -->
<g id="edge10" class="edge">
<title>RollSensor&#45;&gt;RollSensor_linked</title>
<path fill="none" stroke="#66cdaa" d="M150.41,-552C197.23,-552 269.49,-552 319.65,-552"/>
<polygon fill="#66cdaa" stroke="#66cdaa" points="319.43,-555.5 329.43,-552 319.43,-548.5 319.43,-555.5"/>
<text text-anchor="middle" x="256.38" y="-554.45" font-family="Helvetica,sans-Serif" font-size="14.00" fill="#66cdaa">QueueEnd</text>
</g>
<!-- JumpAwaySensor -->
<g id="node18" class="node">
<title>JumpAwaySensor</title>
<polygon fill="none" stroke="black" points="41.38,-595.12 41.38,-616.88 164.38,-616.88 164.38,-595.12 41.38,-595.12"/>
<text text-anchor="start" x="44.38" y="-600.58" font-family="Helvetica,sans-Serif" font-size="14.00">JumpAwaySensor &#160;</text>
</g>
<!-- JumpAwaySensor_linked -->
<g id="node19" class="node">
<title>JumpAwaySensor_linked</title>
<polygon fill="none" stroke="black" stroke-dasharray="1,5" points="423.48,-624 331.27,-624 331.27,-588 423.48,-588 423.48,-624"/>
<text text-anchor="start" x="336.88" y="-600.58" font-family="Helvetica,sans-Serif" font-size="14.00">RollThrough &#160;</text>
</g>
<!-- JumpAwaySensor&#45;&gt;JumpAwaySensor_linked -->
<g id="edge11" class="edge">
<title>JumpAwaySensor&#45;&gt;JumpAwaySensor_linked</title>
<path fill="none" stroke="#66cdaa" d="M172.29,-606C217.78,-606 276.81,-606 319.68,-606"/>
<polygon fill="#66cdaa" stroke="#66cdaa" points="319.53,-609.5 329.53,-606 319.53,-602.5 319.53,-609.5"/>
<text text-anchor="middle" x="256.38" y="-608.45" font-family="Helvetica,sans-Serif" font-size="14.00" fill="#66cdaa">QueueEnd</text>
</g>
<!-- TurnAroundPoke -->
<g id="node20" class="node">
<title>TurnAroundPoke</title>
<polygon fill="none" stroke="black" points="45.12,-801 45.12,-822.75 160.62,-822.75 160.62,-801 45.12,-801"/>
<text text-anchor="start" x="48.12" y="-806.45" font-family="Helvetica,sans-Serif" font-size="14.00">TurnAroundPoke &#160;</text>
<polygon fill="none" stroke="black" points="45.12,-779.25 45.12,-801 160.62,-801 160.62,-779.25 45.12,-779.25"/>
<text text-anchor="start" x="48.12" y="-785.7" font-family="Helvetica,sans-Serif" font-size="12.00" fill="#838b8b">1.00s: Done</text>
<text text-anchor="start" x="112.62" y="-785.7" font-family="Helvetica,sans-Serif" font-size="14.00"> &#160;</text>
</g>
<!-- Engaging -->
<g id="node21" class="node">
<title>Engaging</title>
<polygon fill="none" stroke="black" points="413.88,-840 340.88,-840 340.88,-804 413.88,-804 413.88,-840"/>
<text text-anchor="middle" x="377.38" y="-816.58" font-family="Helvetica,sans-Serif" font-size="14.00">Engaging</text>
</g>
<!-- TurnAroundPoke&#45;&gt;Engaging -->
<g id="edge12" class="edge">
<title>TurnAroundPoke&#45;&gt;Engaging</title>
<path fill="none" stroke="#cdc8b1" d="M168.45,-805.98C217.86,-809.78 284.86,-814.95 329.29,-818.37"/>
<polygon fill="#cdc8b1" stroke="#cdc8b1" points="328.88,-821.85 339.12,-819.13 329.42,-814.87 328.88,-821.85"/>
</g>
<!-- TurnAroundPoke_linked -->
<g id="node22" class="node">
<title>TurnAroundPoke_linked</title>
<polygon fill="none" stroke="black" stroke-dasharray="1,5" points="423.48,-786 331.27,-786 331.27,-750 423.48,-750 423.48,-786"/>
<text text-anchor="start" x="336.88" y="-762.58" font-family="Helvetica,sans-Serif" font-size="14.00">RollThrough &#160;</text>
</g>
<!-- TurnAroundPoke&#45;&gt;TurnAroundPoke_linked -->
<g id="edge13" class="edge">
<title>TurnAroundPoke&#45;&gt;TurnAroundPoke_linked</title>
<path fill="none" stroke="#66cdaa" d="M168.45,-793.18C214.4,-787.62 275.54,-780.21 319.62,-774.87"/>
<polygon fill="#66cdaa" stroke="#66cdaa" points="319.99,-778.35 329.5,-773.68 319.15,-771.4 319.99,-778.35"/>
<text text-anchor="middle" x="256.38" y="-788.93" font-family="Helvetica,sans-Serif" font-size="14.00" fill="#66cdaa">QueueEnd</text>
</g>
<!-- DoubleAttack -->
<g id="node23" class="node">
<title>DoubleAttack</title>
<polygon fill="none" stroke="black" points="44,-1025.12 44,-1046.88 161.75,-1046.88 161.75,-1025.12 44,-1025.12"/>
<text text-anchor="start" x="59" y="-1030.58" font-family="Helvetica,sans-Serif" font-size="14.00">DoubleAttack &#160;</text>
<polygon fill="none" stroke="black" points="44,-981.12 44,-1025.12 161.75,-1025.12 161.75,-981.12 44,-981.12"/>
<text text-anchor="start" x="47" y="-1011.73" font-family="Helvetica,sans-Serif" font-size="12.00" fill="#838b8b">0.98s: CheckFacing</text>
<text text-anchor="start" x="47" y="-999.73" font-family="Helvetica,sans-Serif" font-size="12.00" fill="#838b8b">1.67s: LinkNextMove</text>
<text text-anchor="start" x="47" y="-985.83" font-family="Helvetica,sans-Serif" font-size="12.00" fill="#838b8b">2.67s: Done</text>
<text text-anchor="start" x="111.5" y="-985.83" font-family="Helvetica,sans-Serif" font-size="14.00"> &#160;</text>
</g>
<!-- PreAttack -->
<g id="node24" class="node">
<title>PreAttack</title>
<polygon fill="none" stroke="black" points="414.62,-1247 340.12,-1247 340.12,-1211 414.62,-1211 414.62,-1247"/>
<text text-anchor="middle" x="377.38" y="-1223.58" font-family="Helvetica,sans-Serif" font-size="14.00">PreAttack</text>
</g>
<!-- DoubleAttack&#45;&gt;PreAttack -->
<g id="edge14" class="edge">
<title>DoubleAttack&#45;&gt;PreAttack</title>
<path fill="none" stroke="#cdc8b1" d="M169.61,-1039.5C182.05,-1045.48 194.64,-1052.36 205.75,-1060 266.24,-1101.6 324.24,-1165.92 354.56,-1202.03"/>
<polygon fill="#cdc8b1" stroke="#cdc8b1" points="351.6,-1203.95 360.68,-1209.41 356.99,-1199.48 351.6,-1203.95"/>
</g>
<!-- DoubleAttack_linked -->
<g id="node25" class="node">
<title>DoubleAttack_linked</title>
<polygon fill="none" stroke="black" stroke-dasharray="1,5" points="426.85,-970.35 327.9,-970.35 327.9,-923.65 426.85,-923.65 426.85,-970.35"/>
<text text-anchor="start" x="333.5" y="-951.45" font-family="Helvetica,sans-Serif" font-size="14.00">DangerSpear &#160;</text>
<text text-anchor="start" x="336.88" y="-931.7" font-family="Helvetica,sans-Serif" font-size="14.00">RollThrough &#160;</text>
</g>
<!-- DoubleAttack&#45;&gt;DoubleAttack_linked -->
<g id="edge15" class="edge">
<title>DoubleAttack&#45;&gt;DoubleAttack_linked</title>
<path fill="none" stroke="#66cdaa" d="M169.49,-997.87C214.26,-986.86 273.09,-972.4 316.56,-961.71"/>
<polygon fill="#66cdaa" stroke="#66cdaa" points="317.2,-965.15 326.08,-959.37 315.53,-958.36 317.2,-965.15"/>
<text text-anchor="middle" x="256.38" y="-986.96" font-family="Helvetica,sans-Serif" font-size="14.00" fill="#66cdaa">QueueEnd</text>
</g>
<!-- DoubleAttack_weight -->
<g id="node26" class="node">
<title>DoubleAttack_weight</title>
<polygon fill="none" stroke="black" stroke-dasharray="1,5" points="436.88,-1055.62 317.88,-1055.62 317.88,-988.38 436.88,-988.38 436.88,-1055.62"/>
<text text-anchor="start" x="327.88" y="-1036.33" font-family="Helvetica,sans-Serif" font-size="14.00">2 DangerSpear &#160;</text>
<text text-anchor="start" x="331.25" y="-1016.58" font-family="Helvetica,sans-Serif" font-size="14.00">1 RollThrough &#160;</text>
<text text-anchor="start" x="354.88" y="-996.83" font-family="Helvetica,sans-Serif" font-size="14.00">0 Skip &#160;</text>
</g>
<!-- DoubleAttack&#45;&gt;DoubleAttack_weight -->
<g id="edge16" class="edge">
<title>DoubleAttack&#45;&gt;DoubleAttack_weight</title>
<path fill="none" stroke="#458b74" d="M169.49,-1015.93C210.89,-1017.14 264.32,-1018.71 306.51,-1019.95"/>
<polygon fill="#458b74" stroke="#458b74" points="306.21,-1023.44 316.3,-1020.24 306.41,-1016.44 306.21,-1023.44"/>
<text text-anchor="middle" x="256.38" y="-1021.86" font-family="Helvetica,sans-Serif" font-size="14.00" fill="#458b74">Weight</text>
</g>
<!-- DangerSpear -->
<g id="node27" class="node">
<title>DangerSpear</title>
<polygon fill="none" stroke="black" points="44,-1197.12 44,-1218.88 161.75,-1218.88 161.75,-1197.12 44,-1197.12"/>
<text text-anchor="start" x="59" y="-1202.58" font-family="Helvetica,sans-Serif" font-size="14.00">DangerSpear &#160;</text>
<polygon fill="none" stroke="black" points="44,-1153.12 44,-1197.12 161.75,-1197.12 161.75,-1153.12 44,-1153.12"/>
<text text-anchor="start" x="47" y="-1183.72" font-family="Helvetica,sans-Serif" font-size="12.00" fill="#838b8b">0.33s: CheckFacing</text>
<text text-anchor="start" x="47" y="-1171.72" font-family="Helvetica,sans-Serif" font-size="12.00" fill="#838b8b">2.27s: LinkNextMove</text>
<text text-anchor="start" x="47" y="-1157.82" font-family="Helvetica,sans-Serif" font-size="12.00" fill="#838b8b">2.35s: Done</text>
<text text-anchor="start" x="111.5" y="-1157.82" font-family="Helvetica,sans-Serif" font-size="14.00"> &#160;</text>
</g>
<!-- DangerSpear&#45;&gt;PreAttack -->
<g id="edge17" class="edge">
<title>DangerSpear&#45;&gt;PreAttack</title>
<path fill="none" stroke="#cdc8b1" d="M169.49,-1196.35C218.5,-1204.09 284.36,-1214.48 328.48,-1221.44"/>
<polygon fill="#cdc8b1" stroke="#cdc8b1" points="327.84,-1224.89 338.27,-1222.99 328.94,-1217.97 327.84,-1224.89"/>
</g>
<!-- RunPoke -->
<g id="node28" class="node">
<title>RunPoke</title>
<polygon fill="none" stroke="black" points="44,-1449.12 44,-1470.88 161.75,-1470.88 161.75,-1449.12 44,-1449.12"/>
<text text-anchor="start" x="71.38" y="-1454.58" font-family="Helvetica,sans-Serif" font-size="14.00">RunPoke &#160;</text>
<polygon fill="none" stroke="black" points="44,-1405.12 44,-1449.12 161.75,-1449.12 161.75,-1405.12 44,-1405.12"/>
<text text-anchor="start" x="47" y="-1435.72" font-family="Helvetica,sans-Serif" font-size="12.00" fill="#838b8b">0.00s: DangerHint</text>
<text text-anchor="start" x="47" y="-1423.72" font-family="Helvetica,sans-Serif" font-size="12.00" fill="#838b8b">1.57s: LinkNextMove</text>
<text text-anchor="start" x="47" y="-1409.82" font-family="Helvetica,sans-Serif" font-size="12.00" fill="#838b8b">1.58s: Done</text>
<text text-anchor="start" x="111.5" y="-1409.82" font-family="Helvetica,sans-Serif" font-size="14.00"> &#160;</text>
</g>
<!-- RunPoke&#45;&gt;PreAttack -->
<g id="edge18" class="edge">
<title>RunPoke&#45;&gt;PreAttack</title>
<path fill="none" stroke="#cdc8b1" d="M169.5,-1412.34C181.95,-1406.38 194.57,-1399.54 205.75,-1392 265.09,-1351.98 322.89,-1290.68 353.63,-1255.77"/>
<polygon fill="#cdc8b1" stroke="#cdc8b1" points="355.92,-1258.47 359.85,-1248.64 350.64,-1253.87 355.92,-1258.47"/>
</g>
<!-- RunPoke_weight -->
<g id="node29" class="node">
<title>RunPoke_weight</title>
<polygon fill="none" stroke="black" stroke-dasharray="1,5" points="436.88,-1461.75 317.88,-1461.75 317.88,-1414.25 436.88,-1414.25 436.88,-1461.75"/>
<text text-anchor="start" x="331.25" y="-1442.45" font-family="Helvetica,sans-Serif" font-size="14.00">1 RollThrough &#160;</text>
<text text-anchor="start" x="327.88" y="-1422.7" font-family="Helvetica,sans-Serif" font-size="14.00">1 DangerSpear &#160;</text>
</g>
<!-- RunPoke&#45;&gt;RunPoke_weight -->
<g id="edge19" class="edge">
<title>RunPoke&#45;&gt;RunPoke_weight</title>
<path fill="none" stroke="#458b74" d="M169.49,-1438C210.89,-1438 264.32,-1438 306.51,-1438"/>
<polygon fill="#458b74" stroke="#458b74" points="306.3,-1441.5 316.3,-1438 306.3,-1434.5 306.3,-1441.5"/>
<text text-anchor="middle" x="256.38" y="-1440.45" font-family="Helvetica,sans-Serif" font-size="14.00" fill="#458b74">Weight</text>
</g>
<!-- HurtState -->
<g id="node30" class="node">
<title>HurtState</title>
<polygon fill="none" stroke="black" points="44.38,-1357.12 44.38,-1378.88 161.38,-1378.88 161.38,-1357.12 44.38,-1357.12"/>
<text text-anchor="start" x="70.62" y="-1362.58" font-family="Helvetica,sans-Serif" font-size="14.00">HurtState &#160;</text>
<polygon fill="none" stroke="black" points="44.38,-1325.12 44.38,-1357.12 161.38,-1357.12 161.38,-1325.12 44.38,-1325.12"/>
<text text-anchor="start" x="47.38" y="-1343.72" font-family="Helvetica,sans-Serif" font-size="12.00" fill="#838b8b">0.00s: EnableGravity</text>
<text text-anchor="start" x="47.38" y="-1329.82" font-family="Helvetica,sans-Serif" font-size="12.00" fill="#838b8b">0.18s: Done</text>
<text text-anchor="start" x="111.88" y="-1329.82" font-family="Helvetica,sans-Serif" font-size="14.00"> &#160;</text>
</g>
<!-- HurtState&#45;&gt;PreAttack -->
<g id="edge20" class="edge">
<title>HurtState&#45;&gt;PreAttack</title>
<path fill="none" stroke="#cdc8b1" d="M169.13,-1327.26C181.37,-1322.37 194,-1317.15 205.75,-1312 248.53,-1293.23 296.28,-1269.78 330.36,-1252.6"/>
<polygon fill="#cdc8b1" stroke="#cdc8b1" points="331.79,-1255.8 339.13,-1248.17 328.63,-1249.56 331.79,-1255.8"/>
</g>
<!-- Hurt_BigState -->
<g id="node31" class="node">
<title>Hurt_BigState</title>
<polygon fill="none" stroke="black" points="44.38,-1277.12 44.38,-1298.88 161.38,-1298.88 161.38,-1277.12 44.38,-1277.12"/>
<text text-anchor="start" x="57.12" y="-1282.58" font-family="Helvetica,sans-Serif" font-size="14.00">Hurt_BigState &#160;</text>
<polygon fill="none" stroke="black" points="44.38,-1245.12 44.38,-1277.12 161.38,-1277.12 161.38,-1245.12 44.38,-1245.12"/>
<text text-anchor="start" x="47.38" y="-1263.72" font-family="Helvetica,sans-Serif" font-size="12.00" fill="#838b8b">0.00s: EnableGravity</text>
<text text-anchor="start" x="47.38" y="-1249.82" font-family="Helvetica,sans-Serif" font-size="12.00" fill="#838b8b">1.00s: Done</text>
<text text-anchor="start" x="111.88" y="-1249.82" font-family="Helvetica,sans-Serif" font-size="14.00"> &#160;</text>
</g>
<!-- Hurt_BigState&#45;&gt;PreAttack -->
<g id="edge21" class="edge">
<title>Hurt_BigState&#45;&gt;PreAttack</title>
<path fill="none" stroke="#cdc8b1" d="M169.15,-1261.7C218.14,-1253.97 284.13,-1243.56 328.36,-1236.58"/>
<polygon fill="#cdc8b1" stroke="#cdc8b1" points="328.84,-1240.04 338.17,-1235.03 327.75,-1233.13 328.84,-1240.04"/>
</g>
<!-- JumpBack -->
<g id="node32" class="node">
<title>JumpBack</title>
<polygon fill="none" stroke="black" points="40.25,-878 40.25,-899.75 165.5,-899.75 165.5,-878 40.25,-878"/>
<text text-anchor="start" x="67.25" y="-883.45" font-family="Helvetica,sans-Serif" font-size="14.00">JumpBack &#160;</text>
<polygon fill="none" stroke="black" points="40.25,-856.25 40.25,-878 165.5,-878 165.5,-856.25 40.25,-856.25"/>
<text text-anchor="start" x="43.25" y="-862.7" font-family="Helvetica,sans-Serif" font-size="12.00" fill="#838b8b">0.83s: LinkNextMove</text>
<text text-anchor="start" x="155" y="-862.7" font-family="Helvetica,sans-Serif" font-size="14.00"> &#160;</text>
</g>
<!-- JumpBack&#45;&gt;Engaging -->
<g id="edge22" class="edge">
<title>JumpBack&#45;&gt;Engaging</title>
<path fill="none" stroke="#cdc8b1" d="M173.34,-863.72C222.16,-853.69 286.18,-840.53 329.17,-831.7"/>
<polygon fill="#cdc8b1" stroke="#cdc8b1" points="329.86,-835.13 338.95,-829.69 328.45,-828.28 329.86,-835.13"/>
</g>
<!-- JumpBack_weight -->
<g id="node33" class="node">
<title>JumpBack_weight</title>
<polygon fill="none" stroke="black" stroke-dasharray="1,5" points="436.88,-905.75 317.88,-905.75 317.88,-858.25 436.88,-858.25 436.88,-905.75"/>
<text text-anchor="start" x="327.88" y="-886.45" font-family="Helvetica,sans-Serif" font-size="14.00">1 DangerSpear &#160;</text>
<text text-anchor="start" x="327.88" y="-866.7" font-family="Helvetica,sans-Serif" font-size="14.00">1 DoubleAttack &#160;</text>
</g>
<!-- JumpBack&#45;&gt;JumpBack_weight -->
<g id="edge23" class="edge">
<title>JumpBack&#45;&gt;JumpBack_weight</title>
<path fill="none" stroke="#458b74" d="M173.34,-879.02C214.05,-879.62 265.31,-880.37 306.15,-880.97"/>
<polygon fill="#458b74" stroke="#458b74" points="306.08,-884.47 316.13,-881.12 306.18,-877.47 306.08,-884.47"/>
<text text-anchor="middle" x="256.38" y="-883.16" font-family="Helvetica,sans-Serif" font-size="14.00" fill="#458b74">Weight</text>
</g>
<!-- PostureBreak -->
<g id="node34" class="node">
<title>PostureBreak</title>
<polygon fill="none" stroke="black" points="44.38,-1105.12 44.38,-1126.88 161.38,-1126.88 161.38,-1105.12 44.38,-1105.12"/>
<text text-anchor="start" x="58.25" y="-1110.58" font-family="Helvetica,sans-Serif" font-size="14.00">PostureBreak &#160;</text>
<polygon fill="none" stroke="black" points="44.38,-1073.12 44.38,-1105.12 161.38,-1105.12 161.38,-1073.12 44.38,-1073.12"/>
<text text-anchor="start" x="47.38" y="-1091.72" font-family="Helvetica,sans-Serif" font-size="12.00" fill="#838b8b">0.00s: EnableGravity</text>
<text text-anchor="start" x="47.38" y="-1077.82" font-family="Helvetica,sans-Serif" font-size="12.00" fill="#838b8b">1.50s: Done</text>
<text text-anchor="start" x="111.88" y="-1077.82" font-family="Helvetica,sans-Serif" font-size="14.00"> &#160;</text>
</g>
<!-- PostureBreak&#45;&gt;PreAttack -->
<g id="edge24" class="edge">
<title>PostureBreak&#45;&gt;PreAttack</title>
<path fill="none" stroke="#cdc8b1" d="M169.25,-1124.48C181.48,-1129.39 194.08,-1134.68 205.75,-1140 250.11,-1160.21 299.33,-1186.29 333.46,-1204.99"/>
<polygon fill="#cdc8b1" stroke="#cdc8b1" points="331.77,-1208.06 342.22,-1209.81 335.15,-1201.92 331.77,-1208.06"/>
</g>
<!-- RollThrough -->
<g id="node35" class="node">
<title>RollThrough</title>
<polygon fill="none" stroke="black" points="8,-716.12 8,-737.88 197.75,-737.88 197.75,-716.12 8,-716.12"/>
<text text-anchor="start" x="62.38" y="-721.58" font-family="Helvetica,sans-Serif" font-size="14.00">RollThrough &#160;</text>
<polygon fill="none" stroke="black" points="8,-672.12 8,-716.12 197.75,-716.12 197.75,-672.12 8,-672.12"/>
<text text-anchor="start" x="11" y="-702.73" font-family="Helvetica,sans-Serif" font-size="12.00" fill="#838b8b">1.00s: InterruptFacing_TargetRight</text>
<text text-anchor="start" x="11" y="-690.73" font-family="Helvetica,sans-Serif" font-size="12.00" fill="#838b8b">1.02s: LinkNextMove</text>
<text text-anchor="start" x="11" y="-676.83" font-family="Helvetica,sans-Serif" font-size="12.00" fill="#838b8b">1.50s: Done</text>
<text text-anchor="start" x="75.5" y="-676.83" font-family="Helvetica,sans-Serif" font-size="14.00"> &#160;</text>
</g>
<!-- RollThrough&#45;&gt;Engaging -->
<g id="edge25" class="edge">
<title>RollThrough&#45;&gt;Engaging</title>
<path fill="none" stroke="#cdc8b1" d="M205.68,-733.64C234.03,-744.17 263.9,-757.84 289,-775 298.87,-781.75 297.16,-788.2 307,-795 314.02,-799.85 322.04,-804 330.07,-807.48"/>
<polygon fill="#cdc8b1" stroke="#cdc8b1" points="328.57,-810.65 339.15,-811.11 331.17,-804.15 328.57,-810.65"/>
</g>
<!-- RollThrough_weight -->
<g id="node36" class="node">
<title>RollThrough_weight</title>
<polygon fill="none" stroke="black" stroke-dasharray="1,5" points="447.75,-731.62 307,-731.62 307,-664.38 447.75,-664.38 447.75,-731.62"/>
<text text-anchor="start" x="317" y="-712.33" font-family="Helvetica,sans-Serif" font-size="14.00">1 TurnAroundPoke &#160;</text>
<text text-anchor="start" x="354.88" y="-692.58" font-family="Helvetica,sans-Serif" font-size="14.00">1 Skip &#160;</text>
<text text-anchor="start" x="327.88" y="-672.83" font-family="Helvetica,sans-Serif" font-size="14.00">1 DangerSpear &#160;</text>
</g>
<!-- RollThrough&#45;&gt;RollThrough_weight -->
<g id="edge26" class="edge">
<title>RollThrough&#45;&gt;RollThrough_weight</title>
<path fill="none" stroke="#458b74" d="M205.73,-702.38C235.36,-701.62 267.31,-700.8 295.46,-700.08"/>
<polygon fill="#458b74" stroke="#458b74" points="295.45,-703.58 305.36,-699.82 295.27,-696.58 295.45,-703.58"/>
<text text-anchor="middle" x="256.38" y="-704.37" font-family="Helvetica,sans-Serif" font-size="14.00" fill="#458b74">Weight</text>
</g>
<!-- Wandering_Idle -->
<g id="node37" class="node">
<title>Wandering_Idle</title>
<polygon fill="none" stroke="black" points="173.5,-1529 32.25,-1529 32.25,-1493 173.5,-1493 173.5,-1529"/>
<text text-anchor="middle" x="102.88" y="-1505.58" font-family="Helvetica,sans-Serif" font-size="14.00">Wandering_Idle (Init)</text>
</g>
</g>
</svg>
