<?xml version="1.0" encoding="UTF-8" standalone="no"?>
<!DOCTYPE svg PUBLIC "-//W3C//DTD SVG 1.1//EN"
 "http://www.w3.org/Graphics/SVG/1.1/DTD/svg11.dtd">
<!-- Generated by graphviz version 12.2.1 (20241206.2353)
 -->
<!-- Title: Foo Pages: 1 -->
<svg width="397pt" height="472pt"
 viewBox="0.00 0.00 397.25 471.75" xmlns="http://www.w3.org/2000/svg" xmlns:xlink="http://www.w3.org/1999/xlink">
<g id="graph0" class="graph" transform="scale(1 1) rotate(0) translate(4 467.75)">
<title>Foo</title>
<polygon fill="white" stroke="none" points="-4,4 -4,-467.75 393.25,-467.75 393.25,4 -4,4"/>
<g id="clust1" class="cluster">
<title>cluster_attacksensors</title>
<polygon fill="none" stroke="black" points="8,-61.75 8,-455.75 376.75,-455.75 376.75,-61.75 8,-61.75"/>
<text text-anchor="middle" x="192.38" y="-438.45" font-family="Helvetica,sans-Serif" font-size="14.00">Attack Sensors</text>
</g>
<!-- HurtState -->
<g id="node1" class="node">
<title>HurtState</title>
<polygon fill="none" stroke="black" points="54,-25.75 54,-47.5 132,-47.5 132,-25.75 54,-25.75"/>
<text text-anchor="start" x="60.75" y="-31.2" font-family="Helvetica,sans-Serif" font-size="14.00">HurtState &#160;</text>
<polygon fill="none" stroke="black" points="54,-4 54,-25.75 132,-25.75 132,-4 54,-4"/>
<text text-anchor="start" x="57" y="-10.45" font-family="Helvetica,sans-Serif" font-size="12.00" fill="#838b8b">0.33s: Done</text>
<text text-anchor="start" x="121.5" y="-10.45" font-family="Helvetica,sans-Serif" font-size="14.00"> &#160;</text>
</g>
<!-- Wandering_Idle -->
<g id="node2" class="node">
<title>Wandering_Idle</title>
<polygon fill="none" stroke="black" points="389.25,-43.75 248,-43.75 248,-7.75 389.25,-7.75 389.25,-43.75"/>
<text text-anchor="middle" x="318.62" y="-20.32" font-family="Helvetica,sans-Serif" font-size="14.00">Wandering_Idle (Init)</text>
</g>
<!-- HurtState&#45;&gt;Wandering_Idle -->
<g id="edge1" class="edge">
<title>HurtState&#45;&gt;Wandering_Idle</title>
<path fill="none" stroke="#cdc8b1" d="M139.79,-25.75C167.57,-25.75 203.81,-25.75 236.33,-25.75"/>
<polygon fill="#cdc8b1" stroke="#cdc8b1" points="236.14,-29.25 246.14,-25.75 236.14,-22.25 236.14,-29.25"/>
</g>
<!-- Level Once Sensor -->
<g id="node3" class="node">
<title>Level Once Sensor</title>
<polygon fill="none" stroke="black" points="158.75,-105.75 27.25,-105.75 27.25,-69.75 158.75,-69.75 158.75,-105.75"/>
<text text-anchor="middle" x="93" y="-82.33" font-family="Helvetica,sans-Serif" font-size="14.00">Level Once Sensor</text>
</g>
<!-- Level Once Sensor_mustuse -->
<g id="node4" class="node">
<title>Level Once Sensor_mustuse</title>
<polygon fill="none" stroke="black" stroke-dasharray="1,5" points="368.75,-105.75 268.5,-105.75 268.5,-69.75 368.75,-69.75 368.75,-105.75"/>
<text text-anchor="start" x="278.5" y="-82.33" font-family="Helvetica,sans-Serif" font-size="14.00">1 Undefined &#160;</text>
</g>
<!-- Level Once Sensor&#45;&gt;Level Once Sensor_mustuse -->
<g id="edge2" class="edge">
<title>Level Once Sensor&#45;&gt;Level Once Sensor_mustuse</title>
<path fill="none" stroke="#458b74" d="M158.98,-87.75C189.86,-87.75 226.54,-87.75 256.86,-87.75"/>
<polygon fill="#458b74" stroke="#458b74" points="256.63,-91.25 266.63,-87.75 256.63,-84.25 256.63,-91.25"/>
<text text-anchor="middle" x="209" y="-90.2" font-family="Helvetica,sans-Serif" font-size="14.00" fill="#458b74">Weight</text>
</g>
<!-- RunAwaySensor -->
<g id="node5" class="node">
<title>RunAwaySensor</title>
<polygon fill="none" stroke="black" points="151.25,-159.75 34.75,-159.75 34.75,-123.75 151.25,-123.75 151.25,-159.75"/>
<text text-anchor="middle" x="93" y="-136.32" font-family="Helvetica,sans-Serif" font-size="14.00">RunAwaySensor</text>
</g>
<!-- AttackSensor -->
<g id="node6" class="node">
<title>AttackSensor</title>
<polygon fill="none" stroke="black" points="141.12,-213.75 44.88,-213.75 44.88,-177.75 141.12,-177.75 141.12,-213.75"/>
<text text-anchor="middle" x="93" y="-190.32" font-family="Helvetica,sans-Serif" font-size="14.00">AttackSensor</text>
</g>
<!-- DodgePredictSensor -->
<g id="node7" class="node">
<title>DodgePredictSensor</title>
<polygon fill="none" stroke="black" points="24,-257.75 24,-279.5 162,-279.5 162,-257.75 24,-257.75"/>
<text text-anchor="start" x="27" y="-263.2" font-family="Helvetica,sans-Serif" font-size="14.00">DodgePredictSensor &#160;</text>
<polygon fill="none" stroke="black" points="24,-236 24,-257.75 162,-257.75 162,-236 24,-236"/>
<text text-anchor="start" x="27" y="-242.45" font-family="Helvetica,sans-Serif" font-size="12.00" fill="#838b8b">if: Dodge</text>
<text text-anchor="start" x="75" y="-242.45" font-family="Helvetica,sans-Serif" font-size="14.00"> &#160;</text>
</g>
<!-- AttackPredictSensor -->
<g id="node8" class="node">
<title>AttackPredictSensor</title>
<polygon fill="none" stroke="black" points="25.12,-327.75 25.12,-349.5 160.88,-349.5 160.88,-327.75 25.12,-327.75"/>
<text text-anchor="start" x="28.12" y="-333.2" font-family="Helvetica,sans-Serif" font-size="14.00">AttackPredictSensor &#160;</text>
<polygon fill="none" stroke="black" points="25.12,-306 25.12,-327.75 160.88,-327.75 160.88,-306 25.12,-306"/>
<text text-anchor="start" x="28.12" y="-312.45" font-family="Helvetica,sans-Serif" font-size="12.00" fill="#838b8b">if: Attack</text>
<text text-anchor="start" x="73.12" y="-312.45" font-family="Helvetica,sans-Serif" font-size="14.00"> &#160;</text>
</g>
<!-- AttackRunToSensor -->
<g id="node9" class="node">
<title>AttackRunToSensor</title>
<polygon fill="none" stroke="black" points="26.62,-397.75 26.62,-419.5 159.38,-419.5 159.38,-397.75 26.62,-397.75"/>
<text text-anchor="start" x="29.62" y="-403.2" font-family="Helvetica,sans-Serif" font-size="14.00">AttackRunToSensor &#160;</text>
<polygon fill="none" stroke="black" points="26.62,-376 26.62,-397.75 159.38,-397.75 159.38,-376 26.62,-376"/>
<text text-anchor="start" x="29.62" y="-382.45" font-family="Helvetica,sans-Serif" font-size="12.00" fill="#838b8b">if: state is Engaging</text>
<text text-anchor="start" x="133.88" y="-382.45" font-family="Helvetica,sans-Serif" font-size="14.00"> &#160;</text>
</g>
</g>
</svg>
