<?xml version="1.0" encoding="UTF-8" standalone="no"?>
<!DOCTYPE svg PUBLIC "-//W3C//DTD SVG 1.1//EN"
 "http://www.w3.org/Graphics/SVG/1.1/DTD/svg11.dtd">
<!-- Generated by graphviz version 12.2.1 (20241206.2353)
 -->
<!-- Title: Foo Pages: 1 -->
<svg width="419pt" height="534pt"
 viewBox="0.00 0.00 418.95 534.00" xmlns="http://www.w3.org/2000/svg" xmlns:xlink="http://www.w3.org/1999/xlink">
<g id="graph0" class="graph" transform="scale(1 1) rotate(0) translate(4 530)">
<title>Foo</title>
<polygon fill="white" stroke="none" points="-4,4 -4,-530 414.95,-530 414.95,4 -4,4"/>
<g id="clust1" class="cluster">
<title>cluster_attacksensors</title>
<polygon fill="none" stroke="black" points="8,-8 8,-262 402.95,-262 402.95,-8 8,-8"/>
<text text-anchor="middle" x="205.48" y="-244.7" font-family="Helvetica,sans-Serif" font-size="14.00">Attack Sensors</text>
</g>
<!-- Level Once Sensor -->
<g id="node1" class="node">
<title>Level Once Sensor</title>
<polygon fill="none" stroke="black" points="28.5,-23.12 28.5,-44.88 157.5,-44.88 157.5,-23.12 28.5,-23.12"/>
<text text-anchor="start" x="31.5" y="-28.57" font-family="Helvetica,sans-Serif" font-size="14.00">Level Once Sensor &#160;</text>
</g>
<!-- Level Once Sensor_linked -->
<g id="node2" class="node">
<title>Level Once Sensor_linked</title>
<polygon fill="none" stroke="black" stroke-dasharray="1,5" points="394.95,-52 271.25,-52 271.25,-16 394.95,-16 394.95,-52"/>
<text text-anchor="start" x="276.85" y="-28.57" font-family="Helvetica,sans-Serif" font-size="14.00">FlyingDashAttack &#160;</text>
</g>
<!-- Level Once Sensor&#45;&gt;Level Once Sensor_linked -->
<g id="edge1" class="edge">
<title>Level Once Sensor&#45;&gt;Level Once Sensor_linked</title>
<path fill="none" stroke="#66cdaa" d="M165.44,-34C195.2,-34 229.71,-34 259.58,-34"/>
<polygon fill="#66cdaa" stroke="#66cdaa" points="259.27,-37.5 269.27,-34 259.27,-30.5 259.27,-37.5"/>
<text text-anchor="middle" x="220.63" y="-36.45" font-family="Helvetica,sans-Serif" font-size="14.00" fill="#66cdaa">QueueEnd</text>
</g>
<!-- Level Once Sensor_weight -->
<g id="node3" class="node">
<title>Level Once Sensor_weight</title>
<polygon fill="none" stroke="black" stroke-dasharray="1,5" points="365.6,-106 300.6,-106 300.6,-70 365.6,-70 365.6,-106"/>
<text text-anchor="start" x="310.6" y="-82.58" font-family="Helvetica,sans-Serif" font-size="14.00">1 Skip &#160;</text>
</g>
<!-- Level Once Sensor&#45;&gt;Level Once Sensor_weight -->
<g id="edge2" class="edge">
<title>Level Once Sensor&#45;&gt;Level Once Sensor_weight</title>
<path fill="none" stroke="#458b74" d="M165.44,-50.2C205.8,-59.36 254.91,-70.49 289.33,-78.3"/>
<polygon fill="#458b74" stroke="#458b74" points="288.4,-81.68 298.93,-80.48 289.95,-74.85 288.4,-81.68"/>
<text text-anchor="middle" x="220.63" y="-71.44" font-family="Helvetica,sans-Serif" font-size="14.00" fill="#458b74">Weight</text>
</g>
<!-- RunAwaySensor -->
<g id="node4" class="node">
<title>RunAwaySensor</title>
<polygon fill="none" stroke="black" points="36,-77.12 36,-98.88 150,-98.88 150,-77.12 36,-77.12"/>
<text text-anchor="start" x="39" y="-82.58" font-family="Helvetica,sans-Serif" font-size="14.00">RunAwaySensor &#160;</text>
</g>
<!-- AttackSensor -->
<g id="node5" class="node">
<title>AttackSensor</title>
<polygon fill="none" stroke="black" points="46.12,-131.12 46.12,-152.88 139.88,-152.88 139.88,-131.12 46.12,-131.12"/>
<text text-anchor="start" x="49.12" y="-136.57" font-family="Helvetica,sans-Serif" font-size="14.00">AttackSensor &#160;</text>
</g>
<!-- AttackSensor_linked -->
<g id="node6" class="node">
<title>AttackSensor_linked</title>
<polygon fill="none" stroke="black" stroke-dasharray="1,5" points="394.95,-160 271.25,-160 271.25,-124 394.95,-124 394.95,-160"/>
<text text-anchor="start" x="276.85" y="-136.57" font-family="Helvetica,sans-Serif" font-size="14.00">FlyingDashAttack &#160;</text>
</g>
<!-- AttackSensor&#45;&gt;AttackSensor_linked -->
<g id="edge3" class="edge">
<title>AttackSensor&#45;&gt;AttackSensor_linked</title>
<path fill="none" stroke="#66cdaa" d="M147.73,-142C180.78,-142 223.55,-142 259.57,-142"/>
<polygon fill="#66cdaa" stroke="#66cdaa" points="259.5,-145.5 269.5,-142 259.5,-138.5 259.5,-145.5"/>
<text text-anchor="middle" x="220.63" y="-144.45" font-family="Helvetica,sans-Serif" font-size="14.00" fill="#66cdaa">QueueEnd</text>
</g>
<!-- DodgePredictSensor -->
<g id="node7" class="node">
<title>DodgePredictSensor</title>
<polygon fill="none" stroke="black" points="24,-204 24,-225.75 162,-225.75 162,-204 24,-204"/>
<text text-anchor="start" x="27" y="-209.45" font-family="Helvetica,sans-Serif" font-size="14.00">DodgePredictSensor &#160;</text>
<polygon fill="none" stroke="black" points="24,-182.25 24,-204 162,-204 162,-182.25 24,-182.25"/>
<text text-anchor="start" x="27" y="-188.7" font-family="Helvetica,sans-Serif" font-size="12.00" fill="#838b8b">if: rollingCondition</text>
<text text-anchor="start" x="123.75" y="-188.7" font-family="Helvetica,sans-Serif" font-size="14.00"> &#160;</text>
</g>
<!-- DodgePredictSensor_linked -->
<g id="node8" class="node">
<title>DodgePredictSensor_linked</title>
<polygon fill="none" stroke="black" stroke-dasharray="1,5" points="394.95,-222 271.25,-222 271.25,-186 394.95,-186 394.95,-222"/>
<text text-anchor="start" x="276.85" y="-198.57" font-family="Helvetica,sans-Serif" font-size="14.00">FlyingDashAttack &#160;</text>
</g>
<!-- DodgePredictSensor&#45;&gt;DodgePredictSensor_linked -->
<g id="edge4" class="edge">
<title>DodgePredictSensor&#45;&gt;DodgePredictSensor_linked</title>
<path fill="none" stroke="#66cdaa" d="M169.99,-204C198.7,-204 231.27,-204 259.64,-204"/>
<polygon fill="#66cdaa" stroke="#66cdaa" points="259.6,-207.5 269.6,-204 259.6,-200.5 259.6,-207.5"/>
<text text-anchor="middle" x="220.63" y="-206.45" font-family="Helvetica,sans-Serif" font-size="14.00" fill="#66cdaa">QueueEnd</text>
</g>
<!-- FlyingDashAttack -->
<g id="node9" class="node">
<title>FlyingDashAttack</title>
<polygon fill="none" stroke="black" points="33.75,-446.12 33.75,-467.88 152.25,-467.88 152.25,-446.12 33.75,-446.12"/>
<text text-anchor="start" x="36.75" y="-451.57" font-family="Helvetica,sans-Serif" font-size="14.00">FlyingDashAttack &#160;</text>
<polygon fill="none" stroke="black" points="33.75,-414.12 33.75,-446.12 152.25,-446.12 152.25,-414.12 33.75,-414.12"/>
<text text-anchor="start" x="36.75" y="-432.73" font-family="Helvetica,sans-Serif" font-size="12.00" fill="#838b8b">0.33s: CheckFacing</text>
<text text-anchor="start" x="36.75" y="-418.83" font-family="Helvetica,sans-Serif" font-size="12.00" fill="#838b8b">1.53s: Done</text>
<text text-anchor="start" x="101.25" y="-418.83" font-family="Helvetica,sans-Serif" font-size="14.00"> &#160;</text>
</g>
<!-- Engaging -->
<g id="node10" class="node">
<title>Engaging</title>
<polygon fill="none" stroke="black" points="369.6,-384 296.6,-384 296.6,-348 369.6,-348 369.6,-384"/>
<text text-anchor="middle" x="333.1" y="-360.57" font-family="Helvetica,sans-Serif" font-size="14.00">Engaging</text>
</g>
<!-- FlyingDashAttack&#45;&gt;Engaging -->
<g id="edge5" class="edge">
<title>FlyingDashAttack&#45;&gt;Engaging</title>
<path fill="none" stroke="#cdc8b1" d="M160.01,-420.21C199.92,-407.64 249.83,-391.91 285.61,-380.65"/>
<polygon fill="#cdc8b1" stroke="#cdc8b1" points="286.3,-384.1 294.78,-377.75 284.2,-377.42 286.3,-384.1"/>
</g>
<!-- Hurt1 -->
<g id="node11" class="node">
<title>Hurt1</title>
<polygon fill="none" stroke="black" points="54,-366 54,-387.75 132,-387.75 132,-366 54,-366"/>
<text text-anchor="start" x="72.75" y="-371.45" font-family="Helvetica,sans-Serif" font-size="14.00">Hurt1 &#160;</text>
<polygon fill="none" stroke="black" points="54,-344.25 54,-366 132,-366 132,-344.25 54,-344.25"/>
<text text-anchor="start" x="57" y="-350.7" font-family="Helvetica,sans-Serif" font-size="12.00" fill="#838b8b">0.25s: Done</text>
<text text-anchor="start" x="121.5" y="-350.7" font-family="Helvetica,sans-Serif" font-size="14.00"> &#160;</text>
</g>
<!-- Hurt1&#45;&gt;Engaging -->
<g id="edge6" class="edge">
<title>Hurt1&#45;&gt;Engaging</title>
<path fill="none" stroke="#cdc8b1" d="M139.91,-366C181.66,-366 243,-366 285.09,-366"/>
<polygon fill="#cdc8b1" stroke="#cdc8b1" points="284.91,-369.5 294.91,-366 284.91,-362.5 284.91,-369.5"/>
</g>
<!-- Hurt2 -->
<g id="node12" class="node">
<title>Hurt2</title>
<polygon fill="none" stroke="black" points="54,-296 54,-317.75 132,-317.75 132,-296 54,-296"/>
<text text-anchor="start" x="72.75" y="-301.45" font-family="Helvetica,sans-Serif" font-size="14.00">Hurt2 &#160;</text>
<polygon fill="none" stroke="black" points="54,-274.25 54,-296 132,-296 132,-274.25 54,-274.25"/>
<text text-anchor="start" x="57" y="-280.7" font-family="Helvetica,sans-Serif" font-size="12.00" fill="#838b8b">0.25s: Done</text>
<text text-anchor="start" x="121.5" y="-280.7" font-family="Helvetica,sans-Serif" font-size="14.00"> &#160;</text>
</g>
<!-- Hurt2&#45;&gt;Engaging -->
<g id="edge7" class="edge">
<title>Hurt2&#45;&gt;Engaging</title>
<path fill="none" stroke="#cdc8b1" d="M139.91,-309.5C181.84,-321.82 243.53,-339.96 285.63,-352.34"/>
<polygon fill="#cdc8b1" stroke="#cdc8b1" points="284.39,-355.62 294.97,-355.08 286.36,-348.91 284.39,-355.62"/>
</g>
<!-- Idle -->
<g id="node13" class="node">
<title>Idle</title>
<polygon fill="none" stroke="black" points="127.25,-526 58.75,-526 58.75,-490 127.25,-490 127.25,-526"/>
<text text-anchor="middle" x="93" y="-502.57" font-family="Helvetica,sans-Serif" font-size="14.00">Idle (Init)</text>
</g>
</g>
</svg>
