<?xml version="1.0" encoding="UTF-8" standalone="no"?>
<!DOCTYPE svg PUBLIC "-//W3C//DTD SVG 1.1//EN"
 "http://www.w3.org/Graphics/SVG/1.1/DTD/svg11.dtd">
<!-- Generated by graphviz version 12.2.1 (20241206.2353)
 -->
<!-- Title: Foo Pages: 1 -->
<svg width="656pt" height="974pt"
 viewBox="0.00 0.00 655.95 974.00" xmlns="http://www.w3.org/2000/svg" xmlns:xlink="http://www.w3.org/1999/xlink">
<g id="graph0" class="graph" transform="scale(1 1) rotate(0) translate(4 970)">
<title>Foo</title>
<polygon fill="white" stroke="none" points="-4,4 -4,-970 651.95,-970 651.95,4 -4,4"/>
<g id="clust1" class="cluster">
<title>cluster_attacksensors</title>
<polygon fill="none" stroke="black" points="54.25,-8 54.25,-262 539.2,-262 539.2,-8 54.25,-8"/>
<text text-anchor="middle" x="296.73" y="-244.7" font-family="Helvetica,sans-Serif" font-size="14.00">Attack Sensors</text>
</g>
<!-- Level Once Sensor -->
<g id="node1" class="node">
<title>Level Once Sensor</title>
<polygon fill="none" stroke="black" points="74.75,-23.12 74.75,-44.88 203.75,-44.88 203.75,-23.12 74.75,-23.12"/>
<text text-anchor="start" x="77.75" y="-28.57" font-family="Helvetica,sans-Serif" font-size="14.00">Level Once Sensor &#160;</text>
</g>
<!-- Level Once Sensor_linked -->
<g id="node2" class="node">
<title>Level Once Sensor_linked</title>
<polygon fill="none" stroke="black" stroke-dasharray="1,5" points="531.2,-52 379.75,-52 379.75,-16 531.2,-16 531.2,-52"/>
<text text-anchor="start" x="385.35" y="-28.57" font-family="Helvetica,sans-Serif" font-size="14.00">FollowChaseHitPlayer &#160;</text>
</g>
<!-- Level Once Sensor&#45;&gt;Level Once Sensor_linked -->
<g id="edge1" class="edge">
<title>Level Once Sensor&#45;&gt;Level Once Sensor_linked</title>
<path fill="none" stroke="#66cdaa" d="M211.55,-34C258,-34 318.88,-34 368.08,-34"/>
<polygon fill="#66cdaa" stroke="#66cdaa" points="367.84,-37.5 377.84,-34 367.84,-30.5 367.84,-37.5"/>
<text text-anchor="middle" x="329.13" y="-36.45" font-family="Helvetica,sans-Serif" font-size="14.00" fill="#66cdaa">QueueEnd</text>
</g>
<!-- Level Once Sensor_weight -->
<g id="node3" class="node">
<title>Level Once Sensor_weight</title>
<polygon fill="none" stroke="black" stroke-dasharray="1,5" points="487.98,-106 422.98,-106 422.98,-70 487.98,-70 487.98,-106"/>
<text text-anchor="start" x="432.98" y="-82.58" font-family="Helvetica,sans-Serif" font-size="14.00">1 Skip &#160;</text>
</g>
<!-- Level Once Sensor&#45;&gt;Level Once Sensor_weight -->
<g id="edge2" class="edge">
<title>Level Once Sensor&#45;&gt;Level Once Sensor_weight</title>
<path fill="none" stroke="#458b74" d="M211.55,-46.25C273.17,-56.84 360.18,-71.79 411.61,-80.63"/>
<polygon fill="#458b74" stroke="#458b74" points="410.71,-84.03 421.16,-82.27 411.89,-77.13 410.71,-84.03"/>
<text text-anchor="middle" x="329.13" y="-74.49" font-family="Helvetica,sans-Serif" font-size="14.00" fill="#458b74">Weight</text>
</g>
<!-- RunAwaySensor -->
<g id="node4" class="node">
<title>RunAwaySensor</title>
<polygon fill="none" stroke="black" points="82.25,-77.12 82.25,-98.88 196.25,-98.88 196.25,-77.12 82.25,-77.12"/>
<text text-anchor="start" x="85.25" y="-82.58" font-family="Helvetica,sans-Serif" font-size="14.00">RunAwaySensor &#160;</text>
</g>
<!-- AttackSensor -->
<g id="node5" class="node">
<title>AttackSensor</title>
<polygon fill="none" stroke="black" points="92.38,-131.12 92.38,-152.88 186.13,-152.88 186.13,-131.12 92.38,-131.12"/>
<text text-anchor="start" x="95.38" y="-136.57" font-family="Helvetica,sans-Serif" font-size="14.00">AttackSensor &#160;</text>
</g>
<!-- AttackSensor_linked -->
<g id="node6" class="node">
<title>AttackSensor_linked</title>
<polygon fill="none" stroke="black" stroke-dasharray="1,5" points="531.2,-160 379.75,-160 379.75,-124 531.2,-124 531.2,-160"/>
<text text-anchor="start" x="385.35" y="-136.57" font-family="Helvetica,sans-Serif" font-size="14.00">FollowChaseHitPlayer &#160;</text>
</g>
<!-- AttackSensor&#45;&gt;AttackSensor_linked -->
<g id="edge3" class="edge">
<title>AttackSensor&#45;&gt;AttackSensor_linked</title>
<path fill="none" stroke="#66cdaa" d="M193.91,-142C241.63,-142 312.27,-142 367.97,-142"/>
<polygon fill="#66cdaa" stroke="#66cdaa" points="367.74,-145.5 377.74,-142 367.74,-138.5 367.74,-145.5"/>
<text text-anchor="middle" x="329.13" y="-144.45" font-family="Helvetica,sans-Serif" font-size="14.00" fill="#66cdaa">QueueEnd</text>
</g>
<!-- DodgePredictSensor -->
<g id="node7" class="node">
<title>DodgePredictSensor</title>
<polygon fill="none" stroke="black" points="70.25,-204 70.25,-225.75 208.25,-225.75 208.25,-204 70.25,-204"/>
<text text-anchor="start" x="73.25" y="-209.45" font-family="Helvetica,sans-Serif" font-size="14.00">DodgePredictSensor &#160;</text>
<polygon fill="none" stroke="black" points="70.25,-182.25 70.25,-204 208.25,-204 208.25,-182.25 70.25,-182.25"/>
<text text-anchor="start" x="73.25" y="-188.7" font-family="Helvetica,sans-Serif" font-size="12.00" fill="#838b8b">if: rollingCondition</text>
<text text-anchor="start" x="170" y="-188.7" font-family="Helvetica,sans-Serif" font-size="14.00"> &#160;</text>
</g>
<!-- DodgePredictSensor_linked -->
<g id="node8" class="node">
<title>DodgePredictSensor_linked</title>
<polygon fill="none" stroke="black" stroke-dasharray="1,5" points="531.2,-222 379.75,-222 379.75,-186 531.2,-186 531.2,-222"/>
<text text-anchor="start" x="385.35" y="-198.57" font-family="Helvetica,sans-Serif" font-size="14.00">FollowChaseHitPlayer &#160;</text>
</g>
<!-- DodgePredictSensor&#45;&gt;DodgePredictSensor_linked -->
<g id="edge4" class="edge">
<title>DodgePredictSensor&#45;&gt;DodgePredictSensor_linked</title>
<path fill="none" stroke="#66cdaa" d="M215.91,-204C261.81,-204 320.53,-204 368.22,-204"/>
<polygon fill="#66cdaa" stroke="#66cdaa" points="367.95,-207.5 377.95,-204 367.95,-200.5 367.95,-207.5"/>
<text text-anchor="middle" x="329.13" y="-206.45" font-family="Helvetica,sans-Serif" font-size="14.00" fill="#66cdaa">QueueEnd</text>
</g>
<!-- FollowChaseHitPlayer -->
<g id="node9" class="node">
<title>FollowChaseHitPlayer</title>
<polygon fill="none" stroke="black" points="66.13,-596.12 66.13,-617.88 212.38,-617.88 212.38,-596.12 66.13,-596.12"/>
<text text-anchor="start" x="69.13" y="-601.58" font-family="Helvetica,sans-Serif" font-size="14.00">FollowChaseHitPlayer &#160;</text>
<polygon fill="none" stroke="black" points="66.13,-552.12 66.13,-596.12 212.38,-596.12 212.38,-552.12 66.13,-552.12"/>
<text text-anchor="start" x="69.13" y="-582.73" font-family="Helvetica,sans-Serif" font-size="12.00" fill="#838b8b">0.00s: CheckFacing</text>
<text text-anchor="start" x="69.13" y="-570.73" font-family="Helvetica,sans-Serif" font-size="12.00" fill="#838b8b">0.50s: CheckFacing</text>
<text text-anchor="start" x="69.13" y="-556.83" font-family="Helvetica,sans-Serif" font-size="12.00" fill="#838b8b">1.62s: Done</text>
<text text-anchor="start" x="133.63" y="-556.83" font-family="Helvetica,sans-Serif" font-size="14.00"> &#160;</text>
</g>
<!-- Explosion -->
<g id="node10" class="node">
<title>Explosion</title>
<polygon fill="none" stroke="black" points="416.48,-423 416.48,-444.75 494.48,-444.75 494.48,-423 416.48,-423"/>
<text text-anchor="start" x="422.48" y="-428.45" font-family="Helvetica,sans-Serif" font-size="14.00">Explosion &#160;</text>
<polygon fill="none" stroke="black" points="416.48,-401.25 416.48,-423 494.48,-423 494.48,-401.25 416.48,-401.25"/>
<text text-anchor="start" x="419.48" y="-407.7" font-family="Helvetica,sans-Serif" font-size="12.00" fill="#838b8b">0.08s: Done</text>
<text text-anchor="start" x="483.98" y="-407.7" font-family="Helvetica,sans-Serif" font-size="14.00"> &#160;</text>
</g>
<!-- FollowChaseHitPlayer&#45;&gt;Explosion -->
<g id="edge5" class="edge">
<title>FollowChaseHitPlayer&#45;&gt;Explosion</title>
<path fill="none" stroke="#cdc8b1" d="M220.26,-562.32C239.71,-555.74 260.18,-547.89 278.5,-539 327,-515.45 377.96,-480.59 412.49,-455.23"/>
<polygon fill="#cdc8b1" stroke="#cdc8b1" points="414.17,-458.34 420.12,-449.58 410,-452.72 414.17,-458.34"/>
</g>
<!-- DeadState -->
<g id="node11" class="node">
<title>DeadState</title>
<polygon fill="none" stroke="black" points="647.95,-441 568.2,-441 568.2,-405 647.95,-405 647.95,-441"/>
<text text-anchor="middle" x="608.08" y="-417.57" font-family="Helvetica,sans-Serif" font-size="14.00">DeadState</text>
</g>
<!-- Explosion&#45;&gt;DeadState -->
<g id="edge6" class="edge">
<title>Explosion&#45;&gt;DeadState</title>
<path fill="none" stroke="#cdc8b1" d="M502.07,-423C519.17,-423 538.71,-423 556.26,-423"/>
<polygon fill="#cdc8b1" stroke="#cdc8b1" points="556.23,-426.5 566.23,-423 556.23,-419.5 556.23,-426.5"/>
</g>
<!-- FollowChaseHitPlayer(QuickVer航母版) -->
<g id="node12" class="node">
<title>FollowChaseHitPlayer(QuickVer航母版)</title>
<polygon fill="none" stroke="black" points="8,-504.12 8,-525.88 270.5,-525.88 270.5,-504.12 8,-504.12"/>
<text text-anchor="start" x="11" y="-509.57" font-family="Helvetica,sans-Serif" font-size="14.00">FollowChaseHitPlayer(QuickVer航母版) &#160;</text>
<polygon fill="none" stroke="black" points="8,-424.12 8,-504.12 270.5,-504.12 270.5,-424.12 8,-424.12"/>
<text text-anchor="start" x="11" y="-490.73" font-family="Helvetica,sans-Serif" font-size="12.00" fill="#838b8b">0.00s: CheckFacing</text>
<text text-anchor="start" x="11" y="-478.73" font-family="Helvetica,sans-Serif" font-size="12.00" fill="#838b8b">0.08s: CheckFacing</text>
<text text-anchor="start" x="11" y="-466.73" font-family="Helvetica,sans-Serif" font-size="12.00" fill="#838b8b">0.17s: CheckFacing</text>
<text text-anchor="start" x="11" y="-454.73" font-family="Helvetica,sans-Serif" font-size="12.00" fill="#838b8b">0.25s: CheckFacing</text>
<text text-anchor="start" x="11" y="-442.73" font-family="Helvetica,sans-Serif" font-size="12.00" fill="#838b8b">0.33s: CheckFacing</text>
<text text-anchor="start" x="11" y="-428.83" font-family="Helvetica,sans-Serif" font-size="12.00" fill="#838b8b">1.12s: Done</text>
<text text-anchor="start" x="75.5" y="-428.83" font-family="Helvetica,sans-Serif" font-size="14.00"> &#160;</text>
</g>
<!-- FollowChaseHitPlayer(QuickVer航母版)&#45;&gt;Explosion -->
<g id="edge7" class="edge">
<title>FollowChaseHitPlayer(QuickVer航母版)&#45;&gt;Explosion</title>
<path fill="none" stroke="#cdc8b1" d="M278.07,-452.19C320.15,-445.23 364.1,-437.96 397.6,-432.41"/>
<polygon fill="#cdc8b1" stroke="#cdc8b1" points="397.76,-435.93 407.05,-430.85 396.62,-429.03 397.76,-435.93"/>
</g>
<!-- Forward Chase 直射 -->
<g id="node13" class="node">
<title>Forward Chase 直射</title>
<polygon fill="none" stroke="black" points="67.25,-376.12 67.25,-397.88 211.25,-397.88 211.25,-376.12 67.25,-376.12"/>
<text text-anchor="start" x="70.25" y="-381.57" font-family="Helvetica,sans-Serif" font-size="14.00">Forward Chase 直射 &#160;</text>
<polygon fill="none" stroke="black" points="67.25,-344.12 67.25,-376.12 211.25,-376.12 211.25,-344.12 67.25,-344.12"/>
<text text-anchor="start" x="70.25" y="-362.73" font-family="Helvetica,sans-Serif" font-size="12.00" fill="#838b8b">0.00s: CheckFacing</text>
<text text-anchor="start" x="70.25" y="-348.83" font-family="Helvetica,sans-Serif" font-size="12.00" fill="#838b8b">1.12s: Done</text>
<text text-anchor="start" x="134.75" y="-348.83" font-family="Helvetica,sans-Serif" font-size="14.00"> &#160;</text>
</g>
<!-- Forward Chase 直射&#45;&gt;Explosion -->
<g id="edge8" class="edge">
<title>Forward Chase 直射&#45;&gt;Explosion</title>
<path fill="none" stroke="#cdc8b1" d="M219.14,-384.05C274.63,-393.24 347.59,-405.31 397.48,-413.57"/>
<polygon fill="#cdc8b1" stroke="#cdc8b1" points="396.76,-417 407.2,-415.18 397.91,-410.09 396.76,-417"/>
</g>
<!-- AttackParrying -->
<g id="node14" class="node">
<title>AttackParrying</title>
<polygon fill="none" stroke="black" points="88.63,-296 88.63,-317.75 189.88,-317.75 189.88,-296 88.63,-296"/>
<text text-anchor="start" x="91.63" y="-301.45" font-family="Helvetica,sans-Serif" font-size="14.00">AttackParrying &#160;</text>
<polygon fill="none" stroke="black" points="88.63,-274.25 88.63,-296 189.88,-296 189.88,-274.25 88.63,-274.25"/>
<text text-anchor="start" x="91.63" y="-280.7" font-family="Helvetica,sans-Serif" font-size="12.00" fill="#838b8b">0.58s: Done</text>
<text text-anchor="start" x="156.13" y="-280.7" font-family="Helvetica,sans-Serif" font-size="14.00"> &#160;</text>
</g>
<!-- AttackParrying&#45;&gt;Explosion -->
<g id="edge9" class="edge">
<title>AttackParrying&#45;&gt;Explosion</title>
<path fill="none" stroke="#cdc8b1" d="M197.68,-307.37C222.9,-313.17 252.6,-321.11 278.5,-331 321.88,-347.57 368.33,-372.17 402.61,-391.77"/>
<polygon fill="#cdc8b1" stroke="#cdc8b1" points="400.67,-394.69 411.08,-396.66 404.17,-388.63 400.67,-394.69"/>
</g>
<!-- Hurt1 -->
<g id="node15" class="node">
<title>Hurt1</title>
<polygon fill="none" stroke="black" points="100.25,-886 100.25,-907.75 178.25,-907.75 178.25,-886 100.25,-886"/>
<text text-anchor="start" x="119" y="-891.45" font-family="Helvetica,sans-Serif" font-size="14.00">Hurt1 &#160;</text>
<polygon fill="none" stroke="black" points="100.25,-864.25 100.25,-886 178.25,-886 178.25,-864.25 100.25,-864.25"/>
<text text-anchor="start" x="103.25" y="-870.7" font-family="Helvetica,sans-Serif" font-size="12.00" fill="#838b8b">0.25s: Done</text>
<text text-anchor="start" x="167.75" y="-870.7" font-family="Helvetica,sans-Serif" font-size="14.00"> &#160;</text>
</g>
<!-- Engaging -->
<g id="node16" class="node">
<title>Engaging</title>
<polygon fill="none" stroke="black" points="491.98,-799 418.98,-799 418.98,-763 491.98,-763 491.98,-799"/>
<text text-anchor="middle" x="455.48" y="-775.58" font-family="Helvetica,sans-Serif" font-size="14.00">Engaging</text>
</g>
<!-- Hurt1&#45;&gt;Engaging -->
<g id="edge10" class="edge">
<title>Hurt1&#45;&gt;Engaging</title>
<path fill="none" stroke="#cdc8b1" d="M186.13,-875.97C213.25,-869.65 248.12,-860.84 278.5,-851 323.29,-836.49 373.03,-816.31 408.17,-801.35"/>
<polygon fill="#cdc8b1" stroke="#cdc8b1" points="409.38,-804.64 417.19,-797.48 406.62,-798.2 409.38,-804.64"/>
</g>
<!-- Hurt2 -->
<g id="node17" class="node">
<title>Hurt2</title>
<polygon fill="none" stroke="black" points="100.25,-816 100.25,-837.75 178.25,-837.75 178.25,-816 100.25,-816"/>
<text text-anchor="start" x="119" y="-821.45" font-family="Helvetica,sans-Serif" font-size="14.00">Hurt2 &#160;</text>
<polygon fill="none" stroke="black" points="100.25,-794.25 100.25,-816 178.25,-816 178.25,-794.25 100.25,-794.25"/>
<text text-anchor="start" x="103.25" y="-800.7" font-family="Helvetica,sans-Serif" font-size="12.00" fill="#838b8b">0.25s: Done</text>
<text text-anchor="start" x="167.75" y="-800.7" font-family="Helvetica,sans-Serif" font-size="14.00"> &#160;</text>
</g>
<!-- Hurt2&#45;&gt;Engaging -->
<g id="edge11" class="edge">
<title>Hurt2&#45;&gt;Engaging</title>
<path fill="none" stroke="#cdc8b1" d="M185.94,-810.91C244.98,-804.33 347.28,-792.94 407.12,-786.27"/>
<polygon fill="#cdc8b1" stroke="#cdc8b1" points="407.44,-789.76 416.99,-785.17 406.67,-782.8 407.44,-789.76"/>
</g>
<!-- Sleep -->
<g id="node18" class="node">
<title>Sleep</title>
<polygon fill="none" stroke="black" points="75.5,-746 75.5,-767.75 203,-767.75 203,-746 75.5,-746"/>
<text text-anchor="start" x="118.25" y="-751.45" font-family="Helvetica,sans-Serif" font-size="14.00">Sleep &#160;</text>
<polygon fill="none" stroke="black" points="75.5,-724.25 75.5,-746 203,-746 203,-724.25 75.5,-724.25"/>
<text text-anchor="start" x="78.5" y="-730.7" font-family="Helvetica,sans-Serif" font-size="12.00" fill="#838b8b">0.08s: DisableGravity</text>
<text text-anchor="start" x="192.5" y="-730.7" font-family="Helvetica,sans-Serif" font-size="14.00"> &#160;</text>
</g>
<!-- Sleep&#45;&gt;Engaging -->
<g id="edge12" class="edge">
<title>Sleep&#45;&gt;Engaging</title>
<path fill="none" stroke="#cdc8b1" d="M210.77,-753.85C270.82,-760.54 355.43,-769.97 407.52,-775.77"/>
<polygon fill="#cdc8b1" stroke="#cdc8b1" points="406.92,-779.22 417.25,-776.85 407.7,-772.27 406.92,-779.22"/>
</g>
<!-- WakeUp -->
<g id="node19" class="node">
<title>WakeUp</title>
<polygon fill="none" stroke="black" points="79.25,-676.12 79.25,-697.88 199.25,-697.88 199.25,-676.12 79.25,-676.12"/>
<text text-anchor="start" x="109.63" y="-681.58" font-family="Helvetica,sans-Serif" font-size="14.00">WakeUp &#160;</text>
<polygon fill="none" stroke="black" points="79.25,-644.12 79.25,-676.12 199.25,-676.12 199.25,-644.12 79.25,-644.12"/>
<text text-anchor="start" x="82.25" y="-662.73" font-family="Helvetica,sans-Serif" font-size="12.00" fill="#838b8b">0.08s: DisableGravity</text>
<text text-anchor="start" x="82.25" y="-648.83" font-family="Helvetica,sans-Serif" font-size="12.00" fill="#838b8b">1.00s: Done</text>
<text text-anchor="start" x="146.75" y="-648.83" font-family="Helvetica,sans-Serif" font-size="14.00"> &#160;</text>
</g>
<!-- WakeUp&#45;&gt;Engaging -->
<g id="edge13" class="edge">
<title>WakeUp&#45;&gt;Engaging</title>
<path fill="none" stroke="#cdc8b1" d="M207.11,-688.93C229.91,-695.42 255.45,-703.1 278.5,-711 323.18,-726.31 373.12,-746.48 408.35,-761.23"/>
<polygon fill="#cdc8b1" stroke="#cdc8b1" points="406.82,-764.38 417.4,-765.04 409.54,-757.93 406.82,-764.38"/>
</g>
<!-- Idle -->
<g id="node20" class="node">
<title>Idle</title>
<polygon fill="none" stroke="black" points="173.5,-966 105,-966 105,-930 173.5,-930 173.5,-966"/>
<text text-anchor="middle" x="139.25" y="-942.58" font-family="Helvetica,sans-Serif" font-size="14.00">Idle (Init)</text>
</g>
</g>
</svg>
