<?xml version="1.0" encoding="UTF-8" standalone="no"?>
<!DOCTYPE svg PUBLIC "-//W3C//DTD SVG 1.1//EN"
 "http://www.w3.org/Graphics/SVG/1.1/DTD/svg11.dtd">
<!-- Generated by graphviz version 12.2.1 (20241206.2353)
 -->
<!-- Title: Foo Pages: 1 -->
<svg width="443pt" height="1078pt"
 viewBox="0.00 0.00 443.45 1077.88" xmlns="http://www.w3.org/2000/svg" xmlns:xlink="http://www.w3.org/1999/xlink">
<g id="graph0" class="graph" transform="scale(1 1) rotate(0) translate(4 1073.88)">
<title>Foo</title>
<polygon fill="white" stroke="none" points="-4,4 -4,-1073.88 439.45,-1073.88 439.45,4 -4,4"/>
<g id="clust1" class="cluster">
<title>cluster_attacksensors</title>
<polygon fill="none" stroke="black" points="13.38,-613.88 13.38,-1061.88 427.45,-1061.88 427.45,-613.88 13.38,-613.88"/>
<text text-anchor="middle" x="220.41" y="-1044.58" font-family="Helvetica,sans-Serif" font-size="14.00">Attack Sensors</text>
</g>
<!-- Heavy Forward 2 -->
<g id="node1" class="node">
<title>Heavy Forward 2</title>
<polygon fill="none" stroke="black" points="39.5,-314 39.5,-335.75 157.25,-335.75 157.25,-314 39.5,-314"/>
<text text-anchor="start" x="43.25" y="-319.45" font-family="Helvetica,sans-Serif" font-size="14.00">Heavy Forward 2 &#160;</text>
<polygon fill="none" stroke="black" points="39.5,-270 39.5,-314 157.25,-314 157.25,-270 39.5,-270"/>
<text text-anchor="start" x="42.5" y="-300.6" font-family="Helvetica,sans-Serif" font-size="12.00" fill="#838b8b">1.40s: CheckFacing</text>
<text text-anchor="start" x="42.5" y="-288.6" font-family="Helvetica,sans-Serif" font-size="12.00" fill="#838b8b">4.00s: LinkNextMove</text>
<text text-anchor="start" x="42.5" y="-274.7" font-family="Helvetica,sans-Serif" font-size="12.00" fill="#838b8b">4.07s: Done</text>
<text text-anchor="start" x="107" y="-274.7" font-family="Helvetica,sans-Serif" font-size="14.00"> &#160;</text>
</g>
<!-- Engaging -->
<g id="node2" class="node">
<title>Engaging</title>
<polygon fill="none" stroke="black" points="395.23,-196.88 322.23,-196.88 322.23,-160.88 395.23,-160.88 395.23,-196.88"/>
<text text-anchor="middle" x="358.73" y="-173.45" font-family="Helvetica,sans-Serif" font-size="14.00">Engaging</text>
</g>
<!-- Heavy Forward 2&#45;&gt;Engaging -->
<g id="edge1" class="edge">
<title>Heavy Forward 2&#45;&gt;Engaging</title>
<path fill="none" stroke="#cdc8b1" d="M165.15,-271.91C175.73,-266.9 186.55,-261.76 196.75,-256.88 235.68,-238.25 279.78,-216.86 311.96,-201.2"/>
<polygon fill="#cdc8b1" stroke="#cdc8b1" points="313.15,-204.51 320.61,-196.99 310.09,-198.22 313.15,-204.51"/>
</g>
<!-- Heavy Forward 2_linked -->
<g id="node3" class="node">
<title>Heavy Forward 2_linked</title>
<polygon fill="none" stroke="black" stroke-dasharray="1,5" points="401.83,-320.88 315.62,-320.88 315.62,-284.88 401.83,-284.88 401.83,-320.88"/>
<text text-anchor="start" x="321.23" y="-297.45" font-family="Helvetica,sans-Serif" font-size="14.00">JumpSlash &#160;</text>
</g>
<!-- Heavy Forward 2&#45;&gt;Heavy Forward 2_linked -->
<g id="edge2" class="edge">
<title>Heavy Forward 2&#45;&gt;Heavy Forward 2_linked</title>
<path fill="none" stroke="#66cdaa" d="M165.24,-302.88C208.23,-302.88 263.66,-302.88 303.99,-302.88"/>
<polygon fill="#66cdaa" stroke="#66cdaa" points="303.95,-306.38 313.95,-302.88 303.95,-299.38 303.95,-306.38"/>
<text text-anchor="middle" x="247.38" y="-305.32" font-family="Helvetica,sans-Serif" font-size="14.00" fill="#66cdaa">QueueEnd</text>
</g>
<!-- DoubleSlash -->
<g id="node4" class="node">
<title>DoubleSlash</title>
<polygon fill="none" stroke="black" points="8,-72 8,-93.75 188.75,-93.75 188.75,-72 8,-72"/>
<text text-anchor="start" x="56.38" y="-77.45" font-family="Helvetica,sans-Serif" font-size="14.00">DoubleSlash &#160;</text>
<polygon fill="none" stroke="black" points="8,-4 8,-72 188.75,-72 188.75,-4 8,-4"/>
<text text-anchor="start" x="11" y="-58.6" font-family="Helvetica,sans-Serif" font-size="12.00" fill="#838b8b">1.50s: CheckFacing</text>
<text text-anchor="start" x="11" y="-46.6" font-family="Helvetica,sans-Serif" font-size="12.00" fill="#838b8b">1.55s: InterruptFacing_TargetLeft</text>
<text text-anchor="start" x="11" y="-34.6" font-family="Helvetica,sans-Serif" font-size="12.00" fill="#838b8b">2.32s: CheckFacing</text>
<text text-anchor="start" x="11" y="-22.6" font-family="Helvetica,sans-Serif" font-size="12.00" fill="#838b8b">3.50s: LinkNextMove</text>
<text text-anchor="start" x="11" y="-8.7" font-family="Helvetica,sans-Serif" font-size="12.00" fill="#838b8b">3.58s: Done</text>
<text text-anchor="start" x="75.5" y="-8.7" font-family="Helvetica,sans-Serif" font-size="14.00"> &#160;</text>
</g>
<!-- DoubleSlash&#45;&gt;Engaging -->
<g id="edge3" class="edge">
<title>DoubleSlash&#45;&gt;Engaging</title>
<path fill="none" stroke="#cdc8b1" d="M196.31,-97.65C235.97,-117.61 279.97,-139.75 312,-155.87"/>
<polygon fill="#cdc8b1" stroke="#cdc8b1" points="310.1,-158.83 320.6,-160.2 313.24,-152.57 310.1,-158.83"/>
</g>
<!-- DoubleSlash_linked -->
<g id="node5" class="node">
<title>DoubleSlash_linked</title>
<polygon fill="none" stroke="black" stroke-dasharray="1,5" points="401.83,-66.88 315.62,-66.88 315.62,-30.88 401.83,-30.88 401.83,-66.88"/>
<text text-anchor="start" x="321.23" y="-43.45" font-family="Helvetica,sans-Serif" font-size="14.00">JumpSlash &#160;</text>
</g>
<!-- DoubleSlash&#45;&gt;DoubleSlash_linked -->
<g id="edge4" class="edge">
<title>DoubleSlash&#45;&gt;DoubleSlash_linked</title>
<path fill="none" stroke="#66cdaa" d="M196.68,-48.88C232.95,-48.88 272.8,-48.88 303.79,-48.88"/>
<polygon fill="#66cdaa" stroke="#66cdaa" points="303.69,-52.38 313.69,-48.88 303.69,-45.38 303.69,-52.38"/>
<text text-anchor="middle" x="247.38" y="-51.33" font-family="Helvetica,sans-Serif" font-size="14.00" fill="#66cdaa">QueueEnd</text>
</g>
<!-- JumpSlash -->
<g id="node6" class="node">
<title>JumpSlash</title>
<polygon fill="none" stroke="black" points="57.88,-141.88 57.88,-163.62 138.88,-163.62 138.88,-141.88 57.88,-141.88"/>
<text text-anchor="start" x="60.88" y="-147.32" font-family="Helvetica,sans-Serif" font-size="14.00">JumpSlash &#160;</text>
<polygon fill="none" stroke="black" points="57.88,-120.12 57.88,-141.88 138.88,-141.88 138.88,-120.12 57.88,-120.12"/>
<text text-anchor="start" x="60.88" y="-126.58" font-family="Helvetica,sans-Serif" font-size="12.00" fill="#838b8b">2.65s: Done</text>
<text text-anchor="start" x="125.38" y="-126.58" font-family="Helvetica,sans-Serif" font-size="14.00"> &#160;</text>
</g>
<!-- JumpSlash&#45;&gt;Engaging -->
<g id="edge5" class="edge">
<title>JumpSlash&#45;&gt;Engaging</title>
<path fill="none" stroke="#cdc8b1" d="M146.76,-148.66C193.36,-155.34 264.08,-165.46 310.59,-172.12"/>
<polygon fill="#cdc8b1" stroke="#cdc8b1" points="309.97,-175.57 320.37,-173.52 310.97,-168.64 309.97,-175.57"/>
</g>
<!-- AttackParrying -->
<g id="node7" class="node">
<title>AttackParrying</title>
<polygon fill="none" stroke="black" points="39.88,-222 39.88,-243.75 156.88,-243.75 156.88,-222 39.88,-222"/>
<text text-anchor="start" x="50.75" y="-227.45" font-family="Helvetica,sans-Serif" font-size="14.00">AttackParrying &#160;</text>
<polygon fill="none" stroke="black" points="39.88,-190 39.88,-222 156.88,-222 156.88,-190 39.88,-190"/>
<text text-anchor="start" x="42.88" y="-208.6" font-family="Helvetica,sans-Serif" font-size="12.00" fill="#838b8b">0.00s: EnableGravity</text>
<text text-anchor="start" x="42.88" y="-194.7" font-family="Helvetica,sans-Serif" font-size="12.00" fill="#838b8b">1.77s: Done</text>
<text text-anchor="start" x="107.38" y="-194.7" font-family="Helvetica,sans-Serif" font-size="14.00"> &#160;</text>
</g>
<!-- AttackParrying&#45;&gt;Engaging -->
<g id="edge6" class="edge">
<title>AttackParrying&#45;&gt;Engaging</title>
<path fill="none" stroke="#cdc8b1" d="M164.57,-207.29C210.11,-200.59 269.84,-191.8 310.75,-185.78"/>
<polygon fill="#cdc8b1" stroke="#cdc8b1" points="311.14,-189.26 320.53,-184.35 310.12,-182.34 311.14,-189.26"/>
</g>
<!-- HurtState -->
<g id="node8" class="node">
<title>HurtState</title>
<polygon fill="none" stroke="black" points="59.38,-453.88 59.38,-475.62 137.38,-475.62 137.38,-453.88 59.38,-453.88"/>
<text text-anchor="start" x="66.12" y="-459.32" font-family="Helvetica,sans-Serif" font-size="14.00">HurtState &#160;</text>
<polygon fill="none" stroke="black" points="59.38,-432.12 59.38,-453.88 137.38,-453.88 137.38,-432.12 59.38,-432.12"/>
<text text-anchor="start" x="62.38" y="-438.57" font-family="Helvetica,sans-Serif" font-size="12.00" fill="#838b8b">0.33s: Done</text>
<text text-anchor="start" x="126.88" y="-438.57" font-family="Helvetica,sans-Serif" font-size="14.00"> &#160;</text>
</g>
<!-- PreAttack -->
<g id="node9" class="node">
<title>PreAttack</title>
<polygon fill="none" stroke="black" points="395.98,-436.88 321.48,-436.88 321.48,-400.88 395.98,-400.88 395.98,-436.88"/>
<text text-anchor="middle" x="358.73" y="-413.45" font-family="Helvetica,sans-Serif" font-size="14.00">PreAttack</text>
</g>
<!-- HurtState&#45;&gt;PreAttack -->
<g id="edge7" class="edge">
<title>HurtState&#45;&gt;PreAttack</title>
<path fill="none" stroke="#cdc8b1" d="M145.27,-447.66C191.52,-441.39 262.6,-431.76 309.62,-425.39"/>
<polygon fill="#cdc8b1" stroke="#cdc8b1" points="310.09,-428.86 319.53,-424.05 309.15,-421.92 310.09,-428.86"/>
</g>
<!-- Hurt_BigState -->
<g id="node10" class="node">
<title>Hurt_BigState</title>
<polygon fill="none" stroke="black" points="49.62,-383.88 49.62,-405.62 147.12,-405.62 147.12,-383.88 49.62,-383.88"/>
<text text-anchor="start" x="52.62" y="-389.32" font-family="Helvetica,sans-Serif" font-size="14.00">Hurt_BigState &#160;</text>
<polygon fill="none" stroke="black" points="49.62,-362.12 49.62,-383.88 147.12,-383.88 147.12,-362.12 49.62,-362.12"/>
<text text-anchor="start" x="52.62" y="-368.57" font-family="Helvetica,sans-Serif" font-size="12.00" fill="#838b8b">0.25s: Done</text>
<text text-anchor="start" x="117.12" y="-368.57" font-family="Helvetica,sans-Serif" font-size="14.00"> &#160;</text>
</g>
<!-- Hurt_BigState&#45;&gt;PreAttack -->
<g id="edge8" class="edge">
<title>Hurt_BigState&#45;&gt;PreAttack</title>
<path fill="none" stroke="#cdc8b1" d="M155.12,-391.43C201.28,-397.68 266.17,-406.47 309.98,-412.41"/>
<polygon fill="#cdc8b1" stroke="#cdc8b1" points="309.31,-415.85 319.68,-413.72 310.25,-408.91 309.31,-415.85"/>
</g>
<!-- LastHit -->
<g id="node11" class="node">
<title>LastHit</title>
<polygon fill="none" stroke="black" points="59.38,-523.88 59.38,-545.62 137.38,-545.62 137.38,-523.88 59.38,-523.88"/>
<text text-anchor="start" x="73.62" y="-529.33" font-family="Helvetica,sans-Serif" font-size="14.00">LastHit &#160;</text>
<polygon fill="none" stroke="black" points="59.38,-502.12 59.38,-523.88 137.38,-523.88 137.38,-502.12 59.38,-502.12"/>
<text text-anchor="start" x="62.38" y="-508.57" font-family="Helvetica,sans-Serif" font-size="12.00" fill="#838b8b">0.58s: Done</text>
<text text-anchor="start" x="126.88" y="-508.57" font-family="Helvetica,sans-Serif" font-size="14.00"> &#160;</text>
</g>
<!-- DeadState -->
<g id="node12" class="node">
<title>DeadState</title>
<polygon fill="none" stroke="black" points="398.6,-541.88 318.85,-541.88 318.85,-505.88 398.6,-505.88 398.6,-541.88"/>
<text text-anchor="middle" x="358.73" y="-518.45" font-family="Helvetica,sans-Serif" font-size="14.00">DeadState</text>
</g>
<!-- LastHit&#45;&gt;DeadState -->
<g id="edge9" class="edge">
<title>LastHit&#45;&gt;DeadState</title>
<path fill="none" stroke="#cdc8b1" d="M145.27,-523.88C190.71,-523.88 260.14,-523.88 307.15,-523.88"/>
<polygon fill="#cdc8b1" stroke="#cdc8b1" points="307.08,-527.38 317.08,-523.88 307.08,-520.38 307.08,-527.38"/>
</g>
<!-- Wandering_Idle -->
<g id="node13" class="node">
<title>Wandering_Idle</title>
<polygon fill="none" stroke="black" points="169,-603.88 27.75,-603.88 27.75,-567.88 169,-567.88 169,-603.88"/>
<text text-anchor="middle" x="98.38" y="-580.45" font-family="Helvetica,sans-Serif" font-size="14.00">Wandering_Idle (Init)</text>
</g>
<!-- Level Once Sensor -->
<g id="node14" class="node">
<title>Level Once Sensor</title>
<polygon fill="none" stroke="black" points="164.12,-657.88 32.62,-657.88 32.62,-621.88 164.12,-621.88 164.12,-657.88"/>
<text text-anchor="middle" x="98.38" y="-634.45" font-family="Helvetica,sans-Serif" font-size="14.00">Level Once Sensor</text>
</g>
<!-- Level Once Sensor_linked -->
<g id="node15" class="node">
<title>Level Once Sensor_linked</title>
<polygon fill="none" stroke="black" stroke-dasharray="1,5" points="419.45,-657.88 298,-657.88 298,-621.88 419.45,-621.88 419.45,-657.88"/>
<text text-anchor="start" x="303.6" y="-634.45" font-family="Helvetica,sans-Serif" font-size="14.00">Heavy Forward 2 &#160;</text>
</g>
<!-- Level Once Sensor&#45;&gt;Level Once Sensor_linked -->
<g id="edge10" class="edge">
<title>Level Once Sensor&#45;&gt;Level Once Sensor_linked</title>
<path fill="none" stroke="#66cdaa" d="M164.57,-639.88C201.85,-639.88 248.63,-639.88 286.82,-639.88"/>
<polygon fill="#66cdaa" stroke="#66cdaa" points="286.35,-643.38 296.35,-639.88 286.35,-636.38 286.35,-643.38"/>
<text text-anchor="middle" x="247.38" y="-642.33" font-family="Helvetica,sans-Serif" font-size="14.00" fill="#66cdaa">QueueEnd</text>
</g>
<!-- Level Once Sensor_mustuse -->
<g id="node16" class="node">
<title>Level Once Sensor_mustuse</title>
<polygon fill="none" stroke="black" stroke-dasharray="1,5" points="408.85,-711.88 308.6,-711.88 308.6,-675.88 408.85,-675.88 408.85,-711.88"/>
<text text-anchor="start" x="318.6" y="-688.45" font-family="Helvetica,sans-Serif" font-size="14.00">1 Undefined &#160;</text>
</g>
<!-- Level Once Sensor&#45;&gt;Level Once Sensor_mustuse -->
<g id="edge11" class="edge">
<title>Level Once Sensor&#45;&gt;Level Once Sensor_mustuse</title>
<path fill="none" stroke="#458b74" d="M164.57,-653.5C205.33,-662.02 257.47,-672.92 297.31,-681.25"/>
<polygon fill="#458b74" stroke="#458b74" points="296.47,-684.65 306.98,-683.27 297.9,-677.8 296.47,-684.65"/>
<text text-anchor="middle" x="247.38" y="-678.86" font-family="Helvetica,sans-Serif" font-size="14.00" fill="#458b74">Weight</text>
</g>
<!-- RunAwaySensor -->
<g id="node17" class="node">
<title>RunAwaySensor</title>
<polygon fill="none" stroke="black" points="156.62,-711.88 40.12,-711.88 40.12,-675.88 156.62,-675.88 156.62,-711.88"/>
<text text-anchor="middle" x="98.38" y="-688.45" font-family="Helvetica,sans-Serif" font-size="14.00">RunAwaySensor</text>
</g>
<!-- RunAwaySensor_linked -->
<g id="node18" class="node">
<title>RunAwaySensor_linked</title>
<polygon fill="none" stroke="black" stroke-dasharray="1,5" points="419.45,-765.88 298,-765.88 298,-729.88 419.45,-729.88 419.45,-765.88"/>
<text text-anchor="start" x="303.6" y="-742.45" font-family="Helvetica,sans-Serif" font-size="14.00">Heavy Forward 2 &#160;</text>
</g>
<!-- RunAwaySensor&#45;&gt;RunAwaySensor_linked -->
<g id="edge12" class="edge">
<title>RunAwaySensor&#45;&gt;RunAwaySensor_linked</title>
<path fill="none" stroke="#66cdaa" d="M157.03,-705.93C195.23,-713.91 245.61,-724.44 286.34,-732.95"/>
<polygon fill="#66cdaa" stroke="#66cdaa" points="285.56,-736.37 296.07,-734.99 287,-729.52 285.56,-736.37"/>
<text text-anchor="middle" x="247.38" y="-732.86" font-family="Helvetica,sans-Serif" font-size="14.00" fill="#66cdaa">QueueEnd</text>
</g>
<!-- AttackSensor -->
<g id="node19" class="node">
<title>AttackSensor</title>
<polygon fill="none" stroke="black" points="146.5,-765.88 50.25,-765.88 50.25,-729.88 146.5,-729.88 146.5,-765.88"/>
<text text-anchor="middle" x="98.38" y="-742.45" font-family="Helvetica,sans-Serif" font-size="14.00">AttackSensor</text>
</g>
<!-- AttackSensor_linked -->
<g id="node20" class="node">
<title>AttackSensor_linked</title>
<polygon fill="none" stroke="black" stroke-dasharray="1,5" points="419.45,-830.23 298,-830.23 298,-783.52 419.45,-783.52 419.45,-830.23"/>
<text text-anchor="start" x="316.73" y="-811.33" font-family="Helvetica,sans-Serif" font-size="14.00">DoubleSlash &#160;</text>
<text text-anchor="start" x="303.6" y="-791.58" font-family="Helvetica,sans-Serif" font-size="14.00">Heavy Forward 2 &#160;</text>
</g>
<!-- AttackSensor&#45;&gt;AttackSensor_linked -->
<g id="edge13" class="edge">
<title>AttackSensor&#45;&gt;AttackSensor_linked</title>
<path fill="none" stroke="#66cdaa" d="M146.76,-758.7C185.97,-767.65 242.27,-780.51 286.84,-790.69"/>
<polygon fill="#66cdaa" stroke="#66cdaa" points="285.9,-794.06 296.43,-792.88 287.46,-787.24 285.9,-794.06"/>
<text text-anchor="middle" x="247.38" y="-790.24" font-family="Helvetica,sans-Serif" font-size="14.00" fill="#66cdaa">QueueEnd</text>
</g>
<!-- DodgePredictSensor -->
<g id="node21" class="node">
<title>DodgePredictSensor</title>
<polygon fill="none" stroke="black" points="29.38,-809.88 29.38,-831.62 167.38,-831.62 167.38,-809.88 29.38,-809.88"/>
<text text-anchor="start" x="32.38" y="-815.33" font-family="Helvetica,sans-Serif" font-size="14.00">DodgePredictSensor &#160;</text>
<polygon fill="none" stroke="black" points="29.38,-788.12 29.38,-809.88 167.38,-809.88 167.38,-788.12 29.38,-788.12"/>
<text text-anchor="start" x="32.38" y="-794.58" font-family="Helvetica,sans-Serif" font-size="12.00" fill="#838b8b">if: Dodge</text>
<text text-anchor="start" x="80.38" y="-794.58" font-family="Helvetica,sans-Serif" font-size="14.00"> &#160;</text>
</g>
<!-- DodgePredictSensor_linked -->
<g id="node22" class="node">
<title>DodgePredictSensor_linked</title>
<polygon fill="none" stroke="black" stroke-dasharray="1,5" points="419.45,-883.88 298,-883.88 298,-847.88 419.45,-847.88 419.45,-883.88"/>
<text text-anchor="start" x="303.6" y="-860.45" font-family="Helvetica,sans-Serif" font-size="14.00">Heavy Forward 2 &#160;</text>
</g>
<!-- DodgePredictSensor&#45;&gt;DodgePredictSensor_linked -->
<g id="edge14" class="edge">
<title>DodgePredictSensor&#45;&gt;DodgePredictSensor_linked</title>
<path fill="none" stroke="#66cdaa" d="M175.14,-826.3C210.34,-833.93 251.96,-842.95 286.57,-850.45"/>
<polygon fill="#66cdaa" stroke="#66cdaa" points="285.55,-853.81 296.07,-852.51 287.03,-846.97 285.55,-853.81"/>
<text text-anchor="middle" x="247.38" y="-850.21" font-family="Helvetica,sans-Serif" font-size="14.00" fill="#66cdaa">QueueEnd</text>
</g>
<!-- AttackPredictSensor -->
<g id="node23" class="node">
<title>AttackPredictSensor</title>
<polygon fill="none" stroke="black" points="30.5,-879.88 30.5,-901.62 166.25,-901.62 166.25,-879.88 30.5,-879.88"/>
<text text-anchor="start" x="33.5" y="-885.33" font-family="Helvetica,sans-Serif" font-size="14.00">AttackPredictSensor &#160;</text>
<polygon fill="none" stroke="black" points="30.5,-858.12 30.5,-879.88 166.25,-879.88 166.25,-858.12 30.5,-858.12"/>
<text text-anchor="start" x="33.5" y="-864.58" font-family="Helvetica,sans-Serif" font-size="12.00" fill="#838b8b">if: Attack</text>
<text text-anchor="start" x="78.5" y="-864.58" font-family="Helvetica,sans-Serif" font-size="14.00"> &#160;</text>
</g>
<!-- AttackPredictSensor_linked -->
<g id="node24" class="node">
<title>AttackPredictSensor_linked</title>
<polygon fill="none" stroke="black" stroke-dasharray="1,5" points="419.45,-937.88 298,-937.88 298,-901.88 419.45,-901.88 419.45,-937.88"/>
<text text-anchor="start" x="303.6" y="-914.45" font-family="Helvetica,sans-Serif" font-size="14.00">Heavy Forward 2 &#160;</text>
</g>
<!-- AttackPredictSensor&#45;&gt;AttackPredictSensor_linked -->
<g id="edge15" class="edge">
<title>AttackPredictSensor&#45;&gt;AttackPredictSensor_linked</title>
<path fill="none" stroke="#66cdaa" d="M174.1,-891.44C209.6,-896.94 251.82,-903.48 286.81,-908.9"/>
<polygon fill="#66cdaa" stroke="#66cdaa" points="285.99,-912.31 296.41,-910.38 287.06,-905.39 285.99,-912.31"/>
<text text-anchor="middle" x="247.38" y="-909.39" font-family="Helvetica,sans-Serif" font-size="14.00" fill="#66cdaa">QueueEnd</text>
</g>
<!-- AttackRunToSensor -->
<g id="node25" class="node">
<title>AttackRunToSensor</title>
<polygon fill="none" stroke="black" points="32,-949.88 32,-971.62 164.75,-971.62 164.75,-949.88 32,-949.88"/>
<text text-anchor="start" x="35" y="-955.33" font-family="Helvetica,sans-Serif" font-size="14.00">AttackRunToSensor &#160;</text>
<polygon fill="none" stroke="black" points="32,-928.12 32,-949.88 164.75,-949.88 164.75,-928.12 32,-928.12"/>
<text text-anchor="start" x="35" y="-934.58" font-family="Helvetica,sans-Serif" font-size="12.00" fill="#838b8b">if: state is Engaging</text>
<text text-anchor="start" x="139.25" y="-934.58" font-family="Helvetica,sans-Serif" font-size="14.00"> &#160;</text>
</g>
<!-- AttackRunToSensor_linked -->
<g id="node26" class="node">
<title>AttackRunToSensor_linked</title>
<polygon fill="none" stroke="black" stroke-dasharray="1,5" points="419.45,-991.88 298,-991.88 298,-955.88 419.45,-955.88 419.45,-991.88"/>
<text text-anchor="start" x="303.6" y="-968.45" font-family="Helvetica,sans-Serif" font-size="14.00">Heavy Forward 2 &#160;</text>
</g>
<!-- AttackRunToSensor&#45;&gt;AttackRunToSensor_linked -->
<g id="edge16" class="edge">
<title>AttackRunToSensor&#45;&gt;AttackRunToSensor_linked</title>
<path fill="none" stroke="#66cdaa" d="M172.72,-956.69C208.39,-960 251.09,-963.97 286.48,-967.26"/>
<polygon fill="#66cdaa" stroke="#66cdaa" points="285.91,-970.72 296.19,-968.16 286.56,-963.75 285.91,-970.72"/>
<text text-anchor="middle" x="247.38" y="-968.56" font-family="Helvetica,sans-Serif" font-size="14.00" fill="#66cdaa">QueueEnd</text>
</g>
<!-- DodgeAttackSensor -->
<g id="node27" class="node">
<title>DodgeAttackSensor</title>
<polygon fill="none" stroke="black" points="166.38,-1029.88 30.38,-1029.88 30.38,-993.88 166.38,-993.88 166.38,-1029.88"/>
<text text-anchor="middle" x="98.38" y="-1006.45" font-family="Helvetica,sans-Serif" font-size="14.00">DodgeAttackSensor</text>
</g>
</g>
</svg>
