<?xml version="1.0" encoding="UTF-8" standalone="no"?>
<!DOCTYPE svg PUBLIC "-//W3C//DTD SVG 1.1//EN"
 "http://www.w3.org/Graphics/SVG/1.1/DTD/svg11.dtd">
<!-- Generated by graphviz version 12.2.1 (20241206.2353)
 -->
<!-- Title: Foo Pages: 1 -->
<svg width="396pt" height="730pt"
 viewBox="0.00 0.00 395.50 729.75" xmlns="http://www.w3.org/2000/svg" xmlns:xlink="http://www.w3.org/1999/xlink">
<g id="graph0" class="graph" transform="scale(1 1) rotate(0) translate(4 725.75)">
<title>Foo</title>
<polygon fill="white" stroke="none" points="-4,4 -4,-725.75 391.5,-725.75 391.5,4 -4,4"/>
<g id="clust1" class="cluster">
<title>cluster_attacksensors</title>
<polygon fill="none" stroke="black" points="8,-319.75 8,-713.75 379.5,-713.75 379.5,-319.75 8,-319.75"/>
<text text-anchor="middle" x="193.75" y="-696.45" font-family="Helvetica,sans-Serif" font-size="14.00">Attack Sensors</text>
</g>
<!-- Attack -->
<g id="node1" class="node">
<title>Attack</title>
<polygon fill="none" stroke="black" points="54,-105.88 54,-127.62 132,-127.62 132,-105.88 54,-105.88"/>
<text text-anchor="start" x="70.5" y="-111.33" font-family="Helvetica,sans-Serif" font-size="14.00">Attack &#160;</text>
<polygon fill="none" stroke="black" points="54,-73.88 54,-105.88 132,-105.88 132,-73.88 54,-73.88"/>
<text text-anchor="start" x="57" y="-92.47" font-family="Helvetica,sans-Serif" font-size="12.00" fill="#838b8b">1.00s: Shoot</text>
<text text-anchor="start" x="57" y="-78.57" font-family="Helvetica,sans-Serif" font-size="12.00" fill="#838b8b">2.00s: Done</text>
<text text-anchor="start" x="121.5" y="-78.57" font-family="Helvetica,sans-Serif" font-size="14.00"> &#160;</text>
</g>
<!-- Engaging -->
<g id="node2" class="node">
<title>Engaging</title>
<polygon fill="none" stroke="black" points="357.88,-81.75 284.88,-81.75 284.88,-45.75 357.88,-45.75 357.88,-81.75"/>
<text text-anchor="middle" x="321.38" y="-58.33" font-family="Helvetica,sans-Serif" font-size="14.00">Engaging</text>
</g>
<!-- Attack&#45;&gt;Engaging -->
<g id="edge1" class="edge">
<title>Attack&#45;&gt;Engaging</title>
<path fill="none" stroke="#cdc8b1" d="M139.81,-93.26C178.65,-86.91 234.13,-77.85 273.32,-71.44"/>
<polygon fill="#cdc8b1" stroke="#cdc8b1" points="273.87,-74.9 283.17,-69.83 272.74,-67.99 273.87,-74.9"/>
</g>
<!-- HurtState -->
<g id="node3" class="node">
<title>HurtState</title>
<polygon fill="none" stroke="black" points="54,-229.75 54,-251.5 132,-251.5 132,-229.75 54,-229.75"/>
<text text-anchor="start" x="60.75" y="-235.2" font-family="Helvetica,sans-Serif" font-size="14.00">HurtState &#160;</text>
<polygon fill="none" stroke="black" points="54,-208 54,-229.75 132,-229.75 132,-208 54,-208"/>
<text text-anchor="start" x="57" y="-214.45" font-family="Helvetica,sans-Serif" font-size="12.00" fill="#838b8b">0.17s: Done</text>
<text text-anchor="start" x="121.5" y="-214.45" font-family="Helvetica,sans-Serif" font-size="14.00"> &#160;</text>
</g>
<!-- PreAttack -->
<g id="node4" class="node">
<title>PreAttack</title>
<polygon fill="none" stroke="black" points="358.62,-216.75 284.12,-216.75 284.12,-180.75 358.62,-180.75 358.62,-216.75"/>
<text text-anchor="middle" x="321.38" y="-193.32" font-family="Helvetica,sans-Serif" font-size="14.00">PreAttack</text>
</g>
<!-- HurtState&#45;&gt;PreAttack -->
<g id="edge2" class="edge">
<title>HurtState&#45;&gt;PreAttack</title>
<path fill="none" stroke="#cdc8b1" d="M139.81,-223.48C178.41,-218.19 233.46,-210.65 272.6,-205.29"/>
<polygon fill="#cdc8b1" stroke="#cdc8b1" points="273.02,-208.77 282.45,-203.94 272.07,-201.83 273.02,-208.77"/>
</g>
<!-- PostureBreak -->
<g id="node5" class="node">
<title>PostureBreak</title>
<polygon fill="none" stroke="black" points="141.88,-185.75 44.12,-185.75 44.12,-149.75 141.88,-149.75 141.88,-185.75"/>
<text text-anchor="middle" x="93" y="-162.32" font-family="Helvetica,sans-Serif" font-size="14.00">PostureBreak</text>
</g>
<!-- PostureBreak&#45;&gt;PreAttack -->
<g id="edge3" class="edge">
<title>PostureBreak&#45;&gt;PreAttack</title>
<path fill="none" stroke="#cdc8b1" d="M142.29,-174.36C180.65,-179.62 234.04,-186.93 272.33,-192.17"/>
<polygon fill="#cdc8b1" stroke="#cdc8b1" points="271.82,-195.63 282.2,-193.52 272.77,-188.7 271.82,-195.63"/>
</g>
<!-- StandUp -->
<g id="node6" class="node">
<title>StandUp</title>
<polygon fill="none" stroke="black" points="54,-25.75 54,-47.5 132,-47.5 132,-25.75 54,-25.75"/>
<text text-anchor="start" x="63" y="-31.2" font-family="Helvetica,sans-Serif" font-size="14.00">StandUp &#160;</text>
<polygon fill="none" stroke="black" points="54,-4 54,-25.75 132,-25.75 132,-4 54,-4"/>
<text text-anchor="start" x="57" y="-10.45" font-family="Helvetica,sans-Serif" font-size="12.00" fill="#838b8b">1.00s: Done</text>
<text text-anchor="start" x="121.5" y="-10.45" font-family="Helvetica,sans-Serif" font-size="14.00"> &#160;</text>
</g>
<!-- StandUp&#45;&gt;Engaging -->
<g id="edge4" class="edge">
<title>StandUp&#45;&gt;Engaging</title>
<path fill="none" stroke="#cdc8b1" d="M139.81,-33.44C178.65,-39.96 234.13,-49.27 273.32,-55.85"/>
<polygon fill="#cdc8b1" stroke="#cdc8b1" points="272.73,-59.3 283.17,-57.51 273.89,-52.4 272.73,-59.3"/>
</g>
<!-- Wandering_Idle -->
<g id="node7" class="node">
<title>Wandering_Idle</title>
<polygon fill="none" stroke="black" points="163.62,-309.75 22.38,-309.75 22.38,-273.75 163.62,-273.75 163.62,-309.75"/>
<text text-anchor="middle" x="93" y="-286.32" font-family="Helvetica,sans-Serif" font-size="14.00">Wandering_Idle (Init)</text>
</g>
<!-- Level Once Sensor -->
<g id="node8" class="node">
<title>Level Once Sensor</title>
<polygon fill="none" stroke="black" points="158.75,-363.75 27.25,-363.75 27.25,-327.75 158.75,-327.75 158.75,-363.75"/>
<text text-anchor="middle" x="93" y="-340.32" font-family="Helvetica,sans-Serif" font-size="14.00">Level Once Sensor</text>
</g>
<!-- Level Once Sensor_linked -->
<g id="node9" class="node">
<title>Level Once Sensor_linked</title>
<polygon fill="none" stroke="black" stroke-dasharray="1,5" points="349.48,-363.75 293.27,-363.75 293.27,-327.75 349.48,-327.75 349.48,-363.75"/>
<text text-anchor="start" x="298.88" y="-340.32" font-family="Helvetica,sans-Serif" font-size="14.00">Attack &#160;</text>
</g>
<!-- Level Once Sensor&#45;&gt;Level Once Sensor_linked -->
<g id="edge5" class="edge">
<title>Level Once Sensor&#45;&gt;Level Once Sensor_linked</title>
<path fill="none" stroke="#66cdaa" d="M159.17,-345.75C198.9,-345.75 248.31,-345.75 281.88,-345.75"/>
<polygon fill="#66cdaa" stroke="#66cdaa" points="281.54,-349.25 291.54,-345.75 281.54,-342.25 281.54,-349.25"/>
<text text-anchor="middle" x="220.62" y="-348.2" font-family="Helvetica,sans-Serif" font-size="14.00" fill="#66cdaa">QueueEnd</text>
</g>
<!-- Level Once Sensor_mustuse -->
<g id="node10" class="node">
<title>Level Once Sensor_mustuse</title>
<polygon fill="none" stroke="black" stroke-dasharray="1,5" points="371.5,-417.75 271.25,-417.75 271.25,-381.75 371.5,-381.75 371.5,-417.75"/>
<text text-anchor="start" x="281.25" y="-394.32" font-family="Helvetica,sans-Serif" font-size="14.00">1 Undefined &#160;</text>
</g>
<!-- Level Once Sensor&#45;&gt;Level Once Sensor_mustuse -->
<g id="edge6" class="edge">
<title>Level Once Sensor&#45;&gt;Level Once Sensor_mustuse</title>
<path fill="none" stroke="#458b74" d="M159.17,-361.3C190.93,-368.87 228.88,-377.92 259.98,-385.34"/>
<polygon fill="#458b74" stroke="#458b74" points="259.09,-388.73 269.63,-387.64 260.71,-381.92 259.09,-388.73"/>
<text text-anchor="middle" x="220.62" y="-384.73" font-family="Helvetica,sans-Serif" font-size="14.00" fill="#458b74">Weight</text>
</g>
<!-- RunAwaySensor -->
<g id="node11" class="node">
<title>RunAwaySensor</title>
<polygon fill="none" stroke="black" points="151.25,-417.75 34.75,-417.75 34.75,-381.75 151.25,-381.75 151.25,-417.75"/>
<text text-anchor="middle" x="93" y="-394.32" font-family="Helvetica,sans-Serif" font-size="14.00">RunAwaySensor</text>
</g>
<!-- AttackSensor -->
<g id="node12" class="node">
<title>AttackSensor</title>
<polygon fill="none" stroke="black" points="141.12,-471.75 44.88,-471.75 44.88,-435.75 141.12,-435.75 141.12,-471.75"/>
<text text-anchor="middle" x="93" y="-448.32" font-family="Helvetica,sans-Serif" font-size="14.00">AttackSensor</text>
</g>
<!-- AttackSensor_linked -->
<g id="node13" class="node">
<title>AttackSensor_linked</title>
<polygon fill="none" stroke="black" stroke-dasharray="1,5" points="349.48,-471.75 293.27,-471.75 293.27,-435.75 349.48,-435.75 349.48,-471.75"/>
<text text-anchor="start" x="298.88" y="-448.32" font-family="Helvetica,sans-Serif" font-size="14.00">Attack &#160;</text>
</g>
<!-- AttackSensor&#45;&gt;AttackSensor_linked -->
<g id="edge7" class="edge">
<title>AttackSensor&#45;&gt;AttackSensor_linked</title>
<path fill="none" stroke="#66cdaa" d="M141.46,-453.75C183.05,-453.75 242.76,-453.75 281.56,-453.75"/>
<polygon fill="#66cdaa" stroke="#66cdaa" points="281.37,-457.25 291.37,-453.75 281.37,-450.25 281.37,-457.25"/>
<text text-anchor="middle" x="220.62" y="-456.2" font-family="Helvetica,sans-Serif" font-size="14.00" fill="#66cdaa">QueueEnd</text>
</g>
<!-- DodgePredictSensor -->
<g id="node14" class="node">
<title>DodgePredictSensor</title>
<polygon fill="none" stroke="black" points="24,-515.75 24,-537.5 162,-537.5 162,-515.75 24,-515.75"/>
<text text-anchor="start" x="27" y="-521.2" font-family="Helvetica,sans-Serif" font-size="14.00">DodgePredictSensor &#160;</text>
<polygon fill="none" stroke="black" points="24,-494 24,-515.75 162,-515.75 162,-494 24,-494"/>
<text text-anchor="start" x="27" y="-500.45" font-family="Helvetica,sans-Serif" font-size="12.00" fill="#838b8b">if: Dodge</text>
<text text-anchor="start" x="75" y="-500.45" font-family="Helvetica,sans-Serif" font-size="14.00"> &#160;</text>
</g>
<!-- DodgePredictSensor_linked -->
<g id="node15" class="node">
<title>DodgePredictSensor_linked</title>
<polygon fill="none" stroke="black" stroke-dasharray="1,5" points="349.48,-533.75 293.27,-533.75 293.27,-497.75 349.48,-497.75 349.48,-533.75"/>
<text text-anchor="start" x="298.88" y="-510.32" font-family="Helvetica,sans-Serif" font-size="14.00">Attack &#160;</text>
</g>
<!-- DodgePredictSensor&#45;&gt;DodgePredictSensor_linked -->
<g id="edge8" class="edge">
<title>DodgePredictSensor&#45;&gt;DodgePredictSensor_linked</title>
<path fill="none" stroke="#66cdaa" d="M169.69,-515.75C207.14,-515.75 250.76,-515.75 281.4,-515.75"/>
<polygon fill="#66cdaa" stroke="#66cdaa" points="281.36,-519.25 291.36,-515.75 281.36,-512.25 281.36,-519.25"/>
<text text-anchor="middle" x="220.62" y="-518.2" font-family="Helvetica,sans-Serif" font-size="14.00" fill="#66cdaa">QueueEnd</text>
</g>
<!-- AttackPredictSensor -->
<g id="node16" class="node">
<title>AttackPredictSensor</title>
<polygon fill="none" stroke="black" points="25.12,-585.75 25.12,-607.5 160.88,-607.5 160.88,-585.75 25.12,-585.75"/>
<text text-anchor="start" x="28.12" y="-591.2" font-family="Helvetica,sans-Serif" font-size="14.00">AttackPredictSensor &#160;</text>
<polygon fill="none" stroke="black" points="25.12,-564 25.12,-585.75 160.88,-585.75 160.88,-564 25.12,-564"/>
<text text-anchor="start" x="28.12" y="-570.45" font-family="Helvetica,sans-Serif" font-size="12.00" fill="#838b8b">if: Attack</text>
<text text-anchor="start" x="73.12" y="-570.45" font-family="Helvetica,sans-Serif" font-size="14.00"> &#160;</text>
</g>
<!-- AttackPredictSensor_linked -->
<g id="node17" class="node">
<title>AttackPredictSensor_linked</title>
<polygon fill="none" stroke="black" stroke-dasharray="1,5" points="349.48,-603.75 293.27,-603.75 293.27,-567.75 349.48,-567.75 349.48,-603.75"/>
<text text-anchor="start" x="298.88" y="-580.33" font-family="Helvetica,sans-Serif" font-size="14.00">Attack &#160;</text>
</g>
<!-- AttackPredictSensor&#45;&gt;AttackPredictSensor_linked -->
<g id="edge9" class="edge">
<title>AttackPredictSensor&#45;&gt;AttackPredictSensor_linked</title>
<path fill="none" stroke="#66cdaa" d="M168.75,-585.75C206.55,-585.75 250.84,-585.75 281.75,-585.75"/>
<polygon fill="#66cdaa" stroke="#66cdaa" points="281.39,-589.25 291.39,-585.75 281.39,-582.25 281.39,-589.25"/>
<text text-anchor="middle" x="220.62" y="-588.2" font-family="Helvetica,sans-Serif" font-size="14.00" fill="#66cdaa">QueueEnd</text>
</g>
<!-- AttackRunToSensor -->
<g id="node18" class="node">
<title>AttackRunToSensor</title>
<polygon fill="none" stroke="black" points="26.62,-655.75 26.62,-677.5 159.38,-677.5 159.38,-655.75 26.62,-655.75"/>
<text text-anchor="start" x="29.62" y="-661.2" font-family="Helvetica,sans-Serif" font-size="14.00">AttackRunToSensor &#160;</text>
<polygon fill="none" stroke="black" points="26.62,-634 26.62,-655.75 159.38,-655.75 159.38,-634 26.62,-634"/>
<text text-anchor="start" x="29.62" y="-640.45" font-family="Helvetica,sans-Serif" font-size="12.00" fill="#838b8b">if: state is Engaging</text>
<text text-anchor="start" x="133.88" y="-640.45" font-family="Helvetica,sans-Serif" font-size="14.00"> &#160;</text>
</g>
<!-- AttackRunToSensor_linked -->
<g id="node19" class="node">
<title>AttackRunToSensor_linked</title>
<polygon fill="none" stroke="black" stroke-dasharray="1,5" points="349.48,-673.75 293.27,-673.75 293.27,-637.75 349.48,-637.75 349.48,-673.75"/>
<text text-anchor="start" x="298.88" y="-650.33" font-family="Helvetica,sans-Serif" font-size="14.00">Attack &#160;</text>
</g>
<!-- AttackRunToSensor&#45;&gt;AttackRunToSensor_linked -->
<g id="edge10" class="edge">
<title>AttackRunToSensor&#45;&gt;AttackRunToSensor_linked</title>
<path fill="none" stroke="#66cdaa" d="M167.18,-655.75C205.21,-655.75 250.16,-655.75 281.49,-655.75"/>
<polygon fill="#66cdaa" stroke="#66cdaa" points="281.28,-659.25 291.28,-655.75 281.27,-652.25 281.28,-659.25"/>
<text text-anchor="middle" x="220.62" y="-658.2" font-family="Helvetica,sans-Serif" font-size="14.00" fill="#66cdaa">QueueEnd</text>
</g>
</g>
</svg>
