<?xml version="1.0" encoding="UTF-8" standalone="no"?>
<!DOCTYPE svg PUBLIC "-//W3C//DTD SVG 1.1//EN"
 "http://www.w3.org/Graphics/SVG/1.1/DTD/svg11.dtd">
<!-- Generated by graphviz version 12.2.1 (20241206.2353)
 -->
<!-- Title: Foo Pages: 1 -->
<svg width="396pt" height="992pt"
 viewBox="0.00 0.00 395.50 991.88" xmlns="http://www.w3.org/2000/svg" xmlns:xlink="http://www.w3.org/1999/xlink">
<g id="graph0" class="graph" transform="scale(1 1) rotate(0) translate(4 987.88)">
<title>Foo</title>
<polygon fill="white" stroke="none" points="-4,4 -4,-987.88 391.5,-987.88 391.5,4 -4,4"/>
<g id="clust1" class="cluster">
<title>cluster_attacksensors</title>
<polygon fill="none" stroke="black" points="8,-563.88 8,-975.88 379.5,-975.88 379.5,-563.88 8,-563.88"/>
<text text-anchor="middle" x="193.75" y="-958.58" font-family="Helvetica,sans-Serif" font-size="14.00">Attack Sensors</text>
</g>
<!-- Attack -->
<g id="node1" class="node">
<title>Attack</title>
<polygon fill="none" stroke="black" points="34.12,-186 34.12,-207.75 151.88,-207.75 151.88,-186 34.12,-186"/>
<text text-anchor="start" x="70.5" y="-191.45" font-family="Helvetica,sans-Serif" font-size="14.00">Attack &#160;</text>
<polygon fill="none" stroke="black" points="34.12,-154 34.12,-186 151.88,-186 151.88,-154 34.12,-154"/>
<text text-anchor="start" x="37.12" y="-172.6" font-family="Helvetica,sans-Serif" font-size="12.00" fill="#838b8b">3.00s: LinkNextMove</text>
<text text-anchor="start" x="37.12" y="-158.7" font-family="Helvetica,sans-Serif" font-size="12.00" fill="#838b8b">3.50s: Done</text>
<text text-anchor="start" x="101.62" y="-158.7" font-family="Helvetica,sans-Serif" font-size="14.00"> &#160;</text>
</g>
<!-- Engaging -->
<g id="node2" class="node">
<title>Engaging</title>
<polygon fill="none" stroke="black" points="357.88,-134.88 284.88,-134.88 284.88,-98.88 357.88,-98.88 357.88,-134.88"/>
<text text-anchor="middle" x="321.38" y="-111.45" font-family="Helvetica,sans-Serif" font-size="14.00">Engaging</text>
</g>
<!-- Attack&#45;&gt;Engaging -->
<g id="edge1" class="edge">
<title>Attack&#45;&gt;Engaging</title>
<path fill="none" stroke="#cdc8b1" d="M159.8,-154.18C169.19,-150.81 178.78,-147.6 188,-144.88 215.94,-136.63 247.87,-129.8 273.37,-124.95"/>
<polygon fill="#cdc8b1" stroke="#cdc8b1" points="273.92,-128.41 283.11,-123.14 272.64,-121.53 273.92,-128.41"/>
</g>
<!-- Attack_mustuse -->
<g id="node3" class="node">
<title>Attack_mustuse</title>
<polygon fill="none" stroke="black" stroke-dasharray="1,5" points="371.5,-212.62 271.25,-212.62 271.25,-165.12 371.5,-165.12 371.5,-212.62"/>
<text text-anchor="start" x="281.25" y="-193.32" font-family="Helvetica,sans-Serif" font-size="14.00">0 Undefined &#160;</text>
<text text-anchor="start" x="281.25" y="-173.57" font-family="Helvetica,sans-Serif" font-size="14.00">0 Undefined &#160;</text>
</g>
<!-- Attack&#45;&gt;Attack_mustuse -->
<g id="edge2" class="edge">
<title>Attack&#45;&gt;Attack_mustuse</title>
<path fill="none" stroke="#458b74" d="M159.78,-183.2C191.27,-184.31 228.72,-185.64 259.54,-186.73"/>
<polygon fill="#458b74" stroke="#458b74" points="259.37,-190.22 269.49,-187.08 259.62,-183.23 259.37,-190.22"/>
<text text-anchor="middle" x="220.62" y="-188.74" font-family="Helvetica,sans-Serif" font-size="14.00" fill="#458b74">Weight</text>
</g>
<!-- JumpAttack -->
<g id="node4" class="node">
<title>JumpAttack</title>
<polygon fill="none" stroke="black" points="34.12,-266 34.12,-287.75 151.88,-287.75 151.88,-266 34.12,-266"/>
<text text-anchor="start" x="53.62" y="-271.45" font-family="Helvetica,sans-Serif" font-size="14.00">JumpAttack &#160;</text>
<polygon fill="none" stroke="black" points="34.12,-234 34.12,-266 151.88,-266 151.88,-234 34.12,-234"/>
<text text-anchor="start" x="37.12" y="-252.6" font-family="Helvetica,sans-Serif" font-size="12.00" fill="#838b8b">2.50s: LinkNextMove</text>
<text text-anchor="start" x="37.12" y="-238.7" font-family="Helvetica,sans-Serif" font-size="12.00" fill="#838b8b">2.67s: Done</text>
<text text-anchor="start" x="101.62" y="-238.7" font-family="Helvetica,sans-Serif" font-size="14.00"> &#160;</text>
</g>
<!-- JumpAttack&#45;&gt;Engaging -->
<g id="edge3" class="edge">
<title>JumpAttack&#45;&gt;Engaging</title>
<path fill="none" stroke="#cdc8b1" d="M159.59,-230.3C163.32,-227.38 166.83,-224.24 170,-220.88 183.35,-206.67 174.41,-194.85 188,-180.88 200.85,-167.67 241.31,-149 274.15,-135.23"/>
<polygon fill="#cdc8b1" stroke="#cdc8b1" points="275.2,-138.59 283.1,-131.53 272.52,-132.12 275.2,-138.59"/>
</g>
<!-- JumpAttack_mustuse -->
<g id="node5" class="node">
<title>JumpAttack_mustuse</title>
<polygon fill="none" stroke="black" stroke-dasharray="1,5" points="371.5,-284.62 271.25,-284.62 271.25,-237.12 371.5,-237.12 371.5,-284.62"/>
<text text-anchor="start" x="281.25" y="-265.32" font-family="Helvetica,sans-Serif" font-size="14.00">0 Undefined &#160;</text>
<text text-anchor="start" x="281.25" y="-245.57" font-family="Helvetica,sans-Serif" font-size="14.00">0 Undefined &#160;</text>
</g>
<!-- JumpAttack&#45;&gt;JumpAttack_mustuse -->
<g id="edge4" class="edge">
<title>JumpAttack&#45;&gt;JumpAttack_mustuse</title>
<path fill="none" stroke="#458b74" d="M159.78,-260.88C191.27,-260.88 228.72,-260.88 259.54,-260.88"/>
<polygon fill="#458b74" stroke="#458b74" points="259.49,-264.38 269.49,-260.88 259.49,-257.38 259.49,-264.38"/>
<text text-anchor="middle" x="220.62" y="-263.32" font-family="Helvetica,sans-Serif" font-size="14.00" fill="#458b74">Weight</text>
</g>
<!-- Attack 3 -->
<g id="node6" class="node">
<title>Attack 3</title>
<polygon fill="none" stroke="black" points="34.12,-36 34.12,-57.75 151.88,-57.75 151.88,-36 34.12,-36"/>
<text text-anchor="start" x="64.88" y="-41.45" font-family="Helvetica,sans-Serif" font-size="14.00">Attack 3 &#160;</text>
<polygon fill="none" stroke="black" points="34.12,-4 34.12,-36 151.88,-36 151.88,-4 34.12,-4"/>
<text text-anchor="start" x="37.12" y="-22.6" font-family="Helvetica,sans-Serif" font-size="12.00" fill="#838b8b">3.00s: LinkNextMove</text>
<text text-anchor="start" x="37.12" y="-8.7" font-family="Helvetica,sans-Serif" font-size="12.00" fill="#838b8b">3.50s: Done</text>
<text text-anchor="start" x="101.62" y="-8.7" font-family="Helvetica,sans-Serif" font-size="14.00"> &#160;</text>
</g>
<!-- Attack 3&#45;&gt;Engaging -->
<g id="edge5" class="edge">
<title>Attack 3&#45;&gt;Engaging</title>
<path fill="none" stroke="#cdc8b1" d="M159.78,-55.87C196.37,-69.77 241.04,-86.73 273.96,-99.24"/>
<polygon fill="#cdc8b1" stroke="#cdc8b1" points="272.64,-102.49 283.23,-102.77 275.13,-95.94 272.64,-102.49"/>
</g>
<!-- Attack 3_mustuse -->
<g id="node7" class="node">
<title>Attack 3_mustuse</title>
<polygon fill="none" stroke="black" stroke-dasharray="1,5" points="371.5,-54.62 271.25,-54.62 271.25,-7.12 371.5,-7.12 371.5,-54.62"/>
<text text-anchor="start" x="281.25" y="-35.33" font-family="Helvetica,sans-Serif" font-size="14.00">1 Undefined &#160;</text>
<text text-anchor="start" x="281.25" y="-15.57" font-family="Helvetica,sans-Serif" font-size="14.00">1 Undefined &#160;</text>
</g>
<!-- Attack 3&#45;&gt;Attack 3_mustuse -->
<g id="edge6" class="edge">
<title>Attack 3&#45;&gt;Attack 3_mustuse</title>
<path fill="none" stroke="#458b74" d="M159.78,-30.88C191.27,-30.88 228.72,-30.88 259.54,-30.88"/>
<polygon fill="#458b74" stroke="#458b74" points="259.49,-34.38 269.49,-30.88 259.49,-27.38 259.49,-34.38"/>
<text text-anchor="middle" x="220.62" y="-33.33" font-family="Helvetica,sans-Serif" font-size="14.00" fill="#458b74">Weight</text>
</g>
<!-- HurtState -->
<g id="node8" class="node">
<title>HurtState</title>
<polygon fill="none" stroke="black" points="54,-405.88 54,-427.62 132,-427.62 132,-405.88 54,-405.88"/>
<text text-anchor="start" x="60.75" y="-411.32" font-family="Helvetica,sans-Serif" font-size="14.00">HurtState &#160;</text>
<polygon fill="none" stroke="black" points="54,-384.12 54,-405.88 132,-405.88 132,-384.12 54,-384.12"/>
<text text-anchor="start" x="57" y="-390.57" font-family="Helvetica,sans-Serif" font-size="12.00" fill="#838b8b">0.17s: Done</text>
<text text-anchor="start" x="121.5" y="-390.57" font-family="Helvetica,sans-Serif" font-size="14.00"> &#160;</text>
</g>
<!-- PreAttack -->
<g id="node9" class="node">
<title>PreAttack</title>
<polygon fill="none" stroke="black" points="358.62,-423.88 284.12,-423.88 284.12,-387.88 358.62,-387.88 358.62,-423.88"/>
<text text-anchor="middle" x="321.38" y="-400.45" font-family="Helvetica,sans-Serif" font-size="14.00">PreAttack</text>
</g>
<!-- HurtState&#45;&gt;PreAttack -->
<g id="edge7" class="edge">
<title>HurtState&#45;&gt;PreAttack</title>
<path fill="none" stroke="#cdc8b1" d="M139.81,-405.88C178.41,-405.88 233.46,-405.88 272.6,-405.88"/>
<polygon fill="#cdc8b1" stroke="#cdc8b1" points="272.44,-409.38 282.44,-405.88 272.44,-402.38 272.44,-409.38"/>
</g>
<!-- Hurt_BigState -->
<g id="node10" class="node">
<title>Hurt_BigState</title>
<polygon fill="none" stroke="black" points="44.25,-335.88 44.25,-357.62 141.75,-357.62 141.75,-335.88 44.25,-335.88"/>
<text text-anchor="start" x="47.25" y="-341.32" font-family="Helvetica,sans-Serif" font-size="14.00">Hurt_BigState &#160;</text>
<polygon fill="none" stroke="black" points="44.25,-314.12 44.25,-335.88 141.75,-335.88 141.75,-314.12 44.25,-314.12"/>
<text text-anchor="start" x="47.25" y="-320.57" font-family="Helvetica,sans-Serif" font-size="12.00" fill="#838b8b">1.00s: Done</text>
<text text-anchor="start" x="111.75" y="-320.57" font-family="Helvetica,sans-Serif" font-size="14.00"> &#160;</text>
</g>
<!-- Hurt_BigState&#45;&gt;PreAttack -->
<g id="edge8" class="edge">
<title>Hurt_BigState&#45;&gt;PreAttack</title>
<path fill="none" stroke="#cdc8b1" d="M149.67,-353.09C187.51,-364.79 237.05,-380.11 273,-391.23"/>
<polygon fill="#cdc8b1" stroke="#cdc8b1" points="271.66,-394.48 282.25,-394.09 273.73,-387.79 271.66,-394.48"/>
</g>
<!-- JumpBack -->
<g id="node11" class="node">
<title>JumpBack</title>
<polygon fill="none" stroke="black" points="54,-475.88 54,-497.62 132,-497.62 132,-475.88 54,-475.88"/>
<text text-anchor="start" x="57.38" y="-481.32" font-family="Helvetica,sans-Serif" font-size="14.00">JumpBack &#160;</text>
<polygon fill="none" stroke="black" points="54,-454.12 54,-475.88 132,-475.88 132,-454.12 54,-454.12"/>
<text text-anchor="start" x="57" y="-460.57" font-family="Helvetica,sans-Serif" font-size="12.00" fill="#838b8b">1.00s: Done</text>
<text text-anchor="start" x="121.5" y="-460.57" font-family="Helvetica,sans-Serif" font-size="14.00"> &#160;</text>
</g>
<!-- JumpBack&#45;&gt;PreAttack -->
<g id="edge9" class="edge">
<title>JumpBack&#45;&gt;PreAttack</title>
<path fill="none" stroke="#cdc8b1" d="M139.81,-461.71C178.58,-449.72 233.93,-432.61 273.11,-420.49"/>
<polygon fill="#cdc8b1" stroke="#cdc8b1" points="273.99,-423.88 282.51,-417.58 271.92,-417.2 273.99,-423.88"/>
</g>
<!-- RollThrough -->
<g id="node12" class="node">
<title>RollThrough</title>
<polygon fill="none" stroke="black" points="49.5,-105.88 49.5,-127.62 136.5,-127.62 136.5,-105.88 49.5,-105.88"/>
<text text-anchor="start" x="52.5" y="-111.33" font-family="Helvetica,sans-Serif" font-size="14.00">RollThrough &#160;</text>
<polygon fill="none" stroke="black" points="49.5,-84.12 49.5,-105.88 136.5,-105.88 136.5,-84.12 49.5,-84.12"/>
<text text-anchor="start" x="52.5" y="-90.58" font-family="Helvetica,sans-Serif" font-size="12.00" fill="#838b8b">1.00s: Done</text>
<text text-anchor="start" x="117" y="-90.58" font-family="Helvetica,sans-Serif" font-size="14.00"> &#160;</text>
</g>
<!-- RollThrough&#45;&gt;Engaging -->
<g id="edge10" class="edge">
<title>RollThrough&#45;&gt;Engaging</title>
<path fill="none" stroke="#cdc8b1" d="M144.24,-108.32C182.84,-110.19 235.76,-112.76 273.5,-114.6"/>
<polygon fill="#cdc8b1" stroke="#cdc8b1" points="273.02,-118.08 283.18,-115.07 273.36,-111.09 273.02,-118.08"/>
</g>
<!-- Wandering_Idle -->
<g id="node13" class="node">
<title>Wandering_Idle</title>
<polygon fill="none" stroke="black" points="163.62,-555.88 22.38,-555.88 22.38,-519.88 163.62,-519.88 163.62,-555.88"/>
<text text-anchor="middle" x="93" y="-532.45" font-family="Helvetica,sans-Serif" font-size="14.00">Wandering_Idle (Init)</text>
</g>
<!-- Level Once Sensor -->
<g id="node14" class="node">
<title>Level Once Sensor</title>
<polygon fill="none" stroke="black" points="158.75,-611.88 27.25,-611.88 27.25,-575.88 158.75,-575.88 158.75,-611.88"/>
<text text-anchor="middle" x="93" y="-588.45" font-family="Helvetica,sans-Serif" font-size="14.00">Level Once Sensor</text>
</g>
<!-- Level Once Sensor_linked -->
<g id="node15" class="node">
<title>Level Once Sensor_linked</title>
<polygon fill="none" stroke="black" stroke-dasharray="1,5" points="349.48,-607.88 293.27,-607.88 293.27,-571.88 349.48,-571.88 349.48,-607.88"/>
<text text-anchor="start" x="298.88" y="-584.45" font-family="Helvetica,sans-Serif" font-size="14.00">Attack &#160;</text>
</g>
<!-- Level Once Sensor&#45;&gt;Level Once Sensor_linked -->
<g id="edge11" class="edge">
<title>Level Once Sensor&#45;&gt;Level Once Sensor_linked</title>
<path fill="none" stroke="#66cdaa" d="M159.17,-592.72C198.9,-592.02 248.31,-591.15 281.88,-590.56"/>
<polygon fill="#66cdaa" stroke="#66cdaa" points="281.61,-594.06 291.54,-590.38 281.48,-587.06 281.61,-594.06"/>
<text text-anchor="middle" x="220.62" y="-594.56" font-family="Helvetica,sans-Serif" font-size="14.00" fill="#66cdaa">QueueEnd</text>
</g>
<!-- Level Once Sensor_mustuse -->
<g id="node16" class="node">
<title>Level Once Sensor_mustuse</title>
<polygon fill="none" stroke="black" stroke-dasharray="1,5" points="371.5,-661.88 271.25,-661.88 271.25,-625.88 371.5,-625.88 371.5,-661.88"/>
<text text-anchor="start" x="281.25" y="-638.45" font-family="Helvetica,sans-Serif" font-size="14.00">1 Undefined &#160;</text>
</g>
<!-- Level Once Sensor&#45;&gt;Level Once Sensor_mustuse -->
<g id="edge12" class="edge">
<title>Level Once Sensor&#45;&gt;Level Once Sensor_mustuse</title>
<path fill="none" stroke="#458b74" d="M159.17,-608.27C190.93,-615.28 228.88,-623.67 259.98,-630.53"/>
<polygon fill="#458b74" stroke="#458b74" points="259.1,-633.93 269.62,-632.67 260.61,-627.09 259.1,-633.93"/>
<text text-anchor="middle" x="220.62" y="-630.15" font-family="Helvetica,sans-Serif" font-size="14.00" fill="#458b74">Weight</text>
</g>
<!-- RunAwaySensor -->
<g id="node17" class="node">
<title>RunAwaySensor</title>
<polygon fill="none" stroke="black" points="151.25,-673.88 34.75,-673.88 34.75,-637.88 151.25,-637.88 151.25,-673.88"/>
<text text-anchor="middle" x="93" y="-650.45" font-family="Helvetica,sans-Serif" font-size="14.00">RunAwaySensor</text>
</g>
<!-- AttackSensor -->
<g id="node18" class="node">
<title>AttackSensor</title>
<polygon fill="none" stroke="black" points="141.12,-731.88 44.88,-731.88 44.88,-695.88 141.12,-695.88 141.12,-731.88"/>
<text text-anchor="middle" x="93" y="-708.45" font-family="Helvetica,sans-Serif" font-size="14.00">AttackSensor</text>
</g>
<!-- AttackSensor_linked -->
<g id="node19" class="node">
<title>AttackSensor_linked</title>
<polygon fill="none" stroke="black" stroke-dasharray="1,5" points="349.48,-715.88 293.27,-715.88 293.27,-679.88 349.48,-679.88 349.48,-715.88"/>
<text text-anchor="start" x="298.88" y="-692.45" font-family="Helvetica,sans-Serif" font-size="14.00">Attack &#160;</text>
</g>
<!-- AttackSensor&#45;&gt;AttackSensor_linked -->
<g id="edge13" class="edge">
<title>AttackSensor&#45;&gt;AttackSensor_linked</title>
<path fill="none" stroke="#66cdaa" d="M141.46,-710.52C183.05,-707.58 242.76,-703.36 281.56,-700.62"/>
<polygon fill="#66cdaa" stroke="#66cdaa" points="281.65,-704.12 291.38,-699.92 281.16,-697.14 281.65,-704.12"/>
<text text-anchor="middle" x="220.62" y="-709.28" font-family="Helvetica,sans-Serif" font-size="14.00" fill="#66cdaa">QueueEnd</text>
</g>
<!-- AttackSensor_mustuse -->
<g id="node20" class="node">
<title>AttackSensor_mustuse</title>
<polygon fill="none" stroke="black" stroke-dasharray="1,5" points="371.5,-781.62 271.25,-781.62 271.25,-734.12 371.5,-734.12 371.5,-781.62"/>
<text text-anchor="start" x="281.25" y="-762.33" font-family="Helvetica,sans-Serif" font-size="14.00">1 Undefined &#160;</text>
<text text-anchor="start" x="281.25" y="-742.58" font-family="Helvetica,sans-Serif" font-size="14.00">1 Undefined &#160;</text>
</g>
<!-- AttackSensor&#45;&gt;AttackSensor_mustuse -->
<g id="edge14" class="edge">
<title>AttackSensor&#45;&gt;AttackSensor_mustuse</title>
<path fill="none" stroke="#458b74" d="M141.46,-723.1C175.88,-729.79 222.72,-738.89 259.84,-746.11"/>
<polygon fill="#458b74" stroke="#458b74" points="259.06,-749.52 269.54,-747.99 260.39,-742.65 259.06,-749.52"/>
<text text-anchor="middle" x="220.62" y="-746.09" font-family="Helvetica,sans-Serif" font-size="14.00" fill="#458b74">Weight</text>
</g>
<!-- DodgePredictSensor -->
<g id="node21" class="node">
<title>DodgePredictSensor</title>
<polygon fill="none" stroke="black" points="24,-777.88 24,-799.62 162,-799.62 162,-777.88 24,-777.88"/>
<text text-anchor="start" x="27" y="-783.33" font-family="Helvetica,sans-Serif" font-size="14.00">DodgePredictSensor &#160;</text>
<polygon fill="none" stroke="black" points="24,-756.12 24,-777.88 162,-777.88 162,-756.12 24,-756.12"/>
<text text-anchor="start" x="27" y="-762.58" font-family="Helvetica,sans-Serif" font-size="12.00" fill="#838b8b">if: Dodge</text>
<text text-anchor="start" x="75" y="-762.58" font-family="Helvetica,sans-Serif" font-size="14.00"> &#160;</text>
</g>
<!-- DodgePredictSensor_linked -->
<g id="node22" class="node">
<title>DodgePredictSensor_linked</title>
<polygon fill="none" stroke="black" stroke-dasharray="1,5" points="349.48,-835.88 293.27,-835.88 293.27,-799.88 349.48,-799.88 349.48,-835.88"/>
<text text-anchor="start" x="298.88" y="-812.45" font-family="Helvetica,sans-Serif" font-size="14.00">Attack &#160;</text>
</g>
<!-- DodgePredictSensor&#45;&gt;DodgePredictSensor_linked -->
<g id="edge15" class="edge">
<title>DodgePredictSensor&#45;&gt;DodgePredictSensor_linked</title>
<path fill="none" stroke="#66cdaa" d="M169.69,-791.25C207.31,-797.9 251.14,-805.64 281.8,-811.06"/>
<polygon fill="#66cdaa" stroke="#66cdaa" points="280.92,-814.46 291.38,-812.75 282.14,-807.56 280.92,-814.46"/>
<text text-anchor="middle" x="220.62" y="-807.39" font-family="Helvetica,sans-Serif" font-size="14.00" fill="#66cdaa">QueueEnd</text>
</g>
<!-- AttackPredictSensor -->
<g id="node23" class="node">
<title>AttackPredictSensor</title>
<polygon fill="none" stroke="black" points="25.12,-847.88 25.12,-869.62 160.88,-869.62 160.88,-847.88 25.12,-847.88"/>
<text text-anchor="start" x="28.12" y="-853.33" font-family="Helvetica,sans-Serif" font-size="14.00">AttackPredictSensor &#160;</text>
<polygon fill="none" stroke="black" points="25.12,-826.12 25.12,-847.88 160.88,-847.88 160.88,-826.12 25.12,-826.12"/>
<text text-anchor="start" x="28.12" y="-832.58" font-family="Helvetica,sans-Serif" font-size="12.00" fill="#838b8b">if: Attack</text>
<text text-anchor="start" x="73.12" y="-832.58" font-family="Helvetica,sans-Serif" font-size="14.00"> &#160;</text>
</g>
<!-- AttackPredictSensor_linked -->
<g id="node24" class="node">
<title>AttackPredictSensor_linked</title>
<polygon fill="none" stroke="black" stroke-dasharray="1,5" points="349.48,-889.88 293.27,-889.88 293.27,-853.88 349.48,-853.88 349.48,-889.88"/>
<text text-anchor="start" x="298.88" y="-866.45" font-family="Helvetica,sans-Serif" font-size="14.00">Attack &#160;</text>
</g>
<!-- AttackPredictSensor&#45;&gt;AttackPredictSensor_linked -->
<g id="edge16" class="edge">
<title>AttackPredictSensor&#45;&gt;AttackPredictSensor_linked</title>
<path fill="none" stroke="#66cdaa" d="M168.75,-855.8C206.55,-859.81 250.84,-864.5 281.75,-867.78"/>
<polygon fill="#66cdaa" stroke="#66cdaa" points="281.09,-871.23 291.4,-868.8 281.83,-864.27 281.09,-871.23"/>
<text text-anchor="middle" x="220.62" y="-866.56" font-family="Helvetica,sans-Serif" font-size="14.00" fill="#66cdaa">QueueEnd</text>
</g>
<!-- AttackRunToSensor -->
<g id="node25" class="node">
<title>AttackRunToSensor</title>
<polygon fill="none" stroke="black" points="26.62,-917.88 26.62,-939.62 159.38,-939.62 159.38,-917.88 26.62,-917.88"/>
<text text-anchor="start" x="29.62" y="-923.33" font-family="Helvetica,sans-Serif" font-size="14.00">AttackRunToSensor &#160;</text>
<polygon fill="none" stroke="black" points="26.62,-896.12 26.62,-917.88 159.38,-917.88 159.38,-896.12 26.62,-896.12"/>
<text text-anchor="start" x="29.62" y="-902.58" font-family="Helvetica,sans-Serif" font-size="12.00" fill="#838b8b">if: state is Engaging</text>
<text text-anchor="start" x="133.88" y="-902.58" font-family="Helvetica,sans-Serif" font-size="14.00"> &#160;</text>
</g>
<!-- AttackRunToSensor_linked -->
<g id="node26" class="node">
<title>AttackRunToSensor_linked</title>
<polygon fill="none" stroke="black" stroke-dasharray="1,5" points="349.48,-943.88 293.27,-943.88 293.27,-907.88 349.48,-907.88 349.48,-943.88"/>
<text text-anchor="start" x="298.88" y="-920.45" font-family="Helvetica,sans-Serif" font-size="14.00">Attack &#160;</text>
</g>
<!-- AttackRunToSensor&#45;&gt;AttackRunToSensor_linked -->
<g id="edge17" class="edge">
<title>AttackRunToSensor&#45;&gt;AttackRunToSensor_linked</title>
<path fill="none" stroke="#66cdaa" d="M167.18,-920.46C205.21,-921.81 250.16,-923.39 281.49,-924.5"/>
<polygon fill="#66cdaa" stroke="#66cdaa" points="281.16,-927.99 291.28,-924.85 281.41,-921 281.16,-927.99"/>
<text text-anchor="middle" x="220.62" y="-925.74" font-family="Helvetica,sans-Serif" font-size="14.00" fill="#66cdaa">QueueEnd</text>
</g>
</g>
</svg>
