<?xml version="1.0" encoding="UTF-8" standalone="no"?>
<!DOCTYPE svg PUBLIC "-//W3C//DTD SVG 1.1//EN"
 "http://www.w3.org/Graphics/SVG/1.1/DTD/svg11.dtd">
<!-- Generated by graphviz version 12.2.1 (20241206.2353)
 -->
<!-- Title: Foo Pages: 1 -->
<svg width="396pt" height="992pt"
 viewBox="0.00 0.00 395.50 992.00" xmlns="http://www.w3.org/2000/svg" xmlns:xlink="http://www.w3.org/1999/xlink">
<g id="graph0" class="graph" transform="scale(1 1) rotate(0) translate(4 988)">
<title>Foo</title>
<polygon fill="white" stroke="none" points="-4,4 -4,-988 391.5,-988 391.5,4 -4,4"/>
<g id="clust1" class="cluster">
<title>cluster_attacksensors</title>
<polygon fill="none" stroke="black" points="8,-8 8,-420 379.5,-420 379.5,-8 8,-8"/>
<text text-anchor="middle" x="193.75" y="-402.7" font-family="Helvetica,sans-Serif" font-size="14.00">Attack Sensors</text>
</g>
<!-- Level Once Sensor -->
<g id="node1" class="node">
<title>Level Once Sensor</title>
<polygon fill="none" stroke="black" points="28.5,-26.12 28.5,-47.88 157.5,-47.88 157.5,-26.12 28.5,-26.12"/>
<text text-anchor="start" x="31.5" y="-31.57" font-family="Helvetica,sans-Serif" font-size="14.00">Level Once Sensor &#160;</text>
</g>
<!-- Level Once Sensor_linked -->
<g id="node2" class="node">
<title>Level Once Sensor_linked</title>
<polygon fill="none" stroke="black" stroke-dasharray="1,5" points="349.48,-52 293.27,-52 293.27,-16 349.48,-16 349.48,-52"/>
<text text-anchor="start" x="298.88" y="-28.57" font-family="Helvetica,sans-Serif" font-size="14.00">Attack &#160;</text>
</g>
<!-- Level Once Sensor&#45;&gt;Level Once Sensor_linked -->
<g id="edge1" class="edge">
<title>Level Once Sensor&#45;&gt;Level Once Sensor_linked</title>
<path fill="none" stroke="#66cdaa" d="M165.32,-36.05C203.7,-35.55 249.56,-34.94 281.4,-34.52"/>
<polygon fill="#66cdaa" stroke="#66cdaa" points="281.41,-38.02 291.36,-34.38 281.32,-31.02 281.41,-38.02"/>
<text text-anchor="middle" x="220.62" y="-38.13" font-family="Helvetica,sans-Serif" font-size="14.00" fill="#66cdaa">QueueEnd</text>
</g>
<!-- Level Once Sensor_weight -->
<g id="node3" class="node">
<title>Level Once Sensor_weight</title>
<polygon fill="none" stroke="black" stroke-dasharray="1,5" points="371.5,-106 271.25,-106 271.25,-70 371.5,-70 371.5,-106"/>
<text text-anchor="start" x="281.25" y="-82.58" font-family="Helvetica,sans-Serif" font-size="14.00">1 Undefined &#160;</text>
</g>
<!-- Level Once Sensor&#45;&gt;Level Once Sensor_weight -->
<g id="edge2" class="edge">
<title>Level Once Sensor&#45;&gt;Level Once Sensor_weight</title>
<path fill="none" stroke="#458b74" d="M165.32,-53.07C195.77,-59.93 230.93,-67.85 260.06,-74.41"/>
<polygon fill="#458b74" stroke="#458b74" points="258.91,-77.74 269.43,-76.52 260.45,-70.91 258.91,-77.74"/>
<text text-anchor="middle" x="220.62" y="-73.95" font-family="Helvetica,sans-Serif" font-size="14.00" fill="#458b74">Weight</text>
</g>
<!-- RunAwaySensor -->
<g id="node4" class="node">
<title>RunAwaySensor</title>
<polygon fill="none" stroke="black" points="36,-82.12 36,-103.88 150,-103.88 150,-82.12 36,-82.12"/>
<text text-anchor="start" x="39" y="-87.58" font-family="Helvetica,sans-Serif" font-size="14.00">RunAwaySensor &#160;</text>
</g>
<!-- AttackSensor -->
<g id="node5" class="node">
<title>AttackSensor</title>
<polygon fill="none" stroke="black" points="46.12,-145.12 46.12,-166.88 139.88,-166.88 139.88,-145.12 46.12,-145.12"/>
<text text-anchor="start" x="49.12" y="-150.57" font-family="Helvetica,sans-Serif" font-size="14.00">AttackSensor &#160;</text>
</g>
<!-- AttackSensor_linked -->
<g id="node6" class="node">
<title>AttackSensor_linked</title>
<polygon fill="none" stroke="black" stroke-dasharray="1,5" points="349.48,-160 293.27,-160 293.27,-124 349.48,-124 349.48,-160"/>
<text text-anchor="start" x="298.88" y="-136.57" font-family="Helvetica,sans-Serif" font-size="14.00">Attack &#160;</text>
</g>
<!-- AttackSensor&#45;&gt;AttackSensor_linked -->
<g id="edge3" class="edge">
<title>AttackSensor&#45;&gt;AttackSensor_linked</title>
<path fill="none" stroke="#66cdaa" d="M147.65,-152.68C188.82,-150.14 244.69,-146.68 281.6,-144.4"/>
<polygon fill="#66cdaa" stroke="#66cdaa" points="281.6,-147.9 291.37,-143.79 281.17,-140.92 281.6,-147.9"/>
<text text-anchor="middle" x="220.62" y="-152.29" font-family="Helvetica,sans-Serif" font-size="14.00" fill="#66cdaa">QueueEnd</text>
</g>
<!-- AttackSensor_weight -->
<g id="node7" class="node">
<title>AttackSensor_weight</title>
<polygon fill="none" stroke="black" stroke-dasharray="1,5" points="371.5,-225.75 271.25,-225.75 271.25,-178.25 371.5,-178.25 371.5,-225.75"/>
<text text-anchor="start" x="281.25" y="-206.45" font-family="Helvetica,sans-Serif" font-size="14.00">1 Undefined &#160;</text>
<text text-anchor="start" x="281.25" y="-186.7" font-family="Helvetica,sans-Serif" font-size="14.00">1 Undefined &#160;</text>
</g>
<!-- AttackSensor&#45;&gt;AttackSensor_weight -->
<g id="edge4" class="edge">
<title>AttackSensor&#45;&gt;AttackSensor_weight</title>
<path fill="none" stroke="#458b74" d="M147.65,-166.9C181.39,-173.76 225,-182.62 259.96,-189.72"/>
<polygon fill="#458b74" stroke="#458b74" points="259,-193.1 269.5,-191.66 260.39,-186.24 259,-193.1"/>
<text text-anchor="middle" x="220.62" y="-189.57" font-family="Helvetica,sans-Serif" font-size="14.00" fill="#458b74">Weight</text>
</g>
<!-- DodgePredictSensor -->
<g id="node8" class="node">
<title>DodgePredictSensor</title>
<polygon fill="none" stroke="black" points="24,-222 24,-243.75 162,-243.75 162,-222 24,-222"/>
<text text-anchor="start" x="27" y="-227.45" font-family="Helvetica,sans-Serif" font-size="14.00">DodgePredictSensor &#160;</text>
<polygon fill="none" stroke="black" points="24,-200.25 24,-222 162,-222 162,-200.25 24,-200.25"/>
<text text-anchor="start" x="27" y="-206.7" font-family="Helvetica,sans-Serif" font-size="12.00" fill="#838b8b">if: Dodge</text>
<text text-anchor="start" x="75" y="-206.7" font-family="Helvetica,sans-Serif" font-size="14.00"> &#160;</text>
</g>
<!-- DodgePredictSensor_linked -->
<g id="node9" class="node">
<title>DodgePredictSensor_linked</title>
<polygon fill="none" stroke="black" stroke-dasharray="1,5" points="349.48,-280 293.27,-280 293.27,-244 349.48,-244 349.48,-280"/>
<text text-anchor="start" x="298.88" y="-256.57" font-family="Helvetica,sans-Serif" font-size="14.00">Attack &#160;</text>
</g>
<!-- DodgePredictSensor&#45;&gt;DodgePredictSensor_linked -->
<g id="edge5" class="edge">
<title>DodgePredictSensor&#45;&gt;DodgePredictSensor_linked</title>
<path fill="none" stroke="#66cdaa" d="M169.69,-235.38C207.31,-242.02 251.14,-249.77 281.8,-255.18"/>
<polygon fill="#66cdaa" stroke="#66cdaa" points="280.92,-258.58 291.38,-256.88 282.14,-251.69 280.92,-258.58"/>
<text text-anchor="middle" x="220.62" y="-251.51" font-family="Helvetica,sans-Serif" font-size="14.00" fill="#66cdaa">QueueEnd</text>
</g>
<!-- AttackPredictSensor -->
<g id="node10" class="node">
<title>AttackPredictSensor</title>
<polygon fill="none" stroke="black" points="25.12,-292 25.12,-313.75 160.88,-313.75 160.88,-292 25.12,-292"/>
<text text-anchor="start" x="28.12" y="-297.45" font-family="Helvetica,sans-Serif" font-size="14.00">AttackPredictSensor &#160;</text>
<polygon fill="none" stroke="black" points="25.12,-270.25 25.12,-292 160.88,-292 160.88,-270.25 25.12,-270.25"/>
<text text-anchor="start" x="28.12" y="-276.7" font-family="Helvetica,sans-Serif" font-size="12.00" fill="#838b8b">if: Attack</text>
<text text-anchor="start" x="73.12" y="-276.7" font-family="Helvetica,sans-Serif" font-size="14.00"> &#160;</text>
</g>
<!-- AttackPredictSensor_linked -->
<g id="node11" class="node">
<title>AttackPredictSensor_linked</title>
<polygon fill="none" stroke="black" stroke-dasharray="1,5" points="349.48,-334 293.27,-334 293.27,-298 349.48,-298 349.48,-334"/>
<text text-anchor="start" x="298.88" y="-310.57" font-family="Helvetica,sans-Serif" font-size="14.00">Attack &#160;</text>
</g>
<!-- AttackPredictSensor&#45;&gt;AttackPredictSensor_linked -->
<g id="edge6" class="edge">
<title>AttackPredictSensor&#45;&gt;AttackPredictSensor_linked</title>
<path fill="none" stroke="#66cdaa" d="M168.75,-299.93C206.55,-303.93 250.84,-308.63 281.75,-311.91"/>
<polygon fill="#66cdaa" stroke="#66cdaa" points="281.09,-315.35 291.4,-312.93 281.83,-308.39 281.09,-315.35"/>
<text text-anchor="middle" x="220.62" y="-310.69" font-family="Helvetica,sans-Serif" font-size="14.00" fill="#66cdaa">QueueEnd</text>
</g>
<!-- AttackRunToSensor -->
<g id="node12" class="node">
<title>AttackRunToSensor</title>
<polygon fill="none" stroke="black" points="26.62,-362 26.62,-383.75 159.38,-383.75 159.38,-362 26.62,-362"/>
<text text-anchor="start" x="29.62" y="-367.45" font-family="Helvetica,sans-Serif" font-size="14.00">AttackRunToSensor &#160;</text>
<polygon fill="none" stroke="black" points="26.62,-340.25 26.62,-362 159.38,-362 159.38,-340.25 26.62,-340.25"/>
<text text-anchor="start" x="29.62" y="-346.7" font-family="Helvetica,sans-Serif" font-size="12.00" fill="#838b8b">if: state is Engaging</text>
<text text-anchor="start" x="133.88" y="-346.7" font-family="Helvetica,sans-Serif" font-size="14.00"> &#160;</text>
</g>
<!-- AttackRunToSensor_linked -->
<g id="node13" class="node">
<title>AttackRunToSensor_linked</title>
<polygon fill="none" stroke="black" stroke-dasharray="1,5" points="349.48,-388 293.27,-388 293.27,-352 349.48,-352 349.48,-388"/>
<text text-anchor="start" x="298.88" y="-364.57" font-family="Helvetica,sans-Serif" font-size="14.00">Attack &#160;</text>
</g>
<!-- AttackRunToSensor&#45;&gt;AttackRunToSensor_linked -->
<g id="edge7" class="edge">
<title>AttackRunToSensor&#45;&gt;AttackRunToSensor_linked</title>
<path fill="none" stroke="#66cdaa" d="M167.18,-364.59C205.21,-365.93 250.16,-367.52 281.49,-368.63"/>
<polygon fill="#66cdaa" stroke="#66cdaa" points="281.16,-372.12 291.28,-368.97 281.41,-365.12 281.16,-372.12"/>
<text text-anchor="middle" x="220.62" y="-369.86" font-family="Helvetica,sans-Serif" font-size="14.00" fill="#66cdaa">QueueEnd</text>
</g>
<!-- Attack -->
<g id="node14" class="node">
<title>Attack</title>
<polygon fill="none" stroke="black" points="34.12,-614.12 34.12,-635.88 151.88,-635.88 151.88,-614.12 34.12,-614.12"/>
<text text-anchor="start" x="70.5" y="-619.58" font-family="Helvetica,sans-Serif" font-size="14.00">Attack &#160;</text>
<polygon fill="none" stroke="black" points="34.12,-582.12 34.12,-614.12 151.88,-614.12 151.88,-582.12 34.12,-582.12"/>
<text text-anchor="start" x="37.12" y="-600.73" font-family="Helvetica,sans-Serif" font-size="12.00" fill="#838b8b">3.00s: LinkNextMove</text>
<text text-anchor="start" x="37.12" y="-586.83" font-family="Helvetica,sans-Serif" font-size="12.00" fill="#838b8b">3.50s: Done</text>
<text text-anchor="start" x="101.62" y="-586.83" font-family="Helvetica,sans-Serif" font-size="14.00"> &#160;</text>
</g>
<!-- Engaging -->
<g id="node15" class="node">
<title>Engaging</title>
<polygon fill="none" stroke="black" points="357.88,-560 284.88,-560 284.88,-524 357.88,-524 357.88,-560"/>
<text text-anchor="middle" x="321.38" y="-536.58" font-family="Helvetica,sans-Serif" font-size="14.00">Engaging</text>
</g>
<!-- Attack&#45;&gt;Engaging -->
<g id="edge8" class="edge">
<title>Attack&#45;&gt;Engaging</title>
<path fill="none" stroke="#cdc8b1" d="M159.78,-589.53C196.37,-578.7 241.04,-565.48 273.96,-555.74"/>
<polygon fill="#cdc8b1" stroke="#cdc8b1" points="274.6,-559.2 283.2,-553 272.62,-552.49 274.6,-559.2"/>
</g>
<!-- Attack_weight -->
<g id="node16" class="node">
<title>Attack_weight</title>
<polygon fill="none" stroke="black" stroke-dasharray="1,5" points="371.5,-632.75 271.25,-632.75 271.25,-585.25 371.5,-585.25 371.5,-632.75"/>
<text text-anchor="start" x="281.25" y="-613.45" font-family="Helvetica,sans-Serif" font-size="14.00">0 Undefined &#160;</text>
<text text-anchor="start" x="281.25" y="-593.7" font-family="Helvetica,sans-Serif" font-size="14.00">0 Undefined &#160;</text>
</g>
<!-- Attack&#45;&gt;Attack_weight -->
<g id="edge9" class="edge">
<title>Attack&#45;&gt;Attack_weight</title>
<path fill="none" stroke="#458b74" d="M159.78,-609C191.27,-609 228.72,-609 259.54,-609"/>
<polygon fill="#458b74" stroke="#458b74" points="259.49,-612.5 269.49,-609 259.49,-605.5 259.49,-612.5"/>
<text text-anchor="middle" x="220.62" y="-611.45" font-family="Helvetica,sans-Serif" font-size="14.00" fill="#458b74">Weight</text>
</g>
<!-- JumpAttack -->
<g id="node17" class="node">
<title>JumpAttack</title>
<polygon fill="none" stroke="black" points="34.12,-694.12 34.12,-715.88 151.88,-715.88 151.88,-694.12 34.12,-694.12"/>
<text text-anchor="start" x="53.62" y="-699.58" font-family="Helvetica,sans-Serif" font-size="14.00">JumpAttack &#160;</text>
<polygon fill="none" stroke="black" points="34.12,-662.12 34.12,-694.12 151.88,-694.12 151.88,-662.12 34.12,-662.12"/>
<text text-anchor="start" x="37.12" y="-680.73" font-family="Helvetica,sans-Serif" font-size="12.00" fill="#838b8b">2.50s: LinkNextMove</text>
<text text-anchor="start" x="37.12" y="-666.83" font-family="Helvetica,sans-Serif" font-size="12.00" fill="#838b8b">2.67s: Done</text>
<text text-anchor="start" x="101.62" y="-666.83" font-family="Helvetica,sans-Serif" font-size="14.00"> &#160;</text>
</g>
<!-- JumpAttack&#45;&gt;Engaging -->
<g id="edge10" class="edge">
<title>JumpAttack&#45;&gt;Engaging</title>
<path fill="none" stroke="#cdc8b1" d="M159.81,-677.87C191.76,-669.38 228.49,-654.58 253.25,-629 270.55,-611.12 256.27,-595.86 271.25,-576 273.47,-573.06 276.02,-570.28 278.76,-567.68"/>
<polygon fill="#cdc8b1" stroke="#cdc8b1" points="280.87,-570.48 286.28,-561.37 276.37,-565.11 280.87,-570.48"/>
</g>
<!-- JumpAttack_weight -->
<g id="node18" class="node">
<title>JumpAttack_weight</title>
<polygon fill="none" stroke="black" stroke-dasharray="1,5" points="371.5,-712.75 271.25,-712.75 271.25,-665.25 371.5,-665.25 371.5,-712.75"/>
<text text-anchor="start" x="281.25" y="-693.45" font-family="Helvetica,sans-Serif" font-size="14.00">0 Undefined &#160;</text>
<text text-anchor="start" x="281.25" y="-673.7" font-family="Helvetica,sans-Serif" font-size="14.00">0 Undefined &#160;</text>
</g>
<!-- JumpAttack&#45;&gt;JumpAttack_weight -->
<g id="edge11" class="edge">
<title>JumpAttack&#45;&gt;JumpAttack_weight</title>
<path fill="none" stroke="#458b74" d="M159.78,-689C191.27,-689 228.72,-689 259.54,-689"/>
<polygon fill="#458b74" stroke="#458b74" points="259.49,-692.5 269.49,-689 259.49,-685.5 259.49,-692.5"/>
<text text-anchor="middle" x="220.62" y="-691.45" font-family="Helvetica,sans-Serif" font-size="14.00" fill="#458b74">Weight</text>
</g>
<!-- Attack 3 -->
<g id="node19" class="node">
<title>Attack 3</title>
<polygon fill="none" stroke="black" points="34.12,-464.12 34.12,-485.88 151.88,-485.88 151.88,-464.12 34.12,-464.12"/>
<text text-anchor="start" x="64.88" y="-469.57" font-family="Helvetica,sans-Serif" font-size="14.00">Attack 3 &#160;</text>
<polygon fill="none" stroke="black" points="34.12,-432.12 34.12,-464.12 151.88,-464.12 151.88,-432.12 34.12,-432.12"/>
<text text-anchor="start" x="37.12" y="-450.73" font-family="Helvetica,sans-Serif" font-size="12.00" fill="#838b8b">3.00s: LinkNextMove</text>
<text text-anchor="start" x="37.12" y="-436.83" font-family="Helvetica,sans-Serif" font-size="12.00" fill="#838b8b">3.50s: Done</text>
<text text-anchor="start" x="101.62" y="-436.83" font-family="Helvetica,sans-Serif" font-size="14.00"> &#160;</text>
</g>
<!-- Attack 3&#45;&gt;Engaging -->
<g id="edge12" class="edge">
<title>Attack 3&#45;&gt;Engaging</title>
<path fill="none" stroke="#cdc8b1" d="M159.78,-483.12C196.37,-496.54 241.04,-512.91 273.96,-524.98"/>
<polygon fill="#cdc8b1" stroke="#cdc8b1" points="272.63,-528.22 283.23,-528.38 275.04,-521.65 272.63,-528.22"/>
</g>
<!-- Attack 3_weight -->
<g id="node20" class="node">
<title>Attack 3_weight</title>
<polygon fill="none" stroke="black" stroke-dasharray="1,5" points="371.5,-482.75 271.25,-482.75 271.25,-435.25 371.5,-435.25 371.5,-482.75"/>
<text text-anchor="start" x="281.25" y="-463.45" font-family="Helvetica,sans-Serif" font-size="14.00">1 Undefined &#160;</text>
<text text-anchor="start" x="281.25" y="-443.7" font-family="Helvetica,sans-Serif" font-size="14.00">1 Undefined &#160;</text>
</g>
<!-- Attack 3&#45;&gt;Attack 3_weight -->
<g id="edge13" class="edge">
<title>Attack 3&#45;&gt;Attack 3_weight</title>
<path fill="none" stroke="#458b74" d="M159.78,-459C191.27,-459 228.72,-459 259.54,-459"/>
<polygon fill="#458b74" stroke="#458b74" points="259.49,-462.5 269.49,-459 259.49,-455.5 259.49,-462.5"/>
<text text-anchor="middle" x="220.62" y="-461.45" font-family="Helvetica,sans-Serif" font-size="14.00" fill="#458b74">Weight</text>
</g>
<!-- HurtState -->
<g id="node21" class="node">
<title>HurtState</title>
<polygon fill="none" stroke="black" points="54,-904 54,-925.75 132,-925.75 132,-904 54,-904"/>
<text text-anchor="start" x="60.75" y="-909.45" font-family="Helvetica,sans-Serif" font-size="14.00">HurtState &#160;</text>
<polygon fill="none" stroke="black" points="54,-882.25 54,-904 132,-904 132,-882.25 54,-882.25"/>
<text text-anchor="start" x="57" y="-888.7" font-family="Helvetica,sans-Serif" font-size="12.00" fill="#838b8b">0.17s: Done</text>
<text text-anchor="start" x="121.5" y="-888.7" font-family="Helvetica,sans-Serif" font-size="14.00"> &#160;</text>
</g>
<!-- PreAttack -->
<g id="node22" class="node">
<title>PreAttack</title>
<polygon fill="none" stroke="black" points="358.62,-852 284.12,-852 284.12,-816 358.62,-816 358.62,-852"/>
<text text-anchor="middle" x="321.38" y="-828.58" font-family="Helvetica,sans-Serif" font-size="14.00">PreAttack</text>
</g>
<!-- HurtState&#45;&gt;PreAttack -->
<g id="edge14" class="edge">
<title>HurtState&#45;&gt;PreAttack</title>
<path fill="none" stroke="#cdc8b1" d="M139.81,-889.83C178.58,-877.85 233.93,-860.73 273.11,-848.62"/>
<polygon fill="#cdc8b1" stroke="#cdc8b1" points="273.99,-852.01 282.51,-845.71 271.92,-845.32 273.99,-852.01"/>
</g>
<!-- Hurt_BigState -->
<g id="node23" class="node">
<title>Hurt_BigState</title>
<polygon fill="none" stroke="black" points="44.25,-834 44.25,-855.75 141.75,-855.75 141.75,-834 44.25,-834"/>
<text text-anchor="start" x="47.25" y="-839.45" font-family="Helvetica,sans-Serif" font-size="14.00">Hurt_BigState &#160;</text>
<polygon fill="none" stroke="black" points="44.25,-812.25 44.25,-834 141.75,-834 141.75,-812.25 44.25,-812.25"/>
<text text-anchor="start" x="47.25" y="-818.7" font-family="Helvetica,sans-Serif" font-size="12.00" fill="#838b8b">1.00s: Done</text>
<text text-anchor="start" x="111.75" y="-818.7" font-family="Helvetica,sans-Serif" font-size="14.00"> &#160;</text>
</g>
<!-- Hurt_BigState&#45;&gt;PreAttack -->
<g id="edge15" class="edge">
<title>Hurt_BigState&#45;&gt;PreAttack</title>
<path fill="none" stroke="#cdc8b1" d="M149.67,-834C187.35,-834 236.62,-834 272.53,-834"/>
<polygon fill="#cdc8b1" stroke="#cdc8b1" points="272.18,-837.5 282.18,-834 272.18,-830.5 272.18,-837.5"/>
</g>
<!-- JumpBack -->
<g id="node24" class="node">
<title>JumpBack</title>
<polygon fill="none" stroke="black" points="54,-764 54,-785.75 132,-785.75 132,-764 54,-764"/>
<text text-anchor="start" x="57.38" y="-769.45" font-family="Helvetica,sans-Serif" font-size="14.00">JumpBack &#160;</text>
<polygon fill="none" stroke="black" points="54,-742.25 54,-764 132,-764 132,-742.25 54,-742.25"/>
<text text-anchor="start" x="57" y="-748.7" font-family="Helvetica,sans-Serif" font-size="12.00" fill="#838b8b">1.00s: Done</text>
<text text-anchor="start" x="121.5" y="-748.7" font-family="Helvetica,sans-Serif" font-size="14.00"> &#160;</text>
</g>
<!-- JumpBack&#45;&gt;PreAttack -->
<g id="edge16" class="edge">
<title>JumpBack&#45;&gt;PreAttack</title>
<path fill="none" stroke="#cdc8b1" d="M139.81,-778.17C178.58,-790.15 233.93,-807.27 273.11,-819.38"/>
<polygon fill="#cdc8b1" stroke="#cdc8b1" points="271.92,-822.68 282.51,-822.29 273.99,-815.99 271.92,-822.68"/>
</g>
<!-- RollThrough -->
<g id="node25" class="node">
<title>RollThrough</title>
<polygon fill="none" stroke="black" points="49.5,-534 49.5,-555.75 136.5,-555.75 136.5,-534 49.5,-534"/>
<text text-anchor="start" x="52.5" y="-539.45" font-family="Helvetica,sans-Serif" font-size="14.00">RollThrough &#160;</text>
<polygon fill="none" stroke="black" points="49.5,-512.25 49.5,-534 136.5,-534 136.5,-512.25 49.5,-512.25"/>
<text text-anchor="start" x="52.5" y="-518.7" font-family="Helvetica,sans-Serif" font-size="12.00" fill="#838b8b">1.00s: Done</text>
<text text-anchor="start" x="117" y="-518.7" font-family="Helvetica,sans-Serif" font-size="14.00"> &#160;</text>
</g>
<!-- RollThrough&#45;&gt;Engaging -->
<g id="edge17" class="edge">
<title>RollThrough&#45;&gt;Engaging</title>
<path fill="none" stroke="#cdc8b1" d="M144.24,-535.78C182.84,-537.14 235.76,-539.01 273.5,-540.34"/>
<polygon fill="#cdc8b1" stroke="#cdc8b1" points="273.06,-543.83 283.18,-540.69 273.31,-536.83 273.06,-543.83"/>
</g>
<!-- Wandering_Idle -->
<g id="node26" class="node">
<title>Wandering_Idle</title>
<polygon fill="none" stroke="black" points="163.62,-984 22.38,-984 22.38,-948 163.62,-948 163.62,-984"/>
<text text-anchor="middle" x="93" y="-960.58" font-family="Helvetica,sans-Serif" font-size="14.00">Wandering_Idle (Init)</text>
</g>
</g>
</svg>
