<?xml version="1.0" encoding="UTF-8" standalone="no"?>
<!DOCTYPE svg PUBLIC "-//W3C//DTD SVG 1.1//EN"
 "http://www.w3.org/Graphics/SVG/1.1/DTD/svg11.dtd">
<!-- Generated by graphviz version 12.2.1 (20241206.2353)
 -->
<!-- Title: Foo Pages: 1 -->
<svg width="452pt" height="1328pt"
 viewBox="0.00 0.00 451.70 1327.88" xmlns="http://www.w3.org/2000/svg" xmlns:xlink="http://www.w3.org/1999/xlink">
<g id="graph0" class="graph" transform="scale(1 1) rotate(0) translate(4 1323.88)">
<title>Foo</title>
<polygon fill="white" stroke="none" points="-4,4 -4,-1323.88 447.7,-1323.88 447.7,4 -4,4"/>
<g id="clust1" class="cluster">
<title>cluster_attacksensors</title>
<polygon fill="none" stroke="black" points="17.88,-793.88 17.88,-1311.88 435.7,-1311.88 435.7,-793.88 17.88,-793.88"/>
<text text-anchor="middle" x="226.79" y="-1294.58" font-family="Helvetica,sans-Serif" font-size="14.00">Attack Sensors</text>
</g>
<!-- TurnAroundPoke -->
<g id="node1" class="node">
<title>TurnAroundPoke</title>
<polygon fill="none" stroke="black" points="45.12,-187.88 45.12,-209.62 160.62,-209.62 160.62,-187.88 45.12,-187.88"/>
<text text-anchor="start" x="48.12" y="-193.32" font-family="Helvetica,sans-Serif" font-size="14.00">TurnAroundPoke &#160;</text>
<polygon fill="none" stroke="black" points="45.12,-166.12 45.12,-187.88 160.62,-187.88 160.62,-166.12 45.12,-166.12"/>
<text text-anchor="start" x="48.12" y="-172.57" font-family="Helvetica,sans-Serif" font-size="12.00" fill="#838b8b">1.00s: Done</text>
<text text-anchor="start" x="112.62" y="-172.57" font-family="Helvetica,sans-Serif" font-size="14.00"> &#160;</text>
</g>
<!-- Engaging -->
<g id="node2" class="node">
<title>Engaging</title>
<polygon fill="none" stroke="black" points="403.85,-135.88 330.85,-135.88 330.85,-99.88 403.85,-99.88 403.85,-135.88"/>
<text text-anchor="middle" x="367.35" y="-112.45" font-family="Helvetica,sans-Serif" font-size="14.00">Engaging</text>
</g>
<!-- TurnAroundPoke&#45;&gt;Engaging -->
<g id="edge1" class="edge">
<title>TurnAroundPoke&#45;&gt;Engaging</title>
<path fill="none" stroke="#cdc8b1" d="M168.42,-170.66C215.28,-158.17 277.58,-141.55 319.67,-130.32"/>
<polygon fill="#cdc8b1" stroke="#cdc8b1" points="320.49,-133.73 329.25,-127.77 318.69,-126.96 320.49,-133.73"/>
</g>
<!-- TurnAroundPoke_linked -->
<g id="node3" class="node">
<title>TurnAroundPoke_linked</title>
<polygon fill="none" stroke="black" stroke-dasharray="1,5" points="413.45,-205.88 321.25,-205.88 321.25,-169.88 413.45,-169.88 413.45,-205.88"/>
<text text-anchor="start" x="326.85" y="-182.45" font-family="Helvetica,sans-Serif" font-size="14.00">RollThrough &#160;</text>
</g>
<!-- TurnAroundPoke&#45;&gt;TurnAroundPoke_linked -->
<g id="edge2" class="edge">
<title>TurnAroundPoke&#45;&gt;TurnAroundPoke_linked</title>
<path fill="none" stroke="#66cdaa" d="M168.42,-187.88C211.71,-187.88 268.18,-187.88 309.72,-187.88"/>
<polygon fill="#66cdaa" stroke="#66cdaa" points="309.51,-191.38 319.51,-187.88 309.51,-184.38 309.51,-191.38"/>
<text text-anchor="middle" x="256.38" y="-190.32" font-family="Helvetica,sans-Serif" font-size="14.00" fill="#66cdaa">QueueEnd</text>
</g>
<!-- DoubleAttack -->
<g id="node4" class="node">
<title>DoubleAttack</title>
<polygon fill="none" stroke="black" points="44,-704 44,-725.75 161.75,-725.75 161.75,-704 44,-704"/>
<text text-anchor="start" x="59" y="-709.45" font-family="Helvetica,sans-Serif" font-size="14.00">DoubleAttack &#160;</text>
<polygon fill="none" stroke="black" points="44,-660 44,-704 161.75,-704 161.75,-660 44,-660"/>
<text text-anchor="start" x="47" y="-690.6" font-family="Helvetica,sans-Serif" font-size="12.00" fill="#838b8b">0.98s: CheckFacing</text>
<text text-anchor="start" x="47" y="-678.6" font-family="Helvetica,sans-Serif" font-size="12.00" fill="#838b8b">1.67s: LinkNextMove</text>
<text text-anchor="start" x="47" y="-664.7" font-family="Helvetica,sans-Serif" font-size="12.00" fill="#838b8b">2.67s: Done</text>
<text text-anchor="start" x="111.5" y="-664.7" font-family="Helvetica,sans-Serif" font-size="14.00"> &#160;</text>
</g>
<!-- PreAttack -->
<g id="node5" class="node">
<title>PreAttack</title>
<polygon fill="none" stroke="black" points="404.6,-483.88 330.1,-483.88 330.1,-447.88 404.6,-447.88 404.6,-483.88"/>
<text text-anchor="middle" x="367.35" y="-460.45" font-family="Helvetica,sans-Serif" font-size="14.00">PreAttack</text>
</g>
<!-- DoubleAttack&#45;&gt;PreAttack -->
<g id="edge3" class="edge">
<title>DoubleAttack&#45;&gt;PreAttack</title>
<path fill="none" stroke="#cdc8b1" d="M169.74,-668.07C182.24,-662.02 194.81,-654.93 205.75,-646.88 266.1,-602.45 320.32,-532.05 347.66,-493.45"/>
<polygon fill="#cdc8b1" stroke="#cdc8b1" points="350.28,-495.8 353.15,-485.6 344.55,-491.79 350.28,-495.8"/>
</g>
<!-- DoubleAttack_linked -->
<g id="node6" class="node">
<title>DoubleAttack_linked</title>
<polygon fill="none" stroke="black" stroke-dasharray="1,5" points="416.83,-716.23 317.88,-716.23 317.88,-669.52 416.83,-669.52 416.83,-716.23"/>
<text text-anchor="start" x="323.48" y="-697.33" font-family="Helvetica,sans-Serif" font-size="14.00">DangerSpear &#160;</text>
<text text-anchor="start" x="326.85" y="-677.58" font-family="Helvetica,sans-Serif" font-size="14.00">RollThrough &#160;</text>
</g>
<!-- DoubleAttack&#45;&gt;DoubleAttack_linked -->
<g id="edge4" class="edge">
<title>DoubleAttack&#45;&gt;DoubleAttack_linked</title>
<path fill="none" stroke="#66cdaa" d="M169.43,-692.88C211.4,-692.88 265.43,-692.88 306.28,-692.88"/>
<polygon fill="#66cdaa" stroke="#66cdaa" points="306.19,-696.38 316.19,-692.88 306.19,-689.38 306.19,-696.38"/>
<text text-anchor="middle" x="256.38" y="-695.33" font-family="Helvetica,sans-Serif" font-size="14.00" fill="#66cdaa">QueueEnd</text>
</g>
<!-- DangerSpear -->
<g id="node7" class="node">
<title>DangerSpear</title>
<polygon fill="none" stroke="black" points="44,-612 44,-633.75 161.75,-633.75 161.75,-612 44,-612"/>
<text text-anchor="start" x="59" y="-617.45" font-family="Helvetica,sans-Serif" font-size="14.00">DangerSpear &#160;</text>
<polygon fill="none" stroke="black" points="44,-568 44,-612 161.75,-612 161.75,-568 44,-568"/>
<text text-anchor="start" x="47" y="-598.6" font-family="Helvetica,sans-Serif" font-size="12.00" fill="#838b8b">0.33s: CheckFacing</text>
<text text-anchor="start" x="47" y="-586.6" font-family="Helvetica,sans-Serif" font-size="12.00" fill="#838b8b">2.27s: LinkNextMove</text>
<text text-anchor="start" x="47" y="-572.7" font-family="Helvetica,sans-Serif" font-size="12.00" fill="#838b8b">2.35s: Done</text>
<text text-anchor="start" x="111.5" y="-572.7" font-family="Helvetica,sans-Serif" font-size="14.00"> &#160;</text>
</g>
<!-- DangerSpear&#45;&gt;PreAttack -->
<g id="edge5" class="edge">
<title>DangerSpear&#45;&gt;PreAttack</title>
<path fill="none" stroke="#cdc8b1" d="M169.74,-572.09C181.8,-566.55 194.22,-560.66 205.75,-554.88 247.01,-534.17 292.99,-508.41 325.14,-489.94"/>
<polygon fill="#cdc8b1" stroke="#cdc8b1" points="326.84,-492.99 333.76,-484.97 323.34,-486.93 326.84,-492.99"/>
</g>
<!-- RunPoke -->
<g id="node8" class="node">
<title>RunPoke</title>
<polygon fill="none" stroke="black" points="44,-520 44,-541.75 161.75,-541.75 161.75,-520 44,-520"/>
<text text-anchor="start" x="71.38" y="-525.45" font-family="Helvetica,sans-Serif" font-size="14.00">RunPoke &#160;</text>
<polygon fill="none" stroke="black" points="44,-476 44,-520 161.75,-520 161.75,-476 44,-476"/>
<text text-anchor="start" x="47" y="-506.6" font-family="Helvetica,sans-Serif" font-size="12.00" fill="#838b8b">0.00s: DangerHint</text>
<text text-anchor="start" x="47" y="-494.6" font-family="Helvetica,sans-Serif" font-size="12.00" fill="#838b8b">1.57s: LinkNextMove</text>
<text text-anchor="start" x="47" y="-480.7" font-family="Helvetica,sans-Serif" font-size="12.00" fill="#838b8b">1.58s: Done</text>
<text text-anchor="start" x="111.5" y="-480.7" font-family="Helvetica,sans-Serif" font-size="14.00"> &#160;</text>
</g>
<!-- RunPoke&#45;&gt;PreAttack -->
<g id="edge6" class="edge">
<title>RunPoke&#45;&gt;PreAttack</title>
<path fill="none" stroke="#cdc8b1" d="M169.43,-498.14C215.79,-490.54 276.88,-480.53 318.65,-473.69"/>
<polygon fill="#cdc8b1" stroke="#cdc8b1" points="319.09,-477.16 328.39,-472.09 317.96,-470.26 319.09,-477.16"/>
</g>
<!-- HurtState -->
<g id="node9" class="node">
<title>HurtState</title>
<polygon fill="none" stroke="black" points="44.38,-428 44.38,-449.75 161.38,-449.75 161.38,-428 44.38,-428"/>
<text text-anchor="start" x="70.62" y="-433.45" font-family="Helvetica,sans-Serif" font-size="14.00">HurtState &#160;</text>
<polygon fill="none" stroke="black" points="44.38,-396 44.38,-428 161.38,-428 161.38,-396 44.38,-396"/>
<text text-anchor="start" x="47.38" y="-414.6" font-family="Helvetica,sans-Serif" font-size="12.00" fill="#838b8b">0.00s: EnableGravity</text>
<text text-anchor="start" x="47.38" y="-400.7" font-family="Helvetica,sans-Serif" font-size="12.00" fill="#838b8b">0.18s: Done</text>
<text text-anchor="start" x="111.88" y="-400.7" font-family="Helvetica,sans-Serif" font-size="14.00"> &#160;</text>
</g>
<!-- HurtState&#45;&gt;PreAttack -->
<g id="edge7" class="edge">
<title>HurtState&#45;&gt;PreAttack</title>
<path fill="none" stroke="#cdc8b1" d="M169.09,-433.56C215.45,-441.15 276.66,-451.18 318.52,-458.04"/>
<polygon fill="#cdc8b1" stroke="#cdc8b1" points="317.86,-461.48 328.3,-459.64 318.99,-454.57 317.86,-461.48"/>
</g>
<!-- Hurt_BigState -->
<g id="node10" class="node">
<title>Hurt_BigState</title>
<polygon fill="none" stroke="black" points="44.38,-348 44.38,-369.75 161.38,-369.75 161.38,-348 44.38,-348"/>
<text text-anchor="start" x="57.12" y="-353.45" font-family="Helvetica,sans-Serif" font-size="14.00">Hurt_BigState &#160;</text>
<polygon fill="none" stroke="black" points="44.38,-316 44.38,-348 161.38,-348 161.38,-316 44.38,-316"/>
<text text-anchor="start" x="47.38" y="-334.6" font-family="Helvetica,sans-Serif" font-size="12.00" fill="#838b8b">0.00s: EnableGravity</text>
<text text-anchor="start" x="47.38" y="-320.7" font-family="Helvetica,sans-Serif" font-size="12.00" fill="#838b8b">1.00s: Done</text>
<text text-anchor="start" x="111.88" y="-320.7" font-family="Helvetica,sans-Serif" font-size="14.00"> &#160;</text>
</g>
<!-- Hurt_BigState&#45;&gt;PreAttack -->
<g id="edge8" class="edge">
<title>Hurt_BigState&#45;&gt;PreAttack</title>
<path fill="none" stroke="#cdc8b1" d="M169.24,-367.39C181.46,-372.3 194.07,-377.58 205.75,-382.88 246.38,-401.29 291.39,-424.84 323.4,-442.15"/>
<polygon fill="#cdc8b1" stroke="#cdc8b1" points="321.53,-445.11 331.98,-446.81 324.87,-438.96 321.53,-445.11"/>
</g>
<!-- JumpBack -->
<g id="node11" class="node">
<title>JumpBack</title>
<polygon fill="none" stroke="black" points="40.25,-117.88 40.25,-139.62 165.5,-139.62 165.5,-117.88 40.25,-117.88"/>
<text text-anchor="start" x="67.25" y="-123.33" font-family="Helvetica,sans-Serif" font-size="14.00">JumpBack &#160;</text>
<polygon fill="none" stroke="black" points="40.25,-96.12 40.25,-117.88 165.5,-117.88 165.5,-96.12 40.25,-96.12"/>
<text text-anchor="start" x="43.25" y="-102.58" font-family="Helvetica,sans-Serif" font-size="12.00" fill="#838b8b">0.83s: LinkNextMove</text>
<text text-anchor="start" x="155" y="-102.58" font-family="Helvetica,sans-Serif" font-size="14.00"> &#160;</text>
</g>
<!-- JumpBack&#45;&gt;Engaging -->
<g id="edge9" class="edge">
<title>JumpBack&#45;&gt;Engaging</title>
<path fill="none" stroke="#cdc8b1" d="M173.18,-117.88C219.21,-117.88 278.44,-117.88 319.1,-117.88"/>
<polygon fill="#cdc8b1" stroke="#cdc8b1" points="319.06,-121.38 329.06,-117.88 319.06,-114.38 319.06,-121.38"/>
</g>
<!-- PostureBreak -->
<g id="node12" class="node">
<title>PostureBreak</title>
<polygon fill="none" stroke="black" points="44.38,-268 44.38,-289.75 161.38,-289.75 161.38,-268 44.38,-268"/>
<text text-anchor="start" x="58.25" y="-273.45" font-family="Helvetica,sans-Serif" font-size="14.00">PostureBreak &#160;</text>
<polygon fill="none" stroke="black" points="44.38,-236 44.38,-268 161.38,-268 161.38,-236 44.38,-236"/>
<text text-anchor="start" x="47.38" y="-254.6" font-family="Helvetica,sans-Serif" font-size="12.00" fill="#838b8b">0.00s: EnableGravity</text>
<text text-anchor="start" x="47.38" y="-240.7" font-family="Helvetica,sans-Serif" font-size="12.00" fill="#838b8b">1.50s: Done</text>
<text text-anchor="start" x="111.88" y="-240.7" font-family="Helvetica,sans-Serif" font-size="14.00"> &#160;</text>
</g>
<!-- PostureBreak&#45;&gt;PreAttack -->
<g id="edge10" class="edge">
<title>PostureBreak&#45;&gt;PreAttack</title>
<path fill="none" stroke="#cdc8b1" d="M169.22,-283.82C181.82,-289.15 194.57,-295.49 205.75,-302.88 263.73,-341.15 317.44,-403.19 345.65,-438.67"/>
<polygon fill="#cdc8b1" stroke="#cdc8b1" points="342.73,-440.62 351.66,-446.32 348.24,-436.29 342.73,-440.62"/>
</g>
<!-- RollThrough -->
<g id="node13" class="node">
<title>RollThrough</title>
<polygon fill="none" stroke="black" points="8,-48 8,-69.75 197.75,-69.75 197.75,-48 8,-48"/>
<text text-anchor="start" x="62.38" y="-53.45" font-family="Helvetica,sans-Serif" font-size="14.00">RollThrough &#160;</text>
<polygon fill="none" stroke="black" points="8,-4 8,-48 197.75,-48 197.75,-4 8,-4"/>
<text text-anchor="start" x="11" y="-34.6" font-family="Helvetica,sans-Serif" font-size="12.00" fill="#838b8b">1.00s: InterruptFacing_TargetRight</text>
<text text-anchor="start" x="11" y="-22.6" font-family="Helvetica,sans-Serif" font-size="12.00" fill="#838b8b">1.02s: LinkNextMove</text>
<text text-anchor="start" x="11" y="-8.7" font-family="Helvetica,sans-Serif" font-size="12.00" fill="#838b8b">1.50s: Done</text>
<text text-anchor="start" x="75.5" y="-8.7" font-family="Helvetica,sans-Serif" font-size="14.00"> &#160;</text>
</g>
<!-- RollThrough&#45;&gt;Engaging -->
<g id="edge11" class="edge">
<title>RollThrough&#45;&gt;Engaging</title>
<path fill="none" stroke="#cdc8b1" d="M205.73,-68.31C245.05,-80.44 288.07,-93.72 319.69,-103.47"/>
<polygon fill="#cdc8b1" stroke="#cdc8b1" points="318.33,-106.72 328.92,-106.32 320.4,-100.03 318.33,-106.72"/>
</g>
<!-- Wandering_Idle -->
<g id="node14" class="node">
<title>Wandering_Idle</title>
<polygon fill="none" stroke="black" points="173.5,-783.88 32.25,-783.88 32.25,-747.88 173.5,-747.88 173.5,-783.88"/>
<text text-anchor="middle" x="102.88" y="-760.45" font-family="Helvetica,sans-Serif" font-size="14.00">Wandering_Idle (Init)</text>
</g>
<!-- Level Once Sensor -->
<g id="node15" class="node">
<title>Level Once Sensor</title>
<polygon fill="none" stroke="black" points="168.62,-837.88 37.12,-837.88 37.12,-801.88 168.62,-801.88 168.62,-837.88"/>
<text text-anchor="middle" x="102.88" y="-814.45" font-family="Helvetica,sans-Serif" font-size="14.00">Level Once Sensor</text>
</g>
<!-- Level Once Sensor_linked -->
<g id="node16" class="node">
<title>Level Once Sensor_linked</title>
<polygon fill="none" stroke="black" stroke-dasharray="1,5" points="427.7,-837.88 307,-837.88 307,-801.88 427.7,-801.88 427.7,-837.88"/>
<text text-anchor="start" x="312.6" y="-814.45" font-family="Helvetica,sans-Serif" font-size="14.00">TurnAroundPoke &#160;</text>
</g>
<!-- Level Once Sensor&#45;&gt;Level Once Sensor_linked -->
<g id="edge12" class="edge">
<title>Level Once Sensor&#45;&gt;Level Once Sensor_linked</title>
<path fill="none" stroke="#66cdaa" d="M169.09,-819.88C207.51,-819.88 256.13,-819.88 295.49,-819.88"/>
<polygon fill="#66cdaa" stroke="#66cdaa" points="295.34,-823.38 305.34,-819.88 295.34,-816.38 295.34,-823.38"/>
<text text-anchor="middle" x="256.38" y="-822.33" font-family="Helvetica,sans-Serif" font-size="14.00" fill="#66cdaa">QueueEnd</text>
</g>
<!-- RunAwaySensor -->
<g id="node17" class="node">
<title>RunAwaySensor</title>
<polygon fill="none" stroke="black" points="161.12,-891.88 44.62,-891.88 44.62,-855.88 161.12,-855.88 161.12,-891.88"/>
<text text-anchor="middle" x="102.88" y="-868.45" font-family="Helvetica,sans-Serif" font-size="14.00">RunAwaySensor</text>
</g>
<!-- AttackSensor -->
<g id="node18" class="node">
<title>AttackSensor</title>
<polygon fill="none" stroke="black" points="44,-935.88 44,-957.62 161.75,-957.62 161.75,-935.88 44,-935.88"/>
<text text-anchor="start" x="59" y="-941.33" font-family="Helvetica,sans-Serif" font-size="14.00">AttackSensor &#160;</text>
<polygon fill="none" stroke="black" points="44,-914.12 44,-935.88 161.75,-935.88 161.75,-914.12 44,-914.12"/>
<text text-anchor="start" x="47" y="-920.58" font-family="Helvetica,sans-Serif" font-size="12.00" fill="#838b8b">if: state is PreAttack</text>
<text text-anchor="start" x="151.25" y="-920.58" font-family="Helvetica,sans-Serif" font-size="14.00"> &#160;</text>
</g>
<!-- AttackSensor_linked -->
<g id="node19" class="node">
<title>AttackSensor_linked</title>
<polygon fill="none" stroke="black" stroke-dasharray="1,5" points="416.83,-953.88 317.88,-953.88 317.88,-917.88 416.83,-917.88 416.83,-953.88"/>
<text text-anchor="start" x="323.48" y="-930.45" font-family="Helvetica,sans-Serif" font-size="14.00">DoubleAttack &#160;</text>
</g>
<!-- AttackSensor&#45;&gt;AttackSensor_linked -->
<g id="edge13" class="edge">
<title>AttackSensor&#45;&gt;AttackSensor_linked</title>
<path fill="none" stroke="#66cdaa" d="M169.43,-935.88C211.4,-935.88 265.43,-935.88 306.28,-935.88"/>
<polygon fill="#66cdaa" stroke="#66cdaa" points="306.19,-939.38 316.19,-935.88 306.19,-932.38 306.19,-939.38"/>
<text text-anchor="middle" x="256.38" y="-938.33" font-family="Helvetica,sans-Serif" font-size="14.00" fill="#66cdaa">QueueEnd</text>
</g>
<!-- DodgePredictSensor -->
<g id="node20" class="node">
<title>DodgePredictSensor</title>
<polygon fill="none" stroke="black" points="33.88,-1005.88 33.88,-1027.62 171.88,-1027.62 171.88,-1005.88 33.88,-1005.88"/>
<text text-anchor="start" x="36.88" y="-1011.33" font-family="Helvetica,sans-Serif" font-size="14.00">DodgePredictSensor &#160;</text>
<polygon fill="none" stroke="black" points="33.88,-984.12 33.88,-1005.88 171.88,-1005.88 171.88,-984.12 33.88,-984.12"/>
<text text-anchor="start" x="36.88" y="-990.58" font-family="Helvetica,sans-Serif" font-size="12.00" fill="#838b8b">if: Dodge</text>
<text text-anchor="start" x="84.88" y="-990.58" font-family="Helvetica,sans-Serif" font-size="14.00"> &#160;</text>
</g>
<!-- DodgePredictSensor_linked -->
<g id="node21" class="node">
<title>DodgePredictSensor_linked</title>
<polygon fill="none" stroke="black" stroke-dasharray="1,5" points="416.83,-1008.88 317.88,-1008.88 317.88,-972.88 416.83,-972.88 416.83,-1008.88"/>
<text text-anchor="start" x="323.48" y="-985.45" font-family="Helvetica,sans-Serif" font-size="14.00">DoubleAttack &#160;</text>
</g>
<!-- DodgePredictSensor&#45;&gt;DodgePredictSensor_linked -->
<g id="edge14" class="edge">
<title>DodgePredictSensor&#45;&gt;DodgePredictSensor_linked</title>
<path fill="none" stroke="#66cdaa" d="M179.79,-1001.54C220,-999.24 268.68,-996.46 306.23,-994.31"/>
<polygon fill="#66cdaa" stroke="#66cdaa" points="306.21,-997.82 315.99,-993.75 305.81,-990.83 306.21,-997.82"/>
<text text-anchor="middle" x="256.38" y="-1001.27" font-family="Helvetica,sans-Serif" font-size="14.00" fill="#66cdaa">QueueEnd</text>
</g>
<!-- AttackPredictSensor -->
<g id="node22" class="node">
<title>AttackPredictSensor</title>
<polygon fill="none" stroke="black" points="35,-1075.88 35,-1097.62 170.75,-1097.62 170.75,-1075.88 35,-1075.88"/>
<text text-anchor="start" x="38" y="-1081.33" font-family="Helvetica,sans-Serif" font-size="14.00">AttackPredictSensor &#160;</text>
<polygon fill="none" stroke="black" points="35,-1054.12 35,-1075.88 170.75,-1075.88 170.75,-1054.12 35,-1054.12"/>
<text text-anchor="start" x="38" y="-1060.58" font-family="Helvetica,sans-Serif" font-size="12.00" fill="#838b8b">if: Attack</text>
<text text-anchor="start" x="83" y="-1060.58" font-family="Helvetica,sans-Serif" font-size="14.00"> &#160;</text>
</g>
<!-- AttackPredictSensor_linked -->
<g id="node23" class="node">
<title>AttackPredictSensor_linked</title>
<polygon fill="none" stroke="black" stroke-dasharray="1,5" points="427.7,-1062.88 307,-1062.88 307,-1026.88 427.7,-1026.88 427.7,-1062.88"/>
<text text-anchor="start" x="312.6" y="-1039.45" font-family="Helvetica,sans-Serif" font-size="14.00">TurnAroundPoke &#160;</text>
</g>
<!-- AttackPredictSensor&#45;&gt;AttackPredictSensor_linked -->
<g id="edge15" class="edge">
<title>AttackPredictSensor&#45;&gt;AttackPredictSensor_linked</title>
<path fill="none" stroke="#66cdaa" d="M178.74,-1067.03C215.38,-1062.71 259.26,-1057.52 295.37,-1053.26"/>
<polygon fill="#66cdaa" stroke="#66cdaa" points="295.78,-1056.73 305.3,-1052.09 294.96,-1049.78 295.78,-1056.73"/>
<text text-anchor="middle" x="256.38" y="-1063.75" font-family="Helvetica,sans-Serif" font-size="14.00" fill="#66cdaa">QueueEnd</text>
</g>
<!-- AttackPredictSensor_mustuse -->
<g id="node26" class="node">
<title>AttackPredictSensor_mustuse</title>
<polygon fill="none" stroke="black" stroke-dasharray="1,5" points="417.48,-1116.88 317.23,-1116.88 317.23,-1080.88 417.48,-1080.88 417.48,-1116.88"/>
<text text-anchor="start" x="327.23" y="-1093.45" font-family="Helvetica,sans-Serif" font-size="14.00">1 Undefined &#160;</text>
</g>
<!-- AttackPredictSensor&#45;&gt;AttackPredictSensor_mustuse -->
<g id="edge17" class="edge">
<title>AttackPredictSensor&#45;&gt;AttackPredictSensor_mustuse</title>
<path fill="none" stroke="#458b74" d="M178.74,-1082.44C218.97,-1085.96 267.94,-1090.25 305.75,-1093.56"/>
<polygon fill="#458b74" stroke="#458b74" points="305.33,-1097.04 315.6,-1094.43 305.94,-1090.07 305.33,-1097.04"/>
<text text-anchor="middle" x="256.38" y="-1094.53" font-family="Helvetica,sans-Serif" font-size="14.00" fill="#458b74">Weight</text>
</g>
<!-- AttackRunToSensor -->
<g id="node24" class="node">
<title>AttackRunToSensor</title>
<polygon fill="none" stroke="black" points="36.5,-1145.88 36.5,-1167.62 169.25,-1167.62 169.25,-1145.88 36.5,-1145.88"/>
<text text-anchor="start" x="39.5" y="-1151.33" font-family="Helvetica,sans-Serif" font-size="14.00">AttackRunToSensor &#160;</text>
<polygon fill="none" stroke="black" points="36.5,-1124.12 36.5,-1145.88 169.25,-1145.88 169.25,-1124.12 36.5,-1124.12"/>
<text text-anchor="start" x="39.5" y="-1130.58" font-family="Helvetica,sans-Serif" font-size="12.00" fill="#838b8b">if: state is Engaging</text>
<text text-anchor="start" x="143.75" y="-1130.58" font-family="Helvetica,sans-Serif" font-size="14.00"> &#160;</text>
</g>
<!-- AttackRunToSensor_linked -->
<g id="node25" class="node">
<title>AttackRunToSensor_linked</title>
<polygon fill="none" stroke="black" stroke-dasharray="1,5" points="404.45,-1170.88 330.25,-1170.88 330.25,-1134.88 404.45,-1134.88 404.45,-1170.88"/>
<text text-anchor="start" x="335.85" y="-1147.45" font-family="Helvetica,sans-Serif" font-size="14.00">RunPoke &#160;</text>
</g>
<!-- AttackRunToSensor&#45;&gt;AttackRunToSensor_linked -->
<g id="edge16" class="edge">
<title>AttackRunToSensor&#45;&gt;AttackRunToSensor_linked</title>
<path fill="none" stroke="#66cdaa" d="M176.99,-1147.82C222.18,-1149.03 278.88,-1150.54 318.41,-1151.6"/>
<polygon fill="#66cdaa" stroke="#66cdaa" points="318.23,-1155.09 328.32,-1151.86 318.42,-1148.1 318.23,-1155.09"/>
<text text-anchor="middle" x="256.38" y="-1153.26" font-family="Helvetica,sans-Serif" font-size="14.00" fill="#66cdaa">QueueEnd</text>
</g>
<!-- RollSensor -->
<g id="node27" class="node">
<title>RollSensor</title>
<polygon fill="none" stroke="black" points="143.88,-1225.88 61.88,-1225.88 61.88,-1189.88 143.88,-1189.88 143.88,-1225.88"/>
<text text-anchor="middle" x="102.88" y="-1202.45" font-family="Helvetica,sans-Serif" font-size="14.00">RollSensor</text>
</g>
<!-- RollSensor_linked -->
<g id="node28" class="node">
<title>RollSensor_linked</title>
<polygon fill="none" stroke="black" stroke-dasharray="1,5" points="413.45,-1225.88 321.25,-1225.88 321.25,-1189.88 413.45,-1189.88 413.45,-1225.88"/>
<text text-anchor="start" x="326.85" y="-1202.45" font-family="Helvetica,sans-Serif" font-size="14.00">RollThrough &#160;</text>
</g>
<!-- RollSensor&#45;&gt;RollSensor_linked -->
<g id="edge18" class="edge">
<title>RollSensor&#45;&gt;RollSensor_linked</title>
<path fill="none" stroke="#66cdaa" d="M144.31,-1207.88C188.6,-1207.88 259.96,-1207.88 309.79,-1207.88"/>
<polygon fill="#66cdaa" stroke="#66cdaa" points="309.51,-1211.38 319.51,-1207.88 309.51,-1204.38 309.51,-1211.38"/>
<text text-anchor="middle" x="256.38" y="-1210.33" font-family="Helvetica,sans-Serif" font-size="14.00" fill="#66cdaa">QueueEnd</text>
</g>
<!-- JumpAwaySensor -->
<g id="node29" class="node">
<title>JumpAwaySensor</title>
<polygon fill="none" stroke="black" points="165.62,-1279.88 40.12,-1279.88 40.12,-1243.88 165.62,-1243.88 165.62,-1279.88"/>
<text text-anchor="middle" x="102.88" y="-1256.45" font-family="Helvetica,sans-Serif" font-size="14.00">JumpAwaySensor</text>
</g>
<!-- JumpAwaySensor_linked -->
<g id="node30" class="node">
<title>JumpAwaySensor_linked</title>
<polygon fill="none" stroke="black" stroke-dasharray="1,5" points="413.45,-1279.88 321.25,-1279.88 321.25,-1243.88 413.45,-1243.88 413.45,-1279.88"/>
<text text-anchor="start" x="326.85" y="-1256.45" font-family="Helvetica,sans-Serif" font-size="14.00">RollThrough &#160;</text>
</g>
<!-- JumpAwaySensor&#45;&gt;JumpAwaySensor_linked -->
<g id="edge19" class="edge">
<title>JumpAwaySensor&#45;&gt;JumpAwaySensor_linked</title>
<path fill="none" stroke="#66cdaa" d="M166.08,-1261.88C209.59,-1261.88 267.25,-1261.88 309.53,-1261.88"/>
<polygon fill="#66cdaa" stroke="#66cdaa" points="309.51,-1265.38 319.51,-1261.88 309.51,-1258.38 309.51,-1265.38"/>
<text text-anchor="middle" x="256.38" y="-1264.33" font-family="Helvetica,sans-Serif" font-size="14.00" fill="#66cdaa">QueueEnd</text>
</g>
</g>
</svg>
