<?xml version="1.0" encoding="UTF-8" standalone="no"?>
<!DOCTYPE svg PUBLIC "-//W3C//DTD SVG 1.1//EN"
 "http://www.w3.org/Graphics/SVG/1.1/DTD/svg11.dtd">
<!-- Generated by graphviz version 12.2.1 (20241206.2353)
 -->
<!-- Title: Foo Pages: 1 -->
<svg width="472pt" height="1010pt"
 viewBox="0.00 0.00 472.00 1010.00" xmlns="http://www.w3.org/2000/svg" xmlns:xlink="http://www.w3.org/1999/xlink">
<g id="graph0" class="graph" transform="scale(1 1) rotate(0) translate(4 1006)">
<title>Foo</title>
<polygon fill="white" stroke="none" points="-4,4 -4,-1006 468,-1006 468,4 -4,4"/>
<g id="clust1" class="cluster">
<title>cluster_attacksensors</title>
<polygon fill="none" stroke="black" points="8,-8 8,-504 456,-504 456,-8 8,-8"/>
<text text-anchor="middle" x="232" y="-486.7" font-family="Helvetica,sans-Serif" font-size="14.00">Attack Sensors</text>
</g>
<!-- Level Once Sensor -->
<g id="node1" class="node">
<title>Level Once Sensor</title>
<polygon fill="none" stroke="black" points="28.5,-42.12 28.5,-63.88 157.5,-63.88 157.5,-42.12 28.5,-42.12"/>
<text text-anchor="start" x="31.5" y="-47.58" font-family="Helvetica,sans-Serif" font-size="14.00">Level Once Sensor &#160;</text>
</g>
<!-- Level Once Sensor_linked -->
<g id="node2" class="node">
<title>Level Once Sensor_linked</title>
<polygon fill="none" stroke="black" stroke-dasharray="1,5" points="438.35,-52 289.15,-52 289.15,-16 438.35,-16 438.35,-52"/>
<text text-anchor="start" x="294.75" y="-28.57" font-family="Helvetica,sans-Serif" font-size="14.00">Attack Double Smash &#160;</text>
</g>
<!-- Level Once Sensor&#45;&gt;Level Once Sensor_linked -->
<g id="edge1" class="edge">
<title>Level Once Sensor&#45;&gt;Level Once Sensor_linked</title>
<path fill="none" stroke="#66cdaa" d="M165.31,-47.96C199.84,-45.52 241.55,-42.57 277.72,-40.01"/>
<polygon fill="#66cdaa" stroke="#66cdaa" points="277.52,-43.53 287.25,-39.34 277.02,-36.55 277.52,-43.53"/>
<text text-anchor="middle" x="227.38" y="-48.21" font-family="Helvetica,sans-Serif" font-size="14.00" fill="#66cdaa">QueueEnd</text>
</g>
<!-- Level Once Sensor_weight -->
<g id="node3" class="node">
<title>Level Once Sensor_weight</title>
<polygon fill="none" stroke="black" stroke-dasharray="1,5" points="448,-106 279.5,-106 279.5,-70 448,-70 448,-106"/>
<text text-anchor="start" x="289.5" y="-82.58" font-family="Helvetica,sans-Serif" font-size="14.00">1 Attack Double Smash &#160;</text>
</g>
<!-- Level Once Sensor&#45;&gt;Level Once Sensor_weight -->
<g id="edge2" class="edge">
<title>Level Once Sensor&#45;&gt;Level Once Sensor_weight</title>
<path fill="none" stroke="#458b74" d="M165.31,-62.29C196.75,-66.38 234.14,-71.25 267.88,-75.64"/>
<polygon fill="#458b74" stroke="#458b74" points="267.3,-79.1 277.67,-76.92 268.21,-72.16 267.3,-79.1"/>
<text text-anchor="middle" x="227.38" y="-76.08" font-family="Helvetica,sans-Serif" font-size="14.00" fill="#458b74">Weight</text>
</g>
<!-- RunAwaySensor -->
<g id="node4" class="node">
<title>RunAwaySensor</title>
<polygon fill="none" stroke="black" points="36,-109.12 36,-130.88 150,-130.88 150,-109.12 36,-109.12"/>
<text text-anchor="start" x="39" y="-114.58" font-family="Helvetica,sans-Serif" font-size="14.00">RunAwaySensor &#160;</text>
</g>
<!-- AttackSensor -->
<g id="node5" class="node">
<title>AttackSensor</title>
<polygon fill="none" stroke="black" points="46.12,-170.12 46.12,-191.88 139.88,-191.88 139.88,-170.12 46.12,-170.12"/>
<text text-anchor="start" x="49.12" y="-175.57" font-family="Helvetica,sans-Serif" font-size="14.00">AttackSensor &#160;</text>
</g>
<!-- AttackSensor_linked -->
<g id="node6" class="node">
<title>AttackSensor_linked</title>
<polygon fill="none" stroke="black" stroke-dasharray="1,5" points="438.35,-190.22 289.15,-190.22 289.15,-123.78 438.35,-123.78 438.35,-190.22"/>
<text text-anchor="start" x="294.75" y="-171.32" font-family="Helvetica,sans-Serif" font-size="14.00">Attack Double Smash &#160;</text>
<text text-anchor="start" x="294.75" y="-151.57" font-family="Helvetica,sans-Serif" font-size="14.00">Attack Double Smash &#160;</text>
<text text-anchor="start" x="301.12" y="-131.82" font-family="Helvetica,sans-Serif" font-size="14.00">Attack3 Throw Frog &#160;</text>
</g>
<!-- AttackSensor&#45;&gt;AttackSensor_linked -->
<g id="edge3" class="edge">
<title>AttackSensor&#45;&gt;AttackSensor_linked</title>
<path fill="none" stroke="#66cdaa" d="M147.74,-176.2C184.86,-172.89 235.01,-168.41 277.54,-164.61"/>
<polygon fill="#66cdaa" stroke="#66cdaa" points="277.59,-168.12 287.24,-163.74 276.97,-161.15 277.59,-168.12"/>
<text text-anchor="middle" x="227.38" y="-174.31" font-family="Helvetica,sans-Serif" font-size="14.00" fill="#66cdaa">QueueEnd</text>
</g>
<!-- AttackSensor_weight -->
<g id="node7" class="node">
<title>AttackSensor_weight</title>
<polygon fill="none" stroke="black" stroke-dasharray="1,5" points="448,-255.75 279.5,-255.75 279.5,-208.25 448,-208.25 448,-255.75"/>
<text text-anchor="start" x="289.5" y="-236.45" font-family="Helvetica,sans-Serif" font-size="14.00">2 Attack Double Smash &#160;</text>
<text text-anchor="start" x="295.88" y="-216.7" font-family="Helvetica,sans-Serif" font-size="14.00">1 Attack3 Throw Frog &#160;</text>
</g>
<!-- AttackSensor&#45;&gt;AttackSensor_weight -->
<g id="edge4" class="edge">
<title>AttackSensor&#45;&gt;AttackSensor_weight</title>
<path fill="none" stroke="#458b74" d="M147.74,-191.2C182.11,-197.72 227.66,-206.36 267.98,-214.02"/>
<polygon fill="#458b74" stroke="#458b74" points="267.24,-217.44 277.71,-215.86 268.54,-210.56 267.24,-217.44"/>
<text text-anchor="middle" x="227.38" y="-213.52" font-family="Helvetica,sans-Serif" font-size="14.00" fill="#458b74">Weight</text>
</g>
<!-- DodgePredictSensor -->
<g id="node8" class="node">
<title>DodgePredictSensor</title>
<polygon fill="none" stroke="black" points="24,-252 24,-273.75 162,-273.75 162,-252 24,-252"/>
<text text-anchor="start" x="27" y="-257.45" font-family="Helvetica,sans-Serif" font-size="14.00">DodgePredictSensor &#160;</text>
<polygon fill="none" stroke="black" points="24,-230.25 24,-252 162,-252 162,-230.25 24,-230.25"/>
<text text-anchor="start" x="27" y="-236.7" font-family="Helvetica,sans-Serif" font-size="12.00" fill="#838b8b">if: rollingCondition</text>
<text text-anchor="start" x="123.75" y="-236.7" font-family="Helvetica,sans-Serif" font-size="14.00"> &#160;</text>
</g>
<!-- DodgePredictSensor_linked -->
<g id="node9" class="node">
<title>DodgePredictSensor_linked</title>
<polygon fill="none" stroke="black" stroke-dasharray="1,5" points="438.35,-310 289.15,-310 289.15,-274 438.35,-274 438.35,-310"/>
<text text-anchor="start" x="294.75" y="-286.57" font-family="Helvetica,sans-Serif" font-size="14.00">Attack Double Smash &#160;</text>
</g>
<!-- DodgePredictSensor&#45;&gt;DodgePredictSensor_linked -->
<g id="edge5" class="edge">
<title>DodgePredictSensor&#45;&gt;DodgePredictSensor_linked</title>
<path fill="none" stroke="#66cdaa" d="M169.94,-263.3C203.55,-268.31 243.22,-274.21 277.82,-279.36"/>
<polygon fill="#66cdaa" stroke="#66cdaa" points="276.95,-282.77 287.36,-280.78 277.98,-275.85 276.95,-282.77"/>
<text text-anchor="middle" x="227.38" y="-278.03" font-family="Helvetica,sans-Serif" font-size="14.00" fill="#66cdaa">QueueEnd</text>
</g>
<!-- AttackPredictSensor -->
<g id="node10" class="node">
<title>AttackPredictSensor</title>
<polygon fill="none" stroke="black" points="25.12,-322 25.12,-343.75 160.88,-343.75 160.88,-322 25.12,-322"/>
<text text-anchor="start" x="28.12" y="-327.45" font-family="Helvetica,sans-Serif" font-size="14.00">AttackPredictSensor &#160;</text>
<polygon fill="none" stroke="black" points="25.12,-300.25 25.12,-322 160.88,-322 160.88,-300.25 25.12,-300.25"/>
<text text-anchor="start" x="28.12" y="-306.7" font-family="Helvetica,sans-Serif" font-size="12.00" fill="#838b8b">if: attackCondition</text>
<text text-anchor="start" x="123.38" y="-306.7" font-family="Helvetica,sans-Serif" font-size="14.00"> &#160;</text>
</g>
<!-- AttackPredictSensor_linked -->
<g id="node11" class="node">
<title>AttackPredictSensor_linked</title>
<polygon fill="none" stroke="black" stroke-dasharray="1,5" points="438.35,-364 289.15,-364 289.15,-328 438.35,-328 438.35,-364"/>
<text text-anchor="start" x="294.75" y="-340.57" font-family="Helvetica,sans-Serif" font-size="14.00">Attack Double Smash &#160;</text>
</g>
<!-- AttackPredictSensor&#45;&gt;AttackPredictSensor_linked -->
<g id="edge6" class="edge">
<title>AttackPredictSensor&#45;&gt;AttackPredictSensor_linked</title>
<path fill="none" stroke="#66cdaa" d="M168.86,-328.69C202.64,-331.7 242.7,-335.28 277.61,-338.4"/>
<polygon fill="#66cdaa" stroke="#66cdaa" points="276.98,-341.85 287.25,-339.26 277.6,-334.88 276.98,-341.85"/>
<text text-anchor="middle" x="227.38" y="-338.6" font-family="Helvetica,sans-Serif" font-size="14.00" fill="#66cdaa">QueueEnd</text>
</g>
<!-- AttackRunToSensor -->
<g id="node12" class="node">
<title>AttackRunToSensor</title>
<polygon fill="none" stroke="black" points="26.62,-392 26.62,-413.75 159.38,-413.75 159.38,-392 26.62,-392"/>
<text text-anchor="start" x="29.62" y="-397.45" font-family="Helvetica,sans-Serif" font-size="14.00">AttackRunToSensor &#160;</text>
<polygon fill="none" stroke="black" points="26.62,-370.25 26.62,-392 159.38,-392 159.38,-370.25 26.62,-370.25"/>
<text text-anchor="start" x="29.62" y="-376.7" font-family="Helvetica,sans-Serif" font-size="12.00" fill="#838b8b">if: state is Engaging</text>
<text text-anchor="start" x="133.88" y="-376.7" font-family="Helvetica,sans-Serif" font-size="14.00"> &#160;</text>
</g>
<!-- AttackRunToSensor_linked -->
<g id="node13" class="node">
<title>AttackRunToSensor_linked</title>
<polygon fill="none" stroke="black" stroke-dasharray="1,5" points="438.35,-418 289.15,-418 289.15,-382 438.35,-382 438.35,-418"/>
<text text-anchor="start" x="294.75" y="-394.57" font-family="Helvetica,sans-Serif" font-size="14.00">Attack Double Smash &#160;</text>
</g>
<!-- AttackRunToSensor&#45;&gt;AttackRunToSensor_linked -->
<g id="edge7" class="edge">
<title>AttackRunToSensor&#45;&gt;AttackRunToSensor_linked</title>
<path fill="none" stroke="#66cdaa" d="M167.08,-394.18C201.16,-395.19 241.94,-396.4 277.43,-397.46"/>
<polygon fill="#66cdaa" stroke="#66cdaa" points="277.14,-400.95 287.24,-397.75 277.34,-393.96 277.14,-400.95"/>
<text text-anchor="middle" x="227.38" y="-399.17" font-family="Helvetica,sans-Serif" font-size="14.00" fill="#66cdaa">QueueEnd</text>
</g>
<!-- AttackSensor(far) -->
<g id="node14" class="node">
<title>AttackSensor(far)</title>
<polygon fill="none" stroke="black" points="33.75,-443.12 33.75,-464.88 152.25,-464.88 152.25,-443.12 33.75,-443.12"/>
<text text-anchor="start" x="36.75" y="-448.57" font-family="Helvetica,sans-Serif" font-size="14.00">AttackSensor(far) &#160;</text>
</g>
<!-- AttackSensor(far)_linked -->
<g id="node15" class="node">
<title>AttackSensor(far)_linked</title>
<polygon fill="none" stroke="black" stroke-dasharray="1,5" points="431.98,-472 295.52,-472 295.52,-436 431.98,-436 431.98,-472"/>
<text text-anchor="start" x="301.12" y="-448.57" font-family="Helvetica,sans-Serif" font-size="14.00">Attack3 Throw Frog &#160;</text>
</g>
<!-- AttackSensor(far)&#45;&gt;AttackSensor(far)_linked -->
<g id="edge8" class="edge">
<title>AttackSensor(far)&#45;&gt;AttackSensor(far)_linked</title>
<path fill="none" stroke="#66cdaa" d="M160.09,-454C197.43,-454 244.36,-454 283.65,-454"/>
<polygon fill="#66cdaa" stroke="#66cdaa" points="283.53,-457.5 293.53,-454 283.53,-450.5 283.53,-457.5"/>
<text text-anchor="middle" x="227.38" y="-456.45" font-family="Helvetica,sans-Serif" font-size="14.00" fill="#66cdaa">QueueEnd</text>
</g>
<!-- Attack Double Smash -->
<g id="node16" class="node">
<title>Attack Double Smash</title>
<polygon fill="none" stroke="black" points="21,-782.12 21,-803.88 165,-803.88 165,-782.12 21,-782.12"/>
<text text-anchor="start" x="24" y="-787.58" font-family="Helvetica,sans-Serif" font-size="14.00">Attack Double Smash &#160;</text>
<polygon fill="none" stroke="black" points="21,-726.12 21,-782.12 165,-782.12 165,-726.12 21,-726.12"/>
<text text-anchor="start" x="24" y="-768.73" font-family="Helvetica,sans-Serif" font-size="12.00" fill="#838b8b">0.00s: CheckFacing</text>
<text text-anchor="start" x="24" y="-756.73" font-family="Helvetica,sans-Serif" font-size="12.00" fill="#838b8b">1.50s: CheckFacing</text>
<text text-anchor="start" x="24" y="-744.73" font-family="Helvetica,sans-Serif" font-size="12.00" fill="#838b8b">2.50s: LinkNextMove</text>
<text text-anchor="start" x="24" y="-730.83" font-family="Helvetica,sans-Serif" font-size="12.00" fill="#838b8b">2.92s: Done</text>
<text text-anchor="start" x="88.5" y="-730.83" font-family="Helvetica,sans-Serif" font-size="14.00"> &#160;</text>
</g>
<!-- Engaging -->
<g id="node17" class="node">
<title>Engaging</title>
<polygon fill="none" stroke="black" points="400.25,-661 327.25,-661 327.25,-625 400.25,-625 400.25,-661"/>
<text text-anchor="middle" x="363.75" y="-637.58" font-family="Helvetica,sans-Serif" font-size="14.00">Engaging</text>
</g>
<!-- Attack Double Smash&#45;&gt;Engaging -->
<g id="edge9" class="edge">
<title>Attack Double Smash&#45;&gt;Engaging</title>
<path fill="none" stroke="#cdc8b1" d="M172.82,-729.22C219.5,-708.03 277.03,-681.91 316.46,-664.01"/>
<polygon fill="#cdc8b1" stroke="#cdc8b1" points="317.8,-667.25 325.45,-659.93 314.9,-660.88 317.8,-667.25"/>
</g>
<!-- Attack Double Smash_weight -->
<g id="node18" class="node">
<title>Attack Double Smash_weight</title>
<polygon fill="none" stroke="black" stroke-dasharray="1,5" points="449.5,-788.75 278,-788.75 278,-741.25 449.5,-741.25 449.5,-788.75"/>
<text text-anchor="start" x="288" y="-769.45" font-family="Helvetica,sans-Serif" font-size="14.00">1 Attack2 WaterExplode &#160;</text>
<text text-anchor="start" x="341.25" y="-749.7" font-family="Helvetica,sans-Serif" font-size="14.00">1 Skip &#160;</text>
</g>
<!-- Attack Double Smash&#45;&gt;Attack Double Smash_weight -->
<g id="edge10" class="edge">
<title>Attack Double Smash&#45;&gt;Attack Double Smash_weight</title>
<path fill="none" stroke="#458b74" d="M172.82,-765C202.2,-765 235.88,-765 266.65,-765"/>
<polygon fill="#458b74" stroke="#458b74" points="266.32,-768.5 276.32,-765 266.32,-761.5 266.32,-768.5"/>
<text text-anchor="middle" x="227.38" y="-767.45" font-family="Helvetica,sans-Serif" font-size="14.00" fill="#458b74">Weight</text>
</g>
<!-- Attack2 WaterExplode -->
<g id="node19" class="node">
<title>Attack2 WaterExplode</title>
<polygon fill="none" stroke="black" points="19.5,-678 19.5,-699.75 166.5,-699.75 166.5,-678 19.5,-678"/>
<text text-anchor="start" x="22.5" y="-683.45" font-family="Helvetica,sans-Serif" font-size="14.00">Attack2 WaterExplode &#160;</text>
<polygon fill="none" stroke="black" points="19.5,-656.25 19.5,-678 166.5,-678 166.5,-656.25 19.5,-656.25"/>
<text text-anchor="start" x="22.5" y="-662.7" font-family="Helvetica,sans-Serif" font-size="12.00" fill="#838b8b">2.75s: Done</text>
<text text-anchor="start" x="87" y="-662.7" font-family="Helvetica,sans-Serif" font-size="14.00"> &#160;</text>
</g>
<!-- Attack2 WaterExplode&#45;&gt;Engaging -->
<g id="edge11" class="edge">
<title>Attack2 WaterExplode&#45;&gt;Engaging</title>
<path fill="none" stroke="#cdc8b1" d="M174.27,-667.55C220.34,-661.55 276.61,-654.22 315.61,-649.14"/>
<polygon fill="#cdc8b1" stroke="#cdc8b1" points="315.91,-652.63 325.37,-647.87 315.01,-645.69 315.91,-652.63"/>
</g>
<!-- Attack3 Throw Frog -->
<g id="node20" class="node">
<title>Attack3 Throw Frog</title>
<polygon fill="none" stroke="black" points="27.38,-608 27.38,-629.75 158.62,-629.75 158.62,-608 27.38,-608"/>
<text text-anchor="start" x="30.38" y="-613.45" font-family="Helvetica,sans-Serif" font-size="14.00">Attack3 Throw Frog &#160;</text>
<polygon fill="none" stroke="black" points="27.38,-586.25 27.38,-608 158.62,-608 158.62,-586.25 27.38,-586.25"/>
<text text-anchor="start" x="30.38" y="-592.7" font-family="Helvetica,sans-Serif" font-size="12.00" fill="#838b8b">1.33s: Done</text>
<text text-anchor="start" x="94.88" y="-592.7" font-family="Helvetica,sans-Serif" font-size="14.00"> &#160;</text>
</g>
<!-- Attack3 Throw Frog&#45;&gt;Engaging -->
<g id="edge12" class="edge">
<title>Attack3 Throw Frog&#45;&gt;Engaging</title>
<path fill="none" stroke="#cdc8b1" d="M166.37,-617.43C213.74,-623.59 274.26,-631.48 315.52,-636.85"/>
<polygon fill="#cdc8b1" stroke="#cdc8b1" points="315.01,-640.31 325.38,-638.13 315.91,-633.37 315.01,-640.31"/>
</g>
<!-- AttackParrying -->
<g id="node21" class="node">
<title>AttackParrying</title>
<polygon fill="none" stroke="black" points="30.75,-538 30.75,-559.75 155.25,-559.75 155.25,-538 30.75,-538"/>
<text text-anchor="start" x="45.38" y="-543.45" font-family="Helvetica,sans-Serif" font-size="14.00">AttackParrying &#160;</text>
<polygon fill="none" stroke="black" points="30.75,-516.25 30.75,-538 155.25,-538 155.25,-516.25 30.75,-516.25"/>
<text text-anchor="start" x="33.75" y="-522.7" font-family="Helvetica,sans-Serif" font-size="12.00" fill="#838b8b">0.00s: EnableGravity</text>
<text text-anchor="start" x="144.75" y="-522.7" font-family="Helvetica,sans-Serif" font-size="14.00"> &#160;</text>
</g>
<!-- AttackParrying&#45;&gt;Engaging -->
<g id="edge13" class="edge">
<title>AttackParrying&#45;&gt;Engaging</title>
<path fill="none" stroke="#cdc8b1" d="M159.74,-563.69C208.31,-582.66 273.22,-608.02 316.43,-624.9"/>
<polygon fill="#cdc8b1" stroke="#cdc8b1" points="314.93,-628.07 325.51,-628.45 317.47,-621.55 314.93,-628.07"/>
</g>
<!-- HurtState -->
<g id="node22" class="node">
<title>HurtState</title>
<polygon fill="none" stroke="black" points="54,-922 54,-943.75 132,-943.75 132,-922 54,-922"/>
<text text-anchor="start" x="60.75" y="-927.45" font-family="Helvetica,sans-Serif" font-size="14.00">HurtState &#160;</text>
<polygon fill="none" stroke="black" points="54,-900.25 54,-922 132,-922 132,-900.25 54,-900.25"/>
<text text-anchor="start" x="57" y="-906.7" font-family="Helvetica,sans-Serif" font-size="12.00" fill="#838b8b">0.25s: Done</text>
<text text-anchor="start" x="121.5" y="-906.7" font-family="Helvetica,sans-Serif" font-size="14.00"> &#160;</text>
</g>
<!-- PreAttack -->
<g id="node23" class="node">
<title>PreAttack</title>
<polygon fill="none" stroke="black" points="401,-905 326.5,-905 326.5,-869 401,-869 401,-905"/>
<text text-anchor="middle" x="363.75" y="-881.58" font-family="Helvetica,sans-Serif" font-size="14.00">PreAttack</text>
</g>
<!-- HurtState&#45;&gt;PreAttack -->
<g id="edge14" class="edge">
<title>HurtState&#45;&gt;PreAttack</title>
<path fill="none" stroke="#cdc8b1" d="M139.89,-916.02C188.61,-909.68 265.26,-899.7 314.76,-893.25"/>
<polygon fill="#cdc8b1" stroke="#cdc8b1" points="315.14,-896.73 324.61,-891.97 314.24,-889.79 315.14,-896.73"/>
</g>
<!-- Hurt_BigState -->
<g id="node24" class="node">
<title>Hurt_BigState</title>
<polygon fill="none" stroke="black" points="44.25,-852 44.25,-873.75 141.75,-873.75 141.75,-852 44.25,-852"/>
<text text-anchor="start" x="47.25" y="-857.45" font-family="Helvetica,sans-Serif" font-size="14.00">Hurt_BigState &#160;</text>
<polygon fill="none" stroke="black" points="44.25,-830.25 44.25,-852 141.75,-852 141.75,-830.25 44.25,-830.25"/>
<text text-anchor="start" x="47.25" y="-836.7" font-family="Helvetica,sans-Serif" font-size="12.00" fill="#838b8b">1.00s: Done</text>
<text text-anchor="start" x="111.75" y="-836.7" font-family="Helvetica,sans-Serif" font-size="14.00"> &#160;</text>
</g>
<!-- Hurt_BigState&#45;&gt;PreAttack -->
<g id="edge15" class="edge">
<title>Hurt_BigState&#45;&gt;PreAttack</title>
<path fill="none" stroke="#cdc8b1" d="M149.69,-859.25C198.44,-865.6 268.54,-874.73 314.84,-880.76"/>
<polygon fill="#cdc8b1" stroke="#cdc8b1" points="314.2,-884.21 324.57,-882.03 315.1,-877.27 314.2,-884.21"/>
</g>
<!-- Wandering_Walking -->
<g id="node25" class="node">
<title>Wandering_Walking</title>
<polygon fill="none" stroke="black" points="176.75,-1002 9.25,-1002 9.25,-966 176.75,-966 176.75,-1002"/>
<text text-anchor="middle" x="93" y="-978.58" font-family="Helvetica,sans-Serif" font-size="14.00">Wandering_Walking (Init)</text>
</g>
</g>
</svg>
