<?xml version="1.0" encoding="UTF-8" standalone="no"?>
<!DOCTYPE svg PUBLIC "-//W3C//DTD SVG 1.1//EN"
 "http://www.w3.org/Graphics/SVG/1.1/DTD/svg11.dtd">
<!-- Generated by graphviz version 12.2.1 (20241206.2353)
 -->
<!-- Title: Foo Pages: 1 -->
<svg width="462pt" height="1010pt"
 viewBox="0.00 0.00 462.35 1009.75" xmlns="http://www.w3.org/2000/svg" xmlns:xlink="http://www.w3.org/1999/xlink">
<g id="graph0" class="graph" transform="scale(1 1) rotate(0) translate(4 1005.75)">
<title>Foo</title>
<polygon fill="white" stroke="none" points="-4,4 -4,-1005.75 458.35,-1005.75 458.35,4 -4,4"/>
<g id="clust1" class="cluster">
<title>cluster_attacksensors</title>
<polygon fill="none" stroke="black" points="8,-497.75 8,-993.75 446.35,-993.75 446.35,-497.75 8,-497.75"/>
<text text-anchor="middle" x="227.18" y="-976.45" font-family="Helvetica,sans-Serif" font-size="14.00">Attack Sensors</text>
</g>
<!-- Attack Double Smash -->
<g id="node1" class="node">
<title>Attack Double Smash</title>
<polygon fill="none" stroke="black" points="21,-269.88 21,-291.62 165,-291.62 165,-269.88 21,-269.88"/>
<text text-anchor="start" x="24" y="-275.32" font-family="Helvetica,sans-Serif" font-size="14.00">Attack Double Smash &#160;</text>
<polygon fill="none" stroke="black" points="21,-213.88 21,-269.88 165,-269.88 165,-213.88 21,-213.88"/>
<text text-anchor="start" x="24" y="-256.48" font-family="Helvetica,sans-Serif" font-size="12.00" fill="#838b8b">0.00s: CheckFacing</text>
<text text-anchor="start" x="24" y="-244.47" font-family="Helvetica,sans-Serif" font-size="12.00" fill="#838b8b">1.50s: CheckFacing</text>
<text text-anchor="start" x="24" y="-232.47" font-family="Helvetica,sans-Serif" font-size="12.00" fill="#838b8b">2.50s: LinkNextMove</text>
<text text-anchor="start" x="24" y="-218.57" font-family="Helvetica,sans-Serif" font-size="12.00" fill="#838b8b">2.92s: Done</text>
<text text-anchor="start" x="88.5" y="-218.57" font-family="Helvetica,sans-Serif" font-size="14.00"> &#160;</text>
</g>
<!-- Engaging -->
<g id="node2" class="node">
<title>Engaging</title>
<polygon fill="none" stroke="black" points="400.25,-148.75 327.25,-148.75 327.25,-112.75 400.25,-112.75 400.25,-148.75"/>
<text text-anchor="middle" x="363.75" y="-125.33" font-family="Helvetica,sans-Serif" font-size="14.00">Engaging</text>
</g>
<!-- Attack Double Smash&#45;&gt;Engaging -->
<g id="edge1" class="edge">
<title>Attack Double Smash&#45;&gt;Engaging</title>
<path fill="none" stroke="#cdc8b1" d="M172.82,-216.97C219.5,-195.78 277.03,-169.66 316.46,-151.76"/>
<polygon fill="#cdc8b1" stroke="#cdc8b1" points="317.8,-155 325.45,-147.68 314.9,-148.63 317.8,-155"/>
</g>
<!-- Attack Double Smash_mustuse -->
<g id="node3" class="node">
<title>Attack Double Smash_mustuse</title>
<polygon fill="none" stroke="black" stroke-dasharray="1,5" points="449.5,-276.5 278,-276.5 278,-229 449.5,-229 449.5,-276.5"/>
<text text-anchor="start" x="288" y="-257.2" font-family="Helvetica,sans-Serif" font-size="14.00">1 Attack2 WaterExplode &#160;</text>
<text text-anchor="start" x="323.62" y="-237.45" font-family="Helvetica,sans-Serif" font-size="14.00">1 Undefined &#160;</text>
</g>
<!-- Attack Double Smash&#45;&gt;Attack Double Smash_mustuse -->
<g id="edge2" class="edge">
<title>Attack Double Smash&#45;&gt;Attack Double Smash_mustuse</title>
<path fill="none" stroke="#458b74" d="M172.82,-252.75C202.2,-252.75 235.88,-252.75 266.65,-252.75"/>
<polygon fill="#458b74" stroke="#458b74" points="266.32,-256.25 276.32,-252.75 266.32,-249.25 266.32,-256.25"/>
<text text-anchor="middle" x="227.38" y="-255.2" font-family="Helvetica,sans-Serif" font-size="14.00" fill="#458b74">Weight</text>
</g>
<!-- Attack2 WaterExplode -->
<g id="node4" class="node">
<title>Attack2 WaterExplode</title>
<polygon fill="none" stroke="black" points="19.5,-165.75 19.5,-187.5 166.5,-187.5 166.5,-165.75 19.5,-165.75"/>
<text text-anchor="start" x="22.5" y="-171.2" font-family="Helvetica,sans-Serif" font-size="14.00">Attack2 WaterExplode &#160;</text>
<polygon fill="none" stroke="black" points="19.5,-144 19.5,-165.75 166.5,-165.75 166.5,-144 19.5,-144"/>
<text text-anchor="start" x="22.5" y="-150.45" font-family="Helvetica,sans-Serif" font-size="12.00" fill="#838b8b">2.75s: Done</text>
<text text-anchor="start" x="87" y="-150.45" font-family="Helvetica,sans-Serif" font-size="14.00"> &#160;</text>
</g>
<!-- Attack2 WaterExplode&#45;&gt;Engaging -->
<g id="edge3" class="edge">
<title>Attack2 WaterExplode&#45;&gt;Engaging</title>
<path fill="none" stroke="#cdc8b1" d="M174.27,-155.3C220.34,-149.3 276.61,-141.97 315.61,-136.89"/>
<polygon fill="#cdc8b1" stroke="#cdc8b1" points="315.91,-140.38 325.37,-135.62 315.01,-133.44 315.91,-140.38"/>
</g>
<!-- Attack3 Throw Frog -->
<g id="node5" class="node">
<title>Attack3 Throw Frog</title>
<polygon fill="none" stroke="black" points="27.38,-95.75 27.38,-117.5 158.62,-117.5 158.62,-95.75 27.38,-95.75"/>
<text text-anchor="start" x="30.38" y="-101.2" font-family="Helvetica,sans-Serif" font-size="14.00">Attack3 Throw Frog &#160;</text>
<polygon fill="none" stroke="black" points="27.38,-74 27.38,-95.75 158.62,-95.75 158.62,-74 27.38,-74"/>
<text text-anchor="start" x="30.38" y="-80.45" font-family="Helvetica,sans-Serif" font-size="12.00" fill="#838b8b">1.33s: Done</text>
<text text-anchor="start" x="94.88" y="-80.45" font-family="Helvetica,sans-Serif" font-size="14.00"> &#160;</text>
</g>
<!-- Attack3 Throw Frog&#45;&gt;Engaging -->
<g id="edge4" class="edge">
<title>Attack3 Throw Frog&#45;&gt;Engaging</title>
<path fill="none" stroke="#cdc8b1" d="M166.37,-105.18C213.74,-111.34 274.26,-119.23 315.52,-124.6"/>
<polygon fill="#cdc8b1" stroke="#cdc8b1" points="315.01,-128.06 325.38,-125.88 315.91,-121.12 315.01,-128.06"/>
</g>
<!-- AttackParrying -->
<g id="node6" class="node">
<title>AttackParrying</title>
<polygon fill="none" stroke="black" points="30.75,-25.75 30.75,-47.5 155.25,-47.5 155.25,-25.75 30.75,-25.75"/>
<text text-anchor="start" x="45.38" y="-31.2" font-family="Helvetica,sans-Serif" font-size="14.00">AttackParrying &#160;</text>
<polygon fill="none" stroke="black" points="30.75,-4 30.75,-25.75 155.25,-25.75 155.25,-4 30.75,-4"/>
<text text-anchor="start" x="33.75" y="-10.45" font-family="Helvetica,sans-Serif" font-size="12.00" fill="#838b8b">0.00s: EnableGravity</text>
<text text-anchor="start" x="144.75" y="-10.45" font-family="Helvetica,sans-Serif" font-size="14.00"> &#160;</text>
</g>
<!-- AttackParrying&#45;&gt;Engaging -->
<g id="edge5" class="edge">
<title>AttackParrying&#45;&gt;Engaging</title>
<path fill="none" stroke="#cdc8b1" d="M159.74,-51.44C208.31,-70.41 273.22,-95.77 316.43,-112.65"/>
<polygon fill="#cdc8b1" stroke="#cdc8b1" points="314.93,-115.82 325.51,-116.2 317.47,-109.3 314.93,-115.82"/>
</g>
<!-- HurtState -->
<g id="node7" class="node">
<title>HurtState</title>
<polygon fill="none" stroke="black" points="54,-409.75 54,-431.5 132,-431.5 132,-409.75 54,-409.75"/>
<text text-anchor="start" x="60.75" y="-415.2" font-family="Helvetica,sans-Serif" font-size="14.00">HurtState &#160;</text>
<polygon fill="none" stroke="black" points="54,-388 54,-409.75 132,-409.75 132,-388 54,-388"/>
<text text-anchor="start" x="57" y="-394.45" font-family="Helvetica,sans-Serif" font-size="12.00" fill="#838b8b">0.25s: Done</text>
<text text-anchor="start" x="121.5" y="-394.45" font-family="Helvetica,sans-Serif" font-size="14.00"> &#160;</text>
</g>
<!-- PreAttack -->
<g id="node8" class="node">
<title>PreAttack</title>
<polygon fill="none" stroke="black" points="401,-392.75 326.5,-392.75 326.5,-356.75 401,-356.75 401,-392.75"/>
<text text-anchor="middle" x="363.75" y="-369.32" font-family="Helvetica,sans-Serif" font-size="14.00">PreAttack</text>
</g>
<!-- HurtState&#45;&gt;PreAttack -->
<g id="edge6" class="edge">
<title>HurtState&#45;&gt;PreAttack</title>
<path fill="none" stroke="#cdc8b1" d="M139.89,-403.77C188.61,-397.43 265.26,-387.45 314.76,-381"/>
<polygon fill="#cdc8b1" stroke="#cdc8b1" points="315.14,-384.48 324.61,-379.72 314.24,-377.54 315.14,-384.48"/>
</g>
<!-- Hurt_BigState -->
<g id="node9" class="node">
<title>Hurt_BigState</title>
<polygon fill="none" stroke="black" points="44.25,-339.75 44.25,-361.5 141.75,-361.5 141.75,-339.75 44.25,-339.75"/>
<text text-anchor="start" x="47.25" y="-345.2" font-family="Helvetica,sans-Serif" font-size="14.00">Hurt_BigState &#160;</text>
<polygon fill="none" stroke="black" points="44.25,-318 44.25,-339.75 141.75,-339.75 141.75,-318 44.25,-318"/>
<text text-anchor="start" x="47.25" y="-324.45" font-family="Helvetica,sans-Serif" font-size="12.00" fill="#838b8b">1.00s: Done</text>
<text text-anchor="start" x="111.75" y="-324.45" font-family="Helvetica,sans-Serif" font-size="14.00"> &#160;</text>
</g>
<!-- Hurt_BigState&#45;&gt;PreAttack -->
<g id="edge7" class="edge">
<title>Hurt_BigState&#45;&gt;PreAttack</title>
<path fill="none" stroke="#cdc8b1" d="M149.69,-347C198.44,-353.35 268.54,-362.48 314.84,-368.51"/>
<polygon fill="#cdc8b1" stroke="#cdc8b1" points="314.2,-371.96 324.57,-369.78 315.1,-365.02 314.2,-371.96"/>
</g>
<!-- Wandering_Walking -->
<g id="node10" class="node">
<title>Wandering_Walking</title>
<polygon fill="none" stroke="black" points="176.75,-489.75 9.25,-489.75 9.25,-453.75 176.75,-453.75 176.75,-489.75"/>
<text text-anchor="middle" x="93" y="-466.32" font-family="Helvetica,sans-Serif" font-size="14.00">Wandering_Walking (Init)</text>
</g>
<!-- Level Once Sensor -->
<g id="node11" class="node">
<title>Level Once Sensor</title>
<polygon fill="none" stroke="black" points="158.75,-568.75 27.25,-568.75 27.25,-532.75 158.75,-532.75 158.75,-568.75"/>
<text text-anchor="middle" x="93" y="-545.33" font-family="Helvetica,sans-Serif" font-size="14.00">Level Once Sensor</text>
</g>
<!-- Level Once Sensor_linked -->
<g id="node12" class="node">
<title>Level Once Sensor_linked</title>
<polygon fill="none" stroke="black" stroke-dasharray="1,5" points="438.35,-541.75 289.15,-541.75 289.15,-505.75 438.35,-505.75 438.35,-541.75"/>
<text text-anchor="start" x="294.75" y="-518.33" font-family="Helvetica,sans-Serif" font-size="14.00">Attack Double Smash &#160;</text>
</g>
<!-- Level Once Sensor&#45;&gt;Level Once Sensor_linked -->
<g id="edge8" class="edge">
<title>Level Once Sensor&#45;&gt;Level Once Sensor_linked</title>
<path fill="none" stroke="#66cdaa" d="M159.14,-538.1C170.95,-536.14 183.19,-534.33 194.75,-533 221.67,-529.9 251.13,-527.83 277.76,-526.45"/>
<polygon fill="#66cdaa" stroke="#66cdaa" points="277.66,-529.96 287.48,-525.98 277.32,-522.97 277.66,-529.96"/>
<text text-anchor="middle" x="227.38" y="-535.45" font-family="Helvetica,sans-Serif" font-size="14.00" fill="#66cdaa">QueueEnd</text>
</g>
<!-- Level Once Sensor_mustuse -->
<g id="node13" class="node">
<title>Level Once Sensor_mustuse</title>
<polygon fill="none" stroke="black" stroke-dasharray="1,5" points="413.88,-595.75 313.62,-595.75 313.62,-559.75 413.88,-559.75 413.88,-595.75"/>
<text text-anchor="start" x="323.62" y="-572.33" font-family="Helvetica,sans-Serif" font-size="14.00">1 Undefined &#160;</text>
</g>
<!-- Level Once Sensor&#45;&gt;Level Once Sensor_mustuse -->
<g id="edge9" class="edge">
<title>Level Once Sensor&#45;&gt;Level Once Sensor_mustuse</title>
<path fill="none" stroke="#458b74" d="M159.06,-557.29C202.6,-561.66 259.52,-567.38 302.11,-571.66"/>
<polygon fill="#458b74" stroke="#458b74" points="301.64,-575.13 311.94,-572.65 302.34,-568.16 301.64,-575.13"/>
<text text-anchor="middle" x="227.38" y="-569.12" font-family="Helvetica,sans-Serif" font-size="14.00" fill="#458b74">Weight</text>
</g>
<!-- RunAwaySensor -->
<g id="node14" class="node">
<title>RunAwaySensor</title>
<polygon fill="none" stroke="black" points="151.25,-628.75 34.75,-628.75 34.75,-592.75 151.25,-592.75 151.25,-628.75"/>
<text text-anchor="middle" x="93" y="-605.33" font-family="Helvetica,sans-Serif" font-size="14.00">RunAwaySensor</text>
</g>
<!-- AttackSensor -->
<g id="node15" class="node">
<title>AttackSensor</title>
<polygon fill="none" stroke="black" points="141.12,-685.75 44.88,-685.75 44.88,-649.75 141.12,-649.75 141.12,-685.75"/>
<text text-anchor="middle" x="93" y="-662.33" font-family="Helvetica,sans-Serif" font-size="14.00">AttackSensor</text>
</g>
<!-- AttackSensor_linked -->
<g id="node16" class="node">
<title>AttackSensor_linked</title>
<polygon fill="none" stroke="black" stroke-dasharray="1,5" points="438.35,-679.98 289.15,-679.98 289.15,-613.52 438.35,-613.52 438.35,-679.98"/>
<text text-anchor="start" x="294.75" y="-661.08" font-family="Helvetica,sans-Serif" font-size="14.00">Attack Double Smash &#160;</text>
<text text-anchor="start" x="294.75" y="-641.33" font-family="Helvetica,sans-Serif" font-size="14.00">Attack Double Smash &#160;</text>
<text text-anchor="start" x="301.12" y="-621.58" font-family="Helvetica,sans-Serif" font-size="14.00">Attack3 Throw Frog &#160;</text>
</g>
<!-- AttackSensor&#45;&gt;AttackSensor_linked -->
<g id="edge10" class="edge">
<title>AttackSensor&#45;&gt;AttackSensor_linked</title>
<path fill="none" stroke="#66cdaa" d="M141.43,-664.04C179.01,-661.11 232.48,-656.93 277.45,-653.42"/>
<polygon fill="#66cdaa" stroke="#66cdaa" points="277.48,-656.92 287.18,-652.66 276.94,-649.94 277.48,-656.92"/>
<text text-anchor="middle" x="227.38" y="-662.2" font-family="Helvetica,sans-Serif" font-size="14.00" fill="#66cdaa">QueueEnd</text>
</g>
<!-- AttackSensor_mustuse -->
<g id="node17" class="node">
<title>AttackSensor_mustuse</title>
<polygon fill="none" stroke="black" stroke-dasharray="1,5" points="396.25,-745.5 331.25,-745.5 331.25,-698 396.25,-698 396.25,-745.5"/>
<text text-anchor="start" x="341.25" y="-726.2" font-family="Helvetica,sans-Serif" font-size="14.00">2 Skip &#160;</text>
<text text-anchor="start" x="341.25" y="-706.45" font-family="Helvetica,sans-Serif" font-size="14.00">1 Skip &#160;</text>
</g>
<!-- AttackSensor&#45;&gt;AttackSensor_mustuse -->
<g id="edge11" class="edge">
<title>AttackSensor&#45;&gt;AttackSensor_mustuse</title>
<path fill="none" stroke="#458b74" d="M141.43,-677.28C191.93,-687.43 271.14,-703.34 319.84,-713.13"/>
<polygon fill="#458b74" stroke="#458b74" points="318.96,-716.52 329.45,-715.06 320.34,-709.66 318.96,-716.52"/>
<text text-anchor="middle" x="227.38" y="-702.04" font-family="Helvetica,sans-Serif" font-size="14.00" fill="#458b74">Weight</text>
</g>
<!-- DodgePredictSensor -->
<g id="node18" class="node">
<title>DodgePredictSensor</title>
<polygon fill="none" stroke="black" points="24,-741.75 24,-763.5 162,-763.5 162,-741.75 24,-741.75"/>
<text text-anchor="start" x="27" y="-747.2" font-family="Helvetica,sans-Serif" font-size="14.00">DodgePredictSensor &#160;</text>
<polygon fill="none" stroke="black" points="24,-720 24,-741.75 162,-741.75 162,-720 24,-720"/>
<text text-anchor="start" x="27" y="-726.45" font-family="Helvetica,sans-Serif" font-size="12.00" fill="#838b8b">if: Dodge</text>
<text text-anchor="start" x="75" y="-726.45" font-family="Helvetica,sans-Serif" font-size="14.00"> &#160;</text>
</g>
<!-- DodgePredictSensor_linked -->
<g id="node19" class="node">
<title>DodgePredictSensor_linked</title>
<polygon fill="none" stroke="black" stroke-dasharray="1,5" points="438.35,-799.75 289.15,-799.75 289.15,-763.75 438.35,-763.75 438.35,-799.75"/>
<text text-anchor="start" x="294.75" y="-776.33" font-family="Helvetica,sans-Serif" font-size="14.00">Attack Double Smash &#160;</text>
</g>
<!-- DodgePredictSensor&#45;&gt;DodgePredictSensor_linked -->
<g id="edge12" class="edge">
<title>DodgePredictSensor&#45;&gt;DodgePredictSensor_linked</title>
<path fill="none" stroke="#66cdaa" d="M169.94,-753.05C203.55,-758.06 243.22,-763.96 277.82,-769.11"/>
<polygon fill="#66cdaa" stroke="#66cdaa" points="276.95,-772.52 287.36,-770.53 277.98,-765.6 276.95,-772.52"/>
<text text-anchor="middle" x="227.38" y="-767.78" font-family="Helvetica,sans-Serif" font-size="14.00" fill="#66cdaa">QueueEnd</text>
</g>
<!-- AttackPredictSensor -->
<g id="node20" class="node">
<title>AttackPredictSensor</title>
<polygon fill="none" stroke="black" points="25.12,-811.75 25.12,-833.5 160.88,-833.5 160.88,-811.75 25.12,-811.75"/>
<text text-anchor="start" x="28.12" y="-817.2" font-family="Helvetica,sans-Serif" font-size="14.00">AttackPredictSensor &#160;</text>
<polygon fill="none" stroke="black" points="25.12,-790 25.12,-811.75 160.88,-811.75 160.88,-790 25.12,-790"/>
<text text-anchor="start" x="28.12" y="-796.45" font-family="Helvetica,sans-Serif" font-size="12.00" fill="#838b8b">if: Attack</text>
<text text-anchor="start" x="73.12" y="-796.45" font-family="Helvetica,sans-Serif" font-size="14.00"> &#160;</text>
</g>
<!-- AttackPredictSensor_linked -->
<g id="node21" class="node">
<title>AttackPredictSensor_linked</title>
<polygon fill="none" stroke="black" stroke-dasharray="1,5" points="438.35,-853.75 289.15,-853.75 289.15,-817.75 438.35,-817.75 438.35,-853.75"/>
<text text-anchor="start" x="294.75" y="-830.33" font-family="Helvetica,sans-Serif" font-size="14.00">Attack Double Smash &#160;</text>
</g>
<!-- AttackPredictSensor&#45;&gt;AttackPredictSensor_linked -->
<g id="edge13" class="edge">
<title>AttackPredictSensor&#45;&gt;AttackPredictSensor_linked</title>
<path fill="none" stroke="#66cdaa" d="M168.86,-818.44C202.64,-821.45 242.7,-825.03 277.61,-828.15"/>
<polygon fill="#66cdaa" stroke="#66cdaa" points="276.98,-831.6 287.25,-829.01 277.6,-824.63 276.98,-831.6"/>
<text text-anchor="middle" x="227.38" y="-828.35" font-family="Helvetica,sans-Serif" font-size="14.00" fill="#66cdaa">QueueEnd</text>
</g>
<!-- AttackRunToSensor -->
<g id="node22" class="node">
<title>AttackRunToSensor</title>
<polygon fill="none" stroke="black" points="26.62,-881.75 26.62,-903.5 159.38,-903.5 159.38,-881.75 26.62,-881.75"/>
<text text-anchor="start" x="29.62" y="-887.2" font-family="Helvetica,sans-Serif" font-size="14.00">AttackRunToSensor &#160;</text>
<polygon fill="none" stroke="black" points="26.62,-860 26.62,-881.75 159.38,-881.75 159.38,-860 26.62,-860"/>
<text text-anchor="start" x="29.62" y="-866.45" font-family="Helvetica,sans-Serif" font-size="12.00" fill="#838b8b">if: state is Engaging</text>
<text text-anchor="start" x="133.88" y="-866.45" font-family="Helvetica,sans-Serif" font-size="14.00"> &#160;</text>
</g>
<!-- AttackRunToSensor_linked -->
<g id="node23" class="node">
<title>AttackRunToSensor_linked</title>
<polygon fill="none" stroke="black" stroke-dasharray="1,5" points="438.35,-907.75 289.15,-907.75 289.15,-871.75 438.35,-871.75 438.35,-907.75"/>
<text text-anchor="start" x="294.75" y="-884.33" font-family="Helvetica,sans-Serif" font-size="14.00">Attack Double Smash &#160;</text>
</g>
<!-- AttackRunToSensor&#45;&gt;AttackRunToSensor_linked -->
<g id="edge14" class="edge">
<title>AttackRunToSensor&#45;&gt;AttackRunToSensor_linked</title>
<path fill="none" stroke="#66cdaa" d="M167.08,-883.93C201.16,-884.94 241.94,-886.15 277.43,-887.21"/>
<polygon fill="#66cdaa" stroke="#66cdaa" points="277.14,-890.7 287.24,-887.5 277.34,-883.71 277.14,-890.7"/>
<text text-anchor="middle" x="227.38" y="-888.92" font-family="Helvetica,sans-Serif" font-size="14.00" fill="#66cdaa">QueueEnd</text>
</g>
<!-- AttackSensor(far) -->
<g id="node24" class="node">
<title>AttackSensor(far)</title>
<polygon fill="none" stroke="black" points="153.5,-961.75 32.5,-961.75 32.5,-925.75 153.5,-925.75 153.5,-961.75"/>
<text text-anchor="middle" x="93" y="-938.33" font-family="Helvetica,sans-Serif" font-size="14.00">AttackSensor(far)</text>
</g>
<!-- AttackSensor(far)_linked -->
<g id="node25" class="node">
<title>AttackSensor(far)_linked</title>
<polygon fill="none" stroke="black" stroke-dasharray="1,5" points="431.98,-961.75 295.52,-961.75 295.52,-925.75 431.98,-925.75 431.98,-961.75"/>
<text text-anchor="start" x="301.12" y="-938.33" font-family="Helvetica,sans-Serif" font-size="14.00">Attack3 Throw Frog &#160;</text>
</g>
<!-- AttackSensor(far)&#45;&gt;AttackSensor(far)_linked -->
<g id="edge15" class="edge">
<title>AttackSensor(far)&#45;&gt;AttackSensor(far)_linked</title>
<path fill="none" stroke="#66cdaa" d="M153.98,-943.75C192.3,-943.75 242.41,-943.75 283.93,-943.75"/>
<polygon fill="#66cdaa" stroke="#66cdaa" points="283.88,-947.25 293.88,-943.75 283.88,-940.25 283.88,-947.25"/>
<text text-anchor="middle" x="227.38" y="-946.2" font-family="Helvetica,sans-Serif" font-size="14.00" fill="#66cdaa">QueueEnd</text>
</g>
</g>
</svg>
