<?xml version="1.0" encoding="UTF-8" standalone="no"?>
<!DOCTYPE svg PUBLIC "-//W3C//DTD SVG 1.1//EN"
 "http://www.w3.org/Graphics/SVG/1.1/DTD/svg11.dtd">
<!-- Generated by graphviz version 12.2.1 (20241206.2353)
 -->
<!-- Title: Foo Pages: 1 -->
<svg width="378pt" height="928pt"
 viewBox="0.00 0.00 377.50 928.00" xmlns="http://www.w3.org/2000/svg" xmlns:xlink="http://www.w3.org/1999/xlink">
<g id="graph0" class="graph" transform="scale(1 1) rotate(0) translate(4 924)">
<title>Foo</title>
<polygon fill="white" stroke="none" points="-4,4 -4,-924 373.5,-924 373.5,4 -4,4"/>
<g id="clust1" class="cluster">
<title>cluster_attacksensors</title>
<polygon fill="none" stroke="black" points="8,-8 8,-472 361.5,-472 361.5,-8 8,-8"/>
<text text-anchor="middle" x="184.75" y="-454.7" font-family="Helvetica,sans-Serif" font-size="14.00">Attack Sensors</text>
</g>
<!-- Level Once Sensor -->
<g id="node1" class="node">
<title>Level Once Sensor</title>
<polygon fill="none" stroke="black" points="28.5,-23.12 28.5,-44.88 157.5,-44.88 157.5,-23.12 28.5,-23.12"/>
<text text-anchor="start" x="31.5" y="-28.57" font-family="Helvetica,sans-Serif" font-size="14.00">Level Once Sensor &#160;</text>
</g>
<!-- Level Once Sensor_linked -->
<g id="node2" class="node">
<title>Level Once Sensor_linked</title>
<polygon fill="none" stroke="black" stroke-dasharray="1,5" points="343.85,-52 287.65,-52 287.65,-16 343.85,-16 343.85,-52"/>
<text text-anchor="start" x="293.25" y="-28.57" font-family="Helvetica,sans-Serif" font-size="14.00">Attack &#160;</text>
</g>
<!-- Level Once Sensor&#45;&gt;Level Once Sensor_linked -->
<g id="edge1" class="edge">
<title>Level Once Sensor&#45;&gt;Level Once Sensor_linked</title>
<path fill="none" stroke="#66cdaa" d="M165.37,-34C202.06,-34 245.36,-34 275.87,-34"/>
<polygon fill="#66cdaa" stroke="#66cdaa" points="275.79,-37.5 285.79,-34 275.79,-30.5 275.79,-37.5"/>
<text text-anchor="middle" x="227.38" y="-36.45" font-family="Helvetica,sans-Serif" font-size="14.00" fill="#66cdaa">QueueEnd</text>
</g>
<!-- Level Once Sensor_weight -->
<g id="node3" class="node">
<title>Level Once Sensor_weight</title>
<polygon fill="none" stroke="black" stroke-dasharray="1,5" points="353.5,-106 278,-106 278,-70 353.5,-70 353.5,-106"/>
<text text-anchor="start" x="288" y="-82.58" font-family="Helvetica,sans-Serif" font-size="14.00">1 Attack &#160;</text>
</g>
<!-- Level Once Sensor&#45;&gt;Level Once Sensor_weight -->
<g id="edge2" class="edge">
<title>Level Once Sensor&#45;&gt;Level Once Sensor_weight</title>
<path fill="none" stroke="#458b74" d="M165.37,-51.46C198.54,-59.57 237.11,-69.01 266.75,-76.26"/>
<polygon fill="#458b74" stroke="#458b74" points="265.62,-79.59 276.17,-78.56 267.29,-72.79 265.62,-79.59"/>
<text text-anchor="middle" x="227.38" y="-75.97" font-family="Helvetica,sans-Serif" font-size="14.00" fill="#458b74">Weight</text>
</g>
<!-- RunAwaySensor -->
<g id="node4" class="node">
<title>RunAwaySensor</title>
<polygon fill="none" stroke="black" points="36,-77.12 36,-98.88 150,-98.88 150,-77.12 36,-77.12"/>
<text text-anchor="start" x="39" y="-82.58" font-family="Helvetica,sans-Serif" font-size="14.00">RunAwaySensor &#160;</text>
</g>
<!-- AttackSensor -->
<g id="node5" class="node">
<title>AttackSensor</title>
<polygon fill="none" stroke="black" points="34.12,-150 34.12,-171.75 151.88,-171.75 151.88,-150 34.12,-150"/>
<text text-anchor="start" x="49.12" y="-155.45" font-family="Helvetica,sans-Serif" font-size="14.00">AttackSensor &#160;</text>
<polygon fill="none" stroke="black" points="34.12,-128.25 34.12,-150 151.88,-150 151.88,-128.25 34.12,-128.25"/>
<text text-anchor="start" x="37.12" y="-134.7" font-family="Helvetica,sans-Serif" font-size="12.00" fill="#838b8b">if: state is PreAttack</text>
<text text-anchor="start" x="141.38" y="-134.7" font-family="Helvetica,sans-Serif" font-size="14.00"> &#160;</text>
</g>
<!-- AttackSensor_linked -->
<g id="node6" class="node">
<title>AttackSensor_linked</title>
<polygon fill="none" stroke="black" stroke-dasharray="1,5" points="343.85,-168 287.65,-168 287.65,-132 343.85,-132 343.85,-168"/>
<text text-anchor="start" x="293.25" y="-144.57" font-family="Helvetica,sans-Serif" font-size="14.00">Attack &#160;</text>
</g>
<!-- AttackSensor&#45;&gt;AttackSensor_linked -->
<g id="edge3" class="edge">
<title>AttackSensor&#45;&gt;AttackSensor_linked</title>
<path fill="none" stroke="#66cdaa" d="M159.63,-150C197.55,-150 243.95,-150 276.07,-150"/>
<polygon fill="#66cdaa" stroke="#66cdaa" points="275.7,-153.5 285.7,-150 275.7,-146.5 275.7,-153.5"/>
<text text-anchor="middle" x="227.38" y="-152.45" font-family="Helvetica,sans-Serif" font-size="14.00" fill="#66cdaa">QueueEnd</text>
</g>
<!-- DodgePredictSensor -->
<g id="node7" class="node">
<title>DodgePredictSensor</title>
<polygon fill="none" stroke="black" points="24,-220 24,-241.75 162,-241.75 162,-220 24,-220"/>
<text text-anchor="start" x="27" y="-225.45" font-family="Helvetica,sans-Serif" font-size="14.00">DodgePredictSensor &#160;</text>
<polygon fill="none" stroke="black" points="24,-198.25 24,-220 162,-220 162,-198.25 24,-198.25"/>
<text text-anchor="start" x="27" y="-204.7" font-family="Helvetica,sans-Serif" font-size="12.00" fill="#838b8b">if: rollingCondition</text>
<text text-anchor="start" x="123.75" y="-204.7" font-family="Helvetica,sans-Serif" font-size="14.00"> &#160;</text>
</g>
<!-- DodgePredictSensor_linked -->
<g id="node8" class="node">
<title>DodgePredictSensor_linked</title>
<polygon fill="none" stroke="black" stroke-dasharray="1,5" points="343.85,-238 287.65,-238 287.65,-202 343.85,-202 343.85,-238"/>
<text text-anchor="start" x="293.25" y="-214.57" font-family="Helvetica,sans-Serif" font-size="14.00">Attack &#160;</text>
</g>
<!-- DodgePredictSensor&#45;&gt;DodgePredictSensor_linked -->
<g id="edge4" class="edge">
<title>DodgePredictSensor&#45;&gt;DodgePredictSensor_linked</title>
<path fill="none" stroke="#66cdaa" d="M169.97,-220C205.7,-220 246.78,-220 276.04,-220"/>
<polygon fill="#66cdaa" stroke="#66cdaa" points="275.89,-223.5 285.89,-220 275.89,-216.5 275.89,-223.5"/>
<text text-anchor="middle" x="227.38" y="-222.45" font-family="Helvetica,sans-Serif" font-size="14.00" fill="#66cdaa">QueueEnd</text>
</g>
<!-- AttackPredictSensor -->
<g id="node9" class="node">
<title>AttackPredictSensor</title>
<polygon fill="none" stroke="black" points="25.12,-290 25.12,-311.75 160.88,-311.75 160.88,-290 25.12,-290"/>
<text text-anchor="start" x="28.12" y="-295.45" font-family="Helvetica,sans-Serif" font-size="14.00">AttackPredictSensor &#160;</text>
<polygon fill="none" stroke="black" points="25.12,-268.25 25.12,-290 160.88,-290 160.88,-268.25 25.12,-268.25"/>
<text text-anchor="start" x="28.12" y="-274.7" font-family="Helvetica,sans-Serif" font-size="12.00" fill="#838b8b">if: attackCondition</text>
<text text-anchor="start" x="123.38" y="-274.7" font-family="Helvetica,sans-Serif" font-size="14.00"> &#160;</text>
</g>
<!-- AttackPredictSensor_linked -->
<g id="node10" class="node">
<title>AttackPredictSensor_linked</title>
<polygon fill="none" stroke="black" stroke-dasharray="1,5" points="343.85,-308 287.65,-308 287.65,-272 343.85,-272 343.85,-308"/>
<text text-anchor="start" x="293.25" y="-284.57" font-family="Helvetica,sans-Serif" font-size="14.00">Attack &#160;</text>
</g>
<!-- AttackPredictSensor&#45;&gt;AttackPredictSensor_linked -->
<g id="edge5" class="edge">
<title>AttackPredictSensor&#45;&gt;AttackPredictSensor_linked</title>
<path fill="none" stroke="#66cdaa" d="M168.74,-290C204.68,-290 246.28,-290 275.86,-290"/>
<polygon fill="#66cdaa" stroke="#66cdaa" points="275.84,-293.5 285.84,-290 275.84,-286.5 275.84,-293.5"/>
<text text-anchor="middle" x="227.38" y="-292.45" font-family="Helvetica,sans-Serif" font-size="14.00" fill="#66cdaa">QueueEnd</text>
</g>
<!-- AttackRunToSensor -->
<g id="node11" class="node">
<title>AttackRunToSensor</title>
<polygon fill="none" stroke="black" points="26.62,-360 26.62,-381.75 159.38,-381.75 159.38,-360 26.62,-360"/>
<text text-anchor="start" x="29.62" y="-365.45" font-family="Helvetica,sans-Serif" font-size="14.00">AttackRunToSensor &#160;</text>
<polygon fill="none" stroke="black" points="26.62,-338.25 26.62,-360 159.38,-360 159.38,-338.25 26.62,-338.25"/>
<text text-anchor="start" x="29.62" y="-344.7" font-family="Helvetica,sans-Serif" font-size="12.00" fill="#838b8b">if: state is Engaging</text>
<text text-anchor="start" x="133.88" y="-344.7" font-family="Helvetica,sans-Serif" font-size="14.00"> &#160;</text>
</g>
<!-- AttackRunToSensor_linked -->
<g id="node12" class="node">
<title>AttackRunToSensor_linked</title>
<polygon fill="none" stroke="black" stroke-dasharray="1,5" points="343.85,-378 287.65,-378 287.65,-342 343.85,-342 343.85,-378"/>
<text text-anchor="start" x="293.25" y="-354.57" font-family="Helvetica,sans-Serif" font-size="14.00">Attack &#160;</text>
</g>
<!-- AttackRunToSensor&#45;&gt;AttackRunToSensor_linked -->
<g id="edge6" class="edge">
<title>AttackRunToSensor&#45;&gt;AttackRunToSensor_linked</title>
<path fill="none" stroke="#66cdaa" d="M167.2,-360C203.54,-360 245.97,-360 275.98,-360"/>
<polygon fill="#66cdaa" stroke="#66cdaa" points="275.71,-363.5 285.71,-360 275.71,-356.5 275.71,-363.5"/>
<text text-anchor="middle" x="227.38" y="-362.45" font-family="Helvetica,sans-Serif" font-size="14.00" fill="#66cdaa">QueueEnd</text>
</g>
<!-- TouchSensor -->
<g id="node13" class="node">
<title>TouchSensor</title>
<polygon fill="none" stroke="black" points="46.88,-411.12 46.88,-432.88 139.12,-432.88 139.12,-411.12 46.88,-411.12"/>
<text text-anchor="start" x="49.88" y="-416.57" font-family="Helvetica,sans-Serif" font-size="14.00">TouchSensor &#160;</text>
</g>
<!-- TouchSensor_linked -->
<g id="node14" class="node">
<title>TouchSensor_linked</title>
<polygon fill="none" stroke="black" stroke-dasharray="1,5" points="343.85,-440 287.65,-440 287.65,-404 343.85,-404 343.85,-440"/>
<text text-anchor="start" x="293.25" y="-416.57" font-family="Helvetica,sans-Serif" font-size="14.00">Attack &#160;</text>
</g>
<!-- TouchSensor&#45;&gt;TouchSensor_linked -->
<g id="edge7" class="edge">
<title>TouchSensor&#45;&gt;TouchSensor_linked</title>
<path fill="none" stroke="#66cdaa" d="M146.88,-422C186.53,-422 239.91,-422 275.74,-422"/>
<polygon fill="#66cdaa" stroke="#66cdaa" points="275.66,-425.5 285.66,-422 275.66,-418.5 275.66,-425.5"/>
<text text-anchor="middle" x="227.38" y="-424.45" font-family="Helvetica,sans-Serif" font-size="14.00" fill="#66cdaa">QueueEnd</text>
</g>
<!-- Attack -->
<g id="node15" class="node">
<title>Attack</title>
<polygon fill="none" stroke="black" points="36.75,-840.12 36.75,-861.88 149.25,-861.88 149.25,-840.12 36.75,-840.12"/>
<text text-anchor="start" x="70.5" y="-845.58" font-family="Helvetica,sans-Serif" font-size="14.00">Attack &#160;</text>
<polygon fill="none" stroke="black" points="36.75,-784.12 36.75,-840.12 149.25,-840.12 149.25,-784.12 36.75,-784.12"/>
<text text-anchor="start" x="39.75" y="-826.73" font-family="Helvetica,sans-Serif" font-size="12.00" fill="#838b8b">0.25s: CheckFacing</text>
<text text-anchor="start" x="39.75" y="-814.73" font-family="Helvetica,sans-Serif" font-size="12.00" fill="#838b8b">0.47s: QTE</text>
<text text-anchor="start" x="39.75" y="-802.73" font-family="Helvetica,sans-Serif" font-size="12.00" fill="#838b8b">0.83s: QTE</text>
<text text-anchor="start" x="39.75" y="-788.83" font-family="Helvetica,sans-Serif" font-size="12.00" fill="#838b8b">1.25s: Done</text>
<text text-anchor="start" x="104.25" y="-788.83" font-family="Helvetica,sans-Serif" font-size="14.00"> &#160;</text>
</g>
<!-- PreAttack -->
<g id="node16" class="node">
<title>PreAttack</title>
<polygon fill="none" stroke="black" points="353,-674 278.5,-674 278.5,-638 353,-638 353,-674"/>
<text text-anchor="middle" x="315.75" y="-650.58" font-family="Helvetica,sans-Serif" font-size="14.00">PreAttack</text>
</g>
<!-- Attack&#45;&gt;PreAttack -->
<g id="edge8" class="edge">
<title>Attack&#45;&gt;PreAttack</title>
<path fill="none" stroke="#cdc8b1" d="M156.94,-784.69C163.72,-780.2 170.43,-775.58 176.75,-771 216.15,-742.4 258.81,-705.92 286.11,-681.8"/>
<polygon fill="#cdc8b1" stroke="#cdc8b1" points="288.12,-684.69 293.28,-675.44 283.47,-679.46 288.12,-684.69"/>
</g>
<!-- AttackParrying -->
<g id="node17" class="node">
<title>AttackParrying</title>
<polygon fill="none" stroke="black" points="42.38,-736.12 42.38,-757.88 143.62,-757.88 143.62,-736.12 42.38,-736.12"/>
<text text-anchor="start" x="45.38" y="-741.58" font-family="Helvetica,sans-Serif" font-size="14.00">AttackParrying &#160;</text>
<polygon fill="none" stroke="black" points="42.38,-704.12 42.38,-736.12 143.62,-736.12 143.62,-704.12 42.38,-704.12"/>
<text text-anchor="start" x="45.38" y="-722.73" font-family="Helvetica,sans-Serif" font-size="12.00" fill="#838b8b">0.08s: QTE</text>
<text text-anchor="start" x="45.38" y="-708.83" font-family="Helvetica,sans-Serif" font-size="12.00" fill="#838b8b">0.67s: Done</text>
<text text-anchor="start" x="109.88" y="-708.83" font-family="Helvetica,sans-Serif" font-size="14.00"> &#160;</text>
</g>
<!-- AttackParrying&#45;&gt;PreAttack -->
<g id="edge9" class="edge">
<title>AttackParrying&#45;&gt;PreAttack</title>
<path fill="none" stroke="#cdc8b1" d="M151.42,-711.49C187.5,-699.23 233.48,-683.61 267.45,-672.07"/>
<polygon fill="#cdc8b1" stroke="#cdc8b1" points="268.26,-675.49 276.6,-668.96 266,-668.87 268.26,-675.49"/>
</g>
<!-- HurtState -->
<g id="node18" class="node">
<title>HurtState</title>
<polygon fill="none" stroke="black" points="54,-656 54,-677.75 132,-677.75 132,-656 54,-656"/>
<text text-anchor="start" x="60.75" y="-661.45" font-family="Helvetica,sans-Serif" font-size="14.00">HurtState &#160;</text>
<polygon fill="none" stroke="black" points="54,-634.25 54,-656 132,-656 132,-634.25 54,-634.25"/>
<text text-anchor="start" x="57" y="-640.7" font-family="Helvetica,sans-Serif" font-size="12.00" fill="#838b8b">0.25s: Done</text>
<text text-anchor="start" x="121.5" y="-640.7" font-family="Helvetica,sans-Serif" font-size="14.00"> &#160;</text>
</g>
<!-- HurtState&#45;&gt;PreAttack -->
<g id="edge10" class="edge">
<title>HurtState&#45;&gt;PreAttack</title>
<path fill="none" stroke="#cdc8b1" d="M139.74,-656C176.94,-656 229.25,-656 266.98,-656"/>
<polygon fill="#cdc8b1" stroke="#cdc8b1" points="266.68,-659.5 276.68,-656 266.68,-652.5 266.68,-659.5"/>
</g>
<!-- Hurt_BigState -->
<g id="node19" class="node">
<title>Hurt_BigState</title>
<polygon fill="none" stroke="black" points="44.25,-586 44.25,-607.75 141.75,-607.75 141.75,-586 44.25,-586"/>
<text text-anchor="start" x="47.25" y="-591.45" font-family="Helvetica,sans-Serif" font-size="14.00">Hurt_BigState &#160;</text>
<polygon fill="none" stroke="black" points="44.25,-564.25 44.25,-586 141.75,-586 141.75,-564.25 44.25,-564.25"/>
<text text-anchor="start" x="47.25" y="-570.7" font-family="Helvetica,sans-Serif" font-size="12.00" fill="#838b8b">1.00s: Done</text>
<text text-anchor="start" x="111.75" y="-570.7" font-family="Helvetica,sans-Serif" font-size="14.00"> &#160;</text>
</g>
<!-- Hurt_BigState&#45;&gt;PreAttack -->
<g id="edge11" class="edge">
<title>Hurt_BigState&#45;&gt;PreAttack</title>
<path fill="none" stroke="#cdc8b1" d="M149.7,-603.66C186.01,-615.18 232.87,-630.04 267.38,-640.98"/>
<polygon fill="#cdc8b1" stroke="#cdc8b1" points="266.09,-644.24 276.68,-643.93 268.2,-637.57 266.09,-644.24"/>
</g>
<!-- PostureBreak -->
<g id="node20" class="node">
<title>PostureBreak</title>
<polygon fill="none" stroke="black" points="34.5,-516.12 34.5,-537.88 151.5,-537.88 151.5,-516.12 34.5,-516.12"/>
<text text-anchor="start" x="48.38" y="-521.58" font-family="Helvetica,sans-Serif" font-size="14.00">PostureBreak &#160;</text>
<polygon fill="none" stroke="black" points="34.5,-484.12 34.5,-516.12 151.5,-516.12 151.5,-484.12 34.5,-484.12"/>
<text text-anchor="start" x="37.5" y="-502.73" font-family="Helvetica,sans-Serif" font-size="12.00" fill="#838b8b">0.00s: EnableGravity</text>
<text text-anchor="start" x="37.5" y="-488.83" font-family="Helvetica,sans-Serif" font-size="12.00" fill="#838b8b">3.50s: Done</text>
<text text-anchor="start" x="102" y="-488.83" font-family="Helvetica,sans-Serif" font-size="14.00"> &#160;</text>
</g>
<!-- PostureBreak&#45;&gt;PreAttack -->
<g id="edge12" class="edge">
<title>PostureBreak&#45;&gt;PreAttack</title>
<path fill="none" stroke="#cdc8b1" d="M159.26,-541.01C165.26,-544.23 171.17,-547.58 176.75,-551 216.17,-575.19 257.98,-608.16 285.11,-630.66"/>
<polygon fill="#cdc8b1" stroke="#cdc8b1" points="282.65,-633.16 292.56,-636.89 287.14,-627.79 282.65,-633.16"/>
</g>
<!-- Wandering_Walking -->
<g id="node21" class="node">
<title>Wandering_Walking</title>
<polygon fill="none" stroke="black" points="176.75,-920 9.25,-920 9.25,-884 176.75,-884 176.75,-920"/>
<text text-anchor="middle" x="93" y="-896.58" font-family="Helvetica,sans-Serif" font-size="14.00">Wandering_Walking (Init)</text>
</g>
</g>
</svg>
