<?xml version="1.0" encoding="UTF-8" standalone="no"?>
<!DOCTYPE svg PUBLIC "-//W3C//DTD SVG 1.1//EN"
 "http://www.w3.org/Graphics/SVG/1.1/DTD/svg11.dtd">
<!-- Generated by graphviz version 12.2.1 (20241206.2353)
 -->
<!-- Title: Foo Pages: 1 -->
<svg width="421pt" height="642pt"
 viewBox="0.00 0.00 420.50 642.00" xmlns="http://www.w3.org/2000/svg" xmlns:xlink="http://www.w3.org/1999/xlink">
<g id="graph0" class="graph" transform="scale(1 1) rotate(0) translate(4 638)">
<title>Foo</title>
<polygon fill="white" stroke="none" points="-4,4 -4,-638 416.5,-638 416.5,4 -4,4"/>
<g id="clust1" class="cluster">
<title>cluster_attacksensors</title>
<polygon fill="none" stroke="black" points="8,-8 8,-402 387.62,-402 387.62,-8 8,-8"/>
<text text-anchor="middle" x="197.81" y="-384.7" font-family="Helvetica,sans-Serif" font-size="14.00">Attack Sensors</text>
</g>
<!-- Level Once Sensor -->
<g id="node1" class="node">
<title>Level Once Sensor</title>
<polygon fill="none" stroke="black" points="28.5,-23.12 28.5,-44.88 157.5,-44.88 157.5,-23.12 28.5,-23.12"/>
<text text-anchor="start" x="31.5" y="-28.57" font-family="Helvetica,sans-Serif" font-size="14.00">Level Once Sensor &#160;</text>
</g>
<!-- Level Once Sensor_linked -->
<g id="node2" class="node">
<title>Level Once Sensor_linked</title>
<polygon fill="none" stroke="black" stroke-dasharray="1,5" points="369.98,-52 313.77,-52 313.77,-16 369.98,-16 369.98,-52"/>
<text text-anchor="start" x="319.38" y="-28.57" font-family="Helvetica,sans-Serif" font-size="14.00">Attack &#160;</text>
</g>
<!-- Level Once Sensor&#45;&gt;Level Once Sensor_linked -->
<g id="edge1" class="edge">
<title>Level Once Sensor&#45;&gt;Level Once Sensor_linked</title>
<path fill="none" stroke="#66cdaa" d="M165.41,-34C210,-34 265.67,-34 302.2,-34"/>
<polygon fill="#66cdaa" stroke="#66cdaa" points="301.83,-37.5 311.83,-34 301.83,-30.5 301.83,-37.5"/>
<text text-anchor="middle" x="220.62" y="-36.45" font-family="Helvetica,sans-Serif" font-size="14.00" fill="#66cdaa">QueueEnd</text>
</g>
<!-- Level Once Sensor_weight -->
<g id="node3" class="node">
<title>Level Once Sensor_weight</title>
<polygon fill="none" stroke="black" stroke-dasharray="1,5" points="379.62,-106 304.12,-106 304.12,-70 379.62,-70 379.62,-106"/>
<text text-anchor="start" x="314.12" y="-82.58" font-family="Helvetica,sans-Serif" font-size="14.00">1 Attack &#160;</text>
</g>
<!-- Level Once Sensor&#45;&gt;Level Once Sensor_weight -->
<g id="edge2" class="edge">
<title>Level Once Sensor&#45;&gt;Level Once Sensor_weight</title>
<path fill="none" stroke="#458b74" d="M165.41,-49.62C206.27,-58.56 256.44,-69.53 292.66,-77.45"/>
<polygon fill="#458b74" stroke="#458b74" points="291.9,-80.87 302.42,-79.59 293.39,-74.03 291.9,-80.87"/>
<text text-anchor="middle" x="220.62" y="-69.87" font-family="Helvetica,sans-Serif" font-size="14.00" fill="#458b74">Weight</text>
</g>
<!-- RunAwaySensor -->
<g id="node4" class="node">
<title>RunAwaySensor</title>
<polygon fill="none" stroke="black" points="36,-77.12 36,-98.88 150,-98.88 150,-77.12 36,-77.12"/>
<text text-anchor="start" x="39" y="-82.58" font-family="Helvetica,sans-Serif" font-size="14.00">RunAwaySensor &#160;</text>
</g>
<!-- AttackSensor -->
<g id="node5" class="node">
<title>AttackSensor</title>
<polygon fill="none" stroke="black" points="46.12,-131.12 46.12,-152.88 139.88,-152.88 139.88,-131.12 46.12,-131.12"/>
<text text-anchor="start" x="49.12" y="-136.57" font-family="Helvetica,sans-Serif" font-size="14.00">AttackSensor &#160;</text>
</g>
<!-- AttackSensor_linked -->
<g id="node6" class="node">
<title>AttackSensor_linked</title>
<polygon fill="none" stroke="black" stroke-dasharray="1,5" points="369.98,-160 313.77,-160 313.77,-124 369.98,-124 369.98,-160"/>
<text text-anchor="start" x="319.38" y="-136.57" font-family="Helvetica,sans-Serif" font-size="14.00">Attack &#160;</text>
</g>
<!-- AttackSensor&#45;&gt;AttackSensor_linked -->
<g id="edge3" class="edge">
<title>AttackSensor&#45;&gt;AttackSensor_linked</title>
<path fill="none" stroke="#66cdaa" d="M147.87,-142C194.46,-142 260.67,-142 302.18,-142"/>
<polygon fill="#66cdaa" stroke="#66cdaa" points="301.94,-145.5 311.94,-142 301.94,-138.5 301.94,-145.5"/>
<text text-anchor="middle" x="220.62" y="-144.45" font-family="Helvetica,sans-Serif" font-size="14.00" fill="#66cdaa">QueueEnd</text>
</g>
<!-- DodgePredictSensor -->
<g id="node7" class="node">
<title>DodgePredictSensor</title>
<polygon fill="none" stroke="black" points="24,-204 24,-225.75 162,-225.75 162,-204 24,-204"/>
<text text-anchor="start" x="27" y="-209.45" font-family="Helvetica,sans-Serif" font-size="14.00">DodgePredictSensor &#160;</text>
<polygon fill="none" stroke="black" points="24,-182.25 24,-204 162,-204 162,-182.25 24,-182.25"/>
<text text-anchor="start" x="27" y="-188.7" font-family="Helvetica,sans-Serif" font-size="12.00" fill="#838b8b">if: rollingCondition</text>
<text text-anchor="start" x="123.75" y="-188.7" font-family="Helvetica,sans-Serif" font-size="14.00"> &#160;</text>
</g>
<!-- DodgePredictSensor_linked -->
<g id="node8" class="node">
<title>DodgePredictSensor_linked</title>
<polygon fill="none" stroke="black" stroke-dasharray="1,5" points="369.98,-222 313.77,-222 313.77,-186 369.98,-186 369.98,-222"/>
<text text-anchor="start" x="319.38" y="-198.57" font-family="Helvetica,sans-Serif" font-size="14.00">Attack &#160;</text>
</g>
<!-- DodgePredictSensor&#45;&gt;DodgePredictSensor_linked -->
<g id="edge4" class="edge">
<title>DodgePredictSensor&#45;&gt;DodgePredictSensor_linked</title>
<path fill="none" stroke="#66cdaa" d="M169.75,-204C213.55,-204 266.83,-204 302.18,-204"/>
<polygon fill="#66cdaa" stroke="#66cdaa" points="301.93,-207.5 311.93,-204 301.93,-200.5 301.93,-207.5"/>
<text text-anchor="middle" x="220.62" y="-206.45" font-family="Helvetica,sans-Serif" font-size="14.00" fill="#66cdaa">QueueEnd</text>
</g>
<!-- AttackPredictSensor -->
<g id="node9" class="node">
<title>AttackPredictSensor</title>
<polygon fill="none" stroke="black" points="25.12,-274 25.12,-295.75 160.88,-295.75 160.88,-274 25.12,-274"/>
<text text-anchor="start" x="28.12" y="-279.45" font-family="Helvetica,sans-Serif" font-size="14.00">AttackPredictSensor &#160;</text>
<polygon fill="none" stroke="black" points="25.12,-252.25 25.12,-274 160.88,-274 160.88,-252.25 25.12,-252.25"/>
<text text-anchor="start" x="28.12" y="-258.7" font-family="Helvetica,sans-Serif" font-size="12.00" fill="#838b8b">if: attackCondition</text>
<text text-anchor="start" x="123.38" y="-258.7" font-family="Helvetica,sans-Serif" font-size="14.00"> &#160;</text>
</g>
<!-- AttackPredictSensor_linked -->
<g id="node10" class="node">
<title>AttackPredictSensor_linked</title>
<polygon fill="none" stroke="black" stroke-dasharray="1,5" points="369.98,-292 313.77,-292 313.77,-256 369.98,-256 369.98,-292"/>
<text text-anchor="start" x="319.38" y="-268.57" font-family="Helvetica,sans-Serif" font-size="14.00">Attack &#160;</text>
</g>
<!-- AttackPredictSensor&#45;&gt;AttackPredictSensor_linked -->
<g id="edge5" class="edge">
<title>AttackPredictSensor&#45;&gt;AttackPredictSensor_linked</title>
<path fill="none" stroke="#66cdaa" d="M168.74,-274C212.73,-274 266.54,-274 302.17,-274"/>
<polygon fill="#66cdaa" stroke="#66cdaa" points="302,-277.5 312,-274 302,-270.5 302,-277.5"/>
<text text-anchor="middle" x="220.62" y="-276.45" font-family="Helvetica,sans-Serif" font-size="14.00" fill="#66cdaa">QueueEnd</text>
</g>
<!-- AttackRunToSensor -->
<g id="node11" class="node">
<title>AttackRunToSensor</title>
<polygon fill="none" stroke="black" points="26.62,-344 26.62,-365.75 159.38,-365.75 159.38,-344 26.62,-344"/>
<text text-anchor="start" x="29.62" y="-349.45" font-family="Helvetica,sans-Serif" font-size="14.00">AttackRunToSensor &#160;</text>
<polygon fill="none" stroke="black" points="26.62,-322.25 26.62,-344 159.38,-344 159.38,-322.25 26.62,-322.25"/>
<text text-anchor="start" x="29.62" y="-328.7" font-family="Helvetica,sans-Serif" font-size="12.00" fill="#838b8b">if: state is Engaging</text>
<text text-anchor="start" x="133.88" y="-328.7" font-family="Helvetica,sans-Serif" font-size="14.00"> &#160;</text>
</g>
<!-- AttackRunToSensor_linked -->
<g id="node12" class="node">
<title>AttackRunToSensor_linked</title>
<polygon fill="none" stroke="black" stroke-dasharray="1,5" points="369.98,-362 313.77,-362 313.77,-326 369.98,-326 369.98,-362"/>
<text text-anchor="start" x="319.38" y="-338.57" font-family="Helvetica,sans-Serif" font-size="14.00">Attack &#160;</text>
</g>
<!-- AttackRunToSensor&#45;&gt;AttackRunToSensor_linked -->
<g id="edge6" class="edge">
<title>AttackRunToSensor&#45;&gt;AttackRunToSensor_linked</title>
<path fill="none" stroke="#66cdaa" d="M167.07,-344C211.27,-344 265.87,-344 301.94,-344"/>
<polygon fill="#66cdaa" stroke="#66cdaa" points="301.91,-347.5 311.91,-344 301.91,-340.5 301.91,-347.5"/>
<text text-anchor="middle" x="220.62" y="-346.45" font-family="Helvetica,sans-Serif" font-size="14.00" fill="#66cdaa">QueueEnd</text>
</g>
<!-- Attack -->
<g id="node13" class="node">
<title>Attack</title>
<polygon fill="none" stroke="black" points="54,-446.12 54,-467.88 132,-467.88 132,-446.12 54,-446.12"/>
<text text-anchor="start" x="70.5" y="-451.57" font-family="Helvetica,sans-Serif" font-size="14.00">Attack &#160;</text>
<polygon fill="none" stroke="black" points="54,-414.12 54,-446.12 132,-446.12 132,-414.12 54,-414.12"/>
<text text-anchor="start" x="57" y="-432.73" font-family="Helvetica,sans-Serif" font-size="12.00" fill="#838b8b">0.67s: Shoot</text>
<text text-anchor="start" x="57" y="-418.83" font-family="Helvetica,sans-Serif" font-size="12.00" fill="#838b8b">3.50s: Done</text>
<text text-anchor="start" x="121.5" y="-418.83" font-family="Helvetica,sans-Serif" font-size="14.00"> &#160;</text>
</g>
<!-- Wandering_Idle -->
<g id="node14" class="node">
<title>Wandering_Idle</title>
<polygon fill="none" stroke="black" points="412.5,-459 271.25,-459 271.25,-423 412.5,-423 412.5,-459"/>
<text text-anchor="middle" x="341.88" y="-435.57" font-family="Helvetica,sans-Serif" font-size="14.00">Wandering_Idle (Init)</text>
</g>
<!-- Attack&#45;&gt;Wandering_Idle -->
<g id="edge7" class="edge">
<title>Attack&#45;&gt;Wandering_Idle</title>
<path fill="none" stroke="#cdc8b1" d="M139.86,-441C173.43,-441 219.89,-441 259.69,-441"/>
<polygon fill="#cdc8b1" stroke="#cdc8b1" points="259.47,-444.5 269.47,-441 259.47,-437.5 259.47,-444.5"/>
</g>
<!-- HurtState -->
<g id="node15" class="node">
<title>HurtState</title>
<polygon fill="none" stroke="black" points="57.75,-605.12 57.75,-626.88 128.25,-626.88 128.25,-605.12 57.75,-605.12"/>
<text text-anchor="start" x="60.75" y="-610.58" font-family="Helvetica,sans-Serif" font-size="14.00">HurtState &#160;</text>
</g>
<!-- PreAttack -->
<g id="node16" class="node">
<title>PreAttack</title>
<polygon fill="none" stroke="black" points="379.12,-580 304.62,-580 304.62,-544 379.12,-544 379.12,-580"/>
<text text-anchor="middle" x="341.88" y="-556.58" font-family="Helvetica,sans-Serif" font-size="14.00">PreAttack</text>
</g>
<!-- HurtState&#45;&gt;PreAttack -->
<g id="edge8" class="edge">
<title>HurtState&#45;&gt;PreAttack</title>
<path fill="none" stroke="#cdc8b1" d="M136.16,-606.78C179.7,-597.25 247.55,-582.41 293.06,-572.46"/>
<polygon fill="#cdc8b1" stroke="#cdc8b1" points="293.63,-575.92 302.65,-570.36 292.13,-569.08 293.63,-575.92"/>
</g>
<!-- Hurt_BigState -->
<g id="node17" class="node">
<title>Hurt_BigState</title>
<polygon fill="none" stroke="black" points="44.25,-551.12 44.25,-572.88 141.75,-572.88 141.75,-551.12 44.25,-551.12"/>
<text text-anchor="start" x="47.25" y="-556.58" font-family="Helvetica,sans-Serif" font-size="14.00">Hurt_BigState &#160;</text>
</g>
<!-- Hurt_BigState&#45;&gt;PreAttack -->
<g id="edge9" class="edge">
<title>Hurt_BigState&#45;&gt;PreAttack</title>
<path fill="none" stroke="#cdc8b1" d="M149.71,-562C192.91,-562 252.13,-562 293.16,-562"/>
<polygon fill="#cdc8b1" stroke="#cdc8b1" points="292.97,-565.5 302.97,-562 292.97,-558.5 292.97,-565.5"/>
</g>
<!-- PostureBreak -->
<g id="node18" class="node">
<title>PostureBreak</title>
<polygon fill="none" stroke="black" points="45.38,-497.12 45.38,-518.88 140.62,-518.88 140.62,-497.12 45.38,-497.12"/>
<text text-anchor="start" x="48.38" y="-502.57" font-family="Helvetica,sans-Serif" font-size="14.00">PostureBreak &#160;</text>
</g>
<!-- PostureBreak&#45;&gt;PreAttack -->
<g id="edge10" class="edge">
<title>PostureBreak&#45;&gt;PreAttack</title>
<path fill="none" stroke="#cdc8b1" d="M148.48,-519.92C191.83,-529.4 251.89,-542.54 293.32,-551.6"/>
<polygon fill="#cdc8b1" stroke="#cdc8b1" points="292.48,-555 303,-553.72 293.98,-548.16 292.48,-555"/>
</g>
</g>
</svg>
