<?xml version="1.0" encoding="UTF-8" standalone="no"?>
<!DOCTYPE svg PUBLIC "-//W3C//DTD SVG 1.1//EN"
 "http://www.w3.org/Graphics/SVG/1.1/DTD/svg11.dtd">
<!-- Generated by graphviz version 12.2.1 (20241206.2353)
 -->
<!-- Title: Foo Pages: 1 -->
<svg width="434pt" height="1242pt"
 viewBox="0.00 0.00 433.75 1242.00" xmlns="http://www.w3.org/2000/svg" xmlns:xlink="http://www.w3.org/1999/xlink">
<g id="graph0" class="graph" transform="scale(1 1) rotate(0) translate(4 1238)">
<title>Foo</title>
<polygon fill="white" stroke="none" points="-4,4 -4,-1238 429.75,-1238 429.75,4 -4,4"/>
<g id="clust1" class="cluster">
<title>cluster_attacksensors</title>
<polygon fill="none" stroke="black" points="8,-8 8,-678 417.75,-678 417.75,-8 8,-8"/>
<text text-anchor="middle" x="212.88" y="-660.7" font-family="Helvetica,sans-Serif" font-size="14.00">Attack Sensors</text>
</g>
<!-- Level Once Sensor -->
<g id="node1" class="node">
<title>Level Once Sensor</title>
<polygon fill="none" stroke="black" points="28.5,-48.12 28.5,-69.88 157.5,-69.88 157.5,-48.12 28.5,-48.12"/>
<text text-anchor="start" x="31.5" y="-53.58" font-family="Helvetica,sans-Serif" font-size="14.00">Level Once Sensor &#160;</text>
</g>
<!-- Level Once Sensor_linked -->
<g id="node2" class="node">
<title>Level Once Sensor_linked</title>
<polygon fill="none" stroke="black" stroke-dasharray="1,5" points="386.23,-52 294.77,-52 294.77,-16 386.23,-16 386.23,-52"/>
<text text-anchor="start" x="300.38" y="-28.57" font-family="Helvetica,sans-Serif" font-size="14.00">Attack_Bark &#160;</text>
</g>
<!-- Level Once Sensor&#45;&gt;Level Once Sensor_linked -->
<g id="edge1" class="edge">
<title>Level Once Sensor&#45;&gt;Level Once Sensor_linked</title>
<path fill="none" stroke="#66cdaa" d="M165.49,-46.22C173.07,-45.1 180.68,-44.08 188,-43.25 219.3,-39.68 254.39,-37.43 282.92,-36.04"/>
<polygon fill="#66cdaa" stroke="#66cdaa" points="282.97,-39.54 292.8,-35.59 282.65,-32.55 282.97,-39.54"/>
<text text-anchor="middle" x="220.62" y="-45.7" font-family="Helvetica,sans-Serif" font-size="14.00" fill="#66cdaa">QueueEnd</text>
</g>
<!-- Level Once Sensor_weight -->
<g id="node3" class="node">
<title>Level Once Sensor_weight</title>
<polygon fill="none" stroke="black" stroke-dasharray="1,5" points="409.75,-106 271.25,-106 271.25,-70 409.75,-70 409.75,-106"/>
<text text-anchor="start" x="281.25" y="-82.58" font-family="Helvetica,sans-Serif" font-size="14.00">1 Attack 3 RunBite &#160;</text>
</g>
<!-- Level Once Sensor&#45;&gt;Level Once Sensor_weight -->
<g id="edge2" class="edge">
<title>Level Once Sensor&#45;&gt;Level Once Sensor_weight</title>
<path fill="none" stroke="#458b74" d="M165.34,-67.43C194.84,-70.91 229.17,-74.97 259.52,-78.55"/>
<polygon fill="#458b74" stroke="#458b74" points="259.1,-82.03 269.44,-79.72 259.92,-75.07 259.1,-82.03"/>
<text text-anchor="middle" x="220.62" y="-80.24" font-family="Helvetica,sans-Serif" font-size="14.00" fill="#458b74">Weight</text>
</g>
<!-- RunAwaySensor -->
<g id="node4" class="node">
<title>RunAwaySensor</title>
<polygon fill="none" stroke="black" points="36,-131.12 36,-152.88 150,-152.88 150,-131.12 36,-131.12"/>
<text text-anchor="start" x="39" y="-136.57" font-family="Helvetica,sans-Serif" font-size="14.00">RunAwaySensor &#160;</text>
</g>
<!-- RunAwaySensor_linked -->
<g id="node5" class="node">
<title>RunAwaySensor_linked</title>
<polygon fill="none" stroke="black" stroke-dasharray="1,5" points="378.73,-160 302.27,-160 302.27,-124 378.73,-124 378.73,-160"/>
<text text-anchor="start" x="307.88" y="-136.57" font-family="Helvetica,sans-Serif" font-size="14.00">RunAway &#160;</text>
</g>
<!-- RunAwaySensor&#45;&gt;RunAwaySensor_linked -->
<g id="edge3" class="edge">
<title>RunAwaySensor&#45;&gt;RunAwaySensor_linked</title>
<path fill="none" stroke="#66cdaa" d="M157.86,-142C199.32,-142 252.52,-142 290.62,-142"/>
<polygon fill="#66cdaa" stroke="#66cdaa" points="290.41,-145.5 300.41,-142 290.41,-138.5 290.41,-145.5"/>
<text text-anchor="middle" x="220.62" y="-144.45" font-family="Helvetica,sans-Serif" font-size="14.00" fill="#66cdaa">QueueEnd</text>
</g>
<!-- AttackSensor -->
<g id="node6" class="node">
<title>AttackSensor</title>
<polygon fill="none" stroke="black" points="46.12,-202.12 46.12,-223.88 139.88,-223.88 139.88,-202.12 46.12,-202.12"/>
<text text-anchor="start" x="49.12" y="-207.57" font-family="Helvetica,sans-Serif" font-size="14.00">AttackSensor &#160;</text>
</g>
<!-- AttackSensor_linked -->
<g id="node7" class="node">
<title>AttackSensor_linked</title>
<polygon fill="none" stroke="black" stroke-dasharray="1,5" points="386.23,-214 294.77,-214 294.77,-178 386.23,-178 386.23,-214"/>
<text text-anchor="start" x="300.38" y="-190.57" font-family="Helvetica,sans-Serif" font-size="14.00">Attack_Bark &#160;</text>
</g>
<!-- AttackSensor&#45;&gt;AttackSensor_linked -->
<g id="edge4" class="edge">
<title>AttackSensor&#45;&gt;AttackSensor_linked</title>
<path fill="none" stroke="#66cdaa" d="M147.67,-208.38C160.85,-207.3 174.93,-206.19 188,-205.25 219.42,-203 254.52,-200.83 283.03,-199.16"/>
<polygon fill="#66cdaa" stroke="#66cdaa" points="283.11,-202.66 292.89,-198.59 282.71,-195.67 283.11,-202.66"/>
<text text-anchor="middle" x="220.62" y="-207.7" font-family="Helvetica,sans-Serif" font-size="14.00" fill="#66cdaa">QueueEnd</text>
</g>
<!-- AttackSensor_weight -->
<g id="node8" class="node">
<title>AttackSensor_weight</title>
<polygon fill="none" stroke="black" stroke-dasharray="1,5" points="395.88,-268 285.12,-268 285.12,-232 395.88,-232 395.88,-268"/>
<text text-anchor="start" x="295.12" y="-244.57" font-family="Helvetica,sans-Serif" font-size="14.00">2 Attack_Bark &#160;</text>
</g>
<!-- AttackSensor&#45;&gt;AttackSensor_weight -->
<g id="edge5" class="edge">
<title>AttackSensor&#45;&gt;AttackSensor_weight</title>
<path fill="none" stroke="#458b74" d="M147.57,-221.07C184.55,-226.65 233.98,-234.1 273.4,-240.04"/>
<polygon fill="#458b74" stroke="#458b74" points="272.86,-243.5 283.27,-241.53 273.9,-236.57 272.86,-243.5"/>
<text text-anchor="middle" x="220.62" y="-239.43" font-family="Helvetica,sans-Serif" font-size="14.00" fill="#458b74">Weight</text>
</g>
<!-- DodgePredictSensor -->
<g id="node9" class="node">
<title>DodgePredictSensor</title>
<polygon fill="none" stroke="black" points="24,-288 24,-309.75 162,-309.75 162,-288 24,-288"/>
<text text-anchor="start" x="27" y="-293.45" font-family="Helvetica,sans-Serif" font-size="14.00">DodgePredictSensor &#160;</text>
<polygon fill="none" stroke="black" points="24,-266.25 24,-288 162,-288 162,-266.25 24,-266.25"/>
<text text-anchor="start" x="27" y="-272.7" font-family="Helvetica,sans-Serif" font-size="12.00" fill="#838b8b">if: rollingCondition</text>
<text text-anchor="start" x="123.75" y="-272.7" font-family="Helvetica,sans-Serif" font-size="14.00"> &#160;</text>
</g>
<!-- DodgePredictSensor_linked -->
<g id="node10" class="node">
<title>DodgePredictSensor_linked</title>
<polygon fill="none" stroke="black" stroke-dasharray="1,5" points="386.23,-322 294.77,-322 294.77,-286 386.23,-286 386.23,-322"/>
<text text-anchor="start" x="300.38" y="-298.57" font-family="Helvetica,sans-Serif" font-size="14.00">Attack_Bark &#160;</text>
</g>
<!-- DodgePredictSensor&#45;&gt;DodgePredictSensor_linked -->
<g id="edge6" class="edge">
<title>DodgePredictSensor&#45;&gt;DodgePredictSensor_linked</title>
<path fill="none" stroke="#66cdaa" d="M170,-292.95C206.53,-295.33 249.55,-298.14 283.12,-300.33"/>
<polygon fill="#66cdaa" stroke="#66cdaa" points="282.85,-303.82 293.06,-300.97 283.3,-296.83 282.85,-303.82"/>
<text text-anchor="middle" x="220.62" y="-300.82" font-family="Helvetica,sans-Serif" font-size="14.00" fill="#66cdaa">QueueEnd</text>
</g>
<!-- AttackPredictSensor -->
<g id="node11" class="node">
<title>AttackPredictSensor</title>
<polygon fill="none" stroke="black" points="25.12,-358 25.12,-379.75 160.88,-379.75 160.88,-358 25.12,-358"/>
<text text-anchor="start" x="28.12" y="-363.45" font-family="Helvetica,sans-Serif" font-size="14.00">AttackPredictSensor &#160;</text>
<polygon fill="none" stroke="black" points="25.12,-336.25 25.12,-358 160.88,-358 160.88,-336.25 25.12,-336.25"/>
<text text-anchor="start" x="28.12" y="-342.7" font-family="Helvetica,sans-Serif" font-size="12.00" fill="#838b8b">if: attackCondition</text>
<text text-anchor="start" x="123.38" y="-342.7" font-family="Helvetica,sans-Serif" font-size="14.00"> &#160;</text>
</g>
<!-- AttackPredictSensor_linked -->
<g id="node12" class="node">
<title>AttackPredictSensor_linked</title>
<polygon fill="none" stroke="black" stroke-dasharray="1,5" points="386.23,-376 294.77,-376 294.77,-340 386.23,-340 386.23,-376"/>
<text text-anchor="start" x="300.38" y="-352.57" font-family="Helvetica,sans-Serif" font-size="14.00">Attack_Bark &#160;</text>
</g>
<!-- AttackPredictSensor&#45;&gt;AttackPredictSensor_linked -->
<g id="edge7" class="edge">
<title>AttackPredictSensor&#45;&gt;AttackPredictSensor_linked</title>
<path fill="none" stroke="#66cdaa" d="M168.66,-358C205.54,-358 249.3,-358 283.3,-358"/>
<polygon fill="#66cdaa" stroke="#66cdaa" points="282.92,-361.5 292.92,-358 282.92,-354.5 282.92,-361.5"/>
<text text-anchor="middle" x="220.62" y="-360.45" font-family="Helvetica,sans-Serif" font-size="14.00" fill="#66cdaa">QueueEnd</text>
</g>
<!-- AttackRunToSensor -->
<g id="node13" class="node">
<title>AttackRunToSensor</title>
<polygon fill="none" stroke="black" points="26.62,-428 26.62,-449.75 159.38,-449.75 159.38,-428 26.62,-428"/>
<text text-anchor="start" x="29.62" y="-433.45" font-family="Helvetica,sans-Serif" font-size="14.00">AttackRunToSensor &#160;</text>
<polygon fill="none" stroke="black" points="26.62,-406.25 26.62,-428 159.38,-428 159.38,-406.25 26.62,-406.25"/>
<text text-anchor="start" x="29.62" y="-412.7" font-family="Helvetica,sans-Serif" font-size="12.00" fill="#838b8b">if: state is Engaging</text>
<text text-anchor="start" x="133.88" y="-412.7" font-family="Helvetica,sans-Serif" font-size="14.00"> &#160;</text>
</g>
<!-- AttackRunToSensor_linked -->
<g id="node14" class="node">
<title>AttackRunToSensor_linked</title>
<polygon fill="none" stroke="black" stroke-dasharray="1,5" points="386.23,-430 294.77,-430 294.77,-394 386.23,-394 386.23,-430"/>
<text text-anchor="start" x="300.38" y="-406.57" font-family="Helvetica,sans-Serif" font-size="14.00">Attack_Bark &#160;</text>
</g>
<!-- AttackRunToSensor&#45;&gt;AttackRunToSensor_linked -->
<g id="edge8" class="edge">
<title>AttackRunToSensor&#45;&gt;AttackRunToSensor_linked</title>
<path fill="none" stroke="#66cdaa" d="M167.33,-423.22C204.39,-420.81 248.68,-417.92 283.05,-415.68"/>
<polygon fill="#66cdaa" stroke="#66cdaa" points="283.04,-419.19 292.79,-415.04 282.59,-412.2 283.04,-419.19"/>
<text text-anchor="middle" x="220.62" y="-423.88" font-family="Helvetica,sans-Serif" font-size="14.00" fill="#66cdaa">QueueEnd</text>
</g>
<!-- AttackSensor_Far -->
<g id="node15" class="node">
<title>AttackSensor_Far</title>
<polygon fill="none" stroke="black" points="32.25,-498.12 32.25,-519.88 153.75,-519.88 153.75,-498.12 32.25,-498.12"/>
<text text-anchor="start" x="35.25" y="-503.57" font-family="Helvetica,sans-Serif" font-size="14.00">AttackSensor_Far &#160;</text>
</g>
<!-- AttackSensor_Far_linked -->
<g id="node16" class="node">
<title>AttackSensor_Far_linked</title>
<polygon fill="none" stroke="black" stroke-dasharray="1,5" points="387.73,-484 293.27,-484 293.27,-448 387.73,-448 387.73,-484"/>
<text text-anchor="start" x="298.88" y="-460.57" font-family="Helvetica,sans-Serif" font-size="14.00">Attack 2 Spit &#160;</text>
</g>
<!-- AttackSensor_Far&#45;&gt;AttackSensor_Far_linked -->
<g id="edge9" class="edge">
<title>AttackSensor_Far&#45;&gt;AttackSensor_Far_linked</title>
<path fill="none" stroke="#66cdaa" d="M161.73,-497.14C199.39,-490.54 245.74,-482.42 281.68,-476.13"/>
<polygon fill="#66cdaa" stroke="#66cdaa" points="282.22,-479.59 291.46,-474.41 281.01,-472.69 282.22,-479.59"/>
<text text-anchor="middle" x="220.62" y="-493.8" font-family="Helvetica,sans-Serif" font-size="14.00" fill="#66cdaa">QueueEnd</text>
</g>
<!-- AttackSensor_Far_weight -->
<g id="node17" class="node">
<title>AttackSensor_Far_weight</title>
<polygon fill="none" stroke="black" stroke-dasharray="1,5" points="397.38,-538 283.62,-538 283.62,-502 397.38,-502 397.38,-538"/>
<text text-anchor="start" x="293.62" y="-514.58" font-family="Helvetica,sans-Serif" font-size="14.00">1 Attack 2 Spit &#160;</text>
</g>
<!-- AttackSensor_Far&#45;&gt;AttackSensor_Far_weight -->
<g id="edge10" class="edge">
<title>AttackSensor_Far&#45;&gt;AttackSensor_Far_weight</title>
<path fill="none" stroke="#458b74" d="M161.73,-512.03C196.03,-513.57 237.56,-515.43 271.85,-516.97"/>
<polygon fill="#458b74" stroke="#458b74" points="271.52,-520.46 281.67,-517.41 271.84,-513.46 271.52,-520.46"/>
<text text-anchor="middle" x="220.62" y="-518.58" font-family="Helvetica,sans-Serif" font-size="14.00" fill="#458b74">Weight</text>
</g>
<!-- AttackSensor_Run -->
<g id="node18" class="node">
<title>AttackSensor_Run</title>
<polygon fill="none" stroke="black" points="30,-571.12 30,-592.88 156,-592.88 156,-571.12 30,-571.12"/>
<text text-anchor="start" x="33" y="-576.58" font-family="Helvetica,sans-Serif" font-size="14.00">AttackSensor_Run &#160;</text>
</g>
<!-- AttackSensor_Run_linked -->
<g id="node19" class="node">
<title>AttackSensor_Run_linked</title>
<polygon fill="none" stroke="black" stroke-dasharray="1,5" points="400.1,-592 280.9,-592 280.9,-556 400.1,-556 400.1,-592"/>
<text text-anchor="start" x="286.5" y="-568.58" font-family="Helvetica,sans-Serif" font-size="14.00">Attack 3 RunBite &#160;</text>
</g>
<!-- AttackSensor_Run&#45;&gt;AttackSensor_Run_linked -->
<g id="edge11" class="edge">
<title>AttackSensor_Run&#45;&gt;AttackSensor_Run_linked</title>
<path fill="none" stroke="#66cdaa" d="M163.69,-579.73C196.66,-578.65 235.96,-577.37 269.03,-576.3"/>
<polygon fill="#66cdaa" stroke="#66cdaa" points="269.05,-579.8 278.93,-575.97 268.82,-572.8 269.05,-579.8"/>
<text text-anchor="middle" x="220.62" y="-581.17" font-family="Helvetica,sans-Serif" font-size="14.00" fill="#66cdaa">QueueEnd</text>
</g>
<!-- AttackSensor_Run_weight -->
<g id="node20" class="node">
<title>AttackSensor_Run_weight</title>
<polygon fill="none" stroke="black" stroke-dasharray="1,5" points="409.75,-646 271.25,-646 271.25,-610 409.75,-610 409.75,-646"/>
<text text-anchor="start" x="281.25" y="-622.58" font-family="Helvetica,sans-Serif" font-size="14.00">1 Attack 3 RunBite &#160;</text>
</g>
<!-- AttackSensor_Run&#45;&gt;AttackSensor_Run_weight -->
<g id="edge12" class="edge">
<title>AttackSensor_Run&#45;&gt;AttackSensor_Run_weight</title>
<path fill="none" stroke="#458b74" d="M163.69,-595.06C193.62,-600.67 228.75,-607.25 259.71,-613.05"/>
<polygon fill="#458b74" stroke="#458b74" points="258.94,-616.47 269.42,-614.87 260.23,-609.59 258.94,-616.47"/>
<text text-anchor="middle" x="220.62" y="-614.26" font-family="Helvetica,sans-Serif" font-size="14.00" fill="#458b74">Weight</text>
</g>
<!-- Attack_Bark -->
<g id="node21" class="node">
<title>Attack_Bark</title>
<polygon fill="none" stroke="black" points="49.88,-782 49.88,-803.75 136.12,-803.75 136.12,-782 49.88,-782"/>
<text text-anchor="start" x="52.88" y="-787.45" font-family="Helvetica,sans-Serif" font-size="14.00">Attack_Bark &#160;</text>
<polygon fill="none" stroke="black" points="49.88,-760.25 49.88,-782 136.12,-782 136.12,-760.25 49.88,-760.25"/>
<text text-anchor="start" x="52.88" y="-766.7" font-family="Helvetica,sans-Serif" font-size="12.00" fill="#838b8b">2.50s: Done</text>
<text text-anchor="start" x="117.38" y="-766.7" font-family="Helvetica,sans-Serif" font-size="14.00"> &#160;</text>
</g>
<!-- Engaging -->
<g id="node22" class="node">
<title>Engaging</title>
<polygon fill="none" stroke="black" points="377,-765 304,-765 304,-729 377,-729 377,-765"/>
<text text-anchor="middle" x="340.5" y="-741.58" font-family="Helvetica,sans-Serif" font-size="14.00">Engaging</text>
</g>
<!-- Attack_Bark&#45;&gt;Engaging -->
<g id="edge13" class="edge">
<title>Attack_Bark&#45;&gt;Engaging</title>
<path fill="none" stroke="#cdc8b1" d="M143.98,-774.88C187.38,-768.69 249.79,-759.79 292.35,-753.72"/>
<polygon fill="#cdc8b1" stroke="#cdc8b1" points="292.62,-757.22 302.02,-752.34 291.63,-750.29 292.62,-757.22"/>
</g>
<!-- Attack 2 Spit -->
<g id="node23" class="node">
<title>Attack 2 Spit</title>
<polygon fill="none" stroke="black" points="48.38,-1062 48.38,-1083.75 137.62,-1083.75 137.62,-1062 48.38,-1062"/>
<text text-anchor="start" x="51.38" y="-1067.45" font-family="Helvetica,sans-Serif" font-size="14.00">Attack 2 Spit &#160;</text>
<polygon fill="none" stroke="black" points="48.38,-1040.25 48.38,-1062 137.62,-1062 137.62,-1040.25 48.38,-1040.25"/>
<text text-anchor="start" x="51.38" y="-1046.7" font-family="Helvetica,sans-Serif" font-size="12.00" fill="#838b8b">1.33s: Done</text>
<text text-anchor="start" x="115.88" y="-1046.7" font-family="Helvetica,sans-Serif" font-size="14.00"> &#160;</text>
</g>
<!-- PreAttack -->
<g id="node24" class="node">
<title>PreAttack</title>
<polygon fill="none" stroke="black" points="377.75,-975 303.25,-975 303.25,-939 377.75,-939 377.75,-975"/>
<text text-anchor="middle" x="340.5" y="-951.58" font-family="Helvetica,sans-Serif" font-size="14.00">PreAttack</text>
</g>
<!-- Attack 2 Spit&#45;&gt;PreAttack -->
<g id="edge14" class="edge">
<title>Attack 2 Spit&#45;&gt;PreAttack</title>
<path fill="none" stroke="#cdc8b1" d="M145.46,-1039.99C188.79,-1021.46 250.26,-995.17 292.33,-977.17"/>
<polygon fill="#cdc8b1" stroke="#cdc8b1" points="293.64,-980.42 301.46,-973.27 290.89,-973.98 293.64,-980.42"/>
</g>
<!-- Attack 2 Spit_weight -->
<g id="node25" class="node">
<title>Attack 2 Spit_weight</title>
<polygon fill="none" stroke="black" stroke-dasharray="1,5" points="388.75,-1085.75 292.25,-1085.75 292.25,-1038.25 388.75,-1038.25 388.75,-1085.75"/>
<text text-anchor="start" x="302.25" y="-1066.45" font-family="Helvetica,sans-Serif" font-size="14.00">1 RunAway &#160;</text>
<text text-anchor="start" x="318" y="-1046.7" font-family="Helvetica,sans-Serif" font-size="14.00">1 Skip &#160;</text>
</g>
<!-- Attack 2 Spit&#45;&gt;Attack 2 Spit_weight -->
<g id="edge15" class="edge">
<title>Attack 2 Spit&#45;&gt;Attack 2 Spit_weight</title>
<path fill="none" stroke="#458b74" d="M145.46,-1062C184.84,-1062 239.18,-1062 280.34,-1062"/>
<polygon fill="#458b74" stroke="#458b74" points="280.34,-1065.5 290.34,-1062 280.34,-1058.5 280.34,-1065.5"/>
<text text-anchor="middle" x="220.62" y="-1064.45" font-family="Helvetica,sans-Serif" font-size="14.00" fill="#458b74">Weight</text>
</g>
<!-- Attack 3 RunBite -->
<g id="node26" class="node">
<title>Attack 3 RunBite</title>
<polygon fill="none" stroke="black" points="36,-852 36,-873.75 150,-873.75 150,-852 36,-852"/>
<text text-anchor="start" x="39" y="-857.45" font-family="Helvetica,sans-Serif" font-size="14.00">Attack 3 RunBite &#160;</text>
<polygon fill="none" stroke="black" points="36,-830.25 36,-852 150,-852 150,-830.25 36,-830.25"/>
<text text-anchor="start" x="39" y="-836.7" font-family="Helvetica,sans-Serif" font-size="12.00" fill="#838b8b">1.67s: Done</text>
<text text-anchor="start" x="103.5" y="-836.7" font-family="Helvetica,sans-Serif" font-size="14.00"> &#160;</text>
</g>
<!-- Attack 3 RunBite&#45;&gt;PreAttack -->
<g id="edge16" class="edge">
<title>Attack 3 RunBite&#45;&gt;PreAttack</title>
<path fill="none" stroke="#cdc8b1" d="M154.06,-877.69C196.71,-895.93 253.16,-920.07 292.53,-936.91"/>
<polygon fill="#cdc8b1" stroke="#cdc8b1" points="290.94,-940.04 301.51,-940.75 293.69,-933.6 290.94,-940.04"/>
</g>
<!-- Attack 3 RunBite_weight -->
<g id="node27" class="node">
<title>Attack 3 RunBite_weight</title>
<polygon fill="none" stroke="black" stroke-dasharray="1,5" points="388.75,-875.75 292.25,-875.75 292.25,-828.25 388.75,-828.25 388.75,-875.75"/>
<text text-anchor="start" x="302.25" y="-856.45" font-family="Helvetica,sans-Serif" font-size="14.00">1 RunAway &#160;</text>
<text text-anchor="start" x="318" y="-836.7" font-family="Helvetica,sans-Serif" font-size="14.00">1 Skip &#160;</text>
</g>
<!-- Attack 3 RunBite&#45;&gt;Attack 3 RunBite_weight -->
<g id="edge17" class="edge">
<title>Attack 3 RunBite&#45;&gt;Attack 3 RunBite_weight</title>
<path fill="none" stroke="#458b74" d="M157.86,-852C195.84,-852 243.68,-852 280.73,-852"/>
<polygon fill="#458b74" stroke="#458b74" points="280.35,-855.5 290.35,-852 280.35,-848.5 280.35,-855.5"/>
<text text-anchor="middle" x="220.62" y="-854.45" font-family="Helvetica,sans-Serif" font-size="14.00" fill="#458b74">Weight</text>
</g>
<!-- Attack_Slow Attack -->
<g id="node28" class="node">
<title>Attack_Slow Attack</title>
<polygon fill="none" stroke="black" points="28.88,-712 28.88,-733.75 157.12,-733.75 157.12,-712 28.88,-712"/>
<text text-anchor="start" x="31.88" y="-717.45" font-family="Helvetica,sans-Serif" font-size="14.00">Attack_Slow Attack &#160;</text>
<polygon fill="none" stroke="black" points="28.88,-690.25 28.88,-712 157.12,-712 157.12,-690.25 28.88,-690.25"/>
<text text-anchor="start" x="31.88" y="-696.7" font-family="Helvetica,sans-Serif" font-size="12.00" fill="#838b8b">2.50s: Done</text>
<text text-anchor="start" x="96.38" y="-696.7" font-family="Helvetica,sans-Serif" font-size="14.00"> &#160;</text>
</g>
<!-- Attack_Slow Attack&#45;&gt;Engaging -->
<g id="edge18" class="edge">
<title>Attack_Slow Attack&#45;&gt;Engaging</title>
<path fill="none" stroke="#cdc8b1" d="M165.01,-722.12C206.03,-727.97 256.48,-735.16 292.57,-740.31"/>
<polygon fill="#cdc8b1" stroke="#cdc8b1" points="291.85,-743.74 302.25,-741.69 292.84,-736.81 291.85,-743.74"/>
</g>
<!-- FakeDead -->
<g id="node29" class="node">
<title>FakeDead</title>
<polygon fill="none" stroke="black" points="54,-1154 54,-1175.75 132,-1175.75 132,-1154 54,-1154"/>
<text text-anchor="start" x="58.12" y="-1159.45" font-family="Helvetica,sans-Serif" font-size="14.00">FakeDead &#160;</text>
<polygon fill="none" stroke="black" points="54,-1132.25 54,-1154 132,-1154 132,-1132.25 54,-1132.25"/>
<text text-anchor="start" x="57" y="-1138.7" font-family="Helvetica,sans-Serif" font-size="12.00" fill="#838b8b">5.00s: Done</text>
<text text-anchor="start" x="121.5" y="-1138.7" font-family="Helvetica,sans-Serif" font-size="14.00"> &#160;</text>
</g>
<!-- Revive -->
<g id="node30" class="node">
<title>Revive</title>
<polygon fill="none" stroke="black" points="369.12,-1194 311.88,-1194 311.88,-1158 369.12,-1158 369.12,-1194"/>
<text text-anchor="middle" x="340.5" y="-1170.58" font-family="Helvetica,sans-Serif" font-size="14.00">Revive</text>
</g>
<!-- FakeDead&#45;&gt;Revive -->
<g id="edge19" class="edge">
<title>FakeDead&#45;&gt;Revive</title>
<path fill="none" stroke="#cdc8b1" d="M139.89,-1158.11C186.04,-1162.25 256.43,-1168.56 300.12,-1172.47"/>
<polygon fill="#cdc8b1" stroke="#cdc8b1" points="299.64,-1175.94 309.92,-1173.35 300.27,-1168.97 299.64,-1175.94"/>
</g>
<!-- FakeDead_weight -->
<g id="node31" class="node">
<title>FakeDead_weight</title>
<polygon fill="none" stroke="black" stroke-dasharray="1,5" points="380.5,-1140 300.5,-1140 300.5,-1104 380.5,-1104 380.5,-1140"/>
<text text-anchor="start" x="310.5" y="-1116.58" font-family="Helvetica,sans-Serif" font-size="14.00">1 Revive &#160;</text>
</g>
<!-- FakeDead&#45;&gt;FakeDead_weight -->
<g id="edge20" class="edge">
<title>FakeDead&#45;&gt;FakeDead_weight</title>
<path fill="none" stroke="#458b74" d="M139.89,-1148.02C182.31,-1142.49 245.23,-1134.29 289.05,-1128.58"/>
<polygon fill="#458b74" stroke="#458b74" points="289.35,-1132.07 298.81,-1127.3 288.44,-1125.13 289.35,-1132.07"/>
<text text-anchor="middle" x="220.62" y="-1143.32" font-family="Helvetica,sans-Serif" font-size="14.00" fill="#458b74">Weight</text>
</g>
<!-- HurtState -->
<g id="node32" class="node">
<title>HurtState</title>
<polygon fill="none" stroke="black" points="54,-922 54,-943.75 132,-943.75 132,-922 54,-922"/>
<text text-anchor="start" x="60.75" y="-927.45" font-family="Helvetica,sans-Serif" font-size="14.00">HurtState &#160;</text>
<polygon fill="none" stroke="black" points="54,-900.25 54,-922 132,-922 132,-900.25 54,-900.25"/>
<text text-anchor="start" x="57" y="-906.7" font-family="Helvetica,sans-Serif" font-size="12.00" fill="#838b8b">0.33s: Done</text>
<text text-anchor="start" x="121.5" y="-906.7" font-family="Helvetica,sans-Serif" font-size="14.00"> &#160;</text>
</g>
<!-- HurtState&#45;&gt;PreAttack -->
<g id="edge21" class="edge">
<title>HurtState&#45;&gt;PreAttack</title>
<path fill="none" stroke="#cdc8b1" d="M139.89,-928.54C183.2,-934.72 247.89,-943.94 291.79,-950.2"/>
<polygon fill="#cdc8b1" stroke="#cdc8b1" points="291.14,-953.64 301.53,-951.59 292.13,-946.71 291.14,-953.64"/>
</g>
<!-- Hurt_BigState -->
<g id="node33" class="node">
<title>Hurt_BigState</title>
<polygon fill="none" stroke="black" points="44.25,-992 44.25,-1013.75 141.75,-1013.75 141.75,-992 44.25,-992"/>
<text text-anchor="start" x="47.25" y="-997.45" font-family="Helvetica,sans-Serif" font-size="14.00">Hurt_BigState &#160;</text>
<polygon fill="none" stroke="black" points="44.25,-970.25 44.25,-992 141.75,-992 141.75,-970.25 44.25,-970.25"/>
<text text-anchor="start" x="47.25" y="-976.7" font-family="Helvetica,sans-Serif" font-size="12.00" fill="#838b8b">0.33s: Done</text>
<text text-anchor="start" x="111.75" y="-976.7" font-family="Helvetica,sans-Serif" font-size="14.00"> &#160;</text>
</g>
<!-- Hurt_BigState&#45;&gt;PreAttack -->
<g id="edge22" class="edge">
<title>Hurt_BigState&#45;&gt;PreAttack</title>
<path fill="none" stroke="#cdc8b1" d="M149.71,-984.06C192.55,-977.95 251.1,-969.6 291.8,-963.8"/>
<polygon fill="#cdc8b1" stroke="#cdc8b1" points="292.13,-967.29 301.54,-962.41 291.14,-960.36 292.13,-967.29"/>
</g>
<!-- Wandering_Idle -->
<g id="node34" class="node">
<title>Wandering_Idle</title>
<polygon fill="none" stroke="black" points="163.62,-1234 22.38,-1234 22.38,-1198 163.62,-1198 163.62,-1234"/>
<text text-anchor="middle" x="93" y="-1210.58" font-family="Helvetica,sans-Serif" font-size="14.00">Wandering_Idle (Init)</text>
</g>
</g>
</svg>
