<?xml version="1.0" encoding="UTF-8" standalone="no"?>
<!DOCTYPE svg PUBLIC "-//W3C//DTD SVG 1.1//EN"
 "http://www.w3.org/Graphics/SVG/1.1/DTD/svg11.dtd">
<!-- Generated by graphviz version 12.2.1 (20241206.2353)
 -->
<!-- Title: Foo Pages: 1 -->
<svg width="378pt" height="952pt"
 viewBox="0.00 0.00 377.50 952.00" xmlns="http://www.w3.org/2000/svg" xmlns:xlink="http://www.w3.org/1999/xlink">
<g id="graph0" class="graph" transform="scale(1 1) rotate(0) translate(4 948)">
<title>Foo</title>
<polygon fill="white" stroke="none" points="-4,4 -4,-948 373.5,-948 373.5,4 -4,4"/>
<g id="clust1" class="cluster">
<title>cluster_attacksensors</title>
<polygon fill="none" stroke="black" points="8,-8 8,-510 361.5,-510 361.5,-8 8,-8"/>
<text text-anchor="middle" x="184.75" y="-492.7" font-family="Helvetica,sans-Serif" font-size="14.00">Attack Sensors</text>
</g>
<!-- Level Once Sensor -->
<g id="node1" class="node">
<title>Level Once Sensor</title>
<polygon fill="none" stroke="black" points="28.5,-23.12 28.5,-44.88 157.5,-44.88 157.5,-23.12 28.5,-23.12"/>
<text text-anchor="start" x="31.5" y="-28.57" font-family="Helvetica,sans-Serif" font-size="14.00">Level Once Sensor &#160;</text>
</g>
<!-- Level Once Sensor_linked -->
<g id="node2" class="node">
<title>Level Once Sensor_linked</title>
<polygon fill="none" stroke="black" stroke-dasharray="1,5" points="343.85,-52 287.65,-52 287.65,-16 343.85,-16 343.85,-52"/>
<text text-anchor="start" x="293.25" y="-28.57" font-family="Helvetica,sans-Serif" font-size="14.00">Attack &#160;</text>
</g>
<!-- Level Once Sensor&#45;&gt;Level Once Sensor_linked -->
<g id="edge1" class="edge">
<title>Level Once Sensor&#45;&gt;Level Once Sensor_linked</title>
<path fill="none" stroke="#66cdaa" d="M165.37,-34C202.06,-34 245.36,-34 275.87,-34"/>
<polygon fill="#66cdaa" stroke="#66cdaa" points="275.79,-37.5 285.79,-34 275.79,-30.5 275.79,-37.5"/>
<text text-anchor="middle" x="227.38" y="-36.45" font-family="Helvetica,sans-Serif" font-size="14.00" fill="#66cdaa">QueueEnd</text>
</g>
<!-- Level Once Sensor_weight -->
<g id="node3" class="node">
<title>Level Once Sensor_weight</title>
<polygon fill="none" stroke="black" stroke-dasharray="1,5" points="353.5,-106 278,-106 278,-70 353.5,-70 353.5,-106"/>
<text text-anchor="start" x="288" y="-82.58" font-family="Helvetica,sans-Serif" font-size="14.00">1 Attack &#160;</text>
</g>
<!-- Level Once Sensor&#45;&gt;Level Once Sensor_weight -->
<g id="edge2" class="edge">
<title>Level Once Sensor&#45;&gt;Level Once Sensor_weight</title>
<path fill="none" stroke="#458b74" d="M165.37,-51.46C198.54,-59.57 237.11,-69.01 266.75,-76.26"/>
<polygon fill="#458b74" stroke="#458b74" points="265.62,-79.59 276.17,-78.56 267.29,-72.79 265.62,-79.59"/>
<text text-anchor="middle" x="227.38" y="-75.97" font-family="Helvetica,sans-Serif" font-size="14.00" fill="#458b74">Weight</text>
</g>
<!-- RunAwaySensor -->
<g id="node4" class="node">
<title>RunAwaySensor</title>
<polygon fill="none" stroke="black" points="36,-77.12 36,-98.88 150,-98.88 150,-77.12 36,-77.12"/>
<text text-anchor="start" x="39" y="-82.58" font-family="Helvetica,sans-Serif" font-size="14.00">RunAwaySensor &#160;</text>
</g>
<!-- AttackSensor -->
<g id="node5" class="node">
<title>AttackSensor</title>
<polygon fill="none" stroke="black" points="46.12,-131.12 46.12,-152.88 139.88,-152.88 139.88,-131.12 46.12,-131.12"/>
<text text-anchor="start" x="49.12" y="-136.57" font-family="Helvetica,sans-Serif" font-size="14.00">AttackSensor &#160;</text>
</g>
<!-- AttackSensor_linked -->
<g id="node6" class="node">
<title>AttackSensor_linked</title>
<polygon fill="none" stroke="black" stroke-dasharray="1,5" points="343.85,-160 287.65,-160 287.65,-124 343.85,-124 343.85,-160"/>
<text text-anchor="start" x="293.25" y="-136.57" font-family="Helvetica,sans-Serif" font-size="14.00">Attack &#160;</text>
</g>
<!-- AttackSensor&#45;&gt;AttackSensor_linked -->
<g id="edge3" class="edge">
<title>AttackSensor&#45;&gt;AttackSensor_linked</title>
<path fill="none" stroke="#66cdaa" d="M147.72,-142C187.39,-142 240.46,-142 276.04,-142"/>
<polygon fill="#66cdaa" stroke="#66cdaa" points="275.87,-145.5 285.87,-142 275.87,-138.5 275.87,-145.5"/>
<text text-anchor="middle" x="227.38" y="-144.45" font-family="Helvetica,sans-Serif" font-size="14.00" fill="#66cdaa">QueueEnd</text>
</g>
<!-- AttackSensor_weight -->
<g id="node7" class="node">
<title>AttackSensor_weight</title>
<polygon fill="none" stroke="black" stroke-dasharray="1,5" points="353.5,-214 278,-214 278,-178 353.5,-178 353.5,-214"/>
<text text-anchor="start" x="288" y="-190.57" font-family="Helvetica,sans-Serif" font-size="14.00">1 Attack &#160;</text>
</g>
<!-- AttackSensor&#45;&gt;AttackSensor_weight -->
<g id="edge4" class="edge">
<title>AttackSensor&#45;&gt;AttackSensor_weight</title>
<path fill="none" stroke="#458b74" d="M147.72,-155.14C184.11,-164.04 231.77,-175.7 266.87,-184.29"/>
<polygon fill="#458b74" stroke="#458b74" points="265.77,-187.62 276.32,-186.6 267.44,-180.82 265.77,-187.62"/>
<text text-anchor="middle" x="227.38" y="-183.97" font-family="Helvetica,sans-Serif" font-size="14.00" fill="#458b74">Weight</text>
</g>
<!-- DodgePredictSensor -->
<g id="node8" class="node">
<title>DodgePredictSensor</title>
<polygon fill="none" stroke="black" points="24,-204 24,-225.75 162,-225.75 162,-204 24,-204"/>
<text text-anchor="start" x="27" y="-209.45" font-family="Helvetica,sans-Serif" font-size="14.00">DodgePredictSensor &#160;</text>
<polygon fill="none" stroke="black" points="24,-182.25 24,-204 162,-204 162,-182.25 24,-182.25"/>
<text text-anchor="start" x="27" y="-188.7" font-family="Helvetica,sans-Serif" font-size="12.00" fill="#838b8b">if: rollingCondition</text>
<text text-anchor="start" x="123.75" y="-188.7" font-family="Helvetica,sans-Serif" font-size="14.00"> &#160;</text>
</g>
<!-- DodgePredictSensor_linked -->
<g id="node9" class="node">
<title>DodgePredictSensor_linked</title>
<polygon fill="none" stroke="black" stroke-dasharray="1,5" points="343.85,-268 287.65,-268 287.65,-232 343.85,-232 343.85,-268"/>
<text text-anchor="start" x="293.25" y="-244.57" font-family="Helvetica,sans-Serif" font-size="14.00">Attack &#160;</text>
</g>
<!-- DodgePredictSensor&#45;&gt;DodgePredictSensor_linked -->
<g id="edge5" class="edge">
<title>DodgePredictSensor&#45;&gt;DodgePredictSensor_linked</title>
<path fill="none" stroke="#66cdaa" d="M169.97,-219.83C205.86,-227.31 247.15,-235.91 276.43,-242.01"/>
<polygon fill="#66cdaa" stroke="#66cdaa" points="275.42,-245.38 285.93,-243.99 276.85,-238.53 275.42,-245.38"/>
<text text-anchor="middle" x="227.38" y="-240.11" font-family="Helvetica,sans-Serif" font-size="14.00" fill="#66cdaa">QueueEnd</text>
</g>
<!-- AttackPredictSensor -->
<g id="node10" class="node">
<title>AttackPredictSensor</title>
<polygon fill="none" stroke="black" points="25.12,-274 25.12,-295.75 160.88,-295.75 160.88,-274 25.12,-274"/>
<text text-anchor="start" x="28.12" y="-279.45" font-family="Helvetica,sans-Serif" font-size="14.00">AttackPredictSensor &#160;</text>
<polygon fill="none" stroke="black" points="25.12,-252.25 25.12,-274 160.88,-274 160.88,-252.25 25.12,-252.25"/>
<text text-anchor="start" x="28.12" y="-258.7" font-family="Helvetica,sans-Serif" font-size="12.00" fill="#838b8b">if: attackCondition</text>
<text text-anchor="start" x="123.38" y="-258.7" font-family="Helvetica,sans-Serif" font-size="14.00"> &#160;</text>
</g>
<!-- AttackPredictSensor_linked -->
<g id="node11" class="node">
<title>AttackPredictSensor_linked</title>
<polygon fill="none" stroke="black" stroke-dasharray="1,5" points="343.85,-322 287.65,-322 287.65,-286 343.85,-286 343.85,-322"/>
<text text-anchor="start" x="293.25" y="-298.57" font-family="Helvetica,sans-Serif" font-size="14.00">Attack &#160;</text>
</g>
<!-- AttackPredictSensor&#45;&gt;AttackPredictSensor_linked -->
<g id="edge6" class="edge">
<title>AttackPredictSensor&#45;&gt;AttackPredictSensor_linked</title>
<path fill="none" stroke="#66cdaa" d="M168.74,-284.16C204.84,-289.06 246.65,-294.75 276.25,-298.77"/>
<polygon fill="#66cdaa" stroke="#66cdaa" points="275.48,-302.19 285.86,-300.07 276.42,-295.26 275.48,-302.19"/>
<text text-anchor="middle" x="227.38" y="-298.4" font-family="Helvetica,sans-Serif" font-size="14.00" fill="#66cdaa">QueueEnd</text>
</g>
<!-- AttackRunToSensor -->
<g id="node12" class="node">
<title>AttackRunToSensor</title>
<polygon fill="none" stroke="black" points="26.62,-344 26.62,-365.75 159.38,-365.75 159.38,-344 26.62,-344"/>
<text text-anchor="start" x="29.62" y="-349.45" font-family="Helvetica,sans-Serif" font-size="14.00">AttackRunToSensor &#160;</text>
<polygon fill="none" stroke="black" points="26.62,-322.25 26.62,-344 159.38,-344 159.38,-322.25 26.62,-322.25"/>
<text text-anchor="start" x="29.62" y="-328.7" font-family="Helvetica,sans-Serif" font-size="12.00" fill="#838b8b">if: state is Engaging</text>
<text text-anchor="start" x="133.88" y="-328.7" font-family="Helvetica,sans-Serif" font-size="14.00"> &#160;</text>
</g>
<!-- AttackRunToSensor_linked -->
<g id="node13" class="node">
<title>AttackRunToSensor_linked</title>
<polygon fill="none" stroke="black" stroke-dasharray="1,5" points="343.85,-376 287.65,-376 287.65,-340 343.85,-340 343.85,-376"/>
<text text-anchor="start" x="293.25" y="-352.57" font-family="Helvetica,sans-Serif" font-size="14.00">Attack &#160;</text>
</g>
<!-- AttackRunToSensor&#45;&gt;AttackRunToSensor_linked -->
<g id="edge7" class="edge">
<title>AttackRunToSensor&#45;&gt;AttackRunToSensor_linked</title>
<path fill="none" stroke="#66cdaa" d="M167.2,-348.64C203.54,-350.95 245.97,-353.64 275.98,-355.54"/>
<polygon fill="#66cdaa" stroke="#66cdaa" points="275.52,-359.02 285.72,-356.16 275.96,-352.03 275.52,-359.02"/>
<text text-anchor="middle" x="227.38" y="-356.7" font-family="Helvetica,sans-Serif" font-size="14.00" fill="#66cdaa">QueueEnd</text>
</g>
<!-- AttackRunToSensor_weight -->
<g id="node14" class="node">
<title>AttackRunToSensor_weight</title>
<polygon fill="none" stroke="black" stroke-dasharray="1,5" points="353.5,-430 278,-430 278,-394 353.5,-394 353.5,-430"/>
<text text-anchor="start" x="288" y="-406.57" font-family="Helvetica,sans-Serif" font-size="14.00">1 Attack &#160;</text>
</g>
<!-- AttackRunToSensor&#45;&gt;AttackRunToSensor_weight -->
<g id="edge8" class="edge">
<title>AttackRunToSensor&#45;&gt;AttackRunToSensor_weight</title>
<path fill="none" stroke="#458b74" d="M167.2,-366.55C200.03,-376.66 237.83,-388.3 266.95,-397.27"/>
<polygon fill="#458b74" stroke="#458b74" points="265.62,-400.53 276.21,-400.13 267.68,-393.84 265.62,-400.53"/>
<text text-anchor="middle" x="227.38" y="-396.21" font-family="Helvetica,sans-Serif" font-size="14.00" fill="#458b74">Weight</text>
</g>
<!-- RollSensor (1) -->
<g id="node15" class="node">
<title>RollSensor (1)</title>
<polygon fill="none" stroke="black" points="43.12,-395.12 43.12,-416.88 142.88,-416.88 142.88,-395.12 43.12,-395.12"/>
<text text-anchor="start" x="46.12" y="-400.57" font-family="Helvetica,sans-Serif" font-size="14.00">RollSensor (1) &#160;</text>
</g>
<!-- EspcaeSensor (1) -->
<g id="node16" class="node">
<title>EspcaeSensor (1)</title>
<polygon fill="none" stroke="black" points="32.25,-449.12 32.25,-470.88 153.75,-470.88 153.75,-449.12 32.25,-449.12"/>
<text text-anchor="start" x="35.25" y="-454.57" font-family="Helvetica,sans-Serif" font-size="14.00">EspcaeSensor (1) &#160;</text>
</g>
<!-- Attack -->
<g id="node17" class="node">
<title>Attack</title>
<polygon fill="none" stroke="black" points="54,-624 54,-645.75 132,-645.75 132,-624 54,-624"/>
<text text-anchor="start" x="70.5" y="-629.45" font-family="Helvetica,sans-Serif" font-size="14.00">Attack &#160;</text>
<polygon fill="none" stroke="black" points="54,-602.25 54,-624 132,-624 132,-602.25 54,-602.25"/>
<text text-anchor="start" x="57" y="-608.7" font-family="Helvetica,sans-Serif" font-size="12.00" fill="#838b8b">1.32s: Done</text>
<text text-anchor="start" x="121.5" y="-608.7" font-family="Helvetica,sans-Serif" font-size="14.00"> &#160;</text>
</g>
<!-- Engaging -->
<g id="node18" class="node">
<title>Engaging</title>
<polygon fill="none" stroke="black" points="352.25,-605 279.25,-605 279.25,-569 352.25,-569 352.25,-605"/>
<text text-anchor="middle" x="315.75" y="-581.58" font-family="Helvetica,sans-Serif" font-size="14.00">Engaging</text>
</g>
<!-- Attack&#45;&gt;Engaging -->
<g id="edge9" class="edge">
<title>Attack&#45;&gt;Engaging</title>
<path fill="none" stroke="#cdc8b1" d="M139.74,-616.33C177.16,-610.06 229.9,-601.22 267.68,-594.89"/>
<polygon fill="#cdc8b1" stroke="#cdc8b1" points="268.11,-598.37 277.4,-593.26 266.96,-591.46 268.11,-598.37"/>
</g>
<!-- AttackParrying -->
<g id="node19" class="node">
<title>AttackParrying</title>
<polygon fill="none" stroke="black" points="34.5,-554.12 34.5,-575.88 151.5,-575.88 151.5,-554.12 34.5,-554.12"/>
<text text-anchor="start" x="45.38" y="-559.58" font-family="Helvetica,sans-Serif" font-size="14.00">AttackParrying &#160;</text>
<polygon fill="none" stroke="black" points="34.5,-522.12 34.5,-554.12 151.5,-554.12 151.5,-522.12 34.5,-522.12"/>
<text text-anchor="start" x="37.5" y="-540.73" font-family="Helvetica,sans-Serif" font-size="12.00" fill="#838b8b">0.00s: EnableGravity</text>
<text text-anchor="start" x="37.5" y="-526.83" font-family="Helvetica,sans-Serif" font-size="12.00" fill="#838b8b">1.50s: Done</text>
<text text-anchor="start" x="102" y="-526.83" font-family="Helvetica,sans-Serif" font-size="14.00"> &#160;</text>
</g>
<!-- AttackParrying&#45;&gt;Engaging -->
<g id="edge10" class="edge">
<title>AttackParrying&#45;&gt;Engaging</title>
<path fill="none" stroke="#cdc8b1" d="M159.34,-560.25C194.21,-566.25 236.33,-573.5 267.91,-578.94"/>
<polygon fill="#cdc8b1" stroke="#cdc8b1" points="267.1,-582.35 277.55,-580.6 268.29,-575.45 267.1,-582.35"/>
</g>
<!-- HurtState -->
<g id="node20" class="node">
<title>HurtState</title>
<polygon fill="none" stroke="black" points="34.5,-864.12 34.5,-885.88 151.5,-885.88 151.5,-864.12 34.5,-864.12"/>
<text text-anchor="start" x="60.75" y="-869.58" font-family="Helvetica,sans-Serif" font-size="14.00">HurtState &#160;</text>
<polygon fill="none" stroke="black" points="34.5,-832.12 34.5,-864.12 151.5,-864.12 151.5,-832.12 34.5,-832.12"/>
<text text-anchor="start" x="37.5" y="-850.73" font-family="Helvetica,sans-Serif" font-size="12.00" fill="#838b8b">0.00s: EnableGravity</text>
<text text-anchor="start" x="37.5" y="-836.83" font-family="Helvetica,sans-Serif" font-size="12.00" fill="#838b8b">0.17s: Done</text>
<text text-anchor="start" x="102" y="-836.83" font-family="Helvetica,sans-Serif" font-size="14.00"> &#160;</text>
</g>
<!-- PreAttack -->
<g id="node21" class="node">
<title>PreAttack</title>
<polygon fill="none" stroke="black" points="353,-797 278.5,-797 278.5,-761 353,-761 353,-797"/>
<text text-anchor="middle" x="315.75" y="-773.58" font-family="Helvetica,sans-Serif" font-size="14.00">PreAttack</text>
</g>
<!-- HurtState&#45;&gt;PreAttack -->
<g id="edge11" class="edge">
<title>HurtState&#45;&gt;PreAttack</title>
<path fill="none" stroke="#cdc8b1" d="M159.34,-835.32C194.02,-822.75 235.87,-807.59 267.4,-796.16"/>
<polygon fill="#cdc8b1" stroke="#cdc8b1" points="268.46,-799.5 276.67,-792.8 266.08,-792.92 268.46,-799.5"/>
</g>
<!-- Hurt_BigState -->
<g id="node22" class="node">
<title>Hurt_BigState</title>
<polygon fill="none" stroke="black" points="34.5,-784.12 34.5,-805.88 151.5,-805.88 151.5,-784.12 34.5,-784.12"/>
<text text-anchor="start" x="47.25" y="-789.58" font-family="Helvetica,sans-Serif" font-size="14.00">Hurt_BigState &#160;</text>
<polygon fill="none" stroke="black" points="34.5,-752.12 34.5,-784.12 151.5,-784.12 151.5,-752.12 34.5,-752.12"/>
<text text-anchor="start" x="37.5" y="-770.73" font-family="Helvetica,sans-Serif" font-size="12.00" fill="#838b8b">0.00s: EnableGravity</text>
<text text-anchor="start" x="37.5" y="-756.83" font-family="Helvetica,sans-Serif" font-size="12.00" fill="#838b8b">1.00s: Done</text>
<text text-anchor="start" x="102" y="-756.83" font-family="Helvetica,sans-Serif" font-size="14.00"> &#160;</text>
</g>
<!-- Hurt_BigState&#45;&gt;PreAttack -->
<g id="edge12" class="edge">
<title>Hurt_BigState&#45;&gt;PreAttack</title>
<path fill="none" stroke="#cdc8b1" d="M159.34,-779C193.87,-779 235.51,-779 266.99,-779"/>
<polygon fill="#cdc8b1" stroke="#cdc8b1" points="266.58,-782.5 276.58,-779 266.58,-775.5 266.58,-782.5"/>
</g>
<!-- PostureBreak -->
<g id="node23" class="node">
<title>PostureBreak</title>
<polygon fill="none" stroke="black" points="34.5,-704.12 34.5,-725.88 151.5,-725.88 151.5,-704.12 34.5,-704.12"/>
<text text-anchor="start" x="48.38" y="-709.58" font-family="Helvetica,sans-Serif" font-size="14.00">PostureBreak &#160;</text>
<polygon fill="none" stroke="black" points="34.5,-672.12 34.5,-704.12 151.5,-704.12 151.5,-672.12 34.5,-672.12"/>
<text text-anchor="start" x="37.5" y="-690.73" font-family="Helvetica,sans-Serif" font-size="12.00" fill="#838b8b">0.00s: EnableGravity</text>
<text text-anchor="start" x="37.5" y="-676.83" font-family="Helvetica,sans-Serif" font-size="12.00" fill="#838b8b">3.50s: Done</text>
<text text-anchor="start" x="102" y="-676.83" font-family="Helvetica,sans-Serif" font-size="14.00"> &#160;</text>
</g>
<!-- PostureBreak&#45;&gt;PreAttack -->
<g id="edge13" class="edge">
<title>PostureBreak&#45;&gt;PreAttack</title>
<path fill="none" stroke="#cdc8b1" d="M159.34,-722.68C194.02,-735.25 235.87,-750.41 267.4,-761.84"/>
<polygon fill="#cdc8b1" stroke="#cdc8b1" points="266.08,-765.08 276.67,-765.2 268.46,-758.5 266.08,-765.08"/>
</g>
<!-- Wandering_Walking -->
<g id="node24" class="node">
<title>Wandering_Walking</title>
<polygon fill="none" stroke="black" points="176.75,-944 9.25,-944 9.25,-908 176.75,-908 176.75,-944"/>
<text text-anchor="middle" x="93" y="-920.58" font-family="Helvetica,sans-Serif" font-size="14.00">Wandering_Walking (Init)</text>
</g>
</g>
</svg>
