<?xml version="1.0" encoding="UTF-8" standalone="no"?>
<!DOCTYPE svg PUBLIC "-//W3C//DTD SVG 1.1//EN"
 "http://www.w3.org/Graphics/SVG/1.1/DTD/svg11.dtd">
<!-- Generated by graphviz version 12.2.1 (20241206.2353)
 -->
<!-- Title: Foo Pages: 1 -->
<svg width="396pt" height="1035pt"
 viewBox="0.00 0.00 395.50 1034.88" xmlns="http://www.w3.org/2000/svg" xmlns:xlink="http://www.w3.org/1999/xlink">
<g id="graph0" class="graph" transform="scale(1 1) rotate(0) translate(4 1030.88)">
<title>Foo</title>
<polygon fill="white" stroke="none" points="-4,4 -4,-1030.88 391.5,-1030.88 391.5,4 -4,4"/>
<g id="clust1" class="cluster">
<title>cluster_attacksensors</title>
<polygon fill="none" stroke="black" points="8,-552.88 8,-1018.88 379.5,-1018.88 379.5,-552.88 8,-552.88"/>
<text text-anchor="middle" x="193.75" y="-1001.58" font-family="Helvetica,sans-Serif" font-size="14.00">Attack Sensors</text>
</g>
<!-- Attack -->
<g id="node1" class="node">
<title>Attack</title>
<polygon fill="none" stroke="black" points="36.75,-464 36.75,-485.75 149.25,-485.75 149.25,-464 36.75,-464"/>
<text text-anchor="start" x="70.5" y="-469.45" font-family="Helvetica,sans-Serif" font-size="14.00">Attack &#160;</text>
<polygon fill="none" stroke="black" points="36.75,-408 36.75,-464 149.25,-464 149.25,-408 36.75,-408"/>
<text text-anchor="start" x="39.75" y="-450.6" font-family="Helvetica,sans-Serif" font-size="12.00" fill="#838b8b">0.25s: CheckFacing</text>
<text text-anchor="start" x="39.75" y="-438.6" font-family="Helvetica,sans-Serif" font-size="12.00" fill="#838b8b">0.47s: QTE</text>
<text text-anchor="start" x="39.75" y="-426.6" font-family="Helvetica,sans-Serif" font-size="12.00" fill="#838b8b">0.83s: QTE</text>
<text text-anchor="start" x="39.75" y="-412.7" font-family="Helvetica,sans-Serif" font-size="12.00" fill="#838b8b">2.00s: Done</text>
<text text-anchor="start" x="104.25" y="-412.7" font-family="Helvetica,sans-Serif" font-size="14.00"> &#160;</text>
</g>
<!-- PreAttack -->
<g id="node2" class="node">
<title>PreAttack</title>
<polygon fill="none" stroke="black" points="358.62,-230.88 284.12,-230.88 284.12,-194.88 358.62,-194.88 358.62,-230.88"/>
<text text-anchor="middle" x="321.38" y="-207.45" font-family="Helvetica,sans-Serif" font-size="14.00">PreAttack</text>
</g>
<!-- Attack&#45;&gt;PreAttack -->
<g id="edge1" class="edge">
<title>Attack&#45;&gt;PreAttack</title>
<path fill="none" stroke="#cdc8b1" d="M156.89,-405.96C161.45,-402.36 165.87,-398.65 170,-394.88 223.34,-346.16 274.51,-278.25 301.22,-240.67"/>
<polygon fill="#cdc8b1" stroke="#cdc8b1" points="304.01,-242.79 306.9,-232.6 298.28,-238.76 304.01,-242.79"/>
</g>
<!-- Attack 2 -->
<g id="node3" class="node">
<title>Attack 2</title>
<polygon fill="none" stroke="black" points="36.75,-360 36.75,-381.75 149.25,-381.75 149.25,-360 36.75,-360"/>
<text text-anchor="start" x="64.88" y="-365.45" font-family="Helvetica,sans-Serif" font-size="14.00">Attack 2 &#160;</text>
<polygon fill="none" stroke="black" points="36.75,-304 36.75,-360 149.25,-360 149.25,-304 36.75,-304"/>
<text text-anchor="start" x="39.75" y="-346.6" font-family="Helvetica,sans-Serif" font-size="12.00" fill="#838b8b">0.25s: CheckFacing</text>
<text text-anchor="start" x="39.75" y="-334.6" font-family="Helvetica,sans-Serif" font-size="12.00" fill="#838b8b">0.58s: QTE</text>
<text text-anchor="start" x="39.75" y="-322.6" font-family="Helvetica,sans-Serif" font-size="12.00" fill="#838b8b">0.92s: QTE</text>
<text text-anchor="start" x="39.75" y="-308.7" font-family="Helvetica,sans-Serif" font-size="12.00" fill="#838b8b">2.00s: Done</text>
<text text-anchor="start" x="104.25" y="-308.7" font-family="Helvetica,sans-Serif" font-size="14.00"> &#160;</text>
</g>
<!-- Attack 2&#45;&gt;PreAttack -->
<g id="edge2" class="edge">
<title>Attack 2&#45;&gt;PreAttack</title>
<path fill="none" stroke="#cdc8b1" d="M157.06,-306.66C195.88,-284.37 244.55,-256.42 278.62,-236.85"/>
<polygon fill="#cdc8b1" stroke="#cdc8b1" points="280.02,-240.09 286.95,-232.07 276.53,-234.02 280.02,-240.09"/>
</g>
<!-- AttackParrying -->
<g id="node4" class="node">
<title>AttackParrying</title>
<polygon fill="none" stroke="black" points="42.38,-256 42.38,-277.75 143.62,-277.75 143.62,-256 42.38,-256"/>
<text text-anchor="start" x="45.38" y="-261.45" font-family="Helvetica,sans-Serif" font-size="14.00">AttackParrying &#160;</text>
<polygon fill="none" stroke="black" points="42.38,-224 42.38,-256 143.62,-256 143.62,-224 42.38,-224"/>
<text text-anchor="start" x="45.38" y="-242.6" font-family="Helvetica,sans-Serif" font-size="12.00" fill="#838b8b">0.30s: QTE</text>
<text text-anchor="start" x="45.38" y="-228.7" font-family="Helvetica,sans-Serif" font-size="12.00" fill="#838b8b">0.92s: Done</text>
<text text-anchor="start" x="109.88" y="-228.7" font-family="Helvetica,sans-Serif" font-size="14.00"> &#160;</text>
</g>
<!-- AttackParrying&#45;&gt;PreAttack -->
<g id="edge3" class="edge">
<title>AttackParrying&#45;&gt;PreAttack</title>
<path fill="none" stroke="#cdc8b1" d="M151.42,-241.24C189,-234.93 237.53,-226.78 272.93,-220.84"/>
<polygon fill="#cdc8b1" stroke="#cdc8b1" points="273.15,-224.35 282.43,-219.24 271.99,-217.45 273.15,-224.35"/>
</g>
<!-- HurtState -->
<g id="node5" class="node">
<title>HurtState</title>
<polygon fill="none" stroke="black" points="54,-175.88 54,-197.62 132,-197.62 132,-175.88 54,-175.88"/>
<text text-anchor="start" x="60.75" y="-181.32" font-family="Helvetica,sans-Serif" font-size="14.00">HurtState &#160;</text>
<polygon fill="none" stroke="black" points="54,-154.12 54,-175.88 132,-175.88 132,-154.12 54,-154.12"/>
<text text-anchor="start" x="57" y="-160.57" font-family="Helvetica,sans-Serif" font-size="12.00" fill="#838b8b">0.25s: Done</text>
<text text-anchor="start" x="121.5" y="-160.57" font-family="Helvetica,sans-Serif" font-size="14.00"> &#160;</text>
</g>
<!-- HurtState&#45;&gt;PreAttack -->
<g id="edge4" class="edge">
<title>HurtState&#45;&gt;PreAttack</title>
<path fill="none" stroke="#cdc8b1" d="M139.81,-183.36C178.41,-189.67 233.46,-198.67 272.6,-205.07"/>
<polygon fill="#cdc8b1" stroke="#cdc8b1" points="272.03,-208.52 282.46,-206.68 273.15,-201.61 272.03,-208.52"/>
</g>
<!-- Hurt_BigState -->
<g id="node6" class="node">
<title>Hurt_BigState</title>
<polygon fill="none" stroke="black" points="44.25,-105.88 44.25,-127.62 141.75,-127.62 141.75,-105.88 44.25,-105.88"/>
<text text-anchor="start" x="47.25" y="-111.33" font-family="Helvetica,sans-Serif" font-size="14.00">Hurt_BigState &#160;</text>
<polygon fill="none" stroke="black" points="44.25,-84.12 44.25,-105.88 141.75,-105.88 141.75,-84.12 44.25,-84.12"/>
<text text-anchor="start" x="47.25" y="-90.58" font-family="Helvetica,sans-Serif" font-size="12.00" fill="#838b8b">1.00s: Done</text>
<text text-anchor="start" x="111.75" y="-90.58" font-family="Helvetica,sans-Serif" font-size="14.00"> &#160;</text>
</g>
<!-- Hurt_BigState&#45;&gt;PreAttack -->
<g id="edge5" class="edge">
<title>Hurt_BigState&#45;&gt;PreAttack</title>
<path fill="none" stroke="#cdc8b1" d="M149.66,-131.39C156.52,-134.57 163.43,-137.79 170,-140.88 204.8,-157.22 243.98,-175.99 273.61,-190.26"/>
<polygon fill="#cdc8b1" stroke="#cdc8b1" points="271.79,-193.27 282.31,-194.46 274.83,-186.96 271.79,-193.27"/>
</g>
<!-- PostureBreak -->
<g id="node7" class="node">
<title>PostureBreak</title>
<polygon fill="none" stroke="black" points="34.5,-36 34.5,-57.75 151.5,-57.75 151.5,-36 34.5,-36"/>
<text text-anchor="start" x="48.38" y="-41.45" font-family="Helvetica,sans-Serif" font-size="14.00">PostureBreak &#160;</text>
<polygon fill="none" stroke="black" points="34.5,-4 34.5,-36 151.5,-36 151.5,-4 34.5,-4"/>
<text text-anchor="start" x="37.5" y="-22.6" font-family="Helvetica,sans-Serif" font-size="12.00" fill="#838b8b">0.00s: EnableGravity</text>
<text text-anchor="start" x="37.5" y="-8.7" font-family="Helvetica,sans-Serif" font-size="12.00" fill="#838b8b">3.50s: Done</text>
<text text-anchor="start" x="102" y="-8.7" font-family="Helvetica,sans-Serif" font-size="14.00"> &#160;</text>
</g>
<!-- PostureBreak&#45;&gt;PreAttack -->
<g id="edge6" class="edge">
<title>PostureBreak&#45;&gt;PreAttack</title>
<path fill="none" stroke="#cdc8b1" d="M155.78,-61.65C160.69,-64.62 165.49,-67.7 170,-70.88 219.21,-105.43 268.39,-155.54 296.52,-186.07"/>
<polygon fill="#cdc8b1" stroke="#cdc8b1" points="293.87,-188.36 303.19,-193.39 299.04,-183.64 293.87,-188.36"/>
</g>
<!-- Wandering_Idle -->
<g id="node8" class="node">
<title>Wandering_Idle</title>
<polygon fill="none" stroke="black" points="163.62,-543.88 22.38,-543.88 22.38,-507.88 163.62,-507.88 163.62,-543.88"/>
<text text-anchor="middle" x="93" y="-520.45" font-family="Helvetica,sans-Serif" font-size="14.00">Wandering_Idle (Init)</text>
</g>
<!-- Level Once Sensor -->
<g id="node9" class="node">
<title>Level Once Sensor</title>
<polygon fill="none" stroke="black" points="158.75,-597.88 27.25,-597.88 27.25,-561.88 158.75,-561.88 158.75,-597.88"/>
<text text-anchor="middle" x="93" y="-574.45" font-family="Helvetica,sans-Serif" font-size="14.00">Level Once Sensor</text>
</g>
<!-- Level Once Sensor_linked -->
<g id="node10" class="node">
<title>Level Once Sensor_linked</title>
<polygon fill="none" stroke="black" stroke-dasharray="1,5" points="349.48,-596.88 293.27,-596.88 293.27,-560.88 349.48,-560.88 349.48,-596.88"/>
<text text-anchor="start" x="298.88" y="-573.45" font-family="Helvetica,sans-Serif" font-size="14.00">Attack &#160;</text>
</g>
<!-- Level Once Sensor&#45;&gt;Level Once Sensor_linked -->
<g id="edge7" class="edge">
<title>Level Once Sensor&#45;&gt;Level Once Sensor_linked</title>
<path fill="none" stroke="#66cdaa" d="M159.17,-579.59C198.9,-579.41 248.31,-579.19 281.88,-579.05"/>
<polygon fill="#66cdaa" stroke="#66cdaa" points="281.56,-582.55 291.54,-579 281.53,-575.55 281.56,-582.55"/>
<text text-anchor="middle" x="220.62" y="-581.88" font-family="Helvetica,sans-Serif" font-size="14.00" fill="#66cdaa">QueueEnd</text>
</g>
<!-- Level Once Sensor_mustuse -->
<g id="node11" class="node">
<title>Level Once Sensor_mustuse</title>
<polygon fill="none" stroke="black" stroke-dasharray="1,5" points="371.5,-650.88 271.25,-650.88 271.25,-614.88 371.5,-614.88 371.5,-650.88"/>
<text text-anchor="start" x="281.25" y="-627.45" font-family="Helvetica,sans-Serif" font-size="14.00">1 Undefined &#160;</text>
</g>
<!-- Level Once Sensor&#45;&gt;Level Once Sensor_mustuse -->
<g id="edge8" class="edge">
<title>Level Once Sensor&#45;&gt;Level Once Sensor_mustuse</title>
<path fill="none" stroke="#458b74" d="M159.17,-595.13C190.93,-602.57 228.88,-611.45 259.98,-618.73"/>
<polygon fill="#458b74" stroke="#458b74" points="259.09,-622.12 269.63,-620.99 260.69,-615.31 259.09,-622.12"/>
<text text-anchor="middle" x="220.62" y="-618.18" font-family="Helvetica,sans-Serif" font-size="14.00" fill="#458b74">Weight</text>
</g>
<!-- RunAwaySensor -->
<g id="node12" class="node">
<title>RunAwaySensor</title>
<polygon fill="none" stroke="black" points="151.25,-651.88 34.75,-651.88 34.75,-615.88 151.25,-615.88 151.25,-651.88"/>
<text text-anchor="middle" x="93" y="-628.45" font-family="Helvetica,sans-Serif" font-size="14.00">RunAwaySensor</text>
</g>
<!-- AttackSensor -->
<g id="node13" class="node">
<title>AttackSensor</title>
<polygon fill="none" stroke="black" points="34.12,-695.88 34.12,-717.62 151.88,-717.62 151.88,-695.88 34.12,-695.88"/>
<text text-anchor="start" x="49.12" y="-701.33" font-family="Helvetica,sans-Serif" font-size="14.00">AttackSensor &#160;</text>
<polygon fill="none" stroke="black" points="34.12,-674.12 34.12,-695.88 151.88,-695.88 151.88,-674.12 34.12,-674.12"/>
<text text-anchor="start" x="37.12" y="-680.58" font-family="Helvetica,sans-Serif" font-size="12.00" fill="#838b8b">if: state is PreAttack</text>
<text text-anchor="start" x="141.38" y="-680.58" font-family="Helvetica,sans-Serif" font-size="14.00"> &#160;</text>
</g>
<!-- AttackSensor_linked -->
<g id="node14" class="node">
<title>AttackSensor_linked</title>
<polygon fill="none" stroke="black" stroke-dasharray="1,5" points="349.48,-704.88 293.27,-704.88 293.27,-668.88 349.48,-668.88 349.48,-704.88"/>
<text text-anchor="start" x="298.88" y="-681.45" font-family="Helvetica,sans-Serif" font-size="14.00">Attack &#160;</text>
</g>
<!-- AttackSensor&#45;&gt;AttackSensor_linked -->
<g id="edge9" class="edge">
<title>AttackSensor&#45;&gt;AttackSensor_linked</title>
<path fill="none" stroke="#66cdaa" d="M159.78,-693.26C199.37,-691.69 248.4,-689.74 281.8,-688.41"/>
<polygon fill="#66cdaa" stroke="#66cdaa" points="281.55,-691.92 291.41,-688.03 281.27,-684.93 281.55,-691.92"/>
<text text-anchor="middle" x="220.62" y="-694.36" font-family="Helvetica,sans-Serif" font-size="14.00" fill="#66cdaa">QueueEnd</text>
</g>
<!-- AttackSensor_mustuse -->
<g id="node15" class="node">
<title>AttackSensor_mustuse</title>
<polygon fill="none" stroke="black" stroke-dasharray="1,5" points="371.5,-770.62 271.25,-770.62 271.25,-723.12 371.5,-723.12 371.5,-770.62"/>
<text text-anchor="start" x="281.25" y="-751.33" font-family="Helvetica,sans-Serif" font-size="14.00">1 Undefined &#160;</text>
<text text-anchor="start" x="281.25" y="-731.58" font-family="Helvetica,sans-Serif" font-size="14.00">1 Undefined &#160;</text>
</g>
<!-- AttackSensor&#45;&gt;AttackSensor_mustuse -->
<g id="edge10" class="edge">
<title>AttackSensor&#45;&gt;AttackSensor_mustuse</title>
<path fill="none" stroke="#458b74" d="M159.78,-710.69C191.41,-717.82 229.06,-726.3 259.95,-733.26"/>
<polygon fill="#458b74" stroke="#458b74" points="259,-736.64 269.53,-735.42 260.54,-729.81 259,-736.64"/>
<text text-anchor="middle" x="220.62" y="-732.83" font-family="Helvetica,sans-Serif" font-size="14.00" fill="#458b74">Weight</text>
</g>
<!-- DodgePredictSensor -->
<g id="node16" class="node">
<title>DodgePredictSensor</title>
<polygon fill="none" stroke="black" points="24,-766.88 24,-788.62 162,-788.62 162,-766.88 24,-766.88"/>
<text text-anchor="start" x="27" y="-772.33" font-family="Helvetica,sans-Serif" font-size="14.00">DodgePredictSensor &#160;</text>
<polygon fill="none" stroke="black" points="24,-745.12 24,-766.88 162,-766.88 162,-745.12 24,-745.12"/>
<text text-anchor="start" x="27" y="-751.58" font-family="Helvetica,sans-Serif" font-size="12.00" fill="#838b8b">if: Dodge</text>
<text text-anchor="start" x="75" y="-751.58" font-family="Helvetica,sans-Serif" font-size="14.00"> &#160;</text>
</g>
<!-- DodgePredictSensor_linked -->
<g id="node17" class="node">
<title>DodgePredictSensor_linked</title>
<polygon fill="none" stroke="black" stroke-dasharray="1,5" points="349.48,-824.88 293.27,-824.88 293.27,-788.88 349.48,-788.88 349.48,-824.88"/>
<text text-anchor="start" x="298.88" y="-801.45" font-family="Helvetica,sans-Serif" font-size="14.00">Attack &#160;</text>
</g>
<!-- DodgePredictSensor&#45;&gt;DodgePredictSensor_linked -->
<g id="edge11" class="edge">
<title>DodgePredictSensor&#45;&gt;DodgePredictSensor_linked</title>
<path fill="none" stroke="#66cdaa" d="M169.69,-780.25C207.31,-786.9 251.14,-794.64 281.8,-800.06"/>
<polygon fill="#66cdaa" stroke="#66cdaa" points="280.92,-803.46 291.38,-801.75 282.14,-796.56 280.92,-803.46"/>
<text text-anchor="middle" x="220.62" y="-796.39" font-family="Helvetica,sans-Serif" font-size="14.00" fill="#66cdaa">QueueEnd</text>
</g>
<!-- AttackPredictSensor -->
<g id="node18" class="node">
<title>AttackPredictSensor</title>
<polygon fill="none" stroke="black" points="25.12,-836.88 25.12,-858.62 160.88,-858.62 160.88,-836.88 25.12,-836.88"/>
<text text-anchor="start" x="28.12" y="-842.33" font-family="Helvetica,sans-Serif" font-size="14.00">AttackPredictSensor &#160;</text>
<polygon fill="none" stroke="black" points="25.12,-815.12 25.12,-836.88 160.88,-836.88 160.88,-815.12 25.12,-815.12"/>
<text text-anchor="start" x="28.12" y="-821.58" font-family="Helvetica,sans-Serif" font-size="12.00" fill="#838b8b">if: Attack</text>
<text text-anchor="start" x="73.12" y="-821.58" font-family="Helvetica,sans-Serif" font-size="14.00"> &#160;</text>
</g>
<!-- AttackPredictSensor_linked -->
<g id="node19" class="node">
<title>AttackPredictSensor_linked</title>
<polygon fill="none" stroke="black" stroke-dasharray="1,5" points="349.48,-878.88 293.27,-878.88 293.27,-842.88 349.48,-842.88 349.48,-878.88"/>
<text text-anchor="start" x="298.88" y="-855.45" font-family="Helvetica,sans-Serif" font-size="14.00">Attack &#160;</text>
</g>
<!-- AttackPredictSensor&#45;&gt;AttackPredictSensor_linked -->
<g id="edge12" class="edge">
<title>AttackPredictSensor&#45;&gt;AttackPredictSensor_linked</title>
<path fill="none" stroke="#66cdaa" d="M168.75,-844.8C206.55,-848.81 250.84,-853.5 281.75,-856.78"/>
<polygon fill="#66cdaa" stroke="#66cdaa" points="281.09,-860.23 291.4,-857.8 281.83,-853.27 281.09,-860.23"/>
<text text-anchor="middle" x="220.62" y="-855.56" font-family="Helvetica,sans-Serif" font-size="14.00" fill="#66cdaa">QueueEnd</text>
</g>
<!-- AttackRunToSensor -->
<g id="node20" class="node">
<title>AttackRunToSensor</title>
<polygon fill="none" stroke="black" points="26.62,-906.88 26.62,-928.62 159.38,-928.62 159.38,-906.88 26.62,-906.88"/>
<text text-anchor="start" x="29.62" y="-912.33" font-family="Helvetica,sans-Serif" font-size="14.00">AttackRunToSensor &#160;</text>
<polygon fill="none" stroke="black" points="26.62,-885.12 26.62,-906.88 159.38,-906.88 159.38,-885.12 26.62,-885.12"/>
<text text-anchor="start" x="29.62" y="-891.58" font-family="Helvetica,sans-Serif" font-size="12.00" fill="#838b8b">if: state is Engaging</text>
<text text-anchor="start" x="133.88" y="-891.58" font-family="Helvetica,sans-Serif" font-size="14.00"> &#160;</text>
</g>
<!-- AttackRunToSensor_linked -->
<g id="node21" class="node">
<title>AttackRunToSensor_linked</title>
<polygon fill="none" stroke="black" stroke-dasharray="1,5" points="349.48,-932.88 293.27,-932.88 293.27,-896.88 349.48,-896.88 349.48,-932.88"/>
<text text-anchor="start" x="298.88" y="-909.45" font-family="Helvetica,sans-Serif" font-size="14.00">Attack &#160;</text>
</g>
<!-- AttackRunToSensor&#45;&gt;AttackRunToSensor_linked -->
<g id="edge13" class="edge">
<title>AttackRunToSensor&#45;&gt;AttackRunToSensor_linked</title>
<path fill="none" stroke="#66cdaa" d="M167.18,-909.46C205.21,-910.81 250.16,-912.39 281.49,-913.5"/>
<polygon fill="#66cdaa" stroke="#66cdaa" points="281.16,-916.99 291.28,-913.85 281.41,-910 281.16,-916.99"/>
<text text-anchor="middle" x="220.62" y="-914.74" font-family="Helvetica,sans-Serif" font-size="14.00" fill="#66cdaa">QueueEnd</text>
</g>
<!-- TouchSensor -->
<g id="node22" class="node">
<title>TouchSensor</title>
<polygon fill="none" stroke="black" points="140.38,-986.88 45.62,-986.88 45.62,-950.88 140.38,-950.88 140.38,-986.88"/>
<text text-anchor="middle" x="93" y="-963.45" font-family="Helvetica,sans-Serif" font-size="14.00">TouchSensor</text>
</g>
<!-- TouchSensor_linked -->
<g id="node23" class="node">
<title>TouchSensor_linked</title>
<polygon fill="none" stroke="black" stroke-dasharray="1,5" points="349.48,-986.88 293.27,-986.88 293.27,-950.88 349.48,-950.88 349.48,-986.88"/>
<text text-anchor="start" x="298.88" y="-963.45" font-family="Helvetica,sans-Serif" font-size="14.00">Attack &#160;</text>
</g>
<!-- TouchSensor&#45;&gt;TouchSensor_linked -->
<g id="edge14" class="edge">
<title>TouchSensor&#45;&gt;TouchSensor_linked</title>
<path fill="none" stroke="#66cdaa" d="M140.63,-968.88C182.27,-968.88 242.55,-968.88 281.6,-968.88"/>
<polygon fill="#66cdaa" stroke="#66cdaa" points="281.48,-972.38 291.48,-968.88 281.48,-965.38 281.48,-972.38"/>
<text text-anchor="middle" x="220.62" y="-971.33" font-family="Helvetica,sans-Serif" font-size="14.00" fill="#66cdaa">QueueEnd</text>
</g>
</g>
</svg>
