<?xml version="1.0" encoding="UTF-8" standalone="no"?>
<!DOCTYPE svg PUBLIC "-//W3C//DTD SVG 1.1//EN"
 "http://www.w3.org/Graphics/SVG/1.1/DTD/svg11.dtd">
<!-- Generated by graphviz version 12.2.1 (20241206.2353)
 -->
<!-- Title: Foo Pages: 1 -->
<svg width="431pt" height="1155pt"
 viewBox="0.00 0.00 430.95 1155.00" xmlns="http://www.w3.org/2000/svg" xmlns:xlink="http://www.w3.org/1999/xlink">
<g id="graph0" class="graph" transform="scale(1 1) rotate(0) translate(4 1151)">
<title>Foo</title>
<polygon fill="white" stroke="none" points="-4,4 -4,-1151 426.95,-1151 426.95,4 -4,4"/>
<g id="clust1" class="cluster">
<title>cluster_attacksensors</title>
<polygon fill="none" stroke="black" points="8,-8 8,-580 414.95,-580 414.95,-8 8,-8"/>
<text text-anchor="middle" x="211.47" y="-562.7" font-family="Helvetica,sans-Serif" font-size="14.00">Attack Sensors</text>
</g>
<!-- Level Once Sensor -->
<g id="node1" class="node">
<title>Level Once Sensor</title>
<polygon fill="none" stroke="black" points="29.62,-23.12 29.62,-44.88 158.62,-44.88 158.62,-23.12 29.62,-23.12"/>
<text text-anchor="start" x="32.62" y="-28.57" font-family="Helvetica,sans-Serif" font-size="14.00">Level Once Sensor &#160;</text>
</g>
<!-- Level Once Sensor_linked -->
<g id="node2" class="node">
<title>Level Once Sensor_linked</title>
<polygon fill="none" stroke="black" stroke-dasharray="1,5" points="406.95,-52 273.5,-52 273.5,-16 406.95,-16 406.95,-52"/>
<text text-anchor="start" x="279.1" y="-28.57" font-family="Helvetica,sans-Serif" font-size="14.00">DelayDoubleAttack &#160;</text>
</g>
<!-- Level Once Sensor&#45;&gt;Level Once Sensor_linked -->
<g id="edge1" class="edge">
<title>Level Once Sensor&#45;&gt;Level Once Sensor_linked</title>
<path fill="none" stroke="#66cdaa" d="M166.39,-34C196.33,-34 231.25,-34 261.82,-34"/>
<polygon fill="#66cdaa" stroke="#66cdaa" points="261.8,-37.5 271.8,-34 261.8,-30.5 261.8,-37.5"/>
<text text-anchor="middle" x="222.88" y="-36.45" font-family="Helvetica,sans-Serif" font-size="14.00" fill="#66cdaa">QueueEnd</text>
</g>
<!-- RunAwaySensor -->
<g id="node3" class="node">
<title>RunAwaySensor</title>
<polygon fill="none" stroke="black" points="37.12,-77.12 37.12,-98.88 151.12,-98.88 151.12,-77.12 37.12,-77.12"/>
<text text-anchor="start" x="40.12" y="-82.58" font-family="Helvetica,sans-Serif" font-size="14.00">RunAwaySensor &#160;</text>
</g>
<!-- AttackSensor -->
<g id="node4" class="node">
<title>AttackSensor</title>
<polygon fill="none" stroke="black" points="47.25,-131.12 47.25,-152.88 141,-152.88 141,-131.12 47.25,-131.12"/>
<text text-anchor="start" x="50.25" y="-136.57" font-family="Helvetica,sans-Serif" font-size="14.00">AttackSensor &#160;</text>
</g>
<!-- AttackSensor_linked -->
<g id="node5" class="node">
<title>AttackSensor_linked</title>
<polygon fill="none" stroke="black" stroke-dasharray="1,5" points="406.95,-168.1 273.5,-168.1 273.5,-81.9 406.95,-81.9 406.95,-168.1"/>
<text text-anchor="start" x="279.1" y="-149.2" font-family="Helvetica,sans-Serif" font-size="14.00">DelayDoubleAttack &#160;</text>
<text text-anchor="start" x="299.73" y="-129.45" font-family="Helvetica,sans-Serif" font-size="14.00">RollThrough &#160;</text>
<text text-anchor="start" x="296.35" y="-109.7" font-family="Helvetica,sans-Serif" font-size="14.00">DoubleAttack &#160;</text>
<text text-anchor="start" x="279.1" y="-89.95" font-family="Helvetica,sans-Serif" font-size="14.00">DelayDoubleAttack &#160;</text>
</g>
<!-- AttackSensor&#45;&gt;AttackSensor_linked -->
<g id="edge2" class="edge">
<title>AttackSensor&#45;&gt;AttackSensor_linked</title>
<path fill="none" stroke="#66cdaa" d="M149,-138.25C182.2,-135.94 225.33,-132.93 262.12,-130.37"/>
<polygon fill="#66cdaa" stroke="#66cdaa" points="262.07,-133.88 271.81,-129.7 261.59,-126.9 262.07,-133.88"/>
<text text-anchor="middle" x="222.88" y="-137.47" font-family="Helvetica,sans-Serif" font-size="14.00" fill="#66cdaa">QueueEnd</text>
</g>
<!-- DodgePredictSensor -->
<g id="node6" class="node">
<title>DodgePredictSensor</title>
<polygon fill="none" stroke="black" points="25.12,-204 25.12,-225.75 163.12,-225.75 163.12,-204 25.12,-204"/>
<text text-anchor="start" x="28.12" y="-209.45" font-family="Helvetica,sans-Serif" font-size="14.00">DodgePredictSensor &#160;</text>
<polygon fill="none" stroke="black" points="25.12,-182.25 25.12,-204 163.12,-204 163.12,-182.25 25.12,-182.25"/>
<text text-anchor="start" x="28.12" y="-188.7" font-family="Helvetica,sans-Serif" font-size="12.00" fill="#838b8b">if: rollingCondition</text>
<text text-anchor="start" x="124.88" y="-188.7" font-family="Helvetica,sans-Serif" font-size="14.00"> &#160;</text>
</g>
<!-- DodgePredictSensor_linked -->
<g id="node7" class="node">
<title>DodgePredictSensor_linked</title>
<polygon fill="none" stroke="black" stroke-dasharray="1,5" points="406.95,-222 273.5,-222 273.5,-186 406.95,-186 406.95,-222"/>
<text text-anchor="start" x="279.1" y="-198.57" font-family="Helvetica,sans-Serif" font-size="14.00">DelayDoubleAttack &#160;</text>
</g>
<!-- DodgePredictSensor&#45;&gt;DodgePredictSensor_linked -->
<g id="edge3" class="edge">
<title>DodgePredictSensor&#45;&gt;DodgePredictSensor_linked</title>
<path fill="none" stroke="#66cdaa" d="M171.02,-204C199.93,-204 232.9,-204 261.94,-204"/>
<polygon fill="#66cdaa" stroke="#66cdaa" points="261.76,-207.5 271.76,-204 261.76,-200.5 261.76,-207.5"/>
<text text-anchor="middle" x="222.88" y="-206.45" font-family="Helvetica,sans-Serif" font-size="14.00" fill="#66cdaa">QueueEnd</text>
</g>
<!-- AttackPredictSensor -->
<g id="node8" class="node">
<title>AttackPredictSensor</title>
<polygon fill="none" stroke="black" points="26.25,-274 26.25,-295.75 162,-295.75 162,-274 26.25,-274"/>
<text text-anchor="start" x="29.25" y="-279.45" font-family="Helvetica,sans-Serif" font-size="14.00">AttackPredictSensor &#160;</text>
<polygon fill="none" stroke="black" points="26.25,-252.25 26.25,-274 162,-274 162,-252.25 26.25,-252.25"/>
<text text-anchor="start" x="29.25" y="-258.7" font-family="Helvetica,sans-Serif" font-size="12.00" fill="#838b8b">if: attackCondition</text>
<text text-anchor="start" x="124.5" y="-258.7" font-family="Helvetica,sans-Serif" font-size="14.00"> &#160;</text>
</g>
<!-- AttackPredictSensor_linked -->
<g id="node9" class="node">
<title>AttackPredictSensor_linked</title>
<polygon fill="none" stroke="black" stroke-dasharray="1,5" points="406.95,-276 273.5,-276 273.5,-240 406.95,-240 406.95,-276"/>
<text text-anchor="start" x="279.1" y="-252.57" font-family="Helvetica,sans-Serif" font-size="14.00">DelayDoubleAttack &#160;</text>
</g>
<!-- AttackPredictSensor&#45;&gt;AttackPredictSensor_linked -->
<g id="edge4" class="edge">
<title>AttackPredictSensor&#45;&gt;AttackPredictSensor_linked</title>
<path fill="none" stroke="#66cdaa" d="M169.69,-269.11C199.03,-267.19 232.71,-264.98 262.28,-263.04"/>
<polygon fill="#66cdaa" stroke="#66cdaa" points="262.13,-266.56 271.88,-262.41 261.67,-259.58 262.13,-266.56"/>
<text text-anchor="middle" x="222.88" y="-269.88" font-family="Helvetica,sans-Serif" font-size="14.00" fill="#66cdaa">QueueEnd</text>
</g>
<!-- AttackPredictSensor_weight -->
<g id="node10" class="node">
<title>AttackPredictSensor_weight</title>
<polygon fill="none" stroke="black" stroke-dasharray="1,5" points="396.35,-330 284.1,-330 284.1,-294 396.35,-294 396.35,-330"/>
<text text-anchor="start" x="294.1" y="-306.57" font-family="Helvetica,sans-Serif" font-size="14.00">1 RollThrough &#160;</text>
</g>
<!-- AttackPredictSensor&#45;&gt;AttackPredictSensor_weight -->
<g id="edge5" class="edge">
<title>AttackPredictSensor&#45;&gt;AttackPredictSensor_weight</title>
<path fill="none" stroke="#458b74" d="M169.69,-285.61C202.55,-290.72 240.85,-296.69 272.72,-301.65"/>
<polygon fill="#458b74" stroke="#458b74" points="271.8,-305.05 282.22,-303.13 272.87,-298.13 271.8,-305.05"/>
<text text-anchor="middle" x="222.88" y="-301.07" font-family="Helvetica,sans-Serif" font-size="14.00" fill="#458b74">Weight</text>
</g>
<!-- AttackRunToSensor -->
<g id="node11" class="node">
<title>AttackRunToSensor</title>
<polygon fill="none" stroke="black" points="27.75,-344 27.75,-365.75 160.5,-365.75 160.5,-344 27.75,-344"/>
<text text-anchor="start" x="30.75" y="-349.45" font-family="Helvetica,sans-Serif" font-size="14.00">AttackRunToSensor &#160;</text>
<polygon fill="none" stroke="black" points="27.75,-322.25 27.75,-344 160.5,-344 160.5,-322.25 27.75,-322.25"/>
<text text-anchor="start" x="30.75" y="-328.7" font-family="Helvetica,sans-Serif" font-size="12.00" fill="#838b8b">if: state is Engaging</text>
<text text-anchor="start" x="135" y="-328.7" font-family="Helvetica,sans-Serif" font-size="14.00"> &#160;</text>
</g>
<!-- AttackRunToSensor_linked -->
<g id="node12" class="node">
<title>AttackRunToSensor_linked</title>
<polygon fill="none" stroke="black" stroke-dasharray="1,5" points="406.95,-384 273.5,-384 273.5,-348 406.95,-348 406.95,-384"/>
<text text-anchor="start" x="279.1" y="-360.57" font-family="Helvetica,sans-Serif" font-size="14.00">DelayDoubleAttack &#160;</text>
</g>
<!-- AttackRunToSensor&#45;&gt;AttackRunToSensor_linked -->
<g id="edge6" class="edge">
<title>AttackRunToSensor&#45;&gt;AttackRunToSensor_linked</title>
<path fill="none" stroke="#66cdaa" d="M168.36,-350.6C197.88,-353.26 231.95,-356.33 261.86,-359.03"/>
<polygon fill="#66cdaa" stroke="#66cdaa" points="261.32,-362.49 271.6,-359.9 261.95,-355.52 261.32,-362.49"/>
<text text-anchor="middle" x="222.88" y="-360.71" font-family="Helvetica,sans-Serif" font-size="14.00" fill="#66cdaa">QueueEnd</text>
</g>
<!-- ShootAttackSensor -->
<g id="node13" class="node">
<title>ShootAttackSensor</title>
<polygon fill="none" stroke="black" points="29.62,-395.12 29.62,-416.88 158.62,-416.88 158.62,-395.12 29.62,-395.12"/>
<text text-anchor="start" x="32.62" y="-400.57" font-family="Helvetica,sans-Serif" font-size="14.00">ShootAttackSensor &#160;</text>
</g>
<!-- AttackUpSensor -->
<g id="node14" class="node">
<title>AttackUpSensor</title>
<polygon fill="none" stroke="black" points="24,-468 24,-489.75 164.25,-489.75 164.25,-468 24,-468"/>
<text text-anchor="start" x="41.62" y="-473.45" font-family="Helvetica,sans-Serif" font-size="14.00">AttackUpSensor &#160;</text>
<polygon fill="none" stroke="black" points="24,-446.25 24,-468 164.25,-468 164.25,-446.25 24,-446.25"/>
<text text-anchor="start" x="27" y="-452.7" font-family="Helvetica,sans-Serif" font-size="12.00" fill="#838b8b">if not: block PlayerJump</text>
<text text-anchor="start" x="153.75" y="-452.7" font-family="Helvetica,sans-Serif" font-size="14.00"> &#160;</text>
</g>
<!-- AttackUpSensor_linked -->
<g id="node15" class="node">
<title>AttackUpSensor_linked</title>
<polygon fill="none" stroke="black" stroke-dasharray="1,5" points="406.95,-444 273.5,-444 273.5,-408 406.95,-408 406.95,-444"/>
<text text-anchor="start" x="279.1" y="-420.57" font-family="Helvetica,sans-Serif" font-size="14.00">DelayDoubleAttack &#160;</text>
</g>
<!-- AttackUpSensor&#45;&gt;AttackUpSensor_linked -->
<g id="edge7" class="edge">
<title>AttackUpSensor&#45;&gt;AttackUpSensor_linked</title>
<path fill="none" stroke="#66cdaa" d="M172.02,-454.77C200.77,-449.82 233.41,-444.21 262.16,-439.26"/>
<polygon fill="#66cdaa" stroke="#66cdaa" points="262.64,-442.73 271.9,-437.58 261.45,-435.83 262.64,-442.73"/>
<text text-anchor="middle" x="222.88" y="-453.21" font-family="Helvetica,sans-Serif" font-size="14.00" fill="#66cdaa">QueueEnd</text>
</g>
<!-- AttackDownSensor -->
<g id="node16" class="node">
<title>AttackDownSensor</title>
<polygon fill="none" stroke="black" points="30,-519.12 30,-540.88 158.25,-540.88 158.25,-519.12 30,-519.12"/>
<text text-anchor="start" x="33" y="-524.58" font-family="Helvetica,sans-Serif" font-size="14.00">AttackDownSensor &#160;</text>
</g>
<!-- AttackDownSensor_linked -->
<g id="node17" class="node">
<title>AttackDownSensor_linked</title>
<polygon fill="none" stroke="black" stroke-dasharray="1,5" points="406.95,-548.1 273.5,-548.1 273.5,-461.9 406.95,-461.9 406.95,-548.1"/>
<text text-anchor="start" x="279.1" y="-529.2" font-family="Helvetica,sans-Serif" font-size="14.00">DelayDoubleAttack &#160;</text>
<text text-anchor="start" x="299.73" y="-509.45" font-family="Helvetica,sans-Serif" font-size="14.00">RollThrough &#160;</text>
<text text-anchor="start" x="296.35" y="-489.7" font-family="Helvetica,sans-Serif" font-size="14.00">DoubleAttack &#160;</text>
<text text-anchor="start" x="279.1" y="-469.95" font-family="Helvetica,sans-Serif" font-size="14.00">DelayDoubleAttack &#160;</text>
</g>
<!-- AttackDownSensor&#45;&gt;AttackDownSensor_linked -->
<g id="edge8" class="edge">
<title>AttackDownSensor&#45;&gt;AttackDownSensor_linked</title>
<path fill="none" stroke="#66cdaa" d="M166.06,-522.74C196.15,-519.65 231.29,-516.05 262.03,-512.91"/>
<polygon fill="#66cdaa" stroke="#66cdaa" points="262.04,-516.42 271.63,-511.92 261.33,-509.46 262.04,-516.42"/>
<text text-anchor="middle" x="222.88" y="-522.19" font-family="Helvetica,sans-Serif" font-size="14.00" fill="#66cdaa">QueueEnd</text>
</g>
<!-- DelayDoubleAttack -->
<g id="node18" class="node">
<title>DelayDoubleAttack</title>
<polygon fill="none" stroke="black" points="30,-771 30,-792.75 158.25,-792.75 158.25,-771 30,-771"/>
<text text-anchor="start" x="33" y="-776.45" font-family="Helvetica,sans-Serif" font-size="14.00">DelayDoubleAttack &#160;</text>
<polygon fill="none" stroke="black" points="30,-749.25 30,-771 158.25,-771 158.25,-749.25 30,-749.25"/>
<text text-anchor="start" x="33" y="-755.7" font-family="Helvetica,sans-Serif" font-size="12.00" fill="#838b8b">2.00s: Done</text>
<text text-anchor="start" x="97.5" y="-755.7" font-family="Helvetica,sans-Serif" font-size="14.00"> &#160;</text>
</g>
<!-- DeadState -->
<g id="node19" class="node">
<title>DeadState</title>
<polygon fill="none" stroke="black" points="380.1,-703 300.35,-703 300.35,-667 380.1,-667 380.1,-703"/>
<text text-anchor="middle" x="340.23" y="-679.58" font-family="Helvetica,sans-Serif" font-size="14.00">DeadState</text>
</g>
<!-- DelayDoubleAttack&#45;&gt;DeadState -->
<g id="edge9" class="edge">
<title>DelayDoubleAttack&#45;&gt;DeadState</title>
<path fill="none" stroke="#cdc8b1" d="M166.06,-746.01C205.6,-732.08 253.89,-715.07 289.41,-702.55"/>
<polygon fill="#cdc8b1" stroke="#cdc8b1" points="290.31,-705.94 298.58,-699.32 287.98,-699.34 290.31,-705.94"/>
</g>
<!-- DelayDoubleAttack_linked -->
<g id="node20" class="node">
<title>DelayDoubleAttack_linked</title>
<polygon fill="none" stroke="black" stroke-dasharray="1,5" points="389.7,-826.98 290.75,-826.98 290.75,-721.02 389.7,-721.02 389.7,-826.98"/>
<text text-anchor="start" x="307.98" y="-808.08" font-family="Helvetica,sans-Serif" font-size="14.00">Engaging &#160;</text>
<text text-anchor="start" x="307.98" y="-788.33" font-family="Helvetica,sans-Serif" font-size="14.00">Engaging &#160;</text>
<text text-anchor="start" x="307.98" y="-768.58" font-family="Helvetica,sans-Serif" font-size="14.00">Engaging &#160;</text>
<text text-anchor="start" x="296.35" y="-748.83" font-family="Helvetica,sans-Serif" font-size="14.00">DoubleAttack &#160;</text>
<text text-anchor="start" x="299.73" y="-729.08" font-family="Helvetica,sans-Serif" font-size="14.00">RollThrough &#160;</text>
</g>
<!-- DelayDoubleAttack&#45;&gt;DelayDoubleAttack_linked -->
<g id="edge10" class="edge">
<title>DelayDoubleAttack&#45;&gt;DelayDoubleAttack_linked</title>
<path fill="none" stroke="#66cdaa" d="M166.06,-771.87C201.97,-772.31 245.1,-772.84 279.33,-773.26"/>
<polygon fill="#66cdaa" stroke="#66cdaa" points="279.02,-776.76 289.06,-773.38 279.1,-769.76 279.02,-776.76"/>
<text text-anchor="middle" x="222.88" y="-775.39" font-family="Helvetica,sans-Serif" font-size="14.00" fill="#66cdaa">QueueEnd</text>
</g>
<!-- DoubleAttack -->
<g id="node21" class="node">
<title>DoubleAttack</title>
<polygon fill="none" stroke="black" points="31.5,-694.12 31.5,-715.88 156.75,-715.88 156.75,-694.12 31.5,-694.12"/>
<text text-anchor="start" x="50.25" y="-699.58" font-family="Helvetica,sans-Serif" font-size="14.00">DoubleAttack &#160;</text>
<polygon fill="none" stroke="black" points="31.5,-662.12 31.5,-694.12 156.75,-694.12 156.75,-662.12 31.5,-662.12"/>
<text text-anchor="start" x="34.5" y="-680.73" font-family="Helvetica,sans-Serif" font-size="12.00" fill="#838b8b">1.00s: Done</text>
<text text-anchor="start" x="34.5" y="-666.83" font-family="Helvetica,sans-Serif" font-size="12.00" fill="#838b8b">1.50s: LinkNextMove</text>
<text text-anchor="start" x="146.25" y="-666.83" font-family="Helvetica,sans-Serif" font-size="14.00"> &#160;</text>
</g>
<!-- DoubleAttack&#45;&gt;DeadState -->
<g id="edge11" class="edge">
<title>DoubleAttack&#45;&gt;DeadState</title>
<path fill="none" stroke="#cdc8b1" d="M164.75,-687.86C204.29,-687.21 252.9,-686.41 288.76,-685.83"/>
<polygon fill="#cdc8b1" stroke="#cdc8b1" points="288.48,-689.33 298.42,-685.67 288.36,-682.33 288.48,-689.33"/>
</g>
<!-- Hide -->
<g id="node22" class="node">
<title>Hide</title>
<polygon fill="none" stroke="black" points="55.12,-614 55.12,-635.75 133.12,-635.75 133.12,-614 55.12,-614"/>
<text text-anchor="start" x="76.5" y="-619.45" font-family="Helvetica,sans-Serif" font-size="14.00">Hide &#160;</text>
<polygon fill="none" stroke="black" points="55.12,-592.25 55.12,-614 133.12,-614 133.12,-592.25 55.12,-592.25"/>
<text text-anchor="start" x="58.12" y="-598.7" font-family="Helvetica,sans-Serif" font-size="12.00" fill="#838b8b">1.50s: Done</text>
<text text-anchor="start" x="122.62" y="-598.7" font-family="Helvetica,sans-Serif" font-size="14.00"> &#160;</text>
</g>
<!-- Hide&#45;&gt;DeadState -->
<g id="edge12" class="edge">
<title>Hide&#45;&gt;DeadState</title>
<path fill="none" stroke="#cdc8b1" d="M141.04,-627.35C183.22,-639.62 245.6,-657.77 289.07,-670.41"/>
<polygon fill="#cdc8b1" stroke="#cdc8b1" points="287.93,-673.73 298.51,-673.16 289.89,-667 287.93,-673.73"/>
</g>
<!-- HurtState -->
<g id="node23" class="node">
<title>HurtState</title>
<polygon fill="none" stroke="black" points="55.12,-981 55.12,-1002.75 133.12,-1002.75 133.12,-981 55.12,-981"/>
<text text-anchor="start" x="61.88" y="-986.45" font-family="Helvetica,sans-Serif" font-size="14.00">HurtState &#160;</text>
<polygon fill="none" stroke="black" points="55.12,-959.25 55.12,-981 133.12,-981 133.12,-959.25 55.12,-959.25"/>
<text text-anchor="start" x="58.12" y="-965.7" font-family="Helvetica,sans-Serif" font-size="12.00" fill="#838b8b">0.17s: Done</text>
<text text-anchor="start" x="122.62" y="-965.7" font-family="Helvetica,sans-Serif" font-size="14.00"> &#160;</text>
</g>
<!-- PreAttack -->
<g id="node24" class="node">
<title>PreAttack</title>
<polygon fill="none" stroke="black" points="377.48,-929 302.98,-929 302.98,-893 377.48,-893 377.48,-929"/>
<text text-anchor="middle" x="340.23" y="-905.58" font-family="Helvetica,sans-Serif" font-size="14.00">PreAttack</text>
</g>
<!-- HurtState&#45;&gt;PreAttack -->
<g id="edge13" class="edge">
<title>HurtState&#45;&gt;PreAttack</title>
<path fill="none" stroke="#cdc8b1" d="M141.04,-967.83C184.11,-955.48 248.24,-937.09 291.79,-924.6"/>
<polygon fill="#cdc8b1" stroke="#cdc8b1" points="292.57,-928.02 301.22,-921.9 290.64,-921.29 292.57,-928.02"/>
</g>
<!-- Hurt_BigState -->
<g id="node25" class="node">
<title>Hurt_BigState</title>
<polygon fill="none" stroke="black" points="45.38,-911 45.38,-932.75 142.88,-932.75 142.88,-911 45.38,-911"/>
<text text-anchor="start" x="48.38" y="-916.45" font-family="Helvetica,sans-Serif" font-size="14.00">Hurt_BigState &#160;</text>
<polygon fill="none" stroke="black" points="45.38,-889.25 45.38,-911 142.88,-911 142.88,-889.25 45.38,-889.25"/>
<text text-anchor="start" x="48.38" y="-895.7" font-family="Helvetica,sans-Serif" font-size="12.00" fill="#838b8b">1.00s: Done</text>
<text text-anchor="start" x="112.88" y="-895.7" font-family="Helvetica,sans-Serif" font-size="14.00"> &#160;</text>
</g>
<!-- Hurt_BigState&#45;&gt;PreAttack -->
<g id="edge14" class="edge">
<title>Hurt_BigState&#45;&gt;PreAttack</title>
<path fill="none" stroke="#cdc8b1" d="M150.82,-911C193.21,-911 250.95,-911 291.29,-911"/>
<polygon fill="#cdc8b1" stroke="#cdc8b1" points="291.18,-914.5 301.18,-911 291.18,-907.5 291.18,-914.5"/>
</g>
<!-- PostureBreak -->
<g id="node26" class="node">
<title>PostureBreak</title>
<polygon fill="none" stroke="black" points="46.5,-841 46.5,-862.75 141.75,-862.75 141.75,-841 46.5,-841"/>
<text text-anchor="start" x="49.5" y="-846.45" font-family="Helvetica,sans-Serif" font-size="14.00">PostureBreak &#160;</text>
<polygon fill="none" stroke="black" points="46.5,-819.25 46.5,-841 141.75,-841 141.75,-819.25 46.5,-819.25"/>
<text text-anchor="start" x="49.5" y="-825.7" font-family="Helvetica,sans-Serif" font-size="12.00" fill="#838b8b">1.50s: Done</text>
<text text-anchor="start" x="114" y="-825.7" font-family="Helvetica,sans-Serif" font-size="14.00"> &#160;</text>
</g>
<!-- PostureBreak&#45;&gt;PreAttack -->
<g id="edge15" class="edge">
<title>PostureBreak&#45;&gt;PreAttack</title>
<path fill="none" stroke="#cdc8b1" d="M149.6,-856.62C192.24,-868.85 250.95,-885.69 291.7,-897.37"/>
<polygon fill="#cdc8b1" stroke="#cdc8b1" points="290.66,-900.71 301.24,-900.11 292.59,-893.98 290.66,-900.71"/>
</g>
<!-- RollThrough -->
<g id="node27" class="node">
<title>RollThrough</title>
<polygon fill="none" stroke="black" points="35.25,-1067.12 35.25,-1088.88 153,-1088.88 153,-1067.12 35.25,-1067.12"/>
<text text-anchor="start" x="53.62" y="-1072.58" font-family="Helvetica,sans-Serif" font-size="14.00">RollThrough &#160;</text>
<polygon fill="none" stroke="black" points="35.25,-1035.12 35.25,-1067.12 153,-1067.12 153,-1035.12 35.25,-1035.12"/>
<text text-anchor="start" x="38.25" y="-1053.72" font-family="Helvetica,sans-Serif" font-size="12.00" fill="#838b8b">0.50s: LinkNextMove</text>
<text text-anchor="start" x="38.25" y="-1039.82" font-family="Helvetica,sans-Serif" font-size="12.00" fill="#838b8b">0.58s: Done</text>
<text text-anchor="start" x="102.75" y="-1039.82" font-family="Helvetica,sans-Serif" font-size="14.00"> &#160;</text>
</g>
<!-- Engaging -->
<g id="node28" class="node">
<title>Engaging</title>
<polygon fill="none" stroke="black" points="376.73,-1086 303.73,-1086 303.73,-1050 376.73,-1050 376.73,-1086"/>
<text text-anchor="middle" x="340.23" y="-1062.58" font-family="Helvetica,sans-Serif" font-size="14.00">Engaging</text>
</g>
<!-- RollThrough&#45;&gt;Engaging -->
<g id="edge16" class="edge">
<title>RollThrough&#45;&gt;Engaging</title>
<path fill="none" stroke="#cdc8b1" d="M160.86,-1063.62C202.32,-1064.63 254.89,-1065.93 292.19,-1066.84"/>
<polygon fill="#cdc8b1" stroke="#cdc8b1" points="291.65,-1070.33 301.73,-1067.08 291.82,-1063.33 291.65,-1070.33"/>
</g>
<!-- RollThrough_linked -->
<g id="node29" class="node">
<title>RollThrough_linked</title>
<polygon fill="none" stroke="black" stroke-dasharray="1,5" points="378.08,-1032 302.38,-1032 302.38,-996 378.08,-996 378.08,-1032"/>
<text text-anchor="start" x="307.98" y="-1008.58" font-family="Helvetica,sans-Serif" font-size="14.00">Engaging &#160;</text>
</g>
<!-- RollThrough&#45;&gt;RollThrough_linked -->
<g id="edge17" class="edge">
<title>RollThrough&#45;&gt;RollThrough_linked</title>
<path fill="none" stroke="#66cdaa" d="M160.86,-1049.07C201.94,-1041 253.92,-1030.77 291.15,-1023.45"/>
<polygon fill="#66cdaa" stroke="#66cdaa" points="291.58,-1026.94 300.72,-1021.57 290.23,-1020.07 291.58,-1026.94"/>
<text text-anchor="middle" x="222.88" y="-1044.75" font-family="Helvetica,sans-Serif" font-size="14.00" fill="#66cdaa">QueueEnd</text>
</g>
<!-- Wandering_Idle -->
<g id="node30" class="node">
<title>Wandering_Idle</title>
<polygon fill="none" stroke="black" points="164.75,-1147 23.5,-1147 23.5,-1111 164.75,-1111 164.75,-1147"/>
<text text-anchor="middle" x="94.12" y="-1123.58" font-family="Helvetica,sans-Serif" font-size="14.00">Wandering_Idle (Init)</text>
</g>
</g>
</svg>
