<?xml version="1.0" encoding="UTF-8" standalone="no"?>
<!DOCTYPE svg PUBLIC "-//W3C//DTD SVG 1.1//EN"
 "http://www.w3.org/Graphics/SVG/1.1/DTD/svg11.dtd">
<!-- Generated by graphviz version 12.2.1 (20241206.2353)
 -->
<!-- Title: Foo Pages: 1 -->
<svg width="588pt" height="967pt"
 viewBox="0.00 0.00 588.25 966.88" xmlns="http://www.w3.org/2000/svg" xmlns:xlink="http://www.w3.org/1999/xlink">
<g id="graph0" class="graph" transform="scale(1 1) rotate(0) translate(4 962.88)">
<title>Foo</title>
<polygon fill="white" stroke="none" points="-4,4 -4,-962.88 584.25,-962.88 584.25,4 -4,4"/>
<g id="clust1" class="cluster">
<title>cluster_attacksensors</title>
<polygon fill="none" stroke="black" points="8,-8 8,-402 435.75,-402 435.75,-8 8,-8"/>
<text text-anchor="middle" x="221.88" y="-384.7" font-family="Helvetica,sans-Serif" font-size="14.00">Attack Sensors</text>
</g>
<!-- Level Once Sensor -->
<g id="node1" class="node">
<title>Level Once Sensor</title>
<polygon fill="none" stroke="black" points="28.5,-23.12 28.5,-44.88 157.5,-44.88 157.5,-23.12 28.5,-23.12"/>
<text text-anchor="start" x="31.5" y="-28.57" font-family="Helvetica,sans-Serif" font-size="14.00">Level Once Sensor &#160;</text>
</g>
<!-- Level Once Sensor_linked -->
<g id="node2" class="node">
<title>Level Once Sensor_linked</title>
<polygon fill="none" stroke="black" stroke-dasharray="1,5" points="418.1,-52 280.9,-52 280.9,-16 418.1,-16 418.1,-52"/>
<text text-anchor="start" x="286.5" y="-28.57" font-family="Helvetica,sans-Serif" font-size="14.00">AttackWithStanding &#160;</text>
</g>
<!-- Level Once Sensor&#45;&gt;Level Once Sensor_linked -->
<g id="edge1" class="edge">
<title>Level Once Sensor&#45;&gt;Level Once Sensor_linked</title>
<path fill="none" stroke="#66cdaa" d="M165.23,-34C197.73,-34 236.32,-34 269.69,-34"/>
<polygon fill="#66cdaa" stroke="#66cdaa" points="269.28,-37.5 279.28,-34 269.28,-30.5 269.28,-37.5"/>
<text text-anchor="middle" x="220.62" y="-36.45" font-family="Helvetica,sans-Serif" font-size="14.00" fill="#66cdaa">QueueEnd</text>
</g>
<!-- Level Once Sensor_weight -->
<g id="node3" class="node">
<title>Level Once Sensor_weight</title>
<polygon fill="none" stroke="black" stroke-dasharray="1,5" points="427.75,-106 271.25,-106 271.25,-70 427.75,-70 427.75,-106"/>
<text text-anchor="start" x="281.25" y="-82.58" font-family="Helvetica,sans-Serif" font-size="14.00">1 AttackWithStanding &#160;</text>
</g>
<!-- Level Once Sensor&#45;&gt;Level Once Sensor_weight -->
<g id="edge2" class="edge">
<title>Level Once Sensor&#45;&gt;Level Once Sensor_weight</title>
<path fill="none" stroke="#458b74" d="M165.34,-49.19C172.99,-50.81 180.66,-52.44 188,-54 211.33,-58.95 236.57,-64.3 259.98,-69.26"/>
<polygon fill="#458b74" stroke="#458b74" points="258.95,-72.62 269.46,-71.27 260.4,-65.78 258.95,-72.62"/>
<text text-anchor="middle" x="220.62" y="-69.55" font-family="Helvetica,sans-Serif" font-size="14.00" fill="#458b74">Weight</text>
</g>
<!-- RunAwaySensor -->
<g id="node4" class="node">
<title>RunAwaySensor</title>
<polygon fill="none" stroke="black" points="36,-77.12 36,-98.88 150,-98.88 150,-77.12 36,-77.12"/>
<text text-anchor="start" x="39" y="-82.58" font-family="Helvetica,sans-Serif" font-size="14.00">RunAwaySensor &#160;</text>
</g>
<!-- AttackSensor -->
<g id="node5" class="node">
<title>AttackSensor</title>
<polygon fill="none" stroke="black" points="46.12,-131.12 46.12,-152.88 139.88,-152.88 139.88,-131.12 46.12,-131.12"/>
<text text-anchor="start" x="49.12" y="-136.57" font-family="Helvetica,sans-Serif" font-size="14.00">AttackSensor &#160;</text>
</g>
<!-- AttackSensor_linked -->
<g id="node6" class="node">
<title>AttackSensor_linked</title>
<polygon fill="none" stroke="black" stroke-dasharray="1,5" points="399.73,-160 299.27,-160 299.27,-124 399.73,-124 399.73,-160"/>
<text text-anchor="start" x="304.88" y="-136.57" font-family="Helvetica,sans-Serif" font-size="14.00">NormalAttack &#160;</text>
</g>
<!-- AttackSensor&#45;&gt;AttackSensor_linked -->
<g id="edge3" class="edge">
<title>AttackSensor&#45;&gt;AttackSensor_linked</title>
<path fill="none" stroke="#66cdaa" d="M147.66,-142C188.54,-142 244.85,-142 287.45,-142"/>
<polygon fill="#66cdaa" stroke="#66cdaa" points="287.28,-145.5 297.28,-142 287.28,-138.5 287.28,-145.5"/>
<text text-anchor="middle" x="220.62" y="-144.45" font-family="Helvetica,sans-Serif" font-size="14.00" fill="#66cdaa">QueueEnd</text>
</g>
<!-- DodgePredictSensor -->
<g id="node7" class="node">
<title>DodgePredictSensor</title>
<polygon fill="none" stroke="black" points="24,-204 24,-225.75 162,-225.75 162,-204 24,-204"/>
<text text-anchor="start" x="27" y="-209.45" font-family="Helvetica,sans-Serif" font-size="14.00">DodgePredictSensor &#160;</text>
<polygon fill="none" stroke="black" points="24,-182.25 24,-204 162,-204 162,-182.25 24,-182.25"/>
<text text-anchor="start" x="27" y="-188.7" font-family="Helvetica,sans-Serif" font-size="12.00" fill="#838b8b">if: rollingCondition</text>
<text text-anchor="start" x="123.75" y="-188.7" font-family="Helvetica,sans-Serif" font-size="14.00"> &#160;</text>
</g>
<!-- DodgePredictSensor_linked -->
<g id="node8" class="node">
<title>DodgePredictSensor_linked</title>
<polygon fill="none" stroke="black" stroke-dasharray="1,5" points="418.1,-222 280.9,-222 280.9,-186 418.1,-186 418.1,-222"/>
<text text-anchor="start" x="286.5" y="-198.57" font-family="Helvetica,sans-Serif" font-size="14.00">AttackWithStanding &#160;</text>
</g>
<!-- DodgePredictSensor&#45;&gt;DodgePredictSensor_linked -->
<g id="edge4" class="edge">
<title>DodgePredictSensor&#45;&gt;DodgePredictSensor_linked</title>
<path fill="none" stroke="#66cdaa" d="M169.67,-204C200.99,-204 237.33,-204 269.03,-204"/>
<polygon fill="#66cdaa" stroke="#66cdaa" points="268.97,-207.5 278.97,-204 268.97,-200.5 268.97,-207.5"/>
<text text-anchor="middle" x="220.62" y="-206.45" font-family="Helvetica,sans-Serif" font-size="14.00" fill="#66cdaa">QueueEnd</text>
</g>
<!-- AttackPredictSensor -->
<g id="node9" class="node">
<title>AttackPredictSensor</title>
<polygon fill="none" stroke="black" points="25.12,-274 25.12,-295.75 160.88,-295.75 160.88,-274 25.12,-274"/>
<text text-anchor="start" x="28.12" y="-279.45" font-family="Helvetica,sans-Serif" font-size="14.00">AttackPredictSensor &#160;</text>
<polygon fill="none" stroke="black" points="25.12,-252.25 25.12,-274 160.88,-274 160.88,-252.25 25.12,-252.25"/>
<text text-anchor="start" x="28.12" y="-258.7" font-family="Helvetica,sans-Serif" font-size="12.00" fill="#838b8b">if: attackCondition</text>
<text text-anchor="start" x="123.38" y="-258.7" font-family="Helvetica,sans-Serif" font-size="14.00"> &#160;</text>
</g>
<!-- AttackPredictSensor_linked -->
<g id="node10" class="node">
<title>AttackPredictSensor_linked</title>
<polygon fill="none" stroke="black" stroke-dasharray="1,5" points="418.1,-292 280.9,-292 280.9,-256 418.1,-256 418.1,-292"/>
<text text-anchor="start" x="286.5" y="-268.57" font-family="Helvetica,sans-Serif" font-size="14.00">AttackWithStanding &#160;</text>
</g>
<!-- AttackPredictSensor&#45;&gt;AttackPredictSensor_linked -->
<g id="edge5" class="edge">
<title>AttackPredictSensor&#45;&gt;AttackPredictSensor_linked</title>
<path fill="none" stroke="#66cdaa" d="M168.64,-274C200.39,-274 237.44,-274 269.64,-274"/>
<polygon fill="#66cdaa" stroke="#66cdaa" points="269.3,-277.5 279.3,-274 269.3,-270.5 269.3,-277.5"/>
<text text-anchor="middle" x="220.62" y="-276.45" font-family="Helvetica,sans-Serif" font-size="14.00" fill="#66cdaa">QueueEnd</text>
</g>
<!-- AttackRunToSensor -->
<g id="node11" class="node">
<title>AttackRunToSensor</title>
<polygon fill="none" stroke="black" points="26.62,-344 26.62,-365.75 159.38,-365.75 159.38,-344 26.62,-344"/>
<text text-anchor="start" x="29.62" y="-349.45" font-family="Helvetica,sans-Serif" font-size="14.00">AttackRunToSensor &#160;</text>
<polygon fill="none" stroke="black" points="26.62,-322.25 26.62,-344 159.38,-344 159.38,-322.25 26.62,-322.25"/>
<text text-anchor="start" x="29.62" y="-328.7" font-family="Helvetica,sans-Serif" font-size="12.00" fill="#838b8b">if: state is Engaging</text>
<text text-anchor="start" x="133.88" y="-328.7" font-family="Helvetica,sans-Serif" font-size="14.00"> &#160;</text>
</g>
<!-- AttackRunToSensor_linked -->
<g id="node12" class="node">
<title>AttackRunToSensor_linked</title>
<polygon fill="none" stroke="black" stroke-dasharray="1,5" points="418.1,-362 280.9,-362 280.9,-326 418.1,-326 418.1,-362"/>
<text text-anchor="start" x="286.5" y="-338.57" font-family="Helvetica,sans-Serif" font-size="14.00">AttackWithStanding &#160;</text>
</g>
<!-- AttackRunToSensor&#45;&gt;AttackRunToSensor_linked -->
<g id="edge6" class="edge">
<title>AttackRunToSensor&#45;&gt;AttackRunToSensor_linked</title>
<path fill="none" stroke="#66cdaa" d="M167.27,-344C199.19,-344 236.67,-344 269.24,-344"/>
<polygon fill="#66cdaa" stroke="#66cdaa" points="269.02,-347.5 279.02,-344 269.02,-340.5 269.02,-347.5"/>
<text text-anchor="middle" x="220.62" y="-346.45" font-family="Helvetica,sans-Serif" font-size="14.00" fill="#66cdaa">QueueEnd</text>
</g>
<!-- AttackWithStanding -->
<g id="node13" class="node">
<title>AttackWithStanding</title>
<polygon fill="none" stroke="black" points="27,-656.12 27,-677.88 159,-677.88 159,-656.12 27,-656.12"/>
<text text-anchor="start" x="30" y="-661.58" font-family="Helvetica,sans-Serif" font-size="14.00">AttackWithStanding &#160;</text>
<polygon fill="none" stroke="black" points="27,-624.12 27,-656.12 159,-656.12 159,-624.12 27,-624.12"/>
<text text-anchor="start" x="30" y="-642.73" font-family="Helvetica,sans-Serif" font-size="12.00" fill="#838b8b">2.00s: CheckFacing</text>
<text text-anchor="start" x="30" y="-628.83" font-family="Helvetica,sans-Serif" font-size="12.00" fill="#838b8b">3.83s: Done</text>
<text text-anchor="start" x="94.5" y="-628.83" font-family="Helvetica,sans-Serif" font-size="14.00"> &#160;</text>
</g>
<!-- Engaging -->
<g id="node14" class="node">
<title>Engaging</title>
<polygon fill="none" stroke="black" points="386,-559 313,-559 313,-523 386,-523 386,-559"/>
<text text-anchor="middle" x="349.5" y="-535.58" font-family="Helvetica,sans-Serif" font-size="14.00">Engaging</text>
</g>
<!-- AttackWithStanding&#45;&gt;Engaging -->
<g id="edge7" class="edge">
<title>AttackWithStanding&#45;&gt;Engaging</title>
<path fill="none" stroke="#cdc8b1" d="M165.23,-620.21C209.18,-601.22 264.28,-577.4 302.53,-560.87"/>
<polygon fill="#cdc8b1" stroke="#cdc8b1" points="303.66,-564.19 311.45,-557.01 300.89,-557.77 303.66,-564.19"/>
</g>
<!-- Revive -->
<g id="node15" class="node">
<title>Revive</title>
<polygon fill="none" stroke="black" points="310.5,-726 310.5,-747.75 388.5,-747.75 388.5,-726 310.5,-726"/>
<text text-anchor="start" x="325.12" y="-731.45" font-family="Helvetica,sans-Serif" font-size="14.00">Revive &#160;</text>
<polygon fill="none" stroke="black" points="310.5,-704.25 310.5,-726 388.5,-726 388.5,-704.25 310.5,-704.25"/>
<text text-anchor="start" x="313.5" y="-710.7" font-family="Helvetica,sans-Serif" font-size="12.00" fill="#838b8b">1.50s: Done</text>
<text text-anchor="start" x="378" y="-710.7" font-family="Helvetica,sans-Serif" font-size="14.00"> &#160;</text>
</g>
<!-- Seat -->
<g id="node16" class="node">
<title>Seat</title>
<polygon fill="none" stroke="black" points="580.25,-814 505.75,-814 505.75,-778 580.25,-778 580.25,-814"/>
<text text-anchor="middle" x="543" y="-790.58" font-family="Helvetica,sans-Serif" font-size="14.00">Seat (Init)</text>
</g>
<!-- Revive&#45;&gt;Seat -->
<g id="edge8" class="edge">
<title>Revive&#45;&gt;Seat</title>
<path fill="none" stroke="#cdc8b1" d="M396.37,-742.77C426.13,-753.65 464.81,-767.79 494.83,-778.76"/>
<polygon fill="#cdc8b1" stroke="#cdc8b1" points="493.45,-781.98 504.04,-782.13 495.85,-775.4 493.45,-781.98"/>
</g>
<!-- NormalAttack -->
<g id="node17" class="node">
<title>NormalAttack</title>
<polygon fill="none" stroke="black" points="45.38,-576 45.38,-597.75 140.62,-597.75 140.62,-576 45.38,-576"/>
<text text-anchor="start" x="48.38" y="-581.45" font-family="Helvetica,sans-Serif" font-size="14.00">NormalAttack &#160;</text>
<polygon fill="none" stroke="black" points="45.38,-554.25 45.38,-576 140.62,-576 140.62,-554.25 45.38,-554.25"/>
<text text-anchor="start" x="48.38" y="-560.7" font-family="Helvetica,sans-Serif" font-size="12.00" fill="#838b8b">2.25s: Done</text>
<text text-anchor="start" x="112.88" y="-560.7" font-family="Helvetica,sans-Serif" font-size="14.00"> &#160;</text>
</g>
<!-- NormalAttack&#45;&gt;Engaging -->
<g id="edge9" class="edge">
<title>NormalAttack&#45;&gt;Engaging</title>
<path fill="none" stroke="#cdc8b1" d="M148.6,-568.49C194.08,-562.24 258.2,-553.42 301.45,-547.47"/>
<polygon fill="#cdc8b1" stroke="#cdc8b1" points="301.86,-550.95 311.29,-546.12 300.91,-544.01 301.86,-550.95"/>
</g>
<!-- FakeDead -->
<g id="node18" class="node">
<title>FakeDead</title>
<polygon fill="none" stroke="black" points="310.5,-866 310.5,-887.75 388.5,-887.75 388.5,-866 310.5,-866"/>
<text text-anchor="start" x="314.62" y="-871.45" font-family="Helvetica,sans-Serif" font-size="14.00">FakeDead &#160;</text>
<polygon fill="none" stroke="black" points="310.5,-844.25 310.5,-866 388.5,-866 388.5,-844.25 310.5,-844.25"/>
<text text-anchor="start" x="313.5" y="-850.7" font-family="Helvetica,sans-Serif" font-size="12.00" fill="#838b8b">1.00s: Done</text>
<text text-anchor="start" x="378" y="-850.7" font-family="Helvetica,sans-Serif" font-size="14.00"> &#160;</text>
</g>
<!-- FakeDead&#45;&gt;Seat -->
<g id="edge10" class="edge">
<title>FakeDead&#45;&gt;Seat</title>
<path fill="none" stroke="#cdc8b1" d="M396.37,-849.23C426.13,-838.35 464.81,-824.21 494.83,-813.24"/>
<polygon fill="#cdc8b1" stroke="#cdc8b1" points="495.85,-816.6 504.04,-809.87 493.45,-810.02 495.85,-816.6"/>
</g>
<!-- FakeDead_weight -->
<g id="node19" class="node">
<title>FakeDead_weight</title>
<polygon fill="none" stroke="black" stroke-dasharray="1,5" points="576.25,-884 509.75,-884 509.75,-848 576.25,-848 576.25,-884"/>
<text text-anchor="start" x="519.75" y="-860.58" font-family="Helvetica,sans-Serif" font-size="14.00">1 Seat &#160;</text>
</g>
<!-- FakeDead&#45;&gt;FakeDead_weight -->
<g id="edge11" class="edge">
<title>FakeDead&#45;&gt;FakeDead_weight</title>
<path fill="none" stroke="#458b74" d="M396.37,-866C427.28,-866 467.8,-866 498.25,-866"/>
<polygon fill="#458b74" stroke="#458b74" points="497.88,-869.5 507.88,-866 497.88,-862.5 497.88,-869.5"/>
<text text-anchor="middle" x="466.75" y="-868.45" font-family="Helvetica,sans-Serif" font-size="14.00" fill="#458b74">Weight</text>
</g>
<!-- HurtState -->
<g id="node20" class="node">
<title>HurtState</title>
<polygon fill="none" stroke="black" points="34.12,-933.12 34.12,-954.88 151.88,-954.88 151.88,-933.12 34.12,-933.12"/>
<text text-anchor="start" x="60.75" y="-938.58" font-family="Helvetica,sans-Serif" font-size="14.00">HurtState &#160;</text>
<polygon fill="none" stroke="black" points="34.12,-901.12 34.12,-933.12 151.88,-933.12 151.88,-901.12 34.12,-901.12"/>
<text text-anchor="start" x="37.12" y="-919.73" font-family="Helvetica,sans-Serif" font-size="12.00" fill="#838b8b">0.02s: LinkNextMove</text>
<text text-anchor="start" x="37.12" y="-905.83" font-family="Helvetica,sans-Serif" font-size="12.00" fill="#838b8b">0.17s: Done</text>
<text text-anchor="start" x="101.62" y="-905.83" font-family="Helvetica,sans-Serif" font-size="14.00"> &#160;</text>
</g>
<!-- PreAttack -->
<g id="node21" class="node">
<title>PreAttack</title>
<polygon fill="none" stroke="black" points="386.75,-946 312.25,-946 312.25,-910 386.75,-910 386.75,-946"/>
<text text-anchor="middle" x="349.5" y="-922.58" font-family="Helvetica,sans-Serif" font-size="14.00">PreAttack</text>
</g>
<!-- HurtState&#45;&gt;PreAttack -->
<g id="edge12" class="edge">
<title>HurtState&#45;&gt;PreAttack</title>
<path fill="none" stroke="#cdc8b1" d="M159.87,-928C203.88,-928 260.76,-928 300.51,-928"/>
<polygon fill="#cdc8b1" stroke="#cdc8b1" points="300.49,-931.5 310.49,-928 300.49,-924.5 300.49,-931.5"/>
</g>
<!-- PostureBreak -->
<g id="node22" class="node">
<title>PostureBreak</title>
<polygon fill="none" stroke="black" points="45.38,-726 45.38,-747.75 140.62,-747.75 140.62,-726 45.38,-726"/>
<text text-anchor="start" x="48.38" y="-731.45" font-family="Helvetica,sans-Serif" font-size="14.00">PostureBreak &#160;</text>
<polygon fill="none" stroke="black" points="45.38,-704.25 45.38,-726 140.62,-726 140.62,-704.25 45.38,-704.25"/>
<text text-anchor="start" x="48.38" y="-710.7" font-family="Helvetica,sans-Serif" font-size="12.00" fill="#838b8b">0.50s: Done</text>
<text text-anchor="start" x="112.88" y="-710.7" font-family="Helvetica,sans-Serif" font-size="14.00"> &#160;</text>
</g>
<!-- PostureBreak&#45;&gt;Revive -->
<g id="edge13" class="edge">
<title>PostureBreak&#45;&gt;Revive</title>
<path fill="none" stroke="#cdc8b1" d="M148.6,-726C190.61,-726 248.5,-726 291.18,-726"/>
<polygon fill="#cdc8b1" stroke="#cdc8b1" points="291,-729.5 301,-726 291,-722.5 291,-729.5"/>
</g>
<!-- StandUp -->
<g id="node23" class="node">
<title>StandUp</title>
<polygon fill="none" stroke="black" points="54,-506 54,-527.75 132,-527.75 132,-506 54,-506"/>
<text text-anchor="start" x="63" y="-511.45" font-family="Helvetica,sans-Serif" font-size="14.00">StandUp &#160;</text>
<polygon fill="none" stroke="black" points="54,-484.25 54,-506 132,-506 132,-484.25 54,-484.25"/>
<text text-anchor="start" x="57" y="-490.7" font-family="Helvetica,sans-Serif" font-size="12.00" fill="#838b8b">2.00s: Done</text>
<text text-anchor="start" x="121.5" y="-490.7" font-family="Helvetica,sans-Serif" font-size="14.00"> &#160;</text>
</g>
<!-- StandUp&#45;&gt;Engaging -->
<g id="edge14" class="edge">
<title>StandUp&#45;&gt;Engaging</title>
<path fill="none" stroke="#cdc8b1" d="M139.79,-512.3C185.44,-518.58 255.21,-528.17 301.34,-534.51"/>
<polygon fill="#cdc8b1" stroke="#cdc8b1" points="300.64,-537.95 311.03,-535.85 301.6,-531.02 300.64,-537.95"/>
</g>
<!-- ZEnterState -->
<g id="node24" class="node">
<title>ZEnterState</title>
<polygon fill="none" stroke="black" points="50.25,-436 50.25,-457.75 135.75,-457.75 135.75,-436 50.25,-436"/>
<text text-anchor="start" x="53.25" y="-441.45" font-family="Helvetica,sans-Serif" font-size="14.00">ZEnterState &#160;</text>
<polygon fill="none" stroke="black" points="50.25,-414.25 50.25,-436 135.75,-436 135.75,-414.25 50.25,-414.25"/>
<text text-anchor="start" x="53.25" y="-420.7" font-family="Helvetica,sans-Serif" font-size="12.00" fill="#838b8b">2.00s: Done</text>
<text text-anchor="start" x="117.75" y="-420.7" font-family="Helvetica,sans-Serif" font-size="14.00"> &#160;</text>
</g>
<!-- ZEnterState&#45;&gt;Engaging -->
<g id="edge15" class="edge">
<title>ZEnterState&#45;&gt;Engaging</title>
<path fill="none" stroke="#cdc8b1" d="M143.67,-456.49C189.51,-475.41 257.07,-503.28 301.9,-521.77"/>
<polygon fill="#cdc8b1" stroke="#cdc8b1" points="300.52,-524.99 311.1,-525.57 303.19,-518.52 300.52,-524.99"/>
</g>
<!-- ZExitState -->
<g id="node25" class="node">
<title>ZExitState</title>
<polygon fill="none" stroke="black" points="310.5,-796 310.5,-817.75 388.5,-817.75 388.5,-796 310.5,-796"/>
<text text-anchor="start" x="314.62" y="-801.45" font-family="Helvetica,sans-Serif" font-size="14.00">ZExitState &#160;</text>
<polygon fill="none" stroke="black" points="310.5,-774.25 310.5,-796 388.5,-796 388.5,-774.25 310.5,-774.25"/>
<text text-anchor="start" x="313.5" y="-780.7" font-family="Helvetica,sans-Serif" font-size="12.00" fill="#838b8b">1.00s: Done</text>
<text text-anchor="start" x="378" y="-780.7" font-family="Helvetica,sans-Serif" font-size="14.00"> &#160;</text>
</g>
<!-- ZExitState&#45;&gt;Seat -->
<g id="edge16" class="edge">
<title>ZExitState&#45;&gt;Seat</title>
<path fill="none" stroke="#cdc8b1" d="M396.37,-796C425.87,-796 464.14,-796 494.04,-796"/>
<polygon fill="#cdc8b1" stroke="#cdc8b1" points="493.95,-799.5 503.95,-796 493.95,-792.5 493.95,-799.5"/>
</g>
</g>
</svg>
