<?xml version="1.0" encoding="UTF-8" standalone="no"?>
<!DOCTYPE svg PUBLIC "-//W3C//DTD SVG 1.1//EN"
 "http://www.w3.org/Graphics/SVG/1.1/DTD/svg11.dtd">
<!-- Generated by graphviz version 12.2.1 (20241206.2353)
 -->
<!-- Title: Foo Pages: 1 -->
<svg width="482pt" height="1306pt"
 viewBox="0.00 0.00 481.50 1306.00" xmlns="http://www.w3.org/2000/svg" xmlns:xlink="http://www.w3.org/1999/xlink">
<g id="graph0" class="graph" transform="scale(1 1) rotate(0) translate(4 1302)">
<title>Foo</title>
<polygon fill="white" stroke="none" points="-4,4 -4,-1302 477.5,-1302 477.5,4 -4,4"/>
<g id="clust1" class="cluster">
<title>cluster_attacksensors</title>
<polygon fill="none" stroke="black" points="17.88,-8 17.88,-504 465.5,-504 465.5,-8 17.88,-8"/>
<text text-anchor="middle" x="241.69" y="-486.7" font-family="Helvetica,sans-Serif" font-size="14.00">Attack Sensors</text>
</g>
<!-- Level Once Sensor -->
<g id="node1" class="node">
<title>Level Once Sensor</title>
<polygon fill="none" stroke="black" points="38.38,-27.12 38.38,-48.88 167.38,-48.88 167.38,-27.12 38.38,-27.12"/>
<text text-anchor="start" x="41.38" y="-32.58" font-family="Helvetica,sans-Serif" font-size="14.00">Level Once Sensor &#160;</text>
</g>
<!-- Level Once Sensor_linked -->
<g id="node2" class="node">
<title>Level Once Sensor_linked</title>
<polygon fill="none" stroke="black" stroke-dasharray="1,5" points="429.1,-52 335.4,-52 335.4,-16 429.1,-16 429.1,-52"/>
<text text-anchor="start" x="341" y="-28.57" font-family="Helvetica,sans-Serif" font-size="14.00">Slash, Slash &#160;</text>
</g>
<!-- Level Once Sensor&#45;&gt;Level Once Sensor_linked -->
<g id="edge1" class="edge">
<title>Level Once Sensor&#45;&gt;Level Once Sensor_linked</title>
<path fill="none" stroke="#66cdaa" d="M175.31,-36.97C221.48,-36.3 280.76,-35.45 323.86,-34.83"/>
<polygon fill="#66cdaa" stroke="#66cdaa" points="323.82,-38.33 333.77,-34.68 323.72,-31.33 323.82,-38.33"/>
<text text-anchor="middle" x="256.38" y="-38.69" font-family="Helvetica,sans-Serif" font-size="14.00" fill="#66cdaa">QueueEnd</text>
</g>
<!-- Level Once Sensor_weight -->
<g id="node3" class="node">
<title>Level Once Sensor_weight</title>
<polygon fill="none" stroke="black" stroke-dasharray="1,5" points="439.12,-106 325.38,-106 325.38,-70 439.12,-70 439.12,-106"/>
<text text-anchor="start" x="335.38" y="-82.58" font-family="Helvetica,sans-Serif" font-size="14.00">1 Slash, Slash &#160;</text>
</g>
<!-- Level Once Sensor&#45;&gt;Level Once Sensor_weight -->
<g id="edge2" class="edge">
<title>Level Once Sensor&#45;&gt;Level Once Sensor_weight</title>
<path fill="none" stroke="#458b74" d="M175.31,-50.88C217.95,-58.56 271.78,-68.27 313.71,-75.83"/>
<polygon fill="#458b74" stroke="#458b74" points="312.97,-79.25 323.44,-77.58 314.22,-72.36 312.97,-79.25"/>
<text text-anchor="middle" x="256.38" y="-72.85" font-family="Helvetica,sans-Serif" font-size="14.00" fill="#458b74">Weight</text>
</g>
<!-- RunAwaySensor -->
<g id="node4" class="node">
<title>RunAwaySensor</title>
<polygon fill="none" stroke="black" points="45.88,-83.12 45.88,-104.88 159.88,-104.88 159.88,-83.12 45.88,-83.12"/>
<text text-anchor="start" x="48.88" y="-88.58" font-family="Helvetica,sans-Serif" font-size="14.00">RunAwaySensor &#160;</text>
</g>
<!-- AttackSensor -->
<g id="node5" class="node">
<title>AttackSensor</title>
<polygon fill="none" stroke="black" points="56,-158.12 56,-179.88 149.75,-179.88 149.75,-158.12 56,-158.12"/>
<text text-anchor="start" x="59" y="-163.57" font-family="Helvetica,sans-Serif" font-size="14.00">AttackSensor &#160;</text>
</g>
<!-- AttackSensor_linked -->
<g id="node6" class="node">
<title>AttackSensor_linked</title>
<polygon fill="none" stroke="black" stroke-dasharray="1,5" points="429.48,-160 335.02,-160 335.02,-124 429.48,-124 429.48,-160"/>
<text text-anchor="start" x="340.62" y="-136.57" font-family="Helvetica,sans-Serif" font-size="14.00">DangerDash &#160;</text>
</g>
<!-- AttackSensor&#45;&gt;AttackSensor_linked -->
<g id="edge3" class="edge">
<title>AttackSensor&#45;&gt;AttackSensor_linked</title>
<path fill="none" stroke="#66cdaa" d="M157.54,-162.49C178.22,-160.08 202.07,-157.4 223.75,-155.25 256.65,-151.98 293.48,-148.85 323.24,-146.46"/>
<polygon fill="#66cdaa" stroke="#66cdaa" points="323.5,-149.95 333.19,-145.66 322.94,-142.97 323.5,-149.95"/>
<text text-anchor="middle" x="256.38" y="-157.7" font-family="Helvetica,sans-Serif" font-size="14.00" fill="#66cdaa">QueueEnd</text>
</g>
<!-- AttackSensor_weight -->
<g id="node7" class="node">
<title>AttackSensor_weight</title>
<polygon fill="none" stroke="black" stroke-dasharray="1,5" points="457.5,-225.75 307,-225.75 307,-178.25 457.5,-178.25 457.5,-225.75"/>
<text text-anchor="start" x="335.38" y="-206.45" font-family="Helvetica,sans-Serif" font-size="14.00">2 Slash, Slash &#160;</text>
<text text-anchor="start" x="317" y="-186.7" font-family="Helvetica,sans-Serif" font-size="14.00">1 Dash, Dash, Slash &#160;</text>
</g>
<!-- AttackSensor&#45;&gt;AttackSensor_weight -->
<g id="edge4" class="edge">
<title>AttackSensor&#45;&gt;AttackSensor_weight</title>
<path fill="none" stroke="#458b74" d="M157.68,-175.4C196.75,-180.05 250.42,-186.44 295.38,-191.78"/>
<polygon fill="#458b74" stroke="#458b74" points="294.77,-195.24 305.11,-192.94 295.59,-188.28 294.77,-195.24"/>
<text text-anchor="middle" x="256.38" y="-192.83" font-family="Helvetica,sans-Serif" font-size="14.00" fill="#458b74">Weight</text>
</g>
<!-- DodgePredictSensor -->
<g id="node8" class="node">
<title>DodgePredictSensor</title>
<polygon fill="none" stroke="black" points="33.88,-241 33.88,-262.75 171.88,-262.75 171.88,-241 33.88,-241"/>
<text text-anchor="start" x="36.88" y="-246.45" font-family="Helvetica,sans-Serif" font-size="14.00">DodgePredictSensor &#160;</text>
<polygon fill="none" stroke="black" points="33.88,-219.25 33.88,-241 171.88,-241 171.88,-219.25 33.88,-219.25"/>
<text text-anchor="start" x="36.88" y="-225.7" font-family="Helvetica,sans-Serif" font-size="12.00" fill="#838b8b">if: rollingCondition</text>
<text text-anchor="start" x="133.62" y="-225.7" font-family="Helvetica,sans-Serif" font-size="14.00"> &#160;</text>
</g>
<!-- DodgePredictSensor_linked -->
<g id="node9" class="node">
<title>DodgePredictSensor_linked</title>
<polygon fill="none" stroke="black" stroke-dasharray="1,5" points="429.1,-280 335.4,-280 335.4,-244 429.1,-244 429.1,-280"/>
<text text-anchor="start" x="341" y="-256.57" font-family="Helvetica,sans-Serif" font-size="14.00">Slash, Slash &#160;</text>
</g>
<!-- DodgePredictSensor&#45;&gt;DodgePredictSensor_linked -->
<g id="edge5" class="edge">
<title>DodgePredictSensor&#45;&gt;DodgePredictSensor_linked</title>
<path fill="none" stroke="#66cdaa" d="M179.67,-246.74C225.12,-250.18 282.01,-254.49 323.75,-257.65"/>
<polygon fill="#66cdaa" stroke="#66cdaa" points="323.35,-261.13 333.59,-258.39 323.88,-254.15 323.35,-261.13"/>
<text text-anchor="middle" x="256.38" y="-257.06" font-family="Helvetica,sans-Serif" font-size="14.00" fill="#66cdaa">QueueEnd</text>
</g>
<!-- AttackPredictSensor -->
<g id="node10" class="node">
<title>AttackPredictSensor</title>
<polygon fill="none" stroke="black" points="35,-311 35,-332.75 170.75,-332.75 170.75,-311 35,-311"/>
<text text-anchor="start" x="38" y="-316.45" font-family="Helvetica,sans-Serif" font-size="14.00">AttackPredictSensor &#160;</text>
<polygon fill="none" stroke="black" points="35,-289.25 35,-311 170.75,-311 170.75,-289.25 35,-289.25"/>
<text text-anchor="start" x="38" y="-295.7" font-family="Helvetica,sans-Serif" font-size="12.00" fill="#838b8b">if: attackCondition</text>
<text text-anchor="start" x="133.25" y="-295.7" font-family="Helvetica,sans-Serif" font-size="14.00"> &#160;</text>
</g>
<!-- AttackPredictSensor_linked -->
<g id="node11" class="node">
<title>AttackPredictSensor_linked</title>
<polygon fill="none" stroke="black" stroke-dasharray="1,5" points="429.1,-334 335.4,-334 335.4,-298 429.1,-298 429.1,-334"/>
<text text-anchor="start" x="341" y="-310.57" font-family="Helvetica,sans-Serif" font-size="14.00">Slash, Slash &#160;</text>
</g>
<!-- AttackPredictSensor&#45;&gt;AttackPredictSensor_linked -->
<g id="edge6" class="edge">
<title>AttackPredictSensor&#45;&gt;AttackPredictSensor_linked</title>
<path fill="none" stroke="#66cdaa" d="M178.57,-312.35C224.19,-313.17 281.63,-314.2 323.7,-314.96"/>
<polygon fill="#66cdaa" stroke="#66cdaa" points="323.56,-318.46 333.63,-315.14 323.69,-311.46 323.56,-318.46"/>
<text text-anchor="middle" x="256.38" y="-316.69" font-family="Helvetica,sans-Serif" font-size="14.00" fill="#66cdaa">QueueEnd</text>
</g>
<!-- AttackRunToSensor -->
<g id="node12" class="node">
<title>AttackRunToSensor</title>
<polygon fill="none" stroke="black" points="36.5,-381 36.5,-402.75 169.25,-402.75 169.25,-381 36.5,-381"/>
<text text-anchor="start" x="39.5" y="-386.45" font-family="Helvetica,sans-Serif" font-size="14.00">AttackRunToSensor &#160;</text>
<polygon fill="none" stroke="black" points="36.5,-359.25 36.5,-381 169.25,-381 169.25,-359.25 36.5,-359.25"/>
<text text-anchor="start" x="39.5" y="-365.7" font-family="Helvetica,sans-Serif" font-size="12.00" fill="#838b8b">if: state is Engaging</text>
<text text-anchor="start" x="143.75" y="-365.7" font-family="Helvetica,sans-Serif" font-size="14.00"> &#160;</text>
</g>
<!-- AttackRunToSensor_linked -->
<g id="node13" class="node">
<title>AttackRunToSensor_linked</title>
<polygon fill="none" stroke="black" stroke-dasharray="1,5" points="429.1,-388 335.4,-388 335.4,-352 429.1,-352 429.1,-388"/>
<text text-anchor="start" x="341" y="-364.57" font-family="Helvetica,sans-Serif" font-size="14.00">Slash, Slash &#160;</text>
</g>
<!-- AttackRunToSensor&#45;&gt;AttackRunToSensor_linked -->
<g id="edge7" class="edge">
<title>AttackRunToSensor&#45;&gt;AttackRunToSensor_linked</title>
<path fill="none" stroke="#66cdaa" d="M177.11,-378.1C222.99,-376.28 281.25,-373.97 323.78,-372.28"/>
<polygon fill="#66cdaa" stroke="#66cdaa" points="323.7,-375.79 333.55,-371.89 323.42,-368.79 323.7,-375.79"/>
<text text-anchor="middle" x="256.38" y="-378.61" font-family="Helvetica,sans-Serif" font-size="14.00" fill="#66cdaa">QueueEnd</text>
</g>
<!-- DodgeAttackSensor -->
<g id="node14" class="node">
<title>DodgeAttackSensor</title>
<polygon fill="none" stroke="black" points="36.12,-432.12 36.12,-453.88 169.62,-453.88 169.62,-432.12 36.12,-432.12"/>
<text text-anchor="start" x="39.12" y="-437.57" font-family="Helvetica,sans-Serif" font-size="14.00">DodgeAttackSensor &#160;</text>
</g>
<!-- DodgeAttackSensor_linked -->
<g id="node15" class="node">
<title>DodgeAttackSensor_linked</title>
<polygon fill="none" stroke="black" stroke-dasharray="1,5" points="429.1,-472.23 335.4,-472.23 335.4,-405.77 429.1,-405.77 429.1,-472.23"/>
<text text-anchor="start" x="341" y="-453.32" font-family="Helvetica,sans-Serif" font-size="14.00">Slash, Jump &#160;</text>
<text text-anchor="start" x="341" y="-433.57" font-family="Helvetica,sans-Serif" font-size="14.00">Slash, Slash &#160;</text>
<text text-anchor="start" x="341.75" y="-413.82" font-family="Helvetica,sans-Serif" font-size="14.00">RollThrough &#160;</text>
</g>
<!-- DodgeAttackSensor&#45;&gt;DodgeAttackSensor_linked -->
<g id="edge8" class="edge">
<title>DodgeAttackSensor&#45;&gt;DodgeAttackSensor_linked</title>
<path fill="none" stroke="#66cdaa" d="M177.48,-441.94C223.35,-441.28 281.5,-440.44 323.93,-439.83"/>
<polygon fill="#66cdaa" stroke="#66cdaa" points="323.72,-443.33 333.67,-439.69 323.62,-436.33 323.72,-443.33"/>
<text text-anchor="middle" x="256.38" y="-443.69" font-family="Helvetica,sans-Serif" font-size="14.00" fill="#66cdaa">QueueEnd</text>
</g>
<!-- Slash, Slash -->
<g id="node16" class="node">
<title>Slash, Slash</title>
<polygon fill="none" stroke="black" points="12.5,-988.12 12.5,-1009.88 193.25,-1009.88 193.25,-988.12 12.5,-988.12"/>
<text text-anchor="start" x="61.62" y="-993.58" font-family="Helvetica,sans-Serif" font-size="14.00">Slash, Slash &#160;</text>
<polygon fill="none" stroke="black" points="12.5,-944.12 12.5,-988.12 193.25,-988.12 193.25,-944.12 12.5,-944.12"/>
<text text-anchor="start" x="15.5" y="-974.73" font-family="Helvetica,sans-Serif" font-size="12.00" fill="#838b8b">1.27s: InterruptFacing_TargetLeft</text>
<text text-anchor="start" x="15.5" y="-962.73" font-family="Helvetica,sans-Serif" font-size="12.00" fill="#838b8b">2.45s: LinkNextMove</text>
<text text-anchor="start" x="15.5" y="-948.83" font-family="Helvetica,sans-Serif" font-size="12.00" fill="#838b8b">3.75s: Done</text>
<text text-anchor="start" x="80" y="-948.83" font-family="Helvetica,sans-Serif" font-size="14.00"> &#160;</text>
</g>
<!-- Engaging -->
<g id="node17" class="node">
<title>Engaging</title>
<polygon fill="none" stroke="black" points="418.75,-787 345.75,-787 345.75,-751 418.75,-751 418.75,-787"/>
<text text-anchor="middle" x="382.25" y="-763.58" font-family="Helvetica,sans-Serif" font-size="14.00">Engaging</text>
</g>
<!-- Slash, Slash&#45;&gt;Engaging -->
<g id="edge9" class="edge">
<title>Slash, Slash&#45;&gt;Engaging</title>
<path fill="none" stroke="#cdc8b1" d="M190.53,-940.26C195.78,-937.31 200.9,-934.21 205.75,-931 266.15,-891.01 325.84,-830.16 357.67,-795.54"/>
<polygon fill="#cdc8b1" stroke="#cdc8b1" points="359.97,-798.2 364.12,-788.45 354.8,-793.49 359.97,-798.2"/>
</g>
<!-- Slash, Slash_weight -->
<g id="node18" class="node">
<title>Slash, Slash_weight</title>
<polygon fill="none" stroke="black" stroke-dasharray="1,5" points="414.75,-995 349.75,-995 349.75,-959 414.75,-959 414.75,-995"/>
<text text-anchor="start" x="359.75" y="-971.58" font-family="Helvetica,sans-Serif" font-size="14.00">1 Skip &#160;</text>
</g>
<!-- Slash, Slash&#45;&gt;Slash, Slash_weight -->
<g id="edge10" class="edge">
<title>Slash, Slash&#45;&gt;Slash, Slash_weight</title>
<path fill="none" stroke="#458b74" d="M200.89,-977C247.69,-977 301.47,-977 338.04,-977"/>
<polygon fill="#458b74" stroke="#458b74" points="337.77,-980.5 347.77,-977 337.77,-973.5 337.77,-980.5"/>
<text text-anchor="middle" x="256.38" y="-979.45" font-family="Helvetica,sans-Serif" font-size="14.00" fill="#458b74">Weight</text>
</g>
<!-- Dash, Dash, Slash -->
<g id="node19" class="node">
<title>Dash, Dash, Slash</title>
<polygon fill="none" stroke="black" points="8,-584.12 8,-605.88 197.75,-605.88 197.75,-584.12 8,-584.12"/>
<text text-anchor="start" x="43.25" y="-589.58" font-family="Helvetica,sans-Serif" font-size="14.00">Dash, Dash, Slash &#160;</text>
<polygon fill="none" stroke="black" points="8,-516.12 8,-584.12 197.75,-584.12 197.75,-516.12 8,-516.12"/>
<text text-anchor="start" x="11" y="-570.73" font-family="Helvetica,sans-Serif" font-size="12.00" fill="#838b8b">2.63s: InterruptFacing_TargetLeft</text>
<text text-anchor="start" x="11" y="-558.73" font-family="Helvetica,sans-Serif" font-size="12.00" fill="#838b8b">4.70s: InterruptFacing_TargetRight</text>
<text text-anchor="start" x="11" y="-546.73" font-family="Helvetica,sans-Serif" font-size="12.00" fill="#838b8b">5.33s: InterruptIfTooFar</text>
<text text-anchor="start" x="11" y="-534.73" font-family="Helvetica,sans-Serif" font-size="12.00" fill="#838b8b">5.47s: LinkNextMove</text>
<text text-anchor="start" x="11" y="-520.83" font-family="Helvetica,sans-Serif" font-size="12.00" fill="#838b8b">7.48s: Done</text>
<text text-anchor="start" x="75.5" y="-520.83" font-family="Helvetica,sans-Serif" font-size="14.00"> &#160;</text>
</g>
<!-- Dash, Dash, Slash&#45;&gt;Engaging -->
<g id="edge11" class="edge">
<title>Dash, Dash, Slash&#45;&gt;Engaging</title>
<path fill="none" stroke="#cdc8b1" d="M192.06,-609.79C196.75,-612.82 201.34,-615.9 205.75,-619 261.45,-658.13 320.48,-711.35 353.91,-742.75"/>
<polygon fill="#cdc8b1" stroke="#cdc8b1" points="351.47,-745.26 361.14,-749.58 356.28,-740.17 351.47,-745.26"/>
</g>
<!-- Dash, Dash, Slash_weight -->
<g id="node20" class="node">
<title>Dash, Dash, Slash_weight</title>
<polygon fill="none" stroke="black" stroke-dasharray="1,5" points="414.75,-579 349.75,-579 349.75,-543 414.75,-543 414.75,-579"/>
<text text-anchor="start" x="359.75" y="-555.58" font-family="Helvetica,sans-Serif" font-size="14.00">1 Skip &#160;</text>
</g>
<!-- Dash, Dash, Slash&#45;&gt;Dash, Dash, Slash_weight -->
<g id="edge12" class="edge">
<title>Dash, Dash, Slash&#45;&gt;Dash, Dash, Slash_weight</title>
<path fill="none" stroke="#458b74" d="M205.58,-561C251.29,-561 302.77,-561 338.12,-561"/>
<polygon fill="#458b74" stroke="#458b74" points="337.95,-564.5 347.95,-561 337.95,-557.5 337.95,-564.5"/>
<text text-anchor="middle" x="256.38" y="-563.45" font-family="Helvetica,sans-Serif" font-size="14.00" fill="#458b74">Weight</text>
</g>
<!-- Slash, Jump -->
<g id="node21" class="node">
<title>Slash, Jump</title>
<polygon fill="none" stroke="black" points="46.62,-896.12 46.62,-917.88 159.12,-917.88 159.12,-896.12 46.62,-896.12"/>
<text text-anchor="start" x="61.62" y="-901.58" font-family="Helvetica,sans-Serif" font-size="14.00">Slash, Jump &#160;</text>
<polygon fill="none" stroke="black" points="46.62,-852.12 46.62,-896.12 159.12,-896.12 159.12,-852.12 46.62,-852.12"/>
<text text-anchor="start" x="49.62" y="-882.73" font-family="Helvetica,sans-Serif" font-size="12.00" fill="#838b8b">1.47s: CheckFacing</text>
<text text-anchor="start" x="49.62" y="-870.73" font-family="Helvetica,sans-Serif" font-size="12.00" fill="#838b8b">2.52s: CheckFacing</text>
<text text-anchor="start" x="49.62" y="-856.83" font-family="Helvetica,sans-Serif" font-size="12.00" fill="#838b8b">5.58s: Done</text>
<text text-anchor="start" x="114.12" y="-856.83" font-family="Helvetica,sans-Serif" font-size="14.00"> &#160;</text>
</g>
<!-- Slash, Jump&#45;&gt;Engaging -->
<g id="edge13" class="edge">
<title>Slash, Jump&#45;&gt;Engaging</title>
<path fill="none" stroke="#cdc8b1" d="M166.82,-858.68C217.87,-837.33 288.67,-807.72 334.72,-788.46"/>
<polygon fill="#cdc8b1" stroke="#cdc8b1" points="336.02,-791.71 343.9,-784.62 333.32,-785.25 336.02,-791.71"/>
</g>
<!-- DangerDash -->
<g id="node22" class="node">
<title>DangerDash</title>
<polygon fill="none" stroke="black" points="58.25,-804 58.25,-825.75 147.5,-825.75 147.5,-804 58.25,-804"/>
<text text-anchor="start" x="61.25" y="-809.45" font-family="Helvetica,sans-Serif" font-size="14.00">DangerDash &#160;</text>
<polygon fill="none" stroke="black" points="58.25,-782.25 58.25,-804 147.5,-804 147.5,-782.25 58.25,-782.25"/>
<text text-anchor="start" x="61.25" y="-788.7" font-family="Helvetica,sans-Serif" font-size="12.00" fill="#838b8b">3.28s: Done</text>
<text text-anchor="start" x="125.75" y="-788.7" font-family="Helvetica,sans-Serif" font-size="14.00"> &#160;</text>
</g>
<!-- DangerDash&#45;&gt;Engaging -->
<g id="edge14" class="edge">
<title>DangerDash&#45;&gt;Engaging</title>
<path fill="none" stroke="#cdc8b1" d="M155.4,-797.5C206.6,-791.04 284.45,-781.21 334.07,-774.95"/>
<polygon fill="#cdc8b1" stroke="#cdc8b1" points="334.45,-778.43 343.93,-773.71 333.57,-771.49 334.45,-778.43"/>
</g>
<!-- AttackParrying -->
<g id="node23" class="node">
<title>AttackParrying</title>
<polygon fill="none" stroke="black" points="52.25,-734 52.25,-755.75 153.5,-755.75 153.5,-734 52.25,-734"/>
<text text-anchor="start" x="55.25" y="-739.45" font-family="Helvetica,sans-Serif" font-size="14.00">AttackParrying &#160;</text>
<polygon fill="none" stroke="black" points="52.25,-712.25 52.25,-734 153.5,-734 153.5,-712.25 52.25,-712.25"/>
<text text-anchor="start" x="55.25" y="-718.7" font-family="Helvetica,sans-Serif" font-size="12.00" fill="#838b8b">2.67s: Done</text>
<text text-anchor="start" x="119.75" y="-718.7" font-family="Helvetica,sans-Serif" font-size="14.00"> &#160;</text>
</g>
<!-- AttackParrying&#45;&gt;Engaging -->
<g id="edge15" class="edge">
<title>AttackParrying&#45;&gt;Engaging</title>
<path fill="none" stroke="#cdc8b1" d="M161.35,-741.25C212.51,-747.71 286.44,-757.04 334.17,-763.06"/>
<polygon fill="#cdc8b1" stroke="#cdc8b1" points="333.56,-766.51 343.91,-764.29 334.43,-759.56 333.56,-766.51"/>
</g>
<!-- Hurt_BigState -->
<g id="node24" class="node">
<title>Hurt_BigState</title>
<polygon fill="none" stroke="black" points="44.38,-1148.12 44.38,-1169.88 161.38,-1169.88 161.38,-1148.12 44.38,-1148.12"/>
<text text-anchor="start" x="57.12" y="-1153.58" font-family="Helvetica,sans-Serif" font-size="14.00">Hurt_BigState &#160;</text>
<polygon fill="none" stroke="black" points="44.38,-1116.12 44.38,-1148.12 161.38,-1148.12 161.38,-1116.12 44.38,-1116.12"/>
<text text-anchor="start" x="47.38" y="-1134.72" font-family="Helvetica,sans-Serif" font-size="12.00" fill="#838b8b">0.00s: EnableGravity</text>
<text text-anchor="start" x="47.38" y="-1120.82" font-family="Helvetica,sans-Serif" font-size="12.00" fill="#838b8b">2.17s: Done</text>
<text text-anchor="start" x="111.88" y="-1120.82" font-family="Helvetica,sans-Serif" font-size="14.00"> &#160;</text>
</g>
<!-- PreAttack -->
<g id="node25" class="node">
<title>PreAttack</title>
<polygon fill="none" stroke="black" points="419.5,-1121 345,-1121 345,-1085 419.5,-1085 419.5,-1121"/>
<text text-anchor="middle" x="382.25" y="-1097.58" font-family="Helvetica,sans-Serif" font-size="14.00">PreAttack</text>
</g>
<!-- Hurt_BigState&#45;&gt;PreAttack -->
<g id="edge16" class="edge">
<title>Hurt_BigState&#45;&gt;PreAttack</title>
<path fill="none" stroke="#cdc8b1" d="M169.26,-1133.57C219.65,-1126.3 288.16,-1116.43 333.49,-1109.89"/>
<polygon fill="#cdc8b1" stroke="#cdc8b1" points="333.88,-1113.37 343.28,-1108.48 332.88,-1106.44 333.88,-1113.37"/>
</g>
<!-- LastHit -->
<g id="node26" class="node">
<title>LastHit</title>
<polygon fill="none" stroke="black" points="63.88,-1218 63.88,-1239.75 141.88,-1239.75 141.88,-1218 63.88,-1218"/>
<text text-anchor="start" x="78.12" y="-1223.45" font-family="Helvetica,sans-Serif" font-size="14.00">LastHit &#160;</text>
<polygon fill="none" stroke="black" points="63.88,-1196.25 63.88,-1218 141.88,-1218 141.88,-1196.25 63.88,-1196.25"/>
<text text-anchor="start" x="66.88" y="-1202.7" font-family="Helvetica,sans-Serif" font-size="12.00" fill="#838b8b">0.50s: Done</text>
<text text-anchor="start" x="131.38" y="-1202.7" font-family="Helvetica,sans-Serif" font-size="14.00"> &#160;</text>
</g>
<!-- DeadState -->
<g id="node27" class="node">
<title>DeadState</title>
<polygon fill="none" stroke="black" points="422.12,-1236 342.38,-1236 342.38,-1200 422.12,-1200 422.12,-1236"/>
<text text-anchor="middle" x="382.25" y="-1212.58" font-family="Helvetica,sans-Serif" font-size="14.00">DeadState</text>
</g>
<!-- LastHit&#45;&gt;DeadState -->
<g id="edge17" class="edge">
<title>LastHit&#45;&gt;DeadState</title>
<path fill="none" stroke="#cdc8b1" d="M149.68,-1218C199.6,-1218 279.25,-1218 330.9,-1218"/>
<polygon fill="#cdc8b1" stroke="#cdc8b1" points="330.6,-1221.5 340.6,-1218 330.6,-1214.5 330.6,-1221.5"/>
</g>
<!-- PostureBreak -->
<g id="node28" class="node">
<title>PostureBreak</title>
<polygon fill="none" stroke="black" points="44.38,-1068.12 44.38,-1089.88 161.38,-1089.88 161.38,-1068.12 44.38,-1068.12"/>
<text text-anchor="start" x="58.25" y="-1073.58" font-family="Helvetica,sans-Serif" font-size="14.00">PostureBreak &#160;</text>
<polygon fill="none" stroke="black" points="44.38,-1036.12 44.38,-1068.12 161.38,-1068.12 161.38,-1036.12 44.38,-1036.12"/>
<text text-anchor="start" x="47.38" y="-1054.72" font-family="Helvetica,sans-Serif" font-size="12.00" fill="#838b8b">0.00s: EnableGravity</text>
<text text-anchor="start" x="47.38" y="-1040.82" font-family="Helvetica,sans-Serif" font-size="12.00" fill="#838b8b">2.17s: Done</text>
<text text-anchor="start" x="111.88" y="-1040.82" font-family="Helvetica,sans-Serif" font-size="14.00"> &#160;</text>
</g>
<!-- PostureBreak&#45;&gt;PreAttack -->
<g id="edge18" class="edge">
<title>PostureBreak&#45;&gt;PreAttack</title>
<path fill="none" stroke="#cdc8b1" d="M169.26,-1072.43C219.65,-1079.7 288.16,-1089.57 333.49,-1096.11"/>
<polygon fill="#cdc8b1" stroke="#cdc8b1" points="332.88,-1099.56 343.28,-1097.52 333.88,-1092.63 332.88,-1099.56"/>
</g>
<!-- RollThrough -->
<g id="node29" class="node">
<title>RollThrough</title>
<polygon fill="none" stroke="black" points="44.38,-664.12 44.38,-685.88 161.38,-685.88 161.38,-664.12 44.38,-664.12"/>
<text text-anchor="start" x="62.38" y="-669.58" font-family="Helvetica,sans-Serif" font-size="14.00">RollThrough &#160;</text>
<polygon fill="none" stroke="black" points="44.38,-632.12 44.38,-664.12 161.38,-664.12 161.38,-632.12 44.38,-632.12"/>
<text text-anchor="start" x="47.38" y="-650.73" font-family="Helvetica,sans-Serif" font-size="12.00" fill="#838b8b">0.00s: EnableGravity</text>
<text text-anchor="start" x="47.38" y="-636.83" font-family="Helvetica,sans-Serif" font-size="12.00" fill="#838b8b">1.00s: Done</text>
<text text-anchor="start" x="111.88" y="-636.83" font-family="Helvetica,sans-Serif" font-size="14.00"> &#160;</text>
</g>
<!-- RollThrough&#45;&gt;Engaging -->
<g id="edge19" class="edge">
<title>RollThrough&#45;&gt;Engaging</title>
<path fill="none" stroke="#cdc8b1" d="M169.11,-684.55C181.29,-689.34 193.91,-694.32 205.75,-699 249.56,-716.34 299.46,-736.26 334.82,-750.4"/>
<polygon fill="#cdc8b1" stroke="#cdc8b1" points="333.32,-753.57 343.9,-754.04 335.92,-747.07 333.32,-753.57"/>
</g>
<!-- Wandering_Idle -->
<g id="node30" class="node">
<title>Wandering_Idle</title>
<polygon fill="none" stroke="black" points="173.5,-1298 32.25,-1298 32.25,-1262 173.5,-1262 173.5,-1298"/>
<text text-anchor="middle" x="102.88" y="-1274.58" font-family="Helvetica,sans-Serif" font-size="14.00">Wandering_Idle (Init)</text>
</g>
</g>
</svg>
