<?xml version="1.0" encoding="UTF-8" standalone="no"?>
<!DOCTYPE svg PUBLIC "-//W3C//DTD SVG 1.1//EN"
 "http://www.w3.org/Graphics/SVG/1.1/DTD/svg11.dtd">
<!-- Generated by graphviz version 12.2.1 (20241206.2353)
 -->
<!-- Title: Foo Pages: 1 -->
<svg width="399pt" height="1745pt"
 viewBox="0.00 0.00 399.45 1744.88" xmlns="http://www.w3.org/2000/svg" xmlns:xlink="http://www.w3.org/1999/xlink">
<g id="graph0" class="graph" transform="scale(1 1) rotate(0) translate(4 1740.88)">
<title>Foo</title>
<polygon fill="white" stroke="none" points="-4,4 -4,-1740.88 395.45,-1740.88 395.45,4 -4,4"/>
<g id="clust1" class="cluster">
<title>cluster_attacksensors</title>
<polygon fill="none" stroke="black" points="8,-958.88 8,-1728.88 383.45,-1728.88 383.45,-958.88 8,-958.88"/>
<text text-anchor="middle" x="195.72" y="-1711.58" font-family="Helvetica,sans-Serif" font-size="14.00">Attack Sensors</text>
</g>
<!-- Attack -->
<g id="node1" class="node">
<title>Attack</title>
<polygon fill="none" stroke="black" points="33,-661 33,-682.75 153,-682.75 153,-661 33,-661"/>
<text text-anchor="start" x="70.5" y="-666.45" font-family="Helvetica,sans-Serif" font-size="14.00">Attack &#160;</text>
<polygon fill="none" stroke="black" points="33,-617 33,-661 153,-661 153,-617 33,-617"/>
<text text-anchor="start" x="36" y="-647.6" font-family="Helvetica,sans-Serif" font-size="12.00" fill="#838b8b">1.15s: ResetEvaluate</text>
<text text-anchor="start" x="36" y="-635.6" font-family="Helvetica,sans-Serif" font-size="12.00" fill="#838b8b">1.43s: LinkNextMove</text>
<text text-anchor="start" x="36" y="-621.7" font-family="Helvetica,sans-Serif" font-size="12.00" fill="#838b8b">1.60s: Done</text>
<text text-anchor="start" x="100.5" y="-621.7" font-family="Helvetica,sans-Serif" font-size="14.00"> &#160;</text>
</g>
<!-- Engaging -->
<g id="node2" class="node">
<title>Engaging</title>
<polygon fill="none" stroke="black" points="359.85,-327.88 286.85,-327.88 286.85,-291.88 359.85,-291.88 359.85,-327.88"/>
<text text-anchor="middle" x="323.35" y="-304.45" font-family="Helvetica,sans-Serif" font-size="14.00">Engaging</text>
</g>
<!-- Attack&#45;&gt;Engaging -->
<g id="edge1" class="edge">
<title>Attack&#45;&gt;Engaging</title>
<path fill="none" stroke="#cdc8b1" d="M160.85,-624.69C193.48,-609.08 230.51,-585.83 253.25,-553.88 275.64,-522.41 261.33,-506.19 271.25,-468.88 283.46,-422.95 300.98,-370.67 312,-338.99"/>
<polygon fill="#cdc8b1" stroke="#cdc8b1" points="315.24,-340.32 315.25,-329.72 308.64,-338 315.24,-340.32"/>
</g>
<!-- Attack_linked -->
<g id="node3" class="node">
<title>Attack_linked</title>
<polygon fill="none" stroke="black" stroke-dasharray="1,5" points="369.45,-707.85 277.25,-707.85 277.25,-601.9 369.45,-601.9 369.45,-707.85"/>
<text text-anchor="start" x="291.1" y="-688.95" font-family="Helvetica,sans-Serif" font-size="14.00">Engaging &#160;</text>
<text text-anchor="start" x="291.1" y="-669.2" font-family="Helvetica,sans-Serif" font-size="14.00">Engaging &#160;</text>
<text text-anchor="start" x="291.1" y="-649.45" font-family="Helvetica,sans-Serif" font-size="14.00">Engaging &#160;</text>
<text text-anchor="start" x="284.72" y="-629.7" font-family="Helvetica,sans-Serif" font-size="14.00">DangerKick &#160;</text>
<text text-anchor="start" x="282.85" y="-609.95" font-family="Helvetica,sans-Serif" font-size="14.00">RollThrough &#160;</text>
</g>
<!-- Attack&#45;&gt;Attack_linked -->
<g id="edge2" class="edge">
<title>Attack&#45;&gt;Attack_linked</title>
<path fill="none" stroke="#66cdaa" d="M160.97,-651.34C194.26,-652.07 234.04,-652.94 265.78,-653.64"/>
<polygon fill="#66cdaa" stroke="#66cdaa" points="265.49,-657.13 275.57,-653.85 265.65,-650.13 265.49,-657.13"/>
<text text-anchor="middle" x="220.62" y="-655.71" font-family="Helvetica,sans-Serif" font-size="14.00" fill="#66cdaa">QueueEnd</text>
</g>
<!-- DangerKick -->
<g id="node4" class="node">
<title>DangerKick</title>
<polygon fill="none" stroke="black" points="33,-373 33,-394.75 153,-394.75 153,-373 33,-373"/>
<text text-anchor="start" x="54.38" y="-378.45" font-family="Helvetica,sans-Serif" font-size="14.00">DangerKick &#160;</text>
<polygon fill="none" stroke="black" points="33,-317 33,-373 153,-373 153,-317 33,-317"/>
<text text-anchor="start" x="36" y="-359.6" font-family="Helvetica,sans-Serif" font-size="12.00" fill="#838b8b">0.00s: DisableGravity</text>
<text text-anchor="start" x="36" y="-347.6" font-family="Helvetica,sans-Serif" font-size="12.00" fill="#838b8b">0.00s: EnableGravity</text>
<text text-anchor="start" x="36" y="-335.6" font-family="Helvetica,sans-Serif" font-size="12.00" fill="#838b8b">1.00s: ResetEvaluate</text>
<text text-anchor="start" x="36" y="-321.7" font-family="Helvetica,sans-Serif" font-size="12.00" fill="#838b8b">1.33s: Done</text>
<text text-anchor="start" x="100.5" y="-321.7" font-family="Helvetica,sans-Serif" font-size="14.00"> &#160;</text>
</g>
<!-- DangerKick&#45;&gt;Engaging -->
<g id="edge3" class="edge">
<title>DangerKick&#45;&gt;Engaging</title>
<path fill="none" stroke="#cdc8b1" d="M160.97,-342.38C197.7,-334.99 242.34,-325.99 275.35,-319.34"/>
<polygon fill="#cdc8b1" stroke="#cdc8b1" points="275.91,-322.8 285.03,-317.39 274.53,-315.94 275.91,-322.8"/>
</g>
<!-- Attack 3 throw -->
<g id="node5" class="node">
<title>Attack 3 throw</title>
<polygon fill="none" stroke="black" points="34.12,-269 34.12,-290.75 151.88,-290.75 151.88,-269 34.12,-269"/>
<text text-anchor="start" x="46.5" y="-274.45" font-family="Helvetica,sans-Serif" font-size="14.00">Attack 3 throw &#160;</text>
<polygon fill="none" stroke="black" points="34.12,-237 34.12,-269 151.88,-269 151.88,-237 34.12,-237"/>
<text text-anchor="start" x="37.12" y="-255.6" font-family="Helvetica,sans-Serif" font-size="12.00" fill="#838b8b">0.65s: LinkNextMove</text>
<text text-anchor="start" x="37.12" y="-241.7" font-family="Helvetica,sans-Serif" font-size="12.00" fill="#838b8b">1.23s: Done</text>
<text text-anchor="start" x="101.62" y="-241.7" font-family="Helvetica,sans-Serif" font-size="14.00"> &#160;</text>
</g>
<!-- Attack 3 throw&#45;&gt;Engaging -->
<g id="edge4" class="edge">
<title>Attack 3 throw&#45;&gt;Engaging</title>
<path fill="none" stroke="#cdc8b1" d="M159.74,-277.12C196.63,-284.55 241.8,-293.65 275.17,-300.37"/>
<polygon fill="#cdc8b1" stroke="#cdc8b1" points="274.46,-303.8 284.96,-302.34 275.85,-296.94 274.46,-303.8"/>
</g>
<!-- JumpAttack -->
<g id="node6" class="node">
<title>JumpAttack</title>
<polygon fill="none" stroke="black" points="50.62,-188.88 50.62,-210.62 135.38,-210.62 135.38,-188.88 50.62,-188.88"/>
<text text-anchor="start" x="53.62" y="-194.32" font-family="Helvetica,sans-Serif" font-size="14.00">JumpAttack &#160;</text>
<polygon fill="none" stroke="black" points="50.62,-167.12 50.62,-188.88 135.38,-188.88 135.38,-167.12 50.62,-167.12"/>
<text text-anchor="start" x="53.62" y="-173.57" font-family="Helvetica,sans-Serif" font-size="12.00" fill="#838b8b">1.50s: Done</text>
<text text-anchor="start" x="118.12" y="-173.57" font-family="Helvetica,sans-Serif" font-size="14.00"> &#160;</text>
</g>
<!-- JumpAttack&#45;&gt;Engaging -->
<g id="edge5" class="edge">
<title>JumpAttack&#45;&gt;Engaging</title>
<path fill="none" stroke="#cdc8b1" d="M143.34,-210.88C152.28,-215.07 161.46,-219.51 170,-223.88 208.51,-243.57 251.32,-267.96 281.72,-285.74"/>
<polygon fill="#cdc8b1" stroke="#cdc8b1" points="279.84,-288.68 290.23,-290.73 283.38,-282.65 279.84,-288.68"/>
</g>
<!-- DownAttack -->
<g id="node7" class="node">
<title>DownAttack</title>
<polygon fill="none" stroke="black" points="50.25,-442.88 50.25,-464.62 135.75,-464.62 135.75,-442.88 50.25,-442.88"/>
<text text-anchor="start" x="53.25" y="-448.32" font-family="Helvetica,sans-Serif" font-size="14.00">DownAttack &#160;</text>
<polygon fill="none" stroke="black" points="50.25,-421.12 50.25,-442.88 135.75,-442.88 135.75,-421.12 50.25,-421.12"/>
<text text-anchor="start" x="53.25" y="-427.57" font-family="Helvetica,sans-Serif" font-size="12.00" fill="#838b8b">1.08s: Done</text>
<text text-anchor="start" x="117.75" y="-427.57" font-family="Helvetica,sans-Serif" font-size="14.00"> &#160;</text>
</g>
<!-- DownAttack&#45;&gt;Engaging -->
<g id="edge6" class="edge">
<title>DownAttack&#45;&gt;Engaging</title>
<path fill="none" stroke="#cdc8b1" d="M143.56,-421.27C152.47,-417.04 161.59,-412.48 170,-407.88 211.43,-385.16 256.7,-355.35 287.04,-334.6"/>
<polygon fill="#cdc8b1" stroke="#cdc8b1" points="288.84,-337.61 295.09,-329.06 284.87,-331.84 288.84,-337.61"/>
</g>
<!-- ZShowAttack -->
<g id="node8" class="node">
<title>ZShowAttack</title>
<polygon fill="none" stroke="black" points="33,-559 33,-580.75 153,-580.75 153,-559 33,-559"/>
<text text-anchor="start" x="49.5" y="-564.45" font-family="Helvetica,sans-Serif" font-size="14.00">ZShowAttack &#160;</text>
<polygon fill="none" stroke="black" points="33,-491 33,-559 153,-559 153,-491 33,-491"/>
<text text-anchor="start" x="36" y="-545.6" font-family="Helvetica,sans-Serif" font-size="12.00" fill="#838b8b">0.00s: EnableGravity</text>
<text text-anchor="start" x="36" y="-533.6" font-family="Helvetica,sans-Serif" font-size="12.00" fill="#838b8b">0.50s: CheckFacing</text>
<text text-anchor="start" x="36" y="-521.6" font-family="Helvetica,sans-Serif" font-size="12.00" fill="#838b8b">0.50s: EnableGravity</text>
<text text-anchor="start" x="36" y="-509.6" font-family="Helvetica,sans-Serif" font-size="12.00" fill="#838b8b">1.83s: ResetEvaluate</text>
<text text-anchor="start" x="36" y="-495.7" font-family="Helvetica,sans-Serif" font-size="12.00" fill="#838b8b">2.25s: Done</text>
<text text-anchor="start" x="100.5" y="-495.7" font-family="Helvetica,sans-Serif" font-size="14.00"> &#160;</text>
</g>
<!-- ZShowAttack&#45;&gt;Engaging -->
<g id="edge7" class="edge">
<title>ZShowAttack&#45;&gt;Engaging</title>
<path fill="none" stroke="#cdc8b1" d="M159.21,-487.15C162.9,-484.07 166.53,-480.96 170,-477.88 221.05,-432.49 272.88,-371.46 300.99,-336.83"/>
<polygon fill="#cdc8b1" stroke="#cdc8b1" points="303.43,-339.37 306.98,-329.39 297.98,-334.98 303.43,-339.37"/>
</g>
<!-- ZShowAttack_linked -->
<g id="node9" class="node">
<title>ZShowAttack_linked</title>
<polygon fill="none" stroke="black" stroke-dasharray="1,5" points="369.45,-583.85 277.25,-583.85 277.25,-477.9 369.45,-477.9 369.45,-583.85"/>
<text text-anchor="start" x="291.1" y="-564.95" font-family="Helvetica,sans-Serif" font-size="14.00">Engaging &#160;</text>
<text text-anchor="start" x="291.1" y="-545.2" font-family="Helvetica,sans-Serif" font-size="14.00">Engaging &#160;</text>
<text text-anchor="start" x="291.1" y="-525.45" font-family="Helvetica,sans-Serif" font-size="14.00">Engaging &#160;</text>
<text text-anchor="start" x="284.72" y="-505.7" font-family="Helvetica,sans-Serif" font-size="14.00">DangerKick &#160;</text>
<text text-anchor="start" x="282.85" y="-485.95" font-family="Helvetica,sans-Serif" font-size="14.00">RollThrough &#160;</text>
</g>
<!-- ZShowAttack&#45;&gt;ZShowAttack_linked -->
<g id="edge8" class="edge">
<title>ZShowAttack&#45;&gt;ZShowAttack_linked</title>
<path fill="none" stroke="#66cdaa" d="M160.97,-534.41C194.26,-533.68 234.04,-532.81 265.78,-532.11"/>
<polygon fill="#66cdaa" stroke="#66cdaa" points="265.65,-535.62 275.57,-531.9 265.49,-528.62 265.65,-535.62"/>
<text text-anchor="middle" x="220.62" y="-536.12" font-family="Helvetica,sans-Serif" font-size="14.00" fill="#66cdaa">QueueEnd</text>
</g>
<!-- Hide -->
<g id="node10" class="node">
<title>Hide</title>
<polygon fill="none" stroke="black" points="30.75,-118.88 30.75,-140.62 155.25,-140.62 155.25,-118.88 30.75,-118.88"/>
<text text-anchor="start" x="75.38" y="-124.33" font-family="Helvetica,sans-Serif" font-size="14.00">Hide &#160;</text>
<polygon fill="none" stroke="black" points="30.75,-97.12 30.75,-118.88 155.25,-118.88 155.25,-97.12 30.75,-97.12"/>
<text text-anchor="start" x="33.75" y="-103.58" font-family="Helvetica,sans-Serif" font-size="12.00" fill="#838b8b">0.00s: EnableGravity</text>
<text text-anchor="start" x="144.75" y="-103.58" font-family="Helvetica,sans-Serif" font-size="14.00"> &#160;</text>
</g>
<!-- Hide&#45;&gt;Engaging -->
<g id="edge9" class="edge">
<title>Hide&#45;&gt;Engaging</title>
<path fill="none" stroke="#cdc8b1" d="M154.3,-144.47C159.73,-147.42 165.05,-150.57 170,-153.88 224.38,-190.21 274.75,-248.54 301.75,-282.64"/>
<polygon fill="#cdc8b1" stroke="#cdc8b1" points="298.88,-284.66 307.8,-290.39 304.4,-280.35 298.88,-284.66"/>
</g>
<!-- Hide_linked -->
<g id="node11" class="node">
<title>Hide_linked</title>
<polygon fill="none" stroke="black" stroke-dasharray="1,5" points="369.45,-175.85 277.25,-175.85 277.25,-69.9 369.45,-69.9 369.45,-175.85"/>
<text text-anchor="start" x="291.1" y="-156.95" font-family="Helvetica,sans-Serif" font-size="14.00">Engaging &#160;</text>
<text text-anchor="start" x="291.1" y="-137.2" font-family="Helvetica,sans-Serif" font-size="14.00">Engaging &#160;</text>
<text text-anchor="start" x="291.1" y="-117.45" font-family="Helvetica,sans-Serif" font-size="14.00">Engaging &#160;</text>
<text text-anchor="start" x="284.72" y="-97.7" font-family="Helvetica,sans-Serif" font-size="14.00">DangerKick &#160;</text>
<text text-anchor="start" x="282.85" y="-77.95" font-family="Helvetica,sans-Serif" font-size="14.00">RollThrough &#160;</text>
</g>
<!-- Hide&#45;&gt;Hide_linked -->
<g id="edge10" class="edge">
<title>Hide&#45;&gt;Hide_linked</title>
<path fill="none" stroke="#66cdaa" d="M163.13,-120.09C195.84,-120.66 234.42,-121.33 265.41,-121.88"/>
<polygon fill="#66cdaa" stroke="#66cdaa" points="265.32,-125.38 275.38,-122.05 265.44,-118.38 265.32,-125.38"/>
<text text-anchor="middle" x="220.62" y="-124.03" font-family="Helvetica,sans-Serif" font-size="14.00" fill="#66cdaa">QueueEnd</text>
</g>
<!-- HurtState -->
<g id="node12" class="node">
<title>HurtState</title>
<polygon fill="none" stroke="black" points="54,-870.88 54,-892.62 132,-892.62 132,-870.88 54,-870.88"/>
<text text-anchor="start" x="60.75" y="-876.33" font-family="Helvetica,sans-Serif" font-size="14.00">HurtState &#160;</text>
<polygon fill="none" stroke="black" points="54,-849.12 54,-870.88 132,-870.88 132,-849.12 54,-849.12"/>
<text text-anchor="start" x="57" y="-855.58" font-family="Helvetica,sans-Serif" font-size="12.00" fill="#838b8b">0.17s: Done</text>
<text text-anchor="start" x="121.5" y="-855.58" font-family="Helvetica,sans-Serif" font-size="14.00"> &#160;</text>
</g>
<!-- PreAttack -->
<g id="node13" class="node">
<title>PreAttack</title>
<polygon fill="none" stroke="black" points="360.6,-818.88 286.1,-818.88 286.1,-782.88 360.6,-782.88 360.6,-818.88"/>
<text text-anchor="middle" x="323.35" y="-795.45" font-family="Helvetica,sans-Serif" font-size="14.00">PreAttack</text>
</g>
<!-- HurtState&#45;&gt;PreAttack -->
<g id="edge11" class="edge">
<title>HurtState&#45;&gt;PreAttack</title>
<path fill="none" stroke="#cdc8b1" d="M139.94,-856.79C179.14,-844.78 235.29,-827.56 274.92,-815.42"/>
<polygon fill="#cdc8b1" stroke="#cdc8b1" points="275.9,-818.78 284.43,-812.5 273.85,-812.08 275.9,-818.78"/>
</g>
<!-- Hurt_BigState -->
<g id="node14" class="node">
<title>Hurt_BigState</title>
<polygon fill="none" stroke="black" points="44.25,-800.88 44.25,-822.62 141.75,-822.62 141.75,-800.88 44.25,-800.88"/>
<text text-anchor="start" x="47.25" y="-806.33" font-family="Helvetica,sans-Serif" font-size="14.00">Hurt_BigState &#160;</text>
<polygon fill="none" stroke="black" points="44.25,-779.12 44.25,-800.88 141.75,-800.88 141.75,-779.12 44.25,-779.12"/>
<text text-anchor="start" x="47.25" y="-785.58" font-family="Helvetica,sans-Serif" font-size="12.00" fill="#838b8b">1.00s: Done</text>
<text text-anchor="start" x="111.75" y="-785.58" font-family="Helvetica,sans-Serif" font-size="14.00"> &#160;</text>
</g>
<!-- Hurt_BigState&#45;&gt;PreAttack -->
<g id="edge12" class="edge">
<title>Hurt_BigState&#45;&gt;PreAttack</title>
<path fill="none" stroke="#cdc8b1" d="M149.57,-800.88C187.81,-800.88 238.08,-800.88 274.53,-800.88"/>
<polygon fill="#cdc8b1" stroke="#cdc8b1" points="274.33,-804.38 284.33,-800.88 274.33,-797.38 274.33,-804.38"/>
</g>
<!-- PostureBreak -->
<g id="node15" class="node">
<title>PostureBreak</title>
<polygon fill="none" stroke="black" points="45.38,-730.88 45.38,-752.62 140.62,-752.62 140.62,-730.88 45.38,-730.88"/>
<text text-anchor="start" x="48.38" y="-736.33" font-family="Helvetica,sans-Serif" font-size="14.00">PostureBreak &#160;</text>
<polygon fill="none" stroke="black" points="45.38,-709.12 45.38,-730.88 140.62,-730.88 140.62,-709.12 45.38,-709.12"/>
<text text-anchor="start" x="48.38" y="-715.58" font-family="Helvetica,sans-Serif" font-size="12.00" fill="#838b8b">1.50s: Done</text>
<text text-anchor="start" x="112.88" y="-715.58" font-family="Helvetica,sans-Serif" font-size="14.00"> &#160;</text>
</g>
<!-- PostureBreak&#45;&gt;PreAttack -->
<g id="edge13" class="edge">
<title>PostureBreak&#45;&gt;PreAttack</title>
<path fill="none" stroke="#cdc8b1" d="M148.41,-747.55C186.9,-759.35 238.02,-775.02 274.87,-786.32"/>
<polygon fill="#cdc8b1" stroke="#cdc8b1" points="273.78,-789.65 284.37,-789.23 275.83,-782.95 273.78,-789.65"/>
</g>
<!-- RollThrough -->
<g id="node16" class="node">
<title>RollThrough</title>
<polygon fill="none" stroke="black" points="34.12,-36 34.12,-57.75 151.88,-57.75 151.88,-36 34.12,-36"/>
<text text-anchor="start" x="52.5" y="-41.45" font-family="Helvetica,sans-Serif" font-size="14.00">RollThrough &#160;</text>
<polygon fill="none" stroke="black" points="34.12,-4 34.12,-36 151.88,-36 151.88,-4 34.12,-4"/>
<text text-anchor="start" x="37.12" y="-22.6" font-family="Helvetica,sans-Serif" font-size="12.00" fill="#838b8b">0.50s: LinkNextMove</text>
<text text-anchor="start" x="37.12" y="-8.7" font-family="Helvetica,sans-Serif" font-size="12.00" fill="#838b8b">0.58s: Done</text>
<text text-anchor="start" x="101.62" y="-8.7" font-family="Helvetica,sans-Serif" font-size="14.00"> &#160;</text>
</g>
<!-- RollThrough&#45;&gt;Engaging -->
<g id="edge14" class="edge">
<title>RollThrough&#45;&gt;Engaging</title>
<path fill="none" stroke="#cdc8b1" d="M159.72,-52.14C192.25,-65.82 229.53,-86.76 253.25,-116.88 272.6,-141.43 261.31,-155.23 271.25,-184.88 282.54,-218.57 298.38,-256.18 309.42,-281.26"/>
<polygon fill="#cdc8b1" stroke="#cdc8b1" points="306.1,-282.42 313.36,-290.14 312.5,-279.58 306.1,-282.42"/>
</g>
<!-- RollThrough_linked -->
<g id="node17" class="node">
<title>RollThrough_linked</title>
<polygon fill="none" stroke="black" stroke-dasharray="1,5" points="375.45,-52.23 271.25,-52.23 271.25,-5.52 375.45,-5.52 375.45,-52.23"/>
<text text-anchor="start" x="291.1" y="-33.33" font-family="Helvetica,sans-Serif" font-size="14.00">Engaging &#160;</text>
<text text-anchor="start" x="276.85" y="-13.57" font-family="Helvetica,sans-Serif" font-size="14.00">Attack 3 throw &#160;</text>
</g>
<!-- RollThrough&#45;&gt;RollThrough_linked -->
<g id="edge15" class="edge">
<title>RollThrough&#45;&gt;RollThrough_linked</title>
<path fill="none" stroke="#66cdaa" d="M159.74,-30.3C191.19,-30.02 228.66,-29.7 259.7,-29.42"/>
<polygon fill="#66cdaa" stroke="#66cdaa" points="259.33,-32.93 269.3,-29.34 259.27,-25.93 259.33,-32.93"/>
<text text-anchor="middle" x="220.62" y="-32.44" font-family="Helvetica,sans-Serif" font-size="14.00" fill="#66cdaa">QueueEnd</text>
</g>
<!-- Wandering_Idle -->
<g id="node18" class="node">
<title>Wandering_Idle</title>
<polygon fill="none" stroke="black" points="163.62,-950.88 22.38,-950.88 22.38,-914.88 163.62,-914.88 163.62,-950.88"/>
<text text-anchor="middle" x="93" y="-927.45" font-family="Helvetica,sans-Serif" font-size="14.00">Wandering_Idle (Init)</text>
</g>
<!-- Level Once Sensor -->
<g id="node19" class="node">
<title>Level Once Sensor</title>
<polygon fill="none" stroke="black" points="158.75,-1010.88 27.25,-1010.88 27.25,-974.88 158.75,-974.88 158.75,-1010.88"/>
<text text-anchor="middle" x="93" y="-987.45" font-family="Helvetica,sans-Serif" font-size="14.00">Level Once Sensor</text>
</g>
<!-- Level Once Sensor_linked -->
<g id="node20" class="node">
<title>Level Once Sensor_linked</title>
<polygon fill="none" stroke="black" stroke-dasharray="1,5" points="351.45,-1056.88 295.25,-1056.88 295.25,-1020.88 351.45,-1020.88 351.45,-1056.88"/>
<text text-anchor="start" x="300.85" y="-1033.45" font-family="Helvetica,sans-Serif" font-size="14.00">Attack &#160;</text>
</g>
<!-- Level Once Sensor&#45;&gt;Level Once Sensor_linked -->
<g id="edge16" class="edge">
<title>Level Once Sensor&#45;&gt;Level Once Sensor_linked</title>
<path fill="none" stroke="#66cdaa" d="M159.13,-1006C199.52,-1014.13 250.01,-1024.3 284.06,-1031.16"/>
<polygon fill="#66cdaa" stroke="#66cdaa" points="282.96,-1034.51 293.45,-1033.05 284.34,-1027.65 282.96,-1034.51"/>
<text text-anchor="middle" x="220.62" y="-1026.45" font-family="Helvetica,sans-Serif" font-size="14.00" fill="#66cdaa">QueueEnd</text>
</g>
<!-- Level Once Sensor_mustuse -->
<g id="node21" class="node">
<title>Level Once Sensor_mustuse</title>
<polygon fill="none" stroke="black" stroke-dasharray="1,5" points="373.47,-1002.88 273.22,-1002.88 273.22,-966.88 373.47,-966.88 373.47,-1002.88"/>
<text text-anchor="start" x="283.22" y="-979.45" font-family="Helvetica,sans-Serif" font-size="14.00">1 Undefined &#160;</text>
</g>
<!-- Level Once Sensor&#45;&gt;Level Once Sensor_mustuse -->
<g id="edge17" class="edge">
<title>Level Once Sensor&#45;&gt;Level Once Sensor_mustuse</title>
<path fill="none" stroke="#458b74" d="M159.13,-990.59C191.3,-989.47 229.88,-988.11 261.46,-987.01"/>
<polygon fill="#458b74" stroke="#458b74" points="261.36,-990.51 271.23,-986.67 261.12,-983.52 261.36,-990.51"/>
<text text-anchor="middle" x="220.62" y="-991.8" font-family="Helvetica,sans-Serif" font-size="14.00" fill="#458b74">Weight</text>
</g>
<!-- RunAwaySensor -->
<g id="node22" class="node">
<title>RunAwaySensor</title>
<polygon fill="none" stroke="black" points="151.25,-1075.88 34.75,-1075.88 34.75,-1039.88 151.25,-1039.88 151.25,-1075.88"/>
<text text-anchor="middle" x="93" y="-1052.45" font-family="Helvetica,sans-Serif" font-size="14.00">RunAwaySensor</text>
</g>
<!-- AttackSensor -->
<g id="node23" class="node">
<title>AttackSensor</title>
<polygon fill="none" stroke="black" points="141.12,-1135.88 44.88,-1135.88 44.88,-1099.88 141.12,-1099.88 141.12,-1135.88"/>
<text text-anchor="middle" x="93" y="-1112.45" font-family="Helvetica,sans-Serif" font-size="14.00">AttackSensor</text>
</g>
<!-- AttackSensor_linked -->
<g id="node24" class="node">
<title>AttackSensor_linked</title>
<polygon fill="none" stroke="black" stroke-dasharray="1,5" points="369.45,-1160.97 277.25,-1160.97 277.25,-1074.78 369.45,-1074.78 369.45,-1160.97"/>
<text text-anchor="start" x="300.85" y="-1142.08" font-family="Helvetica,sans-Serif" font-size="14.00">Attack &#160;</text>
<text text-anchor="start" x="282.85" y="-1122.33" font-family="Helvetica,sans-Serif" font-size="14.00">RollThrough &#160;</text>
<text text-anchor="start" x="284.72" y="-1102.58" font-family="Helvetica,sans-Serif" font-size="14.00">DangerKick &#160;</text>
<text text-anchor="start" x="300.85" y="-1082.83" font-family="Helvetica,sans-Serif" font-size="14.00">Attack &#160;</text>
</g>
<!-- AttackSensor&#45;&gt;AttackSensor_linked -->
<g id="edge18" class="edge">
<title>AttackSensor&#45;&gt;AttackSensor_linked</title>
<path fill="none" stroke="#66cdaa" d="M141.59,-1117.88C177.6,-1117.88 227.2,-1117.88 265.33,-1117.88"/>
<polygon fill="#66cdaa" stroke="#66cdaa" points="265.25,-1121.38 275.25,-1117.88 265.25,-1114.38 265.25,-1121.38"/>
<text text-anchor="middle" x="220.62" y="-1120.33" font-family="Helvetica,sans-Serif" font-size="14.00" fill="#66cdaa">QueueEnd</text>
</g>
<!-- DodgePredictSensor -->
<g id="node25" class="node">
<title>DodgePredictSensor</title>
<polygon fill="none" stroke="black" points="24,-1196.88 24,-1218.62 162,-1218.62 162,-1196.88 24,-1196.88"/>
<text text-anchor="start" x="27" y="-1202.33" font-family="Helvetica,sans-Serif" font-size="14.00">DodgePredictSensor &#160;</text>
<polygon fill="none" stroke="black" points="24,-1175.12 24,-1196.88 162,-1196.88 162,-1175.12 24,-1175.12"/>
<text text-anchor="start" x="27" y="-1181.58" font-family="Helvetica,sans-Serif" font-size="12.00" fill="#838b8b">if: Dodge</text>
<text text-anchor="start" x="75" y="-1181.58" font-family="Helvetica,sans-Serif" font-size="14.00"> &#160;</text>
</g>
<!-- DodgePredictSensor_linked -->
<g id="node26" class="node">
<title>DodgePredictSensor_linked</title>
<polygon fill="none" stroke="black" stroke-dasharray="1,5" points="351.45,-1214.88 295.25,-1214.88 295.25,-1178.88 351.45,-1178.88 351.45,-1214.88"/>
<text text-anchor="start" x="300.85" y="-1191.45" font-family="Helvetica,sans-Serif" font-size="14.00">Attack &#160;</text>
</g>
<!-- DodgePredictSensor&#45;&gt;DodgePredictSensor_linked -->
<g id="edge19" class="edge">
<title>DodgePredictSensor&#45;&gt;DodgePredictSensor_linked</title>
<path fill="none" stroke="#66cdaa" d="M169.72,-1196.88C207.94,-1196.88 252.67,-1196.88 283.78,-1196.88"/>
<polygon fill="#66cdaa" stroke="#66cdaa" points="283.49,-1200.38 293.49,-1196.88 283.49,-1193.38 283.49,-1200.38"/>
<text text-anchor="middle" x="220.62" y="-1199.33" font-family="Helvetica,sans-Serif" font-size="14.00" fill="#66cdaa">QueueEnd</text>
</g>
<!-- AttackPredictSensor -->
<g id="node27" class="node">
<title>AttackPredictSensor</title>
<polygon fill="none" stroke="black" points="25.12,-1271.88 25.12,-1293.62 160.88,-1293.62 160.88,-1271.88 25.12,-1271.88"/>
<text text-anchor="start" x="28.12" y="-1277.33" font-family="Helvetica,sans-Serif" font-size="14.00">AttackPredictSensor &#160;</text>
<polygon fill="none" stroke="black" points="25.12,-1250.12 25.12,-1271.88 160.88,-1271.88 160.88,-1250.12 25.12,-1250.12"/>
<text text-anchor="start" x="28.12" y="-1256.58" font-family="Helvetica,sans-Serif" font-size="12.00" fill="#838b8b">if: Attack</text>
<text text-anchor="start" x="73.12" y="-1256.58" font-family="Helvetica,sans-Serif" font-size="14.00"> &#160;</text>
</g>
<!-- AttackPredictSensor_linked -->
<g id="node28" class="node">
<title>AttackPredictSensor_linked</title>
<polygon fill="none" stroke="black" stroke-dasharray="1,5" points="351.45,-1322.88 295.25,-1322.88 295.25,-1286.88 351.45,-1286.88 351.45,-1322.88"/>
<text text-anchor="start" x="300.85" y="-1299.45" font-family="Helvetica,sans-Serif" font-size="14.00">Attack &#160;</text>
</g>
<!-- AttackPredictSensor&#45;&gt;AttackPredictSensor_linked -->
<g id="edge20" class="edge">
<title>AttackPredictSensor&#45;&gt;AttackPredictSensor_linked</title>
<path fill="none" stroke="#66cdaa" d="M168.77,-1282.68C207.06,-1288.21 252.09,-1294.72 283.46,-1299.25"/>
<polygon fill="#66cdaa" stroke="#66cdaa" points="282.87,-1302.71 293.27,-1300.67 283.87,-1295.78 282.87,-1302.71"/>
<text text-anchor="middle" x="220.62" y="-1296.65" font-family="Helvetica,sans-Serif" font-size="14.00" fill="#66cdaa">QueueEnd</text>
</g>
<!-- AttackPredictSensor_mustuse -->
<g id="node29" class="node">
<title>AttackPredictSensor_mustuse</title>
<polygon fill="none" stroke="black" stroke-dasharray="1,5" points="355.85,-1268.88 290.85,-1268.88 290.85,-1232.88 355.85,-1232.88 355.85,-1268.88"/>
<text text-anchor="start" x="300.85" y="-1245.45" font-family="Helvetica,sans-Serif" font-size="14.00">1 Skip &#160;</text>
</g>
<!-- AttackPredictSensor&#45;&gt;AttackPredictSensor_mustuse -->
<g id="edge21" class="edge">
<title>AttackPredictSensor&#45;&gt;AttackPredictSensor_mustuse</title>
<path fill="none" stroke="#458b74" d="M168.87,-1262.14C175.33,-1261.41 181.78,-1260.73 188,-1260.12 218.51,-1257.17 253,-1254.82 279.4,-1253.22"/>
<polygon fill="#458b74" stroke="#458b74" points="279.26,-1256.74 289.04,-1252.65 278.85,-1249.75 279.26,-1256.74"/>
<text text-anchor="middle" x="220.62" y="-1262.58" font-family="Helvetica,sans-Serif" font-size="14.00" fill="#458b74">Weight</text>
</g>
<!-- AttackRunToSensor -->
<g id="node30" class="node">
<title>AttackRunToSensor</title>
<polygon fill="none" stroke="black" points="26.62,-1352.88 26.62,-1374.62 159.38,-1374.62 159.38,-1352.88 26.62,-1352.88"/>
<text text-anchor="start" x="29.62" y="-1358.33" font-family="Helvetica,sans-Serif" font-size="14.00">AttackRunToSensor &#160;</text>
<polygon fill="none" stroke="black" points="26.62,-1331.12 26.62,-1352.88 159.38,-1352.88 159.38,-1331.12 26.62,-1331.12"/>
<text text-anchor="start" x="29.62" y="-1337.58" font-family="Helvetica,sans-Serif" font-size="12.00" fill="#838b8b">if: state is Engaging</text>
<text text-anchor="start" x="133.88" y="-1337.58" font-family="Helvetica,sans-Serif" font-size="14.00"> &#160;</text>
</g>
<!-- AttackRunToSensor_linked -->
<g id="node31" class="node">
<title>AttackRunToSensor_linked</title>
<polygon fill="none" stroke="black" stroke-dasharray="1,5" points="351.45,-1376.88 295.25,-1376.88 295.25,-1340.88 351.45,-1340.88 351.45,-1376.88"/>
<text text-anchor="start" x="300.85" y="-1353.45" font-family="Helvetica,sans-Serif" font-size="14.00">Attack &#160;</text>
</g>
<!-- AttackRunToSensor&#45;&gt;AttackRunToSensor_linked -->
<g id="edge22" class="edge">
<title>AttackRunToSensor&#45;&gt;AttackRunToSensor_linked</title>
<path fill="none" stroke="#66cdaa" d="M167.19,-1354.8C205.83,-1355.81 251.68,-1357.02 283.48,-1357.85"/>
<polygon fill="#66cdaa" stroke="#66cdaa" points="283.33,-1361.35 293.42,-1358.11 283.51,-1354.35 283.33,-1361.35"/>
<text text-anchor="middle" x="220.62" y="-1359.38" font-family="Helvetica,sans-Serif" font-size="14.00" fill="#66cdaa">QueueEnd</text>
</g>
<!-- ShootAttackSensor -->
<g id="node32" class="node">
<title>ShootAttackSensor</title>
<polygon fill="none" stroke="black" points="158.75,-1432.88 27.25,-1432.88 27.25,-1396.88 158.75,-1396.88 158.75,-1432.88"/>
<text text-anchor="middle" x="93" y="-1409.45" font-family="Helvetica,sans-Serif" font-size="14.00">ShootAttackSensor</text>
</g>
<!-- ShootAttackSensor_linked -->
<g id="node33" class="node">
<title>ShootAttackSensor_linked</title>
<polygon fill="none" stroke="black" stroke-dasharray="1,5" points="375.45,-1430.88 271.25,-1430.88 271.25,-1394.88 375.45,-1394.88 375.45,-1430.88"/>
<text text-anchor="start" x="276.85" y="-1407.45" font-family="Helvetica,sans-Serif" font-size="14.00">Attack 3 throw &#160;</text>
</g>
<!-- ShootAttackSensor&#45;&gt;ShootAttackSensor_linked -->
<g id="edge23" class="edge">
<title>ShootAttackSensor&#45;&gt;ShootAttackSensor_linked</title>
<path fill="none" stroke="#66cdaa" d="M159.13,-1414.3C190.71,-1414.03 228.48,-1413.7 259.72,-1413.42"/>
<polygon fill="#66cdaa" stroke="#66cdaa" points="259.43,-1416.93 269.4,-1413.34 259.37,-1409.93 259.43,-1416.93"/>
<text text-anchor="middle" x="220.62" y="-1416.44" font-family="Helvetica,sans-Serif" font-size="14.00" fill="#66cdaa">QueueEnd</text>
</g>
<!-- AttackUpSensor -->
<g id="node34" class="node">
<title>AttackUpSensor</title>
<polygon fill="none" stroke="black" points="37.5,-1495.88 37.5,-1517.62 148.5,-1517.62 148.5,-1495.88 37.5,-1495.88"/>
<text text-anchor="start" x="40.5" y="-1501.33" font-family="Helvetica,sans-Serif" font-size="14.00">AttackUpSensor &#160;</text>
<polygon fill="none" stroke="black" points="37.5,-1474.12 37.5,-1495.88 148.5,-1495.88 148.5,-1474.12 37.5,-1474.12"/>
<text text-anchor="start" x="40.5" y="-1480.58" font-family="Helvetica,sans-Serif" font-size="12.00" fill="#838b8b">if not:</text>
<text text-anchor="start" x="69" y="-1480.58" font-family="Helvetica,sans-Serif" font-size="14.00"> &#160;</text>
</g>
<!-- AttackUpSensor_linked -->
<g id="node35" class="node">
<title>AttackUpSensor_linked</title>
<polygon fill="none" stroke="black" stroke-dasharray="1,5" points="351.45,-1538.88 295.25,-1538.88 295.25,-1502.88 351.45,-1502.88 351.45,-1538.88"/>
<text text-anchor="start" x="300.85" y="-1515.45" font-family="Helvetica,sans-Serif" font-size="14.00">Attack &#160;</text>
</g>
<!-- AttackUpSensor&#45;&gt;AttackUpSensor_linked -->
<g id="edge24" class="edge">
<title>AttackUpSensor&#45;&gt;AttackUpSensor_linked</title>
<path fill="none" stroke="#66cdaa" d="M156.4,-1502.71C197.09,-1507.16 248.92,-1512.84 283.73,-1516.65"/>
<polygon fill="#66cdaa" stroke="#66cdaa" points="283.02,-1520.09 293.34,-1517.7 283.78,-1513.13 283.02,-1520.09"/>
<text text-anchor="middle" x="220.62" y="-1515.24" font-family="Helvetica,sans-Serif" font-size="14.00" fill="#66cdaa">QueueEnd</text>
</g>
<!-- AttackUpSensor_mustuse -->
<g id="node36" class="node">
<title>AttackUpSensor_mustuse</title>
<polygon fill="none" stroke="black" stroke-dasharray="1,5" points="355.85,-1484.88 290.85,-1484.88 290.85,-1448.88 355.85,-1448.88 355.85,-1484.88"/>
<text text-anchor="start" x="300.85" y="-1461.45" font-family="Helvetica,sans-Serif" font-size="14.00">1 Skip &#160;</text>
</g>
<!-- AttackUpSensor&#45;&gt;AttackUpSensor_mustuse -->
<g id="edge25" class="edge">
<title>AttackUpSensor&#45;&gt;AttackUpSensor_mustuse</title>
<path fill="none" stroke="#458b74" d="M156.4,-1487.95C195.43,-1482.99 244.71,-1476.74 279.39,-1472.33"/>
<polygon fill="#458b74" stroke="#458b74" points="279.57,-1475.84 289.05,-1471.1 278.69,-1468.89 279.57,-1475.84"/>
<text text-anchor="middle" x="220.62" y="-1485.56" font-family="Helvetica,sans-Serif" font-size="14.00" fill="#458b74">Weight</text>
</g>
<!-- AttackDownSensor -->
<g id="node37" class="node">
<title>AttackDownSensor</title>
<polygon fill="none" stroke="black" points="158.38,-1632.88 27.62,-1632.88 27.62,-1596.88 158.38,-1596.88 158.38,-1632.88"/>
<text text-anchor="middle" x="93" y="-1609.45" font-family="Helvetica,sans-Serif" font-size="14.00">AttackDownSensor</text>
</g>
<!-- AttackDownSensor_linked -->
<g id="node38" class="node">
<title>AttackDownSensor_linked</title>
<polygon fill="none" stroke="black" stroke-dasharray="1,5" points="369.45,-1696.97 277.25,-1696.97 277.25,-1610.78 369.45,-1610.78 369.45,-1696.97"/>
<text text-anchor="start" x="300.85" y="-1678.08" font-family="Helvetica,sans-Serif" font-size="14.00">Attack &#160;</text>
<text text-anchor="start" x="282.85" y="-1658.33" font-family="Helvetica,sans-Serif" font-size="14.00">RollThrough &#160;</text>
<text text-anchor="start" x="284.72" y="-1638.58" font-family="Helvetica,sans-Serif" font-size="14.00">DangerKick &#160;</text>
<text text-anchor="start" x="300.85" y="-1618.83" font-family="Helvetica,sans-Serif" font-size="14.00">Attack &#160;</text>
</g>
<!-- AttackDownSensor&#45;&gt;AttackDownSensor_linked -->
<g id="edge26" class="edge">
<title>AttackDownSensor&#45;&gt;AttackDownSensor_linked</title>
<path fill="none" stroke="#66cdaa" d="M158.83,-1625.95C192.56,-1631.71 233.41,-1638.68 265.84,-1644.22"/>
<polygon fill="#66cdaa" stroke="#66cdaa" points="265,-1647.63 275.44,-1645.86 266.18,-1640.73 265,-1647.63"/>
<text text-anchor="middle" x="220.62" y="-1643.71" font-family="Helvetica,sans-Serif" font-size="14.00" fill="#66cdaa">QueueEnd</text>
</g>
<!-- AttackDownSensor_mustuse -->
<g id="node39" class="node">
<title>AttackDownSensor_mustuse</title>
<polygon fill="none" stroke="black" stroke-dasharray="1,5" points="355.85,-1592.88 290.85,-1592.88 290.85,-1556.88 355.85,-1556.88 355.85,-1592.88"/>
<text text-anchor="start" x="300.85" y="-1569.45" font-family="Helvetica,sans-Serif" font-size="14.00">1 Skip &#160;</text>
</g>
<!-- AttackDownSensor&#45;&gt;AttackDownSensor_mustuse -->
<g id="edge27" class="edge">
<title>AttackDownSensor&#45;&gt;AttackDownSensor_mustuse</title>
<path fill="none" stroke="#458b74" d="M158.83,-1603.52C197.56,-1596.73 245.69,-1588.3 279.67,-1582.35"/>
<polygon fill="#458b74" stroke="#458b74" points="279.88,-1585.87 289.13,-1580.69 278.67,-1578.97 279.88,-1585.87"/>
<text text-anchor="middle" x="220.62" y="-1599.72" font-family="Helvetica,sans-Serif" font-size="14.00" fill="#458b74">Weight</text>
</g>
</g>
</svg>
