<?xml version="1.0" encoding="UTF-8" standalone="no"?>
<!DOCTYPE svg PUBLIC "-//W3C//DTD SVG 1.1//EN"
 "http://www.w3.org/Graphics/SVG/1.1/DTD/svg11.dtd">
<!-- Generated by graphviz version 12.2.1 (20241206.2353)
 -->
<!-- Title: Foo Pages: 1 -->
<svg width="410pt" height="1741pt"
 viewBox="0.00 0.00 409.75 1741.00" xmlns="http://www.w3.org/2000/svg" xmlns:xlink="http://www.w3.org/1999/xlink">
<g id="graph0" class="graph" transform="scale(1 1) rotate(0) translate(4 1737)">
<title>Foo</title>
<polygon fill="white" stroke="none" points="-4,4 -4,-1737 405.75,-1737 405.75,4 -4,4"/>
<g id="clust1" class="cluster">
<title>cluster_attacksensors</title>
<polygon fill="none" stroke="black" points="8,-8 8,-778 393.75,-778 393.75,-8 8,-8"/>
<text text-anchor="middle" x="200.88" y="-760.7" font-family="Helvetica,sans-Serif" font-size="14.00">Attack Sensors</text>
</g>
<!-- Level Once Sensor -->
<g id="node1" class="node">
<title>Level Once Sensor</title>
<polygon fill="none" stroke="black" points="29.62,-31.12 29.62,-52.88 158.62,-52.88 158.62,-31.12 29.62,-31.12"/>
<text text-anchor="start" x="32.62" y="-36.58" font-family="Helvetica,sans-Serif" font-size="14.00">Level Once Sensor &#160;</text>
</g>
<!-- Level Once Sensor_linked -->
<g id="node2" class="node">
<title>Level Once Sensor_linked</title>
<polygon fill="none" stroke="black" stroke-dasharray="1,5" points="357.73,-52 301.52,-52 301.52,-16 357.73,-16 357.73,-52"/>
<text text-anchor="start" x="307.12" y="-28.57" font-family="Helvetica,sans-Serif" font-size="14.00">Attack &#160;</text>
</g>
<!-- Level Once Sensor&#45;&gt;Level Once Sensor_linked -->
<g id="edge1" class="edge">
<title>Level Once Sensor&#45;&gt;Level Once Sensor_linked</title>
<path fill="none" stroke="#66cdaa" d="M166.45,-39.56C207.12,-38.16 256.51,-36.47 290.01,-35.32"/>
<polygon fill="#66cdaa" stroke="#66cdaa" points="289.78,-38.83 299.65,-34.99 289.54,-31.84 289.78,-38.83"/>
<text text-anchor="middle" x="222.88" y="-41.17" font-family="Helvetica,sans-Serif" font-size="14.00" fill="#66cdaa">QueueEnd</text>
</g>
<!-- Level Once Sensor_weight -->
<g id="node3" class="node">
<title>Level Once Sensor_weight</title>
<polygon fill="none" stroke="black" stroke-dasharray="1,5" points="367.38,-106 291.88,-106 291.88,-70 367.38,-70 367.38,-106"/>
<text text-anchor="start" x="301.88" y="-82.58" font-family="Helvetica,sans-Serif" font-size="14.00">1 Attack &#160;</text>
</g>
<!-- Level Once Sensor&#45;&gt;Level Once Sensor_weight -->
<g id="edge2" class="edge">
<title>Level Once Sensor&#45;&gt;Level Once Sensor_weight</title>
<path fill="none" stroke="#458b74" d="M166.45,-56.05C203.4,-63.33 247.55,-72.03 280.44,-78.51"/>
<polygon fill="#458b74" stroke="#458b74" points="279.6,-81.91 290.09,-80.41 280.96,-75.04 279.6,-81.91"/>
<text text-anchor="middle" x="222.88" y="-75.57" font-family="Helvetica,sans-Serif" font-size="14.00" fill="#458b74">Weight</text>
</g>
<!-- RunAwaySensor -->
<g id="node4" class="node">
<title>RunAwaySensor</title>
<polygon fill="none" stroke="black" points="37.12,-90.12 37.12,-111.88 151.12,-111.88 151.12,-90.12 37.12,-90.12"/>
<text text-anchor="start" x="40.12" y="-95.58" font-family="Helvetica,sans-Serif" font-size="14.00">RunAwaySensor &#160;</text>
</g>
<!-- AttackSensor -->
<g id="node5" class="node">
<title>AttackSensor</title>
<polygon fill="none" stroke="black" points="47.25,-156.12 47.25,-177.88 141,-177.88 141,-156.12 47.25,-156.12"/>
<text text-anchor="start" x="50.25" y="-161.57" font-family="Helvetica,sans-Serif" font-size="14.00">AttackSensor &#160;</text>
</g>
<!-- AttackSensor_linked -->
<g id="node6" class="node">
<title>AttackSensor_linked</title>
<polygon fill="none" stroke="black" stroke-dasharray="1,5" points="375.73,-210.1 283.52,-210.1 283.52,-123.9 375.73,-123.9 375.73,-210.1"/>
<text text-anchor="start" x="307.12" y="-191.2" font-family="Helvetica,sans-Serif" font-size="14.00">Attack &#160;</text>
<text text-anchor="start" x="289.12" y="-171.45" font-family="Helvetica,sans-Serif" font-size="14.00">RollThrough &#160;</text>
<text text-anchor="start" x="291" y="-151.7" font-family="Helvetica,sans-Serif" font-size="14.00">DangerKick &#160;</text>
<text text-anchor="start" x="307.12" y="-131.95" font-family="Helvetica,sans-Serif" font-size="14.00">Attack &#160;</text>
</g>
<!-- AttackSensor&#45;&gt;AttackSensor_linked -->
<g id="edge3" class="edge">
<title>AttackSensor&#45;&gt;AttackSensor_linked</title>
<path fill="none" stroke="#66cdaa" d="M148.99,-167C185.85,-167 234.63,-167 272.06,-167"/>
<polygon fill="#66cdaa" stroke="#66cdaa" points="271.77,-170.5 281.77,-167 271.77,-163.5 271.77,-170.5"/>
<text text-anchor="middle" x="222.88" y="-169.45" font-family="Helvetica,sans-Serif" font-size="14.00" fill="#66cdaa">QueueEnd</text>
</g>
<!-- DodgePredictSensor -->
<g id="node7" class="node">
<title>DodgePredictSensor</title>
<polygon fill="none" stroke="black" points="25.12,-246 25.12,-267.75 163.12,-267.75 163.12,-246 25.12,-246"/>
<text text-anchor="start" x="28.12" y="-251.45" font-family="Helvetica,sans-Serif" font-size="14.00">DodgePredictSensor &#160;</text>
<polygon fill="none" stroke="black" points="25.12,-224.25 25.12,-246 163.12,-246 163.12,-224.25 25.12,-224.25"/>
<text text-anchor="start" x="28.12" y="-230.7" font-family="Helvetica,sans-Serif" font-size="12.00" fill="#838b8b">if: rollingCondition</text>
<text text-anchor="start" x="124.88" y="-230.7" font-family="Helvetica,sans-Serif" font-size="14.00"> &#160;</text>
</g>
<!-- DodgePredictSensor_linked -->
<g id="node8" class="node">
<title>DodgePredictSensor_linked</title>
<polygon fill="none" stroke="black" stroke-dasharray="1,5" points="357.73,-264 301.52,-264 301.52,-228 357.73,-228 357.73,-264"/>
<text text-anchor="start" x="307.12" y="-240.57" font-family="Helvetica,sans-Serif" font-size="14.00">Attack &#160;</text>
</g>
<!-- DodgePredictSensor&#45;&gt;DodgePredictSensor_linked -->
<g id="edge4" class="edge">
<title>DodgePredictSensor&#45;&gt;DodgePredictSensor_linked</title>
<path fill="none" stroke="#66cdaa" d="M170.94,-246C210.67,-246 257.64,-246 289.92,-246"/>
<polygon fill="#66cdaa" stroke="#66cdaa" points="289.6,-249.5 299.6,-246 289.6,-242.5 289.6,-249.5"/>
<text text-anchor="middle" x="222.88" y="-248.45" font-family="Helvetica,sans-Serif" font-size="14.00" fill="#66cdaa">QueueEnd</text>
</g>
<!-- AttackPredictSensor -->
<g id="node9" class="node">
<title>AttackPredictSensor</title>
<polygon fill="none" stroke="black" points="26.25,-321 26.25,-342.75 162,-342.75 162,-321 26.25,-321"/>
<text text-anchor="start" x="29.25" y="-326.45" font-family="Helvetica,sans-Serif" font-size="14.00">AttackPredictSensor &#160;</text>
<polygon fill="none" stroke="black" points="26.25,-299.25 26.25,-321 162,-321 162,-299.25 26.25,-299.25"/>
<text text-anchor="start" x="29.25" y="-305.7" font-family="Helvetica,sans-Serif" font-size="12.00" fill="#838b8b">if: attackCondition</text>
<text text-anchor="start" x="124.5" y="-305.7" font-family="Helvetica,sans-Serif" font-size="14.00"> &#160;</text>
</g>
<!-- AttackPredictSensor_linked -->
<g id="node10" class="node">
<title>AttackPredictSensor_linked</title>
<polygon fill="none" stroke="black" stroke-dasharray="1,5" points="357.73,-318 301.52,-318 301.52,-282 357.73,-282 357.73,-318"/>
<text text-anchor="start" x="307.12" y="-294.57" font-family="Helvetica,sans-Serif" font-size="14.00">Attack &#160;</text>
</g>
<!-- AttackPredictSensor&#45;&gt;AttackPredictSensor_linked -->
<g id="edge5" class="edge">
<title>AttackPredictSensor&#45;&gt;AttackPredictSensor_linked</title>
<path fill="none" stroke="#66cdaa" d="M169.86,-311.37C176.75,-310.6 183.62,-309.88 190.25,-309.25 223.91,-306.05 262.28,-303.58 290.07,-302"/>
<polygon fill="#66cdaa" stroke="#66cdaa" points="289.98,-305.51 299.77,-301.46 289.59,-298.52 289.98,-305.51"/>
<text text-anchor="middle" x="222.88" y="-311.7" font-family="Helvetica,sans-Serif" font-size="14.00" fill="#66cdaa">QueueEnd</text>
</g>
<!-- AttackPredictSensor_weight -->
<g id="node11" class="node">
<title>AttackPredictSensor_weight</title>
<polygon fill="none" stroke="black" stroke-dasharray="1,5" points="385.75,-372 273.5,-372 273.5,-336 385.75,-336 385.75,-372"/>
<text text-anchor="start" x="283.5" y="-348.57" font-family="Helvetica,sans-Serif" font-size="14.00">1 RollThrough &#160;</text>
</g>
<!-- AttackPredictSensor&#45;&gt;AttackPredictSensor_weight -->
<g id="edge6" class="edge">
<title>AttackPredictSensor&#45;&gt;AttackPredictSensor_weight</title>
<path fill="none" stroke="#458b74" d="M169.97,-331.58C199.53,-335.75 233.22,-340.52 261.93,-344.57"/>
<polygon fill="#458b74" stroke="#458b74" points="261.19,-348 271.58,-345.94 262.16,-341.07 261.19,-348"/>
<text text-anchor="middle" x="222.88" y="-345.78" font-family="Helvetica,sans-Serif" font-size="14.00" fill="#458b74">Weight</text>
</g>
<!-- AttackRunToSensor -->
<g id="node12" class="node">
<title>AttackRunToSensor</title>
<polygon fill="none" stroke="black" points="27.75,-402 27.75,-423.75 160.5,-423.75 160.5,-402 27.75,-402"/>
<text text-anchor="start" x="30.75" y="-407.45" font-family="Helvetica,sans-Serif" font-size="14.00">AttackRunToSensor &#160;</text>
<polygon fill="none" stroke="black" points="27.75,-380.25 27.75,-402 160.5,-402 160.5,-380.25 27.75,-380.25"/>
<text text-anchor="start" x="30.75" y="-386.7" font-family="Helvetica,sans-Serif" font-size="12.00" fill="#838b8b">if: state is Engaging</text>
<text text-anchor="start" x="135" y="-386.7" font-family="Helvetica,sans-Serif" font-size="14.00"> &#160;</text>
</g>
<!-- AttackRunToSensor_linked -->
<g id="node13" class="node">
<title>AttackRunToSensor_linked</title>
<polygon fill="none" stroke="black" stroke-dasharray="1,5" points="357.73,-426 301.52,-426 301.52,-390 357.73,-390 357.73,-426"/>
<text text-anchor="start" x="307.12" y="-402.57" font-family="Helvetica,sans-Serif" font-size="14.00">Attack &#160;</text>
</g>
<!-- AttackRunToSensor&#45;&gt;AttackRunToSensor_linked -->
<g id="edge7" class="edge">
<title>AttackRunToSensor&#45;&gt;AttackRunToSensor_linked</title>
<path fill="none" stroke="#66cdaa" d="M168.37,-403.88C208.51,-404.91 256.66,-406.15 289.63,-407"/>
<polygon fill="#66cdaa" stroke="#66cdaa" points="289.45,-410.49 299.54,-407.25 289.63,-403.5 289.45,-410.49"/>
<text text-anchor="middle" x="222.88" y="-408.51" font-family="Helvetica,sans-Serif" font-size="14.00" fill="#66cdaa">QueueEnd</text>
</g>
<!-- ShootAttackSensor -->
<g id="node14" class="node">
<title>ShootAttackSensor</title>
<polygon fill="none" stroke="black" points="29.62,-453.12 29.62,-474.88 158.62,-474.88 158.62,-453.12 29.62,-453.12"/>
<text text-anchor="start" x="32.62" y="-458.57" font-family="Helvetica,sans-Serif" font-size="14.00">ShootAttackSensor &#160;</text>
</g>
<!-- ShootAttackSensor_linked -->
<g id="node15" class="node">
<title>ShootAttackSensor_linked</title>
<polygon fill="none" stroke="black" stroke-dasharray="1,5" points="381.73,-480 277.52,-480 277.52,-444 381.73,-444 381.73,-480"/>
<text text-anchor="start" x="283.12" y="-456.57" font-family="Helvetica,sans-Serif" font-size="14.00">Attack 3 throw &#160;</text>
</g>
<!-- ShootAttackSensor&#45;&gt;ShootAttackSensor_linked -->
<g id="edge8" class="edge">
<title>ShootAttackSensor&#45;&gt;ShootAttackSensor_linked</title>
<path fill="none" stroke="#66cdaa" d="M166.45,-463.39C198.2,-463.12 235.27,-462.8 265.94,-462.54"/>
<polygon fill="#66cdaa" stroke="#66cdaa" points="265.88,-466.04 275.85,-462.45 265.82,-459.04 265.88,-466.04"/>
<text text-anchor="middle" x="222.88" y="-465.63" font-family="Helvetica,sans-Serif" font-size="14.00" fill="#66cdaa">QueueEnd</text>
</g>
<!-- AttackUpSensor -->
<g id="node16" class="node">
<title>AttackUpSensor</title>
<polygon fill="none" stroke="black" points="24,-545 24,-566.75 164.25,-566.75 164.25,-545 24,-545"/>
<text text-anchor="start" x="41.62" y="-550.45" font-family="Helvetica,sans-Serif" font-size="14.00">AttackUpSensor &#160;</text>
<polygon fill="none" stroke="black" points="24,-523.25 24,-545 164.25,-545 164.25,-523.25 24,-523.25"/>
<text text-anchor="start" x="27" y="-529.7" font-family="Helvetica,sans-Serif" font-size="12.00" fill="#838b8b">if not: block PlayerJump</text>
<text text-anchor="start" x="153.75" y="-529.7" font-family="Helvetica,sans-Serif" font-size="14.00"> &#160;</text>
</g>
<!-- AttackUpSensor_linked -->
<g id="node17" class="node">
<title>AttackUpSensor_linked</title>
<polygon fill="none" stroke="black" stroke-dasharray="1,5" points="357.73,-534 301.52,-534 301.52,-498 357.73,-498 357.73,-534"/>
<text text-anchor="start" x="307.12" y="-510.57" font-family="Helvetica,sans-Serif" font-size="14.00">Attack &#160;</text>
</g>
<!-- AttackUpSensor&#45;&gt;AttackUpSensor_linked -->
<g id="edge9" class="edge">
<title>AttackUpSensor&#45;&gt;AttackUpSensor_linked</title>
<path fill="none" stroke="#66cdaa" d="M172.23,-535.42C211.74,-530.52 258.14,-524.75 290.07,-520.79"/>
<polygon fill="#66cdaa" stroke="#66cdaa" points="290.15,-524.31 299.65,-519.6 289.29,-517.36 290.15,-524.31"/>
<text text-anchor="middle" x="222.88" y="-535.55" font-family="Helvetica,sans-Serif" font-size="14.00" fill="#66cdaa">QueueEnd</text>
</g>
<!-- AttackUpSensor_weight -->
<g id="node18" class="node">
<title>AttackUpSensor_weight</title>
<polygon fill="none" stroke="black" stroke-dasharray="1,5" points="384.62,-588 274.62,-588 274.62,-552 384.62,-552 384.62,-588"/>
<text text-anchor="start" x="284.62" y="-564.58" font-family="Helvetica,sans-Serif" font-size="14.00">1 JumpAttack &#160;</text>
</g>
<!-- AttackUpSensor&#45;&gt;AttackUpSensor_weight -->
<g id="edge10" class="edge">
<title>AttackUpSensor&#45;&gt;AttackUpSensor_weight</title>
<path fill="none" stroke="#458b74" d="M172.23,-553.26C201.53,-556.39 234.62,-559.94 262.79,-562.95"/>
<polygon fill="#458b74" stroke="#458b74" points="262.31,-566.42 272.62,-564 263.05,-559.46 262.31,-566.42"/>
<text text-anchor="middle" x="222.88" y="-564.36" font-family="Helvetica,sans-Serif" font-size="14.00" fill="#458b74">Weight</text>
</g>
<!-- AttackDownSensor -->
<g id="node19" class="node">
<title>AttackDownSensor</title>
<polygon fill="none" stroke="black" points="30,-678.12 30,-699.88 158.25,-699.88 158.25,-678.12 30,-678.12"/>
<text text-anchor="start" x="33" y="-683.58" font-family="Helvetica,sans-Serif" font-size="14.00">AttackDownSensor &#160;</text>
</g>
<!-- AttackDownSensor_linked -->
<g id="node20" class="node">
<title>AttackDownSensor_linked</title>
<polygon fill="none" stroke="black" stroke-dasharray="1,5" points="375.73,-692.1 283.52,-692.1 283.52,-605.9 375.73,-605.9 375.73,-692.1"/>
<text text-anchor="start" x="307.12" y="-673.2" font-family="Helvetica,sans-Serif" font-size="14.00">Attack &#160;</text>
<text text-anchor="start" x="289.12" y="-653.45" font-family="Helvetica,sans-Serif" font-size="14.00">RollThrough &#160;</text>
<text text-anchor="start" x="291" y="-633.7" font-family="Helvetica,sans-Serif" font-size="14.00">DangerKick &#160;</text>
<text text-anchor="start" x="307.12" y="-613.95" font-family="Helvetica,sans-Serif" font-size="14.00">Attack &#160;</text>
</g>
<!-- AttackDownSensor&#45;&gt;AttackDownSensor_linked -->
<g id="edge11" class="edge">
<title>AttackDownSensor&#45;&gt;AttackDownSensor_linked</title>
<path fill="none" stroke="#66cdaa" d="M166.13,-676.84C200.07,-671.02 240.13,-664.16 271.99,-658.7"/>
<polygon fill="#66cdaa" stroke="#66cdaa" points="272.57,-662.15 281.83,-657.02 271.39,-655.25 272.57,-662.15"/>
<text text-anchor="middle" x="222.88" y="-675.03" font-family="Helvetica,sans-Serif" font-size="14.00" fill="#66cdaa">QueueEnd</text>
</g>
<!-- AttackDownSensor_weight -->
<g id="node21" class="node">
<title>AttackDownSensor_weight</title>
<polygon fill="none" stroke="black" stroke-dasharray="1,5" points="385,-746 274.25,-746 274.25,-710 385,-710 385,-746"/>
<text text-anchor="start" x="284.25" y="-722.58" font-family="Helvetica,sans-Serif" font-size="14.00">1 DownAttack &#160;</text>
</g>
<!-- AttackDownSensor&#45;&gt;AttackDownSensor_weight -->
<g id="edge12" class="edge">
<title>AttackDownSensor&#45;&gt;AttackDownSensor_weight</title>
<path fill="none" stroke="#458b74" d="M166.13,-700.86C196.83,-705.99 232.54,-711.95 262.65,-716.98"/>
<polygon fill="#458b74" stroke="#458b74" points="261.96,-720.41 272.4,-718.61 263.11,-713.51 261.96,-720.41"/>
<text text-anchor="middle" x="222.88" y="-717.84" font-family="Helvetica,sans-Serif" font-size="14.00" fill="#458b74">Weight</text>
</g>
<!-- Attack -->
<g id="node22" class="node">
<title>Attack</title>
<polygon fill="none" stroke="black" points="34.12,-1443.12 34.12,-1464.88 154.12,-1464.88 154.12,-1443.12 34.12,-1443.12"/>
<text text-anchor="start" x="71.62" y="-1448.58" font-family="Helvetica,sans-Serif" font-size="14.00">Attack &#160;</text>
<polygon fill="none" stroke="black" points="34.12,-1399.12 34.12,-1443.12 154.12,-1443.12 154.12,-1399.12 34.12,-1399.12"/>
<text text-anchor="start" x="37.12" y="-1429.72" font-family="Helvetica,sans-Serif" font-size="12.00" fill="#838b8b">1.15s: ResetEvaluate</text>
<text text-anchor="start" x="37.12" y="-1417.72" font-family="Helvetica,sans-Serif" font-size="12.00" fill="#838b8b">1.43s: LinkNextMove</text>
<text text-anchor="start" x="37.12" y="-1403.82" font-family="Helvetica,sans-Serif" font-size="12.00" fill="#838b8b">1.60s: Done</text>
<text text-anchor="start" x="101.62" y="-1403.82" font-family="Helvetica,sans-Serif" font-size="14.00"> &#160;</text>
</g>
<!-- Engaging -->
<g id="node23" class="node">
<title>Engaging</title>
<polygon fill="none" stroke="black" points="366.12,-1128 293.12,-1128 293.12,-1092 366.12,-1092 366.12,-1128"/>
<text text-anchor="middle" x="329.62" y="-1104.58" font-family="Helvetica,sans-Serif" font-size="14.00">Engaging</text>
</g>
<!-- Attack&#45;&gt;Engaging -->
<g id="edge13" class="edge">
<title>Attack&#45;&gt;Engaging</title>
<path fill="none" stroke="#cdc8b1" d="M162.04,-1407.11C194.99,-1391.53 232.5,-1368.22 255.5,-1336 277.94,-1304.57 262.43,-1288 273.5,-1251 285.4,-1211.21 303.62,-1166.82 315.81,-1138.66"/>
<polygon fill="#cdc8b1" stroke="#cdc8b1" points="318.91,-1140.31 319.72,-1129.75 312.5,-1137.51 318.91,-1140.31"/>
</g>
<!-- Attack_linked -->
<g id="node24" class="node">
<title>Attack_linked</title>
<polygon fill="none" stroke="black" stroke-dasharray="1,5" points="375.73,-1489.97 283.52,-1489.97 283.52,-1384.03 375.73,-1384.03 375.73,-1489.97"/>
<text text-anchor="start" x="297.38" y="-1471.08" font-family="Helvetica,sans-Serif" font-size="14.00">Engaging &#160;</text>
<text text-anchor="start" x="297.38" y="-1451.33" font-family="Helvetica,sans-Serif" font-size="14.00">Engaging &#160;</text>
<text text-anchor="start" x="297.38" y="-1431.58" font-family="Helvetica,sans-Serif" font-size="14.00">Engaging &#160;</text>
<text text-anchor="start" x="291" y="-1411.83" font-family="Helvetica,sans-Serif" font-size="14.00">DangerKick &#160;</text>
<text text-anchor="start" x="289.12" y="-1392.08" font-family="Helvetica,sans-Serif" font-size="14.00">RollThrough &#160;</text>
</g>
<!-- Attack&#45;&gt;Attack_linked -->
<g id="edge14" class="edge">
<title>Attack&#45;&gt;Attack_linked</title>
<path fill="none" stroke="#66cdaa" d="M162.04,-1433.43C196.76,-1434.18 238.71,-1435.07 271.83,-1435.78"/>
<polygon fill="#66cdaa" stroke="#66cdaa" points="271.57,-1439.28 281.64,-1435.99 271.72,-1432.28 271.57,-1439.28"/>
<text text-anchor="middle" x="222.88" y="-1437.83" font-family="Helvetica,sans-Serif" font-size="14.00" fill="#66cdaa">QueueEnd</text>
</g>
<!-- DangerKick -->
<g id="node25" class="node">
<title>DangerKick</title>
<polygon fill="none" stroke="black" points="34.12,-1005.12 34.12,-1026.88 154.12,-1026.88 154.12,-1005.12 34.12,-1005.12"/>
<text text-anchor="start" x="55.5" y="-1010.58" font-family="Helvetica,sans-Serif" font-size="14.00">DangerKick &#160;</text>
<polygon fill="none" stroke="black" points="34.12,-949.12 34.12,-1005.12 154.12,-1005.12 154.12,-949.12 34.12,-949.12"/>
<text text-anchor="start" x="37.12" y="-991.73" font-family="Helvetica,sans-Serif" font-size="12.00" fill="#838b8b">0.00s: DisableGravity</text>
<text text-anchor="start" x="37.12" y="-979.73" font-family="Helvetica,sans-Serif" font-size="12.00" fill="#838b8b">0.00s: EnableGravity</text>
<text text-anchor="start" x="37.12" y="-967.73" font-family="Helvetica,sans-Serif" font-size="12.00" fill="#838b8b">1.00s: ResetEvaluate</text>
<text text-anchor="start" x="37.12" y="-953.83" font-family="Helvetica,sans-Serif" font-size="12.00" fill="#838b8b">1.33s: Done</text>
<text text-anchor="start" x="101.62" y="-953.83" font-family="Helvetica,sans-Serif" font-size="14.00"> &#160;</text>
</g>
<!-- DangerKick&#45;&gt;Engaging -->
<g id="edge15" class="edge">
<title>DangerKick&#45;&gt;Engaging</title>
<path fill="none" stroke="#cdc8b1" d="M162.04,-1022.96C201.04,-1043.34 249.18,-1068.49 283.67,-1086.51"/>
<polygon fill="#cdc8b1" stroke="#cdc8b1" points="281.63,-1089.4 292.11,-1090.92 284.87,-1083.19 281.63,-1089.4"/>
</g>
<!-- Attack 3 throw -->
<g id="node26" class="node">
<title>Attack 3 throw</title>
<polygon fill="none" stroke="black" points="35.25,-1225.12 35.25,-1246.88 153,-1246.88 153,-1225.12 35.25,-1225.12"/>
<text text-anchor="start" x="47.62" y="-1230.58" font-family="Helvetica,sans-Serif" font-size="14.00">Attack 3 throw &#160;</text>
<polygon fill="none" stroke="black" points="35.25,-1193.12 35.25,-1225.12 153,-1225.12 153,-1193.12 35.25,-1193.12"/>
<text text-anchor="start" x="38.25" y="-1211.72" font-family="Helvetica,sans-Serif" font-size="12.00" fill="#838b8b">0.65s: LinkNextMove</text>
<text text-anchor="start" x="38.25" y="-1197.82" font-family="Helvetica,sans-Serif" font-size="12.00" fill="#838b8b">1.23s: Done</text>
<text text-anchor="start" x="102.75" y="-1197.82" font-family="Helvetica,sans-Serif" font-size="14.00"> &#160;</text>
</g>
<!-- Attack 3 throw&#45;&gt;Engaging -->
<g id="edge16" class="edge">
<title>Attack 3 throw&#45;&gt;Engaging</title>
<path fill="none" stroke="#cdc8b1" d="M160.48,-1189.21C199.24,-1170.95 247.44,-1148.25 282.28,-1131.83"/>
<polygon fill="#cdc8b1" stroke="#cdc8b1" points="283.72,-1135.02 291.27,-1127.6 280.74,-1128.69 283.72,-1135.02"/>
</g>
<!-- JumpAttack -->
<g id="node27" class="node">
<title>JumpAttack</title>
<polygon fill="none" stroke="black" points="51.75,-1145 51.75,-1166.75 136.5,-1166.75 136.5,-1145 51.75,-1145"/>
<text text-anchor="start" x="54.75" y="-1150.45" font-family="Helvetica,sans-Serif" font-size="14.00">JumpAttack &#160;</text>
<polygon fill="none" stroke="black" points="51.75,-1123.25 51.75,-1145 136.5,-1145 136.5,-1123.25 51.75,-1123.25"/>
<text text-anchor="start" x="54.75" y="-1129.7" font-family="Helvetica,sans-Serif" font-size="12.00" fill="#838b8b">1.50s: Done</text>
<text text-anchor="start" x="119.25" y="-1129.7" font-family="Helvetica,sans-Serif" font-size="14.00"> &#160;</text>
</g>
<!-- JumpAttack&#45;&gt;Engaging -->
<g id="edge17" class="edge">
<title>JumpAttack&#45;&gt;Engaging</title>
<path fill="none" stroke="#cdc8b1" d="M144.36,-1137.62C184.79,-1131.56 241.68,-1123.03 281.52,-1117.06"/>
<polygon fill="#cdc8b1" stroke="#cdc8b1" points="281.92,-1120.54 291.29,-1115.6 280.88,-1113.62 281.92,-1120.54"/>
</g>
<!-- DownAttack -->
<g id="node28" class="node">
<title>DownAttack</title>
<polygon fill="none" stroke="black" points="51.38,-1075 51.38,-1096.75 136.88,-1096.75 136.88,-1075 51.38,-1075"/>
<text text-anchor="start" x="54.38" y="-1080.45" font-family="Helvetica,sans-Serif" font-size="14.00">DownAttack &#160;</text>
<polygon fill="none" stroke="black" points="51.38,-1053.25 51.38,-1075 136.88,-1075 136.88,-1053.25 51.38,-1053.25"/>
<text text-anchor="start" x="54.38" y="-1059.7" font-family="Helvetica,sans-Serif" font-size="12.00" fill="#838b8b">1.08s: Done</text>
<text text-anchor="start" x="118.88" y="-1059.7" font-family="Helvetica,sans-Serif" font-size="14.00"> &#160;</text>
</g>
<!-- DownAttack&#45;&gt;Engaging -->
<g id="edge18" class="edge">
<title>DownAttack&#45;&gt;Engaging</title>
<path fill="none" stroke="#cdc8b1" d="M144.64,-1082.42C185.1,-1088.49 241.88,-1097 281.63,-1102.96"/>
<polygon fill="#cdc8b1" stroke="#cdc8b1" points="280.97,-1106.4 291.38,-1104.42 282.01,-1099.47 280.97,-1106.4"/>
</g>
<!-- ZShowAttack -->
<g id="node29" class="node">
<title>ZShowAttack</title>
<polygon fill="none" stroke="black" points="34.12,-1341.12 34.12,-1362.88 154.12,-1362.88 154.12,-1341.12 34.12,-1341.12"/>
<text text-anchor="start" x="50.62" y="-1346.58" font-family="Helvetica,sans-Serif" font-size="14.00">ZShowAttack &#160;</text>
<polygon fill="none" stroke="black" points="34.12,-1273.12 34.12,-1341.12 154.12,-1341.12 154.12,-1273.12 34.12,-1273.12"/>
<text text-anchor="start" x="37.12" y="-1327.72" font-family="Helvetica,sans-Serif" font-size="12.00" fill="#838b8b">0.00s: EnableGravity</text>
<text text-anchor="start" x="37.12" y="-1315.72" font-family="Helvetica,sans-Serif" font-size="12.00" fill="#838b8b">0.50s: CheckFacing</text>
<text text-anchor="start" x="37.12" y="-1303.72" font-family="Helvetica,sans-Serif" font-size="12.00" fill="#838b8b">0.50s: EnableGravity</text>
<text text-anchor="start" x="37.12" y="-1291.72" font-family="Helvetica,sans-Serif" font-size="12.00" fill="#838b8b">1.83s: ResetEvaluate</text>
<text text-anchor="start" x="37.12" y="-1277.82" font-family="Helvetica,sans-Serif" font-size="12.00" fill="#838b8b">2.25s: Done</text>
<text text-anchor="start" x="101.62" y="-1277.82" font-family="Helvetica,sans-Serif" font-size="14.00"> &#160;</text>
</g>
<!-- ZShowAttack&#45;&gt;Engaging -->
<g id="edge19" class="edge">
<title>ZShowAttack&#45;&gt;Engaging</title>
<path fill="none" stroke="#cdc8b1" d="M161.18,-1269.16C164.96,-1266.11 168.68,-1263.04 172.25,-1260 220.45,-1219.01 272.81,-1167.14 303.06,-1136.37"/>
<polygon fill="#cdc8b1" stroke="#cdc8b1" points="305.43,-1138.96 309.93,-1129.36 300.43,-1134.06 305.43,-1138.96"/>
</g>
<!-- ZShowAttack_linked -->
<g id="node30" class="node">
<title>ZShowAttack_linked</title>
<polygon fill="none" stroke="black" stroke-dasharray="1,5" points="375.73,-1365.97 283.52,-1365.97 283.52,-1260.03 375.73,-1260.03 375.73,-1365.97"/>
<text text-anchor="start" x="297.38" y="-1347.08" font-family="Helvetica,sans-Serif" font-size="14.00">Engaging &#160;</text>
<text text-anchor="start" x="297.38" y="-1327.33" font-family="Helvetica,sans-Serif" font-size="14.00">Engaging &#160;</text>
<text text-anchor="start" x="297.38" y="-1307.58" font-family="Helvetica,sans-Serif" font-size="14.00">Engaging &#160;</text>
<text text-anchor="start" x="291" y="-1287.83" font-family="Helvetica,sans-Serif" font-size="14.00">DangerKick &#160;</text>
<text text-anchor="start" x="289.12" y="-1268.08" font-family="Helvetica,sans-Serif" font-size="14.00">RollThrough &#160;</text>
</g>
<!-- ZShowAttack&#45;&gt;ZShowAttack_linked -->
<g id="edge20" class="edge">
<title>ZShowAttack&#45;&gt;ZShowAttack_linked</title>
<path fill="none" stroke="#66cdaa" d="M162.04,-1316.57C196.76,-1315.82 238.71,-1314.93 271.83,-1314.22"/>
<polygon fill="#66cdaa" stroke="#66cdaa" points="271.72,-1317.72 281.64,-1314.01 271.57,-1310.72 271.72,-1317.72"/>
<text text-anchor="middle" x="222.88" y="-1318.4" font-family="Helvetica,sans-Serif" font-size="14.00" fill="#66cdaa">QueueEnd</text>
</g>
<!-- Hide -->
<g id="node31" class="node">
<title>Hide</title>
<polygon fill="none" stroke="black" points="31.88,-901 31.88,-922.75 156.38,-922.75 156.38,-901 31.88,-901"/>
<text text-anchor="start" x="76.5" y="-906.45" font-family="Helvetica,sans-Serif" font-size="14.00">Hide &#160;</text>
<polygon fill="none" stroke="black" points="31.88,-879.25 31.88,-901 156.38,-901 156.38,-879.25 31.88,-879.25"/>
<text text-anchor="start" x="34.88" y="-885.7" font-family="Helvetica,sans-Serif" font-size="12.00" fill="#838b8b">0.00s: EnableGravity</text>
<text text-anchor="start" x="145.88" y="-885.7" font-family="Helvetica,sans-Serif" font-size="14.00"> &#160;</text>
</g>
<!-- Hide&#45;&gt;Engaging -->
<g id="edge21" class="edge">
<title>Hide&#45;&gt;Engaging</title>
<path fill="none" stroke="#cdc8b1" d="M157.85,-926.73C162.87,-929.6 167.74,-932.7 172.25,-936 230.14,-978.42 282.62,-1045.18 309.57,-1082.47"/>
<polygon fill="#cdc8b1" stroke="#cdc8b1" points="306.64,-1084.38 315.3,-1090.49 312.34,-1080.32 306.64,-1084.38"/>
</g>
<!-- Hide_linked -->
<g id="node32" class="node">
<title>Hide_linked</title>
<polygon fill="none" stroke="black" stroke-dasharray="1,5" points="375.73,-959.98 283.52,-959.98 283.52,-854.02 375.73,-854.02 375.73,-959.98"/>
<text text-anchor="start" x="297.38" y="-941.08" font-family="Helvetica,sans-Serif" font-size="14.00">Engaging &#160;</text>
<text text-anchor="start" x="297.38" y="-921.33" font-family="Helvetica,sans-Serif" font-size="14.00">Engaging &#160;</text>
<text text-anchor="start" x="297.38" y="-901.58" font-family="Helvetica,sans-Serif" font-size="14.00">Engaging &#160;</text>
<text text-anchor="start" x="291" y="-881.83" font-family="Helvetica,sans-Serif" font-size="14.00">DangerKick &#160;</text>
<text text-anchor="start" x="289.12" y="-862.08" font-family="Helvetica,sans-Serif" font-size="14.00">RollThrough &#160;</text>
</g>
<!-- Hide&#45;&gt;Hide_linked -->
<g id="edge22" class="edge">
<title>Hide&#45;&gt;Hide_linked</title>
<path fill="none" stroke="#66cdaa" d="M164.23,-902.78C198.64,-903.66 239.71,-904.72 272.19,-905.55"/>
<polygon fill="#66cdaa" stroke="#66cdaa" points="271.69,-909.04 281.78,-905.8 271.87,-902.04 271.69,-909.04"/>
<text text-anchor="middle" x="222.88" y="-907.51" font-family="Helvetica,sans-Serif" font-size="14.00" fill="#66cdaa">QueueEnd</text>
</g>
<!-- HurtState -->
<g id="node33" class="node">
<title>HurtState</title>
<polygon fill="none" stroke="black" points="55.12,-1653 55.12,-1674.75 133.12,-1674.75 133.12,-1653 55.12,-1653"/>
<text text-anchor="start" x="61.88" y="-1658.45" font-family="Helvetica,sans-Serif" font-size="14.00">HurtState &#160;</text>
<polygon fill="none" stroke="black" points="55.12,-1631.25 55.12,-1653 133.12,-1653 133.12,-1631.25 55.12,-1631.25"/>
<text text-anchor="start" x="58.12" y="-1637.7" font-family="Helvetica,sans-Serif" font-size="12.00" fill="#838b8b">0.17s: Done</text>
<text text-anchor="start" x="122.62" y="-1637.7" font-family="Helvetica,sans-Serif" font-size="14.00"> &#160;</text>
</g>
<!-- PreAttack -->
<g id="node34" class="node">
<title>PreAttack</title>
<polygon fill="none" stroke="black" points="366.88,-1601 292.38,-1601 292.38,-1565 366.88,-1565 366.88,-1601"/>
<text text-anchor="middle" x="329.62" y="-1577.58" font-family="Helvetica,sans-Serif" font-size="14.00">PreAttack</text>
</g>
<!-- HurtState&#45;&gt;PreAttack -->
<g id="edge23" class="edge">
<title>HurtState&#45;&gt;PreAttack</title>
<path fill="none" stroke="#cdc8b1" d="M140.98,-1639.25C181.49,-1627.11 240.33,-1609.47 281.29,-1597.19"/>
<polygon fill="#cdc8b1" stroke="#cdc8b1" points="282.05,-1600.62 290.62,-1594.39 280.04,-1593.91 282.05,-1600.62"/>
</g>
<!-- Hurt_BigState -->
<g id="node35" class="node">
<title>Hurt_BigState</title>
<polygon fill="none" stroke="black" points="45.38,-1583 45.38,-1604.75 142.88,-1604.75 142.88,-1583 45.38,-1583"/>
<text text-anchor="start" x="48.38" y="-1588.45" font-family="Helvetica,sans-Serif" font-size="14.00">Hurt_BigState &#160;</text>
<polygon fill="none" stroke="black" points="45.38,-1561.25 45.38,-1583 142.88,-1583 142.88,-1561.25 45.38,-1561.25"/>
<text text-anchor="start" x="48.38" y="-1567.7" font-family="Helvetica,sans-Serif" font-size="12.00" fill="#838b8b">1.00s: Done</text>
<text text-anchor="start" x="112.88" y="-1567.7" font-family="Helvetica,sans-Serif" font-size="14.00"> &#160;</text>
</g>
<!-- Hurt_BigState&#45;&gt;PreAttack -->
<g id="edge24" class="edge">
<title>Hurt_BigState&#45;&gt;PreAttack</title>
<path fill="none" stroke="#cdc8b1" d="M150.76,-1583C190.36,-1583 243.04,-1583 280.77,-1583"/>
<polygon fill="#cdc8b1" stroke="#cdc8b1" points="280.46,-1586.5 290.46,-1583 280.46,-1579.5 280.46,-1586.5"/>
</g>
<!-- PostureBreak -->
<g id="node36" class="node">
<title>PostureBreak</title>
<polygon fill="none" stroke="black" points="46.5,-1513 46.5,-1534.75 141.75,-1534.75 141.75,-1513 46.5,-1513"/>
<text text-anchor="start" x="49.5" y="-1518.45" font-family="Helvetica,sans-Serif" font-size="14.00">PostureBreak &#160;</text>
<polygon fill="none" stroke="black" points="46.5,-1491.25 46.5,-1513 141.75,-1513 141.75,-1491.25 46.5,-1491.25"/>
<text text-anchor="start" x="49.5" y="-1497.7" font-family="Helvetica,sans-Serif" font-size="12.00" fill="#838b8b">1.50s: Done</text>
<text text-anchor="start" x="114" y="-1497.7" font-family="Helvetica,sans-Serif" font-size="14.00"> &#160;</text>
</g>
<!-- PostureBreak&#45;&gt;PreAttack -->
<g id="edge25" class="edge">
<title>PostureBreak&#45;&gt;PreAttack</title>
<path fill="none" stroke="#cdc8b1" d="M149.58,-1529.32C189.44,-1541.27 243,-1557.33 281.13,-1568.76"/>
<polygon fill="#cdc8b1" stroke="#cdc8b1" points="279.91,-1572.05 290.5,-1571.57 281.92,-1565.35 279.91,-1572.05"/>
</g>
<!-- RollThrough -->
<g id="node37" class="node">
<title>RollThrough</title>
<polygon fill="none" stroke="black" points="35.25,-822.12 35.25,-843.88 153,-843.88 153,-822.12 35.25,-822.12"/>
<text text-anchor="start" x="53.62" y="-827.58" font-family="Helvetica,sans-Serif" font-size="14.00">RollThrough &#160;</text>
<polygon fill="none" stroke="black" points="35.25,-790.12 35.25,-822.12 153,-822.12 153,-790.12 35.25,-790.12"/>
<text text-anchor="start" x="38.25" y="-808.73" font-family="Helvetica,sans-Serif" font-size="12.00" fill="#838b8b">0.50s: LinkNextMove</text>
<text text-anchor="start" x="38.25" y="-794.83" font-family="Helvetica,sans-Serif" font-size="12.00" fill="#838b8b">0.58s: Done</text>
<text text-anchor="start" x="102.75" y="-794.83" font-family="Helvetica,sans-Serif" font-size="14.00"> &#160;</text>
</g>
<!-- RollThrough&#45;&gt;Engaging -->
<g id="edge26" class="edge">
<title>RollThrough&#45;&gt;Engaging</title>
<path fill="none" stroke="#cdc8b1" d="M160.95,-836.24C193.81,-849.03 231.56,-869.09 255.5,-899 275.57,-924.08 263.63,-938.43 273.5,-969 286.26,-1008.53 304.27,-1052.98 316.19,-1081.22"/>
<polygon fill="#cdc8b1" stroke="#cdc8b1" points="312.86,-1082.33 319.99,-1090.16 319.3,-1079.59 312.86,-1082.33"/>
</g>
<!-- RollThrough_linked -->
<g id="node38" class="node">
<title>RollThrough_linked</title>
<polygon fill="none" stroke="black" stroke-dasharray="1,5" points="381.73,-836.35 277.52,-836.35 277.52,-789.65 381.73,-789.65 381.73,-836.35"/>
<text text-anchor="start" x="297.38" y="-817.45" font-family="Helvetica,sans-Serif" font-size="14.00">Engaging &#160;</text>
<text text-anchor="start" x="283.12" y="-797.7" font-family="Helvetica,sans-Serif" font-size="14.00">Attack 3 throw &#160;</text>
</g>
<!-- RollThrough&#45;&gt;RollThrough_linked -->
<g id="edge27" class="edge">
<title>RollThrough&#45;&gt;RollThrough_linked</title>
<path fill="none" stroke="#66cdaa" d="M160.79,-815.88C193.73,-815.31 233.43,-814.63 265.95,-814.07"/>
<polygon fill="#66cdaa" stroke="#66cdaa" points="265.67,-817.58 275.61,-813.91 265.55,-810.58 265.67,-817.58"/>
<text text-anchor="middle" x="222.88" y="-817.81" font-family="Helvetica,sans-Serif" font-size="14.00" fill="#66cdaa">QueueEnd</text>
</g>
<!-- Wandering_Idle -->
<g id="node39" class="node">
<title>Wandering_Idle</title>
<polygon fill="none" stroke="black" points="164.75,-1733 23.5,-1733 23.5,-1697 164.75,-1697 164.75,-1733"/>
<text text-anchor="middle" x="94.12" y="-1709.58" font-family="Helvetica,sans-Serif" font-size="14.00">Wandering_Idle (Init)</text>
</g>
</g>
</svg>
