<?xml version="1.0" encoding="UTF-8" standalone="no"?>
<!DOCTYPE svg PUBLIC "-//W3C//DTD SVG 1.1//EN"
 "http://www.w3.org/Graphics/SVG/1.1/DTD/svg11.dtd">
<!-- Generated by graphviz version 12.2.1 (20241206.2353)
 -->
<!-- Title: Foo Pages: 1 -->
<svg width="396pt" height="1050pt"
 viewBox="0.00 0.00 395.50 1049.88" xmlns="http://www.w3.org/2000/svg" xmlns:xlink="http://www.w3.org/1999/xlink">
<g id="graph0" class="graph" transform="scale(1 1) rotate(0) translate(4 1045.88)">
<title>Foo</title>
<polygon fill="white" stroke="none" points="-4,4 -4,-1045.88 391.5,-1045.88 391.5,4 -4,4"/>
<g id="clust1" class="cluster">
<title>cluster_attacksensors</title>
<polygon fill="none" stroke="black" points="8,-513.88 8,-1033.88 379.5,-1033.88 379.5,-513.88 8,-513.88"/>
<text text-anchor="middle" x="193.75" y="-1016.58" font-family="Helvetica,sans-Serif" font-size="14.00">Attack Sensors</text>
</g>
<!-- Attack -->
<g id="node1" class="node">
<title>Attack</title>
<polygon fill="none" stroke="black" points="54,-185.88 54,-207.62 132,-207.62 132,-185.88 54,-185.88"/>
<text text-anchor="start" x="70.5" y="-191.32" font-family="Helvetica,sans-Serif" font-size="14.00">Attack &#160;</text>
<polygon fill="none" stroke="black" points="54,-164.12 54,-185.88 132,-185.88 132,-164.12 54,-164.12"/>
<text text-anchor="start" x="57" y="-170.57" font-family="Helvetica,sans-Serif" font-size="12.00" fill="#838b8b">1.32s: Done</text>
<text text-anchor="start" x="121.5" y="-170.57" font-family="Helvetica,sans-Serif" font-size="14.00"> &#160;</text>
</g>
<!-- Engaging -->
<g id="node2" class="node">
<title>Engaging</title>
<polygon fill="none" stroke="black" points="357.88,-128.88 284.88,-128.88 284.88,-92.88 357.88,-92.88 357.88,-128.88"/>
<text text-anchor="middle" x="321.38" y="-105.45" font-family="Helvetica,sans-Serif" font-size="14.00">Engaging</text>
</g>
<!-- Attack&#45;&gt;Engaging -->
<g id="edge1" class="edge">
<title>Attack&#45;&gt;Engaging</title>
<path fill="none" stroke="#cdc8b1" d="M139.81,-170.7C178.82,-157.78 234.6,-139.29 273.82,-126.3"/>
<polygon fill="#cdc8b1" stroke="#cdc8b1" points="274.84,-129.65 283.23,-123.18 272.64,-123 274.84,-129.65"/>
</g>
<!-- AttackParrying -->
<g id="node3" class="node">
<title>AttackParrying</title>
<polygon fill="none" stroke="black" points="34.5,-116 34.5,-137.75 151.5,-137.75 151.5,-116 34.5,-116"/>
<text text-anchor="start" x="45.38" y="-121.45" font-family="Helvetica,sans-Serif" font-size="14.00">AttackParrying &#160;</text>
<polygon fill="none" stroke="black" points="34.5,-84 34.5,-116 151.5,-116 151.5,-84 34.5,-84"/>
<text text-anchor="start" x="37.5" y="-102.6" font-family="Helvetica,sans-Serif" font-size="12.00" fill="#838b8b">0.00s: EnableGravity</text>
<text text-anchor="start" x="37.5" y="-88.7" font-family="Helvetica,sans-Serif" font-size="12.00" fill="#838b8b">0.42s: Done</text>
<text text-anchor="start" x="102" y="-88.7" font-family="Helvetica,sans-Serif" font-size="14.00"> &#160;</text>
</g>
<!-- AttackParrying&#45;&gt;Engaging -->
<g id="edge2" class="edge">
<title>AttackParrying&#45;&gt;Engaging</title>
<path fill="none" stroke="#cdc8b1" d="M159.48,-110.88C195.92,-110.88 240.44,-110.88 273.41,-110.88"/>
<polygon fill="#cdc8b1" stroke="#cdc8b1" points="273.04,-114.38 283.04,-110.88 273.04,-107.38 273.04,-114.38"/>
</g>
<!-- HurtState -->
<g id="node4" class="node">
<title>HurtState</title>
<polygon fill="none" stroke="black" points="34.5,-426 34.5,-447.75 151.5,-447.75 151.5,-426 34.5,-426"/>
<text text-anchor="start" x="60.75" y="-431.45" font-family="Helvetica,sans-Serif" font-size="14.00">HurtState &#160;</text>
<polygon fill="none" stroke="black" points="34.5,-394 34.5,-426 151.5,-426 151.5,-394 34.5,-394"/>
<text text-anchor="start" x="37.5" y="-412.6" font-family="Helvetica,sans-Serif" font-size="12.00" fill="#838b8b">0.00s: EnableGravity</text>
<text text-anchor="start" x="37.5" y="-398.7" font-family="Helvetica,sans-Serif" font-size="12.00" fill="#838b8b">0.17s: Done</text>
<text text-anchor="start" x="102" y="-398.7" font-family="Helvetica,sans-Serif" font-size="14.00"> &#160;</text>
</g>
<!-- PreAttack -->
<g id="node5" class="node">
<title>PreAttack</title>
<polygon fill="none" stroke="black" points="358.62,-358.88 284.12,-358.88 284.12,-322.88 358.62,-322.88 358.62,-358.88"/>
<text text-anchor="middle" x="321.38" y="-335.45" font-family="Helvetica,sans-Serif" font-size="14.00">PreAttack</text>
</g>
<!-- HurtState&#45;&gt;PreAttack -->
<g id="edge3" class="edge">
<title>HurtState&#45;&gt;PreAttack</title>
<path fill="none" stroke="#cdc8b1" d="M159.48,-397.74C195.85,-384.88 240.26,-369.19 273.2,-357.55"/>
<polygon fill="#cdc8b1" stroke="#cdc8b1" points="274.22,-360.9 282.48,-354.27 271.88,-354.3 274.22,-360.9"/>
</g>
<!-- Hurt_BigState -->
<g id="node6" class="node">
<title>Hurt_BigState</title>
<polygon fill="none" stroke="black" points="34.5,-346 34.5,-367.75 151.5,-367.75 151.5,-346 34.5,-346"/>
<text text-anchor="start" x="47.25" y="-351.45" font-family="Helvetica,sans-Serif" font-size="14.00">Hurt_BigState &#160;</text>
<polygon fill="none" stroke="black" points="34.5,-314 34.5,-346 151.5,-346 151.5,-314 34.5,-314"/>
<text text-anchor="start" x="37.5" y="-332.6" font-family="Helvetica,sans-Serif" font-size="12.00" fill="#838b8b">0.00s: EnableGravity</text>
<text text-anchor="start" x="37.5" y="-318.7" font-family="Helvetica,sans-Serif" font-size="12.00" fill="#838b8b">1.00s: Done</text>
<text text-anchor="start" x="102" y="-318.7" font-family="Helvetica,sans-Serif" font-size="14.00"> &#160;</text>
</g>
<!-- Hurt_BigState&#45;&gt;PreAttack -->
<g id="edge4" class="edge">
<title>Hurt_BigState&#45;&gt;PreAttack</title>
<path fill="none" stroke="#cdc8b1" d="M159.48,-340.88C195.69,-340.88 239.87,-340.88 272.77,-340.88"/>
<polygon fill="#cdc8b1" stroke="#cdc8b1" points="272.39,-344.38 282.39,-340.88 272.39,-337.38 272.39,-344.38"/>
</g>
<!-- PostureBreak -->
<g id="node7" class="node">
<title>PostureBreak</title>
<polygon fill="none" stroke="black" points="34.5,-266 34.5,-287.75 151.5,-287.75 151.5,-266 34.5,-266"/>
<text text-anchor="start" x="48.38" y="-271.45" font-family="Helvetica,sans-Serif" font-size="14.00">PostureBreak &#160;</text>
<polygon fill="none" stroke="black" points="34.5,-234 34.5,-266 151.5,-266 151.5,-234 34.5,-234"/>
<text text-anchor="start" x="37.5" y="-252.6" font-family="Helvetica,sans-Serif" font-size="12.00" fill="#838b8b">0.00s: EnableGravity</text>
<text text-anchor="start" x="37.5" y="-238.7" font-family="Helvetica,sans-Serif" font-size="12.00" fill="#838b8b">3.50s: Done</text>
<text text-anchor="start" x="102" y="-238.7" font-family="Helvetica,sans-Serif" font-size="14.00"> &#160;</text>
</g>
<!-- PostureBreak&#45;&gt;PreAttack -->
<g id="edge5" class="edge">
<title>PostureBreak&#45;&gt;PreAttack</title>
<path fill="none" stroke="#cdc8b1" d="M159.48,-284.01C195.85,-296.87 240.26,-312.56 273.2,-324.2"/>
<polygon fill="#cdc8b1" stroke="#cdc8b1" points="271.88,-327.45 282.48,-327.48 274.22,-320.85 271.88,-327.45"/>
</g>
<!-- RollThrough -->
<g id="node8" class="node">
<title>RollThrough</title>
<polygon fill="none" stroke="black" points="34.12,-36 34.12,-57.75 151.88,-57.75 151.88,-36 34.12,-36"/>
<text text-anchor="start" x="52.5" y="-41.45" font-family="Helvetica,sans-Serif" font-size="14.00">RollThrough &#160;</text>
<polygon fill="none" stroke="black" points="34.12,-4 34.12,-36 151.88,-36 151.88,-4 34.12,-4"/>
<text text-anchor="start" x="37.12" y="-22.6" font-family="Helvetica,sans-Serif" font-size="12.00" fill="#838b8b">0.67s: LinkNextMove</text>
<text text-anchor="start" x="37.12" y="-8.7" font-family="Helvetica,sans-Serif" font-size="12.00" fill="#838b8b">0.68s: Done</text>
<text text-anchor="start" x="101.62" y="-8.7" font-family="Helvetica,sans-Serif" font-size="14.00"> &#160;</text>
</g>
<!-- RollThrough&#45;&gt;Engaging -->
<g id="edge6" class="edge">
<title>RollThrough&#45;&gt;Engaging</title>
<path fill="none" stroke="#cdc8b1" d="M159.78,-54.12C196.37,-67.05 241.04,-82.84 273.96,-94.47"/>
<polygon fill="#cdc8b1" stroke="#cdc8b1" points="272.63,-97.71 283.22,-97.75 274.96,-91.11 272.63,-97.71"/>
</g>
<!-- Wandering_Idle -->
<g id="node9" class="node">
<title>Wandering_Idle</title>
<polygon fill="none" stroke="black" points="163.62,-505.88 22.38,-505.88 22.38,-469.88 163.62,-469.88 163.62,-505.88"/>
<text text-anchor="middle" x="93" y="-482.45" font-family="Helvetica,sans-Serif" font-size="14.00">Wandering_Idle (Init)</text>
</g>
<!-- Level Once Sensor -->
<g id="node10" class="node">
<title>Level Once Sensor</title>
<polygon fill="none" stroke="black" points="158.75,-561.88 27.25,-561.88 27.25,-525.88 158.75,-525.88 158.75,-561.88"/>
<text text-anchor="middle" x="93" y="-538.45" font-family="Helvetica,sans-Serif" font-size="14.00">Level Once Sensor</text>
</g>
<!-- Level Once Sensor_linked -->
<g id="node11" class="node">
<title>Level Once Sensor_linked</title>
<polygon fill="none" stroke="black" stroke-dasharray="1,5" points="349.48,-557.88 293.27,-557.88 293.27,-521.88 349.48,-521.88 349.48,-557.88"/>
<text text-anchor="start" x="298.88" y="-534.45" font-family="Helvetica,sans-Serif" font-size="14.00">Attack &#160;</text>
</g>
<!-- Level Once Sensor&#45;&gt;Level Once Sensor_linked -->
<g id="edge7" class="edge">
<title>Level Once Sensor&#45;&gt;Level Once Sensor_linked</title>
<path fill="none" stroke="#66cdaa" d="M159.17,-542.72C198.9,-542.02 248.31,-541.15 281.88,-540.56"/>
<polygon fill="#66cdaa" stroke="#66cdaa" points="281.61,-544.06 291.54,-540.38 281.48,-537.06 281.61,-544.06"/>
<text text-anchor="middle" x="220.62" y="-544.56" font-family="Helvetica,sans-Serif" font-size="14.00" fill="#66cdaa">QueueEnd</text>
</g>
<!-- Level Once Sensor_mustuse -->
<g id="node12" class="node">
<title>Level Once Sensor_mustuse</title>
<polygon fill="none" stroke="black" stroke-dasharray="1,5" points="371.5,-611.88 271.25,-611.88 271.25,-575.88 371.5,-575.88 371.5,-611.88"/>
<text text-anchor="start" x="281.25" y="-588.45" font-family="Helvetica,sans-Serif" font-size="14.00">1 Undefined &#160;</text>
</g>
<!-- Level Once Sensor&#45;&gt;Level Once Sensor_mustuse -->
<g id="edge8" class="edge">
<title>Level Once Sensor&#45;&gt;Level Once Sensor_mustuse</title>
<path fill="none" stroke="#458b74" d="M159.17,-558.27C190.93,-565.28 228.88,-573.67 259.98,-580.53"/>
<polygon fill="#458b74" stroke="#458b74" points="259.1,-583.93 269.62,-582.67 260.61,-577.09 259.1,-583.93"/>
<text text-anchor="middle" x="220.62" y="-580.15" font-family="Helvetica,sans-Serif" font-size="14.00" fill="#458b74">Weight</text>
</g>
<!-- RunAwaySensor -->
<g id="node13" class="node">
<title>RunAwaySensor</title>
<polygon fill="none" stroke="black" points="151.25,-623.88 34.75,-623.88 34.75,-587.88 151.25,-587.88 151.25,-623.88"/>
<text text-anchor="middle" x="93" y="-600.45" font-family="Helvetica,sans-Serif" font-size="14.00">RunAwaySensor</text>
</g>
<!-- AttackSensor -->
<g id="node14" class="node">
<title>AttackSensor</title>
<polygon fill="none" stroke="black" points="141.12,-681.88 44.88,-681.88 44.88,-645.88 141.12,-645.88 141.12,-681.88"/>
<text text-anchor="middle" x="93" y="-658.45" font-family="Helvetica,sans-Serif" font-size="14.00">AttackSensor</text>
</g>
<!-- AttackSensor_linked -->
<g id="node15" class="node">
<title>AttackSensor_linked</title>
<polygon fill="none" stroke="black" stroke-dasharray="1,5" points="349.48,-665.88 293.27,-665.88 293.27,-629.88 349.48,-629.88 349.48,-665.88"/>
<text text-anchor="start" x="298.88" y="-642.45" font-family="Helvetica,sans-Serif" font-size="14.00">Attack &#160;</text>
</g>
<!-- AttackSensor&#45;&gt;AttackSensor_linked -->
<g id="edge9" class="edge">
<title>AttackSensor&#45;&gt;AttackSensor_linked</title>
<path fill="none" stroke="#66cdaa" d="M141.46,-660.52C183.05,-657.58 242.76,-653.36 281.56,-650.62"/>
<polygon fill="#66cdaa" stroke="#66cdaa" points="281.65,-654.12 291.38,-649.92 281.16,-647.14 281.65,-654.12"/>
<text text-anchor="middle" x="220.62" y="-659.28" font-family="Helvetica,sans-Serif" font-size="14.00" fill="#66cdaa">QueueEnd</text>
</g>
<!-- AttackSensor_mustuse -->
<g id="node16" class="node">
<title>AttackSensor_mustuse</title>
<polygon fill="none" stroke="black" stroke-dasharray="1,5" points="371.5,-731.62 271.25,-731.62 271.25,-684.12 371.5,-684.12 371.5,-731.62"/>
<text text-anchor="start" x="281.25" y="-712.33" font-family="Helvetica,sans-Serif" font-size="14.00">2 Undefined &#160;</text>
<text text-anchor="start" x="281.25" y="-692.58" font-family="Helvetica,sans-Serif" font-size="14.00">1 Undefined &#160;</text>
</g>
<!-- AttackSensor&#45;&gt;AttackSensor_mustuse -->
<g id="edge10" class="edge">
<title>AttackSensor&#45;&gt;AttackSensor_mustuse</title>
<path fill="none" stroke="#458b74" d="M141.46,-673.1C175.88,-679.79 222.72,-688.89 259.84,-696.11"/>
<polygon fill="#458b74" stroke="#458b74" points="259.06,-699.52 269.54,-697.99 260.39,-692.65 259.06,-699.52"/>
<text text-anchor="middle" x="220.62" y="-696.09" font-family="Helvetica,sans-Serif" font-size="14.00" fill="#458b74">Weight</text>
</g>
<!-- DodgePredictSensor -->
<g id="node17" class="node">
<title>DodgePredictSensor</title>
<polygon fill="none" stroke="black" points="24,-727.88 24,-749.62 162,-749.62 162,-727.88 24,-727.88"/>
<text text-anchor="start" x="27" y="-733.33" font-family="Helvetica,sans-Serif" font-size="14.00">DodgePredictSensor &#160;</text>
<polygon fill="none" stroke="black" points="24,-706.12 24,-727.88 162,-727.88 162,-706.12 24,-706.12"/>
<text text-anchor="start" x="27" y="-712.58" font-family="Helvetica,sans-Serif" font-size="12.00" fill="#838b8b">if: Dodge</text>
<text text-anchor="start" x="75" y="-712.58" font-family="Helvetica,sans-Serif" font-size="14.00"> &#160;</text>
</g>
<!-- DodgePredictSensor_linked -->
<g id="node18" class="node">
<title>DodgePredictSensor_linked</title>
<polygon fill="none" stroke="black" stroke-dasharray="1,5" points="349.48,-785.88 293.27,-785.88 293.27,-749.88 349.48,-749.88 349.48,-785.88"/>
<text text-anchor="start" x="298.88" y="-762.45" font-family="Helvetica,sans-Serif" font-size="14.00">Attack &#160;</text>
</g>
<!-- DodgePredictSensor&#45;&gt;DodgePredictSensor_linked -->
<g id="edge11" class="edge">
<title>DodgePredictSensor&#45;&gt;DodgePredictSensor_linked</title>
<path fill="none" stroke="#66cdaa" d="M169.69,-741.25C207.31,-747.9 251.14,-755.64 281.8,-761.06"/>
<polygon fill="#66cdaa" stroke="#66cdaa" points="280.92,-764.46 291.38,-762.75 282.14,-757.56 280.92,-764.46"/>
<text text-anchor="middle" x="220.62" y="-757.39" font-family="Helvetica,sans-Serif" font-size="14.00" fill="#66cdaa">QueueEnd</text>
</g>
<!-- AttackPredictSensor -->
<g id="node19" class="node">
<title>AttackPredictSensor</title>
<polygon fill="none" stroke="black" points="25.12,-797.88 25.12,-819.62 160.88,-819.62 160.88,-797.88 25.12,-797.88"/>
<text text-anchor="start" x="28.12" y="-803.33" font-family="Helvetica,sans-Serif" font-size="14.00">AttackPredictSensor &#160;</text>
<polygon fill="none" stroke="black" points="25.12,-776.12 25.12,-797.88 160.88,-797.88 160.88,-776.12 25.12,-776.12"/>
<text text-anchor="start" x="28.12" y="-782.58" font-family="Helvetica,sans-Serif" font-size="12.00" fill="#838b8b">if: Attack</text>
<text text-anchor="start" x="73.12" y="-782.58" font-family="Helvetica,sans-Serif" font-size="14.00"> &#160;</text>
</g>
<!-- AttackPredictSensor_linked -->
<g id="node20" class="node">
<title>AttackPredictSensor_linked</title>
<polygon fill="none" stroke="black" stroke-dasharray="1,5" points="349.48,-839.88 293.27,-839.88 293.27,-803.88 349.48,-803.88 349.48,-839.88"/>
<text text-anchor="start" x="298.88" y="-816.45" font-family="Helvetica,sans-Serif" font-size="14.00">Attack &#160;</text>
</g>
<!-- AttackPredictSensor&#45;&gt;AttackPredictSensor_linked -->
<g id="edge12" class="edge">
<title>AttackPredictSensor&#45;&gt;AttackPredictSensor_linked</title>
<path fill="none" stroke="#66cdaa" d="M168.75,-805.8C206.55,-809.81 250.84,-814.5 281.75,-817.78"/>
<polygon fill="#66cdaa" stroke="#66cdaa" points="281.09,-821.23 291.4,-818.8 281.83,-814.27 281.09,-821.23"/>
<text text-anchor="middle" x="220.62" y="-816.56" font-family="Helvetica,sans-Serif" font-size="14.00" fill="#66cdaa">QueueEnd</text>
</g>
<!-- AttackRunToSensor -->
<g id="node21" class="node">
<title>AttackRunToSensor</title>
<polygon fill="none" stroke="black" points="26.62,-867.88 26.62,-889.62 159.38,-889.62 159.38,-867.88 26.62,-867.88"/>
<text text-anchor="start" x="29.62" y="-873.33" font-family="Helvetica,sans-Serif" font-size="14.00">AttackRunToSensor &#160;</text>
<polygon fill="none" stroke="black" points="26.62,-846.12 26.62,-867.88 159.38,-867.88 159.38,-846.12 26.62,-846.12"/>
<text text-anchor="start" x="29.62" y="-852.58" font-family="Helvetica,sans-Serif" font-size="12.00" fill="#838b8b">if: state is Engaging</text>
<text text-anchor="start" x="133.88" y="-852.58" font-family="Helvetica,sans-Serif" font-size="14.00"> &#160;</text>
</g>
<!-- AttackRunToSensor_linked -->
<g id="node22" class="node">
<title>AttackRunToSensor_linked</title>
<polygon fill="none" stroke="black" stroke-dasharray="1,5" points="349.48,-893.88 293.27,-893.88 293.27,-857.88 349.48,-857.88 349.48,-893.88"/>
<text text-anchor="start" x="298.88" y="-870.45" font-family="Helvetica,sans-Serif" font-size="14.00">Attack &#160;</text>
</g>
<!-- AttackRunToSensor&#45;&gt;AttackRunToSensor_linked -->
<g id="edge13" class="edge">
<title>AttackRunToSensor&#45;&gt;AttackRunToSensor_linked</title>
<path fill="none" stroke="#66cdaa" d="M167.18,-870.46C205.21,-871.81 250.16,-873.39 281.49,-874.5"/>
<polygon fill="#66cdaa" stroke="#66cdaa" points="281.16,-877.99 291.28,-874.85 281.41,-871 281.16,-877.99"/>
<text text-anchor="middle" x="220.62" y="-875.74" font-family="Helvetica,sans-Serif" font-size="14.00" fill="#66cdaa">QueueEnd</text>
</g>
<!-- RollSensor (1) -->
<g id="node23" class="node">
<title>RollSensor (1)</title>
<polygon fill="none" stroke="black" points="144.12,-947.88 41.88,-947.88 41.88,-911.88 144.12,-911.88 144.12,-947.88"/>
<text text-anchor="middle" x="93" y="-924.45" font-family="Helvetica,sans-Serif" font-size="14.00">RollSensor (1)</text>
</g>
<!-- RollSensor (1)_linked -->
<g id="node24" class="node">
<title>RollSensor (1)_linked</title>
<polygon fill="none" stroke="black" stroke-dasharray="1,5" points="367.48,-947.88 275.27,-947.88 275.27,-911.88 367.48,-911.88 367.48,-947.88"/>
<text text-anchor="start" x="280.88" y="-924.45" font-family="Helvetica,sans-Serif" font-size="14.00">RollThrough &#160;</text>
</g>
<!-- RollSensor (1)&#45;&gt;RollSensor (1)_linked -->
<g id="edge14" class="edge">
<title>RollSensor (1)&#45;&gt;RollSensor (1)_linked</title>
<path fill="none" stroke="#66cdaa" d="M144.52,-929.88C179.8,-929.88 226.93,-929.88 263.52,-929.88"/>
<polygon fill="#66cdaa" stroke="#66cdaa" points="263.49,-933.38 273.49,-929.88 263.49,-926.38 263.49,-933.38"/>
<text text-anchor="middle" x="220.62" y="-932.33" font-family="Helvetica,sans-Serif" font-size="14.00" fill="#66cdaa">QueueEnd</text>
</g>
<!-- EspcaeSensor (1) -->
<g id="node25" class="node">
<title>EspcaeSensor (1)</title>
<polygon fill="none" stroke="black" points="155,-1001.88 31,-1001.88 31,-965.88 155,-965.88 155,-1001.88"/>
<text text-anchor="middle" x="93" y="-978.45" font-family="Helvetica,sans-Serif" font-size="14.00">EspcaeSensor (1)</text>
</g>
<!-- EspcaeSensor (1)_linked -->
<g id="node26" class="node">
<title>EspcaeSensor (1)_linked</title>
<polygon fill="none" stroke="black" stroke-dasharray="1,5" points="367.48,-1001.88 275.27,-1001.88 275.27,-965.88 367.48,-965.88 367.48,-1001.88"/>
<text text-anchor="start" x="280.88" y="-978.45" font-family="Helvetica,sans-Serif" font-size="14.00">RollThrough &#160;</text>
</g>
<!-- EspcaeSensor (1)&#45;&gt;EspcaeSensor (1)_linked -->
<g id="edge15" class="edge">
<title>EspcaeSensor (1)&#45;&gt;EspcaeSensor (1)_linked</title>
<path fill="none" stroke="#66cdaa" d="M155.26,-983.88C188.99,-983.88 230.58,-983.88 263.58,-983.88"/>
<polygon fill="#66cdaa" stroke="#66cdaa" points="263.36,-987.38 273.36,-983.88 263.36,-980.38 263.36,-987.38"/>
<text text-anchor="middle" x="220.62" y="-986.33" font-family="Helvetica,sans-Serif" font-size="14.00" fill="#66cdaa">QueueEnd</text>
</g>
</g>
</svg>
