<?xml version="1.0" encoding="UTF-8" standalone="no"?>
<!DOCTYPE svg PUBLIC "-//W3C//DTD SVG 1.1//EN"
 "http://www.w3.org/Graphics/SVG/1.1/DTD/svg11.dtd">
<!-- Generated by graphviz version 12.2.1 (20241206.2353)
 -->
<!-- Title: Foo Pages: 1 -->
<svg width="479pt" height="850pt"
 viewBox="0.00 0.00 479.25 850.00" xmlns="http://www.w3.org/2000/svg" xmlns:xlink="http://www.w3.org/1999/xlink">
<g id="graph0" class="graph" transform="scale(1 1) rotate(0) translate(4 846)">
<title>Foo</title>
<polygon fill="white" stroke="none" points="-4,4 -4,-846 475.25,-846 475.25,4 -4,4"/>
<g id="clust1" class="cluster">
<title>cluster_attacksensors</title>
<polygon fill="none" stroke="black" points="8,-440 8,-834 178,-834 178,-440 8,-440"/>
<text text-anchor="middle" x="93" y="-816.7" font-family="Helvetica,sans-Serif" font-size="14.00">Attack Sensors</text>
</g>
<!-- AttackParrying -->
<g id="node1" class="node">
<title>AttackParrying</title>
<polygon fill="none" stroke="black" points="144.88,-198 41.12,-198 41.12,-162 144.88,-162 144.88,-198"/>
<text text-anchor="middle" x="93" y="-174.57" font-family="Helvetica,sans-Serif" font-size="14.00">AttackParrying</text>
</g>
<!-- Engaging -->
<g id="node2" class="node">
<title>Engaging</title>
<polygon fill="none" stroke="black" points="301.88,-117 228.88,-117 228.88,-81 301.88,-81 301.88,-117"/>
<text text-anchor="middle" x="265.38" y="-93.58" font-family="Helvetica,sans-Serif" font-size="14.00">Engaging</text>
</g>
<!-- AttackParrying&#45;&gt;Engaging -->
<g id="edge1" class="edge">
<title>AttackParrying&#45;&gt;Engaging</title>
<path fill="none" stroke="#cdc8b1" d="M144.97,-165.85C156.06,-162.16 167.58,-157.84 178,-153 195.63,-144.81 214.05,-133.7 229.32,-123.68"/>
<polygon fill="#cdc8b1" stroke="#cdc8b1" points="231.24,-126.61 237.61,-118.14 227.35,-120.79 231.24,-126.61"/>
</g>
<!-- HurtState -->
<g id="node3" class="node">
<title>HurtState</title>
<polygon fill="none" stroke="black" points="54,-350 54,-371.75 132,-371.75 132,-350 54,-350"/>
<text text-anchor="start" x="60.75" y="-355.45" font-family="Helvetica,sans-Serif" font-size="14.00">HurtState &#160;</text>
<polygon fill="none" stroke="black" points="54,-328.25 54,-350 132,-350 132,-328.25 54,-328.25"/>
<text text-anchor="start" x="57" y="-334.7" font-family="Helvetica,sans-Serif" font-size="12.00" fill="#838b8b">0.17s: Done</text>
<text text-anchor="start" x="121.5" y="-334.7" font-family="Helvetica,sans-Serif" font-size="14.00"> &#160;</text>
</g>
<!-- PreAttack -->
<g id="node4" class="node">
<title>PreAttack</title>
<polygon fill="none" stroke="black" points="302.62,-306 228.12,-306 228.12,-270 302.62,-270 302.62,-306"/>
<text text-anchor="middle" x="265.38" y="-282.57" font-family="Helvetica,sans-Serif" font-size="14.00">PreAttack</text>
</g>
<!-- HurtState&#45;&gt;PreAttack -->
<g id="edge2" class="edge">
<title>HurtState&#45;&gt;PreAttack</title>
<path fill="none" stroke="#cdc8b1" d="M139.66,-333.39C163.59,-324.68 192.87,-314.02 217.05,-305.22"/>
<polygon fill="#cdc8b1" stroke="#cdc8b1" points="218.14,-308.55 226.34,-301.84 215.74,-301.97 218.14,-308.55"/>
</g>
<!-- Hurt_BigState -->
<g id="node5" class="node">
<title>Hurt_BigState</title>
<polygon fill="none" stroke="black" points="143,-306 43,-306 43,-270 143,-270 143,-306"/>
<text text-anchor="middle" x="93" y="-282.57" font-family="Helvetica,sans-Serif" font-size="14.00">Hurt_BigState</text>
</g>
<!-- Hurt_BigState&#45;&gt;PreAttack -->
<g id="edge3" class="edge">
<title>Hurt_BigState&#45;&gt;PreAttack</title>
<path fill="none" stroke="#cdc8b1" d="M143.28,-288C166.21,-288 193.39,-288 216.18,-288"/>
<polygon fill="#cdc8b1" stroke="#cdc8b1" points="216.14,-291.5 226.14,-288 216.14,-284.5 216.14,-291.5"/>
</g>
<!-- JumpBack -->
<g id="node6" class="node">
<title>JumpBack</title>
<polygon fill="none" stroke="black" points="132.88,-144 53.12,-144 53.12,-108 132.88,-108 132.88,-144"/>
<text text-anchor="middle" x="93" y="-120.58" font-family="Helvetica,sans-Serif" font-size="14.00">JumpBack</text>
</g>
<!-- JumpBack&#45;&gt;Engaging -->
<g id="edge4" class="edge">
<title>JumpBack&#45;&gt;Engaging</title>
<path fill="none" stroke="#cdc8b1" d="M133.09,-119.81C158.08,-115.85 190.64,-110.69 217.08,-106.49"/>
<polygon fill="#cdc8b1" stroke="#cdc8b1" points="217.55,-109.96 226.88,-104.94 216.46,-103.05 217.55,-109.96"/>
</g>
<!-- PostureBreak -->
<g id="node7" class="node">
<title>PostureBreak</title>
<polygon fill="none" stroke="black" points="141.88,-252 44.12,-252 44.12,-216 141.88,-216 141.88,-252"/>
<text text-anchor="middle" x="93" y="-228.57" font-family="Helvetica,sans-Serif" font-size="14.00">PostureBreak</text>
</g>
<!-- PostureBreak&#45;&gt;PreAttack -->
<g id="edge5" class="edge">
<title>PostureBreak&#45;&gt;PreAttack</title>
<path fill="none" stroke="#cdc8b1" d="M142.37,-249.33C165.81,-256.76 193.85,-265.65 217.14,-273.03"/>
<polygon fill="#cdc8b1" stroke="#cdc8b1" points="215.78,-276.27 226.37,-275.95 217.89,-269.6 215.78,-276.27"/>
</g>
<!-- RollThrough -->
<g id="node8" class="node">
<title>RollThrough</title>
<polygon fill="none" stroke="black" points="137.75,-90 48.25,-90 48.25,-54 137.75,-54 137.75,-90"/>
<text text-anchor="middle" x="93" y="-66.58" font-family="Helvetica,sans-Serif" font-size="14.00">RollThrough</text>
</g>
<!-- RollThrough&#45;&gt;Engaging -->
<g id="edge6" class="edge">
<title>RollThrough&#45;&gt;Engaging</title>
<path fill="none" stroke="#cdc8b1" d="M137.88,-78.95C162.13,-82.8 192.29,-87.58 217.07,-91.5"/>
<polygon fill="#cdc8b1" stroke="#cdc8b1" points="216.48,-94.95 226.9,-93.06 217.57,-88.04 216.48,-94.95"/>
</g>
<!-- StandUp -->
<g id="node9" class="node">
<title>StandUp</title>
<polygon fill="none" stroke="black" points="127.25,-36 58.75,-36 58.75,0 127.25,0 127.25,-36"/>
<text text-anchor="middle" x="93" y="-12.57" font-family="Helvetica,sans-Serif" font-size="14.00">StandUp</text>
</g>
<!-- StandUp&#45;&gt;Engaging -->
<g id="edge7" class="edge">
<title>StandUp&#45;&gt;Engaging</title>
<path fill="none" stroke="#cdc8b1" d="M127.43,-26.68C143.13,-31.27 161.88,-37.51 178,-45 195.63,-53.19 214.05,-64.3 229.32,-74.32"/>
<polygon fill="#cdc8b1" stroke="#cdc8b1" points="227.35,-77.21 237.61,-79.86 231.24,-71.39 227.35,-77.21"/>
</g>
<!-- ZEnterState -->
<g id="node10" class="node">
<title>ZEnterState</title>
<text text-anchor="middle" x="265.38" y="-406.57" font-family="Helvetica,sans-Serif" font-size="14.00">ZEnterState (Init)</text>
</g>
<!-- Wandering_Idle -->
<g id="node11" class="node">
<title>Wandering_Idle</title>
<polygon fill="none" stroke="black" points="471.25,-430 360.75,-430 360.75,-394 471.25,-394 471.25,-430"/>
<text text-anchor="middle" x="416" y="-406.57" font-family="Helvetica,sans-Serif" font-size="14.00">Wandering_Idle</text>
</g>
<!-- ZEnterState&#45;&gt;Wandering_Idle -->
<g id="edge8" class="edge">
<title>ZEnterState&#45;&gt;Wandering_Idle</title>
<path fill="none" stroke="#cdc8b1" d="M324.69,-412C332.65,-412 340.87,-412 348.95,-412"/>
<polygon fill="#cdc8b1" stroke="#cdc8b1" points="348.74,-415.5 358.74,-412 348.74,-408.5 348.74,-415.5"/>
</g>
<!-- ZExitState -->
<g id="node12" class="node">
<title>ZExitState</title>
<polygon fill="none" stroke="black" points="132.12,-430 53.88,-430 53.88,-394 132.12,-394 132.12,-430"/>
<text text-anchor="middle" x="93" y="-406.57" font-family="Helvetica,sans-Serif" font-size="14.00">ZExitState</text>
</g>
<!-- ZExitState&#45;&gt;ZEnterState -->
<g id="edge9" class="edge">
<title>ZExitState&#45;&gt;ZEnterState</title>
<path fill="none" stroke="#cdc8b1" d="M132.24,-412C150.7,-412 173.44,-412 194.82,-412"/>
<polygon fill="#cdc8b1" stroke="#cdc8b1" points="194.67,-415.5 204.67,-412 194.67,-408.5 194.67,-415.5"/>
</g>
<!-- Level Once Sensor -->
<g id="node13" class="node">
<title>Level Once Sensor</title>
<polygon fill="none" stroke="black" points="158.75,-484 27.25,-484 27.25,-448 158.75,-448 158.75,-484"/>
<text text-anchor="middle" x="93" y="-460.57" font-family="Helvetica,sans-Serif" font-size="14.00">Level Once Sensor</text>
</g>
<!-- RunAwaySensor -->
<g id="node14" class="node">
<title>RunAwaySensor</title>
<polygon fill="none" stroke="black" points="151.25,-538 34.75,-538 34.75,-502 151.25,-502 151.25,-538"/>
<text text-anchor="middle" x="93" y="-514.58" font-family="Helvetica,sans-Serif" font-size="14.00">RunAwaySensor</text>
</g>
<!-- AttackSensor -->
<g id="node15" class="node">
<title>AttackSensor</title>
<polygon fill="none" stroke="black" points="141.12,-592 44.88,-592 44.88,-556 141.12,-556 141.12,-592"/>
<text text-anchor="middle" x="93" y="-568.58" font-family="Helvetica,sans-Serif" font-size="14.00">AttackSensor</text>
</g>
<!-- DodgePredictSensor -->
<g id="node16" class="node">
<title>DodgePredictSensor</title>
<polygon fill="none" stroke="black" points="24,-636 24,-657.75 162,-657.75 162,-636 24,-636"/>
<text text-anchor="start" x="27" y="-641.45" font-family="Helvetica,sans-Serif" font-size="14.00">DodgePredictSensor &#160;</text>
<polygon fill="none" stroke="black" points="24,-614.25 24,-636 162,-636 162,-614.25 24,-614.25"/>
<text text-anchor="start" x="27" y="-620.7" font-family="Helvetica,sans-Serif" font-size="12.00" fill="#838b8b">if: Dodge</text>
<text text-anchor="start" x="75" y="-620.7" font-family="Helvetica,sans-Serif" font-size="14.00"> &#160;</text>
</g>
<!-- AttackPredictSensor -->
<g id="node17" class="node">
<title>AttackPredictSensor</title>
<polygon fill="none" stroke="black" points="25.12,-706 25.12,-727.75 160.88,-727.75 160.88,-706 25.12,-706"/>
<text text-anchor="start" x="28.12" y="-711.45" font-family="Helvetica,sans-Serif" font-size="14.00">AttackPredictSensor &#160;</text>
<polygon fill="none" stroke="black" points="25.12,-684.25 25.12,-706 160.88,-706 160.88,-684.25 25.12,-684.25"/>
<text text-anchor="start" x="28.12" y="-690.7" font-family="Helvetica,sans-Serif" font-size="12.00" fill="#838b8b">if: Attack</text>
<text text-anchor="start" x="73.12" y="-690.7" font-family="Helvetica,sans-Serif" font-size="14.00"> &#160;</text>
</g>
<!-- AttackRunToSensor -->
<g id="node18" class="node">
<title>AttackRunToSensor</title>
<polygon fill="none" stroke="black" points="26.62,-776 26.62,-797.75 159.38,-797.75 159.38,-776 26.62,-776"/>
<text text-anchor="start" x="29.62" y="-781.45" font-family="Helvetica,sans-Serif" font-size="14.00">AttackRunToSensor &#160;</text>
<polygon fill="none" stroke="black" points="26.62,-754.25 26.62,-776 159.38,-776 159.38,-754.25 26.62,-754.25"/>
<text text-anchor="start" x="29.62" y="-760.7" font-family="Helvetica,sans-Serif" font-size="12.00" fill="#838b8b">if: state is Engaging</text>
<text text-anchor="start" x="133.88" y="-760.7" font-family="Helvetica,sans-Serif" font-size="14.00"> &#160;</text>
</g>
</g>
</svg>
