<?xml version="1.0" encoding="UTF-8" standalone="no"?>
<!DOCTYPE svg PUBLIC "-//W3C//DTD SVG 1.1//EN"
 "http://www.w3.org/Graphics/SVG/1.1/DTD/svg11.dtd">
<!-- Generated by graphviz version 12.2.1 (20241206.2353)
 -->
<!-- Title: Foo Pages: 1 -->
<svg width="480pt" height="998pt"
 viewBox="0.00 0.00 480.25 997.88" xmlns="http://www.w3.org/2000/svg" xmlns:xlink="http://www.w3.org/1999/xlink">
<g id="graph0" class="graph" transform="scale(1 1) rotate(0) translate(4 993.88)">
<title>Foo</title>
<polygon fill="white" stroke="none" points="-4,4 -4,-993.88 476.25,-993.88 476.25,4 -4,4"/>
<g id="clust1" class="cluster">
<title>cluster_attacksensors</title>
<polygon fill="none" stroke="black" points="8,-517.88 8,-981.88 464.25,-981.88 464.25,-517.88 8,-517.88"/>
<text text-anchor="middle" x="236.12" y="-964.58" font-family="Helvetica,sans-Serif" font-size="14.00">Attack Sensors</text>
</g>
<!-- Attack -->
<g id="node1" class="node">
<title>Attack</title>
<polygon fill="none" stroke="black" points="96.38,-357.88 96.38,-379.62 174.38,-379.62 174.38,-357.88 96.38,-357.88"/>
<text text-anchor="start" x="112.88" y="-363.32" font-family="Helvetica,sans-Serif" font-size="14.00">Attack &#160;</text>
<polygon fill="none" stroke="black" points="96.38,-336.12 96.38,-357.88 174.38,-357.88 174.38,-336.12 96.38,-336.12"/>
<text text-anchor="start" x="99.38" y="-342.57" font-family="Helvetica,sans-Serif" font-size="12.00" fill="#838b8b">1.17s: Done</text>
<text text-anchor="start" x="163.88" y="-342.57" font-family="Helvetica,sans-Serif" font-size="14.00"> &#160;</text>
</g>
<!-- PreAttack -->
<g id="node2" class="node">
<title>PreAttack</title>
<polygon fill="none" stroke="black" points="443.38,-208.88 368.88,-208.88 368.88,-172.88 443.38,-172.88 443.38,-208.88"/>
<text text-anchor="middle" x="406.12" y="-185.45" font-family="Helvetica,sans-Serif" font-size="14.00">PreAttack</text>
</g>
<!-- Attack&#45;&gt;PreAttack -->
<g id="edge1" class="edge">
<title>Attack&#45;&gt;PreAttack</title>
<path fill="none" stroke="#cdc8b1" d="M182.32,-349.18C205.04,-343.69 232.32,-335.24 254.75,-322.88 305.69,-294.78 354.34,-246.96 381.89,-217.24"/>
<polygon fill="#cdc8b1" stroke="#cdc8b1" points="384.23,-219.86 388.39,-210.12 379.06,-215.14 384.23,-219.86"/>
</g>
<!-- Shoot -->
<g id="node3" class="node">
<title>Shoot</title>
<polygon fill="none" stroke="black" points="79.12,-288 79.12,-309.75 191.62,-309.75 191.62,-288 79.12,-288"/>
<text text-anchor="start" x="114" y="-293.45" font-family="Helvetica,sans-Serif" font-size="14.00">Shoot &#160;</text>
<polygon fill="none" stroke="black" points="79.12,-244 79.12,-288 191.62,-288 191.62,-244 79.12,-244"/>
<text text-anchor="start" x="82.12" y="-274.6" font-family="Helvetica,sans-Serif" font-size="12.00" fill="#838b8b">0.00s: CheckFacing</text>
<text text-anchor="start" x="82.12" y="-262.6" font-family="Helvetica,sans-Serif" font-size="12.00" fill="#838b8b">0.58s: Shoot</text>
<text text-anchor="start" x="82.12" y="-248.7" font-family="Helvetica,sans-Serif" font-size="12.00" fill="#838b8b">2.00s: Done</text>
<text text-anchor="start" x="146.62" y="-248.7" font-family="Helvetica,sans-Serif" font-size="14.00"> &#160;</text>
</g>
<!-- Shoot&#45;&gt;PreAttack -->
<g id="edge2" class="edge">
<title>Shoot&#45;&gt;PreAttack</title>
<path fill="none" stroke="#cdc8b1" d="M199.38,-256.71C247.87,-241.2 313.82,-220.09 357.85,-206"/>
<polygon fill="#cdc8b1" stroke="#cdc8b1" points="358.65,-209.42 367.1,-203.04 356.51,-202.76 358.65,-209.42"/>
</g>
<!-- AttackParrying -->
<g id="node4" class="node">
<title>AttackParrying</title>
<polygon fill="none" stroke="black" points="84.75,-427.88 84.75,-449.62 186,-449.62 186,-427.88 84.75,-427.88"/>
<text text-anchor="start" x="87.75" y="-433.32" font-family="Helvetica,sans-Serif" font-size="14.00">AttackParrying &#160;</text>
<polygon fill="none" stroke="black" points="84.75,-406.12 84.75,-427.88 186,-427.88 186,-406.12 84.75,-406.12"/>
<text text-anchor="start" x="87.75" y="-412.57" font-family="Helvetica,sans-Serif" font-size="12.00" fill="#838b8b">0.67s: Done</text>
<text text-anchor="start" x="152.25" y="-412.57" font-family="Helvetica,sans-Serif" font-size="14.00"> &#160;</text>
</g>
<!-- Engaging -->
<g id="node5" class="node">
<title>Engaging</title>
<polygon fill="none" stroke="black" points="442.62,-445.88 369.62,-445.88 369.62,-409.88 442.62,-409.88 442.62,-445.88"/>
<text text-anchor="middle" x="406.12" y="-422.45" font-family="Helvetica,sans-Serif" font-size="14.00">Engaging</text>
</g>
<!-- AttackParrying&#45;&gt;Engaging -->
<g id="edge3" class="edge">
<title>AttackParrying&#45;&gt;Engaging</title>
<path fill="none" stroke="#cdc8b1" d="M193.7,-427.88C242.62,-427.88 312.13,-427.88 357.91,-427.88"/>
<polygon fill="#cdc8b1" stroke="#cdc8b1" points="357.78,-431.38 367.78,-427.88 357.78,-424.38 357.78,-431.38"/>
</g>
<!-- HurtState -->
<g id="node6" class="node">
<title>HurtState</title>
<polygon fill="none" stroke="black" points="76.88,-196 76.88,-217.75 193.88,-217.75 193.88,-196 76.88,-196"/>
<text text-anchor="start" x="103.12" y="-201.45" font-family="Helvetica,sans-Serif" font-size="14.00">HurtState &#160;</text>
<polygon fill="none" stroke="black" points="76.88,-164 76.88,-196 193.88,-196 193.88,-164 76.88,-164"/>
<text text-anchor="start" x="79.88" y="-182.6" font-family="Helvetica,sans-Serif" font-size="12.00" fill="#838b8b">0.00s: EnableGravity</text>
<text text-anchor="start" x="79.88" y="-168.7" font-family="Helvetica,sans-Serif" font-size="12.00" fill="#838b8b">0.17s: Done</text>
<text text-anchor="start" x="144.38" y="-168.7" font-family="Helvetica,sans-Serif" font-size="14.00"> &#160;</text>
</g>
<!-- HurtState&#45;&gt;PreAttack -->
<g id="edge4" class="edge">
<title>HurtState&#45;&gt;PreAttack</title>
<path fill="none" stroke="#cdc8b1" d="M201.77,-190.88C249.74,-190.88 313.79,-190.88 357.09,-190.88"/>
<polygon fill="#cdc8b1" stroke="#cdc8b1" points="356.93,-194.38 366.93,-190.88 356.93,-187.38 356.93,-194.38"/>
</g>
<!-- Hurt_BigState -->
<g id="node7" class="node">
<title>Hurt_BigState</title>
<polygon fill="none" stroke="black" points="76.88,-116 76.88,-137.75 193.88,-137.75 193.88,-116 76.88,-116"/>
<text text-anchor="start" x="89.62" y="-121.45" font-family="Helvetica,sans-Serif" font-size="14.00">Hurt_BigState &#160;</text>
<polygon fill="none" stroke="black" points="76.88,-84 76.88,-116 193.88,-116 193.88,-84 76.88,-84"/>
<text text-anchor="start" x="79.88" y="-102.6" font-family="Helvetica,sans-Serif" font-size="12.00" fill="#838b8b">0.00s: EnableGravity</text>
<text text-anchor="start" x="79.88" y="-88.7" font-family="Helvetica,sans-Serif" font-size="12.00" fill="#838b8b">1.00s: Done</text>
<text text-anchor="start" x="144.38" y="-88.7" font-family="Helvetica,sans-Serif" font-size="14.00"> &#160;</text>
</g>
<!-- Hurt_BigState&#45;&gt;PreAttack -->
<g id="edge5" class="edge">
<title>Hurt_BigState&#45;&gt;PreAttack</title>
<path fill="none" stroke="#cdc8b1" d="M201.77,-130.34C249.94,-144.68 314.33,-163.85 357.64,-176.74"/>
<polygon fill="#cdc8b1" stroke="#cdc8b1" points="356.41,-180.03 367,-179.52 358.41,-173.32 356.41,-180.03"/>
</g>
<!-- PostureBreak -->
<g id="node8" class="node">
<title>PostureBreak</title>
<polygon fill="none" stroke="black" points="76.88,-36 76.88,-57.75 193.88,-57.75 193.88,-36 76.88,-36"/>
<text text-anchor="start" x="90.75" y="-41.45" font-family="Helvetica,sans-Serif" font-size="14.00">PostureBreak &#160;</text>
<polygon fill="none" stroke="black" points="76.88,-4 76.88,-36 193.88,-36 193.88,-4 76.88,-4"/>
<text text-anchor="start" x="79.88" y="-22.6" font-family="Helvetica,sans-Serif" font-size="12.00" fill="#838b8b">0.00s: EnableGravity</text>
<text text-anchor="start" x="79.88" y="-8.7" font-family="Helvetica,sans-Serif" font-size="12.00" fill="#838b8b">3.50s: Done</text>
<text text-anchor="start" x="144.38" y="-8.7" font-family="Helvetica,sans-Serif" font-size="14.00"> &#160;</text>
</g>
<!-- PostureBreak&#45;&gt;PreAttack -->
<g id="edge6" class="edge">
<title>PostureBreak&#45;&gt;PreAttack</title>
<path fill="none" stroke="#cdc8b1" d="M201.68,-48.44C219.43,-54.4 238.28,-61.88 254.75,-70.88 302.31,-96.84 349.97,-138.08 378.52,-164.81"/>
<polygon fill="#cdc8b1" stroke="#cdc8b1" points="375.98,-167.23 385.64,-171.57 380.79,-162.15 375.98,-167.23"/>
</g>
<!-- Wandering_Idle -->
<g id="node9" class="node">
<title>Wandering_Idle</title>
<polygon fill="none" stroke="black" points="206,-507.88 64.75,-507.88 64.75,-471.88 206,-471.88 206,-507.88"/>
<text text-anchor="middle" x="135.38" y="-484.45" font-family="Helvetica,sans-Serif" font-size="14.00">Wandering_Idle (Init)</text>
</g>
<!-- Level Once Sensor -->
<g id="node10" class="node">
<title>Level Once Sensor</title>
<polygon fill="none" stroke="black" points="201.12,-561.88 69.62,-561.88 69.62,-525.88 201.12,-525.88 201.12,-561.88"/>
<text text-anchor="middle" x="135.38" y="-538.45" font-family="Helvetica,sans-Serif" font-size="14.00">Level Once Sensor</text>
</g>
<!-- Level Once Sensor_linked -->
<g id="node11" class="node">
<title>Level Once Sensor_linked</title>
<polygon fill="none" stroke="black" stroke-dasharray="1,5" points="434.23,-561.88 378.02,-561.88 378.02,-525.88 434.23,-525.88 434.23,-561.88"/>
<text text-anchor="start" x="383.62" y="-538.45" font-family="Helvetica,sans-Serif" font-size="14.00">Attack &#160;</text>
</g>
<!-- Level Once Sensor&#45;&gt;Level Once Sensor_linked -->
<g id="edge7" class="edge">
<title>Level Once Sensor&#45;&gt;Level Once Sensor_linked</title>
<path fill="none" stroke="#66cdaa" d="M201.43,-543.88C252.98,-543.88 323.26,-543.88 366.35,-543.88"/>
<polygon fill="#66cdaa" stroke="#66cdaa" points="366.23,-547.38 376.23,-543.88 366.23,-540.38 366.23,-547.38"/>
<text text-anchor="middle" x="305.38" y="-546.33" font-family="Helvetica,sans-Serif" font-size="14.00" fill="#66cdaa">QueueEnd</text>
</g>
<!-- Level Once Sensor_mustuse -->
<g id="node12" class="node">
<title>Level Once Sensor_mustuse</title>
<polygon fill="none" stroke="black" stroke-dasharray="1,5" points="456.25,-615.88 356,-615.88 356,-579.88 456.25,-579.88 456.25,-615.88"/>
<text text-anchor="start" x="366" y="-592.45" font-family="Helvetica,sans-Serif" font-size="14.00">1 Undefined &#160;</text>
</g>
<!-- Level Once Sensor&#45;&gt;Level Once Sensor_mustuse -->
<g id="edge8" class="edge">
<title>Level Once Sensor&#45;&gt;Level Once Sensor_mustuse</title>
<path fill="none" stroke="#458b74" d="M201.43,-556.95C245.07,-565.71 302.13,-577.18 344.76,-585.75"/>
<polygon fill="#458b74" stroke="#458b74" points="343.84,-589.13 354.34,-587.67 345.22,-582.27 343.84,-589.13"/>
<text text-anchor="middle" x="305.38" y="-585.84" font-family="Helvetica,sans-Serif" font-size="14.00" fill="#458b74">Weight</text>
</g>
<!-- RunAwaySensor -->
<g id="node13" class="node">
<title>RunAwaySensor</title>
<polygon fill="none" stroke="black" points="24,-605.88 24,-627.62 246.75,-627.62 246.75,-605.88 24,-605.88"/>
<text text-anchor="start" x="81.38" y="-611.33" font-family="Helvetica,sans-Serif" font-size="14.00">RunAwaySensor &#160;</text>
<polygon fill="none" stroke="black" points="24,-584.12 24,-605.88 246.75,-605.88 246.75,-584.12 24,-584.12"/>
<text text-anchor="start" x="27" y="-590.58" font-family="Helvetica,sans-Serif" font-size="12.00" fill="#838b8b">if not: [Condition] Not HitWall or On Cliff</text>
<text text-anchor="start" x="236.25" y="-590.58" font-family="Helvetica,sans-Serif" font-size="14.00"> &#160;</text>
</g>
<!-- RunAwaySensor_linked -->
<g id="node14" class="node">
<title>RunAwaySensor_linked</title>
<polygon fill="none" stroke="black" stroke-dasharray="1,5" points="444.35,-669.88 367.9,-669.88 367.9,-633.88 444.35,-633.88 444.35,-669.88"/>
<text text-anchor="start" x="373.5" y="-646.45" font-family="Helvetica,sans-Serif" font-size="14.00">RunAway &#160;</text>
</g>
<!-- RunAwaySensor&#45;&gt;RunAwaySensor_linked -->
<g id="edge9" class="edge">
<title>RunAwaySensor&#45;&gt;RunAwaySensor_linked</title>
<path fill="none" stroke="#66cdaa" d="M254.64,-626.12C290.41,-632.24 327.73,-638.63 356.25,-643.51"/>
<polygon fill="#66cdaa" stroke="#66cdaa" points="355.57,-646.94 366.02,-645.18 356.76,-640.05 355.57,-646.94"/>
<text text-anchor="middle" x="305.38" y="-641.99" font-family="Helvetica,sans-Serif" font-size="14.00" fill="#66cdaa">QueueEnd</text>
</g>
<!-- AttackSensor -->
<g id="node15" class="node">
<title>AttackSensor</title>
<polygon fill="none" stroke="black" points="183.5,-685.88 87.25,-685.88 87.25,-649.88 183.5,-649.88 183.5,-685.88"/>
<text text-anchor="middle" x="135.38" y="-662.45" font-family="Helvetica,sans-Serif" font-size="14.00">AttackSensor</text>
</g>
<!-- AttackSensor_linked -->
<g id="node16" class="node">
<title>AttackSensor_linked</title>
<polygon fill="none" stroke="black" stroke-dasharray="1,5" points="434.23,-723.88 378.02,-723.88 378.02,-687.88 434.23,-687.88 434.23,-723.88"/>
<text text-anchor="start" x="383.62" y="-700.45" font-family="Helvetica,sans-Serif" font-size="14.00">Attack &#160;</text>
</g>
<!-- AttackSensor&#45;&gt;AttackSensor_linked -->
<g id="edge10" class="edge">
<title>AttackSensor&#45;&gt;AttackSensor_linked</title>
<path fill="none" stroke="#66cdaa" d="M183.8,-674.58C235.87,-681.94 318.45,-693.62 366.65,-700.44"/>
<polygon fill="#66cdaa" stroke="#66cdaa" points="365.95,-703.87 376.34,-701.81 366.93,-696.94 365.95,-703.87"/>
<text text-anchor="middle" x="305.38" y="-698.13" font-family="Helvetica,sans-Serif" font-size="14.00" fill="#66cdaa">QueueEnd</text>
</g>
<!-- DodgePredictSensor -->
<g id="node17" class="node">
<title>DodgePredictSensor</title>
<polygon fill="none" stroke="black" points="66.38,-729.88 66.38,-751.62 204.38,-751.62 204.38,-729.88 66.38,-729.88"/>
<text text-anchor="start" x="69.38" y="-735.33" font-family="Helvetica,sans-Serif" font-size="14.00">DodgePredictSensor &#160;</text>
<polygon fill="none" stroke="black" points="66.38,-708.12 66.38,-729.88 204.38,-729.88 204.38,-708.12 66.38,-708.12"/>
<text text-anchor="start" x="69.38" y="-714.58" font-family="Helvetica,sans-Serif" font-size="12.00" fill="#838b8b">if: Dodge</text>
<text text-anchor="start" x="117.38" y="-714.58" font-family="Helvetica,sans-Serif" font-size="14.00"> &#160;</text>
</g>
<!-- DodgePredictSensor_linked -->
<g id="node18" class="node">
<title>DodgePredictSensor_linked</title>
<polygon fill="none" stroke="black" stroke-dasharray="1,5" points="434.23,-777.88 378.02,-777.88 378.02,-741.88 434.23,-741.88 434.23,-777.88"/>
<text text-anchor="start" x="383.62" y="-754.45" font-family="Helvetica,sans-Serif" font-size="14.00">Attack &#160;</text>
</g>
<!-- DodgePredictSensor&#45;&gt;DodgePredictSensor_linked -->
<g id="edge11" class="edge">
<title>DodgePredictSensor&#45;&gt;DodgePredictSensor_linked</title>
<path fill="none" stroke="#66cdaa" d="M212.31,-738.35C262.5,-743.95 326.19,-751.06 366.32,-755.54"/>
<polygon fill="#66cdaa" stroke="#66cdaa" points="365.89,-759.02 376.22,-756.65 366.67,-752.06 365.89,-759.02"/>
<text text-anchor="middle" x="305.38" y="-754.28" font-family="Helvetica,sans-Serif" font-size="14.00" fill="#66cdaa">QueueEnd</text>
</g>
<!-- AttackPredictSensor -->
<g id="node19" class="node">
<title>AttackPredictSensor</title>
<polygon fill="none" stroke="black" points="67.5,-799.88 67.5,-821.62 203.25,-821.62 203.25,-799.88 67.5,-799.88"/>
<text text-anchor="start" x="70.5" y="-805.33" font-family="Helvetica,sans-Serif" font-size="14.00">AttackPredictSensor &#160;</text>
<polygon fill="none" stroke="black" points="67.5,-778.12 67.5,-799.88 203.25,-799.88 203.25,-778.12 67.5,-778.12"/>
<text text-anchor="start" x="70.5" y="-784.58" font-family="Helvetica,sans-Serif" font-size="12.00" fill="#838b8b">if: Attack</text>
<text text-anchor="start" x="115.5" y="-784.58" font-family="Helvetica,sans-Serif" font-size="14.00"> &#160;</text>
</g>
<!-- AttackPredictSensor_linked -->
<g id="node20" class="node">
<title>AttackPredictSensor_linked</title>
<polygon fill="none" stroke="black" stroke-dasharray="1,5" points="434.23,-831.88 378.02,-831.88 378.02,-795.88 434.23,-795.88 434.23,-831.88"/>
<text text-anchor="start" x="383.62" y="-808.45" font-family="Helvetica,sans-Serif" font-size="14.00">Attack &#160;</text>
</g>
<!-- AttackPredictSensor&#45;&gt;AttackPredictSensor_linked -->
<g id="edge12" class="edge">
<title>AttackPredictSensor&#45;&gt;AttackPredictSensor_linked</title>
<path fill="none" stroke="#66cdaa" d="M211.24,-803.77C261.59,-806.4 325.93,-809.75 366.34,-811.85"/>
<polygon fill="#66cdaa" stroke="#66cdaa" points="366.14,-815.35 376.31,-812.37 366.5,-808.36 366.14,-815.35"/>
<text text-anchor="middle" x="305.38" y="-812.57" font-family="Helvetica,sans-Serif" font-size="14.00" fill="#66cdaa">QueueEnd</text>
</g>
<!-- AttackRunToSensor -->
<g id="node21" class="node">
<title>AttackRunToSensor</title>
<polygon fill="none" stroke="black" points="69,-869.88 69,-891.62 201.75,-891.62 201.75,-869.88 69,-869.88"/>
<text text-anchor="start" x="72" y="-875.33" font-family="Helvetica,sans-Serif" font-size="14.00">AttackRunToSensor &#160;</text>
<polygon fill="none" stroke="black" points="69,-848.12 69,-869.88 201.75,-869.88 201.75,-848.12 69,-848.12"/>
<text text-anchor="start" x="72" y="-854.58" font-family="Helvetica,sans-Serif" font-size="12.00" fill="#838b8b">if: state is Engaging</text>
<text text-anchor="start" x="176.25" y="-854.58" font-family="Helvetica,sans-Serif" font-size="14.00"> &#160;</text>
</g>
<!-- AttackRunToSensor_linked -->
<g id="node22" class="node">
<title>AttackRunToSensor_linked</title>
<polygon fill="none" stroke="black" stroke-dasharray="1,5" points="434.23,-887.88 378.02,-887.88 378.02,-851.88 434.23,-851.88 434.23,-887.88"/>
<text text-anchor="start" x="383.62" y="-864.45" font-family="Helvetica,sans-Serif" font-size="14.00">Attack &#160;</text>
</g>
<!-- AttackRunToSensor&#45;&gt;AttackRunToSensor_linked -->
<g id="edge13" class="edge">
<title>AttackRunToSensor&#45;&gt;AttackRunToSensor_linked</title>
<path fill="none" stroke="#66cdaa" d="M209.46,-869.88C260.1,-869.88 325.53,-869.88 366.42,-869.88"/>
<polygon fill="#66cdaa" stroke="#66cdaa" points="366.26,-873.38 376.26,-869.88 366.26,-866.38 366.26,-873.38"/>
<text text-anchor="middle" x="305.38" y="-872.33" font-family="Helvetica,sans-Serif" font-size="14.00" fill="#66cdaa">QueueEnd</text>
</g>
<!-- ShootSensor -->
<g id="node23" class="node">
<title>ShootSensor</title>
<polygon fill="none" stroke="black" points="182.38,-949.88 88.38,-949.88 88.38,-913.88 182.38,-913.88 182.38,-949.88"/>
<text text-anchor="middle" x="135.38" y="-926.45" font-family="Helvetica,sans-Serif" font-size="14.00">ShootSensor</text>
</g>
<!-- ShootSensor_linked -->
<g id="node24" class="node">
<title>ShootSensor_linked</title>
<polygon fill="none" stroke="black" stroke-dasharray="1,5" points="433.12,-949.88 379.12,-949.88 379.12,-913.88 433.12,-913.88 433.12,-949.88"/>
<text text-anchor="start" x="384.75" y="-926.45" font-family="Helvetica,sans-Serif" font-size="14.00">Shoot &#160;</text>
</g>
<!-- ShootSensor&#45;&gt;ShootSensor_linked -->
<g id="edge14" class="edge">
<title>ShootSensor&#45;&gt;ShootSensor_linked</title>
<path fill="none" stroke="#66cdaa" d="M182.57,-931.88C234.84,-931.88 318.98,-931.88 367.45,-931.88"/>
<polygon fill="#66cdaa" stroke="#66cdaa" points="367.15,-935.38 377.15,-931.88 367.15,-928.38 367.15,-935.38"/>
<text text-anchor="middle" x="305.38" y="-934.33" font-family="Helvetica,sans-Serif" font-size="14.00" fill="#66cdaa">QueueEnd</text>
</g>
</g>
</svg>
