<?xml version="1.0" encoding="UTF-8" standalone="no"?>
<!DOCTYPE svg PUBLIC "-//W3C//DTD SVG 1.1//EN"
 "http://www.w3.org/Graphics/SVG/1.1/DTD/svg11.dtd">
<!-- Generated by graphviz version 12.2.1 (20241206.2353)
 -->
<!-- Title: Foo Pages: 1 -->
<svg width="464pt" height="1076pt"
 viewBox="0.00 0.00 463.50 1076.00" xmlns="http://www.w3.org/2000/svg" xmlns:xlink="http://www.w3.org/1999/xlink">
<g id="graph0" class="graph" transform="scale(1 1) rotate(0) translate(4 1072)">
<title>Foo</title>
<polygon fill="white" stroke="none" points="-4,4 -4,-1072 459.5,-1072 459.5,4 -4,4"/>
<g id="clust1" class="cluster">
<title>cluster_attacksensors</title>
<polygon fill="none" stroke="black" points="13.38,-8 13.38,-456 447.5,-456 447.5,-8 13.38,-8"/>
<text text-anchor="middle" x="230.44" y="-438.7" font-family="Helvetica,sans-Serif" font-size="14.00">Attack Sensors</text>
</g>
<!-- Level Once Sensor -->
<g id="node1" class="node">
<title>Level Once Sensor</title>
<polygon fill="none" stroke="black" points="33.88,-23.12 33.88,-44.88 162.88,-44.88 162.88,-23.12 33.88,-23.12"/>
<text text-anchor="start" x="36.88" y="-28.57" font-family="Helvetica,sans-Serif" font-size="14.00">Level Once Sensor &#160;</text>
</g>
<!-- Level Once Sensor_linked -->
<g id="node2" class="node">
<title>Level Once Sensor_linked</title>
<polygon fill="none" stroke="black" stroke-dasharray="1,5" points="429.48,-52 308.02,-52 308.02,-16 429.48,-16 429.48,-52"/>
<text text-anchor="start" x="313.62" y="-28.57" font-family="Helvetica,sans-Serif" font-size="14.00">Heavy Forward 2 &#160;</text>
</g>
<!-- Level Once Sensor&#45;&gt;Level Once Sensor_linked -->
<g id="edge1" class="edge">
<title>Level Once Sensor&#45;&gt;Level Once Sensor_linked</title>
<path fill="none" stroke="#66cdaa" d="M170.59,-34C209.37,-34 257.23,-34 296.09,-34"/>
<polygon fill="#66cdaa" stroke="#66cdaa" points="296.06,-37.5 306.06,-34 296.06,-30.5 296.06,-37.5"/>
<text text-anchor="middle" x="247.38" y="-36.45" font-family="Helvetica,sans-Serif" font-size="14.00" fill="#66cdaa">QueueEnd</text>
</g>
<!-- Level Once Sensor_weight -->
<g id="node3" class="node">
<title>Level Once Sensor_weight</title>
<polygon fill="none" stroke="black" stroke-dasharray="1,5" points="439.5,-106 298,-106 298,-70 439.5,-70 439.5,-106"/>
<text text-anchor="start" x="308" y="-82.58" font-family="Helvetica,sans-Serif" font-size="14.00">1 Heavy Forward 2 &#160;</text>
</g>
<!-- Level Once Sensor&#45;&gt;Level Once Sensor_weight -->
<g id="edge2" class="edge">
<title>Level Once Sensor&#45;&gt;Level Once Sensor_weight</title>
<path fill="none" stroke="#458b74" d="M170.59,-48.33C206.19,-55.49 249.45,-64.2 286.36,-71.62"/>
<polygon fill="#458b74" stroke="#458b74" points="285.62,-75.04 296.11,-73.59 287,-68.18 285.62,-75.04"/>
<text text-anchor="middle" x="247.38" y="-71.44" font-family="Helvetica,sans-Serif" font-size="14.00" fill="#458b74">Weight</text>
</g>
<!-- RunAwaySensor -->
<g id="node4" class="node">
<title>RunAwaySensor</title>
<polygon fill="none" stroke="black" points="41.38,-77.12 41.38,-98.88 155.38,-98.88 155.38,-77.12 41.38,-77.12"/>
<text text-anchor="start" x="44.38" y="-82.58" font-family="Helvetica,sans-Serif" font-size="14.00">RunAwaySensor &#160;</text>
</g>
<!-- RunAwaySensor_linked -->
<g id="node5" class="node">
<title>RunAwaySensor_linked</title>
<polygon fill="none" stroke="black" stroke-dasharray="1,5" points="429.48,-160 308.02,-160 308.02,-124 429.48,-124 429.48,-160"/>
<text text-anchor="start" x="313.62" y="-136.57" font-family="Helvetica,sans-Serif" font-size="14.00">Heavy Forward 2 &#160;</text>
</g>
<!-- RunAwaySensor&#45;&gt;RunAwaySensor_linked -->
<g id="edge3" class="edge">
<title>RunAwaySensor&#45;&gt;RunAwaySensor_linked</title>
<path fill="none" stroke="#66cdaa" d="M163.32,-100.87C203.51,-108.95 255.41,-119.4 296.86,-127.74"/>
<polygon fill="#66cdaa" stroke="#66cdaa" points="296,-131.13 306.49,-129.67 297.38,-124.27 296,-131.13"/>
<text text-anchor="middle" x="247.38" y="-125.44" font-family="Helvetica,sans-Serif" font-size="14.00" fill="#66cdaa">QueueEnd</text>
</g>
<!-- AttackSensor -->
<g id="node6" class="node">
<title>AttackSensor</title>
<polygon fill="none" stroke="black" points="51.5,-131.12 51.5,-152.88 145.25,-152.88 145.25,-131.12 51.5,-131.12"/>
<text text-anchor="start" x="54.5" y="-136.57" font-family="Helvetica,sans-Serif" font-size="14.00">AttackSensor &#160;</text>
</g>
<!-- AttackSensor_linked -->
<g id="node7" class="node">
<title>AttackSensor_linked</title>
<polygon fill="none" stroke="black" stroke-dasharray="1,5" points="429.48,-224.35 308.02,-224.35 308.02,-177.65 429.48,-177.65 429.48,-224.35"/>
<text text-anchor="start" x="326.75" y="-205.45" font-family="Helvetica,sans-Serif" font-size="14.00">DoubleSlash &#160;</text>
<text text-anchor="start" x="313.62" y="-185.7" font-family="Helvetica,sans-Serif" font-size="14.00">Heavy Forward 2 &#160;</text>
</g>
<!-- AttackSensor&#45;&gt;AttackSensor_linked -->
<g id="edge4" class="edge">
<title>AttackSensor&#45;&gt;AttackSensor_linked</title>
<path fill="none" stroke="#66cdaa" d="M153.04,-153.8C194.22,-162.85 251.45,-175.43 296.47,-185.33"/>
<polygon fill="#66cdaa" stroke="#66cdaa" points="295.63,-188.73 306.15,-187.46 297.14,-181.89 295.63,-188.73"/>
<text text-anchor="middle" x="247.38" y="-182.68" font-family="Helvetica,sans-Serif" font-size="14.00" fill="#66cdaa">QueueEnd</text>
</g>
<!-- DodgePredictSensor -->
<g id="node8" class="node">
<title>DodgePredictSensor</title>
<polygon fill="none" stroke="black" points="29.38,-204 29.38,-225.75 167.38,-225.75 167.38,-204 29.38,-204"/>
<text text-anchor="start" x="32.38" y="-209.45" font-family="Helvetica,sans-Serif" font-size="14.00">DodgePredictSensor &#160;</text>
<polygon fill="none" stroke="black" points="29.38,-182.25 29.38,-204 167.38,-204 167.38,-182.25 29.38,-182.25"/>
<text text-anchor="start" x="32.38" y="-188.7" font-family="Helvetica,sans-Serif" font-size="12.00" fill="#838b8b">if: rollingCondition</text>
<text text-anchor="start" x="129.12" y="-188.7" font-family="Helvetica,sans-Serif" font-size="14.00"> &#160;</text>
</g>
<!-- DodgePredictSensor_linked -->
<g id="node9" class="node">
<title>DodgePredictSensor_linked</title>
<polygon fill="none" stroke="black" stroke-dasharray="1,5" points="429.48,-278 308.02,-278 308.02,-242 429.48,-242 429.48,-278"/>
<text text-anchor="start" x="313.62" y="-254.57" font-family="Helvetica,sans-Serif" font-size="14.00">Heavy Forward 2 &#160;</text>
</g>
<!-- DodgePredictSensor&#45;&gt;DodgePredictSensor_linked -->
<g id="edge5" class="edge">
<title>DodgePredictSensor&#45;&gt;DodgePredictSensor_linked</title>
<path fill="none" stroke="#66cdaa" d="M175.2,-219.82C213.44,-227.8 259.52,-237.42 297.01,-245.24"/>
<polygon fill="#66cdaa" stroke="#66cdaa" points="295.86,-248.58 306.37,-247.19 297.29,-241.72 295.86,-248.58"/>
<text text-anchor="middle" x="247.38" y="-242.74" font-family="Helvetica,sans-Serif" font-size="14.00" fill="#66cdaa">QueueEnd</text>
</g>
<!-- AttackPredictSensor -->
<g id="node10" class="node">
<title>AttackPredictSensor</title>
<polygon fill="none" stroke="black" points="30.5,-274 30.5,-295.75 166.25,-295.75 166.25,-274 30.5,-274"/>
<text text-anchor="start" x="33.5" y="-279.45" font-family="Helvetica,sans-Serif" font-size="14.00">AttackPredictSensor &#160;</text>
<polygon fill="none" stroke="black" points="30.5,-252.25 30.5,-274 166.25,-274 166.25,-252.25 30.5,-252.25"/>
<text text-anchor="start" x="33.5" y="-258.7" font-family="Helvetica,sans-Serif" font-size="12.00" fill="#838b8b">if: attackCondition</text>
<text text-anchor="start" x="128.75" y="-258.7" font-family="Helvetica,sans-Serif" font-size="14.00"> &#160;</text>
</g>
<!-- AttackPredictSensor_linked -->
<g id="node11" class="node">
<title>AttackPredictSensor_linked</title>
<polygon fill="none" stroke="black" stroke-dasharray="1,5" points="429.48,-332 308.02,-332 308.02,-296 429.48,-296 429.48,-332"/>
<text text-anchor="start" x="313.62" y="-308.57" font-family="Helvetica,sans-Serif" font-size="14.00">Heavy Forward 2 &#160;</text>
</g>
<!-- AttackPredictSensor&#45;&gt;AttackPredictSensor_linked -->
<g id="edge6" class="edge">
<title>AttackPredictSensor&#45;&gt;AttackPredictSensor_linked</title>
<path fill="none" stroke="#66cdaa" d="M174.13,-285.14C212.53,-290.87 259.06,-297.8 296.88,-303.44"/>
<polygon fill="#66cdaa" stroke="#66cdaa" points="295.91,-306.83 306.32,-304.84 296.94,-299.91 295.91,-306.83"/>
<text text-anchor="middle" x="247.38" y="-302.37" font-family="Helvetica,sans-Serif" font-size="14.00" fill="#66cdaa">QueueEnd</text>
</g>
<!-- AttackRunToSensor -->
<g id="node12" class="node">
<title>AttackRunToSensor</title>
<polygon fill="none" stroke="black" points="32,-344 32,-365.75 164.75,-365.75 164.75,-344 32,-344"/>
<text text-anchor="start" x="35" y="-349.45" font-family="Helvetica,sans-Serif" font-size="14.00">AttackRunToSensor &#160;</text>
<polygon fill="none" stroke="black" points="32,-322.25 32,-344 164.75,-344 164.75,-322.25 32,-322.25"/>
<text text-anchor="start" x="35" y="-328.7" font-family="Helvetica,sans-Serif" font-size="12.00" fill="#838b8b">if: state is Engaging</text>
<text text-anchor="start" x="139.25" y="-328.7" font-family="Helvetica,sans-Serif" font-size="14.00"> &#160;</text>
</g>
<!-- AttackRunToSensor_linked -->
<g id="node13" class="node">
<title>AttackRunToSensor_linked</title>
<polygon fill="none" stroke="black" stroke-dasharray="1,5" points="429.48,-386 308.02,-386 308.02,-350 429.48,-350 429.48,-386"/>
<text text-anchor="start" x="313.62" y="-362.57" font-family="Helvetica,sans-Serif" font-size="14.00">Heavy Forward 2 &#160;</text>
</g>
<!-- AttackRunToSensor&#45;&gt;AttackRunToSensor_linked -->
<g id="edge7" class="edge">
<title>AttackRunToSensor&#45;&gt;AttackRunToSensor_linked</title>
<path fill="none" stroke="#66cdaa" d="M172.71,-350.56C211.27,-354.01 258.34,-358.22 296.58,-361.64"/>
<polygon fill="#66cdaa" stroke="#66cdaa" points="295.85,-365.08 306.12,-362.49 296.47,-358.11 295.85,-365.08"/>
<text text-anchor="middle" x="247.38" y="-362" font-family="Helvetica,sans-Serif" font-size="14.00" fill="#66cdaa">QueueEnd</text>
</g>
<!-- DodgeAttackSensor -->
<g id="node14" class="node">
<title>DodgeAttackSensor</title>
<polygon fill="none" stroke="black" points="31.62,-395.12 31.62,-416.88 165.12,-416.88 165.12,-395.12 31.62,-395.12"/>
<text text-anchor="start" x="34.62" y="-400.57" font-family="Helvetica,sans-Serif" font-size="14.00">DodgeAttackSensor &#160;</text>
</g>
<!-- Heavy Forward 2 -->
<g id="node15" class="node">
<title>Heavy Forward 2</title>
<polygon fill="none" stroke="black" points="39.5,-778.12 39.5,-799.88 157.25,-799.88 157.25,-778.12 39.5,-778.12"/>
<text text-anchor="start" x="43.25" y="-783.58" font-family="Helvetica,sans-Serif" font-size="14.00">Heavy Forward 2 &#160;</text>
<polygon fill="none" stroke="black" points="39.5,-734.12 39.5,-778.12 157.25,-778.12 157.25,-734.12 39.5,-734.12"/>
<text text-anchor="start" x="42.5" y="-764.73" font-family="Helvetica,sans-Serif" font-size="12.00" fill="#838b8b">1.40s: CheckFacing</text>
<text text-anchor="start" x="42.5" y="-752.73" font-family="Helvetica,sans-Serif" font-size="12.00" fill="#838b8b">4.00s: LinkNextMove</text>
<text text-anchor="start" x="42.5" y="-738.83" font-family="Helvetica,sans-Serif" font-size="12.00" fill="#838b8b">4.07s: Done</text>
<text text-anchor="start" x="107" y="-738.83" font-family="Helvetica,sans-Serif" font-size="14.00"> &#160;</text>
</g>
<!-- Engaging -->
<g id="node16" class="node">
<title>Engaging</title>
<polygon fill="none" stroke="black" points="405.25,-661 332.25,-661 332.25,-625 405.25,-625 405.25,-661"/>
<text text-anchor="middle" x="368.75" y="-637.58" font-family="Helvetica,sans-Serif" font-size="14.00">Engaging</text>
</g>
<!-- Heavy Forward 2&#45;&gt;Engaging -->
<g id="edge8" class="edge">
<title>Heavy Forward 2&#45;&gt;Engaging</title>
<path fill="none" stroke="#cdc8b1" d="M165.03,-736.67C213.63,-714.21 278.62,-684.18 321.77,-664.25"/>
<polygon fill="#cdc8b1" stroke="#cdc8b1" points="322.99,-667.54 330.6,-660.16 320.05,-661.18 322.99,-667.54"/>
</g>
<!-- Heavy Forward 2_linked -->
<g id="node17" class="node">
<title>Heavy Forward 2_linked</title>
<polygon fill="none" stroke="black" stroke-dasharray="1,5" points="411.85,-785 325.65,-785 325.65,-749 411.85,-749 411.85,-785"/>
<text text-anchor="start" x="331.25" y="-761.58" font-family="Helvetica,sans-Serif" font-size="14.00">JumpSlash &#160;</text>
</g>
<!-- Heavy Forward 2&#45;&gt;Heavy Forward 2_linked -->
<g id="edge9" class="edge">
<title>Heavy Forward 2&#45;&gt;Heavy Forward 2_linked</title>
<path fill="none" stroke="#66cdaa" d="M165.03,-767C210.8,-767 271.11,-767 314.02,-767"/>
<polygon fill="#66cdaa" stroke="#66cdaa" points="313.85,-770.5 323.85,-767 313.85,-763.5 313.85,-770.5"/>
<text text-anchor="middle" x="247.38" y="-769.45" font-family="Helvetica,sans-Serif" font-size="14.00" fill="#66cdaa">QueueEnd</text>
</g>
<!-- DoubleSlash -->
<g id="node18" class="node">
<title>DoubleSlash</title>
<polygon fill="none" stroke="black" points="8,-536.12 8,-557.88 188.75,-557.88 188.75,-536.12 8,-536.12"/>
<text text-anchor="start" x="56.38" y="-541.58" font-family="Helvetica,sans-Serif" font-size="14.00">DoubleSlash &#160;</text>
<polygon fill="none" stroke="black" points="8,-468.12 8,-536.12 188.75,-536.12 188.75,-468.12 8,-468.12"/>
<text text-anchor="start" x="11" y="-522.73" font-family="Helvetica,sans-Serif" font-size="12.00" fill="#838b8b">1.50s: CheckFacing</text>
<text text-anchor="start" x="11" y="-510.73" font-family="Helvetica,sans-Serif" font-size="12.00" fill="#838b8b">1.55s: InterruptFacing_TargetLeft</text>
<text text-anchor="start" x="11" y="-498.73" font-family="Helvetica,sans-Serif" font-size="12.00" fill="#838b8b">2.32s: CheckFacing</text>
<text text-anchor="start" x="11" y="-486.73" font-family="Helvetica,sans-Serif" font-size="12.00" fill="#838b8b">3.50s: LinkNextMove</text>
<text text-anchor="start" x="11" y="-472.83" font-family="Helvetica,sans-Serif" font-size="12.00" fill="#838b8b">3.58s: Done</text>
<text text-anchor="start" x="75.5" y="-472.83" font-family="Helvetica,sans-Serif" font-size="14.00"> &#160;</text>
</g>
<!-- DoubleSlash&#45;&gt;Engaging -->
<g id="edge10" class="edge">
<title>DoubleSlash&#45;&gt;Engaging</title>
<path fill="none" stroke="#cdc8b1" d="M196.64,-560.12C239.33,-580.79 287.42,-604.09 321.73,-620.71"/>
<polygon fill="#cdc8b1" stroke="#cdc8b1" points="320.02,-623.77 330.54,-624.98 323.07,-617.47 320.02,-623.77"/>
</g>
<!-- DoubleSlash_linked -->
<g id="node19" class="node">
<title>DoubleSlash_linked</title>
<polygon fill="none" stroke="black" stroke-dasharray="1,5" points="411.85,-531 325.65,-531 325.65,-495 411.85,-495 411.85,-531"/>
<text text-anchor="start" x="331.25" y="-507.57" font-family="Helvetica,sans-Serif" font-size="14.00">JumpSlash &#160;</text>
</g>
<!-- DoubleSlash&#45;&gt;DoubleSlash_linked -->
<g id="edge11" class="edge">
<title>DoubleSlash&#45;&gt;DoubleSlash_linked</title>
<path fill="none" stroke="#66cdaa" d="M196.64,-513C236.23,-513 280.46,-513 314.04,-513"/>
<polygon fill="#66cdaa" stroke="#66cdaa" points="313.93,-516.5 323.93,-513 313.93,-509.5 313.93,-516.5"/>
<text text-anchor="middle" x="247.38" y="-515.45" font-family="Helvetica,sans-Serif" font-size="14.00" fill="#66cdaa">QueueEnd</text>
</g>
<!-- JumpSlash -->
<g id="node20" class="node">
<title>JumpSlash</title>
<polygon fill="none" stroke="black" points="57.88,-606 57.88,-627.75 138.88,-627.75 138.88,-606 57.88,-606"/>
<text text-anchor="start" x="60.88" y="-611.45" font-family="Helvetica,sans-Serif" font-size="14.00">JumpSlash &#160;</text>
<polygon fill="none" stroke="black" points="57.88,-584.25 57.88,-606 138.88,-606 138.88,-584.25 57.88,-584.25"/>
<text text-anchor="start" x="60.88" y="-590.7" font-family="Helvetica,sans-Serif" font-size="12.00" fill="#838b8b">2.65s: Done</text>
<text text-anchor="start" x="125.38" y="-590.7" font-family="Helvetica,sans-Serif" font-size="14.00"> &#160;</text>
</g>
<!-- JumpSlash&#45;&gt;Engaging -->
<g id="edge12" class="edge">
<title>JumpSlash&#45;&gt;Engaging</title>
<path fill="none" stroke="#cdc8b1" d="M146.74,-612.53C195.77,-619.29 271.92,-629.79 320.8,-636.53"/>
<polygon fill="#cdc8b1" stroke="#cdc8b1" points="320.12,-639.97 330.51,-637.87 321.08,-633.03 320.12,-639.97"/>
</g>
<!-- AttackParrying -->
<g id="node21" class="node">
<title>AttackParrying</title>
<polygon fill="none" stroke="black" points="39.88,-686.12 39.88,-707.88 156.88,-707.88 156.88,-686.12 39.88,-686.12"/>
<text text-anchor="start" x="50.75" y="-691.58" font-family="Helvetica,sans-Serif" font-size="14.00">AttackParrying &#160;</text>
<polygon fill="none" stroke="black" points="39.88,-654.12 39.88,-686.12 156.88,-686.12 156.88,-654.12 39.88,-654.12"/>
<text text-anchor="start" x="42.88" y="-672.73" font-family="Helvetica,sans-Serif" font-size="12.00" fill="#838b8b">0.00s: EnableGravity</text>
<text text-anchor="start" x="42.88" y="-658.83" font-family="Helvetica,sans-Serif" font-size="12.00" fill="#838b8b">1.77s: Done</text>
<text text-anchor="start" x="107.38" y="-658.83" font-family="Helvetica,sans-Serif" font-size="14.00"> &#160;</text>
</g>
<!-- AttackParrying&#45;&gt;Engaging -->
<g id="edge13" class="edge">
<title>AttackParrying&#45;&gt;Engaging</title>
<path fill="none" stroke="#cdc8b1" d="M164.68,-671.75C212.86,-664.93 277.3,-655.81 320.55,-649.68"/>
<polygon fill="#cdc8b1" stroke="#cdc8b1" points="320.97,-653.16 330.38,-648.29 319.99,-646.23 320.97,-653.16"/>
</g>
<!-- HurtState -->
<g id="node22" class="node">
<title>HurtState</title>
<polygon fill="none" stroke="black" points="59.38,-918 59.38,-939.75 137.38,-939.75 137.38,-918 59.38,-918"/>
<text text-anchor="start" x="66.12" y="-923.45" font-family="Helvetica,sans-Serif" font-size="14.00">HurtState &#160;</text>
<polygon fill="none" stroke="black" points="59.38,-896.25 59.38,-918 137.38,-918 137.38,-896.25 59.38,-896.25"/>
<text text-anchor="start" x="62.38" y="-902.7" font-family="Helvetica,sans-Serif" font-size="12.00" fill="#838b8b">0.33s: Done</text>
<text text-anchor="start" x="126.88" y="-902.7" font-family="Helvetica,sans-Serif" font-size="14.00"> &#160;</text>
</g>
<!-- PreAttack -->
<g id="node23" class="node">
<title>PreAttack</title>
<polygon fill="none" stroke="black" points="406,-901 331.5,-901 331.5,-865 406,-865 406,-901"/>
<text text-anchor="middle" x="368.75" y="-877.58" font-family="Helvetica,sans-Serif" font-size="14.00">PreAttack</text>
</g>
<!-- HurtState&#45;&gt;PreAttack -->
<g id="edge14" class="edge">
<title>HurtState&#45;&gt;PreAttack</title>
<path fill="none" stroke="#cdc8b1" d="M145.21,-912.02C193.85,-905.68 270.39,-895.7 319.82,-889.25"/>
<polygon fill="#cdc8b1" stroke="#cdc8b1" points="320.2,-892.73 329.66,-887.97 319.29,-885.79 320.2,-892.73"/>
</g>
<!-- Hurt_BigState -->
<g id="node24" class="node">
<title>Hurt_BigState</title>
<polygon fill="none" stroke="black" points="49.62,-848 49.62,-869.75 147.12,-869.75 147.12,-848 49.62,-848"/>
<text text-anchor="start" x="52.62" y="-853.45" font-family="Helvetica,sans-Serif" font-size="14.00">Hurt_BigState &#160;</text>
<polygon fill="none" stroke="black" points="49.62,-826.25 49.62,-848 147.12,-848 147.12,-826.25 49.62,-826.25"/>
<text text-anchor="start" x="52.62" y="-832.7" font-family="Helvetica,sans-Serif" font-size="12.00" fill="#838b8b">0.25s: Done</text>
<text text-anchor="start" x="117.12" y="-832.7" font-family="Helvetica,sans-Serif" font-size="14.00"> &#160;</text>
</g>
<!-- Hurt_BigState&#45;&gt;PreAttack -->
<g id="edge15" class="edge">
<title>Hurt_BigState&#45;&gt;PreAttack</title>
<path fill="none" stroke="#cdc8b1" d="M154.98,-855.25C203.67,-861.6 273.67,-870.73 319.9,-876.76"/>
<polygon fill="#cdc8b1" stroke="#cdc8b1" points="319.25,-880.2 329.62,-878.03 320.15,-873.26 319.25,-880.2"/>
</g>
<!-- LastHit -->
<g id="node25" class="node">
<title>LastHit</title>
<polygon fill="none" stroke="black" points="59.38,-988 59.38,-1009.75 137.38,-1009.75 137.38,-988 59.38,-988"/>
<text text-anchor="start" x="73.62" y="-993.45" font-family="Helvetica,sans-Serif" font-size="14.00">LastHit &#160;</text>
<polygon fill="none" stroke="black" points="59.38,-966.25 59.38,-988 137.38,-988 137.38,-966.25 59.38,-966.25"/>
<text text-anchor="start" x="62.38" y="-972.7" font-family="Helvetica,sans-Serif" font-size="12.00" fill="#838b8b">0.58s: Done</text>
<text text-anchor="start" x="126.88" y="-972.7" font-family="Helvetica,sans-Serif" font-size="14.00"> &#160;</text>
</g>
<!-- DeadState -->
<g id="node26" class="node">
<title>DeadState</title>
<polygon fill="none" stroke="black" points="408.62,-1006 328.88,-1006 328.88,-970 408.62,-970 408.62,-1006"/>
<text text-anchor="middle" x="368.75" y="-982.58" font-family="Helvetica,sans-Serif" font-size="14.00">DeadState</text>
</g>
<!-- LastHit&#45;&gt;DeadState -->
<g id="edge16" class="edge">
<title>LastHit&#45;&gt;DeadState</title>
<path fill="none" stroke="#cdc8b1" d="M145.21,-988C193.02,-988 267.78,-988 317.27,-988"/>
<polygon fill="#cdc8b1" stroke="#cdc8b1" points="317.14,-991.5 327.14,-988 317.14,-984.5 317.14,-991.5"/>
</g>
<!-- Wandering_Idle -->
<g id="node27" class="node">
<title>Wandering_Idle</title>
<polygon fill="none" stroke="black" points="169,-1068 27.75,-1068 27.75,-1032 169,-1032 169,-1068"/>
<text text-anchor="middle" x="98.38" y="-1044.58" font-family="Helvetica,sans-Serif" font-size="14.00">Wandering_Idle (Init)</text>
</g>
</g>
</svg>
