<?xml version="1.0" encoding="UTF-8" standalone="no"?>
<!DOCTYPE svg PUBLIC "-//W3C//DTD SVG 1.1//EN"
 "http://www.w3.org/Graphics/SVG/1.1/DTD/svg11.dtd">
<!-- Generated by graphviz version 12.2.1 (20241206.2353)
 -->
<!-- Title: Foo Pages: 1 -->
<svg width="371pt" height="750pt"
 viewBox="0.00 0.00 370.75 750.00" xmlns="http://www.w3.org/2000/svg" xmlns:xlink="http://www.w3.org/1999/xlink">
<g id="graph0" class="graph" transform="scale(1 1) rotate(0) translate(4 746)">
<title>Foo</title>
<polygon fill="white" stroke="none" points="-4,4 -4,-746 366.75,-746 366.75,4 -4,4"/>
<g id="clust1" class="cluster">
<title>cluster_attacksensors</title>
<polygon fill="none" stroke="black" points="8,-8 8,-418 354.75,-418 354.75,-8 8,-8"/>
<text text-anchor="middle" x="181.38" y="-400.7" font-family="Helvetica,sans-Serif" font-size="14.00">Attack Sensors</text>
</g>
<!-- Level Once Sensor -->
<g id="node1" class="node">
<title>Level Once Sensor</title>
<polygon fill="none" stroke="black" points="28.5,-23.12 28.5,-44.88 157.5,-44.88 157.5,-23.12 28.5,-23.12"/>
<text text-anchor="start" x="31.5" y="-28.57" font-family="Helvetica,sans-Serif" font-size="14.00">Level Once Sensor &#160;</text>
</g>
<!-- Level Once Sensor_linked -->
<g id="node2" class="node">
<title>Level Once Sensor_linked</title>
<polygon fill="none" stroke="black" stroke-dasharray="1,5" points="337.1,-52 280.9,-52 280.9,-16 337.1,-16 337.1,-52"/>
<text text-anchor="start" x="286.5" y="-28.57" font-family="Helvetica,sans-Serif" font-size="14.00">Attack &#160;</text>
</g>
<!-- Level Once Sensor&#45;&gt;Level Once Sensor_linked -->
<g id="edge1" class="edge">
<title>Level Once Sensor&#45;&gt;Level Once Sensor_linked</title>
<path fill="none" stroke="#66cdaa" d="M165.26,-34C199.99,-34 240.4,-34 269.34,-34"/>
<polygon fill="#66cdaa" stroke="#66cdaa" points="269.09,-37.5 279.09,-34 269.09,-30.5 269.09,-37.5"/>
<text text-anchor="middle" x="220.62" y="-36.45" font-family="Helvetica,sans-Serif" font-size="14.00" fill="#66cdaa">QueueEnd</text>
</g>
<!-- Level Once Sensor_weight -->
<g id="node3" class="node">
<title>Level Once Sensor_weight</title>
<polygon fill="none" stroke="black" stroke-dasharray="1,5" points="346.75,-106 271.25,-106 271.25,-70 346.75,-70 346.75,-106"/>
<text text-anchor="start" x="281.25" y="-82.58" font-family="Helvetica,sans-Serif" font-size="14.00">1 Attack &#160;</text>
</g>
<!-- Level Once Sensor&#45;&gt;Level Once Sensor_weight -->
<g id="edge2" class="edge">
<title>Level Once Sensor&#45;&gt;Level Once Sensor_weight</title>
<path fill="none" stroke="#458b74" d="M165.26,-51.98C196.36,-59.83 232,-68.82 259.9,-75.86"/>
<polygon fill="#458b74" stroke="#458b74" points="258.93,-79.23 269.48,-78.28 260.64,-72.44 258.93,-79.23"/>
<text text-anchor="middle" x="220.62" y="-75.97" font-family="Helvetica,sans-Serif" font-size="14.00" fill="#458b74">Weight</text>
</g>
<!-- RunAwaySensor -->
<g id="node4" class="node">
<title>RunAwaySensor</title>
<polygon fill="none" stroke="black" points="36,-77.12 36,-98.88 150,-98.88 150,-77.12 36,-77.12"/>
<text text-anchor="start" x="39" y="-82.58" font-family="Helvetica,sans-Serif" font-size="14.00">RunAwaySensor &#160;</text>
</g>
<!-- AttackSensor -->
<g id="node5" class="node">
<title>AttackSensor</title>
<polygon fill="none" stroke="black" points="34.12,-150 34.12,-171.75 151.88,-171.75 151.88,-150 34.12,-150"/>
<text text-anchor="start" x="49.12" y="-155.45" font-family="Helvetica,sans-Serif" font-size="14.00">AttackSensor &#160;</text>
<polygon fill="none" stroke="black" points="34.12,-128.25 34.12,-150 151.88,-150 151.88,-128.25 34.12,-128.25"/>
<text text-anchor="start" x="37.12" y="-134.7" font-family="Helvetica,sans-Serif" font-size="12.00" fill="#838b8b">if: state is Engaging</text>
<text text-anchor="start" x="141.38" y="-134.7" font-family="Helvetica,sans-Serif" font-size="14.00"> &#160;</text>
</g>
<!-- AttackSensor_linked -->
<g id="node6" class="node">
<title>AttackSensor_linked</title>
<polygon fill="none" stroke="black" stroke-dasharray="1,5" points="337.1,-160 280.9,-160 280.9,-124 337.1,-124 337.1,-160"/>
<text text-anchor="start" x="286.5" y="-136.57" font-family="Helvetica,sans-Serif" font-size="14.00">Attack &#160;</text>
</g>
<!-- AttackSensor&#45;&gt;AttackSensor_linked -->
<g id="edge3" class="edge">
<title>AttackSensor&#45;&gt;AttackSensor_linked</title>
<path fill="none" stroke="#66cdaa" d="M159.66,-147.55C195.46,-146.21 238.54,-144.6 269.03,-143.46"/>
<polygon fill="#66cdaa" stroke="#66cdaa" points="269.09,-146.96 278.95,-143.09 268.83,-139.96 269.09,-146.96"/>
<text text-anchor="middle" x="220.62" y="-148.93" font-family="Helvetica,sans-Serif" font-size="14.00" fill="#66cdaa">QueueEnd</text>
</g>
<!-- AttackSensor_weight -->
<g id="node7" class="node">
<title>AttackSensor_weight</title>
<polygon fill="none" stroke="black" stroke-dasharray="1,5" points="346.75,-214 271.25,-214 271.25,-178 346.75,-178 346.75,-214"/>
<text text-anchor="start" x="281.25" y="-190.57" font-family="Helvetica,sans-Serif" font-size="14.00">1 Attack &#160;</text>
</g>
<!-- AttackSensor&#45;&gt;AttackSensor_weight -->
<g id="edge4" class="edge">
<title>AttackSensor&#45;&gt;AttackSensor_weight</title>
<path fill="none" stroke="#458b74" d="M159.66,-164.11C192.02,-171.07 230.33,-179.31 259.92,-185.66"/>
<polygon fill="#458b74" stroke="#458b74" points="258.81,-189.01 269.32,-187.69 260.28,-182.16 258.81,-189.01"/>
<text text-anchor="middle" x="220.62" y="-186.11" font-family="Helvetica,sans-Serif" font-size="14.00" fill="#458b74">Weight</text>
</g>
<!-- DodgePredictSensor -->
<g id="node8" class="node">
<title>DodgePredictSensor</title>
<polygon fill="none" stroke="black" points="24,-220 24,-241.75 162,-241.75 162,-220 24,-220"/>
<text text-anchor="start" x="27" y="-225.45" font-family="Helvetica,sans-Serif" font-size="14.00">DodgePredictSensor &#160;</text>
<polygon fill="none" stroke="black" points="24,-198.25 24,-220 162,-220 162,-198.25 24,-198.25"/>
<text text-anchor="start" x="27" y="-204.7" font-family="Helvetica,sans-Serif" font-size="12.00" fill="#838b8b">if: rollingCondition</text>
<text text-anchor="start" x="123.75" y="-204.7" font-family="Helvetica,sans-Serif" font-size="14.00"> &#160;</text>
</g>
<!-- DodgePredictSensor_linked -->
<g id="node9" class="node">
<title>DodgePredictSensor_linked</title>
<polygon fill="none" stroke="black" stroke-dasharray="1,5" points="337.1,-268 280.9,-268 280.9,-232 337.1,-232 337.1,-268"/>
<text text-anchor="start" x="286.5" y="-244.57" font-family="Helvetica,sans-Serif" font-size="14.00">Attack &#160;</text>
</g>
<!-- DodgePredictSensor&#45;&gt;DodgePredictSensor_linked -->
<g id="edge5" class="edge">
<title>DodgePredictSensor&#45;&gt;DodgePredictSensor_linked</title>
<path fill="none" stroke="#66cdaa" d="M169.75,-230.62C203.42,-235.34 241.61,-240.69 269.3,-244.58"/>
<polygon fill="#66cdaa" stroke="#66cdaa" points="268.6,-248.01 278.99,-245.93 269.57,-241.08 268.6,-248.01"/>
<text text-anchor="middle" x="220.62" y="-244.4" font-family="Helvetica,sans-Serif" font-size="14.00" fill="#66cdaa">QueueEnd</text>
</g>
<!-- AttackPredictSensor -->
<g id="node10" class="node">
<title>AttackPredictSensor</title>
<polygon fill="none" stroke="black" points="25.12,-290 25.12,-311.75 160.88,-311.75 160.88,-290 25.12,-290"/>
<text text-anchor="start" x="28.12" y="-295.45" font-family="Helvetica,sans-Serif" font-size="14.00">AttackPredictSensor &#160;</text>
<polygon fill="none" stroke="black" points="25.12,-268.25 25.12,-290 160.88,-290 160.88,-268.25 25.12,-268.25"/>
<text text-anchor="start" x="28.12" y="-274.7" font-family="Helvetica,sans-Serif" font-size="12.00" fill="#838b8b">if: attackCondition</text>
<text text-anchor="start" x="123.38" y="-274.7" font-family="Helvetica,sans-Serif" font-size="14.00"> &#160;</text>
</g>
<!-- AttackPredictSensor_linked -->
<g id="node11" class="node">
<title>AttackPredictSensor_linked</title>
<polygon fill="none" stroke="black" stroke-dasharray="1,5" points="337.1,-322 280.9,-322 280.9,-286 337.1,-286 337.1,-322"/>
<text text-anchor="start" x="286.5" y="-298.57" font-family="Helvetica,sans-Serif" font-size="14.00">Attack &#160;</text>
</g>
<!-- AttackPredictSensor&#45;&gt;AttackPredictSensor_linked -->
<g id="edge6" class="edge">
<title>AttackPredictSensor&#45;&gt;AttackPredictSensor_linked</title>
<path fill="none" stroke="#66cdaa" d="M168.85,-294.9C202.7,-297.11 241.29,-299.64 269.23,-301.46"/>
<polygon fill="#66cdaa" stroke="#66cdaa" points="268.79,-304.94 279,-302.1 269.25,-297.96 268.79,-304.94"/>
<text text-anchor="middle" x="220.62" y="-302.7" font-family="Helvetica,sans-Serif" font-size="14.00" fill="#66cdaa">QueueEnd</text>
</g>
<!-- AttackRunToSensor -->
<g id="node12" class="node">
<title>AttackRunToSensor</title>
<polygon fill="none" stroke="black" points="26.62,-360 26.62,-381.75 159.38,-381.75 159.38,-360 26.62,-360"/>
<text text-anchor="start" x="29.62" y="-365.45" font-family="Helvetica,sans-Serif" font-size="14.00">AttackRunToSensor &#160;</text>
<polygon fill="none" stroke="black" points="26.62,-338.25 26.62,-360 159.38,-360 159.38,-338.25 26.62,-338.25"/>
<text text-anchor="start" x="29.62" y="-344.7" font-family="Helvetica,sans-Serif" font-size="12.00" fill="#838b8b">if: state is Engaging</text>
<text text-anchor="start" x="133.88" y="-344.7" font-family="Helvetica,sans-Serif" font-size="14.00"> &#160;</text>
</g>
<!-- AttackRunToSensor_linked -->
<g id="node13" class="node">
<title>AttackRunToSensor_linked</title>
<polygon fill="none" stroke="black" stroke-dasharray="1,5" points="337.1,-378 280.9,-378 280.9,-342 337.1,-342 337.1,-378"/>
<text text-anchor="start" x="286.5" y="-354.57" font-family="Helvetica,sans-Serif" font-size="14.00">Attack &#160;</text>
</g>
<!-- AttackRunToSensor&#45;&gt;AttackRunToSensor_linked -->
<g id="edge7" class="edge">
<title>AttackRunToSensor&#45;&gt;AttackRunToSensor_linked</title>
<path fill="none" stroke="#66cdaa" d="M167.35,-360C201.54,-360 240.84,-360 269.19,-360"/>
<polygon fill="#66cdaa" stroke="#66cdaa" points="269.11,-363.5 279.11,-360 269.11,-356.5 269.11,-363.5"/>
<text text-anchor="middle" x="220.62" y="-362.45" font-family="Helvetica,sans-Serif" font-size="14.00" fill="#66cdaa">QueueEnd</text>
</g>
<!-- Attack -->
<g id="node14" class="node">
<title>Attack</title>
<polygon fill="none" stroke="black" points="54,-592 54,-613.75 132,-613.75 132,-592 54,-592"/>
<text text-anchor="start" x="70.5" y="-597.45" font-family="Helvetica,sans-Serif" font-size="14.00">Attack &#160;</text>
<polygon fill="none" stroke="black" points="54,-570.25 54,-592 132,-592 132,-570.25 54,-570.25"/>
<text text-anchor="start" x="57" y="-576.7" font-family="Helvetica,sans-Serif" font-size="12.00" fill="#838b8b">1.67s: Done</text>
<text text-anchor="start" x="121.5" y="-576.7" font-family="Helvetica,sans-Serif" font-size="14.00"> &#160;</text>
</g>
<!-- Engaging -->
<g id="node15" class="node">
<title>Engaging</title>
<polygon fill="none" stroke="black" points="345.5,-540 272.5,-540 272.5,-504 345.5,-504 345.5,-540"/>
<text text-anchor="middle" x="309" y="-516.58" font-family="Helvetica,sans-Serif" font-size="14.00">Engaging</text>
</g>
<!-- Attack&#45;&gt;Engaging -->
<g id="edge8" class="edge">
<title>Attack&#45;&gt;Engaging</title>
<path fill="none" stroke="#cdc8b1" d="M139.91,-576.98C175.75,-565.26 225.34,-549.04 261.36,-537.26"/>
<polygon fill="#cdc8b1" stroke="#cdc8b1" points="262.22,-540.66 270.64,-534.22 260.04,-534 262.22,-540.66"/>
</g>
<!-- AttackParrying -->
<g id="node16" class="node">
<title>AttackParrying</title>
<polygon fill="none" stroke="black" points="42.38,-522 42.38,-543.75 143.62,-543.75 143.62,-522 42.38,-522"/>
<text text-anchor="start" x="45.38" y="-527.45" font-family="Helvetica,sans-Serif" font-size="14.00">AttackParrying &#160;</text>
<polygon fill="none" stroke="black" points="42.38,-500.25 42.38,-522 143.62,-522 143.62,-500.25 42.38,-500.25"/>
<text text-anchor="start" x="45.38" y="-506.7" font-family="Helvetica,sans-Serif" font-size="12.00" fill="#838b8b">0.75s: Done</text>
<text text-anchor="start" x="109.88" y="-506.7" font-family="Helvetica,sans-Serif" font-size="14.00"> &#160;</text>
</g>
<!-- AttackParrying&#45;&gt;Engaging -->
<g id="edge9" class="edge">
<title>AttackParrying&#45;&gt;Engaging</title>
<path fill="none" stroke="#cdc8b1" d="M151.35,-522C185.53,-522 228.4,-522 260.65,-522"/>
<polygon fill="#cdc8b1" stroke="#cdc8b1" points="260.5,-525.5 270.5,-522 260.5,-518.5 260.5,-525.5"/>
</g>
<!-- Hurt_BigState -->
<g id="node17" class="node">
<title>Hurt_BigState</title>
<polygon fill="none" stroke="black" points="44.25,-662 44.25,-683.75 141.75,-683.75 141.75,-662 44.25,-662"/>
<text text-anchor="start" x="47.25" y="-667.45" font-family="Helvetica,sans-Serif" font-size="14.00">Hurt_BigState &#160;</text>
<polygon fill="none" stroke="black" points="44.25,-640.25 44.25,-662 141.75,-662 141.75,-640.25 44.25,-640.25"/>
<text text-anchor="start" x="47.25" y="-646.7" font-family="Helvetica,sans-Serif" font-size="12.00" fill="#838b8b">2.92s: Done</text>
<text text-anchor="start" x="111.75" y="-646.7" font-family="Helvetica,sans-Serif" font-size="14.00"> &#160;</text>
</g>
<!-- RollThrough -->
<g id="node18" class="node">
<title>RollThrough</title>
<polygon fill="none" stroke="black" points="49.5,-452 49.5,-473.75 136.5,-473.75 136.5,-452 49.5,-452"/>
<text text-anchor="start" x="52.5" y="-457.45" font-family="Helvetica,sans-Serif" font-size="14.00">RollThrough &#160;</text>
<polygon fill="none" stroke="black" points="49.5,-430.25 49.5,-452 136.5,-452 136.5,-430.25 49.5,-430.25"/>
<text text-anchor="start" x="52.5" y="-436.7" font-family="Helvetica,sans-Serif" font-size="12.00" fill="#838b8b">0.67s: Done</text>
<text text-anchor="start" x="117" y="-436.7" font-family="Helvetica,sans-Serif" font-size="14.00"> &#160;</text>
</g>
<!-- RollThrough&#45;&gt;Engaging -->
<g id="edge10" class="edge">
<title>RollThrough&#45;&gt;Engaging</title>
<path fill="none" stroke="#cdc8b1" d="M144.44,-468.5C179.9,-480.1 226.99,-495.5 261.53,-506.8"/>
<polygon fill="#cdc8b1" stroke="#cdc8b1" points="260.24,-510.06 270.84,-509.84 262.42,-503.41 260.24,-510.06"/>
</g>
<!-- Wandering_Idle -->
<g id="node19" class="node">
<title>Wandering_Idle</title>
<polygon fill="none" stroke="black" points="163.62,-742 22.38,-742 22.38,-706 163.62,-706 163.62,-742"/>
<text text-anchor="middle" x="93" y="-718.58" font-family="Helvetica,sans-Serif" font-size="14.00">Wandering_Idle (Init)</text>
</g>
</g>
</svg>
