<?xml version="1.0" encoding="UTF-8" standalone="no"?>
<!DOCTYPE svg PUBLIC "-//W3C//DTD SVG 1.1//EN"
 "http://www.w3.org/Graphics/SVG/1.1/DTD/svg11.dtd">
<!-- Generated by graphviz version 12.2.1 (20241206.2353)
 -->
<!-- Title: Foo Pages: 1 -->
<svg width="410pt" height="1778pt"
 viewBox="0.00 0.00 409.75 1778.00" xmlns="http://www.w3.org/2000/svg" xmlns:xlink="http://www.w3.org/1999/xlink">
<g id="graph0" class="graph" transform="scale(1 1) rotate(0) translate(4 1774)">
<title>Foo</title>
<polygon fill="white" stroke="none" points="-4,4 -4,-1774 405.75,-1774 405.75,4 -4,4"/>
<g id="clust1" class="cluster">
<title>cluster_attacksensors</title>
<polygon fill="none" stroke="black" points="8,-8 8,-898 393.75,-898 393.75,-8 8,-8"/>
<text text-anchor="middle" x="200.88" y="-880.7" font-family="Helvetica,sans-Serif" font-size="14.00">Attack Sensors</text>
</g>
<!-- Level Once Sensor -->
<g id="node1" class="node">
<title>Level Once Sensor</title>
<polygon fill="none" stroke="black" points="29.62,-48.12 29.62,-69.88 158.62,-69.88 158.62,-48.12 29.62,-48.12"/>
<text text-anchor="start" x="32.62" y="-53.58" font-family="Helvetica,sans-Serif" font-size="14.00">Level Once Sensor &#160;</text>
</g>
<!-- Level Once Sensor_linked -->
<g id="node2" class="node">
<title>Level Once Sensor_linked</title>
<polygon fill="none" stroke="black" stroke-dasharray="1,5" points="357.73,-52 301.52,-52 301.52,-16 357.73,-16 357.73,-52"/>
<text text-anchor="start" x="307.12" y="-28.57" font-family="Helvetica,sans-Serif" font-size="14.00">Attack &#160;</text>
</g>
<!-- Level Once Sensor&#45;&gt;Level Once Sensor_linked -->
<g id="edge1" class="edge">
<title>Level Once Sensor&#45;&gt;Level Once Sensor_linked</title>
<path fill="none" stroke="#66cdaa" d="M166.44,-46.42C174.46,-45.24 182.52,-44.15 190.25,-43.25 223.84,-39.36 262.22,-36.95 290.02,-35.57"/>
<polygon fill="#66cdaa" stroke="#66cdaa" points="289.91,-39.08 299.74,-35.11 289.58,-32.09 289.91,-39.08"/>
<text text-anchor="middle" x="222.88" y="-45.7" font-family="Helvetica,sans-Serif" font-size="14.00" fill="#66cdaa">QueueEnd</text>
</g>
<!-- Level Once Sensor_weight -->
<g id="node3" class="node">
<title>Level Once Sensor_weight</title>
<polygon fill="none" stroke="black" stroke-dasharray="1,5" points="367.38,-106 291.88,-106 291.88,-70 367.38,-70 367.38,-106"/>
<text text-anchor="start" x="301.88" y="-82.58" font-family="Helvetica,sans-Serif" font-size="14.00">1 Attack &#160;</text>
</g>
<!-- Level Once Sensor&#45;&gt;Level Once Sensor_weight -->
<g id="edge2" class="edge">
<title>Level Once Sensor&#45;&gt;Level Once Sensor_weight</title>
<path fill="none" stroke="#458b74" d="M166.45,-67.86C203.4,-72.45 247.55,-77.93 280.44,-82.02"/>
<polygon fill="#458b74" stroke="#458b74" points="279.72,-85.45 290.08,-83.21 280.58,-78.51 279.72,-85.45"/>
<text text-anchor="middle" x="222.88" y="-81.07" font-family="Helvetica,sans-Serif" font-size="14.00" fill="#458b74">Weight</text>
</g>
<!-- RunAwaySensor -->
<g id="node4" class="node">
<title>RunAwaySensor</title>
<polygon fill="none" stroke="black" points="37.12,-129.12 37.12,-150.88 151.12,-150.88 151.12,-129.12 37.12,-129.12"/>
<text text-anchor="start" x="40.12" y="-134.57" font-family="Helvetica,sans-Serif" font-size="14.00">RunAwaySensor &#160;</text>
</g>
<!-- AttackSensor -->
<g id="node5" class="node">
<title>AttackSensor</title>
<polygon fill="none" stroke="black" points="47.25,-235.12 47.25,-256.88 141,-256.88 141,-235.12 47.25,-235.12"/>
<text text-anchor="start" x="50.25" y="-240.57" font-family="Helvetica,sans-Serif" font-size="14.00">AttackSensor &#160;</text>
</g>
<!-- AttackSensor_linked -->
<g id="node6" class="node">
<title>AttackSensor_linked</title>
<polygon fill="none" stroke="black" stroke-dasharray="1,5" points="375.73,-210.1 283.52,-210.1 283.52,-123.9 375.73,-123.9 375.73,-210.1"/>
<text text-anchor="start" x="307.12" y="-191.2" font-family="Helvetica,sans-Serif" font-size="14.00">Attack &#160;</text>
<text text-anchor="start" x="289.12" y="-171.45" font-family="Helvetica,sans-Serif" font-size="14.00">RollThrough &#160;</text>
<text text-anchor="start" x="291" y="-151.7" font-family="Helvetica,sans-Serif" font-size="14.00">DangerKick &#160;</text>
<text text-anchor="start" x="307.12" y="-131.95" font-family="Helvetica,sans-Serif" font-size="14.00">Attack &#160;</text>
</g>
<!-- AttackSensor&#45;&gt;AttackSensor_linked -->
<g id="edge3" class="edge">
<title>AttackSensor&#45;&gt;AttackSensor_linked</title>
<path fill="none" stroke="#66cdaa" d="M148.11,-228.07C185.22,-215.52 234.72,-198.77 272.5,-185.99"/>
<polygon fill="#66cdaa" stroke="#66cdaa" points="273.54,-189.33 281.89,-182.81 271.3,-182.7 273.54,-189.33"/>
<text text-anchor="middle" x="222.88" y="-216.03" font-family="Helvetica,sans-Serif" font-size="14.00" fill="#66cdaa">QueueEnd</text>
</g>
<!-- AttackSensor_mustuse -->
<g id="node7" class="node">
<title>AttackSensor_mustuse</title>
<polygon fill="none" stroke="black" points="284.12,-233.12 284.12,-258.88 375.12,-258.88 375.12,-233.12 284.12,-233.12"/>
<text text-anchor="start" x="289.12" y="-240.57" font-family="Helvetica,sans-Serif" font-size="14.00">RollThrough &#160;</text>
</g>
<!-- AttackSensor&#45;&gt;AttackSensor_mustuse -->
<g id="edge4" class="edge">
<title>AttackSensor&#45;&gt;AttackSensor_mustuse</title>
<path fill="none" stroke="#ffc125" d="M148.99,-246C183.5,-246 228.47,-246 264.78,-246"/>
<polygon fill="#ffc125" stroke="#ffc125" points="264.73,-249.5 274.73,-246 264.73,-242.5 264.73,-249.5"/>
<text text-anchor="middle" x="222.88" y="-248.45" font-family="Helvetica,sans-Serif" font-size="14.00" fill="#ffc125">Initial</text>
</g>
<!-- AttackSensor_weight -->
<g id="node8" class="node">
<title>AttackSensor_weight</title>
<polygon fill="none" stroke="black" stroke-dasharray="1,5" points="385.75,-329.75 273.5,-329.75 273.5,-282.25 385.75,-282.25 385.75,-329.75"/>
<text text-anchor="start" x="301.88" y="-310.45" font-family="Helvetica,sans-Serif" font-size="14.00">1 Attack &#160;</text>
<text text-anchor="start" x="283.5" y="-290.7" font-family="Helvetica,sans-Serif" font-size="14.00">1 RollThrough &#160;</text>
</g>
<!-- AttackSensor&#45;&gt;AttackSensor_weight -->
<g id="edge5" class="edge">
<title>AttackSensor&#45;&gt;AttackSensor_weight</title>
<path fill="none" stroke="#458b74" d="M148.99,-259.84C182.68,-268.5 226.32,-279.71 262.15,-288.92"/>
<polygon fill="#458b74" stroke="#458b74" points="260.98,-292.23 271.54,-291.33 262.72,-285.45 260.98,-292.23"/>
<text text-anchor="middle" x="222.88" y="-289.04" font-family="Helvetica,sans-Serif" font-size="14.00" fill="#458b74">Weight</text>
</g>
<!-- DodgePredictSensor -->
<g id="node9" class="node">
<title>DodgePredictSensor</title>
<polygon fill="none" stroke="black" points="25.12,-366 25.12,-387.75 163.12,-387.75 163.12,-366 25.12,-366"/>
<text text-anchor="start" x="28.12" y="-371.45" font-family="Helvetica,sans-Serif" font-size="14.00">DodgePredictSensor &#160;</text>
<polygon fill="none" stroke="black" points="25.12,-344.25 25.12,-366 163.12,-366 163.12,-344.25 25.12,-344.25"/>
<text text-anchor="start" x="28.12" y="-350.7" font-family="Helvetica,sans-Serif" font-size="12.00" fill="#838b8b">if: rollingCondition</text>
<text text-anchor="start" x="124.88" y="-350.7" font-family="Helvetica,sans-Serif" font-size="14.00"> &#160;</text>
</g>
<!-- DodgePredictSensor_linked -->
<g id="node10" class="node">
<title>DodgePredictSensor_linked</title>
<polygon fill="none" stroke="black" stroke-dasharray="1,5" points="357.73,-384 301.52,-384 301.52,-348 357.73,-348 357.73,-384"/>
<text text-anchor="start" x="307.12" y="-360.57" font-family="Helvetica,sans-Serif" font-size="14.00">Attack &#160;</text>
</g>
<!-- DodgePredictSensor&#45;&gt;DodgePredictSensor_linked -->
<g id="edge6" class="edge">
<title>DodgePredictSensor&#45;&gt;DodgePredictSensor_linked</title>
<path fill="none" stroke="#66cdaa" d="M170.94,-366C210.67,-366 257.64,-366 289.92,-366"/>
<polygon fill="#66cdaa" stroke="#66cdaa" points="289.6,-369.5 299.6,-366 289.6,-362.5 289.6,-369.5"/>
<text text-anchor="middle" x="222.88" y="-368.45" font-family="Helvetica,sans-Serif" font-size="14.00" fill="#66cdaa">QueueEnd</text>
</g>
<!-- AttackPredictSensor -->
<g id="node11" class="node">
<title>AttackPredictSensor</title>
<polygon fill="none" stroke="black" points="26.25,-441 26.25,-462.75 162,-462.75 162,-441 26.25,-441"/>
<text text-anchor="start" x="29.25" y="-446.45" font-family="Helvetica,sans-Serif" font-size="14.00">AttackPredictSensor &#160;</text>
<polygon fill="none" stroke="black" points="26.25,-419.25 26.25,-441 162,-441 162,-419.25 26.25,-419.25"/>
<text text-anchor="start" x="29.25" y="-425.7" font-family="Helvetica,sans-Serif" font-size="12.00" fill="#838b8b">if: attackCondition</text>
<text text-anchor="start" x="124.5" y="-425.7" font-family="Helvetica,sans-Serif" font-size="14.00"> &#160;</text>
</g>
<!-- AttackPredictSensor_linked -->
<g id="node12" class="node">
<title>AttackPredictSensor_linked</title>
<polygon fill="none" stroke="black" stroke-dasharray="1,5" points="357.73,-438 301.52,-438 301.52,-402 357.73,-402 357.73,-438"/>
<text text-anchor="start" x="307.12" y="-414.57" font-family="Helvetica,sans-Serif" font-size="14.00">Attack &#160;</text>
</g>
<!-- AttackPredictSensor&#45;&gt;AttackPredictSensor_linked -->
<g id="edge7" class="edge">
<title>AttackPredictSensor&#45;&gt;AttackPredictSensor_linked</title>
<path fill="none" stroke="#66cdaa" d="M169.86,-431.37C176.75,-430.6 183.62,-429.88 190.25,-429.25 223.91,-426.05 262.28,-423.58 290.07,-422"/>
<polygon fill="#66cdaa" stroke="#66cdaa" points="289.98,-425.51 299.77,-421.46 289.59,-418.52 289.98,-425.51"/>
<text text-anchor="middle" x="222.88" y="-431.7" font-family="Helvetica,sans-Serif" font-size="14.00" fill="#66cdaa">QueueEnd</text>
</g>
<!-- AttackPredictSensor_weight -->
<g id="node13" class="node">
<title>AttackPredictSensor_weight</title>
<polygon fill="none" stroke="black" stroke-dasharray="1,5" points="385.75,-492 273.5,-492 273.5,-456 385.75,-456 385.75,-492"/>
<text text-anchor="start" x="283.5" y="-468.57" font-family="Helvetica,sans-Serif" font-size="14.00">1 RollThrough &#160;</text>
</g>
<!-- AttackPredictSensor&#45;&gt;AttackPredictSensor_weight -->
<g id="edge8" class="edge">
<title>AttackPredictSensor&#45;&gt;AttackPredictSensor_weight</title>
<path fill="none" stroke="#458b74" d="M169.97,-451.58C199.53,-455.75 233.22,-460.52 261.93,-464.57"/>
<polygon fill="#458b74" stroke="#458b74" points="261.19,-468 271.58,-465.94 262.16,-461.07 261.19,-468"/>
<text text-anchor="middle" x="222.88" y="-465.78" font-family="Helvetica,sans-Serif" font-size="14.00" fill="#458b74">Weight</text>
</g>
<!-- AttackRunToSensor -->
<g id="node14" class="node">
<title>AttackRunToSensor</title>
<polygon fill="none" stroke="black" points="27.75,-522 27.75,-543.75 160.5,-543.75 160.5,-522 27.75,-522"/>
<text text-anchor="start" x="30.75" y="-527.45" font-family="Helvetica,sans-Serif" font-size="14.00">AttackRunToSensor &#160;</text>
<polygon fill="none" stroke="black" points="27.75,-500.25 27.75,-522 160.5,-522 160.5,-500.25 27.75,-500.25"/>
<text text-anchor="start" x="30.75" y="-506.7" font-family="Helvetica,sans-Serif" font-size="12.00" fill="#838b8b">if: state is Engaging</text>
<text text-anchor="start" x="135" y="-506.7" font-family="Helvetica,sans-Serif" font-size="14.00"> &#160;</text>
</g>
<!-- AttackRunToSensor_linked -->
<g id="node15" class="node">
<title>AttackRunToSensor_linked</title>
<polygon fill="none" stroke="black" stroke-dasharray="1,5" points="357.73,-546 301.52,-546 301.52,-510 357.73,-510 357.73,-546"/>
<text text-anchor="start" x="307.12" y="-522.58" font-family="Helvetica,sans-Serif" font-size="14.00">Attack &#160;</text>
</g>
<!-- AttackRunToSensor&#45;&gt;AttackRunToSensor_linked -->
<g id="edge9" class="edge">
<title>AttackRunToSensor&#45;&gt;AttackRunToSensor_linked</title>
<path fill="none" stroke="#66cdaa" d="M168.37,-523.88C208.51,-524.91 256.66,-526.15 289.63,-527"/>
<polygon fill="#66cdaa" stroke="#66cdaa" points="289.45,-530.49 299.54,-527.25 289.63,-523.5 289.45,-530.49"/>
<text text-anchor="middle" x="222.88" y="-528.51" font-family="Helvetica,sans-Serif" font-size="14.00" fill="#66cdaa">QueueEnd</text>
</g>
<!-- ShootAttackSensor -->
<g id="node16" class="node">
<title>ShootAttackSensor</title>
<polygon fill="none" stroke="black" points="29.62,-573.12 29.62,-594.88 158.62,-594.88 158.62,-573.12 29.62,-573.12"/>
<text text-anchor="start" x="32.62" y="-578.58" font-family="Helvetica,sans-Serif" font-size="14.00">ShootAttackSensor &#160;</text>
</g>
<!-- ShootAttackSensor_linked -->
<g id="node17" class="node">
<title>ShootAttackSensor_linked</title>
<polygon fill="none" stroke="black" stroke-dasharray="1,5" points="381.73,-600 277.52,-600 277.52,-564 381.73,-564 381.73,-600"/>
<text text-anchor="start" x="283.12" y="-576.58" font-family="Helvetica,sans-Serif" font-size="14.00">Attack 3 throw &#160;</text>
</g>
<!-- ShootAttackSensor&#45;&gt;ShootAttackSensor_linked -->
<g id="edge10" class="edge">
<title>ShootAttackSensor&#45;&gt;ShootAttackSensor_linked</title>
<path fill="none" stroke="#66cdaa" d="M166.45,-583.39C198.2,-583.12 235.27,-582.8 265.94,-582.54"/>
<polygon fill="#66cdaa" stroke="#66cdaa" points="265.88,-586.04 275.85,-582.45 265.82,-579.04 265.88,-586.04"/>
<text text-anchor="middle" x="222.88" y="-585.63" font-family="Helvetica,sans-Serif" font-size="14.00" fill="#66cdaa">QueueEnd</text>
</g>
<!-- AttackUpSensor -->
<g id="node18" class="node">
<title>AttackUpSensor</title>
<polygon fill="none" stroke="black" points="24,-665 24,-686.75 164.25,-686.75 164.25,-665 24,-665"/>
<text text-anchor="start" x="41.62" y="-670.45" font-family="Helvetica,sans-Serif" font-size="14.00">AttackUpSensor &#160;</text>
<polygon fill="none" stroke="black" points="24,-643.25 24,-665 164.25,-665 164.25,-643.25 24,-643.25"/>
<text text-anchor="start" x="27" y="-649.7" font-family="Helvetica,sans-Serif" font-size="12.00" fill="#838b8b">if not: block PlayerJump</text>
<text text-anchor="start" x="153.75" y="-649.7" font-family="Helvetica,sans-Serif" font-size="14.00"> &#160;</text>
</g>
<!-- AttackUpSensor_linked -->
<g id="node19" class="node">
<title>AttackUpSensor_linked</title>
<polygon fill="none" stroke="black" stroke-dasharray="1,5" points="357.73,-654 301.52,-654 301.52,-618 357.73,-618 357.73,-654"/>
<text text-anchor="start" x="307.12" y="-630.58" font-family="Helvetica,sans-Serif" font-size="14.00">Attack &#160;</text>
</g>
<!-- AttackUpSensor&#45;&gt;AttackUpSensor_linked -->
<g id="edge11" class="edge">
<title>AttackUpSensor&#45;&gt;AttackUpSensor_linked</title>
<path fill="none" stroke="#66cdaa" d="M172.23,-655.42C211.74,-650.52 258.14,-644.75 290.07,-640.79"/>
<polygon fill="#66cdaa" stroke="#66cdaa" points="290.15,-644.31 299.65,-639.6 289.29,-637.36 290.15,-644.31"/>
<text text-anchor="middle" x="222.88" y="-655.55" font-family="Helvetica,sans-Serif" font-size="14.00" fill="#66cdaa">QueueEnd</text>
</g>
<!-- AttackUpSensor_weight -->
<g id="node20" class="node">
<title>AttackUpSensor_weight</title>
<polygon fill="none" stroke="black" stroke-dasharray="1,5" points="384.62,-708 274.62,-708 274.62,-672 384.62,-672 384.62,-708"/>
<text text-anchor="start" x="284.62" y="-684.58" font-family="Helvetica,sans-Serif" font-size="14.00">1 JumpAttack &#160;</text>
</g>
<!-- AttackUpSensor&#45;&gt;AttackUpSensor_weight -->
<g id="edge12" class="edge">
<title>AttackUpSensor&#45;&gt;AttackUpSensor_weight</title>
<path fill="none" stroke="#458b74" d="M172.23,-673.26C201.53,-676.39 234.62,-679.94 262.79,-682.95"/>
<polygon fill="#458b74" stroke="#458b74" points="262.31,-686.42 272.62,-684 263.05,-679.46 262.31,-686.42"/>
<text text-anchor="middle" x="222.88" y="-684.36" font-family="Helvetica,sans-Serif" font-size="14.00" fill="#458b74">Weight</text>
</g>
<!-- AttackDownSensor -->
<g id="node21" class="node">
<title>AttackDownSensor</title>
<polygon fill="none" stroke="black" points="30,-787.12 30,-808.88 158.25,-808.88 158.25,-787.12 30,-787.12"/>
<text text-anchor="start" x="33" y="-792.58" font-family="Helvetica,sans-Serif" font-size="14.00">AttackDownSensor &#160;</text>
</g>
<!-- AttackDownSensor_linked -->
<g id="node22" class="node">
<title>AttackDownSensor_linked</title>
<polygon fill="none" stroke="black" stroke-dasharray="1,5" points="375.73,-812.1 283.52,-812.1 283.52,-725.9 375.73,-725.9 375.73,-812.1"/>
<text text-anchor="start" x="307.12" y="-793.2" font-family="Helvetica,sans-Serif" font-size="14.00">Attack &#160;</text>
<text text-anchor="start" x="289.12" y="-773.45" font-family="Helvetica,sans-Serif" font-size="14.00">RollThrough &#160;</text>
<text text-anchor="start" x="291" y="-753.7" font-family="Helvetica,sans-Serif" font-size="14.00">DangerKick &#160;</text>
<text text-anchor="start" x="307.12" y="-733.95" font-family="Helvetica,sans-Serif" font-size="14.00">Attack &#160;</text>
</g>
<!-- AttackDownSensor&#45;&gt;AttackDownSensor_linked -->
<g id="edge13" class="edge">
<title>AttackDownSensor&#45;&gt;AttackDownSensor_linked</title>
<path fill="none" stroke="#66cdaa" d="M166.13,-789.18C200.07,-784.97 240.13,-779.99 271.99,-776.03"/>
<polygon fill="#66cdaa" stroke="#66cdaa" points="272.33,-779.52 281.82,-774.81 271.47,-772.57 272.33,-779.52"/>
<text text-anchor="middle" x="222.88" y="-788.55" font-family="Helvetica,sans-Serif" font-size="14.00" fill="#66cdaa">QueueEnd</text>
</g>
<!-- AttackDownSensor_weight -->
<g id="node23" class="node">
<title>AttackDownSensor_weight</title>
<polygon fill="none" stroke="black" stroke-dasharray="1,5" points="385,-866 274.25,-866 274.25,-830 385,-830 385,-866"/>
<text text-anchor="start" x="284.25" y="-842.58" font-family="Helvetica,sans-Serif" font-size="14.00">1 DownAttack &#160;</text>
</g>
<!-- AttackDownSensor&#45;&gt;AttackDownSensor_weight -->
<g id="edge14" class="edge">
<title>AttackDownSensor&#45;&gt;AttackDownSensor_weight</title>
<path fill="none" stroke="#458b74" d="M166.13,-813.21C196.83,-819.78 232.54,-827.42 262.65,-833.87"/>
<polygon fill="#458b74" stroke="#458b74" points="261.9,-837.29 272.41,-835.96 263.36,-830.45 261.9,-837.29"/>
<text text-anchor="middle" x="222.88" y="-834.28" font-family="Helvetica,sans-Serif" font-size="14.00" fill="#458b74">Weight</text>
</g>
<!-- Attack -->
<g id="node24" class="node">
<title>Attack</title>
<polygon fill="none" stroke="black" points="34.12,-1480.12 34.12,-1501.88 154.12,-1501.88 154.12,-1480.12 34.12,-1480.12"/>
<text text-anchor="start" x="71.62" y="-1485.58" font-family="Helvetica,sans-Serif" font-size="14.00">Attack &#160;</text>
<polygon fill="none" stroke="black" points="34.12,-1436.12 34.12,-1480.12 154.12,-1480.12 154.12,-1436.12 34.12,-1436.12"/>
<text text-anchor="start" x="37.12" y="-1466.72" font-family="Helvetica,sans-Serif" font-size="12.00" fill="#838b8b">1.15s: ResetEvaluate</text>
<text text-anchor="start" x="37.12" y="-1454.72" font-family="Helvetica,sans-Serif" font-size="12.00" fill="#838b8b">1.43s: LinkNextMove</text>
<text text-anchor="start" x="37.12" y="-1440.82" font-family="Helvetica,sans-Serif" font-size="12.00" fill="#838b8b">1.60s: Done</text>
<text text-anchor="start" x="101.62" y="-1440.82" font-family="Helvetica,sans-Serif" font-size="14.00"> &#160;</text>
</g>
<!-- Engaging -->
<g id="node25" class="node">
<title>Engaging</title>
<polygon fill="none" stroke="black" points="366.12,-1249 293.12,-1249 293.12,-1213 366.12,-1213 366.12,-1249"/>
<text text-anchor="middle" x="329.62" y="-1225.58" font-family="Helvetica,sans-Serif" font-size="14.00">Engaging</text>
</g>
<!-- Attack&#45;&gt;Engaging -->
<g id="edge15" class="edge">
<title>Attack&#45;&gt;Engaging</title>
<path fill="none" stroke="#cdc8b1" d="M160.03,-1432.19C164.26,-1429.22 168.37,-1426.14 172.25,-1423 232.44,-1374.22 285.39,-1298.96 311.46,-1258.68"/>
<polygon fill="#cdc8b1" stroke="#cdc8b1" points="314.24,-1260.82 316.68,-1250.51 308.34,-1257.05 314.24,-1260.82"/>
</g>
<!-- Attack_linked -->
<g id="node26" class="node">
<title>Attack_linked</title>
<polygon fill="none" stroke="black" stroke-dasharray="1,5" points="375.73,-1521.97 283.52,-1521.97 283.52,-1416.03 375.73,-1416.03 375.73,-1521.97"/>
<text text-anchor="start" x="297.38" y="-1503.08" font-family="Helvetica,sans-Serif" font-size="14.00">Engaging &#160;</text>
<text text-anchor="start" x="297.38" y="-1483.33" font-family="Helvetica,sans-Serif" font-size="14.00">Engaging &#160;</text>
<text text-anchor="start" x="297.38" y="-1463.58" font-family="Helvetica,sans-Serif" font-size="14.00">Engaging &#160;</text>
<text text-anchor="start" x="291" y="-1443.83" font-family="Helvetica,sans-Serif" font-size="14.00">DangerKick &#160;</text>
<text text-anchor="start" x="289.12" y="-1424.08" font-family="Helvetica,sans-Serif" font-size="14.00">RollThrough &#160;</text>
</g>
<!-- Attack&#45;&gt;Attack_linked -->
<g id="edge16" class="edge">
<title>Attack&#45;&gt;Attack_linked</title>
<path fill="none" stroke="#66cdaa" d="M162.04,-1469C196.76,-1469 238.71,-1469 271.83,-1469"/>
<polygon fill="#66cdaa" stroke="#66cdaa" points="271.64,-1472.5 281.64,-1469 271.64,-1465.5 271.64,-1472.5"/>
<text text-anchor="middle" x="222.88" y="-1471.45" font-family="Helvetica,sans-Serif" font-size="14.00" fill="#66cdaa">QueueEnd</text>
</g>
<!-- DangerKick -->
<g id="node27" class="node">
<title>DangerKick</title>
<polygon fill="none" stroke="black" points="34.12,-1248.12 34.12,-1269.88 154.12,-1269.88 154.12,-1248.12 34.12,-1248.12"/>
<text text-anchor="start" x="55.5" y="-1253.58" font-family="Helvetica,sans-Serif" font-size="14.00">DangerKick &#160;</text>
<polygon fill="none" stroke="black" points="34.12,-1192.12 34.12,-1248.12 154.12,-1248.12 154.12,-1192.12 34.12,-1192.12"/>
<text text-anchor="start" x="37.12" y="-1234.72" font-family="Helvetica,sans-Serif" font-size="12.00" fill="#838b8b">0.00s: DisableGravity</text>
<text text-anchor="start" x="37.12" y="-1222.72" font-family="Helvetica,sans-Serif" font-size="12.00" fill="#838b8b">0.00s: EnableGravity</text>
<text text-anchor="start" x="37.12" y="-1210.72" font-family="Helvetica,sans-Serif" font-size="12.00" fill="#838b8b">1.00s: ResetEvaluate</text>
<text text-anchor="start" x="37.12" y="-1196.82" font-family="Helvetica,sans-Serif" font-size="12.00" fill="#838b8b">1.33s: Done</text>
<text text-anchor="start" x="101.62" y="-1196.82" font-family="Helvetica,sans-Serif" font-size="14.00"> &#160;</text>
</g>
<!-- DangerKick&#45;&gt;Engaging -->
<g id="edge17" class="edge">
<title>DangerKick&#45;&gt;Engaging</title>
<path fill="none" stroke="#cdc8b1" d="M162.04,-1231C200.3,-1231 247.35,-1231 281.68,-1231"/>
<polygon fill="#cdc8b1" stroke="#cdc8b1" points="281.29,-1234.5 291.29,-1231 281.29,-1227.5 281.29,-1234.5"/>
</g>
<!-- Attack 3 throw -->
<g id="node28" class="node">
<title>Attack 3 throw</title>
<polygon fill="none" stroke="black" points="35.25,-1144.12 35.25,-1165.88 153,-1165.88 153,-1144.12 35.25,-1144.12"/>
<text text-anchor="start" x="47.62" y="-1149.58" font-family="Helvetica,sans-Serif" font-size="14.00">Attack 3 throw &#160;</text>
<polygon fill="none" stroke="black" points="35.25,-1112.12 35.25,-1144.12 153,-1144.12 153,-1112.12 35.25,-1112.12"/>
<text text-anchor="start" x="38.25" y="-1130.72" font-family="Helvetica,sans-Serif" font-size="12.00" fill="#838b8b">0.65s: LinkNextMove</text>
<text text-anchor="start" x="38.25" y="-1116.82" font-family="Helvetica,sans-Serif" font-size="12.00" fill="#838b8b">1.23s: Done</text>
<text text-anchor="start" x="102.75" y="-1116.82" font-family="Helvetica,sans-Serif" font-size="14.00"> &#160;</text>
</g>
<!-- Attack 3 throw&#45;&gt;Engaging -->
<g id="edge18" class="edge">
<title>Attack 3 throw&#45;&gt;Engaging</title>
<path fill="none" stroke="#cdc8b1" d="M160.79,-1164.87C199.54,-1180.14 247.64,-1199.09 282.41,-1212.79"/>
<polygon fill="#cdc8b1" stroke="#cdc8b1" points="280.75,-1215.9 291.33,-1216.31 283.31,-1209.38 280.75,-1215.9"/>
</g>
<!-- JumpAttack -->
<g id="node29" class="node">
<title>JumpAttack</title>
<polygon fill="none" stroke="black" points="51.75,-1064 51.75,-1085.75 136.5,-1085.75 136.5,-1064 51.75,-1064"/>
<text text-anchor="start" x="54.75" y="-1069.45" font-family="Helvetica,sans-Serif" font-size="14.00">JumpAttack &#160;</text>
<polygon fill="none" stroke="black" points="51.75,-1042.25 51.75,-1064 136.5,-1064 136.5,-1042.25 51.75,-1042.25"/>
<text text-anchor="start" x="54.75" y="-1048.7" font-family="Helvetica,sans-Serif" font-size="12.00" fill="#838b8b">1.50s: Done</text>
<text text-anchor="start" x="119.25" y="-1048.7" font-family="Helvetica,sans-Serif" font-size="14.00"> &#160;</text>
</g>
<!-- JumpAttack&#45;&gt;Engaging -->
<g id="edge19" class="edge">
<title>JumpAttack&#45;&gt;Engaging</title>
<path fill="none" stroke="#cdc8b1" d="M144.32,-1083.87C153.84,-1088.39 163.55,-1093.5 172.25,-1099 222,-1130.44 272.84,-1176.46 302.53,-1205.03"/>
<polygon fill="#cdc8b1" stroke="#cdc8b1" points="299.99,-1207.43 309.6,-1211.89 304.86,-1202.41 299.99,-1207.43"/>
</g>
<!-- DownAttack -->
<g id="node30" class="node">
<title>DownAttack</title>
<polygon fill="none" stroke="black" points="51.38,-1388 51.38,-1409.75 136.88,-1409.75 136.88,-1388 51.38,-1388"/>
<text text-anchor="start" x="54.38" y="-1393.45" font-family="Helvetica,sans-Serif" font-size="14.00">DownAttack &#160;</text>
<polygon fill="none" stroke="black" points="51.38,-1366.25 51.38,-1388 136.88,-1388 136.88,-1366.25 51.38,-1366.25"/>
<text text-anchor="start" x="54.38" y="-1372.7" font-family="Helvetica,sans-Serif" font-size="12.00" fill="#838b8b">1.08s: Done</text>
<text text-anchor="start" x="118.88" y="-1372.7" font-family="Helvetica,sans-Serif" font-size="14.00"> &#160;</text>
</g>
<!-- DownAttack&#45;&gt;Engaging -->
<g id="edge20" class="edge">
<title>DownAttack&#45;&gt;Engaging</title>
<path fill="none" stroke="#cdc8b1" d="M144.57,-1367.67C153.97,-1363.22 163.57,-1358.25 172.25,-1353 219.97,-1324.11 269.92,-1282.93 300.16,-1256.58"/>
<polygon fill="#cdc8b1" stroke="#cdc8b1" points="302.18,-1259.47 307.39,-1250.24 297.56,-1254.21 302.18,-1259.47"/>
</g>
<!-- HurtState -->
<g id="node31" class="node">
<title>HurtState</title>
<polygon fill="none" stroke="black" points="55.12,-1690 55.12,-1711.75 133.12,-1711.75 133.12,-1690 55.12,-1690"/>
<text text-anchor="start" x="61.88" y="-1695.45" font-family="Helvetica,sans-Serif" font-size="14.00">HurtState &#160;</text>
<polygon fill="none" stroke="black" points="55.12,-1668.25 55.12,-1690 133.12,-1690 133.12,-1668.25 55.12,-1668.25"/>
<text text-anchor="start" x="58.12" y="-1674.7" font-family="Helvetica,sans-Serif" font-size="12.00" fill="#838b8b">0.25s: Done</text>
<text text-anchor="start" x="122.62" y="-1674.7" font-family="Helvetica,sans-Serif" font-size="14.00"> &#160;</text>
</g>
<!-- PreAttack -->
<g id="node32" class="node">
<title>PreAttack</title>
<polygon fill="none" stroke="black" points="366.88,-1638 292.38,-1638 292.38,-1602 366.88,-1602 366.88,-1638"/>
<text text-anchor="middle" x="329.62" y="-1614.58" font-family="Helvetica,sans-Serif" font-size="14.00">PreAttack</text>
</g>
<!-- HurtState&#45;&gt;PreAttack -->
<g id="edge21" class="edge">
<title>HurtState&#45;&gt;PreAttack</title>
<path fill="none" stroke="#cdc8b1" d="M140.98,-1676.25C181.49,-1664.11 240.33,-1646.47 281.29,-1634.19"/>
<polygon fill="#cdc8b1" stroke="#cdc8b1" points="282.05,-1637.62 290.62,-1631.39 280.04,-1630.91 282.05,-1637.62"/>
</g>
<!-- Hurt_BigState -->
<g id="node33" class="node">
<title>Hurt_BigState</title>
<polygon fill="none" stroke="black" points="45.38,-1620 45.38,-1641.75 142.88,-1641.75 142.88,-1620 45.38,-1620"/>
<text text-anchor="start" x="48.38" y="-1625.45" font-family="Helvetica,sans-Serif" font-size="14.00">Hurt_BigState &#160;</text>
<polygon fill="none" stroke="black" points="45.38,-1598.25 45.38,-1620 142.88,-1620 142.88,-1598.25 45.38,-1598.25"/>
<text text-anchor="start" x="48.38" y="-1604.7" font-family="Helvetica,sans-Serif" font-size="12.00" fill="#838b8b">1.00s: Done</text>
<text text-anchor="start" x="112.88" y="-1604.7" font-family="Helvetica,sans-Serif" font-size="14.00"> &#160;</text>
</g>
<!-- Hurt_BigState&#45;&gt;PreAttack -->
<g id="edge22" class="edge">
<title>Hurt_BigState&#45;&gt;PreAttack</title>
<path fill="none" stroke="#cdc8b1" d="M150.76,-1620C190.36,-1620 243.04,-1620 280.77,-1620"/>
<polygon fill="#cdc8b1" stroke="#cdc8b1" points="280.46,-1623.5 290.46,-1620 280.46,-1616.5 280.46,-1623.5"/>
</g>
<!-- PostureBreak -->
<g id="node34" class="node">
<title>PostureBreak</title>
<polygon fill="none" stroke="black" points="46.5,-1550 46.5,-1571.75 141.75,-1571.75 141.75,-1550 46.5,-1550"/>
<text text-anchor="start" x="49.5" y="-1555.45" font-family="Helvetica,sans-Serif" font-size="14.00">PostureBreak &#160;</text>
<polygon fill="none" stroke="black" points="46.5,-1528.25 46.5,-1550 141.75,-1550 141.75,-1528.25 46.5,-1528.25"/>
<text text-anchor="start" x="49.5" y="-1534.7" font-family="Helvetica,sans-Serif" font-size="12.00" fill="#838b8b">1.50s: Done</text>
<text text-anchor="start" x="114" y="-1534.7" font-family="Helvetica,sans-Serif" font-size="14.00"> &#160;</text>
</g>
<!-- PostureBreak&#45;&gt;PreAttack -->
<g id="edge23" class="edge">
<title>PostureBreak&#45;&gt;PreAttack</title>
<path fill="none" stroke="#cdc8b1" d="M149.58,-1566.32C189.44,-1578.27 243,-1594.33 281.13,-1605.76"/>
<polygon fill="#cdc8b1" stroke="#cdc8b1" points="279.91,-1609.05 290.5,-1608.57 281.92,-1602.35 279.91,-1609.05"/>
</g>
<!-- RollThrough -->
<g id="node35" class="node">
<title>RollThrough</title>
<polygon fill="none" stroke="black" points="35.25,-994.12 35.25,-1015.88 153,-1015.88 153,-994.12 35.25,-994.12"/>
<text text-anchor="start" x="53.62" y="-999.58" font-family="Helvetica,sans-Serif" font-size="14.00">RollThrough &#160;</text>
<polygon fill="none" stroke="black" points="35.25,-962.12 35.25,-994.12 153,-994.12 153,-962.12 35.25,-962.12"/>
<text text-anchor="start" x="38.25" y="-980.73" font-family="Helvetica,sans-Serif" font-size="12.00" fill="#838b8b">0.50s: LinkNextMove</text>
<text text-anchor="start" x="38.25" y="-966.83" font-family="Helvetica,sans-Serif" font-size="12.00" fill="#838b8b">0.58s: Done</text>
<text text-anchor="start" x="102.75" y="-966.83" font-family="Helvetica,sans-Serif" font-size="14.00"> &#160;</text>
</g>
<!-- RollThrough&#45;&gt;Engaging -->
<g id="edge24" class="edge">
<title>RollThrough&#45;&gt;Engaging</title>
<path fill="none" stroke="#cdc8b1" d="M157.88,-1019.66C162.84,-1022.65 167.69,-1025.78 172.25,-1029 213.64,-1058.28 223.8,-1067.43 255.5,-1107 279.81,-1137.34 301.58,-1176.6 314.91,-1202.73"/>
<polygon fill="#cdc8b1" stroke="#cdc8b1" points="311.64,-1204.01 319.25,-1211.37 317.9,-1200.87 311.64,-1204.01"/>
</g>
<!-- RollThrough_linked -->
<g id="node36" class="node">
<title>RollThrough_linked</title>
<polygon fill="none" stroke="black" stroke-dasharray="1,5" points="367.48,-942 291.77,-942 291.77,-906 367.48,-906 367.48,-942"/>
<text text-anchor="start" x="297.38" y="-918.58" font-family="Helvetica,sans-Serif" font-size="14.00">Engaging &#160;</text>
</g>
<!-- RollThrough&#45;&gt;RollThrough_linked -->
<g id="edge25" class="edge">
<title>RollThrough&#45;&gt;RollThrough_linked</title>
<path fill="none" stroke="#66cdaa" d="M160.79,-970.72C198.89,-960.12 246.02,-946.99 280.64,-937.36"/>
<polygon fill="#66cdaa" stroke="#66cdaa" points="281.25,-940.82 289.95,-934.77 279.37,-934.08 281.25,-940.82"/>
<text text-anchor="middle" x="222.88" y="-964.77" font-family="Helvetica,sans-Serif" font-size="14.00" fill="#66cdaa">QueueEnd</text>
</g>
<!-- RollThrough_weight -->
<g id="node37" class="node">
<title>RollThrough_weight</title>
<polygon fill="none" stroke="black" stroke-dasharray="1,5" points="383.88,-1027.62 275.38,-1027.62 275.38,-960.38 383.88,-960.38 383.88,-1027.62"/>
<text text-anchor="start" x="285.38" y="-1008.33" font-family="Helvetica,sans-Serif" font-size="14.00">1 DangerKick &#160;</text>
<text text-anchor="start" x="307.12" y="-988.58" font-family="Helvetica,sans-Serif" font-size="14.00">1 Skip &#160;</text>
<text text-anchor="start" x="301.88" y="-968.83" font-family="Helvetica,sans-Serif" font-size="14.00">1 Attack &#160;</text>
</g>
<!-- RollThrough&#45;&gt;RollThrough_weight -->
<g id="edge26" class="edge">
<title>RollThrough&#45;&gt;RollThrough_weight</title>
<path fill="none" stroke="#458b74" d="M160.79,-990.41C192.99,-991.1 231.64,-991.92 263.73,-992.61"/>
<polygon fill="#458b74" stroke="#458b74" points="263.65,-996.11 273.72,-992.82 263.8,-989.11 263.65,-996.11"/>
<text text-anchor="middle" x="222.88" y="-994.83" font-family="Helvetica,sans-Serif" font-size="14.00" fill="#458b74">Weight</text>
</g>
<!-- StandUp -->
<g id="node38" class="node">
<title>StandUp</title>
<polygon fill="none" stroke="black" points="55.12,-1318 55.12,-1339.75 133.12,-1339.75 133.12,-1318 55.12,-1318"/>
<text text-anchor="start" x="64.12" y="-1323.45" font-family="Helvetica,sans-Serif" font-size="14.00">StandUp &#160;</text>
<polygon fill="none" stroke="black" points="55.12,-1296.25 55.12,-1318 133.12,-1318 133.12,-1296.25 55.12,-1296.25"/>
<text text-anchor="start" x="58.12" y="-1302.7" font-family="Helvetica,sans-Serif" font-size="12.00" fill="#838b8b">0.50s: Done</text>
<text text-anchor="start" x="122.62" y="-1302.7" font-family="Helvetica,sans-Serif" font-size="14.00"> &#160;</text>
</g>
<!-- StandUp&#45;&gt;Engaging -->
<g id="edge27" class="edge">
<title>StandUp&#45;&gt;Engaging</title>
<path fill="none" stroke="#cdc8b1" d="M140.98,-1300.92C181.73,-1285.73 241.04,-1263.63 282.02,-1248.36"/>
<polygon fill="#cdc8b1" stroke="#cdc8b1" points="283.24,-1251.65 291.39,-1244.87 280.79,-1245.09 283.24,-1251.65"/>
</g>
<!-- Wandering_Idle -->
<g id="node39" class="node">
<title>Wandering_Idle</title>
<polygon fill="none" stroke="black" points="164.75,-1770 23.5,-1770 23.5,-1734 164.75,-1734 164.75,-1770"/>
<text text-anchor="middle" x="94.12" y="-1746.58" font-family="Helvetica,sans-Serif" font-size="14.00">Wandering_Idle (Init)</text>
</g>
</g>
</svg>
