<?xml version="1.0" encoding="UTF-8" standalone="no"?>
<!DOCTYPE svg PUBLIC "-//W3C//DTD SVG 1.1//EN"
 "http://www.w3.org/Graphics/SVG/1.1/DTD/svg11.dtd">
<!-- Generated by graphviz version 12.2.1 (20241206.2353)
 -->
<!-- Title: Foo Pages: 1 -->
<svg width="589pt" height="1131pt"
 viewBox="0.00 0.00 588.62 1130.75" xmlns="http://www.w3.org/2000/svg" xmlns:xlink="http://www.w3.org/1999/xlink">
<g id="graph0" class="graph" transform="scale(1 1) rotate(0) translate(4 1126.75)">
<title>Foo</title>
<polygon fill="white" stroke="none" points="-4,4 -4,-1126.75 584.62,-1126.75 584.62,4 -4,4"/>
<g id="clust1" class="cluster">
<title>cluster_attacksensors</title>
<polygon fill="none" stroke="black" points="8,-8 8,-402 463.38,-402 463.38,-8 8,-8"/>
<text text-anchor="middle" x="235.69" y="-384.7" font-family="Helvetica,sans-Serif" font-size="14.00">Attack Sensors</text>
</g>
<!-- Summon Sensor -->
<g id="node1" class="node">
<title>Summon Sensor</title>
<polygon fill="none" stroke="black" points="35.25,-23.12 35.25,-44.88 150.75,-44.88 150.75,-23.12 35.25,-23.12"/>
<text text-anchor="start" x="38.25" y="-28.57" font-family="Helvetica,sans-Serif" font-size="14.00">Summon Sensor &#160;</text>
</g>
<!-- Summon Sensor_linked -->
<g id="node2" class="node">
<title>Summon Sensor_linked</title>
<polygon fill="none" stroke="black" stroke-dasharray="1,5" points="442.73,-52 301.02,-52 301.02,-16 442.73,-16 442.73,-52"/>
<text text-anchor="start" x="306.62" y="-28.57" font-family="Helvetica,sans-Serif" font-size="14.00"> Final 等著被砍頭 &#160;</text>
</g>
<!-- Summon Sensor&#45;&gt;Summon Sensor_linked -->
<g id="edge1" class="edge">
<title>Summon Sensor&#45;&gt;Summon Sensor_linked</title>
<path fill="none" stroke="#66cdaa" d="M158.57,-34C197.65,-34 247.84,-34 289.6,-34"/>
<polygon fill="#66cdaa" stroke="#66cdaa" points="289.35,-37.5 299.35,-34 289.35,-30.5 289.35,-37.5"/>
<text text-anchor="middle" x="222.5" y="-36.45" font-family="Helvetica,sans-Serif" font-size="14.00" fill="#66cdaa">QueueEnd</text>
</g>
<!-- Summon Sensor_weight -->
<g id="node3" class="node">
<title>Summon Sensor_weight</title>
<polygon fill="none" stroke="black" stroke-dasharray="1,5" points="455.38,-117.75 288.38,-117.75 288.38,-70.25 455.38,-70.25 455.38,-117.75"/>
<text text-anchor="start" x="298.38" y="-98.45" font-family="Helvetica,sans-Serif" font-size="14.00">0 &#160;Attack Summon Dog &#160;</text>
<text text-anchor="start" x="317.5" y="-78.7" font-family="Helvetica,sans-Serif" font-size="14.00">1 &#160;Attack FourFly &#160;</text>
</g>
<!-- Summon Sensor&#45;&gt;Summon Sensor_weight -->
<g id="edge2" class="edge">
<title>Summon Sensor&#45;&gt;Summon Sensor_weight</title>
<path fill="none" stroke="#458b74" d="M158.57,-47.99C193.76,-55.62 237.97,-65.2 276.92,-73.64"/>
<polygon fill="#458b74" stroke="#458b74" points="276.03,-77.03 286.55,-75.73 277.51,-70.19 276.03,-77.03"/>
<text text-anchor="middle" x="222.5" y="-70.04" font-family="Helvetica,sans-Serif" font-size="14.00" fill="#458b74">Weight</text>
</g>
<!-- RunAwaySensor -->
<g id="node4" class="node">
<title>RunAwaySensor</title>
<polygon fill="none" stroke="black" points="36,-77.12 36,-98.88 150,-98.88 150,-77.12 36,-77.12"/>
<text text-anchor="start" x="39" y="-82.58" font-family="Helvetica,sans-Serif" font-size="14.00">RunAwaySensor &#160;</text>
</g>
<!-- AttackSensor -->
<g id="node5" class="node">
<title>AttackSensor</title>
<polygon fill="none" stroke="black" points="46.12,-131.12 46.12,-152.88 139.88,-152.88 139.88,-131.12 46.12,-131.12"/>
<text text-anchor="start" x="49.12" y="-136.57" font-family="Helvetica,sans-Serif" font-size="14.00">AttackSensor &#160;</text>
</g>
<!-- AttackSensor_linked -->
<g id="node6" class="node">
<title>AttackSensor_linked</title>
<polygon fill="none" stroke="black" stroke-dasharray="1,5" points="442.73,-172 301.02,-172 301.02,-136 442.73,-136 442.73,-172"/>
<text text-anchor="start" x="306.62" y="-148.57" font-family="Helvetica,sans-Serif" font-size="14.00"> Final 等著被砍頭 &#160;</text>
</g>
<!-- AttackSensor&#45;&gt;AttackSensor_linked -->
<g id="edge3" class="edge">
<title>AttackSensor&#45;&gt;AttackSensor_linked</title>
<path fill="none" stroke="#66cdaa" d="M147.71,-144.33C187.94,-146.07 243.68,-148.49 289.39,-150.47"/>
<polygon fill="#66cdaa" stroke="#66cdaa" points="289.13,-153.96 299.27,-150.9 289.43,-146.97 289.13,-153.96"/>
<text text-anchor="middle" x="222.5" y="-151.17" font-family="Helvetica,sans-Serif" font-size="14.00" fill="#66cdaa">QueueEnd</text>
</g>
<!-- DodgePredictSensor -->
<g id="node7" class="node">
<title>DodgePredictSensor</title>
<polygon fill="none" stroke="black" points="24,-204 24,-225.75 162,-225.75 162,-204 24,-204"/>
<text text-anchor="start" x="27" y="-209.45" font-family="Helvetica,sans-Serif" font-size="14.00">DodgePredictSensor &#160;</text>
<polygon fill="none" stroke="black" points="24,-182.25 24,-204 162,-204 162,-182.25 24,-182.25"/>
<text text-anchor="start" x="27" y="-188.7" font-family="Helvetica,sans-Serif" font-size="12.00" fill="#838b8b">if: rollingCondition</text>
<text text-anchor="start" x="123.75" y="-188.7" font-family="Helvetica,sans-Serif" font-size="14.00"> &#160;</text>
</g>
<!-- DodgePredictSensor_linked -->
<g id="node8" class="node">
<title>DodgePredictSensor_linked</title>
<polygon fill="none" stroke="black" stroke-dasharray="1,5" points="442.73,-226 301.02,-226 301.02,-190 442.73,-190 442.73,-226"/>
<text text-anchor="start" x="306.62" y="-202.57" font-family="Helvetica,sans-Serif" font-size="14.00"> Final 等著被砍頭 &#160;</text>
</g>
<!-- DodgePredictSensor&#45;&gt;DodgePredictSensor_linked -->
<g id="edge4" class="edge">
<title>DodgePredictSensor&#45;&gt;DodgePredictSensor_linked</title>
<path fill="none" stroke="#66cdaa" d="M169.66,-205.09C206.66,-205.63 251.25,-206.27 289.04,-206.82"/>
<polygon fill="#66cdaa" stroke="#66cdaa" points="288.97,-210.32 299.02,-206.96 289.08,-203.32 288.97,-210.32"/>
<text text-anchor="middle" x="222.5" y="-208.69" font-family="Helvetica,sans-Serif" font-size="14.00" fill="#66cdaa">QueueEnd</text>
</g>
<!-- AttackPredictSensor -->
<g id="node9" class="node">
<title>AttackPredictSensor</title>
<polygon fill="none" stroke="black" points="25.12,-274 25.12,-295.75 160.88,-295.75 160.88,-274 25.12,-274"/>
<text text-anchor="start" x="28.12" y="-279.45" font-family="Helvetica,sans-Serif" font-size="14.00">AttackPredictSensor &#160;</text>
<polygon fill="none" stroke="black" points="25.12,-252.25 25.12,-274 160.88,-274 160.88,-252.25 25.12,-252.25"/>
<text text-anchor="start" x="28.12" y="-258.7" font-family="Helvetica,sans-Serif" font-size="12.00" fill="#838b8b">if: attackCondition</text>
<text text-anchor="start" x="123.38" y="-258.7" font-family="Helvetica,sans-Serif" font-size="14.00"> &#160;</text>
</g>
<!-- AttackPredictSensor_linked -->
<g id="node10" class="node">
<title>AttackPredictSensor_linked</title>
<polygon fill="none" stroke="black" stroke-dasharray="1,5" points="442.73,-292 301.02,-292 301.02,-256 442.73,-256 442.73,-292"/>
<text text-anchor="start" x="306.62" y="-268.57" font-family="Helvetica,sans-Serif" font-size="14.00"> Final 等著被砍頭 &#160;</text>
</g>
<!-- AttackPredictSensor&#45;&gt;AttackPredictSensor_linked -->
<g id="edge5" class="edge">
<title>AttackPredictSensor&#45;&gt;AttackPredictSensor_linked</title>
<path fill="none" stroke="#66cdaa" d="M168.56,-274C206.03,-274 251.49,-274 289.82,-274"/>
<polygon fill="#66cdaa" stroke="#66cdaa" points="289.43,-277.5 299.43,-274 289.43,-270.5 289.43,-277.5"/>
<text text-anchor="middle" x="222.5" y="-276.45" font-family="Helvetica,sans-Serif" font-size="14.00" fill="#66cdaa">QueueEnd</text>
</g>
<!-- AttackRunToSensor -->
<g id="node11" class="node">
<title>AttackRunToSensor</title>
<polygon fill="none" stroke="black" points="26.62,-344 26.62,-365.75 159.38,-365.75 159.38,-344 26.62,-344"/>
<text text-anchor="start" x="29.62" y="-349.45" font-family="Helvetica,sans-Serif" font-size="14.00">AttackRunToSensor &#160;</text>
<polygon fill="none" stroke="black" points="26.62,-322.25 26.62,-344 159.38,-344 159.38,-322.25 26.62,-322.25"/>
<text text-anchor="start" x="29.62" y="-328.7" font-family="Helvetica,sans-Serif" font-size="12.00" fill="#838b8b">if: state is Engaging</text>
<text text-anchor="start" x="133.88" y="-328.7" font-family="Helvetica,sans-Serif" font-size="14.00"> &#160;</text>
</g>
<!-- AttackRunToSensor_linked -->
<g id="node12" class="node">
<title>AttackRunToSensor_linked</title>
<polygon fill="none" stroke="black" stroke-dasharray="1,5" points="442.73,-362 301.02,-362 301.02,-326 442.73,-326 442.73,-362"/>
<text text-anchor="start" x="306.62" y="-338.57" font-family="Helvetica,sans-Serif" font-size="14.00"> Final 等著被砍頭 &#160;</text>
</g>
<!-- AttackRunToSensor&#45;&gt;AttackRunToSensor_linked -->
<g id="edge6" class="edge">
<title>AttackRunToSensor&#45;&gt;AttackRunToSensor_linked</title>
<path fill="none" stroke="#66cdaa" d="M167.11,-344C204.73,-344 250.7,-344 289.45,-344"/>
<polygon fill="#66cdaa" stroke="#66cdaa" points="289.19,-347.5 299.19,-344 289.19,-340.5 289.19,-347.5"/>
<text text-anchor="middle" x="222.5" y="-346.45" font-family="Helvetica,sans-Serif" font-size="14.00" fill="#66cdaa">QueueEnd</text>
</g>
<!--  Final 等著被砍頭 -->
<g id="node13" class="node">
<title> Final 等著被砍頭</title>
<polygon fill="none" stroke="black" points="24.75,-487.12 24.75,-508.88 161.25,-508.88 161.25,-487.12 24.75,-487.12"/>
<text text-anchor="start" x="27.75" y="-492.57" font-family="Helvetica,sans-Serif" font-size="14.00"> Final 等著被砍頭 &#160;</text>
</g>
<!-- Wandering_Idle -->
<g id="node14" class="node">
<title>Wandering_Idle</title>
<polygon fill="none" stroke="black" points="442.5,-485 301.25,-485 301.25,-449 442.5,-449 442.5,-485"/>
<text text-anchor="middle" x="371.88" y="-461.57" font-family="Helvetica,sans-Serif" font-size="14.00">Wandering_Idle (Init)</text>
</g>
<!--  Final 等著被砍頭&#45;&gt;Wandering_Idle -->
<g id="edge7" class="edge">
<title> Final 等著被砍頭&#45;&gt;Wandering_Idle</title>
<path fill="none" stroke="#cdc8b1" d="M168.93,-489.61C206.39,-485.42 251.77,-480.34 290.02,-476.05"/>
<polygon fill="#cdc8b1" stroke="#cdc8b1" points="290.07,-479.57 299.62,-474.98 289.29,-472.61 290.07,-479.57"/>
</g>
<!-- DropDown Axe -->
<g id="node15" class="node">
<title>DropDown Axe</title>
<polygon fill="none" stroke="black" points="41.25,-436 41.25,-457.75 144.75,-457.75 144.75,-436 41.25,-436"/>
<text text-anchor="start" x="44.25" y="-441.45" font-family="Helvetica,sans-Serif" font-size="14.00">DropDown Axe &#160;</text>
<polygon fill="none" stroke="black" points="41.25,-414.25 41.25,-436 144.75,-436 144.75,-414.25 41.25,-414.25"/>
<text text-anchor="start" x="44.25" y="-420.7" font-family="Helvetica,sans-Serif" font-size="12.00" fill="#838b8b">6.50s: Done</text>
<text text-anchor="start" x="108.75" y="-420.7" font-family="Helvetica,sans-Serif" font-size="14.00"> &#160;</text>
</g>
<!-- DropDown Axe&#45;&gt;Wandering_Idle -->
<g id="edge8" class="edge">
<title>DropDown Axe&#45;&gt;Wandering_Idle</title>
<path fill="none" stroke="#cdc8b1" d="M152.72,-442.57C192.58,-447.04 245.83,-453 289.74,-457.92"/>
<polygon fill="#cdc8b1" stroke="#cdc8b1" points="289.14,-461.37 299.47,-459.01 289.92,-454.41 289.14,-461.37"/>
</g>
<!--  Attack Summon Dog -->
<g id="node16" class="node">
<title> Attack Summon Dog</title>
<polygon fill="none" stroke="black" points="22.12,-830.12 22.12,-851.88 163.88,-851.88 163.88,-830.12 22.12,-830.12"/>
<text text-anchor="start" x="25.12" y="-835.58" font-family="Helvetica,sans-Serif" font-size="14.00"> Attack Summon Dog &#160;</text>
<polygon fill="none" stroke="black" points="22.12,-798.12 22.12,-830.12 163.88,-830.12 163.88,-798.12 22.12,-798.12"/>
<text text-anchor="start" x="25.12" y="-816.73" font-family="Helvetica,sans-Serif" font-size="12.00" fill="#838b8b">5.67s: LinkNextMove</text>
<text text-anchor="start" x="25.12" y="-802.83" font-family="Helvetica,sans-Serif" font-size="12.00" fill="#838b8b">6.00s: Done</text>
<text text-anchor="start" x="89.62" y="-802.83" font-family="Helvetica,sans-Serif" font-size="14.00"> &#160;</text>
</g>
<!-- Stun Loop -->
<g id="node17" class="node">
<title>Stun Loop</title>
<polygon fill="none" stroke="black" points="332.88,-636 332.88,-657.75 410.88,-657.75 410.88,-636 332.88,-636"/>
<text text-anchor="start" x="337.38" y="-641.45" font-family="Helvetica,sans-Serif" font-size="14.00">Stun Loop &#160;</text>
<polygon fill="none" stroke="black" points="332.88,-614.25 332.88,-636 410.88,-636 410.88,-614.25 332.88,-614.25"/>
<text text-anchor="start" x="335.88" y="-620.7" font-family="Helvetica,sans-Serif" font-size="12.00" fill="#838b8b">7.50s: Done</text>
<text text-anchor="start" x="400.38" y="-620.7" font-family="Helvetica,sans-Serif" font-size="14.00"> &#160;</text>
</g>
<!--  Attack Summon Dog&#45;&gt;Stun Loop -->
<g id="edge9" class="edge">
<title> Attack Summon Dog&#45;&gt;Stun Loop</title>
<path fill="none" stroke="#cdc8b1" d="M122.73,-794.28C156.09,-760.16 214.11,-705.34 273.12,-671 285.91,-663.56 300.55,-657.29 314.53,-652.21"/>
<polygon fill="#cdc8b1" stroke="#cdc8b1" points="315.33,-655.64 323.63,-649.05 313.03,-649.03 315.33,-655.64"/>
</g>
<!--  Attack Summon Dog_weight -->
<g id="node18" class="node">
<title> Attack Summon Dog_weight</title>
<polygon fill="none" stroke="black" stroke-dasharray="1,5" points="422,-910 321.75,-910 321.75,-874 422,-874 422,-910"/>
<text text-anchor="start" x="331.75" y="-886.58" font-family="Helvetica,sans-Serif" font-size="14.00">1 Stun Loop &#160;</text>
</g>
<!--  Attack Summon Dog&#45;&gt; Attack Summon Dog_weight -->
<g id="edge10" class="edge">
<title> Attack Summon Dog&#45;&gt; Attack Summon Dog_weight</title>
<path fill="none" stroke="#458b74" d="M171.86,-843.84C215.72,-854.46 269.69,-867.51 310.35,-877.35"/>
<polygon fill="#458b74" stroke="#458b74" points="309.44,-880.73 319.98,-879.68 311.08,-873.93 309.44,-880.73"/>
<text text-anchor="middle" x="222.5" y="-864.96" font-family="Helvetica,sans-Serif" font-size="14.00" fill="#458b74">Weight</text>
</g>
<!-- Engaging -->
<g id="node19" class="node">
<title>Engaging</title>
<polygon fill="none" stroke="black" points="580.62,-755 507.62,-755 507.62,-719 580.62,-719 580.62,-755"/>
<text text-anchor="middle" x="544.12" y="-731.58" font-family="Helvetica,sans-Serif" font-size="14.00">Engaging</text>
</g>
<!-- Stun Loop&#45;&gt;Engaging -->
<g id="edge11" class="edge">
<title>Stun Loop&#45;&gt;Engaging</title>
<path fill="none" stroke="#cdc8b1" d="M418.83,-648.31C435.78,-653.9 454.71,-661.44 470.62,-671 488.51,-681.75 505.88,-697.33 519.14,-710.66"/>
<polygon fill="#cdc8b1" stroke="#cdc8b1" points="516.31,-712.76 525.78,-717.51 521.34,-707.89 516.31,-712.76"/>
</g>
<!--  Attack FourFly -->
<g id="node20" class="node">
<title> Attack FourFly</title>
<polygon fill="none" stroke="black" points="34.12,-570.12 34.12,-591.88 151.88,-591.88 151.88,-570.12 34.12,-570.12"/>
<text text-anchor="start" x="44.25" y="-575.58" font-family="Helvetica,sans-Serif" font-size="14.00"> Attack FourFly &#160;</text>
<polygon fill="none" stroke="black" points="34.12,-538.12 34.12,-570.12 151.88,-570.12 151.88,-538.12 34.12,-538.12"/>
<text text-anchor="start" x="37.12" y="-556.73" font-family="Helvetica,sans-Serif" font-size="12.00" fill="#838b8b">6.92s: LinkNextMove</text>
<text text-anchor="start" x="37.12" y="-542.83" font-family="Helvetica,sans-Serif" font-size="12.00" fill="#838b8b">7.00s: Done</text>
<text text-anchor="start" x="101.62" y="-542.83" font-family="Helvetica,sans-Serif" font-size="14.00"> &#160;</text>
</g>
<!--  Attack FourFly&#45;&gt;Stun Loop -->
<g id="edge12" class="edge">
<title> Attack FourFly&#45;&gt;Stun Loop</title>
<path fill="none" stroke="#cdc8b1" d="M159.62,-581.83C206.64,-593.89 269.34,-609.96 314.2,-621.47"/>
<polygon fill="#cdc8b1" stroke="#cdc8b1" points="313.17,-624.82 323.73,-623.91 314.91,-618.04 313.17,-624.82"/>
</g>
<!--  Attack FourFly_weight -->
<g id="node21" class="node">
<title> Attack FourFly_weight</title>
<polygon fill="none" stroke="black" stroke-dasharray="1,5" points="422,-583 321.75,-583 321.75,-547 422,-547 422,-583"/>
<text text-anchor="start" x="331.75" y="-559.58" font-family="Helvetica,sans-Serif" font-size="14.00">1 Stun Loop &#160;</text>
</g>
<!--  Attack FourFly&#45;&gt; Attack FourFly_weight -->
<g id="edge13" class="edge">
<title> Attack FourFly&#45;&gt; Attack FourFly_weight</title>
<path fill="none" stroke="#458b74" d="M159.62,-565C205.22,-565 265.56,-565 310.08,-565"/>
<polygon fill="#458b74" stroke="#458b74" points="309.81,-568.5 319.81,-565 309.81,-561.5 309.81,-568.5"/>
<text text-anchor="middle" x="222.5" y="-567.45" font-family="Helvetica,sans-Serif" font-size="14.00" fill="#458b74">Weight</text>
</g>
<!--  Rest -->
<g id="node22" class="node">
<title> Rest</title>
<polygon fill="none" stroke="black" points="332.88,-830 332.88,-851.75 410.88,-851.75 410.88,-830 332.88,-830"/>
<text text-anchor="start" x="352.38" y="-835.45" font-family="Helvetica,sans-Serif" font-size="14.00"> Rest &#160;</text>
<polygon fill="none" stroke="black" points="332.88,-808.25 332.88,-830 410.88,-830 410.88,-808.25 332.88,-808.25"/>
<text text-anchor="start" x="335.88" y="-814.7" font-family="Helvetica,sans-Serif" font-size="12.00" fill="#838b8b">2.50s: Done</text>
<text text-anchor="start" x="400.38" y="-814.7" font-family="Helvetica,sans-Serif" font-size="14.00"> &#160;</text>
</g>
<!--  Rest&#45;&gt;Engaging -->
<g id="edge14" class="edge">
<title> Rest&#45;&gt;Engaging</title>
<path fill="none" stroke="#cdc8b1" d="M418.52,-817.14C435.43,-811.49 454.41,-804.05 470.62,-795 486.52,-786.12 502.5,-773.79 515.4,-762.78"/>
<polygon fill="#cdc8b1" stroke="#cdc8b1" points="517.44,-765.64 522.66,-756.42 512.83,-760.38 517.44,-765.64"/>
</g>
<!-- Final Stun 打爆拘束器了 -->
<g id="node23" class="node">
<title>Final Stun 打爆拘束器了</title>
<polygon fill="none" stroke="black" points="281.12,-757.12 281.12,-778.88 462.62,-778.88 462.62,-757.12 281.12,-757.12"/>
<text text-anchor="start" x="284.12" y="-762.58" font-family="Helvetica,sans-Serif" font-size="14.00">Final Stun 打爆拘束器了 &#160;</text>
</g>
<!-- Final Stun 打爆拘束器了&#45;&gt;Engaging -->
<g id="edge15" class="edge">
<title>Final Stun 打爆拘束器了&#45;&gt;Engaging</title>
<path fill="none" stroke="#cdc8b1" d="M470.43,-750.24C479.32,-748.62 488.02,-747.03 496.14,-745.56"/>
<polygon fill="#cdc8b1" stroke="#cdc8b1" points="496.49,-749.05 505.7,-743.81 495.23,-742.16 496.49,-749.05"/>
</g>
<!-- AttackParrying -->
<g id="node24" class="node">
<title>AttackParrying</title>
<polygon fill="none" stroke="black" points="321.25,-706 321.25,-727.75 422.5,-727.75 422.5,-706 321.25,-706"/>
<text text-anchor="start" x="324.25" y="-711.45" font-family="Helvetica,sans-Serif" font-size="14.00">AttackParrying &#160;</text>
<polygon fill="none" stroke="black" points="321.25,-684.25 321.25,-706 422.5,-706 422.5,-684.25 321.25,-684.25"/>
<text text-anchor="start" x="324.25" y="-690.7" font-family="Helvetica,sans-Serif" font-size="12.00" fill="#838b8b">2.50s: Done</text>
<text text-anchor="start" x="388.75" y="-690.7" font-family="Helvetica,sans-Serif" font-size="14.00"> &#160;</text>
</g>
<!-- AttackParrying&#45;&gt;Engaging -->
<g id="edge16" class="edge">
<title>AttackParrying&#45;&gt;Engaging</title>
<path fill="none" stroke="#cdc8b1" d="M430.04,-716.41C451.46,-720.31 475.53,-724.69 495.95,-728.41"/>
<polygon fill="#cdc8b1" stroke="#cdc8b1" points="495.23,-731.84 505.69,-730.18 496.48,-724.95 495.23,-731.84"/>
</g>
<!-- HurtState -->
<g id="node25" class="node">
<title>HurtState</title>
<polygon fill="none" stroke="black" points="54,-1027 54,-1048.75 132,-1048.75 132,-1027 54,-1027"/>
<text text-anchor="start" x="60.75" y="-1032.45" font-family="Helvetica,sans-Serif" font-size="14.00">HurtState &#160;</text>
<polygon fill="none" stroke="black" points="54,-1005.25 54,-1027 132,-1027 132,-1005.25 54,-1005.25"/>
<text text-anchor="start" x="57" y="-1011.7" font-family="Helvetica,sans-Serif" font-size="12.00" fill="#838b8b">2.50s: Done</text>
<text text-anchor="start" x="121.5" y="-1011.7" font-family="Helvetica,sans-Serif" font-size="14.00"> &#160;</text>
</g>
<!-- PreAttack -->
<g id="node26" class="node">
<title>PreAttack</title>
<polygon fill="none" stroke="black" points="409.12,-1010 334.62,-1010 334.62,-974 409.12,-974 409.12,-1010"/>
<text text-anchor="middle" x="371.88" y="-986.58" font-family="Helvetica,sans-Serif" font-size="14.00">PreAttack</text>
</g>
<!-- HurtState&#45;&gt;PreAttack -->
<g id="edge17" class="edge">
<title>HurtState&#45;&gt;PreAttack</title>
<path fill="none" stroke="#cdc8b1" d="M139.72,-1021.22C190.41,-1014.81 271.8,-1004.52 323.25,-998.02"/>
<polygon fill="#cdc8b1" stroke="#cdc8b1" points="323.4,-1001.53 332.88,-996.8 322.52,-994.58 323.4,-1001.53"/>
</g>
<!-- Hurt_BigState -->
<g id="node27" class="node">
<title>Hurt_BigState</title>
<polygon fill="none" stroke="black" points="44.25,-957 44.25,-978.75 141.75,-978.75 141.75,-957 44.25,-957"/>
<text text-anchor="start" x="47.25" y="-962.45" font-family="Helvetica,sans-Serif" font-size="14.00">Hurt_BigState &#160;</text>
<polygon fill="none" stroke="black" points="44.25,-935.25 44.25,-957 141.75,-957 141.75,-935.25 44.25,-935.25"/>
<text text-anchor="start" x="47.25" y="-941.7" font-family="Helvetica,sans-Serif" font-size="12.00" fill="#838b8b">2.50s: Done</text>
<text text-anchor="start" x="111.75" y="-941.7" font-family="Helvetica,sans-Serif" font-size="14.00"> &#160;</text>
</g>
<!-- Hurt_BigState&#45;&gt;PreAttack -->
<g id="edge18" class="edge">
<title>Hurt_BigState&#45;&gt;PreAttack</title>
<path fill="none" stroke="#cdc8b1" d="M149.7,-964.04C200.46,-970.46 274.68,-979.84 322.88,-985.93"/>
<polygon fill="#cdc8b1" stroke="#cdc8b1" points="322.39,-989.4 332.75,-987.18 323.27,-982.45 322.39,-989.4"/>
</g>
<!-- LastHit -->
<g id="node28" class="node">
<title>LastHit</title>
<polygon fill="none" stroke="black" points="54,-1097 54,-1118.75 132,-1118.75 132,-1097 54,-1097"/>
<text text-anchor="start" x="68.25" y="-1102.45" font-family="Helvetica,sans-Serif" font-size="14.00">LastHit &#160;</text>
<polygon fill="none" stroke="black" points="54,-1075.25 54,-1097 132,-1097 132,-1075.25 54,-1075.25"/>
<text text-anchor="start" x="57" y="-1081.7" font-family="Helvetica,sans-Serif" font-size="12.00" fill="#838b8b">2.33s: Done</text>
<text text-anchor="start" x="121.5" y="-1081.7" font-family="Helvetica,sans-Serif" font-size="14.00"> &#160;</text>
</g>
<!-- DeadState -->
<g id="node29" class="node">
<title>DeadState</title>
<polygon fill="none" stroke="black" points="411.75,-1115 332,-1115 332,-1079 411.75,-1079 411.75,-1115"/>
<text text-anchor="middle" x="371.88" y="-1091.58" font-family="Helvetica,sans-Serif" font-size="14.00">DeadState</text>
</g>
<!-- LastHit&#45;&gt;DeadState -->
<g id="edge19" class="edge">
<title>LastHit&#45;&gt;DeadState</title>
<path fill="none" stroke="#cdc8b1" d="M139.72,-1097C189.56,-1097 269.06,-1097 320.61,-1097"/>
<polygon fill="#cdc8b1" stroke="#cdc8b1" points="320.29,-1100.5 330.29,-1097 320.29,-1093.5 320.29,-1100.5"/>
</g>
<!-- PostureBreak -->
<g id="node30" class="node">
<title>PostureBreak</title>
<polygon fill="none" stroke="black" points="34.12,-650.12 34.12,-671.88 151.88,-671.88 151.88,-650.12 34.12,-650.12"/>
<text text-anchor="start" x="48.38" y="-655.58" font-family="Helvetica,sans-Serif" font-size="14.00">PostureBreak &#160;</text>
<polygon fill="none" stroke="black" points="34.12,-618.12 34.12,-650.12 151.88,-650.12 151.88,-618.12 34.12,-618.12"/>
<text text-anchor="start" x="37.12" y="-636.73" font-family="Helvetica,sans-Serif" font-size="12.00" fill="#838b8b">0.50s: LinkNextMove</text>
<text text-anchor="start" x="37.12" y="-622.83" font-family="Helvetica,sans-Serif" font-size="12.00" fill="#838b8b">0.83s: Done</text>
<text text-anchor="start" x="101.62" y="-622.83" font-family="Helvetica,sans-Serif" font-size="14.00"> &#160;</text>
</g>
<!-- PostureBreak&#45;&gt;Stun Loop -->
<g id="edge20" class="edge">
<title>PostureBreak&#45;&gt;Stun Loop</title>
<path fill="none" stroke="#cdc8b1" d="M159.62,-642.87C206.54,-641.34 269.08,-639.31 313.91,-637.85"/>
<polygon fill="#cdc8b1" stroke="#cdc8b1" points="313.8,-641.36 323.68,-637.53 313.57,-634.36 313.8,-641.36"/>
</g>
</g>
</svg>
