<?xml version="1.0" encoding="UTF-8" standalone="no"?>
<!DOCTYPE svg PUBLIC "-//W3C//DTD SVG 1.1//EN"
 "http://www.w3.org/Graphics/SVG/1.1/DTD/svg11.dtd">
<!-- Generated by graphviz version 12.2.1 (20241206.2353)
 -->
<!-- Title: Foo Pages: 1 -->
<svg width="575pt" height="1099pt"
 viewBox="0.00 0.00 575.12 1098.75" xmlns="http://www.w3.org/2000/svg" xmlns:xlink="http://www.w3.org/1999/xlink">
<g id="graph0" class="graph" transform="scale(1 1) rotate(0) translate(4 1094.75)">
<title>Foo</title>
<polygon fill="white" stroke="none" points="-4,4 -4,-1094.75 571.12,-1094.75 571.12,4 -4,4"/>
<g id="clust1" class="cluster">
<title>cluster_attacksensors</title>
<polygon fill="none" stroke="black" points="8,-688.75 8,-1082.75 456.62,-1082.75 456.62,-688.75 8,-688.75"/>
<text text-anchor="middle" x="232.31" y="-1065.45" font-family="Helvetica,sans-Serif" font-size="14.00">Attack Sensors</text>
</g>
<!--  Final 等著被砍頭 -->
<g id="node1" class="node">
<title> Final 等著被砍頭</title>
<polygon fill="none" stroke="black" points="162.5,-105.75 23.5,-105.75 23.5,-69.75 162.5,-69.75 162.5,-105.75"/>
<text text-anchor="middle" x="93" y="-82.33" font-family="Helvetica,sans-Serif" font-size="14.00"> Final 等著被砍頭</text>
</g>
<!-- Wandering_Idle -->
<g id="node2" class="node">
<title>Wandering_Idle</title>
<polygon fill="none" stroke="black" points="435.75,-74.75 294.5,-74.75 294.5,-38.75 435.75,-38.75 435.75,-74.75"/>
<text text-anchor="middle" x="365.12" y="-51.33" font-family="Helvetica,sans-Serif" font-size="14.00">Wandering_Idle (Init)</text>
</g>
<!--  Final 等著被砍頭&#45;&gt;Wandering_Idle -->
<g id="edge1" class="edge">
<title> Final 等著被砍頭&#45;&gt;Wandering_Idle</title>
<path fill="none" stroke="#cdc8b1" d="M162.86,-79.85C199.57,-75.63 244.94,-70.43 283.31,-66.02"/>
<polygon fill="#cdc8b1" stroke="#cdc8b1" points="283.41,-69.54 292.94,-64.92 282.61,-62.58 283.41,-69.54"/>
</g>
<!-- DropDown Axe -->
<g id="node3" class="node">
<title>DropDown Axe</title>
<polygon fill="none" stroke="black" points="41.25,-25.75 41.25,-47.5 144.75,-47.5 144.75,-25.75 41.25,-25.75"/>
<text text-anchor="start" x="44.25" y="-31.2" font-family="Helvetica,sans-Serif" font-size="14.00">DropDown Axe &#160;</text>
<polygon fill="none" stroke="black" points="41.25,-4 41.25,-25.75 144.75,-25.75 144.75,-4 41.25,-4"/>
<text text-anchor="start" x="44.25" y="-10.45" font-family="Helvetica,sans-Serif" font-size="12.00" fill="#838b8b">6.50s: Done</text>
<text text-anchor="start" x="108.75" y="-10.45" font-family="Helvetica,sans-Serif" font-size="14.00"> &#160;</text>
</g>
<!-- DropDown Axe&#45;&gt;Wandering_Idle -->
<g id="edge2" class="edge">
<title>DropDown Axe&#45;&gt;Wandering_Idle</title>
<path fill="none" stroke="#cdc8b1" d="M152.61,-32.48C190.71,-36.85 240.9,-42.61 282.82,-47.42"/>
<polygon fill="#cdc8b1" stroke="#cdc8b1" points="282.3,-50.88 292.63,-48.55 283.09,-43.93 282.3,-50.88"/>
</g>
<!--  Attack Summon Dog -->
<g id="node4" class="node">
<title> Attack Summon Dog</title>
<polygon fill="none" stroke="black" points="22.12,-376.88 22.12,-398.62 163.88,-398.62 163.88,-376.88 22.12,-376.88"/>
<text text-anchor="start" x="25.12" y="-382.32" font-family="Helvetica,sans-Serif" font-size="14.00"> Attack Summon Dog &#160;</text>
<polygon fill="none" stroke="black" points="22.12,-344.88 22.12,-376.88 163.88,-376.88 163.88,-344.88 22.12,-344.88"/>
<text text-anchor="start" x="25.12" y="-363.48" font-family="Helvetica,sans-Serif" font-size="12.00" fill="#838b8b">5.67s: LinkNextMove</text>
<text text-anchor="start" x="25.12" y="-349.58" font-family="Helvetica,sans-Serif" font-size="12.00" fill="#838b8b">6.00s: Done</text>
<text text-anchor="start" x="89.62" y="-349.58" font-family="Helvetica,sans-Serif" font-size="14.00"> &#160;</text>
</g>
<!-- Stun Loop -->
<g id="node5" class="node">
<title>Stun Loop</title>
<polygon fill="none" stroke="black" points="326.12,-225.75 326.12,-247.5 404.12,-247.5 404.12,-225.75 326.12,-225.75"/>
<text text-anchor="start" x="330.62" y="-231.2" font-family="Helvetica,sans-Serif" font-size="14.00">Stun Loop &#160;</text>
<polygon fill="none" stroke="black" points="326.12,-204 326.12,-225.75 404.12,-225.75 404.12,-204 326.12,-204"/>
<text text-anchor="start" x="329.12" y="-210.45" font-family="Helvetica,sans-Serif" font-size="12.00" fill="#838b8b">7.50s: Done</text>
<text text-anchor="start" x="393.62" y="-210.45" font-family="Helvetica,sans-Serif" font-size="14.00"> &#160;</text>
</g>
<!--  Attack Summon Dog&#45;&gt;Stun Loop -->
<g id="edge3" class="edge">
<title> Attack Summon Dog&#45;&gt;Stun Loop</title>
<path fill="none" stroke="#cdc8b1" d="M138.3,-341.04C173.75,-317.27 225.29,-284.51 273.12,-260.75 284.15,-255.27 296.26,-250.08 307.94,-245.46"/>
<polygon fill="#cdc8b1" stroke="#cdc8b1" points="309.03,-248.79 317.1,-241.93 306.51,-242.26 309.03,-248.79"/>
</g>
<!--  Attack Summon Dog_mustuse -->
<g id="node6" class="node">
<title> Attack Summon Dog_mustuse</title>
<polygon fill="none" stroke="black" stroke-dasharray="1,5" points="415.25,-499.75 315,-499.75 315,-463.75 415.25,-463.75 415.25,-499.75"/>
<text text-anchor="start" x="325" y="-476.32" font-family="Helvetica,sans-Serif" font-size="14.00">1 Stun Loop &#160;</text>
</g>
<!--  Attack Summon Dog&#45;&gt; Attack Summon Dog_mustuse -->
<g id="edge4" class="edge">
<title> Attack Summon Dog&#45;&gt; Attack Summon Dog_mustuse</title>
<path fill="none" stroke="#458b74" d="M154.82,-402.62C189.05,-419.31 232.89,-439.55 273.12,-454.75 282.86,-458.43 293.33,-461.93 303.58,-465.13"/>
<polygon fill="#458b74" stroke="#458b74" points="302.54,-468.47 313.13,-468.03 304.57,-461.77 302.54,-468.47"/>
<text text-anchor="middle" x="222.5" y="-449.39" font-family="Helvetica,sans-Serif" font-size="14.00" fill="#458b74">Weight</text>
</g>
<!-- Engaging -->
<g id="node7" class="node">
<title>Engaging</title>
<polygon fill="none" stroke="black" points="567.12,-344.75 494.12,-344.75 494.12,-308.75 567.12,-308.75 567.12,-344.75"/>
<text text-anchor="middle" x="530.62" y="-321.32" font-family="Helvetica,sans-Serif" font-size="14.00">Engaging</text>
</g>
<!-- Stun Loop&#45;&gt;Engaging -->
<g id="edge5" class="edge">
<title>Stun Loop&#45;&gt;Engaging</title>
<path fill="none" stroke="#cdc8b1" d="M411.66,-239.51C426.7,-245.02 443.15,-252.13 457.12,-260.75 474.88,-271.7 492.25,-287.3 505.54,-300.58"/>
<polygon fill="#cdc8b1" stroke="#cdc8b1" points="502.7,-302.69 512.19,-307.4 507.72,-297.8 502.7,-302.69"/>
</g>
<!--  Attack FourFly -->
<g id="node8" class="node">
<title> Attack FourFly</title>
<polygon fill="none" stroke="black" points="34.12,-159.88 34.12,-181.62 151.88,-181.62 151.88,-159.88 34.12,-159.88"/>
<text text-anchor="start" x="44.25" y="-165.32" font-family="Helvetica,sans-Serif" font-size="14.00"> Attack FourFly &#160;</text>
<polygon fill="none" stroke="black" points="34.12,-127.88 34.12,-159.88 151.88,-159.88 151.88,-127.88 34.12,-127.88"/>
<text text-anchor="start" x="37.12" y="-146.47" font-family="Helvetica,sans-Serif" font-size="12.00" fill="#838b8b">6.92s: LinkNextMove</text>
<text text-anchor="start" x="37.12" y="-132.57" font-family="Helvetica,sans-Serif" font-size="12.00" fill="#838b8b">7.00s: Done</text>
<text text-anchor="start" x="101.62" y="-132.57" font-family="Helvetica,sans-Serif" font-size="14.00"> &#160;</text>
</g>
<!--  Attack FourFly&#45;&gt;Stun Loop -->
<g id="edge6" class="edge">
<title> Attack FourFly&#45;&gt;Stun Loop</title>
<path fill="none" stroke="#cdc8b1" d="M159.73,-172.03C204.99,-183.92 264.49,-199.56 307.61,-210.9"/>
<polygon fill="#cdc8b1" stroke="#cdc8b1" points="306.46,-214.21 317.02,-213.37 308.24,-207.44 306.46,-214.21"/>
</g>
<!--  Attack FourFly_mustuse -->
<g id="node9" class="node">
<title> Attack FourFly_mustuse</title>
<polygon fill="none" stroke="black" stroke-dasharray="1,5" points="415.25,-172.75 315,-172.75 315,-136.75 415.25,-136.75 415.25,-172.75"/>
<text text-anchor="start" x="325" y="-149.32" font-family="Helvetica,sans-Serif" font-size="14.00">1 Stun Loop &#160;</text>
</g>
<!--  Attack FourFly&#45;&gt; Attack FourFly_mustuse -->
<g id="edge7" class="edge">
<title> Attack FourFly&#45;&gt; Attack FourFly_mustuse</title>
<path fill="none" stroke="#458b74" d="M159.73,-154.75C203.51,-154.75 260.61,-154.75 303.33,-154.75"/>
<polygon fill="#458b74" stroke="#458b74" points="303.18,-158.25 313.18,-154.75 303.18,-151.25 303.18,-158.25"/>
<text text-anchor="middle" x="222.5" y="-157.2" font-family="Helvetica,sans-Serif" font-size="14.00" fill="#458b74">Weight</text>
</g>
<!--  Rest -->
<g id="node10" class="node">
<title> Rest</title>
<polygon fill="none" stroke="black" points="326.12,-419.75 326.12,-441.5 404.12,-441.5 404.12,-419.75 326.12,-419.75"/>
<text text-anchor="start" x="345.62" y="-425.2" font-family="Helvetica,sans-Serif" font-size="14.00"> Rest &#160;</text>
<polygon fill="none" stroke="black" points="326.12,-398 326.12,-419.75 404.12,-419.75 404.12,-398 326.12,-398"/>
<text text-anchor="start" x="329.12" y="-404.45" font-family="Helvetica,sans-Serif" font-size="12.00" fill="#838b8b">2.50s: Done</text>
<text text-anchor="start" x="393.62" y="-404.45" font-family="Helvetica,sans-Serif" font-size="14.00"> &#160;</text>
</g>
<!--  Rest&#45;&gt;Engaging -->
<g id="edge8" class="edge">
<title> Rest&#45;&gt;Engaging</title>
<path fill="none" stroke="#cdc8b1" d="M411.82,-405.3C426.71,-399.78 443.03,-392.84 457.12,-384.75 472.91,-375.69 488.88,-363.34 501.8,-352.36"/>
<polygon fill="#cdc8b1" stroke="#cdc8b1" points="503.83,-355.23 509.07,-346.03 499.23,-349.95 503.83,-355.23"/>
</g>
<!-- Final Stun 打爆拘束器了 -->
<g id="node11" class="node">
<title>Final Stun 打爆拘束器了</title>
<polygon fill="none" stroke="black" points="457.12,-375.75 273.12,-375.75 273.12,-339.75 457.12,-339.75 457.12,-375.75"/>
<text text-anchor="middle" x="365.12" y="-352.32" font-family="Helvetica,sans-Serif" font-size="14.00">Final Stun 打爆拘束器了</text>
</g>
<!-- Final Stun 打爆拘束器了&#45;&gt;Engaging -->
<g id="edge9" class="edge">
<title>Final Stun 打爆拘束器了&#45;&gt;Engaging</title>
<path fill="none" stroke="#cdc8b1" d="M457.44,-340.44C466.09,-338.8 474.59,-337.18 482.56,-335.67"/>
<polygon fill="#cdc8b1" stroke="#cdc8b1" points="483.13,-339.13 492.31,-333.83 481.83,-332.25 483.13,-339.13"/>
</g>
<!-- AttackParrying -->
<g id="node12" class="node">
<title>AttackParrying</title>
<polygon fill="none" stroke="black" points="314.5,-295.75 314.5,-317.5 415.75,-317.5 415.75,-295.75 314.5,-295.75"/>
<text text-anchor="start" x="317.5" y="-301.2" font-family="Helvetica,sans-Serif" font-size="14.00">AttackParrying &#160;</text>
<polygon fill="none" stroke="black" points="314.5,-274 314.5,-295.75 415.75,-295.75 415.75,-274 314.5,-274"/>
<text text-anchor="start" x="317.5" y="-280.45" font-family="Helvetica,sans-Serif" font-size="12.00" fill="#838b8b">2.50s: Done</text>
<text text-anchor="start" x="382" y="-280.45" font-family="Helvetica,sans-Serif" font-size="14.00"> &#160;</text>
</g>
<!-- AttackParrying&#45;&gt;Engaging -->
<g id="edge10" class="edge">
<title>AttackParrying&#45;&gt;Engaging</title>
<path fill="none" stroke="#cdc8b1" d="M423.31,-306.59C442.68,-310.26 464.08,-314.32 482.57,-317.83"/>
<polygon fill="#cdc8b1" stroke="#cdc8b1" points="481.7,-321.23 492.17,-319.65 483,-314.35 481.7,-321.23"/>
</g>
<!-- HurtState -->
<g id="node13" class="node">
<title>HurtState</title>
<polygon fill="none" stroke="black" points="54,-582.75 54,-604.5 132,-604.5 132,-582.75 54,-582.75"/>
<text text-anchor="start" x="60.75" y="-588.2" font-family="Helvetica,sans-Serif" font-size="14.00">HurtState &#160;</text>
<polygon fill="none" stroke="black" points="54,-561 54,-582.75 132,-582.75 132,-561 54,-561"/>
<text text-anchor="start" x="57" y="-567.45" font-family="Helvetica,sans-Serif" font-size="12.00" fill="#838b8b">2.50s: Done</text>
<text text-anchor="start" x="121.5" y="-567.45" font-family="Helvetica,sans-Serif" font-size="14.00"> &#160;</text>
</g>
<!-- PreAttack -->
<g id="node14" class="node">
<title>PreAttack</title>
<polygon fill="none" stroke="black" points="402.38,-577.75 327.88,-577.75 327.88,-541.75 402.38,-541.75 402.38,-577.75"/>
<text text-anchor="middle" x="365.12" y="-554.33" font-family="Helvetica,sans-Serif" font-size="14.00">PreAttack</text>
</g>
<!-- HurtState&#45;&gt;PreAttack -->
<g id="edge11" class="edge">
<title>HurtState&#45;&gt;PreAttack</title>
<path fill="none" stroke="#cdc8b1" d="M139.82,-578.85C188.87,-574.67 266.35,-568.08 316.2,-563.83"/>
<polygon fill="#cdc8b1" stroke="#cdc8b1" points="316.45,-567.32 326.12,-562.99 315.86,-560.35 316.45,-567.32"/>
</g>
<!-- Hurt_BigState -->
<g id="node15" class="node">
<title>Hurt_BigState</title>
<polygon fill="none" stroke="black" points="44.25,-512.75 44.25,-534.5 141.75,-534.5 141.75,-512.75 44.25,-512.75"/>
<text text-anchor="start" x="47.25" y="-518.2" font-family="Helvetica,sans-Serif" font-size="14.00">Hurt_BigState &#160;</text>
<polygon fill="none" stroke="black" points="44.25,-491 44.25,-512.75 141.75,-512.75 141.75,-491 44.25,-491"/>
<text text-anchor="start" x="47.25" y="-497.45" font-family="Helvetica,sans-Serif" font-size="12.00" fill="#838b8b">2.50s: Done</text>
<text text-anchor="start" x="111.75" y="-497.45" font-family="Helvetica,sans-Serif" font-size="14.00"> &#160;</text>
</g>
<!-- Hurt_BigState&#45;&gt;PreAttack -->
<g id="edge12" class="edge">
<title>Hurt_BigState&#45;&gt;PreAttack</title>
<path fill="none" stroke="#cdc8b1" d="M149.64,-522.43C198.76,-530.98 269.62,-543.31 316.26,-551.42"/>
<polygon fill="#cdc8b1" stroke="#cdc8b1" points="315.62,-554.86 326.07,-553.13 316.82,-547.97 315.62,-554.86"/>
</g>
<!-- LastHit -->
<g id="node16" class="node">
<title>LastHit</title>
<polygon fill="none" stroke="black" points="54,-652.75 54,-674.5 132,-674.5 132,-652.75 54,-652.75"/>
<text text-anchor="start" x="68.25" y="-658.2" font-family="Helvetica,sans-Serif" font-size="14.00">LastHit &#160;</text>
<polygon fill="none" stroke="black" points="54,-631 54,-652.75 132,-652.75 132,-631 54,-631"/>
<text text-anchor="start" x="57" y="-637.45" font-family="Helvetica,sans-Serif" font-size="12.00" fill="#838b8b">2.33s: Done</text>
<text text-anchor="start" x="121.5" y="-637.45" font-family="Helvetica,sans-Serif" font-size="14.00"> &#160;</text>
</g>
<!-- DeadState -->
<g id="node17" class="node">
<title>DeadState</title>
<polygon fill="none" stroke="black" points="405,-670.75 325.25,-670.75 325.25,-634.75 405,-634.75 405,-670.75"/>
<text text-anchor="middle" x="365.12" y="-647.33" font-family="Helvetica,sans-Serif" font-size="14.00">DeadState</text>
</g>
<!-- LastHit&#45;&gt;DeadState -->
<g id="edge13" class="edge">
<title>LastHit&#45;&gt;DeadState</title>
<path fill="none" stroke="#cdc8b1" d="M139.82,-652.75C188.04,-652.75 263.72,-652.75 313.62,-652.75"/>
<polygon fill="#cdc8b1" stroke="#cdc8b1" points="313.59,-656.25 323.59,-652.75 313.59,-649.25 313.59,-656.25"/>
</g>
<!-- PostureBreak -->
<g id="node18" class="node">
<title>PostureBreak</title>
<polygon fill="none" stroke="black" points="34.12,-239.88 34.12,-261.62 151.88,-261.62 151.88,-239.88 34.12,-239.88"/>
<text text-anchor="start" x="48.38" y="-245.32" font-family="Helvetica,sans-Serif" font-size="14.00">PostureBreak &#160;</text>
<polygon fill="none" stroke="black" points="34.12,-207.88 34.12,-239.88 151.88,-239.88 151.88,-207.88 34.12,-207.88"/>
<text text-anchor="start" x="37.12" y="-226.47" font-family="Helvetica,sans-Serif" font-size="12.00" fill="#838b8b">0.50s: LinkNextMove</text>
<text text-anchor="start" x="37.12" y="-212.57" font-family="Helvetica,sans-Serif" font-size="12.00" fill="#838b8b">0.83s: Done</text>
<text text-anchor="start" x="101.62" y="-212.57" font-family="Helvetica,sans-Serif" font-size="14.00"> &#160;</text>
</g>
<!-- PostureBreak&#45;&gt;Stun Loop -->
<g id="edge14" class="edge">
<title>PostureBreak&#45;&gt;Stun Loop</title>
<path fill="none" stroke="#cdc8b1" d="M159.73,-232.56C204.8,-231.06 263.98,-229.09 307.06,-227.65"/>
<polygon fill="#cdc8b1" stroke="#cdc8b1" points="307.09,-231.15 316.97,-227.32 306.86,-224.16 307.09,-231.15"/>
</g>
<!-- Summon Sensor -->
<g id="node19" class="node">
<title>Summon Sensor</title>
<polygon fill="none" stroke="black" points="152,-732.75 34,-732.75 34,-696.75 152,-696.75 152,-732.75"/>
<text text-anchor="middle" x="93" y="-709.33" font-family="Helvetica,sans-Serif" font-size="14.00">Summon Sensor</text>
</g>
<!-- Summon Sensor_linked -->
<g id="node20" class="node">
<title>Summon Sensor_linked</title>
<polygon fill="none" stroke="black" stroke-dasharray="1,5" points="435.98,-732.75 294.27,-732.75 294.27,-696.75 435.98,-696.75 435.98,-732.75"/>
<text text-anchor="start" x="299.88" y="-709.33" font-family="Helvetica,sans-Serif" font-size="14.00"> Final 等著被砍頭 &#160;</text>
</g>
<!-- Summon Sensor&#45;&gt;Summon Sensor_linked -->
<g id="edge15" class="edge">
<title>Summon Sensor&#45;&gt;Summon Sensor_linked</title>
<path fill="none" stroke="#66cdaa" d="M152.28,-714.75C190.36,-714.75 240.62,-714.75 282.63,-714.75"/>
<polygon fill="#66cdaa" stroke="#66cdaa" points="282.45,-718.25 292.45,-714.75 282.45,-711.25 282.45,-718.25"/>
<text text-anchor="middle" x="222.5" y="-717.2" font-family="Helvetica,sans-Serif" font-size="14.00" fill="#66cdaa">QueueEnd</text>
</g>
<!-- Summon Sensor_mustuse -->
<g id="node21" class="node">
<title>Summon Sensor_mustuse</title>
<polygon fill="none" stroke="black" stroke-dasharray="1,5" points="448.62,-798.5 281.62,-798.5 281.62,-751 448.62,-751 448.62,-798.5"/>
<text text-anchor="start" x="291.62" y="-779.2" font-family="Helvetica,sans-Serif" font-size="14.00">0 &#160;Attack Summon Dog &#160;</text>
<text text-anchor="start" x="310.75" y="-759.45" font-family="Helvetica,sans-Serif" font-size="14.00">1 &#160;Attack FourFly &#160;</text>
</g>
<!-- Summon Sensor&#45;&gt;Summon Sensor_mustuse -->
<g id="edge16" class="edge">
<title>Summon Sensor&#45;&gt;Summon Sensor_mustuse</title>
<path fill="none" stroke="#458b74" d="M152.28,-727.7C186.66,-735.33 230.97,-745.17 270.17,-753.88"/>
<polygon fill="#458b74" stroke="#458b74" points="269.35,-757.28 279.87,-756.04 270.87,-750.45 269.35,-757.28"/>
<text text-anchor="middle" x="222.5" y="-752.57" font-family="Helvetica,sans-Serif" font-size="14.00" fill="#458b74">Weight</text>
</g>
<!-- RunAwaySensor -->
<g id="node22" class="node">
<title>RunAwaySensor</title>
<polygon fill="none" stroke="black" points="151.25,-786.75 34.75,-786.75 34.75,-750.75 151.25,-750.75 151.25,-786.75"/>
<text text-anchor="middle" x="93" y="-763.33" font-family="Helvetica,sans-Serif" font-size="14.00">RunAwaySensor</text>
</g>
<!-- AttackSensor -->
<g id="node23" class="node">
<title>AttackSensor</title>
<polygon fill="none" stroke="black" points="141.12,-840.75 44.88,-840.75 44.88,-804.75 141.12,-804.75 141.12,-840.75"/>
<text text-anchor="middle" x="93" y="-817.33" font-family="Helvetica,sans-Serif" font-size="14.00">AttackSensor</text>
</g>
<!-- AttackSensor_linked -->
<g id="node24" class="node">
<title>AttackSensor_linked</title>
<polygon fill="none" stroke="black" stroke-dasharray="1,5" points="435.98,-852.75 294.27,-852.75 294.27,-816.75 435.98,-816.75 435.98,-852.75"/>
<text text-anchor="start" x="299.88" y="-829.33" font-family="Helvetica,sans-Serif" font-size="14.00"> Final 等著被砍頭 &#160;</text>
</g>
<!-- AttackSensor&#45;&gt;AttackSensor_linked -->
<g id="edge17" class="edge">
<title>AttackSensor&#45;&gt;AttackSensor_linked</title>
<path fill="none" stroke="#66cdaa" d="M141.36,-824.85C180.28,-826.58 236.31,-829.07 282.44,-831.12"/>
<polygon fill="#66cdaa" stroke="#66cdaa" points="282.28,-834.62 292.43,-831.56 282.59,-827.62 282.28,-834.62"/>
<text text-anchor="middle" x="222.5" y="-832.27" font-family="Helvetica,sans-Serif" font-size="14.00" fill="#66cdaa">QueueEnd</text>
</g>
<!-- DodgePredictSensor -->
<g id="node25" class="node">
<title>DodgePredictSensor</title>
<polygon fill="none" stroke="black" points="24,-884.75 24,-906.5 162,-906.5 162,-884.75 24,-884.75"/>
<text text-anchor="start" x="27" y="-890.2" font-family="Helvetica,sans-Serif" font-size="14.00">DodgePredictSensor &#160;</text>
<polygon fill="none" stroke="black" points="24,-863 24,-884.75 162,-884.75 162,-863 24,-863"/>
<text text-anchor="start" x="27" y="-869.45" font-family="Helvetica,sans-Serif" font-size="12.00" fill="#838b8b">if: rollingCondition</text>
<text text-anchor="start" x="123.75" y="-869.45" font-family="Helvetica,sans-Serif" font-size="14.00"> &#160;</text>
</g>
<!-- DodgePredictSensor_linked -->
<g id="node26" class="node">
<title>DodgePredictSensor_linked</title>
<polygon fill="none" stroke="black" stroke-dasharray="1,5" points="435.98,-906.75 294.27,-906.75 294.27,-870.75 435.98,-870.75 435.98,-906.75"/>
<text text-anchor="start" x="299.88" y="-883.33" font-family="Helvetica,sans-Serif" font-size="14.00"> Final 等著被砍頭 &#160;</text>
</g>
<!-- DodgePredictSensor&#45;&gt;DodgePredictSensor_linked -->
<g id="edge18" class="edge">
<title>DodgePredictSensor&#45;&gt;DodgePredictSensor_linked</title>
<path fill="none" stroke="#66cdaa" d="M169.96,-885.87C205.03,-886.39 246.7,-887.01 282.44,-887.54"/>
<polygon fill="#66cdaa" stroke="#66cdaa" points="282.26,-891.04 292.31,-887.69 282.36,-884.04 282.26,-891.04"/>
<text text-anchor="middle" x="222.5" y="-889.56" font-family="Helvetica,sans-Serif" font-size="14.00" fill="#66cdaa">QueueEnd</text>
</g>
<!-- AttackPredictSensor -->
<g id="node27" class="node">
<title>AttackPredictSensor</title>
<polygon fill="none" stroke="black" points="25.12,-954.75 25.12,-976.5 160.88,-976.5 160.88,-954.75 25.12,-954.75"/>
<text text-anchor="start" x="28.12" y="-960.2" font-family="Helvetica,sans-Serif" font-size="14.00">AttackPredictSensor &#160;</text>
<polygon fill="none" stroke="black" points="25.12,-933 25.12,-954.75 160.88,-954.75 160.88,-933 25.12,-933"/>
<text text-anchor="start" x="28.12" y="-939.45" font-family="Helvetica,sans-Serif" font-size="12.00" fill="#838b8b">if: attackCondition</text>
<text text-anchor="start" x="123.38" y="-939.45" font-family="Helvetica,sans-Serif" font-size="14.00"> &#160;</text>
</g>
<!-- AttackPredictSensor_linked -->
<g id="node28" class="node">
<title>AttackPredictSensor_linked</title>
<polygon fill="none" stroke="black" stroke-dasharray="1,5" points="435.98,-972.75 294.27,-972.75 294.27,-936.75 435.98,-936.75 435.98,-972.75"/>
<text text-anchor="start" x="299.88" y="-949.33" font-family="Helvetica,sans-Serif" font-size="14.00"> Final 等著被砍頭 &#160;</text>
</g>
<!-- AttackPredictSensor&#45;&gt;AttackPredictSensor_linked -->
<g id="edge19" class="edge">
<title>AttackPredictSensor&#45;&gt;AttackPredictSensor_linked</title>
<path fill="none" stroke="#66cdaa" d="M168.53,-954.75C204.05,-954.75 246.62,-954.75 282.96,-954.75"/>
<polygon fill="#66cdaa" stroke="#66cdaa" points="282.51,-958.25 292.51,-954.75 282.51,-951.25 282.51,-958.25"/>
<text text-anchor="middle" x="222.5" y="-957.2" font-family="Helvetica,sans-Serif" font-size="14.00" fill="#66cdaa">QueueEnd</text>
</g>
<!-- AttackRunToSensor -->
<g id="node29" class="node">
<title>AttackRunToSensor</title>
<polygon fill="none" stroke="black" points="26.62,-1024.75 26.62,-1046.5 159.38,-1046.5 159.38,-1024.75 26.62,-1024.75"/>
<text text-anchor="start" x="29.62" y="-1030.2" font-family="Helvetica,sans-Serif" font-size="14.00">AttackRunToSensor &#160;</text>
<polygon fill="none" stroke="black" points="26.62,-1003 26.62,-1024.75 159.38,-1024.75 159.38,-1003 26.62,-1003"/>
<text text-anchor="start" x="29.62" y="-1009.45" font-family="Helvetica,sans-Serif" font-size="12.00" fill="#838b8b">if: state is Engaging</text>
<text text-anchor="start" x="133.88" y="-1009.45" font-family="Helvetica,sans-Serif" font-size="14.00"> &#160;</text>
</g>
<!-- AttackRunToSensor_linked -->
<g id="node30" class="node">
<title>AttackRunToSensor_linked</title>
<polygon fill="none" stroke="black" stroke-dasharray="1,5" points="435.98,-1042.75 294.27,-1042.75 294.27,-1006.75 435.98,-1006.75 435.98,-1042.75"/>
<text text-anchor="start" x="299.88" y="-1019.33" font-family="Helvetica,sans-Serif" font-size="14.00"> Final 等著被砍頭 &#160;</text>
</g>
<!-- AttackRunToSensor&#45;&gt;AttackRunToSensor_linked -->
<g id="edge20" class="edge">
<title>AttackRunToSensor&#45;&gt;AttackRunToSensor_linked</title>
<path fill="none" stroke="#66cdaa" d="M167.1,-1024.75C202.92,-1024.75 246.17,-1024.75 283.02,-1024.75"/>
<polygon fill="#66cdaa" stroke="#66cdaa" points="282.71,-1028.25 292.71,-1024.75 282.71,-1021.25 282.71,-1028.25"/>
<text text-anchor="middle" x="222.5" y="-1027.2" font-family="Helvetica,sans-Serif" font-size="14.00" fill="#66cdaa">QueueEnd</text>
</g>
</g>
</svg>
