<?xml version="1.0" encoding="UTF-8" standalone="no"?>
<!DOCTYPE svg PUBLIC "-//W3C//DTD SVG 1.1//EN"
 "http://www.w3.org/Graphics/SVG/1.1/DTD/svg11.dtd">
<!-- Generated by graphviz version 12.2.1 (20241206.2353)
 -->
<!-- Title: Foo Pages: 1 -->
<svg width="408pt" height="1050pt"
 viewBox="0.00 0.00 407.50 1050.00" xmlns="http://www.w3.org/2000/svg" xmlns:xlink="http://www.w3.org/1999/xlink">
<g id="graph0" class="graph" transform="scale(1 1) rotate(0) translate(4 1046)">
<title>Foo</title>
<polygon fill="white" stroke="none" points="-4,4 -4,-1046 403.5,-1046 403.5,4 -4,4"/>
<g id="clust1" class="cluster">
<title>cluster_attacksensors</title>
<polygon fill="none" stroke="black" points="8,-8 8,-528 391.5,-528 391.5,-8 8,-8"/>
<text text-anchor="middle" x="199.75" y="-510.7" font-family="Helvetica,sans-Serif" font-size="14.00">Attack Sensors</text>
</g>
<!-- Level Once Sensor -->
<g id="node1" class="node">
<title>Level Once Sensor</title>
<polygon fill="none" stroke="black" points="28.5,-26.12 28.5,-47.88 157.5,-47.88 157.5,-26.12 28.5,-26.12"/>
<text text-anchor="start" x="31.5" y="-31.57" font-family="Helvetica,sans-Serif" font-size="14.00">Level Once Sensor &#160;</text>
</g>
<!-- Level Once Sensor_linked -->
<g id="node2" class="node">
<title>Level Once Sensor_linked</title>
<polygon fill="none" stroke="black" stroke-dasharray="1,5" points="355.48,-52 299.27,-52 299.27,-16 355.48,-16 355.48,-52"/>
<text text-anchor="start" x="304.88" y="-28.57" font-family="Helvetica,sans-Serif" font-size="14.00">Attack &#160;</text>
</g>
<!-- Level Once Sensor&#45;&gt;Level Once Sensor_linked -->
<g id="edge1" class="edge">
<title>Level Once Sensor&#45;&gt;Level Once Sensor_linked</title>
<path fill="none" stroke="#66cdaa" d="M165.3,-36.08C205.46,-35.56 254.08,-34.93 287.32,-34.5"/>
<polygon fill="#66cdaa" stroke="#66cdaa" points="287.37,-38 297.32,-34.38 287.28,-31 287.37,-38"/>
<text text-anchor="middle" x="220.62" y="-38.22" font-family="Helvetica,sans-Serif" font-size="14.00" fill="#66cdaa">QueueEnd</text>
</g>
<!-- Level Once Sensor_weight -->
<g id="node3" class="node">
<title>Level Once Sensor_weight</title>
<polygon fill="none" stroke="black" stroke-dasharray="1,5" points="365.12,-106 289.62,-106 289.62,-70 365.12,-70 365.12,-106"/>
<text text-anchor="start" x="299.62" y="-82.58" font-family="Helvetica,sans-Serif" font-size="14.00">1 Attack &#160;</text>
</g>
<!-- Level Once Sensor&#45;&gt;Level Once Sensor_weight -->
<g id="edge2" class="edge">
<title>Level Once Sensor&#45;&gt;Level Once Sensor_weight</title>
<path fill="none" stroke="#458b74" d="M165.3,-52.65C201.94,-60.69 245.61,-70.27 278.24,-77.43"/>
<polygon fill="#458b74" stroke="#458b74" points="277.29,-80.81 287.81,-79.54 278.79,-73.97 277.29,-80.81"/>
<text text-anchor="middle" x="220.62" y="-73.95" font-family="Helvetica,sans-Serif" font-size="14.00" fill="#458b74">Weight</text>
</g>
<!-- RunAwaySensor -->
<g id="node4" class="node">
<title>RunAwaySensor</title>
<polygon fill="none" stroke="black" points="36,-82.12 36,-103.88 150,-103.88 150,-82.12 36,-82.12"/>
<text text-anchor="start" x="39" y="-87.58" font-family="Helvetica,sans-Serif" font-size="14.00">RunAwaySensor &#160;</text>
</g>
<!-- AttackSensor -->
<g id="node5" class="node">
<title>AttackSensor</title>
<polygon fill="none" stroke="black" points="46.12,-145.12 46.12,-166.88 139.88,-166.88 139.88,-145.12 46.12,-145.12"/>
<text text-anchor="start" x="49.12" y="-150.57" font-family="Helvetica,sans-Serif" font-size="14.00">AttackSensor &#160;</text>
</g>
<!-- AttackSensor_linked -->
<g id="node6" class="node">
<title>AttackSensor_linked</title>
<polygon fill="none" stroke="black" stroke-dasharray="1,5" points="355.48,-160 299.27,-160 299.27,-124 355.48,-124 355.48,-160"/>
<text text-anchor="start" x="304.88" y="-136.57" font-family="Helvetica,sans-Serif" font-size="14.00">Attack &#160;</text>
</g>
<!-- AttackSensor&#45;&gt;AttackSensor_linked -->
<g id="edge3" class="edge">
<title>AttackSensor&#45;&gt;AttackSensor_linked</title>
<path fill="none" stroke="#66cdaa" d="M147.6,-152.77C190.48,-150.19 249.57,-146.63 287.87,-144.32"/>
<polygon fill="#66cdaa" stroke="#66cdaa" points="287.77,-147.83 297.54,-143.74 287.35,-140.85 287.77,-147.83"/>
<text text-anchor="middle" x="220.62" y="-152.7" font-family="Helvetica,sans-Serif" font-size="14.00" fill="#66cdaa">QueueEnd</text>
</g>
<!-- AttackSensor_weight -->
<g id="node7" class="node">
<title>AttackSensor_weight</title>
<polygon fill="none" stroke="black" stroke-dasharray="1,5" points="383.5,-225.75 271.25,-225.75 271.25,-178.25 383.5,-178.25 383.5,-225.75"/>
<text text-anchor="start" x="299.62" y="-206.45" font-family="Helvetica,sans-Serif" font-size="14.00">2 Attack &#160;</text>
<text text-anchor="start" x="281.25" y="-186.7" font-family="Helvetica,sans-Serif" font-size="14.00">1 RollThrough &#160;</text>
</g>
<!-- AttackSensor&#45;&gt;AttackSensor_weight -->
<g id="edge4" class="edge">
<title>AttackSensor&#45;&gt;AttackSensor_weight</title>
<path fill="none" stroke="#458b74" d="M147.6,-166.61C180.98,-173.22 224.19,-181.77 259.76,-188.81"/>
<polygon fill="#458b74" stroke="#458b74" points="259.05,-192.24 269.54,-190.75 260.41,-185.37 259.05,-192.24"/>
<text text-anchor="middle" x="220.62" y="-189.57" font-family="Helvetica,sans-Serif" font-size="14.00" fill="#458b74">Weight</text>
</g>
<!-- DodgePredictSensor -->
<g id="node8" class="node">
<title>DodgePredictSensor</title>
<polygon fill="none" stroke="black" points="24,-222 24,-243.75 162,-243.75 162,-222 24,-222"/>
<text text-anchor="start" x="27" y="-227.45" font-family="Helvetica,sans-Serif" font-size="14.00">DodgePredictSensor &#160;</text>
<polygon fill="none" stroke="black" points="24,-200.25 24,-222 162,-222 162,-200.25 24,-200.25"/>
<text text-anchor="start" x="27" y="-206.7" font-family="Helvetica,sans-Serif" font-size="12.00" fill="#838b8b">if: rollingCondition</text>
<text text-anchor="start" x="123.75" y="-206.7" font-family="Helvetica,sans-Serif" font-size="14.00"> &#160;</text>
</g>
<!-- DodgePredictSensor_linked -->
<g id="node9" class="node">
<title>DodgePredictSensor_linked</title>
<polygon fill="none" stroke="black" stroke-dasharray="1,5" points="355.48,-280 299.27,-280 299.27,-244 355.48,-244 355.48,-280"/>
<text text-anchor="start" x="304.88" y="-256.57" font-family="Helvetica,sans-Serif" font-size="14.00">Attack &#160;</text>
</g>
<!-- DodgePredictSensor&#45;&gt;DodgePredictSensor_linked -->
<g id="edge5" class="edge">
<title>DodgePredictSensor&#45;&gt;DodgePredictSensor_linked</title>
<path fill="none" stroke="#66cdaa" d="M169.77,-235.04C209.16,-241.82 255.65,-249.83 287.68,-255.34"/>
<polygon fill="#66cdaa" stroke="#66cdaa" points="286.85,-258.75 297.3,-257 288.04,-251.85 286.85,-258.75"/>
<text text-anchor="middle" x="220.62" y="-251.51" font-family="Helvetica,sans-Serif" font-size="14.00" fill="#66cdaa">QueueEnd</text>
</g>
<!-- AttackPredictSensor -->
<g id="node10" class="node">
<title>AttackPredictSensor</title>
<polygon fill="none" stroke="black" points="25.12,-292 25.12,-313.75 160.88,-313.75 160.88,-292 25.12,-292"/>
<text text-anchor="start" x="28.12" y="-297.45" font-family="Helvetica,sans-Serif" font-size="14.00">AttackPredictSensor &#160;</text>
<polygon fill="none" stroke="black" points="25.12,-270.25 25.12,-292 160.88,-292 160.88,-270.25 25.12,-270.25"/>
<text text-anchor="start" x="28.12" y="-276.7" font-family="Helvetica,sans-Serif" font-size="12.00" fill="#838b8b">if: attackCondition</text>
<text text-anchor="start" x="123.38" y="-276.7" font-family="Helvetica,sans-Serif" font-size="14.00"> &#160;</text>
</g>
<!-- AttackPredictSensor_linked -->
<g id="node11" class="node">
<title>AttackPredictSensor_linked</title>
<polygon fill="none" stroke="black" stroke-dasharray="1,5" points="355.48,-334 299.27,-334 299.27,-298 355.48,-298 355.48,-334"/>
<text text-anchor="start" x="304.88" y="-310.57" font-family="Helvetica,sans-Serif" font-size="14.00">Attack &#160;</text>
</g>
<!-- AttackPredictSensor&#45;&gt;AttackPredictSensor_linked -->
<g id="edge6" class="edge">
<title>AttackPredictSensor&#45;&gt;AttackPredictSensor_linked</title>
<path fill="none" stroke="#66cdaa" d="M168.8,-299.73C208.39,-303.81 255.35,-308.66 287.64,-312"/>
<polygon fill="#66cdaa" stroke="#66cdaa" points="287.02,-315.45 297.33,-313 287.74,-308.49 287.02,-315.45"/>
<text text-anchor="middle" x="220.62" y="-310.69" font-family="Helvetica,sans-Serif" font-size="14.00" fill="#66cdaa">QueueEnd</text>
</g>
<!-- AttackRunToSensor -->
<g id="node12" class="node">
<title>AttackRunToSensor</title>
<polygon fill="none" stroke="black" points="26.62,-362 26.62,-383.75 159.38,-383.75 159.38,-362 26.62,-362"/>
<text text-anchor="start" x="29.62" y="-367.45" font-family="Helvetica,sans-Serif" font-size="14.00">AttackRunToSensor &#160;</text>
<polygon fill="none" stroke="black" points="26.62,-340.25 26.62,-362 159.38,-362 159.38,-340.25 26.62,-340.25"/>
<text text-anchor="start" x="29.62" y="-346.7" font-family="Helvetica,sans-Serif" font-size="12.00" fill="#838b8b">if: state is Engaging</text>
<text text-anchor="start" x="133.88" y="-346.7" font-family="Helvetica,sans-Serif" font-size="14.00"> &#160;</text>
</g>
<!-- AttackRunToSensor_linked -->
<g id="node13" class="node">
<title>AttackRunToSensor_linked</title>
<polygon fill="none" stroke="black" stroke-dasharray="1,5" points="355.48,-388 299.27,-388 299.27,-352 355.48,-352 355.48,-388"/>
<text text-anchor="start" x="304.88" y="-364.57" font-family="Helvetica,sans-Serif" font-size="14.00">Attack &#160;</text>
</g>
<!-- AttackRunToSensor&#45;&gt;AttackRunToSensor_linked -->
<g id="edge7" class="edge">
<title>AttackRunToSensor&#45;&gt;AttackRunToSensor_linked</title>
<path fill="none" stroke="#66cdaa" d="M167.21,-364.52C207.14,-365.89 254.95,-367.54 287.68,-368.67"/>
<polygon fill="#66cdaa" stroke="#66cdaa" points="287.39,-372.16 297.5,-369.01 287.63,-365.16 287.39,-372.16"/>
<text text-anchor="middle" x="220.62" y="-369.86" font-family="Helvetica,sans-Serif" font-size="14.00" fill="#66cdaa">QueueEnd</text>
</g>
<!-- RollSensor (1) -->
<g id="node14" class="node">
<title>RollSensor (1)</title>
<polygon fill="none" stroke="black" points="43.12,-413.12 43.12,-434.88 142.88,-434.88 142.88,-413.12 43.12,-413.12"/>
<text text-anchor="start" x="46.12" y="-418.57" font-family="Helvetica,sans-Serif" font-size="14.00">RollSensor (1) &#160;</text>
</g>
<!-- RollSensor (1)_linked -->
<g id="node15" class="node">
<title>RollSensor (1)_linked</title>
<polygon fill="none" stroke="black" stroke-dasharray="1,5" points="373.48,-442 281.27,-442 281.27,-406 373.48,-406 373.48,-442"/>
<text text-anchor="start" x="286.88" y="-418.57" font-family="Helvetica,sans-Serif" font-size="14.00">RollThrough &#160;</text>
</g>
<!-- RollSensor (1)&#45;&gt;RollSensor (1)_linked -->
<g id="edge8" class="edge">
<title>RollSensor (1)&#45;&gt;RollSensor (1)_linked</title>
<path fill="none" stroke="#66cdaa" d="M150.85,-424C186.98,-424 233.57,-424 269.67,-424"/>
<polygon fill="#66cdaa" stroke="#66cdaa" points="269.49,-427.5 279.49,-424 269.49,-420.5 269.49,-427.5"/>
<text text-anchor="middle" x="220.62" y="-426.45" font-family="Helvetica,sans-Serif" font-size="14.00" fill="#66cdaa">QueueEnd</text>
</g>
<!-- EspcaeSensor (1) -->
<g id="node16" class="node">
<title>EspcaeSensor (1)</title>
<polygon fill="none" stroke="black" points="32.25,-467.12 32.25,-488.88 153.75,-488.88 153.75,-467.12 32.25,-467.12"/>
<text text-anchor="start" x="35.25" y="-472.57" font-family="Helvetica,sans-Serif" font-size="14.00">EspcaeSensor (1) &#160;</text>
</g>
<!-- EspcaeSensor (1)_linked -->
<g id="node17" class="node">
<title>EspcaeSensor (1)_linked</title>
<polygon fill="none" stroke="black" stroke-dasharray="1,5" points="373.48,-496 281.27,-496 281.27,-460 373.48,-460 373.48,-496"/>
<text text-anchor="start" x="286.88" y="-472.57" font-family="Helvetica,sans-Serif" font-size="14.00">RollThrough &#160;</text>
</g>
<!-- EspcaeSensor (1)&#45;&gt;EspcaeSensor (1)_linked -->
<g id="edge9" class="edge">
<title>EspcaeSensor (1)&#45;&gt;EspcaeSensor (1)_linked</title>
<path fill="none" stroke="#66cdaa" d="M161.52,-478C195.93,-478 237.28,-478 269.96,-478"/>
<polygon fill="#66cdaa" stroke="#66cdaa" points="269.62,-481.5 279.62,-478 269.62,-474.5 269.62,-481.5"/>
<text text-anchor="middle" x="220.62" y="-480.45" font-family="Helvetica,sans-Serif" font-size="14.00" fill="#66cdaa">QueueEnd</text>
</g>
<!-- Attack -->
<g id="node18" class="node">
<title>Attack</title>
<polygon fill="none" stroke="black" points="54,-722 54,-743.75 132,-743.75 132,-722 54,-722"/>
<text text-anchor="start" x="70.5" y="-727.45" font-family="Helvetica,sans-Serif" font-size="14.00">Attack &#160;</text>
<polygon fill="none" stroke="black" points="54,-700.25 54,-722 132,-722 132,-700.25 54,-700.25"/>
<text text-anchor="start" x="57" y="-706.7" font-family="Helvetica,sans-Serif" font-size="12.00" fill="#838b8b">1.32s: Done</text>
<text text-anchor="start" x="121.5" y="-706.7" font-family="Helvetica,sans-Serif" font-size="14.00"> &#160;</text>
</g>
<!-- Engaging -->
<g id="node19" class="node">
<title>Engaging</title>
<polygon fill="none" stroke="black" points="363.88,-665 290.88,-665 290.88,-629 363.88,-629 363.88,-665"/>
<text text-anchor="middle" x="327.38" y="-641.58" font-family="Helvetica,sans-Serif" font-size="14.00">Engaging</text>
</g>
<!-- Attack&#45;&gt;Engaging -->
<g id="edge10" class="edge">
<title>Attack&#45;&gt;Engaging</title>
<path fill="none" stroke="#cdc8b1" d="M139.91,-707.18C180.38,-694.12 239.06,-675.18 279.74,-662.05"/>
<polygon fill="#cdc8b1" stroke="#cdc8b1" points="280.57,-665.46 289.01,-659.06 278.42,-658.8 280.57,-665.46"/>
</g>
<!-- AttackParrying -->
<g id="node20" class="node">
<title>AttackParrying</title>
<polygon fill="none" stroke="black" points="34.5,-652.12 34.5,-673.88 151.5,-673.88 151.5,-652.12 34.5,-652.12"/>
<text text-anchor="start" x="45.38" y="-657.58" font-family="Helvetica,sans-Serif" font-size="14.00">AttackParrying &#160;</text>
<polygon fill="none" stroke="black" points="34.5,-620.12 34.5,-652.12 151.5,-652.12 151.5,-620.12 34.5,-620.12"/>
<text text-anchor="start" x="37.5" y="-638.73" font-family="Helvetica,sans-Serif" font-size="12.00" fill="#838b8b">0.00s: EnableGravity</text>
<text text-anchor="start" x="37.5" y="-624.83" font-family="Helvetica,sans-Serif" font-size="12.00" fill="#838b8b">0.42s: Done</text>
<text text-anchor="start" x="102" y="-624.83" font-family="Helvetica,sans-Serif" font-size="14.00"> &#160;</text>
</g>
<!-- AttackParrying&#45;&gt;Engaging -->
<g id="edge11" class="edge">
<title>AttackParrying&#45;&gt;Engaging</title>
<path fill="none" stroke="#cdc8b1" d="M159.35,-647C197.58,-647 244.96,-647 279.48,-647"/>
<polygon fill="#cdc8b1" stroke="#cdc8b1" points="279.15,-650.5 289.15,-647 279.15,-643.5 279.15,-650.5"/>
</g>
<!-- HurtState -->
<g id="node21" class="node">
<title>HurtState</title>
<polygon fill="none" stroke="black" points="34.5,-962.12 34.5,-983.88 151.5,-983.88 151.5,-962.12 34.5,-962.12"/>
<text text-anchor="start" x="60.75" y="-967.58" font-family="Helvetica,sans-Serif" font-size="14.00">HurtState &#160;</text>
<polygon fill="none" stroke="black" points="34.5,-930.12 34.5,-962.12 151.5,-962.12 151.5,-930.12 34.5,-930.12"/>
<text text-anchor="start" x="37.5" y="-948.73" font-family="Helvetica,sans-Serif" font-size="12.00" fill="#838b8b">0.00s: EnableGravity</text>
<text text-anchor="start" x="37.5" y="-934.83" font-family="Helvetica,sans-Serif" font-size="12.00" fill="#838b8b">0.17s: Done</text>
<text text-anchor="start" x="102" y="-934.83" font-family="Helvetica,sans-Serif" font-size="14.00"> &#160;</text>
</g>
<!-- PreAttack -->
<g id="node22" class="node">
<title>PreAttack</title>
<polygon fill="none" stroke="black" points="364.62,-895 290.12,-895 290.12,-859 364.62,-859 364.62,-895"/>
<text text-anchor="middle" x="327.38" y="-871.58" font-family="Helvetica,sans-Serif" font-size="14.00">PreAttack</text>
</g>
<!-- HurtState&#45;&gt;PreAttack -->
<g id="edge12" class="edge">
<title>HurtState&#45;&gt;PreAttack</title>
<path fill="none" stroke="#cdc8b1" d="M159.35,-934.5C197.38,-921.41 244.47,-905.2 278.95,-893.33"/>
<polygon fill="#cdc8b1" stroke="#cdc8b1" points="279.92,-896.69 288.24,-890.13 277.64,-890.08 279.92,-896.69"/>
</g>
<!-- Hurt_BigState -->
<g id="node23" class="node">
<title>Hurt_BigState</title>
<polygon fill="none" stroke="black" points="34.5,-882.12 34.5,-903.88 151.5,-903.88 151.5,-882.12 34.5,-882.12"/>
<text text-anchor="start" x="47.25" y="-887.58" font-family="Helvetica,sans-Serif" font-size="14.00">Hurt_BigState &#160;</text>
<polygon fill="none" stroke="black" points="34.5,-850.12 34.5,-882.12 151.5,-882.12 151.5,-850.12 34.5,-850.12"/>
<text text-anchor="start" x="37.5" y="-868.73" font-family="Helvetica,sans-Serif" font-size="12.00" fill="#838b8b">0.00s: EnableGravity</text>
<text text-anchor="start" x="37.5" y="-854.83" font-family="Helvetica,sans-Serif" font-size="12.00" fill="#838b8b">1.00s: Done</text>
<text text-anchor="start" x="102" y="-854.83" font-family="Helvetica,sans-Serif" font-size="14.00"> &#160;</text>
</g>
<!-- Hurt_BigState&#45;&gt;PreAttack -->
<g id="edge13" class="edge">
<title>Hurt_BigState&#45;&gt;PreAttack</title>
<path fill="none" stroke="#cdc8b1" d="M159.35,-877C197.22,-877 244.06,-877 278.5,-877"/>
<polygon fill="#cdc8b1" stroke="#cdc8b1" points="278.16,-880.5 288.16,-877 278.16,-873.5 278.16,-880.5"/>
</g>
<!-- PostureBreak -->
<g id="node24" class="node">
<title>PostureBreak</title>
<polygon fill="none" stroke="black" points="34.5,-802.12 34.5,-823.88 151.5,-823.88 151.5,-802.12 34.5,-802.12"/>
<text text-anchor="start" x="48.38" y="-807.58" font-family="Helvetica,sans-Serif" font-size="14.00">PostureBreak &#160;</text>
<polygon fill="none" stroke="black" points="34.5,-770.12 34.5,-802.12 151.5,-802.12 151.5,-770.12 34.5,-770.12"/>
<text text-anchor="start" x="37.5" y="-788.73" font-family="Helvetica,sans-Serif" font-size="12.00" fill="#838b8b">0.00s: EnableGravity</text>
<text text-anchor="start" x="37.5" y="-774.83" font-family="Helvetica,sans-Serif" font-size="12.00" fill="#838b8b">3.50s: Done</text>
<text text-anchor="start" x="102" y="-774.83" font-family="Helvetica,sans-Serif" font-size="14.00"> &#160;</text>
</g>
<!-- PostureBreak&#45;&gt;PreAttack -->
<g id="edge14" class="edge">
<title>PostureBreak&#45;&gt;PreAttack</title>
<path fill="none" stroke="#cdc8b1" d="M159.35,-819.5C197.38,-832.59 244.47,-848.8 278.95,-860.67"/>
<polygon fill="#cdc8b1" stroke="#cdc8b1" points="277.64,-863.92 288.24,-863.87 279.92,-857.31 277.64,-863.92"/>
</g>
<!-- RollThrough -->
<g id="node25" class="node">
<title>RollThrough</title>
<polygon fill="none" stroke="black" points="34.12,-572.12 34.12,-593.88 151.88,-593.88 151.88,-572.12 34.12,-572.12"/>
<text text-anchor="start" x="52.5" y="-577.58" font-family="Helvetica,sans-Serif" font-size="14.00">RollThrough &#160;</text>
<polygon fill="none" stroke="black" points="34.12,-540.12 34.12,-572.12 151.88,-572.12 151.88,-540.12 34.12,-540.12"/>
<text text-anchor="start" x="37.12" y="-558.73" font-family="Helvetica,sans-Serif" font-size="12.00" fill="#838b8b">0.67s: LinkNextMove</text>
<text text-anchor="start" x="37.12" y="-544.83" font-family="Helvetica,sans-Serif" font-size="12.00" fill="#838b8b">0.68s: Done</text>
<text text-anchor="start" x="101.62" y="-544.83" font-family="Helvetica,sans-Serif" font-size="14.00"> &#160;</text>
</g>
<!-- RollThrough&#45;&gt;Engaging -->
<g id="edge15" class="edge">
<title>RollThrough&#45;&gt;Engaging</title>
<path fill="none" stroke="#cdc8b1" d="M159.66,-589.6C197.93,-602.78 245.28,-619.08 279.73,-630.94"/>
<polygon fill="#cdc8b1" stroke="#cdc8b1" points="278.4,-634.19 289,-634.13 280.68,-627.57 278.4,-634.19"/>
</g>
<!-- Wandering_Idle -->
<g id="node26" class="node">
<title>Wandering_Idle</title>
<polygon fill="none" stroke="black" points="163.62,-1042 22.38,-1042 22.38,-1006 163.62,-1006 163.62,-1042"/>
<text text-anchor="middle" x="93" y="-1018.58" font-family="Helvetica,sans-Serif" font-size="14.00">Wandering_Idle (Init)</text>
</g>
</g>
</svg>
