<?xml version="1.0" encoding="UTF-8" standalone="no"?>
<!DOCTYPE svg PUBLIC "-//W3C//DTD SVG 1.1//EN"
 "http://www.w3.org/Graphics/SVG/1.1/DTD/svg11.dtd">
<!-- Generated by graphviz version 12.2.1 (20241206.2353)
 -->
<!-- Title: Foo Pages: 1 -->
<svg width="546pt" height="904pt"
 viewBox="0.00 0.00 545.50 904.00" xmlns="http://www.w3.org/2000/svg" xmlns:xlink="http://www.w3.org/1999/xlink">
<g id="graph0" class="graph" transform="scale(1 1) rotate(0) translate(4 900)">
<title>Foo</title>
<polygon fill="white" stroke="none" points="-4,4 -4,-900 541.5,-900 541.5,4 -4,4"/>
<g id="clust1" class="cluster">
<title>cluster_attacksensors</title>
<polygon fill="none" stroke="black" points="8,-494 8,-888 366.73,-888 366.73,-494 8,-494"/>
<text text-anchor="middle" x="187.36" y="-870.7" font-family="Helvetica,sans-Serif" font-size="14.00">Attack Sensors</text>
</g>
<!-- Attack -->
<g id="node1" class="node">
<title>Attack</title>
<polygon fill="none" stroke="black" points="54,-242 54,-263.75 132,-263.75 132,-242 54,-242"/>
<text text-anchor="start" x="70.5" y="-247.45" font-family="Helvetica,sans-Serif" font-size="14.00">Attack &#160;</text>
<polygon fill="none" stroke="black" points="54,-220.25 54,-242 132,-242 132,-220.25 54,-220.25"/>
<text text-anchor="start" x="57" y="-226.7" font-family="Helvetica,sans-Serif" font-size="12.00" fill="#838b8b">1.33s: Done</text>
<text text-anchor="start" x="121.5" y="-226.7" font-family="Helvetica,sans-Serif" font-size="14.00"> &#160;</text>
</g>
<!-- Engaging -->
<g id="node2" class="node">
<title>Engaging</title>
<polygon fill="none" stroke="black" points="367.12,-144 294.12,-144 294.12,-108 367.12,-108 367.12,-144"/>
<text text-anchor="middle" x="330.62" y="-120.58" font-family="Helvetica,sans-Serif" font-size="14.00">Engaging</text>
</g>
<!-- Attack&#45;&gt;Engaging -->
<g id="edge1" class="edge">
<title>Attack&#45;&gt;Engaging</title>
<path fill="none" stroke="#cdc8b1" d="M139.94,-221.16C149.88,-216.56 160.32,-211.67 170,-207 208.9,-188.24 252.6,-165.98 284.43,-149.55"/>
<polygon fill="#cdc8b1" stroke="#cdc8b1" points="285.71,-152.83 292.98,-145.12 282.49,-146.61 285.71,-152.83"/>
</g>
<!-- AttackParrying -->
<g id="node3" class="node">
<title>AttackParrying</title>
<polygon fill="none" stroke="black" points="144.88,-198 41.12,-198 41.12,-162 144.88,-162 144.88,-198"/>
<text text-anchor="middle" x="93" y="-174.57" font-family="Helvetica,sans-Serif" font-size="14.00">AttackParrying</text>
</g>
<!-- AttackParrying&#45;&gt;Engaging -->
<g id="edge2" class="edge">
<title>AttackParrying&#45;&gt;Engaging</title>
<path fill="none" stroke="#cdc8b1" d="M145.13,-168.28C186.11,-158.89 243.16,-145.82 282.93,-136.7"/>
<polygon fill="#cdc8b1" stroke="#cdc8b1" points="283.47,-140.17 292.44,-134.52 281.91,-133.35 283.47,-140.17"/>
</g>
<!-- HurtState -->
<g id="node4" class="node">
<title>HurtState</title>
<polygon fill="none" stroke="black" points="129.5,-430 56.5,-430 56.5,-394 129.5,-394 129.5,-430"/>
<text text-anchor="middle" x="93" y="-406.57" font-family="Helvetica,sans-Serif" font-size="14.00">HurtState</text>
</g>
<!-- PreAttack -->
<g id="node5" class="node">
<title>PreAttack</title>
<polygon fill="none" stroke="black" points="367.88,-376 293.38,-376 293.38,-340 367.88,-340 367.88,-376"/>
<text text-anchor="middle" x="330.62" y="-352.57" font-family="Helvetica,sans-Serif" font-size="14.00">PreAttack</text>
</g>
<!-- HurtState&#45;&gt;PreAttack -->
<g id="edge3" class="edge">
<title>HurtState&#45;&gt;PreAttack</title>
<path fill="none" stroke="#cdc8b1" d="M129.79,-403.8C170.49,-394.47 237.14,-379.2 282.16,-368.88"/>
<polygon fill="#cdc8b1" stroke="#cdc8b1" points="282.67,-372.35 291.64,-366.71 281.11,-365.53 282.67,-372.35"/>
</g>
<!-- Hurt_BigState -->
<g id="node6" class="node">
<title>Hurt_BigState</title>
<polygon fill="none" stroke="black" points="143,-376 43,-376 43,-340 143,-340 143,-376"/>
<text text-anchor="middle" x="93" y="-352.57" font-family="Helvetica,sans-Serif" font-size="14.00">Hurt_BigState</text>
</g>
<!-- Hurt_BigState&#45;&gt;PreAttack -->
<g id="edge4" class="edge">
<title>Hurt_BigState&#45;&gt;PreAttack</title>
<path fill="none" stroke="#cdc8b1" d="M143.39,-358C184.05,-358 241.34,-358 281.61,-358"/>
<polygon fill="#cdc8b1" stroke="#cdc8b1" points="281.49,-361.5 291.49,-358 281.49,-354.5 281.49,-361.5"/>
</g>
<!-- JumpBack -->
<g id="node7" class="node">
<title>JumpBack</title>
<polygon fill="none" stroke="black" points="132.88,-144 53.12,-144 53.12,-108 132.88,-108 132.88,-144"/>
<text text-anchor="middle" x="93" y="-120.58" font-family="Helvetica,sans-Serif" font-size="14.00">JumpBack</text>
</g>
<!-- JumpBack&#45;&gt;Engaging -->
<g id="edge5" class="edge">
<title>JumpBack&#45;&gt;Engaging</title>
<path fill="none" stroke="#cdc8b1" d="M133.17,-126C174.17,-126 238.55,-126 282.34,-126"/>
<polygon fill="#cdc8b1" stroke="#cdc8b1" points="282.32,-129.5 292.32,-126 282.32,-122.5 282.32,-129.5"/>
</g>
<!-- PostureBreak -->
<g id="node8" class="node">
<title>PostureBreak</title>
<polygon fill="none" stroke="black" points="141.88,-322 44.12,-322 44.12,-286 141.88,-286 141.88,-322"/>
<text text-anchor="middle" x="93" y="-298.57" font-family="Helvetica,sans-Serif" font-size="14.00">PostureBreak</text>
</g>
<!-- PostureBreak&#45;&gt;PreAttack -->
<g id="edge6" class="edge">
<title>PostureBreak&#45;&gt;PreAttack</title>
<path fill="none" stroke="#cdc8b1" d="M142.25,-315.06C183.11,-324.42 241.36,-337.77 282.03,-347.09"/>
<polygon fill="#cdc8b1" stroke="#cdc8b1" points="281,-350.45 291.53,-349.27 282.57,-343.62 281,-350.45"/>
</g>
<!-- RollThrough -->
<g id="node9" class="node">
<title>RollThrough</title>
<polygon fill="none" stroke="black" points="137.75,-90 48.25,-90 48.25,-54 137.75,-54 137.75,-90"/>
<text text-anchor="middle" x="93" y="-66.58" font-family="Helvetica,sans-Serif" font-size="14.00">RollThrough</text>
</g>
<!-- RollThrough&#45;&gt;Engaging -->
<g id="edge7" class="edge">
<title>RollThrough&#45;&gt;Engaging</title>
<path fill="none" stroke="#cdc8b1" d="M138.04,-82.09C179.28,-91.55 240.7,-105.62 282.82,-115.27"/>
<polygon fill="#cdc8b1" stroke="#cdc8b1" points="281.88,-118.65 292.41,-117.47 283.44,-111.83 281.88,-118.65"/>
</g>
<!-- StandUp -->
<g id="node10" class="node">
<title>StandUp</title>
<polygon fill="none" stroke="black" points="127.25,-36 58.75,-36 58.75,0 127.25,0 127.25,-36"/>
<text text-anchor="middle" x="93" y="-12.57" font-family="Helvetica,sans-Serif" font-size="14.00">StandUp</text>
</g>
<!-- StandUp&#45;&gt;Engaging -->
<g id="edge8" class="edge">
<title>StandUp&#45;&gt;Engaging</title>
<path fill="none" stroke="#cdc8b1" d="M127.65,-28.92C140.99,-33.51 156.36,-39.15 170,-45 210.46,-62.37 255.02,-85.32 286.76,-102.35"/>
<polygon fill="#cdc8b1" stroke="#cdc8b1" points="284.79,-105.27 295.26,-106.94 288.12,-99.11 284.79,-105.27"/>
</g>
<!-- ZEnterState -->
<g id="node11" class="node">
<title>ZEnterState</title>
<text text-anchor="middle" x="330.62" y="-460.57" font-family="Helvetica,sans-Serif" font-size="14.00">ZEnterState (Init)</text>
</g>
<!-- Wandering_Idle -->
<g id="node12" class="node">
<title>Wandering_Idle</title>
<polygon fill="none" stroke="black" points="537.5,-484 427,-484 427,-448 537.5,-448 537.5,-484"/>
<text text-anchor="middle" x="482.25" y="-460.57" font-family="Helvetica,sans-Serif" font-size="14.00">Wandering_Idle</text>
</g>
<!-- ZEnterState&#45;&gt;Wandering_Idle -->
<g id="edge9" class="edge">
<title>ZEnterState&#45;&gt;Wandering_Idle</title>
<path fill="none" stroke="#cdc8b1" d="M389.9,-466C398.25,-466 406.89,-466 415.37,-466"/>
<polygon fill="#cdc8b1" stroke="#cdc8b1" points="415.29,-469.5 425.29,-466 415.29,-462.5 415.29,-469.5"/>
</g>
<!-- ZExitState -->
<g id="node13" class="node">
<title>ZExitState</title>
<polygon fill="none" stroke="black" points="132.12,-484 53.88,-484 53.88,-448 132.12,-448 132.12,-484"/>
<text text-anchor="middle" x="93" y="-460.57" font-family="Helvetica,sans-Serif" font-size="14.00">ZExitState</text>
</g>
<!-- ZExitState&#45;&gt;ZEnterState -->
<g id="edge10" class="edge">
<title>ZExitState&#45;&gt;ZEnterState</title>
<path fill="none" stroke="#cdc8b1" d="M132.38,-466C166.83,-466 218.24,-466 259.93,-466"/>
<polygon fill="#cdc8b1" stroke="#cdc8b1" points="259.9,-469.5 269.9,-466 259.9,-462.5 259.9,-469.5"/>
</g>
<!-- Level Once Sensor -->
<g id="node14" class="node">
<title>Level Once Sensor</title>
<polygon fill="none" stroke="black" points="158.75,-538 27.25,-538 27.25,-502 158.75,-502 158.75,-538"/>
<text text-anchor="middle" x="93" y="-514.58" font-family="Helvetica,sans-Serif" font-size="14.00">Level Once Sensor</text>
</g>
<!-- Level Once Sensor_linked -->
<g id="node15" class="node">
<title>Level Once Sensor_linked</title>
<polygon fill="none" stroke="black" stroke-dasharray="1,5" points="358.73,-538 302.52,-538 302.52,-502 358.73,-502 358.73,-538"/>
<text text-anchor="start" x="308.12" y="-514.58" font-family="Helvetica,sans-Serif" font-size="14.00">Attack &#160;</text>
</g>
<!-- Level Once Sensor&#45;&gt;Level Once Sensor_linked -->
<g id="edge11" class="edge">
<title>Level Once Sensor&#45;&gt;Level Once Sensor_linked</title>
<path fill="none" stroke="#66cdaa" d="M159.01,-520C201.35,-520 255.17,-520 290.92,-520"/>
<polygon fill="#66cdaa" stroke="#66cdaa" points="290.8,-523.5 300.8,-520 290.8,-516.5 290.8,-523.5"/>
<text text-anchor="middle" x="220.62" y="-522.45" font-family="Helvetica,sans-Serif" font-size="14.00" fill="#66cdaa">QueueEnd</text>
</g>
<!-- RunAwaySensor -->
<g id="node16" class="node">
<title>RunAwaySensor</title>
<polygon fill="none" stroke="black" points="151.25,-592 34.75,-592 34.75,-556 151.25,-556 151.25,-592"/>
<text text-anchor="middle" x="93" y="-568.58" font-family="Helvetica,sans-Serif" font-size="14.00">RunAwaySensor</text>
</g>
<!-- AttackSensor -->
<g id="node17" class="node">
<title>AttackSensor</title>
<polygon fill="none" stroke="black" points="141.12,-646 44.88,-646 44.88,-610 141.12,-610 141.12,-646"/>
<text text-anchor="middle" x="93" y="-622.58" font-family="Helvetica,sans-Serif" font-size="14.00">AttackSensor</text>
</g>
<!-- AttackSensor_linked -->
<g id="node18" class="node">
<title>AttackSensor_linked</title>
<polygon fill="none" stroke="black" stroke-dasharray="1,5" points="358.73,-646 302.52,-646 302.52,-610 358.73,-610 358.73,-646"/>
<text text-anchor="start" x="308.12" y="-622.58" font-family="Helvetica,sans-Serif" font-size="14.00">Attack &#160;</text>
</g>
<!-- AttackSensor&#45;&gt;AttackSensor_linked -->
<g id="edge12" class="edge">
<title>AttackSensor&#45;&gt;AttackSensor_linked</title>
<path fill="none" stroke="#66cdaa" d="M141.4,-628C185.31,-628 249.83,-628 290.78,-628"/>
<polygon fill="#66cdaa" stroke="#66cdaa" points="290.66,-631.5 300.66,-628 290.66,-624.5 290.66,-631.5"/>
<text text-anchor="middle" x="220.62" y="-630.45" font-family="Helvetica,sans-Serif" font-size="14.00" fill="#66cdaa">QueueEnd</text>
</g>
<!-- DodgePredictSensor -->
<g id="node19" class="node">
<title>DodgePredictSensor</title>
<polygon fill="none" stroke="black" points="24,-690 24,-711.75 162,-711.75 162,-690 24,-690"/>
<text text-anchor="start" x="27" y="-695.45" font-family="Helvetica,sans-Serif" font-size="14.00">DodgePredictSensor &#160;</text>
<polygon fill="none" stroke="black" points="24,-668.25 24,-690 162,-690 162,-668.25 24,-668.25"/>
<text text-anchor="start" x="27" y="-674.7" font-family="Helvetica,sans-Serif" font-size="12.00" fill="#838b8b">if: rollingCondition</text>
<text text-anchor="start" x="123.75" y="-674.7" font-family="Helvetica,sans-Serif" font-size="14.00"> &#160;</text>
</g>
<!-- DodgePredictSensor_linked -->
<g id="node20" class="node">
<title>DodgePredictSensor_linked</title>
<polygon fill="none" stroke="black" stroke-dasharray="1,5" points="358.73,-708 302.52,-708 302.52,-672 358.73,-672 358.73,-708"/>
<text text-anchor="start" x="308.12" y="-684.58" font-family="Helvetica,sans-Serif" font-size="14.00">Attack &#160;</text>
</g>
<!-- DodgePredictSensor&#45;&gt;DodgePredictSensor_linked -->
<g id="edge13" class="edge">
<title>DodgePredictSensor&#45;&gt;DodgePredictSensor_linked</title>
<path fill="none" stroke="#66cdaa" d="M169.85,-690C210.23,-690 258.17,-690 290.94,-690"/>
<polygon fill="#66cdaa" stroke="#66cdaa" points="290.76,-693.5 300.76,-690 290.76,-686.5 290.76,-693.5"/>
<text text-anchor="middle" x="220.62" y="-692.45" font-family="Helvetica,sans-Serif" font-size="14.00" fill="#66cdaa">QueueEnd</text>
</g>
<!-- AttackPredictSensor -->
<g id="node21" class="node">
<title>AttackPredictSensor</title>
<polygon fill="none" stroke="black" points="25.12,-760 25.12,-781.75 160.88,-781.75 160.88,-760 25.12,-760"/>
<text text-anchor="start" x="28.12" y="-765.45" font-family="Helvetica,sans-Serif" font-size="14.00">AttackPredictSensor &#160;</text>
<polygon fill="none" stroke="black" points="25.12,-738.25 25.12,-760 160.88,-760 160.88,-738.25 25.12,-738.25"/>
<text text-anchor="start" x="28.12" y="-744.7" font-family="Helvetica,sans-Serif" font-size="12.00" fill="#838b8b">if: attackCondition</text>
<text text-anchor="start" x="123.38" y="-744.7" font-family="Helvetica,sans-Serif" font-size="14.00"> &#160;</text>
</g>
<!-- AttackPredictSensor_linked -->
<g id="node22" class="node">
<title>AttackPredictSensor_linked</title>
<polygon fill="none" stroke="black" stroke-dasharray="1,5" points="358.73,-778 302.52,-778 302.52,-742 358.73,-742 358.73,-778"/>
<text text-anchor="start" x="308.12" y="-754.58" font-family="Helvetica,sans-Serif" font-size="14.00">Attack &#160;</text>
</g>
<!-- AttackPredictSensor&#45;&gt;AttackPredictSensor_linked -->
<g id="edge14" class="edge">
<title>AttackPredictSensor&#45;&gt;AttackPredictSensor_linked</title>
<path fill="none" stroke="#66cdaa" d="M168.55,-760C209.14,-760 257.68,-760 290.79,-760"/>
<polygon fill="#66cdaa" stroke="#66cdaa" points="290.74,-763.5 300.74,-760 290.74,-756.5 290.74,-763.5"/>
<text text-anchor="middle" x="220.62" y="-762.45" font-family="Helvetica,sans-Serif" font-size="14.00" fill="#66cdaa">QueueEnd</text>
</g>
<!-- AttackRunToSensor -->
<g id="node23" class="node">
<title>AttackRunToSensor</title>
<polygon fill="none" stroke="black" points="26.62,-830 26.62,-851.75 159.38,-851.75 159.38,-830 26.62,-830"/>
<text text-anchor="start" x="29.62" y="-835.45" font-family="Helvetica,sans-Serif" font-size="14.00">AttackRunToSensor &#160;</text>
<polygon fill="none" stroke="black" points="26.62,-808.25 26.62,-830 159.38,-830 159.38,-808.25 26.62,-808.25"/>
<text text-anchor="start" x="29.62" y="-814.7" font-family="Helvetica,sans-Serif" font-size="12.00" fill="#838b8b">if: state is Engaging</text>
<text text-anchor="start" x="133.88" y="-814.7" font-family="Helvetica,sans-Serif" font-size="14.00"> &#160;</text>
</g>
<!-- AttackRunToSensor_linked -->
<g id="node24" class="node">
<title>AttackRunToSensor_linked</title>
<polygon fill="none" stroke="black" stroke-dasharray="1,5" points="358.73,-848 302.52,-848 302.52,-812 358.73,-812 358.73,-848"/>
<text text-anchor="start" x="308.12" y="-824.58" font-family="Helvetica,sans-Serif" font-size="14.00">Attack &#160;</text>
</g>
<!-- AttackRunToSensor&#45;&gt;AttackRunToSensor_linked -->
<g id="edge15" class="edge">
<title>AttackRunToSensor&#45;&gt;AttackRunToSensor_linked</title>
<path fill="none" stroke="#66cdaa" d="M167.26,-830C208.23,-830 257.62,-830 291.09,-830"/>
<polygon fill="#66cdaa" stroke="#66cdaa" points="290.71,-833.5 300.71,-830 290.71,-826.5 290.71,-833.5"/>
<text text-anchor="middle" x="220.62" y="-832.45" font-family="Helvetica,sans-Serif" font-size="14.00" fill="#66cdaa">QueueEnd</text>
</g>
</g>
</svg>
