<?xml version="1.0" encoding="UTF-8" standalone="no"?>
<!DOCTYPE svg PUBLIC "-//W3C//DTD SVG 1.1//EN"
 "http://www.w3.org/Graphics/SVG/1.1/DTD/svg11.dtd">
<!-- Generated by graphviz version 12.2.1 (20241206.2353)
 -->
<!-- Title: Foo Pages: 1 -->
<svg width="546pt" height="902pt"
 viewBox="0.00 0.00 545.50 902.00" xmlns="http://www.w3.org/2000/svg" xmlns:xlink="http://www.w3.org/1999/xlink">
<g id="graph0" class="graph" transform="scale(1 1) rotate(0) translate(4 898)">
<title>Foo</title>
<polygon fill="white" stroke="none" points="-4,4 -4,-898 541.5,-898 541.5,4 -4,4"/>
<g id="clust1" class="cluster">
<title>cluster_attacksensors</title>
<polygon fill="none" stroke="black" points="8,-8 8,-402 366.73,-402 366.73,-8 8,-8"/>
<text text-anchor="middle" x="187.36" y="-384.7" font-family="Helvetica,sans-Serif" font-size="14.00">Attack Sensors</text>
</g>
<!-- Level Once Sensor -->
<g id="node1" class="node">
<title>Level Once Sensor</title>
<polygon fill="none" stroke="black" points="28.5,-23.12 28.5,-44.88 157.5,-44.88 157.5,-23.12 28.5,-23.12"/>
<text text-anchor="start" x="31.5" y="-28.57" font-family="Helvetica,sans-Serif" font-size="14.00">Level Once Sensor &#160;</text>
</g>
<!-- Level Once Sensor_linked -->
<g id="node2" class="node">
<title>Level Once Sensor_linked</title>
<polygon fill="none" stroke="black" stroke-dasharray="1,5" points="358.73,-52 302.52,-52 302.52,-16 358.73,-16 358.73,-52"/>
<text text-anchor="start" x="308.12" y="-28.57" font-family="Helvetica,sans-Serif" font-size="14.00">Attack &#160;</text>
</g>
<!-- Level Once Sensor&#45;&gt;Level Once Sensor_linked -->
<g id="edge1" class="edge">
<title>Level Once Sensor&#45;&gt;Level Once Sensor_linked</title>
<path fill="none" stroke="#66cdaa" d="M165.33,-34C206.53,-34 256.76,-34 290.75,-34"/>
<polygon fill="#66cdaa" stroke="#66cdaa" points="290.54,-37.5 300.54,-34 290.54,-30.5 290.54,-37.5"/>
<text text-anchor="middle" x="220.62" y="-36.45" font-family="Helvetica,sans-Serif" font-size="14.00" fill="#66cdaa">QueueEnd</text>
</g>
<!-- RunAwaySensor -->
<g id="node3" class="node">
<title>RunAwaySensor</title>
<polygon fill="none" stroke="black" points="36,-77.12 36,-98.88 150,-98.88 150,-77.12 36,-77.12"/>
<text text-anchor="start" x="39" y="-82.58" font-family="Helvetica,sans-Serif" font-size="14.00">RunAwaySensor &#160;</text>
</g>
<!-- AttackSensor -->
<g id="node4" class="node">
<title>AttackSensor</title>
<polygon fill="none" stroke="black" points="46.12,-131.12 46.12,-152.88 139.88,-152.88 139.88,-131.12 46.12,-131.12"/>
<text text-anchor="start" x="49.12" y="-136.57" font-family="Helvetica,sans-Serif" font-size="14.00">AttackSensor &#160;</text>
</g>
<!-- AttackSensor_linked -->
<g id="node5" class="node">
<title>AttackSensor_linked</title>
<polygon fill="none" stroke="black" stroke-dasharray="1,5" points="358.73,-160 302.52,-160 302.52,-124 358.73,-124 358.73,-160"/>
<text text-anchor="start" x="308.12" y="-136.57" font-family="Helvetica,sans-Serif" font-size="14.00">Attack &#160;</text>
</g>
<!-- AttackSensor&#45;&gt;AttackSensor_linked -->
<g id="edge2" class="edge">
<title>AttackSensor&#45;&gt;AttackSensor_linked</title>
<path fill="none" stroke="#66cdaa" d="M147.76,-142C191.34,-142 251.71,-142 290.72,-142"/>
<polygon fill="#66cdaa" stroke="#66cdaa" points="290.58,-145.5 300.58,-142 290.58,-138.5 290.58,-145.5"/>
<text text-anchor="middle" x="220.62" y="-144.45" font-family="Helvetica,sans-Serif" font-size="14.00" fill="#66cdaa">QueueEnd</text>
</g>
<!-- DodgePredictSensor -->
<g id="node6" class="node">
<title>DodgePredictSensor</title>
<polygon fill="none" stroke="black" points="24,-204 24,-225.75 162,-225.75 162,-204 24,-204"/>
<text text-anchor="start" x="27" y="-209.45" font-family="Helvetica,sans-Serif" font-size="14.00">DodgePredictSensor &#160;</text>
<polygon fill="none" stroke="black" points="24,-182.25 24,-204 162,-204 162,-182.25 24,-182.25"/>
<text text-anchor="start" x="27" y="-188.7" font-family="Helvetica,sans-Serif" font-size="12.00" fill="#838b8b">if: rollingCondition</text>
<text text-anchor="start" x="123.75" y="-188.7" font-family="Helvetica,sans-Serif" font-size="14.00"> &#160;</text>
</g>
<!-- DodgePredictSensor_linked -->
<g id="node7" class="node">
<title>DodgePredictSensor_linked</title>
<polygon fill="none" stroke="black" stroke-dasharray="1,5" points="358.73,-222 302.52,-222 302.52,-186 358.73,-186 358.73,-222"/>
<text text-anchor="start" x="308.12" y="-198.57" font-family="Helvetica,sans-Serif" font-size="14.00">Attack &#160;</text>
</g>
<!-- DodgePredictSensor&#45;&gt;DodgePredictSensor_linked -->
<g id="edge3" class="edge">
<title>DodgePredictSensor&#45;&gt;DodgePredictSensor_linked</title>
<path fill="none" stroke="#66cdaa" d="M169.85,-204C210.23,-204 258.17,-204 290.94,-204"/>
<polygon fill="#66cdaa" stroke="#66cdaa" points="290.76,-207.5 300.76,-204 290.76,-200.5 290.76,-207.5"/>
<text text-anchor="middle" x="220.62" y="-206.45" font-family="Helvetica,sans-Serif" font-size="14.00" fill="#66cdaa">QueueEnd</text>
</g>
<!-- AttackPredictSensor -->
<g id="node8" class="node">
<title>AttackPredictSensor</title>
<polygon fill="none" stroke="black" points="25.12,-274 25.12,-295.75 160.88,-295.75 160.88,-274 25.12,-274"/>
<text text-anchor="start" x="28.12" y="-279.45" font-family="Helvetica,sans-Serif" font-size="14.00">AttackPredictSensor &#160;</text>
<polygon fill="none" stroke="black" points="25.12,-252.25 25.12,-274 160.88,-274 160.88,-252.25 25.12,-252.25"/>
<text text-anchor="start" x="28.12" y="-258.7" font-family="Helvetica,sans-Serif" font-size="12.00" fill="#838b8b">if: attackCondition</text>
<text text-anchor="start" x="123.38" y="-258.7" font-family="Helvetica,sans-Serif" font-size="14.00"> &#160;</text>
</g>
<!-- AttackPredictSensor_linked -->
<g id="node9" class="node">
<title>AttackPredictSensor_linked</title>
<polygon fill="none" stroke="black" stroke-dasharray="1,5" points="358.73,-292 302.52,-292 302.52,-256 358.73,-256 358.73,-292"/>
<text text-anchor="start" x="308.12" y="-268.57" font-family="Helvetica,sans-Serif" font-size="14.00">Attack &#160;</text>
</g>
<!-- AttackPredictSensor&#45;&gt;AttackPredictSensor_linked -->
<g id="edge4" class="edge">
<title>AttackPredictSensor&#45;&gt;AttackPredictSensor_linked</title>
<path fill="none" stroke="#66cdaa" d="M168.55,-274C209.14,-274 257.68,-274 290.79,-274"/>
<polygon fill="#66cdaa" stroke="#66cdaa" points="290.74,-277.5 300.74,-274 290.74,-270.5 290.74,-277.5"/>
<text text-anchor="middle" x="220.62" y="-276.45" font-family="Helvetica,sans-Serif" font-size="14.00" fill="#66cdaa">QueueEnd</text>
</g>
<!-- AttackRunToSensor -->
<g id="node10" class="node">
<title>AttackRunToSensor</title>
<polygon fill="none" stroke="black" points="26.62,-344 26.62,-365.75 159.38,-365.75 159.38,-344 26.62,-344"/>
<text text-anchor="start" x="29.62" y="-349.45" font-family="Helvetica,sans-Serif" font-size="14.00">AttackRunToSensor &#160;</text>
<polygon fill="none" stroke="black" points="26.62,-322.25 26.62,-344 159.38,-344 159.38,-322.25 26.62,-322.25"/>
<text text-anchor="start" x="29.62" y="-328.7" font-family="Helvetica,sans-Serif" font-size="12.00" fill="#838b8b">if: state is Engaging</text>
<text text-anchor="start" x="133.88" y="-328.7" font-family="Helvetica,sans-Serif" font-size="14.00"> &#160;</text>
</g>
<!-- AttackRunToSensor_linked -->
<g id="node11" class="node">
<title>AttackRunToSensor_linked</title>
<polygon fill="none" stroke="black" stroke-dasharray="1,5" points="358.73,-362 302.52,-362 302.52,-326 358.73,-326 358.73,-362"/>
<text text-anchor="start" x="308.12" y="-338.57" font-family="Helvetica,sans-Serif" font-size="14.00">Attack &#160;</text>
</g>
<!-- AttackRunToSensor&#45;&gt;AttackRunToSensor_linked -->
<g id="edge5" class="edge">
<title>AttackRunToSensor&#45;&gt;AttackRunToSensor_linked</title>
<path fill="none" stroke="#66cdaa" d="M167.26,-344C208.23,-344 257.62,-344 291.09,-344"/>
<polygon fill="#66cdaa" stroke="#66cdaa" points="290.71,-347.5 300.71,-344 290.71,-340.5 290.71,-347.5"/>
<text text-anchor="middle" x="220.62" y="-346.45" font-family="Helvetica,sans-Serif" font-size="14.00" fill="#66cdaa">QueueEnd</text>
</g>
<!-- Attack -->
<g id="node12" class="node">
<title>Attack</title>
<polygon fill="none" stroke="black" points="54,-652 54,-673.75 132,-673.75 132,-652 54,-652"/>
<text text-anchor="start" x="70.5" y="-657.45" font-family="Helvetica,sans-Serif" font-size="14.00">Attack &#160;</text>
<polygon fill="none" stroke="black" points="54,-630.25 54,-652 132,-652 132,-630.25 54,-630.25"/>
<text text-anchor="start" x="57" y="-636.7" font-family="Helvetica,sans-Serif" font-size="12.00" fill="#838b8b">1.33s: Done</text>
<text text-anchor="start" x="121.5" y="-636.7" font-family="Helvetica,sans-Serif" font-size="14.00"> &#160;</text>
</g>
<!-- Engaging -->
<g id="node13" class="node">
<title>Engaging</title>
<polygon fill="none" stroke="black" points="367.12,-554 294.12,-554 294.12,-518 367.12,-518 367.12,-554"/>
<text text-anchor="middle" x="330.62" y="-530.58" font-family="Helvetica,sans-Serif" font-size="14.00">Engaging</text>
</g>
<!-- Attack&#45;&gt;Engaging -->
<g id="edge6" class="edge">
<title>Attack&#45;&gt;Engaging</title>
<path fill="none" stroke="#cdc8b1" d="M139.94,-631.16C149.88,-626.56 160.32,-621.67 170,-617 208.9,-598.24 252.6,-575.98 284.43,-559.55"/>
<polygon fill="#cdc8b1" stroke="#cdc8b1" points="285.71,-562.83 292.98,-555.12 282.49,-556.61 285.71,-562.83"/>
</g>
<!-- AttackParrying -->
<g id="node14" class="node">
<title>AttackParrying</title>
<polygon fill="none" stroke="black" points="42.38,-579.12 42.38,-600.88 143.62,-600.88 143.62,-579.12 42.38,-579.12"/>
<text text-anchor="start" x="45.38" y="-584.58" font-family="Helvetica,sans-Serif" font-size="14.00">AttackParrying &#160;</text>
</g>
<!-- AttackParrying&#45;&gt;Engaging -->
<g id="edge7" class="edge">
<title>AttackParrying&#45;&gt;Engaging</title>
<path fill="none" stroke="#cdc8b1" d="M151.34,-576.86C191.58,-567.64 244.75,-555.45 282.52,-546.8"/>
<polygon fill="#cdc8b1" stroke="#cdc8b1" points="283.27,-550.21 292.24,-544.57 281.71,-543.39 283.27,-550.21"/>
</g>
<!-- HurtState -->
<g id="node15" class="node">
<title>HurtState</title>
<polygon fill="none" stroke="black" points="57.75,-811.12 57.75,-832.88 128.25,-832.88 128.25,-811.12 57.75,-811.12"/>
<text text-anchor="start" x="60.75" y="-816.58" font-family="Helvetica,sans-Serif" font-size="14.00">HurtState &#160;</text>
</g>
<!-- PreAttack -->
<g id="node16" class="node">
<title>PreAttack</title>
<polygon fill="none" stroke="black" points="367.88,-786 293.38,-786 293.38,-750 367.88,-750 367.88,-786"/>
<text text-anchor="middle" x="330.62" y="-762.58" font-family="Helvetica,sans-Serif" font-size="14.00">PreAttack</text>
</g>
<!-- HurtState&#45;&gt;PreAttack -->
<g id="edge8" class="edge">
<title>HurtState&#45;&gt;PreAttack</title>
<path fill="none" stroke="#cdc8b1" d="M136.13,-812.35C177.07,-802.96 239.18,-788.73 281.93,-778.93"/>
<polygon fill="#cdc8b1" stroke="#cdc8b1" points="282.45,-782.4 291.42,-776.76 280.89,-775.58 282.45,-782.4"/>
</g>
<!-- Hurt_BigState -->
<g id="node17" class="node">
<title>Hurt_BigState</title>
<polygon fill="none" stroke="black" points="44.25,-757.12 44.25,-778.88 141.75,-778.88 141.75,-757.12 44.25,-757.12"/>
<text text-anchor="start" x="47.25" y="-762.58" font-family="Helvetica,sans-Serif" font-size="14.00">Hurt_BigState &#160;</text>
</g>
<!-- Hurt_BigState&#45;&gt;PreAttack -->
<g id="edge9" class="edge">
<title>Hurt_BigState&#45;&gt;PreAttack</title>
<path fill="none" stroke="#cdc8b1" d="M149.54,-768C189.74,-768 243.51,-768 281.8,-768"/>
<polygon fill="#cdc8b1" stroke="#cdc8b1" points="281.64,-771.5 291.64,-768 281.64,-764.5 281.64,-771.5"/>
</g>
<!-- JumpBack -->
<g id="node18" class="node">
<title>JumpBack</title>
<polygon fill="none" stroke="black" points="54.38,-525.12 54.38,-546.88 131.62,-546.88 131.62,-525.12 54.38,-525.12"/>
<text text-anchor="start" x="57.38" y="-530.58" font-family="Helvetica,sans-Serif" font-size="14.00">JumpBack &#160;</text>
</g>
<!-- JumpBack&#45;&gt;Engaging -->
<g id="edge10" class="edge">
<title>JumpBack&#45;&gt;Engaging</title>
<path fill="none" stroke="#cdc8b1" d="M139.43,-536C180.54,-536 240.84,-536 282.47,-536"/>
<polygon fill="#cdc8b1" stroke="#cdc8b1" points="282.44,-539.5 292.44,-536 282.44,-532.5 282.44,-539.5"/>
</g>
<!-- PostureBreak -->
<g id="node19" class="node">
<title>PostureBreak</title>
<polygon fill="none" stroke="black" points="45.38,-703.12 45.38,-724.88 140.62,-724.88 140.62,-703.12 45.38,-703.12"/>
<text text-anchor="start" x="48.38" y="-708.58" font-family="Helvetica,sans-Serif" font-size="14.00">PostureBreak &#160;</text>
</g>
<!-- PostureBreak&#45;&gt;PreAttack -->
<g id="edge11" class="edge">
<title>PostureBreak&#45;&gt;PreAttack</title>
<path fill="none" stroke="#cdc8b1" d="M148.35,-726.46C188.8,-735.73 243.48,-748.26 282.17,-757.12"/>
<polygon fill="#cdc8b1" stroke="#cdc8b1" points="281.13,-760.48 291.66,-759.3 282.69,-753.65 281.13,-760.48"/>
</g>
<!-- RollThrough -->
<g id="node20" class="node">
<title>RollThrough</title>
<polygon fill="none" stroke="black" points="49.5,-471.12 49.5,-492.88 136.5,-492.88 136.5,-471.12 49.5,-471.12"/>
<text text-anchor="start" x="52.5" y="-476.57" font-family="Helvetica,sans-Serif" font-size="14.00">RollThrough &#160;</text>
</g>
<!-- RollThrough&#45;&gt;Engaging -->
<g id="edge12" class="edge">
<title>RollThrough&#45;&gt;Engaging</title>
<path fill="none" stroke="#cdc8b1" d="M144.26,-493.52C185.19,-502.9 242.54,-516.04 282.58,-525.22"/>
<polygon fill="#cdc8b1" stroke="#cdc8b1" points="281.64,-528.59 292.17,-527.41 283.2,-521.77 281.64,-528.59"/>
</g>
<!-- StandUp -->
<g id="node21" class="node">
<title>StandUp</title>
<polygon fill="none" stroke="black" points="60,-417.12 60,-438.88 126,-438.88 126,-417.12 60,-417.12"/>
<text text-anchor="start" x="63" y="-422.57" font-family="Helvetica,sans-Serif" font-size="14.00">StandUp &#160;</text>
</g>
<!-- StandUp&#45;&gt;Engaging -->
<g id="edge13" class="edge">
<title>StandUp&#45;&gt;Engaging</title>
<path fill="none" stroke="#cdc8b1" d="M133.82,-441.06C145.59,-445.22 158.42,-450.03 170,-455 210.46,-472.37 255.02,-495.32 286.76,-512.35"/>
<polygon fill="#cdc8b1" stroke="#cdc8b1" points="284.79,-515.27 295.26,-516.94 288.12,-509.11 284.79,-515.27"/>
</g>
<!-- ZEnterState -->
<g id="node22" class="node">
<title>ZEnterState</title>
<text text-anchor="middle" x="330.62" y="-870.58" font-family="Helvetica,sans-Serif" font-size="14.00">ZEnterState (Init)</text>
</g>
<!-- Wandering_Idle -->
<g id="node23" class="node">
<title>Wandering_Idle</title>
<polygon fill="none" stroke="black" points="537.5,-894 427,-894 427,-858 537.5,-858 537.5,-894"/>
<text text-anchor="middle" x="482.25" y="-870.58" font-family="Helvetica,sans-Serif" font-size="14.00">Wandering_Idle</text>
</g>
<!-- ZEnterState&#45;&gt;Wandering_Idle -->
<g id="edge14" class="edge">
<title>ZEnterState&#45;&gt;Wandering_Idle</title>
<path fill="none" stroke="#cdc8b1" d="M389.9,-876C398.25,-876 406.89,-876 415.37,-876"/>
<polygon fill="#cdc8b1" stroke="#cdc8b1" points="415.29,-879.5 425.29,-876 415.29,-872.5 415.29,-879.5"/>
</g>
<!-- ZExitState -->
<g id="node24" class="node">
<title>ZExitState</title>
<polygon fill="none" stroke="black" points="55.12,-865.12 55.12,-886.88 130.88,-886.88 130.88,-865.12 55.12,-865.12"/>
<text text-anchor="start" x="58.12" y="-870.58" font-family="Helvetica,sans-Serif" font-size="14.00">ZExitState &#160;</text>
</g>
<!-- ZExitState&#45;&gt;ZEnterState -->
<g id="edge15" class="edge">
<title>ZExitState&#45;&gt;ZEnterState</title>
<path fill="none" stroke="#cdc8b1" d="M138.87,-876C173.14,-876 220.99,-876 260.19,-876"/>
<polygon fill="#cdc8b1" stroke="#cdc8b1" points="260.01,-879.5 270.01,-876 260.01,-872.5 260.01,-879.5"/>
</g>
</g>
</svg>
