<?xml version="1.0" encoding="UTF-8" standalone="no"?>
<!DOCTYPE svg PUBLIC "-//W3C//DTD SVG 1.1//EN"
 "http://www.w3.org/Graphics/SVG/1.1/DTD/svg11.dtd">
<!-- Generated by graphviz version 12.2.1 (20241206.2353)
 -->
<!-- Title: Foo Pages: 1 -->
<svg width="393pt" height="684pt"
 viewBox="0.00 0.00 392.75 684.00" xmlns="http://www.w3.org/2000/svg" xmlns:xlink="http://www.w3.org/1999/xlink">
<g id="graph0" class="graph" transform="scale(1 1) rotate(0) translate(4 680)">
<title>Foo</title>
<polygon fill="white" stroke="none" points="-4,4 -4,-680 388.75,-680 388.75,4 -4,4"/>
<g id="clust1" class="cluster">
<title>cluster_attacksensors</title>
<polygon fill="none" stroke="black" points="8,-8 8,-402 359.88,-402 359.88,-8 8,-8"/>
<text text-anchor="middle" x="183.94" y="-384.7" font-family="Helvetica,sans-Serif" font-size="14.00">Attack Sensors</text>
</g>
<!-- Level Once Sensor -->
<g id="node1" class="node">
<title>Level Once Sensor</title>
<polygon fill="none" stroke="black" points="28.5,-23.12 28.5,-44.88 157.5,-44.88 157.5,-23.12 28.5,-23.12"/>
<text text-anchor="start" x="31.5" y="-28.57" font-family="Helvetica,sans-Serif" font-size="14.00">Level Once Sensor &#160;</text>
</g>
<!-- Level Once Sensor_weight -->
<g id="node2" class="node">
<title>Level Once Sensor_weight</title>
<polygon fill="none" stroke="black" stroke-dasharray="1,5" points="351.88,-52 280.88,-52 280.88,-16 351.88,-16 351.88,-52"/>
<text text-anchor="start" x="290.88" y="-28.57" font-family="Helvetica,sans-Serif" font-size="14.00">1 Parry &#160;</text>
</g>
<!-- Level Once Sensor&#45;&gt;Level Once Sensor_weight -->
<g id="edge1" class="edge">
<title>Level Once Sensor&#45;&gt;Level Once Sensor_weight</title>
<path fill="none" stroke="#458b74" d="M165.26,-34C199.3,-34 239.05,-34 269.09,-34"/>
<polygon fill="#458b74" stroke="#458b74" points="269,-37.5 279,-34 269,-30.5 269,-37.5"/>
<text text-anchor="middle" x="209" y="-36.45" font-family="Helvetica,sans-Serif" font-size="14.00" fill="#458b74">Weight</text>
</g>
<!-- RunAwaySensor -->
<g id="node3" class="node">
<title>RunAwaySensor</title>
<polygon fill="none" stroke="black" points="36,-77.12 36,-98.88 150,-98.88 150,-77.12 36,-77.12"/>
<text text-anchor="start" x="39" y="-82.58" font-family="Helvetica,sans-Serif" font-size="14.00">RunAwaySensor &#160;</text>
</g>
<!-- AttackSensor -->
<g id="node4" class="node">
<title>AttackSensor</title>
<polygon fill="none" stroke="black" points="46.12,-131.12 46.12,-152.88 139.88,-152.88 139.88,-131.12 46.12,-131.12"/>
<text text-anchor="start" x="49.12" y="-136.57" font-family="Helvetica,sans-Serif" font-size="14.00">AttackSensor &#160;</text>
</g>
<!-- DodgePredictSensor -->
<g id="node5" class="node">
<title>DodgePredictSensor</title>
<polygon fill="none" stroke="black" points="24,-204 24,-225.75 162,-225.75 162,-204 24,-204"/>
<text text-anchor="start" x="27" y="-209.45" font-family="Helvetica,sans-Serif" font-size="14.00">DodgePredictSensor &#160;</text>
<polygon fill="none" stroke="black" points="24,-182.25 24,-204 162,-204 162,-182.25 24,-182.25"/>
<text text-anchor="start" x="27" y="-188.7" font-family="Helvetica,sans-Serif" font-size="12.00" fill="#838b8b">if: rollingCondition</text>
<text text-anchor="start" x="123.75" y="-188.7" font-family="Helvetica,sans-Serif" font-size="14.00"> &#160;</text>
</g>
<!-- AttackPredictSensor -->
<g id="node6" class="node">
<title>AttackPredictSensor</title>
<polygon fill="none" stroke="black" points="25.12,-274 25.12,-295.75 160.88,-295.75 160.88,-274 25.12,-274"/>
<text text-anchor="start" x="28.12" y="-279.45" font-family="Helvetica,sans-Serif" font-size="14.00">AttackPredictSensor &#160;</text>
<polygon fill="none" stroke="black" points="25.12,-252.25 25.12,-274 160.88,-274 160.88,-252.25 25.12,-252.25"/>
<text text-anchor="start" x="28.12" y="-258.7" font-family="Helvetica,sans-Serif" font-size="12.00" fill="#838b8b">if: attackCondition</text>
<text text-anchor="start" x="123.38" y="-258.7" font-family="Helvetica,sans-Serif" font-size="14.00"> &#160;</text>
</g>
<!-- AttackRunToSensor -->
<g id="node7" class="node">
<title>AttackRunToSensor</title>
<polygon fill="none" stroke="black" points="26.62,-344 26.62,-365.75 159.38,-365.75 159.38,-344 26.62,-344"/>
<text text-anchor="start" x="29.62" y="-349.45" font-family="Helvetica,sans-Serif" font-size="14.00">AttackRunToSensor &#160;</text>
<polygon fill="none" stroke="black" points="26.62,-322.25 26.62,-344 159.38,-344 159.38,-322.25 26.62,-322.25"/>
<text text-anchor="start" x="29.62" y="-328.7" font-family="Helvetica,sans-Serif" font-size="12.00" fill="#838b8b">if: state is Engaging</text>
<text text-anchor="start" x="133.88" y="-328.7" font-family="Helvetica,sans-Serif" font-size="14.00"> &#160;</text>
</g>
<!-- HurtState -->
<g id="node8" class="node">
<title>HurtState</title>
<polygon fill="none" stroke="black" points="45.38,-446.12 45.38,-467.88 140.62,-467.88 140.62,-446.12 45.38,-446.12"/>
<text text-anchor="start" x="60.75" y="-451.57" font-family="Helvetica,sans-Serif" font-size="14.00">HurtState &#160;</text>
<polygon fill="none" stroke="black" points="45.38,-414.12 45.38,-446.12 140.62,-446.12 140.62,-414.12 45.38,-414.12"/>
<text text-anchor="start" x="48.38" y="-432.73" font-family="Helvetica,sans-Serif" font-size="12.00" fill="#838b8b">0.00s: StartMove</text>
<text text-anchor="start" x="48.38" y="-418.83" font-family="Helvetica,sans-Serif" font-size="12.00" fill="#838b8b">0.33s: Done</text>
<text text-anchor="start" x="112.88" y="-418.83" font-family="Helvetica,sans-Serif" font-size="14.00"> &#160;</text>
</g>
<!-- Wandering_Walking -->
<g id="node9" class="node">
<title>Wandering_Walking</title>
<polygon fill="none" stroke="black" points="384.75,-459 248,-459 248,-423 384.75,-423 384.75,-459"/>
<text text-anchor="middle" x="316.38" y="-435.57" font-family="Helvetica,sans-Serif" font-size="14.00">Wandering_Walking</text>
</g>
<!-- HurtState&#45;&gt;Wandering_Walking -->
<g id="edge2" class="edge">
<title>HurtState&#45;&gt;Wandering_Walking</title>
<path fill="none" stroke="#cdc8b1" d="M148.44,-441C174.88,-441 207.17,-441 236.27,-441"/>
<polygon fill="#cdc8b1" stroke="#cdc8b1" points="236.16,-444.5 246.16,-441 236.16,-437.5 236.16,-444.5"/>
</g>
<!-- Parry -->
<g id="node10" class="node">
<title>Parry</title>
<polygon fill="none" stroke="black" points="45.38,-596.12 45.38,-617.88 140.62,-617.88 140.62,-596.12 45.38,-596.12"/>
<text text-anchor="start" x="73.12" y="-601.58" font-family="Helvetica,sans-Serif" font-size="14.00">Parry &#160;</text>
<polygon fill="none" stroke="black" points="45.38,-564.12 45.38,-596.12 140.62,-596.12 140.62,-564.12 45.38,-564.12"/>
<text text-anchor="start" x="48.38" y="-582.73" font-family="Helvetica,sans-Serif" font-size="12.00" fill="#838b8b">0.00s: StartMove</text>
<text text-anchor="start" x="48.38" y="-568.83" font-family="Helvetica,sans-Serif" font-size="12.00" fill="#838b8b">0.33s: Done</text>
<text text-anchor="start" x="112.88" y="-568.83" font-family="Helvetica,sans-Serif" font-size="14.00"> &#160;</text>
</g>
<!-- Engaging -->
<g id="node11" class="node">
<title>Engaging</title>
<polygon fill="none" stroke="black" points="352.88,-572 279.88,-572 279.88,-536 352.88,-536 352.88,-572"/>
<text text-anchor="middle" x="316.38" y="-548.58" font-family="Helvetica,sans-Serif" font-size="14.00">Engaging</text>
</g>
<!-- Parry&#45;&gt;Engaging -->
<g id="edge3" class="edge">
<title>Parry&#45;&gt;Engaging</title>
<path fill="none" stroke="#cdc8b1" d="M148.44,-581.9C185.29,-575.74 233.47,-567.69 268.59,-561.82"/>
<polygon fill="#cdc8b1" stroke="#cdc8b1" points="268.73,-565.35 278.01,-560.24 267.57,-558.44 268.73,-565.35"/>
</g>
<!-- RollThrough -->
<g id="node12" class="node">
<title>RollThrough</title>
<polygon fill="none" stroke="black" points="49.5,-516 49.5,-537.75 136.5,-537.75 136.5,-516 49.5,-516"/>
<text text-anchor="start" x="52.5" y="-521.45" font-family="Helvetica,sans-Serif" font-size="14.00">RollThrough &#160;</text>
<polygon fill="none" stroke="black" points="49.5,-494.25 49.5,-516 136.5,-516 136.5,-494.25 49.5,-494.25"/>
<text text-anchor="start" x="52.5" y="-500.7" font-family="Helvetica,sans-Serif" font-size="12.00" fill="#838b8b">0.67s: Done</text>
<text text-anchor="start" x="117" y="-500.7" font-family="Helvetica,sans-Serif" font-size="14.00"> &#160;</text>
</g>
<!-- RollThrough&#45;&gt;Engaging -->
<g id="edge4" class="edge">
<title>RollThrough&#45;&gt;Engaging</title>
<path fill="none" stroke="#cdc8b1" d="M144.23,-524.62C181.41,-531.01 231.72,-539.64 268.16,-545.9"/>
<polygon fill="#cdc8b1" stroke="#cdc8b1" points="267.53,-549.34 277.98,-547.58 268.72,-542.44 267.53,-549.34"/>
</g>
<!-- Wandering_Idle -->
<g id="node13" class="node">
<title>Wandering_Idle</title>
<polygon fill="none" stroke="black" points="163.62,-676 22.38,-676 22.38,-640 163.62,-640 163.62,-676"/>
<text text-anchor="middle" x="93" y="-652.58" font-family="Helvetica,sans-Serif" font-size="14.00">Wandering_Idle (Init)</text>
</g>
</g>
</svg>
