<?xml version="1.0" encoding="UTF-8" standalone="no"?>
<!DOCTYPE svg PUBLIC "-//W3C//DTD SVG 1.1//EN"
 "http://www.w3.org/Graphics/SVG/1.1/DTD/svg11.dtd">
<!-- Generated by graphviz version 12.2.1 (20241206.2353)
 -->
<!-- Title: Foo Pages: 1 -->
<svg width="453pt" height="1094pt"
 viewBox="0.00 0.00 452.50 1094.00" xmlns="http://www.w3.org/2000/svg" xmlns:xlink="http://www.w3.org/1999/xlink">
<g id="graph0" class="graph" transform="scale(1 1) rotate(0) translate(4 1090)">
<title>Foo</title>
<polygon fill="white" stroke="none" points="-4,4 -4,-1090 448.5,-1090 448.5,4 -4,4"/>
<g id="clust1" class="cluster">
<title>cluster_attacksensors</title>
<polygon fill="none" stroke="black" points="8,-8 8,-514 436.5,-514 436.5,-8 8,-8"/>
<text text-anchor="middle" x="222.25" y="-496.7" font-family="Helvetica,sans-Serif" font-size="14.00">Attack Sensors</text>
</g>
<!-- Level Once Sensor -->
<g id="node1" class="node">
<title>Level Once Sensor</title>
<polygon fill="none" stroke="black" points="34.12,-36.12 34.12,-57.88 163.12,-57.88 163.12,-36.12 34.12,-36.12"/>
<text text-anchor="start" x="37.12" y="-41.58" font-family="Helvetica,sans-Serif" font-size="14.00">Level Once Sensor &#160;</text>
</g>
<!-- Level Once Sensor_linked -->
<g id="node2" class="node">
<title>Level Once Sensor_linked</title>
<polygon fill="none" stroke="black" stroke-dasharray="1,5" points="409.85,-52 301.15,-52 301.15,-16 409.85,-16 409.85,-52"/>
<text text-anchor="start" x="306.75" y="-28.57" font-family="Helvetica,sans-Serif" font-size="14.00"> 追蹤追很久 &#160;</text>
</g>
<!-- Level Once Sensor&#45;&gt;Level Once Sensor_linked -->
<g id="edge1" class="edge">
<title>Level Once Sensor&#45;&gt;Level Once Sensor_linked</title>
<path fill="none" stroke="#66cdaa" d="M170.96,-43.36C208.17,-41.46 253.35,-39.16 289.57,-37.31"/>
<polygon fill="#66cdaa" stroke="#66cdaa" points="289.68,-40.81 299.49,-36.81 289.32,-33.82 289.68,-40.81"/>
<text text-anchor="middle" x="231.88" y="-44.11" font-family="Helvetica,sans-Serif" font-size="14.00" fill="#66cdaa">QueueEnd</text>
</g>
<!-- Level Once Sensor_weight -->
<g id="node3" class="node">
<title>Level Once Sensor_weight</title>
<polygon fill="none" stroke="black" stroke-dasharray="1,5" points="419.88,-106 291.12,-106 291.12,-70 419.88,-70 419.88,-106"/>
<text text-anchor="start" x="301.12" y="-82.58" font-family="Helvetica,sans-Serif" font-size="14.00">1 &#160;追蹤追很久 &#160;</text>
</g>
<!-- Level Once Sensor&#45;&gt;Level Once Sensor_weight -->
<g id="edge2" class="edge">
<title>Level Once Sensor&#45;&gt;Level Once Sensor_weight</title>
<path fill="none" stroke="#458b74" d="M170.96,-58.48C204.98,-63.95 245.66,-70.49 280.07,-76.03"/>
<polygon fill="#458b74" stroke="#458b74" points="279.08,-79.41 289.51,-77.55 280.19,-72.5 279.08,-79.41"/>
<text text-anchor="middle" x="231.88" y="-74.83" font-family="Helvetica,sans-Serif" font-size="14.00" fill="#458b74">Weight</text>
</g>
<!-- RunAwaySensor -->
<g id="node4" class="node">
<title>RunAwaySensor</title>
<polygon fill="none" stroke="black" points="41.62,-100.12 41.62,-121.88 155.62,-121.88 155.62,-100.12 41.62,-100.12"/>
<text text-anchor="start" x="44.62" y="-105.58" font-family="Helvetica,sans-Serif" font-size="14.00">RunAwaySensor &#160;</text>
</g>
<!-- AttackSensor -->
<g id="node5" class="node">
<title>AttackSensor</title>
<polygon fill="none" stroke="black" points="24,-196 24,-217.75 173.25,-217.75 173.25,-196 24,-196"/>
<text text-anchor="start" x="54.75" y="-201.45" font-family="Helvetica,sans-Serif" font-size="14.00">AttackSensor &#160;</text>
<polygon fill="none" stroke="black" points="24,-174.25 24,-196 173.25,-196 173.25,-174.25 24,-174.25"/>
<text text-anchor="start" x="27" y="-180.7" font-family="Helvetica,sans-Serif" font-size="12.00" fill="#838b8b">if: 伏羲有空 Condition</text>
<text text-anchor="start" x="162.75" y="-180.7" font-family="Helvetica,sans-Serif" font-size="14.00"> &#160;</text>
</g>
<!-- AttackSensor_linked -->
<g id="node6" class="node">
<title>AttackSensor_linked</title>
<polygon fill="none" stroke="black" stroke-dasharray="1,5" points="409.85,-160 301.15,-160 301.15,-124 409.85,-124 409.85,-160"/>
<text text-anchor="start" x="306.75" y="-136.57" font-family="Helvetica,sans-Serif" font-size="14.00"> 追蹤追很久 &#160;</text>
</g>
<!-- AttackSensor&#45;&gt;AttackSensor_linked -->
<g id="edge3" class="edge">
<title>AttackSensor&#45;&gt;AttackSensor_linked</title>
<path fill="none" stroke="#66cdaa" d="M180.97,-178.77C216.18,-171.31 256.81,-162.7 289.91,-155.69"/>
<polygon fill="#66cdaa" stroke="#66cdaa" points="290.28,-159.18 299.34,-153.69 288.83,-152.34 290.28,-159.18"/>
<text text-anchor="middle" x="231.88" y="-176.29" font-family="Helvetica,sans-Serif" font-size="14.00" fill="#66cdaa">QueueEnd</text>
</g>
<!-- AttackSensor_mustuse -->
<g id="node7" class="node">
<title>AttackSensor_mustuse</title>
<polygon fill="none" stroke="black" points="301.75,-183.12 301.75,-208.88 409.25,-208.88 409.25,-183.12 301.75,-183.12"/>
<text text-anchor="start" x="306.75" y="-190.57" font-family="Helvetica,sans-Serif" font-size="14.00"> 追蹤追很久 &#160;</text>
</g>
<!-- AttackSensor&#45;&gt;AttackSensor_mustuse -->
<g id="edge4" class="edge">
<title>AttackSensor&#45;&gt;AttackSensor_mustuse</title>
<path fill="none" stroke="#ffc125" d="M180.97,-196C213.67,-196 251.04,-196 282.71,-196"/>
<polygon fill="#ffc125" stroke="#ffc125" points="282.59,-199.5 292.59,-196 282.59,-192.5 282.59,-199.5"/>
<text text-anchor="middle" x="231.88" y="-198.45" font-family="Helvetica,sans-Serif" font-size="14.00" fill="#ffc125">Initial</text>
</g>
<!-- AttackSensor_weight -->
<g id="node8" class="node">
<title>AttackSensor_weight</title>
<polygon fill="none" stroke="black" stroke-dasharray="1,5" points="428.5,-319.5 282.5,-319.5 282.5,-232.5 428.5,-232.5 428.5,-319.5"/>
<text text-anchor="start" x="301.12" y="-300.2" font-family="Helvetica,sans-Serif" font-size="14.00">1 &#160;追蹤追很久 &#160;</text>
<text text-anchor="start" x="301.12" y="-280.45" font-family="Helvetica,sans-Serif" font-size="14.00">1 &#160;上蛇蛇掉落 &#160;</text>
<text text-anchor="start" x="292.5" y="-260.7" font-family="Helvetica,sans-Serif" font-size="14.00">1 &#160;左蛇蛇右蛇蛇 &#160;</text>
<text text-anchor="start" x="309.75" y="-240.95" font-family="Helvetica,sans-Serif" font-size="14.00">1 &#160;逼到對邊 &#160;</text>
</g>
<!-- AttackSensor&#45;&gt;AttackSensor_weight -->
<g id="edge5" class="edge">
<title>AttackSensor&#45;&gt;AttackSensor_weight</title>
<path fill="none" stroke="#458b74" d="M180.97,-221.53C209.78,-230.57 242.22,-240.76 271.19,-249.85"/>
<polygon fill="#458b74" stroke="#458b74" points="270.07,-253.17 280.66,-252.82 272.17,-246.49 270.07,-253.17"/>
<text text-anchor="middle" x="231.88" y="-247.97" font-family="Helvetica,sans-Serif" font-size="14.00" fill="#458b74">Weight</text>
</g>
<!-- DodgePredictSensor -->
<g id="node9" class="node">
<title>DodgePredictSensor</title>
<polygon fill="none" stroke="black" points="29.62,-316 29.62,-337.75 167.62,-337.75 167.62,-316 29.62,-316"/>
<text text-anchor="start" x="32.62" y="-321.45" font-family="Helvetica,sans-Serif" font-size="14.00">DodgePredictSensor &#160;</text>
<polygon fill="none" stroke="black" points="29.62,-294.25 29.62,-316 167.62,-316 167.62,-294.25 29.62,-294.25"/>
<text text-anchor="start" x="32.62" y="-300.7" font-family="Helvetica,sans-Serif" font-size="12.00" fill="#838b8b">if: rollingCondition</text>
<text text-anchor="start" x="129.38" y="-300.7" font-family="Helvetica,sans-Serif" font-size="14.00"> &#160;</text>
</g>
<!-- DodgePredictSensor_linked -->
<g id="node10" class="node">
<title>DodgePredictSensor_linked</title>
<polygon fill="none" stroke="black" stroke-dasharray="1,5" points="409.85,-374 301.15,-374 301.15,-338 409.85,-338 409.85,-374"/>
<text text-anchor="start" x="306.75" y="-350.57" font-family="Helvetica,sans-Serif" font-size="14.00"> 追蹤追很久 &#160;</text>
</g>
<!-- DodgePredictSensor&#45;&gt;DodgePredictSensor_linked -->
<g id="edge6" class="edge">
<title>DodgePredictSensor&#45;&gt;DodgePredictSensor_linked</title>
<path fill="none" stroke="#66cdaa" d="M175.41,-327.89C211.82,-333.61 255,-340.39 289.84,-345.85"/>
<polygon fill="#66cdaa" stroke="#66cdaa" points="288.93,-349.25 299.35,-347.34 290.01,-342.34 288.93,-349.25"/>
<text text-anchor="middle" x="231.88" y="-343.21" font-family="Helvetica,sans-Serif" font-size="14.00" fill="#66cdaa">QueueEnd</text>
</g>
<!-- AttackPredictSensor -->
<g id="node11" class="node">
<title>AttackPredictSensor</title>
<polygon fill="none" stroke="black" points="30.75,-386 30.75,-407.75 166.5,-407.75 166.5,-386 30.75,-386"/>
<text text-anchor="start" x="33.75" y="-391.45" font-family="Helvetica,sans-Serif" font-size="14.00">AttackPredictSensor &#160;</text>
<polygon fill="none" stroke="black" points="30.75,-364.25 30.75,-386 166.5,-386 166.5,-364.25 30.75,-364.25"/>
<text text-anchor="start" x="33.75" y="-370.7" font-family="Helvetica,sans-Serif" font-size="12.00" fill="#838b8b">if: attackCondition</text>
<text text-anchor="start" x="129" y="-370.7" font-family="Helvetica,sans-Serif" font-size="14.00"> &#160;</text>
</g>
<!-- AttackPredictSensor_linked -->
<g id="node12" class="node">
<title>AttackPredictSensor_linked</title>
<polygon fill="none" stroke="black" stroke-dasharray="1,5" points="409.85,-428 301.15,-428 301.15,-392 409.85,-392 409.85,-428"/>
<text text-anchor="start" x="306.75" y="-404.57" font-family="Helvetica,sans-Serif" font-size="14.00"> 追蹤追很久 &#160;</text>
</g>
<!-- AttackPredictSensor&#45;&gt;AttackPredictSensor_linked -->
<g id="edge7" class="edge">
<title>AttackPredictSensor&#45;&gt;AttackPredictSensor_linked</title>
<path fill="none" stroke="#66cdaa" d="M174.37,-393.04C210.96,-396.48 254.57,-400.59 289.72,-403.9"/>
<polygon fill="#66cdaa" stroke="#66cdaa" points="289.02,-407.35 299.3,-404.8 289.68,-400.38 289.02,-407.35"/>
<text text-anchor="middle" x="231.88" y="-403.31" font-family="Helvetica,sans-Serif" font-size="14.00" fill="#66cdaa">QueueEnd</text>
</g>
<!-- AttackRunToSensor -->
<g id="node13" class="node">
<title>AttackRunToSensor</title>
<polygon fill="none" stroke="black" points="32.25,-456 32.25,-477.75 165,-477.75 165,-456 32.25,-456"/>
<text text-anchor="start" x="35.25" y="-461.45" font-family="Helvetica,sans-Serif" font-size="14.00">AttackRunToSensor &#160;</text>
<polygon fill="none" stroke="black" points="32.25,-434.25 32.25,-456 165,-456 165,-434.25 32.25,-434.25"/>
<text text-anchor="start" x="35.25" y="-440.7" font-family="Helvetica,sans-Serif" font-size="12.00" fill="#838b8b">if: state is Engaging</text>
<text text-anchor="start" x="139.5" y="-440.7" font-family="Helvetica,sans-Serif" font-size="14.00"> &#160;</text>
</g>
<!-- AttackRunToSensor_linked -->
<g id="node14" class="node">
<title>AttackRunToSensor_linked</title>
<polygon fill="none" stroke="black" stroke-dasharray="1,5" points="409.85,-482 301.15,-482 301.15,-446 409.85,-446 409.85,-482"/>
<text text-anchor="start" x="306.75" y="-458.57" font-family="Helvetica,sans-Serif" font-size="14.00"> 追蹤追很久 &#160;</text>
</g>
<!-- AttackRunToSensor&#45;&gt;AttackRunToSensor_linked -->
<g id="edge8" class="edge">
<title>AttackRunToSensor&#45;&gt;AttackRunToSensor_linked</title>
<path fill="none" stroke="#66cdaa" d="M172.66,-458.29C209.56,-459.45 253.95,-460.84 289.64,-461.96"/>
<polygon fill="#66cdaa" stroke="#66cdaa" points="289.28,-465.45 299.38,-462.27 289.5,-458.46 289.28,-465.45"/>
<text text-anchor="middle" x="231.88" y="-463.4" font-family="Helvetica,sans-Serif" font-size="14.00" fill="#66cdaa">QueueEnd</text>
</g>
<!--  追蹤追很久 -->
<g id="node15" class="node">
<title> 追蹤追很久</title>
<polygon fill="none" stroke="black" points="46.88,-898 46.88,-919.75 150.38,-919.75 150.38,-898 46.88,-898"/>
<text text-anchor="start" x="49.88" y="-903.45" font-family="Helvetica,sans-Serif" font-size="14.00"> 追蹤追很久 &#160;</text>
<polygon fill="none" stroke="black" points="46.88,-876.25 46.88,-898 150.38,-898 150.38,-876.25 46.88,-876.25"/>
<text text-anchor="start" x="49.88" y="-882.7" font-family="Helvetica,sans-Serif" font-size="12.00" fill="#838b8b">4.50s: Done</text>
<text text-anchor="start" x="114.38" y="-882.7" font-family="Helvetica,sans-Serif" font-size="14.00"> &#160;</text>
</g>
<!-- Engaging -->
<g id="node16" class="node">
<title>Engaging</title>
<polygon fill="none" stroke="black" points="392,-741 319,-741 319,-705 392,-705 392,-741"/>
<text text-anchor="middle" x="355.5" y="-717.58" font-family="Helvetica,sans-Serif" font-size="14.00">Engaging</text>
</g>
<!--  追蹤追很久&#45;&gt;Engaging -->
<g id="edge9" class="edge">
<title> 追蹤追很久&#45;&gt;Engaging</title>
<path fill="none" stroke="#cdc8b1" d="M158.13,-875.25C166.08,-871.49 173.99,-867.38 181.25,-863 237.19,-829.29 294.74,-779.11 327.41,-748.88"/>
<polygon fill="#cdc8b1" stroke="#cdc8b1" points="329.53,-751.69 334.45,-742.31 324.75,-746.57 329.53,-751.69"/>
</g>
<!--  上蛇蛇掉落 -->
<g id="node17" class="node">
<title> 上蛇蛇掉落</title>
<polygon fill="none" stroke="black" points="46.88,-828 46.88,-849.75 150.38,-849.75 150.38,-828 46.88,-828"/>
<text text-anchor="start" x="49.88" y="-833.45" font-family="Helvetica,sans-Serif" font-size="14.00"> 上蛇蛇掉落 &#160;</text>
<polygon fill="none" stroke="black" points="46.88,-806.25 46.88,-828 150.38,-828 150.38,-806.25 46.88,-806.25"/>
<text text-anchor="start" x="49.88" y="-812.7" font-family="Helvetica,sans-Serif" font-size="12.00" fill="#838b8b">10.02s: Done</text>
<text text-anchor="start" x="121.12" y="-812.7" font-family="Helvetica,sans-Serif" font-size="14.00"> &#160;</text>
</g>
<!--  上蛇蛇掉落&#45;&gt;Engaging -->
<g id="edge10" class="edge">
<title> 上蛇蛇掉落&#45;&gt;Engaging</title>
<path fill="none" stroke="#cdc8b1" d="M158.1,-803.91C203.66,-785.14 266.05,-759.44 308.19,-742.08"/>
<polygon fill="#cdc8b1" stroke="#cdc8b1" points="309.4,-745.37 317.31,-738.32 306.73,-738.89 309.4,-745.37"/>
</g>
<!--  左蛇蛇右蛇蛇 -->
<g id="node18" class="node">
<title> 左蛇蛇右蛇蛇</title>
<polygon fill="none" stroke="black" points="38.25,-758 38.25,-779.75 159,-779.75 159,-758 38.25,-758"/>
<text text-anchor="start" x="41.25" y="-763.45" font-family="Helvetica,sans-Serif" font-size="14.00"> 左蛇蛇右蛇蛇 &#160;</text>
<polygon fill="none" stroke="black" points="38.25,-736.25 38.25,-758 159,-758 159,-736.25 38.25,-736.25"/>
<text text-anchor="start" x="41.25" y="-742.7" font-family="Helvetica,sans-Serif" font-size="12.00" fill="#838b8b">10.00s: Done</text>
<text text-anchor="start" x="112.5" y="-742.7" font-family="Helvetica,sans-Serif" font-size="14.00"> &#160;</text>
</g>
<!--  左蛇蛇右蛇蛇&#45;&gt;Engaging -->
<g id="edge11" class="edge">
<title> 左蛇蛇右蛇蛇&#45;&gt;Engaging</title>
<path fill="none" stroke="#cdc8b1" d="M166.92,-748.76C211.13,-742.69 267.85,-734.9 307.3,-729.48"/>
<polygon fill="#cdc8b1" stroke="#cdc8b1" points="307.76,-732.95 317.2,-728.12 306.81,-726.02 307.76,-732.95"/>
</g>
<!--  追蹤紅球 -->
<g id="node19" class="node">
<title> 追蹤紅球</title>
<polygon fill="none" stroke="black" points="55.5,-688 55.5,-709.75 141.75,-709.75 141.75,-688 55.5,-688"/>
<text text-anchor="start" x="58.5" y="-693.45" font-family="Helvetica,sans-Serif" font-size="14.00"> 追蹤紅球 &#160;</text>
<polygon fill="none" stroke="black" points="55.5,-666.25 55.5,-688 141.75,-688 141.75,-666.25 55.5,-666.25"/>
<text text-anchor="start" x="58.5" y="-672.7" font-family="Helvetica,sans-Serif" font-size="12.00" fill="#838b8b">2.17s: Done</text>
<text text-anchor="start" x="123" y="-672.7" font-family="Helvetica,sans-Serif" font-size="14.00"> &#160;</text>
</g>
<!--  追蹤紅球&#45;&gt;Engaging -->
<g id="edge12" class="edge">
<title> 追蹤紅球&#45;&gt;Engaging</title>
<path fill="none" stroke="#cdc8b1" d="M149.68,-694.87C195.42,-701.15 262.57,-710.38 307.37,-716.53"/>
<polygon fill="#cdc8b1" stroke="#cdc8b1" points="306.65,-719.96 317.04,-717.86 307.61,-713.03 306.65,-719.96"/>
</g>
<!--  二連飛劍 -->
<g id="node20" class="node">
<title> 二連飛劍</title>
<polygon fill="none" stroke="black" points="55.5,-618 55.5,-639.75 141.75,-639.75 141.75,-618 55.5,-618"/>
<text text-anchor="start" x="58.5" y="-623.45" font-family="Helvetica,sans-Serif" font-size="14.00"> 二連飛劍 &#160;</text>
<polygon fill="none" stroke="black" points="55.5,-596.25 55.5,-618 141.75,-618 141.75,-596.25 55.5,-596.25"/>
<text text-anchor="start" x="58.5" y="-602.7" font-family="Helvetica,sans-Serif" font-size="12.00" fill="#838b8b">2.00s: Done</text>
<text text-anchor="start" x="123" y="-602.7" font-family="Helvetica,sans-Serif" font-size="14.00"> &#160;</text>
</g>
<!--  二連飛劍&#45;&gt;Engaging -->
<g id="edge13" class="edge">
<title> 二連飛劍&#45;&gt;Engaging</title>
<path fill="none" stroke="#cdc8b1" d="M149.68,-638.62C195.61,-657.54 263.14,-685.36 307.94,-703.82"/>
<polygon fill="#cdc8b1" stroke="#cdc8b1" points="306.56,-707.04 317.14,-707.61 309.23,-700.56 306.56,-707.04"/>
</g>
<!--  逼到對邊 -->
<g id="node21" class="node">
<title> 逼到對邊</title>
<polygon fill="none" stroke="black" points="55.5,-548 55.5,-569.75 141.75,-569.75 141.75,-548 55.5,-548"/>
<text text-anchor="start" x="58.5" y="-553.45" font-family="Helvetica,sans-Serif" font-size="14.00"> 逼到對邊 &#160;</text>
<polygon fill="none" stroke="black" points="55.5,-526.25 55.5,-548 141.75,-548 141.75,-526.25 55.5,-526.25"/>
<text text-anchor="start" x="58.5" y="-532.7" font-family="Helvetica,sans-Serif" font-size="12.00" fill="#838b8b">7.00s: Done</text>
<text text-anchor="start" x="123" y="-532.7" font-family="Helvetica,sans-Serif" font-size="14.00"> &#160;</text>
</g>
<!--  逼到對邊&#45;&gt;Engaging -->
<g id="edge14" class="edge">
<title> 逼到對邊&#45;&gt;Engaging</title>
<path fill="none" stroke="#cdc8b1" d="M149.48,-566.8C160.24,-571.56 171.35,-577.03 181.25,-583 237.19,-616.71 294.74,-666.89 327.41,-697.12"/>
<polygon fill="#cdc8b1" stroke="#cdc8b1" points="324.75,-699.43 334.45,-703.69 329.53,-694.31 324.75,-699.43"/>
</g>
<!-- HurtState -->
<g id="node22" class="node">
<title>HurtState</title>
<polygon fill="none" stroke="black" points="63.38,-1003.12 63.38,-1024.88 133.88,-1024.88 133.88,-1003.12 63.38,-1003.12"/>
<text text-anchor="start" x="66.38" y="-1008.58" font-family="Helvetica,sans-Serif" font-size="14.00">HurtState &#160;</text>
</g>
<!-- PreAttack -->
<g id="node23" class="node">
<title>PreAttack</title>
<polygon fill="none" stroke="black" points="392.75,-1005 318.25,-1005 318.25,-969 392.75,-969 392.75,-1005"/>
<text text-anchor="middle" x="355.5" y="-981.58" font-family="Helvetica,sans-Serif" font-size="14.00">PreAttack</text>
</g>
<!-- HurtState&#45;&gt;PreAttack -->
<g id="edge15" class="edge">
<title>HurtState&#45;&gt;PreAttack</title>
<path fill="none" stroke="#cdc8b1" d="M141.71,-1009.54C187.17,-1004.73 259.44,-997.07 306.92,-992.04"/>
<polygon fill="#cdc8b1" stroke="#cdc8b1" points="307.05,-995.55 316.63,-991.01 306.32,-988.58 307.05,-995.55"/>
</g>
<!-- Hurt_BigState -->
<g id="node24" class="node">
<title>Hurt_BigState</title>
<polygon fill="none" stroke="black" points="49.88,-949.12 49.88,-970.88 147.38,-970.88 147.38,-949.12 49.88,-949.12"/>
<text text-anchor="start" x="52.88" y="-954.58" font-family="Helvetica,sans-Serif" font-size="14.00">Hurt_BigState &#160;</text>
</g>
<!-- Hurt_BigState&#45;&gt;PreAttack -->
<g id="edge16" class="edge">
<title>Hurt_BigState&#45;&gt;PreAttack</title>
<path fill="none" stroke="#cdc8b1" d="M155.24,-965.89C200.46,-970.68 263.58,-977.37 306.59,-981.92"/>
<polygon fill="#cdc8b1" stroke="#cdc8b1" points="306.06,-985.39 316.37,-982.96 306.8,-978.43 306.06,-985.39"/>
</g>
<!-- Wandering_Idle -->
<g id="node25" class="node">
<title>Wandering_Idle</title>
<polygon fill="none" stroke="black" points="169.25,-1086 28,-1086 28,-1050 169.25,-1050 169.25,-1086"/>
<text text-anchor="middle" x="98.62" y="-1062.58" font-family="Helvetica,sans-Serif" font-size="14.00">Wandering_Idle (Init)</text>
</g>
</g>
</svg>
