<?xml version="1.0" encoding="UTF-8" standalone="no"?>
<!DOCTYPE svg PUBLIC "-//W3C//DTD SVG 1.1//EN"
 "http://www.w3.org/Graphics/SVG/1.1/DTD/svg11.dtd">
<!-- Generated by graphviz version 12.2.1 (20241206.2353)
 -->
<!-- Title: Foo Pages: 1 -->
<svg width="453pt" height="1040pt"
 viewBox="0.00 0.00 452.50 1039.75" xmlns="http://www.w3.org/2000/svg" xmlns:xlink="http://www.w3.org/1999/xlink">
<g id="graph0" class="graph" transform="scale(1 1) rotate(0) translate(4 1035.75)">
<title>Foo</title>
<polygon fill="white" stroke="none" points="-4,4 -4,-1035.75 448.5,-1035.75 448.5,4 -4,4"/>
<g id="clust1" class="cluster">
<title>cluster_attacksensors</title>
<polygon fill="none" stroke="black" points="8,-571.75 8,-1023.75 436.5,-1023.75 436.5,-571.75 8,-571.75"/>
<text text-anchor="middle" x="222.25" y="-1006.45" font-family="Helvetica,sans-Serif" font-size="14.00">Attack Sensors</text>
</g>
<!--  追蹤追很久 -->
<g id="node1" class="node">
<title> 追蹤追很久</title>
<polygon fill="none" stroke="black" points="46.88,-375.75 46.88,-397.5 150.38,-397.5 150.38,-375.75 46.88,-375.75"/>
<text text-anchor="start" x="49.88" y="-381.2" font-family="Helvetica,sans-Serif" font-size="14.00"> 追蹤追很久 &#160;</text>
<polygon fill="none" stroke="black" points="46.88,-354 46.88,-375.75 150.38,-375.75 150.38,-354 46.88,-354"/>
<text text-anchor="start" x="49.88" y="-360.45" font-family="Helvetica,sans-Serif" font-size="12.00" fill="#838b8b">4.50s: Done</text>
<text text-anchor="start" x="114.38" y="-360.45" font-family="Helvetica,sans-Serif" font-size="14.00"> &#160;</text>
</g>
<!-- Engaging -->
<g id="node2" class="node">
<title>Engaging</title>
<polygon fill="none" stroke="black" points="392,-218.75 319,-218.75 319,-182.75 392,-182.75 392,-218.75"/>
<text text-anchor="middle" x="355.5" y="-195.32" font-family="Helvetica,sans-Serif" font-size="14.00">Engaging</text>
</g>
<!--  追蹤追很久&#45;&gt;Engaging -->
<g id="edge1" class="edge">
<title> 追蹤追很久&#45;&gt;Engaging</title>
<path fill="none" stroke="#cdc8b1" d="M158.13,-353C166.08,-349.24 173.99,-345.13 181.25,-340.75 237.19,-307.04 294.74,-256.86 327.41,-226.63"/>
<polygon fill="#cdc8b1" stroke="#cdc8b1" points="329.53,-229.44 334.45,-220.06 324.75,-224.32 329.53,-229.44"/>
</g>
<!--  上蛇蛇掉落 -->
<g id="node3" class="node">
<title> 上蛇蛇掉落</title>
<polygon fill="none" stroke="black" points="46.88,-305.75 46.88,-327.5 150.38,-327.5 150.38,-305.75 46.88,-305.75"/>
<text text-anchor="start" x="49.88" y="-311.2" font-family="Helvetica,sans-Serif" font-size="14.00"> 上蛇蛇掉落 &#160;</text>
<polygon fill="none" stroke="black" points="46.88,-284 46.88,-305.75 150.38,-305.75 150.38,-284 46.88,-284"/>
<text text-anchor="start" x="49.88" y="-290.45" font-family="Helvetica,sans-Serif" font-size="12.00" fill="#838b8b">10.02s: Done</text>
<text text-anchor="start" x="121.12" y="-290.45" font-family="Helvetica,sans-Serif" font-size="14.00"> &#160;</text>
</g>
<!--  上蛇蛇掉落&#45;&gt;Engaging -->
<g id="edge2" class="edge">
<title> 上蛇蛇掉落&#45;&gt;Engaging</title>
<path fill="none" stroke="#cdc8b1" d="M158.1,-281.66C203.66,-262.89 266.05,-237.19 308.19,-219.83"/>
<polygon fill="#cdc8b1" stroke="#cdc8b1" points="309.4,-223.12 317.31,-216.07 306.73,-216.64 309.4,-223.12"/>
</g>
<!--  左蛇蛇右蛇蛇 -->
<g id="node4" class="node">
<title> 左蛇蛇右蛇蛇</title>
<polygon fill="none" stroke="black" points="38.25,-235.75 38.25,-257.5 159,-257.5 159,-235.75 38.25,-235.75"/>
<text text-anchor="start" x="41.25" y="-241.2" font-family="Helvetica,sans-Serif" font-size="14.00"> 左蛇蛇右蛇蛇 &#160;</text>
<polygon fill="none" stroke="black" points="38.25,-214 38.25,-235.75 159,-235.75 159,-214 38.25,-214"/>
<text text-anchor="start" x="41.25" y="-220.45" font-family="Helvetica,sans-Serif" font-size="12.00" fill="#838b8b">10.00s: Done</text>
<text text-anchor="start" x="112.5" y="-220.45" font-family="Helvetica,sans-Serif" font-size="14.00"> &#160;</text>
</g>
<!--  左蛇蛇右蛇蛇&#45;&gt;Engaging -->
<g id="edge3" class="edge">
<title> 左蛇蛇右蛇蛇&#45;&gt;Engaging</title>
<path fill="none" stroke="#cdc8b1" d="M166.92,-226.51C211.13,-220.44 267.85,-212.65 307.3,-207.23"/>
<polygon fill="#cdc8b1" stroke="#cdc8b1" points="307.76,-210.7 317.2,-205.87 306.81,-203.77 307.76,-210.7"/>
</g>
<!--  追蹤紅球 -->
<g id="node5" class="node">
<title> 追蹤紅球</title>
<polygon fill="none" stroke="black" points="55.5,-165.75 55.5,-187.5 141.75,-187.5 141.75,-165.75 55.5,-165.75"/>
<text text-anchor="start" x="58.5" y="-171.2" font-family="Helvetica,sans-Serif" font-size="14.00"> 追蹤紅球 &#160;</text>
<polygon fill="none" stroke="black" points="55.5,-144 55.5,-165.75 141.75,-165.75 141.75,-144 55.5,-144"/>
<text text-anchor="start" x="58.5" y="-150.45" font-family="Helvetica,sans-Serif" font-size="12.00" fill="#838b8b">2.17s: Done</text>
<text text-anchor="start" x="123" y="-150.45" font-family="Helvetica,sans-Serif" font-size="14.00"> &#160;</text>
</g>
<!--  追蹤紅球&#45;&gt;Engaging -->
<g id="edge4" class="edge">
<title> 追蹤紅球&#45;&gt;Engaging</title>
<path fill="none" stroke="#cdc8b1" d="M149.68,-172.62C195.42,-178.9 262.57,-188.13 307.37,-194.28"/>
<polygon fill="#cdc8b1" stroke="#cdc8b1" points="306.65,-197.71 317.04,-195.61 307.61,-190.78 306.65,-197.71"/>
</g>
<!--  二連飛劍 -->
<g id="node6" class="node">
<title> 二連飛劍</title>
<polygon fill="none" stroke="black" points="55.5,-95.75 55.5,-117.5 141.75,-117.5 141.75,-95.75 55.5,-95.75"/>
<text text-anchor="start" x="58.5" y="-101.2" font-family="Helvetica,sans-Serif" font-size="14.00"> 二連飛劍 &#160;</text>
<polygon fill="none" stroke="black" points="55.5,-74 55.5,-95.75 141.75,-95.75 141.75,-74 55.5,-74"/>
<text text-anchor="start" x="58.5" y="-80.45" font-family="Helvetica,sans-Serif" font-size="12.00" fill="#838b8b">2.00s: Done</text>
<text text-anchor="start" x="123" y="-80.45" font-family="Helvetica,sans-Serif" font-size="14.00"> &#160;</text>
</g>
<!--  二連飛劍&#45;&gt;Engaging -->
<g id="edge5" class="edge">
<title> 二連飛劍&#45;&gt;Engaging</title>
<path fill="none" stroke="#cdc8b1" d="M149.68,-116.37C195.61,-135.29 263.14,-163.11 307.94,-181.57"/>
<polygon fill="#cdc8b1" stroke="#cdc8b1" points="306.56,-184.79 317.14,-185.36 309.23,-178.31 306.56,-184.79"/>
</g>
<!--  逼到對邊 -->
<g id="node7" class="node">
<title> 逼到對邊</title>
<polygon fill="none" stroke="black" points="55.5,-25.75 55.5,-47.5 141.75,-47.5 141.75,-25.75 55.5,-25.75"/>
<text text-anchor="start" x="58.5" y="-31.2" font-family="Helvetica,sans-Serif" font-size="14.00"> 逼到對邊 &#160;</text>
<polygon fill="none" stroke="black" points="55.5,-4 55.5,-25.75 141.75,-25.75 141.75,-4 55.5,-4"/>
<text text-anchor="start" x="58.5" y="-10.45" font-family="Helvetica,sans-Serif" font-size="12.00" fill="#838b8b">7.00s: Done</text>
<text text-anchor="start" x="123" y="-10.45" font-family="Helvetica,sans-Serif" font-size="14.00"> &#160;</text>
</g>
<!--  逼到對邊&#45;&gt;Engaging -->
<g id="edge6" class="edge">
<title> 逼到對邊&#45;&gt;Engaging</title>
<path fill="none" stroke="#cdc8b1" d="M149.48,-44.55C160.24,-49.31 171.35,-54.78 181.25,-60.75 237.19,-94.46 294.74,-144.64 327.41,-174.87"/>
<polygon fill="#cdc8b1" stroke="#cdc8b1" points="324.75,-177.18 334.45,-181.44 329.53,-172.06 324.75,-177.18"/>
</g>
<!-- HurtState -->
<g id="node8" class="node">
<title>HurtState</title>
<polygon fill="none" stroke="black" points="135.12,-509.75 62.12,-509.75 62.12,-473.75 135.12,-473.75 135.12,-509.75"/>
<text text-anchor="middle" x="98.62" y="-486.32" font-family="Helvetica,sans-Serif" font-size="14.00">HurtState</text>
</g>
<!-- PreAttack -->
<g id="node9" class="node">
<title>PreAttack</title>
<polygon fill="none" stroke="black" points="392.75,-482.75 318.25,-482.75 318.25,-446.75 392.75,-446.75 392.75,-482.75"/>
<text text-anchor="middle" x="355.5" y="-459.32" font-family="Helvetica,sans-Serif" font-size="14.00">PreAttack</text>
</g>
<!-- HurtState&#45;&gt;PreAttack -->
<g id="edge7" class="edge">
<title>HurtState&#45;&gt;PreAttack</title>
<path fill="none" stroke="#cdc8b1" d="M135.6,-487.94C180.32,-483.2 256.79,-475.1 306.48,-469.84"/>
<polygon fill="#cdc8b1" stroke="#cdc8b1" points="306.8,-473.32 316.38,-468.79 306.06,-466.36 306.8,-473.32"/>
</g>
<!-- Hurt_BigState -->
<g id="node10" class="node">
<title>Hurt_BigState</title>
<polygon fill="none" stroke="black" points="148.62,-455.75 48.62,-455.75 48.62,-419.75 148.62,-419.75 148.62,-455.75"/>
<text text-anchor="middle" x="98.62" y="-432.32" font-family="Helvetica,sans-Serif" font-size="14.00">Hurt_BigState</text>
</g>
<!-- Hurt_BigState&#45;&gt;PreAttack -->
<g id="edge8" class="edge">
<title>Hurt_BigState&#45;&gt;PreAttack</title>
<path fill="none" stroke="#cdc8b1" d="M149.07,-442.99C194.61,-447.81 261.75,-454.92 306.75,-459.69"/>
<polygon fill="#cdc8b1" stroke="#cdc8b1" points="306.15,-463.15 316.47,-460.72 306.89,-456.19 306.15,-463.15"/>
</g>
<!-- Wandering_Idle -->
<g id="node11" class="node">
<title>Wandering_Idle</title>
<polygon fill="none" stroke="black" points="169.25,-563.75 28,-563.75 28,-527.75 169.25,-527.75 169.25,-563.75"/>
<text text-anchor="middle" x="98.62" y="-540.33" font-family="Helvetica,sans-Serif" font-size="14.00">Wandering_Idle (Init)</text>
</g>
<!-- Level Once Sensor -->
<g id="node12" class="node">
<title>Level Once Sensor</title>
<polygon fill="none" stroke="black" points="164.38,-622.75 32.88,-622.75 32.88,-586.75 164.38,-586.75 164.38,-622.75"/>
<text text-anchor="middle" x="98.62" y="-599.33" font-family="Helvetica,sans-Serif" font-size="14.00">Level Once Sensor</text>
</g>
<!-- Level Once Sensor_linked -->
<g id="node13" class="node">
<title>Level Once Sensor_linked</title>
<polygon fill="none" stroke="black" stroke-dasharray="1,5" points="409.85,-615.75 301.15,-615.75 301.15,-579.75 409.85,-579.75 409.85,-615.75"/>
<text text-anchor="start" x="306.75" y="-592.33" font-family="Helvetica,sans-Serif" font-size="14.00"> 追蹤追很久 &#160;</text>
</g>
<!-- Level Once Sensor&#45;&gt;Level Once Sensor_linked -->
<g id="edge9" class="edge">
<title>Level Once Sensor&#45;&gt;Level Once Sensor_linked</title>
<path fill="none" stroke="#66cdaa" d="M164.6,-602.97C202.99,-601.91 251.43,-600.58 289.78,-599.53"/>
<polygon fill="#66cdaa" stroke="#66cdaa" points="289.41,-603.04 299.31,-599.27 289.21,-596.04 289.41,-603.04"/>
<text text-anchor="middle" x="231.88" y="-604.33" font-family="Helvetica,sans-Serif" font-size="14.00" fill="#66cdaa">QueueEnd</text>
</g>
<!-- Level Once Sensor_mustuse -->
<g id="node14" class="node">
<title>Level Once Sensor_mustuse</title>
<polygon fill="none" stroke="black" stroke-dasharray="1,5" points="419.88,-669.75 291.12,-669.75 291.12,-633.75 419.88,-633.75 419.88,-669.75"/>
<text text-anchor="start" x="301.12" y="-646.33" font-family="Helvetica,sans-Serif" font-size="14.00">1 &#160;追蹤追很久 &#160;</text>
</g>
<!-- Level Once Sensor&#45;&gt;Level Once Sensor_mustuse -->
<g id="edge10" class="edge">
<title>Level Once Sensor&#45;&gt;Level Once Sensor_mustuse</title>
<path fill="none" stroke="#458b74" d="M164.6,-616.73C199.75,-623.21 243.33,-631.25 279.87,-637.99"/>
<polygon fill="#458b74" stroke="#458b74" points="279.01,-641.39 289.48,-639.76 280.28,-634.5 279.01,-641.39"/>
<text text-anchor="middle" x="231.88" y="-636.29" font-family="Helvetica,sans-Serif" font-size="14.00" fill="#458b74">Weight</text>
</g>
<!-- RunAwaySensor -->
<g id="node15" class="node">
<title>RunAwaySensor</title>
<polygon fill="none" stroke="black" points="156.88,-696.75 40.38,-696.75 40.38,-660.75 156.88,-660.75 156.88,-696.75"/>
<text text-anchor="middle" x="98.62" y="-673.33" font-family="Helvetica,sans-Serif" font-size="14.00">RunAwaySensor</text>
</g>
<!-- AttackSensor -->
<g id="node16" class="node">
<title>AttackSensor</title>
<polygon fill="none" stroke="black" points="24,-750.75 24,-772.5 173.25,-772.5 173.25,-750.75 24,-750.75"/>
<text text-anchor="start" x="54.75" y="-756.2" font-family="Helvetica,sans-Serif" font-size="14.00">AttackSensor &#160;</text>
<polygon fill="none" stroke="black" points="24,-729 24,-750.75 173.25,-750.75 173.25,-729 24,-729"/>
<text text-anchor="start" x="27" y="-735.45" font-family="Helvetica,sans-Serif" font-size="12.00" fill="#838b8b">if: 伏羲有空 Condition</text>
<text text-anchor="start" x="162.75" y="-735.45" font-family="Helvetica,sans-Serif" font-size="14.00"> &#160;</text>
</g>
<!-- AttackSensor_linked -->
<g id="node17" class="node">
<title>AttackSensor_linked</title>
<polygon fill="none" stroke="black" stroke-dasharray="1,5" points="409.85,-723.75 301.15,-723.75 301.15,-687.75 409.85,-687.75 409.85,-723.75"/>
<text text-anchor="start" x="306.75" y="-700.33" font-family="Helvetica,sans-Serif" font-size="14.00"> 追蹤追很久 &#160;</text>
</g>
<!-- AttackSensor&#45;&gt;AttackSensor_linked -->
<g id="edge11" class="edge">
<title>AttackSensor&#45;&gt;AttackSensor_linked</title>
<path fill="none" stroke="#66cdaa" d="M180.97,-736.39C216.18,-730.17 256.81,-723 289.91,-717.15"/>
<polygon fill="#66cdaa" stroke="#66cdaa" points="290.09,-720.68 299.33,-715.49 288.87,-713.78 290.09,-720.68"/>
<text text-anchor="middle" x="231.88" y="-734.73" font-family="Helvetica,sans-Serif" font-size="14.00" fill="#66cdaa">QueueEnd</text>
</g>
<!-- AttackSensor_mustuse -->
<g id="node18" class="node">
<title>AttackSensor_mustuse</title>
<polygon fill="none" stroke="black" stroke-dasharray="1,5" points="428.5,-829.25 282.5,-829.25 282.5,-742.25 428.5,-742.25 428.5,-829.25"/>
<text text-anchor="start" x="301.12" y="-809.95" font-family="Helvetica,sans-Serif" font-size="14.00">1 &#160;追蹤追很久 &#160;</text>
<text text-anchor="start" x="301.12" y="-790.2" font-family="Helvetica,sans-Serif" font-size="14.00">1 &#160;上蛇蛇掉落 &#160;</text>
<text text-anchor="start" x="292.5" y="-770.45" font-family="Helvetica,sans-Serif" font-size="14.00">1 &#160;左蛇蛇右蛇蛇 &#160;</text>
<text text-anchor="start" x="309.75" y="-750.7" font-family="Helvetica,sans-Serif" font-size="14.00">1 &#160;逼到對邊 &#160;</text>
</g>
<!-- AttackSensor&#45;&gt;AttackSensor_mustuse -->
<g id="edge12" class="edge">
<title>AttackSensor&#45;&gt;AttackSensor_mustuse</title>
<path fill="none" stroke="#458b74" d="M180.97,-761.92C209.65,-765.86 241.93,-770.29 270.8,-774.26"/>
<polygon fill="#458b74" stroke="#458b74" points="270.22,-777.71 280.6,-775.6 271.17,-770.77 270.22,-777.71"/>
<text text-anchor="middle" x="231.88" y="-774.86" font-family="Helvetica,sans-Serif" font-size="14.00" fill="#458b74">Weight</text>
</g>
<!-- DodgePredictSensor -->
<g id="node19" class="node">
<title>DodgePredictSensor</title>
<polygon fill="none" stroke="black" points="29.62,-825.75 29.62,-847.5 167.62,-847.5 167.62,-825.75 29.62,-825.75"/>
<text text-anchor="start" x="32.62" y="-831.2" font-family="Helvetica,sans-Serif" font-size="14.00">DodgePredictSensor &#160;</text>
<polygon fill="none" stroke="black" points="29.62,-804 29.62,-825.75 167.62,-825.75 167.62,-804 29.62,-804"/>
<text text-anchor="start" x="32.62" y="-810.45" font-family="Helvetica,sans-Serif" font-size="12.00" fill="#838b8b">if: rollingCondition</text>
<text text-anchor="start" x="129.38" y="-810.45" font-family="Helvetica,sans-Serif" font-size="14.00"> &#160;</text>
</g>
<!-- DodgePredictSensor_linked -->
<g id="node20" class="node">
<title>DodgePredictSensor_linked</title>
<polygon fill="none" stroke="black" stroke-dasharray="1,5" points="409.85,-883.75 301.15,-883.75 301.15,-847.75 409.85,-847.75 409.85,-883.75"/>
<text text-anchor="start" x="306.75" y="-860.33" font-family="Helvetica,sans-Serif" font-size="14.00"> 追蹤追很久 &#160;</text>
</g>
<!-- DodgePredictSensor&#45;&gt;DodgePredictSensor_linked -->
<g id="edge13" class="edge">
<title>DodgePredictSensor&#45;&gt;DodgePredictSensor_linked</title>
<path fill="none" stroke="#66cdaa" d="M175.41,-837.64C211.82,-843.36 255,-850.14 289.84,-855.6"/>
<polygon fill="#66cdaa" stroke="#66cdaa" points="288.93,-859 299.35,-857.09 290.01,-852.09 288.93,-859"/>
<text text-anchor="middle" x="231.88" y="-852.96" font-family="Helvetica,sans-Serif" font-size="14.00" fill="#66cdaa">QueueEnd</text>
</g>
<!-- AttackPredictSensor -->
<g id="node21" class="node">
<title>AttackPredictSensor</title>
<polygon fill="none" stroke="black" points="30.75,-895.75 30.75,-917.5 166.5,-917.5 166.5,-895.75 30.75,-895.75"/>
<text text-anchor="start" x="33.75" y="-901.2" font-family="Helvetica,sans-Serif" font-size="14.00">AttackPredictSensor &#160;</text>
<polygon fill="none" stroke="black" points="30.75,-874 30.75,-895.75 166.5,-895.75 166.5,-874 30.75,-874"/>
<text text-anchor="start" x="33.75" y="-880.45" font-family="Helvetica,sans-Serif" font-size="12.00" fill="#838b8b">if: attackCondition</text>
<text text-anchor="start" x="129" y="-880.45" font-family="Helvetica,sans-Serif" font-size="14.00"> &#160;</text>
</g>
<!-- AttackPredictSensor_linked -->
<g id="node22" class="node">
<title>AttackPredictSensor_linked</title>
<polygon fill="none" stroke="black" stroke-dasharray="1,5" points="409.85,-937.75 301.15,-937.75 301.15,-901.75 409.85,-901.75 409.85,-937.75"/>
<text text-anchor="start" x="306.75" y="-914.33" font-family="Helvetica,sans-Serif" font-size="14.00"> 追蹤追很久 &#160;</text>
</g>
<!-- AttackPredictSensor&#45;&gt;AttackPredictSensor_linked -->
<g id="edge14" class="edge">
<title>AttackPredictSensor&#45;&gt;AttackPredictSensor_linked</title>
<path fill="none" stroke="#66cdaa" d="M174.37,-902.79C210.96,-906.23 254.57,-910.34 289.72,-913.65"/>
<polygon fill="#66cdaa" stroke="#66cdaa" points="289.02,-917.1 299.3,-914.55 289.68,-910.13 289.02,-917.1"/>
<text text-anchor="middle" x="231.88" y="-913.06" font-family="Helvetica,sans-Serif" font-size="14.00" fill="#66cdaa">QueueEnd</text>
</g>
<!-- AttackRunToSensor -->
<g id="node23" class="node">
<title>AttackRunToSensor</title>
<polygon fill="none" stroke="black" points="32.25,-965.75 32.25,-987.5 165,-987.5 165,-965.75 32.25,-965.75"/>
<text text-anchor="start" x="35.25" y="-971.2" font-family="Helvetica,sans-Serif" font-size="14.00">AttackRunToSensor &#160;</text>
<polygon fill="none" stroke="black" points="32.25,-944 32.25,-965.75 165,-965.75 165,-944 32.25,-944"/>
<text text-anchor="start" x="35.25" y="-950.45" font-family="Helvetica,sans-Serif" font-size="12.00" fill="#838b8b">if: state is Engaging</text>
<text text-anchor="start" x="139.5" y="-950.45" font-family="Helvetica,sans-Serif" font-size="14.00"> &#160;</text>
</g>
<!-- AttackRunToSensor_linked -->
<g id="node24" class="node">
<title>AttackRunToSensor_linked</title>
<polygon fill="none" stroke="black" stroke-dasharray="1,5" points="409.85,-991.75 301.15,-991.75 301.15,-955.75 409.85,-955.75 409.85,-991.75"/>
<text text-anchor="start" x="306.75" y="-968.33" font-family="Helvetica,sans-Serif" font-size="14.00"> 追蹤追很久 &#160;</text>
</g>
<!-- AttackRunToSensor&#45;&gt;AttackRunToSensor_linked -->
<g id="edge15" class="edge">
<title>AttackRunToSensor&#45;&gt;AttackRunToSensor_linked</title>
<path fill="none" stroke="#66cdaa" d="M172.66,-968.04C209.56,-969.2 253.95,-970.59 289.64,-971.71"/>
<polygon fill="#66cdaa" stroke="#66cdaa" points="289.28,-975.2 299.38,-972.02 289.5,-968.21 289.28,-975.2"/>
<text text-anchor="middle" x="231.88" y="-973.15" font-family="Helvetica,sans-Serif" font-size="14.00" fill="#66cdaa">QueueEnd</text>
</g>
</g>
</svg>
