<?xml version="1.0" encoding="UTF-8" standalone="no"?>
<!DOCTYPE svg PUBLIC "-//W3C//DTD SVG 1.1//EN"
 "http://www.w3.org/Graphics/SVG/1.1/DTD/svg11.dtd">
<!-- Generated by graphviz version 12.2.1 (20241206.2353)
 -->
<!-- Title: Foo Pages: 1 -->
<svg width="429pt" height="614pt"
 viewBox="0.00 0.00 428.98 614.00" xmlns="http://www.w3.org/2000/svg" xmlns:xlink="http://www.w3.org/1999/xlink">
<g id="graph0" class="graph" transform="scale(1 1) rotate(0) translate(4 610)">
<title>Foo</title>
<polygon fill="white" stroke="none" points="-4,4 -4,-610 424.98,-610 424.98,4 -4,4"/>
<g id="clust1" class="cluster">
<title>cluster_attacksensors</title>
<polygon fill="none" stroke="black" points="8,-8 8,-262 412.98,-262 412.98,-8 8,-8"/>
<text text-anchor="middle" x="210.49" y="-244.7" font-family="Helvetica,sans-Serif" font-size="14.00">Attack Sensors</text>
</g>
<!-- Level Once Sensor -->
<g id="node1" class="node">
<title>Level Once Sensor</title>
<polygon fill="none" stroke="black" points="28.5,-23.12 28.5,-44.88 157.5,-44.88 157.5,-23.12 28.5,-23.12"/>
<text text-anchor="start" x="31.5" y="-28.57" font-family="Helvetica,sans-Serif" font-size="14.00">Level Once Sensor &#160;</text>
</g>
<!-- Level Once Sensor_linked -->
<g id="node2" class="node">
<title>Level Once Sensor_linked</title>
<polygon fill="none" stroke="black" stroke-dasharray="1,5" points="388.1,-52 298.15,-52 298.15,-16 388.1,-16 388.1,-52"/>
<text text-anchor="start" x="303.75" y="-28.57" font-family="Helvetica,sans-Serif" font-size="14.00">SlashAttack &#160;</text>
</g>
<!-- Level Once Sensor&#45;&gt;Level Once Sensor_linked -->
<g id="edge1" class="edge">
<title>Level Once Sensor&#45;&gt;Level Once Sensor_linked</title>
<path fill="none" stroke="#66cdaa" d="M165.44,-34C203.93,-34 250.73,-34 286.49,-34"/>
<polygon fill="#66cdaa" stroke="#66cdaa" points="286.17,-37.5 296.17,-34 286.17,-30.5 286.17,-37.5"/>
<text text-anchor="middle" x="220.62" y="-36.45" font-family="Helvetica,sans-Serif" font-size="14.00" fill="#66cdaa">QueueEnd</text>
</g>
<!-- Level Once Sensor_weight -->
<g id="node3" class="node">
<title>Level Once Sensor_weight</title>
<polygon fill="none" stroke="black" stroke-dasharray="1,5" points="375.62,-106 310.62,-106 310.62,-70 375.62,-70 375.62,-106"/>
<text text-anchor="start" x="320.62" y="-82.58" font-family="Helvetica,sans-Serif" font-size="14.00">1 Skip &#160;</text>
</g>
<!-- Level Once Sensor&#45;&gt;Level Once Sensor_weight -->
<g id="edge2" class="edge">
<title>Level Once Sensor&#45;&gt;Level Once Sensor_weight</title>
<path fill="none" stroke="#458b74" d="M165.44,-49.55C208.77,-58.98 262.62,-70.7 299.41,-78.7"/>
<polygon fill="#458b74" stroke="#458b74" points="298.25,-82.03 308.77,-80.74 299.74,-75.19 298.25,-82.03"/>
<text text-anchor="middle" x="220.62" y="-69.87" font-family="Helvetica,sans-Serif" font-size="14.00" fill="#458b74">Weight</text>
</g>
<!-- RunAwaySensor -->
<g id="node4" class="node">
<title>RunAwaySensor</title>
<polygon fill="none" stroke="black" points="36,-77.12 36,-98.88 150,-98.88 150,-77.12 36,-77.12"/>
<text text-anchor="start" x="39" y="-82.58" font-family="Helvetica,sans-Serif" font-size="14.00">RunAwaySensor &#160;</text>
</g>
<!-- AttackSensor -->
<g id="node5" class="node">
<title>AttackSensor</title>
<polygon fill="none" stroke="black" points="46.12,-131.12 46.12,-152.88 139.88,-152.88 139.88,-131.12 46.12,-131.12"/>
<text text-anchor="start" x="49.12" y="-136.57" font-family="Helvetica,sans-Serif" font-size="14.00">AttackSensor &#160;</text>
</g>
<!-- AttackSensor_linked -->
<g id="node6" class="node">
<title>AttackSensor_linked</title>
<polygon fill="none" stroke="black" stroke-dasharray="1,5" points="404.98,-160 281.27,-160 281.27,-124 404.98,-124 404.98,-160"/>
<text text-anchor="start" x="286.88" y="-136.57" font-family="Helvetica,sans-Serif" font-size="14.00">FlyingDashAttack &#160;</text>
</g>
<!-- AttackSensor&#45;&gt;AttackSensor_linked -->
<g id="edge3" class="edge">
<title>AttackSensor&#45;&gt;AttackSensor_linked</title>
<path fill="none" stroke="#66cdaa" d="M147.84,-142C183.51,-142 230.74,-142 269.7,-142"/>
<polygon fill="#66cdaa" stroke="#66cdaa" points="269.46,-145.5 279.46,-142 269.46,-138.5 269.46,-145.5"/>
<text text-anchor="middle" x="220.62" y="-144.45" font-family="Helvetica,sans-Serif" font-size="14.00" fill="#66cdaa">QueueEnd</text>
</g>
<!-- DodgePredictSensor -->
<g id="node7" class="node">
<title>DodgePredictSensor</title>
<polygon fill="none" stroke="black" points="24,-204 24,-225.75 162,-225.75 162,-204 24,-204"/>
<text text-anchor="start" x="27" y="-209.45" font-family="Helvetica,sans-Serif" font-size="14.00">DodgePredictSensor &#160;</text>
<polygon fill="none" stroke="black" points="24,-182.25 24,-204 162,-204 162,-182.25 24,-182.25"/>
<text text-anchor="start" x="27" y="-188.7" font-family="Helvetica,sans-Serif" font-size="12.00" fill="#838b8b">if: rollingCondition</text>
<text text-anchor="start" x="123.75" y="-188.7" font-family="Helvetica,sans-Serif" font-size="14.00"> &#160;</text>
</g>
<!-- DodgePredictSensor_linked -->
<g id="node8" class="node">
<title>DodgePredictSensor_linked</title>
<polygon fill="none" stroke="black" stroke-dasharray="1,5" points="388.1,-222 298.15,-222 298.15,-186 388.1,-186 388.1,-222"/>
<text text-anchor="start" x="303.75" y="-198.57" font-family="Helvetica,sans-Serif" font-size="14.00">SlashAttack &#160;</text>
</g>
<!-- DodgePredictSensor&#45;&gt;DodgePredictSensor_linked -->
<g id="edge4" class="edge">
<title>DodgePredictSensor&#45;&gt;DodgePredictSensor_linked</title>
<path fill="none" stroke="#66cdaa" d="M169.79,-204C207.44,-204 252.11,-204 286.53,-204"/>
<polygon fill="#66cdaa" stroke="#66cdaa" points="286.28,-207.5 296.28,-204 286.28,-200.5 286.28,-207.5"/>
<text text-anchor="middle" x="220.62" y="-206.45" font-family="Helvetica,sans-Serif" font-size="14.00" fill="#66cdaa">QueueEnd</text>
</g>
<!-- SlashAttack -->
<g id="node9" class="node">
<title>SlashAttack</title>
<polygon fill="none" stroke="black" points="36.75,-526.12 36.75,-547.88 149.25,-547.88 149.25,-526.12 36.75,-526.12"/>
<text text-anchor="start" x="53.62" y="-531.58" font-family="Helvetica,sans-Serif" font-size="14.00">SlashAttack &#160;</text>
<polygon fill="none" stroke="black" points="36.75,-494.12 36.75,-526.12 149.25,-526.12 149.25,-494.12 36.75,-494.12"/>
<text text-anchor="start" x="39.75" y="-512.73" font-family="Helvetica,sans-Serif" font-size="12.00" fill="#838b8b">0.50s: CheckFacing</text>
<text text-anchor="start" x="39.75" y="-498.83" font-family="Helvetica,sans-Serif" font-size="12.00" fill="#838b8b">1.67s: Done</text>
<text text-anchor="start" x="104.25" y="-498.83" font-family="Helvetica,sans-Serif" font-size="14.00"> &#160;</text>
</g>
<!-- Engaging -->
<g id="node10" class="node">
<title>Engaging</title>
<polygon fill="none" stroke="black" points="379.62,-421 306.62,-421 306.62,-385 379.62,-385 379.62,-421"/>
<text text-anchor="middle" x="343.12" y="-397.57" font-family="Helvetica,sans-Serif" font-size="14.00">Engaging</text>
</g>
<!-- SlashAttack&#45;&gt;Engaging -->
<g id="edge5" class="edge">
<title>SlashAttack&#45;&gt;Engaging</title>
<path fill="none" stroke="#cdc8b1" d="M156.93,-491.07C200.2,-470.49 256.7,-443.63 295.85,-425"/>
<polygon fill="#cdc8b1" stroke="#cdc8b1" points="297.27,-428.21 304.8,-420.75 294.26,-421.89 297.27,-428.21"/>
</g>
<!-- SlashAttack_weight -->
<g id="node11" class="node">
<title>SlashAttack_weight</title>
<polygon fill="none" stroke="black" stroke-dasharray="1,5" points="415,-539 271.25,-539 271.25,-503 415,-503 415,-539"/>
<text text-anchor="start" x="281.25" y="-515.58" font-family="Helvetica,sans-Serif" font-size="14.00">1 FlyingDashAttack &#160;</text>
</g>
<!-- SlashAttack&#45;&gt;SlashAttack_weight -->
<g id="edge6" class="edge">
<title>SlashAttack&#45;&gt;SlashAttack_weight</title>
<path fill="none" stroke="#458b74" d="M156.93,-521C188.15,-521 226.25,-521 259.76,-521"/>
<polygon fill="#458b74" stroke="#458b74" points="259.41,-524.5 269.41,-521 259.41,-517.5 259.41,-524.5"/>
<text text-anchor="middle" x="220.62" y="-523.45" font-family="Helvetica,sans-Serif" font-size="14.00" fill="#458b74">Weight</text>
</g>
<!-- FlyingDashAttack -->
<g id="node12" class="node">
<title>FlyingDashAttack</title>
<polygon fill="none" stroke="black" points="33.75,-446.12 33.75,-467.88 152.25,-467.88 152.25,-446.12 33.75,-446.12"/>
<text text-anchor="start" x="36.75" y="-451.57" font-family="Helvetica,sans-Serif" font-size="14.00">FlyingDashAttack &#160;</text>
<polygon fill="none" stroke="black" points="33.75,-414.12 33.75,-446.12 152.25,-446.12 152.25,-414.12 33.75,-414.12"/>
<text text-anchor="start" x="36.75" y="-432.73" font-family="Helvetica,sans-Serif" font-size="12.00" fill="#838b8b">0.50s: CheckFacing</text>
<text text-anchor="start" x="36.75" y="-418.83" font-family="Helvetica,sans-Serif" font-size="12.00" fill="#838b8b">2.00s: Done</text>
<text text-anchor="start" x="101.25" y="-418.83" font-family="Helvetica,sans-Serif" font-size="14.00"> &#160;</text>
</g>
<!-- FlyingDashAttack&#45;&gt;Engaging -->
<g id="edge7" class="edge">
<title>FlyingDashAttack&#45;&gt;Engaging</title>
<path fill="none" stroke="#cdc8b1" d="M160.17,-430.87C202.71,-424.35 256.96,-416.04 295.12,-410.2"/>
<polygon fill="#cdc8b1" stroke="#cdc8b1" points="295.56,-413.67 304.92,-408.7 294.5,-406.75 295.56,-413.67"/>
</g>
<!-- Hurt1 -->
<g id="node13" class="node">
<title>Hurt1</title>
<polygon fill="none" stroke="black" points="54,-366 54,-387.75 132,-387.75 132,-366 54,-366"/>
<text text-anchor="start" x="72.75" y="-371.45" font-family="Helvetica,sans-Serif" font-size="14.00">Hurt1 &#160;</text>
<polygon fill="none" stroke="black" points="54,-344.25 54,-366 132,-366 132,-344.25 54,-344.25"/>
<text text-anchor="start" x="57" y="-350.7" font-family="Helvetica,sans-Serif" font-size="12.00" fill="#838b8b">0.25s: Done</text>
<text text-anchor="start" x="121.5" y="-350.7" font-family="Helvetica,sans-Serif" font-size="14.00"> &#160;</text>
</g>
<!-- Hurt1&#45;&gt;Engaging -->
<g id="edge8" class="edge">
<title>Hurt1&#45;&gt;Engaging</title>
<path fill="none" stroke="#cdc8b1" d="M139.8,-372.83C183.98,-379.42 250.55,-389.34 295.13,-395.99"/>
<polygon fill="#cdc8b1" stroke="#cdc8b1" points="294.34,-399.41 304.75,-397.43 295.37,-392.49 294.34,-399.41"/>
</g>
<!-- Hurt2 -->
<g id="node14" class="node">
<title>Hurt2</title>
<polygon fill="none" stroke="black" points="54,-296 54,-317.75 132,-317.75 132,-296 54,-296"/>
<text text-anchor="start" x="72.75" y="-301.45" font-family="Helvetica,sans-Serif" font-size="14.00">Hurt2 &#160;</text>
<polygon fill="none" stroke="black" points="54,-274.25 54,-296 132,-296 132,-274.25 54,-274.25"/>
<text text-anchor="start" x="57" y="-280.7" font-family="Helvetica,sans-Serif" font-size="12.00" fill="#838b8b">1.00s: Done</text>
<text text-anchor="start" x="121.5" y="-280.7" font-family="Helvetica,sans-Serif" font-size="14.00"> &#160;</text>
</g>
<!-- Hurt2&#45;&gt;Engaging -->
<g id="edge9" class="edge">
<title>Hurt2&#45;&gt;Engaging</title>
<path fill="none" stroke="#cdc8b1" d="M139.8,-315.75C184.17,-334.88 251.12,-363.75 295.7,-382.98"/>
<polygon fill="#cdc8b1" stroke="#cdc8b1" points="294.29,-386.18 304.86,-386.93 297.06,-379.75 294.29,-386.18"/>
</g>
<!-- Idle -->
<g id="node15" class="node">
<title>Idle</title>
<polygon fill="none" stroke="black" points="127.25,-606 58.75,-606 58.75,-570 127.25,-570 127.25,-606"/>
<text text-anchor="middle" x="93" y="-582.58" font-family="Helvetica,sans-Serif" font-size="14.00">Idle (Init)</text>
</g>
</g>
</svg>
