<?xml version="1.0" encoding="UTF-8" standalone="no"?>
<!DOCTYPE svg PUBLIC "-//W3C//DTD SVG 1.1//EN"
 "http://www.w3.org/Graphics/SVG/1.1/DTD/svg11.dtd">
<!-- Generated by graphviz version 12.2.1 (20241206.2353)
 -->
<!-- Title: Foo Pages: 1 -->
<svg width="513pt" height="718pt"
 viewBox="0.00 0.00 513.25 718.00" xmlns="http://www.w3.org/2000/svg" xmlns:xlink="http://www.w3.org/1999/xlink">
<g id="graph0" class="graph" transform="scale(1 1) rotate(0) translate(4 714)">
<title>Foo</title>
<polygon fill="white" stroke="none" points="-4,4 -4,-714 509.25,-714 509.25,4 -4,4"/>
<g id="clust1" class="cluster">
<title>cluster_attacksensors</title>
<polygon fill="none" stroke="black" points="8,-8 8,-402 378.35,-402 378.35,-8 8,-8"/>
<text text-anchor="middle" x="193.18" y="-384.7" font-family="Helvetica,sans-Serif" font-size="14.00">Attack Sensors</text>
</g>
<!-- Level Once Sensor -->
<g id="node1" class="node">
<title>Level Once Sensor</title>
<polygon fill="none" stroke="black" points="28.5,-23.12 28.5,-44.88 157.5,-44.88 157.5,-23.12 28.5,-23.12"/>
<text text-anchor="start" x="31.5" y="-28.57" font-family="Helvetica,sans-Serif" font-size="14.00">Level Once Sensor &#160;</text>
</g>
<!-- Level Once Sensor_linked -->
<g id="node2" class="node">
<title>Level Once Sensor_linked</title>
<polygon fill="none" stroke="black" stroke-dasharray="1,5" points="370.35,-52 289.4,-52 289.4,-16 370.35,-16 370.35,-52"/>
<text text-anchor="start" x="295" y="-28.57" font-family="Helvetica,sans-Serif" font-size="14.00">RunAttack &#160;</text>
</g>
<!-- Level Once Sensor&#45;&gt;Level Once Sensor_linked -->
<g id="edge1" class="edge">
<title>Level Once Sensor&#45;&gt;Level Once Sensor_linked</title>
<path fill="none" stroke="#66cdaa" d="M165.43,-34C201.77,-34 245.09,-34 278,-34"/>
<polygon fill="#66cdaa" stroke="#66cdaa" points="277.66,-37.5 287.66,-34 277.66,-30.5 277.66,-37.5"/>
<text text-anchor="middle" x="220.62" y="-36.45" font-family="Helvetica,sans-Serif" font-size="14.00" fill="#66cdaa">QueueEnd</text>
</g>
<!-- RunAwaySensor -->
<g id="node3" class="node">
<title>RunAwaySensor</title>
<polygon fill="none" stroke="black" points="36,-77.12 36,-98.88 150,-98.88 150,-77.12 36,-77.12"/>
<text text-anchor="start" x="39" y="-82.58" font-family="Helvetica,sans-Serif" font-size="14.00">RunAwaySensor &#160;</text>
</g>
<!-- AttackSensor -->
<g id="node4" class="node">
<title>AttackSensor</title>
<polygon fill="none" stroke="black" points="46.12,-131.12 46.12,-152.88 139.88,-152.88 139.88,-131.12 46.12,-131.12"/>
<text text-anchor="start" x="49.12" y="-136.57" font-family="Helvetica,sans-Serif" font-size="14.00">AttackSensor &#160;</text>
</g>
<!-- AttackSensor_linked -->
<g id="node5" class="node">
<title>AttackSensor_linked</title>
<polygon fill="none" stroke="black" stroke-dasharray="1,5" points="370.35,-160 289.4,-160 289.4,-124 370.35,-124 370.35,-160"/>
<text text-anchor="start" x="295" y="-136.57" font-family="Helvetica,sans-Serif" font-size="14.00">RunAttack &#160;</text>
</g>
<!-- AttackSensor&#45;&gt;AttackSensor_linked -->
<g id="edge2" class="edge">
<title>AttackSensor&#45;&gt;AttackSensor_linked</title>
<path fill="none" stroke="#66cdaa" d="M147.59,-142C186.61,-142 239.14,-142 277.61,-142"/>
<polygon fill="#66cdaa" stroke="#66cdaa" points="277.55,-145.5 287.55,-142 277.55,-138.5 277.55,-145.5"/>
<text text-anchor="middle" x="220.62" y="-144.45" font-family="Helvetica,sans-Serif" font-size="14.00" fill="#66cdaa">QueueEnd</text>
</g>
<!-- DodgePredictSensor -->
<g id="node6" class="node">
<title>DodgePredictSensor</title>
<polygon fill="none" stroke="black" points="24,-204 24,-225.75 162,-225.75 162,-204 24,-204"/>
<text text-anchor="start" x="27" y="-209.45" font-family="Helvetica,sans-Serif" font-size="14.00">DodgePredictSensor &#160;</text>
<polygon fill="none" stroke="black" points="24,-182.25 24,-204 162,-204 162,-182.25 24,-182.25"/>
<text text-anchor="start" x="27" y="-188.7" font-family="Helvetica,sans-Serif" font-size="12.00" fill="#838b8b">if: Dodge</text>
<text text-anchor="start" x="75" y="-188.7" font-family="Helvetica,sans-Serif" font-size="14.00"> &#160;</text>
</g>
<!-- DodgePredictSensor_linked -->
<g id="node7" class="node">
<title>DodgePredictSensor_linked</title>
<polygon fill="none" stroke="black" stroke-dasharray="1,5" points="370.35,-222 289.4,-222 289.4,-186 370.35,-186 370.35,-222"/>
<text text-anchor="start" x="295" y="-198.57" font-family="Helvetica,sans-Serif" font-size="14.00">RunAttack &#160;</text>
</g>
<!-- DodgePredictSensor&#45;&gt;DodgePredictSensor_linked -->
<g id="edge3" class="edge">
<title>DodgePredictSensor&#45;&gt;DodgePredictSensor_linked</title>
<path fill="none" stroke="#66cdaa" d="M169.93,-204C205.27,-204 246.35,-204 277.9,-204"/>
<polygon fill="#66cdaa" stroke="#66cdaa" points="277.55,-207.5 287.55,-204 277.55,-200.5 277.55,-207.5"/>
<text text-anchor="middle" x="220.62" y="-206.45" font-family="Helvetica,sans-Serif" font-size="14.00" fill="#66cdaa">QueueEnd</text>
</g>
<!-- AttackPredictSensor -->
<g id="node8" class="node">
<title>AttackPredictSensor</title>
<polygon fill="none" stroke="black" points="25.12,-274 25.12,-295.75 160.88,-295.75 160.88,-274 25.12,-274"/>
<text text-anchor="start" x="28.12" y="-279.45" font-family="Helvetica,sans-Serif" font-size="14.00">AttackPredictSensor &#160;</text>
<polygon fill="none" stroke="black" points="25.12,-252.25 25.12,-274 160.88,-274 160.88,-252.25 25.12,-252.25"/>
<text text-anchor="start" x="28.12" y="-258.7" font-family="Helvetica,sans-Serif" font-size="12.00" fill="#838b8b">if: Attack</text>
<text text-anchor="start" x="73.12" y="-258.7" font-family="Helvetica,sans-Serif" font-size="14.00"> &#160;</text>
</g>
<!-- AttackPredictSensor_linked -->
<g id="node9" class="node">
<title>AttackPredictSensor_linked</title>
<polygon fill="none" stroke="black" stroke-dasharray="1,5" points="370.35,-292 289.4,-292 289.4,-256 370.35,-256 370.35,-292"/>
<text text-anchor="start" x="295" y="-268.57" font-family="Helvetica,sans-Serif" font-size="14.00">RunAttack &#160;</text>
</g>
<!-- AttackPredictSensor&#45;&gt;AttackPredictSensor_linked -->
<g id="edge4" class="edge">
<title>AttackPredictSensor&#45;&gt;AttackPredictSensor_linked</title>
<path fill="none" stroke="#66cdaa" d="M168.64,-274C204.17,-274 245.76,-274 277.66,-274"/>
<polygon fill="#66cdaa" stroke="#66cdaa" points="277.43,-277.5 287.43,-274 277.43,-270.5 277.43,-277.5"/>
<text text-anchor="middle" x="220.62" y="-276.45" font-family="Helvetica,sans-Serif" font-size="14.00" fill="#66cdaa">QueueEnd</text>
</g>
<!-- AttackRunToSensor -->
<g id="node10" class="node">
<title>AttackRunToSensor</title>
<polygon fill="none" stroke="black" points="26.62,-344 26.62,-365.75 159.38,-365.75 159.38,-344 26.62,-344"/>
<text text-anchor="start" x="29.62" y="-349.45" font-family="Helvetica,sans-Serif" font-size="14.00">AttackRunToSensor &#160;</text>
<polygon fill="none" stroke="black" points="26.62,-322.25 26.62,-344 159.38,-344 159.38,-322.25 26.62,-322.25"/>
<text text-anchor="start" x="29.62" y="-328.7" font-family="Helvetica,sans-Serif" font-size="12.00" fill="#838b8b">if: state is Engaging</text>
<text text-anchor="start" x="133.88" y="-328.7" font-family="Helvetica,sans-Serif" font-size="14.00"> &#160;</text>
</g>
<!-- AttackRunToSensor_linked -->
<g id="node11" class="node">
<title>AttackRunToSensor_linked</title>
<polygon fill="none" stroke="black" stroke-dasharray="1,5" points="370.35,-362 289.4,-362 289.4,-326 370.35,-326 370.35,-362"/>
<text text-anchor="start" x="295" y="-338.57" font-family="Helvetica,sans-Serif" font-size="14.00">RunAttack &#160;</text>
</g>
<!-- AttackRunToSensor&#45;&gt;AttackRunToSensor_linked -->
<g id="edge5" class="edge">
<title>AttackRunToSensor&#45;&gt;AttackRunToSensor_linked</title>
<path fill="none" stroke="#66cdaa" d="M167.35,-344C203.19,-344 245.45,-344 277.75,-344"/>
<polygon fill="#66cdaa" stroke="#66cdaa" points="277.65,-347.5 287.65,-344 277.65,-340.5 277.65,-347.5"/>
<text text-anchor="middle" x="220.62" y="-346.45" font-family="Helvetica,sans-Serif" font-size="14.00" fill="#66cdaa">QueueEnd</text>
</g>
<!-- RunAttack -->
<g id="node12" class="node">
<title>RunAttack</title>
<polygon fill="none" stroke="black" points="54,-506 54,-527.75 132,-527.75 132,-506 54,-506"/>
<text text-anchor="start" x="58.12" y="-511.45" font-family="Helvetica,sans-Serif" font-size="14.00">RunAttack &#160;</text>
<polygon fill="none" stroke="black" points="54,-484.25 54,-506 132,-506 132,-484.25 54,-484.25"/>
<text text-anchor="start" x="57" y="-490.7" font-family="Helvetica,sans-Serif" font-size="12.00" fill="#838b8b">2.08s: Done</text>
<text text-anchor="start" x="121.5" y="-490.7" font-family="Helvetica,sans-Serif" font-size="14.00"> &#160;</text>
</g>
<!--  KeepRun -->
<g id="node13" class="node">
<title> KeepRun</title>
<polygon fill="none" stroke="black" points="293.12,-483.12 293.12,-504.88 366.62,-504.88 366.62,-483.12 293.12,-483.12"/>
<text text-anchor="start" x="296.12" y="-488.57" font-family="Helvetica,sans-Serif" font-size="14.00"> KeepRun &#160;</text>
</g>
<!-- RunAttack&#45;&gt; KeepRun -->
<g id="edge6" class="edge">
<title>RunAttack&#45;&gt; KeepRun</title>
<path fill="none" stroke="#cdc8b1" d="M139.84,-503.66C178.2,-501.7 233.04,-498.9 273.78,-496.82"/>
<polygon fill="#cdc8b1" stroke="#cdc8b1" points="273.81,-500.32 283.62,-496.31 273.46,-493.33 273.81,-500.32"/>
</g>
<!-- Engaging -->
<g id="node14" class="node">
<title>Engaging</title>
<polygon fill="none" stroke="black" points="501.88,-478 428.88,-478 428.88,-442 501.88,-442 501.88,-478"/>
<text text-anchor="middle" x="465.38" y="-454.57" font-family="Helvetica,sans-Serif" font-size="14.00">Engaging</text>
</g>
<!--  KeepRun&#45;&gt;Engaging -->
<g id="edge7" class="edge">
<title> KeepRun&#45;&gt;Engaging</title>
<path fill="none" stroke="#cdc8b1" d="M374.59,-482.87C388.39,-479.35 403.69,-475.46 417.69,-471.89"/>
<polygon fill="#cdc8b1" stroke="#cdc8b1" points="418.29,-475.35 427.12,-469.49 416.56,-468.57 418.29,-475.35"/>
</g>
<!--  Explode Self -->
<g id="node15" class="node">
<title> Explode Self</title>
<polygon fill="none" stroke="black" points="283.38,-576 283.38,-597.75 376.38,-597.75 376.38,-576 283.38,-576"/>
<text text-anchor="start" x="286.38" y="-581.45" font-family="Helvetica,sans-Serif" font-size="14.00"> Explode Self &#160;</text>
<polygon fill="none" stroke="black" points="283.38,-554.25 283.38,-576 376.38,-576 376.38,-554.25 283.38,-554.25"/>
<text text-anchor="start" x="286.38" y="-560.7" font-family="Helvetica,sans-Serif" font-size="12.00" fill="#838b8b">0.08s: Done</text>
<text text-anchor="start" x="350.88" y="-560.7" font-family="Helvetica,sans-Serif" font-size="14.00"> &#160;</text>
</g>
<!-- DeadState -->
<g id="node16" class="node">
<title>DeadState</title>
<polygon fill="none" stroke="black" points="505.25,-594 425.5,-594 425.5,-558 505.25,-558 505.25,-594"/>
<text text-anchor="middle" x="465.38" y="-570.58" font-family="Helvetica,sans-Serif" font-size="14.00">DeadState</text>
</g>
<!--  Explode Self&#45;&gt;DeadState -->
<g id="edge8" class="edge">
<title> Explode Self&#45;&gt;DeadState</title>
<path fill="none" stroke="#cdc8b1" d="M384.02,-576C393.95,-576 404.3,-576 414.14,-576"/>
<polygon fill="#cdc8b1" stroke="#cdc8b1" points="413.88,-579.5 423.88,-576 413.88,-572.5 413.88,-579.5"/>
</g>
<!--  PrepareToExplode -->
<g id="node17" class="node">
<title> PrepareToExplode</title>
<polygon fill="none" stroke="black" points="28.88,-576 28.88,-597.75 157.12,-597.75 157.12,-576 28.88,-576"/>
<text text-anchor="start" x="31.88" y="-581.45" font-family="Helvetica,sans-Serif" font-size="14.00"> PrepareToExplode &#160;</text>
<polygon fill="none" stroke="black" points="28.88,-554.25 28.88,-576 157.12,-576 157.12,-554.25 28.88,-554.25"/>
<text text-anchor="start" x="31.88" y="-560.7" font-family="Helvetica,sans-Serif" font-size="12.00" fill="#838b8b">0.92s: Done</text>
<text text-anchor="start" x="96.38" y="-560.7" font-family="Helvetica,sans-Serif" font-size="14.00"> &#160;</text>
</g>
<!--  PrepareToExplode&#45;&gt; Explode Self -->
<g id="edge9" class="edge">
<title> PrepareToExplode&#45;&gt; Explode Self</title>
<path fill="none" stroke="#cdc8b1" d="M165.11,-576C196.6,-576 233.37,-576 264.09,-576"/>
<polygon fill="#cdc8b1" stroke="#cdc8b1" points="264.03,-579.5 274.03,-576 264.03,-572.5 264.03,-579.5"/>
</g>
<!--  QuickRunAttack -->
<g id="node18" class="node">
<title> QuickRunAttack</title>
<polygon fill="none" stroke="black" points="35.62,-436 35.62,-457.75 150.38,-457.75 150.38,-436 35.62,-436"/>
<text text-anchor="start" x="38.62" y="-441.45" font-family="Helvetica,sans-Serif" font-size="14.00"> QuickRunAttack &#160;</text>
<polygon fill="none" stroke="black" points="35.62,-414.25 35.62,-436 150.38,-436 150.38,-414.25 35.62,-414.25"/>
<text text-anchor="start" x="38.62" y="-420.7" font-family="Helvetica,sans-Serif" font-size="12.00" fill="#838b8b">1.33s: Done</text>
<text text-anchor="start" x="103.12" y="-420.7" font-family="Helvetica,sans-Serif" font-size="14.00"> &#160;</text>
</g>
<!--  QuickRunAttack&#45;&gt; KeepRun -->
<g id="edge10" class="edge">
<title> QuickRunAttack&#45;&gt; KeepRun</title>
<path fill="none" stroke="#cdc8b1" d="M158.18,-451.85C194.58,-460.84 239.64,-471.96 274.32,-480.53"/>
<polygon fill="#cdc8b1" stroke="#cdc8b1" points="273.18,-483.85 283.73,-482.85 274.86,-477.06 273.18,-483.85"/>
</g>
<!-- AttackParrying -->
<g id="node19" class="node">
<title>AttackParrying</title>
<polygon fill="none" stroke="black" points="279.25,-429.12 279.25,-450.88 380.5,-450.88 380.5,-429.12 279.25,-429.12"/>
<text text-anchor="start" x="282.25" y="-434.57" font-family="Helvetica,sans-Serif" font-size="14.00">AttackParrying &#160;</text>
</g>
<!-- AttackParrying&#45;&gt;Engaging -->
<g id="edge11" class="edge">
<title>AttackParrying&#45;&gt;Engaging</title>
<path fill="none" stroke="#cdc8b1" d="M388.27,-448.6C398.01,-450.06 408.03,-451.56 417.47,-452.97"/>
<polygon fill="#cdc8b1" stroke="#cdc8b1" points="416.73,-456.4 427.14,-454.42 417.76,-449.48 416.73,-456.4"/>
</g>
<!-- HurtState -->
<g id="node20" class="node">
<title>HurtState</title>
<polygon fill="none" stroke="black" points="57.75,-627.12 57.75,-648.88 128.25,-648.88 128.25,-627.12 57.75,-627.12"/>
<text text-anchor="start" x="60.75" y="-632.58" font-family="Helvetica,sans-Serif" font-size="14.00">HurtState &#160;</text>
</g>
<!-- PreAttack -->
<g id="node21" class="node">
<title>PreAttack</title>
<polygon fill="none" stroke="black" points="367.12,-656 292.62,-656 292.62,-620 367.12,-620 367.12,-656"/>
<text text-anchor="middle" x="329.88" y="-632.58" font-family="Helvetica,sans-Serif" font-size="14.00">PreAttack</text>
</g>
<!-- HurtState&#45;&gt;PreAttack -->
<g id="edge12" class="edge">
<title>HurtState&#45;&gt;PreAttack</title>
<path fill="none" stroke="#cdc8b1" d="M135.99,-638C176.64,-638 238.19,-638 280.79,-638"/>
<polygon fill="#cdc8b1" stroke="#cdc8b1" points="280.75,-641.5 290.75,-638 280.75,-634.5 280.75,-641.5"/>
</g>
<!-- Wandering_Idle -->
<g id="node22" class="node">
<title>Wandering_Idle</title>
<polygon fill="none" stroke="black" points="163.62,-710 22.38,-710 22.38,-674 163.62,-674 163.62,-710"/>
<text text-anchor="middle" x="93" y="-686.58" font-family="Helvetica,sans-Serif" font-size="14.00">Wandering_Idle (Init)</text>
</g>
</g>
</svg>
