<?xml version="1.0" encoding="UTF-8" standalone="no"?>
<!DOCTYPE svg PUBLIC "-//W3C//DTD SVG 1.1//EN"
 "http://www.w3.org/Graphics/SVG/1.1/DTD/svg11.dtd">
<!-- Generated by graphviz version 12.2.1 (20241206.2353)
 -->
<!-- Title: Foo Pages: 1 -->
<svg width="505pt" height="731pt"
 viewBox="0.00 0.00 505.00 731.00" xmlns="http://www.w3.org/2000/svg" xmlns:xlink="http://www.w3.org/1999/xlink">
<g id="graph0" class="graph" transform="scale(1 1) rotate(0) translate(4 727)">
<title>Foo</title>
<polygon fill="white" stroke="none" points="-4,4 -4,-727 501,-727 501,4 -4,4"/>
<g id="clust1" class="cluster">
<title>cluster_attacksensors</title>
<polygon fill="none" stroke="black" points="8,-321 8,-715 374.23,-715 374.23,-321 8,-321"/>
<text text-anchor="middle" x="191.11" y="-697.7" font-family="Helvetica,sans-Serif" font-size="14.00">Attack Sensors</text>
</g>
<!-- RunAttack -->
<g id="node1" class="node">
<title>RunAttack</title>
<polygon fill="none" stroke="black" points="54,-107 54,-128.75 132,-128.75 132,-107 54,-107"/>
<text text-anchor="start" x="58.12" y="-112.45" font-family="Helvetica,sans-Serif" font-size="14.00">RunAttack &#160;</text>
<polygon fill="none" stroke="black" points="54,-85.25 54,-107 132,-107 132,-85.25 54,-85.25"/>
<text text-anchor="start" x="57" y="-91.7" font-family="Helvetica,sans-Serif" font-size="12.00" fill="#838b8b">2.08s: Done</text>
<text text-anchor="start" x="121.5" y="-91.7" font-family="Helvetica,sans-Serif" font-size="14.00"> &#160;</text>
</g>
<!--  KeepRun -->
<g id="node2" class="node">
<title> KeepRun</title>
<polygon fill="none" stroke="black" points="363.75,-90 287.75,-90 287.75,-54 363.75,-54 363.75,-90"/>
<text text-anchor="middle" x="325.75" y="-66.58" font-family="Helvetica,sans-Serif" font-size="14.00"> KeepRun</text>
</g>
<!-- RunAttack&#45;&gt; KeepRun -->
<g id="edge1" class="edge">
<title>RunAttack&#45;&gt; KeepRun</title>
<path fill="none" stroke="#cdc8b1" d="M139.86,-100.04C179.31,-94.06 236.02,-85.46 276.22,-79.36"/>
<polygon fill="#cdc8b1" stroke="#cdc8b1" points="276.49,-82.86 285.85,-77.9 275.44,-75.94 276.49,-82.86"/>
</g>
<!-- Engaging -->
<g id="node3" class="node">
<title>Engaging</title>
<polygon fill="none" stroke="black" points="493.62,-56 420.62,-56 420.62,-20 493.62,-20 493.62,-56"/>
<text text-anchor="middle" x="457.12" y="-32.58" font-family="Helvetica,sans-Serif" font-size="14.00">Engaging</text>
</g>
<!--  KeepRun&#45;&gt;Engaging -->
<g id="edge2" class="edge">
<title> KeepRun&#45;&gt;Engaging</title>
<path fill="none" stroke="#cdc8b1" d="M364.17,-62.17C378.32,-58.45 394.61,-54.17 409.51,-50.25"/>
<polygon fill="#cdc8b1" stroke="#cdc8b1" points="410.32,-53.66 419.1,-47.73 408.54,-46.89 410.32,-53.66"/>
</g>
<!--  Explode Self -->
<g id="node4" class="node">
<title> Explode Self</title>
<polygon fill="none" stroke="black" points="279.25,-177 279.25,-198.75 372.25,-198.75 372.25,-177 279.25,-177"/>
<text text-anchor="start" x="282.25" y="-182.45" font-family="Helvetica,sans-Serif" font-size="14.00"> Explode Self &#160;</text>
<polygon fill="none" stroke="black" points="279.25,-155.25 279.25,-177 372.25,-177 372.25,-155.25 279.25,-155.25"/>
<text text-anchor="start" x="282.25" y="-161.7" font-family="Helvetica,sans-Serif" font-size="12.00" fill="#838b8b">0.08s: Done</text>
<text text-anchor="start" x="346.75" y="-161.7" font-family="Helvetica,sans-Serif" font-size="14.00"> &#160;</text>
</g>
<!-- DeadState -->
<g id="node5" class="node">
<title>DeadState</title>
<polygon fill="none" stroke="black" points="497,-195 417.25,-195 417.25,-159 497,-159 497,-195"/>
<text text-anchor="middle" x="457.12" y="-171.57" font-family="Helvetica,sans-Serif" font-size="14.00">DeadState</text>
</g>
<!--  Explode Self&#45;&gt;DeadState -->
<g id="edge3" class="edge">
<title> Explode Self&#45;&gt;DeadState</title>
<path fill="none" stroke="#cdc8b1" d="M380.12,-177C388.64,-177 397.42,-177 405.87,-177"/>
<polygon fill="#cdc8b1" stroke="#cdc8b1" points="405.59,-180.5 415.59,-177 405.59,-173.5 405.59,-180.5"/>
</g>
<!--  PrepareToExplode -->
<g id="node6" class="node">
<title> PrepareToExplode</title>
<polygon fill="none" stroke="black" points="28.88,-177 28.88,-198.75 157.12,-198.75 157.12,-177 28.88,-177"/>
<text text-anchor="start" x="31.88" y="-182.45" font-family="Helvetica,sans-Serif" font-size="14.00"> PrepareToExplode &#160;</text>
<polygon fill="none" stroke="black" points="28.88,-155.25 28.88,-177 157.12,-177 157.12,-155.25 28.88,-155.25"/>
<text text-anchor="start" x="31.88" y="-161.7" font-family="Helvetica,sans-Serif" font-size="12.00" fill="#838b8b">0.92s: Done</text>
<text text-anchor="start" x="96.38" y="-161.7" font-family="Helvetica,sans-Serif" font-size="14.00"> &#160;</text>
</g>
<!--  PrepareToExplode&#45;&gt; Explode Self -->
<g id="edge4" class="edge">
<title> PrepareToExplode&#45;&gt; Explode Self</title>
<path fill="none" stroke="#cdc8b1" d="M165.12,-177C195.39,-177 230.46,-177 260.01,-177"/>
<polygon fill="#cdc8b1" stroke="#cdc8b1" points="259.95,-180.5 269.95,-177 259.95,-173.5 259.95,-180.5"/>
</g>
<!--  QuickRunAttack -->
<g id="node7" class="node">
<title> QuickRunAttack</title>
<polygon fill="none" stroke="black" points="35.62,-37 35.62,-58.75 150.38,-58.75 150.38,-37 35.62,-37"/>
<text text-anchor="start" x="38.62" y="-42.45" font-family="Helvetica,sans-Serif" font-size="14.00"> QuickRunAttack &#160;</text>
<polygon fill="none" stroke="black" points="35.62,-15.25 35.62,-37 150.38,-37 150.38,-15.25 35.62,-15.25"/>
<text text-anchor="start" x="38.62" y="-21.7" font-family="Helvetica,sans-Serif" font-size="12.00" fill="#838b8b">1.33s: Done</text>
<text text-anchor="start" x="103.12" y="-21.7" font-family="Helvetica,sans-Serif" font-size="14.00"> &#160;</text>
</g>
<!--  QuickRunAttack&#45;&gt; KeepRun -->
<g id="edge5" class="edge">
<title> QuickRunAttack&#45;&gt; KeepRun</title>
<path fill="none" stroke="#cdc8b1" d="M158.28,-46.75C195.66,-52.42 242.01,-59.45 276.3,-64.65"/>
<polygon fill="#cdc8b1" stroke="#cdc8b1" points="275.53,-68.07 285.94,-66.11 276.58,-61.15 275.53,-68.07"/>
</g>
<!-- AttackParrying -->
<g id="node8" class="node">
<title>AttackParrying</title>
<polygon fill="none" stroke="black" points="377.62,-36 273.88,-36 273.88,0 377.62,0 377.62,-36"/>
<text text-anchor="middle" x="325.75" y="-12.57" font-family="Helvetica,sans-Serif" font-size="14.00">AttackParrying</text>
</g>
<!-- AttackParrying&#45;&gt;Engaging -->
<g id="edge6" class="edge">
<title>AttackParrying&#45;&gt;Engaging</title>
<path fill="none" stroke="#cdc8b1" d="M377.88,-25.9C388.25,-27.51 399.1,-29.18 409.31,-30.76"/>
<polygon fill="#cdc8b1" stroke="#cdc8b1" points="408.59,-34.19 419,-32.26 409.66,-27.27 408.59,-34.19"/>
</g>
<!-- HurtState -->
<g id="node9" class="node">
<title>HurtState</title>
<polygon fill="none" stroke="black" points="129.5,-257 56.5,-257 56.5,-221 129.5,-221 129.5,-257"/>
<text text-anchor="middle" x="93" y="-233.57" font-family="Helvetica,sans-Serif" font-size="14.00">HurtState</text>
</g>
<!-- PreAttack -->
<g id="node10" class="node">
<title>PreAttack</title>
<polygon fill="none" stroke="black" points="363,-257 288.5,-257 288.5,-221 363,-221 363,-257"/>
<text text-anchor="middle" x="325.75" y="-233.57" font-family="Helvetica,sans-Serif" font-size="14.00">PreAttack</text>
</g>
<!-- HurtState&#45;&gt;PreAttack -->
<g id="edge7" class="edge">
<title>HurtState&#45;&gt;PreAttack</title>
<path fill="none" stroke="#cdc8b1" d="M129.8,-239C169.23,-239 232.82,-239 276.6,-239"/>
<polygon fill="#cdc8b1" stroke="#cdc8b1" points="276.59,-242.5 286.59,-239 276.59,-235.5 276.59,-242.5"/>
</g>
<!-- Wandering_Idle -->
<g id="node11" class="node">
<title>Wandering_Idle</title>
<polygon fill="none" stroke="black" points="163.62,-311 22.38,-311 22.38,-275 163.62,-275 163.62,-311"/>
<text text-anchor="middle" x="93" y="-287.57" font-family="Helvetica,sans-Serif" font-size="14.00">Wandering_Idle (Init)</text>
</g>
<!-- Level Once Sensor -->
<g id="node12" class="node">
<title>Level Once Sensor</title>
<polygon fill="none" stroke="black" points="158.75,-365 27.25,-365 27.25,-329 158.75,-329 158.75,-365"/>
<text text-anchor="middle" x="93" y="-341.57" font-family="Helvetica,sans-Serif" font-size="14.00">Level Once Sensor</text>
</g>
<!-- Level Once Sensor_linked -->
<g id="node13" class="node">
<title>Level Once Sensor_linked</title>
<polygon fill="none" stroke="black" stroke-dasharray="1,5" points="366.23,-365 285.27,-365 285.27,-329 366.23,-329 366.23,-365"/>
<text text-anchor="start" x="290.88" y="-341.57" font-family="Helvetica,sans-Serif" font-size="14.00">RunAttack &#160;</text>
</g>
<!-- Level Once Sensor&#45;&gt;Level Once Sensor_linked -->
<g id="edge8" class="edge">
<title>Level Once Sensor&#45;&gt;Level Once Sensor_linked</title>
<path fill="none" stroke="#66cdaa" d="M159.2,-347C195.44,-347 239.89,-347 273.6,-347"/>
<polygon fill="#66cdaa" stroke="#66cdaa" points="273.53,-350.5 283.53,-347 273.53,-343.5 273.53,-350.5"/>
<text text-anchor="middle" x="220.62" y="-349.45" font-family="Helvetica,sans-Serif" font-size="14.00" fill="#66cdaa">QueueEnd</text>
</g>
<!-- RunAwaySensor -->
<g id="node14" class="node">
<title>RunAwaySensor</title>
<polygon fill="none" stroke="black" points="151.25,-419 34.75,-419 34.75,-383 151.25,-383 151.25,-419"/>
<text text-anchor="middle" x="93" y="-395.57" font-family="Helvetica,sans-Serif" font-size="14.00">RunAwaySensor</text>
</g>
<!-- AttackSensor -->
<g id="node15" class="node">
<title>AttackSensor</title>
<polygon fill="none" stroke="black" points="141.12,-473 44.88,-473 44.88,-437 141.12,-437 141.12,-473"/>
<text text-anchor="middle" x="93" y="-449.57" font-family="Helvetica,sans-Serif" font-size="14.00">AttackSensor</text>
</g>
<!-- AttackSensor_linked -->
<g id="node16" class="node">
<title>AttackSensor_linked</title>
<polygon fill="none" stroke="black" stroke-dasharray="1,5" points="366.23,-473 285.27,-473 285.27,-437 366.23,-437 366.23,-473"/>
<text text-anchor="start" x="290.88" y="-449.57" font-family="Helvetica,sans-Serif" font-size="14.00">RunAttack &#160;</text>
</g>
<!-- AttackSensor&#45;&gt;AttackSensor_linked -->
<g id="edge9" class="edge">
<title>AttackSensor&#45;&gt;AttackSensor_linked</title>
<path fill="none" stroke="#66cdaa" d="M141.53,-455C179.99,-455 234.06,-455 273.49,-455"/>
<polygon fill="#66cdaa" stroke="#66cdaa" points="273.45,-458.5 283.45,-455 273.45,-451.5 273.45,-458.5"/>
<text text-anchor="middle" x="220.62" y="-457.45" font-family="Helvetica,sans-Serif" font-size="14.00" fill="#66cdaa">QueueEnd</text>
</g>
<!-- DodgePredictSensor -->
<g id="node17" class="node">
<title>DodgePredictSensor</title>
<polygon fill="none" stroke="black" points="24,-517 24,-538.75 162,-538.75 162,-517 24,-517"/>
<text text-anchor="start" x="27" y="-522.45" font-family="Helvetica,sans-Serif" font-size="14.00">DodgePredictSensor &#160;</text>
<polygon fill="none" stroke="black" points="24,-495.25 24,-517 162,-517 162,-495.25 24,-495.25"/>
<text text-anchor="start" x="27" y="-501.7" font-family="Helvetica,sans-Serif" font-size="12.00" fill="#838b8b">if: Dodge</text>
<text text-anchor="start" x="75" y="-501.7" font-family="Helvetica,sans-Serif" font-size="14.00"> &#160;</text>
</g>
<!-- DodgePredictSensor_linked -->
<g id="node18" class="node">
<title>DodgePredictSensor_linked</title>
<polygon fill="none" stroke="black" stroke-dasharray="1,5" points="366.23,-535 285.27,-535 285.27,-499 366.23,-499 366.23,-535"/>
<text text-anchor="start" x="290.88" y="-511.57" font-family="Helvetica,sans-Serif" font-size="14.00">RunAttack &#160;</text>
</g>
<!-- DodgePredictSensor&#45;&gt;DodgePredictSensor_linked -->
<g id="edge10" class="edge">
<title>DodgePredictSensor&#45;&gt;DodgePredictSensor_linked</title>
<path fill="none" stroke="#66cdaa" d="M169.88,-517C203.89,-517 243.11,-517 273.57,-517"/>
<polygon fill="#66cdaa" stroke="#66cdaa" points="273.27,-520.5 283.27,-517 273.27,-513.5 273.27,-520.5"/>
<text text-anchor="middle" x="220.62" y="-519.45" font-family="Helvetica,sans-Serif" font-size="14.00" fill="#66cdaa">QueueEnd</text>
</g>
<!-- AttackPredictSensor -->
<g id="node19" class="node">
<title>AttackPredictSensor</title>
<polygon fill="none" stroke="black" points="25.12,-587 25.12,-608.75 160.88,-608.75 160.88,-587 25.12,-587"/>
<text text-anchor="start" x="28.12" y="-592.45" font-family="Helvetica,sans-Serif" font-size="14.00">AttackPredictSensor &#160;</text>
<polygon fill="none" stroke="black" points="25.12,-565.25 25.12,-587 160.88,-587 160.88,-565.25 25.12,-565.25"/>
<text text-anchor="start" x="28.12" y="-571.7" font-family="Helvetica,sans-Serif" font-size="12.00" fill="#838b8b">if: Attack</text>
<text text-anchor="start" x="73.12" y="-571.7" font-family="Helvetica,sans-Serif" font-size="14.00"> &#160;</text>
</g>
<!-- AttackPredictSensor_linked -->
<g id="node20" class="node">
<title>AttackPredictSensor_linked</title>
<polygon fill="none" stroke="black" stroke-dasharray="1,5" points="366.23,-605 285.27,-605 285.27,-569 366.23,-569 366.23,-605"/>
<text text-anchor="start" x="290.88" y="-581.58" font-family="Helvetica,sans-Serif" font-size="14.00">RunAttack &#160;</text>
</g>
<!-- AttackPredictSensor&#45;&gt;AttackPredictSensor_linked -->
<g id="edge11" class="edge">
<title>AttackPredictSensor&#45;&gt;AttackPredictSensor_linked</title>
<path fill="none" stroke="#66cdaa" d="M168.6,-587C202.93,-587 242.78,-587 273.63,-587"/>
<polygon fill="#66cdaa" stroke="#66cdaa" points="273.47,-590.5 283.47,-587 273.47,-583.5 273.47,-590.5"/>
<text text-anchor="middle" x="220.62" y="-589.45" font-family="Helvetica,sans-Serif" font-size="14.00" fill="#66cdaa">QueueEnd</text>
</g>
<!-- AttackRunToSensor -->
<g id="node21" class="node">
<title>AttackRunToSensor</title>
<polygon fill="none" stroke="black" points="26.62,-657 26.62,-678.75 159.38,-678.75 159.38,-657 26.62,-657"/>
<text text-anchor="start" x="29.62" y="-662.45" font-family="Helvetica,sans-Serif" font-size="14.00">AttackRunToSensor &#160;</text>
<polygon fill="none" stroke="black" points="26.62,-635.25 26.62,-657 159.38,-657 159.38,-635.25 26.62,-635.25"/>
<text text-anchor="start" x="29.62" y="-641.7" font-family="Helvetica,sans-Serif" font-size="12.00" fill="#838b8b">if: state is Engaging</text>
<text text-anchor="start" x="133.88" y="-641.7" font-family="Helvetica,sans-Serif" font-size="14.00"> &#160;</text>
</g>
<!-- AttackRunToSensor_linked -->
<g id="node22" class="node">
<title>AttackRunToSensor_linked</title>
<polygon fill="none" stroke="black" stroke-dasharray="1,5" points="366.23,-675 285.27,-675 285.27,-639 366.23,-639 366.23,-675"/>
<text text-anchor="start" x="290.88" y="-651.58" font-family="Helvetica,sans-Serif" font-size="14.00">RunAttack &#160;</text>
</g>
<!-- AttackRunToSensor&#45;&gt;AttackRunToSensor_linked -->
<g id="edge12" class="edge">
<title>AttackRunToSensor&#45;&gt;AttackRunToSensor_linked</title>
<path fill="none" stroke="#66cdaa" d="M167.33,-657C201.85,-657 242.19,-657 273.39,-657"/>
<polygon fill="#66cdaa" stroke="#66cdaa" points="273.35,-660.5 283.35,-657 273.35,-653.5 273.35,-660.5"/>
<text text-anchor="middle" x="220.62" y="-659.45" font-family="Helvetica,sans-Serif" font-size="14.00" fill="#66cdaa">QueueEnd</text>
</g>
</g>
</svg>
