<?xml version="1.0" encoding="UTF-8" standalone="no"?>
<!DOCTYPE svg PUBLIC "-//W3C//DTD SVG 1.1//EN"
 "http://www.w3.org/Graphics/SVG/1.1/DTD/svg11.dtd">
<!-- Generated by graphviz version 12.2.1 (20241206.2353)
 -->
<!-- Title: Foo Pages: 1 -->
<svg width="402pt" height="954pt"
 viewBox="0.00 0.00 402.25 953.88" xmlns="http://www.w3.org/2000/svg" xmlns:xlink="http://www.w3.org/1999/xlink">
<g id="graph0" class="graph" transform="scale(1 1) rotate(0) translate(4 949.88)">
<title>Foo</title>
<polygon fill="white" stroke="none" points="-4,4 -4,-949.88 398.25,-949.88 398.25,4 -4,4"/>
<g id="clust1" class="cluster">
<title>cluster_attacksensors</title>
<polygon fill="none" stroke="black" points="8,-435.88 8,-937.88 386.25,-937.88 386.25,-435.88 8,-435.88"/>
<text text-anchor="middle" x="197.12" y="-920.58" font-family="Helvetica,sans-Serif" font-size="14.00">Attack Sensors</text>
</g>
<!-- Attack -->
<g id="node1" class="node">
<title>Attack</title>
<polygon fill="none" stroke="black" points="54,-105.88 54,-127.62 132,-127.62 132,-105.88 54,-105.88"/>
<text text-anchor="start" x="70.5" y="-111.33" font-family="Helvetica,sans-Serif" font-size="14.00">Attack &#160;</text>
<polygon fill="none" stroke="black" points="54,-84.12 54,-105.88 132,-105.88 132,-84.12 54,-84.12"/>
<text text-anchor="start" x="57" y="-90.58" font-family="Helvetica,sans-Serif" font-size="12.00" fill="#838b8b">1.32s: Done</text>
<text text-anchor="start" x="121.5" y="-90.58" font-family="Helvetica,sans-Serif" font-size="14.00"> &#160;</text>
</g>
<!-- Engaging -->
<g id="node2" class="node">
<title>Engaging</title>
<polygon fill="none" stroke="black" points="364.62,-86.88 291.62,-86.88 291.62,-50.88 364.62,-50.88 364.62,-86.88"/>
<text text-anchor="middle" x="328.12" y="-63.45" font-family="Helvetica,sans-Serif" font-size="14.00">Engaging</text>
</g>
<!-- Attack&#45;&gt;Engaging -->
<g id="edge1" class="edge">
<title>Attack&#45;&gt;Engaging</title>
<path fill="none" stroke="#cdc8b1" d="M139.78,-98.61C180.3,-92.18 239.18,-82.83 280.07,-76.34"/>
<polygon fill="#cdc8b1" stroke="#cdc8b1" points="280.54,-79.81 289.87,-74.79 279.44,-72.9 280.54,-79.81"/>
</g>
<!-- AttackParrying -->
<g id="node3" class="node">
<title>AttackParrying</title>
<polygon fill="none" stroke="black" points="34.5,-36 34.5,-57.75 151.5,-57.75 151.5,-36 34.5,-36"/>
<text text-anchor="start" x="45.38" y="-41.45" font-family="Helvetica,sans-Serif" font-size="14.00">AttackParrying &#160;</text>
<polygon fill="none" stroke="black" points="34.5,-4 34.5,-36 151.5,-36 151.5,-4 34.5,-4"/>
<text text-anchor="start" x="37.5" y="-22.6" font-family="Helvetica,sans-Serif" font-size="12.00" fill="#838b8b">0.00s: EnableGravity</text>
<text text-anchor="start" x="37.5" y="-8.7" font-family="Helvetica,sans-Serif" font-size="12.00" fill="#838b8b">1.50s: Done</text>
<text text-anchor="start" x="102" y="-8.7" font-family="Helvetica,sans-Serif" font-size="14.00"> &#160;</text>
</g>
<!-- AttackParrying&#45;&gt;Engaging -->
<g id="edge2" class="edge">
<title>AttackParrying&#45;&gt;Engaging</title>
<path fill="none" stroke="#cdc8b1" d="M159.25,-41.51C197.61,-47.76 245.24,-55.53 279.96,-61.19"/>
<polygon fill="#cdc8b1" stroke="#cdc8b1" points="279.27,-64.62 289.71,-62.78 280.4,-57.71 279.27,-64.62"/>
</g>
<!-- HurtState -->
<g id="node4" class="node">
<title>HurtState</title>
<polygon fill="none" stroke="black" points="34.5,-346 34.5,-367.75 151.5,-367.75 151.5,-346 34.5,-346"/>
<text text-anchor="start" x="60.75" y="-351.45" font-family="Helvetica,sans-Serif" font-size="14.00">HurtState &#160;</text>
<polygon fill="none" stroke="black" points="34.5,-314 34.5,-346 151.5,-346 151.5,-314 34.5,-314"/>
<text text-anchor="start" x="37.5" y="-332.6" font-family="Helvetica,sans-Serif" font-size="12.00" fill="#838b8b">0.00s: EnableGravity</text>
<text text-anchor="start" x="37.5" y="-318.7" font-family="Helvetica,sans-Serif" font-size="12.00" fill="#838b8b">0.17s: Done</text>
<text text-anchor="start" x="102" y="-318.7" font-family="Helvetica,sans-Serif" font-size="14.00"> &#160;</text>
</g>
<!-- PreAttack -->
<g id="node5" class="node">
<title>PreAttack</title>
<polygon fill="none" stroke="black" points="365.38,-278.88 290.88,-278.88 290.88,-242.88 365.38,-242.88 365.38,-278.88"/>
<text text-anchor="middle" x="328.12" y="-255.45" font-family="Helvetica,sans-Serif" font-size="14.00">PreAttack</text>
</g>
<!-- HurtState&#45;&gt;PreAttack -->
<g id="edge3" class="edge">
<title>HurtState&#45;&gt;PreAttack</title>
<path fill="none" stroke="#cdc8b1" d="M159.25,-318.48C197.54,-305.35 245.05,-289.04 279.75,-277.13"/>
<polygon fill="#cdc8b1" stroke="#cdc8b1" points="280.78,-280.48 289.1,-273.92 278.51,-273.86 280.78,-280.48"/>
</g>
<!-- Hurt_BigState -->
<g id="node6" class="node">
<title>Hurt_BigState</title>
<polygon fill="none" stroke="black" points="34.5,-266 34.5,-287.75 151.5,-287.75 151.5,-266 34.5,-266"/>
<text text-anchor="start" x="47.25" y="-271.45" font-family="Helvetica,sans-Serif" font-size="14.00">Hurt_BigState &#160;</text>
<polygon fill="none" stroke="black" points="34.5,-234 34.5,-266 151.5,-266 151.5,-234 34.5,-234"/>
<text text-anchor="start" x="37.5" y="-252.6" font-family="Helvetica,sans-Serif" font-size="12.00" fill="#838b8b">0.00s: EnableGravity</text>
<text text-anchor="start" x="37.5" y="-238.7" font-family="Helvetica,sans-Serif" font-size="12.00" fill="#838b8b">1.00s: Done</text>
<text text-anchor="start" x="102" y="-238.7" font-family="Helvetica,sans-Serif" font-size="14.00"> &#160;</text>
</g>
<!-- Hurt_BigState&#45;&gt;PreAttack -->
<g id="edge4" class="edge">
<title>Hurt_BigState&#45;&gt;PreAttack</title>
<path fill="none" stroke="#cdc8b1" d="M159.25,-260.88C197.37,-260.88 244.64,-260.88 279.3,-260.88"/>
<polygon fill="#cdc8b1" stroke="#cdc8b1" points="279.02,-264.38 289.02,-260.88 279.02,-257.38 279.02,-264.38"/>
</g>
<!-- PostureBreak -->
<g id="node7" class="node">
<title>PostureBreak</title>
<polygon fill="none" stroke="black" points="34.5,-186 34.5,-207.75 151.5,-207.75 151.5,-186 34.5,-186"/>
<text text-anchor="start" x="48.38" y="-191.45" font-family="Helvetica,sans-Serif" font-size="14.00">PostureBreak &#160;</text>
<polygon fill="none" stroke="black" points="34.5,-154 34.5,-186 151.5,-186 151.5,-154 34.5,-154"/>
<text text-anchor="start" x="37.5" y="-172.6" font-family="Helvetica,sans-Serif" font-size="12.00" fill="#838b8b">0.00s: EnableGravity</text>
<text text-anchor="start" x="37.5" y="-158.7" font-family="Helvetica,sans-Serif" font-size="12.00" fill="#838b8b">3.50s: Done</text>
<text text-anchor="start" x="102" y="-158.7" font-family="Helvetica,sans-Serif" font-size="14.00"> &#160;</text>
</g>
<!-- PostureBreak&#45;&gt;PreAttack -->
<g id="edge5" class="edge">
<title>PostureBreak&#45;&gt;PreAttack</title>
<path fill="none" stroke="#cdc8b1" d="M159.25,-203.27C197.54,-216.4 245.05,-232.71 279.75,-244.62"/>
<polygon fill="#cdc8b1" stroke="#cdc8b1" points="278.51,-247.89 289.1,-247.83 280.78,-241.27 278.51,-247.89"/>
</g>
<!-- Wandering_Walking -->
<g id="node8" class="node">
<title>Wandering_Walking</title>
<polygon fill="none" stroke="black" points="176.75,-425.88 9.25,-425.88 9.25,-389.88 176.75,-389.88 176.75,-425.88"/>
<text text-anchor="middle" x="93" y="-402.45" font-family="Helvetica,sans-Serif" font-size="14.00">Wandering_Walking (Init)</text>
</g>
<!-- Level Once Sensor -->
<g id="node9" class="node">
<title>Level Once Sensor</title>
<polygon fill="none" stroke="black" points="158.75,-479.88 27.25,-479.88 27.25,-443.88 158.75,-443.88 158.75,-479.88"/>
<text text-anchor="middle" x="93" y="-456.45" font-family="Helvetica,sans-Serif" font-size="14.00">Level Once Sensor</text>
</g>
<!-- Level Once Sensor_linked -->
<g id="node10" class="node">
<title>Level Once Sensor_linked</title>
<polygon fill="none" stroke="black" stroke-dasharray="1,5" points="356.23,-479.88 300.02,-479.88 300.02,-443.88 356.23,-443.88 356.23,-479.88"/>
<text text-anchor="start" x="305.62" y="-456.45" font-family="Helvetica,sans-Serif" font-size="14.00">Attack &#160;</text>
</g>
<!-- Level Once Sensor&#45;&gt;Level Once Sensor_linked -->
<g id="edge6" class="edge">
<title>Level Once Sensor&#45;&gt;Level Once Sensor_linked</title>
<path fill="none" stroke="#66cdaa" d="M159.25,-461.88C200.88,-461.88 253.42,-461.88 288.53,-461.88"/>
<polygon fill="#66cdaa" stroke="#66cdaa" points="288.22,-465.38 298.22,-461.88 288.22,-458.38 288.22,-465.38"/>
<text text-anchor="middle" x="227.38" y="-464.32" font-family="Helvetica,sans-Serif" font-size="14.00" fill="#66cdaa">QueueEnd</text>
</g>
<!-- Level Once Sensor_mustuse -->
<g id="node11" class="node">
<title>Level Once Sensor_mustuse</title>
<polygon fill="none" stroke="black" stroke-dasharray="1,5" points="378.25,-533.88 278,-533.88 278,-497.88 378.25,-497.88 378.25,-533.88"/>
<text text-anchor="start" x="288" y="-510.45" font-family="Helvetica,sans-Serif" font-size="14.00">1 Undefined &#160;</text>
</g>
<!-- Level Once Sensor&#45;&gt;Level Once Sensor_mustuse -->
<g id="edge7" class="edge">
<title>Level Once Sensor&#45;&gt;Level Once Sensor_mustuse</title>
<path fill="none" stroke="#458b74" d="M159.25,-476.99C193.01,-484.81 233.95,-494.29 266.95,-501.94"/>
<polygon fill="#458b74" stroke="#458b74" points="265.81,-505.27 276.34,-504.11 267.39,-498.45 265.81,-505.27"/>
<text text-anchor="middle" x="227.38" y="-502.37" font-family="Helvetica,sans-Serif" font-size="14.00" fill="#458b74">Weight</text>
</g>
<!-- RunAwaySensor -->
<g id="node12" class="node">
<title>RunAwaySensor</title>
<polygon fill="none" stroke="black" points="151.25,-533.88 34.75,-533.88 34.75,-497.88 151.25,-497.88 151.25,-533.88"/>
<text text-anchor="middle" x="93" y="-510.45" font-family="Helvetica,sans-Serif" font-size="14.00">RunAwaySensor</text>
</g>
<!-- AttackSensor -->
<g id="node13" class="node">
<title>AttackSensor</title>
<polygon fill="none" stroke="black" points="141.12,-587.88 44.88,-587.88 44.88,-551.88 141.12,-551.88 141.12,-587.88"/>
<text text-anchor="middle" x="93" y="-564.45" font-family="Helvetica,sans-Serif" font-size="14.00">AttackSensor</text>
</g>
<!-- AttackSensor_linked -->
<g id="node14" class="node">
<title>AttackSensor_linked</title>
<polygon fill="none" stroke="black" stroke-dasharray="1,5" points="356.23,-587.88 300.02,-587.88 300.02,-551.88 356.23,-551.88 356.23,-587.88"/>
<text text-anchor="start" x="305.62" y="-564.45" font-family="Helvetica,sans-Serif" font-size="14.00">Attack &#160;</text>
</g>
<!-- AttackSensor&#45;&gt;AttackSensor_linked -->
<g id="edge8" class="edge">
<title>AttackSensor&#45;&gt;AttackSensor_linked</title>
<path fill="none" stroke="#66cdaa" d="M141.46,-569.88C184.74,-569.88 247.93,-569.88 288.28,-569.88"/>
<polygon fill="#66cdaa" stroke="#66cdaa" points="288.26,-573.38 298.26,-569.88 288.26,-566.38 288.26,-573.38"/>
<text text-anchor="middle" x="227.38" y="-572.33" font-family="Helvetica,sans-Serif" font-size="14.00" fill="#66cdaa">QueueEnd</text>
</g>
<!-- AttackSensor_mustuse -->
<g id="node15" class="node">
<title>AttackSensor_mustuse</title>
<polygon fill="none" stroke="black" stroke-dasharray="1,5" points="378.25,-641.88 278,-641.88 278,-605.88 378.25,-605.88 378.25,-641.88"/>
<text text-anchor="start" x="288" y="-618.45" font-family="Helvetica,sans-Serif" font-size="14.00">1 Undefined &#160;</text>
</g>
<!-- AttackSensor&#45;&gt;AttackSensor_mustuse -->
<g id="edge9" class="edge">
<title>AttackSensor&#45;&gt;AttackSensor_mustuse</title>
<path fill="none" stroke="#458b74" d="M141.46,-580.87C177.57,-589.23 227.52,-600.8 266.52,-609.84"/>
<polygon fill="#458b74" stroke="#458b74" points="265.72,-613.24 276.25,-612.09 267.3,-606.42 265.72,-613.24"/>
<text text-anchor="middle" x="227.38" y="-610.37" font-family="Helvetica,sans-Serif" font-size="14.00" fill="#458b74">Weight</text>
</g>
<!-- DodgePredictSensor -->
<g id="node16" class="node">
<title>DodgePredictSensor</title>
<polygon fill="none" stroke="black" points="24,-631.88 24,-653.62 162,-653.62 162,-631.88 24,-631.88"/>
<text text-anchor="start" x="27" y="-637.33" font-family="Helvetica,sans-Serif" font-size="14.00">DodgePredictSensor &#160;</text>
<polygon fill="none" stroke="black" points="24,-610.12 24,-631.88 162,-631.88 162,-610.12 24,-610.12"/>
<text text-anchor="start" x="27" y="-616.58" font-family="Helvetica,sans-Serif" font-size="12.00" fill="#838b8b">if: Dodge</text>
<text text-anchor="start" x="75" y="-616.58" font-family="Helvetica,sans-Serif" font-size="14.00"> &#160;</text>
</g>
<!-- DodgePredictSensor_linked -->
<g id="node17" class="node">
<title>DodgePredictSensor_linked</title>
<polygon fill="none" stroke="black" stroke-dasharray="1,5" points="356.23,-695.88 300.02,-695.88 300.02,-659.88 356.23,-659.88 356.23,-695.88"/>
<text text-anchor="start" x="305.62" y="-672.45" font-family="Helvetica,sans-Serif" font-size="14.00">Attack &#160;</text>
</g>
<!-- DodgePredictSensor&#45;&gt;DodgePredictSensor_linked -->
<g id="edge10" class="edge">
<title>DodgePredictSensor&#45;&gt;DodgePredictSensor_linked</title>
<path fill="none" stroke="#66cdaa" d="M169.69,-646.81C209.36,-654.64 256.25,-663.89 288.49,-670.25"/>
<polygon fill="#66cdaa" stroke="#66cdaa" points="287.68,-673.66 298.17,-672.16 289.04,-666.79 287.68,-673.66"/>
<text text-anchor="middle" x="227.38" y="-666.73" font-family="Helvetica,sans-Serif" font-size="14.00" fill="#66cdaa">QueueEnd</text>
</g>
<!-- AttackPredictSensor -->
<g id="node18" class="node">
<title>AttackPredictSensor</title>
<polygon fill="none" stroke="black" points="25.12,-701.88 25.12,-723.62 160.88,-723.62 160.88,-701.88 25.12,-701.88"/>
<text text-anchor="start" x="28.12" y="-707.33" font-family="Helvetica,sans-Serif" font-size="14.00">AttackPredictSensor &#160;</text>
<polygon fill="none" stroke="black" points="25.12,-680.12 25.12,-701.88 160.88,-701.88 160.88,-680.12 25.12,-680.12"/>
<text text-anchor="start" x="28.12" y="-686.58" font-family="Helvetica,sans-Serif" font-size="12.00" fill="#838b8b">if: Attack</text>
<text text-anchor="start" x="73.12" y="-686.58" font-family="Helvetica,sans-Serif" font-size="14.00"> &#160;</text>
</g>
<!-- AttackPredictSensor_linked -->
<g id="node19" class="node">
<title>AttackPredictSensor_linked</title>
<polygon fill="none" stroke="black" stroke-dasharray="1,5" points="356.23,-749.88 300.02,-749.88 300.02,-713.88 356.23,-713.88 356.23,-749.88"/>
<text text-anchor="start" x="305.62" y="-726.45" font-family="Helvetica,sans-Serif" font-size="14.00">Attack &#160;</text>
</g>
<!-- AttackPredictSensor&#45;&gt;AttackPredictSensor_linked -->
<g id="edge11" class="edge">
<title>AttackPredictSensor&#45;&gt;AttackPredictSensor_linked</title>
<path fill="none" stroke="#66cdaa" d="M168.72,-711.49C208.58,-716.62 255.96,-722.72 288.45,-726.9"/>
<polygon fill="#66cdaa" stroke="#66cdaa" points="287.84,-730.35 298.2,-728.15 288.73,-723.41 287.84,-730.35"/>
<text text-anchor="middle" x="227.38" y="-725.46" font-family="Helvetica,sans-Serif" font-size="14.00" fill="#66cdaa">QueueEnd</text>
</g>
<!-- AttackRunToSensor -->
<g id="node20" class="node">
<title>AttackRunToSensor</title>
<polygon fill="none" stroke="black" points="26.62,-771.88 26.62,-793.62 159.38,-793.62 159.38,-771.88 26.62,-771.88"/>
<text text-anchor="start" x="29.62" y="-777.33" font-family="Helvetica,sans-Serif" font-size="14.00">AttackRunToSensor &#160;</text>
<polygon fill="none" stroke="black" points="26.62,-750.12 26.62,-771.88 159.38,-771.88 159.38,-750.12 26.62,-750.12"/>
<text text-anchor="start" x="29.62" y="-756.58" font-family="Helvetica,sans-Serif" font-size="12.00" fill="#838b8b">if: state is Engaging</text>
<text text-anchor="start" x="133.88" y="-756.58" font-family="Helvetica,sans-Serif" font-size="14.00"> &#160;</text>
</g>
<!-- AttackRunToSensor_linked -->
<g id="node21" class="node">
<title>AttackRunToSensor_linked</title>
<polygon fill="none" stroke="black" stroke-dasharray="1,5" points="356.23,-803.88 300.02,-803.88 300.02,-767.88 356.23,-767.88 356.23,-803.88"/>
<text text-anchor="start" x="305.62" y="-780.45" font-family="Helvetica,sans-Serif" font-size="14.00">Attack &#160;</text>
</g>
<!-- AttackRunToSensor&#45;&gt;AttackRunToSensor_linked -->
<g id="edge12" class="edge">
<title>AttackRunToSensor&#45;&gt;AttackRunToSensor_linked</title>
<path fill="none" stroke="#66cdaa" d="M167.12,-776.27C207.2,-778.67 255.27,-781.56 288.2,-783.54"/>
<polygon fill="#66cdaa" stroke="#66cdaa" points="287.89,-787.03 298.09,-784.13 288.31,-780.04 287.89,-787.03"/>
<text text-anchor="middle" x="227.38" y="-784.19" font-family="Helvetica,sans-Serif" font-size="14.00" fill="#66cdaa">QueueEnd</text>
</g>
<!-- AttackRunToSensor_mustuse -->
<g id="node22" class="node">
<title>AttackRunToSensor_mustuse</title>
<polygon fill="none" stroke="black" stroke-dasharray="1,5" points="378.25,-857.88 278,-857.88 278,-821.88 378.25,-821.88 378.25,-857.88"/>
<text text-anchor="start" x="288" y="-834.45" font-family="Helvetica,sans-Serif" font-size="14.00">1 Undefined &#160;</text>
</g>
<!-- AttackRunToSensor&#45;&gt;AttackRunToSensor_mustuse -->
<g id="edge13" class="edge">
<title>AttackRunToSensor&#45;&gt;AttackRunToSensor_mustuse</title>
<path fill="none" stroke="#458b74" d="M167.16,-793.75C176.44,-796.5 185.82,-799.26 194.75,-801.88 218.32,-808.77 244.28,-816.24 266.92,-822.73"/>
<polygon fill="#458b74" stroke="#458b74" points="265.71,-826.02 276.29,-825.41 267.64,-819.29 265.71,-826.02"/>
<text text-anchor="middle" x="227.38" y="-823.15" font-family="Helvetica,sans-Serif" font-size="14.00" fill="#458b74">Weight</text>
</g>
<!-- RollSensor (1) -->
<g id="node23" class="node">
<title>RollSensor (1)</title>
<polygon fill="none" stroke="black" points="144.12,-851.88 41.88,-851.88 41.88,-815.88 144.12,-815.88 144.12,-851.88"/>
<text text-anchor="middle" x="93" y="-828.45" font-family="Helvetica,sans-Serif" font-size="14.00">RollSensor (1)</text>
</g>
<!-- EspcaeSensor (1) -->
<g id="node24" class="node">
<title>EspcaeSensor (1)</title>
<polygon fill="none" stroke="black" points="155,-905.88 31,-905.88 31,-869.88 155,-869.88 155,-905.88"/>
<text text-anchor="middle" x="93" y="-882.45" font-family="Helvetica,sans-Serif" font-size="14.00">EspcaeSensor (1)</text>
</g>
</g>
</svg>
