<?xml version="1.0" encoding="UTF-8" standalone="no"?>
<!DOCTYPE svg PUBLIC "-//W3C//DTD SVG 1.1//EN"
 "http://www.w3.org/Graphics/SVG/1.1/DTD/svg11.dtd">
<!-- Generated by graphviz version 12.2.1 (20241206.2353)
 -->
<!-- Title: Foo Pages: 1 -->
<svg width="789pt" height="697pt"
 viewBox="0.00 0.00 789.00 696.88" xmlns="http://www.w3.org/2000/svg" xmlns:xlink="http://www.w3.org/1999/xlink">
<g id="graph0" class="graph" transform="scale(1 1) rotate(0) translate(4 692.88)">
<title>Foo</title>
<polygon fill="white" stroke="none" points="-4,4 -4,-692.88 785,-692.88 785,4 -4,4"/>
<g id="clust1" class="cluster">
<title>cluster_attacksensors</title>
<polygon fill="none" stroke="black" points="8,-286.88 8,-680.88 457,-680.88 457,-286.88 8,-286.88"/>
<text text-anchor="middle" x="232.5" y="-663.58" font-family="Helvetica,sans-Serif" font-size="14.00">Attack Sensors</text>
</g>
<!-- Attack_FlyingRing -->
<g id="node1" class="node">
<title>Attack_FlyingRing</title>
<polygon fill="none" stroke="black" points="314.5,-36 314.5,-57.75 436.75,-57.75 436.75,-36 314.5,-36"/>
<text text-anchor="start" x="317.5" y="-41.45" font-family="Helvetica,sans-Serif" font-size="14.00">Attack_FlyingRing &#160;</text>
<polygon fill="none" stroke="black" points="314.5,-4 314.5,-36 436.75,-36 436.75,-4 314.5,-4"/>
<text text-anchor="start" x="317.5" y="-22.6" font-family="Helvetica,sans-Serif" font-size="12.00" fill="#838b8b">0.00s: DisableGravity</text>
<text text-anchor="start" x="317.5" y="-8.7" font-family="Helvetica,sans-Serif" font-size="12.00" fill="#838b8b">5.67s: Done</text>
<text text-anchor="start" x="382" y="-8.7" font-family="Helvetica,sans-Serif" font-size="14.00"> &#160;</text>
</g>
<!-- Attack_FlyingToSeat -->
<g id="node2" class="node">
<title>Attack_FlyingToSeat</title>
<polygon fill="none" stroke="black" points="525,-105.88 525,-127.62 661.5,-127.62 661.5,-105.88 525,-105.88"/>
<text text-anchor="start" x="528" y="-111.33" font-family="Helvetica,sans-Serif" font-size="14.00">Attack_FlyingToSeat &#160;</text>
<polygon fill="none" stroke="black" points="525,-84.12 525,-105.88 661.5,-105.88 661.5,-84.12 525,-84.12"/>
<text text-anchor="start" x="528" y="-90.58" font-family="Helvetica,sans-Serif" font-size="12.00" fill="#838b8b">6.42s: Done</text>
<text text-anchor="start" x="592.5" y="-90.58" font-family="Helvetica,sans-Serif" font-size="14.00"> &#160;</text>
</g>
<!-- Attack_FlyingRing&#45;&gt;Attack_FlyingToSeat -->
<g id="edge1" class="edge">
<title>Attack_FlyingRing&#45;&gt;Attack_FlyingToSeat</title>
<path fill="none" stroke="#cdc8b1" d="M444.55,-54.5C464.53,-61.45 486.63,-69.14 507.51,-76.4"/>
<polygon fill="#cdc8b1" stroke="#cdc8b1" points="506.28,-79.68 516.88,-79.66 508.58,-73.07 506.28,-79.68"/>
</g>
<!-- Seat -->
<g id="node3" class="node">
<title>Seat</title>
<polygon fill="none" stroke="black" points="781,-123.88 706.5,-123.88 706.5,-87.88 781,-87.88 781,-123.88"/>
<text text-anchor="middle" x="743.75" y="-100.45" font-family="Helvetica,sans-Serif" font-size="14.00">Seat (Init)</text>
</g>
<!-- Attack_FlyingToSeat&#45;&gt;Seat -->
<g id="edge2" class="edge">
<title>Attack_FlyingToSeat&#45;&gt;Seat</title>
<path fill="none" stroke="#cdc8b1" d="M669.37,-105.88C677.97,-105.88 686.56,-105.88 694.67,-105.88"/>
<polygon fill="#cdc8b1" stroke="#cdc8b1" points="694.64,-109.38 704.64,-105.88 694.64,-102.38 694.64,-109.38"/>
</g>
<!-- Attack_FlyingRing_Weakness -->
<g id="node4" class="node">
<title>Attack_FlyingRing_Weakness</title>
<polygon fill="none" stroke="black" points="279.25,-186 279.25,-207.75 472,-207.75 472,-186 279.25,-186"/>
<text text-anchor="start" x="282.25" y="-191.45" font-family="Helvetica,sans-Serif" font-size="14.00">Attack_FlyingRing_Weakness &#160;</text>
<polygon fill="none" stroke="black" points="279.25,-154 279.25,-186 472,-186 472,-154 279.25,-154"/>
<text text-anchor="start" x="282.25" y="-172.6" font-family="Helvetica,sans-Serif" font-size="12.00" fill="#838b8b">0.00s: DisableGravity</text>
<text text-anchor="start" x="282.25" y="-158.7" font-family="Helvetica,sans-Serif" font-size="12.00" fill="#838b8b">5.67s: Done</text>
<text text-anchor="start" x="346.75" y="-158.7" font-family="Helvetica,sans-Serif" font-size="14.00"> &#160;</text>
</g>
<!-- Attack_FlyingRing_Weakness&#45;&gt;Attack_FlyingToSeat -->
<g id="edge3" class="edge">
<title>Attack_FlyingRing_Weakness&#45;&gt;Attack_FlyingToSeat</title>
<path fill="none" stroke="#cdc8b1" d="M465.26,-150.04C479.33,-145.15 493.85,-140.1 507.82,-135.24"/>
<polygon fill="#cdc8b1" stroke="#cdc8b1" points="508.65,-138.66 516.95,-132.07 506.35,-132.05 508.65,-138.66"/>
</g>
<!-- StandUp_Weakness -->
<g id="node5" class="node">
<title>StandUp_Weakness</title>
<polygon fill="none" stroke="black" points="24.75,-180.88 24.75,-202.62 161.25,-202.62 161.25,-180.88 24.75,-180.88"/>
<text text-anchor="start" x="27.75" y="-186.32" font-family="Helvetica,sans-Serif" font-size="14.00">StandUp_Weakness &#160;</text>
<polygon fill="none" stroke="black" points="24.75,-159.12 24.75,-180.88 161.25,-180.88 161.25,-159.12 24.75,-159.12"/>
<text text-anchor="start" x="27.75" y="-165.57" font-family="Helvetica,sans-Serif" font-size="12.00" fill="#838b8b">6.12s: Done</text>
<text text-anchor="start" x="92.25" y="-165.57" font-family="Helvetica,sans-Serif" font-size="14.00"> &#160;</text>
</g>
<!-- StandUp_Weakness&#45;&gt;Attack_FlyingRing_Weakness -->
<g id="edge4" class="edge">
<title>StandUp_Weakness&#45;&gt;Attack_FlyingRing_Weakness</title>
<path fill="none" stroke="#cdc8b1" d="M169.2,-180.88C197.11,-180.88 229.43,-180.88 260.06,-180.88"/>
<polygon fill="#cdc8b1" stroke="#cdc8b1" points="259.74,-184.38 269.74,-180.88 259.74,-177.38 259.74,-184.38"/>
</g>
<!-- HurtState -->
<g id="node6" class="node">
<title>HurtState</title>
<polygon fill="none" stroke="black" points="336.62,-105.88 336.62,-127.62 414.62,-127.62 414.62,-105.88 336.62,-105.88"/>
<text text-anchor="start" x="343.38" y="-111.33" font-family="Helvetica,sans-Serif" font-size="14.00">HurtState &#160;</text>
<polygon fill="none" stroke="black" points="336.62,-84.12 336.62,-105.88 414.62,-105.88 414.62,-84.12 336.62,-84.12"/>
<text text-anchor="start" x="339.62" y="-90.58" font-family="Helvetica,sans-Serif" font-size="12.00" fill="#838b8b">0.42s: Done</text>
<text text-anchor="start" x="404.12" y="-90.58" font-family="Helvetica,sans-Serif" font-size="14.00"> &#160;</text>
</g>
<!-- HurtState&#45;&gt;Attack_FlyingToSeat -->
<g id="edge5" class="edge">
<title>HurtState&#45;&gt;Attack_FlyingToSeat</title>
<path fill="none" stroke="#cdc8b1" d="M422.62,-105.88C446.86,-105.88 477.4,-105.88 505.86,-105.88"/>
<polygon fill="#cdc8b1" stroke="#cdc8b1" points="505.55,-109.38 515.55,-105.88 505.55,-102.38 505.55,-109.38"/>
</g>
<!-- LastHit -->
<g id="node7" class="node">
<title>LastHit</title>
<polygon fill="none" stroke="black" points="54,-250.88 54,-272.62 132,-272.62 132,-250.88 54,-250.88"/>
<text text-anchor="start" x="68.25" y="-256.32" font-family="Helvetica,sans-Serif" font-size="14.00">LastHit &#160;</text>
<polygon fill="none" stroke="black" points="54,-229.12 54,-250.88 132,-250.88 132,-229.12 54,-229.12"/>
<text text-anchor="start" x="57" y="-235.57" font-family="Helvetica,sans-Serif" font-size="12.00" fill="#838b8b">2.50s: Done</text>
<text text-anchor="start" x="121.5" y="-235.57" font-family="Helvetica,sans-Serif" font-size="14.00"> &#160;</text>
</g>
<!-- DeadState -->
<g id="node8" class="node">
<title>DeadState</title>
<polygon fill="none" stroke="black" points="415.5,-268.88 335.75,-268.88 335.75,-232.88 415.5,-232.88 415.5,-268.88"/>
<text text-anchor="middle" x="375.62" y="-245.45" font-family="Helvetica,sans-Serif" font-size="14.00">DeadState</text>
</g>
<!-- LastHit&#45;&gt;DeadState -->
<g id="edge6" class="edge">
<title>LastHit&#45;&gt;DeadState</title>
<path fill="none" stroke="#cdc8b1" d="M139.71,-250.88C190.25,-250.88 271.43,-250.88 323.89,-250.88"/>
<polygon fill="#cdc8b1" stroke="#cdc8b1" points="323.77,-254.38 333.77,-250.88 323.77,-247.38 323.77,-254.38"/>
</g>
<!-- StandUp -->
<g id="node9" class="node">
<title>StandUp</title>
<polygon fill="none" stroke="black" points="54,-30.88 54,-52.62 132,-52.62 132,-30.88 54,-30.88"/>
<text text-anchor="start" x="63" y="-36.33" font-family="Helvetica,sans-Serif" font-size="14.00">StandUp &#160;</text>
<polygon fill="none" stroke="black" points="54,-9.12 54,-30.88 132,-30.88 132,-9.12 54,-9.12"/>
<text text-anchor="start" x="57" y="-15.57" font-family="Helvetica,sans-Serif" font-size="12.00" fill="#838b8b">6.08s: Done</text>
<text text-anchor="start" x="121.5" y="-15.57" font-family="Helvetica,sans-Serif" font-size="14.00"> &#160;</text>
</g>
<!-- StandUp&#45;&gt;Attack_FlyingRing -->
<g id="edge7" class="edge">
<title>StandUp&#45;&gt;Attack_FlyingRing</title>
<path fill="none" stroke="#cdc8b1" d="M139.71,-30.88C181.71,-30.88 244.88,-30.88 295.14,-30.88"/>
<polygon fill="#cdc8b1" stroke="#cdc8b1" points="295.12,-34.38 305.12,-30.88 295.12,-27.38 295.12,-34.38"/>
</g>
<!-- Level Once Sensor -->
<g id="node10" class="node">
<title>Level Once Sensor</title>
<polygon fill="none" stroke="black" points="158.75,-330.88 27.25,-330.88 27.25,-294.88 158.75,-294.88 158.75,-330.88"/>
<text text-anchor="middle" x="93" y="-307.45" font-family="Helvetica,sans-Serif" font-size="14.00">Level Once Sensor</text>
</g>
<!-- Level Once Sensor_linked -->
<g id="node11" class="node">
<title>Level Once Sensor_linked</title>
<polygon fill="none" stroke="black" stroke-dasharray="1,5" points="439.35,-330.88 311.9,-330.88 311.9,-294.88 439.35,-294.88 439.35,-330.88"/>
<text text-anchor="start" x="317.5" y="-307.45" font-family="Helvetica,sans-Serif" font-size="14.00">Attack_FlyingRing &#160;</text>
</g>
<!-- Level Once Sensor&#45;&gt;Level Once Sensor_linked -->
<g id="edge8" class="edge">
<title>Level Once Sensor&#45;&gt;Level Once Sensor_linked</title>
<path fill="none" stroke="#66cdaa" d="M159.09,-312.88C201.3,-312.88 256.4,-312.88 300.33,-312.88"/>
<polygon fill="#66cdaa" stroke="#66cdaa" points="300.31,-316.38 310.31,-312.88 300.31,-309.38 300.31,-316.38"/>
<text text-anchor="middle" x="220.62" y="-315.32" font-family="Helvetica,sans-Serif" font-size="14.00" fill="#66cdaa">QueueEnd</text>
</g>
<!-- Level Once Sensor_mustuse -->
<g id="node12" class="node">
<title>Level Once Sensor_mustuse</title>
<polygon fill="none" stroke="black" stroke-dasharray="1,5" points="449,-384.88 302.25,-384.88 302.25,-348.88 449,-348.88 449,-384.88"/>
<text text-anchor="start" x="312.25" y="-361.45" font-family="Helvetica,sans-Serif" font-size="14.00">1 Attack_FlyingRing &#160;</text>
</g>
<!-- Level Once Sensor&#45;&gt;Level Once Sensor_mustuse -->
<g id="edge9" class="edge">
<title>Level Once Sensor&#45;&gt;Level Once Sensor_mustuse</title>
<path fill="none" stroke="#458b74" d="M159.18,-327C168.83,-329.02 178.67,-331.03 188,-332.88 221.53,-339.49 258.54,-346.33 290.7,-352.13"/>
<polygon fill="#458b74" stroke="#458b74" points="289.91,-355.54 300.37,-353.86 291.14,-348.65 289.91,-355.54"/>
<text text-anchor="middle" x="220.62" y="-347.05" font-family="Helvetica,sans-Serif" font-size="14.00" fill="#458b74">Weight</text>
</g>
<!-- RunAwaySensor -->
<g id="node13" class="node">
<title>RunAwaySensor</title>
<polygon fill="none" stroke="black" points="151.25,-384.88 34.75,-384.88 34.75,-348.88 151.25,-348.88 151.25,-384.88"/>
<text text-anchor="middle" x="93" y="-361.45" font-family="Helvetica,sans-Serif" font-size="14.00">RunAwaySensor</text>
</g>
<!-- AttackSensor -->
<g id="node14" class="node">
<title>AttackSensor</title>
<polygon fill="none" stroke="black" points="141.12,-438.88 44.88,-438.88 44.88,-402.88 141.12,-402.88 141.12,-438.88"/>
<text text-anchor="middle" x="93" y="-415.45" font-family="Helvetica,sans-Serif" font-size="14.00">AttackSensor</text>
</g>
<!-- AttackSensor_linked -->
<g id="node15" class="node">
<title>AttackSensor_linked</title>
<polygon fill="none" stroke="black" stroke-dasharray="1,5" points="439.35,-438.88 311.9,-438.88 311.9,-402.88 439.35,-402.88 439.35,-438.88"/>
<text text-anchor="start" x="317.5" y="-415.45" font-family="Helvetica,sans-Serif" font-size="14.00">Attack_FlyingRing &#160;</text>
</g>
<!-- AttackSensor&#45;&gt;AttackSensor_linked -->
<g id="edge10" class="edge">
<title>AttackSensor&#45;&gt;AttackSensor_linked</title>
<path fill="none" stroke="#66cdaa" d="M141.6,-420.88C184.98,-420.88 249.75,-420.88 300.01,-420.88"/>
<polygon fill="#66cdaa" stroke="#66cdaa" points="299.96,-424.38 309.96,-420.88 299.96,-417.38 299.96,-424.38"/>
<text text-anchor="middle" x="220.62" y="-423.32" font-family="Helvetica,sans-Serif" font-size="14.00" fill="#66cdaa">QueueEnd</text>
</g>
<!-- DodgePredictSensor -->
<g id="node16" class="node">
<title>DodgePredictSensor</title>
<polygon fill="none" stroke="black" points="24,-482.88 24,-504.62 162,-504.62 162,-482.88 24,-482.88"/>
<text text-anchor="start" x="27" y="-488.32" font-family="Helvetica,sans-Serif" font-size="14.00">DodgePredictSensor &#160;</text>
<polygon fill="none" stroke="black" points="24,-461.12 24,-482.88 162,-482.88 162,-461.12 24,-461.12"/>
<text text-anchor="start" x="27" y="-467.57" font-family="Helvetica,sans-Serif" font-size="12.00" fill="#838b8b">if: rollingCondition</text>
<text text-anchor="start" x="123.75" y="-467.57" font-family="Helvetica,sans-Serif" font-size="14.00"> &#160;</text>
</g>
<!-- DodgePredictSensor_linked -->
<g id="node17" class="node">
<title>DodgePredictSensor_linked</title>
<polygon fill="none" stroke="black" stroke-dasharray="1,5" points="439.35,-500.88 311.9,-500.88 311.9,-464.88 439.35,-464.88 439.35,-500.88"/>
<text text-anchor="start" x="317.5" y="-477.45" font-family="Helvetica,sans-Serif" font-size="14.00">Attack_FlyingRing &#160;</text>
</g>
<!-- DodgePredictSensor&#45;&gt;DodgePredictSensor_linked -->
<g id="edge11" class="edge">
<title>DodgePredictSensor&#45;&gt;DodgePredictSensor_linked</title>
<path fill="none" stroke="#66cdaa" d="M169.94,-482.88C210.36,-482.88 259.88,-482.88 300.08,-482.88"/>
<polygon fill="#66cdaa" stroke="#66cdaa" points="299.92,-486.38 309.92,-482.88 299.92,-479.38 299.92,-486.38"/>
<text text-anchor="middle" x="220.62" y="-485.32" font-family="Helvetica,sans-Serif" font-size="14.00" fill="#66cdaa">QueueEnd</text>
</g>
<!-- AttackPredictSensor -->
<g id="node18" class="node">
<title>AttackPredictSensor</title>
<polygon fill="none" stroke="black" points="25.12,-552.88 25.12,-574.62 160.88,-574.62 160.88,-552.88 25.12,-552.88"/>
<text text-anchor="start" x="28.12" y="-558.33" font-family="Helvetica,sans-Serif" font-size="14.00">AttackPredictSensor &#160;</text>
<polygon fill="none" stroke="black" points="25.12,-531.12 25.12,-552.88 160.88,-552.88 160.88,-531.12 25.12,-531.12"/>
<text text-anchor="start" x="28.12" y="-537.58" font-family="Helvetica,sans-Serif" font-size="12.00" fill="#838b8b">if: attackCondition</text>
<text text-anchor="start" x="123.38" y="-537.58" font-family="Helvetica,sans-Serif" font-size="14.00"> &#160;</text>
</g>
<!-- AttackPredictSensor_linked -->
<g id="node19" class="node">
<title>AttackPredictSensor_linked</title>
<polygon fill="none" stroke="black" stroke-dasharray="1,5" points="439.35,-570.88 311.9,-570.88 311.9,-534.88 439.35,-534.88 439.35,-570.88"/>
<text text-anchor="start" x="317.5" y="-547.45" font-family="Helvetica,sans-Serif" font-size="14.00">Attack_FlyingRing &#160;</text>
</g>
<!-- AttackPredictSensor&#45;&gt;AttackPredictSensor_linked -->
<g id="edge12" class="edge">
<title>AttackPredictSensor&#45;&gt;AttackPredictSensor_linked</title>
<path fill="none" stroke="#66cdaa" d="M168.83,-552.88C209.41,-552.88 259.41,-552.88 299.96,-552.88"/>
<polygon fill="#66cdaa" stroke="#66cdaa" points="299.89,-556.38 309.89,-552.88 299.89,-549.38 299.89,-556.38"/>
<text text-anchor="middle" x="220.62" y="-555.33" font-family="Helvetica,sans-Serif" font-size="14.00" fill="#66cdaa">QueueEnd</text>
</g>
<!-- AttackRunToSensor -->
<g id="node20" class="node">
<title>AttackRunToSensor</title>
<polygon fill="none" stroke="black" points="26.62,-622.88 26.62,-644.62 159.38,-644.62 159.38,-622.88 26.62,-622.88"/>
<text text-anchor="start" x="29.62" y="-628.33" font-family="Helvetica,sans-Serif" font-size="14.00">AttackRunToSensor &#160;</text>
<polygon fill="none" stroke="black" points="26.62,-601.12 26.62,-622.88 159.38,-622.88 159.38,-601.12 26.62,-601.12"/>
<text text-anchor="start" x="29.62" y="-607.58" font-family="Helvetica,sans-Serif" font-size="12.00" fill="#838b8b">if: state is Engaging</text>
<text text-anchor="start" x="133.88" y="-607.58" font-family="Helvetica,sans-Serif" font-size="14.00"> &#160;</text>
</g>
<!-- AttackRunToSensor_linked -->
<g id="node21" class="node">
<title>AttackRunToSensor_linked</title>
<polygon fill="none" stroke="black" stroke-dasharray="1,5" points="439.35,-640.88 311.9,-640.88 311.9,-604.88 439.35,-604.88 439.35,-640.88"/>
<text text-anchor="start" x="317.5" y="-617.45" font-family="Helvetica,sans-Serif" font-size="14.00">Attack_FlyingRing &#160;</text>
</g>
<!-- AttackRunToSensor&#45;&gt;AttackRunToSensor_linked -->
<g id="edge13" class="edge">
<title>AttackRunToSensor&#45;&gt;AttackRunToSensor_linked</title>
<path fill="none" stroke="#66cdaa" d="M167.36,-622.88C208.33,-622.88 259.25,-622.88 300.36,-622.88"/>
<polygon fill="#66cdaa" stroke="#66cdaa" points="300.17,-626.38 310.17,-622.88 300.17,-619.38 300.17,-626.38"/>
<text text-anchor="middle" x="220.62" y="-625.33" font-family="Helvetica,sans-Serif" font-size="14.00" fill="#66cdaa">QueueEnd</text>
</g>
</g>
</svg>
