<?xml version="1.0" encoding="UTF-8" standalone="no"?>
<!DOCTYPE svg PUBLIC "-//W3C//DTD SVG 1.1//EN"
 "http://www.w3.org/Graphics/SVG/1.1/DTD/svg11.dtd">
<!-- Generated by graphviz version 12.2.1 (20241206.2353)
 -->
<!-- Title: Foo Pages: 1 -->
<svg width="789pt" height="695pt"
 viewBox="0.00 0.00 789.00 694.75" xmlns="http://www.w3.org/2000/svg" xmlns:xlink="http://www.w3.org/1999/xlink">
<g id="graph0" class="graph" transform="scale(1 1) rotate(0) translate(4 690.75)">
<title>Foo</title>
<polygon fill="white" stroke="none" points="-4,4 -4,-690.75 785,-690.75 785,4 -4,4"/>
<g id="clust1" class="cluster">
<title>cluster_attacksensors</title>
<polygon fill="none" stroke="black" points="8,-8 8,-402 457,-402 457,-8 8,-8"/>
<text text-anchor="middle" x="232.5" y="-384.7" font-family="Helvetica,sans-Serif" font-size="14.00">Attack Sensors</text>
</g>
<!-- Level Once Sensor -->
<g id="node1" class="node">
<title>Level Once Sensor</title>
<polygon fill="none" stroke="black" points="28.5,-23.12 28.5,-44.88 157.5,-44.88 157.5,-23.12 28.5,-23.12"/>
<text text-anchor="start" x="31.5" y="-28.57" font-family="Helvetica,sans-Serif" font-size="14.00">Level Once Sensor &#160;</text>
</g>
<!-- Level Once Sensor_linked -->
<g id="node2" class="node">
<title>Level Once Sensor_linked</title>
<polygon fill="none" stroke="black" stroke-dasharray="1,5" points="439.35,-52 311.9,-52 311.9,-16 439.35,-16 439.35,-52"/>
<text text-anchor="start" x="317.5" y="-28.57" font-family="Helvetica,sans-Serif" font-size="14.00">Attack_FlyingRing &#160;</text>
</g>
<!-- Level Once Sensor&#45;&gt;Level Once Sensor_linked -->
<g id="edge1" class="edge">
<title>Level Once Sensor&#45;&gt;Level Once Sensor_linked</title>
<path fill="none" stroke="#66cdaa" d="M165.18,-34C206.44,-34 258.33,-34 300.15,-34"/>
<polygon fill="#66cdaa" stroke="#66cdaa" points="300.14,-37.5 310.14,-34 300.14,-30.5 300.14,-37.5"/>
<text text-anchor="middle" x="220.62" y="-36.45" font-family="Helvetica,sans-Serif" font-size="14.00" fill="#66cdaa">QueueEnd</text>
</g>
<!-- Level Once Sensor_weight -->
<g id="node3" class="node">
<title>Level Once Sensor_weight</title>
<polygon fill="none" stroke="black" stroke-dasharray="1,5" points="449,-106 302.25,-106 302.25,-70 449,-70 449,-106"/>
<text text-anchor="start" x="312.25" y="-82.58" font-family="Helvetica,sans-Serif" font-size="14.00">1 Attack_FlyingRing &#160;</text>
</g>
<!-- Level Once Sensor&#45;&gt;Level Once Sensor_weight -->
<g id="edge2" class="edge">
<title>Level Once Sensor&#45;&gt;Level Once Sensor_weight</title>
<path fill="none" stroke="#458b74" d="M165.3,-49.4C172.95,-50.98 180.63,-52.55 188,-54 221.53,-60.62 258.54,-67.46 290.7,-73.25"/>
<polygon fill="#458b74" stroke="#458b74" points="289.91,-76.67 300.37,-74.99 291.14,-69.78 289.91,-76.67"/>
<text text-anchor="middle" x="220.62" y="-68.18" font-family="Helvetica,sans-Serif" font-size="14.00" fill="#458b74">Weight</text>
</g>
<!-- RunAwaySensor -->
<g id="node4" class="node">
<title>RunAwaySensor</title>
<polygon fill="none" stroke="black" points="36,-77.12 36,-98.88 150,-98.88 150,-77.12 36,-77.12"/>
<text text-anchor="start" x="39" y="-82.58" font-family="Helvetica,sans-Serif" font-size="14.00">RunAwaySensor &#160;</text>
</g>
<!-- AttackSensor -->
<g id="node5" class="node">
<title>AttackSensor</title>
<polygon fill="none" stroke="black" points="46.12,-131.12 46.12,-152.88 139.88,-152.88 139.88,-131.12 46.12,-131.12"/>
<text text-anchor="start" x="49.12" y="-136.57" font-family="Helvetica,sans-Serif" font-size="14.00">AttackSensor &#160;</text>
</g>
<!-- AttackSensor_linked -->
<g id="node6" class="node">
<title>AttackSensor_linked</title>
<polygon fill="none" stroke="black" stroke-dasharray="1,5" points="439.35,-160 311.9,-160 311.9,-124 439.35,-124 439.35,-160"/>
<text text-anchor="start" x="317.5" y="-136.57" font-family="Helvetica,sans-Serif" font-size="14.00">Attack_FlyingRing &#160;</text>
</g>
<!-- AttackSensor&#45;&gt;AttackSensor_linked -->
<g id="edge3" class="edge">
<title>AttackSensor&#45;&gt;AttackSensor_linked</title>
<path fill="none" stroke="#66cdaa" d="M147.78,-142C191.02,-142 252.25,-142 300.2,-142"/>
<polygon fill="#66cdaa" stroke="#66cdaa" points="299.95,-145.5 309.95,-142 299.95,-138.5 299.95,-145.5"/>
<text text-anchor="middle" x="220.62" y="-144.45" font-family="Helvetica,sans-Serif" font-size="14.00" fill="#66cdaa">QueueEnd</text>
</g>
<!-- DodgePredictSensor -->
<g id="node7" class="node">
<title>DodgePredictSensor</title>
<polygon fill="none" stroke="black" points="24,-204 24,-225.75 162,-225.75 162,-204 24,-204"/>
<text text-anchor="start" x="27" y="-209.45" font-family="Helvetica,sans-Serif" font-size="14.00">DodgePredictSensor &#160;</text>
<polygon fill="none" stroke="black" points="24,-182.25 24,-204 162,-204 162,-182.25 24,-182.25"/>
<text text-anchor="start" x="27" y="-188.7" font-family="Helvetica,sans-Serif" font-size="12.00" fill="#838b8b">if: rollingCondition</text>
<text text-anchor="start" x="123.75" y="-188.7" font-family="Helvetica,sans-Serif" font-size="14.00"> &#160;</text>
</g>
<!-- DodgePredictSensor_linked -->
<g id="node8" class="node">
<title>DodgePredictSensor_linked</title>
<polygon fill="none" stroke="black" stroke-dasharray="1,5" points="439.35,-222 311.9,-222 311.9,-186 439.35,-186 439.35,-222"/>
<text text-anchor="start" x="317.5" y="-198.57" font-family="Helvetica,sans-Serif" font-size="14.00">Attack_FlyingRing &#160;</text>
</g>
<!-- DodgePredictSensor&#45;&gt;DodgePredictSensor_linked -->
<g id="edge4" class="edge">
<title>DodgePredictSensor&#45;&gt;DodgePredictSensor_linked</title>
<path fill="none" stroke="#66cdaa" d="M169.94,-204C210.36,-204 259.88,-204 300.08,-204"/>
<polygon fill="#66cdaa" stroke="#66cdaa" points="299.92,-207.5 309.92,-204 299.92,-200.5 299.92,-207.5"/>
<text text-anchor="middle" x="220.62" y="-206.45" font-family="Helvetica,sans-Serif" font-size="14.00" fill="#66cdaa">QueueEnd</text>
</g>
<!-- AttackPredictSensor -->
<g id="node9" class="node">
<title>AttackPredictSensor</title>
<polygon fill="none" stroke="black" points="25.12,-274 25.12,-295.75 160.88,-295.75 160.88,-274 25.12,-274"/>
<text text-anchor="start" x="28.12" y="-279.45" font-family="Helvetica,sans-Serif" font-size="14.00">AttackPredictSensor &#160;</text>
<polygon fill="none" stroke="black" points="25.12,-252.25 25.12,-274 160.88,-274 160.88,-252.25 25.12,-252.25"/>
<text text-anchor="start" x="28.12" y="-258.7" font-family="Helvetica,sans-Serif" font-size="12.00" fill="#838b8b">if: attackCondition</text>
<text text-anchor="start" x="123.38" y="-258.7" font-family="Helvetica,sans-Serif" font-size="14.00"> &#160;</text>
</g>
<!-- AttackPredictSensor_linked -->
<g id="node10" class="node">
<title>AttackPredictSensor_linked</title>
<polygon fill="none" stroke="black" stroke-dasharray="1,5" points="439.35,-292 311.9,-292 311.9,-256 439.35,-256 439.35,-292"/>
<text text-anchor="start" x="317.5" y="-268.57" font-family="Helvetica,sans-Serif" font-size="14.00">Attack_FlyingRing &#160;</text>
</g>
<!-- AttackPredictSensor&#45;&gt;AttackPredictSensor_linked -->
<g id="edge5" class="edge">
<title>AttackPredictSensor&#45;&gt;AttackPredictSensor_linked</title>
<path fill="none" stroke="#66cdaa" d="M168.83,-274C209.41,-274 259.41,-274 299.96,-274"/>
<polygon fill="#66cdaa" stroke="#66cdaa" points="299.89,-277.5 309.89,-274 299.89,-270.5 299.89,-277.5"/>
<text text-anchor="middle" x="220.62" y="-276.45" font-family="Helvetica,sans-Serif" font-size="14.00" fill="#66cdaa">QueueEnd</text>
</g>
<!-- AttackRunToSensor -->
<g id="node11" class="node">
<title>AttackRunToSensor</title>
<polygon fill="none" stroke="black" points="26.62,-344 26.62,-365.75 159.38,-365.75 159.38,-344 26.62,-344"/>
<text text-anchor="start" x="29.62" y="-349.45" font-family="Helvetica,sans-Serif" font-size="14.00">AttackRunToSensor &#160;</text>
<polygon fill="none" stroke="black" points="26.62,-322.25 26.62,-344 159.38,-344 159.38,-322.25 26.62,-322.25"/>
<text text-anchor="start" x="29.62" y="-328.7" font-family="Helvetica,sans-Serif" font-size="12.00" fill="#838b8b">if: state is Engaging</text>
<text text-anchor="start" x="133.88" y="-328.7" font-family="Helvetica,sans-Serif" font-size="14.00"> &#160;</text>
</g>
<!-- AttackRunToSensor_linked -->
<g id="node12" class="node">
<title>AttackRunToSensor_linked</title>
<polygon fill="none" stroke="black" stroke-dasharray="1,5" points="439.35,-362 311.9,-362 311.9,-326 439.35,-326 439.35,-362"/>
<text text-anchor="start" x="317.5" y="-338.57" font-family="Helvetica,sans-Serif" font-size="14.00">Attack_FlyingRing &#160;</text>
</g>
<!-- AttackRunToSensor&#45;&gt;AttackRunToSensor_linked -->
<g id="edge6" class="edge">
<title>AttackRunToSensor&#45;&gt;AttackRunToSensor_linked</title>
<path fill="none" stroke="#66cdaa" d="M167.36,-344C208.33,-344 259.25,-344 300.36,-344"/>
<polygon fill="#66cdaa" stroke="#66cdaa" points="300.17,-347.5 310.17,-344 300.17,-340.5 300.17,-347.5"/>
<text text-anchor="middle" x="220.62" y="-346.45" font-family="Helvetica,sans-Serif" font-size="14.00" fill="#66cdaa">QueueEnd</text>
</g>
<!-- Attack_FlyingRing -->
<g id="node13" class="node">
<title>Attack_FlyingRing</title>
<polygon fill="none" stroke="black" points="314.5,-446.12 314.5,-467.88 436.75,-467.88 436.75,-446.12 314.5,-446.12"/>
<text text-anchor="start" x="317.5" y="-451.57" font-family="Helvetica,sans-Serif" font-size="14.00">Attack_FlyingRing &#160;</text>
<polygon fill="none" stroke="black" points="314.5,-414.12 314.5,-446.12 436.75,-446.12 436.75,-414.12 314.5,-414.12"/>
<text text-anchor="start" x="317.5" y="-432.73" font-family="Helvetica,sans-Serif" font-size="12.00" fill="#838b8b">0.00s: DisableGravity</text>
<text text-anchor="start" x="317.5" y="-418.83" font-family="Helvetica,sans-Serif" font-size="12.00" fill="#838b8b">5.67s: Done</text>
<text text-anchor="start" x="382" y="-418.83" font-family="Helvetica,sans-Serif" font-size="14.00"> &#160;</text>
</g>
<!-- Attack_FlyingToSeat -->
<g id="node14" class="node">
<title>Attack_FlyingToSeat</title>
<polygon fill="none" stroke="black" points="525,-516 525,-537.75 661.5,-537.75 661.5,-516 525,-516"/>
<text text-anchor="start" x="528" y="-521.45" font-family="Helvetica,sans-Serif" font-size="14.00">Attack_FlyingToSeat &#160;</text>
<polygon fill="none" stroke="black" points="525,-494.25 525,-516 661.5,-516 661.5,-494.25 525,-494.25"/>
<text text-anchor="start" x="528" y="-500.7" font-family="Helvetica,sans-Serif" font-size="12.00" fill="#838b8b">6.42s: Done</text>
<text text-anchor="start" x="592.5" y="-500.7" font-family="Helvetica,sans-Serif" font-size="14.00"> &#160;</text>
</g>
<!-- Attack_FlyingRing&#45;&gt;Attack_FlyingToSeat -->
<g id="edge7" class="edge">
<title>Attack_FlyingRing&#45;&gt;Attack_FlyingToSeat</title>
<path fill="none" stroke="#cdc8b1" d="M444.55,-464.63C464.53,-471.57 486.63,-479.26 507.51,-486.53"/>
<polygon fill="#cdc8b1" stroke="#cdc8b1" points="506.28,-489.8 516.88,-489.78 508.58,-483.19 506.28,-489.8"/>
</g>
<!-- Seat -->
<g id="node15" class="node">
<title>Seat</title>
<polygon fill="none" stroke="black" points="781,-534 706.5,-534 706.5,-498 781,-498 781,-534"/>
<text text-anchor="middle" x="743.75" y="-510.57" font-family="Helvetica,sans-Serif" font-size="14.00">Seat (Init)</text>
</g>
<!-- Attack_FlyingToSeat&#45;&gt;Seat -->
<g id="edge8" class="edge">
<title>Attack_FlyingToSeat&#45;&gt;Seat</title>
<path fill="none" stroke="#cdc8b1" d="M669.37,-516C677.97,-516 686.56,-516 694.67,-516"/>
<polygon fill="#cdc8b1" stroke="#cdc8b1" points="694.64,-519.5 704.64,-516 694.64,-512.5 694.64,-519.5"/>
</g>
<!-- Attack_FlyingRing_Weakness -->
<g id="node16" class="node">
<title>Attack_FlyingRing_Weakness</title>
<polygon fill="none" stroke="black" points="279.25,-596.12 279.25,-617.88 472,-617.88 472,-596.12 279.25,-596.12"/>
<text text-anchor="start" x="282.25" y="-601.58" font-family="Helvetica,sans-Serif" font-size="14.00">Attack_FlyingRing_Weakness &#160;</text>
<polygon fill="none" stroke="black" points="279.25,-564.12 279.25,-596.12 472,-596.12 472,-564.12 279.25,-564.12"/>
<text text-anchor="start" x="282.25" y="-582.73" font-family="Helvetica,sans-Serif" font-size="12.00" fill="#838b8b">0.00s: DisableGravity</text>
<text text-anchor="start" x="282.25" y="-568.83" font-family="Helvetica,sans-Serif" font-size="12.00" fill="#838b8b">5.67s: Done</text>
<text text-anchor="start" x="346.75" y="-568.83" font-family="Helvetica,sans-Serif" font-size="14.00"> &#160;</text>
</g>
<!-- Attack_FlyingRing_Weakness&#45;&gt;Attack_FlyingToSeat -->
<g id="edge9" class="edge">
<title>Attack_FlyingRing_Weakness&#45;&gt;Attack_FlyingToSeat</title>
<path fill="none" stroke="#cdc8b1" d="M465.26,-560.17C479.33,-555.28 493.85,-550.23 507.82,-545.37"/>
<polygon fill="#cdc8b1" stroke="#cdc8b1" points="508.65,-548.78 516.95,-542.19 506.35,-542.17 508.65,-548.78"/>
</g>
<!-- StandUp_Weakness -->
<g id="node17" class="node">
<title>StandUp_Weakness</title>
<polygon fill="none" stroke="black" points="24.75,-591 24.75,-612.75 161.25,-612.75 161.25,-591 24.75,-591"/>
<text text-anchor="start" x="27.75" y="-596.45" font-family="Helvetica,sans-Serif" font-size="14.00">StandUp_Weakness &#160;</text>
<polygon fill="none" stroke="black" points="24.75,-569.25 24.75,-591 161.25,-591 161.25,-569.25 24.75,-569.25"/>
<text text-anchor="start" x="27.75" y="-575.7" font-family="Helvetica,sans-Serif" font-size="12.00" fill="#838b8b">6.12s: Done</text>
<text text-anchor="start" x="92.25" y="-575.7" font-family="Helvetica,sans-Serif" font-size="14.00"> &#160;</text>
</g>
<!-- StandUp_Weakness&#45;&gt;Attack_FlyingRing_Weakness -->
<g id="edge10" class="edge">
<title>StandUp_Weakness&#45;&gt;Attack_FlyingRing_Weakness</title>
<path fill="none" stroke="#cdc8b1" d="M169.2,-591C197.11,-591 229.43,-591 260.06,-591"/>
<polygon fill="#cdc8b1" stroke="#cdc8b1" points="259.74,-594.5 269.74,-591 259.74,-587.5 259.74,-594.5"/>
</g>
<!-- HurtState -->
<g id="node18" class="node">
<title>HurtState</title>
<polygon fill="none" stroke="black" points="336.62,-516 336.62,-537.75 414.62,-537.75 414.62,-516 336.62,-516"/>
<text text-anchor="start" x="343.38" y="-521.45" font-family="Helvetica,sans-Serif" font-size="14.00">HurtState &#160;</text>
<polygon fill="none" stroke="black" points="336.62,-494.25 336.62,-516 414.62,-516 414.62,-494.25 336.62,-494.25"/>
<text text-anchor="start" x="339.62" y="-500.7" font-family="Helvetica,sans-Serif" font-size="12.00" fill="#838b8b">0.42s: Done</text>
<text text-anchor="start" x="404.12" y="-500.7" font-family="Helvetica,sans-Serif" font-size="14.00"> &#160;</text>
</g>
<!-- HurtState&#45;&gt;Attack_FlyingToSeat -->
<g id="edge11" class="edge">
<title>HurtState&#45;&gt;Attack_FlyingToSeat</title>
<path fill="none" stroke="#cdc8b1" d="M422.62,-516C446.86,-516 477.4,-516 505.86,-516"/>
<polygon fill="#cdc8b1" stroke="#cdc8b1" points="505.55,-519.5 515.55,-516 505.55,-512.5 505.55,-519.5"/>
</g>
<!-- LastHit -->
<g id="node19" class="node">
<title>LastHit</title>
<polygon fill="none" stroke="black" points="54,-661 54,-682.75 132,-682.75 132,-661 54,-661"/>
<text text-anchor="start" x="68.25" y="-666.45" font-family="Helvetica,sans-Serif" font-size="14.00">LastHit &#160;</text>
<polygon fill="none" stroke="black" points="54,-639.25 54,-661 132,-661 132,-639.25 54,-639.25"/>
<text text-anchor="start" x="57" y="-645.7" font-family="Helvetica,sans-Serif" font-size="12.00" fill="#838b8b">2.50s: Done</text>
<text text-anchor="start" x="121.5" y="-645.7" font-family="Helvetica,sans-Serif" font-size="14.00"> &#160;</text>
</g>
<!-- DeadState -->
<g id="node20" class="node">
<title>DeadState</title>
<polygon fill="none" stroke="black" points="415.5,-679 335.75,-679 335.75,-643 415.5,-643 415.5,-679"/>
<text text-anchor="middle" x="375.62" y="-655.58" font-family="Helvetica,sans-Serif" font-size="14.00">DeadState</text>
</g>
<!-- LastHit&#45;&gt;DeadState -->
<g id="edge12" class="edge">
<title>LastHit&#45;&gt;DeadState</title>
<path fill="none" stroke="#cdc8b1" d="M139.71,-661C190.25,-661 271.43,-661 323.89,-661"/>
<polygon fill="#cdc8b1" stroke="#cdc8b1" points="323.77,-664.5 333.77,-661 323.77,-657.5 323.77,-664.5"/>
</g>
<!-- StandUp -->
<g id="node21" class="node">
<title>StandUp</title>
<polygon fill="none" stroke="black" points="54,-441 54,-462.75 132,-462.75 132,-441 54,-441"/>
<text text-anchor="start" x="63" y="-446.45" font-family="Helvetica,sans-Serif" font-size="14.00">StandUp &#160;</text>
<polygon fill="none" stroke="black" points="54,-419.25 54,-441 132,-441 132,-419.25 54,-419.25"/>
<text text-anchor="start" x="57" y="-425.7" font-family="Helvetica,sans-Serif" font-size="12.00" fill="#838b8b">6.08s: Done</text>
<text text-anchor="start" x="121.5" y="-425.7" font-family="Helvetica,sans-Serif" font-size="14.00"> &#160;</text>
</g>
<!-- StandUp&#45;&gt;Attack_FlyingRing -->
<g id="edge13" class="edge">
<title>StandUp&#45;&gt;Attack_FlyingRing</title>
<path fill="none" stroke="#cdc8b1" d="M139.71,-441C181.71,-441 244.88,-441 295.14,-441"/>
<polygon fill="#cdc8b1" stroke="#cdc8b1" points="295.12,-444.5 305.12,-441 295.12,-437.5 295.12,-444.5"/>
</g>
</g>
</svg>
