<?xml version="1.0" encoding="UTF-8" standalone="no"?>
<!DOCTYPE svg PUBLIC "-//W3C//DTD SVG 1.1//EN"
 "http://www.w3.org/Graphics/SVG/1.1/DTD/svg11.dtd">
<!-- Generated by graphviz version 12.2.1 (20241206.2353)
 -->
<!-- Title: Foo Pages: 1 -->
<svg width="434pt" height="708pt"
 viewBox="0.00 0.00 433.75 708.00" xmlns="http://www.w3.org/2000/svg" xmlns:xlink="http://www.w3.org/1999/xlink">
<g id="graph0" class="graph" transform="scale(1 1) rotate(0) translate(4 704)">
<title>Foo</title>
<polygon fill="white" stroke="none" points="-4,4 -4,-704 429.75,-704 429.75,4 -4,4"/>
<g id="clust1" class="cluster">
<title>cluster_attacksensors</title>
<polygon fill="none" stroke="black" points="8,-8 8,-354 417.75,-354 417.75,-8 8,-8"/>
<text text-anchor="middle" x="212.88" y="-336.7" font-family="Helvetica,sans-Serif" font-size="14.00">Attack Sensors</text>
</g>
<!-- Level Once Sensor -->
<g id="node1" class="node">
<title>Level Once Sensor</title>
<polygon fill="none" stroke="black" points="28.5,-42.12 28.5,-63.88 157.5,-63.88 157.5,-42.12 28.5,-42.12"/>
<text text-anchor="start" x="31.5" y="-47.58" font-family="Helvetica,sans-Serif" font-size="14.00">Level Once Sensor &#160;</text>
</g>
<!-- Level Once Sensor_linked -->
<g id="node2" class="node">
<title>Level Once Sensor_linked</title>
<polygon fill="none" stroke="black" stroke-dasharray="1,5" points="393.73,-52 287.27,-52 287.27,-16 393.73,-16 393.73,-52"/>
<text text-anchor="start" x="292.88" y="-28.57" font-family="Helvetica,sans-Serif" font-size="14.00">Attack1_Shoot &#160;</text>
</g>
<!-- Level Once Sensor&#45;&gt;Level Once Sensor_linked -->
<g id="edge1" class="edge">
<title>Level Once Sensor&#45;&gt;Level Once Sensor_linked</title>
<path fill="none" stroke="#66cdaa" d="M165.34,-47.48C200.32,-44.77 242.09,-41.54 275.96,-38.92"/>
<polygon fill="#66cdaa" stroke="#66cdaa" points="275.91,-42.43 285.61,-38.17 275.37,-35.45 275.91,-42.43"/>
<text text-anchor="middle" x="220.62" y="-47.65" font-family="Helvetica,sans-Serif" font-size="14.00" fill="#66cdaa">QueueEnd</text>
</g>
<!-- Level Once Sensor_weight -->
<g id="node3" class="node">
<title>Level Once Sensor_weight</title>
<polygon fill="none" stroke="black" stroke-dasharray="1,5" points="373,-106 308,-106 308,-70 373,-70 373,-106"/>
<text text-anchor="start" x="318" y="-82.58" font-family="Helvetica,sans-Serif" font-size="14.00">1 Skip &#160;</text>
</g>
<!-- Level Once Sensor&#45;&gt;Level Once Sensor_weight -->
<g id="edge2" class="edge">
<title>Level Once Sensor&#45;&gt;Level Once Sensor_weight</title>
<path fill="none" stroke="#458b74" d="M165.34,-63.17C207.88,-69.24 260.47,-76.73 296.67,-81.89"/>
<polygon fill="#458b74" stroke="#458b74" points="295.92,-85.32 306.31,-83.27 296.91,-78.39 295.92,-85.32"/>
<text text-anchor="middle" x="220.62" y="-78.13" font-family="Helvetica,sans-Serif" font-size="14.00" fill="#458b74">Weight</text>
</g>
<!-- RunAwaySensor -->
<g id="node4" class="node">
<title>RunAwaySensor</title>
<polygon fill="none" stroke="black" points="36,-112.12 36,-133.88 150,-133.88 150,-112.12 36,-112.12"/>
<text text-anchor="start" x="39" y="-117.58" font-family="Helvetica,sans-Serif" font-size="14.00">RunAwaySensor &#160;</text>
</g>
<!-- AttackSensor -->
<g id="node5" class="node">
<title>AttackSensor</title>
<polygon fill="none" stroke="black" points="46.12,-185.12 46.12,-206.88 139.88,-206.88 139.88,-185.12 46.12,-185.12"/>
<text text-anchor="start" x="49.12" y="-190.57" font-family="Helvetica,sans-Serif" font-size="14.00">AttackSensor &#160;</text>
</g>
<!-- AttackSensor_linked -->
<g id="node6" class="node">
<title>AttackSensor_linked</title>
<polygon fill="none" stroke="black" stroke-dasharray="1,5" points="400.1,-160 280.9,-160 280.9,-124 400.1,-124 400.1,-160"/>
<text text-anchor="start" x="286.5" y="-136.57" font-family="Helvetica,sans-Serif" font-size="14.00">Attack2_Teleport &#160;</text>
</g>
<!-- AttackSensor&#45;&gt;AttackSensor_linked -->
<g id="edge3" class="edge">
<title>AttackSensor&#45;&gt;AttackSensor_linked</title>
<path fill="none" stroke="#66cdaa" d="M147.57,-184.22C183.27,-176.36 230.56,-165.96 269.26,-157.45"/>
<polygon fill="#66cdaa" stroke="#66cdaa" points="269.96,-160.88 278.98,-155.31 268.46,-154.04 269.96,-160.88"/>
<text text-anchor="middle" x="220.62" y="-176.29" font-family="Helvetica,sans-Serif" font-size="14.00" fill="#66cdaa">QueueEnd</text>
</g>
<!-- AttackSensor_mustuse -->
<g id="node7" class="node">
<title>AttackSensor_mustuse</title>
<polygon fill="none" stroke="black" points="287.88,-183.12 287.88,-208.88 393.12,-208.88 393.12,-183.12 287.88,-183.12"/>
<text text-anchor="start" x="292.88" y="-190.57" font-family="Helvetica,sans-Serif" font-size="14.00">Attack1_Shoot &#160;</text>
</g>
<!-- AttackSensor&#45;&gt;AttackSensor_mustuse -->
<g id="edge4" class="edge">
<title>AttackSensor&#45;&gt;AttackSensor_mustuse</title>
<path fill="none" stroke="#ffc125" d="M147.57,-196C183.14,-196 230.22,-196 268.84,-196"/>
<polygon fill="#ffc125" stroke="#ffc125" points="268.5,-199.5 278.5,-196 268.5,-192.5 268.5,-199.5"/>
<text text-anchor="middle" x="220.62" y="-198.45" font-family="Helvetica,sans-Serif" font-size="14.00" fill="#ffc125">Initial</text>
</g>
<!-- AttackSensor_weight -->
<g id="node8" class="node">
<title>AttackSensor_weight</title>
<polygon fill="none" stroke="black" stroke-dasharray="1,5" points="409.75,-268 271.25,-268 271.25,-232 409.75,-232 409.75,-268"/>
<text text-anchor="start" x="281.25" y="-244.57" font-family="Helvetica,sans-Serif" font-size="14.00">1 Attack2_Teleport &#160;</text>
</g>
<!-- AttackSensor&#45;&gt;AttackSensor_weight -->
<g id="edge5" class="edge">
<title>AttackSensor&#45;&gt;AttackSensor_weight</title>
<path fill="none" stroke="#458b74" d="M147.57,-207.78C180.43,-215.01 223.11,-224.4 259.88,-232.49"/>
<polygon fill="#458b74" stroke="#458b74" points="259.08,-235.9 269.6,-234.63 260.59,-229.06 259.08,-235.9"/>
<text text-anchor="middle" x="220.62" y="-233.44" font-family="Helvetica,sans-Serif" font-size="14.00" fill="#458b74">Weight</text>
</g>
<!-- DodgePredictSensor -->
<g id="node9" class="node">
<title>DodgePredictSensor</title>
<polygon fill="none" stroke="black" points="24,-296 24,-317.75 162,-317.75 162,-296 24,-296"/>
<text text-anchor="start" x="27" y="-301.45" font-family="Helvetica,sans-Serif" font-size="14.00">DodgePredictSensor &#160;</text>
<polygon fill="none" stroke="black" points="24,-274.25 24,-296 162,-296 162,-274.25 24,-274.25"/>
<text text-anchor="start" x="27" y="-280.7" font-family="Helvetica,sans-Serif" font-size="12.00" fill="#838b8b">if: rollingCondition</text>
<text text-anchor="start" x="123.75" y="-280.7" font-family="Helvetica,sans-Serif" font-size="14.00"> &#160;</text>
</g>
<!-- DodgePredictSensor_linked -->
<g id="node10" class="node">
<title>DodgePredictSensor_linked</title>
<polygon fill="none" stroke="black" stroke-dasharray="1,5" points="393.73,-322 287.27,-322 287.27,-286 393.73,-286 393.73,-322"/>
<text text-anchor="start" x="292.88" y="-298.57" font-family="Helvetica,sans-Serif" font-size="14.00">Attack1_Shoot &#160;</text>
</g>
<!-- DodgePredictSensor&#45;&gt;DodgePredictSensor_linked -->
<g id="edge6" class="edge">
<title>DodgePredictSensor&#45;&gt;DodgePredictSensor_linked</title>
<path fill="none" stroke="#66cdaa" d="M170,-298.48C203.88,-299.58 243.36,-300.87 275.68,-301.92"/>
<polygon fill="#66cdaa" stroke="#66cdaa" points="275.18,-305.41 285.28,-302.23 275.4,-298.41 275.18,-305.41"/>
<text text-anchor="middle" x="220.62" y="-303.63" font-family="Helvetica,sans-Serif" font-size="14.00" fill="#66cdaa">QueueEnd</text>
</g>
<!-- Attack1_Shoot -->
<g id="node11" class="node">
<title>Attack1_Shoot</title>
<polygon fill="none" stroke="black" points="42.38,-528 42.38,-549.75 143.62,-549.75 143.62,-528 42.38,-528"/>
<text text-anchor="start" x="45.38" y="-533.45" font-family="Helvetica,sans-Serif" font-size="14.00">Attack1_Shoot &#160;</text>
<polygon fill="none" stroke="black" points="42.38,-506.25 42.38,-528 143.62,-528 143.62,-506.25 42.38,-506.25"/>
<text text-anchor="start" x="45.38" y="-512.7" font-family="Helvetica,sans-Serif" font-size="12.00" fill="#838b8b">1.67s: Done</text>
<text text-anchor="start" x="109.88" y="-512.7" font-family="Helvetica,sans-Serif" font-size="14.00"> &#160;</text>
</g>
<!-- Engaging -->
<g id="node12" class="node">
<title>Engaging</title>
<polygon fill="none" stroke="black" points="377,-511 304,-511 304,-475 377,-475 377,-511"/>
<text text-anchor="middle" x="340.5" y="-487.57" font-family="Helvetica,sans-Serif" font-size="14.00">Engaging</text>
</g>
<!-- Attack1_Shoot&#45;&gt;Engaging -->
<g id="edge7" class="edge">
<title>Attack1_Shoot&#45;&gt;Engaging</title>
<path fill="none" stroke="#cdc8b1" d="M151.56,-519.79C194.38,-513.69 252.12,-505.46 292.25,-499.74"/>
<polygon fill="#cdc8b1" stroke="#cdc8b1" points="292.69,-503.21 302.09,-498.33 291.7,-496.28 292.69,-503.21"/>
</g>
<!-- Attack2_Teleport -->
<g id="node13" class="node">
<title>Attack2_Teleport</title>
<polygon fill="none" stroke="black" points="34.12,-620.12 34.12,-641.88 151.88,-641.88 151.88,-620.12 34.12,-620.12"/>
<text text-anchor="start" x="39" y="-625.58" font-family="Helvetica,sans-Serif" font-size="14.00">Attack2_Teleport &#160;</text>
<polygon fill="none" stroke="black" points="34.12,-576.12 34.12,-620.12 151.88,-620.12 151.88,-576.12 34.12,-576.12"/>
<text text-anchor="start" x="37.12" y="-606.73" font-family="Helvetica,sans-Serif" font-size="12.00" fill="#838b8b">1.50s: CheckFacing</text>
<text text-anchor="start" x="37.12" y="-594.73" font-family="Helvetica,sans-Serif" font-size="12.00" fill="#838b8b">1.83s: LinkNextMove</text>
<text text-anchor="start" x="37.12" y="-580.83" font-family="Helvetica,sans-Serif" font-size="12.00" fill="#838b8b">1.90s: Done</text>
<text text-anchor="start" x="101.62" y="-580.83" font-family="Helvetica,sans-Serif" font-size="14.00"> &#160;</text>
</g>
<!-- Attack2_Teleport&#45;&gt;Engaging -->
<g id="edge8" class="edge">
<title>Attack2_Teleport&#45;&gt;Engaging</title>
<path fill="none" stroke="#cdc8b1" d="M159.79,-577.91C201.98,-557.98 255.71,-532.59 293.39,-514.79"/>
<polygon fill="#cdc8b1" stroke="#cdc8b1" points="294.65,-518.06 302.2,-510.63 291.66,-511.73 294.65,-518.06"/>
</g>
<!-- Attack2_Teleport_weight -->
<g id="node14" class="node">
<title>Attack2_Teleport_weight</title>
<polygon fill="none" stroke="black" stroke-dasharray="1,5" points="403.38,-627 277.62,-627 277.62,-591 403.38,-591 403.38,-627"/>
<text text-anchor="start" x="287.62" y="-603.58" font-family="Helvetica,sans-Serif" font-size="14.00">1 Attack1_Shoot &#160;</text>
</g>
<!-- Attack2_Teleport&#45;&gt;Attack2_Teleport_weight -->
<g id="edge9" class="edge">
<title>Attack2_Teleport&#45;&gt;Attack2_Teleport_weight</title>
<path fill="none" stroke="#458b74" d="M159.79,-609C192.58,-609 232.35,-609 266.13,-609"/>
<polygon fill="#458b74" stroke="#458b74" points="265.82,-612.5 275.82,-609 265.82,-605.5 265.82,-612.5"/>
<text text-anchor="middle" x="220.62" y="-611.45" font-family="Helvetica,sans-Serif" font-size="14.00" fill="#458b74">Weight</text>
</g>
<!-- Hurt1 -->
<g id="node15" class="node">
<title>Hurt1</title>
<polygon fill="none" stroke="black" points="54,-388 54,-409.75 132,-409.75 132,-388 54,-388"/>
<text text-anchor="start" x="72.75" y="-393.45" font-family="Helvetica,sans-Serif" font-size="14.00">Hurt1 &#160;</text>
<polygon fill="none" stroke="black" points="54,-366.25 54,-388 132,-388 132,-366.25 54,-366.25"/>
<text text-anchor="start" x="57" y="-372.7" font-family="Helvetica,sans-Serif" font-size="12.00" fill="#838b8b">0.17s: Done</text>
<text text-anchor="start" x="121.5" y="-372.7" font-family="Helvetica,sans-Serif" font-size="14.00"> &#160;</text>
</g>
<!-- Hurt1&#45;&gt;Engaging -->
<g id="edge10" class="edge">
<title>Hurt1&#45;&gt;Engaging</title>
<path fill="none" stroke="#cdc8b1" d="M139.89,-407.63C183.74,-426.38 249.48,-454.5 293.4,-473.28"/>
<polygon fill="#cdc8b1" stroke="#cdc8b1" points="291.83,-476.42 302.4,-477.13 294.58,-469.98 291.83,-476.42"/>
</g>
<!-- Hurt2 -->
<g id="node16" class="node">
<title>Hurt2</title>
<polygon fill="none" stroke="black" points="54,-458 54,-479.75 132,-479.75 132,-458 54,-458"/>
<text text-anchor="start" x="72.75" y="-463.45" font-family="Helvetica,sans-Serif" font-size="14.00">Hurt2 &#160;</text>
<polygon fill="none" stroke="black" points="54,-436.25 54,-458 132,-458 132,-436.25 54,-436.25"/>
<text text-anchor="start" x="57" y="-442.7" font-family="Helvetica,sans-Serif" font-size="12.00" fill="#838b8b">0.25s: Done</text>
<text text-anchor="start" x="121.5" y="-442.7" font-family="Helvetica,sans-Serif" font-size="14.00"> &#160;</text>
</g>
<!-- Hurt2&#45;&gt;Engaging -->
<g id="edge11" class="edge">
<title>Hurt2&#45;&gt;Engaging</title>
<path fill="none" stroke="#cdc8b1" d="M139.89,-464.54C183.46,-470.75 248.65,-480.05 292.56,-486.31"/>
<polygon fill="#cdc8b1" stroke="#cdc8b1" points="291.9,-489.75 302.29,-487.7 292.89,-482.82 291.9,-489.75"/>
</g>
<!-- Idle -->
<g id="node17" class="node">
<title>Idle</title>
<polygon fill="none" stroke="black" points="127.25,-700 58.75,-700 58.75,-664 127.25,-664 127.25,-700"/>
<text text-anchor="middle" x="93" y="-676.58" font-family="Helvetica,sans-Serif" font-size="14.00">Idle (Init)</text>
</g>
</g>
</svg>
