<?xml version="1.0" encoding="UTF-8" standalone="no"?>
<!DOCTYPE svg PUBLIC "-//W3C//DTD SVG 1.1//EN"
 "http://www.w3.org/Graphics/SVG/1.1/DTD/svg11.dtd">
<!-- Generated by graphviz version 12.2.1 (20241206.2353)
 -->
<!-- Title: Foo Pages: 1 -->
<svg width="1032pt" height="1070pt"
 viewBox="0.00 0.00 1032.00 1069.75" xmlns="http://www.w3.org/2000/svg" xmlns:xlink="http://www.w3.org/1999/xlink">
<g id="graph0" class="graph" transform="scale(1 1) rotate(0) translate(4 1065.75)">
<title>Foo</title>
<polygon fill="white" stroke="none" points="-4,4 -4,-1065.75 1028,-1065.75 1028,4 -4,4"/>
<g id="clust1" class="cluster">
<title>cluster_attacksensors</title>
<polygon fill="none" stroke="black" points="8,-8 8,-698 495.73,-698 495.73,-8 8,-8"/>
<text text-anchor="middle" x="251.86" y="-680.7" font-family="Helvetica,sans-Serif" font-size="14.00">Attack Sensors</text>
</g>
<!-- Level Once Sensor -->
<g id="node1" class="node">
<title>Level Once Sensor</title>
<polygon fill="none" stroke="black" points="27.38,-51.12 27.38,-72.88 156.38,-72.88 156.38,-51.12 27.38,-51.12"/>
<text text-anchor="start" x="30.38" y="-56.58" font-family="Helvetica,sans-Serif" font-size="14.00">Level Once Sensor &#160;</text>
</g>
<!-- Level Once Sensor_linked -->
<g id="node2" class="node">
<title>Level Once Sensor_linked</title>
<polygon fill="none" stroke="black" stroke-dasharray="1,5" points="470.85,-52 322.4,-52 322.4,-16 470.85,-16 470.85,-52"/>
<text text-anchor="start" x="328" y="-28.57" font-family="Helvetica,sans-Serif" font-size="14.00"> AttackGrabInstantKill &#160;</text>
</g>
<!-- Level Once Sensor&#45;&gt;Level Once Sensor_linked -->
<g id="edge1" class="edge">
<title>Level Once Sensor&#45;&gt;Level Once Sensor_linked</title>
<path fill="none" stroke="#66cdaa" d="M164.33,-52.6C171.56,-51.76 178.8,-50.96 185.75,-50.25 226.95,-46.05 272.79,-42.39 311.1,-39.6"/>
<polygon fill="#66cdaa" stroke="#66cdaa" points="310.98,-43.12 320.71,-38.92 310.48,-36.14 310.98,-43.12"/>
<text text-anchor="middle" x="218.38" y="-52.7" font-family="Helvetica,sans-Serif" font-size="14.00" fill="#66cdaa">QueueEnd</text>
</g>
<!-- Level Once Sensor_weight -->
<g id="node3" class="node">
<title>Level Once Sensor_weight</title>
<polygon fill="none" stroke="black" stroke-dasharray="1,5" points="480.88,-106 312.38,-106 312.38,-70 480.88,-70 480.88,-106"/>
<text text-anchor="start" x="322.38" y="-82.58" font-family="Helvetica,sans-Serif" font-size="14.00">1 &#160;AttackGrabInstantKill &#160;</text>
</g>
<!-- Level Once Sensor&#45;&gt;Level Once Sensor_weight -->
<g id="edge2" class="edge">
<title>Level Once Sensor&#45;&gt;Level Once Sensor_weight</title>
<path fill="none" stroke="#458b74" d="M164.24,-68.13C205.01,-71.63 256.64,-76.06 300.78,-79.85"/>
<polygon fill="#458b74" stroke="#458b74" points="300.36,-83.33 310.62,-80.7 300.95,-76.36 300.36,-83.33"/>
<text text-anchor="middle" x="218.38" y="-77.45" font-family="Helvetica,sans-Serif" font-size="14.00" fill="#458b74">Weight</text>
</g>
<!-- RunAwaySensor -->
<g id="node4" class="node">
<title>RunAwaySensor</title>
<polygon fill="none" stroke="black" points="34.88,-144.12 34.88,-165.88 148.88,-165.88 148.88,-144.12 34.88,-144.12"/>
<text text-anchor="start" x="37.88" y="-149.57" font-family="Helvetica,sans-Serif" font-size="14.00">RunAwaySensor &#160;</text>
</g>
<!-- AttackSensor -->
<g id="node5" class="node">
<title>AttackSensor</title>
<polygon fill="none" stroke="black" points="45,-220.12 45,-241.88 138.75,-241.88 138.75,-220.12 45,-220.12"/>
<text text-anchor="start" x="48" y="-225.57" font-family="Helvetica,sans-Serif" font-size="14.00">AttackSensor &#160;</text>
</g>
<!-- AttackSensor_linked -->
<g id="node6" class="node">
<title>AttackSensor_linked</title>
<polygon fill="none" stroke="black" stroke-dasharray="1,5" points="477.6,-249.85 315.65,-249.85 315.65,-124.15 477.6,-124.15 477.6,-249.85"/>
<text text-anchor="start" x="321.25" y="-230.95" font-family="Helvetica,sans-Serif" font-size="14.00">3Slashes_ForBossFight &#160;</text>
<text text-anchor="start" x="363.62" y="-211.2" font-family="Helvetica,sans-Serif" font-size="14.00">Explosion &#160;</text>
<text text-anchor="start" x="359.12" y="-191.45" font-family="Helvetica,sans-Serif" font-size="14.00">DragPlayer &#160;</text>
<text text-anchor="start" x="359.12" y="-171.7" font-family="Helvetica,sans-Serif" font-size="14.00">DragPlayer &#160;</text>
<text text-anchor="start" x="321.25" y="-151.95" font-family="Helvetica,sans-Serif" font-size="14.00">3Slashes_ForBossFight &#160;</text>
<text text-anchor="start" x="340.38" y="-132.2" font-family="Helvetica,sans-Serif" font-size="14.00">SummonMonster &#160;</text>
</g>
<!-- AttackSensor&#45;&gt;AttackSensor_linked -->
<g id="edge3" class="edge">
<title>AttackSensor&#45;&gt;AttackSensor_linked</title>
<path fill="none" stroke="#66cdaa" d="M146.65,-223.18C190.26,-216.85 252.72,-207.77 304.16,-200.29"/>
<polygon fill="#66cdaa" stroke="#66cdaa" points="304.41,-203.79 313.8,-198.89 303.4,-196.87 304.41,-203.79"/>
<text text-anchor="middle" x="218.38" y="-219.22" font-family="Helvetica,sans-Serif" font-size="14.00" fill="#66cdaa">QueueEnd</text>
</g>
<!-- AttackSensor_weight -->
<g id="node7" class="node">
<title>AttackSensor_weight</title>
<polygon fill="none" stroke="black" stroke-dasharray="1,5" points="487.62,-315.75 305.62,-315.75 305.62,-268.25 487.62,-268.25 487.62,-315.75"/>
<text text-anchor="start" x="353.5" y="-296.45" font-family="Helvetica,sans-Serif" font-size="14.00">1 DragPlayer &#160;</text>
<text text-anchor="start" x="315.62" y="-276.7" font-family="Helvetica,sans-Serif" font-size="14.00">1 3Slashes_ForBossFight &#160;</text>
</g>
<!-- AttackSensor&#45;&gt;AttackSensor_weight -->
<g id="edge4" class="edge">
<title>AttackSensor&#45;&gt;AttackSensor_weight</title>
<path fill="none" stroke="#458b74" d="M146.65,-241.84C187.49,-250.06 244.84,-261.62 294.21,-271.57"/>
<polygon fill="#458b74" stroke="#458b74" points="293.29,-274.95 303.78,-273.49 294.67,-268.09 293.29,-274.95"/>
<text text-anchor="middle" x="218.38" y="-263.95" font-family="Helvetica,sans-Serif" font-size="14.00" fill="#458b74">Weight</text>
</g>
<!-- TeleportSensor -->
<g id="node8" class="node">
<title>TeleportSensor</title>
<polygon fill="none" stroke="black" points="39.75,-343.12 39.75,-364.88 144,-364.88 144,-343.12 39.75,-343.12"/>
<text text-anchor="start" x="42.75" y="-348.57" font-family="Helvetica,sans-Serif" font-size="14.00">TeleportSensor &#160;</text>
</g>
<!-- TeleportSensor_linked -->
<g id="node9" class="node">
<title>TeleportSensor_linked</title>
<polygon fill="none" stroke="black" stroke-dasharray="1,5" points="487.73,-380.35 305.52,-380.35 305.52,-333.65 487.73,-333.65 487.73,-380.35"/>
<text text-anchor="start" x="311.12" y="-361.45" font-family="Helvetica,sans-Serif" font-size="14.00">Ｗarp In Teleport (no sight) &#160;</text>
<text text-anchor="start" x="364.38" y="-341.7" font-family="Helvetica,sans-Serif" font-size="14.00">Engaging &#160;</text>
</g>
<!-- TeleportSensor&#45;&gt;TeleportSensor_linked -->
<g id="edge5" class="edge">
<title>TeleportSensor&#45;&gt;TeleportSensor_linked</title>
<path fill="none" stroke="#66cdaa" d="M151.97,-354.59C192.19,-354.98 246.46,-355.52 293.58,-355.99"/>
<polygon fill="#66cdaa" stroke="#66cdaa" points="293.53,-359.49 303.56,-356.09 293.6,-352.49 293.53,-359.49"/>
<text text-anchor="middle" x="218.38" y="-357.95" font-family="Helvetica,sans-Serif" font-size="14.00" fill="#66cdaa">QueueEnd</text>
</g>
<!-- AttackPredictSensor -->
<g id="node10" class="node">
<title>AttackPredictSensor</title>
<polygon fill="none" stroke="black" points="24,-416 24,-437.75 159.75,-437.75 159.75,-416 24,-416"/>
<text text-anchor="start" x="27" y="-421.45" font-family="Helvetica,sans-Serif" font-size="14.00">AttackPredictSensor &#160;</text>
<polygon fill="none" stroke="black" points="24,-394.25 24,-416 159.75,-416 159.75,-394.25 24,-394.25"/>
<text text-anchor="start" x="27" y="-400.7" font-family="Helvetica,sans-Serif" font-size="12.00" fill="#838b8b">if: attackCondition</text>
<text text-anchor="start" x="122.25" y="-400.7" font-family="Helvetica,sans-Serif" font-size="14.00"> &#160;</text>
</g>
<!-- AttackPredictSensor_linked -->
<g id="node11" class="node">
<title>AttackPredictSensor_linked</title>
<polygon fill="none" stroke="black" stroke-dasharray="1,5" points="470.85,-434 322.4,-434 322.4,-398 470.85,-398 470.85,-434"/>
<text text-anchor="start" x="328" y="-410.57" font-family="Helvetica,sans-Serif" font-size="14.00"> AttackGrabInstantKill &#160;</text>
</g>
<!-- AttackPredictSensor&#45;&gt;AttackPredictSensor_linked -->
<g id="edge6" class="edge">
<title>AttackPredictSensor&#45;&gt;AttackPredictSensor_linked</title>
<path fill="none" stroke="#66cdaa" d="M167.71,-416C210.96,-416 265.53,-416 310.42,-416"/>
<polygon fill="#66cdaa" stroke="#66cdaa" points="310.4,-419.5 320.4,-416 310.4,-412.5 310.4,-419.5"/>
<text text-anchor="middle" x="218.38" y="-418.45" font-family="Helvetica,sans-Serif" font-size="14.00" fill="#66cdaa">QueueEnd</text>
</g>
<!-- AttackRunToSensor -->
<g id="node12" class="node">
<title>AttackRunToSensor</title>
<polygon fill="none" stroke="black" points="25.5,-486 25.5,-507.75 158.25,-507.75 158.25,-486 25.5,-486"/>
<text text-anchor="start" x="28.5" y="-491.45" font-family="Helvetica,sans-Serif" font-size="14.00">AttackRunToSensor &#160;</text>
<polygon fill="none" stroke="black" points="25.5,-464.25 25.5,-486 158.25,-486 158.25,-464.25 25.5,-464.25"/>
<text text-anchor="start" x="28.5" y="-470.7" font-family="Helvetica,sans-Serif" font-size="12.00" fill="#838b8b">if: state is Engaging</text>
<text text-anchor="start" x="132.75" y="-470.7" font-family="Helvetica,sans-Serif" font-size="14.00"> &#160;</text>
</g>
<!-- AttackRunToSensor_linked -->
<g id="node13" class="node">
<title>AttackRunToSensor_linked</title>
<polygon fill="none" stroke="black" stroke-dasharray="1,5" points="470.85,-488 322.4,-488 322.4,-452 470.85,-452 470.85,-488"/>
<text text-anchor="start" x="328" y="-464.57" font-family="Helvetica,sans-Serif" font-size="14.00"> AttackGrabInstantKill &#160;</text>
</g>
<!-- AttackRunToSensor&#45;&gt;AttackRunToSensor_linked -->
<g id="edge7" class="edge">
<title>AttackRunToSensor&#45;&gt;AttackRunToSensor_linked</title>
<path fill="none" stroke="#66cdaa" d="M166.16,-482.13C209.72,-479.82 265.16,-476.9 310.63,-474.49"/>
<polygon fill="#66cdaa" stroke="#66cdaa" points="310.65,-478 320.45,-473.97 310.28,-471.01 310.65,-478"/>
<text text-anchor="middle" x="218.38" y="-483.27" font-family="Helvetica,sans-Serif" font-size="14.00" fill="#66cdaa">QueueEnd</text>
</g>
<!-- FarAttackSensor -->
<g id="node14" class="node">
<title>FarAttackSensor</title>
<polygon fill="none" stroke="black" points="34.88,-592.12 34.88,-613.88 148.88,-613.88 148.88,-592.12 34.88,-592.12"/>
<text text-anchor="start" x="37.88" y="-597.58" font-family="Helvetica,sans-Serif" font-size="14.00">FarAttackSensor &#160;</text>
</g>
<!-- FarAttackSensor_linked -->
<g id="node15" class="node">
<title>FarAttackSensor_linked</title>
<polygon fill="none" stroke="black" stroke-dasharray="1,5" points="477.6,-611.98 315.65,-611.98 315.65,-506.02 477.6,-506.02 477.6,-611.98"/>
<text text-anchor="start" x="321.25" y="-593.08" font-family="Helvetica,sans-Serif" font-size="14.00">3Slashes_ForBossFight &#160;</text>
<text text-anchor="start" x="363.62" y="-573.33" font-family="Helvetica,sans-Serif" font-size="14.00">Explosion &#160;</text>
<text text-anchor="start" x="359.12" y="-553.58" font-family="Helvetica,sans-Serif" font-size="14.00">DragPlayer &#160;</text>
<text text-anchor="start" x="321.25" y="-533.83" font-family="Helvetica,sans-Serif" font-size="14.00">3Slashes_ForBossFight &#160;</text>
<text text-anchor="start" x="321.25" y="-514.08" font-family="Helvetica,sans-Serif" font-size="14.00">3Slashes_ForBossFight &#160;</text>
</g>
<!-- FarAttackSensor&#45;&gt;FarAttackSensor_linked -->
<g id="edge8" class="edge">
<title>FarAttackSensor&#45;&gt;FarAttackSensor_linked</title>
<path fill="none" stroke="#66cdaa" d="M156.71,-593.72C199.51,-587.5 256.54,-579.21 304.15,-572.29"/>
<polygon fill="#66cdaa" stroke="#66cdaa" points="304.51,-575.78 313.9,-570.88 303.5,-568.85 304.51,-575.78"/>
<text text-anchor="middle" x="218.38" y="-591.22" font-family="Helvetica,sans-Serif" font-size="14.00" fill="#66cdaa">QueueEnd</text>
</g>
<!-- FarAttackSensor_weight -->
<g id="node16" class="node">
<title>FarAttackSensor_weight</title>
<polygon fill="none" stroke="black" stroke-dasharray="1,5" points="449.75,-666 343.5,-666 343.5,-630 449.75,-630 449.75,-666"/>
<text text-anchor="start" x="353.5" y="-642.58" font-family="Helvetica,sans-Serif" font-size="14.00">1 DragPlayer &#160;</text>
</g>
<!-- FarAttackSensor&#45;&gt;FarAttackSensor_weight -->
<g id="edge9" class="edge">
<title>FarAttackSensor&#45;&gt;FarAttackSensor_weight</title>
<path fill="none" stroke="#458b74" d="M156.71,-612.49C208.32,-620.16 280.62,-630.91 332.14,-638.56"/>
<polygon fill="#458b74" stroke="#458b74" points="331.55,-642.01 341.95,-640.02 332.58,-635.09 331.55,-642.01"/>
<text text-anchor="middle" x="218.38" y="-627.95" font-family="Helvetica,sans-Serif" font-size="14.00" fill="#458b74">Weight</text>
</g>
<!--  AttackGrabInstantKill -->
<g id="node17" class="node">
<title> AttackGrabInstantKill</title>
<polygon fill="none" stroke="black" points="586.12,-974 586.12,-995.75 729.38,-995.75 729.38,-974 586.12,-974"/>
<text text-anchor="start" x="589.12" y="-979.45" font-family="Helvetica,sans-Serif" font-size="14.00"> AttackGrabInstantKill &#160;</text>
<polygon fill="none" stroke="black" points="586.12,-952.25 586.12,-974 729.38,-974 729.38,-952.25 586.12,-952.25"/>
<text text-anchor="start" x="589.12" y="-958.7" font-family="Helvetica,sans-Serif" font-size="12.00" fill="#838b8b">5.00s: Done</text>
<text text-anchor="start" x="653.62" y="-958.7" font-family="Helvetica,sans-Serif" font-size="14.00"> &#160;</text>
</g>
<!-- Engaging -->
<g id="node18" class="node">
<title>Engaging</title>
<polygon fill="none" stroke="black" points="976.25,-705 903.25,-705 903.25,-669 976.25,-669 976.25,-705"/>
<text text-anchor="middle" x="939.75" y="-681.58" font-family="Helvetica,sans-Serif" font-size="14.00">Engaging</text>
</g>
<!--  AttackGrabInstantKill&#45;&gt;Engaging -->
<g id="edge10" class="edge">
<title> AttackGrabInstantKill&#45;&gt;Engaging</title>
<path fill="none" stroke="#cdc8b1" d="M737.2,-970.95C772.86,-965.36 812.57,-952.49 837.5,-924 875.33,-880.77 833.34,-849 855.5,-796 868.68,-764.47 893.24,-734.04 912.28,-713.38"/>
<polygon fill="#cdc8b1" stroke="#cdc8b1" points="914.7,-715.93 919.02,-706.25 909.61,-711.12 914.7,-715.93"/>
</g>
<!--  AttackGrabInstantKill_linked -->
<g id="node19" class="node">
<title> AttackGrabInstantKill_linked</title>
<polygon fill="none" stroke="black" stroke-dasharray="1,5" points="977.6,-992 901.9,-992 901.9,-956 977.6,-956 977.6,-992"/>
<text text-anchor="start" x="907.5" y="-968.58" font-family="Helvetica,sans-Serif" font-size="14.00">Engaging &#160;</text>
</g>
<!--  AttackGrabInstantKill&#45;&gt; AttackGrabInstantKill_linked -->
<g id="edge11" class="edge">
<title> AttackGrabInstantKill&#45;&gt; AttackGrabInstantKill_linked</title>
<path fill="none" stroke="#66cdaa" d="M737.12,-974C786.21,-974 847.95,-974 890.09,-974"/>
<polygon fill="#66cdaa" stroke="#66cdaa" points="889.91,-977.5 899.91,-974 889.91,-970.5 889.91,-977.5"/>
<text text-anchor="middle" x="804.88" y="-976.45" font-family="Helvetica,sans-Serif" font-size="14.00" fill="#66cdaa">QueueEnd</text>
</g>
<!-- DeadLoop(ForBossFightCutscene) -->
<g id="node20" class="node">
<title>DeadLoop(ForBossFightCutscene)</title>
<text text-anchor="middle" x="396.62" y="-731.58" font-family="Helvetica,sans-Serif" font-size="14.00">DeadLoop(ForBossFightCutscene) (Init)</text>
</g>
<!-- Revive 復活 -->
<g id="node21" class="node">
<title>Revive 復活</title>
<polygon fill="none" stroke="black" points="611.25,-742.12 611.25,-763.88 704.25,-763.88 704.25,-742.12 611.25,-742.12"/>
<text text-anchor="start" x="614.25" y="-747.58" font-family="Helvetica,sans-Serif" font-size="14.00">Revive 復活 &#160;</text>
<polygon fill="none" stroke="black" points="611.25,-710.12 611.25,-742.12 704.25,-742.12 704.25,-710.12 611.25,-710.12"/>
<text text-anchor="start" x="614.25" y="-728.73" font-family="Helvetica,sans-Serif" font-size="12.00" fill="#838b8b">3.83s: Shoot</text>
<text text-anchor="start" x="614.25" y="-714.83" font-family="Helvetica,sans-Serif" font-size="12.00" fill="#838b8b">4.50s: Done</text>
<text text-anchor="start" x="678.75" y="-714.83" font-family="Helvetica,sans-Serif" font-size="14.00"> &#160;</text>
</g>
<!-- DeadLoop(ForBossFightCutscene)&#45;&gt;Revive 復活 -->
<g id="edge12" class="edge">
<title>DeadLoop(ForBossFightCutscene)&#45;&gt;Revive 復活</title>
<path fill="none" stroke="#cdc8b1" d="M524.15,-737C547.67,-737 571.33,-737 592.01,-737"/>
<polygon fill="#cdc8b1" stroke="#cdc8b1" points="591.99,-740.5 601.99,-737 591.99,-733.5 591.99,-740.5"/>
</g>
<!-- Revive 復活&#45;&gt;Engaging -->
<g id="edge25" class="edge">
<title>Revive 復活&#45;&gt;Engaging</title>
<path fill="none" stroke="#cdc8b1" d="M712.07,-727.48C764.04,-718.2 842.27,-704.23 891.9,-695.37"/>
<polygon fill="#cdc8b1" stroke="#cdc8b1" points="892.23,-698.86 901.46,-693.66 891,-691.97 892.23,-698.86"/>
</g>
<!-- Ｗarp In Teleport (no sight) -->
<g id="node22" class="node">
<title>Ｗarp In Teleport (no sight)</title>
<polygon fill="none" stroke="black" points="569.25,-904 569.25,-925.75 746.25,-925.75 746.25,-904 569.25,-904"/>
<text text-anchor="start" x="572.25" y="-909.45" font-family="Helvetica,sans-Serif" font-size="14.00">Ｗarp In Teleport (no sight) &#160;</text>
<polygon fill="none" stroke="black" points="569.25,-882.25 569.25,-904 746.25,-904 746.25,-882.25 569.25,-882.25"/>
<text text-anchor="start" x="572.25" y="-888.7" font-family="Helvetica,sans-Serif" font-size="12.00" fill="#838b8b">4.00s: Done</text>
<text text-anchor="start" x="636.75" y="-888.7" font-family="Helvetica,sans-Serif" font-size="14.00"> &#160;</text>
</g>
<!-- Ｗarp In Teleport (no sight)&#45;&gt;Engaging -->
<g id="edge13" class="edge">
<title>Ｗarp In Teleport (no sight)&#45;&gt;Engaging</title>
<path fill="none" stroke="#cdc8b1" d="M742.78,-878.51C746.9,-875.66 750.76,-872.51 754.25,-869 770.9,-852.25 758.47,-838.18 772.25,-819 774.71,-815.58 858.56,-749.73 906.31,-712.36"/>
<polygon fill="#cdc8b1" stroke="#cdc8b1" points="908.43,-715.14 914.15,-706.22 904.12,-709.63 908.43,-715.14"/>
</g>
<!-- Ｗarp In Teleport (no sight)_linked -->
<g id="node23" class="node">
<title>Ｗarp In Teleport (no sight)_linked</title>
<polygon fill="none" stroke="black" stroke-dasharray="1,5" points="977.6,-922 901.9,-922 901.9,-886 977.6,-886 977.6,-922"/>
<text text-anchor="start" x="907.5" y="-898.58" font-family="Helvetica,sans-Serif" font-size="14.00">Engaging &#160;</text>
</g>
<!-- Ｗarp In Teleport (no sight)&#45;&gt;Ｗarp In Teleport (no sight)_linked -->
<g id="edge14" class="edge">
<title>Ｗarp In Teleport (no sight)&#45;&gt;Ｗarp In Teleport (no sight)_linked</title>
<path fill="none" stroke="#66cdaa" d="M753.94,-904C799.91,-904 853.1,-904 890.58,-904"/>
<polygon fill="#66cdaa" stroke="#66cdaa" points="890.16,-907.5 900.16,-904 890.16,-900.5 890.16,-907.5"/>
<text text-anchor="middle" x="804.88" y="-906.45" font-family="Helvetica,sans-Serif" font-size="14.00" fill="#66cdaa">QueueEnd</text>
</g>
<!-- DragPlayer -->
<g id="node24" class="node">
<title>DragPlayer</title>
<polygon fill="none" stroke="black" points="598.88,-834.12 598.88,-855.88 716.62,-855.88 716.62,-834.12 598.88,-834.12"/>
<text text-anchor="start" x="620.25" y="-839.58" font-family="Helvetica,sans-Serif" font-size="14.00">DragPlayer &#160;</text>
<polygon fill="none" stroke="black" points="598.88,-790.12 598.88,-834.12 716.62,-834.12 716.62,-790.12 598.88,-790.12"/>
<text text-anchor="start" x="601.88" y="-820.73" font-family="Helvetica,sans-Serif" font-size="12.00" fill="#838b8b">0.00s: CheckFacing</text>
<text text-anchor="start" x="601.88" y="-808.73" font-family="Helvetica,sans-Serif" font-size="12.00" fill="#838b8b">2.13s: LinkNextMove</text>
<text text-anchor="start" x="601.88" y="-794.83" font-family="Helvetica,sans-Serif" font-size="12.00" fill="#838b8b">2.25s: Done</text>
<text text-anchor="start" x="666.38" y="-794.83" font-family="Helvetica,sans-Serif" font-size="14.00"> &#160;</text>
</g>
<!-- DragPlayer&#45;&gt;Engaging -->
<g id="edge15" class="edge">
<title>DragPlayer&#45;&gt;Engaging</title>
<path fill="none" stroke="#cdc8b1" d="M724.53,-791.37C734.49,-786.56 744.65,-781.66 754.25,-777 801.59,-754.05 855.68,-727.64 893,-709.39"/>
<polygon fill="#cdc8b1" stroke="#cdc8b1" points="894.26,-712.68 901.7,-705.14 891.18,-706.39 894.26,-712.68"/>
</g>
<!-- DragPlayer_weight -->
<g id="node25" class="node">
<title>DragPlayer_weight</title>
<polygon fill="none" stroke="black" stroke-dasharray="1,5" points="1024,-841 855.5,-841 855.5,-805 1024,-805 1024,-841"/>
<text text-anchor="start" x="865.5" y="-817.58" font-family="Helvetica,sans-Serif" font-size="14.00">1 &#160;AttackGrabInstantKill &#160;</text>
</g>
<!-- DragPlayer&#45;&gt;DragPlayer_weight -->
<g id="edge16" class="edge">
<title>DragPlayer&#45;&gt;DragPlayer_weight</title>
<path fill="none" stroke="#458b74" d="M724.4,-823C759.93,-823 804.46,-823 843.71,-823"/>
<polygon fill="#458b74" stroke="#458b74" points="843.65,-826.5 853.65,-823 843.65,-819.5 843.65,-826.5"/>
<text text-anchor="middle" x="804.88" y="-825.45" font-family="Helvetica,sans-Serif" font-size="14.00" fill="#458b74">Weight</text>
</g>
<!-- Explosion -->
<g id="node26" class="node">
<title>Explosion</title>
<polygon fill="none" stroke="black" points="618.75,-592 618.75,-613.75 696.75,-613.75 696.75,-592 618.75,-592"/>
<text text-anchor="start" x="624.75" y="-597.45" font-family="Helvetica,sans-Serif" font-size="14.00">Explosion &#160;</text>
<polygon fill="none" stroke="black" points="618.75,-570.25 618.75,-592 696.75,-592 696.75,-570.25 618.75,-570.25"/>
<text text-anchor="start" x="621.75" y="-576.7" font-family="Helvetica,sans-Serif" font-size="12.00" fill="#838b8b">5.00s: Done</text>
<text text-anchor="start" x="686.25" y="-576.7" font-family="Helvetica,sans-Serif" font-size="14.00"> &#160;</text>
</g>
<!-- Explosion&#45;&gt;Engaging -->
<g id="edge17" class="edge">
<title>Explosion&#45;&gt;Engaging</title>
<path fill="none" stroke="#cdc8b1" d="M704.67,-607.58C756.53,-625.17 840.43,-653.64 892.44,-671.29"/>
<polygon fill="#cdc8b1" stroke="#cdc8b1" points="891.01,-674.5 901.6,-674.4 893.25,-667.87 891.01,-674.5"/>
</g>
<!-- SummonMonster -->
<g id="node27" class="node">
<title>SummonMonster</title>
<polygon fill="none" stroke="black" points="598.5,-522.12 598.5,-543.88 717,-543.88 717,-522.12 598.5,-522.12"/>
<text text-anchor="start" x="601.5" y="-527.58" font-family="Helvetica,sans-Serif" font-size="14.00">SummonMonster &#160;</text>
<polygon fill="none" stroke="black" points="598.5,-466.12 598.5,-522.12 717,-522.12 717,-466.12 598.5,-466.12"/>
<text text-anchor="start" x="601.5" y="-508.73" font-family="Helvetica,sans-Serif" font-size="12.00" fill="#838b8b">0.78s: CheckFacing</text>
<text text-anchor="start" x="601.5" y="-496.73" font-family="Helvetica,sans-Serif" font-size="12.00" fill="#838b8b">0.83s: Shoot</text>
<text text-anchor="start" x="601.5" y="-484.73" font-family="Helvetica,sans-Serif" font-size="12.00" fill="#838b8b">2.42s: Shoot2</text>
<text text-anchor="start" x="601.5" y="-470.83" font-family="Helvetica,sans-Serif" font-size="12.00" fill="#838b8b">3.50s: Done</text>
<text text-anchor="start" x="666" y="-470.83" font-family="Helvetica,sans-Serif" font-size="14.00"> &#160;</text>
</g>
<!-- SummonMonster&#45;&gt;Engaging -->
<g id="edge18" class="edge">
<title>SummonMonster&#45;&gt;Engaging</title>
<path fill="none" stroke="#cdc8b1" d="M724.82,-539.68C734.79,-545.29 744.87,-551.17 754.25,-557 808.78,-590.9 869.09,-634.66 905.44,-661.77"/>
<polygon fill="#cdc8b1" stroke="#cdc8b1" points="903.28,-664.53 913.38,-667.72 907.47,-658.92 903.28,-664.53"/>
</g>
<!-- 3Slashes_ForBossFight -->
<g id="node28" class="node">
<title>3Slashes_ForBossFight</title>
<polygon fill="none" stroke="black" points="579.38,-418.12 579.38,-439.88 736.12,-439.88 736.12,-418.12 579.38,-418.12"/>
<text text-anchor="start" x="582.38" y="-423.57" font-family="Helvetica,sans-Serif" font-size="14.00">3Slashes_ForBossFight &#160;</text>
<polygon fill="none" stroke="black" points="579.38,-374.12 579.38,-418.12 736.12,-418.12 736.12,-374.12 579.38,-374.12"/>
<text text-anchor="start" x="582.38" y="-404.73" font-family="Helvetica,sans-Serif" font-size="12.00" fill="#838b8b">1.08s: CheckFacing</text>
<text text-anchor="start" x="582.38" y="-392.73" font-family="Helvetica,sans-Serif" font-size="12.00" fill="#838b8b">1.83s: CheckFacing</text>
<text text-anchor="start" x="582.38" y="-378.83" font-family="Helvetica,sans-Serif" font-size="12.00" fill="#838b8b">3.52s: Done</text>
<text text-anchor="start" x="646.88" y="-378.83" font-family="Helvetica,sans-Serif" font-size="14.00"> &#160;</text>
</g>
<!-- 3Slashes_ForBossFight&#45;&gt;Engaging -->
<g id="edge19" class="edge">
<title>3Slashes_ForBossFight&#45;&gt;Engaging</title>
<path fill="none" stroke="#cdc8b1" d="M741.51,-443.8C745.95,-446.71 750.23,-449.78 754.25,-453 830.01,-513.76 893.87,-611.24 922.55,-658.91"/>
<polygon fill="#cdc8b1" stroke="#cdc8b1" points="919.39,-660.46 927.51,-667.27 925.41,-656.88 919.39,-660.46"/>
</g>
<!-- 3Slashes_ForBossFight_linked -->
<g id="node29" class="node">
<title>3Slashes_ForBossFight_linked</title>
<polygon fill="none" stroke="black" stroke-dasharray="1,5" points="978.35,-450.1 901.15,-450.1 901.15,-363.9 978.35,-363.9 978.35,-450.1"/>
<text text-anchor="start" x="907.5" y="-431.2" font-family="Helvetica,sans-Serif" font-size="14.00">Engaging &#160;</text>
<text text-anchor="start" x="907.5" y="-411.45" font-family="Helvetica,sans-Serif" font-size="14.00">Engaging &#160;</text>
<text text-anchor="start" x="906.75" y="-391.7" font-family="Helvetica,sans-Serif" font-size="14.00">Explosion &#160;</text>
<text text-anchor="start" x="907.5" y="-371.95" font-family="Helvetica,sans-Serif" font-size="14.00">Engaging &#160;</text>
</g>
<!-- 3Slashes_ForBossFight&#45;&gt;3Slashes_ForBossFight_linked -->
<g id="edge20" class="edge">
<title>3Slashes_ForBossFight&#45;&gt;3Slashes_ForBossFight_linked</title>
<path fill="none" stroke="#66cdaa" d="M743.9,-407C791.49,-407 849.13,-407 889.32,-407"/>
<polygon fill="#66cdaa" stroke="#66cdaa" points="889.17,-410.5 899.17,-407 889.17,-403.5 889.17,-410.5"/>
<text text-anchor="middle" x="804.88" y="-409.45" font-family="Helvetica,sans-Serif" font-size="14.00" fill="#66cdaa">QueueEnd</text>
</g>
<!-- AttackParrying -->
<g id="node30" class="node">
<title>AttackParrying</title>
<polygon fill="none" stroke="black" points="607.12,-662 607.12,-683.75 708.38,-683.75 708.38,-662 607.12,-662"/>
<text text-anchor="start" x="610.12" y="-667.45" font-family="Helvetica,sans-Serif" font-size="14.00">AttackParrying &#160;</text>
<polygon fill="none" stroke="black" points="607.12,-640.25 607.12,-662 708.38,-662 708.38,-640.25 607.12,-640.25"/>
<text text-anchor="start" x="610.12" y="-646.7" font-family="Helvetica,sans-Serif" font-size="12.00" fill="#838b8b">0.62s: Done</text>
<text text-anchor="start" x="674.62" y="-646.7" font-family="Helvetica,sans-Serif" font-size="14.00"> &#160;</text>
</g>
<!-- AttackParrying&#45;&gt;Engaging -->
<g id="edge21" class="edge">
<title>AttackParrying&#45;&gt;Engaging</title>
<path fill="none" stroke="#cdc8b1" d="M716.09,-667.12C767.82,-671.74 843.02,-678.45 891.41,-682.77"/>
<polygon fill="#cdc8b1" stroke="#cdc8b1" points="891.02,-686.25 901.29,-683.66 891.64,-679.28 891.02,-686.25"/>
</g>
<!-- Fake_Dead 假死 -->
<g id="node31" class="node">
<title>Fake_Dead 假死</title>
<polygon fill="none" stroke="black" points="31.12,-742.12 31.12,-763.88 152.62,-763.88 152.62,-742.12 31.12,-742.12"/>
<text text-anchor="start" x="34.12" y="-747.58" font-family="Helvetica,sans-Serif" font-size="14.00">Fake_Dead 假死 &#160;</text>
<polygon fill="none" stroke="black" points="31.12,-710.12 31.12,-742.12 152.62,-742.12 152.62,-710.12 31.12,-710.12"/>
<text text-anchor="start" x="34.12" y="-728.73" font-family="Helvetica,sans-Serif" font-size="12.00" fill="#838b8b">0.17s: Shoot</text>
<text text-anchor="start" x="34.12" y="-714.83" font-family="Helvetica,sans-Serif" font-size="12.00" fill="#838b8b">0.42s: Done</text>
<text text-anchor="start" x="98.62" y="-714.83" font-family="Helvetica,sans-Serif" font-size="14.00"> &#160;</text>
</g>
<!-- Fake_Dead 假死&#45;&gt;DeadLoop(ForBossFightCutscene) -->
<g id="edge22" class="edge">
<title>Fake_Dead 假死&#45;&gt;DeadLoop(ForBossFightCutscene)</title>
<path fill="none" stroke="#cdc8b1" d="M160.44,-737C189.25,-737 223.97,-737 257.79,-737"/>
<polygon fill="#cdc8b1" stroke="#cdc8b1" points="257.7,-740.5 267.7,-737 257.7,-733.5 257.7,-740.5"/>
</g>
<!-- HurtState -->
<g id="node32" class="node">
<title>HurtState</title>
<polygon fill="none" stroke="black" points="52.88,-928 52.88,-949.75 130.88,-949.75 130.88,-928 52.88,-928"/>
<text text-anchor="start" x="59.62" y="-933.45" font-family="Helvetica,sans-Serif" font-size="14.00">HurtState &#160;</text>
<polygon fill="none" stroke="black" points="52.88,-906.25 52.88,-928 130.88,-928 130.88,-906.25 52.88,-906.25"/>
<text text-anchor="start" x="55.88" y="-912.7" font-family="Helvetica,sans-Serif" font-size="12.00" fill="#838b8b">0.33s: Done</text>
<text text-anchor="start" x="120.38" y="-912.7" font-family="Helvetica,sans-Serif" font-size="14.00"> &#160;</text>
</g>
<!-- PreAttack -->
<g id="node33" class="node">
<title>PreAttack</title>
<polygon fill="none" stroke="black" points="433.88,-911 359.38,-911 359.38,-875 433.88,-875 433.88,-911"/>
<text text-anchor="middle" x="396.62" y="-887.58" font-family="Helvetica,sans-Serif" font-size="14.00">PreAttack</text>
</g>
<!-- HurtState&#45;&gt;PreAttack -->
<g id="edge23" class="edge">
<title>HurtState&#45;&gt;PreAttack</title>
<path fill="none" stroke="#cdc8b1" d="M138.86,-922.68C195.34,-916.15 290.7,-905.13 347.95,-898.51"/>
<polygon fill="#cdc8b1" stroke="#cdc8b1" points="348.18,-902.01 357.71,-897.38 347.37,-895.06 348.18,-902.01"/>
</g>
<!-- Hurt_BigState -->
<g id="node34" class="node">
<title>Hurt_BigState</title>
<polygon fill="none" stroke="black" points="43.12,-858 43.12,-879.75 140.62,-879.75 140.62,-858 43.12,-858"/>
<text text-anchor="start" x="46.12" y="-863.45" font-family="Helvetica,sans-Serif" font-size="14.00">Hurt_BigState &#160;</text>
<polygon fill="none" stroke="black" points="43.12,-836.25 43.12,-858 140.62,-858 140.62,-836.25 43.12,-836.25"/>
<text text-anchor="start" x="46.12" y="-842.7" font-family="Helvetica,sans-Serif" font-size="12.00" fill="#838b8b">0.33s: Done</text>
<text text-anchor="start" x="110.62" y="-842.7" font-family="Helvetica,sans-Serif" font-size="14.00"> &#160;</text>
</g>
<!-- Hurt_BigState&#45;&gt;PreAttack -->
<g id="edge24" class="edge">
<title>Hurt_BigState&#45;&gt;PreAttack</title>
<path fill="none" stroke="#cdc8b1" d="M148.4,-864.42C205.5,-871.02 293.49,-881.19 347.66,-887.45"/>
<polygon fill="#cdc8b1" stroke="#cdc8b1" points="347.17,-890.92 357.5,-888.59 347.97,-883.97 347.17,-890.92"/>
</g>
<!-- ZEnterState -->
<g id="node35" class="node">
<title>ZEnterState</title>
<polygon fill="none" stroke="black" points="353.88,-1036 353.88,-1057.75 439.38,-1057.75 439.38,-1036 353.88,-1036"/>
<text text-anchor="start" x="356.88" y="-1041.45" font-family="Helvetica,sans-Serif" font-size="14.00">ZEnterState &#160;</text>
<polygon fill="none" stroke="black" points="353.88,-1014.25 353.88,-1036 439.38,-1036 439.38,-1014.25 353.88,-1014.25"/>
<text text-anchor="start" x="356.88" y="-1020.7" font-family="Helvetica,sans-Serif" font-size="12.00" fill="#838b8b">2.50s: Done</text>
<text text-anchor="start" x="421.38" y="-1020.7" font-family="Helvetica,sans-Serif" font-size="14.00"> &#160;</text>
</g>
<!-- Wandering_Idle -->
<g id="node36" class="node">
<title>Wandering_Idle</title>
<polygon fill="none" stroke="black" points="713,-1054 602.5,-1054 602.5,-1018 713,-1018 713,-1054"/>
<text text-anchor="middle" x="657.75" y="-1030.58" font-family="Helvetica,sans-Serif" font-size="14.00">Wandering_Idle</text>
</g>
<!-- ZEnterState&#45;&gt;Wandering_Idle -->
<g id="edge26" class="edge">
<title>ZEnterState&#45;&gt;Wandering_Idle</title>
<path fill="none" stroke="#cdc8b1" d="M447.28,-1036C488.11,-1036 546.3,-1036 590.99,-1036"/>
<polygon fill="#cdc8b1" stroke="#cdc8b1" points="590.83,-1039.5 600.83,-1036 590.83,-1032.5 590.83,-1039.5"/>
</g>
<!-- ZExitState -->
<g id="node37" class="node">
<title>ZExitState</title>
<polygon fill="none" stroke="black" points="54,-1025.12 54,-1046.88 129.75,-1046.88 129.75,-1025.12 54,-1025.12"/>
<text text-anchor="start" x="57" y="-1030.58" font-family="Helvetica,sans-Serif" font-size="14.00">ZExitState &#160;</text>
</g>
<!-- ZExitState&#45;&gt;ZEnterState -->
<g id="edge27" class="edge">
<title>ZExitState&#45;&gt;ZEnterState</title>
<path fill="none" stroke="#cdc8b1" d="M137.55,-1036C189.74,-1036 276.38,-1036 334.71,-1036"/>
<polygon fill="#cdc8b1" stroke="#cdc8b1" points="334.47,-1039.5 344.47,-1036 334.47,-1032.5 334.47,-1039.5"/>
</g>
</g>
</svg>
