<?xml version="1.0" encoding="UTF-8" standalone="no"?>
<!DOCTYPE svg PUBLIC "-//W3C//DTD SVG 1.1//EN"
 "http://www.w3.org/Graphics/SVG/1.1/DTD/svg11.dtd">
<!-- Generated by graphviz version 12.2.1 (20241206.2353)
 -->
<!-- Title: Foo Pages: 1 -->
<svg width="1032pt" height="1414pt"
 viewBox="0.00 0.00 1032.00 1414.10" xmlns="http://www.w3.org/2000/svg" xmlns:xlink="http://www.w3.org/1999/xlink">
<g id="graph0" class="graph" transform="scale(1 1) rotate(0) translate(4 1410.1)">
<title>Foo</title>
<polygon fill="white" stroke="none" points="-4,4 -4,-1410.1 1028,-1410.1 1028,4 -4,4"/>
<g id="clust1" class="cluster">
<title>cluster_attacksensors</title>
<polygon fill="none" stroke="black" points="8,-708.1 8,-1398.1 495.73,-1398.1 495.73,-708.1 8,-708.1"/>
<text text-anchor="middle" x="251.86" y="-1380.8" font-family="Helvetica,sans-Serif" font-size="14.00">Attack Sensors</text>
</g>
<!--  AttackGrabInstantKill -->
<g id="node1" class="node">
<title> AttackGrabInstantKill</title>
<polygon fill="none" stroke="black" points="586.12,-610.1 586.12,-631.85 729.38,-631.85 729.38,-610.1 586.12,-610.1"/>
<text text-anchor="start" x="589.12" y="-615.55" font-family="Helvetica,sans-Serif" font-size="14.00"> AttackGrabInstantKill &#160;</text>
<polygon fill="none" stroke="black" points="586.12,-588.35 586.12,-610.1 729.38,-610.1 729.38,-588.35 586.12,-588.35"/>
<text text-anchor="start" x="589.12" y="-594.8" font-family="Helvetica,sans-Serif" font-size="12.00" fill="#838b8b">5.00s: Done</text>
<text text-anchor="start" x="653.62" y="-594.8" font-family="Helvetica,sans-Serif" font-size="14.00"> &#160;</text>
</g>
<!-- Engaging -->
<g id="node2" class="node">
<title>Engaging</title>
<polygon fill="none" stroke="black" points="976.25,-341.1 903.25,-341.1 903.25,-305.1 976.25,-305.1 976.25,-341.1"/>
<text text-anchor="middle" x="939.75" y="-317.68" font-family="Helvetica,sans-Serif" font-size="14.00">Engaging</text>
</g>
<!--  AttackGrabInstantKill&#45;&gt;Engaging -->
<g id="edge1" class="edge">
<title> AttackGrabInstantKill&#45;&gt;Engaging</title>
<path fill="none" stroke="#cdc8b1" d="M737.2,-607.05C772.86,-601.46 812.57,-588.59 837.5,-560.1 875.33,-516.87 833.34,-485.1 855.5,-432.1 868.68,-400.57 893.24,-370.14 912.28,-349.48"/>
<polygon fill="#cdc8b1" stroke="#cdc8b1" points="914.7,-352.03 919.02,-342.35 909.61,-347.22 914.7,-352.03"/>
</g>
<!--  AttackGrabInstantKill_linked -->
<g id="node3" class="node">
<title> AttackGrabInstantKill_linked</title>
<polygon fill="none" stroke="black" stroke-dasharray="1,5" points="977.6,-628.1 901.9,-628.1 901.9,-592.1 977.6,-592.1 977.6,-628.1"/>
<text text-anchor="start" x="907.5" y="-604.68" font-family="Helvetica,sans-Serif" font-size="14.00">Engaging &#160;</text>
</g>
<!--  AttackGrabInstantKill&#45;&gt; AttackGrabInstantKill_linked -->
<g id="edge2" class="edge">
<title> AttackGrabInstantKill&#45;&gt; AttackGrabInstantKill_linked</title>
<path fill="none" stroke="#66cdaa" d="M737.12,-610.1C786.21,-610.1 847.95,-610.1 890.09,-610.1"/>
<polygon fill="#66cdaa" stroke="#66cdaa" points="889.91,-613.6 899.91,-610.1 889.91,-606.6 889.91,-613.6"/>
<text text-anchor="middle" x="804.88" y="-612.55" font-family="Helvetica,sans-Serif" font-size="14.00" fill="#66cdaa">QueueEnd</text>
</g>
<!-- DeadLoop(ForBossFightCutscene) -->
<g id="node4" class="node">
<title>DeadLoop(ForBossFightCutscene)</title>
<text text-anchor="middle" x="396.62" y="-367.68" font-family="Helvetica,sans-Serif" font-size="14.00">DeadLoop(ForBossFightCutscene) (Init)</text>
</g>
<!-- Revive 復活 -->
<g id="node5" class="node">
<title>Revive 復活</title>
<polygon fill="none" stroke="black" points="611.25,-378.23 611.25,-399.98 704.25,-399.98 704.25,-378.23 611.25,-378.23"/>
<text text-anchor="start" x="614.25" y="-383.68" font-family="Helvetica,sans-Serif" font-size="14.00">Revive 復活 &#160;</text>
<polygon fill="none" stroke="black" points="611.25,-346.23 611.25,-378.23 704.25,-378.23 704.25,-346.23 611.25,-346.23"/>
<text text-anchor="start" x="614.25" y="-364.83" font-family="Helvetica,sans-Serif" font-size="12.00" fill="#838b8b">3.83s: Shoot</text>
<text text-anchor="start" x="614.25" y="-350.93" font-family="Helvetica,sans-Serif" font-size="12.00" fill="#838b8b">4.50s: Done</text>
<text text-anchor="start" x="678.75" y="-350.93" font-family="Helvetica,sans-Serif" font-size="14.00"> &#160;</text>
</g>
<!-- DeadLoop(ForBossFightCutscene)&#45;&gt;Revive 復活 -->
<g id="edge3" class="edge">
<title>DeadLoop(ForBossFightCutscene)&#45;&gt;Revive 復活</title>
<path fill="none" stroke="#cdc8b1" d="M524.15,-373.1C547.67,-373.1 571.33,-373.1 592.01,-373.1"/>
<polygon fill="#cdc8b1" stroke="#cdc8b1" points="591.99,-376.6 601.99,-373.1 591.99,-369.6 591.99,-376.6"/>
</g>
<!-- Revive 復活&#45;&gt;Engaging -->
<g id="edge16" class="edge">
<title>Revive 復活&#45;&gt;Engaging</title>
<path fill="none" stroke="#cdc8b1" d="M712.07,-363.58C764.04,-354.3 842.27,-340.33 891.9,-331.47"/>
<polygon fill="#cdc8b1" stroke="#cdc8b1" points="892.23,-334.96 901.46,-329.76 891,-328.07 892.23,-334.96"/>
</g>
<!-- Ｗarp In Teleport (no sight) -->
<g id="node6" class="node">
<title>Ｗarp In Teleport (no sight)</title>
<polygon fill="none" stroke="black" points="569.25,-540.1 569.25,-561.85 746.25,-561.85 746.25,-540.1 569.25,-540.1"/>
<text text-anchor="start" x="572.25" y="-545.55" font-family="Helvetica,sans-Serif" font-size="14.00">Ｗarp In Teleport (no sight) &#160;</text>
<polygon fill="none" stroke="black" points="569.25,-518.35 569.25,-540.1 746.25,-540.1 746.25,-518.35 569.25,-518.35"/>
<text text-anchor="start" x="572.25" y="-524.8" font-family="Helvetica,sans-Serif" font-size="12.00" fill="#838b8b">4.00s: Done</text>
<text text-anchor="start" x="636.75" y="-524.8" font-family="Helvetica,sans-Serif" font-size="14.00"> &#160;</text>
</g>
<!-- Ｗarp In Teleport (no sight)&#45;&gt;Engaging -->
<g id="edge4" class="edge">
<title>Ｗarp In Teleport (no sight)&#45;&gt;Engaging</title>
<path fill="none" stroke="#cdc8b1" d="M742.78,-514.61C746.9,-511.76 750.76,-508.61 754.25,-505.1 770.9,-488.35 758.47,-474.28 772.25,-455.1 774.71,-451.68 858.56,-385.83 906.31,-348.46"/>
<polygon fill="#cdc8b1" stroke="#cdc8b1" points="908.43,-351.24 914.15,-342.32 904.12,-345.73 908.43,-351.24"/>
</g>
<!-- Ｗarp In Teleport (no sight)_linked -->
<g id="node7" class="node">
<title>Ｗarp In Teleport (no sight)_linked</title>
<polygon fill="none" stroke="black" stroke-dasharray="1,5" points="977.6,-558.1 901.9,-558.1 901.9,-522.1 977.6,-522.1 977.6,-558.1"/>
<text text-anchor="start" x="907.5" y="-534.68" font-family="Helvetica,sans-Serif" font-size="14.00">Engaging &#160;</text>
</g>
<!-- Ｗarp In Teleport (no sight)&#45;&gt;Ｗarp In Teleport (no sight)_linked -->
<g id="edge5" class="edge">
<title>Ｗarp In Teleport (no sight)&#45;&gt;Ｗarp In Teleport (no sight)_linked</title>
<path fill="none" stroke="#66cdaa" d="M753.94,-540.1C799.91,-540.1 853.1,-540.1 890.58,-540.1"/>
<polygon fill="#66cdaa" stroke="#66cdaa" points="890.16,-543.6 900.16,-540.1 890.16,-536.6 890.16,-543.6"/>
<text text-anchor="middle" x="804.88" y="-542.55" font-family="Helvetica,sans-Serif" font-size="14.00" fill="#66cdaa">QueueEnd</text>
</g>
<!-- DragPlayer -->
<g id="node8" class="node">
<title>DragPlayer</title>
<polygon fill="none" stroke="black" points="598.88,-470.23 598.88,-491.98 716.62,-491.98 716.62,-470.23 598.88,-470.23"/>
<text text-anchor="start" x="620.25" y="-475.68" font-family="Helvetica,sans-Serif" font-size="14.00">DragPlayer &#160;</text>
<polygon fill="none" stroke="black" points="598.88,-426.23 598.88,-470.23 716.62,-470.23 716.62,-426.23 598.88,-426.23"/>
<text text-anchor="start" x="601.88" y="-456.83" font-family="Helvetica,sans-Serif" font-size="12.00" fill="#838b8b">0.00s: CheckFacing</text>
<text text-anchor="start" x="601.88" y="-444.83" font-family="Helvetica,sans-Serif" font-size="12.00" fill="#838b8b">2.13s: LinkNextMove</text>
<text text-anchor="start" x="601.88" y="-430.93" font-family="Helvetica,sans-Serif" font-size="12.00" fill="#838b8b">2.25s: Done</text>
<text text-anchor="start" x="666.38" y="-430.93" font-family="Helvetica,sans-Serif" font-size="14.00"> &#160;</text>
</g>
<!-- DragPlayer&#45;&gt;Engaging -->
<g id="edge6" class="edge">
<title>DragPlayer&#45;&gt;Engaging</title>
<path fill="none" stroke="#cdc8b1" d="M724.53,-427.47C734.49,-422.66 744.65,-417.76 754.25,-413.1 801.59,-390.15 855.68,-363.74 893,-345.49"/>
<polygon fill="#cdc8b1" stroke="#cdc8b1" points="894.26,-348.78 901.7,-341.24 891.18,-342.49 894.26,-348.78"/>
</g>
<!-- DragPlayer_mustuse -->
<g id="node9" class="node">
<title>DragPlayer_mustuse</title>
<polygon fill="none" stroke="black" stroke-dasharray="1,5" points="1024,-477.1 855.5,-477.1 855.5,-441.1 1024,-441.1 1024,-477.1"/>
<text text-anchor="start" x="865.5" y="-453.68" font-family="Helvetica,sans-Serif" font-size="14.00">1 &#160;AttackGrabInstantKill &#160;</text>
</g>
<!-- DragPlayer&#45;&gt;DragPlayer_mustuse -->
<g id="edge7" class="edge">
<title>DragPlayer&#45;&gt;DragPlayer_mustuse</title>
<path fill="none" stroke="#458b74" d="M724.4,-459.1C759.93,-459.1 804.46,-459.1 843.71,-459.1"/>
<polygon fill="#458b74" stroke="#458b74" points="843.65,-462.6 853.65,-459.1 843.65,-455.6 843.65,-462.6"/>
<text text-anchor="middle" x="804.88" y="-461.55" font-family="Helvetica,sans-Serif" font-size="14.00" fill="#458b74">Weight</text>
</g>
<!-- Explosion -->
<g id="node10" class="node">
<title>Explosion</title>
<polygon fill="none" stroke="black" points="618.75,-228.1 618.75,-249.85 696.75,-249.85 696.75,-228.1 618.75,-228.1"/>
<text text-anchor="start" x="624.75" y="-233.55" font-family="Helvetica,sans-Serif" font-size="14.00">Explosion &#160;</text>
<polygon fill="none" stroke="black" points="618.75,-206.35 618.75,-228.1 696.75,-228.1 696.75,-206.35 618.75,-206.35"/>
<text text-anchor="start" x="621.75" y="-212.8" font-family="Helvetica,sans-Serif" font-size="12.00" fill="#838b8b">5.00s: Done</text>
<text text-anchor="start" x="686.25" y="-212.8" font-family="Helvetica,sans-Serif" font-size="14.00"> &#160;</text>
</g>
<!-- Explosion&#45;&gt;Engaging -->
<g id="edge8" class="edge">
<title>Explosion&#45;&gt;Engaging</title>
<path fill="none" stroke="#cdc8b1" d="M704.67,-243.68C756.53,-261.27 840.43,-289.74 892.44,-307.39"/>
<polygon fill="#cdc8b1" stroke="#cdc8b1" points="891.01,-310.6 901.6,-310.5 893.25,-303.97 891.01,-310.6"/>
</g>
<!-- SummonMonster -->
<g id="node11" class="node">
<title>SummonMonster</title>
<polygon fill="none" stroke="black" points="598.5,-158.23 598.5,-179.98 717,-179.98 717,-158.23 598.5,-158.23"/>
<text text-anchor="start" x="601.5" y="-163.68" font-family="Helvetica,sans-Serif" font-size="14.00">SummonMonster &#160;</text>
<polygon fill="none" stroke="black" points="598.5,-102.23 598.5,-158.23 717,-158.23 717,-102.23 598.5,-102.23"/>
<text text-anchor="start" x="601.5" y="-144.83" font-family="Helvetica,sans-Serif" font-size="12.00" fill="#838b8b">0.78s: CheckFacing</text>
<text text-anchor="start" x="601.5" y="-132.83" font-family="Helvetica,sans-Serif" font-size="12.00" fill="#838b8b">0.83s: Shoot</text>
<text text-anchor="start" x="601.5" y="-120.83" font-family="Helvetica,sans-Serif" font-size="12.00" fill="#838b8b">2.42s: Shoot2</text>
<text text-anchor="start" x="601.5" y="-106.93" font-family="Helvetica,sans-Serif" font-size="12.00" fill="#838b8b">3.50s: Done</text>
<text text-anchor="start" x="666" y="-106.93" font-family="Helvetica,sans-Serif" font-size="14.00"> &#160;</text>
</g>
<!-- SummonMonster&#45;&gt;Engaging -->
<g id="edge9" class="edge">
<title>SummonMonster&#45;&gt;Engaging</title>
<path fill="none" stroke="#cdc8b1" d="M724.82,-175.78C734.79,-181.39 744.87,-187.27 754.25,-193.1 808.78,-227 869.09,-270.76 905.44,-297.87"/>
<polygon fill="#cdc8b1" stroke="#cdc8b1" points="903.28,-300.63 913.38,-303.82 907.47,-295.02 903.28,-300.63"/>
</g>
<!-- 3Slashes_ForBossFight -->
<g id="node12" class="node">
<title>3Slashes_ForBossFight</title>
<polygon fill="none" stroke="black" points="579.38,-54.23 579.38,-75.98 736.12,-75.98 736.12,-54.23 579.38,-54.23"/>
<text text-anchor="start" x="582.38" y="-59.68" font-family="Helvetica,sans-Serif" font-size="14.00">3Slashes_ForBossFight &#160;</text>
<polygon fill="none" stroke="black" points="579.38,-10.23 579.38,-54.23 736.12,-54.23 736.12,-10.23 579.38,-10.23"/>
<text text-anchor="start" x="582.38" y="-40.83" font-family="Helvetica,sans-Serif" font-size="12.00" fill="#838b8b">1.08s: CheckFacing</text>
<text text-anchor="start" x="582.38" y="-28.83" font-family="Helvetica,sans-Serif" font-size="12.00" fill="#838b8b">1.83s: CheckFacing</text>
<text text-anchor="start" x="582.38" y="-14.93" font-family="Helvetica,sans-Serif" font-size="12.00" fill="#838b8b">3.52s: Done</text>
<text text-anchor="start" x="646.88" y="-14.93" font-family="Helvetica,sans-Serif" font-size="14.00"> &#160;</text>
</g>
<!-- 3Slashes_ForBossFight&#45;&gt;Engaging -->
<g id="edge10" class="edge">
<title>3Slashes_ForBossFight&#45;&gt;Engaging</title>
<path fill="none" stroke="#cdc8b1" d="M741.51,-79.9C745.95,-82.81 750.23,-85.88 754.25,-89.1 830.01,-149.86 893.87,-247.34 922.55,-295.01"/>
<polygon fill="#cdc8b1" stroke="#cdc8b1" points="919.39,-296.56 927.51,-303.37 925.41,-292.98 919.39,-296.56"/>
</g>
<!-- 3Slashes_ForBossFight_linked -->
<g id="node13" class="node">
<title>3Slashes_ForBossFight_linked</title>
<polygon fill="none" stroke="black" stroke-dasharray="1,5" points="978.35,-86.2 901.15,-86.2 901.15,0 978.35,0 978.35,-86.2"/>
<text text-anchor="start" x="907.5" y="-67.3" font-family="Helvetica,sans-Serif" font-size="14.00">Engaging &#160;</text>
<text text-anchor="start" x="907.5" y="-47.55" font-family="Helvetica,sans-Serif" font-size="14.00">Engaging &#160;</text>
<text text-anchor="start" x="906.75" y="-27.8" font-family="Helvetica,sans-Serif" font-size="14.00">Explosion &#160;</text>
<text text-anchor="start" x="907.5" y="-8.05" font-family="Helvetica,sans-Serif" font-size="14.00">Engaging &#160;</text>
</g>
<!-- 3Slashes_ForBossFight&#45;&gt;3Slashes_ForBossFight_linked -->
<g id="edge11" class="edge">
<title>3Slashes_ForBossFight&#45;&gt;3Slashes_ForBossFight_linked</title>
<path fill="none" stroke="#66cdaa" d="M743.9,-43.1C791.49,-43.1 849.13,-43.1 889.32,-43.1"/>
<polygon fill="#66cdaa" stroke="#66cdaa" points="889.17,-46.6 899.17,-43.1 889.17,-39.6 889.17,-46.6"/>
<text text-anchor="middle" x="804.88" y="-45.55" font-family="Helvetica,sans-Serif" font-size="14.00" fill="#66cdaa">QueueEnd</text>
</g>
<!-- AttackParrying -->
<g id="node14" class="node">
<title>AttackParrying</title>
<polygon fill="none" stroke="black" points="607.12,-298.1 607.12,-319.85 708.38,-319.85 708.38,-298.1 607.12,-298.1"/>
<text text-anchor="start" x="610.12" y="-303.55" font-family="Helvetica,sans-Serif" font-size="14.00">AttackParrying &#160;</text>
<polygon fill="none" stroke="black" points="607.12,-276.35 607.12,-298.1 708.38,-298.1 708.38,-276.35 607.12,-276.35"/>
<text text-anchor="start" x="610.12" y="-282.8" font-family="Helvetica,sans-Serif" font-size="12.00" fill="#838b8b">0.62s: Done</text>
<text text-anchor="start" x="674.62" y="-282.8" font-family="Helvetica,sans-Serif" font-size="14.00"> &#160;</text>
</g>
<!-- AttackParrying&#45;&gt;Engaging -->
<g id="edge12" class="edge">
<title>AttackParrying&#45;&gt;Engaging</title>
<path fill="none" stroke="#cdc8b1" d="M716.09,-303.22C767.82,-307.84 843.02,-314.55 891.41,-318.87"/>
<polygon fill="#cdc8b1" stroke="#cdc8b1" points="891.02,-322.35 901.29,-319.76 891.64,-315.38 891.02,-322.35"/>
</g>
<!-- Fake_Dead 假死 -->
<g id="node15" class="node">
<title>Fake_Dead 假死</title>
<polygon fill="none" stroke="black" points="31.12,-378.23 31.12,-399.98 152.62,-399.98 152.62,-378.23 31.12,-378.23"/>
<text text-anchor="start" x="34.12" y="-383.68" font-family="Helvetica,sans-Serif" font-size="14.00">Fake_Dead 假死 &#160;</text>
<polygon fill="none" stroke="black" points="31.12,-346.23 31.12,-378.23 152.62,-378.23 152.62,-346.23 31.12,-346.23"/>
<text text-anchor="start" x="34.12" y="-364.83" font-family="Helvetica,sans-Serif" font-size="12.00" fill="#838b8b">0.17s: Shoot</text>
<text text-anchor="start" x="34.12" y="-350.93" font-family="Helvetica,sans-Serif" font-size="12.00" fill="#838b8b">0.42s: Done</text>
<text text-anchor="start" x="98.62" y="-350.93" font-family="Helvetica,sans-Serif" font-size="14.00"> &#160;</text>
</g>
<!-- Fake_Dead 假死&#45;&gt;DeadLoop(ForBossFightCutscene) -->
<g id="edge13" class="edge">
<title>Fake_Dead 假死&#45;&gt;DeadLoop(ForBossFightCutscene)</title>
<path fill="none" stroke="#cdc8b1" d="M160.44,-373.1C189.25,-373.1 223.97,-373.1 257.79,-373.1"/>
<polygon fill="#cdc8b1" stroke="#cdc8b1" points="257.7,-376.6 267.7,-373.1 257.7,-369.6 257.7,-376.6"/>
</g>
<!-- HurtState -->
<g id="node16" class="node">
<title>HurtState</title>
<polygon fill="none" stroke="black" points="52.88,-564.1 52.88,-585.85 130.88,-585.85 130.88,-564.1 52.88,-564.1"/>
<text text-anchor="start" x="59.62" y="-569.55" font-family="Helvetica,sans-Serif" font-size="14.00">HurtState &#160;</text>
<polygon fill="none" stroke="black" points="52.88,-542.35 52.88,-564.1 130.88,-564.1 130.88,-542.35 52.88,-542.35"/>
<text text-anchor="start" x="55.88" y="-548.8" font-family="Helvetica,sans-Serif" font-size="12.00" fill="#838b8b">0.33s: Done</text>
<text text-anchor="start" x="120.38" y="-548.8" font-family="Helvetica,sans-Serif" font-size="14.00"> &#160;</text>
</g>
<!-- PreAttack -->
<g id="node17" class="node">
<title>PreAttack</title>
<polygon fill="none" stroke="black" points="433.88,-547.1 359.38,-547.1 359.38,-511.1 433.88,-511.1 433.88,-547.1"/>
<text text-anchor="middle" x="396.62" y="-523.68" font-family="Helvetica,sans-Serif" font-size="14.00">PreAttack</text>
</g>
<!-- HurtState&#45;&gt;PreAttack -->
<g id="edge14" class="edge">
<title>HurtState&#45;&gt;PreAttack</title>
<path fill="none" stroke="#cdc8b1" d="M138.86,-558.78C195.34,-552.25 290.7,-541.23 347.95,-534.61"/>
<polygon fill="#cdc8b1" stroke="#cdc8b1" points="348.18,-538.11 357.71,-533.48 347.37,-531.16 348.18,-538.11"/>
</g>
<!-- Hurt_BigState -->
<g id="node18" class="node">
<title>Hurt_BigState</title>
<polygon fill="none" stroke="black" points="43.12,-494.1 43.12,-515.85 140.62,-515.85 140.62,-494.1 43.12,-494.1"/>
<text text-anchor="start" x="46.12" y="-499.55" font-family="Helvetica,sans-Serif" font-size="14.00">Hurt_BigState &#160;</text>
<polygon fill="none" stroke="black" points="43.12,-472.35 43.12,-494.1 140.62,-494.1 140.62,-472.35 43.12,-472.35"/>
<text text-anchor="start" x="46.12" y="-478.8" font-family="Helvetica,sans-Serif" font-size="12.00" fill="#838b8b">0.33s: Done</text>
<text text-anchor="start" x="110.62" y="-478.8" font-family="Helvetica,sans-Serif" font-size="14.00"> &#160;</text>
</g>
<!-- Hurt_BigState&#45;&gt;PreAttack -->
<g id="edge15" class="edge">
<title>Hurt_BigState&#45;&gt;PreAttack</title>
<path fill="none" stroke="#cdc8b1" d="M148.4,-500.52C205.5,-507.12 293.49,-517.29 347.66,-523.55"/>
<polygon fill="#cdc8b1" stroke="#cdc8b1" points="347.17,-527.02 357.5,-524.69 347.97,-520.07 347.17,-527.02"/>
</g>
<!-- ZEnterState -->
<g id="node19" class="node">
<title>ZEnterState</title>
<polygon fill="none" stroke="black" points="353.88,-672.1 353.88,-693.85 439.38,-693.85 439.38,-672.1 353.88,-672.1"/>
<text text-anchor="start" x="356.88" y="-677.55" font-family="Helvetica,sans-Serif" font-size="14.00">ZEnterState &#160;</text>
<polygon fill="none" stroke="black" points="353.88,-650.35 353.88,-672.1 439.38,-672.1 439.38,-650.35 353.88,-650.35"/>
<text text-anchor="start" x="356.88" y="-656.8" font-family="Helvetica,sans-Serif" font-size="12.00" fill="#838b8b">2.50s: Done</text>
<text text-anchor="start" x="421.38" y="-656.8" font-family="Helvetica,sans-Serif" font-size="14.00"> &#160;</text>
</g>
<!-- Wandering_Idle -->
<g id="node20" class="node">
<title>Wandering_Idle</title>
<polygon fill="none" stroke="black" points="713,-690.1 602.5,-690.1 602.5,-654.1 713,-654.1 713,-690.1"/>
<text text-anchor="middle" x="657.75" y="-666.68" font-family="Helvetica,sans-Serif" font-size="14.00">Wandering_Idle</text>
</g>
<!-- ZEnterState&#45;&gt;Wandering_Idle -->
<g id="edge17" class="edge">
<title>ZEnterState&#45;&gt;Wandering_Idle</title>
<path fill="none" stroke="#cdc8b1" d="M447.28,-672.1C488.11,-672.1 546.3,-672.1 590.99,-672.1"/>
<polygon fill="#cdc8b1" stroke="#cdc8b1" points="590.83,-675.6 600.83,-672.1 590.83,-668.6 590.83,-675.6"/>
</g>
<!-- ZExitState -->
<g id="node21" class="node">
<title>ZExitState</title>
<polygon fill="none" stroke="black" points="131,-690.1 52.75,-690.1 52.75,-654.1 131,-654.1 131,-690.1"/>
<text text-anchor="middle" x="91.88" y="-666.68" font-family="Helvetica,sans-Serif" font-size="14.00">ZExitState</text>
</g>
<!-- ZExitState&#45;&gt;ZEnterState -->
<g id="edge18" class="edge">
<title>ZExitState&#45;&gt;ZEnterState</title>
<path fill="none" stroke="#cdc8b1" d="M131.22,-672.1C182.49,-672.1 273.95,-672.1 334.71,-672.1"/>
<polygon fill="#cdc8b1" stroke="#cdc8b1" points="334.54,-675.6 344.54,-672.1 334.54,-668.6 334.54,-675.6"/>
</g>
<!-- Level Once Sensor -->
<g id="node22" class="node">
<title>Level Once Sensor</title>
<polygon fill="none" stroke="black" points="157.62,-793.1 26.12,-793.1 26.12,-757.1 157.62,-757.1 157.62,-793.1"/>
<text text-anchor="middle" x="91.88" y="-769.68" font-family="Helvetica,sans-Serif" font-size="14.00">Level Once Sensor</text>
</g>
<!-- Level Once Sensor_linked -->
<g id="node23" class="node">
<title>Level Once Sensor_linked</title>
<polygon fill="none" stroke="black" stroke-dasharray="1,5" points="470.85,-752.1 322.4,-752.1 322.4,-716.1 470.85,-716.1 470.85,-752.1"/>
<text text-anchor="start" x="328" y="-728.68" font-family="Helvetica,sans-Serif" font-size="14.00"> AttackGrabInstantKill &#160;</text>
</g>
<!-- Level Once Sensor&#45;&gt;Level Once Sensor_linked -->
<g id="edge19" class="edge">
<title>Level Once Sensor&#45;&gt;Level Once Sensor_linked</title>
<path fill="none" stroke="#66cdaa" d="M158.02,-763.64C167.31,-762.13 176.77,-760.65 185.75,-759.35 226.91,-753.39 272.75,-747.76 311.06,-743.33"/>
<polygon fill="#66cdaa" stroke="#66cdaa" points="311.14,-746.85 320.67,-742.23 310.34,-739.89 311.14,-746.85"/>
<text text-anchor="middle" x="218.38" y="-761.8" font-family="Helvetica,sans-Serif" font-size="14.00" fill="#66cdaa">QueueEnd</text>
</g>
<!-- Level Once Sensor_mustuse -->
<g id="node24" class="node">
<title>Level Once Sensor_mustuse</title>
<polygon fill="none" stroke="black" stroke-dasharray="1,5" points="480.88,-806.1 312.38,-806.1 312.38,-770.1 480.88,-770.1 480.88,-806.1"/>
<text text-anchor="start" x="322.38" y="-782.68" font-family="Helvetica,sans-Serif" font-size="14.00">1 &#160;AttackGrabInstantKill &#160;</text>
</g>
<!-- Level Once Sensor&#45;&gt;Level Once Sensor_mustuse -->
<g id="edge20" class="edge">
<title>Level Once Sensor&#45;&gt;Level Once Sensor_mustuse</title>
<path fill="none" stroke="#458b74" d="M157.82,-777.89C199.48,-779.68 254.26,-782.03 300.74,-784.03"/>
<polygon fill="#458b74" stroke="#458b74" points="300.41,-787.51 310.55,-784.45 300.71,-780.52 300.41,-787.51"/>
<text text-anchor="middle" x="218.38" y="-784.05" font-family="Helvetica,sans-Serif" font-size="14.00" fill="#458b74">Weight</text>
</g>
<!-- RunAwaySensor -->
<g id="node25" class="node">
<title>RunAwaySensor</title>
<polygon fill="none" stroke="black" points="150.12,-869.1 33.62,-869.1 33.62,-833.1 150.12,-833.1 150.12,-869.1"/>
<text text-anchor="middle" x="91.88" y="-845.68" font-family="Helvetica,sans-Serif" font-size="14.00">RunAwaySensor</text>
</g>
<!-- AttackSensor -->
<g id="node26" class="node">
<title>AttackSensor</title>
<polygon fill="none" stroke="black" points="140,-934.1 43.75,-934.1 43.75,-898.1 140,-898.1 140,-934.1"/>
<text text-anchor="middle" x="91.88" y="-910.68" font-family="Helvetica,sans-Serif" font-size="14.00">AttackSensor</text>
</g>
<!-- AttackSensor_linked -->
<g id="node27" class="node">
<title>AttackSensor_linked</title>
<polygon fill="none" stroke="black" stroke-dasharray="1,5" points="477.6,-949.95 315.65,-949.95 315.65,-824.25 477.6,-824.25 477.6,-949.95"/>
<text text-anchor="start" x="321.25" y="-931.05" font-family="Helvetica,sans-Serif" font-size="14.00">3Slashes_ForBossFight &#160;</text>
<text text-anchor="start" x="363.62" y="-911.3" font-family="Helvetica,sans-Serif" font-size="14.00">Explosion &#160;</text>
<text text-anchor="start" x="359.12" y="-891.55" font-family="Helvetica,sans-Serif" font-size="14.00">DragPlayer &#160;</text>
<text text-anchor="start" x="359.12" y="-871.8" font-family="Helvetica,sans-Serif" font-size="14.00">DragPlayer &#160;</text>
<text text-anchor="start" x="321.25" y="-852.05" font-family="Helvetica,sans-Serif" font-size="14.00">3Slashes_ForBossFight &#160;</text>
<text text-anchor="start" x="340.38" y="-832.3" font-family="Helvetica,sans-Serif" font-size="14.00">SummonMonster &#160;</text>
</g>
<!-- AttackSensor&#45;&gt;AttackSensor_linked -->
<g id="edge21" class="edge">
<title>AttackSensor&#45;&gt;AttackSensor_linked</title>
<path fill="none" stroke="#66cdaa" d="M140.18,-911.57C183.89,-907.38 250.03,-901.05 304.05,-895.87"/>
<polygon fill="#66cdaa" stroke="#66cdaa" points="304.26,-899.37 313.88,-894.93 303.59,-892.4 304.26,-899.37"/>
<text text-anchor="middle" x="218.38" y="-909.17" font-family="Helvetica,sans-Serif" font-size="14.00" fill="#66cdaa">QueueEnd</text>
</g>
<!-- AttackSensor_mustuse -->
<g id="node28" class="node">
<title>AttackSensor_mustuse</title>
<polygon fill="none" stroke="black" stroke-dasharray="1,5" points="487.62,-1015.85 305.62,-1015.85 305.62,-968.35 487.62,-968.35 487.62,-1015.85"/>
<text text-anchor="start" x="353.5" y="-996.55" font-family="Helvetica,sans-Serif" font-size="14.00">1 DragPlayer &#160;</text>
<text text-anchor="start" x="315.62" y="-976.8" font-family="Helvetica,sans-Serif" font-size="14.00">1 3Slashes_ForBossFight &#160;</text>
</g>
<!-- AttackSensor&#45;&gt;AttackSensor_mustuse -->
<g id="edge22" class="edge">
<title>AttackSensor&#45;&gt;AttackSensor_mustuse</title>
<path fill="none" stroke="#458b74" d="M140.18,-927.98C181.32,-938.3 242.35,-953.62 294.44,-966.7"/>
<polygon fill="#458b74" stroke="#458b74" points="293.39,-970.04 303.94,-969.08 295.09,-963.25 293.39,-970.04"/>
<text text-anchor="middle" x="218.38" y="-956.55" font-family="Helvetica,sans-Serif" font-size="14.00" fill="#458b74">Weight</text>
</g>
<!-- TeleportSensor -->
<g id="node29" class="node">
<title>TeleportSensor</title>
<polygon fill="none" stroke="black" points="145.25,-1072.1 38.5,-1072.1 38.5,-1036.1 145.25,-1036.1 145.25,-1072.1"/>
<text text-anchor="middle" x="91.88" y="-1048.67" font-family="Helvetica,sans-Serif" font-size="14.00">TeleportSensor</text>
</g>
<!-- TeleportSensor_linked -->
<g id="node30" class="node">
<title>TeleportSensor_linked</title>
<polygon fill="none" stroke="black" stroke-dasharray="1,5" points="487.73,-1080.45 305.52,-1080.45 305.52,-1033.75 487.73,-1033.75 487.73,-1080.45"/>
<text text-anchor="start" x="311.12" y="-1061.55" font-family="Helvetica,sans-Serif" font-size="14.00">Ｗarp In Teleport (no sight) &#160;</text>
<text text-anchor="start" x="364.38" y="-1041.8" font-family="Helvetica,sans-Serif" font-size="14.00">Engaging &#160;</text>
</g>
<!-- TeleportSensor&#45;&gt;TeleportSensor_linked -->
<g id="edge23" class="edge">
<title>TeleportSensor&#45;&gt;TeleportSensor_linked</title>
<path fill="none" stroke="#66cdaa" d="M145.61,-1054.62C186.4,-1055.03 244.1,-1055.6 293.8,-1056.09"/>
<polygon fill="#66cdaa" stroke="#66cdaa" points="293.71,-1059.59 303.74,-1056.19 293.78,-1052.59 293.71,-1059.59"/>
<text text-anchor="middle" x="218.38" y="-1058.05" font-family="Helvetica,sans-Serif" font-size="14.00" fill="#66cdaa">QueueEnd</text>
</g>
<!-- AttackPredictSensor -->
<g id="node31" class="node">
<title>AttackPredictSensor</title>
<polygon fill="none" stroke="black" points="24,-1116.1 24,-1137.85 159.75,-1137.85 159.75,-1116.1 24,-1116.1"/>
<text text-anchor="start" x="27" y="-1121.55" font-family="Helvetica,sans-Serif" font-size="14.00">AttackPredictSensor &#160;</text>
<polygon fill="none" stroke="black" points="24,-1094.35 24,-1116.1 159.75,-1116.1 159.75,-1094.35 24,-1094.35"/>
<text text-anchor="start" x="27" y="-1100.8" font-family="Helvetica,sans-Serif" font-size="12.00" fill="#838b8b">if: attackCondition</text>
<text text-anchor="start" x="122.25" y="-1100.8" font-family="Helvetica,sans-Serif" font-size="14.00"> &#160;</text>
</g>
<!-- AttackPredictSensor_linked -->
<g id="node32" class="node">
<title>AttackPredictSensor_linked</title>
<polygon fill="none" stroke="black" stroke-dasharray="1,5" points="470.85,-1134.1 322.4,-1134.1 322.4,-1098.1 470.85,-1098.1 470.85,-1134.1"/>
<text text-anchor="start" x="328" y="-1110.67" font-family="Helvetica,sans-Serif" font-size="14.00"> AttackGrabInstantKill &#160;</text>
</g>
<!-- AttackPredictSensor&#45;&gt;AttackPredictSensor_linked -->
<g id="edge24" class="edge">
<title>AttackPredictSensor&#45;&gt;AttackPredictSensor_linked</title>
<path fill="none" stroke="#66cdaa" d="M167.71,-1116.1C210.96,-1116.1 265.53,-1116.1 310.42,-1116.1"/>
<polygon fill="#66cdaa" stroke="#66cdaa" points="310.4,-1119.6 320.4,-1116.1 310.4,-1112.6 310.4,-1119.6"/>
<text text-anchor="middle" x="218.38" y="-1118.55" font-family="Helvetica,sans-Serif" font-size="14.00" fill="#66cdaa">QueueEnd</text>
</g>
<!-- AttackRunToSensor -->
<g id="node33" class="node">
<title>AttackRunToSensor</title>
<polygon fill="none" stroke="black" points="25.5,-1186.1 25.5,-1207.85 158.25,-1207.85 158.25,-1186.1 25.5,-1186.1"/>
<text text-anchor="start" x="28.5" y="-1191.55" font-family="Helvetica,sans-Serif" font-size="14.00">AttackRunToSensor &#160;</text>
<polygon fill="none" stroke="black" points="25.5,-1164.35 25.5,-1186.1 158.25,-1186.1 158.25,-1164.35 25.5,-1164.35"/>
<text text-anchor="start" x="28.5" y="-1170.8" font-family="Helvetica,sans-Serif" font-size="12.00" fill="#838b8b">if: state is Engaging</text>
<text text-anchor="start" x="132.75" y="-1170.8" font-family="Helvetica,sans-Serif" font-size="14.00"> &#160;</text>
</g>
<!-- AttackRunToSensor_linked -->
<g id="node34" class="node">
<title>AttackRunToSensor_linked</title>
<polygon fill="none" stroke="black" stroke-dasharray="1,5" points="470.85,-1188.1 322.4,-1188.1 322.4,-1152.1 470.85,-1152.1 470.85,-1188.1"/>
<text text-anchor="start" x="328" y="-1164.67" font-family="Helvetica,sans-Serif" font-size="14.00"> AttackGrabInstantKill &#160;</text>
</g>
<!-- AttackRunToSensor&#45;&gt;AttackRunToSensor_linked -->
<g id="edge25" class="edge">
<title>AttackRunToSensor&#45;&gt;AttackRunToSensor_linked</title>
<path fill="none" stroke="#66cdaa" d="M166.16,-1182.23C209.72,-1179.92 265.16,-1177 310.63,-1174.59"/>
<polygon fill="#66cdaa" stroke="#66cdaa" points="310.65,-1178.1 320.45,-1174.07 310.28,-1171.11 310.65,-1178.1"/>
<text text-anchor="middle" x="218.38" y="-1183.37" font-family="Helvetica,sans-Serif" font-size="14.00" fill="#66cdaa">QueueEnd</text>
</g>
<!-- FarAttackSensor -->
<g id="node35" class="node">
<title>FarAttackSensor</title>
<polygon fill="none" stroke="black" points="150.12,-1321.1 33.62,-1321.1 33.62,-1285.1 150.12,-1285.1 150.12,-1321.1"/>
<text text-anchor="middle" x="91.88" y="-1297.67" font-family="Helvetica,sans-Serif" font-size="14.00">FarAttackSensor</text>
</g>
<!-- FarAttackSensor_linked -->
<g id="node36" class="node">
<title>FarAttackSensor_linked</title>
<polygon fill="none" stroke="black" stroke-dasharray="1,5" points="477.6,-1312.07 315.65,-1312.07 315.65,-1206.12 477.6,-1206.12 477.6,-1312.07"/>
<text text-anchor="start" x="321.25" y="-1293.17" font-family="Helvetica,sans-Serif" font-size="14.00">3Slashes_ForBossFight &#160;</text>
<text text-anchor="start" x="363.62" y="-1273.42" font-family="Helvetica,sans-Serif" font-size="14.00">Explosion &#160;</text>
<text text-anchor="start" x="359.12" y="-1253.67" font-family="Helvetica,sans-Serif" font-size="14.00">DragPlayer &#160;</text>
<text text-anchor="start" x="321.25" y="-1233.92" font-family="Helvetica,sans-Serif" font-size="14.00">3Slashes_ForBossFight &#160;</text>
<text text-anchor="start" x="321.25" y="-1214.17" font-family="Helvetica,sans-Serif" font-size="14.00">3Slashes_ForBossFight &#160;</text>
</g>
<!-- FarAttackSensor&#45;&gt;FarAttackSensor_linked -->
<g id="edge26" class="edge">
<title>FarAttackSensor&#45;&gt;FarAttackSensor_linked</title>
<path fill="none" stroke="#66cdaa" d="M150.53,-1294.72C193.92,-1288.42 254.23,-1279.65 304.17,-1272.39"/>
<polygon fill="#66cdaa" stroke="#66cdaa" points="304.42,-1275.89 313.82,-1270.99 303.42,-1268.96 304.42,-1275.89"/>
<text text-anchor="middle" x="218.38" y="-1291.32" font-family="Helvetica,sans-Serif" font-size="14.00" fill="#66cdaa">QueueEnd</text>
</g>
<!-- FarAttackSensor_mustuse -->
<g id="node37" class="node">
<title>FarAttackSensor_mustuse</title>
<polygon fill="none" stroke="black" stroke-dasharray="1,5" points="449.75,-1366.1 343.5,-1366.1 343.5,-1330.1 449.75,-1330.1 449.75,-1366.1"/>
<text text-anchor="start" x="353.5" y="-1342.67" font-family="Helvetica,sans-Serif" font-size="14.00">1 DragPlayer &#160;</text>
</g>
<!-- FarAttackSensor&#45;&gt;FarAttackSensor_mustuse -->
<g id="edge27" class="edge">
<title>FarAttackSensor&#45;&gt;FarAttackSensor_mustuse</title>
<path fill="none" stroke="#458b74" d="M150.53,-1311.67C202.43,-1319.38 278.55,-1330.7 332.16,-1338.67"/>
<polygon fill="#458b74" stroke="#458b74" points="331.34,-1342.08 341.74,-1340.09 332.37,-1335.16 331.34,-1342.08"/>
<text text-anchor="middle" x="218.38" y="-1328.05" font-family="Helvetica,sans-Serif" font-size="14.00" fill="#458b74">Weight</text>
</g>
</g>
</svg>
