<?xml version="1.0" encoding="UTF-8" standalone="no"?>
<!DOCTYPE svg PUBLIC "-//W3C//DTD SVG 1.1//EN"
 "http://www.w3.org/Graphics/SVG/1.1/DTD/svg11.dtd">
<!-- Generated by graphviz version 12.2.1 (20241206.2353)
 -->
<!-- Title: Foo Pages: 1 -->
<svg width="372pt" height="996pt"
 viewBox="0.00 0.00 372.25 995.88" xmlns="http://www.w3.org/2000/svg" xmlns:xlink="http://www.w3.org/1999/xlink">
<g id="graph0" class="graph" transform="scale(1 1) rotate(0) translate(4 991.88)">
<title>Foo</title>
<polygon fill="white" stroke="none" points="-4,4 -4,-991.88 368.25,-991.88 368.25,4 -4,4"/>
<g id="clust1" class="cluster">
<title>cluster_attacksensors</title>
<polygon fill="none" stroke="black" points="8,-585.88 8,-979.88 356.25,-979.88 356.25,-585.88 8,-585.88"/>
<text text-anchor="middle" x="182.12" y="-962.58" font-family="Helvetica,sans-Serif" font-size="14.00">Attack Sensors</text>
</g>
<!-- Danger -->
<g id="node1" class="node">
<title>Danger</title>
<polygon fill="none" stroke="black" points="54,-265.88 54,-287.62 132,-287.62 132,-265.88 54,-265.88"/>
<text text-anchor="start" x="67.12" y="-271.32" font-family="Helvetica,sans-Serif" font-size="14.00">Danger &#160;</text>
<polygon fill="none" stroke="black" points="54,-244.12 54,-265.88 132,-265.88 132,-244.12 54,-244.12"/>
<text text-anchor="start" x="57" y="-250.57" font-family="Helvetica,sans-Serif" font-size="12.00" fill="#838b8b">1.83s: Done</text>
<text text-anchor="start" x="121.5" y="-250.57" font-family="Helvetica,sans-Serif" font-size="14.00"> &#160;</text>
</g>
<!-- DeadState -->
<g id="node2" class="node">
<title>DeadState</title>
<polygon fill="none" stroke="black" points="338,-168.88 258.25,-168.88 258.25,-132.88 338,-132.88 338,-168.88"/>
<text text-anchor="middle" x="298.12" y="-145.45" font-family="Helvetica,sans-Serif" font-size="14.00">DeadState</text>
</g>
<!-- Danger&#45;&gt;DeadState -->
<g id="edge1" class="edge">
<title>Danger&#45;&gt;DeadState</title>
<path fill="none" stroke="#cdc8b1" d="M139.89,-245.91C149.93,-241.22 160.42,-236.07 170,-230.88 201.57,-213.76 235.97,-191.91 261.01,-175.37"/>
<polygon fill="#cdc8b1" stroke="#cdc8b1" points="262.81,-178.38 269.2,-169.92 258.93,-172.55 262.81,-178.38"/>
</g>
<!-- Top Tele Danger -->
<g id="node3" class="node">
<title>Top Tele Danger</title>
<polygon fill="none" stroke="black" points="36.75,-196 36.75,-217.75 149.25,-217.75 149.25,-196 36.75,-196"/>
<text text-anchor="start" x="40.12" y="-201.45" font-family="Helvetica,sans-Serif" font-size="14.00">Top Tele Danger &#160;</text>
<polygon fill="none" stroke="black" points="36.75,-164 36.75,-196 149.25,-196 149.25,-164 36.75,-164"/>
<text text-anchor="start" x="39.75" y="-182.6" font-family="Helvetica,sans-Serif" font-size="12.00" fill="#838b8b">0.83s: CheckFacing</text>
<text text-anchor="start" x="39.75" y="-168.7" font-family="Helvetica,sans-Serif" font-size="12.00" fill="#838b8b">1.83s: Done</text>
<text text-anchor="start" x="104.25" y="-168.7" font-family="Helvetica,sans-Serif" font-size="14.00"> &#160;</text>
</g>
<!-- Top Tele Danger&#45;&gt;DeadState -->
<g id="edge2" class="edge">
<title>Top Tele Danger&#45;&gt;DeadState</title>
<path fill="none" stroke="#cdc8b1" d="M157.16,-178.44C186,-172.76 219.68,-166.13 246.77,-160.79"/>
<polygon fill="#cdc8b1" stroke="#cdc8b1" points="247.33,-164.25 256.47,-158.88 245.98,-157.38 247.33,-164.25"/>
</g>
<!-- HurtState -->
<g id="node4" class="node">
<title>HurtState</title>
<polygon fill="none" stroke="black" points="54,-415.88 54,-437.62 132,-437.62 132,-415.88 54,-415.88"/>
<text text-anchor="start" x="60.75" y="-421.32" font-family="Helvetica,sans-Serif" font-size="14.00">HurtState &#160;</text>
<polygon fill="none" stroke="black" points="54,-394.12 54,-415.88 132,-415.88 132,-394.12 54,-394.12"/>
<text text-anchor="start" x="57" y="-400.57" font-family="Helvetica,sans-Serif" font-size="12.00" fill="#838b8b">0.18s: Done</text>
<text text-anchor="start" x="121.5" y="-400.57" font-family="Helvetica,sans-Serif" font-size="14.00"> &#160;</text>
</g>
<!-- PreAttack -->
<g id="node5" class="node">
<title>PreAttack</title>
<polygon fill="none" stroke="black" points="335.38,-395.88 260.88,-395.88 260.88,-359.88 335.38,-359.88 335.38,-395.88"/>
<text text-anchor="middle" x="298.12" y="-372.45" font-family="Helvetica,sans-Serif" font-size="14.00">PreAttack</text>
</g>
<!-- HurtState&#45;&gt;PreAttack -->
<g id="edge3" class="edge">
<title>HurtState&#45;&gt;PreAttack</title>
<path fill="none" stroke="#cdc8b1" d="M139.84,-407.3C172.5,-401.19 216.29,-393 249.37,-386.81"/>
<polygon fill="#cdc8b1" stroke="#cdc8b1" points="249.91,-390.27 259.1,-384.99 248.63,-383.39 249.91,-390.27"/>
</g>
<!-- Hurt_BigState -->
<g id="node6" class="node">
<title>Hurt_BigState</title>
<polygon fill="none" stroke="black" points="34.5,-346 34.5,-367.75 151.5,-367.75 151.5,-346 34.5,-346"/>
<text text-anchor="start" x="47.25" y="-351.45" font-family="Helvetica,sans-Serif" font-size="14.00">Hurt_BigState &#160;</text>
<polygon fill="none" stroke="black" points="34.5,-314 34.5,-346 151.5,-346 151.5,-314 34.5,-314"/>
<text text-anchor="start" x="37.5" y="-332.6" font-family="Helvetica,sans-Serif" font-size="12.00" fill="#838b8b">0.00s: EnableGravity</text>
<text text-anchor="start" x="37.5" y="-318.7" font-family="Helvetica,sans-Serif" font-size="12.00" fill="#838b8b">0.27s: Done</text>
<text text-anchor="start" x="102" y="-318.7" font-family="Helvetica,sans-Serif" font-size="14.00"> &#160;</text>
</g>
<!-- Hurt_BigState&#45;&gt;PreAttack -->
<g id="edge4" class="edge">
<title>Hurt_BigState&#45;&gt;PreAttack</title>
<path fill="none" stroke="#cdc8b1" d="M159.39,-352.79C188.72,-358.13 222.67,-364.31 249.53,-369.21"/>
<polygon fill="#cdc8b1" stroke="#cdc8b1" points="248.62,-372.6 259.08,-370.95 249.87,-365.71 248.62,-372.6"/>
</g>
<!-- LastHit -->
<g id="node7" class="node">
<title>LastHit</title>
<polygon fill="none" stroke="black" points="34.5,-116 34.5,-137.75 151.5,-137.75 151.5,-116 34.5,-116"/>
<text text-anchor="start" x="68.25" y="-121.45" font-family="Helvetica,sans-Serif" font-size="14.00">LastHit &#160;</text>
<polygon fill="none" stroke="black" points="34.5,-84 34.5,-116 151.5,-116 151.5,-84 34.5,-84"/>
<text text-anchor="start" x="37.5" y="-102.6" font-family="Helvetica,sans-Serif" font-size="12.00" fill="#838b8b">0.00s: EnableGravity</text>
<text text-anchor="start" x="37.5" y="-88.7" font-family="Helvetica,sans-Serif" font-size="12.00" fill="#838b8b">0.23s: Done</text>
<text text-anchor="start" x="102" y="-88.7" font-family="Helvetica,sans-Serif" font-size="14.00"> &#160;</text>
</g>
<!-- LastHit&#45;&gt;DeadState -->
<g id="edge5" class="edge">
<title>LastHit&#45;&gt;DeadState</title>
<path fill="none" stroke="#cdc8b1" d="M159.39,-123.75C187.68,-129.32 220.27,-135.74 246.65,-140.93"/>
<polygon fill="#cdc8b1" stroke="#cdc8b1" points="245.94,-144.36 256.43,-142.86 247.3,-137.5 245.94,-144.36"/>
</g>
<!-- PostureBreak -->
<g id="node8" class="node">
<title>PostureBreak</title>
<polygon fill="none" stroke="black" points="34.5,-36 34.5,-57.75 151.5,-57.75 151.5,-36 34.5,-36"/>
<text text-anchor="start" x="48.38" y="-41.45" font-family="Helvetica,sans-Serif" font-size="14.00">PostureBreak &#160;</text>
<polygon fill="none" stroke="black" points="34.5,-4 34.5,-36 151.5,-36 151.5,-4 34.5,-4"/>
<text text-anchor="start" x="37.5" y="-22.6" font-family="Helvetica,sans-Serif" font-size="12.00" fill="#838b8b">0.00s: EnableGravity</text>
<text text-anchor="start" x="37.5" y="-8.7" font-family="Helvetica,sans-Serif" font-size="12.00" fill="#838b8b">1.50s: Done</text>
<text text-anchor="start" x="102" y="-8.7" font-family="Helvetica,sans-Serif" font-size="14.00"> &#160;</text>
</g>
<!-- PostureBreak&#45;&gt;DeadState -->
<g id="edge6" class="edge">
<title>PostureBreak&#45;&gt;DeadState</title>
<path fill="none" stroke="#cdc8b1" d="M153.57,-61.66C159.16,-64.72 164.7,-67.82 170,-70.88 200.71,-88.59 234.66,-110.05 259.74,-126.28"/>
<polygon fill="#cdc8b1" stroke="#cdc8b1" points="257.67,-129.11 267.96,-131.62 261.48,-123.24 257.67,-129.11"/>
</g>
<!-- RollThrough -->
<g id="node9" class="node">
<title>RollThrough</title>
<polygon fill="none" stroke="black" points="33,-496 33,-517.75 153,-517.75 153,-496 33,-496"/>
<text text-anchor="start" x="52.5" y="-501.45" font-family="Helvetica,sans-Serif" font-size="14.00">RollThrough &#160;</text>
<polygon fill="none" stroke="black" points="33,-464 33,-496 153,-496 153,-464 33,-464"/>
<text text-anchor="start" x="36" y="-482.6" font-family="Helvetica,sans-Serif" font-size="12.00" fill="#838b8b">0.00s: ResetEvaluate</text>
<text text-anchor="start" x="36" y="-468.7" font-family="Helvetica,sans-Serif" font-size="12.00" fill="#838b8b">0.58s: Done</text>
<text text-anchor="start" x="100.5" y="-468.7" font-family="Helvetica,sans-Serif" font-size="14.00"> &#160;</text>
</g>
<!-- Engaging -->
<g id="node10" class="node">
<title>Engaging</title>
<polygon fill="none" stroke="black" points="334.62,-508.88 261.62,-508.88 261.62,-472.88 334.62,-472.88 334.62,-508.88"/>
<text text-anchor="middle" x="298.12" y="-485.45" font-family="Helvetica,sans-Serif" font-size="14.00">Engaging</text>
</g>
<!-- RollThrough&#45;&gt;Engaging -->
<g id="edge7" class="edge">
<title>RollThrough&#45;&gt;Engaging</title>
<path fill="none" stroke="#cdc8b1" d="M160.79,-490.88C190,-490.88 223.58,-490.88 250.1,-490.88"/>
<polygon fill="#cdc8b1" stroke="#cdc8b1" points="249.86,-494.38 259.86,-490.88 249.86,-487.38 249.86,-494.38"/>
</g>
<!-- Wandering_Idle -->
<g id="node11" class="node">
<title>Wandering_Idle</title>
<polygon fill="none" stroke="black" points="163.62,-575.88 22.38,-575.88 22.38,-539.88 163.62,-539.88 163.62,-575.88"/>
<text text-anchor="middle" x="93" y="-552.45" font-family="Helvetica,sans-Serif" font-size="14.00">Wandering_Idle (Init)</text>
</g>
<!-- Level Once Sensor -->
<g id="node12" class="node">
<title>Level Once Sensor</title>
<polygon fill="none" stroke="black" points="158.75,-629.88 27.25,-629.88 27.25,-593.88 158.75,-593.88 158.75,-629.88"/>
<text text-anchor="middle" x="93" y="-606.45" font-family="Helvetica,sans-Serif" font-size="14.00">Level Once Sensor</text>
</g>
<!-- RunAwaySensor -->
<g id="node13" class="node">
<title>RunAwaySensor</title>
<polygon fill="none" stroke="black" points="151.25,-683.88 34.75,-683.88 34.75,-647.88 151.25,-647.88 151.25,-683.88"/>
<text text-anchor="middle" x="93" y="-660.45" font-family="Helvetica,sans-Serif" font-size="14.00">RunAwaySensor</text>
</g>
<!-- AttackSensor -->
<g id="node14" class="node">
<title>AttackSensor</title>
<polygon fill="none" stroke="black" points="141.12,-737.88 44.88,-737.88 44.88,-701.88 141.12,-701.88 141.12,-737.88"/>
<text text-anchor="middle" x="93" y="-714.45" font-family="Helvetica,sans-Serif" font-size="14.00">AttackSensor</text>
</g>
<!-- DodgePredictSensor -->
<g id="node15" class="node">
<title>DodgePredictSensor</title>
<polygon fill="none" stroke="black" points="24,-781.88 24,-803.62 162,-803.62 162,-781.88 24,-781.88"/>
<text text-anchor="start" x="27" y="-787.33" font-family="Helvetica,sans-Serif" font-size="14.00">DodgePredictSensor &#160;</text>
<polygon fill="none" stroke="black" points="24,-760.12 24,-781.88 162,-781.88 162,-760.12 24,-760.12"/>
<text text-anchor="start" x="27" y="-766.58" font-family="Helvetica,sans-Serif" font-size="12.00" fill="#838b8b">if: Dodge</text>
<text text-anchor="start" x="75" y="-766.58" font-family="Helvetica,sans-Serif" font-size="14.00"> &#160;</text>
</g>
<!-- AttackPredictSensor -->
<g id="node16" class="node">
<title>AttackPredictSensor</title>
<polygon fill="none" stroke="black" points="25.12,-851.88 25.12,-873.62 160.88,-873.62 160.88,-851.88 25.12,-851.88"/>
<text text-anchor="start" x="28.12" y="-857.33" font-family="Helvetica,sans-Serif" font-size="14.00">AttackPredictSensor &#160;</text>
<polygon fill="none" stroke="black" points="25.12,-830.12 25.12,-851.88 160.88,-851.88 160.88,-830.12 25.12,-830.12"/>
<text text-anchor="start" x="28.12" y="-836.58" font-family="Helvetica,sans-Serif" font-size="12.00" fill="#838b8b">if: Attack</text>
<text text-anchor="start" x="73.12" y="-836.58" font-family="Helvetica,sans-Serif" font-size="14.00"> &#160;</text>
</g>
<!-- AttackPredictSensor_mustuse -->
<g id="node18" class="node">
<title>AttackPredictSensor_mustuse</title>
<polygon fill="none" stroke="black" stroke-dasharray="1,5" points="348.25,-885.5 248,-885.5 248,-818.25 348.25,-818.25 348.25,-885.5"/>
<text text-anchor="start" x="258" y="-866.2" font-family="Helvetica,sans-Serif" font-size="14.00">1 Undefined &#160;</text>
<text text-anchor="start" x="258" y="-846.45" font-family="Helvetica,sans-Serif" font-size="14.00">1 Undefined &#160;</text>
<text text-anchor="start" x="258" y="-826.7" font-family="Helvetica,sans-Serif" font-size="14.00">0 Undefined &#160;</text>
</g>
<!-- AttackPredictSensor&#45;&gt;AttackPredictSensor_mustuse -->
<g id="edge8" class="edge">
<title>AttackPredictSensor&#45;&gt;AttackPredictSensor_mustuse</title>
<path fill="none" stroke="#458b74" d="M168.77,-851.88C191.01,-851.88 215.09,-851.88 236.33,-851.88"/>
<polygon fill="#458b74" stroke="#458b74" points="236.29,-855.38 246.29,-851.88 236.29,-848.38 236.29,-855.38"/>
<text text-anchor="middle" x="209" y="-854.33" font-family="Helvetica,sans-Serif" font-size="14.00" fill="#458b74">Weight</text>
</g>
<!-- AttackRunToSensor -->
<g id="node17" class="node">
<title>AttackRunToSensor</title>
<polygon fill="none" stroke="black" points="26.62,-921.88 26.62,-943.62 159.38,-943.62 159.38,-921.88 26.62,-921.88"/>
<text text-anchor="start" x="29.62" y="-927.33" font-family="Helvetica,sans-Serif" font-size="14.00">AttackRunToSensor &#160;</text>
<polygon fill="none" stroke="black" points="26.62,-900.12 26.62,-921.88 159.38,-921.88 159.38,-900.12 26.62,-900.12"/>
<text text-anchor="start" x="29.62" y="-906.58" font-family="Helvetica,sans-Serif" font-size="12.00" fill="#838b8b">if: state is Engaging</text>
<text text-anchor="start" x="133.88" y="-906.58" font-family="Helvetica,sans-Serif" font-size="14.00"> &#160;</text>
</g>
</g>
</svg>
