<?xml version="1.0" encoding="UTF-8" standalone="no"?>
<!DOCTYPE svg PUBLIC "-//W3C//DTD SVG 1.1//EN"
 "http://www.w3.org/Graphics/SVG/1.1/DTD/svg11.dtd">
<!-- Generated by graphviz version 12.2.1 (20241206.2353)
 -->
<!-- Title: Foo Pages: 1 -->
<svg width="344pt" height="994pt"
 viewBox="0.00 0.00 344.38 994.00" xmlns="http://www.w3.org/2000/svg" xmlns:xlink="http://www.w3.org/1999/xlink">
<g id="graph0" class="graph" transform="scale(1 1) rotate(0) translate(4 990)">
<title>Foo</title>
<polygon fill="white" stroke="none" points="-4,4 -4,-990 340.38,-990 340.38,4 -4,4"/>
<g id="clust1" class="cluster">
<title>cluster_attacksensors</title>
<polygon fill="none" stroke="black" points="8,-8 8,-402 328.38,-402 328.38,-8 8,-8"/>
<text text-anchor="middle" x="168.19" y="-384.7" font-family="Helvetica,sans-Serif" font-size="14.00">Attack Sensors</text>
</g>
<!-- Level Once Sensor -->
<g id="node1" class="node">
<title>Level Once Sensor</title>
<polygon fill="none" stroke="black" points="28.5,-23.12 28.5,-44.88 157.5,-44.88 157.5,-23.12 28.5,-23.12"/>
<text text-anchor="start" x="31.5" y="-28.57" font-family="Helvetica,sans-Serif" font-size="14.00">Level Once Sensor &#160;</text>
</g>
<!-- RunAwaySensor -->
<g id="node2" class="node">
<title>RunAwaySensor</title>
<polygon fill="none" stroke="black" points="36,-77.12 36,-98.88 150,-98.88 150,-77.12 36,-77.12"/>
<text text-anchor="start" x="39" y="-82.58" font-family="Helvetica,sans-Serif" font-size="14.00">RunAwaySensor &#160;</text>
</g>
<!-- AttackSensor -->
<g id="node3" class="node">
<title>AttackSensor</title>
<polygon fill="none" stroke="black" points="46.12,-131.12 46.12,-152.88 139.88,-152.88 139.88,-131.12 46.12,-131.12"/>
<text text-anchor="start" x="49.12" y="-136.57" font-family="Helvetica,sans-Serif" font-size="14.00">AttackSensor &#160;</text>
</g>
<!-- DodgePredictSensor -->
<g id="node4" class="node">
<title>DodgePredictSensor</title>
<polygon fill="none" stroke="black" points="24,-204 24,-225.75 162,-225.75 162,-204 24,-204"/>
<text text-anchor="start" x="27" y="-209.45" font-family="Helvetica,sans-Serif" font-size="14.00">DodgePredictSensor &#160;</text>
<polygon fill="none" stroke="black" points="24,-182.25 24,-204 162,-204 162,-182.25 24,-182.25"/>
<text text-anchor="start" x="27" y="-188.7" font-family="Helvetica,sans-Serif" font-size="12.00" fill="#838b8b">if: rollingCondition</text>
<text text-anchor="start" x="123.75" y="-188.7" font-family="Helvetica,sans-Serif" font-size="14.00"> &#160;</text>
</g>
<!-- AttackPredictSensor -->
<g id="node5" class="node">
<title>AttackPredictSensor</title>
<polygon fill="none" stroke="black" points="25.12,-274 25.12,-295.75 160.88,-295.75 160.88,-274 25.12,-274"/>
<text text-anchor="start" x="28.12" y="-279.45" font-family="Helvetica,sans-Serif" font-size="14.00">AttackPredictSensor &#160;</text>
<polygon fill="none" stroke="black" points="25.12,-252.25 25.12,-274 160.88,-274 160.88,-252.25 25.12,-252.25"/>
<text text-anchor="start" x="28.12" y="-258.7" font-family="Helvetica,sans-Serif" font-size="12.00" fill="#838b8b">if: attackCondition</text>
<text text-anchor="start" x="123.38" y="-258.7" font-family="Helvetica,sans-Serif" font-size="14.00"> &#160;</text>
</g>
<!-- AttackPredictSensor_weight -->
<g id="node7" class="node">
<title>AttackPredictSensor_weight</title>
<polygon fill="none" stroke="black" stroke-dasharray="1,5" points="320.38,-307.62 255.38,-307.62 255.38,-240.38 320.38,-240.38 320.38,-307.62"/>
<text text-anchor="start" x="265.38" y="-288.32" font-family="Helvetica,sans-Serif" font-size="14.00">1 Skip &#160;</text>
<text text-anchor="start" x="265.38" y="-268.57" font-family="Helvetica,sans-Serif" font-size="14.00">1 Skip &#160;</text>
<text text-anchor="start" x="265.38" y="-248.82" font-family="Helvetica,sans-Serif" font-size="14.00">0 Skip &#160;</text>
</g>
<!-- AttackPredictSensor&#45;&gt;AttackPredictSensor_weight -->
<g id="edge1" class="edge">
<title>AttackPredictSensor&#45;&gt;AttackPredictSensor_weight</title>
<path fill="none" stroke="#458b74" d="M168.85,-274C194.16,-274 221.56,-274 243.59,-274"/>
<polygon fill="#458b74" stroke="#458b74" points="243.38,-277.5 253.38,-274 243.38,-270.5 243.38,-277.5"/>
<text text-anchor="middle" x="209" y="-276.45" font-family="Helvetica,sans-Serif" font-size="14.00" fill="#458b74">Weight</text>
</g>
<!-- AttackRunToSensor -->
<g id="node6" class="node">
<title>AttackRunToSensor</title>
<polygon fill="none" stroke="black" points="26.62,-344 26.62,-365.75 159.38,-365.75 159.38,-344 26.62,-344"/>
<text text-anchor="start" x="29.62" y="-349.45" font-family="Helvetica,sans-Serif" font-size="14.00">AttackRunToSensor &#160;</text>
<polygon fill="none" stroke="black" points="26.62,-322.25 26.62,-344 159.38,-344 159.38,-322.25 26.62,-322.25"/>
<text text-anchor="start" x="29.62" y="-328.7" font-family="Helvetica,sans-Serif" font-size="12.00" fill="#838b8b">if: state is Engaging</text>
<text text-anchor="start" x="133.88" y="-328.7" font-family="Helvetica,sans-Serif" font-size="14.00"> &#160;</text>
</g>
<!-- Danger -->
<g id="node8" class="node">
<title>Danger</title>
<polygon fill="none" stroke="black" points="54,-676 54,-697.75 132,-697.75 132,-676 54,-676"/>
<text text-anchor="start" x="67.12" y="-681.45" font-family="Helvetica,sans-Serif" font-size="14.00">Danger &#160;</text>
<polygon fill="none" stroke="black" points="54,-654.25 54,-676 132,-676 132,-654.25 54,-654.25"/>
<text text-anchor="start" x="57" y="-660.7" font-family="Helvetica,sans-Serif" font-size="12.00" fill="#838b8b">1.83s: Done</text>
<text text-anchor="start" x="121.5" y="-660.7" font-family="Helvetica,sans-Serif" font-size="14.00"> &#160;</text>
</g>
<!-- DeadState -->
<g id="node9" class="node">
<title>DeadState</title>
<polygon fill="none" stroke="black" points="327.75,-579 248,-579 248,-543 327.75,-543 327.75,-579"/>
<text text-anchor="middle" x="287.88" y="-555.58" font-family="Helvetica,sans-Serif" font-size="14.00">DeadState</text>
</g>
<!-- Danger&#45;&gt;DeadState -->
<g id="edge2" class="edge">
<title>Danger&#45;&gt;DeadState</title>
<path fill="none" stroke="#cdc8b1" d="M139.64,-656.5C149.8,-651.74 160.4,-646.45 170,-641 199.2,-624.44 230.48,-602.8 253.33,-586.2"/>
<polygon fill="#cdc8b1" stroke="#cdc8b1" points="255.36,-589.05 261.36,-580.32 251.22,-583.4 255.36,-589.05"/>
</g>
<!-- Top Tele Danger -->
<g id="node10" class="node">
<title>Top Tele Danger</title>
<polygon fill="none" stroke="black" points="36.75,-606.12 36.75,-627.88 149.25,-627.88 149.25,-606.12 36.75,-606.12"/>
<text text-anchor="start" x="40.12" y="-611.58" font-family="Helvetica,sans-Serif" font-size="14.00">Top Tele Danger &#160;</text>
<polygon fill="none" stroke="black" points="36.75,-574.12 36.75,-606.12 149.25,-606.12 149.25,-574.12 36.75,-574.12"/>
<text text-anchor="start" x="39.75" y="-592.73" font-family="Helvetica,sans-Serif" font-size="12.00" fill="#838b8b">0.83s: CheckFacing</text>
<text text-anchor="start" x="39.75" y="-578.83" font-family="Helvetica,sans-Serif" font-size="12.00" fill="#838b8b">1.83s: Done</text>
<text text-anchor="start" x="104.25" y="-578.83" font-family="Helvetica,sans-Serif" font-size="14.00"> &#160;</text>
</g>
<!-- Top Tele Danger&#45;&gt;DeadState -->
<g id="edge3" class="edge">
<title>Top Tele Danger&#45;&gt;DeadState</title>
<path fill="none" stroke="#cdc8b1" d="M157.15,-587.9C182.95,-582.55 212.37,-576.45 236.66,-571.41"/>
<polygon fill="#cdc8b1" stroke="#cdc8b1" points="237.22,-574.87 246.3,-569.41 235.8,-568.02 237.22,-574.87"/>
</g>
<!-- HurtState -->
<g id="node11" class="node">
<title>HurtState</title>
<polygon fill="none" stroke="black" points="54,-826 54,-847.75 132,-847.75 132,-826 54,-826"/>
<text text-anchor="start" x="60.75" y="-831.45" font-family="Helvetica,sans-Serif" font-size="14.00">HurtState &#160;</text>
<polygon fill="none" stroke="black" points="54,-804.25 54,-826 132,-826 132,-804.25 54,-804.25"/>
<text text-anchor="start" x="57" y="-810.7" font-family="Helvetica,sans-Serif" font-size="12.00" fill="#838b8b">0.18s: Done</text>
<text text-anchor="start" x="121.5" y="-810.7" font-family="Helvetica,sans-Serif" font-size="14.00"> &#160;</text>
</g>
<!-- PreAttack -->
<g id="node12" class="node">
<title>PreAttack</title>
<polygon fill="none" stroke="black" points="325.12,-806 250.62,-806 250.62,-770 325.12,-770 325.12,-806"/>
<text text-anchor="middle" x="287.88" y="-782.58" font-family="Helvetica,sans-Serif" font-size="14.00">PreAttack</text>
</g>
<!-- HurtState&#45;&gt;PreAttack -->
<g id="edge4" class="edge">
<title>HurtState&#45;&gt;PreAttack</title>
<path fill="none" stroke="#cdc8b1" d="M139.71,-816.99C169.64,-811.1 208.68,-803.41 239.03,-797.43"/>
<polygon fill="#cdc8b1" stroke="#cdc8b1" points="239.58,-800.89 248.72,-795.52 238.23,-794.02 239.58,-800.89"/>
</g>
<!-- Hurt_BigState -->
<g id="node13" class="node">
<title>Hurt_BigState</title>
<polygon fill="none" stroke="black" points="34.5,-756.12 34.5,-777.88 151.5,-777.88 151.5,-756.12 34.5,-756.12"/>
<text text-anchor="start" x="47.25" y="-761.58" font-family="Helvetica,sans-Serif" font-size="14.00">Hurt_BigState &#160;</text>
<polygon fill="none" stroke="black" points="34.5,-724.12 34.5,-756.12 151.5,-756.12 151.5,-724.12 34.5,-724.12"/>
<text text-anchor="start" x="37.5" y="-742.73" font-family="Helvetica,sans-Serif" font-size="12.00" fill="#838b8b">0.00s: EnableGravity</text>
<text text-anchor="start" x="37.5" y="-728.83" font-family="Helvetica,sans-Serif" font-size="12.00" fill="#838b8b">0.27s: Done</text>
<text text-anchor="start" x="102" y="-728.83" font-family="Helvetica,sans-Serif" font-size="14.00"> &#160;</text>
</g>
<!-- Hurt_BigState&#45;&gt;PreAttack -->
<g id="edge5" class="edge">
<title>Hurt_BigState&#45;&gt;PreAttack</title>
<path fill="none" stroke="#cdc8b1" d="M159.3,-763.53C185.53,-768.56 215.2,-774.25 239.32,-778.88"/>
<polygon fill="#cdc8b1" stroke="#cdc8b1" points="238.36,-782.26 248.84,-780.7 239.68,-775.38 238.36,-782.26"/>
</g>
<!-- LastHit -->
<g id="node14" class="node">
<title>LastHit</title>
<polygon fill="none" stroke="black" points="34.5,-526.12 34.5,-547.88 151.5,-547.88 151.5,-526.12 34.5,-526.12"/>
<text text-anchor="start" x="68.25" y="-531.58" font-family="Helvetica,sans-Serif" font-size="14.00">LastHit &#160;</text>
<polygon fill="none" stroke="black" points="34.5,-494.12 34.5,-526.12 151.5,-526.12 151.5,-494.12 34.5,-494.12"/>
<text text-anchor="start" x="37.5" y="-512.73" font-family="Helvetica,sans-Serif" font-size="12.00" fill="#838b8b">0.00s: EnableGravity</text>
<text text-anchor="start" x="37.5" y="-498.83" font-family="Helvetica,sans-Serif" font-size="12.00" fill="#838b8b">0.23s: Done</text>
<text text-anchor="start" x="102" y="-498.83" font-family="Helvetica,sans-Serif" font-size="14.00"> &#160;</text>
</g>
<!-- LastHit&#45;&gt;DeadState -->
<g id="edge6" class="edge">
<title>LastHit&#45;&gt;DeadState</title>
<path fill="none" stroke="#cdc8b1" d="M159.3,-534.54C184.47,-539.76 212.81,-545.64 236.37,-550.53"/>
<polygon fill="#cdc8b1" stroke="#cdc8b1" points="235.54,-553.93 246.04,-552.53 236.96,-547.07 235.54,-553.93"/>
</g>
<!-- PostureBreak -->
<g id="node15" class="node">
<title>PostureBreak</title>
<polygon fill="none" stroke="black" points="34.5,-446.12 34.5,-467.88 151.5,-467.88 151.5,-446.12 34.5,-446.12"/>
<text text-anchor="start" x="48.38" y="-451.57" font-family="Helvetica,sans-Serif" font-size="14.00">PostureBreak &#160;</text>
<polygon fill="none" stroke="black" points="34.5,-414.12 34.5,-446.12 151.5,-446.12 151.5,-414.12 34.5,-414.12"/>
<text text-anchor="start" x="37.5" y="-432.73" font-family="Helvetica,sans-Serif" font-size="12.00" fill="#838b8b">0.00s: EnableGravity</text>
<text text-anchor="start" x="37.5" y="-418.83" font-family="Helvetica,sans-Serif" font-size="12.00" fill="#838b8b">1.50s: Done</text>
<text text-anchor="start" x="102" y="-418.83" font-family="Helvetica,sans-Serif" font-size="14.00"> &#160;</text>
</g>
<!-- PostureBreak&#45;&gt;DeadState -->
<g id="edge7" class="edge">
<title>PostureBreak&#45;&gt;DeadState</title>
<path fill="none" stroke="#cdc8b1" d="M154.1,-471.8C159.52,-474.83 164.89,-477.92 170,-481 198.56,-498.21 229.67,-519.64 252.6,-535.99"/>
<polygon fill="#cdc8b1" stroke="#cdc8b1" points="250.5,-538.79 260.67,-541.77 254.58,-533.1 250.5,-538.79"/>
</g>
<!-- RollThrough -->
<g id="node16" class="node">
<title>RollThrough</title>
<polygon fill="none" stroke="black" points="33,-906.12 33,-927.88 153,-927.88 153,-906.12 33,-906.12"/>
<text text-anchor="start" x="52.5" y="-911.58" font-family="Helvetica,sans-Serif" font-size="14.00">RollThrough &#160;</text>
<polygon fill="none" stroke="black" points="33,-874.12 33,-906.12 153,-906.12 153,-874.12 33,-874.12"/>
<text text-anchor="start" x="36" y="-892.73" font-family="Helvetica,sans-Serif" font-size="12.00" fill="#838b8b">0.00s: ResetEvaluate</text>
<text text-anchor="start" x="36" y="-878.83" font-family="Helvetica,sans-Serif" font-size="12.00" fill="#838b8b">0.58s: Done</text>
<text text-anchor="start" x="100.5" y="-878.83" font-family="Helvetica,sans-Serif" font-size="14.00"> &#160;</text>
</g>
<!-- Engaging -->
<g id="node17" class="node">
<title>Engaging</title>
<polygon fill="none" stroke="black" points="324.38,-919 251.38,-919 251.38,-883 324.38,-883 324.38,-919"/>
<text text-anchor="middle" x="287.88" y="-895.58" font-family="Helvetica,sans-Serif" font-size="14.00">Engaging</text>
</g>
<!-- RollThrough&#45;&gt;Engaging -->
<g id="edge8" class="edge">
<title>RollThrough&#45;&gt;Engaging</title>
<path fill="none" stroke="#cdc8b1" d="M160.92,-901C186.79,-901 215.81,-901 239.46,-901"/>
<polygon fill="#cdc8b1" stroke="#cdc8b1" points="239.43,-904.5 249.43,-901 239.43,-897.5 239.43,-904.5"/>
</g>
<!-- Wandering_Idle -->
<g id="node18" class="node">
<title>Wandering_Idle</title>
<polygon fill="none" stroke="black" points="163.62,-986 22.38,-986 22.38,-950 163.62,-950 163.62,-986"/>
<text text-anchor="middle" x="93" y="-962.58" font-family="Helvetica,sans-Serif" font-size="14.00">Wandering_Idle (Init)</text>
</g>
</g>
</svg>
