<?xml version="1.0" encoding="UTF-8" standalone="no"?>
<!DOCTYPE svg PUBLIC "-//W3C//DTD SVG 1.1//EN"
 "http://www.w3.org/Graphics/SVG/1.1/DTD/svg11.dtd">
<!-- Generated by graphviz version 12.2.1 (20241206.2353)
 -->
<!-- Title: Foo Pages: 1 -->
<svg width="456pt" height="996pt"
 viewBox="0.00 0.00 456.45 996.00" xmlns="http://www.w3.org/2000/svg" xmlns:xlink="http://www.w3.org/1999/xlink">
<g id="graph0" class="graph" transform="scale(1 1) rotate(0) translate(4 992)">
<title>Foo</title>
<polygon fill="white" stroke="none" points="-4,4 -4,-992 452.45,-992 452.45,4 -4,4"/>
<g id="clust1" class="cluster">
<title>cluster_attacksensors</title>
<polygon fill="none" stroke="black" points="8,-8 8,-472 440.45,-472 440.45,-8 8,-8"/>
<text text-anchor="middle" x="224.22" y="-454.7" font-family="Helvetica,sans-Serif" font-size="14.00">Attack Sensors</text>
</g>
<!-- Level Once Sensor -->
<g id="node1" class="node">
<title>Level Once Sensor</title>
<polygon fill="none" stroke="black" points="70.88,-23.12 70.88,-44.88 199.88,-44.88 199.88,-23.12 70.88,-23.12"/>
<text text-anchor="start" x="73.88" y="-28.57" font-family="Helvetica,sans-Serif" font-size="14.00">Level Once Sensor &#160;</text>
</g>
<!-- Level Once Sensor_linked -->
<g id="node2" class="node">
<title>Level Once Sensor_linked</title>
<polygon fill="none" stroke="black" stroke-dasharray="1,5" points="422.32,-52 366.12,-52 366.12,-16 422.32,-16 422.32,-52"/>
<text text-anchor="start" x="371.72" y="-28.57" font-family="Helvetica,sans-Serif" font-size="14.00">Attack &#160;</text>
</g>
<!-- Level Once Sensor&#45;&gt;Level Once Sensor_linked -->
<g id="edge1" class="edge">
<title>Level Once Sensor&#45;&gt;Level Once Sensor_linked</title>
<path fill="none" stroke="#66cdaa" d="M207.58,-34C255.08,-34 315.69,-34 354.49,-34"/>
<polygon fill="#66cdaa" stroke="#66cdaa" points="354.28,-37.5 364.28,-34 354.28,-30.5 354.28,-37.5"/>
<text text-anchor="middle" x="305.38" y="-36.45" font-family="Helvetica,sans-Serif" font-size="14.00" fill="#66cdaa">QueueEnd</text>
</g>
<!-- Level Once Sensor_weight -->
<g id="node3" class="node">
<title>Level Once Sensor_weight</title>
<polygon fill="none" stroke="black" stroke-dasharray="1,5" points="431.97,-106 356.47,-106 356.47,-70 431.97,-70 431.97,-106"/>
<text text-anchor="start" x="366.47" y="-82.58" font-family="Helvetica,sans-Serif" font-size="14.00">1 Attack &#160;</text>
</g>
<!-- Level Once Sensor&#45;&gt;Level Once Sensor_weight -->
<g id="edge2" class="edge">
<title>Level Once Sensor&#45;&gt;Level Once Sensor_weight</title>
<path fill="none" stroke="#458b74" d="M207.58,-48.97C251.5,-58.2 306.63,-69.79 345.37,-77.94"/>
<polygon fill="#458b74" stroke="#458b74" points="344.34,-81.3 354.85,-79.93 345.78,-74.45 344.34,-81.3"/>
<text text-anchor="middle" x="305.38" y="-78.79" font-family="Helvetica,sans-Serif" font-size="14.00" fill="#458b74">Weight</text>
</g>
<!-- RunAwaySensor -->
<g id="node4" class="node">
<title>RunAwaySensor</title>
<polygon fill="none" stroke="black" points="24,-96 24,-117.75 246.75,-117.75 246.75,-96 24,-96"/>
<text text-anchor="start" x="81.38" y="-101.45" font-family="Helvetica,sans-Serif" font-size="14.00">RunAwaySensor &#160;</text>
<polygon fill="none" stroke="black" points="24,-74.25 24,-96 246.75,-96 246.75,-74.25 24,-74.25"/>
<text text-anchor="start" x="27" y="-80.7" font-family="Helvetica,sans-Serif" font-size="12.00" fill="#838b8b">if not: [Condition] Not HitWall or On Cliff</text>
<text text-anchor="start" x="236.25" y="-80.7" font-family="Helvetica,sans-Serif" font-size="14.00"> &#160;</text>
</g>
<!-- RunAwaySensor_linked -->
<g id="node5" class="node">
<title>RunAwaySensor_linked</title>
<polygon fill="none" stroke="black" stroke-dasharray="1,5" points="432.45,-160 356,-160 356,-124 432.45,-124 432.45,-160"/>
<text text-anchor="start" x="361.6" y="-136.57" font-family="Helvetica,sans-Serif" font-size="14.00">RunAway &#160;</text>
</g>
<!-- RunAwaySensor&#45;&gt;RunAwaySensor_linked -->
<g id="edge3" class="edge">
<title>RunAwaySensor&#45;&gt;RunAwaySensor_linked</title>
<path fill="none" stroke="#66cdaa" d="M254.65,-117.18C286.39,-122.87 318.96,-128.7 344.55,-133.28"/>
<polygon fill="#66cdaa" stroke="#66cdaa" points="343.83,-136.71 354.29,-135.03 345.07,-129.82 343.83,-136.71"/>
<text text-anchor="middle" x="305.38" y="-134.51" font-family="Helvetica,sans-Serif" font-size="14.00" fill="#66cdaa">QueueEnd</text>
</g>
<!-- AttackSensor -->
<g id="node6" class="node">
<title>AttackSensor</title>
<polygon fill="none" stroke="black" points="88.5,-147.12 88.5,-168.88 182.25,-168.88 182.25,-147.12 88.5,-147.12"/>
<text text-anchor="start" x="91.5" y="-152.57" font-family="Helvetica,sans-Serif" font-size="14.00">AttackSensor &#160;</text>
</g>
<!-- AttackSensor_linked -->
<g id="node7" class="node">
<title>AttackSensor_linked</title>
<polygon fill="none" stroke="black" stroke-dasharray="1,5" points="422.32,-214 366.12,-214 366.12,-178 422.32,-178 422.32,-214"/>
<text text-anchor="start" x="371.72" y="-190.57" font-family="Helvetica,sans-Serif" font-size="14.00">Attack &#160;</text>
</g>
<!-- AttackSensor&#45;&gt;AttackSensor_linked -->
<g id="edge4" class="edge">
<title>AttackSensor&#45;&gt;AttackSensor_linked</title>
<path fill="none" stroke="#66cdaa" d="M190.22,-165.97C239.4,-173.24 310.92,-183.82 354.63,-190.29"/>
<polygon fill="#66cdaa" stroke="#66cdaa" points="354.01,-193.74 364.41,-191.74 355.03,-186.81 354.01,-193.74"/>
<text text-anchor="middle" x="305.38" y="-190.24" font-family="Helvetica,sans-Serif" font-size="14.00" fill="#66cdaa">QueueEnd</text>
</g>
<!-- DodgePredictSensor -->
<g id="node8" class="node">
<title>DodgePredictSensor</title>
<polygon fill="none" stroke="black" points="66.38,-220 66.38,-241.75 204.38,-241.75 204.38,-220 66.38,-220"/>
<text text-anchor="start" x="69.38" y="-225.45" font-family="Helvetica,sans-Serif" font-size="14.00">DodgePredictSensor &#160;</text>
<polygon fill="none" stroke="black" points="66.38,-198.25 66.38,-220 204.38,-220 204.38,-198.25 66.38,-198.25"/>
<text text-anchor="start" x="69.38" y="-204.7" font-family="Helvetica,sans-Serif" font-size="12.00" fill="#838b8b">if: rollingCondition</text>
<text text-anchor="start" x="166.12" y="-204.7" font-family="Helvetica,sans-Serif" font-size="14.00"> &#160;</text>
</g>
<!-- DodgePredictSensor_linked -->
<g id="node9" class="node">
<title>DodgePredictSensor_linked</title>
<polygon fill="none" stroke="black" stroke-dasharray="1,5" points="422.32,-268 366.12,-268 366.12,-232 422.32,-232 422.32,-268"/>
<text text-anchor="start" x="371.72" y="-244.57" font-family="Helvetica,sans-Serif" font-size="14.00">Attack &#160;</text>
</g>
<!-- DodgePredictSensor&#45;&gt;DodgePredictSensor_linked -->
<g id="edge5" class="edge">
<title>DodgePredictSensor&#45;&gt;DodgePredictSensor_linked</title>
<path fill="none" stroke="#66cdaa" d="M212.05,-228.84C258.99,-234.32 317.3,-241.13 354.88,-245.52"/>
<polygon fill="#66cdaa" stroke="#66cdaa" points="354,-248.94 364.34,-246.63 354.81,-241.99 354,-248.94"/>
<text text-anchor="middle" x="305.38" y="-245.97" font-family="Helvetica,sans-Serif" font-size="14.00" fill="#66cdaa">QueueEnd</text>
</g>
<!-- AttackPredictSensor -->
<g id="node10" class="node">
<title>AttackPredictSensor</title>
<polygon fill="none" stroke="black" points="67.5,-290 67.5,-311.75 203.25,-311.75 203.25,-290 67.5,-290"/>
<text text-anchor="start" x="70.5" y="-295.45" font-family="Helvetica,sans-Serif" font-size="14.00">AttackPredictSensor &#160;</text>
<polygon fill="none" stroke="black" points="67.5,-268.25 67.5,-290 203.25,-290 203.25,-268.25 67.5,-268.25"/>
<text text-anchor="start" x="70.5" y="-274.7" font-family="Helvetica,sans-Serif" font-size="12.00" fill="#838b8b">if: attackCondition</text>
<text text-anchor="start" x="165.75" y="-274.7" font-family="Helvetica,sans-Serif" font-size="14.00"> &#160;</text>
</g>
<!-- AttackPredictSensor_linked -->
<g id="node11" class="node">
<title>AttackPredictSensor_linked</title>
<polygon fill="none" stroke="black" stroke-dasharray="1,5" points="422.32,-322 366.12,-322 366.12,-286 422.32,-286 422.32,-322"/>
<text text-anchor="start" x="371.72" y="-298.57" font-family="Helvetica,sans-Serif" font-size="14.00">Attack &#160;</text>
</g>
<!-- AttackPredictSensor&#45;&gt;AttackPredictSensor_linked -->
<g id="edge6" class="edge">
<title>AttackPredictSensor&#45;&gt;AttackPredictSensor_linked</title>
<path fill="none" stroke="#66cdaa" d="M211.01,-294.07C258.13,-296.64 317.03,-299.85 354.89,-301.91"/>
<polygon fill="#66cdaa" stroke="#66cdaa" points="354.24,-305.38 364.41,-302.43 354.62,-298.39 354.24,-305.38"/>
<text text-anchor="middle" x="305.38" y="-303.43" font-family="Helvetica,sans-Serif" font-size="14.00" fill="#66cdaa">QueueEnd</text>
</g>
<!-- AttackRunToSensor -->
<g id="node12" class="node">
<title>AttackRunToSensor</title>
<polygon fill="none" stroke="black" points="69,-360 69,-381.75 201.75,-381.75 201.75,-360 69,-360"/>
<text text-anchor="start" x="72" y="-365.45" font-family="Helvetica,sans-Serif" font-size="14.00">AttackRunToSensor &#160;</text>
<polygon fill="none" stroke="black" points="69,-338.25 69,-360 201.75,-360 201.75,-338.25 69,-338.25"/>
<text text-anchor="start" x="72" y="-344.7" font-family="Helvetica,sans-Serif" font-size="12.00" fill="#838b8b">if: state is Engaging</text>
<text text-anchor="start" x="176.25" y="-344.7" font-family="Helvetica,sans-Serif" font-size="14.00"> &#160;</text>
</g>
<!-- AttackRunToSensor_linked -->
<g id="node13" class="node">
<title>AttackRunToSensor_linked</title>
<polygon fill="none" stroke="black" stroke-dasharray="1,5" points="422.32,-378 366.12,-378 366.12,-342 422.32,-342 422.32,-378"/>
<text text-anchor="start" x="371.72" y="-354.57" font-family="Helvetica,sans-Serif" font-size="14.00">Attack &#160;</text>
</g>
<!-- AttackRunToSensor&#45;&gt;AttackRunToSensor_linked -->
<g id="edge7" class="edge">
<title>AttackRunToSensor&#45;&gt;AttackRunToSensor_linked</title>
<path fill="none" stroke="#66cdaa" d="M209.63,-360C256.93,-360 316.56,-360 354.79,-360"/>
<polygon fill="#66cdaa" stroke="#66cdaa" points="354.42,-363.5 364.42,-360 354.42,-356.5 354.42,-363.5"/>
<text text-anchor="middle" x="305.38" y="-362.45" font-family="Helvetica,sans-Serif" font-size="14.00" fill="#66cdaa">QueueEnd</text>
</g>
<!-- ShootSensor -->
<g id="node14" class="node">
<title>ShootSensor</title>
<polygon fill="none" stroke="black" points="89.62,-411.12 89.62,-432.88 181.12,-432.88 181.12,-411.12 89.62,-411.12"/>
<text text-anchor="start" x="92.62" y="-416.57" font-family="Helvetica,sans-Serif" font-size="14.00">ShootSensor &#160;</text>
</g>
<!-- ShootSensor_linked -->
<g id="node15" class="node">
<title>ShootSensor_linked</title>
<polygon fill="none" stroke="black" stroke-dasharray="1,5" points="421.22,-440 367.22,-440 367.22,-404 421.22,-404 421.22,-440"/>
<text text-anchor="start" x="372.85" y="-416.57" font-family="Helvetica,sans-Serif" font-size="14.00">Shoot &#160;</text>
</g>
<!-- ShootSensor&#45;&gt;ShootSensor_linked -->
<g id="edge8" class="edge">
<title>ShootSensor&#45;&gt;ShootSensor_linked</title>
<path fill="none" stroke="#66cdaa" d="M188.97,-422C238.58,-422 311.71,-422 355.68,-422"/>
<polygon fill="#66cdaa" stroke="#66cdaa" points="355.49,-425.5 365.49,-422 355.49,-418.5 355.49,-425.5"/>
<text text-anchor="middle" x="305.38" y="-424.45" font-family="Helvetica,sans-Serif" font-size="14.00" fill="#66cdaa">QueueEnd</text>
</g>
<!-- Attack -->
<g id="node16" class="node">
<title>Attack</title>
<polygon fill="none" stroke="black" points="96.38,-838 96.38,-859.75 174.38,-859.75 174.38,-838 96.38,-838"/>
<text text-anchor="start" x="112.88" y="-843.45" font-family="Helvetica,sans-Serif" font-size="14.00">Attack &#160;</text>
<polygon fill="none" stroke="black" points="96.38,-816.25 96.38,-838 174.38,-838 174.38,-816.25 96.38,-816.25"/>
<text text-anchor="start" x="99.38" y="-822.7" font-family="Helvetica,sans-Serif" font-size="12.00" fill="#838b8b">1.17s: Done</text>
<text text-anchor="start" x="163.88" y="-822.7" font-family="Helvetica,sans-Serif" font-size="14.00"> &#160;</text>
</g>
<!-- PreAttack -->
<g id="node17" class="node">
<title>PreAttack</title>
<polygon fill="none" stroke="black" points="431.47,-689 356.97,-689 356.97,-653 431.47,-653 431.47,-689"/>
<text text-anchor="middle" x="394.22" y="-665.58" font-family="Helvetica,sans-Serif" font-size="14.00">PreAttack</text>
</g>
<!-- Attack&#45;&gt;PreAttack -->
<g id="edge9" class="edge">
<title>Attack&#45;&gt;PreAttack</title>
<path fill="none" stroke="#cdc8b1" d="M182.26,-829.76C205.09,-824.37 232.49,-815.88 254.75,-803 302.69,-775.27 346.93,-727.66 371.95,-697.83"/>
<polygon fill="#cdc8b1" stroke="#cdc8b1" points="374.45,-700.3 378.12,-690.36 369.05,-695.84 374.45,-700.3"/>
</g>
<!-- Shoot -->
<g id="node18" class="node">
<title>Shoot</title>
<polygon fill="none" stroke="black" points="79.12,-768.12 79.12,-789.88 191.62,-789.88 191.62,-768.12 79.12,-768.12"/>
<text text-anchor="start" x="114" y="-773.58" font-family="Helvetica,sans-Serif" font-size="14.00">Shoot &#160;</text>
<polygon fill="none" stroke="black" points="79.12,-724.12 79.12,-768.12 191.62,-768.12 191.62,-724.12 79.12,-724.12"/>
<text text-anchor="start" x="82.12" y="-754.73" font-family="Helvetica,sans-Serif" font-size="12.00" fill="#838b8b">0.00s: CheckFacing</text>
<text text-anchor="start" x="82.12" y="-742.73" font-family="Helvetica,sans-Serif" font-size="12.00" fill="#838b8b">0.58s: Shoot</text>
<text text-anchor="start" x="82.12" y="-728.83" font-family="Helvetica,sans-Serif" font-size="12.00" fill="#838b8b">2.00s: Done</text>
<text text-anchor="start" x="146.62" y="-728.83" font-family="Helvetica,sans-Serif" font-size="14.00"> &#160;</text>
</g>
<!-- Shoot&#45;&gt;PreAttack -->
<g id="edge10" class="edge">
<title>Shoot&#45;&gt;PreAttack</title>
<path fill="none" stroke="#cdc8b1" d="M199.54,-735.85C244.71,-720.73 304.55,-700.69 345.7,-686.91"/>
<polygon fill="#cdc8b1" stroke="#cdc8b1" points="346.72,-690.26 355.09,-683.77 344.5,-683.62 346.72,-690.26"/>
</g>
<!-- AttackParrying -->
<g id="node19" class="node">
<title>AttackParrying</title>
<polygon fill="none" stroke="black" points="84.75,-908 84.75,-929.75 186,-929.75 186,-908 84.75,-908"/>
<text text-anchor="start" x="87.75" y="-913.45" font-family="Helvetica,sans-Serif" font-size="14.00">AttackParrying &#160;</text>
<polygon fill="none" stroke="black" points="84.75,-886.25 84.75,-908 186,-908 186,-886.25 84.75,-886.25"/>
<text text-anchor="start" x="87.75" y="-892.7" font-family="Helvetica,sans-Serif" font-size="12.00" fill="#838b8b">0.67s: Done</text>
<text text-anchor="start" x="152.25" y="-892.7" font-family="Helvetica,sans-Serif" font-size="14.00"> &#160;</text>
</g>
<!-- Engaging -->
<g id="node20" class="node">
<title>Engaging</title>
<polygon fill="none" stroke="black" points="430.72,-926 357.72,-926 357.72,-890 430.72,-890 430.72,-926"/>
<text text-anchor="middle" x="394.22" y="-902.58" font-family="Helvetica,sans-Serif" font-size="14.00">Engaging</text>
</g>
<!-- AttackParrying&#45;&gt;Engaging -->
<g id="edge11" class="edge">
<title>AttackParrying&#45;&gt;Engaging</title>
<path fill="none" stroke="#cdc8b1" d="M193.7,-908C239.61,-908 303.23,-908 346.18,-908"/>
<polygon fill="#cdc8b1" stroke="#cdc8b1" points="345.93,-911.5 355.93,-908 345.93,-904.5 345.93,-911.5"/>
</g>
<!-- HurtState -->
<g id="node21" class="node">
<title>HurtState</title>
<polygon fill="none" stroke="black" points="76.88,-676.12 76.88,-697.88 193.88,-697.88 193.88,-676.12 76.88,-676.12"/>
<text text-anchor="start" x="103.12" y="-681.58" font-family="Helvetica,sans-Serif" font-size="14.00">HurtState &#160;</text>
<polygon fill="none" stroke="black" points="76.88,-644.12 76.88,-676.12 193.88,-676.12 193.88,-644.12 76.88,-644.12"/>
<text text-anchor="start" x="79.88" y="-662.73" font-family="Helvetica,sans-Serif" font-size="12.00" fill="#838b8b">0.00s: EnableGravity</text>
<text text-anchor="start" x="79.88" y="-648.83" font-family="Helvetica,sans-Serif" font-size="12.00" fill="#838b8b">0.17s: Done</text>
<text text-anchor="start" x="144.38" y="-648.83" font-family="Helvetica,sans-Serif" font-size="14.00"> &#160;</text>
</g>
<!-- HurtState&#45;&gt;PreAttack -->
<g id="edge12" class="edge">
<title>HurtState&#45;&gt;PreAttack</title>
<path fill="none" stroke="#cdc8b1" d="M201.85,-671C246.63,-671 304.97,-671 345.41,-671"/>
<polygon fill="#cdc8b1" stroke="#cdc8b1" points="345.32,-674.5 355.32,-671 345.32,-667.5 345.32,-674.5"/>
</g>
<!-- Hurt_BigState -->
<g id="node22" class="node">
<title>Hurt_BigState</title>
<polygon fill="none" stroke="black" points="76.88,-596.12 76.88,-617.88 193.88,-617.88 193.88,-596.12 76.88,-596.12"/>
<text text-anchor="start" x="89.62" y="-601.58" font-family="Helvetica,sans-Serif" font-size="14.00">Hurt_BigState &#160;</text>
<polygon fill="none" stroke="black" points="76.88,-564.12 76.88,-596.12 193.88,-596.12 193.88,-564.12 76.88,-564.12"/>
<text text-anchor="start" x="79.88" y="-582.73" font-family="Helvetica,sans-Serif" font-size="12.00" fill="#838b8b">0.00s: EnableGravity</text>
<text text-anchor="start" x="79.88" y="-568.83" font-family="Helvetica,sans-Serif" font-size="12.00" fill="#838b8b">1.00s: Done</text>
<text text-anchor="start" x="144.38" y="-568.83" font-family="Helvetica,sans-Serif" font-size="14.00"> &#160;</text>
</g>
<!-- Hurt_BigState&#45;&gt;PreAttack -->
<g id="edge13" class="edge">
<title>Hurt_BigState&#45;&gt;PreAttack</title>
<path fill="none" stroke="#cdc8b1" d="M201.85,-611.39C246.82,-625.4 305.47,-643.67 345.93,-656.27"/>
<polygon fill="#cdc8b1" stroke="#cdc8b1" points="344.8,-659.58 355.39,-659.21 346.88,-652.9 344.8,-659.58"/>
</g>
<!-- PostureBreak -->
<g id="node23" class="node">
<title>PostureBreak</title>
<polygon fill="none" stroke="black" points="76.88,-516.12 76.88,-537.88 193.88,-537.88 193.88,-516.12 76.88,-516.12"/>
<text text-anchor="start" x="90.75" y="-521.58" font-family="Helvetica,sans-Serif" font-size="14.00">PostureBreak &#160;</text>
<polygon fill="none" stroke="black" points="76.88,-484.12 76.88,-516.12 193.88,-516.12 193.88,-484.12 76.88,-484.12"/>
<text text-anchor="start" x="79.88" y="-502.73" font-family="Helvetica,sans-Serif" font-size="12.00" fill="#838b8b">0.00s: EnableGravity</text>
<text text-anchor="start" x="79.88" y="-488.83" font-family="Helvetica,sans-Serif" font-size="12.00" fill="#838b8b">3.50s: Done</text>
<text text-anchor="start" x="144.38" y="-488.83" font-family="Helvetica,sans-Serif" font-size="14.00"> &#160;</text>
</g>
<!-- PostureBreak&#45;&gt;PreAttack -->
<g id="edge14" class="edge">
<title>PostureBreak&#45;&gt;PreAttack</title>
<path fill="none" stroke="#cdc8b1" d="M201.61,-528.02C219.45,-534 238.37,-541.62 254.75,-551 299.34,-576.53 342.79,-617.61 368.78,-644.46"/>
<polygon fill="#cdc8b1" stroke="#cdc8b1" points="366.11,-646.73 375.55,-651.55 371.17,-641.89 366.11,-646.73"/>
</g>
<!-- Wandering_Walking -->
<g id="node24" class="node">
<title>Wandering_Walking</title>
<polygon fill="none" stroke="black" points="219.12,-988 51.62,-988 51.62,-952 219.12,-952 219.12,-988"/>
<text text-anchor="middle" x="135.38" y="-964.58" font-family="Helvetica,sans-Serif" font-size="14.00">Wandering_Walking (Init)</text>
</g>
</g>
</svg>
