<?xml version="1.0" encoding="UTF-8" standalone="no"?>
<!DOCTYPE svg PUBLIC "-//W3C//DTD SVG 1.1//EN"
 "http://www.w3.org/Graphics/SVG/1.1/DTD/svg11.dtd">
<!-- Generated by graphviz version 12.2.1 (20241206.2353)
 -->
<!-- Title: Foo Pages: 1 -->
<svg width="864pt" height="1406pt"
 viewBox="0.00 0.00 864.00 1405.88" xmlns="http://www.w3.org/2000/svg" xmlns:xlink="http://www.w3.org/1999/xlink">
<g id="graph0" class="graph" transform="scale(1 1) rotate(0) translate(4 1401.88)">
<title>Foo</title>
<polygon fill="white" stroke="none" points="-4,4 -4,-1401.88 860,-1401.88 860,4 -4,4"/>
<g id="clust1" class="cluster">
<title>cluster_attacksensors</title>
<polygon fill="none" stroke="black" points="8,-8 8,-720 402.25,-720 402.25,-8 8,-8"/>
<text text-anchor="middle" x="205.12" y="-702.7" font-family="Helvetica,sans-Serif" font-size="14.00">Attack Sensors</text>
</g>
<!-- Level Once Sensor -->
<g id="node1" class="node">
<title>Level Once Sensor</title>
<polygon fill="none" stroke="black" points="28.5,-34.12 28.5,-55.88 157.5,-55.88 157.5,-34.12 28.5,-34.12"/>
<text text-anchor="start" x="31.5" y="-39.58" font-family="Helvetica,sans-Serif" font-size="14.00">Level Once Sensor &#160;</text>
</g>
<!-- Level Once Sensor_linked -->
<g id="node2" class="node">
<title>Level Once Sensor_linked</title>
<polygon fill="none" stroke="black" stroke-dasharray="1,5" points="380.48,-52 295.77,-52 295.77,-16 380.48,-16 380.48,-52"/>
<text text-anchor="start" x="301.38" y="-28.57" font-family="Helvetica,sans-Serif" font-size="14.00">PreAttack1 &#160;</text>
</g>
<!-- Level Once Sensor&#45;&gt;Level Once Sensor_linked -->
<g id="edge1" class="edge">
<title>Level Once Sensor&#45;&gt;Level Once Sensor_linked</title>
<path fill="none" stroke="#66cdaa" d="M165.3,-41.77C203.32,-40.05 249.3,-37.97 284.12,-36.4"/>
<polygon fill="#66cdaa" stroke="#66cdaa" points="284.13,-39.9 293.96,-35.95 283.82,-32.91 284.13,-39.9"/>
<text text-anchor="middle" x="220.62" y="-42.94" font-family="Helvetica,sans-Serif" font-size="14.00" fill="#66cdaa">QueueEnd</text>
</g>
<!-- Level Once Sensor_weight -->
<g id="node3" class="node">
<title>Level Once Sensor_weight</title>
<polygon fill="none" stroke="black" stroke-dasharray="1,5" points="390.5,-106 285.75,-106 285.75,-70 390.5,-70 390.5,-106"/>
<text text-anchor="start" x="295.75" y="-82.58" font-family="Helvetica,sans-Serif" font-size="14.00">1 PreAttack1 &#160;</text>
</g>
<!-- Level Once Sensor&#45;&gt;Level Once Sensor_weight -->
<g id="edge2" class="edge">
<title>Level Once Sensor&#45;&gt;Level Once Sensor_weight</title>
<path fill="none" stroke="#458b74" d="M165.3,-57.61C199.92,-63.73 241.14,-71.02 274.53,-76.93"/>
<polygon fill="#458b74" stroke="#458b74" points="273.58,-80.32 284.04,-78.61 274.8,-73.42 273.58,-80.32"/>
<text text-anchor="middle" x="220.62" y="-75.31" font-family="Helvetica,sans-Serif" font-size="14.00" fill="#458b74">Weight</text>
</g>
<!-- RunAwaySensor -->
<g id="node4" class="node">
<title>RunAwaySensor</title>
<polygon fill="none" stroke="black" points="36,-103.12 36,-124.88 150,-124.88 150,-103.12 36,-103.12"/>
<text text-anchor="start" x="39" y="-108.58" font-family="Helvetica,sans-Serif" font-size="14.00">RunAwaySensor &#160;</text>
</g>
<!-- Heal Sensor -->
<g id="node5" class="node">
<title>Heal Sensor</title>
<polygon fill="none" stroke="black" points="33.75,-184 33.75,-205.75 152.25,-205.75 152.25,-184 33.75,-184"/>
<text text-anchor="start" x="52.12" y="-189.45" font-family="Helvetica,sans-Serif" font-size="14.00">Heal Sensor &#160;</text>
<polygon fill="none" stroke="black" points="33.75,-162.25 33.75,-184 152.25,-184 152.25,-162.25 33.75,-162.25"/>
<text text-anchor="start" x="36.75" y="-168.7" font-family="Helvetica,sans-Serif" font-size="12.00" fill="#838b8b">if: PostureCondition</text>
<text text-anchor="start" x="141.75" y="-168.7" font-family="Helvetica,sans-Serif" font-size="14.00"> &#160;</text>
</g>
<!-- Heal Sensor_linked -->
<g id="node6" class="node">
<title>Heal Sensor_linked</title>
<polygon fill="none" stroke="black" stroke-dasharray="1,5" points="380.48,-160 295.77,-160 295.77,-124 380.48,-124 380.48,-160"/>
<text text-anchor="start" x="301.38" y="-136.57" font-family="Helvetica,sans-Serif" font-size="14.00">PreAttack1 &#160;</text>
</g>
<!-- Heal Sensor&#45;&gt;Heal Sensor_linked -->
<g id="edge3" class="edge">
<title>Heal Sensor&#45;&gt;Heal Sensor_linked</title>
<path fill="none" stroke="#66cdaa" d="M160.11,-172.58C199.24,-165.82 248.11,-157.38 284.58,-151.08"/>
<polygon fill="#66cdaa" stroke="#66cdaa" points="284.73,-154.6 293.99,-149.45 283.54,-147.71 284.73,-154.6"/>
<text text-anchor="middle" x="220.62" y="-169.21" font-family="Helvetica,sans-Serif" font-size="14.00" fill="#66cdaa">QueueEnd</text>
</g>
<!-- Heal Sensor_weight -->
<g id="node7" class="node">
<title>Heal Sensor_weight</title>
<polygon fill="none" stroke="black" stroke-dasharray="1,5" points="371.38,-214 304.88,-214 304.88,-178 371.38,-178 371.38,-214"/>
<text text-anchor="start" x="314.88" y="-190.57" font-family="Helvetica,sans-Serif" font-size="14.00">1 Heal &#160;</text>
</g>
<!-- Heal Sensor&#45;&gt;Heal Sensor_weight -->
<g id="edge4" class="edge">
<title>Heal Sensor&#45;&gt;Heal Sensor_weight</title>
<path fill="none" stroke="#458b74" d="M160.11,-187.26C202.37,-189.35 255.99,-192 293.09,-193.83"/>
<polygon fill="#458b74" stroke="#458b74" points="292.84,-197.32 303,-194.32 293.19,-190.33 292.84,-197.32"/>
<text text-anchor="middle" x="220.62" y="-194.23" font-family="Helvetica,sans-Serif" font-size="14.00" fill="#458b74">Weight</text>
</g>
<!-- AttackSensor -->
<g id="node8" class="node">
<title>AttackSensor</title>
<polygon fill="none" stroke="black" points="46.12,-293.12 46.12,-314.88 139.88,-314.88 139.88,-293.12 46.12,-293.12"/>
<text text-anchor="start" x="49.12" y="-298.57" font-family="Helvetica,sans-Serif" font-size="14.00">AttackSensor &#160;</text>
</g>
<!-- AttackSensor_linked -->
<g id="node9" class="node">
<title>AttackSensor_linked</title>
<polygon fill="none" stroke="black" stroke-dasharray="1,5" points="380.48,-268 295.77,-268 295.77,-232 380.48,-232 380.48,-268"/>
<text text-anchor="start" x="301.38" y="-244.57" font-family="Helvetica,sans-Serif" font-size="14.00">PreAttack1 &#160;</text>
</g>
<!-- AttackSensor&#45;&gt;AttackSensor_linked -->
<g id="edge5" class="edge">
<title>AttackSensor&#45;&gt;AttackSensor_linked</title>
<path fill="none" stroke="#66cdaa" d="M147.66,-292.08C188.3,-283.05 243.86,-270.71 284.31,-261.73"/>
<polygon fill="#66cdaa" stroke="#66cdaa" points="284.81,-265.21 293.81,-259.62 283.29,-258.37 284.81,-265.21"/>
<text text-anchor="middle" x="220.62" y="-284.29" font-family="Helvetica,sans-Serif" font-size="14.00" fill="#66cdaa">QueueEnd</text>
</g>
<!-- AttackSensor_mustuse -->
<g id="node10" class="node">
<title>AttackSensor_mustuse</title>
<polygon fill="none" stroke="black" points="292.62,-291.12 292.62,-316.88 383.62,-316.88 383.62,-291.12 292.62,-291.12"/>
<text text-anchor="start" x="297.62" y="-298.57" font-family="Helvetica,sans-Serif" font-size="14.00">SuperAttack &#160;</text>
</g>
<!-- AttackSensor&#45;&gt;AttackSensor_mustuse -->
<g id="edge6" class="edge">
<title>AttackSensor&#45;&gt;AttackSensor_mustuse</title>
<path fill="none" stroke="#ffc125" d="M147.66,-304C184.82,-304 234.45,-304 273.6,-304"/>
<polygon fill="#ffc125" stroke="#ffc125" points="273.35,-307.5 283.35,-304 273.35,-300.5 273.35,-307.5"/>
<text text-anchor="middle" x="220.62" y="-306.45" font-family="Helvetica,sans-Serif" font-size="14.00" fill="#ffc125">Initial</text>
</g>
<!-- AttackSensor_weight -->
<g id="node11" class="node">
<title>AttackSensor_weight</title>
<polygon fill="none" stroke="black" stroke-dasharray="1,5" points="394.25,-407.62 282,-407.62 282,-340.38 394.25,-340.38 394.25,-407.62"/>
<text text-anchor="start" x="295.75" y="-388.32" font-family="Helvetica,sans-Serif" font-size="14.00">1 PreAttack1 &#160;</text>
<text text-anchor="start" x="295.75" y="-368.57" font-family="Helvetica,sans-Serif" font-size="14.00">1 PreAttack3 &#160;</text>
<text text-anchor="start" x="292" y="-348.82" font-family="Helvetica,sans-Serif" font-size="14.00">1 SuperAttack &#160;</text>
</g>
<!-- AttackSensor&#45;&gt;AttackSensor_weight -->
<g id="edge7" class="edge">
<title>AttackSensor&#45;&gt;AttackSensor_weight</title>
<path fill="none" stroke="#458b74" d="M147.66,-319.45C184.09,-329.94 232.49,-343.87 271.26,-355.04"/>
<polygon fill="#458b74" stroke="#458b74" points="269.89,-358.28 280.47,-357.69 271.83,-351.56 269.89,-358.28"/>
<text text-anchor="middle" x="220.62" y="-351.81" font-family="Helvetica,sans-Serif" font-size="14.00" fill="#458b74">Weight</text>
</g>
<!-- DodgePredictSensor -->
<g id="node12" class="node">
<title>DodgePredictSensor</title>
<polygon fill="none" stroke="black" points="24,-444 24,-465.75 162,-465.75 162,-444 24,-444"/>
<text text-anchor="start" x="27" y="-449.45" font-family="Helvetica,sans-Serif" font-size="14.00">DodgePredictSensor &#160;</text>
<polygon fill="none" stroke="black" points="24,-422.25 24,-444 162,-444 162,-422.25 24,-422.25"/>
<text text-anchor="start" x="27" y="-428.7" font-family="Helvetica,sans-Serif" font-size="12.00" fill="#838b8b">if: rollingCondition</text>
<text text-anchor="start" x="123.75" y="-428.7" font-family="Helvetica,sans-Serif" font-size="14.00"> &#160;</text>
</g>
<!-- DodgePredictSensor_linked -->
<g id="node13" class="node">
<title>DodgePredictSensor_linked</title>
<polygon fill="none" stroke="black" stroke-dasharray="1,5" points="380.48,-462 295.77,-462 295.77,-426 380.48,-426 380.48,-462"/>
<text text-anchor="start" x="301.38" y="-438.57" font-family="Helvetica,sans-Serif" font-size="14.00">PreAttack1 &#160;</text>
</g>
<!-- DodgePredictSensor&#45;&gt;DodgePredictSensor_linked -->
<g id="edge8" class="edge">
<title>DodgePredictSensor&#45;&gt;DodgePredictSensor_linked</title>
<path fill="none" stroke="#66cdaa" d="M169.93,-444C206.94,-444 250.56,-444 283.97,-444"/>
<polygon fill="#66cdaa" stroke="#66cdaa" points="283.81,-447.5 293.81,-444 283.81,-440.5 283.81,-447.5"/>
<text text-anchor="middle" x="220.62" y="-446.45" font-family="Helvetica,sans-Serif" font-size="14.00" fill="#66cdaa">QueueEnd</text>
</g>
<!-- AttackPredictSensor -->
<g id="node14" class="node">
<title>AttackPredictSensor</title>
<polygon fill="none" stroke="black" points="25.12,-526 25.12,-547.75 160.88,-547.75 160.88,-526 25.12,-526"/>
<text text-anchor="start" x="28.12" y="-531.45" font-family="Helvetica,sans-Serif" font-size="14.00">AttackPredictSensor &#160;</text>
<polygon fill="none" stroke="black" points="25.12,-504.25 25.12,-526 160.88,-526 160.88,-504.25 25.12,-504.25"/>
<text text-anchor="start" x="28.12" y="-510.7" font-family="Helvetica,sans-Serif" font-size="12.00" fill="#838b8b">if: attackCondition</text>
<text text-anchor="start" x="123.38" y="-510.7" font-family="Helvetica,sans-Serif" font-size="14.00"> &#160;</text>
</g>
<!-- AttackPredictSensor_linked -->
<g id="node15" class="node">
<title>AttackPredictSensor_linked</title>
<polygon fill="none" stroke="black" stroke-dasharray="1,5" points="380.48,-516 295.77,-516 295.77,-480 380.48,-480 380.48,-516"/>
<text text-anchor="start" x="301.38" y="-492.57" font-family="Helvetica,sans-Serif" font-size="14.00">PreAttack1 &#160;</text>
</g>
<!-- AttackPredictSensor&#45;&gt;AttackPredictSensor_linked -->
<g id="edge9" class="edge">
<title>AttackPredictSensor&#45;&gt;AttackPredictSensor_linked</title>
<path fill="none" stroke="#66cdaa" d="M168.6,-517.41C206.09,-513.09 250.64,-507.96 284.51,-504.06"/>
<polygon fill="#66cdaa" stroke="#66cdaa" points="284.52,-507.58 294.06,-502.96 283.72,-500.63 284.52,-507.58"/>
<text text-anchor="middle" x="220.62" y="-516.96" font-family="Helvetica,sans-Serif" font-size="14.00" fill="#66cdaa">QueueEnd</text>
</g>
<!-- AttackPredictSensor_weight -->
<g id="node16" class="node">
<title>AttackPredictSensor_weight</title>
<polygon fill="none" stroke="black" stroke-dasharray="1,5" points="390.5,-570 285.75,-570 285.75,-534 390.5,-534 390.5,-570"/>
<text text-anchor="start" x="295.75" y="-546.58" font-family="Helvetica,sans-Serif" font-size="14.00">1 PreAttack2 &#160;</text>
</g>
<!-- AttackPredictSensor&#45;&gt;AttackPredictSensor_weight -->
<g id="edge10" class="edge">
<title>AttackPredictSensor&#45;&gt;AttackPredictSensor_weight</title>
<path fill="none" stroke="#458b74" d="M168.6,-533.98C202.44,-537.6 242.01,-541.83 274.3,-545.28"/>
<polygon fill="#458b74" stroke="#458b74" points="273.58,-548.72 283.9,-546.31 274.33,-541.76 273.58,-548.72"/>
<text text-anchor="middle" x="220.62" y="-545.3" font-family="Helvetica,sans-Serif" font-size="14.00" fill="#458b74">Weight</text>
</g>
<!-- AttackRunToSensor -->
<g id="node17" class="node">
<title>AttackRunToSensor</title>
<polygon fill="none" stroke="black" points="26.62,-605 26.62,-626.75 159.38,-626.75 159.38,-605 26.62,-605"/>
<text text-anchor="start" x="29.62" y="-610.45" font-family="Helvetica,sans-Serif" font-size="14.00">AttackRunToSensor &#160;</text>
<polygon fill="none" stroke="black" points="26.62,-583.25 26.62,-605 159.38,-605 159.38,-583.25 26.62,-583.25"/>
<text text-anchor="start" x="29.62" y="-589.7" font-family="Helvetica,sans-Serif" font-size="12.00" fill="#838b8b">if: state is Engaging</text>
<text text-anchor="start" x="133.88" y="-589.7" font-family="Helvetica,sans-Serif" font-size="14.00"> &#160;</text>
</g>
<!-- AttackRunToSensor_linked -->
<g id="node18" class="node">
<title>AttackRunToSensor_linked</title>
<polygon fill="none" stroke="black" stroke-dasharray="1,5" points="380.48,-624 295.77,-624 295.77,-588 380.48,-588 380.48,-624"/>
<text text-anchor="start" x="301.38" y="-600.58" font-family="Helvetica,sans-Serif" font-size="14.00">PreAttack1 &#160;</text>
</g>
<!-- AttackRunToSensor&#45;&gt;AttackRunToSensor_linked -->
<g id="edge11" class="edge">
<title>AttackRunToSensor&#45;&gt;AttackRunToSensor_linked</title>
<path fill="none" stroke="#66cdaa" d="M167.28,-605.3C204.96,-605.46 250.04,-605.64 284.28,-605.78"/>
<polygon fill="#66cdaa" stroke="#66cdaa" points="283.93,-609.28 293.94,-605.82 283.95,-602.28 283.93,-609.28"/>
<text text-anchor="middle" x="220.62" y="-608.1" font-family="Helvetica,sans-Serif" font-size="14.00" fill="#66cdaa">QueueEnd</text>
</g>
<!-- ChaseAttackSensor -->
<g id="node19" class="node">
<title>ChaseAttackSensor</title>
<polygon fill="none" stroke="black" points="26.62,-656.12 26.62,-677.88 159.38,-677.88 159.38,-656.12 26.62,-656.12"/>
<text text-anchor="start" x="29.62" y="-661.58" font-family="Helvetica,sans-Serif" font-size="14.00">ChaseAttackSensor &#160;</text>
</g>
<!-- ChaseAttackSensor_linked -->
<g id="node20" class="node">
<title>ChaseAttackSensor_linked</title>
<polygon fill="none" stroke="black" stroke-dasharray="1,5" points="384.23,-688.35 292.02,-688.35 292.02,-641.65 384.23,-641.65 384.23,-688.35"/>
<text text-anchor="start" x="297.62" y="-669.45" font-family="Helvetica,sans-Serif" font-size="14.00">SuperAttack &#160;</text>
<text text-anchor="start" x="304.75" y="-649.7" font-family="Helvetica,sans-Serif" font-size="14.00">FlipAttack &#160;</text>
</g>
<!-- ChaseAttackSensor&#45;&gt;ChaseAttackSensor_linked -->
<g id="edge12" class="edge">
<title>ChaseAttackSensor&#45;&gt;ChaseAttackSensor_linked</title>
<path fill="none" stroke="#66cdaa" d="M167.28,-666.4C203.42,-666.1 246.37,-665.75 280.03,-665.47"/>
<polygon fill="#66cdaa" stroke="#66cdaa" points="280.04,-668.97 290.01,-665.39 279.98,-661.97 280.04,-668.97"/>
<text text-anchor="middle" x="220.62" y="-668.63" font-family="Helvetica,sans-Serif" font-size="14.00" fill="#66cdaa">QueueEnd</text>
</g>
<!-- PreAttack1 -->
<g id="node21" class="node">
<title>PreAttack1</title>
<polygon fill="none" stroke="black" points="279.25,-961.12 279.25,-982.88 397,-982.88 397,-961.12 279.25,-961.12"/>
<text text-anchor="start" x="301.38" y="-966.58" font-family="Helvetica,sans-Serif" font-size="14.00">PreAttack1 &#160;</text>
<polygon fill="none" stroke="black" points="279.25,-929.12 279.25,-961.12 397,-961.12 397,-929.12 279.25,-929.12"/>
<text text-anchor="start" x="282.25" y="-947.73" font-family="Helvetica,sans-Serif" font-size="12.00" fill="#838b8b">0.67s: LinkNextMove</text>
<text text-anchor="start" x="282.25" y="-933.83" font-family="Helvetica,sans-Serif" font-size="12.00" fill="#838b8b">0.75s: Done</text>
<text text-anchor="start" x="346.75" y="-933.83" font-family="Helvetica,sans-Serif" font-size="14.00"> &#160;</text>
</g>
<!-- NormalAttack -->
<g id="node22" class="node">
<title>NormalAttack</title>
<polygon fill="none" stroke="black" points="497.88,-895.12 497.88,-916.88 615.62,-916.88 615.62,-895.12 497.88,-895.12"/>
<text text-anchor="start" x="512.12" y="-900.58" font-family="Helvetica,sans-Serif" font-size="14.00">NormalAttack &#160;</text>
<polygon fill="none" stroke="black" points="497.88,-863.12 497.88,-895.12 615.62,-895.12 615.62,-863.12 497.88,-863.12"/>
<text text-anchor="start" x="500.88" y="-881.73" font-family="Helvetica,sans-Serif" font-size="12.00" fill="#838b8b">0.75s: LinkNextMove</text>
<text text-anchor="start" x="500.88" y="-867.83" font-family="Helvetica,sans-Serif" font-size="12.00" fill="#838b8b">0.92s: Done</text>
<text text-anchor="start" x="565.38" y="-867.83" font-family="Helvetica,sans-Serif" font-size="14.00"> &#160;</text>
</g>
<!-- PreAttack1&#45;&gt;NormalAttack -->
<g id="edge13" class="edge">
<title>PreAttack1&#45;&gt;NormalAttack</title>
<path fill="none" stroke="#cdc8b1" d="M404.71,-936.02C428.14,-928.88 454.75,-920.77 479.04,-913.37"/>
<polygon fill="#cdc8b1" stroke="#cdc8b1" points="480.02,-916.73 488.57,-910.47 477.98,-910.03 480.02,-916.73"/>
</g>
<!-- PreAttack1_weight -->
<g id="node23" class="node">
<title>PreAttack1_weight</title>
<polygon fill="none" stroke="black" stroke-dasharray="1,5" points="630.5,-1006.62 483,-1006.62 483,-939.38 630.5,-939.38 630.5,-1006.62"/>
<text text-anchor="start" x="517.75" y="-987.33" font-family="Helvetica,sans-Serif" font-size="14.00">1 FlipAttack &#160;</text>
<text text-anchor="start" x="493" y="-967.58" font-family="Helvetica,sans-Serif" font-size="14.00">1 NormalAttackStay &#160;</text>
<text text-anchor="start" x="514.38" y="-947.83" font-family="Helvetica,sans-Serif" font-size="14.00">1 PreAttack2 &#160;</text>
</g>
<!-- PreAttack1&#45;&gt;PreAttack1_weight -->
<g id="edge14" class="edge">
<title>PreAttack1&#45;&gt;PreAttack1_weight</title>
<path fill="none" stroke="#458b74" d="M404.71,-961.15C425.7,-962.79 449.25,-964.64 471.39,-966.38"/>
<polygon fill="#458b74" stroke="#458b74" points="471.07,-969.87 481.31,-967.16 471.62,-962.89 471.07,-969.87"/>
<text text-anchor="middle" x="444" y="-967.97" font-family="Helvetica,sans-Serif" font-size="14.00" fill="#458b74">Weight</text>
</g>
<!-- Engaging -->
<g id="node29" class="node">
<title>Engaging</title>
<polygon fill="none" stroke="black" points="818.75,-1175 745.75,-1175 745.75,-1139 818.75,-1139 818.75,-1175"/>
<text text-anchor="middle" x="782.25" y="-1151.58" font-family="Helvetica,sans-Serif" font-size="14.00">Engaging</text>
</g>
<!-- NormalAttack&#45;&gt;Engaging -->
<g id="edge20" class="edge">
<title>NormalAttack&#45;&gt;Engaging</title>
<path fill="none" stroke="#cdc8b1" d="M619.22,-920.85C623.19,-923.73 627,-926.78 630.5,-930 695.13,-989.45 745.29,-1082.03 767.99,-1128.44"/>
<polygon fill="#cdc8b1" stroke="#cdc8b1" points="764.76,-1129.81 772.25,-1137.31 771.07,-1126.78 764.76,-1129.81"/>
</g>
<!-- NormalAttack_weight -->
<g id="node30" class="node">
<title>NormalAttack_weight</title>
<polygon fill="none" stroke="black" stroke-dasharray="1,5" points="856,-923.62 708.5,-923.62 708.5,-856.38 856,-856.38 856,-923.62"/>
<text text-anchor="start" x="743.25" y="-904.33" font-family="Helvetica,sans-Serif" font-size="14.00">1 FlipAttack &#160;</text>
<text text-anchor="start" x="732" y="-884.58" font-family="Helvetica,sans-Serif" font-size="14.00">1 NormalAttack &#160;</text>
<text text-anchor="start" x="718.5" y="-864.83" font-family="Helvetica,sans-Serif" font-size="14.00">1 NormalAttackStay &#160;</text>
</g>
<!-- NormalAttack&#45;&gt;NormalAttack_weight -->
<g id="edge21" class="edge">
<title>NormalAttack&#45;&gt;NormalAttack_weight</title>
<path fill="none" stroke="#458b74" d="M623.6,-890C646.5,-890 672.51,-890 696.71,-890"/>
<polygon fill="#458b74" stroke="#458b74" points="696.53,-893.5 706.53,-890 696.53,-886.5 696.53,-893.5"/>
<text text-anchor="middle" x="669.5" y="-892.45" font-family="Helvetica,sans-Serif" font-size="14.00" fill="#458b74">Weight</text>
</g>
<!-- PreAttack2 -->
<g id="node24" class="node">
<title>PreAttack2</title>
<polygon fill="none" stroke="black" points="279.25,-872.12 279.25,-893.88 397,-893.88 397,-872.12 279.25,-872.12"/>
<text text-anchor="start" x="301.38" y="-877.58" font-family="Helvetica,sans-Serif" font-size="14.00">PreAttack2 &#160;</text>
<polygon fill="none" stroke="black" points="279.25,-840.12 279.25,-872.12 397,-872.12 397,-840.12 279.25,-840.12"/>
<text text-anchor="start" x="282.25" y="-858.73" font-family="Helvetica,sans-Serif" font-size="12.00" fill="#838b8b">0.67s: LinkNextMove</text>
<text text-anchor="start" x="282.25" y="-844.83" font-family="Helvetica,sans-Serif" font-size="12.00" fill="#838b8b">0.83s: Done</text>
<text text-anchor="start" x="346.75" y="-844.83" font-family="Helvetica,sans-Serif" font-size="14.00"> &#160;</text>
</g>
<!-- PreAttack2&#45;&gt;NormalAttack -->
<g id="edge15" class="edge">
<title>PreAttack2&#45;&gt;NormalAttack</title>
<path fill="none" stroke="#cdc8b1" d="M404.71,-873.96C428.04,-876.44 454.51,-879.25 478.71,-881.82"/>
<polygon fill="#cdc8b1" stroke="#cdc8b1" points="478.2,-885.29 488.51,-882.86 478.94,-878.32 478.2,-885.29"/>
</g>
<!-- PreAttack2_weight -->
<g id="node25" class="node">
<title>PreAttack2_weight</title>
<polygon fill="none" stroke="black" stroke-dasharray="1,5" points="630.5,-840.75 483,-840.75 483,-793.25 630.5,-793.25 630.5,-840.75"/>
<text text-anchor="start" x="517.75" y="-821.45" font-family="Helvetica,sans-Serif" font-size="14.00">1 FlipAttack &#160;</text>
<text text-anchor="start" x="493" y="-801.7" font-family="Helvetica,sans-Serif" font-size="14.00">1 NormalAttackStay &#160;</text>
</g>
<!-- PreAttack2&#45;&gt;PreAttack2_weight -->
<g id="edge16" class="edge">
<title>PreAttack2&#45;&gt;PreAttack2_weight</title>
<path fill="none" stroke="#458b74" d="M404.71,-851.86C425.8,-846.99 449.47,-841.53 471.7,-836.4"/>
<polygon fill="#458b74" stroke="#458b74" points="472.39,-839.83 481.35,-834.17 470.82,-833.01 472.39,-839.83"/>
<text text-anchor="middle" x="444" y="-848.93" font-family="Helvetica,sans-Serif" font-size="14.00" fill="#458b74">Weight</text>
</g>
<!-- PreAttack3 -->
<g id="node26" class="node">
<title>PreAttack3</title>
<polygon fill="none" stroke="black" points="279.25,-764.12 279.25,-785.88 397,-785.88 397,-764.12 279.25,-764.12"/>
<text text-anchor="start" x="301.38" y="-769.58" font-family="Helvetica,sans-Serif" font-size="14.00">PreAttack3 &#160;</text>
<polygon fill="none" stroke="black" points="279.25,-732.12 279.25,-764.12 397,-764.12 397,-732.12 279.25,-732.12"/>
<text text-anchor="start" x="282.25" y="-750.73" font-family="Helvetica,sans-Serif" font-size="12.00" fill="#838b8b">0.67s: LinkNextMove</text>
<text text-anchor="start" x="282.25" y="-736.83" font-family="Helvetica,sans-Serif" font-size="12.00" fill="#838b8b">0.83s: Done</text>
<text text-anchor="start" x="346.75" y="-736.83" font-family="Helvetica,sans-Serif" font-size="14.00"> &#160;</text>
</g>
<!-- PreAttack3&#45;&gt;NormalAttack -->
<g id="edge17" class="edge">
<title>PreAttack3&#45;&gt;NormalAttack</title>
<path fill="none" stroke="#cdc8b1" d="M394.18,-789.8C416.63,-802.98 442.54,-819 465,-835 473.48,-841.04 474.4,-844.13 483,-850 484.6,-851.09 486.22,-852.17 487.88,-853.25"/>
<polygon fill="#cdc8b1" stroke="#cdc8b1" points="485.95,-856.17 496.28,-858.53 489.67,-850.24 485.95,-856.17"/>
</g>
<!-- PreAttack3_weight -->
<g id="node27" class="node">
<title>PreAttack3_weight</title>
<polygon fill="none" stroke="black" stroke-dasharray="1,5" points="617,-775.62 496.5,-775.62 496.5,-708.38 617,-708.38 617,-775.62"/>
<text text-anchor="start" x="517.75" y="-756.33" font-family="Helvetica,sans-Serif" font-size="14.00">1 FlipAttack &#160;</text>
<text text-anchor="start" x="506.5" y="-736.58" font-family="Helvetica,sans-Serif" font-size="14.00">1 NormalAttack &#160;</text>
<text text-anchor="start" x="514.38" y="-716.83" font-family="Helvetica,sans-Serif" font-size="14.00">1 PreAttack2 &#160;</text>
</g>
<!-- PreAttack3&#45;&gt;PreAttack3_weight -->
<g id="edge18" class="edge">
<title>PreAttack3&#45;&gt;PreAttack3_weight</title>
<path fill="none" stroke="#458b74" d="M404.97,-748.24C411.05,-747.47 417.13,-746.79 423,-746.25 443.06,-744.41 464.88,-743.33 484.93,-742.71"/>
<polygon fill="#458b74" stroke="#458b74" points="484.77,-746.21 494.67,-742.44 484.58,-739.22 484.77,-746.21"/>
<text text-anchor="middle" x="444" y="-748.7" font-family="Helvetica,sans-Serif" font-size="14.00" fill="#458b74">Weight</text>
</g>
<!-- SuperAttack -->
<g id="node28" class="node">
<title>SuperAttack</title>
<polygon fill="none" stroke="black" points="500.5,-1200.12 500.5,-1221.88 613,-1221.88 613,-1200.12 500.5,-1200.12"/>
<text text-anchor="start" x="516.25" y="-1205.58" font-family="Helvetica,sans-Serif" font-size="14.00">SuperAttack &#160;</text>
<polygon fill="none" stroke="black" points="500.5,-1168.12 500.5,-1200.12 613,-1200.12 613,-1168.12 500.5,-1168.12"/>
<text text-anchor="start" x="503.5" y="-1186.72" font-family="Helvetica,sans-Serif" font-size="12.00" fill="#838b8b">0.33s: CheckFacing</text>
<text text-anchor="start" x="503.5" y="-1172.82" font-family="Helvetica,sans-Serif" font-size="12.00" fill="#838b8b">2.33s: Done</text>
<text text-anchor="start" x="568" y="-1172.82" font-family="Helvetica,sans-Serif" font-size="14.00"> &#160;</text>
</g>
<!-- SuperAttack&#45;&gt;Engaging -->
<g id="edge19" class="edge">
<title>SuperAttack&#45;&gt;Engaging</title>
<path fill="none" stroke="#cdc8b1" d="M620.9,-1184.26C656.93,-1178.14 701.32,-1170.59 734.26,-1164.99"/>
<polygon fill="#cdc8b1" stroke="#cdc8b1" points="734.64,-1168.48 743.91,-1163.35 733.46,-1161.57 734.64,-1168.48"/>
</g>
<!-- FlipAttack -->
<g id="node31" class="node">
<title>FlipAttack</title>
<polygon fill="none" stroke="black" points="497.88,-1292.12 497.88,-1313.88 615.62,-1313.88 615.62,-1292.12 497.88,-1292.12"/>
<text text-anchor="start" x="523.38" y="-1297.58" font-family="Helvetica,sans-Serif" font-size="14.00">FlipAttack &#160;</text>
<polygon fill="none" stroke="black" points="497.88,-1248.12 497.88,-1292.12 615.62,-1292.12 615.62,-1248.12 497.88,-1248.12"/>
<text text-anchor="start" x="500.88" y="-1278.72" font-family="Helvetica,sans-Serif" font-size="12.00" fill="#838b8b">0.00s: CheckFacing</text>
<text text-anchor="start" x="500.88" y="-1266.72" font-family="Helvetica,sans-Serif" font-size="12.00" fill="#838b8b">0.80s: LinkNextMove</text>
<text text-anchor="start" x="500.88" y="-1252.82" font-family="Helvetica,sans-Serif" font-size="12.00" fill="#838b8b">1.00s: Done</text>
<text text-anchor="start" x="565.38" y="-1252.82" font-family="Helvetica,sans-Serif" font-size="14.00"> &#160;</text>
</g>
<!-- FlipAttack&#45;&gt;Engaging -->
<g id="edge22" class="edge">
<title>FlipAttack&#45;&gt;Engaging</title>
<path fill="none" stroke="#cdc8b1" d="M623.6,-1244.47C660.71,-1223.88 705.99,-1198.76 738.48,-1180.73"/>
<polygon fill="#cdc8b1" stroke="#cdc8b1" points="739.77,-1184.02 746.81,-1176.11 736.37,-1177.9 739.77,-1184.02"/>
</g>
<!-- FlipAttack_weight -->
<g id="node32" class="node">
<title>FlipAttack_weight</title>
<polygon fill="none" stroke="black" stroke-dasharray="1,5" points="842.5,-1304.75 722,-1304.75 722,-1257.25 842.5,-1257.25 842.5,-1304.75"/>
<text text-anchor="start" x="743.25" y="-1285.45" font-family="Helvetica,sans-Serif" font-size="14.00">1 FlipAttack &#160;</text>
<text text-anchor="start" x="732" y="-1265.7" font-family="Helvetica,sans-Serif" font-size="14.00">1 NormalAttack &#160;</text>
</g>
<!-- FlipAttack&#45;&gt;FlipAttack_weight -->
<g id="edge23" class="edge">
<title>FlipAttack&#45;&gt;FlipAttack_weight</title>
<path fill="none" stroke="#458b74" d="M623.6,-1281C650.87,-1281 682.56,-1281 710.35,-1281"/>
<polygon fill="#458b74" stroke="#458b74" points="710.07,-1284.5 720.07,-1281 710.07,-1277.5 710.07,-1284.5"/>
<text text-anchor="middle" x="669.5" y="-1283.45" font-family="Helvetica,sans-Serif" font-size="14.00" fill="#458b74">Weight</text>
</g>
<!-- NormalAttackStay -->
<g id="node33" class="node">
<title>NormalAttackStay</title>
<polygon fill="none" stroke="black" points="495.62,-1372.12 495.62,-1393.88 617.88,-1393.88 617.88,-1372.12 495.62,-1372.12"/>
<text text-anchor="start" x="498.62" y="-1377.58" font-family="Helvetica,sans-Serif" font-size="14.00">NormalAttackStay &#160;</text>
<polygon fill="none" stroke="black" points="495.62,-1340.12 495.62,-1372.12 617.88,-1372.12 617.88,-1340.12 495.62,-1340.12"/>
<text text-anchor="start" x="498.62" y="-1358.72" font-family="Helvetica,sans-Serif" font-size="12.00" fill="#838b8b">1.08s: LinkNextMove</text>
<text text-anchor="start" x="498.62" y="-1344.82" font-family="Helvetica,sans-Serif" font-size="12.00" fill="#838b8b">1.25s: Done</text>
<text text-anchor="start" x="563.12" y="-1344.82" font-family="Helvetica,sans-Serif" font-size="14.00"> &#160;</text>
</g>
<!-- NormalAttackStay&#45;&gt;Engaging -->
<g id="edge24" class="edge">
<title>NormalAttackStay&#45;&gt;Engaging</title>
<path fill="none" stroke="#cdc8b1" d="M625.65,-1345.39C648.88,-1335.11 673.31,-1320.67 690.5,-1301 706.87,-1282.27 696.55,-1269.82 708.5,-1248 721.32,-1224.58 740.26,-1201.12 755.6,-1183.89"/>
<polygon fill="#cdc8b1" stroke="#cdc8b1" points="758.09,-1186.35 762.23,-1176.6 752.91,-1181.64 758.09,-1186.35"/>
</g>
<!-- NormalAttackStay_weight -->
<g id="node34" class="node">
<title>NormalAttackStay_weight</title>
<polygon fill="none" stroke="black" stroke-dasharray="1,5" points="842.5,-1390.75 722,-1390.75 722,-1343.25 842.5,-1343.25 842.5,-1390.75"/>
<text text-anchor="start" x="732" y="-1371.45" font-family="Helvetica,sans-Serif" font-size="14.00">1 NormalAttack &#160;</text>
<text text-anchor="start" x="743.25" y="-1351.7" font-family="Helvetica,sans-Serif" font-size="14.00">1 FlipAttack &#160;</text>
</g>
<!-- NormalAttackStay&#45;&gt;NormalAttackStay_weight -->
<g id="edge25" class="edge">
<title>NormalAttackStay&#45;&gt;NormalAttackStay_weight</title>
<path fill="none" stroke="#458b74" d="M625.72,-1367C652.46,-1367 683.18,-1367 710.22,-1367"/>
<polygon fill="#458b74" stroke="#458b74" points="710.04,-1370.5 720.04,-1367 710.04,-1363.5 710.04,-1370.5"/>
<text text-anchor="middle" x="669.5" y="-1369.45" font-family="Helvetica,sans-Serif" font-size="14.00" fill="#458b74">Weight</text>
</g>
<!-- Heal -->
<g id="node35" class="node">
<title>Heal</title>
<polygon fill="none" stroke="black" points="299.12,-1050 299.12,-1071.75 377.12,-1071.75 377.12,-1050 299.12,-1050"/>
<text text-anchor="start" x="320.5" y="-1055.45" font-family="Helvetica,sans-Serif" font-size="14.00">Heal &#160;</text>
<polygon fill="none" stroke="black" points="299.12,-1028.25 299.12,-1050 377.12,-1050 377.12,-1028.25 299.12,-1028.25"/>
<text text-anchor="start" x="302.12" y="-1034.7" font-family="Helvetica,sans-Serif" font-size="12.00" fill="#838b8b">4.02s: Done</text>
<text text-anchor="start" x="366.62" y="-1034.7" font-family="Helvetica,sans-Serif" font-size="14.00"> &#160;</text>
</g>
<!-- StandUp -->
<g id="node36" class="node">
<title>StandUp</title>
<polygon fill="none" stroke="black" points="517.75,-1050 517.75,-1071.75 595.75,-1071.75 595.75,-1050 517.75,-1050"/>
<text text-anchor="start" x="526.75" y="-1055.45" font-family="Helvetica,sans-Serif" font-size="14.00">StandUp &#160;</text>
<polygon fill="none" stroke="black" points="517.75,-1028.25 517.75,-1050 595.75,-1050 595.75,-1028.25 517.75,-1028.25"/>
<text text-anchor="start" x="520.75" y="-1034.7" font-family="Helvetica,sans-Serif" font-size="12.00" fill="#838b8b">0.87s: Done</text>
<text text-anchor="start" x="585.25" y="-1034.7" font-family="Helvetica,sans-Serif" font-size="14.00"> &#160;</text>
</g>
<!-- Heal&#45;&gt;StandUp -->
<g id="edge26" class="edge">
<title>Heal&#45;&gt;StandUp</title>
<path fill="none" stroke="#cdc8b1" d="M385.07,-1050C418.24,-1050 463.25,-1050 498.72,-1050"/>
<polygon fill="#cdc8b1" stroke="#cdc8b1" points="498.36,-1053.5 508.36,-1050 498.36,-1046.5 498.36,-1053.5"/>
</g>
<!-- StandUp&#45;&gt;Engaging -->
<g id="edge32" class="edge">
<title>StandUp&#45;&gt;Engaging</title>
<path fill="none" stroke="#cdc8b1" d="M603.52,-1071.91C642.09,-1090.38 697,-1116.66 735.55,-1135.12"/>
<polygon fill="#cdc8b1" stroke="#cdc8b1" points="733.57,-1138.05 744.1,-1139.22 736.59,-1131.74 733.57,-1138.05"/>
</g>
<!-- AttackParrying -->
<g id="node37" class="node">
<title>AttackParrying</title>
<polygon fill="none" stroke="black" points="506.12,-1120 506.12,-1141.75 607.38,-1141.75 607.38,-1120 506.12,-1120"/>
<text text-anchor="start" x="509.12" y="-1125.45" font-family="Helvetica,sans-Serif" font-size="14.00">AttackParrying &#160;</text>
<polygon fill="none" stroke="black" points="506.12,-1098.25 506.12,-1120 607.38,-1120 607.38,-1098.25 506.12,-1098.25"/>
<text text-anchor="start" x="509.12" y="-1104.7" font-family="Helvetica,sans-Serif" font-size="12.00" fill="#838b8b">0.42s: Done</text>
<text text-anchor="start" x="573.62" y="-1104.7" font-family="Helvetica,sans-Serif" font-size="14.00"> &#160;</text>
</g>
<!-- AttackParrying&#45;&gt;Engaging -->
<g id="edge27" class="edge">
<title>AttackParrying&#45;&gt;Engaging</title>
<path fill="none" stroke="#cdc8b1" d="M615.31,-1129.53C652.26,-1135.65 699.64,-1143.49 734.31,-1149.23"/>
<polygon fill="#cdc8b1" stroke="#cdc8b1" points="733.62,-1152.66 744.05,-1150.84 734.76,-1145.76 733.62,-1152.66"/>
</g>
<!-- HurtState -->
<g id="node38" class="node">
<title>HurtState</title>
<polygon fill="none" stroke="black" points="54,-1190 54,-1211.75 132,-1211.75 132,-1190 54,-1190"/>
<text text-anchor="start" x="60.75" y="-1195.45" font-family="Helvetica,sans-Serif" font-size="14.00">HurtState &#160;</text>
<polygon fill="none" stroke="black" points="54,-1168.25 54,-1190 132,-1190 132,-1168.25 54,-1168.25"/>
<text text-anchor="start" x="57" y="-1174.7" font-family="Helvetica,sans-Serif" font-size="12.00" fill="#838b8b">0.46s: Done</text>
<text text-anchor="start" x="121.5" y="-1174.7" font-family="Helvetica,sans-Serif" font-size="14.00"> &#160;</text>
</g>
<!-- PreAttack -->
<g id="node39" class="node">
<title>PreAttack</title>
<polygon fill="none" stroke="black" points="375.38,-1173 300.88,-1173 300.88,-1137 375.38,-1137 375.38,-1173"/>
<text text-anchor="middle" x="338.12" y="-1149.58" font-family="Helvetica,sans-Serif" font-size="14.00">PreAttack</text>
</g>
<!-- HurtState&#45;&gt;PreAttack -->
<g id="edge28" class="edge">
<title>HurtState&#45;&gt;PreAttack</title>
<path fill="none" stroke="#cdc8b1" d="M139.73,-1183.42C182.44,-1177.27 245.96,-1168.12 289.33,-1161.88"/>
<polygon fill="#cdc8b1" stroke="#cdc8b1" points="289.82,-1165.35 299.22,-1160.46 288.82,-1158.42 289.82,-1165.35"/>
</g>
<!-- Hurt_BigState -->
<g id="node40" class="node">
<title>Hurt_BigState</title>
<polygon fill="none" stroke="black" points="44.25,-1120 44.25,-1141.75 141.75,-1141.75 141.75,-1120 44.25,-1120"/>
<text text-anchor="start" x="47.25" y="-1125.45" font-family="Helvetica,sans-Serif" font-size="14.00">Hurt_BigState &#160;</text>
<polygon fill="none" stroke="black" points="44.25,-1098.25 44.25,-1120 141.75,-1120 141.75,-1098.25 44.25,-1098.25"/>
<text text-anchor="start" x="47.25" y="-1104.7" font-family="Helvetica,sans-Serif" font-size="12.00" fill="#838b8b">0.46s: Done</text>
<text text-anchor="start" x="111.75" y="-1104.7" font-family="Helvetica,sans-Serif" font-size="14.00"> &#160;</text>
</g>
<!-- Hurt_BigState&#45;&gt;PreAttack -->
<g id="edge29" class="edge">
<title>Hurt_BigState&#45;&gt;PreAttack</title>
<path fill="none" stroke="#cdc8b1" d="M149.47,-1127.99C191.57,-1134.05 248.85,-1142.29 289.02,-1148.07"/>
<polygon fill="#cdc8b1" stroke="#cdc8b1" points="288.49,-1151.53 298.88,-1149.49 289.48,-1144.61 288.49,-1151.53"/>
</g>
<!-- LastHit -->
<g id="node41" class="node">
<title>LastHit</title>
<polygon fill="none" stroke="black" points="54,-1260 54,-1281.75 132,-1281.75 132,-1260 54,-1260"/>
<text text-anchor="start" x="68.25" y="-1265.45" font-family="Helvetica,sans-Serif" font-size="14.00">LastHit &#160;</text>
<polygon fill="none" stroke="black" points="54,-1238.25 54,-1260 132,-1260 132,-1238.25 54,-1238.25"/>
<text text-anchor="start" x="57" y="-1244.7" font-family="Helvetica,sans-Serif" font-size="12.00" fill="#838b8b">0.54s: Done</text>
<text text-anchor="start" x="121.5" y="-1244.7" font-family="Helvetica,sans-Serif" font-size="14.00"> &#160;</text>
</g>
<!-- DeadState -->
<g id="node42" class="node">
<title>DeadState</title>
<polygon fill="none" stroke="black" points="378,-1278 298.25,-1278 298.25,-1242 378,-1242 378,-1278"/>
<text text-anchor="middle" x="338.12" y="-1254.58" font-family="Helvetica,sans-Serif" font-size="14.00">DeadState</text>
</g>
<!-- LastHit&#45;&gt;DeadState -->
<g id="edge30" class="edge">
<title>LastHit&#45;&gt;DeadState</title>
<path fill="none" stroke="#cdc8b1" d="M139.73,-1260C181.56,-1260 243.34,-1260 286.61,-1260"/>
<polygon fill="#cdc8b1" stroke="#cdc8b1" points="286.51,-1263.5 296.51,-1260 286.51,-1256.5 286.51,-1263.5"/>
</g>
<!-- PostureBreak -->
<g id="node43" class="node">
<title>PostureBreak</title>
<polygon fill="none" stroke="black" points="45.38,-1050 45.38,-1071.75 140.62,-1071.75 140.62,-1050 45.38,-1050"/>
<text text-anchor="start" x="48.38" y="-1055.45" font-family="Helvetica,sans-Serif" font-size="14.00">PostureBreak &#160;</text>
<polygon fill="none" stroke="black" points="45.38,-1028.25 45.38,-1050 140.62,-1050 140.62,-1028.25 45.38,-1028.25"/>
<text text-anchor="start" x="48.38" y="-1034.7" font-family="Helvetica,sans-Serif" font-size="12.00" fill="#838b8b">0.46s: Done</text>
<text text-anchor="start" x="112.88" y="-1034.7" font-family="Helvetica,sans-Serif" font-size="14.00"> &#160;</text>
</g>
<!-- PostureBreak&#45;&gt;Heal -->
<g id="edge31" class="edge">
<title>PostureBreak&#45;&gt;Heal</title>
<path fill="none" stroke="#cdc8b1" d="M148.56,-1050C187.68,-1050 240.26,-1050 279.96,-1050"/>
<polygon fill="#cdc8b1" stroke="#cdc8b1" points="279.8,-1053.5 289.8,-1050 279.8,-1046.5 279.8,-1053.5"/>
</g>
<!-- Wandering_Idle -->
<g id="node44" class="node">
<title>Wandering_Idle</title>
<polygon fill="none" stroke="black" points="163.62,-1340 22.38,-1340 22.38,-1304 163.62,-1304 163.62,-1340"/>
<text text-anchor="middle" x="93" y="-1316.58" font-family="Helvetica,sans-Serif" font-size="14.00">Wandering_Idle (Init)</text>
</g>
</g>
</svg>
