<?xml version="1.0" encoding="UTF-8" standalone="no"?>
<!DOCTYPE svg PUBLIC "-//W3C//DTD SVG 1.1//EN"
 "http://www.w3.org/Graphics/SVG/1.1/DTD/svg11.dtd">
<!-- Generated by graphviz version 12.2.1 (20241206.2353)
 -->
<!-- Title: Foo Pages: 1 -->
<svg width="396pt" height="1108pt"
 viewBox="0.00 0.00 395.50 1107.88" xmlns="http://www.w3.org/2000/svg" xmlns:xlink="http://www.w3.org/1999/xlink">
<g id="graph0" class="graph" transform="scale(1 1) rotate(0) translate(4 1103.88)">
<title>Foo</title>
<polygon fill="white" stroke="none" points="-4,4 -4,-1103.88 391.5,-1103.88 391.5,4 -4,4"/>
<g id="clust1" class="cluster">
<title>cluster_attacksensors</title>
<polygon fill="none" stroke="black" points="8,-643.88 8,-1091.88 379.5,-1091.88 379.5,-643.88 8,-643.88"/>
<text text-anchor="middle" x="193.75" y="-1074.58" font-family="Helvetica,sans-Serif" font-size="14.00">Attack Sensors</text>
</g>
<!-- Shoot -->
<g id="node1" class="node">
<title>Shoot</title>
<polygon fill="none" stroke="black" points="34.12,-288 34.12,-309.75 151.88,-309.75 151.88,-288 34.12,-288"/>
<text text-anchor="start" x="71.62" y="-293.45" font-family="Helvetica,sans-Serif" font-size="14.00">Shoot &#160;</text>
<polygon fill="none" stroke="black" points="34.12,-244 34.12,-288 151.88,-288 151.88,-244 34.12,-244"/>
<text text-anchor="start" x="37.12" y="-274.6" font-family="Helvetica,sans-Serif" font-size="12.00" fill="#838b8b">0.00s: CheckFacing</text>
<text text-anchor="start" x="37.12" y="-262.6" font-family="Helvetica,sans-Serif" font-size="12.00" fill="#838b8b">1.83s: LinkNextMove</text>
<text text-anchor="start" x="37.12" y="-248.7" font-family="Helvetica,sans-Serif" font-size="12.00" fill="#838b8b">2.00s: Done</text>
<text text-anchor="start" x="101.62" y="-248.7" font-family="Helvetica,sans-Serif" font-size="14.00"> &#160;</text>
</g>
<!-- PreAttack -->
<g id="node2" class="node">
<title>PreAttack</title>
<polygon fill="none" stroke="black" points="358.62,-168.88 284.12,-168.88 284.12,-132.88 358.62,-132.88 358.62,-168.88"/>
<text text-anchor="middle" x="321.38" y="-145.45" font-family="Helvetica,sans-Serif" font-size="14.00">PreAttack</text>
</g>
<!-- Shoot&#45;&gt;PreAttack -->
<g id="edge1" class="edge">
<title>Shoot&#45;&gt;PreAttack</title>
<path fill="none" stroke="#cdc8b1" d="M159.78,-240.26C197.64,-219.19 244.13,-193.31 277.33,-174.83"/>
<polygon fill="#cdc8b1" stroke="#cdc8b1" points="278.83,-178.01 285.86,-170.08 275.42,-171.89 278.83,-178.01"/>
</g>
<!-- Triple Shot -->
<g id="node3" class="node">
<title>Triple Shot</title>
<polygon fill="none" stroke="black" points="36.75,-554 36.75,-575.75 149.25,-575.75 149.25,-554 36.75,-554"/>
<text text-anchor="start" x="56.62" y="-559.45" font-family="Helvetica,sans-Serif" font-size="14.00">Triple Shot &#160;</text>
<polygon fill="none" stroke="black" points="36.75,-486 36.75,-554 149.25,-554 149.25,-486 36.75,-486"/>
<text text-anchor="start" x="39.75" y="-540.6" font-family="Helvetica,sans-Serif" font-size="12.00" fill="#838b8b">0.00s: CheckFacing</text>
<text text-anchor="start" x="39.75" y="-528.6" font-family="Helvetica,sans-Serif" font-size="12.00" fill="#838b8b">0.62s: Shoot</text>
<text text-anchor="start" x="39.75" y="-516.6" font-family="Helvetica,sans-Serif" font-size="12.00" fill="#838b8b">1.32s: Shoot</text>
<text text-anchor="start" x="39.75" y="-504.6" font-family="Helvetica,sans-Serif" font-size="12.00" fill="#838b8b">1.95s: Shoot</text>
<text text-anchor="start" x="39.75" y="-490.7" font-family="Helvetica,sans-Serif" font-size="12.00" fill="#838b8b">2.78s: Done</text>
<text text-anchor="start" x="104.25" y="-490.7" font-family="Helvetica,sans-Serif" font-size="14.00"> &#160;</text>
</g>
<!-- Engaging -->
<g id="node4" class="node">
<title>Engaging</title>
<polygon fill="none" stroke="black" points="357.88,-455.88 284.88,-455.88 284.88,-419.88 357.88,-419.88 357.88,-455.88"/>
<text text-anchor="middle" x="321.38" y="-432.45" font-family="Helvetica,sans-Serif" font-size="14.00">Engaging</text>
</g>
<!-- Triple Shot&#45;&gt;Engaging -->
<g id="edge2" class="edge">
<title>Triple Shot&#45;&gt;Engaging</title>
<path fill="none" stroke="#cdc8b1" d="M157.06,-504.97C194.13,-489.74 240.18,-470.82 273.93,-456.96"/>
<polygon fill="#cdc8b1" stroke="#cdc8b1" points="275.1,-460.26 283.02,-453.22 272.44,-453.78 275.1,-460.26"/>
</g>
<!-- AttackParrying -->
<g id="node5" class="node">
<title>AttackParrying</title>
<polygon fill="none" stroke="black" points="42.38,-437.88 42.38,-459.62 143.62,-459.62 143.62,-437.88 42.38,-437.88"/>
<text text-anchor="start" x="45.38" y="-443.32" font-family="Helvetica,sans-Serif" font-size="14.00">AttackParrying &#160;</text>
<polygon fill="none" stroke="black" points="42.38,-416.12 42.38,-437.88 143.62,-437.88 143.62,-416.12 42.38,-416.12"/>
<text text-anchor="start" x="45.38" y="-422.57" font-family="Helvetica,sans-Serif" font-size="12.00" fill="#838b8b">0.67s: Done</text>
<text text-anchor="start" x="109.88" y="-422.57" font-family="Helvetica,sans-Serif" font-size="14.00"> &#160;</text>
</g>
<!-- AttackParrying&#45;&gt;Engaging -->
<g id="edge3" class="edge">
<title>AttackParrying&#45;&gt;Engaging</title>
<path fill="none" stroke="#cdc8b1" d="M151.42,-437.88C189.08,-437.88 237.72,-437.88 273.13,-437.88"/>
<polygon fill="#cdc8b1" stroke="#cdc8b1" points="273.09,-441.38 283.09,-437.88 273.09,-434.38 273.09,-441.38"/>
</g>
<!-- HurtState -->
<g id="node6" class="node">
<title>HurtState</title>
<polygon fill="none" stroke="black" points="34.5,-196 34.5,-217.75 151.5,-217.75 151.5,-196 34.5,-196"/>
<text text-anchor="start" x="60.75" y="-201.45" font-family="Helvetica,sans-Serif" font-size="14.00">HurtState &#160;</text>
<polygon fill="none" stroke="black" points="34.5,-164 34.5,-196 151.5,-196 151.5,-164 34.5,-164"/>
<text text-anchor="start" x="37.5" y="-182.6" font-family="Helvetica,sans-Serif" font-size="12.00" fill="#838b8b">0.00s: EnableGravity</text>
<text text-anchor="start" x="37.5" y="-168.7" font-family="Helvetica,sans-Serif" font-size="12.00" fill="#838b8b">0.17s: Done</text>
<text text-anchor="start" x="102" y="-168.7" font-family="Helvetica,sans-Serif" font-size="14.00"> &#160;</text>
</g>
<!-- HurtState&#45;&gt;PreAttack -->
<g id="edge4" class="edge">
<title>HurtState&#45;&gt;PreAttack</title>
<path fill="none" stroke="#cdc8b1" d="M159.48,-179.31C195.69,-172.91 239.87,-165.1 272.77,-159.29"/>
<polygon fill="#cdc8b1" stroke="#cdc8b1" points="273.18,-162.77 282.42,-157.58 271.96,-155.88 273.18,-162.77"/>
</g>
<!-- Hurt_BigState -->
<g id="node7" class="node">
<title>Hurt_BigState</title>
<polygon fill="none" stroke="black" points="34.5,-116 34.5,-137.75 151.5,-137.75 151.5,-116 34.5,-116"/>
<text text-anchor="start" x="47.25" y="-121.45" font-family="Helvetica,sans-Serif" font-size="14.00">Hurt_BigState &#160;</text>
<polygon fill="none" stroke="black" points="34.5,-84 34.5,-116 151.5,-116 151.5,-84 34.5,-84"/>
<text text-anchor="start" x="37.5" y="-102.6" font-family="Helvetica,sans-Serif" font-size="12.00" fill="#838b8b">0.00s: EnableGravity</text>
<text text-anchor="start" x="37.5" y="-88.7" font-family="Helvetica,sans-Serif" font-size="12.00" fill="#838b8b">1.00s: Done</text>
<text text-anchor="start" x="102" y="-88.7" font-family="Helvetica,sans-Serif" font-size="14.00"> &#160;</text>
</g>
<!-- Hurt_BigState&#45;&gt;PreAttack -->
<g id="edge5" class="edge">
<title>Hurt_BigState&#45;&gt;PreAttack</title>
<path fill="none" stroke="#cdc8b1" d="M159.48,-122.44C195.69,-128.84 239.87,-136.65 272.77,-142.46"/>
<polygon fill="#cdc8b1" stroke="#cdc8b1" points="271.96,-145.87 282.42,-144.17 273.18,-138.98 271.96,-145.87"/>
</g>
<!-- PostureBreak -->
<g id="node8" class="node">
<title>PostureBreak</title>
<polygon fill="none" stroke="black" points="34.5,-36 34.5,-57.75 151.5,-57.75 151.5,-36 34.5,-36"/>
<text text-anchor="start" x="48.38" y="-41.45" font-family="Helvetica,sans-Serif" font-size="14.00">PostureBreak &#160;</text>
<polygon fill="none" stroke="black" points="34.5,-4 34.5,-36 151.5,-36 151.5,-4 34.5,-4"/>
<text text-anchor="start" x="37.5" y="-22.6" font-family="Helvetica,sans-Serif" font-size="12.00" fill="#838b8b">0.00s: EnableGravity</text>
<text text-anchor="start" x="37.5" y="-8.7" font-family="Helvetica,sans-Serif" font-size="12.00" fill="#838b8b">3.50s: Done</text>
<text text-anchor="start" x="102" y="-8.7" font-family="Helvetica,sans-Serif" font-size="14.00"> &#160;</text>
</g>
<!-- PostureBreak&#45;&gt;PreAttack -->
<g id="edge6" class="edge">
<title>PostureBreak&#45;&gt;PreAttack</title>
<path fill="none" stroke="#cdc8b1" d="M152.52,-61.64C158.43,-64.76 164.33,-67.88 170,-70.88 205.54,-89.68 245.75,-111.08 275.64,-127.01"/>
<polygon fill="#cdc8b1" stroke="#cdc8b1" points="273.95,-130.07 284.42,-131.69 277.24,-123.9 273.95,-130.07"/>
</g>
<!-- RollThrough -->
<g id="node9" class="node">
<title>RollThrough</title>
<polygon fill="none" stroke="black" points="34.12,-368 34.12,-389.75 151.88,-389.75 151.88,-368 34.12,-368"/>
<text text-anchor="start" x="52.5" y="-373.45" font-family="Helvetica,sans-Serif" font-size="14.00">RollThrough &#160;</text>
<polygon fill="none" stroke="black" points="34.12,-336 34.12,-368 151.88,-368 151.88,-336 34.12,-336"/>
<text text-anchor="start" x="37.12" y="-354.6" font-family="Helvetica,sans-Serif" font-size="12.00" fill="#838b8b">0.67s: LinkNextMove</text>
<text text-anchor="start" x="37.12" y="-340.7" font-family="Helvetica,sans-Serif" font-size="12.00" fill="#838b8b">0.68s: Done</text>
<text text-anchor="start" x="101.62" y="-340.7" font-family="Helvetica,sans-Serif" font-size="14.00"> &#160;</text>
</g>
<!-- RollThrough&#45;&gt;Engaging -->
<g id="edge7" class="edge">
<title>RollThrough&#45;&gt;Engaging</title>
<path fill="none" stroke="#cdc8b1" d="M159.78,-384.67C196.37,-396.79 241.04,-411.59 273.96,-422.5"/>
<polygon fill="#cdc8b1" stroke="#cdc8b1" points="272.62,-425.74 283.21,-425.56 274.82,-419.1 272.62,-425.74"/>
</g>
<!-- RollThrough_mustuse -->
<g id="node10" class="node">
<title>RollThrough_mustuse</title>
<polygon fill="none" stroke="black" stroke-dasharray="1,5" points="371.5,-380.88 271.25,-380.88 271.25,-344.88 371.5,-344.88 371.5,-380.88"/>
<text text-anchor="start" x="281.25" y="-357.45" font-family="Helvetica,sans-Serif" font-size="14.00">1 Undefined &#160;</text>
</g>
<!-- RollThrough&#45;&gt;RollThrough_mustuse -->
<g id="edge8" class="edge">
<title>RollThrough&#45;&gt;RollThrough_mustuse</title>
<path fill="none" stroke="#458b74" d="M159.78,-362.88C191.27,-362.88 228.72,-362.88 259.54,-362.88"/>
<polygon fill="#458b74" stroke="#458b74" points="259.49,-366.38 269.49,-362.88 259.49,-359.38 259.49,-366.38"/>
<text text-anchor="middle" x="220.62" y="-365.32" font-family="Helvetica,sans-Serif" font-size="14.00" fill="#458b74">Weight</text>
</g>
<!-- Wandering_Idle -->
<g id="node11" class="node">
<title>Wandering_Idle</title>
<polygon fill="none" stroke="black" points="163.62,-633.88 22.38,-633.88 22.38,-597.88 163.62,-597.88 163.62,-633.88"/>
<text text-anchor="middle" x="93" y="-610.45" font-family="Helvetica,sans-Serif" font-size="14.00">Wandering_Idle (Init)</text>
</g>
<!-- Level Once Sensor -->
<g id="node12" class="node">
<title>Level Once Sensor</title>
<polygon fill="none" stroke="black" points="158.75,-687.88 27.25,-687.88 27.25,-651.88 158.75,-651.88 158.75,-687.88"/>
<text text-anchor="middle" x="93" y="-664.45" font-family="Helvetica,sans-Serif" font-size="14.00">Level Once Sensor</text>
</g>
<!-- Level Once Sensor_mustuse -->
<g id="node13" class="node">
<title>Level Once Sensor_mustuse</title>
<polygon fill="none" stroke="black" stroke-dasharray="1,5" points="371.5,-687.88 271.25,-687.88 271.25,-651.88 371.5,-651.88 371.5,-687.88"/>
<text text-anchor="start" x="281.25" y="-664.45" font-family="Helvetica,sans-Serif" font-size="14.00">1 Undefined &#160;</text>
</g>
<!-- Level Once Sensor&#45;&gt;Level Once Sensor_mustuse -->
<g id="edge9" class="edge">
<title>Level Once Sensor&#45;&gt;Level Once Sensor_mustuse</title>
<path fill="none" stroke="#458b74" d="M159.17,-669.88C190.93,-669.88 228.88,-669.88 259.98,-669.88"/>
<polygon fill="#458b74" stroke="#458b74" points="259.59,-673.38 269.59,-669.88 259.59,-666.38 259.59,-673.38"/>
<text text-anchor="middle" x="220.62" y="-672.33" font-family="Helvetica,sans-Serif" font-size="14.00" fill="#458b74">Weight</text>
</g>
<!-- RunAwaySensor -->
<g id="node14" class="node">
<title>RunAwaySensor</title>
<polygon fill="none" stroke="black" points="151.25,-741.88 34.75,-741.88 34.75,-705.88 151.25,-705.88 151.25,-741.88"/>
<text text-anchor="middle" x="93" y="-718.45" font-family="Helvetica,sans-Serif" font-size="14.00">RunAwaySensor</text>
</g>
<!-- AttackSensor -->
<g id="node15" class="node">
<title>AttackSensor</title>
<polygon fill="none" stroke="black" points="141.12,-795.88 44.88,-795.88 44.88,-759.88 141.12,-759.88 141.12,-795.88"/>
<text text-anchor="middle" x="93" y="-772.45" font-family="Helvetica,sans-Serif" font-size="14.00">AttackSensor</text>
</g>
<!-- AttackSensor_mustuse -->
<g id="node16" class="node">
<title>AttackSensor_mustuse</title>
<polygon fill="none" stroke="black" stroke-dasharray="1,5" points="371.5,-795.88 271.25,-795.88 271.25,-759.88 371.5,-759.88 371.5,-795.88"/>
<text text-anchor="start" x="281.25" y="-772.45" font-family="Helvetica,sans-Serif" font-size="14.00">1 Undefined &#160;</text>
</g>
<!-- AttackSensor&#45;&gt;AttackSensor_mustuse -->
<g id="edge10" class="edge">
<title>AttackSensor&#45;&gt;AttackSensor_mustuse</title>
<path fill="none" stroke="#458b74" d="M141.46,-777.88C175.88,-777.88 222.72,-777.88 259.84,-777.88"/>
<polygon fill="#458b74" stroke="#458b74" points="259.51,-781.38 269.51,-777.88 259.51,-774.38 259.51,-781.38"/>
<text text-anchor="middle" x="220.62" y="-780.33" font-family="Helvetica,sans-Serif" font-size="14.00" fill="#458b74">Weight</text>
</g>
<!-- DodgePredictSensor -->
<g id="node17" class="node">
<title>DodgePredictSensor</title>
<polygon fill="none" stroke="black" points="24,-839.88 24,-861.62 162,-861.62 162,-839.88 24,-839.88"/>
<text text-anchor="start" x="27" y="-845.33" font-family="Helvetica,sans-Serif" font-size="14.00">DodgePredictSensor &#160;</text>
<polygon fill="none" stroke="black" points="24,-818.12 24,-839.88 162,-839.88 162,-818.12 24,-818.12"/>
<text text-anchor="start" x="27" y="-824.58" font-family="Helvetica,sans-Serif" font-size="12.00" fill="#838b8b">if: Dodge</text>
<text text-anchor="start" x="75" y="-824.58" font-family="Helvetica,sans-Serif" font-size="14.00"> &#160;</text>
</g>
<!-- AttackPredictSensor -->
<g id="node18" class="node">
<title>AttackPredictSensor</title>
<polygon fill="none" stroke="black" points="25.12,-909.88 25.12,-931.62 160.88,-931.62 160.88,-909.88 25.12,-909.88"/>
<text text-anchor="start" x="28.12" y="-915.33" font-family="Helvetica,sans-Serif" font-size="14.00">AttackPredictSensor &#160;</text>
<polygon fill="none" stroke="black" points="25.12,-888.12 25.12,-909.88 160.88,-909.88 160.88,-888.12 25.12,-888.12"/>
<text text-anchor="start" x="28.12" y="-894.58" font-family="Helvetica,sans-Serif" font-size="12.00" fill="#838b8b">if: Attack</text>
<text text-anchor="start" x="73.12" y="-894.58" font-family="Helvetica,sans-Serif" font-size="14.00"> &#160;</text>
</g>
<!-- AttackRunToSensor -->
<g id="node19" class="node">
<title>AttackRunToSensor</title>
<polygon fill="none" stroke="black" points="26.62,-979.88 26.62,-1001.62 159.38,-1001.62 159.38,-979.88 26.62,-979.88"/>
<text text-anchor="start" x="29.62" y="-985.33" font-family="Helvetica,sans-Serif" font-size="14.00">AttackRunToSensor &#160;</text>
<polygon fill="none" stroke="black" points="26.62,-958.12 26.62,-979.88 159.38,-979.88 159.38,-958.12 26.62,-958.12"/>
<text text-anchor="start" x="29.62" y="-964.58" font-family="Helvetica,sans-Serif" font-size="12.00" fill="#838b8b">if: state is Engaging</text>
<text text-anchor="start" x="133.88" y="-964.58" font-family="Helvetica,sans-Serif" font-size="14.00"> &#160;</text>
</g>
<!-- ShootSensor -->
<g id="node20" class="node">
<title>ShootSensor</title>
<polygon fill="none" stroke="black" points="140,-1059.88 46,-1059.88 46,-1023.88 140,-1023.88 140,-1059.88"/>
<text text-anchor="middle" x="93" y="-1036.45" font-family="Helvetica,sans-Serif" font-size="14.00">ShootSensor</text>
</g>
<!-- ShootSensor_linked -->
<g id="node21" class="node">
<title>ShootSensor_linked</title>
<polygon fill="none" stroke="black" stroke-dasharray="1,5" points="348.38,-1059.88 294.38,-1059.88 294.38,-1023.88 348.38,-1023.88 348.38,-1059.88"/>
<text text-anchor="start" x="300" y="-1036.45" font-family="Helvetica,sans-Serif" font-size="14.00">Shoot &#160;</text>
</g>
<!-- ShootSensor&#45;&gt;ShootSensor_linked -->
<g id="edge11" class="edge">
<title>ShootSensor&#45;&gt;ShootSensor_linked</title>
<path fill="none" stroke="#66cdaa" d="M140.36,-1041.88C182.32,-1041.88 243.39,-1041.88 282.5,-1041.88"/>
<polygon fill="#66cdaa" stroke="#66cdaa" points="282.37,-1045.38 292.37,-1041.88 282.37,-1038.38 282.37,-1045.38"/>
<text text-anchor="middle" x="220.62" y="-1044.33" font-family="Helvetica,sans-Serif" font-size="14.00" fill="#66cdaa">QueueEnd</text>
</g>
</g>
</svg>
