<?xml version="1.0" encoding="UTF-8" standalone="no"?>
<!DOCTYPE svg PUBLIC "-//W3C//DTD SVG 1.1//EN"
 "http://www.w3.org/Graphics/SVG/1.1/DTD/svg11.dtd">
<!-- Generated by graphviz version 12.2.1 (20241206.2353)
 -->
<!-- Title: Foo Pages: 1 -->
<svg width="396pt" height="666pt"
 viewBox="0.00 0.00 395.50 665.75" xmlns="http://www.w3.org/2000/svg" xmlns:xlink="http://www.w3.org/1999/xlink">
<g id="graph0" class="graph" transform="scale(1 1) rotate(0) translate(4 661.75)">
<title>Foo</title>
<polygon fill="white" stroke="none" points="-4,4 -4,-661.75 391.5,-661.75 391.5,4 -4,4"/>
<g id="clust1" class="cluster">
<title>cluster_attacksensors</title>
<polygon fill="none" stroke="black" points="8,-255.75 8,-649.75 379.5,-649.75 379.5,-255.75 8,-255.75"/>
<text text-anchor="middle" x="193.75" y="-632.45" font-family="Helvetica,sans-Serif" font-size="14.00">Attack Sensors</text>
</g>
<!-- Attack -->
<g id="node1" class="node">
<title>Attack</title>
<polygon fill="none" stroke="black" points="54,-165.75 54,-187.5 132,-187.5 132,-165.75 54,-165.75"/>
<text text-anchor="start" x="70.5" y="-171.2" font-family="Helvetica,sans-Serif" font-size="14.00">Attack &#160;</text>
<polygon fill="none" stroke="black" points="54,-144 54,-165.75 132,-165.75 132,-144 54,-144"/>
<text text-anchor="start" x="57" y="-150.45" font-family="Helvetica,sans-Serif" font-size="12.00" fill="#838b8b">0.75s: Done</text>
<text text-anchor="start" x="121.5" y="-150.45" font-family="Helvetica,sans-Serif" font-size="14.00"> &#160;</text>
</g>
<!-- DeadState -->
<g id="node2" class="node">
<title>DeadState</title>
<polygon fill="none" stroke="black" points="361.25,-113.75 281.5,-113.75 281.5,-77.75 361.25,-77.75 361.25,-113.75"/>
<text text-anchor="middle" x="321.38" y="-90.33" font-family="Helvetica,sans-Serif" font-size="14.00">DeadState</text>
</g>
<!-- Attack&#45;&gt;DeadState -->
<g id="edge1" class="edge">
<title>Attack&#45;&gt;DeadState</title>
<path fill="none" stroke="#cdc8b1" d="M139.81,-151.58C177.64,-139.89 231.25,-123.31 270.22,-111.26"/>
<polygon fill="#cdc8b1" stroke="#cdc8b1" points="271.09,-114.65 279.61,-108.36 269.02,-107.97 271.09,-114.65"/>
</g>
<!-- Explode -->
<g id="node3" class="node">
<title>Explode</title>
<polygon fill="none" stroke="black" points="54,-95.75 54,-117.5 132,-117.5 132,-95.75 54,-95.75"/>
<text text-anchor="start" x="64.88" y="-101.2" font-family="Helvetica,sans-Serif" font-size="14.00">Explode &#160;</text>
<polygon fill="none" stroke="black" points="54,-74 54,-95.75 132,-95.75 132,-74 54,-74"/>
<text text-anchor="start" x="57" y="-80.45" font-family="Helvetica,sans-Serif" font-size="12.00" fill="#838b8b">0.25s: Done</text>
<text text-anchor="start" x="121.5" y="-80.45" font-family="Helvetica,sans-Serif" font-size="14.00"> &#160;</text>
</g>
<!-- Explode&#45;&gt;DeadState -->
<g id="edge2" class="edge">
<title>Explode&#45;&gt;DeadState</title>
<path fill="none" stroke="#cdc8b1" d="M139.81,-95.75C177.47,-95.75 230.79,-95.75 269.72,-95.75"/>
<polygon fill="#cdc8b1" stroke="#cdc8b1" points="269.54,-99.25 279.54,-95.75 269.54,-92.25 269.54,-99.25"/>
</g>
<!-- HurtState -->
<g id="node4" class="node">
<title>HurtState</title>
<polygon fill="none" stroke="black" points="54,-25.75 54,-47.5 132,-47.5 132,-25.75 54,-25.75"/>
<text text-anchor="start" x="60.75" y="-31.2" font-family="Helvetica,sans-Serif" font-size="14.00">HurtState &#160;</text>
<polygon fill="none" stroke="black" points="54,-4 54,-25.75 132,-25.75 132,-4 54,-4"/>
<text text-anchor="start" x="57" y="-10.45" font-family="Helvetica,sans-Serif" font-size="12.00" fill="#838b8b">0.15s: Done</text>
<text text-anchor="start" x="121.5" y="-10.45" font-family="Helvetica,sans-Serif" font-size="14.00"> &#160;</text>
</g>
<!-- HurtState&#45;&gt;DeadState -->
<g id="edge3" class="edge">
<title>HurtState&#45;&gt;DeadState</title>
<path fill="none" stroke="#cdc8b1" d="M139.81,-39.92C177.64,-51.61 231.25,-68.19 270.22,-80.24"/>
<polygon fill="#cdc8b1" stroke="#cdc8b1" points="269.02,-83.53 279.61,-83.14 271.09,-76.85 269.02,-83.53"/>
</g>
<!-- Wandering_Idle -->
<g id="node5" class="node">
<title>Wandering_Idle</title>
<polygon fill="none" stroke="black" points="163.62,-245.75 22.38,-245.75 22.38,-209.75 163.62,-209.75 163.62,-245.75"/>
<text text-anchor="middle" x="93" y="-222.32" font-family="Helvetica,sans-Serif" font-size="14.00">Wandering_Idle (Init)</text>
</g>
<!-- Level Once Sensor -->
<g id="node6" class="node">
<title>Level Once Sensor</title>
<polygon fill="none" stroke="black" points="158.75,-299.75 27.25,-299.75 27.25,-263.75 158.75,-263.75 158.75,-299.75"/>
<text text-anchor="middle" x="93" y="-276.32" font-family="Helvetica,sans-Serif" font-size="14.00">Level Once Sensor</text>
</g>
<!-- Level Once Sensor_linked -->
<g id="node7" class="node">
<title>Level Once Sensor_linked</title>
<polygon fill="none" stroke="black" stroke-dasharray="1,5" points="349.48,-299.75 293.27,-299.75 293.27,-263.75 349.48,-263.75 349.48,-299.75"/>
<text text-anchor="start" x="298.88" y="-276.32" font-family="Helvetica,sans-Serif" font-size="14.00">Attack &#160;</text>
</g>
<!-- Level Once Sensor&#45;&gt;Level Once Sensor_linked -->
<g id="edge4" class="edge">
<title>Level Once Sensor&#45;&gt;Level Once Sensor_linked</title>
<path fill="none" stroke="#66cdaa" d="M159.17,-281.75C198.9,-281.75 248.31,-281.75 281.88,-281.75"/>
<polygon fill="#66cdaa" stroke="#66cdaa" points="281.54,-285.25 291.54,-281.75 281.54,-278.25 281.54,-285.25"/>
<text text-anchor="middle" x="220.62" y="-284.2" font-family="Helvetica,sans-Serif" font-size="14.00" fill="#66cdaa">QueueEnd</text>
</g>
<!-- Level Once Sensor_mustuse -->
<g id="node8" class="node">
<title>Level Once Sensor_mustuse</title>
<polygon fill="none" stroke="black" stroke-dasharray="1,5" points="371.5,-353.75 271.25,-353.75 271.25,-317.75 371.5,-317.75 371.5,-353.75"/>
<text text-anchor="start" x="281.25" y="-330.32" font-family="Helvetica,sans-Serif" font-size="14.00">1 Undefined &#160;</text>
</g>
<!-- Level Once Sensor&#45;&gt;Level Once Sensor_mustuse -->
<g id="edge5" class="edge">
<title>Level Once Sensor&#45;&gt;Level Once Sensor_mustuse</title>
<path fill="none" stroke="#458b74" d="M159.17,-297.3C190.93,-304.87 228.88,-313.92 259.98,-321.34"/>
<polygon fill="#458b74" stroke="#458b74" points="259.09,-324.73 269.63,-323.64 260.71,-317.92 259.09,-324.73"/>
<text text-anchor="middle" x="220.62" y="-320.73" font-family="Helvetica,sans-Serif" font-size="14.00" fill="#458b74">Weight</text>
</g>
<!-- RunAwaySensor -->
<g id="node9" class="node">
<title>RunAwaySensor</title>
<polygon fill="none" stroke="black" points="151.25,-353.75 34.75,-353.75 34.75,-317.75 151.25,-317.75 151.25,-353.75"/>
<text text-anchor="middle" x="93" y="-330.32" font-family="Helvetica,sans-Serif" font-size="14.00">RunAwaySensor</text>
</g>
<!-- AttackSensor -->
<g id="node10" class="node">
<title>AttackSensor</title>
<polygon fill="none" stroke="black" points="141.12,-407.75 44.88,-407.75 44.88,-371.75 141.12,-371.75 141.12,-407.75"/>
<text text-anchor="middle" x="93" y="-384.32" font-family="Helvetica,sans-Serif" font-size="14.00">AttackSensor</text>
</g>
<!-- AttackSensor_linked -->
<g id="node11" class="node">
<title>AttackSensor_linked</title>
<polygon fill="none" stroke="black" stroke-dasharray="1,5" points="349.48,-407.75 293.27,-407.75 293.27,-371.75 349.48,-371.75 349.48,-407.75"/>
<text text-anchor="start" x="298.88" y="-384.32" font-family="Helvetica,sans-Serif" font-size="14.00">Attack &#160;</text>
</g>
<!-- AttackSensor&#45;&gt;AttackSensor_linked -->
<g id="edge6" class="edge">
<title>AttackSensor&#45;&gt;AttackSensor_linked</title>
<path fill="none" stroke="#66cdaa" d="M141.46,-389.75C183.05,-389.75 242.76,-389.75 281.56,-389.75"/>
<polygon fill="#66cdaa" stroke="#66cdaa" points="281.37,-393.25 291.37,-389.75 281.37,-386.25 281.37,-393.25"/>
<text text-anchor="middle" x="220.62" y="-392.2" font-family="Helvetica,sans-Serif" font-size="14.00" fill="#66cdaa">QueueEnd</text>
</g>
<!-- DodgePredictSensor -->
<g id="node12" class="node">
<title>DodgePredictSensor</title>
<polygon fill="none" stroke="black" points="24,-451.75 24,-473.5 162,-473.5 162,-451.75 24,-451.75"/>
<text text-anchor="start" x="27" y="-457.2" font-family="Helvetica,sans-Serif" font-size="14.00">DodgePredictSensor &#160;</text>
<polygon fill="none" stroke="black" points="24,-430 24,-451.75 162,-451.75 162,-430 24,-430"/>
<text text-anchor="start" x="27" y="-436.45" font-family="Helvetica,sans-Serif" font-size="12.00" fill="#838b8b">if: Dodge</text>
<text text-anchor="start" x="75" y="-436.45" font-family="Helvetica,sans-Serif" font-size="14.00"> &#160;</text>
</g>
<!-- DodgePredictSensor_linked -->
<g id="node13" class="node">
<title>DodgePredictSensor_linked</title>
<polygon fill="none" stroke="black" stroke-dasharray="1,5" points="349.48,-469.75 293.27,-469.75 293.27,-433.75 349.48,-433.75 349.48,-469.75"/>
<text text-anchor="start" x="298.88" y="-446.32" font-family="Helvetica,sans-Serif" font-size="14.00">Attack &#160;</text>
</g>
<!-- DodgePredictSensor&#45;&gt;DodgePredictSensor_linked -->
<g id="edge7" class="edge">
<title>DodgePredictSensor&#45;&gt;DodgePredictSensor_linked</title>
<path fill="none" stroke="#66cdaa" d="M169.69,-451.75C207.14,-451.75 250.76,-451.75 281.4,-451.75"/>
<polygon fill="#66cdaa" stroke="#66cdaa" points="281.36,-455.25 291.36,-451.75 281.36,-448.25 281.36,-455.25"/>
<text text-anchor="middle" x="220.62" y="-454.2" font-family="Helvetica,sans-Serif" font-size="14.00" fill="#66cdaa">QueueEnd</text>
</g>
<!-- AttackPredictSensor -->
<g id="node14" class="node">
<title>AttackPredictSensor</title>
<polygon fill="none" stroke="black" points="25.12,-521.75 25.12,-543.5 160.88,-543.5 160.88,-521.75 25.12,-521.75"/>
<text text-anchor="start" x="28.12" y="-527.2" font-family="Helvetica,sans-Serif" font-size="14.00">AttackPredictSensor &#160;</text>
<polygon fill="none" stroke="black" points="25.12,-500 25.12,-521.75 160.88,-521.75 160.88,-500 25.12,-500"/>
<text text-anchor="start" x="28.12" y="-506.45" font-family="Helvetica,sans-Serif" font-size="12.00" fill="#838b8b">if: Attack</text>
<text text-anchor="start" x="73.12" y="-506.45" font-family="Helvetica,sans-Serif" font-size="14.00"> &#160;</text>
</g>
<!-- AttackPredictSensor_linked -->
<g id="node15" class="node">
<title>AttackPredictSensor_linked</title>
<polygon fill="none" stroke="black" stroke-dasharray="1,5" points="349.48,-539.75 293.27,-539.75 293.27,-503.75 349.48,-503.75 349.48,-539.75"/>
<text text-anchor="start" x="298.88" y="-516.33" font-family="Helvetica,sans-Serif" font-size="14.00">Attack &#160;</text>
</g>
<!-- AttackPredictSensor&#45;&gt;AttackPredictSensor_linked -->
<g id="edge8" class="edge">
<title>AttackPredictSensor&#45;&gt;AttackPredictSensor_linked</title>
<path fill="none" stroke="#66cdaa" d="M168.75,-521.75C206.55,-521.75 250.84,-521.75 281.75,-521.75"/>
<polygon fill="#66cdaa" stroke="#66cdaa" points="281.39,-525.25 291.39,-521.75 281.39,-518.25 281.39,-525.25"/>
<text text-anchor="middle" x="220.62" y="-524.2" font-family="Helvetica,sans-Serif" font-size="14.00" fill="#66cdaa">QueueEnd</text>
</g>
<!-- AttackRunToSensor -->
<g id="node16" class="node">
<title>AttackRunToSensor</title>
<polygon fill="none" stroke="black" points="26.62,-591.75 26.62,-613.5 159.38,-613.5 159.38,-591.75 26.62,-591.75"/>
<text text-anchor="start" x="29.62" y="-597.2" font-family="Helvetica,sans-Serif" font-size="14.00">AttackRunToSensor &#160;</text>
<polygon fill="none" stroke="black" points="26.62,-570 26.62,-591.75 159.38,-591.75 159.38,-570 26.62,-570"/>
<text text-anchor="start" x="29.62" y="-576.45" font-family="Helvetica,sans-Serif" font-size="12.00" fill="#838b8b">if: state is Engaging</text>
<text text-anchor="start" x="133.88" y="-576.45" font-family="Helvetica,sans-Serif" font-size="14.00"> &#160;</text>
</g>
<!-- AttackRunToSensor_linked -->
<g id="node17" class="node">
<title>AttackRunToSensor_linked</title>
<polygon fill="none" stroke="black" stroke-dasharray="1,5" points="349.48,-609.75 293.27,-609.75 293.27,-573.75 349.48,-573.75 349.48,-609.75"/>
<text text-anchor="start" x="298.88" y="-586.33" font-family="Helvetica,sans-Serif" font-size="14.00">Attack &#160;</text>
</g>
<!-- AttackRunToSensor&#45;&gt;AttackRunToSensor_linked -->
<g id="edge9" class="edge">
<title>AttackRunToSensor&#45;&gt;AttackRunToSensor_linked</title>
<path fill="none" stroke="#66cdaa" d="M167.18,-591.75C205.21,-591.75 250.16,-591.75 281.49,-591.75"/>
<polygon fill="#66cdaa" stroke="#66cdaa" points="281.28,-595.25 291.28,-591.75 281.27,-588.25 281.28,-595.25"/>
<text text-anchor="middle" x="220.62" y="-594.2" font-family="Helvetica,sans-Serif" font-size="14.00" fill="#66cdaa">QueueEnd</text>
</g>
</g>
</svg>
