<?xml version="1.0" encoding="UTF-8" standalone="no"?>
<!DOCTYPE svg PUBLIC "-//W3C//DTD SVG 1.1//EN"
 "http://www.w3.org/Graphics/SVG/1.1/DTD/svg11.dtd">
<!-- Generated by graphviz version 12.2.1 (20241206.2353)
 -->
<!-- Title: Foo Pages: 1 -->
<svg width="373pt" height="664pt"
 viewBox="0.00 0.00 372.88 664.00" xmlns="http://www.w3.org/2000/svg" xmlns:xlink="http://www.w3.org/1999/xlink">
<g id="graph0" class="graph" transform="scale(1 1) rotate(0) translate(4 660)">
<title>Foo</title>
<polygon fill="white" stroke="none" points="-4,4 -4,-660 368.88,-660 368.88,4 -4,4"/>
<g id="clust1" class="cluster">
<title>cluster_attacksensors</title>
<polygon fill="none" stroke="black" points="8,-8 8,-402 356.88,-402 356.88,-8 8,-8"/>
<text text-anchor="middle" x="182.44" y="-384.7" font-family="Helvetica,sans-Serif" font-size="14.00">Attack Sensors</text>
</g>
<!-- Level Once Sensor -->
<g id="node1" class="node">
<title>Level Once Sensor</title>
<polygon fill="none" stroke="black" points="28.5,-23.12 28.5,-44.88 157.5,-44.88 157.5,-23.12 28.5,-23.12"/>
<text text-anchor="start" x="31.5" y="-28.57" font-family="Helvetica,sans-Serif" font-size="14.00">Level Once Sensor &#160;</text>
</g>
<!-- Level Once Sensor_linked -->
<g id="node2" class="node">
<title>Level Once Sensor_linked</title>
<polygon fill="none" stroke="black" stroke-dasharray="1,5" points="339.23,-52 283.02,-52 283.02,-16 339.23,-16 339.23,-52"/>
<text text-anchor="start" x="288.62" y="-28.57" font-family="Helvetica,sans-Serif" font-size="14.00">Attack &#160;</text>
</g>
<!-- Level Once Sensor&#45;&gt;Level Once Sensor_linked -->
<g id="edge1" class="edge">
<title>Level Once Sensor&#45;&gt;Level Once Sensor_linked</title>
<path fill="none" stroke="#66cdaa" d="M165.37,-34C200.6,-34 241.73,-34 271.13,-34"/>
<polygon fill="#66cdaa" stroke="#66cdaa" points="271.05,-37.5 281.05,-34 271.05,-30.5 271.05,-37.5"/>
<text text-anchor="middle" x="220.62" y="-36.45" font-family="Helvetica,sans-Serif" font-size="14.00" fill="#66cdaa">QueueEnd</text>
</g>
<!-- Level Once Sensor_weight -->
<g id="node3" class="node">
<title>Level Once Sensor_weight</title>
<polygon fill="none" stroke="black" stroke-dasharray="1,5" points="348.88,-106 273.38,-106 273.38,-70 348.88,-70 348.88,-106"/>
<text text-anchor="start" x="283.38" y="-82.58" font-family="Helvetica,sans-Serif" font-size="14.00">1 Attack &#160;</text>
</g>
<!-- Level Once Sensor&#45;&gt;Level Once Sensor_weight -->
<g id="edge2" class="edge">
<title>Level Once Sensor&#45;&gt;Level Once Sensor_weight</title>
<path fill="none" stroke="#458b74" d="M165.37,-51.83C197.17,-59.78 233.79,-68.93 262.23,-76.03"/>
<polygon fill="#458b74" stroke="#458b74" points="261.08,-79.35 271.63,-78.38 262.78,-72.56 261.08,-79.35"/>
<text text-anchor="middle" x="220.62" y="-75.97" font-family="Helvetica,sans-Serif" font-size="14.00" fill="#458b74">Weight</text>
</g>
<!-- RunAwaySensor -->
<g id="node4" class="node">
<title>RunAwaySensor</title>
<polygon fill="none" stroke="black" points="36,-77.12 36,-98.88 150,-98.88 150,-77.12 36,-77.12"/>
<text text-anchor="start" x="39" y="-82.58" font-family="Helvetica,sans-Serif" font-size="14.00">RunAwaySensor &#160;</text>
</g>
<!-- AttackSensor -->
<g id="node5" class="node">
<title>AttackSensor</title>
<polygon fill="none" stroke="black" points="46.12,-131.12 46.12,-152.88 139.88,-152.88 139.88,-131.12 46.12,-131.12"/>
<text text-anchor="start" x="49.12" y="-136.57" font-family="Helvetica,sans-Serif" font-size="14.00">AttackSensor &#160;</text>
</g>
<!-- AttackSensor_linked -->
<g id="node6" class="node">
<title>AttackSensor_linked</title>
<polygon fill="none" stroke="black" stroke-dasharray="1,5" points="339.23,-160 283.02,-160 283.02,-124 339.23,-124 339.23,-160"/>
<text text-anchor="start" x="288.62" y="-136.57" font-family="Helvetica,sans-Serif" font-size="14.00">Attack &#160;</text>
</g>
<!-- AttackSensor&#45;&gt;AttackSensor_linked -->
<g id="edge3" class="edge">
<title>AttackSensor&#45;&gt;AttackSensor_linked</title>
<path fill="none" stroke="#66cdaa" d="M147.7,-142C186.06,-142 236.77,-142 271.26,-142"/>
<polygon fill="#66cdaa" stroke="#66cdaa" points="271.22,-145.5 281.22,-142 271.22,-138.5 271.22,-145.5"/>
<text text-anchor="middle" x="220.62" y="-144.45" font-family="Helvetica,sans-Serif" font-size="14.00" fill="#66cdaa">QueueEnd</text>
</g>
<!-- DodgePredictSensor -->
<g id="node7" class="node">
<title>DodgePredictSensor</title>
<polygon fill="none" stroke="black" points="24,-204 24,-225.75 162,-225.75 162,-204 24,-204"/>
<text text-anchor="start" x="27" y="-209.45" font-family="Helvetica,sans-Serif" font-size="14.00">DodgePredictSensor &#160;</text>
<polygon fill="none" stroke="black" points="24,-182.25 24,-204 162,-204 162,-182.25 24,-182.25"/>
<text text-anchor="start" x="27" y="-188.7" font-family="Helvetica,sans-Serif" font-size="12.00" fill="#838b8b">if: rollingCondition</text>
<text text-anchor="start" x="123.75" y="-188.7" font-family="Helvetica,sans-Serif" font-size="14.00"> &#160;</text>
</g>
<!-- DodgePredictSensor_linked -->
<g id="node8" class="node">
<title>DodgePredictSensor_linked</title>
<polygon fill="none" stroke="black" stroke-dasharray="1,5" points="339.23,-222 283.02,-222 283.02,-186 339.23,-186 339.23,-222"/>
<text text-anchor="start" x="288.62" y="-198.57" font-family="Helvetica,sans-Serif" font-size="14.00">Attack &#160;</text>
</g>
<!-- DodgePredictSensor&#45;&gt;DodgePredictSensor_linked -->
<g id="edge4" class="edge">
<title>DodgePredictSensor&#45;&gt;DodgePredictSensor_linked</title>
<path fill="none" stroke="#66cdaa" d="M169.89,-204C204.16,-204 243.18,-204 271.34,-204"/>
<polygon fill="#66cdaa" stroke="#66cdaa" points="271.19,-207.5 281.19,-204 271.19,-200.5 271.19,-207.5"/>
<text text-anchor="middle" x="220.62" y="-206.45" font-family="Helvetica,sans-Serif" font-size="14.00" fill="#66cdaa">QueueEnd</text>
</g>
<!-- AttackPredictSensor -->
<g id="node9" class="node">
<title>AttackPredictSensor</title>
<polygon fill="none" stroke="black" points="25.12,-274 25.12,-295.75 160.88,-295.75 160.88,-274 25.12,-274"/>
<text text-anchor="start" x="28.12" y="-279.45" font-family="Helvetica,sans-Serif" font-size="14.00">AttackPredictSensor &#160;</text>
<polygon fill="none" stroke="black" points="25.12,-252.25 25.12,-274 160.88,-274 160.88,-252.25 25.12,-252.25"/>
<text text-anchor="start" x="28.12" y="-258.7" font-family="Helvetica,sans-Serif" font-size="12.00" fill="#838b8b">if: attackCondition</text>
<text text-anchor="start" x="123.38" y="-258.7" font-family="Helvetica,sans-Serif" font-size="14.00"> &#160;</text>
</g>
<!-- AttackPredictSensor_linked -->
<g id="node10" class="node">
<title>AttackPredictSensor_linked</title>
<polygon fill="none" stroke="black" stroke-dasharray="1,5" points="339.23,-292 283.02,-292 283.02,-256 339.23,-256 339.23,-292"/>
<text text-anchor="start" x="288.62" y="-268.57" font-family="Helvetica,sans-Serif" font-size="14.00">Attack &#160;</text>
</g>
<!-- AttackPredictSensor&#45;&gt;AttackPredictSensor_linked -->
<g id="edge5" class="edge">
<title>AttackPredictSensor&#45;&gt;AttackPredictSensor_linked</title>
<path fill="none" stroke="#66cdaa" d="M168.68,-274C203.16,-274 242.68,-274 271.16,-274"/>
<polygon fill="#66cdaa" stroke="#66cdaa" points="271.13,-277.5 281.13,-274 271.13,-270.5 271.13,-277.5"/>
<text text-anchor="middle" x="220.62" y="-276.45" font-family="Helvetica,sans-Serif" font-size="14.00" fill="#66cdaa">QueueEnd</text>
</g>
<!-- AttackRunToSensor -->
<g id="node11" class="node">
<title>AttackRunToSensor</title>
<polygon fill="none" stroke="black" points="26.62,-344 26.62,-365.75 159.38,-365.75 159.38,-344 26.62,-344"/>
<text text-anchor="start" x="29.62" y="-349.45" font-family="Helvetica,sans-Serif" font-size="14.00">AttackRunToSensor &#160;</text>
<polygon fill="none" stroke="black" points="26.62,-322.25 26.62,-344 159.38,-344 159.38,-322.25 26.62,-322.25"/>
<text text-anchor="start" x="29.62" y="-328.7" font-family="Helvetica,sans-Serif" font-size="12.00" fill="#838b8b">if: state is Engaging</text>
<text text-anchor="start" x="133.88" y="-328.7" font-family="Helvetica,sans-Serif" font-size="14.00"> &#160;</text>
</g>
<!-- AttackRunToSensor_linked -->
<g id="node12" class="node">
<title>AttackRunToSensor_linked</title>
<polygon fill="none" stroke="black" stroke-dasharray="1,5" points="339.23,-362 283.02,-362 283.02,-326 339.23,-326 339.23,-362"/>
<text text-anchor="start" x="288.62" y="-338.57" font-family="Helvetica,sans-Serif" font-size="14.00">Attack &#160;</text>
</g>
<!-- AttackRunToSensor&#45;&gt;AttackRunToSensor_linked -->
<g id="edge6" class="edge">
<title>AttackRunToSensor&#45;&gt;AttackRunToSensor_linked</title>
<path fill="none" stroke="#66cdaa" d="M167.17,-344C202.15,-344 242.59,-344 271.52,-344"/>
<polygon fill="#66cdaa" stroke="#66cdaa" points="271.26,-347.5 281.26,-344 271.26,-340.5 271.26,-347.5"/>
<text text-anchor="middle" x="220.62" y="-346.45" font-family="Helvetica,sans-Serif" font-size="14.00" fill="#66cdaa">QueueEnd</text>
</g>
<!-- Attack -->
<g id="node13" class="node">
<title>Attack</title>
<polygon fill="none" stroke="black" points="54,-576 54,-597.75 132,-597.75 132,-576 54,-576"/>
<text text-anchor="start" x="70.5" y="-581.45" font-family="Helvetica,sans-Serif" font-size="14.00">Attack &#160;</text>
<polygon fill="none" stroke="black" points="54,-554.25 54,-576 132,-576 132,-554.25 54,-554.25"/>
<text text-anchor="start" x="57" y="-560.7" font-family="Helvetica,sans-Serif" font-size="12.00" fill="#838b8b">0.75s: Done</text>
<text text-anchor="start" x="121.5" y="-560.7" font-family="Helvetica,sans-Serif" font-size="14.00"> &#160;</text>
</g>
<!-- DeadState -->
<g id="node14" class="node">
<title>DeadState</title>
<polygon fill="none" stroke="black" points="351,-524 271.25,-524 271.25,-488 351,-488 351,-524"/>
<text text-anchor="middle" x="311.12" y="-500.57" font-family="Helvetica,sans-Serif" font-size="14.00">DeadState</text>
</g>
<!-- Attack&#45;&gt;DeadState -->
<g id="edge7" class="edge">
<title>Attack&#45;&gt;DeadState</title>
<path fill="none" stroke="#cdc8b1" d="M139.83,-561.15C175.09,-549.73 223.76,-533.97 260.04,-522.22"/>
<polygon fill="#cdc8b1" stroke="#cdc8b1" points="261,-525.59 269.44,-519.18 258.84,-518.93 261,-525.59"/>
</g>
<!-- Explode -->
<g id="node15" class="node">
<title>Explode</title>
<polygon fill="none" stroke="black" points="54,-506 54,-527.75 132,-527.75 132,-506 54,-506"/>
<text text-anchor="start" x="64.88" y="-511.45" font-family="Helvetica,sans-Serif" font-size="14.00">Explode &#160;</text>
<polygon fill="none" stroke="black" points="54,-484.25 54,-506 132,-506 132,-484.25 54,-484.25"/>
<text text-anchor="start" x="57" y="-490.7" font-family="Helvetica,sans-Serif" font-size="12.00" fill="#838b8b">0.25s: Done</text>
<text text-anchor="start" x="121.5" y="-490.7" font-family="Helvetica,sans-Serif" font-size="14.00"> &#160;</text>
</g>
<!-- Explode&#45;&gt;DeadState -->
<g id="edge8" class="edge">
<title>Explode&#45;&gt;DeadState</title>
<path fill="none" stroke="#cdc8b1" d="M139.83,-506C174.94,-506 223.34,-506 259.57,-506"/>
<polygon fill="#cdc8b1" stroke="#cdc8b1" points="259.36,-509.5 269.36,-506 259.36,-502.5 259.36,-509.5"/>
</g>
<!-- HurtState -->
<g id="node16" class="node">
<title>HurtState</title>
<polygon fill="none" stroke="black" points="54,-436 54,-457.75 132,-457.75 132,-436 54,-436"/>
<text text-anchor="start" x="60.75" y="-441.45" font-family="Helvetica,sans-Serif" font-size="14.00">HurtState &#160;</text>
<polygon fill="none" stroke="black" points="54,-414.25 54,-436 132,-436 132,-414.25 54,-414.25"/>
<text text-anchor="start" x="57" y="-420.7" font-family="Helvetica,sans-Serif" font-size="12.00" fill="#838b8b">0.15s: Done</text>
<text text-anchor="start" x="121.5" y="-420.7" font-family="Helvetica,sans-Serif" font-size="14.00"> &#160;</text>
</g>
<!-- HurtState&#45;&gt;DeadState -->
<g id="edge9" class="edge">
<title>HurtState&#45;&gt;DeadState</title>
<path fill="none" stroke="#cdc8b1" d="M139.83,-450.85C175.09,-462.27 223.76,-478.03 260.04,-489.78"/>
<polygon fill="#cdc8b1" stroke="#cdc8b1" points="258.84,-493.07 269.44,-492.82 261,-486.41 258.84,-493.07"/>
</g>
<!-- Wandering_Idle -->
<g id="node17" class="node">
<title>Wandering_Idle</title>
<polygon fill="none" stroke="black" points="163.62,-656 22.38,-656 22.38,-620 163.62,-620 163.62,-656"/>
<text text-anchor="middle" x="93" y="-632.58" font-family="Helvetica,sans-Serif" font-size="14.00">Wandering_Idle (Init)</text>
</g>
</g>
</svg>
