<?xml version="1.0" encoding="UTF-8" standalone="no"?>
<!DOCTYPE svg PUBLIC "-//W3C//DTD SVG 1.1//EN"
 "http://www.w3.org/Graphics/SVG/1.1/DTD/svg11.dtd">
<!-- Generated by graphviz version 12.2.1 (20241206.2353)
 -->
<!-- Title: Foo Pages: 1 -->
<svg width="488pt" height="1723pt"
 viewBox="0.00 0.00 487.75 1723.00" xmlns="http://www.w3.org/2000/svg" xmlns:xlink="http://www.w3.org/1999/xlink">
<g id="graph0" class="graph" transform="scale(1 1) rotate(0) translate(4 1719)">
<title>Foo</title>
<polygon fill="white" stroke="none" points="-4,4 -4,-1719 483.75,-1719 483.75,4 -4,4"/>
<g id="clust1" class="cluster">
<title>cluster_attacksensors</title>
<polygon fill="none" stroke="black" points="8,-8 8,-556 471.75,-556 471.75,-8 8,-8"/>
<text text-anchor="middle" x="239.88" y="-538.7" font-family="Helvetica,sans-Serif" font-size="14.00">Attack Sensors</text>
</g>
<!-- Level Once Sensor -->
<g id="node1" class="node">
<title>Level Once Sensor</title>
<polygon fill="none" stroke="black" points="28.5,-32.12 28.5,-53.88 157.5,-53.88 157.5,-32.12 28.5,-32.12"/>
<text text-anchor="start" x="31.5" y="-37.58" font-family="Helvetica,sans-Serif" font-size="14.00">Level Once Sensor &#160;</text>
</g>
<!-- Level Once Sensor_linked -->
<g id="node2" class="node">
<title>Level Once Sensor_linked</title>
<polygon fill="none" stroke="black" stroke-dasharray="1,5" points="431.23,-52 313.52,-52 313.52,-16 431.23,-16 431.23,-52"/>
<text text-anchor="start" x="319.12" y="-28.57" font-family="Helvetica,sans-Serif" font-size="14.00">BackJumpShoot &#160;</text>
</g>
<!-- Level Once Sensor&#45;&gt;Level Once Sensor_linked -->
<g id="edge1" class="edge">
<title>Level Once Sensor&#45;&gt;Level Once Sensor_linked</title>
<path fill="none" stroke="#66cdaa" d="M165.43,-40.68C207.39,-39.32 260.19,-37.61 301.83,-36.26"/>
<polygon fill="#66cdaa" stroke="#66cdaa" points="301.86,-39.76 311.74,-35.93 301.63,-32.76 301.86,-39.76"/>
<text text-anchor="middle" x="230.38" y="-42.02" font-family="Helvetica,sans-Serif" font-size="14.00" fill="#66cdaa">QueueEnd</text>
</g>
<!-- Level Once Sensor_weight -->
<g id="node3" class="node">
<title>Level Once Sensor_weight</title>
<polygon fill="none" stroke="black" stroke-dasharray="1,5" points="441.25,-106 303.5,-106 303.5,-70 441.25,-70 441.25,-106"/>
<text text-anchor="start" x="313.5" y="-82.58" font-family="Helvetica,sans-Serif" font-size="14.00">1 BackJumpShoot &#160;</text>
</g>
<!-- Level Once Sensor&#45;&gt;Level Once Sensor_weight -->
<g id="edge2" class="edge">
<title>Level Once Sensor&#45;&gt;Level Once Sensor_weight</title>
<path fill="none" stroke="#458b74" d="M165.43,-54.59C204.08,-60.86 251.93,-68.62 291.78,-75.09"/>
<polygon fill="#458b74" stroke="#458b74" points="291.13,-78.53 301.56,-76.67 292.25,-71.62 291.13,-78.53"/>
<text text-anchor="middle" x="230.38" y="-71.98" font-family="Helvetica,sans-Serif" font-size="14.00" fill="#458b74">Weight</text>
</g>
<!-- RunAwaySensor -->
<g id="node4" class="node">
<title>RunAwaySensor</title>
<polygon fill="none" stroke="black" points="36,-91.12 36,-112.88 150,-112.88 150,-91.12 36,-91.12"/>
<text text-anchor="start" x="39" y="-96.58" font-family="Helvetica,sans-Serif" font-size="14.00">RunAwaySensor &#160;</text>
</g>
<!-- AttackSensor -->
<g id="node5" class="node">
<title>AttackSensor</title>
<polygon fill="none" stroke="black" points="46.12,-195.12 46.12,-216.88 139.88,-216.88 139.88,-195.12 46.12,-195.12"/>
<text text-anchor="start" x="49.12" y="-200.57" font-family="Helvetica,sans-Serif" font-size="14.00">AttackSensor &#160;</text>
</g>
<!-- AttackSensor_linked -->
<g id="node6" class="node">
<title>AttackSensor_linked</title>
<polygon fill="none" stroke="black" stroke-dasharray="1,5" points="453.73,-190.22 291.02,-190.22 291.02,-123.78 453.73,-123.78 453.73,-190.22"/>
<text text-anchor="start" x="319.12" y="-171.32" font-family="Helvetica,sans-Serif" font-size="14.00">BackJumpShoot &#160;</text>
<text text-anchor="start" x="296.62" y="-151.57" font-family="Helvetica,sans-Serif" font-size="14.00">JumpJumpDoubleSlash &#160;</text>
<text text-anchor="start" x="309.75" y="-131.82" font-family="Helvetica,sans-Serif" font-size="14.00">JumpJumpAirSlash &#160;</text>
</g>
<!-- AttackSensor&#45;&gt;AttackSensor_linked -->
<g id="edge3" class="edge">
<title>AttackSensor&#45;&gt;AttackSensor_linked</title>
<path fill="none" stroke="#66cdaa" d="M147.81,-196.49C185.13,-189.9 235.77,-180.96 279.42,-173.24"/>
<polygon fill="#66cdaa" stroke="#66cdaa" points="279.92,-176.71 289.15,-171.52 278.7,-169.82 279.92,-176.71"/>
<text text-anchor="middle" x="230.38" y="-189.78" font-family="Helvetica,sans-Serif" font-size="14.00" fill="#66cdaa">QueueEnd</text>
</g>
<!-- AttackSensor_weight -->
<g id="node7" class="node">
<title>AttackSensor_weight</title>
<polygon fill="none" stroke="black" stroke-dasharray="1,5" points="463.75,-275.62 281,-275.62 281,-208.38 463.75,-208.38 463.75,-275.62"/>
<text text-anchor="start" x="313.5" y="-256.32" font-family="Helvetica,sans-Serif" font-size="14.00">1 BackJumpShoot &#160;</text>
<text text-anchor="start" x="291" y="-236.57" font-family="Helvetica,sans-Serif" font-size="14.00">2 JumpJumpDoubleSlash &#160;</text>
<text text-anchor="start" x="304.12" y="-216.82" font-family="Helvetica,sans-Serif" font-size="14.00">1 JumpJumpAirSlash &#160;</text>
</g>
<!-- AttackSensor&#45;&gt;AttackSensor_weight -->
<g id="edge4" class="edge">
<title>AttackSensor&#45;&gt;AttackSensor_weight</title>
<path fill="none" stroke="#458b74" d="M147.81,-212.98C182.3,-217.46 228.17,-223.41 269.38,-228.76"/>
<polygon fill="#458b74" stroke="#458b74" points="268.72,-232.21 279.09,-230.02 269.62,-225.26 268.72,-232.21"/>
<text text-anchor="middle" x="230.38" y="-229.67" font-family="Helvetica,sans-Serif" font-size="14.00" fill="#458b74">Weight</text>
</g>
<!-- DodgePredictSensor -->
<g id="node8" class="node">
<title>DodgePredictSensor</title>
<polygon fill="none" stroke="black" points="24,-312 24,-333.75 162,-333.75 162,-312 24,-312"/>
<text text-anchor="start" x="27" y="-317.45" font-family="Helvetica,sans-Serif" font-size="14.00">DodgePredictSensor &#160;</text>
<polygon fill="none" stroke="black" points="24,-290.25 24,-312 162,-312 162,-290.25 24,-290.25"/>
<text text-anchor="start" x="27" y="-296.7" font-family="Helvetica,sans-Serif" font-size="12.00" fill="#838b8b">if: rollingCondition</text>
<text text-anchor="start" x="123.75" y="-296.7" font-family="Helvetica,sans-Serif" font-size="14.00"> &#160;</text>
</g>
<!-- DodgePredictSensor_linked -->
<g id="node9" class="node">
<title>DodgePredictSensor_linked</title>
<polygon fill="none" stroke="black" stroke-dasharray="1,5" points="431.23,-330 313.52,-330 313.52,-294 431.23,-294 431.23,-330"/>
<text text-anchor="start" x="319.12" y="-306.57" font-family="Helvetica,sans-Serif" font-size="14.00">BackJumpShoot &#160;</text>
</g>
<!-- DodgePredictSensor&#45;&gt;DodgePredictSensor_linked -->
<g id="edge5" class="edge">
<title>DodgePredictSensor&#45;&gt;DodgePredictSensor_linked</title>
<path fill="none" stroke="#66cdaa" d="M169.79,-312C211.05,-312 261.73,-312 301.95,-312"/>
<polygon fill="#66cdaa" stroke="#66cdaa" points="301.76,-315.5 311.76,-312 301.76,-308.5 301.76,-315.5"/>
<text text-anchor="middle" x="230.38" y="-314.45" font-family="Helvetica,sans-Serif" font-size="14.00" fill="#66cdaa">QueueEnd</text>
</g>
<!-- AttackPredictSensor -->
<g id="node10" class="node">
<title>AttackPredictSensor</title>
<polygon fill="none" stroke="black" points="25.12,-405 25.12,-426.75 160.88,-426.75 160.88,-405 25.12,-405"/>
<text text-anchor="start" x="28.12" y="-410.45" font-family="Helvetica,sans-Serif" font-size="14.00">AttackPredictSensor &#160;</text>
<polygon fill="none" stroke="black" points="25.12,-383.25 25.12,-405 160.88,-405 160.88,-383.25 25.12,-383.25"/>
<text text-anchor="start" x="28.12" y="-389.7" font-family="Helvetica,sans-Serif" font-size="12.00" fill="#838b8b">if: attackCondition</text>
<text text-anchor="start" x="123.38" y="-389.7" font-family="Helvetica,sans-Serif" font-size="14.00"> &#160;</text>
</g>
<!-- AttackPredictSensor_linked -->
<g id="node11" class="node">
<title>AttackPredictSensor_linked</title>
<polygon fill="none" stroke="black" stroke-dasharray="1,5" points="431.23,-384 313.52,-384 313.52,-348 431.23,-348 431.23,-384"/>
<text text-anchor="start" x="319.12" y="-360.57" font-family="Helvetica,sans-Serif" font-size="14.00">BackJumpShoot &#160;</text>
</g>
<!-- AttackPredictSensor&#45;&gt;AttackPredictSensor_linked -->
<g id="edge6" class="edge">
<title>AttackPredictSensor&#45;&gt;AttackPredictSensor_linked</title>
<path fill="none" stroke="#66cdaa" d="M168.7,-394.5C210.2,-388.66 261.5,-381.45 302.11,-375.74"/>
<polygon fill="#66cdaa" stroke="#66cdaa" points="302.35,-379.24 311.76,-374.38 301.37,-372.31 302.35,-379.24"/>
<text text-anchor="middle" x="230.38" y="-392.59" font-family="Helvetica,sans-Serif" font-size="14.00" fill="#66cdaa">QueueEnd</text>
</g>
<!-- AttackPredictSensor_weight -->
<g id="node14" class="node">
<title>AttackPredictSensor_weight</title>
<polygon fill="none" stroke="black" stroke-dasharray="1,5" points="433.75,-469.62 311,-469.62 311,-402.38 433.75,-402.38 433.75,-469.62"/>
<text text-anchor="start" x="339" y="-450.32" font-family="Helvetica,sans-Serif" font-size="14.00">1 Teleport &#160;</text>
<text text-anchor="start" x="321" y="-430.57" font-family="Helvetica,sans-Serif" font-size="14.00">1 TeleportToTop &#160;</text>
<text text-anchor="start" x="325.12" y="-410.82" font-family="Helvetica,sans-Serif" font-size="14.00">0 DangerDash &#160;</text>
</g>
<!-- AttackPredictSensor&#45;&gt;AttackPredictSensor_weight -->
<g id="edge8" class="edge">
<title>AttackPredictSensor&#45;&gt;AttackPredictSensor_weight</title>
<path fill="none" stroke="#458b74" d="M168.7,-413.35C209.24,-417.88 259.12,-423.45 299.25,-427.94"/>
<polygon fill="#458b74" stroke="#458b74" points="298.74,-431.4 309.06,-429.04 299.51,-424.45 298.74,-431.4"/>
<text text-anchor="middle" x="230.38" y="-425.73" font-family="Helvetica,sans-Serif" font-size="14.00" fill="#458b74">Weight</text>
</g>
<!-- AttackRunToSensor -->
<g id="node12" class="node">
<title>AttackRunToSensor</title>
<polygon fill="none" stroke="black" points="26.62,-498 26.62,-519.75 159.38,-519.75 159.38,-498 26.62,-498"/>
<text text-anchor="start" x="29.62" y="-503.45" font-family="Helvetica,sans-Serif" font-size="14.00">AttackRunToSensor &#160;</text>
<polygon fill="none" stroke="black" points="26.62,-476.25 26.62,-498 159.38,-498 159.38,-476.25 26.62,-476.25"/>
<text text-anchor="start" x="29.62" y="-482.7" font-family="Helvetica,sans-Serif" font-size="12.00" fill="#838b8b">if: state is Engaging</text>
<text text-anchor="start" x="133.88" y="-482.7" font-family="Helvetica,sans-Serif" font-size="14.00"> &#160;</text>
</g>
<!-- AttackRunToSensor_linked -->
<g id="node13" class="node">
<title>AttackRunToSensor_linked</title>
<polygon fill="none" stroke="black" stroke-dasharray="1,5" points="431.23,-524 313.52,-524 313.52,-488 431.23,-488 431.23,-524"/>
<text text-anchor="start" x="319.12" y="-500.57" font-family="Helvetica,sans-Serif" font-size="14.00">BackJumpShoot &#160;</text>
</g>
<!-- AttackRunToSensor&#45;&gt;AttackRunToSensor_linked -->
<g id="edge7" class="edge">
<title>AttackRunToSensor&#45;&gt;AttackRunToSensor_linked</title>
<path fill="none" stroke="#66cdaa" d="M167.24,-500.11C208.91,-501.31 260.8,-502.81 301.83,-503.99"/>
<polygon fill="#66cdaa" stroke="#66cdaa" points="301.49,-507.49 311.59,-504.28 301.7,-500.49 301.49,-507.49"/>
<text text-anchor="middle" x="230.38" y="-505.17" font-family="Helvetica,sans-Serif" font-size="14.00" fill="#66cdaa">QueueEnd</text>
</g>
<!-- BackJumpShoot -->
<g id="node15" class="node">
<title>BackJumpShoot</title>
<polygon fill="none" stroke="black" points="36.75,-1325.12 36.75,-1346.88 149.25,-1346.88 149.25,-1325.12 36.75,-1325.12"/>
<text text-anchor="start" x="39.75" y="-1330.58" font-family="Helvetica,sans-Serif" font-size="14.00">BackJumpShoot &#160;</text>
<polygon fill="none" stroke="black" points="36.75,-1281.12 36.75,-1325.12 149.25,-1325.12 149.25,-1281.12 36.75,-1281.12"/>
<text text-anchor="start" x="39.75" y="-1311.72" font-family="Helvetica,sans-Serif" font-size="12.00" fill="#838b8b">0.42s: CheckFacing</text>
<text text-anchor="start" x="39.75" y="-1299.72" font-family="Helvetica,sans-Serif" font-size="12.00" fill="#838b8b">1.17s: CheckFacing</text>
<text text-anchor="start" x="39.75" y="-1285.82" font-family="Helvetica,sans-Serif" font-size="12.00" fill="#838b8b">1.92s: Done</text>
<text text-anchor="start" x="104.25" y="-1285.82" font-family="Helvetica,sans-Serif" font-size="14.00"> &#160;</text>
</g>
<!-- Engaging -->
<g id="node16" class="node">
<title>Engaging</title>
<polygon fill="none" stroke="black" points="408.88,-892 335.88,-892 335.88,-856 408.88,-856 408.88,-892"/>
<text text-anchor="middle" x="372.38" y="-868.58" font-family="Helvetica,sans-Serif" font-size="14.00">Engaging</text>
</g>
<!-- BackJumpShoot&#45;&gt;Engaging -->
<g id="edge9" class="edge">
<title>BackJumpShoot&#45;&gt;Engaging</title>
<path fill="none" stroke="#cdc8b1" d="M157.07,-1304.43C194.27,-1295.26 238.69,-1277.45 263,-1243 304.19,-1184.63 242.49,-982.18 281,-922 291.15,-906.14 308.39,-895.18 325.11,-887.79"/>
<polygon fill="#cdc8b1" stroke="#cdc8b1" points="326.02,-891.2 333.98,-884.2 323.39,-884.71 326.02,-891.2"/>
</g>
<!-- BackJumpShoot_linked -->
<g id="node17" class="node">
<title>BackJumpShoot_linked</title>
<polygon fill="none" stroke="black" stroke-dasharray="1,5" points="453.73,-1357.35 291.02,-1357.35 291.02,-1310.65 453.73,-1310.65 453.73,-1357.35"/>
<text text-anchor="start" x="296.62" y="-1338.45" font-family="Helvetica,sans-Serif" font-size="14.00">JumpJumpDoubleSlash &#160;</text>
<text text-anchor="start" x="309.75" y="-1318.7" font-family="Helvetica,sans-Serif" font-size="14.00">JumpJumpAirSlash &#160;</text>
</g>
<!-- BackJumpShoot&#45;&gt;BackJumpShoot_linked -->
<g id="edge10" class="edge">
<title>BackJumpShoot&#45;&gt;BackJumpShoot_linked</title>
<path fill="none" stroke="#66cdaa" d="M156.94,-1318.54C193.1,-1321.15 239.16,-1324.47 279.32,-1327.36"/>
<polygon fill="#66cdaa" stroke="#66cdaa" points="279.02,-1330.85 289.24,-1328.08 279.52,-1323.87 279.02,-1330.85"/>
<text text-anchor="middle" x="230.38" y="-1328.24" font-family="Helvetica,sans-Serif" font-size="14.00" fill="#66cdaa">QueueEnd</text>
</g>
<!-- JumpJumpDoubleSlash -->
<g id="node18" class="node">
<title>JumpJumpDoubleSlash</title>
<polygon fill="none" stroke="black" points="14.25,-1178.12 14.25,-1199.88 171.75,-1199.88 171.75,-1178.12 14.25,-1178.12"/>
<text text-anchor="start" x="17.25" y="-1183.58" font-family="Helvetica,sans-Serif" font-size="14.00">JumpJumpDoubleSlash &#160;</text>
<polygon fill="none" stroke="black" points="14.25,-1146.12 14.25,-1178.12 171.75,-1178.12 171.75,-1146.12 14.25,-1146.12"/>
<text text-anchor="start" x="17.25" y="-1164.72" font-family="Helvetica,sans-Serif" font-size="12.00" fill="#838b8b">0.00s: CheckFacing</text>
<text text-anchor="start" x="17.25" y="-1150.82" font-family="Helvetica,sans-Serif" font-size="12.00" fill="#838b8b">1.27s: Done</text>
<text text-anchor="start" x="81.75" y="-1150.82" font-family="Helvetica,sans-Serif" font-size="14.00"> &#160;</text>
</g>
<!-- JumpJumpDoubleSlash&#45;&gt;Engaging -->
<g id="edge11" class="edge">
<title>JumpJumpDoubleSlash&#45;&gt;Engaging</title>
<path fill="none" stroke="#cdc8b1" d="M171.53,-1142.16C174.55,-1139.36 177.32,-1136.31 179.75,-1133 216.05,-1083.47 166.51,-1048.87 197.75,-996 216.06,-965 237.91,-973.82 263,-948 272.79,-937.92 270.5,-931.34 281,-922 293.95,-910.49 310.14,-900.79 325.23,-893.18"/>
<polygon fill="#cdc8b1" stroke="#cdc8b1" points="326.6,-896.41 334.08,-888.91 323.56,-890.1 326.6,-896.41"/>
</g>
<!-- JumpJumpDoubleSlash_linked -->
<g id="node19" class="node">
<title>JumpJumpDoubleSlash_linked</title>
<polygon fill="none" stroke="black" stroke-dasharray="1,5" points="419.6,-1292.22 325.15,-1292.22 325.15,-1225.78 419.6,-1225.78 419.6,-1292.22"/>
<text text-anchor="start" x="340.12" y="-1273.33" font-family="Helvetica,sans-Serif" font-size="14.00">Engaging &#160;</text>
<text text-anchor="start" x="330.75" y="-1253.58" font-family="Helvetica,sans-Serif" font-size="14.00">DangerDash &#160;</text>
<text text-anchor="start" x="331.88" y="-1233.83" font-family="Helvetica,sans-Serif" font-size="14.00">RollThrough &#160;</text>
</g>
<!-- JumpJumpDoubleSlash&#45;&gt;JumpJumpDoubleSlash_linked -->
<g id="edge12" class="edge">
<title>JumpJumpDoubleSlash&#45;&gt;JumpJumpDoubleSlash_linked</title>
<path fill="none" stroke="#66cdaa" d="M179.48,-1199.5C223.28,-1213.08 275.42,-1229.25 314.29,-1241.3"/>
<polygon fill="#66cdaa" stroke="#66cdaa" points="312.85,-1244.52 323.43,-1244.14 314.92,-1237.83 312.85,-1244.52"/>
<text text-anchor="middle" x="230.38" y="-1226.15" font-family="Helvetica,sans-Serif" font-size="14.00" fill="#66cdaa">QueueEnd</text>
</g>
<!-- JumpJumpDoubleSlash_weight -->
<g id="node20" class="node">
<title>JumpJumpDoubleSlash_weight</title>
<polygon fill="none" stroke="black" stroke-dasharray="1,5" points="463.75,-1207.5 281,-1207.5 281,-1120.5 463.75,-1120.5 463.75,-1207.5"/>
<text text-anchor="start" x="325.12" y="-1188.2" font-family="Helvetica,sans-Serif" font-size="14.00">1 DangerDash &#160;</text>
<text text-anchor="start" x="349.88" y="-1168.45" font-family="Helvetica,sans-Serif" font-size="14.00">1 Skip &#160;</text>
<text text-anchor="start" x="291" y="-1148.7" font-family="Helvetica,sans-Serif" font-size="14.00">1 JumpJumpDoubleSlash &#160;</text>
<text text-anchor="start" x="304.12" y="-1128.95" font-family="Helvetica,sans-Serif" font-size="14.00">1 JumpJumpAirSlash &#160;</text>
</g>
<!-- JumpJumpDoubleSlash&#45;&gt;JumpJumpDoubleSlash_weight -->
<g id="edge13" class="edge">
<title>JumpJumpDoubleSlash&#45;&gt;JumpJumpDoubleSlash_weight</title>
<path fill="none" stroke="#458b74" d="M179.48,-1170.23C208,-1169.3 240.04,-1168.26 269.66,-1167.3"/>
<polygon fill="#458b74" stroke="#458b74" points="269.49,-1170.81 279.37,-1166.99 269.26,-1163.81 269.49,-1170.81"/>
<text text-anchor="middle" x="230.38" y="-1172.02" font-family="Helvetica,sans-Serif" font-size="14.00" fill="#458b74">Weight</text>
</g>
<!-- JumpJumpAirSlash -->
<g id="node21" class="node">
<title>JumpJumpAirSlash</title>
<polygon fill="none" stroke="black" points="27.38,-1098.12 27.38,-1119.88 158.62,-1119.88 158.62,-1098.12 27.38,-1098.12"/>
<text text-anchor="start" x="30.38" y="-1103.58" font-family="Helvetica,sans-Serif" font-size="14.00">JumpJumpAirSlash &#160;</text>
<polygon fill="none" stroke="black" points="27.38,-982.12 27.38,-1098.12 158.62,-1098.12 158.62,-982.12 27.38,-982.12"/>
<text text-anchor="start" x="30.38" y="-1084.72" font-family="Helvetica,sans-Serif" font-size="12.00" fill="#838b8b">0.57s: DisableGravity</text>
<text text-anchor="start" x="30.38" y="-1072.72" font-family="Helvetica,sans-Serif" font-size="12.00" fill="#838b8b">0.58s: CheckFacing</text>
<text text-anchor="start" x="30.38" y="-1060.72" font-family="Helvetica,sans-Serif" font-size="12.00" fill="#838b8b">0.58s: Evaluate</text>
<text text-anchor="start" x="30.38" y="-1048.72" font-family="Helvetica,sans-Serif" font-size="12.00" fill="#838b8b">0.85s: CheckFacing</text>
<text text-anchor="start" x="30.38" y="-1036.72" font-family="Helvetica,sans-Serif" font-size="12.00" fill="#838b8b">0.87s: EnableGravity</text>
<text text-anchor="start" x="30.38" y="-1024.72" font-family="Helvetica,sans-Serif" font-size="12.00" fill="#838b8b">1.17s: EnableGravity</text>
<text text-anchor="start" x="30.38" y="-1012.72" font-family="Helvetica,sans-Serif" font-size="12.00" fill="#838b8b">1.20s: ResetEvaluate</text>
<text text-anchor="start" x="30.38" y="-1000.72" font-family="Helvetica,sans-Serif" font-size="12.00" fill="#838b8b">1.92s: LinkNextMove</text>
<text text-anchor="start" x="30.38" y="-986.82" font-family="Helvetica,sans-Serif" font-size="12.00" fill="#838b8b">2.50s: Done</text>
<text text-anchor="start" x="94.88" y="-986.82" font-family="Helvetica,sans-Serif" font-size="14.00"> &#160;</text>
</g>
<!-- JumpJumpAirSlash&#45;&gt;Engaging -->
<g id="edge14" class="edge">
<title>JumpJumpAirSlash&#45;&gt;Engaging</title>
<path fill="none" stroke="#cdc8b1" d="M166.62,-981.77C171.08,-977.46 175.48,-973.18 179.75,-969 187.84,-961.09 188.42,-957.4 197.75,-951 208.94,-943.32 277.48,-913.7 325.02,-893.52"/>
<polygon fill="#cdc8b1" stroke="#cdc8b1" points="326.18,-896.83 334.02,-889.7 323.45,-890.38 326.18,-896.83"/>
</g>
<!-- JumpJumpAirSlash_linked -->
<g id="node22" class="node">
<title>JumpJumpAirSlash_linked</title>
<polygon fill="none" stroke="black" stroke-dasharray="1,5" points="419.6,-997.23 325.15,-997.23 325.15,-930.77 419.6,-930.77 419.6,-997.23"/>
<text text-anchor="start" x="340.12" y="-978.33" font-family="Helvetica,sans-Serif" font-size="14.00">Engaging &#160;</text>
<text text-anchor="start" x="330.75" y="-958.58" font-family="Helvetica,sans-Serif" font-size="14.00">DangerDash &#160;</text>
<text text-anchor="start" x="331.88" y="-938.83" font-family="Helvetica,sans-Serif" font-size="14.00">RollThrough &#160;</text>
</g>
<!-- JumpJumpAirSlash&#45;&gt;JumpJumpAirSlash_linked -->
<g id="edge15" class="edge">
<title>JumpJumpAirSlash&#45;&gt;JumpJumpAirSlash_linked</title>
<path fill="none" stroke="#66cdaa" d="M166.51,-1028.26C212.59,-1013.81 271.38,-995.36 314.16,-981.95"/>
<polygon fill="#66cdaa" stroke="#66cdaa" points="315.01,-985.35 323.5,-979.02 312.91,-978.67 315.01,-985.35"/>
<text text-anchor="middle" x="230.38" y="-1020.3" font-family="Helvetica,sans-Serif" font-size="14.00" fill="#66cdaa">QueueEnd</text>
</g>
<!-- JumpJumpAirSlash_weight -->
<g id="node23" class="node">
<title>JumpJumpAirSlash_weight</title>
<polygon fill="none" stroke="black" stroke-dasharray="1,5" points="450.62,-1102.5 294.12,-1102.5 294.12,-1015.5 450.62,-1015.5 450.62,-1102.5"/>
<text text-anchor="start" x="325.12" y="-1083.2" font-family="Helvetica,sans-Serif" font-size="14.00">1 DangerDash &#160;</text>
<text text-anchor="start" x="326.25" y="-1063.45" font-family="Helvetica,sans-Serif" font-size="14.00">0 RollThrough &#160;</text>
<text text-anchor="start" x="349.88" y="-1043.7" font-family="Helvetica,sans-Serif" font-size="14.00">1 Skip &#160;</text>
<text text-anchor="start" x="304.12" y="-1023.95" font-family="Helvetica,sans-Serif" font-size="14.00">1 JumpJumpAirSlash &#160;</text>
</g>
<!-- JumpJumpAirSlash&#45;&gt;JumpJumpAirSlash_weight -->
<g id="edge16" class="edge">
<title>JumpJumpAirSlash&#45;&gt;JumpJumpAirSlash_weight</title>
<path fill="none" stroke="#458b74" d="M166.51,-1053.09C202.01,-1054.12 245.06,-1055.36 282.51,-1056.44"/>
<polygon fill="#458b74" stroke="#458b74" points="282.33,-1059.93 292.43,-1056.72 282.53,-1052.94 282.33,-1059.93"/>
<text text-anchor="middle" x="230.38" y="-1058.17" font-family="Helvetica,sans-Serif" font-size="14.00" fill="#458b74">Weight</text>
</g>
<!-- DangerDash -->
<g id="node24" class="node">
<title>DangerDash</title>
<polygon fill="none" stroke="black" points="48.38,-934 48.38,-955.75 137.62,-955.75 137.62,-934 48.38,-934"/>
<text text-anchor="start" x="51.38" y="-939.45" font-family="Helvetica,sans-Serif" font-size="14.00">DangerDash &#160;</text>
<polygon fill="none" stroke="black" points="48.38,-912.25 48.38,-934 137.62,-934 137.62,-912.25 48.38,-912.25"/>
<text text-anchor="start" x="51.38" y="-918.7" font-family="Helvetica,sans-Serif" font-size="12.00" fill="#838b8b">1.98s: Done</text>
<text text-anchor="start" x="115.88" y="-918.7" font-family="Helvetica,sans-Serif" font-size="14.00"> &#160;</text>
</g>
<!-- DangerDash&#45;&gt;Engaging -->
<g id="edge17" class="edge">
<title>DangerDash&#45;&gt;Engaging</title>
<path fill="none" stroke="#cdc8b1" d="M145.52,-922.86C196.83,-911.76 274.9,-894.87 324.51,-884.14"/>
<polygon fill="#cdc8b1" stroke="#cdc8b1" points="325.05,-887.6 334.08,-882.07 323.57,-880.76 325.05,-887.6"/>
</g>
<!-- Teleport -->
<g id="node25" class="node">
<title>Teleport</title>
<polygon fill="none" stroke="black" points="33,-612.12 33,-633.88 153,-633.88 153,-612.12 33,-612.12"/>
<text text-anchor="start" x="65.25" y="-617.58" font-family="Helvetica,sans-Serif" font-size="14.00">Teleport &#160;</text>
<polygon fill="none" stroke="black" points="33,-568.12 33,-612.12 153,-612.12 153,-568.12 33,-568.12"/>
<text text-anchor="start" x="36" y="-598.73" font-family="Helvetica,sans-Serif" font-size="12.00" fill="#838b8b">0.00s: ResetEvaluate</text>
<text text-anchor="start" x="36" y="-586.73" font-family="Helvetica,sans-Serif" font-size="12.00" fill="#838b8b">0.67s: LinkNextMove</text>
<text text-anchor="start" x="36" y="-572.83" font-family="Helvetica,sans-Serif" font-size="12.00" fill="#838b8b">0.93s: Done</text>
<text text-anchor="start" x="100.5" y="-572.83" font-family="Helvetica,sans-Serif" font-size="14.00"> &#160;</text>
</g>
<!-- Teleport&#45;&gt;Engaging -->
<g id="edge18" class="edge">
<title>Teleport&#45;&gt;Engaging</title>
<path fill="none" stroke="#cdc8b1" d="M160.92,-634.03C167.48,-638.11 173.87,-642.45 179.75,-647 255.95,-705.94 322.97,-799.72 353.64,-846.12"/>
<polygon fill="#cdc8b1" stroke="#cdc8b1" points="350.57,-847.82 358.97,-854.27 356.43,-843.99 350.57,-847.82"/>
</g>
<!-- Teleport_weight -->
<g id="node26" class="node">
<title>Teleport_weight</title>
<polygon fill="none" stroke="black" stroke-dasharray="1,5" points="463.75,-634.62 281,-634.62 281,-567.38 463.75,-567.38 463.75,-634.62"/>
<text text-anchor="start" x="325.12" y="-615.33" font-family="Helvetica,sans-Serif" font-size="14.00">1 DangerDash &#160;</text>
<text text-anchor="start" x="349.88" y="-595.58" font-family="Helvetica,sans-Serif" font-size="14.00">1 Skip &#160;</text>
<text text-anchor="start" x="291" y="-575.83" font-family="Helvetica,sans-Serif" font-size="14.00">1 JumpJumpDoubleSlash &#160;</text>
</g>
<!-- Teleport&#45;&gt;Teleport_weight -->
<g id="edge19" class="edge">
<title>Teleport&#45;&gt;Teleport_weight</title>
<path fill="none" stroke="#458b74" d="M160.79,-601C193.33,-601 233.17,-601 269.41,-601"/>
<polygon fill="#458b74" stroke="#458b74" points="269.01,-604.5 279.01,-601 269.01,-597.5 269.01,-604.5"/>
<text text-anchor="middle" x="230.38" y="-603.45" font-family="Helvetica,sans-Serif" font-size="14.00" fill="#458b74">Weight</text>
</g>
<!-- TeleportToTop -->
<g id="node27" class="node">
<title>TeleportToTop</title>
<polygon fill="none" stroke="black" points="34.12,-864.12 34.12,-885.88 151.88,-885.88 151.88,-864.12 34.12,-864.12"/>
<text text-anchor="start" x="47.25" y="-869.58" font-family="Helvetica,sans-Serif" font-size="14.00">TeleportToTop &#160;</text>
<polygon fill="none" stroke="black" points="34.12,-820.12 34.12,-864.12 151.88,-864.12 151.88,-820.12 34.12,-820.12"/>
<text text-anchor="start" x="37.12" y="-850.73" font-family="Helvetica,sans-Serif" font-size="12.00" fill="#838b8b">0.83s: CheckFacing</text>
<text text-anchor="start" x="37.12" y="-838.73" font-family="Helvetica,sans-Serif" font-size="12.00" fill="#838b8b">1.75s: LinkNextMove</text>
<text text-anchor="start" x="37.12" y="-824.83" font-family="Helvetica,sans-Serif" font-size="12.00" fill="#838b8b">2.50s: Done</text>
<text text-anchor="start" x="101.62" y="-824.83" font-family="Helvetica,sans-Serif" font-size="14.00"> &#160;</text>
</g>
<!-- TeleportToTop&#45;&gt;Engaging -->
<g id="edge20" class="edge">
<title>TeleportToTop&#45;&gt;Engaging</title>
<path fill="none" stroke="#cdc8b1" d="M159.73,-857.98C210.28,-861.8 278.91,-867 324.13,-870.42"/>
<polygon fill="#cdc8b1" stroke="#cdc8b1" points="323.64,-873.9 333.87,-871.16 324.17,-866.92 323.64,-873.9"/>
</g>
<!-- DirectSlash -->
<g id="node28" class="node">
<title>DirectSlash</title>
<polygon fill="none" stroke="black" points="34.12,-772.12 34.12,-793.88 151.88,-793.88 151.88,-772.12 34.12,-772.12"/>
<text text-anchor="start" x="54.75" y="-777.58" font-family="Helvetica,sans-Serif" font-size="14.00">DirectSlash &#160;</text>
<polygon fill="none" stroke="black" points="34.12,-740.12 34.12,-772.12 151.88,-772.12 151.88,-740.12 34.12,-740.12"/>
<text text-anchor="start" x="37.12" y="-758.73" font-family="Helvetica,sans-Serif" font-size="12.00" fill="#838b8b">1.33s: LinkNextMove</text>
<text text-anchor="start" x="37.12" y="-744.83" font-family="Helvetica,sans-Serif" font-size="12.00" fill="#838b8b">2.50s: Done</text>
<text text-anchor="start" x="101.62" y="-744.83" font-family="Helvetica,sans-Serif" font-size="14.00"> &#160;</text>
</g>
<!-- DirectSlash&#45;&gt;Engaging -->
<g id="edge21" class="edge">
<title>DirectSlash&#45;&gt;Engaging</title>
<path fill="none" stroke="#cdc8b1" d="M159.73,-792.36C210.5,-811.94 279.49,-838.56 324.71,-856"/>
<polygon fill="#cdc8b1" stroke="#cdc8b1" points="323.38,-859.24 333.97,-859.57 325.9,-852.71 323.38,-859.24"/>
</g>
<!-- HurtState -->
<g id="node29" class="node">
<title>HurtState</title>
<polygon fill="none" stroke="black" points="54,-1555 54,-1576.75 132,-1576.75 132,-1555 54,-1555"/>
<text text-anchor="start" x="60.75" y="-1560.45" font-family="Helvetica,sans-Serif" font-size="14.00">HurtState &#160;</text>
<polygon fill="none" stroke="black" points="54,-1533.25 54,-1555 132,-1555 132,-1533.25 54,-1533.25"/>
<text text-anchor="start" x="57" y="-1539.7" font-family="Helvetica,sans-Serif" font-size="12.00" fill="#838b8b">0.18s: Done</text>
<text text-anchor="start" x="121.5" y="-1539.7" font-family="Helvetica,sans-Serif" font-size="14.00"> &#160;</text>
</g>
<!-- PreAttack -->
<g id="node30" class="node">
<title>PreAttack</title>
<polygon fill="none" stroke="black" points="409.62,-1498 335.12,-1498 335.12,-1462 409.62,-1462 409.62,-1498"/>
<text text-anchor="middle" x="372.38" y="-1474.58" font-family="Helvetica,sans-Serif" font-size="14.00">PreAttack</text>
</g>
<!-- HurtState&#45;&gt;PreAttack -->
<g id="edge22" class="edge">
<title>HurtState&#45;&gt;PreAttack</title>
<path fill="none" stroke="#cdc8b1" d="M139.8,-1542.62C190.69,-1528.85 272.46,-1506.74 323.99,-1492.81"/>
<polygon fill="#cdc8b1" stroke="#cdc8b1" points="324.61,-1496.27 333.35,-1490.28 322.79,-1489.51 324.61,-1496.27"/>
</g>
<!-- Hurt_BigState -->
<g id="node31" class="node">
<title>Hurt_BigState</title>
<polygon fill="none" stroke="black" points="34.5,-1485.12 34.5,-1506.88 151.5,-1506.88 151.5,-1485.12 34.5,-1485.12"/>
<text text-anchor="start" x="47.25" y="-1490.58" font-family="Helvetica,sans-Serif" font-size="14.00">Hurt_BigState &#160;</text>
<polygon fill="none" stroke="black" points="34.5,-1453.12 34.5,-1485.12 151.5,-1485.12 151.5,-1453.12 34.5,-1453.12"/>
<text text-anchor="start" x="37.5" y="-1471.72" font-family="Helvetica,sans-Serif" font-size="12.00" fill="#838b8b">0.00s: EnableGravity</text>
<text text-anchor="start" x="37.5" y="-1457.82" font-family="Helvetica,sans-Serif" font-size="12.00" fill="#838b8b">0.27s: Done</text>
<text text-anchor="start" x="102" y="-1457.82" font-family="Helvetica,sans-Serif" font-size="14.00"> &#160;</text>
</g>
<!-- Hurt_BigState&#45;&gt;PreAttack -->
<g id="edge23" class="edge">
<title>Hurt_BigState&#45;&gt;PreAttack</title>
<path fill="none" stroke="#cdc8b1" d="M159.38,-1480C209.77,-1480 278.28,-1480 323.61,-1480"/>
<polygon fill="#cdc8b1" stroke="#cdc8b1" points="323.38,-1483.5 333.38,-1480 323.38,-1476.5 323.38,-1483.5"/>
</g>
<!-- LastHit -->
<g id="node32" class="node">
<title>LastHit</title>
<polygon fill="none" stroke="black" points="34.5,-1635.12 34.5,-1656.88 151.5,-1656.88 151.5,-1635.12 34.5,-1635.12"/>
<text text-anchor="start" x="68.25" y="-1640.58" font-family="Helvetica,sans-Serif" font-size="14.00">LastHit &#160;</text>
<polygon fill="none" stroke="black" points="34.5,-1603.12 34.5,-1635.12 151.5,-1635.12 151.5,-1603.12 34.5,-1603.12"/>
<text text-anchor="start" x="37.5" y="-1621.72" font-family="Helvetica,sans-Serif" font-size="12.00" fill="#838b8b">0.00s: EnableGravity</text>
<text text-anchor="start" x="37.5" y="-1607.82" font-family="Helvetica,sans-Serif" font-size="12.00" fill="#838b8b">0.23s: Done</text>
<text text-anchor="start" x="102" y="-1607.82" font-family="Helvetica,sans-Serif" font-size="14.00"> &#160;</text>
</g>
<!-- DeadState -->
<g id="node33" class="node">
<title>DeadState</title>
<polygon fill="none" stroke="black" points="412.25,-1648 332.5,-1648 332.5,-1612 412.25,-1612 412.25,-1648"/>
<text text-anchor="middle" x="372.38" y="-1624.58" font-family="Helvetica,sans-Serif" font-size="14.00">DeadState</text>
</g>
<!-- LastHit&#45;&gt;DeadState -->
<g id="edge24" class="edge">
<title>LastHit&#45;&gt;DeadState</title>
<path fill="none" stroke="#cdc8b1" d="M159.38,-1630C208.74,-1630 275.48,-1630 320.8,-1630"/>
<polygon fill="#cdc8b1" stroke="#cdc8b1" points="320.61,-1633.5 330.61,-1630 320.61,-1626.5 320.61,-1633.5"/>
</g>
<!-- PostureBreak -->
<g id="node34" class="node">
<title>PostureBreak</title>
<polygon fill="none" stroke="black" points="34.5,-1405.12 34.5,-1426.88 151.5,-1426.88 151.5,-1405.12 34.5,-1405.12"/>
<text text-anchor="start" x="48.38" y="-1410.58" font-family="Helvetica,sans-Serif" font-size="14.00">PostureBreak &#160;</text>
<polygon fill="none" stroke="black" points="34.5,-1373.12 34.5,-1405.12 151.5,-1405.12 151.5,-1373.12 34.5,-1373.12"/>
<text text-anchor="start" x="37.5" y="-1391.72" font-family="Helvetica,sans-Serif" font-size="12.00" fill="#838b8b">0.00s: EnableGravity</text>
<text text-anchor="start" x="37.5" y="-1377.82" font-family="Helvetica,sans-Serif" font-size="12.00" fill="#838b8b">1.50s: Done</text>
<text text-anchor="start" x="102" y="-1377.82" font-family="Helvetica,sans-Serif" font-size="14.00"> &#160;</text>
</g>
<!-- PostureBreak&#45;&gt;PreAttack -->
<g id="edge25" class="edge">
<title>PostureBreak&#45;&gt;PreAttack</title>
<path fill="none" stroke="#cdc8b1" d="M159.38,-1418.86C209.88,-1433.42 278.57,-1453.23 323.9,-1466.31"/>
<polygon fill="#cdc8b1" stroke="#cdc8b1" points="322.87,-1469.65 333.44,-1469.06 324.81,-1462.93 322.87,-1469.65"/>
</g>
<!-- RollThrough -->
<g id="node35" class="node">
<title>RollThrough</title>
<polygon fill="none" stroke="black" points="33,-692.12 33,-713.88 153,-713.88 153,-692.12 33,-692.12"/>
<text text-anchor="start" x="52.5" y="-697.58" font-family="Helvetica,sans-Serif" font-size="14.00">RollThrough &#160;</text>
<polygon fill="none" stroke="black" points="33,-660.12 33,-692.12 153,-692.12 153,-660.12 33,-660.12"/>
<text text-anchor="start" x="36" y="-678.73" font-family="Helvetica,sans-Serif" font-size="12.00" fill="#838b8b">0.00s: ResetEvaluate</text>
<text text-anchor="start" x="36" y="-664.83" font-family="Helvetica,sans-Serif" font-size="12.00" fill="#838b8b">0.58s: Done</text>
<text text-anchor="start" x="100.5" y="-664.83" font-family="Helvetica,sans-Serif" font-size="14.00"> &#160;</text>
</g>
<!-- RollThrough&#45;&gt;Engaging -->
<g id="edge26" class="edge">
<title>RollThrough&#45;&gt;Engaging</title>
<path fill="none" stroke="#cdc8b1" d="M160.76,-716.38C167.28,-719.77 173.71,-723.34 179.75,-727 240.88,-764.1 305.61,-817.01 342.01,-848.2"/>
<polygon fill="#cdc8b1" stroke="#cdc8b1" points="339.63,-850.77 349.49,-854.65 344.2,-845.47 339.63,-850.77"/>
</g>
<!-- Wandering_Idle -->
<g id="node36" class="node">
<title>Wandering_Idle</title>
<polygon fill="none" stroke="black" points="163.62,-1715 22.38,-1715 22.38,-1679 163.62,-1679 163.62,-1715"/>
<text text-anchor="middle" x="93" y="-1691.58" font-family="Helvetica,sans-Serif" font-size="14.00">Wandering_Idle (Init)</text>
</g>
</g>
</svg>
