<?xml version="1.0" encoding="UTF-8" standalone="no"?>
<!DOCTYPE svg PUBLIC "-//W3C//DTD SVG 1.1//EN"
 "http://www.w3.org/Graphics/SVG/1.1/DTD/svg11.dtd">
<!-- Generated by graphviz version 12.2.1 (20241206.2353)
 -->
<!-- Title: Foo Pages: 1 -->
<svg width="424pt" height="688pt"
 viewBox="0.00 0.00 424.20 688.00" xmlns="http://www.w3.org/2000/svg" xmlns:xlink="http://www.w3.org/1999/xlink">
<g id="graph0" class="graph" transform="scale(1 1) rotate(0) translate(4 684)">
<title>Foo</title>
<polygon fill="white" stroke="none" points="-4,4 -4,-684 420.2,-684 420.2,4 -4,4"/>
<g id="clust1" class="cluster">
<title>cluster_attacksensors</title>
<polygon fill="none" stroke="black" points="8,-278 8,-672 408.2,-672 408.2,-278 8,-278"/>
<text text-anchor="middle" x="208.1" y="-654.7" font-family="Helvetica,sans-Serif" font-size="14.00">Attack Sensors</text>
</g>
<!-- Danger -->
<g id="node1" class="node">
<title>Danger</title>
<polygon fill="none" stroke="black" points="54,-242 54,-263.75 132,-263.75 132,-242 54,-242"/>
<text text-anchor="start" x="67.12" y="-247.45" font-family="Helvetica,sans-Serif" font-size="14.00">Danger &#160;</text>
<polygon fill="none" stroke="black" points="54,-220.25 54,-242 132,-242 132,-220.25 54,-220.25"/>
<text text-anchor="start" x="57" y="-226.7" font-family="Helvetica,sans-Serif" font-size="12.00" fill="#838b8b">1.70s: Done</text>
<text text-anchor="start" x="121.5" y="-226.7" font-family="Helvetica,sans-Serif" font-size="14.00"> &#160;</text>
</g>
<!-- DeadState -->
<g id="node2" class="node">
<title>DeadState</title>
<polygon fill="none" stroke="black" points="375.6,-149 295.85,-149 295.85,-113 375.6,-113 375.6,-149"/>
<text text-anchor="middle" x="335.73" y="-125.58" font-family="Helvetica,sans-Serif" font-size="14.00">DeadState</text>
</g>
<!-- Danger&#45;&gt;DeadState -->
<g id="edge1" class="edge">
<title>Danger&#45;&gt;DeadState</title>
<path fill="none" stroke="#cdc8b1" d="M139.82,-220.91C149.77,-216.32 160.24,-211.5 170,-207 208.71,-189.15 252.54,-168.93 285.25,-153.84"/>
<polygon fill="#cdc8b1" stroke="#cdc8b1" points="286.47,-157.13 294.08,-149.76 283.53,-150.77 286.47,-157.13"/>
</g>
<!-- JumpSlash -->
<g id="node3" class="node">
<title>JumpSlash</title>
<polygon fill="none" stroke="black" points="52.5,-172 52.5,-193.75 133.5,-193.75 133.5,-172 52.5,-172"/>
<text text-anchor="start" x="55.5" y="-177.45" font-family="Helvetica,sans-Serif" font-size="14.00">JumpSlash &#160;</text>
<polygon fill="none" stroke="black" points="52.5,-150.25 52.5,-172 133.5,-172 133.5,-150.25 52.5,-150.25"/>
<text text-anchor="start" x="55.5" y="-156.7" font-family="Helvetica,sans-Serif" font-size="12.00" fill="#838b8b">1.50s: Done</text>
<text text-anchor="start" x="120" y="-156.7" font-family="Helvetica,sans-Serif" font-size="14.00"> &#160;</text>
</g>
<!-- JumpSlash&#45;&gt;DeadState -->
<g id="edge2" class="edge">
<title>JumpSlash&#45;&gt;DeadState</title>
<path fill="none" stroke="#cdc8b1" d="M141.27,-163.95C182.54,-156.92 242.25,-146.75 284.39,-139.57"/>
<polygon fill="#cdc8b1" stroke="#cdc8b1" points="284.75,-143.06 294.02,-137.93 283.58,-136.16 284.75,-143.06"/>
</g>
<!-- DoubleJumpSlash -->
<g id="node4" class="node">
<title>DoubleJumpSlash</title>
<polygon fill="none" stroke="black" points="31.12,-102.12 31.12,-123.88 154.88,-123.88 154.88,-102.12 31.12,-102.12"/>
<text text-anchor="start" x="34.12" y="-107.58" font-family="Helvetica,sans-Serif" font-size="14.00">DoubleJumpSlash &#160;</text>
<polygon fill="none" stroke="black" points="31.12,-58.12 31.12,-102.12 154.88,-102.12 154.88,-58.12 31.12,-58.12"/>
<text text-anchor="start" x="34.12" y="-88.72" font-family="Helvetica,sans-Serif" font-size="12.00" fill="#838b8b">0.58s: CheckFacing</text>
<text text-anchor="start" x="34.12" y="-76.72" font-family="Helvetica,sans-Serif" font-size="12.00" fill="#838b8b">0.92s: CheckFacing</text>
<text text-anchor="start" x="34.12" y="-62.82" font-family="Helvetica,sans-Serif" font-size="12.00" fill="#838b8b">1.50s: Done</text>
<text text-anchor="start" x="98.62" y="-62.82" font-family="Helvetica,sans-Serif" font-size="14.00"> &#160;</text>
</g>
<!-- DoubleJumpSlash&#45;&gt;DeadState -->
<g id="edge3" class="edge">
<title>DoubleJumpSlash&#45;&gt;DeadState</title>
<path fill="none" stroke="#cdc8b1" d="M162.66,-102.41C201.53,-108.87 249.29,-116.8 284.62,-122.67"/>
<polygon fill="#cdc8b1" stroke="#cdc8b1" points="283.7,-126.07 294.13,-124.26 284.84,-119.16 283.7,-126.07"/>
</g>
<!-- HideState -->
<g id="node5" class="node">
<title>HideState</title>
<polygon fill="none" stroke="black" points="130.62,-36 55.38,-36 55.38,0 130.62,0 130.62,-36"/>
<text text-anchor="middle" x="93" y="-12.57" font-family="Helvetica,sans-Serif" font-size="14.00">HideState</text>
</g>
<!-- HideState&#45;&gt;DeadState -->
<g id="edge4" class="edge">
<title>HideState&#45;&gt;DeadState</title>
<path fill="none" stroke="#cdc8b1" d="M130.74,-29.89C143.34,-34.27 157.42,-39.51 170,-45 213.01,-63.76 260.32,-88.96 293.17,-107.23"/>
<polygon fill="#cdc8b1" stroke="#cdc8b1" points="291.12,-110.1 301.55,-111.93 294.53,-103.99 291.12,-110.1"/>
</g>
<!-- Level Once Sensor -->
<g id="node6" class="node">
<title>Level Once Sensor</title>
<polygon fill="none" stroke="black" points="158.75,-322 27.25,-322 27.25,-286 158.75,-286 158.75,-322"/>
<text text-anchor="middle" x="93" y="-298.57" font-family="Helvetica,sans-Serif" font-size="14.00">Level Once Sensor</text>
</g>
<!-- Level Once Sensor_linked -->
<g id="node7" class="node">
<title>Level Once Sensor_linked</title>
<polygon fill="none" stroke="black" stroke-dasharray="1,5" points="367.2,-322 304.25,-322 304.25,-286 367.2,-286 367.2,-322"/>
<text text-anchor="start" x="309.85" y="-298.57" font-family="Helvetica,sans-Serif" font-size="14.00">Danger &#160;</text>
</g>
<!-- Level Once Sensor&#45;&gt;Level Once Sensor_linked -->
<g id="edge5" class="edge">
<title>Level Once Sensor&#45;&gt;Level Once Sensor_linked</title>
<path fill="none" stroke="#66cdaa" d="M159.14,-304C201.61,-304 255.79,-304 292.65,-304"/>
<polygon fill="#66cdaa" stroke="#66cdaa" points="292.47,-307.5 302.47,-304 292.47,-300.5 292.47,-307.5"/>
<text text-anchor="middle" x="220.62" y="-306.45" font-family="Helvetica,sans-Serif" font-size="14.00" fill="#66cdaa">QueueEnd</text>
</g>
<!-- RunAwaySensor -->
<g id="node8" class="node">
<title>RunAwaySensor</title>
<polygon fill="none" stroke="black" points="151.25,-376 34.75,-376 34.75,-340 151.25,-340 151.25,-376"/>
<text text-anchor="middle" x="93" y="-352.57" font-family="Helvetica,sans-Serif" font-size="14.00">RunAwaySensor</text>
</g>
<!-- AttackSensor -->
<g id="node9" class="node">
<title>AttackSensor</title>
<polygon fill="none" stroke="black" points="141.12,-430 44.88,-430 44.88,-394 141.12,-394 141.12,-430"/>
<text text-anchor="middle" x="93" y="-406.57" font-family="Helvetica,sans-Serif" font-size="14.00">AttackSensor</text>
</g>
<!-- AttackSensor_linked -->
<g id="node10" class="node">
<title>AttackSensor_linked</title>
<polygon fill="none" stroke="black" stroke-dasharray="1,5" points="400.2,-440.23 271.25,-440.23 271.25,-373.77 400.2,-373.77 400.2,-440.23"/>
<text text-anchor="start" x="309.85" y="-421.32" font-family="Helvetica,sans-Serif" font-size="14.00">Danger &#160;</text>
<text text-anchor="start" x="298.23" y="-401.57" font-family="Helvetica,sans-Serif" font-size="14.00">JumpSlash &#160;</text>
<text text-anchor="start" x="276.85" y="-381.82" font-family="Helvetica,sans-Serif" font-size="14.00">DoubleJumpSlash &#160;</text>
</g>
<!-- AttackSensor&#45;&gt;AttackSensor_linked -->
<g id="edge6" class="edge">
<title>AttackSensor&#45;&gt;AttackSensor_linked</title>
<path fill="none" stroke="#66cdaa" d="M141.56,-411.01C175.23,-410.31 221.08,-409.36 259.66,-408.56"/>
<polygon fill="#66cdaa" stroke="#66cdaa" points="259.41,-412.07 269.34,-408.36 259.27,-405.07 259.41,-412.07"/>
<text text-anchor="middle" x="220.62" y="-412.4" font-family="Helvetica,sans-Serif" font-size="14.00" fill="#66cdaa">QueueEnd</text>
</g>
<!-- DodgePredictSensor -->
<g id="node11" class="node">
<title>DodgePredictSensor</title>
<polygon fill="none" stroke="black" points="24,-474 24,-495.75 162,-495.75 162,-474 24,-474"/>
<text text-anchor="start" x="27" y="-479.45" font-family="Helvetica,sans-Serif" font-size="14.00">DodgePredictSensor &#160;</text>
<polygon fill="none" stroke="black" points="24,-452.25 24,-474 162,-474 162,-452.25 24,-452.25"/>
<text text-anchor="start" x="27" y="-458.7" font-family="Helvetica,sans-Serif" font-size="12.00" fill="#838b8b">if: Dodge</text>
<text text-anchor="start" x="75" y="-458.7" font-family="Helvetica,sans-Serif" font-size="14.00"> &#160;</text>
</g>
<!-- DodgePredictSensor_linked -->
<g id="node12" class="node">
<title>DodgePredictSensor_linked</title>
<polygon fill="none" stroke="black" stroke-dasharray="1,5" points="367.2,-494 304.25,-494 304.25,-458 367.2,-458 367.2,-494"/>
<text text-anchor="start" x="309.85" y="-470.57" font-family="Helvetica,sans-Serif" font-size="14.00">Danger &#160;</text>
</g>
<!-- DodgePredictSensor&#45;&gt;DodgePredictSensor_linked -->
<g id="edge7" class="edge">
<title>DodgePredictSensor&#45;&gt;DodgePredictSensor_linked</title>
<path fill="none" stroke="#66cdaa" d="M169.84,-474.63C210.4,-474.97 258.81,-475.37 292.64,-475.65"/>
<polygon fill="#66cdaa" stroke="#66cdaa" points="292.42,-479.15 302.45,-475.73 292.48,-472.15 292.42,-479.15"/>
<text text-anchor="middle" x="220.62" y="-477.75" font-family="Helvetica,sans-Serif" font-size="14.00" fill="#66cdaa">QueueEnd</text>
</g>
<!-- AttackPredictSensor -->
<g id="node13" class="node">
<title>AttackPredictSensor</title>
<polygon fill="none" stroke="black" points="25.12,-544 25.12,-565.75 160.88,-565.75 160.88,-544 25.12,-544"/>
<text text-anchor="start" x="28.12" y="-549.45" font-family="Helvetica,sans-Serif" font-size="14.00">AttackPredictSensor &#160;</text>
<polygon fill="none" stroke="black" points="25.12,-522.25 25.12,-544 160.88,-544 160.88,-522.25 25.12,-522.25"/>
<text text-anchor="start" x="28.12" y="-528.7" font-family="Helvetica,sans-Serif" font-size="12.00" fill="#838b8b">if: Attack</text>
<text text-anchor="start" x="73.12" y="-528.7" font-family="Helvetica,sans-Serif" font-size="14.00"> &#160;</text>
</g>
<!-- AttackPredictSensor_linked -->
<g id="node14" class="node">
<title>AttackPredictSensor_linked</title>
<polygon fill="none" stroke="black" stroke-dasharray="1,5" points="367.2,-562 304.25,-562 304.25,-526 367.2,-526 367.2,-562"/>
<text text-anchor="start" x="309.85" y="-538.58" font-family="Helvetica,sans-Serif" font-size="14.00">Danger &#160;</text>
</g>
<!-- AttackPredictSensor&#45;&gt;AttackPredictSensor_linked -->
<g id="edge8" class="edge">
<title>AttackPredictSensor&#45;&gt;AttackPredictSensor_linked</title>
<path fill="none" stroke="#66cdaa" d="M168.85,-544C209.59,-544 258.49,-544 292.6,-544"/>
<polygon fill="#66cdaa" stroke="#66cdaa" points="292.5,-547.5 302.5,-544 292.5,-540.5 292.5,-547.5"/>
<text text-anchor="middle" x="220.62" y="-546.45" font-family="Helvetica,sans-Serif" font-size="14.00" fill="#66cdaa">QueueEnd</text>
</g>
<!-- AttackRunToSensor -->
<g id="node15" class="node">
<title>AttackRunToSensor</title>
<polygon fill="none" stroke="black" points="26.62,-614 26.62,-635.75 159.38,-635.75 159.38,-614 26.62,-614"/>
<text text-anchor="start" x="29.62" y="-619.45" font-family="Helvetica,sans-Serif" font-size="14.00">AttackRunToSensor &#160;</text>
<polygon fill="none" stroke="black" points="26.62,-592.25 26.62,-614 159.38,-614 159.38,-592.25 26.62,-592.25"/>
<text text-anchor="start" x="29.62" y="-598.7" font-family="Helvetica,sans-Serif" font-size="12.00" fill="#838b8b">if: state is Engaging</text>
<text text-anchor="start" x="133.88" y="-598.7" font-family="Helvetica,sans-Serif" font-size="14.00"> &#160;</text>
</g>
<!-- AttackRunToSensor_linked -->
<g id="node16" class="node">
<title>AttackRunToSensor_linked</title>
<polygon fill="none" stroke="black" stroke-dasharray="1,5" points="367.2,-632 304.25,-632 304.25,-596 367.2,-596 367.2,-632"/>
<text text-anchor="start" x="309.85" y="-608.58" font-family="Helvetica,sans-Serif" font-size="14.00">Danger &#160;</text>
</g>
<!-- AttackRunToSensor&#45;&gt;AttackRunToSensor_linked -->
<g id="edge9" class="edge">
<title>AttackRunToSensor&#45;&gt;AttackRunToSensor_linked</title>
<path fill="none" stroke="#66cdaa" d="M167.21,-614C208.34,-614 258.21,-614 292.78,-614"/>
<polygon fill="#66cdaa" stroke="#66cdaa" points="292.37,-617.5 302.37,-614 292.37,-610.5 292.37,-617.5"/>
<text text-anchor="middle" x="220.62" y="-616.45" font-family="Helvetica,sans-Serif" font-size="14.00" fill="#66cdaa">QueueEnd</text>
</g>
</g>
</svg>
