<?xml version="1.0" encoding="UTF-8" standalone="no"?>
<!DOCTYPE svg PUBLIC "-//W3C//DTD SVG 1.1//EN"
 "http://www.w3.org/Graphics/SVG/1.1/DTD/svg11.dtd">
<!-- Generated by graphviz version 12.2.1 (20241206.2353)
 -->
<!-- Title: Foo Pages: 1 -->
<svg width="493pt" height="604pt"
 viewBox="0.00 0.00 492.95 604.00" xmlns="http://www.w3.org/2000/svg" xmlns:xlink="http://www.w3.org/1999/xlink">
<g id="graph0" class="graph" transform="scale(1 1) rotate(0) translate(4 600)">
<title>Foo</title>
<polygon fill="white" stroke="none" points="-4,4 -4,-600 488.95,-600 488.95,4 -4,4"/>
<g id="clust1" class="cluster">
<title>cluster_attacksensors</title>
<polygon fill="none" stroke="black" points="9.62,-8 9.62,-262 476.95,-262 476.95,-8 9.62,-8"/>
<text text-anchor="middle" x="243.29" y="-244.7" font-family="Helvetica,sans-Serif" font-size="14.00">Attack Sensors</text>
</g>
<!-- Level Once Sensor -->
<g id="node1" class="node">
<title>Level Once Sensor</title>
<polygon fill="none" stroke="black" points="30.12,-23.12 30.12,-44.88 159.12,-44.88 159.12,-23.12 30.12,-23.12"/>
<text text-anchor="start" x="33.12" y="-28.57" font-family="Helvetica,sans-Serif" font-size="14.00">Level Once Sensor &#160;</text>
</g>
<!-- Level Once Sensor_linked -->
<g id="node2" class="node">
<title>Level Once Sensor_linked</title>
<polygon fill="none" stroke="black" stroke-dasharray="1,5" points="432.95,-52 326.5,-52 326.5,-16 432.95,-16 432.95,-52"/>
<text text-anchor="start" x="332.1" y="-28.57" font-family="Helvetica,sans-Serif" font-size="14.00">Attack1_Shoot &#160;</text>
</g>
<!-- Level Once Sensor&#45;&gt;Level Once Sensor_linked -->
<g id="edge1" class="edge">
<title>Level Once Sensor&#45;&gt;Level Once Sensor_linked</title>
<path fill="none" stroke="#66cdaa" d="M167.06,-34C212.47,-34 270.76,-34 314.67,-34"/>
<polygon fill="#66cdaa" stroke="#66cdaa" points="314.56,-37.5 324.56,-34 314.56,-30.5 314.56,-37.5"/>
<text text-anchor="middle" x="239.88" y="-36.45" font-family="Helvetica,sans-Serif" font-size="14.00" fill="#66cdaa">QueueEnd</text>
</g>
<!-- Level Once Sensor_weight -->
<g id="node3" class="node">
<title>Level Once Sensor_weight</title>
<polygon fill="none" stroke="black" stroke-dasharray="1,5" points="412.23,-106 347.23,-106 347.23,-70 412.23,-70 412.23,-106"/>
<text text-anchor="start" x="357.23" y="-82.58" font-family="Helvetica,sans-Serif" font-size="14.00">1 Skip &#160;</text>
</g>
<!-- Level Once Sensor&#45;&gt;Level Once Sensor_weight -->
<g id="edge2" class="edge">
<title>Level Once Sensor&#45;&gt;Level Once Sensor_weight</title>
<path fill="none" stroke="#458b74" d="M167.06,-47.63C220.25,-57.77 291.12,-71.29 335.84,-79.82"/>
<polygon fill="#458b74" stroke="#458b74" points="334.93,-83.21 345.41,-81.64 336.24,-76.33 334.93,-83.21"/>
<text text-anchor="middle" x="239.88" y="-69.87" font-family="Helvetica,sans-Serif" font-size="14.00" fill="#458b74">Weight</text>
</g>
<!-- RunAwaySensor -->
<g id="node4" class="node">
<title>RunAwaySensor</title>
<polygon fill="none" stroke="black" points="37.62,-77.12 37.62,-98.88 151.62,-98.88 151.62,-77.12 37.62,-77.12"/>
<text text-anchor="start" x="40.62" y="-82.58" font-family="Helvetica,sans-Serif" font-size="14.00">RunAwaySensor &#160;</text>
</g>
<!-- AttackSensor -->
<g id="node5" class="node">
<title>AttackSensor</title>
<polygon fill="none" stroke="black" points="47.75,-131.12 47.75,-152.88 141.5,-152.88 141.5,-131.12 47.75,-131.12"/>
<text text-anchor="start" x="50.75" y="-136.57" font-family="Helvetica,sans-Serif" font-size="14.00">AttackSensor &#160;</text>
</g>
<!-- AttackSensor_linked -->
<g id="node6" class="node">
<title>AttackSensor_linked</title>
<polygon fill="none" stroke="black" stroke-dasharray="1,5" points="468.95,-160 290.5,-160 290.5,-124 468.95,-124 468.95,-160"/>
<text text-anchor="start" x="296.1" y="-136.57" font-family="Helvetica,sans-Serif" font-size="14.00">Attack2_TeleportAndShoot &#160;</text>
</g>
<!-- AttackSensor&#45;&gt;AttackSensor_linked -->
<g id="edge3" class="edge">
<title>AttackSensor&#45;&gt;AttackSensor_linked</title>
<path fill="none" stroke="#66cdaa" d="M149.21,-142C185.7,-142 235.13,-142 278.77,-142"/>
<polygon fill="#66cdaa" stroke="#66cdaa" points="278.5,-145.5 288.5,-142 278.5,-138.5 278.5,-145.5"/>
<text text-anchor="middle" x="239.88" y="-144.45" font-family="Helvetica,sans-Serif" font-size="14.00" fill="#66cdaa">QueueEnd</text>
</g>
<!-- DodgePredictSensor -->
<g id="node7" class="node">
<title>DodgePredictSensor</title>
<polygon fill="none" stroke="black" points="25.62,-204 25.62,-225.75 163.62,-225.75 163.62,-204 25.62,-204"/>
<text text-anchor="start" x="28.62" y="-209.45" font-family="Helvetica,sans-Serif" font-size="14.00">DodgePredictSensor &#160;</text>
<polygon fill="none" stroke="black" points="25.62,-182.25 25.62,-204 163.62,-204 163.62,-182.25 25.62,-182.25"/>
<text text-anchor="start" x="28.62" y="-188.7" font-family="Helvetica,sans-Serif" font-size="12.00" fill="#838b8b">if: rollingCondition</text>
<text text-anchor="start" x="125.38" y="-188.7" font-family="Helvetica,sans-Serif" font-size="14.00"> &#160;</text>
</g>
<!-- DodgePredictSensor_linked -->
<g id="node8" class="node">
<title>DodgePredictSensor_linked</title>
<polygon fill="none" stroke="black" stroke-dasharray="1,5" points="432.95,-222 326.5,-222 326.5,-186 432.95,-186 432.95,-222"/>
<text text-anchor="start" x="332.1" y="-198.57" font-family="Helvetica,sans-Serif" font-size="14.00">Attack1_Shoot &#160;</text>
</g>
<!-- DodgePredictSensor&#45;&gt;DodgePredictSensor_linked -->
<g id="edge4" class="edge">
<title>DodgePredictSensor&#45;&gt;DodgePredictSensor_linked</title>
<path fill="none" stroke="#66cdaa" d="M171.49,-204C216.35,-204 272.52,-204 315.06,-204"/>
<polygon fill="#66cdaa" stroke="#66cdaa" points="314.88,-207.5 324.88,-204 314.88,-200.5 314.88,-207.5"/>
<text text-anchor="middle" x="239.88" y="-206.45" font-family="Helvetica,sans-Serif" font-size="14.00" fill="#66cdaa">QueueEnd</text>
</g>
<!-- Attack1_Shoot -->
<g id="node9" class="node">
<title>Attack1_Shoot</title>
<polygon fill="none" stroke="black" points="44,-516 44,-537.75 145.25,-537.75 145.25,-516 44,-516"/>
<text text-anchor="start" x="47" y="-521.45" font-family="Helvetica,sans-Serif" font-size="14.00">Attack1_Shoot &#160;</text>
<polygon fill="none" stroke="black" points="44,-494.25 44,-516 145.25,-516 145.25,-494.25 44,-494.25"/>
<text text-anchor="start" x="47" y="-500.7" font-family="Helvetica,sans-Serif" font-size="12.00" fill="#838b8b">1.83s: Done</text>
<text text-anchor="start" x="111.5" y="-500.7" font-family="Helvetica,sans-Serif" font-size="14.00"> &#160;</text>
</g>
<!-- Engaging -->
<g id="node10" class="node">
<title>Engaging</title>
<polygon fill="none" stroke="black" points="416.23,-421 343.23,-421 343.23,-385 416.23,-385 416.23,-421"/>
<text text-anchor="middle" x="379.73" y="-397.57" font-family="Helvetica,sans-Serif" font-size="14.00">Engaging</text>
</g>
<!-- Attack1_Shoot&#45;&gt;Engaging -->
<g id="edge5" class="edge">
<title>Attack1_Shoot&#45;&gt;Engaging</title>
<path fill="none" stroke="#cdc8b1" d="M153.17,-494.83C165.13,-490.33 177.62,-485.57 189.25,-481 238.43,-461.69 294.33,-438.53 332.59,-422.49"/>
<polygon fill="#cdc8b1" stroke="#cdc8b1" points="333.63,-425.84 341.5,-418.75 330.92,-419.39 333.63,-425.84"/>
</g>
<!-- Attack2_TeleportAndShoot -->
<g id="node11" class="node">
<title>Attack2_TeleportAndShoot</title>
<polygon fill="none" stroke="black" points="8,-446.12 8,-467.88 181.25,-467.88 181.25,-446.12 8,-446.12"/>
<text text-anchor="start" x="11" y="-451.57" font-family="Helvetica,sans-Serif" font-size="14.00">Attack2_TeleportAndShoot &#160;</text>
<polygon fill="none" stroke="black" points="8,-414.12 8,-446.12 181.25,-446.12 181.25,-414.12 8,-414.12"/>
<text text-anchor="start" x="11" y="-432.73" font-family="Helvetica,sans-Serif" font-size="12.00" fill="#838b8b">0.92s: CheckFacing</text>
<text text-anchor="start" x="11" y="-418.83" font-family="Helvetica,sans-Serif" font-size="12.00" fill="#838b8b">2.42s: Done</text>
<text text-anchor="start" x="75.5" y="-418.83" font-family="Helvetica,sans-Serif" font-size="14.00"> &#160;</text>
</g>
<!-- Attack2_TeleportAndShoot&#45;&gt;Engaging -->
<g id="edge6" class="edge">
<title>Attack2_TeleportAndShoot&#45;&gt;Engaging</title>
<path fill="none" stroke="#cdc8b1" d="M189.11,-428.45C237.04,-422.02 293.32,-414.46 332.04,-409.27"/>
<polygon fill="#cdc8b1" stroke="#cdc8b1" points="332.03,-412.8 341.47,-408 331.1,-405.86 332.03,-412.8"/>
</g>
<!-- Hurt1 -->
<g id="node12" class="node">
<title>Hurt1</title>
<polygon fill="none" stroke="black" points="55.62,-366 55.62,-387.75 133.62,-387.75 133.62,-366 55.62,-366"/>
<text text-anchor="start" x="74.38" y="-371.45" font-family="Helvetica,sans-Serif" font-size="14.00">Hurt1 &#160;</text>
<polygon fill="none" stroke="black" points="55.62,-344.25 55.62,-366 133.62,-366 133.62,-344.25 55.62,-344.25"/>
<text text-anchor="start" x="58.62" y="-350.7" font-family="Helvetica,sans-Serif" font-size="12.00" fill="#838b8b">0.17s: Done</text>
<text text-anchor="start" x="123.12" y="-350.7" font-family="Helvetica,sans-Serif" font-size="14.00"> &#160;</text>
</g>
<!-- Hurt1&#45;&gt;Engaging -->
<g id="edge7" class="edge">
<title>Hurt1&#45;&gt;Engaging</title>
<path fill="none" stroke="#cdc8b1" d="M141.42,-371.99C193.65,-378.81 278.63,-389.92 331.46,-396.82"/>
<polygon fill="#cdc8b1" stroke="#cdc8b1" points="331,-400.29 341.37,-398.12 331.91,-393.35 331,-400.29"/>
</g>
<!-- Hurt2 -->
<g id="node13" class="node">
<title>Hurt2</title>
<polygon fill="none" stroke="black" points="55.62,-296 55.62,-317.75 133.62,-317.75 133.62,-296 55.62,-296"/>
<text text-anchor="start" x="74.38" y="-301.45" font-family="Helvetica,sans-Serif" font-size="14.00">Hurt2 &#160;</text>
<polygon fill="none" stroke="black" points="55.62,-274.25 55.62,-296 133.62,-296 133.62,-274.25 55.62,-274.25"/>
<text text-anchor="start" x="58.62" y="-280.7" font-family="Helvetica,sans-Serif" font-size="12.00" fill="#838b8b">1.00s: Done</text>
<text text-anchor="start" x="123.12" y="-280.7" font-family="Helvetica,sans-Serif" font-size="14.00"> &#160;</text>
</g>
<!-- Hurt2&#45;&gt;Engaging -->
<g id="edge8" class="edge">
<title>Hurt2&#45;&gt;Engaging</title>
<path fill="none" stroke="#cdc8b1" d="M141.36,-313.04C156.6,-318.73 173.66,-325.12 189.25,-331 238.16,-349.43 294.1,-370.72 332.45,-385.33"/>
<polygon fill="#cdc8b1" stroke="#cdc8b1" points="330.77,-388.44 341.36,-388.73 333.26,-381.9 330.77,-388.44"/>
</g>
<!-- Idle -->
<g id="node14" class="node">
<title>Idle</title>
<polygon fill="none" stroke="black" points="128.88,-596 60.38,-596 60.38,-560 128.88,-560 128.88,-596"/>
<text text-anchor="middle" x="94.62" y="-572.58" font-family="Helvetica,sans-Serif" font-size="14.00">Idle (Init)</text>
</g>
</g>
</svg>
