<?xml version="1.0" encoding="UTF-8" standalone="no"?>
<!DOCTYPE svg PUBLIC "-//W3C//DTD SVG 1.1//EN"
 "http://www.w3.org/Graphics/SVG/1.1/DTD/svg11.dtd">
<!-- Generated by graphviz version 12.2.1 (20241206.2353)
 -->
<!-- Title: Foo Pages: 1 -->
<svg width="493pt" height="606pt"
 viewBox="0.00 0.00 492.95 605.75" xmlns="http://www.w3.org/2000/svg" xmlns:xlink="http://www.w3.org/1999/xlink">
<g id="graph0" class="graph" transform="scale(1 1) rotate(0) translate(4 601.75)">
<title>Foo</title>
<polygon fill="white" stroke="none" points="-4,4 -4,-601.75 488.95,-601.75 488.95,4 -4,4"/>
<g id="clust1" class="cluster">
<title>cluster_attacksensors</title>
<polygon fill="none" stroke="black" points="9.62,-335.75 9.62,-589.75 476.95,-589.75 476.95,-335.75 9.62,-335.75"/>
<text text-anchor="middle" x="243.29" y="-572.45" font-family="Helvetica,sans-Serif" font-size="14.00">Attack Sensors</text>
</g>
<!-- Attack1_Shoot -->
<g id="node1" class="node">
<title>Attack1_Shoot</title>
<polygon fill="none" stroke="black" points="44,-245.75 44,-267.5 145.25,-267.5 145.25,-245.75 44,-245.75"/>
<text text-anchor="start" x="47" y="-251.2" font-family="Helvetica,sans-Serif" font-size="14.00">Attack1_Shoot &#160;</text>
<polygon fill="none" stroke="black" points="44,-224 44,-245.75 145.25,-245.75 145.25,-224 44,-224"/>
<text text-anchor="start" x="47" y="-230.45" font-family="Helvetica,sans-Serif" font-size="12.00" fill="#838b8b">1.83s: Done</text>
<text text-anchor="start" x="111.5" y="-230.45" font-family="Helvetica,sans-Serif" font-size="14.00"> &#160;</text>
</g>
<!-- Engaging -->
<g id="node2" class="node">
<title>Engaging</title>
<polygon fill="none" stroke="black" points="416.23,-150.75 343.23,-150.75 343.23,-114.75 416.23,-114.75 416.23,-150.75"/>
<text text-anchor="middle" x="379.73" y="-127.33" font-family="Helvetica,sans-Serif" font-size="14.00">Engaging</text>
</g>
<!-- Attack1_Shoot&#45;&gt;Engaging -->
<g id="edge1" class="edge">
<title>Attack1_Shoot&#45;&gt;Engaging</title>
<path fill="none" stroke="#cdc8b1" d="M153.17,-224.58C165.13,-220.08 177.62,-215.32 189.25,-210.75 238.43,-191.44 294.33,-168.28 332.59,-152.24"/>
<polygon fill="#cdc8b1" stroke="#cdc8b1" points="333.63,-155.59 341.5,-148.5 330.92,-149.14 333.63,-155.59"/>
</g>
<!-- Attack2_TeleportAndShoot -->
<g id="node3" class="node">
<title>Attack2_TeleportAndShoot</title>
<polygon fill="none" stroke="black" points="8,-175.88 8,-197.62 181.25,-197.62 181.25,-175.88 8,-175.88"/>
<text text-anchor="start" x="11" y="-181.32" font-family="Helvetica,sans-Serif" font-size="14.00">Attack2_TeleportAndShoot &#160;</text>
<polygon fill="none" stroke="black" points="8,-143.88 8,-175.88 181.25,-175.88 181.25,-143.88 8,-143.88"/>
<text text-anchor="start" x="11" y="-162.47" font-family="Helvetica,sans-Serif" font-size="12.00" fill="#838b8b">0.92s: CheckFacing</text>
<text text-anchor="start" x="11" y="-148.57" font-family="Helvetica,sans-Serif" font-size="12.00" fill="#838b8b">2.42s: Done</text>
<text text-anchor="start" x="75.5" y="-148.57" font-family="Helvetica,sans-Serif" font-size="14.00"> &#160;</text>
</g>
<!-- Attack2_TeleportAndShoot&#45;&gt;Engaging -->
<g id="edge2" class="edge">
<title>Attack2_TeleportAndShoot&#45;&gt;Engaging</title>
<path fill="none" stroke="#cdc8b1" d="M189.11,-158.2C237.04,-151.77 293.32,-144.21 332.04,-139.02"/>
<polygon fill="#cdc8b1" stroke="#cdc8b1" points="332.03,-142.55 341.47,-137.75 331.1,-135.61 332.03,-142.55"/>
</g>
<!-- Hurt1 -->
<g id="node4" class="node">
<title>Hurt1</title>
<polygon fill="none" stroke="black" points="55.62,-95.75 55.62,-117.5 133.62,-117.5 133.62,-95.75 55.62,-95.75"/>
<text text-anchor="start" x="74.38" y="-101.2" font-family="Helvetica,sans-Serif" font-size="14.00">Hurt1 &#160;</text>
<polygon fill="none" stroke="black" points="55.62,-74 55.62,-95.75 133.62,-95.75 133.62,-74 55.62,-74"/>
<text text-anchor="start" x="58.62" y="-80.45" font-family="Helvetica,sans-Serif" font-size="12.00" fill="#838b8b">0.17s: Done</text>
<text text-anchor="start" x="123.12" y="-80.45" font-family="Helvetica,sans-Serif" font-size="14.00"> &#160;</text>
</g>
<!-- Hurt1&#45;&gt;Engaging -->
<g id="edge3" class="edge">
<title>Hurt1&#45;&gt;Engaging</title>
<path fill="none" stroke="#cdc8b1" d="M141.42,-101.74C193.65,-108.56 278.63,-119.67 331.46,-126.57"/>
<polygon fill="#cdc8b1" stroke="#cdc8b1" points="331,-130.04 341.37,-127.87 331.91,-123.1 331,-130.04"/>
</g>
<!-- Hurt2 -->
<g id="node5" class="node">
<title>Hurt2</title>
<polygon fill="none" stroke="black" points="55.62,-25.75 55.62,-47.5 133.62,-47.5 133.62,-25.75 55.62,-25.75"/>
<text text-anchor="start" x="74.38" y="-31.2" font-family="Helvetica,sans-Serif" font-size="14.00">Hurt2 &#160;</text>
<polygon fill="none" stroke="black" points="55.62,-4 55.62,-25.75 133.62,-25.75 133.62,-4 55.62,-4"/>
<text text-anchor="start" x="58.62" y="-10.45" font-family="Helvetica,sans-Serif" font-size="12.00" fill="#838b8b">1.00s: Done</text>
<text text-anchor="start" x="123.12" y="-10.45" font-family="Helvetica,sans-Serif" font-size="14.00"> &#160;</text>
</g>
<!-- Hurt2&#45;&gt;Engaging -->
<g id="edge4" class="edge">
<title>Hurt2&#45;&gt;Engaging</title>
<path fill="none" stroke="#cdc8b1" d="M141.36,-42.79C156.6,-48.48 173.66,-54.87 189.25,-60.75 238.16,-79.18 294.1,-100.47 332.45,-115.08"/>
<polygon fill="#cdc8b1" stroke="#cdc8b1" points="330.77,-118.19 341.36,-118.48 333.26,-111.65 330.77,-118.19"/>
</g>
<!-- Idle -->
<g id="node6" class="node">
<title>Idle</title>
<polygon fill="none" stroke="black" points="128.88,-325.75 60.38,-325.75 60.38,-289.75 128.88,-289.75 128.88,-325.75"/>
<text text-anchor="middle" x="94.62" y="-302.32" font-family="Helvetica,sans-Serif" font-size="14.00">Idle (Init)</text>
</g>
<!-- Level Once Sensor -->
<g id="node7" class="node">
<title>Level Once Sensor</title>
<polygon fill="none" stroke="black" points="160.38,-379.75 28.88,-379.75 28.88,-343.75 160.38,-343.75 160.38,-379.75"/>
<text text-anchor="middle" x="94.62" y="-356.32" font-family="Helvetica,sans-Serif" font-size="14.00">Level Once Sensor</text>
</g>
<!-- Level Once Sensor_linked -->
<g id="node8" class="node">
<title>Level Once Sensor_linked</title>
<polygon fill="none" stroke="black" stroke-dasharray="1,5" points="432.95,-379.75 326.5,-379.75 326.5,-343.75 432.95,-343.75 432.95,-379.75"/>
<text text-anchor="start" x="332.1" y="-356.32" font-family="Helvetica,sans-Serif" font-size="14.00">Attack1_Shoot &#160;</text>
</g>
<!-- Level Once Sensor&#45;&gt;Level Once Sensor_linked -->
<g id="edge5" class="edge">
<title>Level Once Sensor&#45;&gt;Level Once Sensor_linked</title>
<path fill="none" stroke="#66cdaa" d="M160.57,-361.75C206.92,-361.75 268.96,-361.75 315.02,-361.75"/>
<polygon fill="#66cdaa" stroke="#66cdaa" points="314.86,-365.25 324.86,-361.75 314.86,-358.25 314.86,-365.25"/>
<text text-anchor="middle" x="239.88" y="-364.2" font-family="Helvetica,sans-Serif" font-size="14.00" fill="#66cdaa">QueueEnd</text>
</g>
<!-- Level Once Sensor_mustuse -->
<g id="node9" class="node">
<title>Level Once Sensor_mustuse</title>
<polygon fill="none" stroke="black" stroke-dasharray="1,5" points="429.85,-433.75 329.6,-433.75 329.6,-397.75 429.85,-397.75 429.85,-433.75"/>
<text text-anchor="start" x="339.6" y="-410.32" font-family="Helvetica,sans-Serif" font-size="14.00">1 Undefined &#160;</text>
</g>
<!-- Level Once Sensor&#45;&gt;Level Once Sensor_mustuse -->
<g id="edge6" class="edge">
<title>Level Once Sensor&#45;&gt;Level Once Sensor_mustuse</title>
<path fill="none" stroke="#458b74" d="M160.57,-374.14C208.08,-383.2 272.06,-395.4 318.43,-404.25"/>
<polygon fill="#458b74" stroke="#458b74" points="317.56,-407.65 328.04,-406.08 318.87,-400.77 317.56,-407.65"/>
<text text-anchor="middle" x="239.88" y="-397.62" font-family="Helvetica,sans-Serif" font-size="14.00" fill="#458b74">Weight</text>
</g>
<!-- RunAwaySensor -->
<g id="node10" class="node">
<title>RunAwaySensor</title>
<polygon fill="none" stroke="black" points="152.88,-433.75 36.38,-433.75 36.38,-397.75 152.88,-397.75 152.88,-433.75"/>
<text text-anchor="middle" x="94.62" y="-410.32" font-family="Helvetica,sans-Serif" font-size="14.00">RunAwaySensor</text>
</g>
<!-- AttackSensor -->
<g id="node11" class="node">
<title>AttackSensor</title>
<polygon fill="none" stroke="black" points="142.75,-487.75 46.5,-487.75 46.5,-451.75 142.75,-451.75 142.75,-487.75"/>
<text text-anchor="middle" x="94.62" y="-464.32" font-family="Helvetica,sans-Serif" font-size="14.00">AttackSensor</text>
</g>
<!-- AttackSensor_linked -->
<g id="node12" class="node">
<title>AttackSensor_linked</title>
<polygon fill="none" stroke="black" stroke-dasharray="1,5" points="468.95,-487.75 290.5,-487.75 290.5,-451.75 468.95,-451.75 468.95,-487.75"/>
<text text-anchor="start" x="296.1" y="-464.32" font-family="Helvetica,sans-Serif" font-size="14.00">Attack2_TeleportAndShoot &#160;</text>
</g>
<!-- AttackSensor&#45;&gt;AttackSensor_linked -->
<g id="edge7" class="edge">
<title>AttackSensor&#45;&gt;AttackSensor_linked</title>
<path fill="none" stroke="#66cdaa" d="M143.01,-469.75C180.02,-469.75 232.74,-469.75 278.95,-469.75"/>
<polygon fill="#66cdaa" stroke="#66cdaa" points="278.72,-473.25 288.72,-469.75 278.72,-466.25 278.72,-473.25"/>
<text text-anchor="middle" x="239.88" y="-472.2" font-family="Helvetica,sans-Serif" font-size="14.00" fill="#66cdaa">QueueEnd</text>
</g>
<!-- DodgePredictSensor -->
<g id="node13" class="node">
<title>DodgePredictSensor</title>
<polygon fill="none" stroke="black" points="25.62,-531.75 25.62,-553.5 163.62,-553.5 163.62,-531.75 25.62,-531.75"/>
<text text-anchor="start" x="28.62" y="-537.2" font-family="Helvetica,sans-Serif" font-size="14.00">DodgePredictSensor &#160;</text>
<polygon fill="none" stroke="black" points="25.62,-510 25.62,-531.75 163.62,-531.75 163.62,-510 25.62,-510"/>
<text text-anchor="start" x="28.62" y="-516.45" font-family="Helvetica,sans-Serif" font-size="12.00" fill="#838b8b">if: Dodge</text>
<text text-anchor="start" x="76.62" y="-516.45" font-family="Helvetica,sans-Serif" font-size="14.00"> &#160;</text>
</g>
<!-- DodgePredictSensor_linked -->
<g id="node14" class="node">
<title>DodgePredictSensor_linked</title>
<polygon fill="none" stroke="black" stroke-dasharray="1,5" points="432.95,-549.75 326.5,-549.75 326.5,-513.75 432.95,-513.75 432.95,-549.75"/>
<text text-anchor="start" x="332.1" y="-526.33" font-family="Helvetica,sans-Serif" font-size="14.00">Attack1_Shoot &#160;</text>
</g>
<!-- DodgePredictSensor&#45;&gt;DodgePredictSensor_linked -->
<g id="edge8" class="edge">
<title>DodgePredictSensor&#45;&gt;DodgePredictSensor_linked</title>
<path fill="none" stroke="#66cdaa" d="M171.49,-531.75C216.35,-531.75 272.52,-531.75 315.06,-531.75"/>
<polygon fill="#66cdaa" stroke="#66cdaa" points="314.88,-535.25 324.88,-531.75 314.88,-528.25 314.88,-535.25"/>
<text text-anchor="middle" x="239.88" y="-534.2" font-family="Helvetica,sans-Serif" font-size="14.00" fill="#66cdaa">QueueEnd</text>
</g>
</g>
</svg>
