<?xml version="1.0" encoding="UTF-8" standalone="no"?>
<!DOCTYPE svg PUBLIC "-//W3C//DTD SVG 1.1//EN"
 "http://www.w3.org/Graphics/SVG/1.1/DTD/svg11.dtd">
<!-- Generated by graphviz version 12.2.1 (20241206.2353)
 -->
<!-- Title: Foo Pages: 1 -->
<svg width="396pt" height="758pt"
 viewBox="0.00 0.00 395.50 757.75" xmlns="http://www.w3.org/2000/svg" xmlns:xlink="http://www.w3.org/1999/xlink">
<g id="graph0" class="graph" transform="scale(1 1) rotate(0) translate(4 753.75)">
<title>Foo</title>
<polygon fill="white" stroke="none" points="-4,4 -4,-753.75 391.5,-753.75 391.5,4 -4,4"/>
<g id="clust1" class="cluster">
<title>cluster_attacksensors</title>
<polygon fill="none" stroke="black" points="8,-347.75 8,-741.75 379.5,-741.75 379.5,-347.75 8,-347.75"/>
<text text-anchor="middle" x="193.75" y="-724.45" font-family="Helvetica,sans-Serif" font-size="14.00">Attack Sensors</text>
</g>
<!-- Attack -->
<g id="node1" class="node">
<title>Attack</title>
<polygon fill="none" stroke="black" points="54,-187.75 54,-209.5 132,-209.5 132,-187.75 54,-187.75"/>
<text text-anchor="start" x="70.5" y="-193.2" font-family="Helvetica,sans-Serif" font-size="14.00">Attack &#160;</text>
<polygon fill="none" stroke="black" points="54,-166 54,-187.75 132,-187.75 132,-166 54,-166"/>
<text text-anchor="start" x="57" y="-172.45" font-family="Helvetica,sans-Serif" font-size="12.00" fill="#838b8b">1.80s: Done</text>
<text text-anchor="start" x="121.5" y="-172.45" font-family="Helvetica,sans-Serif" font-size="14.00"> &#160;</text>
</g>
<!-- Engaging -->
<g id="node2" class="node">
<title>Engaging</title>
<polygon fill="none" stroke="black" points="357.88,-124.75 284.88,-124.75 284.88,-88.75 357.88,-88.75 357.88,-124.75"/>
<text text-anchor="middle" x="321.38" y="-101.33" font-family="Helvetica,sans-Serif" font-size="14.00">Engaging</text>
</g>
<!-- Attack&#45;&gt;Engaging -->
<g id="edge1" class="edge">
<title>Attack&#45;&gt;Engaging</title>
<path fill="none" stroke="#cdc8b1" d="M139.81,-171.36C178.9,-157.37 234.84,-137.35 274.07,-123.32"/>
<polygon fill="#cdc8b1" stroke="#cdc8b1" points="275,-126.7 283.24,-120.04 272.65,-120.11 275,-126.7"/>
</g>
<!-- FooAttached -->
<g id="node3" class="node">
<title>FooAttached</title>
<polygon fill="none" stroke="black" points="36.75,-117.88 36.75,-139.62 149.25,-139.62 149.25,-117.88 36.75,-117.88"/>
<text text-anchor="start" x="51" y="-123.33" font-family="Helvetica,sans-Serif" font-size="14.00">FooAttached &#160;</text>
<polygon fill="none" stroke="black" points="36.75,-73.88 36.75,-117.88 149.25,-117.88 149.25,-73.88 36.75,-73.88"/>
<text text-anchor="start" x="39.75" y="-104.47" font-family="Helvetica,sans-Serif" font-size="12.00" fill="#838b8b">2.00s: CheckFacing</text>
<text text-anchor="start" x="39.75" y="-92.47" font-family="Helvetica,sans-Serif" font-size="12.00" fill="#838b8b">2.83s: Done</text>
<text text-anchor="start" x="39.75" y="-78.57" font-family="Helvetica,sans-Serif" font-size="12.00" fill="#838b8b">8.50s: Done</text>
<text text-anchor="start" x="104.25" y="-78.57" font-family="Helvetica,sans-Serif" font-size="14.00"> &#160;</text>
</g>
<!-- FooAttached&#45;&gt;Engaging -->
<g id="edge2" class="edge">
<title>FooAttached&#45;&gt;Engaging</title>
<path fill="none" stroke="#cdc8b1" d="M157.06,-106.75C193.8,-106.75 239.38,-106.75 273.05,-106.75"/>
<polygon fill="#cdc8b1" stroke="#cdc8b1" points="272.91,-110.25 282.91,-106.75 272.91,-103.25 272.91,-110.25"/>
</g>
<!-- PostureBreak -->
<g id="node4" class="node">
<title>PostureBreak</title>
<polygon fill="none" stroke="black" points="45.38,-257.75 45.38,-279.5 140.62,-279.5 140.62,-257.75 45.38,-257.75"/>
<text text-anchor="start" x="48.38" y="-263.2" font-family="Helvetica,sans-Serif" font-size="14.00">PostureBreak &#160;</text>
<polygon fill="none" stroke="black" points="45.38,-236 45.38,-257.75 140.62,-257.75 140.62,-236 45.38,-236"/>
<text text-anchor="start" x="48.38" y="-242.45" font-family="Helvetica,sans-Serif" font-size="12.00" fill="#838b8b">4.33s: Done</text>
<text text-anchor="start" x="112.88" y="-242.45" font-family="Helvetica,sans-Serif" font-size="14.00"> &#160;</text>
</g>
<!-- PreAttack -->
<g id="node5" class="node">
<title>PreAttack</title>
<polygon fill="none" stroke="black" points="358.62,-275.75 284.12,-275.75 284.12,-239.75 358.62,-239.75 358.62,-275.75"/>
<text text-anchor="middle" x="321.38" y="-252.32" font-family="Helvetica,sans-Serif" font-size="14.00">PreAttack</text>
</g>
<!-- PostureBreak&#45;&gt;PreAttack -->
<g id="edge3" class="edge">
<title>PostureBreak&#45;&gt;PreAttack</title>
<path fill="none" stroke="#cdc8b1" d="M148.51,-257.75C186.29,-257.75 236.12,-257.75 272.39,-257.75"/>
<polygon fill="#cdc8b1" stroke="#cdc8b1" points="272.14,-261.25 282.14,-257.75 272.14,-254.25 272.14,-261.25"/>
</g>
<!-- StandUp -->
<g id="node6" class="node">
<title>StandUp</title>
<polygon fill="none" stroke="black" points="54,-25.75 54,-47.5 132,-47.5 132,-25.75 54,-25.75"/>
<text text-anchor="start" x="63" y="-31.2" font-family="Helvetica,sans-Serif" font-size="14.00">StandUp &#160;</text>
<polygon fill="none" stroke="black" points="54,-4 54,-25.75 132,-25.75 132,-4 54,-4"/>
<text text-anchor="start" x="57" y="-10.45" font-family="Helvetica,sans-Serif" font-size="12.00" fill="#838b8b">0.67s: Done</text>
<text text-anchor="start" x="121.5" y="-10.45" font-family="Helvetica,sans-Serif" font-size="14.00"> &#160;</text>
</g>
<!-- StandUp&#45;&gt;Engaging -->
<g id="edge4" class="edge">
<title>StandUp&#45;&gt;Engaging</title>
<path fill="none" stroke="#cdc8b1" d="M139.81,-42.14C178.9,-56.13 234.84,-76.15 274.07,-90.18"/>
<polygon fill="#cdc8b1" stroke="#cdc8b1" points="272.65,-93.39 283.24,-93.46 275,-86.8 272.65,-93.39"/>
</g>
<!-- Seat -->
<g id="node7" class="node">
<title>Seat</title>
<polygon fill="none" stroke="black" points="130.25,-337.75 55.75,-337.75 55.75,-301.75 130.25,-301.75 130.25,-337.75"/>
<text text-anchor="middle" x="93" y="-314.32" font-family="Helvetica,sans-Serif" font-size="14.00">Seat (Init)</text>
</g>
<!-- Level Once Sensor -->
<g id="node8" class="node">
<title>Level Once Sensor</title>
<polygon fill="none" stroke="black" points="158.75,-391.75 27.25,-391.75 27.25,-355.75 158.75,-355.75 158.75,-391.75"/>
<text text-anchor="middle" x="93" y="-368.32" font-family="Helvetica,sans-Serif" font-size="14.00">Level Once Sensor</text>
</g>
<!-- Level Once Sensor_linked -->
<g id="node9" class="node">
<title>Level Once Sensor_linked</title>
<polygon fill="none" stroke="black" stroke-dasharray="1,5" points="349.48,-391.75 293.27,-391.75 293.27,-355.75 349.48,-355.75 349.48,-391.75"/>
<text text-anchor="start" x="298.88" y="-368.32" font-family="Helvetica,sans-Serif" font-size="14.00">Attack &#160;</text>
</g>
<!-- Level Once Sensor&#45;&gt;Level Once Sensor_linked -->
<g id="edge5" class="edge">
<title>Level Once Sensor&#45;&gt;Level Once Sensor_linked</title>
<path fill="none" stroke="#66cdaa" d="M159.17,-373.75C198.9,-373.75 248.31,-373.75 281.88,-373.75"/>
<polygon fill="#66cdaa" stroke="#66cdaa" points="281.54,-377.25 291.54,-373.75 281.54,-370.25 281.54,-377.25"/>
<text text-anchor="middle" x="220.62" y="-376.2" font-family="Helvetica,sans-Serif" font-size="14.00" fill="#66cdaa">QueueEnd</text>
</g>
<!-- Level Once Sensor_mustuse -->
<g id="node10" class="node">
<title>Level Once Sensor_mustuse</title>
<polygon fill="none" stroke="black" stroke-dasharray="1,5" points="371.5,-445.75 271.25,-445.75 271.25,-409.75 371.5,-409.75 371.5,-445.75"/>
<text text-anchor="start" x="281.25" y="-422.32" font-family="Helvetica,sans-Serif" font-size="14.00">1 Undefined &#160;</text>
</g>
<!-- Level Once Sensor&#45;&gt;Level Once Sensor_mustuse -->
<g id="edge6" class="edge">
<title>Level Once Sensor&#45;&gt;Level Once Sensor_mustuse</title>
<path fill="none" stroke="#458b74" d="M159.17,-389.3C190.93,-396.87 228.88,-405.92 259.98,-413.34"/>
<polygon fill="#458b74" stroke="#458b74" points="259.09,-416.73 269.63,-415.64 260.71,-409.92 259.09,-416.73"/>
<text text-anchor="middle" x="220.62" y="-412.73" font-family="Helvetica,sans-Serif" font-size="14.00" fill="#458b74">Weight</text>
</g>
<!-- RunAwaySensor -->
<g id="node11" class="node">
<title>RunAwaySensor</title>
<polygon fill="none" stroke="black" points="151.25,-445.75 34.75,-445.75 34.75,-409.75 151.25,-409.75 151.25,-445.75"/>
<text text-anchor="middle" x="93" y="-422.32" font-family="Helvetica,sans-Serif" font-size="14.00">RunAwaySensor</text>
</g>
<!-- AttackSensor -->
<g id="node12" class="node">
<title>AttackSensor</title>
<polygon fill="none" stroke="black" points="141.12,-499.75 44.88,-499.75 44.88,-463.75 141.12,-463.75 141.12,-499.75"/>
<text text-anchor="middle" x="93" y="-476.32" font-family="Helvetica,sans-Serif" font-size="14.00">AttackSensor</text>
</g>
<!-- AttackSensor_linked -->
<g id="node13" class="node">
<title>AttackSensor_linked</title>
<polygon fill="none" stroke="black" stroke-dasharray="1,5" points="349.48,-499.75 293.27,-499.75 293.27,-463.75 349.48,-463.75 349.48,-499.75"/>
<text text-anchor="start" x="298.88" y="-476.32" font-family="Helvetica,sans-Serif" font-size="14.00">Attack &#160;</text>
</g>
<!-- AttackSensor&#45;&gt;AttackSensor_linked -->
<g id="edge7" class="edge">
<title>AttackSensor&#45;&gt;AttackSensor_linked</title>
<path fill="none" stroke="#66cdaa" d="M141.46,-481.75C183.05,-481.75 242.76,-481.75 281.56,-481.75"/>
<polygon fill="#66cdaa" stroke="#66cdaa" points="281.37,-485.25 291.37,-481.75 281.37,-478.25 281.37,-485.25"/>
<text text-anchor="middle" x="220.62" y="-484.2" font-family="Helvetica,sans-Serif" font-size="14.00" fill="#66cdaa">QueueEnd</text>
</g>
<!-- DodgePredictSensor -->
<g id="node14" class="node">
<title>DodgePredictSensor</title>
<polygon fill="none" stroke="black" points="24,-543.75 24,-565.5 162,-565.5 162,-543.75 24,-543.75"/>
<text text-anchor="start" x="27" y="-549.2" font-family="Helvetica,sans-Serif" font-size="14.00">DodgePredictSensor &#160;</text>
<polygon fill="none" stroke="black" points="24,-522 24,-543.75 162,-543.75 162,-522 24,-522"/>
<text text-anchor="start" x="27" y="-528.45" font-family="Helvetica,sans-Serif" font-size="12.00" fill="#838b8b">if: Dodge</text>
<text text-anchor="start" x="75" y="-528.45" font-family="Helvetica,sans-Serif" font-size="14.00"> &#160;</text>
</g>
<!-- DodgePredictSensor_linked -->
<g id="node15" class="node">
<title>DodgePredictSensor_linked</title>
<polygon fill="none" stroke="black" stroke-dasharray="1,5" points="349.48,-561.75 293.27,-561.75 293.27,-525.75 349.48,-525.75 349.48,-561.75"/>
<text text-anchor="start" x="298.88" y="-538.33" font-family="Helvetica,sans-Serif" font-size="14.00">Attack &#160;</text>
</g>
<!-- DodgePredictSensor&#45;&gt;DodgePredictSensor_linked -->
<g id="edge8" class="edge">
<title>DodgePredictSensor&#45;&gt;DodgePredictSensor_linked</title>
<path fill="none" stroke="#66cdaa" d="M169.69,-543.75C207.14,-543.75 250.76,-543.75 281.4,-543.75"/>
<polygon fill="#66cdaa" stroke="#66cdaa" points="281.36,-547.25 291.36,-543.75 281.36,-540.25 281.36,-547.25"/>
<text text-anchor="middle" x="220.62" y="-546.2" font-family="Helvetica,sans-Serif" font-size="14.00" fill="#66cdaa">QueueEnd</text>
</g>
<!-- AttackPredictSensor -->
<g id="node16" class="node">
<title>AttackPredictSensor</title>
<polygon fill="none" stroke="black" points="25.12,-613.75 25.12,-635.5 160.88,-635.5 160.88,-613.75 25.12,-613.75"/>
<text text-anchor="start" x="28.12" y="-619.2" font-family="Helvetica,sans-Serif" font-size="14.00">AttackPredictSensor &#160;</text>
<polygon fill="none" stroke="black" points="25.12,-592 25.12,-613.75 160.88,-613.75 160.88,-592 25.12,-592"/>
<text text-anchor="start" x="28.12" y="-598.45" font-family="Helvetica,sans-Serif" font-size="12.00" fill="#838b8b">if: Attack</text>
<text text-anchor="start" x="73.12" y="-598.45" font-family="Helvetica,sans-Serif" font-size="14.00"> &#160;</text>
</g>
<!-- AttackPredictSensor_linked -->
<g id="node17" class="node">
<title>AttackPredictSensor_linked</title>
<polygon fill="none" stroke="black" stroke-dasharray="1,5" points="349.48,-631.75 293.27,-631.75 293.27,-595.75 349.48,-595.75 349.48,-631.75"/>
<text text-anchor="start" x="298.88" y="-608.33" font-family="Helvetica,sans-Serif" font-size="14.00">Attack &#160;</text>
</g>
<!-- AttackPredictSensor&#45;&gt;AttackPredictSensor_linked -->
<g id="edge9" class="edge">
<title>AttackPredictSensor&#45;&gt;AttackPredictSensor_linked</title>
<path fill="none" stroke="#66cdaa" d="M168.75,-613.75C206.55,-613.75 250.84,-613.75 281.75,-613.75"/>
<polygon fill="#66cdaa" stroke="#66cdaa" points="281.39,-617.25 291.39,-613.75 281.39,-610.25 281.39,-617.25"/>
<text text-anchor="middle" x="220.62" y="-616.2" font-family="Helvetica,sans-Serif" font-size="14.00" fill="#66cdaa">QueueEnd</text>
</g>
<!-- AttackRunToSensor -->
<g id="node18" class="node">
<title>AttackRunToSensor</title>
<polygon fill="none" stroke="black" points="26.62,-683.75 26.62,-705.5 159.38,-705.5 159.38,-683.75 26.62,-683.75"/>
<text text-anchor="start" x="29.62" y="-689.2" font-family="Helvetica,sans-Serif" font-size="14.00">AttackRunToSensor &#160;</text>
<polygon fill="none" stroke="black" points="26.62,-662 26.62,-683.75 159.38,-683.75 159.38,-662 26.62,-662"/>
<text text-anchor="start" x="29.62" y="-668.45" font-family="Helvetica,sans-Serif" font-size="12.00" fill="#838b8b">if: state is Engaging</text>
<text text-anchor="start" x="133.88" y="-668.45" font-family="Helvetica,sans-Serif" font-size="14.00"> &#160;</text>
</g>
<!-- AttackRunToSensor_linked -->
<g id="node19" class="node">
<title>AttackRunToSensor_linked</title>
<polygon fill="none" stroke="black" stroke-dasharray="1,5" points="349.48,-701.75 293.27,-701.75 293.27,-665.75 349.48,-665.75 349.48,-701.75"/>
<text text-anchor="start" x="298.88" y="-678.33" font-family="Helvetica,sans-Serif" font-size="14.00">Attack &#160;</text>
</g>
<!-- AttackRunToSensor&#45;&gt;AttackRunToSensor_linked -->
<g id="edge10" class="edge">
<title>AttackRunToSensor&#45;&gt;AttackRunToSensor_linked</title>
<path fill="none" stroke="#66cdaa" d="M167.18,-683.75C205.21,-683.75 250.16,-683.75 281.49,-683.75"/>
<polygon fill="#66cdaa" stroke="#66cdaa" points="281.28,-687.25 291.28,-683.75 281.27,-680.25 281.28,-687.25"/>
<text text-anchor="middle" x="220.62" y="-686.2" font-family="Helvetica,sans-Serif" font-size="14.00" fill="#66cdaa">QueueEnd</text>
</g>
</g>
</svg>
