<?xml version="1.0" encoding="UTF-8" standalone="no"?>
<!DOCTYPE svg PUBLIC "-//W3C//DTD SVG 1.1//EN"
 "http://www.w3.org/Graphics/SVG/1.1/DTD/svg11.dtd">
<!-- Generated by graphviz version 12.2.1 (20241206.2353)
 -->
<!-- Title: Foo Pages: 1 -->
<svg width="371pt" height="756pt"
 viewBox="0.00 0.00 370.75 756.00" xmlns="http://www.w3.org/2000/svg" xmlns:xlink="http://www.w3.org/1999/xlink">
<g id="graph0" class="graph" transform="scale(1 1) rotate(0) translate(4 752)">
<title>Foo</title>
<polygon fill="white" stroke="none" points="-4,4 -4,-752 366.75,-752 366.75,4 -4,4"/>
<g id="clust1" class="cluster">
<title>cluster_attacksensors</title>
<polygon fill="none" stroke="black" points="8,-8 8,-402 354.75,-402 354.75,-8 8,-8"/>
<text text-anchor="middle" x="181.38" y="-384.7" font-family="Helvetica,sans-Serif" font-size="14.00">Attack Sensors</text>
</g>
<!-- Level Once Sensor -->
<g id="node1" class="node">
<title>Level Once Sensor</title>
<polygon fill="none" stroke="black" points="28.5,-23.12 28.5,-44.88 157.5,-44.88 157.5,-23.12 28.5,-23.12"/>
<text text-anchor="start" x="31.5" y="-28.57" font-family="Helvetica,sans-Serif" font-size="14.00">Level Once Sensor &#160;</text>
</g>
<!-- Level Once Sensor_linked -->
<g id="node2" class="node">
<title>Level Once Sensor_linked</title>
<polygon fill="none" stroke="black" stroke-dasharray="1,5" points="337.1,-52 280.9,-52 280.9,-16 337.1,-16 337.1,-52"/>
<text text-anchor="start" x="286.5" y="-28.57" font-family="Helvetica,sans-Serif" font-size="14.00">Attack &#160;</text>
</g>
<!-- Level Once Sensor&#45;&gt;Level Once Sensor_linked -->
<g id="edge1" class="edge">
<title>Level Once Sensor&#45;&gt;Level Once Sensor_linked</title>
<path fill="none" stroke="#66cdaa" d="M165.26,-34C199.99,-34 240.4,-34 269.34,-34"/>
<polygon fill="#66cdaa" stroke="#66cdaa" points="269.09,-37.5 279.09,-34 269.09,-30.5 269.09,-37.5"/>
<text text-anchor="middle" x="220.62" y="-36.45" font-family="Helvetica,sans-Serif" font-size="14.00" fill="#66cdaa">QueueEnd</text>
</g>
<!-- Level Once Sensor_weight -->
<g id="node3" class="node">
<title>Level Once Sensor_weight</title>
<polygon fill="none" stroke="black" stroke-dasharray="1,5" points="346.75,-106 271.25,-106 271.25,-70 346.75,-70 346.75,-106"/>
<text text-anchor="start" x="281.25" y="-82.58" font-family="Helvetica,sans-Serif" font-size="14.00">1 Attack &#160;</text>
</g>
<!-- Level Once Sensor&#45;&gt;Level Once Sensor_weight -->
<g id="edge2" class="edge">
<title>Level Once Sensor&#45;&gt;Level Once Sensor_weight</title>
<path fill="none" stroke="#458b74" d="M165.26,-51.98C196.36,-59.83 232,-68.82 259.9,-75.86"/>
<polygon fill="#458b74" stroke="#458b74" points="258.93,-79.23 269.48,-78.28 260.64,-72.44 258.93,-79.23"/>
<text text-anchor="middle" x="220.62" y="-75.97" font-family="Helvetica,sans-Serif" font-size="14.00" fill="#458b74">Weight</text>
</g>
<!-- RunAwaySensor -->
<g id="node4" class="node">
<title>RunAwaySensor</title>
<polygon fill="none" stroke="black" points="36,-77.12 36,-98.88 150,-98.88 150,-77.12 36,-77.12"/>
<text text-anchor="start" x="39" y="-82.58" font-family="Helvetica,sans-Serif" font-size="14.00">RunAwaySensor &#160;</text>
</g>
<!-- AttackSensor -->
<g id="node5" class="node">
<title>AttackSensor</title>
<polygon fill="none" stroke="black" points="46.12,-131.12 46.12,-152.88 139.88,-152.88 139.88,-131.12 46.12,-131.12"/>
<text text-anchor="start" x="49.12" y="-136.57" font-family="Helvetica,sans-Serif" font-size="14.00">AttackSensor &#160;</text>
</g>
<!-- AttackSensor_linked -->
<g id="node6" class="node">
<title>AttackSensor_linked</title>
<polygon fill="none" stroke="black" stroke-dasharray="1,5" points="337.1,-160 280.9,-160 280.9,-124 337.1,-124 337.1,-160"/>
<text text-anchor="start" x="286.5" y="-136.57" font-family="Helvetica,sans-Serif" font-size="14.00">Attack &#160;</text>
</g>
<!-- AttackSensor&#45;&gt;AttackSensor_linked -->
<g id="edge3" class="edge">
<title>AttackSensor&#45;&gt;AttackSensor_linked</title>
<path fill="none" stroke="#66cdaa" d="M147.73,-142C185.49,-142 235.15,-142 269.12,-142"/>
<polygon fill="#66cdaa" stroke="#66cdaa" points="268.92,-145.5 278.92,-142 268.92,-138.5 268.92,-145.5"/>
<text text-anchor="middle" x="220.62" y="-144.45" font-family="Helvetica,sans-Serif" font-size="14.00" fill="#66cdaa">QueueEnd</text>
</g>
<!-- DodgePredictSensor -->
<g id="node7" class="node">
<title>DodgePredictSensor</title>
<polygon fill="none" stroke="black" points="24,-204 24,-225.75 162,-225.75 162,-204 24,-204"/>
<text text-anchor="start" x="27" y="-209.45" font-family="Helvetica,sans-Serif" font-size="14.00">DodgePredictSensor &#160;</text>
<polygon fill="none" stroke="black" points="24,-182.25 24,-204 162,-204 162,-182.25 24,-182.25"/>
<text text-anchor="start" x="27" y="-188.7" font-family="Helvetica,sans-Serif" font-size="12.00" fill="#838b8b">if: rollingCondition</text>
<text text-anchor="start" x="123.75" y="-188.7" font-family="Helvetica,sans-Serif" font-size="14.00"> &#160;</text>
</g>
<!-- DodgePredictSensor_linked -->
<g id="node8" class="node">
<title>DodgePredictSensor_linked</title>
<polygon fill="none" stroke="black" stroke-dasharray="1,5" points="337.1,-222 280.9,-222 280.9,-186 337.1,-186 337.1,-222"/>
<text text-anchor="start" x="286.5" y="-198.57" font-family="Helvetica,sans-Serif" font-size="14.00">Attack &#160;</text>
</g>
<!-- DodgePredictSensor&#45;&gt;DodgePredictSensor_linked -->
<g id="edge4" class="edge">
<title>DodgePredictSensor&#45;&gt;DodgePredictSensor_linked</title>
<path fill="none" stroke="#66cdaa" d="M169.75,-204C203.42,-204 241.61,-204 269.3,-204"/>
<polygon fill="#66cdaa" stroke="#66cdaa" points="268.98,-207.5 278.98,-204 268.98,-200.5 268.98,-207.5"/>
<text text-anchor="middle" x="220.62" y="-206.45" font-family="Helvetica,sans-Serif" font-size="14.00" fill="#66cdaa">QueueEnd</text>
</g>
<!-- AttackPredictSensor -->
<g id="node9" class="node">
<title>AttackPredictSensor</title>
<polygon fill="none" stroke="black" points="25.12,-274 25.12,-295.75 160.88,-295.75 160.88,-274 25.12,-274"/>
<text text-anchor="start" x="28.12" y="-279.45" font-family="Helvetica,sans-Serif" font-size="14.00">AttackPredictSensor &#160;</text>
<polygon fill="none" stroke="black" points="25.12,-252.25 25.12,-274 160.88,-274 160.88,-252.25 25.12,-252.25"/>
<text text-anchor="start" x="28.12" y="-258.7" font-family="Helvetica,sans-Serif" font-size="12.00" fill="#838b8b">if: attackCondition</text>
<text text-anchor="start" x="123.38" y="-258.7" font-family="Helvetica,sans-Serif" font-size="14.00"> &#160;</text>
</g>
<!-- AttackPredictSensor_linked -->
<g id="node10" class="node">
<title>AttackPredictSensor_linked</title>
<polygon fill="none" stroke="black" stroke-dasharray="1,5" points="337.1,-292 280.9,-292 280.9,-256 337.1,-256 337.1,-292"/>
<text text-anchor="start" x="286.5" y="-268.57" font-family="Helvetica,sans-Serif" font-size="14.00">Attack &#160;</text>
</g>
<!-- AttackPredictSensor&#45;&gt;AttackPredictSensor_linked -->
<g id="edge5" class="edge">
<title>AttackPredictSensor&#45;&gt;AttackPredictSensor_linked</title>
<path fill="none" stroke="#66cdaa" d="M168.85,-274C202.7,-274 241.29,-274 269.23,-274"/>
<polygon fill="#66cdaa" stroke="#66cdaa" points="268.99,-277.5 278.99,-274 268.99,-270.5 268.99,-277.5"/>
<text text-anchor="middle" x="220.62" y="-276.45" font-family="Helvetica,sans-Serif" font-size="14.00" fill="#66cdaa">QueueEnd</text>
</g>
<!-- AttackRunToSensor -->
<g id="node11" class="node">
<title>AttackRunToSensor</title>
<polygon fill="none" stroke="black" points="26.62,-344 26.62,-365.75 159.38,-365.75 159.38,-344 26.62,-344"/>
<text text-anchor="start" x="29.62" y="-349.45" font-family="Helvetica,sans-Serif" font-size="14.00">AttackRunToSensor &#160;</text>
<polygon fill="none" stroke="black" points="26.62,-322.25 26.62,-344 159.38,-344 159.38,-322.25 26.62,-322.25"/>
<text text-anchor="start" x="29.62" y="-328.7" font-family="Helvetica,sans-Serif" font-size="12.00" fill="#838b8b">if: state is Engaging</text>
<text text-anchor="start" x="133.88" y="-328.7" font-family="Helvetica,sans-Serif" font-size="14.00"> &#160;</text>
</g>
<!-- AttackRunToSensor_linked -->
<g id="node12" class="node">
<title>AttackRunToSensor_linked</title>
<polygon fill="none" stroke="black" stroke-dasharray="1,5" points="337.1,-362 280.9,-362 280.9,-326 337.1,-326 337.1,-362"/>
<text text-anchor="start" x="286.5" y="-338.57" font-family="Helvetica,sans-Serif" font-size="14.00">Attack &#160;</text>
</g>
<!-- AttackRunToSensor&#45;&gt;AttackRunToSensor_linked -->
<g id="edge6" class="edge">
<title>AttackRunToSensor&#45;&gt;AttackRunToSensor_linked</title>
<path fill="none" stroke="#66cdaa" d="M167.35,-344C201.54,-344 240.84,-344 269.19,-344"/>
<polygon fill="#66cdaa" stroke="#66cdaa" points="269.11,-347.5 279.11,-344 269.11,-340.5 269.11,-347.5"/>
<text text-anchor="middle" x="220.62" y="-346.45" font-family="Helvetica,sans-Serif" font-size="14.00" fill="#66cdaa">QueueEnd</text>
</g>
<!-- Attack -->
<g id="node13" class="node">
<title>Attack</title>
<polygon fill="none" stroke="black" points="54,-598 54,-619.75 132,-619.75 132,-598 54,-598"/>
<text text-anchor="start" x="70.5" y="-603.45" font-family="Helvetica,sans-Serif" font-size="14.00">Attack &#160;</text>
<polygon fill="none" stroke="black" points="54,-576.25 54,-598 132,-598 132,-576.25 54,-576.25"/>
<text text-anchor="start" x="57" y="-582.7" font-family="Helvetica,sans-Serif" font-size="12.00" fill="#838b8b">1.80s: Done</text>
<text text-anchor="start" x="121.5" y="-582.7" font-family="Helvetica,sans-Serif" font-size="14.00"> &#160;</text>
</g>
<!-- Engaging -->
<g id="node14" class="node">
<title>Engaging</title>
<polygon fill="none" stroke="black" points="345.5,-535 272.5,-535 272.5,-499 345.5,-499 345.5,-535"/>
<text text-anchor="middle" x="309" y="-511.57" font-family="Helvetica,sans-Serif" font-size="14.00">Engaging</text>
</g>
<!-- Attack&#45;&gt;Engaging -->
<g id="edge7" class="edge">
<title>Attack&#45;&gt;Engaging</title>
<path fill="none" stroke="#cdc8b1" d="M139.91,-580.62C175.75,-567.06 225.34,-548.29 261.36,-534.65"/>
<polygon fill="#cdc8b1" stroke="#cdc8b1" points="262.54,-537.95 270.66,-531.13 260.07,-531.4 262.54,-537.95"/>
</g>
<!-- FooAttached -->
<g id="node15" class="node">
<title>FooAttached</title>
<polygon fill="none" stroke="black" points="36.75,-528.12 36.75,-549.88 149.25,-549.88 149.25,-528.12 36.75,-528.12"/>
<text text-anchor="start" x="51" y="-533.58" font-family="Helvetica,sans-Serif" font-size="14.00">FooAttached &#160;</text>
<polygon fill="none" stroke="black" points="36.75,-484.12 36.75,-528.12 149.25,-528.12 149.25,-484.12 36.75,-484.12"/>
<text text-anchor="start" x="39.75" y="-514.73" font-family="Helvetica,sans-Serif" font-size="12.00" fill="#838b8b">2.00s: CheckFacing</text>
<text text-anchor="start" x="39.75" y="-502.73" font-family="Helvetica,sans-Serif" font-size="12.00" fill="#838b8b">2.83s: Done</text>
<text text-anchor="start" x="39.75" y="-488.83" font-family="Helvetica,sans-Serif" font-size="12.00" fill="#838b8b">8.50s: Done</text>
<text text-anchor="start" x="104.25" y="-488.83" font-family="Helvetica,sans-Serif" font-size="14.00"> &#160;</text>
</g>
<!-- FooAttached&#45;&gt;Engaging -->
<g id="edge8" class="edge">
<title>FooAttached&#45;&gt;Engaging</title>
<path fill="none" stroke="#cdc8b1" d="M157.05,-517C190.28,-517 230.37,-517 260.87,-517"/>
<polygon fill="#cdc8b1" stroke="#cdc8b1" points="260.55,-520.5 270.55,-517 260.55,-513.5 260.55,-520.5"/>
</g>
<!-- PostureBreak -->
<g id="node16" class="node">
<title>PostureBreak</title>
<polygon fill="none" stroke="black" points="45.38,-668 45.38,-689.75 140.62,-689.75 140.62,-668 45.38,-668"/>
<text text-anchor="start" x="48.38" y="-673.45" font-family="Helvetica,sans-Serif" font-size="14.00">PostureBreak &#160;</text>
<polygon fill="none" stroke="black" points="45.38,-646.25 45.38,-668 140.62,-668 140.62,-646.25 45.38,-646.25"/>
<text text-anchor="start" x="48.38" y="-652.7" font-family="Helvetica,sans-Serif" font-size="12.00" fill="#838b8b">4.33s: Done</text>
<text text-anchor="start" x="112.88" y="-652.7" font-family="Helvetica,sans-Serif" font-size="14.00"> &#160;</text>
</g>
<!-- PreAttack -->
<g id="node17" class="node">
<title>PreAttack</title>
<polygon fill="none" stroke="black" points="346.25,-686 271.75,-686 271.75,-650 346.25,-650 346.25,-686"/>
<text text-anchor="middle" x="309" y="-662.58" font-family="Helvetica,sans-Serif" font-size="14.00">PreAttack</text>
</g>
<!-- PostureBreak&#45;&gt;PreAttack -->
<g id="edge9" class="edge">
<title>PostureBreak&#45;&gt;PreAttack</title>
<path fill="none" stroke="#cdc8b1" d="M148.55,-668C183.01,-668 227.09,-668 260.17,-668"/>
<polygon fill="#cdc8b1" stroke="#cdc8b1" points="259.87,-671.5 269.87,-668 259.87,-664.5 259.87,-671.5"/>
</g>
<!-- StandUp -->
<g id="node18" class="node">
<title>StandUp</title>
<polygon fill="none" stroke="black" points="54,-436 54,-457.75 132,-457.75 132,-436 54,-436"/>
<text text-anchor="start" x="63" y="-441.45" font-family="Helvetica,sans-Serif" font-size="14.00">StandUp &#160;</text>
<polygon fill="none" stroke="black" points="54,-414.25 54,-436 132,-436 132,-414.25 54,-414.25"/>
<text text-anchor="start" x="57" y="-420.7" font-family="Helvetica,sans-Serif" font-size="12.00" fill="#838b8b">0.67s: Done</text>
<text text-anchor="start" x="121.5" y="-420.7" font-family="Helvetica,sans-Serif" font-size="14.00"> &#160;</text>
</g>
<!-- StandUp&#45;&gt;Engaging -->
<g id="edge10" class="edge">
<title>StandUp&#45;&gt;Engaging</title>
<path fill="none" stroke="#cdc8b1" d="M139.91,-453.38C175.75,-466.94 225.34,-485.71 261.36,-499.35"/>
<polygon fill="#cdc8b1" stroke="#cdc8b1" points="260.07,-502.6 270.66,-502.87 262.54,-496.05 260.07,-502.6"/>
</g>
<!-- Seat -->
<g id="node19" class="node">
<title>Seat</title>
<polygon fill="none" stroke="black" points="130.25,-748 55.75,-748 55.75,-712 130.25,-712 130.25,-748"/>
<text text-anchor="middle" x="93" y="-724.58" font-family="Helvetica,sans-Serif" font-size="14.00">Seat (Init)</text>
</g>
</g>
</svg>
