<?xml version="1.0" encoding="UTF-8" standalone="no"?>
<!DOCTYPE svg PUBLIC "-//W3C//DTD SVG 1.1//EN"
 "http://www.w3.org/Graphics/SVG/1.1/DTD/svg11.dtd">
<!-- Generated by graphviz version 12.2.1 (20241206.2353)
 -->
<!-- Title: Foo Pages: 1 -->
<svg width="496pt" height="678pt"
 viewBox="0.00 0.00 495.50 678.00" xmlns="http://www.w3.org/2000/svg" xmlns:xlink="http://www.w3.org/1999/xlink">
<g id="graph0" class="graph" transform="scale(1 1) rotate(0) translate(4 674)">
<title>Foo</title>
<polygon fill="white" stroke="none" points="-4,4 -4,-674 491.5,-674 491.5,4 -4,4"/>
<g id="clust1" class="cluster">
<title>cluster_attacksensors</title>
<polygon fill="none" stroke="black" points="9.62,-8 9.62,-262 450.22,-262 450.22,-8 9.62,-8"/>
<text text-anchor="middle" x="229.93" y="-244.7" font-family="Helvetica,sans-Serif" font-size="14.00">Attack Sensors</text>
</g>
<!-- Level Once Sensor -->
<g id="node1" class="node">
<title>Level Once Sensor</title>
<polygon fill="none" stroke="black" points="30.12,-23.12 30.12,-44.88 159.12,-44.88 159.12,-23.12 30.12,-23.12"/>
<text text-anchor="start" x="33.12" y="-28.57" font-family="Helvetica,sans-Serif" font-size="14.00">Level Once Sensor &#160;</text>
</g>
<!-- Level Once Sensor_linked -->
<g id="node2" class="node">
<title>Level Once Sensor_linked</title>
<polygon fill="none" stroke="black" stroke-dasharray="1,5" points="442.23,-52 335.77,-52 335.77,-16 442.23,-16 442.23,-52"/>
<text text-anchor="start" x="341.38" y="-28.57" font-family="Helvetica,sans-Serif" font-size="14.00">Attack1_Shoot &#160;</text>
</g>
<!-- Level Once Sensor&#45;&gt;Level Once Sensor_linked -->
<g id="edge1" class="edge">
<title>Level Once Sensor&#45;&gt;Level Once Sensor_linked</title>
<path fill="none" stroke="#66cdaa" d="M166.77,-34C214.77,-34 277.57,-34 323.99,-34"/>
<polygon fill="#66cdaa" stroke="#66cdaa" points="323.91,-37.5 333.91,-34 323.91,-30.5 323.91,-37.5"/>
<text text-anchor="middle" x="239.88" y="-36.45" font-family="Helvetica,sans-Serif" font-size="14.00" fill="#66cdaa">QueueEnd</text>
</g>
<!-- Level Once Sensor_weight -->
<g id="node3" class="node">
<title>Level Once Sensor_weight</title>
<polygon fill="none" stroke="black" stroke-dasharray="1,5" points="421.5,-106 356.5,-106 356.5,-70 421.5,-70 421.5,-106"/>
<text text-anchor="start" x="366.5" y="-82.58" font-family="Helvetica,sans-Serif" font-size="14.00">1 Skip &#160;</text>
</g>
<!-- Level Once Sensor&#45;&gt;Level Once Sensor_weight -->
<g id="edge2" class="edge">
<title>Level Once Sensor&#45;&gt;Level Once Sensor_weight</title>
<path fill="none" stroke="#458b74" d="M166.77,-47.14C222.4,-57.42 297.92,-71.36 344.78,-80.02"/>
<polygon fill="#458b74" stroke="#458b74" points="344.08,-83.45 354.55,-81.82 345.36,-76.56 344.08,-83.45"/>
<text text-anchor="middle" x="239.88" y="-68.29" font-family="Helvetica,sans-Serif" font-size="14.00" fill="#458b74">Weight</text>
</g>
<!-- RunAwaySensor -->
<g id="node4" class="node">
<title>RunAwaySensor</title>
<polygon fill="none" stroke="black" points="37.62,-77.12 37.62,-98.88 151.62,-98.88 151.62,-77.12 37.62,-77.12"/>
<text text-anchor="start" x="40.62" y="-82.58" font-family="Helvetica,sans-Serif" font-size="14.00">RunAwaySensor &#160;</text>
</g>
<!-- AttackSensor -->
<g id="node5" class="node">
<title>AttackSensor</title>
<polygon fill="none" stroke="black" points="47.75,-131.12 47.75,-152.88 141.5,-152.88 141.5,-131.12 47.75,-131.12"/>
<text text-anchor="start" x="50.75" y="-136.57" font-family="Helvetica,sans-Serif" font-size="14.00">AttackSensor &#160;</text>
</g>
<!-- AttackSensor_linked -->
<g id="node6" class="node">
<title>AttackSensor_linked</title>
<polygon fill="none" stroke="black" stroke-dasharray="1,5" points="442.23,-160 335.77,-160 335.77,-124 442.23,-124 442.23,-160"/>
<text text-anchor="start" x="341.38" y="-136.57" font-family="Helvetica,sans-Serif" font-size="14.00">Attack1_Shoot &#160;</text>
</g>
<!-- AttackSensor&#45;&gt;AttackSensor_linked -->
<g id="edge3" class="edge">
<title>AttackSensor&#45;&gt;AttackSensor_linked</title>
<path fill="none" stroke="#66cdaa" d="M149.25,-142C198.6,-142 271.86,-142 324.2,-142"/>
<polygon fill="#66cdaa" stroke="#66cdaa" points="324.18,-145.5 334.18,-142 324.18,-138.5 324.18,-145.5"/>
<text text-anchor="middle" x="239.88" y="-144.45" font-family="Helvetica,sans-Serif" font-size="14.00" fill="#66cdaa">QueueEnd</text>
</g>
<!-- DodgePredictSensor -->
<g id="node7" class="node">
<title>DodgePredictSensor</title>
<polygon fill="none" stroke="black" points="25.62,-204 25.62,-225.75 163.62,-225.75 163.62,-204 25.62,-204"/>
<text text-anchor="start" x="28.62" y="-209.45" font-family="Helvetica,sans-Serif" font-size="14.00">DodgePredictSensor &#160;</text>
<polygon fill="none" stroke="black" points="25.62,-182.25 25.62,-204 163.62,-204 163.62,-182.25 25.62,-182.25"/>
<text text-anchor="start" x="28.62" y="-188.7" font-family="Helvetica,sans-Serif" font-size="12.00" fill="#838b8b">if: rollingCondition</text>
<text text-anchor="start" x="125.38" y="-188.7" font-family="Helvetica,sans-Serif" font-size="14.00"> &#160;</text>
</g>
<!-- DodgePredictSensor_linked -->
<g id="node8" class="node">
<title>DodgePredictSensor_linked</title>
<polygon fill="none" stroke="black" stroke-dasharray="1,5" points="442.23,-222 335.77,-222 335.77,-186 442.23,-186 442.23,-222"/>
<text text-anchor="start" x="341.38" y="-198.57" font-family="Helvetica,sans-Serif" font-size="14.00">Attack1_Shoot &#160;</text>
</g>
<!-- DodgePredictSensor&#45;&gt;DodgePredictSensor_linked -->
<g id="edge4" class="edge">
<title>DodgePredictSensor&#45;&gt;DodgePredictSensor_linked</title>
<path fill="none" stroke="#66cdaa" d="M171.3,-204C218.77,-204 279.29,-204 324.3,-204"/>
<polygon fill="#66cdaa" stroke="#66cdaa" points="324.17,-207.5 334.17,-204 324.17,-200.5 324.17,-207.5"/>
<text text-anchor="middle" x="239.88" y="-206.45" font-family="Helvetica,sans-Serif" font-size="14.00" fill="#66cdaa">QueueEnd</text>
</g>
<!-- Attack1_Shoot -->
<g id="node9" class="node">
<title>Attack1_Shoot</title>
<polygon fill="none" stroke="black" points="35.75,-590.12 35.75,-611.88 153.5,-611.88 153.5,-590.12 35.75,-590.12"/>
<text text-anchor="start" x="47" y="-595.58" font-family="Helvetica,sans-Serif" font-size="14.00">Attack1_Shoot &#160;</text>
<polygon fill="none" stroke="black" points="35.75,-558.12 35.75,-590.12 153.5,-590.12 153.5,-558.12 35.75,-558.12"/>
<text text-anchor="start" x="38.75" y="-576.73" font-family="Helvetica,sans-Serif" font-size="12.00" fill="#838b8b">2.50s: LinkNextMove</text>
<text text-anchor="start" x="38.75" y="-562.83" font-family="Helvetica,sans-Serif" font-size="12.00" fill="#838b8b">2.53s: Done</text>
<text text-anchor="start" x="103.25" y="-562.83" font-family="Helvetica,sans-Serif" font-size="14.00"> &#160;</text>
</g>
<!-- Engaging -->
<g id="node10" class="node">
<title>Engaging</title>
<polygon fill="none" stroke="black" points="425.5,-443 352.5,-443 352.5,-407 425.5,-407 425.5,-443"/>
<text text-anchor="middle" x="389" y="-419.57" font-family="Helvetica,sans-Serif" font-size="14.00">Engaging</text>
</g>
<!-- Attack1_Shoot&#45;&gt;Engaging -->
<g id="edge5" class="edge">
<title>Attack1_Shoot&#45;&gt;Engaging</title>
<path fill="none" stroke="#cdc8b1" d="M161.39,-558.28C170.84,-554.05 180.36,-549.55 189.25,-545 247.45,-515.18 311.71,-474.96 350.98,-449.5"/>
<polygon fill="#cdc8b1" stroke="#cdc8b1" points="352.66,-452.57 359.13,-444.18 348.84,-446.71 352.66,-452.57"/>
</g>
<!-- Attack1_Shoot_weight -->
<g id="node11" class="node">
<title>Attack1_Shoot_weight</title>
<polygon fill="none" stroke="black" stroke-dasharray="1,5" points="487.5,-603 290.5,-603 290.5,-567 487.5,-567 487.5,-603"/>
<text text-anchor="start" x="300.5" y="-579.58" font-family="Helvetica,sans-Serif" font-size="14.00">1 Attack3_TeleportAndCircle &#160;</text>
</g>
<!-- Attack1_Shoot&#45;&gt;Attack1_Shoot_weight -->
<g id="edge6" class="edge">
<title>Attack1_Shoot&#45;&gt;Attack1_Shoot_weight</title>
<path fill="none" stroke="#458b74" d="M161.24,-585C195.87,-585 239.27,-585 278.81,-585"/>
<polygon fill="#458b74" stroke="#458b74" points="278.6,-588.5 288.6,-585 278.6,-581.5 278.6,-588.5"/>
<text text-anchor="middle" x="239.88" y="-587.45" font-family="Helvetica,sans-Serif" font-size="14.00" fill="#458b74">Weight</text>
</g>
<!-- Attack2_TeleportAndShoot -->
<g id="node12" class="node">
<title>Attack2_TeleportAndShoot</title>
<polygon fill="none" stroke="black" points="8,-510.12 8,-531.88 181.25,-531.88 181.25,-510.12 8,-510.12"/>
<text text-anchor="start" x="11" y="-515.58" font-family="Helvetica,sans-Serif" font-size="14.00">Attack2_TeleportAndShoot &#160;</text>
<polygon fill="none" stroke="black" points="8,-478.12 8,-510.12 181.25,-510.12 181.25,-478.12 8,-478.12"/>
<text text-anchor="start" x="11" y="-496.73" font-family="Helvetica,sans-Serif" font-size="12.00" fill="#838b8b">0.92s: CheckFacing</text>
<text text-anchor="start" x="11" y="-482.83" font-family="Helvetica,sans-Serif" font-size="12.00" fill="#838b8b">2.42s: Done</text>
<text text-anchor="start" x="75.5" y="-482.83" font-family="Helvetica,sans-Serif" font-size="14.00"> &#160;</text>
</g>
<!-- Attack2_TeleportAndShoot&#45;&gt;Engaging -->
<g id="edge7" class="edge">
<title>Attack2_TeleportAndShoot&#45;&gt;Engaging</title>
<path fill="none" stroke="#cdc8b1" d="M188.94,-479.47C239.65,-465.59 300.18,-449.03 341.07,-437.84"/>
<polygon fill="#cdc8b1" stroke="#cdc8b1" points="341.88,-441.25 350.6,-435.23 340.03,-434.5 341.88,-441.25"/>
</g>
<!-- Attack3_TeleportAndCircle -->
<g id="node13" class="node">
<title>Attack3_TeleportAndCircle</title>
<polygon fill="none" stroke="black" points="8.38,-430.12 8.38,-451.88 180.88,-451.88 180.88,-430.12 8.38,-430.12"/>
<text text-anchor="start" x="11.38" y="-435.57" font-family="Helvetica,sans-Serif" font-size="14.00">Attack3_TeleportAndCircle &#160;</text>
<polygon fill="none" stroke="black" points="8.38,-398.12 8.38,-430.12 180.88,-430.12 180.88,-398.12 8.38,-398.12"/>
<text text-anchor="start" x="11.38" y="-416.73" font-family="Helvetica,sans-Serif" font-size="12.00" fill="#838b8b">0.92s: CheckFacing</text>
<text text-anchor="start" x="11.38" y="-402.83" font-family="Helvetica,sans-Serif" font-size="12.00" fill="#838b8b">2.42s: Done</text>
<text text-anchor="start" x="75.88" y="-402.83" font-family="Helvetica,sans-Serif" font-size="14.00"> &#160;</text>
</g>
<!-- Attack3_TeleportAndCircle&#45;&gt;Engaging -->
<g id="edge8" class="edge">
<title>Attack3_TeleportAndCircle&#45;&gt;Engaging</title>
<path fill="none" stroke="#cdc8b1" d="M188.54,-425C239.32,-425 300.05,-425 341.05,-425"/>
<polygon fill="#cdc8b1" stroke="#cdc8b1" points="340.81,-428.5 350.81,-425 340.81,-421.5 340.81,-428.5"/>
</g>
<!-- Hurt1 -->
<g id="node14" class="node">
<title>Hurt1</title>
<polygon fill="none" stroke="black" points="55.62,-350 55.62,-371.75 133.62,-371.75 133.62,-350 55.62,-350"/>
<text text-anchor="start" x="74.38" y="-355.45" font-family="Helvetica,sans-Serif" font-size="14.00">Hurt1 &#160;</text>
<polygon fill="none" stroke="black" points="55.62,-328.25 55.62,-350 133.62,-350 133.62,-328.25 55.62,-328.25"/>
<text text-anchor="start" x="58.62" y="-334.7" font-family="Helvetica,sans-Serif" font-size="12.00" fill="#838b8b">0.17s: Done</text>
<text text-anchor="start" x="123.12" y="-334.7" font-family="Helvetica,sans-Serif" font-size="14.00"> &#160;</text>
</g>
<!-- Hurt1&#45;&gt;Engaging -->
<g id="edge9" class="edge">
<title>Hurt1&#45;&gt;Engaging</title>
<path fill="none" stroke="#cdc8b1" d="M141.31,-361.72C195.85,-375.71 286.57,-398.98 341.48,-413.07"/>
<polygon fill="#cdc8b1" stroke="#cdc8b1" points="340.27,-416.37 350.83,-415.46 342.01,-409.59 340.27,-416.37"/>
</g>
<!-- Hurt2 -->
<g id="node15" class="node">
<title>Hurt2</title>
<polygon fill="none" stroke="black" points="71.38,-277.12 71.38,-298.88 117.88,-298.88 117.88,-277.12 71.38,-277.12"/>
<text text-anchor="start" x="74.38" y="-282.57" font-family="Helvetica,sans-Serif" font-size="14.00">Hurt2 &#160;</text>
</g>
<!-- Hurt2&#45;&gt;Engaging -->
<g id="edge10" class="edge">
<title>Hurt2&#45;&gt;Engaging</title>
<path fill="none" stroke="#cdc8b1" d="M125.73,-294.85C144.38,-299.53 168.62,-306.45 189.25,-315 247.73,-339.25 311.02,-376.34 350.09,-400.63"/>
<polygon fill="#cdc8b1" stroke="#cdc8b1" points="348.11,-403.52 358.44,-405.86 351.82,-397.59 348.11,-403.52"/>
</g>
<!-- Idle -->
<g id="node16" class="node">
<title>Idle</title>
<polygon fill="none" stroke="black" points="128.88,-670 60.38,-670 60.38,-634 128.88,-634 128.88,-670"/>
<text text-anchor="middle" x="94.62" y="-646.58" font-family="Helvetica,sans-Serif" font-size="14.00">Idle (Init)</text>
</g>
</g>
</svg>
