<?xml version="1.0" encoding="UTF-8" standalone="no"?>
<!DOCTYPE svg PUBLIC "-//W3C//DTD SVG 1.1//EN"
 "http://www.w3.org/Graphics/SVG/1.1/DTD/svg11.dtd">
<!-- Generated by graphviz version 12.2.1 (20241206.2353)
 -->
<!-- Title: Foo Pages: 1 -->
<svg width="396pt" height="736pt"
 viewBox="0.00 0.00 395.50 735.75" xmlns="http://www.w3.org/2000/svg" xmlns:xlink="http://www.w3.org/1999/xlink">
<g id="graph0" class="graph" transform="scale(1 1) rotate(0) translate(4 731.75)">
<title>Foo</title>
<polygon fill="white" stroke="none" points="-4,4 -4,-731.75 391.5,-731.75 391.5,4 -4,4"/>
<g id="clust1" class="cluster">
<title>cluster_attacksensors</title>
<polygon fill="none" stroke="black" points="8,-309.75 8,-719.75 379.5,-719.75 379.5,-309.75 8,-309.75"/>
<text text-anchor="middle" x="193.75" y="-702.45" font-family="Helvetica,sans-Serif" font-size="14.00">Attack Sensors</text>
</g>
<!-- Attack -->
<g id="node1" class="node">
<title>Attack</title>
<polygon fill="none" stroke="black" points="54,-25.75 54,-47.5 132,-47.5 132,-25.75 54,-25.75"/>
<text text-anchor="start" x="70.5" y="-31.2" font-family="Helvetica,sans-Serif" font-size="14.00">Attack &#160;</text>
<polygon fill="none" stroke="black" points="54,-4 54,-25.75 132,-25.75 132,-4 54,-4"/>
<text text-anchor="start" x="57" y="-10.45" font-family="Helvetica,sans-Serif" font-size="12.00" fill="#838b8b">3.50s: Done</text>
<text text-anchor="start" x="121.5" y="-10.45" font-family="Helvetica,sans-Serif" font-size="14.00"> &#160;</text>
</g>
<!-- Engaging -->
<g id="node2" class="node">
<title>Engaging</title>
<polygon fill="none" stroke="black" points="357.88,-43.75 284.88,-43.75 284.88,-7.75 357.88,-7.75 357.88,-43.75"/>
<text text-anchor="middle" x="321.38" y="-20.32" font-family="Helvetica,sans-Serif" font-size="14.00">Engaging</text>
</g>
<!-- Attack&#45;&gt;Engaging -->
<g id="edge1" class="edge">
<title>Attack&#45;&gt;Engaging</title>
<path fill="none" stroke="#cdc8b1" d="M139.81,-25.75C178.65,-25.75 234.13,-25.75 273.32,-25.75"/>
<polygon fill="#cdc8b1" stroke="#cdc8b1" points="273.15,-29.25 283.15,-25.75 273.15,-22.25 273.15,-29.25"/>
</g>
<!-- FakeDead -->
<g id="node3" class="node">
<title>FakeDead</title>
<polygon fill="none" stroke="black" points="54,-95.75 54,-117.5 132,-117.5 132,-95.75 54,-95.75"/>
<text text-anchor="start" x="58.12" y="-101.2" font-family="Helvetica,sans-Serif" font-size="14.00">FakeDead &#160;</text>
<polygon fill="none" stroke="black" points="54,-74 54,-95.75 132,-95.75 132,-74 54,-74"/>
<text text-anchor="start" x="57" y="-80.45" font-family="Helvetica,sans-Serif" font-size="12.00" fill="#838b8b">1.00s: Done</text>
<text text-anchor="start" x="121.5" y="-80.45" font-family="Helvetica,sans-Serif" font-size="14.00"> &#160;</text>
</g>
<!-- Revive -->
<g id="node4" class="node">
<title>Revive</title>
<polygon fill="none" stroke="black" points="350,-113.75 292.75,-113.75 292.75,-77.75 350,-77.75 350,-113.75"/>
<text text-anchor="middle" x="321.38" y="-90.33" font-family="Helvetica,sans-Serif" font-size="14.00">Revive</text>
</g>
<!-- FakeDead&#45;&gt;Revive -->
<g id="edge2" class="edge">
<title>FakeDead&#45;&gt;Revive</title>
<path fill="none" stroke="#cdc8b1" d="M139.81,-95.75C181.26,-95.75 241.66,-95.75 280.98,-95.75"/>
<polygon fill="#cdc8b1" stroke="#cdc8b1" points="280.95,-99.25 290.95,-95.75 280.95,-92.25 280.95,-99.25"/>
</g>
<!-- HurtState -->
<g id="node5" class="node">
<title>HurtState</title>
<polygon fill="none" stroke="black" points="54,-165.75 54,-187.5 132,-187.5 132,-165.75 54,-165.75"/>
<text text-anchor="start" x="60.75" y="-171.2" font-family="Helvetica,sans-Serif" font-size="14.00">HurtState &#160;</text>
<polygon fill="none" stroke="black" points="54,-144 54,-165.75 132,-165.75 132,-144 54,-144"/>
<text text-anchor="start" x="57" y="-150.45" font-family="Helvetica,sans-Serif" font-size="12.00" fill="#838b8b">0.50s: Done</text>
<text text-anchor="start" x="121.5" y="-150.45" font-family="Helvetica,sans-Serif" font-size="14.00"> &#160;</text>
</g>
<!-- Hurt_BigState -->
<g id="node6" class="node">
<title>Hurt_BigState</title>
<polygon fill="none" stroke="black" points="143,-245.75 43,-245.75 43,-209.75 143,-209.75 143,-245.75"/>
<text text-anchor="middle" x="93" y="-222.32" font-family="Helvetica,sans-Serif" font-size="14.00">Hurt_BigState</text>
</g>
<!-- Wandering_Idle -->
<g id="node7" class="node">
<title>Wandering_Idle</title>
<polygon fill="none" stroke="black" points="163.62,-299.75 22.38,-299.75 22.38,-263.75 163.62,-263.75 163.62,-299.75"/>
<text text-anchor="middle" x="93" y="-276.32" font-family="Helvetica,sans-Serif" font-size="14.00">Wandering_Idle (Init)</text>
</g>
<!-- Level Once Sensor -->
<g id="node8" class="node">
<title>Level Once Sensor</title>
<polygon fill="none" stroke="black" points="158.75,-353.75 27.25,-353.75 27.25,-317.75 158.75,-317.75 158.75,-353.75"/>
<text text-anchor="middle" x="93" y="-330.32" font-family="Helvetica,sans-Serif" font-size="14.00">Level Once Sensor</text>
</g>
<!-- Level Once Sensor_linked -->
<g id="node9" class="node">
<title>Level Once Sensor_linked</title>
<polygon fill="none" stroke="black" stroke-dasharray="1,5" points="349.48,-353.75 293.27,-353.75 293.27,-317.75 349.48,-317.75 349.48,-353.75"/>
<text text-anchor="start" x="298.88" y="-330.32" font-family="Helvetica,sans-Serif" font-size="14.00">Attack &#160;</text>
</g>
<!-- Level Once Sensor&#45;&gt;Level Once Sensor_linked -->
<g id="edge3" class="edge">
<title>Level Once Sensor&#45;&gt;Level Once Sensor_linked</title>
<path fill="none" stroke="#66cdaa" d="M159.17,-335.75C198.9,-335.75 248.31,-335.75 281.88,-335.75"/>
<polygon fill="#66cdaa" stroke="#66cdaa" points="281.54,-339.25 291.54,-335.75 281.54,-332.25 281.54,-339.25"/>
<text text-anchor="middle" x="220.62" y="-338.2" font-family="Helvetica,sans-Serif" font-size="14.00" fill="#66cdaa">QueueEnd</text>
</g>
<!-- Level Once Sensor_mustuse -->
<g id="node10" class="node">
<title>Level Once Sensor_mustuse</title>
<polygon fill="none" stroke="black" stroke-dasharray="1,5" points="371.5,-407.75 271.25,-407.75 271.25,-371.75 371.5,-371.75 371.5,-407.75"/>
<text text-anchor="start" x="281.25" y="-384.32" font-family="Helvetica,sans-Serif" font-size="14.00">1 Undefined &#160;</text>
</g>
<!-- Level Once Sensor&#45;&gt;Level Once Sensor_mustuse -->
<g id="edge4" class="edge">
<title>Level Once Sensor&#45;&gt;Level Once Sensor_mustuse</title>
<path fill="none" stroke="#458b74" d="M159.17,-351.3C190.93,-358.87 228.88,-367.92 259.98,-375.34"/>
<polygon fill="#458b74" stroke="#458b74" points="259.09,-378.73 269.63,-377.64 260.71,-371.92 259.09,-378.73"/>
<text text-anchor="middle" x="220.62" y="-374.73" font-family="Helvetica,sans-Serif" font-size="14.00" fill="#458b74">Weight</text>
</g>
<!-- RunAwaySensor -->
<g id="node11" class="node">
<title>RunAwaySensor</title>
<polygon fill="none" stroke="black" points="151.25,-407.75 34.75,-407.75 34.75,-371.75 151.25,-371.75 151.25,-407.75"/>
<text text-anchor="middle" x="93" y="-384.32" font-family="Helvetica,sans-Serif" font-size="14.00">RunAwaySensor</text>
</g>
<!-- AttackSensor -->
<g id="node12" class="node">
<title>AttackSensor</title>
<polygon fill="none" stroke="black" points="34.12,-451.75 34.12,-473.5 151.88,-473.5 151.88,-451.75 34.12,-451.75"/>
<text text-anchor="start" x="49.12" y="-457.2" font-family="Helvetica,sans-Serif" font-size="14.00">AttackSensor &#160;</text>
<polygon fill="none" stroke="black" points="34.12,-430 34.12,-451.75 151.88,-451.75 151.88,-430 34.12,-430"/>
<text text-anchor="start" x="37.12" y="-436.45" font-family="Helvetica,sans-Serif" font-size="12.00" fill="#838b8b">if: state is Engaging</text>
<text text-anchor="start" x="141.38" y="-436.45" font-family="Helvetica,sans-Serif" font-size="14.00"> &#160;</text>
</g>
<!-- AttackSensor_linked -->
<g id="node13" class="node">
<title>AttackSensor_linked</title>
<polygon fill="none" stroke="black" stroke-dasharray="1,5" points="349.48,-461.75 293.27,-461.75 293.27,-425.75 349.48,-425.75 349.48,-461.75"/>
<text text-anchor="start" x="298.88" y="-438.32" font-family="Helvetica,sans-Serif" font-size="14.00">Attack &#160;</text>
</g>
<!-- AttackSensor&#45;&gt;AttackSensor_linked -->
<g id="edge5" class="edge">
<title>AttackSensor&#45;&gt;AttackSensor_linked</title>
<path fill="none" stroke="#66cdaa" d="M159.78,-449.43C199.37,-448.03 248.4,-446.29 281.8,-445.11"/>
<polygon fill="#66cdaa" stroke="#66cdaa" points="281.54,-448.62 291.41,-444.77 281.29,-441.63 281.54,-448.62"/>
<text text-anchor="middle" x="220.62" y="-450.68" font-family="Helvetica,sans-Serif" font-size="14.00" fill="#66cdaa">QueueEnd</text>
</g>
<!-- AttackSensor_mustuse -->
<g id="node14" class="node">
<title>AttackSensor_mustuse</title>
<polygon fill="none" stroke="black" stroke-dasharray="1,5" points="359.12,-515.75 283.62,-515.75 283.62,-479.75 359.12,-479.75 359.12,-515.75"/>
<text text-anchor="start" x="293.62" y="-492.32" font-family="Helvetica,sans-Serif" font-size="14.00">1 Attack &#160;</text>
</g>
<!-- AttackSensor&#45;&gt;AttackSensor_mustuse -->
<g id="edge6" class="edge">
<title>AttackSensor&#45;&gt;AttackSensor_mustuse</title>
<path fill="none" stroke="#458b74" d="M159.78,-465.12C195.75,-472.43 239.51,-481.32 272.26,-487.97"/>
<polygon fill="#458b74" stroke="#458b74" points="271.38,-491.36 281.87,-489.93 272.77,-484.5 271.38,-491.36"/>
<text text-anchor="middle" x="220.62" y="-485.32" font-family="Helvetica,sans-Serif" font-size="14.00" fill="#458b74">Weight</text>
</g>
<!-- DodgePredictSensor -->
<g id="node15" class="node">
<title>DodgePredictSensor</title>
<polygon fill="none" stroke="black" points="24,-521.75 24,-543.5 162,-543.5 162,-521.75 24,-521.75"/>
<text text-anchor="start" x="27" y="-527.2" font-family="Helvetica,sans-Serif" font-size="14.00">DodgePredictSensor &#160;</text>
<polygon fill="none" stroke="black" points="24,-500 24,-521.75 162,-521.75 162,-500 24,-500"/>
<text text-anchor="start" x="27" y="-506.45" font-family="Helvetica,sans-Serif" font-size="12.00" fill="#838b8b">if: Dodge</text>
<text text-anchor="start" x="75" y="-506.45" font-family="Helvetica,sans-Serif" font-size="14.00"> &#160;</text>
</g>
<!-- DodgePredictSensor_linked -->
<g id="node16" class="node">
<title>DodgePredictSensor_linked</title>
<polygon fill="none" stroke="black" stroke-dasharray="1,5" points="349.48,-569.75 293.27,-569.75 293.27,-533.75 349.48,-533.75 349.48,-569.75"/>
<text text-anchor="start" x="298.88" y="-546.33" font-family="Helvetica,sans-Serif" font-size="14.00">Attack &#160;</text>
</g>
<!-- DodgePredictSensor&#45;&gt;DodgePredictSensor_linked -->
<g id="edge7" class="edge">
<title>DodgePredictSensor&#45;&gt;DodgePredictSensor_linked</title>
<path fill="none" stroke="#66cdaa" d="M169.69,-531.78C207.31,-536.77 251.14,-542.58 281.8,-546.64"/>
<polygon fill="#66cdaa" stroke="#66cdaa" points="281,-550.06 291.37,-547.91 281.92,-543.12 281,-550.06"/>
<text text-anchor="middle" x="220.62" y="-544.5" font-family="Helvetica,sans-Serif" font-size="14.00" fill="#66cdaa">QueueEnd</text>
</g>
<!-- AttackPredictSensor -->
<g id="node17" class="node">
<title>AttackPredictSensor</title>
<polygon fill="none" stroke="black" points="25.12,-591.75 25.12,-613.5 160.88,-613.5 160.88,-591.75 25.12,-591.75"/>
<text text-anchor="start" x="28.12" y="-597.2" font-family="Helvetica,sans-Serif" font-size="14.00">AttackPredictSensor &#160;</text>
<polygon fill="none" stroke="black" points="25.12,-570 25.12,-591.75 160.88,-591.75 160.88,-570 25.12,-570"/>
<text text-anchor="start" x="28.12" y="-576.45" font-family="Helvetica,sans-Serif" font-size="12.00" fill="#838b8b">if: Attack</text>
<text text-anchor="start" x="73.12" y="-576.45" font-family="Helvetica,sans-Serif" font-size="14.00"> &#160;</text>
</g>
<!-- AttackPredictSensor_linked -->
<g id="node18" class="node">
<title>AttackPredictSensor_linked</title>
<polygon fill="none" stroke="black" stroke-dasharray="1,5" points="349.48,-623.75 293.27,-623.75 293.27,-587.75 349.48,-587.75 349.48,-623.75"/>
<text text-anchor="start" x="298.88" y="-600.33" font-family="Helvetica,sans-Serif" font-size="14.00">Attack &#160;</text>
</g>
<!-- AttackPredictSensor&#45;&gt;AttackPredictSensor_linked -->
<g id="edge8" class="edge">
<title>AttackPredictSensor&#45;&gt;AttackPredictSensor_linked</title>
<path fill="none" stroke="#66cdaa" d="M168.75,-596.37C206.55,-598.71 250.84,-601.45 281.75,-603.36"/>
<polygon fill="#66cdaa" stroke="#66cdaa" points="281.2,-606.83 291.4,-603.96 281.63,-599.85 281.2,-606.83"/>
<text text-anchor="middle" x="220.62" y="-603.67" font-family="Helvetica,sans-Serif" font-size="14.00" fill="#66cdaa">QueueEnd</text>
</g>
<!-- AttackRunToSensor -->
<g id="node19" class="node">
<title>AttackRunToSensor</title>
<polygon fill="none" stroke="black" points="26.62,-661.75 26.62,-683.5 159.38,-683.5 159.38,-661.75 26.62,-661.75"/>
<text text-anchor="start" x="29.62" y="-667.2" font-family="Helvetica,sans-Serif" font-size="14.00">AttackRunToSensor &#160;</text>
<polygon fill="none" stroke="black" points="26.62,-640 26.62,-661.75 159.38,-661.75 159.38,-640 26.62,-640"/>
<text text-anchor="start" x="29.62" y="-646.45" font-family="Helvetica,sans-Serif" font-size="12.00" fill="#838b8b">if: state is Engaging</text>
<text text-anchor="start" x="133.88" y="-646.45" font-family="Helvetica,sans-Serif" font-size="14.00"> &#160;</text>
</g>
<!-- AttackRunToSensor_linked -->
<g id="node20" class="node">
<title>AttackRunToSensor_linked</title>
<polygon fill="none" stroke="black" stroke-dasharray="1,5" points="349.48,-679.75 293.27,-679.75 293.27,-643.75 349.48,-643.75 349.48,-679.75"/>
<text text-anchor="start" x="298.88" y="-656.33" font-family="Helvetica,sans-Serif" font-size="14.00">Attack &#160;</text>
</g>
<!-- AttackRunToSensor&#45;&gt;AttackRunToSensor_linked -->
<g id="edge9" class="edge">
<title>AttackRunToSensor&#45;&gt;AttackRunToSensor_linked</title>
<path fill="none" stroke="#66cdaa" d="M167.18,-661.75C205.21,-661.75 250.16,-661.75 281.49,-661.75"/>
<polygon fill="#66cdaa" stroke="#66cdaa" points="281.28,-665.25 291.28,-661.75 281.27,-658.25 281.28,-665.25"/>
<text text-anchor="middle" x="220.62" y="-664.2" font-family="Helvetica,sans-Serif" font-size="14.00" fill="#66cdaa">QueueEnd</text>
</g>
</g>
</svg>
