<?xml version="1.0" encoding="UTF-8" standalone="no"?>
<!DOCTYPE svg PUBLIC "-//W3C//DTD SVG 1.1//EN"
 "http://www.w3.org/Graphics/SVG/1.1/DTD/svg11.dtd">
<!-- Generated by graphviz version 12.2.1 (20241206.2353)
 -->
<!-- Title: Foo Pages: 1 -->
<svg width="445pt" height="1480pt"
 viewBox="0.00 0.00 445.00 1480.00" xmlns="http://www.w3.org/2000/svg" xmlns:xlink="http://www.w3.org/1999/xlink">
<g id="graph0" class="graph" transform="scale(1 1) rotate(0) translate(4 1476)">
<title>Foo</title>
<polygon fill="white" stroke="none" points="-4,4 -4,-1476 441,-1476 441,4 -4,4"/>
<g id="clust1" class="cluster">
<title>cluster_attacksensors</title>
<polygon fill="none" stroke="black" points="8,-8 8,-610 429,-610 429,-8 8,-8"/>
<text text-anchor="middle" x="218.5" y="-592.7" font-family="Helvetica,sans-Serif" font-size="14.00">Attack Sensors</text>
</g>
<!-- Level Once Sensor -->
<g id="node1" class="node">
<title>Level Once Sensor</title>
<polygon fill="none" stroke="black" points="28.5,-53.12 28.5,-74.88 157.5,-74.88 157.5,-53.12 28.5,-53.12"/>
<text text-anchor="start" x="31.5" y="-58.58" font-family="Helvetica,sans-Serif" font-size="14.00">Level Once Sensor &#160;</text>
</g>
<!-- Level Once Sensor_linked -->
<g id="node2" class="node">
<title>Level Once Sensor_linked</title>
<polygon fill="none" stroke="black" stroke-dasharray="1,5" points="394.48,-52 297.77,-52 297.77,-16 394.48,-16 394.48,-52"/>
<text text-anchor="start" x="303.38" y="-28.57" font-family="Helvetica,sans-Serif" font-size="14.00">QuickSmash &#160;</text>
</g>
<!-- Level Once Sensor&#45;&gt;Level Once Sensor_linked -->
<g id="edge1" class="edge">
<title>Level Once Sensor&#45;&gt;Level Once Sensor_linked</title>
<path fill="none" stroke="#66cdaa" d="M165.29,-55.48C203.5,-50.92 250.01,-45.36 286.15,-41.04"/>
<polygon fill="#66cdaa" stroke="#66cdaa" points="286.49,-44.53 296,-39.87 285.66,-37.58 286.49,-44.53"/>
<text text-anchor="middle" x="220.62" y="-55.02" font-family="Helvetica,sans-Serif" font-size="14.00" fill="#66cdaa">QueueEnd</text>
</g>
<!-- Level Once Sensor_weight -->
<g id="node3" class="node">
<title>Level Once Sensor_weight</title>
<polygon fill="none" stroke="black" stroke-dasharray="1,5" points="404.5,-106 287.75,-106 287.75,-70 404.5,-70 404.5,-106"/>
<text text-anchor="start" x="297.75" y="-82.58" font-family="Helvetica,sans-Serif" font-size="14.00">1 QuickSmash &#160;</text>
</g>
<!-- Level Once Sensor&#45;&gt;Level Once Sensor_weight -->
<g id="edge2" class="edge">
<title>Level Once Sensor&#45;&gt;Level Once Sensor_weight</title>
<path fill="none" stroke="#458b74" d="M165.29,-70.81C200.08,-74.14 241.74,-78.12 276.2,-81.41"/>
<polygon fill="#458b74" stroke="#458b74" points="275.8,-84.89 286.09,-82.36 276.47,-77.92 275.8,-84.89"/>
<text text-anchor="middle" x="220.62" y="-81.31" font-family="Helvetica,sans-Serif" font-size="14.00" fill="#458b74">Weight</text>
</g>
<!-- RunAwaySensor -->
<g id="node4" class="node">
<title>RunAwaySensor</title>
<polygon fill="none" stroke="black" points="36,-137.12 36,-158.88 150,-158.88 150,-137.12 36,-137.12"/>
<text text-anchor="start" x="39" y="-142.57" font-family="Helvetica,sans-Serif" font-size="14.00">RunAwaySensor &#160;</text>
</g>
<!-- AttackSensor_Near -->
<g id="node5" class="node">
<title>AttackSensor_Near</title>
<polygon fill="none" stroke="black" points="27.75,-203.12 27.75,-224.88 158.25,-224.88 158.25,-203.12 27.75,-203.12"/>
<text text-anchor="start" x="30.75" y="-208.57" font-family="Helvetica,sans-Serif" font-size="14.00">AttackSensor_Near &#160;</text>
</g>
<!-- AttackSensor_Near_linked -->
<g id="node6" class="node">
<title>AttackSensor_Near_linked</title>
<polygon fill="none" stroke="black" stroke-dasharray="1,5" points="410.98,-210.1 281.27,-210.1 281.27,-123.9 410.98,-123.9 410.98,-210.1"/>
<text text-anchor="start" x="303.38" y="-191.2" font-family="Helvetica,sans-Serif" font-size="14.00">QuickSmash &#160;</text>
<text text-anchor="start" x="289.12" y="-171.45" font-family="Helvetica,sans-Serif" font-size="14.00">DoublePushAway &#160;</text>
<text text-anchor="start" x="289.12" y="-151.7" font-family="Helvetica,sans-Serif" font-size="14.00">DoublePushAway &#160;</text>
<text text-anchor="start" x="286.88" y="-131.95" font-family="Helvetica,sans-Serif" font-size="14.00">GenerateFarSpike &#160;</text>
</g>
<!-- AttackSensor_Near&#45;&gt;AttackSensor_Near_linked -->
<g id="edge3" class="edge">
<title>AttackSensor_Near&#45;&gt;AttackSensor_Near_linked</title>
<path fill="none" stroke="#66cdaa" d="M166.1,-200.37C173.5,-198.97 180.9,-197.58 188,-196.25 214.61,-191.26 243.76,-185.83 269.64,-181.01"/>
<polygon fill="#66cdaa" stroke="#66cdaa" points="270.22,-184.46 279.41,-179.19 268.94,-177.58 270.22,-184.46"/>
<text text-anchor="middle" x="220.62" y="-198.7" font-family="Helvetica,sans-Serif" font-size="14.00" fill="#66cdaa">QueueEnd</text>
</g>
<!-- AttackSensor_Near_weight -->
<g id="node7" class="node">
<title>AttackSensor_Near_weight</title>
<polygon fill="none" stroke="black" stroke-dasharray="1,5" points="418.75,-295.62 273.5,-295.62 273.5,-228.38 418.75,-228.38 418.75,-295.62"/>
<text text-anchor="start" x="283.5" y="-276.32" font-family="Helvetica,sans-Serif" font-size="14.00">1 DoublePushAway &#160;</text>
<text text-anchor="start" x="297.75" y="-256.57" font-family="Helvetica,sans-Serif" font-size="14.00">1 QuickSmash &#160;</text>
<text text-anchor="start" x="300" y="-236.82" font-family="Helvetica,sans-Serif" font-size="14.00">1 RollThrough &#160;</text>
</g>
<!-- AttackSensor_Near&#45;&gt;AttackSensor_Near_weight -->
<g id="edge4" class="edge">
<title>AttackSensor_Near&#45;&gt;AttackSensor_Near_weight</title>
<path fill="none" stroke="#458b74" d="M165.96,-227.75C195.91,-233.48 230.86,-240.16 261.91,-246.09"/>
<polygon fill="#458b74" stroke="#458b74" points="261.19,-249.52 271.67,-247.96 262.5,-242.64 261.19,-249.52"/>
<text text-anchor="middle" x="220.62" y="-246.16" font-family="Helvetica,sans-Serif" font-size="14.00" fill="#458b74">Weight</text>
</g>
<!-- DodgePredictSensor -->
<g id="node8" class="node">
<title>DodgePredictSensor</title>
<polygon fill="none" stroke="black" points="24,-316 24,-337.75 162,-337.75 162,-316 24,-316"/>
<text text-anchor="start" x="27" y="-321.45" font-family="Helvetica,sans-Serif" font-size="14.00">DodgePredictSensor &#160;</text>
<polygon fill="none" stroke="black" points="24,-294.25 24,-316 162,-316 162,-294.25 24,-294.25"/>
<text text-anchor="start" x="27" y="-300.7" font-family="Helvetica,sans-Serif" font-size="12.00" fill="#838b8b">if: rollingCondition</text>
<text text-anchor="start" x="123.75" y="-300.7" font-family="Helvetica,sans-Serif" font-size="14.00"> &#160;</text>
</g>
<!-- DodgePredictSensor_linked -->
<g id="node9" class="node">
<title>DodgePredictSensor_linked</title>
<polygon fill="none" stroke="black" stroke-dasharray="1,5" points="394.48,-350 297.77,-350 297.77,-314 394.48,-314 394.48,-350"/>
<text text-anchor="start" x="303.38" y="-326.57" font-family="Helvetica,sans-Serif" font-size="14.00">QuickSmash &#160;</text>
</g>
<!-- DodgePredictSensor&#45;&gt;DodgePredictSensor_linked -->
<g id="edge5" class="edge">
<title>DodgePredictSensor&#45;&gt;DodgePredictSensor_linked</title>
<path fill="none" stroke="#66cdaa" d="M169.69,-320.82C207.05,-323.2 251.46,-326.03 286.25,-328.25"/>
<polygon fill="#66cdaa" stroke="#66cdaa" points="285.94,-331.74 296.14,-328.88 286.38,-324.75 285.94,-331.74"/>
<text text-anchor="middle" x="220.62" y="-328.35" font-family="Helvetica,sans-Serif" font-size="14.00" fill="#66cdaa">QueueEnd</text>
</g>
<!-- AttackPredictSensor -->
<g id="node10" class="node">
<title>AttackPredictSensor</title>
<polygon fill="none" stroke="black" points="25.12,-386 25.12,-407.75 160.88,-407.75 160.88,-386 25.12,-386"/>
<text text-anchor="start" x="28.12" y="-391.45" font-family="Helvetica,sans-Serif" font-size="14.00">AttackPredictSensor &#160;</text>
<polygon fill="none" stroke="black" points="25.12,-364.25 25.12,-386 160.88,-386 160.88,-364.25 25.12,-364.25"/>
<text text-anchor="start" x="28.12" y="-370.7" font-family="Helvetica,sans-Serif" font-size="12.00" fill="#838b8b">if: attackCondition</text>
<text text-anchor="start" x="123.38" y="-370.7" font-family="Helvetica,sans-Serif" font-size="14.00"> &#160;</text>
</g>
<!-- AttackPredictSensor_linked -->
<g id="node11" class="node">
<title>AttackPredictSensor_linked</title>
<polygon fill="none" stroke="black" stroke-dasharray="1,5" points="394.48,-404 297.77,-404 297.77,-368 394.48,-368 394.48,-404"/>
<text text-anchor="start" x="303.38" y="-380.57" font-family="Helvetica,sans-Serif" font-size="14.00">QuickSmash &#160;</text>
</g>
<!-- AttackPredictSensor&#45;&gt;AttackPredictSensor_linked -->
<g id="edge6" class="edge">
<title>AttackPredictSensor&#45;&gt;AttackPredictSensor_linked</title>
<path fill="none" stroke="#66cdaa" d="M168.67,-386C206.21,-386 251.05,-386 286.14,-386"/>
<polygon fill="#66cdaa" stroke="#66cdaa" points="286.13,-389.5 296.13,-386 286.13,-382.5 286.13,-389.5"/>
<text text-anchor="middle" x="220.62" y="-388.45" font-family="Helvetica,sans-Serif" font-size="14.00" fill="#66cdaa">QueueEnd</text>
</g>
<!-- AttackRunToSensor -->
<g id="node12" class="node">
<title>AttackRunToSensor</title>
<polygon fill="none" stroke="black" points="26.62,-456 26.62,-477.75 159.38,-477.75 159.38,-456 26.62,-456"/>
<text text-anchor="start" x="29.62" y="-461.45" font-family="Helvetica,sans-Serif" font-size="14.00">AttackRunToSensor &#160;</text>
<polygon fill="none" stroke="black" points="26.62,-434.25 26.62,-456 159.38,-456 159.38,-434.25 26.62,-434.25"/>
<text text-anchor="start" x="29.62" y="-440.7" font-family="Helvetica,sans-Serif" font-size="12.00" fill="#838b8b">if: state is Engaging</text>
<text text-anchor="start" x="133.88" y="-440.7" font-family="Helvetica,sans-Serif" font-size="14.00"> &#160;</text>
</g>
<!-- AttackRunToSensor_linked -->
<g id="node13" class="node">
<title>AttackRunToSensor_linked</title>
<polygon fill="none" stroke="black" stroke-dasharray="1,5" points="394.48,-458 297.77,-458 297.77,-422 394.48,-422 394.48,-458"/>
<text text-anchor="start" x="303.38" y="-434.57" font-family="Helvetica,sans-Serif" font-size="14.00">QuickSmash &#160;</text>
</g>
<!-- AttackRunToSensor&#45;&gt;AttackRunToSensor_linked -->
<g id="edge7" class="edge">
<title>AttackRunToSensor&#45;&gt;AttackRunToSensor_linked</title>
<path fill="none" stroke="#66cdaa" d="M167.31,-451.33C205.19,-448.92 250.8,-446.01 286.34,-443.75"/>
<polygon fill="#66cdaa" stroke="#66cdaa" points="286.24,-447.26 295.99,-443.13 285.79,-440.27 286.24,-447.26"/>
<text text-anchor="middle" x="220.62" y="-452.35" font-family="Helvetica,sans-Serif" font-size="14.00" fill="#66cdaa">QueueEnd</text>
</g>
<!-- ThrowAttackSensor -->
<g id="node14" class="node">
<title>ThrowAttackSensor</title>
<polygon fill="none" stroke="black" points="27.38,-522.12 27.38,-543.88 158.62,-543.88 158.62,-522.12 27.38,-522.12"/>
<text text-anchor="start" x="30.38" y="-527.58" font-family="Helvetica,sans-Serif" font-size="14.00">ThrowAttackSensor &#160;</text>
</g>
<!-- ThrowAttackSensor_linked -->
<g id="node15" class="node">
<title>ThrowAttackSensor_linked</title>
<polygon fill="none" stroke="black" stroke-dasharray="1,5" points="410.98,-512 281.27,-512 281.27,-476 410.98,-476 410.98,-512"/>
<text text-anchor="start" x="286.88" y="-488.57" font-family="Helvetica,sans-Serif" font-size="14.00">GenerateFarSpike &#160;</text>
</g>
<!-- ThrowAttackSensor&#45;&gt;ThrowAttackSensor_linked -->
<g id="edge8" class="edge">
<title>ThrowAttackSensor&#45;&gt;ThrowAttackSensor_linked</title>
<path fill="none" stroke="#66cdaa" d="M166.3,-521.77C198.7,-516.74 236.92,-510.81 269.68,-505.72"/>
<polygon fill="#66cdaa" stroke="#66cdaa" points="270.19,-509.18 279.53,-504.19 269.11,-502.26 270.19,-509.18"/>
<text text-anchor="middle" x="220.62" y="-520.59" font-family="Helvetica,sans-Serif" font-size="14.00" fill="#66cdaa">QueueEnd</text>
</g>
<!-- ThrowAttackSensor_weight -->
<g id="node16" class="node">
<title>ThrowAttackSensor_weight</title>
<polygon fill="none" stroke="black" stroke-dasharray="1,5" points="421,-577.75 271.25,-577.75 271.25,-530.25 421,-530.25 421,-577.75"/>
<text text-anchor="start" x="281.25" y="-558.45" font-family="Helvetica,sans-Serif" font-size="14.00">2 GenerateFarSpike &#160;</text>
<text text-anchor="start" x="300" y="-538.7" font-family="Helvetica,sans-Serif" font-size="14.00">1 RollThrough &#160;</text>
</g>
<!-- ThrowAttackSensor&#45;&gt;ThrowAttackSensor_weight -->
<g id="edge9" class="edge">
<title>ThrowAttackSensor&#45;&gt;ThrowAttackSensor_weight</title>
<path fill="none" stroke="#458b74" d="M166.3,-539.05C195.46,-541.48 229.34,-544.32 259.71,-546.86"/>
<polygon fill="#458b74" stroke="#458b74" points="259.39,-550.34 269.65,-547.69 259.98,-543.37 259.39,-550.34"/>
<text text-anchor="middle" x="220.62" y="-548.45" font-family="Helvetica,sans-Serif" font-size="14.00" fill="#458b74">Weight</text>
</g>
<!-- QuickSmash -->
<g id="node17" class="node">
<title>QuickSmash</title>
<polygon fill="none" stroke="black" points="34.12,-978.12 34.12,-999.88 151.88,-999.88 151.88,-978.12 34.12,-978.12"/>
<text text-anchor="start" x="50.25" y="-983.58" font-family="Helvetica,sans-Serif" font-size="14.00">QuickSmash &#160;</text>
<polygon fill="none" stroke="black" points="34.12,-934.12 34.12,-978.12 151.88,-978.12 151.88,-934.12 34.12,-934.12"/>
<text text-anchor="start" x="37.12" y="-964.73" font-family="Helvetica,sans-Serif" font-size="12.00" fill="#838b8b">0.50s: CheckFacing</text>
<text text-anchor="start" x="37.12" y="-952.73" font-family="Helvetica,sans-Serif" font-size="12.00" fill="#838b8b">1.83s: LinkNextMove</text>
<text text-anchor="start" x="37.12" y="-938.83" font-family="Helvetica,sans-Serif" font-size="12.00" fill="#838b8b">2.00s: Done</text>
<text text-anchor="start" x="101.62" y="-938.83" font-family="Helvetica,sans-Serif" font-size="14.00"> &#160;</text>
</g>
<!-- Engaging -->
<g id="node18" class="node">
<title>Engaging</title>
<polygon fill="none" stroke="black" points="382.62,-893 309.62,-893 309.62,-857 382.62,-857 382.62,-893"/>
<text text-anchor="middle" x="346.12" y="-869.58" font-family="Helvetica,sans-Serif" font-size="14.00">Engaging</text>
</g>
<!-- QuickSmash&#45;&gt;Engaging -->
<g id="edge10" class="edge">
<title>QuickSmash&#45;&gt;Engaging</title>
<path fill="none" stroke="#cdc8b1" d="M159.65,-942.95C203.26,-926.97 259.46,-906.38 298.52,-892.07"/>
<polygon fill="#cdc8b1" stroke="#cdc8b1" points="299.7,-895.37 307.88,-888.64 297.29,-888.8 299.7,-895.37"/>
</g>
<!-- QuickSmash_weight -->
<g id="node19" class="node">
<title>QuickSmash_weight</title>
<polygon fill="none" stroke="black" stroke-dasharray="1,5" points="418.75,-1000.62 273.5,-1000.62 273.5,-933.38 418.75,-933.38 418.75,-1000.62"/>
<text text-anchor="start" x="283.5" y="-981.33" font-family="Helvetica,sans-Serif" font-size="14.00">1 DoublePushAway &#160;</text>
<text text-anchor="start" x="303.75" y="-961.58" font-family="Helvetica,sans-Serif" font-size="14.00">1 HugeSpike &#160;</text>
<text text-anchor="start" x="323.62" y="-941.83" font-family="Helvetica,sans-Serif" font-size="14.00">2 Skip &#160;</text>
</g>
<!-- QuickSmash&#45;&gt;QuickSmash_weight -->
<g id="edge11" class="edge">
<title>QuickSmash&#45;&gt;QuickSmash_weight</title>
<path fill="none" stroke="#458b74" d="M159.65,-967C190.99,-967 228.83,-967 262.13,-967"/>
<polygon fill="#458b74" stroke="#458b74" points="261.72,-970.5 271.72,-967 261.72,-963.5 261.72,-970.5"/>
<text text-anchor="middle" x="220.62" y="-969.45" font-family="Helvetica,sans-Serif" font-size="14.00" fill="#458b74">Weight</text>
</g>
<!-- HugeSpike -->
<g id="node20" class="node">
<title>HugeSpike</title>
<polygon fill="none" stroke="black" points="34.12,-794.12 34.12,-815.88 151.88,-815.88 151.88,-794.12 34.12,-794.12"/>
<text text-anchor="start" x="56.25" y="-799.58" font-family="Helvetica,sans-Serif" font-size="14.00">HugeSpike &#160;</text>
<polygon fill="none" stroke="black" points="34.12,-726.12 34.12,-794.12 151.88,-794.12 151.88,-726.12 34.12,-726.12"/>
<text text-anchor="start" x="37.12" y="-780.73" font-family="Helvetica,sans-Serif" font-size="12.00" fill="#838b8b">0.00s: CheckFacing</text>
<text text-anchor="start" x="37.12" y="-768.73" font-family="Helvetica,sans-Serif" font-size="12.00" fill="#838b8b">0.17s: CheckFacing</text>
<text text-anchor="start" x="37.12" y="-756.73" font-family="Helvetica,sans-Serif" font-size="12.00" fill="#838b8b">1.25s: CheckFacing</text>
<text text-anchor="start" x="37.12" y="-744.73" font-family="Helvetica,sans-Serif" font-size="12.00" fill="#838b8b">2.50s: LinkNextMove</text>
<text text-anchor="start" x="37.12" y="-730.83" font-family="Helvetica,sans-Serif" font-size="12.00" fill="#838b8b">2.67s: Done</text>
<text text-anchor="start" x="101.62" y="-730.83" font-family="Helvetica,sans-Serif" font-size="14.00"> &#160;</text>
</g>
<!-- HugeSpike&#45;&gt;Engaging -->
<g id="edge12" class="edge">
<title>HugeSpike&#45;&gt;Engaging</title>
<path fill="none" stroke="#cdc8b1" d="M159.65,-798.19C203.36,-816.29 259.71,-839.62 298.77,-855.8"/>
<polygon fill="#cdc8b1" stroke="#cdc8b1" points="297.33,-858.99 307.91,-859.59 300.01,-852.53 297.33,-858.99"/>
</g>
<!-- HugeSpike_weight -->
<g id="node21" class="node">
<title>HugeSpike_weight</title>
<polygon fill="none" stroke="black" stroke-dasharray="1,5" points="421,-794.75 271.25,-794.75 271.25,-747.25 421,-747.25 421,-794.75"/>
<text text-anchor="start" x="281.25" y="-775.45" font-family="Helvetica,sans-Serif" font-size="14.00">1 GenerateFarSpike &#160;</text>
<text text-anchor="start" x="323.62" y="-755.7" font-family="Helvetica,sans-Serif" font-size="14.00">1 Skip &#160;</text>
</g>
<!-- HugeSpike&#45;&gt;HugeSpike_weight -->
<g id="edge13" class="edge">
<title>HugeSpike&#45;&gt;HugeSpike_weight</title>
<path fill="none" stroke="#458b74" d="M159.65,-771C190.2,-771 226.93,-771 259.62,-771"/>
<polygon fill="#458b74" stroke="#458b74" points="259.48,-774.5 269.48,-771 259.48,-767.5 259.48,-774.5"/>
<text text-anchor="middle" x="220.62" y="-773.45" font-family="Helvetica,sans-Serif" font-size="14.00" fill="#458b74">Weight</text>
</g>
<!-- DoublePushAway -->
<g id="node22" class="node">
<title>DoublePushAway</title>
<polygon fill="none" stroke="black" points="33,-1082.12 33,-1103.88 153,-1103.88 153,-1082.12 33,-1082.12"/>
<text text-anchor="start" x="36" y="-1087.58" font-family="Helvetica,sans-Serif" font-size="14.00">DoublePushAway &#160;</text>
<polygon fill="none" stroke="black" points="33,-1026.12 33,-1082.12 153,-1082.12 153,-1026.12 33,-1026.12"/>
<text text-anchor="start" x="36" y="-1068.72" font-family="Helvetica,sans-Serif" font-size="12.00" fill="#838b8b">1.45s: LinkNextMove</text>
<text text-anchor="start" x="36" y="-1056.72" font-family="Helvetica,sans-Serif" font-size="12.00" fill="#838b8b">1.45s: CheckFacing</text>
<text text-anchor="start" x="36" y="-1044.72" font-family="Helvetica,sans-Serif" font-size="12.00" fill="#838b8b">2.67s: LinkNextMove</text>
<text text-anchor="start" x="36" y="-1030.82" font-family="Helvetica,sans-Serif" font-size="12.00" fill="#838b8b">2.88s: Done</text>
<text text-anchor="start" x="100.5" y="-1030.82" font-family="Helvetica,sans-Serif" font-size="14.00"> &#160;</text>
</g>
<!-- DoublePushAway&#45;&gt;Engaging -->
<g id="edge14" class="edge">
<title>DoublePushAway&#45;&gt;Engaging</title>
<path fill="none" stroke="#cdc8b1" d="M160.61,-1046.49C192.76,-1034.4 229.44,-1015.45 253.25,-987 271.94,-964.67 254.05,-947.5 271.25,-924 278.77,-913.73 289.13,-904.98 299.73,-897.85"/>
<polygon fill="#cdc8b1" stroke="#cdc8b1" points="301.55,-900.83 308.16,-892.55 297.83,-894.9 301.55,-900.83"/>
</g>
<!-- DoublePushAway_weight -->
<g id="node23" class="node">
<title>DoublePushAway_weight</title>
<polygon fill="none" stroke="black" stroke-dasharray="1,5" points="402.25,-1098.62 290,-1098.62 290,-1031.38 402.25,-1031.38 402.25,-1098.62"/>
<text text-anchor="start" x="303.75" y="-1079.33" font-family="Helvetica,sans-Serif" font-size="14.00">1 HugeSpike &#160;</text>
<text text-anchor="start" x="323.62" y="-1059.58" font-family="Helvetica,sans-Serif" font-size="14.00">1 Skip &#160;</text>
<text text-anchor="start" x="300" y="-1039.83" font-family="Helvetica,sans-Serif" font-size="14.00">0 RollThrough &#160;</text>
</g>
<!-- DoublePushAway&#45;&gt;DoublePushAway_weight -->
<g id="edge15" class="edge">
<title>DoublePushAway&#45;&gt;DoublePushAway_weight</title>
<path fill="none" stroke="#458b74" d="M160.97,-1065C197.28,-1065 242.03,-1065 278.32,-1065"/>
<polygon fill="#458b74" stroke="#458b74" points="278.27,-1068.5 288.27,-1065 278.27,-1061.5 278.27,-1068.5"/>
<text text-anchor="middle" x="220.62" y="-1067.45" font-family="Helvetica,sans-Serif" font-size="14.00" fill="#458b74">Weight</text>
</g>
<!-- GenerateFarSpike -->
<g id="node24" class="node">
<title>GenerateFarSpike</title>
<polygon fill="none" stroke="black" points="30.75,-886.12 30.75,-907.88 155.25,-907.88 155.25,-886.12 30.75,-886.12"/>
<text text-anchor="start" x="33.75" y="-891.58" font-family="Helvetica,sans-Serif" font-size="14.00">GenerateFarSpike &#160;</text>
<polygon fill="none" stroke="black" points="30.75,-842.12 30.75,-886.12 155.25,-886.12 155.25,-842.12 30.75,-842.12"/>
<text text-anchor="start" x="33.75" y="-872.73" font-family="Helvetica,sans-Serif" font-size="12.00" fill="#838b8b">0.00s: CheckFacing</text>
<text text-anchor="start" x="33.75" y="-860.73" font-family="Helvetica,sans-Serif" font-size="12.00" fill="#838b8b">0.08s: CheckFacing</text>
<text text-anchor="start" x="33.75" y="-846.83" font-family="Helvetica,sans-Serif" font-size="12.00" fill="#838b8b">1.95s: Done</text>
<text text-anchor="start" x="98.25" y="-846.83" font-family="Helvetica,sans-Serif" font-size="14.00"> &#160;</text>
</g>
<!-- GenerateFarSpike&#45;&gt;Engaging -->
<g id="edge16" class="edge">
<title>GenerateFarSpike&#45;&gt;Engaging</title>
<path fill="none" stroke="#cdc8b1" d="M162.95,-875C205.85,-875 259.9,-875 297.94,-875"/>
<polygon fill="#cdc8b1" stroke="#cdc8b1" points="297.7,-878.5 307.69,-875 297.69,-871.5 297.7,-878.5"/>
</g>
<!-- HurtState -->
<g id="node25" class="node">
<title>HurtState</title>
<polygon fill="none" stroke="black" points="54,-1152 54,-1173.75 132,-1173.75 132,-1152 54,-1152"/>
<text text-anchor="start" x="60.75" y="-1157.45" font-family="Helvetica,sans-Serif" font-size="14.00">HurtState &#160;</text>
<polygon fill="none" stroke="black" points="54,-1130.25 54,-1152 132,-1152 132,-1130.25 54,-1130.25"/>
<text text-anchor="start" x="57" y="-1136.7" font-family="Helvetica,sans-Serif" font-size="12.00" fill="#838b8b">0.17s: Done</text>
<text text-anchor="start" x="121.5" y="-1136.7" font-family="Helvetica,sans-Serif" font-size="14.00"> &#160;</text>
</g>
<!-- PreAttack -->
<g id="node26" class="node">
<title>PreAttack</title>
<polygon fill="none" stroke="black" points="383.38,-1245 308.88,-1245 308.88,-1209 383.38,-1209 383.38,-1245"/>
<text text-anchor="middle" x="346.12" y="-1221.58" font-family="Helvetica,sans-Serif" font-size="14.00">PreAttack</text>
</g>
<!-- HurtState&#45;&gt;PreAttack -->
<g id="edge17" class="edge">
<title>HurtState&#45;&gt;PreAttack</title>
<path fill="none" stroke="#cdc8b1" d="M139.77,-1165.67C184.5,-1179.03 252.31,-1199.28 297.62,-1212.81"/>
<polygon fill="#cdc8b1" stroke="#cdc8b1" points="296.6,-1216.16 307.18,-1215.67 298.6,-1209.45 296.6,-1216.16"/>
</g>
<!-- Hurt_BigState -->
<g id="node27" class="node">
<title>Hurt_BigState</title>
<polygon fill="none" stroke="black" points="34.5,-1312.12 34.5,-1333.88 151.5,-1333.88 151.5,-1312.12 34.5,-1312.12"/>
<text text-anchor="start" x="47.25" y="-1317.58" font-family="Helvetica,sans-Serif" font-size="14.00">Hurt_BigState &#160;</text>
<polygon fill="none" stroke="black" points="34.5,-1280.12 34.5,-1312.12 151.5,-1312.12 151.5,-1280.12 34.5,-1280.12"/>
<text text-anchor="start" x="37.5" y="-1298.72" font-family="Helvetica,sans-Serif" font-size="12.00" fill="#838b8b">0.00s: EnableGravity</text>
<text text-anchor="start" x="37.5" y="-1284.82" font-family="Helvetica,sans-Serif" font-size="12.00" fill="#838b8b">2.00s: Done</text>
<text text-anchor="start" x="102" y="-1284.82" font-family="Helvetica,sans-Serif" font-size="14.00"> &#160;</text>
</g>
<!-- Hurt_BigState&#45;&gt;PreAttack -->
<g id="edge18" class="edge">
<title>Hurt_BigState&#45;&gt;PreAttack</title>
<path fill="none" stroke="#cdc8b1" d="M159.32,-1286.19C202.67,-1272.38 258.57,-1254.57 297.68,-1242.11"/>
<polygon fill="#cdc8b1" stroke="#cdc8b1" points="298.59,-1245.5 307.05,-1239.13 296.46,-1238.83 298.59,-1245.5"/>
</g>
<!-- LastHit -->
<g id="node28" class="node">
<title>LastHit</title>
<polygon fill="none" stroke="black" points="34.5,-1392.12 34.5,-1413.88 151.5,-1413.88 151.5,-1392.12 34.5,-1392.12"/>
<text text-anchor="start" x="68.25" y="-1397.58" font-family="Helvetica,sans-Serif" font-size="14.00">LastHit &#160;</text>
<polygon fill="none" stroke="black" points="34.5,-1360.12 34.5,-1392.12 151.5,-1392.12 151.5,-1360.12 34.5,-1360.12"/>
<text text-anchor="start" x="37.5" y="-1378.72" font-family="Helvetica,sans-Serif" font-size="12.00" fill="#838b8b">0.00s: EnableGravity</text>
<text text-anchor="start" x="37.5" y="-1364.82" font-family="Helvetica,sans-Serif" font-size="12.00" fill="#838b8b">0.25s: Done</text>
<text text-anchor="start" x="102" y="-1364.82" font-family="Helvetica,sans-Serif" font-size="14.00"> &#160;</text>
</g>
<!-- DeadState -->
<g id="node29" class="node">
<title>DeadState</title>
<polygon fill="none" stroke="black" points="386,-1405 306.25,-1405 306.25,-1369 386,-1369 386,-1405"/>
<text text-anchor="middle" x="346.12" y="-1381.58" font-family="Helvetica,sans-Serif" font-size="14.00">DeadState</text>
</g>
<!-- LastHit&#45;&gt;DeadState -->
<g id="edge19" class="edge">
<title>LastHit&#45;&gt;DeadState</title>
<path fill="none" stroke="#cdc8b1" d="M159.32,-1387C201.56,-1387 255.71,-1387 294.64,-1387"/>
<polygon fill="#cdc8b1" stroke="#cdc8b1" points="294.44,-1390.5 304.44,-1387 294.44,-1383.5 294.44,-1390.5"/>
</g>
<!-- PostureBreak -->
<g id="node30" class="node">
<title>PostureBreak</title>
<polygon fill="none" stroke="black" points="34.5,-1232.12 34.5,-1253.88 151.5,-1253.88 151.5,-1232.12 34.5,-1232.12"/>
<text text-anchor="start" x="48.38" y="-1237.58" font-family="Helvetica,sans-Serif" font-size="14.00">PostureBreak &#160;</text>
<polygon fill="none" stroke="black" points="34.5,-1200.12 34.5,-1232.12 151.5,-1232.12 151.5,-1200.12 34.5,-1200.12"/>
<text text-anchor="start" x="37.5" y="-1218.72" font-family="Helvetica,sans-Serif" font-size="12.00" fill="#838b8b">0.00s: EnableGravity</text>
<text text-anchor="start" x="37.5" y="-1204.82" font-family="Helvetica,sans-Serif" font-size="12.00" fill="#838b8b">2.00s: Done</text>
<text text-anchor="start" x="102" y="-1204.82" font-family="Helvetica,sans-Serif" font-size="14.00"> &#160;</text>
</g>
<!-- PostureBreak&#45;&gt;PreAttack -->
<g id="edge20" class="edge">
<title>PostureBreak&#45;&gt;PreAttack</title>
<path fill="none" stroke="#cdc8b1" d="M159.32,-1227C202.48,-1227 258.09,-1227 297.18,-1227"/>
<polygon fill="#cdc8b1" stroke="#cdc8b1" points="296.98,-1230.5 306.98,-1227 296.98,-1223.5 296.98,-1230.5"/>
</g>
<!-- RollThrough -->
<g id="node31" class="node">
<title>RollThrough</title>
<polygon fill="none" stroke="black" points="33,-678.12 33,-699.88 153,-699.88 153,-678.12 33,-678.12"/>
<text text-anchor="start" x="52.5" y="-683.58" font-family="Helvetica,sans-Serif" font-size="14.00">RollThrough &#160;</text>
<polygon fill="none" stroke="black" points="33,-622.12 33,-678.12 153,-678.12 153,-622.12 33,-622.12"/>
<text text-anchor="start" x="36" y="-664.73" font-family="Helvetica,sans-Serif" font-size="12.00" fill="#838b8b">0.25s: DisableGravity</text>
<text text-anchor="start" x="36" y="-652.73" font-family="Helvetica,sans-Serif" font-size="12.00" fill="#838b8b">0.75s: EnableGravity</text>
<text text-anchor="start" x="36" y="-640.73" font-family="Helvetica,sans-Serif" font-size="12.00" fill="#838b8b">0.90s: LinkNextMove</text>
<text text-anchor="start" x="36" y="-626.83" font-family="Helvetica,sans-Serif" font-size="12.00" fill="#838b8b">1.00s: Done</text>
<text text-anchor="start" x="100.5" y="-626.83" font-family="Helvetica,sans-Serif" font-size="14.00"> &#160;</text>
</g>
<!-- RollThrough&#45;&gt;Engaging -->
<g id="edge21" class="edge">
<title>RollThrough&#45;&gt;Engaging</title>
<path fill="none" stroke="#cdc8b1" d="M160.85,-694.7C191.92,-712.87 227.57,-737.61 253.25,-767 265.28,-780.77 260.49,-789.21 271.25,-804 283.3,-820.56 299.45,-836.58 313.57,-849.2"/>
<polygon fill="#cdc8b1" stroke="#cdc8b1" points="311.07,-851.67 320.91,-855.6 315.67,-846.39 311.07,-851.67"/>
</g>
<!-- RollThrough_weight -->
<g id="node32" class="node">
<title>RollThrough_weight</title>
<polygon fill="none" stroke="black" stroke-dasharray="1,5" points="421,-694.62 271.25,-694.62 271.25,-627.38 421,-627.38 421,-694.62"/>
<text text-anchor="start" x="283.5" y="-675.33" font-family="Helvetica,sans-Serif" font-size="14.00">1 DoublePushAway &#160;</text>
<text text-anchor="start" x="297.75" y="-655.58" font-family="Helvetica,sans-Serif" font-size="14.00">1 QuickSmash &#160;</text>
<text text-anchor="start" x="281.25" y="-635.83" font-family="Helvetica,sans-Serif" font-size="14.00">2 GenerateFarSpike &#160;</text>
</g>
<!-- RollThrough&#45;&gt;RollThrough_weight -->
<g id="edge22" class="edge">
<title>RollThrough&#45;&gt;RollThrough_weight</title>
<path fill="none" stroke="#458b74" d="M160.97,-661C191.25,-661 227.4,-661 259.61,-661"/>
<polygon fill="#458b74" stroke="#458b74" points="259.31,-664.5 269.31,-661 259.31,-657.5 259.31,-664.5"/>
<text text-anchor="middle" x="220.62" y="-663.45" font-family="Helvetica,sans-Serif" font-size="14.00" fill="#458b74">Weight</text>
</g>
<!-- Wandering_Idle -->
<g id="node33" class="node">
<title>Wandering_Idle</title>
<polygon fill="none" stroke="black" points="163.62,-1472 22.38,-1472 22.38,-1436 163.62,-1436 163.62,-1472"/>
<text text-anchor="middle" x="93" y="-1448.58" font-family="Helvetica,sans-Serif" font-size="14.00">Wandering_Idle (Init)</text>
</g>
</g>
</svg>
