<?xml version="1.0" encoding="UTF-8" standalone="no"?>
<!DOCTYPE svg PUBLIC "-//W3C//DTD SVG 1.1//EN"
 "http://www.w3.org/Graphics/SVG/1.1/DTD/svg11.dtd">
<!-- Generated by graphviz version 12.2.1 (20241206.2353)
 -->
<!-- Title: Foo Pages: 1 -->
<svg width="479pt" height="848pt"
 viewBox="0.00 0.00 479.25 848.00" xmlns="http://www.w3.org/2000/svg" xmlns:xlink="http://www.w3.org/1999/xlink">
<g id="graph0" class="graph" transform="scale(1 1) rotate(0) translate(4 844)">
<title>Foo</title>
<polygon fill="white" stroke="none" points="-4,4 -4,-844 475.25,-844 475.25,4 -4,4"/>
<g id="clust1" class="cluster">
<title>cluster_attacksensors</title>
<polygon fill="none" stroke="black" points="8,-8 8,-402 178,-402 178,-8 8,-8"/>
<text text-anchor="middle" x="93" y="-384.7" font-family="Helvetica,sans-Serif" font-size="14.00">Attack Sensors</text>
</g>
<!-- Level Once Sensor -->
<g id="node1" class="node">
<title>Level Once Sensor</title>
<polygon fill="none" stroke="black" points="28.5,-23.12 28.5,-44.88 157.5,-44.88 157.5,-23.12 28.5,-23.12"/>
<text text-anchor="start" x="31.5" y="-28.57" font-family="Helvetica,sans-Serif" font-size="14.00">Level Once Sensor &#160;</text>
</g>
<!-- RunAwaySensor -->
<g id="node2" class="node">
<title>RunAwaySensor</title>
<polygon fill="none" stroke="black" points="36,-77.12 36,-98.88 150,-98.88 150,-77.12 36,-77.12"/>
<text text-anchor="start" x="39" y="-82.58" font-family="Helvetica,sans-Serif" font-size="14.00">RunAwaySensor &#160;</text>
</g>
<!-- AttackSensor -->
<g id="node3" class="node">
<title>AttackSensor</title>
<polygon fill="none" stroke="black" points="46.12,-131.12 46.12,-152.88 139.88,-152.88 139.88,-131.12 46.12,-131.12"/>
<text text-anchor="start" x="49.12" y="-136.57" font-family="Helvetica,sans-Serif" font-size="14.00">AttackSensor &#160;</text>
</g>
<!-- DodgePredictSensor -->
<g id="node4" class="node">
<title>DodgePredictSensor</title>
<polygon fill="none" stroke="black" points="24,-204 24,-225.75 162,-225.75 162,-204 24,-204"/>
<text text-anchor="start" x="27" y="-209.45" font-family="Helvetica,sans-Serif" font-size="14.00">DodgePredictSensor &#160;</text>
<polygon fill="none" stroke="black" points="24,-182.25 24,-204 162,-204 162,-182.25 24,-182.25"/>
<text text-anchor="start" x="27" y="-188.7" font-family="Helvetica,sans-Serif" font-size="12.00" fill="#838b8b">if: rollingCondition</text>
<text text-anchor="start" x="123.75" y="-188.7" font-family="Helvetica,sans-Serif" font-size="14.00"> &#160;</text>
</g>
<!-- AttackPredictSensor -->
<g id="node5" class="node">
<title>AttackPredictSensor</title>
<polygon fill="none" stroke="black" points="25.12,-274 25.12,-295.75 160.88,-295.75 160.88,-274 25.12,-274"/>
<text text-anchor="start" x="28.12" y="-279.45" font-family="Helvetica,sans-Serif" font-size="14.00">AttackPredictSensor &#160;</text>
<polygon fill="none" stroke="black" points="25.12,-252.25 25.12,-274 160.88,-274 160.88,-252.25 25.12,-252.25"/>
<text text-anchor="start" x="28.12" y="-258.7" font-family="Helvetica,sans-Serif" font-size="12.00" fill="#838b8b">if: attackCondition</text>
<text text-anchor="start" x="123.38" y="-258.7" font-family="Helvetica,sans-Serif" font-size="14.00"> &#160;</text>
</g>
<!-- AttackRunToSensor -->
<g id="node6" class="node">
<title>AttackRunToSensor</title>
<polygon fill="none" stroke="black" points="26.62,-344 26.62,-365.75 159.38,-365.75 159.38,-344 26.62,-344"/>
<text text-anchor="start" x="29.62" y="-349.45" font-family="Helvetica,sans-Serif" font-size="14.00">AttackRunToSensor &#160;</text>
<polygon fill="none" stroke="black" points="26.62,-322.25 26.62,-344 159.38,-344 159.38,-322.25 26.62,-322.25"/>
<text text-anchor="start" x="29.62" y="-328.7" font-family="Helvetica,sans-Serif" font-size="12.00" fill="#838b8b">if: state is Engaging</text>
<text text-anchor="start" x="133.88" y="-328.7" font-family="Helvetica,sans-Serif" font-size="14.00"> &#160;</text>
</g>
<!-- AttackParrying -->
<g id="node7" class="node">
<title>AttackParrying</title>
<polygon fill="none" stroke="black" points="42.38,-579.12 42.38,-600.88 143.62,-600.88 143.62,-579.12 42.38,-579.12"/>
<text text-anchor="start" x="45.38" y="-584.58" font-family="Helvetica,sans-Serif" font-size="14.00">AttackParrying &#160;</text>
</g>
<!-- Engaging -->
<g id="node8" class="node">
<title>Engaging</title>
<polygon fill="none" stroke="black" points="301.88,-527 228.88,-527 228.88,-491 301.88,-491 301.88,-527"/>
<text text-anchor="middle" x="265.38" y="-503.57" font-family="Helvetica,sans-Serif" font-size="14.00">Engaging</text>
</g>
<!-- AttackParrying&#45;&gt;Engaging -->
<g id="edge1" class="edge">
<title>AttackParrying&#45;&gt;Engaging</title>
<path fill="none" stroke="#cdc8b1" d="M151.21,-573.72C160.32,-570.53 169.53,-566.94 178,-563 195.63,-554.81 214.05,-543.7 229.32,-533.68"/>
<polygon fill="#cdc8b1" stroke="#cdc8b1" points="231.24,-536.61 237.61,-528.14 227.35,-530.79 231.24,-536.61"/>
</g>
<!-- HurtState -->
<g id="node9" class="node">
<title>HurtState</title>
<polygon fill="none" stroke="black" points="54,-760 54,-781.75 132,-781.75 132,-760 54,-760"/>
<text text-anchor="start" x="60.75" y="-765.45" font-family="Helvetica,sans-Serif" font-size="14.00">HurtState &#160;</text>
<polygon fill="none" stroke="black" points="54,-738.25 54,-760 132,-760 132,-738.25 54,-738.25"/>
<text text-anchor="start" x="57" y="-744.7" font-family="Helvetica,sans-Serif" font-size="12.00" fill="#838b8b">0.17s: Done</text>
<text text-anchor="start" x="121.5" y="-744.7" font-family="Helvetica,sans-Serif" font-size="14.00"> &#160;</text>
</g>
<!-- PreAttack -->
<g id="node10" class="node">
<title>PreAttack</title>
<polygon fill="none" stroke="black" points="302.62,-716 228.12,-716 228.12,-680 302.62,-680 302.62,-716"/>
<text text-anchor="middle" x="265.38" y="-692.58" font-family="Helvetica,sans-Serif" font-size="14.00">PreAttack</text>
</g>
<!-- HurtState&#45;&gt;PreAttack -->
<g id="edge2" class="edge">
<title>HurtState&#45;&gt;PreAttack</title>
<path fill="none" stroke="#cdc8b1" d="M139.66,-743.39C163.59,-734.68 192.87,-724.02 217.05,-715.22"/>
<polygon fill="#cdc8b1" stroke="#cdc8b1" points="218.14,-718.55 226.34,-711.84 215.74,-711.97 218.14,-718.55"/>
</g>
<!-- Hurt_BigState -->
<g id="node11" class="node">
<title>Hurt_BigState</title>
<polygon fill="none" stroke="black" points="44.25,-687.12 44.25,-708.88 141.75,-708.88 141.75,-687.12 44.25,-687.12"/>
<text text-anchor="start" x="47.25" y="-692.58" font-family="Helvetica,sans-Serif" font-size="14.00">Hurt_BigState &#160;</text>
</g>
<!-- Hurt_BigState&#45;&gt;PreAttack -->
<g id="edge3" class="edge">
<title>Hurt_BigState&#45;&gt;PreAttack</title>
<path fill="none" stroke="#cdc8b1" d="M149.32,-698C170.94,-698 195.51,-698 216.37,-698"/>
<polygon fill="#cdc8b1" stroke="#cdc8b1" points="216.34,-701.5 226.34,-698 216.34,-694.5 216.34,-701.5"/>
</g>
<!-- JumpBack -->
<g id="node12" class="node">
<title>JumpBack</title>
<polygon fill="none" stroke="black" points="54.38,-525.12 54.38,-546.88 131.62,-546.88 131.62,-525.12 54.38,-525.12"/>
<text text-anchor="start" x="57.38" y="-530.58" font-family="Helvetica,sans-Serif" font-size="14.00">JumpBack &#160;</text>
</g>
<!-- JumpBack&#45;&gt;Engaging -->
<g id="edge4" class="edge">
<title>JumpBack&#45;&gt;Engaging</title>
<path fill="none" stroke="#cdc8b1" d="M139.21,-528.84C163.29,-525.02 192.89,-520.33 217.26,-516.47"/>
<polygon fill="#cdc8b1" stroke="#cdc8b1" points="217.58,-519.96 226.9,-514.94 216.48,-513.05 217.58,-519.96"/>
</g>
<!-- PostureBreak -->
<g id="node13" class="node">
<title>PostureBreak</title>
<polygon fill="none" stroke="black" points="45.38,-633.12 45.38,-654.88 140.62,-654.88 140.62,-633.12 45.38,-633.12"/>
<text text-anchor="start" x="48.38" y="-638.58" font-family="Helvetica,sans-Serif" font-size="14.00">PostureBreak &#160;</text>
</g>
<!-- PostureBreak&#45;&gt;PreAttack -->
<g id="edge5" class="edge">
<title>PostureBreak&#45;&gt;PreAttack</title>
<path fill="none" stroke="#cdc8b1" d="M148.38,-661.23C170.44,-668.23 195.68,-676.23 216.97,-682.98"/>
<polygon fill="#cdc8b1" stroke="#cdc8b1" points="215.68,-686.24 226.27,-685.92 217.79,-679.56 215.68,-686.24"/>
</g>
<!-- RollThrough -->
<g id="node14" class="node">
<title>RollThrough</title>
<polygon fill="none" stroke="black" points="49.5,-471.12 49.5,-492.88 136.5,-492.88 136.5,-471.12 49.5,-471.12"/>
<text text-anchor="start" x="52.5" y="-476.57" font-family="Helvetica,sans-Serif" font-size="14.00">RollThrough &#160;</text>
</g>
<!-- RollThrough&#45;&gt;Engaging -->
<g id="edge6" class="edge">
<title>RollThrough&#45;&gt;Engaging</title>
<path fill="none" stroke="#cdc8b1" d="M144.2,-489.95C167.37,-493.63 194.73,-497.96 217.48,-501.57"/>
<polygon fill="#cdc8b1" stroke="#cdc8b1" points="216.66,-504.98 227.09,-503.09 217.76,-498.07 216.66,-504.98"/>
</g>
<!-- StandUp -->
<g id="node15" class="node">
<title>StandUp</title>
<polygon fill="none" stroke="black" points="60,-417.12 60,-438.88 126,-438.88 126,-417.12 60,-417.12"/>
<text text-anchor="start" x="63" y="-422.57" font-family="Helvetica,sans-Serif" font-size="14.00">StandUp &#160;</text>
</g>
<!-- StandUp&#45;&gt;Engaging -->
<g id="edge7" class="edge">
<title>StandUp&#45;&gt;Engaging</title>
<path fill="none" stroke="#cdc8b1" d="M133.66,-438.54C147.93,-442.9 163.97,-448.48 178,-455 195.63,-463.19 214.05,-474.3 229.32,-484.32"/>
<polygon fill="#cdc8b1" stroke="#cdc8b1" points="227.35,-487.21 237.61,-489.86 231.24,-481.39 227.35,-487.21"/>
</g>
<!-- ZEnterState -->
<g id="node16" class="node">
<title>ZEnterState</title>
<text text-anchor="middle" x="265.38" y="-816.58" font-family="Helvetica,sans-Serif" font-size="14.00">ZEnterState (Init)</text>
</g>
<!-- Wandering_Idle -->
<g id="node17" class="node">
<title>Wandering_Idle</title>
<polygon fill="none" stroke="black" points="471.25,-840 360.75,-840 360.75,-804 471.25,-804 471.25,-840"/>
<text text-anchor="middle" x="416" y="-816.58" font-family="Helvetica,sans-Serif" font-size="14.00">Wandering_Idle</text>
</g>
<!-- ZEnterState&#45;&gt;Wandering_Idle -->
<g id="edge8" class="edge">
<title>ZEnterState&#45;&gt;Wandering_Idle</title>
<path fill="none" stroke="#cdc8b1" d="M324.69,-822C332.65,-822 340.87,-822 348.95,-822"/>
<polygon fill="#cdc8b1" stroke="#cdc8b1" points="348.74,-825.5 358.74,-822 348.74,-818.5 348.74,-825.5"/>
</g>
<!-- ZExitState -->
<g id="node18" class="node">
<title>ZExitState</title>
<polygon fill="none" stroke="black" points="55.12,-811.12 55.12,-832.88 130.88,-832.88 130.88,-811.12 55.12,-811.12"/>
<text text-anchor="start" x="58.12" y="-816.58" font-family="Helvetica,sans-Serif" font-size="14.00">ZExitState &#160;</text>
</g>
<!-- ZExitState&#45;&gt;ZEnterState -->
<g id="edge9" class="edge">
<title>ZExitState&#45;&gt;ZEnterState</title>
<path fill="none" stroke="#cdc8b1" d="M138.76,-822C155.91,-822 175.9,-822 194.82,-822"/>
<polygon fill="#cdc8b1" stroke="#cdc8b1" points="194.6,-825.5 204.6,-822 194.6,-818.5 194.6,-825.5"/>
</g>
</g>
</svg>
