<?xml version="1.0" encoding="UTF-8" standalone="no"?>
<!DOCTYPE svg PUBLIC "-//W3C//DTD SVG 1.1//EN"
 "http://www.w3.org/Graphics/SVG/1.1/DTD/svg11.dtd">
<!-- Generated by graphviz version 12.2.1 (20241206.2353)
 -->
<!-- Title: Foo Pages: 1 -->
<svg width="408pt" height="1106pt"
 viewBox="0.00 0.00 407.50 1106.00" xmlns="http://www.w3.org/2000/svg" xmlns:xlink="http://www.w3.org/1999/xlink">
<g id="graph0" class="graph" transform="scale(1 1) rotate(0) translate(4 1102)">
<title>Foo</title>
<polygon fill="white" stroke="none" points="-4,4 -4,-1102 403.5,-1102 403.5,4 -4,4"/>
<g id="clust1" class="cluster">
<title>cluster_attacksensors</title>
<polygon fill="none" stroke="black" points="8,-8 8,-456 391.5,-456 391.5,-8 8,-8"/>
<text text-anchor="middle" x="199.75" y="-438.7" font-family="Helvetica,sans-Serif" font-size="14.00">Attack Sensors</text>
</g>
<!-- Level Once Sensor -->
<g id="node1" class="node">
<title>Level Once Sensor</title>
<polygon fill="none" stroke="black" points="28.5,-23.12 28.5,-44.88 157.5,-44.88 157.5,-23.12 28.5,-23.12"/>
<text text-anchor="start" x="31.5" y="-28.57" font-family="Helvetica,sans-Serif" font-size="14.00">Level Once Sensor &#160;</text>
</g>
<!-- Level Once Sensor_weight -->
<g id="node2" class="node">
<title>Level Once Sensor_weight</title>
<polygon fill="none" stroke="black" stroke-dasharray="1,5" points="368.88,-52 285.88,-52 285.88,-16 368.88,-16 368.88,-52"/>
<text text-anchor="start" x="295.88" y="-28.57" font-family="Helvetica,sans-Serif" font-size="14.00">1 Attack1 &#160;</text>
</g>
<!-- Level Once Sensor&#45;&gt;Level Once Sensor_weight -->
<g id="edge1" class="edge">
<title>Level Once Sensor&#45;&gt;Level Once Sensor_weight</title>
<path fill="none" stroke="#458b74" d="M165.3,-34C200.47,-34 242.13,-34 274.26,-34"/>
<polygon fill="#458b74" stroke="#458b74" points="274.13,-37.5 284.13,-34 274.13,-30.5 274.13,-37.5"/>
<text text-anchor="middle" x="220.62" y="-36.45" font-family="Helvetica,sans-Serif" font-size="14.00" fill="#458b74">Weight</text>
</g>
<!-- RunAwaySensor -->
<g id="node3" class="node">
<title>RunAwaySensor</title>
<polygon fill="none" stroke="black" points="36,-77.12 36,-98.88 150,-98.88 150,-77.12 36,-77.12"/>
<text text-anchor="start" x="39" y="-82.58" font-family="Helvetica,sans-Serif" font-size="14.00">RunAwaySensor &#160;</text>
</g>
<!-- AttackSensor -->
<g id="node4" class="node">
<title>AttackSensor</title>
<polygon fill="none" stroke="black" points="46.12,-131.12 46.12,-152.88 139.88,-152.88 139.88,-131.12 46.12,-131.12"/>
<text text-anchor="start" x="49.12" y="-136.57" font-family="Helvetica,sans-Serif" font-size="14.00">AttackSensor &#160;</text>
</g>
<!-- AttackSensor_weight -->
<g id="node5" class="node">
<title>AttackSensor_weight</title>
<polygon fill="none" stroke="black" stroke-dasharray="1,5" points="383.5,-160 271.25,-160 271.25,-124 383.5,-124 383.5,-160"/>
<text text-anchor="start" x="281.25" y="-136.57" font-family="Helvetica,sans-Serif" font-size="14.00">1 RollThrough &#160;</text>
</g>
<!-- AttackSensor&#45;&gt;AttackSensor_weight -->
<g id="edge2" class="edge">
<title>AttackSensor&#45;&gt;AttackSensor_weight</title>
<path fill="none" stroke="#458b74" d="M147.6,-142C180.98,-142 224.19,-142 259.76,-142"/>
<polygon fill="#458b74" stroke="#458b74" points="259.51,-145.5 269.51,-142 259.51,-138.5 259.51,-145.5"/>
<text text-anchor="middle" x="220.62" y="-144.45" font-family="Helvetica,sans-Serif" font-size="14.00" fill="#458b74">Weight</text>
</g>
<!-- DodgePredictSensor -->
<g id="node6" class="node">
<title>DodgePredictSensor</title>
<polygon fill="none" stroke="black" points="24,-204 24,-225.75 162,-225.75 162,-204 24,-204"/>
<text text-anchor="start" x="27" y="-209.45" font-family="Helvetica,sans-Serif" font-size="14.00">DodgePredictSensor &#160;</text>
<polygon fill="none" stroke="black" points="24,-182.25 24,-204 162,-204 162,-182.25 24,-182.25"/>
<text text-anchor="start" x="27" y="-188.7" font-family="Helvetica,sans-Serif" font-size="12.00" fill="#838b8b">if: rollingCondition</text>
<text text-anchor="start" x="123.75" y="-188.7" font-family="Helvetica,sans-Serif" font-size="14.00"> &#160;</text>
</g>
<!-- AttackPredictSensor -->
<g id="node7" class="node">
<title>AttackPredictSensor</title>
<polygon fill="none" stroke="black" points="25.12,-274 25.12,-295.75 160.88,-295.75 160.88,-274 25.12,-274"/>
<text text-anchor="start" x="28.12" y="-279.45" font-family="Helvetica,sans-Serif" font-size="14.00">AttackPredictSensor &#160;</text>
<polygon fill="none" stroke="black" points="25.12,-252.25 25.12,-274 160.88,-274 160.88,-252.25 25.12,-252.25"/>
<text text-anchor="start" x="28.12" y="-258.7" font-family="Helvetica,sans-Serif" font-size="12.00" fill="#838b8b">if: attackCondition</text>
<text text-anchor="start" x="123.38" y="-258.7" font-family="Helvetica,sans-Serif" font-size="14.00"> &#160;</text>
</g>
<!-- AttackRunToSensor -->
<g id="node8" class="node">
<title>AttackRunToSensor</title>
<polygon fill="none" stroke="black" points="26.62,-344 26.62,-365.75 159.38,-365.75 159.38,-344 26.62,-344"/>
<text text-anchor="start" x="29.62" y="-349.45" font-family="Helvetica,sans-Serif" font-size="14.00">AttackRunToSensor &#160;</text>
<polygon fill="none" stroke="black" points="26.62,-322.25 26.62,-344 159.38,-344 159.38,-322.25 26.62,-322.25"/>
<text text-anchor="start" x="29.62" y="-328.7" font-family="Helvetica,sans-Serif" font-size="12.00" fill="#838b8b">if: state is Engaging</text>
<text text-anchor="start" x="133.88" y="-328.7" font-family="Helvetica,sans-Serif" font-size="14.00"> &#160;</text>
</g>
<!-- ShootSensor -->
<g id="node9" class="node">
<title>ShootSensor</title>
<polygon fill="none" stroke="black" points="47.25,-395.12 47.25,-416.88 138.75,-416.88 138.75,-395.12 47.25,-395.12"/>
<text text-anchor="start" x="50.25" y="-400.57" font-family="Helvetica,sans-Serif" font-size="14.00">ShootSensor &#160;</text>
</g>
<!-- ShootSensor_linked -->
<g id="node10" class="node">
<title>ShootSensor_linked</title>
<polygon fill="none" stroke="black" stroke-dasharray="1,5" points="354.38,-424 300.38,-424 300.38,-388 354.38,-388 354.38,-424"/>
<text text-anchor="start" x="306" y="-400.57" font-family="Helvetica,sans-Serif" font-size="14.00">Shoot &#160;</text>
</g>
<!-- ShootSensor&#45;&gt;ShootSensor_linked -->
<g id="edge3" class="edge">
<title>ShootSensor&#45;&gt;ShootSensor_linked</title>
<path fill="none" stroke="#66cdaa" d="M146.73,-406C189.96,-406 250.1,-406 288.63,-406"/>
<polygon fill="#66cdaa" stroke="#66cdaa" points="288.58,-409.5 298.58,-406 288.58,-402.5 288.58,-409.5"/>
<text text-anchor="middle" x="220.62" y="-408.45" font-family="Helvetica,sans-Serif" font-size="14.00" fill="#66cdaa">QueueEnd</text>
</g>
<!-- Shoot -->
<g id="node11" class="node">
<title>Shoot</title>
<polygon fill="none" stroke="black" points="34.12,-752.12 34.12,-773.88 151.88,-773.88 151.88,-752.12 34.12,-752.12"/>
<text text-anchor="start" x="71.62" y="-757.58" font-family="Helvetica,sans-Serif" font-size="14.00">Shoot &#160;</text>
<polygon fill="none" stroke="black" points="34.12,-708.12 34.12,-752.12 151.88,-752.12 151.88,-708.12 34.12,-708.12"/>
<text text-anchor="start" x="37.12" y="-738.73" font-family="Helvetica,sans-Serif" font-size="12.00" fill="#838b8b">0.00s: CheckFacing</text>
<text text-anchor="start" x="37.12" y="-726.73" font-family="Helvetica,sans-Serif" font-size="12.00" fill="#838b8b">1.83s: LinkNextMove</text>
<text text-anchor="start" x="37.12" y="-712.83" font-family="Helvetica,sans-Serif" font-size="12.00" fill="#838b8b">2.00s: Done</text>
<text text-anchor="start" x="101.62" y="-712.83" font-family="Helvetica,sans-Serif" font-size="14.00"> &#160;</text>
</g>
<!-- PreAttack -->
<g id="node12" class="node">
<title>PreAttack</title>
<polygon fill="none" stroke="black" points="364.62,-633 290.12,-633 290.12,-597 364.62,-597 364.62,-633"/>
<text text-anchor="middle" x="327.38" y="-609.58" font-family="Helvetica,sans-Serif" font-size="14.00">PreAttack</text>
</g>
<!-- Shoot&#45;&gt;PreAttack -->
<g id="edge4" class="edge">
<title>Shoot&#45;&gt;PreAttack</title>
<path fill="none" stroke="#cdc8b1" d="M159.66,-705.4C198.99,-684.07 247.92,-657.54 282.57,-638.75"/>
<polygon fill="#cdc8b1" stroke="#cdc8b1" points="283.94,-641.99 291.06,-634.15 280.6,-635.84 283.94,-641.99"/>
</g>
<!-- Triple Shot -->
<g id="node13" class="node">
<title>Triple Shot</title>
<polygon fill="none" stroke="black" points="36.75,-1018.12 36.75,-1039.88 149.25,-1039.88 149.25,-1018.12 36.75,-1018.12"/>
<text text-anchor="start" x="56.62" y="-1023.58" font-family="Helvetica,sans-Serif" font-size="14.00">Triple Shot &#160;</text>
<polygon fill="none" stroke="black" points="36.75,-950.12 36.75,-1018.12 149.25,-1018.12 149.25,-950.12 36.75,-950.12"/>
<text text-anchor="start" x="39.75" y="-1004.73" font-family="Helvetica,sans-Serif" font-size="12.00" fill="#838b8b">0.00s: CheckFacing</text>
<text text-anchor="start" x="39.75" y="-992.73" font-family="Helvetica,sans-Serif" font-size="12.00" fill="#838b8b">0.62s: Shoot</text>
<text text-anchor="start" x="39.75" y="-980.73" font-family="Helvetica,sans-Serif" font-size="12.00" fill="#838b8b">1.32s: Shoot</text>
<text text-anchor="start" x="39.75" y="-968.73" font-family="Helvetica,sans-Serif" font-size="12.00" fill="#838b8b">1.95s: Shoot</text>
<text text-anchor="start" x="39.75" y="-954.83" font-family="Helvetica,sans-Serif" font-size="12.00" fill="#838b8b">2.78s: Done</text>
<text text-anchor="start" x="104.25" y="-954.83" font-family="Helvetica,sans-Serif" font-size="14.00"> &#160;</text>
</g>
<!-- Engaging -->
<g id="node14" class="node">
<title>Engaging</title>
<polygon fill="none" stroke="black" points="363.88,-920 290.88,-920 290.88,-884 363.88,-884 363.88,-920"/>
<text text-anchor="middle" x="327.38" y="-896.58" font-family="Helvetica,sans-Serif" font-size="14.00">Engaging</text>
</g>
<!-- Triple Shot&#45;&gt;Engaging -->
<g id="edge5" class="edge">
<title>Triple Shot&#45;&gt;Engaging</title>
<path fill="none" stroke="#cdc8b1" d="M157.19,-969.71C196.04,-954.16 244.96,-934.58 280.19,-920.48"/>
<polygon fill="#cdc8b1" stroke="#cdc8b1" points="281.27,-923.82 289.25,-916.86 278.66,-917.32 281.27,-923.82"/>
</g>
<!-- AttackParrying -->
<g id="node15" class="node">
<title>AttackParrying</title>
<polygon fill="none" stroke="black" points="42.38,-902 42.38,-923.75 143.62,-923.75 143.62,-902 42.38,-902"/>
<text text-anchor="start" x="45.38" y="-907.45" font-family="Helvetica,sans-Serif" font-size="14.00">AttackParrying &#160;</text>
<polygon fill="none" stroke="black" points="42.38,-880.25 42.38,-902 143.62,-902 143.62,-880.25 42.38,-880.25"/>
<text text-anchor="start" x="45.38" y="-886.7" font-family="Helvetica,sans-Serif" font-size="12.00" fill="#838b8b">0.67s: Done</text>
<text text-anchor="start" x="109.88" y="-886.7" font-family="Helvetica,sans-Serif" font-size="14.00"> &#160;</text>
</g>
<!-- AttackParrying&#45;&gt;Engaging -->
<g id="edge6" class="edge">
<title>AttackParrying&#45;&gt;Engaging</title>
<path fill="none" stroke="#cdc8b1" d="M151.44,-902C190.73,-902 242.19,-902 279.11,-902"/>
<polygon fill="#cdc8b1" stroke="#cdc8b1" points="279.04,-905.5 289.04,-902 279.04,-898.5 279.04,-905.5"/>
</g>
<!-- HurtState -->
<g id="node16" class="node">
<title>HurtState</title>
<polygon fill="none" stroke="black" points="34.5,-660.12 34.5,-681.88 151.5,-681.88 151.5,-660.12 34.5,-660.12"/>
<text text-anchor="start" x="60.75" y="-665.58" font-family="Helvetica,sans-Serif" font-size="14.00">HurtState &#160;</text>
<polygon fill="none" stroke="black" points="34.5,-628.12 34.5,-660.12 151.5,-660.12 151.5,-628.12 34.5,-628.12"/>
<text text-anchor="start" x="37.5" y="-646.73" font-family="Helvetica,sans-Serif" font-size="12.00" fill="#838b8b">0.00s: EnableGravity</text>
<text text-anchor="start" x="37.5" y="-632.83" font-family="Helvetica,sans-Serif" font-size="12.00" fill="#838b8b">0.17s: Done</text>
<text text-anchor="start" x="102" y="-632.83" font-family="Helvetica,sans-Serif" font-size="14.00"> &#160;</text>
</g>
<!-- HurtState&#45;&gt;PreAttack -->
<g id="edge7" class="edge">
<title>HurtState&#45;&gt;PreAttack</title>
<path fill="none" stroke="#cdc8b1" d="M159.35,-643.75C197.22,-637.23 244.06,-629.17 278.5,-623.24"/>
<polygon fill="#cdc8b1" stroke="#cdc8b1" points="278.92,-626.72 288.18,-621.58 277.73,-619.82 278.92,-626.72"/>
</g>
<!-- Hurt_BigState -->
<g id="node17" class="node">
<title>Hurt_BigState</title>
<polygon fill="none" stroke="black" points="34.5,-580.12 34.5,-601.88 151.5,-601.88 151.5,-580.12 34.5,-580.12"/>
<text text-anchor="start" x="47.25" y="-585.58" font-family="Helvetica,sans-Serif" font-size="14.00">Hurt_BigState &#160;</text>
<polygon fill="none" stroke="black" points="34.5,-548.12 34.5,-580.12 151.5,-580.12 151.5,-548.12 34.5,-548.12"/>
<text text-anchor="start" x="37.5" y="-566.73" font-family="Helvetica,sans-Serif" font-size="12.00" fill="#838b8b">0.00s: EnableGravity</text>
<text text-anchor="start" x="37.5" y="-552.83" font-family="Helvetica,sans-Serif" font-size="12.00" fill="#838b8b">1.00s: Done</text>
<text text-anchor="start" x="102" y="-552.83" font-family="Helvetica,sans-Serif" font-size="14.00"> &#160;</text>
</g>
<!-- Hurt_BigState&#45;&gt;PreAttack -->
<g id="edge8" class="edge">
<title>Hurt_BigState&#45;&gt;PreAttack</title>
<path fill="none" stroke="#cdc8b1" d="M159.35,-586.25C197.22,-592.77 244.06,-600.83 278.5,-606.76"/>
<polygon fill="#cdc8b1" stroke="#cdc8b1" points="277.73,-610.18 288.18,-608.42 278.92,-603.28 277.73,-610.18"/>
</g>
<!-- PostureBreak -->
<g id="node18" class="node">
<title>PostureBreak</title>
<polygon fill="none" stroke="black" points="34.5,-500.12 34.5,-521.88 151.5,-521.88 151.5,-500.12 34.5,-500.12"/>
<text text-anchor="start" x="48.38" y="-505.57" font-family="Helvetica,sans-Serif" font-size="14.00">PostureBreak &#160;</text>
<polygon fill="none" stroke="black" points="34.5,-468.12 34.5,-500.12 151.5,-500.12 151.5,-468.12 34.5,-468.12"/>
<text text-anchor="start" x="37.5" y="-486.73" font-family="Helvetica,sans-Serif" font-size="12.00" fill="#838b8b">0.00s: EnableGravity</text>
<text text-anchor="start" x="37.5" y="-472.83" font-family="Helvetica,sans-Serif" font-size="12.00" fill="#838b8b">3.50s: Done</text>
<text text-anchor="start" x="102" y="-472.83" font-family="Helvetica,sans-Serif" font-size="14.00"> &#160;</text>
</g>
<!-- PostureBreak&#45;&gt;PreAttack -->
<g id="edge9" class="edge">
<title>PostureBreak&#45;&gt;PreAttack</title>
<path fill="none" stroke="#cdc8b1" d="M153.54,-525.75C193.24,-546.25 244.63,-572.78 281.02,-591.58"/>
<polygon fill="#cdc8b1" stroke="#cdc8b1" points="279.03,-594.49 289.52,-595.97 282.24,-588.27 279.03,-594.49"/>
</g>
<!-- RollThrough -->
<g id="node19" class="node">
<title>RollThrough</title>
<polygon fill="none" stroke="black" points="34.12,-832.12 34.12,-853.88 151.88,-853.88 151.88,-832.12 34.12,-832.12"/>
<text text-anchor="start" x="52.5" y="-837.58" font-family="Helvetica,sans-Serif" font-size="14.00">RollThrough &#160;</text>
<polygon fill="none" stroke="black" points="34.12,-800.12 34.12,-832.12 151.88,-832.12 151.88,-800.12 34.12,-800.12"/>
<text text-anchor="start" x="37.12" y="-818.73" font-family="Helvetica,sans-Serif" font-size="12.00" fill="#838b8b">0.67s: LinkNextMove</text>
<text text-anchor="start" x="37.12" y="-804.83" font-family="Helvetica,sans-Serif" font-size="12.00" fill="#838b8b">0.68s: Done</text>
<text text-anchor="start" x="101.62" y="-804.83" font-family="Helvetica,sans-Serif" font-size="14.00"> &#160;</text>
</g>
<!-- RollThrough&#45;&gt;Engaging -->
<g id="edge10" class="edge">
<title>RollThrough&#45;&gt;Engaging</title>
<path fill="none" stroke="#cdc8b1" d="M159.66,-848.19C197.93,-860.54 245.28,-875.83 279.73,-886.94"/>
<polygon fill="#cdc8b1" stroke="#cdc8b1" points="278.4,-890.19 288.99,-889.93 280.55,-883.53 278.4,-890.19"/>
</g>
<!-- RollThrough_weight -->
<g id="node20" class="node">
<title>RollThrough_weight</title>
<polygon fill="none" stroke="black" stroke-dasharray="1,5" points="364.38,-845 290.38,-845 290.38,-809 364.38,-809 364.38,-845"/>
<text text-anchor="start" x="300.38" y="-821.58" font-family="Helvetica,sans-Serif" font-size="14.00">1 Shoot &#160;</text>
</g>
<!-- RollThrough&#45;&gt;RollThrough_weight -->
<g id="edge11" class="edge">
<title>RollThrough&#45;&gt;RollThrough_weight</title>
<path fill="none" stroke="#458b74" d="M159.66,-827C197.64,-827 244.57,-827 278.95,-827"/>
<polygon fill="#458b74" stroke="#458b74" points="278.59,-830.5 288.59,-827 278.59,-823.5 278.59,-830.5"/>
<text text-anchor="middle" x="220.62" y="-829.45" font-family="Helvetica,sans-Serif" font-size="14.00" fill="#458b74">Weight</text>
</g>
<!-- Wandering_Idle -->
<g id="node21" class="node">
<title>Wandering_Idle</title>
<polygon fill="none" stroke="black" points="163.62,-1098 22.38,-1098 22.38,-1062 163.62,-1062 163.62,-1098"/>
<text text-anchor="middle" x="93" y="-1074.58" font-family="Helvetica,sans-Serif" font-size="14.00">Wandering_Idle (Init)</text>
</g>
</g>
</svg>
