<?xml version="1.0" encoding="UTF-8" standalone="no"?>
<!DOCTYPE svg PUBLIC "-//W3C//DTD SVG 1.1//EN"
 "http://www.w3.org/Graphics/SVG/1.1/DTD/svg11.dtd">
<!-- Generated by graphviz version 12.2.1 (20241206.2353)
 -->
<!-- Title: Foo Pages: 1 -->
<svg width="439pt" height="1106pt"
 viewBox="0.00 0.00 439.00 1105.88" xmlns="http://www.w3.org/2000/svg" xmlns:xlink="http://www.w3.org/1999/xlink">
<g id="graph0" class="graph" transform="scale(1 1) rotate(0) translate(4 1101.88)">
<title>Foo</title>
<polygon fill="white" stroke="none" points="-4,4 -4,-1101.88 435,-1101.88 435,4 -4,4"/>
<g id="clust1" class="cluster">
<title>cluster_attacksensors</title>
<polygon fill="none" stroke="black" points="8,-599.88 8,-1089.88 423,-1089.88 423,-599.88 8,-599.88"/>
<text text-anchor="middle" x="215.5" y="-1072.58" font-family="Helvetica,sans-Serif" font-size="14.00">Attack Sensors</text>
</g>
<!-- UpDownHammer -->
<g id="node1" class="node">
<title>UpDownHammer</title>
<polygon fill="none" stroke="black" points="33,-372 33,-393.75 153,-393.75 153,-372 33,-372"/>
<text text-anchor="start" x="36.75" y="-377.45" font-family="Helvetica,sans-Serif" font-size="14.00">UpDownHammer &#160;</text>
<polygon fill="none" stroke="black" points="33,-316 33,-372 153,-372 153,-316 33,-316"/>
<text text-anchor="start" x="36" y="-358.6" font-family="Helvetica,sans-Serif" font-size="12.00" fill="#838b8b">1.52s: Evaluate</text>
<text text-anchor="start" x="36" y="-346.6" font-family="Helvetica,sans-Serif" font-size="12.00" fill="#838b8b">2.57s: Evaluate</text>
<text text-anchor="start" x="36" y="-334.6" font-family="Helvetica,sans-Serif" font-size="12.00" fill="#838b8b">3.22s: ResetEvaluate</text>
<text text-anchor="start" x="36" y="-320.7" font-family="Helvetica,sans-Serif" font-size="12.00" fill="#838b8b">3.62s: Done</text>
<text text-anchor="start" x="100.5" y="-320.7" font-family="Helvetica,sans-Serif" font-size="14.00"> &#160;</text>
</g>
<!-- Engaging -->
<g id="node2" class="node">
<title>Engaging</title>
<polygon fill="none" stroke="black" points="379.62,-225.88 306.62,-225.88 306.62,-189.88 379.62,-189.88 379.62,-225.88"/>
<text text-anchor="middle" x="343.12" y="-202.45" font-family="Helvetica,sans-Serif" font-size="14.00">Engaging</text>
</g>
<!-- UpDownHammer&#45;&gt;Engaging -->
<g id="edge1" class="edge">
<title>UpDownHammer&#45;&gt;Engaging</title>
<path fill="none" stroke="#cdc8b1" d="M160.82,-315.29C205.62,-288.75 263.17,-254.65 301.28,-232.07"/>
<polygon fill="#cdc8b1" stroke="#cdc8b1" points="302.89,-235.19 309.71,-227.08 299.32,-229.17 302.89,-235.19"/>
</g>
<!-- Danger Chase -->
<g id="node3" class="node">
<title>Danger Chase</title>
<polygon fill="none" stroke="black" points="36.75,-268 36.75,-289.75 149.25,-289.75 149.25,-268 36.75,-268"/>
<text text-anchor="start" x="45.75" y="-273.45" font-family="Helvetica,sans-Serif" font-size="14.00">Danger Chase &#160;</text>
<polygon fill="none" stroke="black" points="36.75,-224 36.75,-268 149.25,-268 149.25,-224 36.75,-224"/>
<text text-anchor="start" x="39.75" y="-254.6" font-family="Helvetica,sans-Serif" font-size="12.00" fill="#838b8b">2.90s: CheckFacing</text>
<text text-anchor="start" x="39.75" y="-242.6" font-family="Helvetica,sans-Serif" font-size="12.00" fill="#838b8b">4.08s: CheckFacing</text>
<text text-anchor="start" x="39.75" y="-228.7" font-family="Helvetica,sans-Serif" font-size="12.00" fill="#838b8b">5.92s: Done</text>
<text text-anchor="start" x="104.25" y="-228.7" font-family="Helvetica,sans-Serif" font-size="14.00"> &#160;</text>
</g>
<!-- Danger Chase&#45;&gt;Engaging -->
<g id="edge2" class="edge">
<title>Danger Chase&#45;&gt;Engaging</title>
<path fill="none" stroke="#cdc8b1" d="M156.93,-244.45C199.93,-235.96 255.97,-224.89 295.1,-217.16"/>
<polygon fill="#cdc8b1" stroke="#cdc8b1" points="295.55,-220.64 304.68,-215.27 294.19,-213.77 295.55,-220.64"/>
</g>
<!-- Jump Danger -->
<g id="node4" class="node">
<title>Jump Danger</title>
<polygon fill="none" stroke="black" points="33,-176 33,-197.75 153,-197.75 153,-176 33,-176"/>
<text text-anchor="start" x="48.38" y="-181.45" font-family="Helvetica,sans-Serif" font-size="14.00">Jump Danger &#160;</text>
<polygon fill="none" stroke="black" points="33,-120 33,-176 153,-176 153,-120 33,-120"/>
<text text-anchor="start" x="36" y="-162.6" font-family="Helvetica,sans-Serif" font-size="12.00" fill="#838b8b">1.50s: Evaluate</text>
<text text-anchor="start" x="36" y="-150.6" font-family="Helvetica,sans-Serif" font-size="12.00" fill="#838b8b">2.22s: Shoot</text>
<text text-anchor="start" x="36" y="-138.6" font-family="Helvetica,sans-Serif" font-size="12.00" fill="#838b8b">2.28s: ResetEvaluate</text>
<text text-anchor="start" x="36" y="-124.7" font-family="Helvetica,sans-Serif" font-size="12.00" fill="#838b8b">2.67s: Done</text>
<text text-anchor="start" x="100.5" y="-124.7" font-family="Helvetica,sans-Serif" font-size="14.00"> &#160;</text>
</g>
<!-- Jump Danger&#45;&gt;Engaging -->
<g id="edge3" class="edge">
<title>Jump Danger&#45;&gt;Engaging</title>
<path fill="none" stroke="#cdc8b1" d="M160.82,-172.07C203.23,-180.44 257.06,-191.08 295.01,-198.57"/>
<polygon fill="#cdc8b1" stroke="#cdc8b1" points="294.28,-201.99 304.77,-200.5 295.64,-195.13 294.28,-201.99"/>
</g>
<!-- SwingHammer -->
<g id="node5" class="node">
<title>SwingHammer</title>
<polygon fill="none" stroke="black" points="33,-72 33,-93.75 153,-93.75 153,-72 33,-72"/>
<text text-anchor="start" x="44.25" y="-77.45" font-family="Helvetica,sans-Serif" font-size="14.00">SwingHammer &#160;</text>
<polygon fill="none" stroke="black" points="33,-4 33,-72 153,-72 153,-4 33,-4"/>
<text text-anchor="start" x="36" y="-58.6" font-family="Helvetica,sans-Serif" font-size="12.00" fill="#838b8b">0.97s: Evaluate</text>
<text text-anchor="start" x="36" y="-46.6" font-family="Helvetica,sans-Serif" font-size="12.00" fill="#838b8b">1.25s: ResetEvaluate</text>
<text text-anchor="start" x="36" y="-34.6" font-family="Helvetica,sans-Serif" font-size="12.00" fill="#838b8b">1.37s: Evaluate</text>
<text text-anchor="start" x="36" y="-22.6" font-family="Helvetica,sans-Serif" font-size="12.00" fill="#838b8b">1.68s: ResetEvaluate</text>
<text text-anchor="start" x="36" y="-8.7" font-family="Helvetica,sans-Serif" font-size="12.00" fill="#838b8b">2.92s: Done</text>
<text text-anchor="start" x="100.5" y="-8.7" font-family="Helvetica,sans-Serif" font-size="14.00"> &#160;</text>
</g>
<!-- SwingHammer&#45;&gt;Engaging -->
<g id="edge4" class="edge">
<title>SwingHammer&#45;&gt;Engaging</title>
<path fill="none" stroke="#cdc8b1" d="M160.82,-91.69C206.54,-120.99 265.55,-158.8 303.61,-183.2"/>
<polygon fill="#cdc8b1" stroke="#cdc8b1" points="301.71,-186.13 312.02,-188.58 305.49,-180.24 301.71,-186.13"/>
</g>
<!-- HurtState -->
<g id="node6" class="node">
<title>HurtState</title>
<polygon fill="none" stroke="black" points="54,-511.88 54,-533.62 132,-533.62 132,-511.88 54,-511.88"/>
<text text-anchor="start" x="60.75" y="-517.33" font-family="Helvetica,sans-Serif" font-size="14.00">HurtState &#160;</text>
<polygon fill="none" stroke="black" points="54,-490.12 54,-511.88 132,-511.88 132,-490.12 54,-490.12"/>
<text text-anchor="start" x="57" y="-496.57" font-family="Helvetica,sans-Serif" font-size="12.00" fill="#838b8b">0.17s: Done</text>
<text text-anchor="start" x="121.5" y="-496.57" font-family="Helvetica,sans-Serif" font-size="14.00"> &#160;</text>
</g>
<!-- PreAttack -->
<g id="node7" class="node">
<title>PreAttack</title>
<polygon fill="none" stroke="black" points="380.38,-494.88 305.88,-494.88 305.88,-458.88 380.38,-458.88 380.38,-494.88"/>
<text text-anchor="middle" x="343.12" y="-471.45" font-family="Helvetica,sans-Serif" font-size="14.00">PreAttack</text>
</g>
<!-- HurtState&#45;&gt;PreAttack -->
<g id="edge5" class="edge">
<title>HurtState&#45;&gt;PreAttack</title>
<path fill="none" stroke="#cdc8b1" d="M139.8,-505.41C183.72,-499.22 249.77,-489.9 294.35,-483.61"/>
<polygon fill="#cdc8b1" stroke="#cdc8b1" points="294.56,-487.12 303.97,-482.26 293.58,-480.19 294.56,-487.12"/>
</g>
<!-- Hurt_BigState -->
<g id="node8" class="node">
<title>Hurt_BigState</title>
<polygon fill="none" stroke="black" points="44.25,-441.88 44.25,-463.62 141.75,-463.62 141.75,-441.88 44.25,-441.88"/>
<text text-anchor="start" x="47.25" y="-447.32" font-family="Helvetica,sans-Serif" font-size="14.00">Hurt_BigState &#160;</text>
<polygon fill="none" stroke="black" points="44.25,-420.12 44.25,-441.88 141.75,-441.88 141.75,-420.12 44.25,-420.12"/>
<text text-anchor="start" x="47.25" y="-426.57" font-family="Helvetica,sans-Serif" font-size="12.00" fill="#838b8b">0.58s: Done</text>
<text text-anchor="start" x="111.75" y="-426.57" font-family="Helvetica,sans-Serif" font-size="14.00"> &#160;</text>
</g>
<!-- Hurt_BigState&#45;&gt;PreAttack -->
<g id="edge6" class="edge">
<title>Hurt_BigState&#45;&gt;PreAttack</title>
<path fill="none" stroke="#cdc8b1" d="M149.68,-449.73C193.17,-455.86 252.97,-464.3 294.31,-470.13"/>
<polygon fill="#cdc8b1" stroke="#cdc8b1" points="293.56,-473.56 303.96,-471.49 294.54,-466.63 293.56,-473.56"/>
</g>
<!-- Wandering_Idle -->
<g id="node9" class="node">
<title>Wandering_Idle</title>
<polygon fill="none" stroke="black" points="163.62,-591.88 22.38,-591.88 22.38,-555.88 163.62,-555.88 163.62,-591.88"/>
<text text-anchor="middle" x="93" y="-568.45" font-family="Helvetica,sans-Serif" font-size="14.00">Wandering_Idle (Init)</text>
</g>
<!-- Level Once Sensor -->
<g id="node10" class="node">
<title>Level Once Sensor</title>
<polygon fill="none" stroke="black" points="158.75,-655.88 27.25,-655.88 27.25,-619.88 158.75,-619.88 158.75,-655.88"/>
<text text-anchor="middle" x="93" y="-632.45" font-family="Helvetica,sans-Serif" font-size="14.00">Level Once Sensor</text>
</g>
<!-- Level Once Sensor_linked -->
<g id="node11" class="node">
<title>Level Once Sensor_linked</title>
<polygon fill="none" stroke="black" stroke-dasharray="1,5" points="404.98,-643.88 281.27,-643.88 281.27,-607.88 404.98,-607.88 404.98,-643.88"/>
<text text-anchor="start" x="286.88" y="-620.45" font-family="Helvetica,sans-Serif" font-size="14.00">UpDownHammer &#160;</text>
</g>
<!-- Level Once Sensor&#45;&gt;Level Once Sensor_linked -->
<g id="edge7" class="edge">
<title>Level Once Sensor&#45;&gt;Level Once Sensor_linked</title>
<path fill="none" stroke="#66cdaa" d="M159.19,-634.72C193.14,-633.08 234.74,-631.07 269.69,-629.38"/>
<polygon fill="#66cdaa" stroke="#66cdaa" points="269.45,-632.89 279.27,-628.91 269.11,-625.9 269.45,-632.89"/>
<text text-anchor="middle" x="220.62" y="-635.75" font-family="Helvetica,sans-Serif" font-size="14.00" fill="#66cdaa">QueueEnd</text>
</g>
<!-- Level Once Sensor_mustuse -->
<g id="node12" class="node">
<title>Level Once Sensor_mustuse</title>
<polygon fill="none" stroke="black" stroke-dasharray="1,5" points="415,-697.88 271.25,-697.88 271.25,-661.88 415,-661.88 415,-697.88"/>
<text text-anchor="start" x="281.25" y="-674.45" font-family="Helvetica,sans-Serif" font-size="14.00">1 UpDownHammer &#160;</text>
</g>
<!-- Level Once Sensor&#45;&gt;Level Once Sensor_mustuse -->
<g id="edge8" class="edge">
<title>Level Once Sensor&#45;&gt;Level Once Sensor_mustuse</title>
<path fill="none" stroke="#458b74" d="M159.19,-648.91C189.89,-654.11 226.85,-660.36 259.48,-665.89"/>
<polygon fill="#458b74" stroke="#458b74" points="258.89,-669.34 269.34,-667.55 260.06,-662.43 258.89,-669.34"/>
<text text-anchor="middle" x="220.62" y="-666.32" font-family="Helvetica,sans-Serif" font-size="14.00" fill="#458b74">Weight</text>
</g>
<!-- RunAwaySensor -->
<g id="node13" class="node">
<title>RunAwaySensor</title>
<polygon fill="none" stroke="black" points="151.25,-729.88 34.75,-729.88 34.75,-693.88 151.25,-693.88 151.25,-729.88"/>
<text text-anchor="middle" x="93" y="-706.45" font-family="Helvetica,sans-Serif" font-size="14.00">RunAwaySensor</text>
</g>
<!-- AttackSensor -->
<g id="node14" class="node">
<title>AttackSensor</title>
<polygon fill="none" stroke="black" points="141.12,-793.88 44.88,-793.88 44.88,-757.88 141.12,-757.88 141.12,-793.88"/>
<text text-anchor="middle" x="93" y="-770.45" font-family="Helvetica,sans-Serif" font-size="14.00">AttackSensor</text>
</g>
<!-- AttackSensor_linked -->
<g id="node15" class="node">
<title>AttackSensor_linked</title>
<polygon fill="none" stroke="black" stroke-dasharray="1,5" points="404.98,-841.73 281.27,-841.73 281.27,-716.02 404.98,-716.02 404.98,-841.73"/>
<text text-anchor="start" x="286.88" y="-822.83" font-family="Helvetica,sans-Serif" font-size="14.00">UpDownHammer &#160;</text>
<text text-anchor="start" x="295.88" y="-803.08" font-family="Helvetica,sans-Serif" font-size="14.00">Danger Chase &#160;</text>
<text text-anchor="start" x="298.5" y="-783.33" font-family="Helvetica,sans-Serif" font-size="14.00">Jump Danger &#160;</text>
<text text-anchor="start" x="294.38" y="-763.58" font-family="Helvetica,sans-Serif" font-size="14.00">SwingHammer &#160;</text>
<text text-anchor="start" x="286.88" y="-743.83" font-family="Helvetica,sans-Serif" font-size="14.00">UpDownHammer &#160;</text>
<text text-anchor="start" x="294.38" y="-724.08" font-family="Helvetica,sans-Serif" font-size="14.00">SwingHammer &#160;</text>
</g>
<!-- AttackSensor&#45;&gt;AttackSensor_linked -->
<g id="edge9" class="edge">
<title>AttackSensor&#45;&gt;AttackSensor_linked</title>
<path fill="none" stroke="#66cdaa" d="M141.55,-776.45C177.82,-776.89 228.41,-777.5 269.7,-778"/>
<polygon fill="#66cdaa" stroke="#66cdaa" points="269.53,-781.5 279.57,-778.12 269.62,-774.5 269.53,-781.5"/>
<text text-anchor="middle" x="220.62" y="-780.18" font-family="Helvetica,sans-Serif" font-size="14.00" fill="#66cdaa">QueueEnd</text>
</g>
<!-- DodgePredictSensor -->
<g id="node16" class="node">
<title>DodgePredictSensor</title>
<polygon fill="none" stroke="black" points="24,-837.88 24,-859.62 162,-859.62 162,-837.88 24,-837.88"/>
<text text-anchor="start" x="27" y="-843.33" font-family="Helvetica,sans-Serif" font-size="14.00">DodgePredictSensor &#160;</text>
<polygon fill="none" stroke="black" points="24,-816.12 24,-837.88 162,-837.88 162,-816.12 24,-816.12"/>
<text text-anchor="start" x="27" y="-822.58" font-family="Helvetica,sans-Serif" font-size="12.00" fill="#838b8b">if: Dodge</text>
<text text-anchor="start" x="75" y="-822.58" font-family="Helvetica,sans-Serif" font-size="14.00"> &#160;</text>
</g>
<!-- DodgePredictSensor_linked -->
<g id="node17" class="node">
<title>DodgePredictSensor_linked</title>
<polygon fill="none" stroke="black" stroke-dasharray="1,5" points="404.98,-895.88 281.27,-895.88 281.27,-859.88 404.98,-859.88 404.98,-895.88"/>
<text text-anchor="start" x="286.88" y="-872.45" font-family="Helvetica,sans-Serif" font-size="14.00">UpDownHammer &#160;</text>
</g>
<!-- DodgePredictSensor&#45;&gt;DodgePredictSensor_linked -->
<g id="edge10" class="edge">
<title>DodgePredictSensor&#45;&gt;DodgePredictSensor_linked</title>
<path fill="none" stroke="#66cdaa" d="M169.79,-850.09C201.53,-855.21 238.25,-861.13 269.62,-866.19"/>
<polygon fill="#66cdaa" stroke="#66cdaa" points="269,-869.63 279.43,-867.77 270.11,-862.72 269,-869.63"/>
<text text-anchor="middle" x="220.62" y="-865.08" font-family="Helvetica,sans-Serif" font-size="14.00" fill="#66cdaa">QueueEnd</text>
</g>
<!-- AttackPredictSensor -->
<g id="node18" class="node">
<title>AttackPredictSensor</title>
<polygon fill="none" stroke="black" points="25.12,-907.88 25.12,-929.62 160.88,-929.62 160.88,-907.88 25.12,-907.88"/>
<text text-anchor="start" x="28.12" y="-913.33" font-family="Helvetica,sans-Serif" font-size="14.00">AttackPredictSensor &#160;</text>
<polygon fill="none" stroke="black" points="25.12,-886.12 25.12,-907.88 160.88,-907.88 160.88,-886.12 25.12,-886.12"/>
<text text-anchor="start" x="28.12" y="-892.58" font-family="Helvetica,sans-Serif" font-size="12.00" fill="#838b8b">if: Attack</text>
<text text-anchor="start" x="73.12" y="-892.58" font-family="Helvetica,sans-Serif" font-size="14.00"> &#160;</text>
</g>
<!-- AttackPredictSensor_linked -->
<g id="node19" class="node">
<title>AttackPredictSensor_linked</title>
<polygon fill="none" stroke="black" stroke-dasharray="1,5" points="404.98,-949.88 281.27,-949.88 281.27,-913.88 404.98,-913.88 404.98,-949.88"/>
<text text-anchor="start" x="286.88" y="-926.45" font-family="Helvetica,sans-Serif" font-size="14.00">UpDownHammer &#160;</text>
</g>
<!-- AttackPredictSensor&#45;&gt;AttackPredictSensor_linked -->
<g id="edge11" class="edge">
<title>AttackPredictSensor&#45;&gt;AttackPredictSensor_linked</title>
<path fill="none" stroke="#66cdaa" d="M168.78,-915.11C200.68,-918.19 237.77,-921.78 269.43,-924.84"/>
<polygon fill="#66cdaa" stroke="#66cdaa" points="269.04,-928.32 279.33,-925.8 269.71,-921.35 269.04,-928.32"/>
<text text-anchor="middle" x="220.62" y="-925.18" font-family="Helvetica,sans-Serif" font-size="14.00" fill="#66cdaa">QueueEnd</text>
</g>
<!-- AttackRunToSensor -->
<g id="node20" class="node">
<title>AttackRunToSensor</title>
<polygon fill="none" stroke="black" points="26.62,-977.88 26.62,-999.62 159.38,-999.62 159.38,-977.88 26.62,-977.88"/>
<text text-anchor="start" x="29.62" y="-983.33" font-family="Helvetica,sans-Serif" font-size="14.00">AttackRunToSensor &#160;</text>
<polygon fill="none" stroke="black" points="26.62,-956.12 26.62,-977.88 159.38,-977.88 159.38,-956.12 26.62,-956.12"/>
<text text-anchor="start" x="29.62" y="-962.58" font-family="Helvetica,sans-Serif" font-size="12.00" fill="#838b8b">if: state is Engaging</text>
<text text-anchor="start" x="133.88" y="-962.58" font-family="Helvetica,sans-Serif" font-size="14.00"> &#160;</text>
</g>
<!-- AttackRunToSensor_linked -->
<g id="node21" class="node">
<title>AttackRunToSensor_linked</title>
<polygon fill="none" stroke="black" stroke-dasharray="1,5" points="404.98,-1003.88 281.27,-1003.88 281.27,-967.88 404.98,-967.88 404.98,-1003.88"/>
<text text-anchor="start" x="286.88" y="-980.45" font-family="Helvetica,sans-Serif" font-size="14.00">UpDownHammer &#160;</text>
</g>
<!-- AttackRunToSensor&#45;&gt;AttackRunToSensor_linked -->
<g id="edge12" class="edge">
<title>AttackRunToSensor&#45;&gt;AttackRunToSensor_linked</title>
<path fill="none" stroke="#66cdaa" d="M167.1,-980.23C199.46,-981.28 237.4,-982.5 269.68,-983.54"/>
<polygon fill="#66cdaa" stroke="#66cdaa" points="269.22,-987.03 279.33,-983.85 269.45,-980.03 269.22,-987.03"/>
<text text-anchor="middle" x="220.62" y="-985.28" font-family="Helvetica,sans-Serif" font-size="14.00" fill="#66cdaa">QueueEnd</text>
</g>
<!-- AttackSensor_Chase -->
<g id="node22" class="node">
<title>AttackSensor_Chase</title>
<polygon fill="none" stroke="black" points="164.38,-1057.88 21.62,-1057.88 21.62,-1021.88 164.38,-1021.88 164.38,-1057.88"/>
<text text-anchor="middle" x="93" y="-1034.45" font-family="Helvetica,sans-Serif" font-size="14.00">AttackSensor_Chase</text>
</g>
<!-- AttackSensor_Chase_linked -->
<g id="node23" class="node">
<title>AttackSensor_Chase_linked</title>
<polygon fill="none" stroke="black" stroke-dasharray="1,5" points="395.98,-1057.88 290.27,-1057.88 290.27,-1021.88 395.98,-1021.88 395.98,-1057.88"/>
<text text-anchor="start" x="295.88" y="-1034.45" font-family="Helvetica,sans-Serif" font-size="14.00">Danger Chase &#160;</text>
</g>
<!-- AttackSensor_Chase&#45;&gt;AttackSensor_Chase_linked -->
<g id="edge13" class="edge">
<title>AttackSensor_Chase&#45;&gt;AttackSensor_Chase_linked</title>
<path fill="none" stroke="#66cdaa" d="M164.77,-1039.88C200.55,-1039.88 243.62,-1039.88 278.36,-1039.88"/>
<polygon fill="#66cdaa" stroke="#66cdaa" points="278.29,-1043.38 288.29,-1039.88 278.29,-1036.38 278.29,-1043.38"/>
<text text-anchor="middle" x="220.62" y="-1042.33" font-family="Helvetica,sans-Serif" font-size="14.00" fill="#66cdaa">QueueEnd</text>
</g>
</g>
</svg>
