<?xml version="1.0" encoding="UTF-8" standalone="no"?>
<!DOCTYPE svg PUBLIC "-//W3C//DTD SVG 1.1//EN"
 "http://www.w3.org/Graphics/SVG/1.1/DTD/svg11.dtd">
<!-- Generated by graphviz version 12.2.1 (20241206.2353)
 -->
<!-- Title: Foo Pages: 1 -->
<svg width="441pt" height="1106pt"
 viewBox="0.00 0.00 441.25 1106.00" xmlns="http://www.w3.org/2000/svg" xmlns:xlink="http://www.w3.org/1999/xlink">
<g id="graph0" class="graph" transform="scale(1 1) rotate(0) translate(4 1102)">
<title>Foo</title>
<polygon fill="white" stroke="none" points="-4,4 -4,-1102 437.25,-1102 437.25,4 -4,4"/>
<g id="clust1" class="cluster">
<title>cluster_attacksensors</title>
<polygon fill="none" stroke="black" points="8,-8 8,-498 425.25,-498 425.25,-8 8,-8"/>
<text text-anchor="middle" x="216.62" y="-480.7" font-family="Helvetica,sans-Serif" font-size="14.00">Attack Sensors</text>
</g>
<!-- Level Once Sensor -->
<g id="node1" class="node">
<title>Level Once Sensor</title>
<polygon fill="none" stroke="black" points="29.62,-35.12 29.62,-56.88 158.62,-56.88 158.62,-35.12 29.62,-35.12"/>
<text text-anchor="start" x="32.62" y="-40.58" font-family="Helvetica,sans-Serif" font-size="14.00">Level Once Sensor &#160;</text>
</g>
<!-- Level Once Sensor_linked -->
<g id="node2" class="node">
<title>Level Once Sensor_linked</title>
<polygon fill="none" stroke="black" stroke-dasharray="1,5" points="407.23,-52 283.52,-52 283.52,-16 407.23,-16 407.23,-52"/>
<text text-anchor="start" x="289.12" y="-28.57" font-family="Helvetica,sans-Serif" font-size="14.00">UpDownHammer &#160;</text>
</g>
<!-- Level Once Sensor&#45;&gt;Level Once Sensor_linked -->
<g id="edge1" class="edge">
<title>Level Once Sensor&#45;&gt;Level Once Sensor_linked</title>
<path fill="none" stroke="#66cdaa" d="M166.55,-42.56C199.49,-40.98 238.54,-39.1 271.64,-37.5"/>
<polygon fill="#66cdaa" stroke="#66cdaa" points="271.75,-41 281.57,-37.02 271.41,-34.01 271.75,-41"/>
<text text-anchor="middle" x="222.88" y="-43.52" font-family="Helvetica,sans-Serif" font-size="14.00" fill="#66cdaa">QueueEnd</text>
</g>
<!-- Level Once Sensor_weight -->
<g id="node3" class="node">
<title>Level Once Sensor_weight</title>
<polygon fill="none" stroke="black" stroke-dasharray="1,5" points="417.25,-106 273.5,-106 273.5,-70 417.25,-70 417.25,-106"/>
<text text-anchor="start" x="283.5" y="-82.58" font-family="Helvetica,sans-Serif" font-size="14.00">1 UpDownHammer &#160;</text>
</g>
<!-- Level Once Sensor&#45;&gt;Level Once Sensor_weight -->
<g id="edge2" class="edge">
<title>Level Once Sensor&#45;&gt;Level Once Sensor_weight</title>
<path fill="none" stroke="#458b74" d="M166.55,-58.04C196.4,-63.07 231.27,-68.94 262.18,-74.15"/>
<polygon fill="#458b74" stroke="#458b74" points="261.44,-77.57 271.88,-75.78 262.6,-70.67 261.44,-77.57"/>
<text text-anchor="middle" x="222.88" y="-74.45" font-family="Helvetica,sans-Serif" font-size="14.00" fill="#458b74">Weight</text>
</g>
<!-- RunAwaySensor -->
<g id="node4" class="node">
<title>RunAwaySensor</title>
<polygon fill="none" stroke="black" points="37.12,-98.12 37.12,-119.88 151.12,-119.88 151.12,-98.12 37.12,-98.12"/>
<text text-anchor="start" x="40.12" y="-103.58" font-family="Helvetica,sans-Serif" font-size="14.00">RunAwaySensor &#160;</text>
</g>
<!-- AttackSensor -->
<g id="node5" class="node">
<title>AttackSensor</title>
<polygon fill="none" stroke="black" points="47.25,-173.12 47.25,-194.88 141,-194.88 141,-173.12 47.25,-173.12"/>
<text text-anchor="start" x="50.25" y="-178.57" font-family="Helvetica,sans-Serif" font-size="14.00">AttackSensor &#160;</text>
</g>
<!-- AttackSensor_linked -->
<g id="node6" class="node">
<title>AttackSensor_linked</title>
<polygon fill="none" stroke="black" stroke-dasharray="1,5" points="407.23,-249.85 283.52,-249.85 283.52,-124.15 407.23,-124.15 407.23,-249.85"/>
<text text-anchor="start" x="289.12" y="-230.95" font-family="Helvetica,sans-Serif" font-size="14.00">UpDownHammer &#160;</text>
<text text-anchor="start" x="298.12" y="-211.2" font-family="Helvetica,sans-Serif" font-size="14.00">Danger Chase &#160;</text>
<text text-anchor="start" x="300.75" y="-191.45" font-family="Helvetica,sans-Serif" font-size="14.00">Jump Danger &#160;</text>
<text text-anchor="start" x="296.62" y="-171.7" font-family="Helvetica,sans-Serif" font-size="14.00">SwingHammer &#160;</text>
<text text-anchor="start" x="289.12" y="-151.95" font-family="Helvetica,sans-Serif" font-size="14.00">UpDownHammer &#160;</text>
<text text-anchor="start" x="296.62" y="-132.2" font-family="Helvetica,sans-Serif" font-size="14.00">SwingHammer &#160;</text>
</g>
<!-- AttackSensor&#45;&gt;AttackSensor_linked -->
<g id="edge3" class="edge">
<title>AttackSensor&#45;&gt;AttackSensor_linked</title>
<path fill="none" stroke="#66cdaa" d="M148.9,-184.65C184.85,-185.08 232.58,-185.65 271.87,-186.13"/>
<polygon fill="#66cdaa" stroke="#66cdaa" points="271.69,-189.63 281.73,-186.25 271.77,-182.63 271.69,-189.63"/>
<text text-anchor="middle" x="222.88" y="-188.31" font-family="Helvetica,sans-Serif" font-size="14.00" fill="#66cdaa">QueueEnd</text>
</g>
<!-- DodgePredictSensor -->
<g id="node7" class="node">
<title>DodgePredictSensor</title>
<polygon fill="none" stroke="black" points="25.12,-246 25.12,-267.75 163.12,-267.75 163.12,-246 25.12,-246"/>
<text text-anchor="start" x="28.12" y="-251.45" font-family="Helvetica,sans-Serif" font-size="14.00">DodgePredictSensor &#160;</text>
<polygon fill="none" stroke="black" points="25.12,-224.25 25.12,-246 163.12,-246 163.12,-224.25 25.12,-224.25"/>
<text text-anchor="start" x="28.12" y="-230.7" font-family="Helvetica,sans-Serif" font-size="12.00" fill="#838b8b">if: rollingCondition</text>
<text text-anchor="start" x="124.88" y="-230.7" font-family="Helvetica,sans-Serif" font-size="14.00"> &#160;</text>
</g>
<!-- DodgePredictSensor_linked -->
<g id="node8" class="node">
<title>DodgePredictSensor_linked</title>
<polygon fill="none" stroke="black" stroke-dasharray="1,5" points="407.23,-304 283.52,-304 283.52,-268 407.23,-268 407.23,-304"/>
<text text-anchor="start" x="289.12" y="-280.57" font-family="Helvetica,sans-Serif" font-size="14.00">UpDownHammer &#160;</text>
</g>
<!-- DodgePredictSensor&#45;&gt;DodgePredictSensor_linked -->
<g id="edge4" class="edge">
<title>DodgePredictSensor&#45;&gt;DodgePredictSensor_linked</title>
<path fill="none" stroke="#66cdaa" d="M170.92,-258.16C203.08,-263.32 240.39,-269.31 272.15,-274.41"/>
<polygon fill="#66cdaa" stroke="#66cdaa" points="271.21,-277.8 281.64,-275.93 272.32,-270.89 271.21,-277.8"/>
<text text-anchor="middle" x="222.88" y="-273.21" font-family="Helvetica,sans-Serif" font-size="14.00" fill="#66cdaa">QueueEnd</text>
</g>
<!-- AttackPredictSensor -->
<g id="node9" class="node">
<title>AttackPredictSensor</title>
<polygon fill="none" stroke="black" points="26.25,-316 26.25,-337.75 162,-337.75 162,-316 26.25,-316"/>
<text text-anchor="start" x="29.25" y="-321.45" font-family="Helvetica,sans-Serif" font-size="14.00">AttackPredictSensor &#160;</text>
<polygon fill="none" stroke="black" points="26.25,-294.25 26.25,-316 162,-316 162,-294.25 26.25,-294.25"/>
<text text-anchor="start" x="29.25" y="-300.7" font-family="Helvetica,sans-Serif" font-size="12.00" fill="#838b8b">if: attackCondition</text>
<text text-anchor="start" x="124.5" y="-300.7" font-family="Helvetica,sans-Serif" font-size="14.00"> &#160;</text>
</g>
<!-- AttackPredictSensor_linked -->
<g id="node10" class="node">
<title>AttackPredictSensor_linked</title>
<polygon fill="none" stroke="black" stroke-dasharray="1,5" points="407.23,-358 283.52,-358 283.52,-322 407.23,-322 407.23,-358"/>
<text text-anchor="start" x="289.12" y="-334.57" font-family="Helvetica,sans-Serif" font-size="14.00">UpDownHammer &#160;</text>
</g>
<!-- AttackPredictSensor&#45;&gt;AttackPredictSensor_linked -->
<g id="edge5" class="edge">
<title>AttackPredictSensor&#45;&gt;AttackPredictSensor_linked</title>
<path fill="none" stroke="#66cdaa" d="M169.91,-323.2C202.23,-326.31 239.91,-329.94 271.97,-333.03"/>
<polygon fill="#66cdaa" stroke="#66cdaa" points="271.26,-336.48 281.55,-333.95 271.93,-329.51 271.26,-336.48"/>
<text text-anchor="middle" x="222.88" y="-333.31" font-family="Helvetica,sans-Serif" font-size="14.00" fill="#66cdaa">QueueEnd</text>
</g>
<!-- AttackRunToSensor -->
<g id="node11" class="node">
<title>AttackRunToSensor</title>
<polygon fill="none" stroke="black" points="27.75,-386 27.75,-407.75 160.5,-407.75 160.5,-386 27.75,-386"/>
<text text-anchor="start" x="30.75" y="-391.45" font-family="Helvetica,sans-Serif" font-size="14.00">AttackRunToSensor &#160;</text>
<polygon fill="none" stroke="black" points="27.75,-364.25 27.75,-386 160.5,-386 160.5,-364.25 27.75,-364.25"/>
<text text-anchor="start" x="30.75" y="-370.7" font-family="Helvetica,sans-Serif" font-size="12.00" fill="#838b8b">if: state is Engaging</text>
<text text-anchor="start" x="135" y="-370.7" font-family="Helvetica,sans-Serif" font-size="14.00"> &#160;</text>
</g>
<!-- AttackRunToSensor_linked -->
<g id="node12" class="node">
<title>AttackRunToSensor_linked</title>
<polygon fill="none" stroke="black" stroke-dasharray="1,5" points="407.23,-412 283.52,-412 283.52,-376 407.23,-376 407.23,-412"/>
<text text-anchor="start" x="289.12" y="-388.57" font-family="Helvetica,sans-Serif" font-size="14.00">UpDownHammer &#160;</text>
</g>
<!-- AttackRunToSensor&#45;&gt;AttackRunToSensor_linked -->
<g id="edge6" class="edge">
<title>AttackRunToSensor&#45;&gt;AttackRunToSensor_linked</title>
<path fill="none" stroke="#66cdaa" d="M168.22,-388.35C200.86,-389.39 239.22,-390.62 271.8,-391.67"/>
<polygon fill="#66cdaa" stroke="#66cdaa" points="271.44,-395.16 281.55,-391.98 271.67,-388.16 271.44,-395.16"/>
<text text-anchor="middle" x="222.88" y="-393.4" font-family="Helvetica,sans-Serif" font-size="14.00" fill="#66cdaa">QueueEnd</text>
</g>
<!-- AttackSensor_Chase -->
<g id="node13" class="node">
<title>AttackSensor_Chase</title>
<polygon fill="none" stroke="black" points="24,-437.12 24,-458.88 164.25,-458.88 164.25,-437.12 24,-437.12"/>
<text text-anchor="start" x="27" y="-442.57" font-family="Helvetica,sans-Serif" font-size="14.00">AttackSensor_Chase &#160;</text>
</g>
<!-- AttackSensor_Chase_linked -->
<g id="node14" class="node">
<title>AttackSensor_Chase_linked</title>
<polygon fill="none" stroke="black" stroke-dasharray="1,5" points="398.23,-466 292.52,-466 292.52,-430 398.23,-430 398.23,-466"/>
<text text-anchor="start" x="298.12" y="-442.57" font-family="Helvetica,sans-Serif" font-size="14.00">Danger Chase &#160;</text>
</g>
<!-- AttackSensor_Chase&#45;&gt;AttackSensor_Chase_linked -->
<g id="edge7" class="edge">
<title>AttackSensor_Chase&#45;&gt;AttackSensor_Chase_linked</title>
<path fill="none" stroke="#66cdaa" d="M171.94,-448C206.87,-448 247.71,-448 280.87,-448"/>
<polygon fill="#66cdaa" stroke="#66cdaa" points="280.75,-451.5 290.75,-448 280.75,-444.5 280.75,-451.5"/>
<text text-anchor="middle" x="222.88" y="-450.45" font-family="Helvetica,sans-Serif" font-size="14.00" fill="#66cdaa">QueueEnd</text>
</g>
<!-- UpDownHammer -->
<g id="node15" class="node">
<title>UpDownHammer</title>
<polygon fill="none" stroke="black" points="34.12,-878.12 34.12,-899.88 154.12,-899.88 154.12,-878.12 34.12,-878.12"/>
<text text-anchor="start" x="37.88" y="-883.58" font-family="Helvetica,sans-Serif" font-size="14.00">UpDownHammer &#160;</text>
<polygon fill="none" stroke="black" points="34.12,-822.12 34.12,-878.12 154.12,-878.12 154.12,-822.12 34.12,-822.12"/>
<text text-anchor="start" x="37.12" y="-864.73" font-family="Helvetica,sans-Serif" font-size="12.00" fill="#838b8b">1.52s: Evaluate</text>
<text text-anchor="start" x="37.12" y="-852.73" font-family="Helvetica,sans-Serif" font-size="12.00" fill="#838b8b">2.57s: Evaluate</text>
<text text-anchor="start" x="37.12" y="-840.73" font-family="Helvetica,sans-Serif" font-size="12.00" fill="#838b8b">3.22s: ResetEvaluate</text>
<text text-anchor="start" x="37.12" y="-826.83" font-family="Helvetica,sans-Serif" font-size="12.00" fill="#838b8b">3.62s: Done</text>
<text text-anchor="start" x="101.62" y="-826.83" font-family="Helvetica,sans-Serif" font-size="14.00"> &#160;</text>
</g>
<!-- Engaging -->
<g id="node16" class="node">
<title>Engaging</title>
<polygon fill="none" stroke="black" points="381.88,-732 308.88,-732 308.88,-696 381.88,-696 381.88,-732"/>
<text text-anchor="middle" x="345.38" y="-708.58" font-family="Helvetica,sans-Serif" font-size="14.00">Engaging</text>
</g>
<!-- UpDownHammer&#45;&gt;Engaging -->
<g id="edge8" class="edge">
<title>UpDownHammer&#45;&gt;Engaging</title>
<path fill="none" stroke="#cdc8b1" d="M161.92,-821.61C206.93,-795.06 264.86,-760.89 303.24,-738.26"/>
<polygon fill="#cdc8b1" stroke="#cdc8b1" points="304.9,-741.35 311.73,-733.25 301.34,-735.32 304.9,-741.35"/>
</g>
<!-- Danger Chase -->
<g id="node17" class="node">
<title>Danger Chase</title>
<polygon fill="none" stroke="black" points="37.88,-774.12 37.88,-795.88 150.38,-795.88 150.38,-774.12 37.88,-774.12"/>
<text text-anchor="start" x="46.88" y="-779.58" font-family="Helvetica,sans-Serif" font-size="14.00">Danger Chase &#160;</text>
<polygon fill="none" stroke="black" points="37.88,-730.12 37.88,-774.12 150.38,-774.12 150.38,-730.12 37.88,-730.12"/>
<text text-anchor="start" x="40.88" y="-760.73" font-family="Helvetica,sans-Serif" font-size="12.00" fill="#838b8b">2.90s: CheckFacing</text>
<text text-anchor="start" x="40.88" y="-748.73" font-family="Helvetica,sans-Serif" font-size="12.00" fill="#838b8b">4.08s: CheckFacing</text>
<text text-anchor="start" x="40.88" y="-734.83" font-family="Helvetica,sans-Serif" font-size="12.00" fill="#838b8b">5.92s: Done</text>
<text text-anchor="start" x="105.38" y="-734.83" font-family="Helvetica,sans-Serif" font-size="14.00"> &#160;</text>
</g>
<!-- Danger Chase&#45;&gt;Engaging -->
<g id="edge9" class="edge">
<title>Danger Chase&#45;&gt;Engaging</title>
<path fill="none" stroke="#cdc8b1" d="M158.34,-750.57C201.66,-742.06 258.18,-730.95 297.5,-723.22"/>
<polygon fill="#cdc8b1" stroke="#cdc8b1" points="297.99,-726.69 307.12,-721.32 296.64,-719.82 297.99,-726.69"/>
</g>
<!-- Jump Danger -->
<g id="node18" class="node">
<title>Jump Danger</title>
<polygon fill="none" stroke="black" points="34.12,-682.12 34.12,-703.88 154.12,-703.88 154.12,-682.12 34.12,-682.12"/>
<text text-anchor="start" x="49.5" y="-687.58" font-family="Helvetica,sans-Serif" font-size="14.00">Jump Danger &#160;</text>
<polygon fill="none" stroke="black" points="34.12,-626.12 34.12,-682.12 154.12,-682.12 154.12,-626.12 34.12,-626.12"/>
<text text-anchor="start" x="37.12" y="-668.73" font-family="Helvetica,sans-Serif" font-size="12.00" fill="#838b8b">1.50s: Evaluate</text>
<text text-anchor="start" x="37.12" y="-656.73" font-family="Helvetica,sans-Serif" font-size="12.00" fill="#838b8b">2.22s: Shoot</text>
<text text-anchor="start" x="37.12" y="-644.73" font-family="Helvetica,sans-Serif" font-size="12.00" fill="#838b8b">2.28s: ResetEvaluate</text>
<text text-anchor="start" x="37.12" y="-630.83" font-family="Helvetica,sans-Serif" font-size="12.00" fill="#838b8b">2.67s: Done</text>
<text text-anchor="start" x="101.62" y="-630.83" font-family="Helvetica,sans-Serif" font-size="14.00"> &#160;</text>
</g>
<!-- Jump Danger&#45;&gt;Engaging -->
<g id="edge10" class="edge">
<title>Jump Danger&#45;&gt;Engaging</title>
<path fill="none" stroke="#cdc8b1" d="M161.92,-678.13C204.84,-686.57 259.51,-697.32 297.77,-704.84"/>
<polygon fill="#cdc8b1" stroke="#cdc8b1" points="296.62,-708.18 307.11,-706.67 297.97,-701.31 296.62,-708.18"/>
</g>
<!-- SwingHammer -->
<g id="node19" class="node">
<title>SwingHammer</title>
<polygon fill="none" stroke="black" points="34.12,-578.12 34.12,-599.88 154.12,-599.88 154.12,-578.12 34.12,-578.12"/>
<text text-anchor="start" x="45.38" y="-583.58" font-family="Helvetica,sans-Serif" font-size="14.00">SwingHammer &#160;</text>
<polygon fill="none" stroke="black" points="34.12,-510.12 34.12,-578.12 154.12,-578.12 154.12,-510.12 34.12,-510.12"/>
<text text-anchor="start" x="37.12" y="-564.73" font-family="Helvetica,sans-Serif" font-size="12.00" fill="#838b8b">0.97s: Evaluate</text>
<text text-anchor="start" x="37.12" y="-552.73" font-family="Helvetica,sans-Serif" font-size="12.00" fill="#838b8b">1.25s: ResetEvaluate</text>
<text text-anchor="start" x="37.12" y="-540.73" font-family="Helvetica,sans-Serif" font-size="12.00" fill="#838b8b">1.37s: Evaluate</text>
<text text-anchor="start" x="37.12" y="-528.73" font-family="Helvetica,sans-Serif" font-size="12.00" fill="#838b8b">1.68s: ResetEvaluate</text>
<text text-anchor="start" x="37.12" y="-514.83" font-family="Helvetica,sans-Serif" font-size="12.00" fill="#838b8b">2.92s: Done</text>
<text text-anchor="start" x="101.62" y="-514.83" font-family="Helvetica,sans-Serif" font-size="14.00"> &#160;</text>
</g>
<!-- SwingHammer&#45;&gt;Engaging -->
<g id="edge11" class="edge">
<title>SwingHammer&#45;&gt;Engaging</title>
<path fill="none" stroke="#cdc8b1" d="M161.92,-597.61C208.18,-627.12 268.1,-665.34 306.4,-689.78"/>
<polygon fill="#cdc8b1" stroke="#cdc8b1" points="304.06,-692.44 314.38,-694.86 307.83,-686.54 304.06,-692.44"/>
</g>
<!-- HurtState -->
<g id="node20" class="node">
<title>HurtState</title>
<polygon fill="none" stroke="black" points="55.12,-1018 55.12,-1039.75 133.12,-1039.75 133.12,-1018 55.12,-1018"/>
<text text-anchor="start" x="61.88" y="-1023.45" font-family="Helvetica,sans-Serif" font-size="14.00">HurtState &#160;</text>
<polygon fill="none" stroke="black" points="55.12,-996.25 55.12,-1018 133.12,-1018 133.12,-996.25 55.12,-996.25"/>
<text text-anchor="start" x="58.12" y="-1002.7" font-family="Helvetica,sans-Serif" font-size="12.00" fill="#838b8b">0.17s: Done</text>
<text text-anchor="start" x="122.62" y="-1002.7" font-family="Helvetica,sans-Serif" font-size="14.00"> &#160;</text>
</g>
<!-- PreAttack -->
<g id="node21" class="node">
<title>PreAttack</title>
<polygon fill="none" stroke="black" points="382.62,-1001 308.12,-1001 308.12,-965 382.62,-965 382.62,-1001"/>
<text text-anchor="middle" x="345.38" y="-977.58" font-family="Helvetica,sans-Serif" font-size="14.00">PreAttack</text>
</g>
<!-- HurtState&#45;&gt;PreAttack -->
<g id="edge12" class="edge">
<title>HurtState&#45;&gt;PreAttack</title>
<path fill="none" stroke="#cdc8b1" d="M140.84,-1011.58C185.06,-1005.37 251.78,-996 296.66,-989.7"/>
<polygon fill="#cdc8b1" stroke="#cdc8b1" points="296.94,-993.2 306.36,-988.34 295.97,-986.26 296.94,-993.2"/>
</g>
<!-- Hurt_BigState -->
<g id="node22" class="node">
<title>Hurt_BigState</title>
<polygon fill="none" stroke="black" points="45.38,-948 45.38,-969.75 142.88,-969.75 142.88,-948 45.38,-948"/>
<text text-anchor="start" x="48.38" y="-953.45" font-family="Helvetica,sans-Serif" font-size="14.00">Hurt_BigState &#160;</text>
<polygon fill="none" stroke="black" points="45.38,-926.25 45.38,-948 142.88,-948 142.88,-926.25 45.38,-926.25"/>
<text text-anchor="start" x="48.38" y="-932.7" font-family="Helvetica,sans-Serif" font-size="12.00" fill="#838b8b">0.58s: Done</text>
<text text-anchor="start" x="112.88" y="-932.7" font-family="Helvetica,sans-Serif" font-size="14.00"> &#160;</text>
</g>
<!-- Hurt_BigState&#45;&gt;PreAttack -->
<g id="edge13" class="edge">
<title>Hurt_BigState&#45;&gt;PreAttack</title>
<path fill="none" stroke="#cdc8b1" d="M150.75,-955.81C194.55,-961.96 254.96,-970.44 296.6,-976.29"/>
<polygon fill="#cdc8b1" stroke="#cdc8b1" points="295.93,-979.73 306.32,-977.66 296.9,-972.8 295.93,-979.73"/>
</g>
<!-- Wandering_Idle -->
<g id="node23" class="node">
<title>Wandering_Idle</title>
<polygon fill="none" stroke="black" points="164.75,-1098 23.5,-1098 23.5,-1062 164.75,-1062 164.75,-1098"/>
<text text-anchor="middle" x="94.12" y="-1074.58" font-family="Helvetica,sans-Serif" font-size="14.00">Wandering_Idle (Init)</text>
</g>
</g>
</svg>
