<?xml version="1.0" encoding="UTF-8" standalone="no"?>
<!DOCTYPE svg PUBLIC "-//W3C//DTD SVG 1.1//EN"
 "http://www.w3.org/Graphics/SVG/1.1/DTD/svg11.dtd">
<!-- Generated by graphviz version 12.2.1 (20241206.2353)
 -->
<!-- Title: Foo Pages: 1 -->
<svg width="480pt" height="596pt"
 viewBox="0.00 0.00 480.07 595.75" xmlns="http://www.w3.org/2000/svg" xmlns:xlink="http://www.w3.org/1999/xlink">
<g id="graph0" class="graph" transform="scale(1 1) rotate(0) translate(4 591.75)">
<title>Foo</title>
<polygon fill="white" stroke="none" points="-4,4 -4,-591.75 476.07,-591.75 476.07,4 -4,4"/>
<g id="clust1" class="cluster">
<title>cluster_attacksensors</title>
<polygon fill="none" stroke="black" points="8,-325.75 8,-579.75 464.07,-579.75 464.07,-325.75 8,-325.75"/>
<text text-anchor="middle" x="236.04" y="-562.45" font-family="Helvetica,sans-Serif" font-size="14.00">Attack Sensors</text>
</g>
<!-- FlyingMonsterShootState -->
<g id="node1" class="node">
<title>FlyingMonsterShootState</title>
<polygon fill="none" stroke="black" points="10.12,-235.75 10.12,-257.5 175.88,-257.5 175.88,-235.75 10.12,-235.75"/>
<text text-anchor="start" x="13.12" y="-241.2" font-family="Helvetica,sans-Serif" font-size="14.00">FlyingMonsterShootState &#160;</text>
<polygon fill="none" stroke="black" points="10.12,-214 10.12,-235.75 175.88,-235.75 175.88,-214 10.12,-214"/>
<text text-anchor="start" x="13.12" y="-220.45" font-family="Helvetica,sans-Serif" font-size="12.00" fill="#838b8b">1.10s: Done</text>
<text text-anchor="start" x="77.62" y="-220.45" font-family="Helvetica,sans-Serif" font-size="14.00"> &#160;</text>
</g>
<!-- Engaging -->
<g id="node2" class="node">
<title>Engaging</title>
<polygon fill="none" stroke="black" points="407.1,-148.75 334.1,-148.75 334.1,-112.75 407.1,-112.75 407.1,-148.75"/>
<text text-anchor="middle" x="370.6" y="-125.33" font-family="Helvetica,sans-Serif" font-size="14.00">Engaging</text>
</g>
<!-- FlyingMonsterShootState&#45;&gt;Engaging -->
<g id="edge1" class="edge">
<title>FlyingMonsterShootState&#45;&gt;Engaging</title>
<path fill="none" stroke="#cdc8b1" d="M161.42,-210.06C211.51,-190.98 278.57,-165.43 322.88,-148.55"/>
<polygon fill="#cdc8b1" stroke="#cdc8b1" points="324.12,-151.82 332.22,-144.99 321.63,-145.28 324.12,-151.82"/>
</g>
<!-- Hurt1 -->
<g id="node3" class="node">
<title>Hurt1</title>
<polygon fill="none" stroke="black" points="54,-165.75 54,-187.5 132,-187.5 132,-165.75 54,-165.75"/>
<text text-anchor="start" x="72.75" y="-171.2" font-family="Helvetica,sans-Serif" font-size="14.00">Hurt1 &#160;</text>
<polygon fill="none" stroke="black" points="54,-144 54,-165.75 132,-165.75 132,-144 54,-144"/>
<text text-anchor="start" x="57" y="-150.45" font-family="Helvetica,sans-Serif" font-size="12.00" fill="#838b8b">0.25s: Done</text>
<text text-anchor="start" x="121.5" y="-150.45" font-family="Helvetica,sans-Serif" font-size="14.00"> &#160;</text>
</g>
<!-- Hurt1&#45;&gt;Engaging -->
<g id="edge2" class="edge">
<title>Hurt1&#45;&gt;Engaging</title>
<path fill="none" stroke="#cdc8b1" d="M139.82,-159.93C190.37,-153.51 271.32,-143.23 322.41,-136.74"/>
<polygon fill="#cdc8b1" stroke="#cdc8b1" points="322.8,-140.22 332.28,-135.49 321.92,-133.28 322.8,-140.22"/>
</g>
<!-- Hurt2 -->
<g id="node4" class="node">
<title>Hurt2</title>
<polygon fill="none" stroke="black" points="54,-95.75 54,-117.5 132,-117.5 132,-95.75 54,-95.75"/>
<text text-anchor="start" x="72.75" y="-101.2" font-family="Helvetica,sans-Serif" font-size="14.00">Hurt2 &#160;</text>
<polygon fill="none" stroke="black" points="54,-74 54,-95.75 132,-95.75 132,-74 54,-74"/>
<text text-anchor="start" x="57" y="-80.45" font-family="Helvetica,sans-Serif" font-size="12.00" fill="#838b8b">0.33s: Done</text>
<text text-anchor="start" x="121.5" y="-80.45" font-family="Helvetica,sans-Serif" font-size="14.00"> &#160;</text>
</g>
<!-- Hurt2&#45;&gt;Engaging -->
<g id="edge3" class="edge">
<title>Hurt2&#45;&gt;Engaging</title>
<path fill="none" stroke="#cdc8b1" d="M139.82,-101.57C190.37,-107.99 271.32,-118.27 322.41,-124.76"/>
<polygon fill="#cdc8b1" stroke="#cdc8b1" points="321.92,-128.22 332.28,-126.01 322.8,-121.28 321.92,-128.22"/>
</g>
<!-- SpawnEnterState -->
<g id="node5" class="node">
<title>SpawnEnterState</title>
<polygon fill="none" stroke="black" points="33.75,-25.75 33.75,-47.5 152.25,-47.5 152.25,-25.75 33.75,-25.75"/>
<text text-anchor="start" x="36.75" y="-31.2" font-family="Helvetica,sans-Serif" font-size="14.00">SpawnEnterState &#160;</text>
<polygon fill="none" stroke="black" points="33.75,-4 33.75,-25.75 152.25,-25.75 152.25,-4 33.75,-4"/>
<text text-anchor="start" x="36.75" y="-10.45" font-family="Helvetica,sans-Serif" font-size="12.00" fill="#838b8b">0.35s: Done</text>
<text text-anchor="start" x="101.25" y="-10.45" font-family="Helvetica,sans-Serif" font-size="14.00"> &#160;</text>
</g>
<!-- SpawnEnterState&#45;&gt;Engaging -->
<g id="edge4" class="edge">
<title>SpawnEnterState&#45;&gt;Engaging</title>
<path fill="none" stroke="#cdc8b1" d="M160.01,-50.9C210.33,-70.07 278.35,-95.99 323.08,-113.02"/>
<polygon fill="#cdc8b1" stroke="#cdc8b1" points="321.63,-116.22 332.22,-116.51 324.13,-109.68 321.63,-116.22"/>
</g>
<!-- Idle -->
<g id="node6" class="node">
<title>Idle</title>
<polygon fill="none" stroke="black" points="127.25,-315.75 58.75,-315.75 58.75,-279.75 127.25,-279.75 127.25,-315.75"/>
<text text-anchor="middle" x="93" y="-292.32" font-family="Helvetica,sans-Serif" font-size="14.00">Idle (Init)</text>
</g>
<!-- Level Once Sensor -->
<g id="node7" class="node">
<title>Level Once Sensor</title>
<polygon fill="none" stroke="black" points="158.75,-369.75 27.25,-369.75 27.25,-333.75 158.75,-333.75 158.75,-369.75"/>
<text text-anchor="middle" x="93" y="-346.32" font-family="Helvetica,sans-Serif" font-size="14.00">Level Once Sensor</text>
</g>
<!-- Level Once Sensor_linked -->
<g id="node8" class="node">
<title>Level Once Sensor_linked</title>
<polygon fill="none" stroke="black" stroke-dasharray="1,5" points="456.08,-369.75 285.12,-369.75 285.12,-333.75 456.08,-333.75 456.08,-369.75"/>
<text text-anchor="start" x="290.73" y="-346.32" font-family="Helvetica,sans-Serif" font-size="14.00">FlyingMonsterShootState &#160;</text>
</g>
<!-- Level Once Sensor&#45;&gt;Level Once Sensor_linked -->
<g id="edge5" class="edge">
<title>Level Once Sensor&#45;&gt;Level Once Sensor_linked</title>
<path fill="none" stroke="#66cdaa" d="M158.96,-351.75C193.15,-351.75 235.72,-351.75 273.63,-351.75"/>
<polygon fill="#66cdaa" stroke="#66cdaa" points="273.19,-355.25 283.19,-351.75 273.19,-348.25 273.19,-355.25"/>
<text text-anchor="middle" x="234.5" y="-354.2" font-family="Helvetica,sans-Serif" font-size="14.00" fill="#66cdaa">QueueEnd</text>
</g>
<!-- Level Once Sensor_mustuse -->
<g id="node9" class="node">
<title>Level Once Sensor_mustuse</title>
<polygon fill="none" stroke="black" stroke-dasharray="1,5" points="420.73,-423.75 320.48,-423.75 320.48,-387.75 420.73,-387.75 420.73,-423.75"/>
<text text-anchor="start" x="330.48" y="-400.32" font-family="Helvetica,sans-Serif" font-size="14.00">1 Undefined &#160;</text>
</g>
<!-- Level Once Sensor&#45;&gt;Level Once Sensor_mustuse -->
<g id="edge6" class="edge">
<title>Level Once Sensor&#45;&gt;Level Once Sensor_mustuse</title>
<path fill="none" stroke="#458b74" d="M158.96,-364.48C204.35,-373.37 264.52,-385.16 308.93,-393.86"/>
<polygon fill="#458b74" stroke="#458b74" points="308.18,-397.28 318.66,-395.77 309.52,-390.41 308.18,-397.28"/>
<text text-anchor="middle" x="234.5" y="-387.62" font-family="Helvetica,sans-Serif" font-size="14.00" fill="#458b74">Weight</text>
</g>
<!-- RunAwaySensor -->
<g id="node10" class="node">
<title>RunAwaySensor</title>
<polygon fill="none" stroke="black" points="151.25,-423.75 34.75,-423.75 34.75,-387.75 151.25,-387.75 151.25,-423.75"/>
<text text-anchor="middle" x="93" y="-400.32" font-family="Helvetica,sans-Serif" font-size="14.00">RunAwaySensor</text>
</g>
<!-- AttackSensor -->
<g id="node11" class="node">
<title>AttackSensor</title>
<polygon fill="none" stroke="black" points="141.12,-477.75 44.88,-477.75 44.88,-441.75 141.12,-441.75 141.12,-477.75"/>
<text text-anchor="middle" x="93" y="-454.32" font-family="Helvetica,sans-Serif" font-size="14.00">AttackSensor</text>
</g>
<!-- AttackSensor_linked -->
<g id="node12" class="node">
<title>AttackSensor_linked</title>
<polygon fill="none" stroke="black" stroke-dasharray="1,5" points="456.08,-477.75 285.12,-477.75 285.12,-441.75 456.08,-441.75 456.08,-477.75"/>
<text text-anchor="start" x="290.73" y="-454.32" font-family="Helvetica,sans-Serif" font-size="14.00">FlyingMonsterShootState &#160;</text>
</g>
<!-- AttackSensor&#45;&gt;AttackSensor_linked -->
<g id="edge7" class="edge">
<title>AttackSensor&#45;&gt;AttackSensor_linked</title>
<path fill="none" stroke="#66cdaa" d="M141.38,-459.75C177.55,-459.75 228.61,-459.75 273.26,-459.75"/>
<polygon fill="#66cdaa" stroke="#66cdaa" points="273.25,-463.25 283.25,-459.75 273.25,-456.25 273.25,-463.25"/>
<text text-anchor="middle" x="234.5" y="-462.2" font-family="Helvetica,sans-Serif" font-size="14.00" fill="#66cdaa">QueueEnd</text>
</g>
<!-- DodgePredictSensor -->
<g id="node13" class="node">
<title>DodgePredictSensor</title>
<polygon fill="none" stroke="black" points="24,-521.75 24,-543.5 162,-543.5 162,-521.75 24,-521.75"/>
<text text-anchor="start" x="27" y="-527.2" font-family="Helvetica,sans-Serif" font-size="14.00">DodgePredictSensor &#160;</text>
<polygon fill="none" stroke="black" points="24,-500 24,-521.75 162,-521.75 162,-500 24,-500"/>
<text text-anchor="start" x="27" y="-506.45" font-family="Helvetica,sans-Serif" font-size="12.00" fill="#838b8b">if: Dodge</text>
<text text-anchor="start" x="75" y="-506.45" font-family="Helvetica,sans-Serif" font-size="14.00"> &#160;</text>
</g>
<!-- DodgePredictSensor_linked -->
<g id="node14" class="node">
<title>DodgePredictSensor_linked</title>
<polygon fill="none" stroke="black" stroke-dasharray="1,5" points="456.08,-539.75 285.12,-539.75 285.12,-503.75 456.08,-503.75 456.08,-539.75"/>
<text text-anchor="start" x="290.73" y="-516.33" font-family="Helvetica,sans-Serif" font-size="14.00">FlyingMonsterShootState &#160;</text>
</g>
<!-- DodgePredictSensor&#45;&gt;DodgePredictSensor_linked -->
<g id="edge8" class="edge">
<title>DodgePredictSensor&#45;&gt;DodgePredictSensor_linked</title>
<path fill="none" stroke="#66cdaa" d="M169.67,-521.75C201.74,-521.75 239.49,-521.75 273.5,-521.75"/>
<polygon fill="#66cdaa" stroke="#66cdaa" points="273.36,-525.25 283.36,-521.75 273.36,-518.25 273.36,-525.25"/>
<text text-anchor="middle" x="234.5" y="-524.2" font-family="Helvetica,sans-Serif" font-size="14.00" fill="#66cdaa">QueueEnd</text>
</g>
</g>
</svg>
