<?xml version="1.0" encoding="UTF-8" standalone="no"?>
<!DOCTYPE svg PUBLIC "-//W3C//DTD SVG 1.1//EN"
 "http://www.w3.org/Graphics/SVG/1.1/DTD/svg11.dtd">
<!-- Generated by graphviz version 12.2.1 (20241206.2353)
 -->
<!-- Title: Foo Pages: 1 -->
<svg width="480pt" height="594pt"
 viewBox="0.00 0.00 480.07 594.00" xmlns="http://www.w3.org/2000/svg" xmlns:xlink="http://www.w3.org/1999/xlink">
<g id="graph0" class="graph" transform="scale(1 1) rotate(0) translate(4 590)">
<title>Foo</title>
<polygon fill="white" stroke="none" points="-4,4 -4,-590 476.07,-590 476.07,4 -4,4"/>
<g id="clust1" class="cluster">
<title>cluster_attacksensors</title>
<polygon fill="none" stroke="black" points="8,-8 8,-262 464.07,-262 464.07,-8 8,-8"/>
<text text-anchor="middle" x="236.04" y="-244.7" font-family="Helvetica,sans-Serif" font-size="14.00">Attack Sensors</text>
</g>
<!-- Level Once Sensor -->
<g id="node1" class="node">
<title>Level Once Sensor</title>
<polygon fill="none" stroke="black" points="28.5,-23.12 28.5,-44.88 157.5,-44.88 157.5,-23.12 28.5,-23.12"/>
<text text-anchor="start" x="31.5" y="-28.57" font-family="Helvetica,sans-Serif" font-size="14.00">Level Once Sensor &#160;</text>
</g>
<!-- Level Once Sensor_linked -->
<g id="node2" class="node">
<title>Level Once Sensor_linked</title>
<polygon fill="none" stroke="black" stroke-dasharray="1,5" points="456.08,-52 285.12,-52 285.12,-16 456.08,-16 456.08,-52"/>
<text text-anchor="start" x="290.73" y="-28.57" font-family="Helvetica,sans-Serif" font-size="14.00">FlyingMonsterShootState &#160;</text>
</g>
<!-- Level Once Sensor&#45;&gt;Level Once Sensor_linked -->
<g id="edge1" class="edge">
<title>Level Once Sensor&#45;&gt;Level Once Sensor_linked</title>
<path fill="none" stroke="#66cdaa" d="M165.33,-34C198.29,-34 237.92,-34 273.46,-34"/>
<polygon fill="#66cdaa" stroke="#66cdaa" points="273.33,-37.5 283.33,-34 273.33,-30.5 273.33,-37.5"/>
<text text-anchor="middle" x="234.5" y="-36.45" font-family="Helvetica,sans-Serif" font-size="14.00" fill="#66cdaa">QueueEnd</text>
</g>
<!-- Level Once Sensor_weight -->
<g id="node3" class="node">
<title>Level Once Sensor_weight</title>
<polygon fill="none" stroke="black" stroke-dasharray="1,5" points="403.1,-106 338.1,-106 338.1,-70 403.1,-70 403.1,-106"/>
<text text-anchor="start" x="348.1" y="-82.58" font-family="Helvetica,sans-Serif" font-size="14.00">1 Skip &#160;</text>
</g>
<!-- Level Once Sensor&#45;&gt;Level Once Sensor_weight -->
<g id="edge2" class="edge">
<title>Level Once Sensor&#45;&gt;Level Once Sensor_weight</title>
<path fill="none" stroke="#458b74" d="M165.33,-47.98C216.47,-58 283.66,-71.16 326.74,-79.6"/>
<polygon fill="#458b74" stroke="#458b74" points="325.99,-83.02 336.47,-81.51 327.33,-76.15 325.99,-83.02"/>
<text text-anchor="middle" x="234.5" y="-69.87" font-family="Helvetica,sans-Serif" font-size="14.00" fill="#458b74">Weight</text>
</g>
<!-- RunAwaySensor -->
<g id="node4" class="node">
<title>RunAwaySensor</title>
<polygon fill="none" stroke="black" points="36,-77.12 36,-98.88 150,-98.88 150,-77.12 36,-77.12"/>
<text text-anchor="start" x="39" y="-82.58" font-family="Helvetica,sans-Serif" font-size="14.00">RunAwaySensor &#160;</text>
</g>
<!-- AttackSensor -->
<g id="node5" class="node">
<title>AttackSensor</title>
<polygon fill="none" stroke="black" points="46.12,-131.12 46.12,-152.88 139.88,-152.88 139.88,-131.12 46.12,-131.12"/>
<text text-anchor="start" x="49.12" y="-136.57" font-family="Helvetica,sans-Serif" font-size="14.00">AttackSensor &#160;</text>
</g>
<!-- AttackSensor_linked -->
<g id="node6" class="node">
<title>AttackSensor_linked</title>
<polygon fill="none" stroke="black" stroke-dasharray="1,5" points="456.08,-160 285.12,-160 285.12,-124 456.08,-124 456.08,-160"/>
<text text-anchor="start" x="290.73" y="-136.57" font-family="Helvetica,sans-Serif" font-size="14.00">FlyingMonsterShootState &#160;</text>
</g>
<!-- AttackSensor&#45;&gt;AttackSensor_linked -->
<g id="edge3" class="edge">
<title>AttackSensor&#45;&gt;AttackSensor_linked</title>
<path fill="none" stroke="#66cdaa" d="M147.79,-142C183.45,-142 231.24,-142 273.34,-142"/>
<polygon fill="#66cdaa" stroke="#66cdaa" points="273.24,-145.5 283.24,-142 273.24,-138.5 273.24,-145.5"/>
<text text-anchor="middle" x="234.5" y="-144.45" font-family="Helvetica,sans-Serif" font-size="14.00" fill="#66cdaa">QueueEnd</text>
</g>
<!-- DodgePredictSensor -->
<g id="node7" class="node">
<title>DodgePredictSensor</title>
<polygon fill="none" stroke="black" points="24,-204 24,-225.75 162,-225.75 162,-204 24,-204"/>
<text text-anchor="start" x="27" y="-209.45" font-family="Helvetica,sans-Serif" font-size="14.00">DodgePredictSensor &#160;</text>
<polygon fill="none" stroke="black" points="24,-182.25 24,-204 162,-204 162,-182.25 24,-182.25"/>
<text text-anchor="start" x="27" y="-188.7" font-family="Helvetica,sans-Serif" font-size="12.00" fill="#838b8b">if: rollingCondition</text>
<text text-anchor="start" x="123.75" y="-188.7" font-family="Helvetica,sans-Serif" font-size="14.00"> &#160;</text>
</g>
<!-- DodgePredictSensor_linked -->
<g id="node8" class="node">
<title>DodgePredictSensor_linked</title>
<polygon fill="none" stroke="black" stroke-dasharray="1,5" points="456.08,-222 285.12,-222 285.12,-186 456.08,-186 456.08,-222"/>
<text text-anchor="start" x="290.73" y="-198.57" font-family="Helvetica,sans-Serif" font-size="14.00">FlyingMonsterShootState &#160;</text>
</g>
<!-- DodgePredictSensor&#45;&gt;DodgePredictSensor_linked -->
<g id="edge4" class="edge">
<title>DodgePredictSensor&#45;&gt;DodgePredictSensor_linked</title>
<path fill="none" stroke="#66cdaa" d="M169.67,-204C201.74,-204 239.49,-204 273.5,-204"/>
<polygon fill="#66cdaa" stroke="#66cdaa" points="273.36,-207.5 283.36,-204 273.36,-200.5 273.36,-207.5"/>
<text text-anchor="middle" x="234.5" y="-206.45" font-family="Helvetica,sans-Serif" font-size="14.00" fill="#66cdaa">QueueEnd</text>
</g>
<!-- FlyingMonsterShootState -->
<g id="node9" class="node">
<title>FlyingMonsterShootState</title>
<polygon fill="none" stroke="black" points="10.12,-506 10.12,-527.75 175.88,-527.75 175.88,-506 10.12,-506"/>
<text text-anchor="start" x="13.12" y="-511.45" font-family="Helvetica,sans-Serif" font-size="14.00">FlyingMonsterShootState &#160;</text>
<polygon fill="none" stroke="black" points="10.12,-484.25 10.12,-506 175.88,-506 175.88,-484.25 10.12,-484.25"/>
<text text-anchor="start" x="13.12" y="-490.7" font-family="Helvetica,sans-Serif" font-size="12.00" fill="#838b8b">1.10s: Done</text>
<text text-anchor="start" x="77.62" y="-490.7" font-family="Helvetica,sans-Serif" font-size="14.00"> &#160;</text>
</g>
<!-- Engaging -->
<g id="node10" class="node">
<title>Engaging</title>
<polygon fill="none" stroke="black" points="407.1,-419 334.1,-419 334.1,-383 407.1,-383 407.1,-419"/>
<text text-anchor="middle" x="370.6" y="-395.57" font-family="Helvetica,sans-Serif" font-size="14.00">Engaging</text>
</g>
<!-- FlyingMonsterShootState&#45;&gt;Engaging -->
<g id="edge5" class="edge">
<title>FlyingMonsterShootState&#45;&gt;Engaging</title>
<path fill="none" stroke="#cdc8b1" d="M161.42,-480.31C211.51,-461.23 278.57,-435.68 322.88,-418.8"/>
<polygon fill="#cdc8b1" stroke="#cdc8b1" points="324.12,-422.07 332.22,-415.24 321.63,-415.53 324.12,-422.07"/>
</g>
<!-- Hurt1 -->
<g id="node11" class="node">
<title>Hurt1</title>
<polygon fill="none" stroke="black" points="54,-436 54,-457.75 132,-457.75 132,-436 54,-436"/>
<text text-anchor="start" x="72.75" y="-441.45" font-family="Helvetica,sans-Serif" font-size="14.00">Hurt1 &#160;</text>
<polygon fill="none" stroke="black" points="54,-414.25 54,-436 132,-436 132,-414.25 54,-414.25"/>
<text text-anchor="start" x="57" y="-420.7" font-family="Helvetica,sans-Serif" font-size="12.00" fill="#838b8b">0.25s: Done</text>
<text text-anchor="start" x="121.5" y="-420.7" font-family="Helvetica,sans-Serif" font-size="14.00"> &#160;</text>
</g>
<!-- Hurt1&#45;&gt;Engaging -->
<g id="edge6" class="edge">
<title>Hurt1&#45;&gt;Engaging</title>
<path fill="none" stroke="#cdc8b1" d="M139.82,-430.18C190.37,-423.76 271.32,-413.48 322.41,-406.99"/>
<polygon fill="#cdc8b1" stroke="#cdc8b1" points="322.8,-410.47 332.28,-405.74 321.92,-403.53 322.8,-410.47"/>
</g>
<!-- Hurt2 -->
<g id="node12" class="node">
<title>Hurt2</title>
<polygon fill="none" stroke="black" points="54,-366 54,-387.75 132,-387.75 132,-366 54,-366"/>
<text text-anchor="start" x="72.75" y="-371.45" font-family="Helvetica,sans-Serif" font-size="14.00">Hurt2 &#160;</text>
<polygon fill="none" stroke="black" points="54,-344.25 54,-366 132,-366 132,-344.25 54,-344.25"/>
<text text-anchor="start" x="57" y="-350.7" font-family="Helvetica,sans-Serif" font-size="12.00" fill="#838b8b">0.33s: Done</text>
<text text-anchor="start" x="121.5" y="-350.7" font-family="Helvetica,sans-Serif" font-size="14.00"> &#160;</text>
</g>
<!-- Hurt2&#45;&gt;Engaging -->
<g id="edge7" class="edge">
<title>Hurt2&#45;&gt;Engaging</title>
<path fill="none" stroke="#cdc8b1" d="M139.82,-371.82C190.37,-378.24 271.32,-388.52 322.41,-395.01"/>
<polygon fill="#cdc8b1" stroke="#cdc8b1" points="321.92,-398.47 332.28,-396.26 322.8,-391.53 321.92,-398.47"/>
</g>
<!-- SpawnEnterState -->
<g id="node13" class="node">
<title>SpawnEnterState</title>
<polygon fill="none" stroke="black" points="33.75,-296 33.75,-317.75 152.25,-317.75 152.25,-296 33.75,-296"/>
<text text-anchor="start" x="36.75" y="-301.45" font-family="Helvetica,sans-Serif" font-size="14.00">SpawnEnterState &#160;</text>
<polygon fill="none" stroke="black" points="33.75,-274.25 33.75,-296 152.25,-296 152.25,-274.25 33.75,-274.25"/>
<text text-anchor="start" x="36.75" y="-280.7" font-family="Helvetica,sans-Serif" font-size="12.00" fill="#838b8b">0.35s: Done</text>
<text text-anchor="start" x="101.25" y="-280.7" font-family="Helvetica,sans-Serif" font-size="14.00"> &#160;</text>
</g>
<!-- SpawnEnterState&#45;&gt;Engaging -->
<g id="edge8" class="edge">
<title>SpawnEnterState&#45;&gt;Engaging</title>
<path fill="none" stroke="#cdc8b1" d="M160.01,-321.15C210.33,-340.32 278.35,-366.24 323.08,-383.27"/>
<polygon fill="#cdc8b1" stroke="#cdc8b1" points="321.63,-386.47 332.22,-386.76 324.13,-379.93 321.63,-386.47"/>
</g>
<!-- Idle -->
<g id="node14" class="node">
<title>Idle</title>
<polygon fill="none" stroke="black" points="127.25,-586 58.75,-586 58.75,-550 127.25,-550 127.25,-586"/>
<text text-anchor="middle" x="93" y="-562.58" font-family="Helvetica,sans-Serif" font-size="14.00">Idle (Init)</text>
</g>
</g>
</svg>
