<?xml version="1.0" encoding="UTF-8" standalone="no"?>
<!DOCTYPE svg PUBLIC "-//W3C//DTD SVG 1.1//EN"
 "http://www.w3.org/Graphics/SVG/1.1/DTD/svg11.dtd">
<!-- Generated by graphviz version 12.2.1 (20241206.2353)
 -->
<!-- Title: Foo Pages: 1 -->
<svg width="413pt" height="1162pt"
 viewBox="0.00 0.00 412.95 1162.00" xmlns="http://www.w3.org/2000/svg" xmlns:xlink="http://www.w3.org/1999/xlink">
<g id="graph0" class="graph" transform="scale(1 1) rotate(0) translate(4 1158)">
<title>Foo</title>
<polygon fill="white" stroke="none" points="-4,4 -4,-1158 408.95,-1158 408.95,4 -4,4"/>
<g id="clust1" class="cluster">
<title>cluster_attacksensors</title>
<polygon fill="none" stroke="black" points="8,-572 8,-1146 396.95,-1146 396.95,-572 8,-572"/>
<text text-anchor="middle" x="202.47" y="-1128.7" font-family="Helvetica,sans-Serif" font-size="14.00">Attack Sensors</text>
</g>
<!-- Attack1_prepare -->
<g id="node1" class="node">
<title>Attack1_prepare</title>
<polygon fill="none" stroke="black" points="34.12,-77.12 34.12,-98.88 151.88,-98.88 151.88,-77.12 34.12,-77.12"/>
<text text-anchor="start" x="39.75" y="-82.58" font-family="Helvetica,sans-Serif" font-size="14.00">Attack1_prepare &#160;</text>
<polygon fill="none" stroke="black" points="34.12,-45.12 34.12,-77.12 151.88,-77.12 151.88,-45.12 34.12,-45.12"/>
<text text-anchor="start" x="37.12" y="-63.73" font-family="Helvetica,sans-Serif" font-size="12.00" fill="#838b8b">0.67s: LinkNextMove</text>
<text text-anchor="start" x="37.12" y="-49.83" font-family="Helvetica,sans-Serif" font-size="12.00" fill="#838b8b">1.50s: Done</text>
<text text-anchor="start" x="101.62" y="-49.83" font-family="Helvetica,sans-Serif" font-size="14.00"> &#160;</text>
</g>
<!-- Engaging -->
<g id="node2" class="node">
<title>Engaging</title>
<polygon fill="none" stroke="black" points="366.6,-230 293.6,-230 293.6,-194 366.6,-194 366.6,-230"/>
<text text-anchor="middle" x="330.1" y="-206.57" font-family="Helvetica,sans-Serif" font-size="14.00">Engaging</text>
</g>
<!-- Attack1_prepare&#45;&gt;Engaging -->
<g id="edge1" class="edge">
<title>Attack1_prepare&#45;&gt;Engaging</title>
<path fill="none" stroke="#cdc8b1" d="M159.58,-88.39C191.27,-99.15 227.85,-116.15 253.25,-142 267.77,-156.78 256.9,-170.06 271.25,-185 274.8,-188.7 278.96,-191.94 283.38,-194.77"/>
<polygon fill="#cdc8b1" stroke="#cdc8b1" points="281.61,-197.79 292.05,-199.59 285.02,-191.67 281.61,-197.79"/>
</g>
<!-- Attack1_prepare_linked -->
<g id="node3" class="node">
<title>Attack1_prepare_linked</title>
<polygon fill="none" stroke="black" stroke-dasharray="1,5" points="365.33,-36 294.88,-36 294.88,0 365.33,0 365.33,-36"/>
<text text-anchor="start" x="300.48" y="-12.57" font-family="Helvetica,sans-Serif" font-size="14.00">三連擊 &#160;</text>
</g>
<!-- Attack1_prepare&#45;&gt;Attack1_prepare_linked -->
<g id="edge2" class="edge">
<title>Attack1_prepare&#45;&gt;Attack1_prepare_linked</title>
<path fill="none" stroke="#66cdaa" d="M159.8,-56.89C199.27,-47.82 248.46,-36.52 283.64,-28.44"/>
<polygon fill="#66cdaa" stroke="#66cdaa" points="284.09,-31.93 293.06,-26.28 282.53,-25.11 284.09,-31.93"/>
<text text-anchor="middle" x="220.62" y="-52.29" font-family="Helvetica,sans-Serif" font-size="14.00" fill="#66cdaa">QueueEnd</text>
</g>
<!-- Attack1_prepare_mustuse -->
<g id="node4" class="node">
<title>Attack1_prepare_mustuse</title>
<polygon fill="none" stroke="black" stroke-dasharray="1,5" points="380.23,-90 279.98,-90 279.98,-54 380.23,-54 380.23,-90"/>
<text text-anchor="start" x="289.98" y="-66.58" font-family="Helvetica,sans-Serif" font-size="14.00">1 Undefined &#160;</text>
</g>
<!-- Attack1_prepare&#45;&gt;Attack1_prepare_mustuse -->
<g id="edge3" class="edge">
<title>Attack1_prepare&#45;&gt;Attack1_prepare_mustuse</title>
<path fill="none" stroke="#458b74" d="M159.8,-72C193.83,-72 235.08,-72 268.34,-72"/>
<polygon fill="#458b74" stroke="#458b74" points="268.23,-75.5 278.23,-72 268.23,-68.5 268.23,-75.5"/>
<text text-anchor="middle" x="220.62" y="-74.45" font-family="Helvetica,sans-Serif" font-size="14.00" fill="#458b74">Weight</text>
</g>
<!-- 三連擊 -->
<g id="node5" class="node">
<title>三連擊</title>
<polygon fill="none" stroke="black" points="34.12,-159.12 34.12,-180.88 151.88,-180.88 151.88,-159.12 34.12,-159.12"/>
<text text-anchor="start" x="63.38" y="-164.57" font-family="Helvetica,sans-Serif" font-size="14.00">三連擊 &#160;</text>
<polygon fill="none" stroke="black" points="34.12,-127.12 34.12,-159.12 151.88,-159.12 151.88,-127.12 34.12,-127.12"/>
<text text-anchor="start" x="37.12" y="-145.72" font-family="Helvetica,sans-Serif" font-size="12.00" fill="#838b8b">1.17s: LinkNextMove</text>
<text text-anchor="start" x="37.12" y="-131.82" font-family="Helvetica,sans-Serif" font-size="12.00" fill="#838b8b">1.50s: Done</text>
<text text-anchor="start" x="101.62" y="-131.82" font-family="Helvetica,sans-Serif" font-size="14.00"> &#160;</text>
</g>
<!-- 三連擊&#45;&gt;Engaging -->
<g id="edge4" class="edge">
<title>三連擊&#45;&gt;Engaging</title>
<path fill="none" stroke="#cdc8b1" d="M159.8,-170.23C198.78,-179.85 247.24,-191.81 282.32,-200.46"/>
<polygon fill="#cdc8b1" stroke="#cdc8b1" points="281.19,-203.79 291.74,-202.78 282.87,-196.99 281.19,-203.79"/>
</g>
<!-- 三連擊_mustuse -->
<g id="node6" class="node">
<title>三連擊_mustuse</title>
<polygon fill="none" stroke="black" stroke-dasharray="1,5" points="380.23,-175.62 279.98,-175.62 279.98,-108.38 380.23,-108.38 380.23,-175.62"/>
<text text-anchor="start" x="289.98" y="-156.32" font-family="Helvetica,sans-Serif" font-size="14.00">2 Undefined &#160;</text>
<text text-anchor="start" x="307.6" y="-136.57" font-family="Helvetica,sans-Serif" font-size="14.00">0 Skip &#160;</text>
<text text-anchor="start" x="289.98" y="-116.83" font-family="Helvetica,sans-Serif" font-size="14.00">1 Undefined &#160;</text>
</g>
<!-- 三連擊&#45;&gt;三連擊_mustuse -->
<g id="edge5" class="edge">
<title>三連擊&#45;&gt;三連擊_mustuse</title>
<path fill="none" stroke="#458b74" d="M159.8,-150.64C193.83,-148.9 235.08,-146.8 268.34,-145.1"/>
<polygon fill="#458b74" stroke="#458b74" points="268.43,-148.6 278.24,-144.6 268.07,-141.61 268.43,-148.6"/>
<text text-anchor="middle" x="220.62" y="-151.52" font-family="Helvetica,sans-Serif" font-size="14.00" fill="#458b74">Weight</text>
</g>
<!-- 一閃 -->
<g id="node7" class="node">
<title>一閃</title>
<polygon fill="none" stroke="black" points="34.12,-344.12 34.12,-365.88 151.88,-365.88 151.88,-344.12 34.12,-344.12"/>
<text text-anchor="start" x="72" y="-349.57" font-family="Helvetica,sans-Serif" font-size="14.00">一閃 &#160;</text>
<polygon fill="none" stroke="black" points="34.12,-300.12 34.12,-344.12 151.88,-344.12 151.88,-300.12 34.12,-300.12"/>
<text text-anchor="start" x="37.12" y="-330.73" font-family="Helvetica,sans-Serif" font-size="12.00" fill="#838b8b">0.00s: CheckFacing</text>
<text text-anchor="start" x="37.12" y="-318.73" font-family="Helvetica,sans-Serif" font-size="12.00" fill="#838b8b">1.08s: LinkNextMove</text>
<text text-anchor="start" x="37.12" y="-304.83" font-family="Helvetica,sans-Serif" font-size="12.00" fill="#838b8b">1.17s: Done</text>
<text text-anchor="start" x="101.62" y="-304.83" font-family="Helvetica,sans-Serif" font-size="14.00"> &#160;</text>
</g>
<!-- 一閃&#45;&gt;Engaging -->
<g id="edge6" class="edge">
<title>一閃&#45;&gt;Engaging</title>
<path fill="none" stroke="#cdc8b1" d="M159.75,-322.11C191.11,-314.08 227.34,-300.34 253.25,-277 267.13,-264.49 258,-252.18 271.25,-239 274.84,-235.43 278.99,-232.28 283.39,-229.5"/>
<polygon fill="#cdc8b1" stroke="#cdc8b1" points="284.91,-232.66 291.96,-224.75 281.51,-226.54 284.91,-232.66"/>
</g>
<!-- 一閃_mustuse -->
<g id="node8" class="node">
<title>一閃_mustuse</title>
<polygon fill="none" stroke="black" stroke-dasharray="1,5" points="380.23,-369.62 279.98,-369.62 279.98,-302.38 380.23,-302.38 380.23,-369.62"/>
<text text-anchor="start" x="289.98" y="-350.32" font-family="Helvetica,sans-Serif" font-size="14.00">1 Undefined &#160;</text>
<text text-anchor="start" x="307.6" y="-330.57" font-family="Helvetica,sans-Serif" font-size="14.00">1 Skip &#160;</text>
<text text-anchor="start" x="289.98" y="-310.82" font-family="Helvetica,sans-Serif" font-size="14.00">1 Undefined &#160;</text>
</g>
<!-- 一閃&#45;&gt;一閃_mustuse -->
<g id="edge7" class="edge">
<title>一閃&#45;&gt;一閃_mustuse</title>
<path fill="none" stroke="#458b74" d="M159.8,-333.84C193.83,-334.27 235.08,-334.8 268.34,-335.22"/>
<polygon fill="#458b74" stroke="#458b74" points="268.19,-338.72 278.23,-335.35 268.28,-331.72 268.19,-338.72"/>
<text text-anchor="middle" x="220.62" y="-337.48" font-family="Helvetica,sans-Serif" font-size="14.00" fill="#458b74">Weight</text>
</g>
<!-- HurtState -->
<g id="node9" class="node">
<title>HurtState</title>
<polygon fill="none" stroke="black" points="54,-484 54,-505.75 132,-505.75 132,-484 54,-484"/>
<text text-anchor="start" x="60.75" y="-489.45" font-family="Helvetica,sans-Serif" font-size="14.00">HurtState &#160;</text>
<polygon fill="none" stroke="black" points="54,-462.25 54,-484 132,-484 132,-462.25 54,-462.25"/>
<text text-anchor="start" x="57" y="-468.7" font-family="Helvetica,sans-Serif" font-size="12.00" fill="#838b8b">0.33s: Done</text>
<text text-anchor="start" x="121.5" y="-468.7" font-family="Helvetica,sans-Serif" font-size="14.00"> &#160;</text>
</g>
<!-- PreAttack -->
<g id="node10" class="node">
<title>PreAttack</title>
<polygon fill="none" stroke="black" points="367.35,-467 292.85,-467 292.85,-431 367.35,-431 367.35,-467"/>
<text text-anchor="middle" x="330.1" y="-443.57" font-family="Helvetica,sans-Serif" font-size="14.00">PreAttack</text>
</g>
<!-- HurtState&#45;&gt;PreAttack -->
<g id="edge8" class="edge">
<title>HurtState&#45;&gt;PreAttack</title>
<path fill="none" stroke="#cdc8b1" d="M139.89,-477.17C180.68,-471.1 240.1,-462.25 281.43,-456.1"/>
<polygon fill="#cdc8b1" stroke="#cdc8b1" points="281.7,-459.59 291.08,-454.66 280.67,-452.67 281.7,-459.59"/>
</g>
<!-- Hurt_BigState -->
<g id="node11" class="node">
<title>Hurt_BigState</title>
<polygon fill="none" stroke="black" points="44.25,-414 44.25,-435.75 141.75,-435.75 141.75,-414 44.25,-414"/>
<text text-anchor="start" x="47.25" y="-419.45" font-family="Helvetica,sans-Serif" font-size="14.00">Hurt_BigState &#160;</text>
<polygon fill="none" stroke="black" points="44.25,-392.25 44.25,-414 141.75,-414 141.75,-392.25 44.25,-392.25"/>
<text text-anchor="start" x="47.25" y="-398.7" font-family="Helvetica,sans-Serif" font-size="12.00" fill="#838b8b">0.33s: Done</text>
<text text-anchor="start" x="111.75" y="-398.7" font-family="Helvetica,sans-Serif" font-size="14.00"> &#160;</text>
</g>
<!-- Hurt_BigState&#45;&gt;PreAttack -->
<g id="edge9" class="edge">
<title>Hurt_BigState&#45;&gt;PreAttack</title>
<path fill="none" stroke="#cdc8b1" d="M149.72,-422.29C189.71,-428.25 243.05,-436.19 281.15,-441.86"/>
<polygon fill="#cdc8b1" stroke="#cdc8b1" points="280.55,-445.31 290.96,-443.32 281.58,-438.39 280.55,-445.31"/>
</g>
<!-- JumpBack -->
<g id="node12" class="node">
<title>JumpBack</title>
<polygon fill="none" stroke="black" points="34.12,-243.12 34.12,-264.88 151.88,-264.88 151.88,-243.12 34.12,-243.12"/>
<text text-anchor="start" x="57.38" y="-248.57" font-family="Helvetica,sans-Serif" font-size="14.00">JumpBack &#160;</text>
<polygon fill="none" stroke="black" points="34.12,-211.12 34.12,-243.12 151.88,-243.12 151.88,-211.12 34.12,-211.12"/>
<text text-anchor="start" x="37.12" y="-229.72" font-family="Helvetica,sans-Serif" font-size="12.00" fill="#838b8b">0.33s: LinkNextMove</text>
<text text-anchor="start" x="37.12" y="-215.82" font-family="Helvetica,sans-Serif" font-size="12.00" fill="#838b8b">0.35s: Done</text>
<text text-anchor="start" x="101.62" y="-215.82" font-family="Helvetica,sans-Serif" font-size="14.00"> &#160;</text>
</g>
<!-- JumpBack&#45;&gt;Engaging -->
<g id="edge10" class="edge">
<title>JumpBack&#45;&gt;Engaging</title>
<path fill="none" stroke="#cdc8b1" d="M159.8,-230.72C198.61,-226.43 246.82,-221.1 281.86,-217.22"/>
<polygon fill="#cdc8b1" stroke="#cdc8b1" points="282.15,-220.71 291.7,-216.14 281.38,-213.76 282.15,-220.71"/>
</g>
<!-- JumpBack_mustuse -->
<g id="node13" class="node">
<title>JumpBack_mustuse</title>
<polygon fill="none" stroke="black" stroke-dasharray="1,5" points="380.23,-284 279.98,-284 279.98,-248 380.23,-248 380.23,-284"/>
<text text-anchor="start" x="289.98" y="-260.57" font-family="Helvetica,sans-Serif" font-size="14.00">2 Undefined &#160;</text>
</g>
<!-- JumpBack&#45;&gt;JumpBack_mustuse -->
<g id="edge11" class="edge">
<title>JumpBack&#45;&gt;JumpBack_mustuse</title>
<path fill="none" stroke="#458b74" d="M159.8,-245.84C193.83,-249.89 235.08,-254.8 268.34,-258.76"/>
<polygon fill="#458b74" stroke="#458b74" points="267.9,-262.24 278.25,-259.94 268.73,-255.29 267.9,-262.24"/>
<text text-anchor="middle" x="220.62" y="-259.39" font-family="Helvetica,sans-Serif" font-size="14.00" fill="#458b74">Weight</text>
</g>
<!-- Wandering_Idle -->
<g id="node14" class="node">
<title>Wandering_Idle</title>
<polygon fill="none" stroke="black" points="163.62,-564 22.38,-564 22.38,-528 163.62,-528 163.62,-564"/>
<text text-anchor="middle" x="93" y="-540.58" font-family="Helvetica,sans-Serif" font-size="14.00">Wandering_Idle (Init)</text>
</g>
<!-- Level Once Sensor -->
<g id="node15" class="node">
<title>Level Once Sensor</title>
<polygon fill="none" stroke="black" points="158.75,-624 27.25,-624 27.25,-588 158.75,-588 158.75,-624"/>
<text text-anchor="middle" x="93" y="-600.58" font-family="Helvetica,sans-Serif" font-size="14.00">Level Once Sensor</text>
</g>
<!-- Level Once Sensor_linked -->
<g id="node16" class="node">
<title>Level Once Sensor_linked</title>
<polygon fill="none" stroke="black" stroke-dasharray="1,5" points="388.95,-616 271.25,-616 271.25,-580 388.95,-580 388.95,-616"/>
<text text-anchor="start" x="276.85" y="-592.58" font-family="Helvetica,sans-Serif" font-size="14.00">Attack1_prepare &#160;</text>
</g>
<!-- Level Once Sensor&#45;&gt;Level Once Sensor_linked -->
<g id="edge12" class="edge">
<title>Level Once Sensor&#45;&gt;Level Once Sensor_linked</title>
<path fill="none" stroke="#66cdaa" d="M159.18,-603.78C190.4,-602.72 227.82,-601.45 259.59,-600.37"/>
<polygon fill="#66cdaa" stroke="#66cdaa" points="259.63,-603.87 269.51,-600.03 259.39,-596.87 259.63,-603.87"/>
<text text-anchor="middle" x="220.62" y="-605.17" font-family="Helvetica,sans-Serif" font-size="14.00" fill="#66cdaa">QueueEnd</text>
</g>
<!-- Level Once Sensor_mustuse -->
<g id="node17" class="node">
<title>Level Once Sensor_mustuse</title>
<polygon fill="none" stroke="black" stroke-dasharray="1,5" points="380.23,-670 279.98,-670 279.98,-634 380.23,-634 380.23,-670"/>
<text text-anchor="start" x="289.98" y="-646.58" font-family="Helvetica,sans-Serif" font-size="14.00">1 Undefined &#160;</text>
</g>
<!-- Level Once Sensor&#45;&gt;Level Once Sensor_mustuse -->
<g id="edge13" class="edge">
<title>Level Once Sensor&#45;&gt;Level Once Sensor_mustuse</title>
<path fill="none" stroke="#458b74" d="M159.18,-618.75C193.36,-625.44 234.98,-633.58 268.46,-640.14"/>
<polygon fill="#458b74" stroke="#458b74" points="267.52,-643.52 278,-642 268.86,-636.65 267.52,-643.52"/>
<text text-anchor="middle" x="220.62" y="-639.57" font-family="Helvetica,sans-Serif" font-size="14.00" fill="#458b74">Weight</text>
</g>
<!-- RunAwaySensor -->
<g id="node18" class="node">
<title>RunAwaySensor</title>
<polygon fill="none" stroke="black" points="151.25,-700 34.75,-700 34.75,-664 151.25,-664 151.25,-700"/>
<text text-anchor="middle" x="93" y="-676.58" font-family="Helvetica,sans-Serif" font-size="14.00">RunAwaySensor</text>
</g>
<!-- AttackSensor -->
<g id="node19" class="node">
<title>AttackSensor</title>
<polygon fill="none" stroke="black" points="141.12,-765 44.88,-765 44.88,-729 141.12,-729 141.12,-765"/>
<text text-anchor="middle" x="93" y="-741.58" font-family="Helvetica,sans-Serif" font-size="14.00">AttackSensor</text>
</g>
<!-- AttackSensor_linked -->
<g id="node20" class="node">
<title>AttackSensor_linked</title>
<polygon fill="none" stroke="black" stroke-dasharray="1,5" points="365.33,-724 294.88,-724 294.88,-688 365.33,-688 365.33,-724"/>
<text text-anchor="start" x="300.48" y="-700.58" font-family="Helvetica,sans-Serif" font-size="14.00">三連擊 &#160;</text>
</g>
<!-- AttackSensor&#45;&gt;AttackSensor_linked -->
<g id="edge14" class="edge">
<title>AttackSensor&#45;&gt;AttackSensor_linked</title>
<path fill="none" stroke="#66cdaa" d="M141.58,-738.7C182.94,-731.49 242.48,-721.11 283.31,-713.99"/>
<polygon fill="#66cdaa" stroke="#66cdaa" points="283.82,-717.45 293.07,-712.28 282.62,-710.55 283.82,-717.45"/>
<text text-anchor="middle" x="220.62" y="-732.62" font-family="Helvetica,sans-Serif" font-size="14.00" fill="#66cdaa">QueueEnd</text>
</g>
<!-- AttackSensor_mustuse -->
<g id="node21" class="node">
<title>AttackSensor_mustuse</title>
<polygon fill="none" stroke="black" stroke-dasharray="1,5" points="380.23,-778 279.98,-778 279.98,-742 380.23,-742 380.23,-778"/>
<text text-anchor="start" x="289.98" y="-754.58" font-family="Helvetica,sans-Serif" font-size="14.00">1 Undefined &#160;</text>
</g>
<!-- AttackSensor&#45;&gt;AttackSensor_mustuse -->
<g id="edge15" class="edge">
<title>AttackSensor&#45;&gt;AttackSensor_mustuse</title>
<path fill="none" stroke="#458b74" d="M141.58,-749.63C178.09,-751.65 228.77,-754.45 268.23,-756.63"/>
<polygon fill="#458b74" stroke="#458b74" points="267.88,-760.12 278.06,-757.18 268.27,-753.13 267.88,-760.12"/>
<text text-anchor="middle" x="220.62" y="-758.25" font-family="Helvetica,sans-Serif" font-size="14.00" fill="#458b74">Weight</text>
</g>
<!-- DodgePredictSensor -->
<g id="node22" class="node">
<title>DodgePredictSensor</title>
<polygon fill="none" stroke="black" points="24,-814 24,-835.75 162,-835.75 162,-814 24,-814"/>
<text text-anchor="start" x="27" y="-819.45" font-family="Helvetica,sans-Serif" font-size="14.00">DodgePredictSensor &#160;</text>
<polygon fill="none" stroke="black" points="24,-792.25 24,-814 162,-814 162,-792.25 24,-792.25"/>
<text text-anchor="start" x="27" y="-798.7" font-family="Helvetica,sans-Serif" font-size="12.00" fill="#838b8b">if: Dodge</text>
<text text-anchor="start" x="75" y="-798.7" font-family="Helvetica,sans-Serif" font-size="14.00"> &#160;</text>
</g>
<!-- DodgePredictSensor_linked -->
<g id="node23" class="node">
<title>DodgePredictSensor_linked</title>
<polygon fill="none" stroke="black" stroke-dasharray="1,5" points="388.95,-832 271.25,-832 271.25,-796 388.95,-796 388.95,-832"/>
<text text-anchor="start" x="276.85" y="-808.58" font-family="Helvetica,sans-Serif" font-size="14.00">Attack1_prepare &#160;</text>
</g>
<!-- DodgePredictSensor&#45;&gt;DodgePredictSensor_linked -->
<g id="edge16" class="edge">
<title>DodgePredictSensor&#45;&gt;DodgePredictSensor_linked</title>
<path fill="none" stroke="#66cdaa" d="M169.68,-814C198.59,-814 231.38,-814 259.67,-814"/>
<polygon fill="#66cdaa" stroke="#66cdaa" points="259.57,-817.5 269.57,-814 259.57,-810.5 259.57,-817.5"/>
<text text-anchor="middle" x="220.62" y="-816.45" font-family="Helvetica,sans-Serif" font-size="14.00" fill="#66cdaa">QueueEnd</text>
</g>
<!-- AttackPredictSensor -->
<g id="node24" class="node">
<title>AttackPredictSensor</title>
<polygon fill="none" stroke="black" points="25.12,-901 25.12,-922.75 160.88,-922.75 160.88,-901 25.12,-901"/>
<text text-anchor="start" x="28.12" y="-906.45" font-family="Helvetica,sans-Serif" font-size="14.00">AttackPredictSensor &#160;</text>
<polygon fill="none" stroke="black" points="25.12,-879.25 25.12,-901 160.88,-901 160.88,-879.25 25.12,-879.25"/>
<text text-anchor="start" x="28.12" y="-885.7" font-family="Helvetica,sans-Serif" font-size="12.00" fill="#838b8b">if: Attack</text>
<text text-anchor="start" x="73.12" y="-885.7" font-family="Helvetica,sans-Serif" font-size="14.00"> &#160;</text>
</g>
<!-- AttackPredictSensor_linked -->
<g id="node25" class="node">
<title>AttackPredictSensor_linked</title>
<polygon fill="none" stroke="black" stroke-dasharray="1,5" points="388.95,-886 271.25,-886 271.25,-850 388.95,-850 388.95,-886"/>
<text text-anchor="start" x="276.85" y="-862.58" font-family="Helvetica,sans-Serif" font-size="14.00">Attack1_prepare &#160;</text>
</g>
<!-- AttackPredictSensor&#45;&gt;AttackPredictSensor_linked -->
<g id="edge17" class="edge">
<title>AttackPredictSensor&#45;&gt;AttackPredictSensor_linked</title>
<path fill="none" stroke="#66cdaa" d="M168.71,-890.51C197.91,-886.41 231.2,-881.74 259.85,-877.72"/>
<polygon fill="#66cdaa" stroke="#66cdaa" points="260.08,-881.22 269.49,-876.37 259.1,-874.29 260.08,-881.22"/>
<text text-anchor="middle" x="220.62" y="-889.91" font-family="Helvetica,sans-Serif" font-size="14.00" fill="#66cdaa">QueueEnd</text>
</g>
<!-- AttackPredictSensor_mustuse -->
<g id="node28" class="node">
<title>AttackPredictSensor_mustuse</title>
<polygon fill="none" stroke="black" stroke-dasharray="1,5" points="380.23,-951.75 279.98,-951.75 279.98,-904.25 380.23,-904.25 380.23,-951.75"/>
<text text-anchor="start" x="289.98" y="-932.45" font-family="Helvetica,sans-Serif" font-size="14.00">1 Undefined &#160;</text>
<text text-anchor="start" x="289.98" y="-912.7" font-family="Helvetica,sans-Serif" font-size="14.00">1 Undefined &#160;</text>
</g>
<!-- AttackPredictSensor&#45;&gt;AttackPredictSensor_mustuse -->
<g id="edge19" class="edge">
<title>AttackPredictSensor&#45;&gt;AttackPredictSensor_mustuse</title>
<path fill="none" stroke="#458b74" d="M168.71,-909.58C200.9,-913.28 238.06,-917.54 268.49,-921.04"/>
<polygon fill="#458b74" stroke="#458b74" points="267.97,-924.5 278.3,-922.17 268.77,-917.55 267.97,-924.5"/>
<text text-anchor="middle" x="220.62" y="-921.72" font-family="Helvetica,sans-Serif" font-size="14.00" fill="#458b74">Weight</text>
</g>
<!-- AttackRunToSensor -->
<g id="node26" class="node">
<title>AttackRunToSensor</title>
<polygon fill="none" stroke="black" points="26.62,-988 26.62,-1009.75 159.38,-1009.75 159.38,-988 26.62,-988"/>
<text text-anchor="start" x="29.62" y="-993.45" font-family="Helvetica,sans-Serif" font-size="14.00">AttackRunToSensor &#160;</text>
<polygon fill="none" stroke="black" points="26.62,-966.25 26.62,-988 159.38,-988 159.38,-966.25 26.62,-966.25"/>
<text text-anchor="start" x="29.62" y="-972.7" font-family="Helvetica,sans-Serif" font-size="12.00" fill="#838b8b">if: state is Engaging</text>
<text text-anchor="start" x="133.88" y="-972.7" font-family="Helvetica,sans-Serif" font-size="14.00"> &#160;</text>
</g>
<!-- AttackRunToSensor_linked -->
<g id="node27" class="node">
<title>AttackRunToSensor_linked</title>
<polygon fill="none" stroke="black" stroke-dasharray="1,5" points="388.95,-1006 271.25,-1006 271.25,-970 388.95,-970 388.95,-1006"/>
<text text-anchor="start" x="276.85" y="-982.58" font-family="Helvetica,sans-Serif" font-size="14.00">Attack1_prepare &#160;</text>
</g>
<!-- AttackRunToSensor&#45;&gt;AttackRunToSensor_linked -->
<g id="edge18" class="edge">
<title>AttackRunToSensor&#45;&gt;AttackRunToSensor_linked</title>
<path fill="none" stroke="#66cdaa" d="M167.1,-988C196.61,-988 230.5,-988 259.64,-988"/>
<polygon fill="#66cdaa" stroke="#66cdaa" points="259.45,-991.5 269.45,-988 259.45,-984.5 259.45,-991.5"/>
<text text-anchor="middle" x="220.62" y="-990.45" font-family="Helvetica,sans-Serif" font-size="14.00" fill="#66cdaa">QueueEnd</text>
</g>
<!-- FooPredictSensor -->
<g id="node29" class="node">
<title>FooPredictSensor</title>
<polygon fill="none" stroke="black" points="32.25,-1072 32.25,-1093.75 153.75,-1093.75 153.75,-1072 32.25,-1072"/>
<text text-anchor="start" x="35.25" y="-1077.45" font-family="Helvetica,sans-Serif" font-size="14.00">FooPredictSensor &#160;</text>
<polygon fill="none" stroke="black" points="32.25,-1050.25 32.25,-1072 153.75,-1072 153.75,-1050.25 32.25,-1050.25"/>
<text text-anchor="start" x="35.25" y="-1056.7" font-family="Helvetica,sans-Serif" font-size="12.00" fill="#838b8b">if: Foo</text>
<text text-anchor="start" x="68.25" y="-1056.7" font-family="Helvetica,sans-Serif" font-size="14.00"> &#160;</text>
</g>
<!-- FooPredictSensor_linked -->
<g id="node30" class="node">
<title>FooPredictSensor_linked</title>
<polygon fill="none" stroke="black" stroke-dasharray="1,5" points="388.95,-1060 271.25,-1060 271.25,-1024 388.95,-1024 388.95,-1060"/>
<text text-anchor="start" x="276.85" y="-1036.58" font-family="Helvetica,sans-Serif" font-size="14.00">Attack1_prepare &#160;</text>
</g>
<!-- FooPredictSensor&#45;&gt;FooPredictSensor_linked -->
<g id="edge20" class="edge">
<title>FooPredictSensor&#45;&gt;FooPredictSensor_linked</title>
<path fill="none" stroke="#66cdaa" d="M161.69,-1063.36C192.49,-1059.43 228.91,-1054.78 259.9,-1050.83"/>
<polygon fill="#66cdaa" stroke="#66cdaa" points="260.07,-1054.34 269.55,-1049.6 259.18,-1047.39 260.07,-1054.34"/>
<text text-anchor="middle" x="220.62" y="-1062.14" font-family="Helvetica,sans-Serif" font-size="14.00" fill="#66cdaa">QueueEnd</text>
</g>
<!-- FooPredictSensor_mustuse -->
<g id="node31" class="node">
<title>FooPredictSensor_mustuse</title>
<polygon fill="none" stroke="black" stroke-dasharray="1,5" points="380.23,-1114 279.98,-1114 279.98,-1078 380.23,-1078 380.23,-1114"/>
<text text-anchor="start" x="289.98" y="-1090.58" font-family="Helvetica,sans-Serif" font-size="14.00">1 Undefined &#160;</text>
</g>
<!-- FooPredictSensor&#45;&gt;FooPredictSensor_mustuse -->
<g id="edge21" class="edge">
<title>FooPredictSensor&#45;&gt;FooPredictSensor_mustuse</title>
<path fill="none" stroke="#458b74" d="M161.69,-1078.91C195.42,-1082.35 235.88,-1086.48 268.57,-1089.82"/>
<polygon fill="#458b74" stroke="#458b74" points="267.98,-1093.28 278.28,-1090.81 268.69,-1086.31 267.98,-1093.28"/>
<text text-anchor="middle" x="220.62" y="-1090.69" font-family="Helvetica,sans-Serif" font-size="14.00" fill="#458b74">Weight</text>
</g>
</g>
</svg>
