<?xml version="1.0" encoding="UTF-8" standalone="no"?>
<!DOCTYPE svg PUBLIC "-//W3C//DTD SVG 1.1//EN"
 "http://www.w3.org/Graphics/SVG/1.1/DTD/svg11.dtd">
<!-- Generated by graphviz version 12.2.1 (20241206.2353)
 -->
<!-- Title: Foo Pages: 1 -->
<svg width="525pt" height="1229pt"
 viewBox="0.00 0.00 524.50 1229.00" xmlns="http://www.w3.org/2000/svg" xmlns:xlink="http://www.w3.org/1999/xlink">
<g id="graph0" class="graph" transform="scale(1 1) rotate(0) translate(4 1225)">
<title>Foo</title>
<polygon fill="white" stroke="none" points="-4,4 -4,-1225 520.5,-1225 520.5,4 -4,4"/>
<g id="clust1" class="cluster">
<title>cluster_attacksensors</title>
<polygon fill="none" stroke="black" points="8,-8 8,-563 508.5,-563 508.5,-8 8,-8"/>
<text text-anchor="middle" x="258.25" y="-545.7" font-family="Helvetica,sans-Serif" font-size="14.00">Attack Sensors</text>
</g>
<!-- Level Once Sensor -->
<g id="node1" class="node">
<title>Level Once Sensor</title>
<polygon fill="none" stroke="black" points="61.88,-31.12 61.88,-52.88 190.88,-52.88 190.88,-31.12 61.88,-31.12"/>
<text text-anchor="start" x="64.88" y="-36.58" font-family="Helvetica,sans-Serif" font-size="14.00">Level Once Sensor &#160;</text>
</g>
<!-- Level Once Sensor_linked -->
<g id="node2" class="node">
<title>Level Once Sensor_linked</title>
<polygon fill="none" stroke="black" stroke-dasharray="1,5" points="471.73,-52 366.77,-52 366.77,-16 471.73,-16 471.73,-52"/>
<text text-anchor="start" x="372.38" y="-28.57" font-family="Helvetica,sans-Serif" font-size="14.00">Attack 3 Slash &#160;</text>
</g>
<!-- Level Once Sensor&#45;&gt;Level Once Sensor_linked -->
<g id="edge1" class="edge">
<title>Level Once Sensor&#45;&gt;Level Once Sensor_linked</title>
<path fill="none" stroke="#66cdaa" d="M198.53,-40.04C246.44,-38.73 309.05,-37 355.18,-35.73"/>
<polygon fill="#66cdaa" stroke="#66cdaa" points="355.12,-39.24 365.02,-35.46 354.92,-32.24 355.12,-39.24"/>
<text text-anchor="middle" x="287.38" y="-40.93" font-family="Helvetica,sans-Serif" font-size="14.00" fill="#66cdaa">QueueEnd</text>
</g>
<!-- Level Once Sensor_weight -->
<g id="node3" class="node">
<title>Level Once Sensor_weight</title>
<polygon fill="none" stroke="black" stroke-dasharray="1,5" points="481.38,-106 357.12,-106 357.12,-70 481.38,-70 481.38,-106"/>
<text text-anchor="start" x="367.12" y="-82.58" font-family="Helvetica,sans-Serif" font-size="14.00">1 Attack 3 Slash &#160;</text>
</g>
<!-- Level Once Sensor&#45;&gt;Level Once Sensor_weight -->
<g id="edge2" class="edge">
<title>Level Once Sensor&#45;&gt;Level Once Sensor_weight</title>
<path fill="none" stroke="#458b74" d="M198.53,-53.25C243.19,-60.31 300.61,-69.4 345.55,-76.5"/>
<polygon fill="#458b74" stroke="#458b74" points="344.78,-79.92 355.2,-78.03 345.87,-73.01 344.78,-79.92"/>
<text text-anchor="middle" x="287.38" y="-74.26" font-family="Helvetica,sans-Serif" font-size="14.00" fill="#458b74">Weight</text>
</g>
<!-- RunAwaySensor -->
<g id="node4" class="node">
<title>RunAwaySensor</title>
<polygon fill="none" stroke="black" points="69.38,-90.12 69.38,-111.88 183.38,-111.88 183.38,-90.12 69.38,-90.12"/>
<text text-anchor="start" x="72.38" y="-95.58" font-family="Helvetica,sans-Serif" font-size="14.00">RunAwaySensor &#160;</text>
</g>
<!-- AttackSensor -->
<g id="node5" class="node">
<title>AttackSensor</title>
<polygon fill="none" stroke="black" points="79.5,-156.12 79.5,-177.88 173.25,-177.88 173.25,-156.12 79.5,-156.12"/>
<text text-anchor="start" x="82.5" y="-161.57" font-family="Helvetica,sans-Serif" font-size="14.00">AttackSensor &#160;</text>
</g>
<!-- AttackSensor_linked -->
<g id="node6" class="node">
<title>AttackSensor_linked</title>
<polygon fill="none" stroke="black" stroke-dasharray="1,5" points="490.85,-210.1 347.65,-210.1 347.65,-123.9 490.85,-123.9 490.85,-210.1"/>
<text text-anchor="start" x="372.38" y="-191.2" font-family="Helvetica,sans-Serif" font-size="14.00">Attack 3 Slash &#160;</text>
<text text-anchor="start" x="363" y="-171.45" font-family="Helvetica,sans-Serif" font-size="14.00">Attack3 AxeStuck &#160;</text>
<text text-anchor="start" x="372.38" y="-151.7" font-family="Helvetica,sans-Serif" font-size="14.00">Attack 3 Slash &#160;</text>
<text text-anchor="start" x="353.25" y="-131.95" font-family="Helvetica,sans-Serif" font-size="14.00">Attack2 HeavyAttack &#160;</text>
</g>
<!-- AttackSensor&#45;&gt;AttackSensor_linked -->
<g id="edge3" class="edge">
<title>AttackSensor&#45;&gt;AttackSensor_linked</title>
<path fill="none" stroke="#66cdaa" d="M181.06,-167C224.47,-167 286.3,-167 335.95,-167"/>
<polygon fill="#66cdaa" stroke="#66cdaa" points="335.8,-170.5 345.8,-167 335.8,-163.5 335.8,-170.5"/>
<text text-anchor="middle" x="287.38" y="-169.45" font-family="Helvetica,sans-Serif" font-size="14.00" fill="#66cdaa">QueueEnd</text>
</g>
<!-- DodgePredictSensor -->
<g id="node7" class="node">
<title>DodgePredictSensor</title>
<polygon fill="none" stroke="black" points="57.38,-230 57.38,-251.75 195.38,-251.75 195.38,-230 57.38,-230"/>
<text text-anchor="start" x="60.38" y="-235.45" font-family="Helvetica,sans-Serif" font-size="14.00">DodgePredictSensor &#160;</text>
<polygon fill="none" stroke="black" points="57.38,-208.25 57.38,-230 195.38,-230 195.38,-208.25 57.38,-208.25"/>
<text text-anchor="start" x="60.38" y="-214.7" font-family="Helvetica,sans-Serif" font-size="12.00" fill="#838b8b">if: rollingCondition</text>
<text text-anchor="start" x="157.12" y="-214.7" font-family="Helvetica,sans-Serif" font-size="14.00"> &#160;</text>
</g>
<!-- DodgePredictSensor_linked -->
<g id="node8" class="node">
<title>DodgePredictSensor_linked</title>
<polygon fill="none" stroke="black" stroke-dasharray="1,5" points="471.73,-264 366.77,-264 366.77,-228 471.73,-228 471.73,-264"/>
<text text-anchor="start" x="372.38" y="-240.57" font-family="Helvetica,sans-Serif" font-size="14.00">Attack 3 Slash &#160;</text>
</g>
<!-- DodgePredictSensor&#45;&gt;DodgePredictSensor_linked -->
<g id="edge4" class="edge">
<title>DodgePredictSensor&#45;&gt;DodgePredictSensor_linked</title>
<path fill="none" stroke="#66cdaa" d="M203.04,-234.16C250.27,-236.76 310.36,-240.07 355.04,-242.52"/>
<polygon fill="#66cdaa" stroke="#66cdaa" points="354.65,-246.01 364.83,-243.06 355.03,-239.02 354.65,-246.01"/>
<text text-anchor="middle" x="287.38" y="-242.82" font-family="Helvetica,sans-Serif" font-size="14.00" fill="#66cdaa">QueueEnd</text>
</g>
<!-- AttackPredictSensor -->
<g id="node9" class="node">
<title>AttackPredictSensor</title>
<polygon fill="none" stroke="black" points="58.5,-300 58.5,-321.75 194.25,-321.75 194.25,-300 58.5,-300"/>
<text text-anchor="start" x="61.5" y="-305.45" font-family="Helvetica,sans-Serif" font-size="14.00">AttackPredictSensor &#160;</text>
<polygon fill="none" stroke="black" points="58.5,-278.25 58.5,-300 194.25,-300 194.25,-278.25 58.5,-278.25"/>
<text text-anchor="start" x="61.5" y="-284.7" font-family="Helvetica,sans-Serif" font-size="12.00" fill="#838b8b">if: attackCondition</text>
<text text-anchor="start" x="156.75" y="-284.7" font-family="Helvetica,sans-Serif" font-size="14.00"> &#160;</text>
</g>
<!-- AttackPredictSensor_linked -->
<g id="node10" class="node">
<title>AttackPredictSensor_linked</title>
<polygon fill="none" stroke="black" stroke-dasharray="1,5" points="471.73,-318 366.77,-318 366.77,-282 471.73,-282 471.73,-318"/>
<text text-anchor="start" x="372.38" y="-294.57" font-family="Helvetica,sans-Serif" font-size="14.00">Attack 3 Slash &#160;</text>
</g>
<!-- AttackPredictSensor&#45;&gt;AttackPredictSensor_linked -->
<g id="edge5" class="edge">
<title>AttackPredictSensor&#45;&gt;AttackPredictSensor_linked</title>
<path fill="none" stroke="#66cdaa" d="M201.9,-300C249.29,-300 309.96,-300 354.99,-300"/>
<polygon fill="#66cdaa" stroke="#66cdaa" points="354.87,-303.5 364.87,-300 354.87,-296.5 354.87,-303.5"/>
<text text-anchor="middle" x="287.38" y="-302.45" font-family="Helvetica,sans-Serif" font-size="14.00" fill="#66cdaa">QueueEnd</text>
</g>
<!-- AttackRunToSensor -->
<g id="node11" class="node">
<title>AttackRunToSensor</title>
<polygon fill="none" stroke="black" points="60,-370 60,-391.75 192.75,-391.75 192.75,-370 60,-370"/>
<text text-anchor="start" x="63" y="-375.45" font-family="Helvetica,sans-Serif" font-size="14.00">AttackRunToSensor &#160;</text>
<polygon fill="none" stroke="black" points="60,-348.25 60,-370 192.75,-370 192.75,-348.25 60,-348.25"/>
<text text-anchor="start" x="63" y="-354.7" font-family="Helvetica,sans-Serif" font-size="12.00" fill="#838b8b">if: state is Engaging</text>
<text text-anchor="start" x="167.25" y="-354.7" font-family="Helvetica,sans-Serif" font-size="14.00"> &#160;</text>
</g>
<!-- AttackRunToSensor_linked -->
<g id="node12" class="node">
<title>AttackRunToSensor_linked</title>
<polygon fill="none" stroke="black" stroke-dasharray="1,5" points="471.73,-372 366.77,-372 366.77,-336 471.73,-336 471.73,-372"/>
<text text-anchor="start" x="372.38" y="-348.57" font-family="Helvetica,sans-Serif" font-size="14.00">Attack 3 Slash &#160;</text>
</g>
<!-- AttackRunToSensor&#45;&gt;AttackRunToSensor_linked -->
<g id="edge6" class="edge">
<title>AttackRunToSensor&#45;&gt;AttackRunToSensor_linked</title>
<path fill="none" stroke="#66cdaa" d="M200.4,-365.98C248.03,-363.36 309.57,-359.98 355.08,-357.47"/>
<polygon fill="#66cdaa" stroke="#66cdaa" points="354.99,-360.99 364.78,-356.94 354.6,-354 354.99,-360.99"/>
<text text-anchor="middle" x="287.38" y="-365.41" font-family="Helvetica,sans-Serif" font-size="14.00" fill="#66cdaa">QueueEnd</text>
</g>
<!-- AttackSensor_50%HeavyAttack -->
<g id="node13" class="node">
<title>AttackSensor_50%HeavyAttack</title>
<polygon fill="none" stroke="black" points="24,-444.12 24,-465.88 228.75,-465.88 228.75,-444.12 24,-444.12"/>
<text text-anchor="start" x="27" y="-449.57" font-family="Helvetica,sans-Serif" font-size="14.00">AttackSensor_50%HeavyAttack &#160;</text>
</g>
<!-- AttackSensor_50%HeavyAttack_linked -->
<g id="node14" class="node">
<title>AttackSensor_50%HeavyAttack_linked</title>
<polygon fill="none" stroke="black" stroke-dasharray="1,5" points="471.73,-426 366.77,-426 366.77,-390 471.73,-390 471.73,-426"/>
<text text-anchor="start" x="372.38" y="-402.57" font-family="Helvetica,sans-Serif" font-size="14.00">Attack 3 Slash &#160;</text>
</g>
<!-- AttackSensor_50%HeavyAttack&#45;&gt;AttackSensor_50%HeavyAttack_linked -->
<g id="edge7" class="edge">
<title>AttackSensor_50%HeavyAttack&#45;&gt;AttackSensor_50%HeavyAttack_linked</title>
<path fill="none" stroke="#66cdaa" d="M236.51,-437.37C276.66,-430.88 320.75,-423.75 355.45,-418.15"/>
<polygon fill="#66cdaa" stroke="#66cdaa" points="355.56,-421.68 364.87,-416.62 354.44,-414.76 355.56,-421.68"/>
<text text-anchor="middle" x="287.38" y="-436.76" font-family="Helvetica,sans-Serif" font-size="14.00" fill="#66cdaa">QueueEnd</text>
</g>
<!-- AttackSensor_50%HeavyAttack_weight -->
<g id="node15" class="node">
<title>AttackSensor_50%HeavyAttack_weight</title>
<polygon fill="none" stroke="black" stroke-dasharray="1,5" points="500.5,-531.5 338,-531.5 338,-444.5 500.5,-444.5 500.5,-531.5"/>
<text text-anchor="start" x="367.12" y="-512.2" font-family="Helvetica,sans-Serif" font-size="14.00">1 Attack 3 Slash &#160;</text>
<text text-anchor="start" x="348" y="-492.45" font-family="Helvetica,sans-Serif" font-size="14.00">1 Attack2 HeavyAttack &#160;</text>
<text text-anchor="start" x="357.75" y="-472.7" font-family="Helvetica,sans-Serif" font-size="14.00">1 Attack3 AxeStuck &#160;</text>
<text text-anchor="start" x="367.88" y="-452.95" font-family="Helvetica,sans-Serif" font-size="14.00">2 JumpThrough &#160;</text>
</g>
<!-- AttackSensor_50%HeavyAttack&#45;&gt;AttackSensor_50%HeavyAttack_weight -->
<g id="edge8" class="edge">
<title>AttackSensor_50%HeavyAttack&#45;&gt;AttackSensor_50%HeavyAttack_weight</title>
<path fill="none" stroke="#458b74" d="M236.51,-467.38C266.11,-470.74 297.86,-474.34 326.4,-477.58"/>
<polygon fill="#458b74" stroke="#458b74" points="325.75,-481.03 336.08,-478.68 326.54,-474.07 325.75,-481.03"/>
<text text-anchor="middle" x="287.38" y="-478.83" font-family="Helvetica,sans-Serif" font-size="14.00" fill="#458b74">Weight</text>
</g>
<!-- Attack 3 Slash -->
<g id="node16" class="node">
<title>Attack 3 Slash</title>
<polygon fill="none" stroke="black" points="70.12,-909.12 70.12,-930.88 182.62,-930.88 182.62,-909.12 70.12,-909.12"/>
<text text-anchor="start" x="79.5" y="-914.58" font-family="Helvetica,sans-Serif" font-size="14.00">Attack 3 Slash &#160;</text>
<polygon fill="none" stroke="black" points="70.12,-841.12 70.12,-909.12 182.62,-909.12 182.62,-841.12 70.12,-841.12"/>
<text text-anchor="start" x="73.12" y="-895.73" font-family="Helvetica,sans-Serif" font-size="12.00" fill="#838b8b">1.20s: CheckFacing</text>
<text text-anchor="start" x="73.12" y="-883.73" font-family="Helvetica,sans-Serif" font-size="12.00" fill="#838b8b">1.87s: CheckFacing</text>
<text text-anchor="start" x="73.12" y="-871.73" font-family="Helvetica,sans-Serif" font-size="12.00" fill="#838b8b">2.67s: CheckFacing</text>
<text text-anchor="start" x="73.12" y="-859.73" font-family="Helvetica,sans-Serif" font-size="12.00" fill="#838b8b">3.28s: CheckFacing</text>
<text text-anchor="start" x="73.12" y="-845.83" font-family="Helvetica,sans-Serif" font-size="12.00" fill="#838b8b">4.25s: Done</text>
<text text-anchor="start" x="137.62" y="-845.83" font-family="Helvetica,sans-Serif" font-size="14.00"> &#160;</text>
</g>
<!-- Engaging -->
<g id="node17" class="node">
<title>Engaging</title>
<polygon fill="none" stroke="black" points="455.75,-794 382.75,-794 382.75,-758 455.75,-758 455.75,-794"/>
<text text-anchor="middle" x="419.25" y="-770.58" font-family="Helvetica,sans-Serif" font-size="14.00">Engaging</text>
</g>
<!-- Attack 3 Slash&#45;&gt;Engaging -->
<g id="edge9" class="edge">
<title>Attack 3 Slash&#45;&gt;Engaging</title>
<path fill="none" stroke="#cdc8b1" d="M190.49,-862.13C245.17,-841.45 323,-812.02 372.04,-793.47"/>
<polygon fill="#cdc8b1" stroke="#cdc8b1" points="373.12,-796.81 381.24,-790 370.65,-790.26 373.12,-796.81"/>
</g>
<!-- Attack2 HeavyAttack -->
<g id="node18" class="node">
<title>Attack2 HeavyAttack</title>
<polygon fill="none" stroke="black" points="57.38,-793.12 57.38,-814.88 195.38,-814.88 195.38,-793.12 57.38,-793.12"/>
<text text-anchor="start" x="60.38" y="-798.58" font-family="Helvetica,sans-Serif" font-size="14.00">Attack2 HeavyAttack &#160;</text>
<polygon fill="none" stroke="black" points="57.38,-737.12 57.38,-793.12 195.38,-793.12 195.38,-737.12 57.38,-737.12"/>
<text text-anchor="start" x="60.38" y="-779.73" font-family="Helvetica,sans-Serif" font-size="12.00" fill="#838b8b">1.83s: CheckFacing</text>
<text text-anchor="start" x="60.38" y="-767.73" font-family="Helvetica,sans-Serif" font-size="12.00" fill="#838b8b">1.83s: DisableGravity</text>
<text text-anchor="start" x="60.38" y="-755.73" font-family="Helvetica,sans-Serif" font-size="12.00" fill="#838b8b">2.50s: EnableGravity</text>
<text text-anchor="start" x="60.38" y="-741.83" font-family="Helvetica,sans-Serif" font-size="12.00" fill="#838b8b">3.42s: Done</text>
<text text-anchor="start" x="124.88" y="-741.83" font-family="Helvetica,sans-Serif" font-size="14.00"> &#160;</text>
</g>
<!-- Attack2 HeavyAttack&#45;&gt;Engaging -->
<g id="edge10" class="edge">
<title>Attack2 HeavyAttack&#45;&gt;Engaging</title>
<path fill="none" stroke="#cdc8b1" d="M203.04,-776C256.15,-776 325.54,-776 370.97,-776"/>
<polygon fill="#cdc8b1" stroke="#cdc8b1" points="370.74,-779.5 380.74,-776 370.74,-772.5 370.74,-779.5"/>
</g>
<!-- Attack3 AxeStuck -->
<g id="node19" class="node">
<title>Attack3 AxeStuck</title>
<polygon fill="none" stroke="black" points="67.12,-1001.12 67.12,-1022.88 185.62,-1022.88 185.62,-1001.12 67.12,-1001.12"/>
<text text-anchor="start" x="70.12" y="-1006.58" font-family="Helvetica,sans-Serif" font-size="14.00">Attack3 AxeStuck &#160;</text>
<polygon fill="none" stroke="black" points="67.12,-957.12 67.12,-1001.12 185.62,-1001.12 185.62,-957.12 67.12,-957.12"/>
<text text-anchor="start" x="70.12" y="-987.73" font-family="Helvetica,sans-Serif" font-size="12.00" fill="#838b8b">0.70s: CheckFacing</text>
<text text-anchor="start" x="70.12" y="-975.73" font-family="Helvetica,sans-Serif" font-size="12.00" fill="#838b8b">5.17s: LinkNextMove</text>
<text text-anchor="start" x="70.12" y="-961.83" font-family="Helvetica,sans-Serif" font-size="12.00" fill="#838b8b">5.50s: Done</text>
<text text-anchor="start" x="134.62" y="-961.83" font-family="Helvetica,sans-Serif" font-size="14.00"> &#160;</text>
</g>
<!-- Attack3 AxeStuck&#45;&gt;Engaging -->
<g id="edge11" class="edge">
<title>Attack3 AxeStuck&#45;&gt;Engaging</title>
<path fill="none" stroke="#cdc8b1" d="M193.46,-966.58C208.21,-960.18 223.42,-952.59 236.75,-944 300.3,-903.05 362.29,-838.95 394.81,-802.92"/>
<polygon fill="#cdc8b1" stroke="#cdc8b1" points="397.36,-805.32 401.41,-795.53 392.14,-800.66 397.36,-805.32"/>
</g>
<!-- Attack3 AxeStuck_weight -->
<g id="node20" class="node">
<title>Attack3 AxeStuck_weight</title>
<polygon fill="none" stroke="black" stroke-dasharray="1,5" points="480.62,-1008 357.88,-1008 357.88,-972 480.62,-972 480.62,-1008"/>
<text text-anchor="start" x="367.88" y="-984.58" font-family="Helvetica,sans-Serif" font-size="14.00">1 JumpThrough &#160;</text>
</g>
<!-- Attack3 AxeStuck&#45;&gt;Attack3 AxeStuck_weight -->
<g id="edge12" class="edge">
<title>Attack3 AxeStuck&#45;&gt;Attack3 AxeStuck_weight</title>
<path fill="none" stroke="#458b74" d="M193.38,-990C238.9,-990 299.41,-990 346.19,-990"/>
<polygon fill="#458b74" stroke="#458b74" points="345.95,-993.5 355.95,-990 345.95,-986.5 345.95,-993.5"/>
<text text-anchor="middle" x="287.38" y="-992.45" font-family="Helvetica,sans-Serif" font-size="14.00" fill="#458b74">Weight</text>
</g>
<!-- JumpThrough -->
<g id="node21" class="node">
<title>JumpThrough</title>
<polygon fill="none" stroke="black" points="67.5,-619.12 67.5,-640.88 185.25,-640.88 185.25,-619.12 67.5,-619.12"/>
<text text-anchor="start" x="80.62" y="-624.58" font-family="Helvetica,sans-Serif" font-size="14.00">JumpThrough &#160;</text>
<polygon fill="none" stroke="black" points="67.5,-575.12 67.5,-619.12 185.25,-619.12 185.25,-575.12 67.5,-575.12"/>
<text text-anchor="start" x="70.5" y="-605.73" font-family="Helvetica,sans-Serif" font-size="12.00" fill="#838b8b">0.67s: CheckFacing</text>
<text text-anchor="start" x="70.5" y="-593.73" font-family="Helvetica,sans-Serif" font-size="12.00" fill="#838b8b">1.38s: LinkNextMove</text>
<text text-anchor="start" x="70.5" y="-579.83" font-family="Helvetica,sans-Serif" font-size="12.00" fill="#838b8b">1.63s: Done</text>
<text text-anchor="start" x="135" y="-579.83" font-family="Helvetica,sans-Serif" font-size="14.00"> &#160;</text>
</g>
<!-- JumpThrough&#45;&gt;Engaging -->
<g id="edge13" class="edge">
<title>JumpThrough&#45;&gt;Engaging</title>
<path fill="none" stroke="#cdc8b1" d="M193.12,-633.22C207.74,-639.49 222.97,-646.56 236.75,-654 291.19,-683.39 349.86,-724.79 385.32,-751.01"/>
<polygon fill="#cdc8b1" stroke="#cdc8b1" points="382.92,-753.59 393.03,-756.75 387.1,-747.97 382.92,-753.59"/>
</g>
<!-- JumpThrough_weight -->
<g id="node22" class="node">
<title>JumpThrough_weight</title>
<polygon fill="none" stroke="black" stroke-dasharray="1,5" points="481.38,-626 357.12,-626 357.12,-590 481.38,-590 481.38,-626"/>
<text text-anchor="start" x="367.12" y="-602.58" font-family="Helvetica,sans-Serif" font-size="14.00">1 Attack 3 Slash &#160;</text>
</g>
<!-- JumpThrough&#45;&gt;JumpThrough_weight -->
<g id="edge14" class="edge">
<title>JumpThrough&#45;&gt;JumpThrough_weight</title>
<path fill="none" stroke="#458b74" d="M193.02,-608C238.37,-608 298.72,-608 345.54,-608"/>
<polygon fill="#458b74" stroke="#458b74" points="345.31,-611.5 355.31,-608 345.31,-604.5 345.31,-611.5"/>
<text text-anchor="middle" x="287.38" y="-610.45" font-family="Helvetica,sans-Serif" font-size="14.00" fill="#458b74">Weight</text>
</g>
<!-- AttackParrying -->
<g id="node23" class="node">
<title>AttackParrying</title>
<polygon fill="none" stroke="black" points="75.75,-689 75.75,-710.75 177,-710.75 177,-689 75.75,-689"/>
<text text-anchor="start" x="78.75" y="-694.45" font-family="Helvetica,sans-Serif" font-size="14.00">AttackParrying &#160;</text>
<polygon fill="none" stroke="black" points="75.75,-667.25 75.75,-689 177,-689 177,-667.25 75.75,-667.25"/>
<text text-anchor="start" x="78.75" y="-673.7" font-family="Helvetica,sans-Serif" font-size="12.00" fill="#838b8b">3.42s: Done</text>
<text text-anchor="start" x="143.25" y="-673.7" font-family="Helvetica,sans-Serif" font-size="14.00"> &#160;</text>
</g>
<!-- AttackParrying&#45;&gt;Engaging -->
<g id="edge15" class="edge">
<title>AttackParrying&#45;&gt;Engaging</title>
<path fill="none" stroke="#cdc8b1" d="M184.84,-706.19C239.49,-722.53 320.67,-746.81 371.47,-762.01"/>
<polygon fill="#cdc8b1" stroke="#cdc8b1" points="370.41,-765.35 381,-764.86 372.42,-758.64 370.41,-765.35"/>
</g>
<!-- HurtState -->
<g id="node24" class="node">
<title>HurtState</title>
<polygon fill="none" stroke="black" points="87.38,-1141 87.38,-1162.75 165.38,-1162.75 165.38,-1141 87.38,-1141"/>
<text text-anchor="start" x="94.12" y="-1146.45" font-family="Helvetica,sans-Serif" font-size="14.00">HurtState &#160;</text>
<polygon fill="none" stroke="black" points="87.38,-1119.25 87.38,-1141 165.38,-1141 165.38,-1119.25 87.38,-1119.25"/>
<text text-anchor="start" x="90.38" y="-1125.7" font-family="Helvetica,sans-Serif" font-size="12.00" fill="#838b8b">0.17s: Done</text>
<text text-anchor="start" x="154.88" y="-1125.7" font-family="Helvetica,sans-Serif" font-size="14.00"> &#160;</text>
</g>
<!-- PreAttack -->
<g id="node25" class="node">
<title>PreAttack</title>
<polygon fill="none" stroke="black" points="456.5,-1124 382,-1124 382,-1088 456.5,-1088 456.5,-1124"/>
<text text-anchor="middle" x="419.25" y="-1100.58" font-family="Helvetica,sans-Serif" font-size="14.00">PreAttack</text>
</g>
<!-- HurtState&#45;&gt;PreAttack -->
<g id="edge16" class="edge">
<title>HurtState&#45;&gt;PreAttack</title>
<path fill="none" stroke="#cdc8b1" d="M173.14,-1135.49C227.06,-1129 316.2,-1118.28 370.83,-1111.71"/>
<polygon fill="#cdc8b1" stroke="#cdc8b1" points="370.93,-1115.22 380.44,-1110.55 370.09,-1108.27 370.93,-1115.22"/>
</g>
<!-- Hurt_BigState -->
<g id="node26" class="node">
<title>Hurt_BigState</title>
<polygon fill="none" stroke="black" points="77.62,-1071 77.62,-1092.75 175.12,-1092.75 175.12,-1071 77.62,-1071"/>
<text text-anchor="start" x="80.62" y="-1076.45" font-family="Helvetica,sans-Serif" font-size="14.00">Hurt_BigState &#160;</text>
<polygon fill="none" stroke="black" points="77.62,-1049.25 77.62,-1071 175.12,-1071 175.12,-1049.25 77.62,-1049.25"/>
<text text-anchor="start" x="80.62" y="-1055.7" font-family="Helvetica,sans-Serif" font-size="12.00" fill="#838b8b">1.00s: Done</text>
<text text-anchor="start" x="145.12" y="-1055.7" font-family="Helvetica,sans-Serif" font-size="14.00"> &#160;</text>
</g>
<!-- Hurt_BigState&#45;&gt;PreAttack -->
<g id="edge17" class="edge">
<title>Hurt_BigState&#45;&gt;PreAttack</title>
<path fill="none" stroke="#cdc8b1" d="M183.11,-1077.71C237.4,-1084.24 319.05,-1094.06 370.46,-1100.25"/>
<polygon fill="#cdc8b1" stroke="#cdc8b1" points="369.73,-1103.69 380.07,-1101.41 370.56,-1096.74 369.73,-1103.69"/>
</g>
<!-- Wandering_Idle -->
<g id="node27" class="node">
<title>Wandering_Idle</title>
<polygon fill="none" stroke="black" points="197,-1221 55.75,-1221 55.75,-1185 197,-1185 197,-1221"/>
<text text-anchor="middle" x="126.38" y="-1197.58" font-family="Helvetica,sans-Serif" font-size="14.00">Wandering_Idle (Init)</text>
</g>
</g>
</svg>
