<?xml version="1.0" encoding="UTF-8" standalone="no"?>
<!DOCTYPE svg PUBLIC "-//W3C//DTD SVG 1.1//EN"
 "http://www.w3.org/Graphics/SVG/1.1/DTD/svg11.dtd">
<!-- Generated by graphviz version 12.2.1 (20241206.2353)
 -->
<!-- Title: Foo Pages: 1 -->
<svg width="410pt" height="1374pt"
 viewBox="0.00 0.00 409.75 1374.00" xmlns="http://www.w3.org/2000/svg" xmlns:xlink="http://www.w3.org/1999/xlink">
<g id="graph0" class="graph" transform="scale(1 1) rotate(0) translate(4 1370)">
<title>Foo</title>
<polygon fill="white" stroke="none" points="-4,4 -4,-1370 405.75,-1370 405.75,4 -4,4"/>
<g id="clust1" class="cluster">
<title>cluster_attacksensors</title>
<polygon fill="none" stroke="black" points="8,-8 8,-616 393.75,-616 393.75,-8 8,-8"/>
<text text-anchor="middle" x="200.88" y="-598.7" font-family="Helvetica,sans-Serif" font-size="14.00">Attack Sensors</text>
</g>
<!-- Level Once Sensor -->
<g id="node1" class="node">
<title>Level Once Sensor</title>
<polygon fill="none" stroke="black" points="29.62,-23.12 29.62,-44.88 158.62,-44.88 158.62,-23.12 29.62,-23.12"/>
<text text-anchor="start" x="32.62" y="-28.57" font-family="Helvetica,sans-Serif" font-size="14.00">Level Once Sensor &#160;</text>
</g>
<!-- Level Once Sensor_linked -->
<g id="node2" class="node">
<title>Level Once Sensor_linked</title>
<polygon fill="none" stroke="black" stroke-dasharray="1,5" points="357.73,-52 301.52,-52 301.52,-16 357.73,-16 357.73,-52"/>
<text text-anchor="start" x="307.12" y="-28.57" font-family="Helvetica,sans-Serif" font-size="14.00">Attack &#160;</text>
</g>
<!-- Level Once Sensor&#45;&gt;Level Once Sensor_linked -->
<g id="edge1" class="edge">
<title>Level Once Sensor&#45;&gt;Level Once Sensor_linked</title>
<path fill="none" stroke="#66cdaa" d="M166.45,-34C207.12,-34 256.51,-34 290.01,-34"/>
<polygon fill="#66cdaa" stroke="#66cdaa" points="289.65,-37.5 299.65,-34 289.65,-30.5 289.65,-37.5"/>
<text text-anchor="middle" x="222.88" y="-36.45" font-family="Helvetica,sans-Serif" font-size="14.00" fill="#66cdaa">QueueEnd</text>
</g>
<!-- RunAwaySensor -->
<g id="node3" class="node">
<title>RunAwaySensor</title>
<polygon fill="none" stroke="black" points="37.12,-77.12 37.12,-98.88 151.12,-98.88 151.12,-77.12 37.12,-77.12"/>
<text text-anchor="start" x="40.12" y="-82.58" font-family="Helvetica,sans-Serif" font-size="14.00">RunAwaySensor &#160;</text>
</g>
<!-- AttackSensor -->
<g id="node4" class="node">
<title>AttackSensor</title>
<polygon fill="none" stroke="black" points="47.25,-131.12 47.25,-152.88 141,-152.88 141,-131.12 47.25,-131.12"/>
<text text-anchor="start" x="50.25" y="-136.57" font-family="Helvetica,sans-Serif" font-size="14.00">AttackSensor &#160;</text>
</g>
<!-- AttackSensor_linked -->
<g id="node5" class="node">
<title>AttackSensor_linked</title>
<polygon fill="none" stroke="black" stroke-dasharray="1,5" points="375.73,-156.1 283.52,-156.1 283.52,-69.9 375.73,-69.9 375.73,-156.1"/>
<text text-anchor="start" x="307.12" y="-137.2" font-family="Helvetica,sans-Serif" font-size="14.00">Attack &#160;</text>
<text text-anchor="start" x="289.12" y="-117.45" font-family="Helvetica,sans-Serif" font-size="14.00">RollThrough &#160;</text>
<text text-anchor="start" x="291" y="-97.7" font-family="Helvetica,sans-Serif" font-size="14.00">DangerKick &#160;</text>
<text text-anchor="start" x="307.12" y="-77.95" font-family="Helvetica,sans-Serif" font-size="14.00">Attack &#160;</text>
</g>
<!-- AttackSensor&#45;&gt;AttackSensor_linked -->
<g id="edge2" class="edge">
<title>AttackSensor&#45;&gt;AttackSensor_linked</title>
<path fill="none" stroke="#66cdaa" d="M148.99,-135.31C185.85,-130.73 234.63,-124.67 272.06,-120.03"/>
<polygon fill="#66cdaa" stroke="#66cdaa" points="272.29,-123.52 281.78,-118.82 271.43,-116.58 272.29,-123.52"/>
<text text-anchor="middle" x="222.88" y="-132.55" font-family="Helvetica,sans-Serif" font-size="14.00" fill="#66cdaa">QueueEnd</text>
</g>
<!-- DodgePredictSensor -->
<g id="node6" class="node">
<title>DodgePredictSensor</title>
<polygon fill="none" stroke="black" points="25.12,-204 25.12,-225.75 163.12,-225.75 163.12,-204 25.12,-204"/>
<text text-anchor="start" x="28.12" y="-209.45" font-family="Helvetica,sans-Serif" font-size="14.00">DodgePredictSensor &#160;</text>
<polygon fill="none" stroke="black" points="25.12,-182.25 25.12,-204 163.12,-204 163.12,-182.25 25.12,-182.25"/>
<text text-anchor="start" x="28.12" y="-188.7" font-family="Helvetica,sans-Serif" font-size="12.00" fill="#838b8b">if: rollingCondition</text>
<text text-anchor="start" x="124.88" y="-188.7" font-family="Helvetica,sans-Serif" font-size="14.00"> &#160;</text>
</g>
<!-- DodgePredictSensor_linked -->
<g id="node7" class="node">
<title>DodgePredictSensor_linked</title>
<polygon fill="none" stroke="black" stroke-dasharray="1,5" points="357.73,-210 301.52,-210 301.52,-174 357.73,-174 357.73,-210"/>
<text text-anchor="start" x="307.12" y="-186.57" font-family="Helvetica,sans-Serif" font-size="14.00">Attack &#160;</text>
</g>
<!-- DodgePredictSensor&#45;&gt;DodgePredictSensor_linked -->
<g id="edge3" class="edge">
<title>DodgePredictSensor&#45;&gt;DodgePredictSensor_linked</title>
<path fill="none" stroke="#66cdaa" d="M170.94,-200.1C210.67,-198.06 257.64,-195.65 289.92,-193.99"/>
<polygon fill="#66cdaa" stroke="#66cdaa" points="289.79,-197.5 299.6,-193.49 289.43,-190.51 289.79,-197.5"/>
<text text-anchor="middle" x="222.88" y="-201.52" font-family="Helvetica,sans-Serif" font-size="14.00" fill="#66cdaa">QueueEnd</text>
</g>
<!-- AttackPredictSensor -->
<g id="node8" class="node">
<title>AttackPredictSensor</title>
<polygon fill="none" stroke="black" points="26.25,-275 26.25,-296.75 162,-296.75 162,-275 26.25,-275"/>
<text text-anchor="start" x="29.25" y="-280.45" font-family="Helvetica,sans-Serif" font-size="14.00">AttackPredictSensor &#160;</text>
<polygon fill="none" stroke="black" points="26.25,-253.25 26.25,-275 162,-275 162,-253.25 26.25,-253.25"/>
<text text-anchor="start" x="29.25" y="-259.7" font-family="Helvetica,sans-Serif" font-size="12.00" fill="#838b8b">if: attackCondition</text>
<text text-anchor="start" x="124.5" y="-259.7" font-family="Helvetica,sans-Serif" font-size="14.00"> &#160;</text>
</g>
<!-- AttackPredictSensor_linked -->
<g id="node9" class="node">
<title>AttackPredictSensor_linked</title>
<polygon fill="none" stroke="black" stroke-dasharray="1,5" points="357.73,-264 301.52,-264 301.52,-228 357.73,-228 357.73,-264"/>
<text text-anchor="start" x="307.12" y="-240.57" font-family="Helvetica,sans-Serif" font-size="14.00">Attack &#160;</text>
</g>
<!-- AttackPredictSensor&#45;&gt;AttackPredictSensor_linked -->
<g id="edge4" class="edge">
<title>AttackPredictSensor&#45;&gt;AttackPredictSensor_linked</title>
<path fill="none" stroke="#66cdaa" d="M169.97,-265.7C209.89,-260.75 257.34,-254.85 289.89,-250.81"/>
<polygon fill="#66cdaa" stroke="#66cdaa" points="290.17,-254.3 299.66,-249.6 289.3,-247.36 290.17,-254.3"/>
<text text-anchor="middle" x="222.88" y="-265.55" font-family="Helvetica,sans-Serif" font-size="14.00" fill="#66cdaa">QueueEnd</text>
</g>
<!-- AttackPredictSensor_weight -->
<g id="node10" class="node">
<title>AttackPredictSensor_weight</title>
<polygon fill="none" stroke="black" stroke-dasharray="1,5" points="385.75,-318 273.5,-318 273.5,-282 385.75,-282 385.75,-318"/>
<text text-anchor="start" x="283.5" y="-294.57" font-family="Helvetica,sans-Serif" font-size="14.00">1 RollThrough &#160;</text>
</g>
<!-- AttackPredictSensor&#45;&gt;AttackPredictSensor_weight -->
<g id="edge5" class="edge">
<title>AttackPredictSensor&#45;&gt;AttackPredictSensor_weight</title>
<path fill="none" stroke="#458b74" d="M169.97,-283.01C199.53,-286.18 233.22,-289.79 261.93,-292.86"/>
<polygon fill="#458b74" stroke="#458b74" points="261.25,-296.31 271.57,-293.89 262,-289.35 261.25,-296.31"/>
<text text-anchor="middle" x="222.88" y="-294.36" font-family="Helvetica,sans-Serif" font-size="14.00" fill="#458b74">Weight</text>
</g>
<!-- AttackRunToSensor -->
<g id="node11" class="node">
<title>AttackRunToSensor</title>
<polygon fill="none" stroke="black" points="27.75,-346 27.75,-367.75 160.5,-367.75 160.5,-346 27.75,-346"/>
<text text-anchor="start" x="30.75" y="-351.45" font-family="Helvetica,sans-Serif" font-size="14.00">AttackRunToSensor &#160;</text>
<polygon fill="none" stroke="black" points="27.75,-324.25 27.75,-346 160.5,-346 160.5,-324.25 27.75,-324.25"/>
<text text-anchor="start" x="30.75" y="-330.7" font-family="Helvetica,sans-Serif" font-size="12.00" fill="#838b8b">if: state is Engaging</text>
<text text-anchor="start" x="135" y="-330.7" font-family="Helvetica,sans-Serif" font-size="14.00"> &#160;</text>
</g>
<!-- AttackRunToSensor_linked -->
<g id="node12" class="node">
<title>AttackRunToSensor_linked</title>
<polygon fill="none" stroke="black" stroke-dasharray="1,5" points="357.73,-372 301.52,-372 301.52,-336 357.73,-336 357.73,-372"/>
<text text-anchor="start" x="307.12" y="-348.57" font-family="Helvetica,sans-Serif" font-size="14.00">Attack &#160;</text>
</g>
<!-- AttackRunToSensor&#45;&gt;AttackRunToSensor_linked -->
<g id="edge6" class="edge">
<title>AttackRunToSensor&#45;&gt;AttackRunToSensor_linked</title>
<path fill="none" stroke="#66cdaa" d="M168.37,-348.51C208.51,-349.88 256.66,-351.53 289.63,-352.66"/>
<polygon fill="#66cdaa" stroke="#66cdaa" points="289.43,-356.16 299.54,-353 289.67,-349.16 289.43,-356.16"/>
<text text-anchor="middle" x="222.88" y="-353.86" font-family="Helvetica,sans-Serif" font-size="14.00" fill="#66cdaa">QueueEnd</text>
</g>
<!-- ShootAttackSensor -->
<g id="node13" class="node">
<title>ShootAttackSensor</title>
<polygon fill="none" stroke="black" points="29.62,-397.12 29.62,-418.88 158.62,-418.88 158.62,-397.12 29.62,-397.12"/>
<text text-anchor="start" x="32.62" y="-402.57" font-family="Helvetica,sans-Serif" font-size="14.00">ShootAttackSensor &#160;</text>
</g>
<!-- ShootAttackSensor_linked -->
<g id="node14" class="node">
<title>ShootAttackSensor_linked</title>
<polygon fill="none" stroke="black" stroke-dasharray="1,5" points="381.73,-426 277.52,-426 277.52,-390 381.73,-390 381.73,-426"/>
<text text-anchor="start" x="283.12" y="-402.57" font-family="Helvetica,sans-Serif" font-size="14.00">Attack 3 throw &#160;</text>
</g>
<!-- ShootAttackSensor&#45;&gt;ShootAttackSensor_linked -->
<g id="edge7" class="edge">
<title>ShootAttackSensor&#45;&gt;ShootAttackSensor_linked</title>
<path fill="none" stroke="#66cdaa" d="M166.45,-408C198.2,-408 235.27,-408 265.94,-408"/>
<polygon fill="#66cdaa" stroke="#66cdaa" points="265.85,-411.5 275.85,-408 265.85,-404.5 265.85,-411.5"/>
<text text-anchor="middle" x="222.88" y="-410.45" font-family="Helvetica,sans-Serif" font-size="14.00" fill="#66cdaa">QueueEnd</text>
</g>
<!-- AttackUpSensor -->
<g id="node15" class="node">
<title>AttackUpSensor</title>
<polygon fill="none" stroke="black" points="24,-470 24,-491.75 164.25,-491.75 164.25,-470 24,-470"/>
<text text-anchor="start" x="41.62" y="-475.45" font-family="Helvetica,sans-Serif" font-size="14.00">AttackUpSensor &#160;</text>
<polygon fill="none" stroke="black" points="24,-448.25 24,-470 164.25,-470 164.25,-448.25 24,-448.25"/>
<text text-anchor="start" x="27" y="-454.7" font-family="Helvetica,sans-Serif" font-size="12.00" fill="#838b8b">if not: block PlayerJump</text>
<text text-anchor="start" x="153.75" y="-454.7" font-family="Helvetica,sans-Serif" font-size="14.00"> &#160;</text>
</g>
<!-- AttackUpSensor_linked -->
<g id="node16" class="node">
<title>AttackUpSensor_linked</title>
<polygon fill="none" stroke="black" stroke-dasharray="1,5" points="357.73,-480 301.52,-480 301.52,-444 357.73,-444 357.73,-480"/>
<text text-anchor="start" x="307.12" y="-456.57" font-family="Helvetica,sans-Serif" font-size="14.00">Attack &#160;</text>
</g>
<!-- AttackUpSensor&#45;&gt;AttackUpSensor_linked -->
<g id="edge8" class="edge">
<title>AttackUpSensor&#45;&gt;AttackUpSensor_linked</title>
<path fill="none" stroke="#66cdaa" d="M172.23,-467.36C211.57,-466.01 257.73,-464.43 289.65,-463.34"/>
<polygon fill="#66cdaa" stroke="#66cdaa" points="289.76,-466.83 299.63,-462.99 289.52,-459.84 289.76,-466.83"/>
<text text-anchor="middle" x="222.88" y="-469.17" font-family="Helvetica,sans-Serif" font-size="14.00" fill="#66cdaa">QueueEnd</text>
</g>
<!-- AttackDownSensor -->
<g id="node17" class="node">
<title>AttackDownSensor</title>
<polygon fill="none" stroke="black" points="30,-530.12 30,-551.88 158.25,-551.88 158.25,-530.12 30,-530.12"/>
<text text-anchor="start" x="33" y="-535.58" font-family="Helvetica,sans-Serif" font-size="14.00">AttackDownSensor &#160;</text>
</g>
<!-- AttackDownSensor_linked -->
<g id="node18" class="node">
<title>AttackDownSensor_linked</title>
<polygon fill="none" stroke="black" stroke-dasharray="1,5" points="375.73,-584.1 283.52,-584.1 283.52,-497.9 375.73,-497.9 375.73,-584.1"/>
<text text-anchor="start" x="307.12" y="-565.2" font-family="Helvetica,sans-Serif" font-size="14.00">Attack &#160;</text>
<text text-anchor="start" x="289.12" y="-545.45" font-family="Helvetica,sans-Serif" font-size="14.00">RollThrough &#160;</text>
<text text-anchor="start" x="291" y="-525.7" font-family="Helvetica,sans-Serif" font-size="14.00">DangerKick &#160;</text>
<text text-anchor="start" x="307.12" y="-505.95" font-family="Helvetica,sans-Serif" font-size="14.00">Attack &#160;</text>
</g>
<!-- AttackDownSensor&#45;&gt;AttackDownSensor_linked -->
<g id="edge9" class="edge">
<title>AttackDownSensor&#45;&gt;AttackDownSensor_linked</title>
<path fill="none" stroke="#66cdaa" d="M166.13,-541C200.07,-541 240.13,-541 271.99,-541"/>
<polygon fill="#66cdaa" stroke="#66cdaa" points="271.81,-544.5 281.81,-541 271.81,-537.5 271.81,-544.5"/>
<text text-anchor="middle" x="222.88" y="-543.45" font-family="Helvetica,sans-Serif" font-size="14.00" fill="#66cdaa">QueueEnd</text>
</g>
<!-- Attack -->
<g id="node19" class="node">
<title>Attack</title>
<polygon fill="none" stroke="black" points="34.12,-1076.12 34.12,-1097.88 154.12,-1097.88 154.12,-1076.12 34.12,-1076.12"/>
<text text-anchor="start" x="71.62" y="-1081.58" font-family="Helvetica,sans-Serif" font-size="14.00">Attack &#160;</text>
<polygon fill="none" stroke="black" points="34.12,-1032.12 34.12,-1076.12 154.12,-1076.12 154.12,-1032.12 34.12,-1032.12"/>
<text text-anchor="start" x="37.12" y="-1062.72" font-family="Helvetica,sans-Serif" font-size="12.00" fill="#838b8b">1.15s: ResetEvaluate</text>
<text text-anchor="start" x="37.12" y="-1050.72" font-family="Helvetica,sans-Serif" font-size="12.00" fill="#838b8b">1.43s: LinkNextMove</text>
<text text-anchor="start" x="37.12" y="-1036.82" font-family="Helvetica,sans-Serif" font-size="12.00" fill="#838b8b">1.60s: Done</text>
<text text-anchor="start" x="101.62" y="-1036.82" font-family="Helvetica,sans-Serif" font-size="14.00"> &#160;</text>
</g>
<!-- Engaging -->
<g id="node20" class="node">
<title>Engaging</title>
<polygon fill="none" stroke="black" points="366.12,-855 293.12,-855 293.12,-819 366.12,-819 366.12,-855"/>
<text text-anchor="middle" x="329.62" y="-831.58" font-family="Helvetica,sans-Serif" font-size="14.00">Engaging</text>
</g>
<!-- Attack&#45;&gt;Engaging -->
<g id="edge10" class="edge">
<title>Attack&#45;&gt;Engaging</title>
<path fill="none" stroke="#cdc8b1" d="M160.17,-1028.35C164.36,-1025.34 168.43,-1022.21 172.25,-1019 228.97,-971.29 282.38,-901.98 309.69,-864.15"/>
<polygon fill="#cdc8b1" stroke="#cdc8b1" points="312.21,-866.64 315.17,-856.47 306.51,-862.57 312.21,-866.64"/>
</g>
<!-- Attack_linked -->
<g id="node21" class="node">
<title>Attack_linked</title>
<polygon fill="none" stroke="black" stroke-dasharray="1,5" points="375.73,-1117.97 283.52,-1117.97 283.52,-1012.02 375.73,-1012.02 375.73,-1117.97"/>
<text text-anchor="start" x="297.38" y="-1099.08" font-family="Helvetica,sans-Serif" font-size="14.00">Engaging &#160;</text>
<text text-anchor="start" x="297.38" y="-1079.33" font-family="Helvetica,sans-Serif" font-size="14.00">Engaging &#160;</text>
<text text-anchor="start" x="297.38" y="-1059.58" font-family="Helvetica,sans-Serif" font-size="14.00">Engaging &#160;</text>
<text text-anchor="start" x="291" y="-1039.83" font-family="Helvetica,sans-Serif" font-size="14.00">DangerKick &#160;</text>
<text text-anchor="start" x="289.12" y="-1020.08" font-family="Helvetica,sans-Serif" font-size="14.00">RollThrough &#160;</text>
</g>
<!-- Attack&#45;&gt;Attack_linked -->
<g id="edge11" class="edge">
<title>Attack&#45;&gt;Attack_linked</title>
<path fill="none" stroke="#66cdaa" d="M162.04,-1065C196.76,-1065 238.71,-1065 271.83,-1065"/>
<polygon fill="#66cdaa" stroke="#66cdaa" points="271.64,-1068.5 281.64,-1065 271.64,-1061.5 271.64,-1068.5"/>
<text text-anchor="middle" x="222.88" y="-1067.45" font-family="Helvetica,sans-Serif" font-size="14.00" fill="#66cdaa">QueueEnd</text>
</g>
<!-- DangerKick -->
<g id="node22" class="node">
<title>DangerKick</title>
<polygon fill="none" stroke="black" points="34.12,-984.12 34.12,-1005.88 154.12,-1005.88 154.12,-984.12 34.12,-984.12"/>
<text text-anchor="start" x="55.5" y="-989.58" font-family="Helvetica,sans-Serif" font-size="14.00">DangerKick &#160;</text>
<polygon fill="none" stroke="black" points="34.12,-928.12 34.12,-984.12 154.12,-984.12 154.12,-928.12 34.12,-928.12"/>
<text text-anchor="start" x="37.12" y="-970.73" font-family="Helvetica,sans-Serif" font-size="12.00" fill="#838b8b">0.00s: DisableGravity</text>
<text text-anchor="start" x="37.12" y="-958.73" font-family="Helvetica,sans-Serif" font-size="12.00" fill="#838b8b">0.00s: EnableGravity</text>
<text text-anchor="start" x="37.12" y="-946.73" font-family="Helvetica,sans-Serif" font-size="12.00" fill="#838b8b">1.00s: ResetEvaluate</text>
<text text-anchor="start" x="37.12" y="-932.83" font-family="Helvetica,sans-Serif" font-size="12.00" fill="#838b8b">1.33s: Done</text>
<text text-anchor="start" x="101.62" y="-932.83" font-family="Helvetica,sans-Serif" font-size="14.00"> &#160;</text>
</g>
<!-- DangerKick&#45;&gt;Engaging -->
<g id="edge12" class="edge">
<title>DangerKick&#45;&gt;Engaging</title>
<path fill="none" stroke="#cdc8b1" d="M162.04,-929.75C201.78,-907.62 251,-880.22 285.6,-860.95"/>
<polygon fill="#cdc8b1" stroke="#cdc8b1" points="287.04,-864.16 294.08,-856.23 283.64,-858.04 287.04,-864.16"/>
</g>
<!-- Attack 3 throw -->
<g id="node23" class="node">
<title>Attack 3 throw</title>
<polygon fill="none" stroke="black" points="35.25,-880.12 35.25,-901.88 153,-901.88 153,-880.12 35.25,-880.12"/>
<text text-anchor="start" x="47.62" y="-885.58" font-family="Helvetica,sans-Serif" font-size="14.00">Attack 3 throw &#160;</text>
<polygon fill="none" stroke="black" points="35.25,-848.12 35.25,-880.12 153,-880.12 153,-848.12 35.25,-848.12"/>
<text text-anchor="start" x="38.25" y="-866.73" font-family="Helvetica,sans-Serif" font-size="12.00" fill="#838b8b">0.65s: LinkNextMove</text>
<text text-anchor="start" x="38.25" y="-852.83" font-family="Helvetica,sans-Serif" font-size="12.00" fill="#838b8b">1.23s: Done</text>
<text text-anchor="start" x="102.75" y="-852.83" font-family="Helvetica,sans-Serif" font-size="14.00"> &#160;</text>
</g>
<!-- Attack 3 throw&#45;&gt;Engaging -->
<g id="edge13" class="edge">
<title>Attack 3 throw&#45;&gt;Engaging</title>
<path fill="none" stroke="#cdc8b1" d="M160.79,-864.31C199.21,-858.06 246.82,-850.31 281.5,-844.67"/>
<polygon fill="#cdc8b1" stroke="#cdc8b1" points="281.94,-848.14 291.25,-843.08 280.81,-841.23 281.94,-848.14"/>
</g>
<!-- JumpAttack -->
<g id="node24" class="node">
<title>JumpAttack</title>
<polygon fill="none" stroke="black" points="51.75,-800 51.75,-821.75 136.5,-821.75 136.5,-800 51.75,-800"/>
<text text-anchor="start" x="54.75" y="-805.45" font-family="Helvetica,sans-Serif" font-size="14.00">JumpAttack &#160;</text>
<polygon fill="none" stroke="black" points="51.75,-778.25 51.75,-800 136.5,-800 136.5,-778.25 51.75,-778.25"/>
<text text-anchor="start" x="54.75" y="-784.7" font-family="Helvetica,sans-Serif" font-size="12.00" fill="#838b8b">1.50s: Done</text>
<text text-anchor="start" x="119.25" y="-784.7" font-family="Helvetica,sans-Serif" font-size="14.00"> &#160;</text>
</g>
<!-- JumpAttack&#45;&gt;Engaging -->
<g id="edge14" class="edge">
<title>JumpAttack&#45;&gt;Engaging</title>
<path fill="none" stroke="#cdc8b1" d="M144.36,-807.8C184.79,-814.21 241.68,-823.22 281.52,-829.54"/>
<polygon fill="#cdc8b1" stroke="#cdc8b1" points="280.87,-832.98 291.29,-831.08 281.96,-826.06 280.87,-832.98"/>
</g>
<!-- DownAttack -->
<g id="node25" class="node">
<title>DownAttack</title>
<polygon fill="none" stroke="black" points="51.38,-730 51.38,-751.75 136.88,-751.75 136.88,-730 51.38,-730"/>
<text text-anchor="start" x="54.38" y="-735.45" font-family="Helvetica,sans-Serif" font-size="14.00">DownAttack &#160;</text>
<polygon fill="none" stroke="black" points="51.38,-708.25 51.38,-730 136.88,-730 136.88,-708.25 51.38,-708.25"/>
<text text-anchor="start" x="54.38" y="-714.7" font-family="Helvetica,sans-Serif" font-size="12.00" fill="#838b8b">1.08s: Done</text>
<text text-anchor="start" x="118.88" y="-714.7" font-family="Helvetica,sans-Serif" font-size="14.00"> &#160;</text>
</g>
<!-- DownAttack&#45;&gt;Engaging -->
<g id="edge15" class="edge">
<title>DownAttack&#45;&gt;Engaging</title>
<path fill="none" stroke="#cdc8b1" d="M144.52,-752.37C153.74,-756.56 163.29,-760.9 172.25,-765 209.37,-781.97 251.39,-801.32 282.51,-815.69"/>
<polygon fill="#cdc8b1" stroke="#cdc8b1" points="280.71,-818.71 291.25,-819.72 283.64,-812.35 280.71,-818.71"/>
</g>
<!-- HurtState -->
<g id="node26" class="node">
<title>HurtState</title>
<polygon fill="none" stroke="black" points="55.12,-1286 55.12,-1307.75 133.12,-1307.75 133.12,-1286 55.12,-1286"/>
<text text-anchor="start" x="61.88" y="-1291.45" font-family="Helvetica,sans-Serif" font-size="14.00">HurtState &#160;</text>
<polygon fill="none" stroke="black" points="55.12,-1264.25 55.12,-1286 133.12,-1286 133.12,-1264.25 55.12,-1264.25"/>
<text text-anchor="start" x="58.12" y="-1270.7" font-family="Helvetica,sans-Serif" font-size="12.00" fill="#838b8b">0.17s: Done</text>
<text text-anchor="start" x="122.62" y="-1270.7" font-family="Helvetica,sans-Serif" font-size="14.00"> &#160;</text>
</g>
<!-- PreAttack -->
<g id="node27" class="node">
<title>PreAttack</title>
<polygon fill="none" stroke="black" points="366.88,-1234 292.38,-1234 292.38,-1198 366.88,-1198 366.88,-1234"/>
<text text-anchor="middle" x="329.62" y="-1210.58" font-family="Helvetica,sans-Serif" font-size="14.00">PreAttack</text>
</g>
<!-- HurtState&#45;&gt;PreAttack -->
<g id="edge16" class="edge">
<title>HurtState&#45;&gt;PreAttack</title>
<path fill="none" stroke="#cdc8b1" d="M140.98,-1272.25C181.49,-1260.11 240.33,-1242.47 281.29,-1230.19"/>
<polygon fill="#cdc8b1" stroke="#cdc8b1" points="282.05,-1233.62 290.62,-1227.39 280.04,-1226.91 282.05,-1233.62"/>
</g>
<!-- Hurt_BigState -->
<g id="node28" class="node">
<title>Hurt_BigState</title>
<polygon fill="none" stroke="black" points="45.38,-1216 45.38,-1237.75 142.88,-1237.75 142.88,-1216 45.38,-1216"/>
<text text-anchor="start" x="48.38" y="-1221.45" font-family="Helvetica,sans-Serif" font-size="14.00">Hurt_BigState &#160;</text>
<polygon fill="none" stroke="black" points="45.38,-1194.25 45.38,-1216 142.88,-1216 142.88,-1194.25 45.38,-1194.25"/>
<text text-anchor="start" x="48.38" y="-1200.7" font-family="Helvetica,sans-Serif" font-size="12.00" fill="#838b8b">1.00s: Done</text>
<text text-anchor="start" x="112.88" y="-1200.7" font-family="Helvetica,sans-Serif" font-size="14.00"> &#160;</text>
</g>
<!-- Hurt_BigState&#45;&gt;PreAttack -->
<g id="edge17" class="edge">
<title>Hurt_BigState&#45;&gt;PreAttack</title>
<path fill="none" stroke="#cdc8b1" d="M150.76,-1216C190.36,-1216 243.04,-1216 280.77,-1216"/>
<polygon fill="#cdc8b1" stroke="#cdc8b1" points="280.46,-1219.5 290.46,-1216 280.46,-1212.5 280.46,-1219.5"/>
</g>
<!-- PostureBreak -->
<g id="node29" class="node">
<title>PostureBreak</title>
<polygon fill="none" stroke="black" points="46.5,-1146 46.5,-1167.75 141.75,-1167.75 141.75,-1146 46.5,-1146"/>
<text text-anchor="start" x="49.5" y="-1151.45" font-family="Helvetica,sans-Serif" font-size="14.00">PostureBreak &#160;</text>
<polygon fill="none" stroke="black" points="46.5,-1124.25 46.5,-1146 141.75,-1146 141.75,-1124.25 46.5,-1124.25"/>
<text text-anchor="start" x="49.5" y="-1130.7" font-family="Helvetica,sans-Serif" font-size="12.00" fill="#838b8b">1.50s: Done</text>
<text text-anchor="start" x="114" y="-1130.7" font-family="Helvetica,sans-Serif" font-size="14.00"> &#160;</text>
</g>
<!-- PostureBreak&#45;&gt;PreAttack -->
<g id="edge18" class="edge">
<title>PostureBreak&#45;&gt;PreAttack</title>
<path fill="none" stroke="#cdc8b1" d="M149.58,-1162.32C189.44,-1174.27 243,-1190.33 281.13,-1201.76"/>
<polygon fill="#cdc8b1" stroke="#cdc8b1" points="279.91,-1205.05 290.5,-1204.57 281.92,-1198.35 279.91,-1205.05"/>
</g>
<!-- RollThrough -->
<g id="node30" class="node">
<title>RollThrough</title>
<polygon fill="none" stroke="black" points="35.25,-660.12 35.25,-681.88 153,-681.88 153,-660.12 35.25,-660.12"/>
<text text-anchor="start" x="53.62" y="-665.58" font-family="Helvetica,sans-Serif" font-size="14.00">RollThrough &#160;</text>
<polygon fill="none" stroke="black" points="35.25,-628.12 35.25,-660.12 153,-660.12 153,-628.12 35.25,-628.12"/>
<text text-anchor="start" x="38.25" y="-646.73" font-family="Helvetica,sans-Serif" font-size="12.00" fill="#838b8b">0.50s: LinkNextMove</text>
<text text-anchor="start" x="38.25" y="-632.83" font-family="Helvetica,sans-Serif" font-size="12.00" fill="#838b8b">0.58s: Done</text>
<text text-anchor="start" x="102.75" y="-632.83" font-family="Helvetica,sans-Serif" font-size="14.00"> &#160;</text>
</g>
<!-- RollThrough&#45;&gt;Engaging -->
<g id="edge19" class="edge">
<title>RollThrough&#45;&gt;Engaging</title>
<path fill="none" stroke="#cdc8b1" d="M157.82,-685.74C162.8,-688.71 167.67,-691.81 172.25,-695 222.88,-730.22 274.48,-780.46 303.92,-810.77"/>
<polygon fill="#cdc8b1" stroke="#cdc8b1" points="301.11,-812.9 310.57,-817.68 306.15,-808.04 301.11,-812.9"/>
</g>
<!-- RollThrough_linked -->
<g id="node31" class="node">
<title>RollThrough_linked</title>
<polygon fill="none" stroke="black" stroke-dasharray="1,5" points="381.73,-678.35 277.52,-678.35 277.52,-631.65 381.73,-631.65 381.73,-678.35"/>
<text text-anchor="start" x="297.38" y="-659.45" font-family="Helvetica,sans-Serif" font-size="14.00">Engaging &#160;</text>
<text text-anchor="start" x="283.12" y="-639.7" font-family="Helvetica,sans-Serif" font-size="14.00">Attack 3 throw &#160;</text>
</g>
<!-- RollThrough&#45;&gt;RollThrough_linked -->
<g id="edge20" class="edge">
<title>RollThrough&#45;&gt;RollThrough_linked</title>
<path fill="none" stroke="#66cdaa" d="M160.79,-655C193.73,-655 233.43,-655 265.95,-655"/>
<polygon fill="#66cdaa" stroke="#66cdaa" points="265.61,-658.5 275.61,-655 265.61,-651.5 265.61,-658.5"/>
<text text-anchor="middle" x="222.88" y="-657.45" font-family="Helvetica,sans-Serif" font-size="14.00" fill="#66cdaa">QueueEnd</text>
</g>
<!-- Wandering_Idle -->
<g id="node32" class="node">
<title>Wandering_Idle</title>
<polygon fill="none" stroke="black" points="164.75,-1366 23.5,-1366 23.5,-1330 164.75,-1330 164.75,-1366"/>
<text text-anchor="middle" x="94.12" y="-1342.58" font-family="Helvetica,sans-Serif" font-size="14.00">Wandering_Idle (Init)</text>
</g>
</g>
</svg>
