<?xml version="1.0" encoding="UTF-8" standalone="no"?>
<!DOCTYPE svg PUBLIC "-//W3C//DTD SVG 1.1//EN"
 "http://www.w3.org/Graphics/SVG/1.1/DTD/svg11.dtd">
<!-- Generated by graphviz version 12.2.1 (20241206.2353)
 -->
<!-- Title: Foo Pages: 1 -->
<svg width="399pt" height="1536pt"
 viewBox="0.00 0.00 399.45 1535.88" xmlns="http://www.w3.org/2000/svg" xmlns:xlink="http://www.w3.org/1999/xlink">
<g id="graph0" class="graph" transform="scale(1 1) rotate(0) translate(4 1531.88)">
<title>Foo</title>
<polygon fill="white" stroke="none" points="-4,4 -4,-1531.88 395.45,-1531.88 395.45,4 -4,4"/>
<g id="clust1" class="cluster">
<title>cluster_attacksensors</title>
<polygon fill="none" stroke="black" points="8,-749.88 8,-1519.88 383.45,-1519.88 383.45,-749.88 8,-749.88"/>
<text text-anchor="middle" x="195.72" y="-1502.58" font-family="Helvetica,sans-Serif" font-size="14.00">Attack Sensors</text>
</g>
<!-- Attack -->
<g id="node1" class="node">
<title>Attack</title>
<polygon fill="none" stroke="black" points="33,-452 33,-473.75 153,-473.75 153,-452 33,-452"/>
<text text-anchor="start" x="70.5" y="-457.45" font-family="Helvetica,sans-Serif" font-size="14.00">Attack &#160;</text>
<polygon fill="none" stroke="black" points="33,-408 33,-452 153,-452 153,-408 33,-408"/>
<text text-anchor="start" x="36" y="-438.6" font-family="Helvetica,sans-Serif" font-size="12.00" fill="#838b8b">1.15s: ResetEvaluate</text>
<text text-anchor="start" x="36" y="-426.6" font-family="Helvetica,sans-Serif" font-size="12.00" fill="#838b8b">1.43s: LinkNextMove</text>
<text text-anchor="start" x="36" y="-412.7" font-family="Helvetica,sans-Serif" font-size="12.00" fill="#838b8b">1.60s: Done</text>
<text text-anchor="start" x="100.5" y="-412.7" font-family="Helvetica,sans-Serif" font-size="14.00"> &#160;</text>
</g>
<!-- Engaging -->
<g id="node2" class="node">
<title>Engaging</title>
<polygon fill="none" stroke="black" points="359.85,-230.88 286.85,-230.88 286.85,-194.88 359.85,-194.88 359.85,-230.88"/>
<text text-anchor="middle" x="323.35" y="-207.45" font-family="Helvetica,sans-Serif" font-size="14.00">Engaging</text>
</g>
<!-- Attack&#45;&gt;Engaging -->
<g id="edge1" class="edge">
<title>Attack&#45;&gt;Engaging</title>
<path fill="none" stroke="#cdc8b1" d="M158.13,-404.23C162.26,-401.22 166.25,-398.09 170,-394.88 225.41,-347.34 277.09,-278.43 303.67,-240.5"/>
<polygon fill="#cdc8b1" stroke="#cdc8b1" points="306.5,-242.57 309.32,-232.35 300.74,-238.58 306.5,-242.57"/>
</g>
<!-- Attack_linked -->
<g id="node3" class="node">
<title>Attack_linked</title>
<polygon fill="none" stroke="black" stroke-dasharray="1,5" points="369.45,-493.85 277.25,-493.85 277.25,-387.9 369.45,-387.9 369.45,-493.85"/>
<text text-anchor="start" x="291.1" y="-474.95" font-family="Helvetica,sans-Serif" font-size="14.00">Engaging &#160;</text>
<text text-anchor="start" x="291.1" y="-455.2" font-family="Helvetica,sans-Serif" font-size="14.00">Engaging &#160;</text>
<text text-anchor="start" x="291.1" y="-435.45" font-family="Helvetica,sans-Serif" font-size="14.00">Engaging &#160;</text>
<text text-anchor="start" x="284.72" y="-415.7" font-family="Helvetica,sans-Serif" font-size="14.00">DangerKick &#160;</text>
<text text-anchor="start" x="282.85" y="-395.95" font-family="Helvetica,sans-Serif" font-size="14.00">RollThrough &#160;</text>
</g>
<!-- Attack&#45;&gt;Attack_linked -->
<g id="edge2" class="edge">
<title>Attack&#45;&gt;Attack_linked</title>
<path fill="none" stroke="#66cdaa" d="M160.97,-440.88C194.26,-440.88 234.04,-440.88 265.78,-440.88"/>
<polygon fill="#66cdaa" stroke="#66cdaa" points="265.57,-444.38 275.57,-440.88 265.57,-437.38 265.57,-444.38"/>
<text text-anchor="middle" x="220.62" y="-443.32" font-family="Helvetica,sans-Serif" font-size="14.00" fill="#66cdaa">QueueEnd</text>
</g>
<!-- DangerKick -->
<g id="node4" class="node">
<title>DangerKick</title>
<polygon fill="none" stroke="black" points="33,-360 33,-381.75 153,-381.75 153,-360 33,-360"/>
<text text-anchor="start" x="54.38" y="-365.45" font-family="Helvetica,sans-Serif" font-size="14.00">DangerKick &#160;</text>
<polygon fill="none" stroke="black" points="33,-304 33,-360 153,-360 153,-304 33,-304"/>
<text text-anchor="start" x="36" y="-346.6" font-family="Helvetica,sans-Serif" font-size="12.00" fill="#838b8b">0.00s: DisableGravity</text>
<text text-anchor="start" x="36" y="-334.6" font-family="Helvetica,sans-Serif" font-size="12.00" fill="#838b8b">0.00s: EnableGravity</text>
<text text-anchor="start" x="36" y="-322.6" font-family="Helvetica,sans-Serif" font-size="12.00" fill="#838b8b">1.00s: ResetEvaluate</text>
<text text-anchor="start" x="36" y="-308.7" font-family="Helvetica,sans-Serif" font-size="12.00" fill="#838b8b">1.33s: Done</text>
<text text-anchor="start" x="100.5" y="-308.7" font-family="Helvetica,sans-Serif" font-size="14.00"> &#160;</text>
</g>
<!-- DangerKick&#45;&gt;Engaging -->
<g id="edge3" class="edge">
<title>DangerKick&#45;&gt;Engaging</title>
<path fill="none" stroke="#cdc8b1" d="M160.97,-304.75C199.49,-282.82 246.71,-255.93 280.1,-236.93"/>
<polygon fill="#cdc8b1" stroke="#cdc8b1" points="281.72,-240.04 288.68,-232.05 278.25,-233.95 281.72,-240.04"/>
</g>
<!-- Attack 3 throw -->
<g id="node5" class="node">
<title>Attack 3 throw</title>
<polygon fill="none" stroke="black" points="34.12,-256 34.12,-277.75 151.88,-277.75 151.88,-256 34.12,-256"/>
<text text-anchor="start" x="46.5" y="-261.45" font-family="Helvetica,sans-Serif" font-size="14.00">Attack 3 throw &#160;</text>
<polygon fill="none" stroke="black" points="34.12,-224 34.12,-256 151.88,-256 151.88,-224 34.12,-224"/>
<text text-anchor="start" x="37.12" y="-242.6" font-family="Helvetica,sans-Serif" font-size="12.00" fill="#838b8b">0.65s: LinkNextMove</text>
<text text-anchor="start" x="37.12" y="-228.7" font-family="Helvetica,sans-Serif" font-size="12.00" fill="#838b8b">1.23s: Done</text>
<text text-anchor="start" x="101.62" y="-228.7" font-family="Helvetica,sans-Serif" font-size="14.00"> &#160;</text>
</g>
<!-- Attack 3 throw&#45;&gt;Engaging -->
<g id="edge4" class="edge">
<title>Attack 3 throw&#45;&gt;Engaging</title>
<path fill="none" stroke="#cdc8b1" d="M159.74,-239.93C196.63,-233.8 241.8,-226.28 275.17,-220.73"/>
<polygon fill="#cdc8b1" stroke="#cdc8b1" points="275.66,-224.19 284.95,-219.1 274.51,-217.29 275.66,-224.19"/>
</g>
<!-- JumpAttack -->
<g id="node6" class="node">
<title>JumpAttack</title>
<polygon fill="none" stroke="black" points="50.62,-175.88 50.62,-197.62 135.38,-197.62 135.38,-175.88 50.62,-175.88"/>
<text text-anchor="start" x="53.62" y="-181.32" font-family="Helvetica,sans-Serif" font-size="14.00">JumpAttack &#160;</text>
<polygon fill="none" stroke="black" points="50.62,-154.12 50.62,-175.88 135.38,-175.88 135.38,-154.12 50.62,-154.12"/>
<text text-anchor="start" x="53.62" y="-160.57" font-family="Helvetica,sans-Serif" font-size="12.00" fill="#838b8b">1.50s: Done</text>
<text text-anchor="start" x="118.12" y="-160.57" font-family="Helvetica,sans-Serif" font-size="14.00"> &#160;</text>
</g>
<!-- JumpAttack&#45;&gt;Engaging -->
<g id="edge5" class="edge">
<title>JumpAttack&#45;&gt;Engaging</title>
<path fill="none" stroke="#cdc8b1" d="M143.27,-183.86C182.53,-190.22 237.12,-199.06 275.68,-205.31"/>
<polygon fill="#cdc8b1" stroke="#cdc8b1" points="274.68,-208.7 285.11,-206.84 275.8,-201.79 274.68,-208.7"/>
</g>
<!-- DownAttack -->
<g id="node7" class="node">
<title>DownAttack</title>
<polygon fill="none" stroke="black" points="50.25,-105.88 50.25,-127.62 135.75,-127.62 135.75,-105.88 50.25,-105.88"/>
<text text-anchor="start" x="53.25" y="-111.33" font-family="Helvetica,sans-Serif" font-size="14.00">DownAttack &#160;</text>
<polygon fill="none" stroke="black" points="50.25,-84.12 50.25,-105.88 135.75,-105.88 135.75,-84.12 50.25,-84.12"/>
<text text-anchor="start" x="53.25" y="-90.58" font-family="Helvetica,sans-Serif" font-size="12.00" fill="#838b8b">1.08s: Done</text>
<text text-anchor="start" x="117.75" y="-90.58" font-family="Helvetica,sans-Serif" font-size="14.00"> &#160;</text>
</g>
<!-- DownAttack&#45;&gt;Engaging -->
<g id="edge6" class="edge">
<title>DownAttack&#45;&gt;Engaging</title>
<path fill="none" stroke="#cdc8b1" d="M143.5,-128.58C152.33,-132.66 161.44,-136.88 170,-140.88 205.69,-157.53 245.98,-176.58 276.15,-190.9"/>
<polygon fill="#cdc8b1" stroke="#cdc8b1" points="274.48,-193.98 285.01,-195.1 277.48,-187.65 274.48,-193.98"/>
</g>
<!-- HurtState -->
<g id="node8" class="node">
<title>HurtState</title>
<polygon fill="none" stroke="black" points="54,-661.88 54,-683.62 132,-683.62 132,-661.88 54,-661.88"/>
<text text-anchor="start" x="60.75" y="-667.33" font-family="Helvetica,sans-Serif" font-size="14.00">HurtState &#160;</text>
<polygon fill="none" stroke="black" points="54,-640.12 54,-661.88 132,-661.88 132,-640.12 54,-640.12"/>
<text text-anchor="start" x="57" y="-646.58" font-family="Helvetica,sans-Serif" font-size="12.00" fill="#838b8b">0.17s: Done</text>
<text text-anchor="start" x="121.5" y="-646.58" font-family="Helvetica,sans-Serif" font-size="14.00"> &#160;</text>
</g>
<!-- PreAttack -->
<g id="node9" class="node">
<title>PreAttack</title>
<polygon fill="none" stroke="black" points="360.6,-609.88 286.1,-609.88 286.1,-573.88 360.6,-573.88 360.6,-609.88"/>
<text text-anchor="middle" x="323.35" y="-586.45" font-family="Helvetica,sans-Serif" font-size="14.00">PreAttack</text>
</g>
<!-- HurtState&#45;&gt;PreAttack -->
<g id="edge7" class="edge">
<title>HurtState&#45;&gt;PreAttack</title>
<path fill="none" stroke="#cdc8b1" d="M139.94,-647.79C179.14,-635.78 235.29,-618.56 274.92,-606.42"/>
<polygon fill="#cdc8b1" stroke="#cdc8b1" points="275.9,-609.78 284.43,-603.5 273.85,-603.08 275.9,-609.78"/>
</g>
<!-- Hurt_BigState -->
<g id="node10" class="node">
<title>Hurt_BigState</title>
<polygon fill="none" stroke="black" points="44.25,-591.88 44.25,-613.62 141.75,-613.62 141.75,-591.88 44.25,-591.88"/>
<text text-anchor="start" x="47.25" y="-597.33" font-family="Helvetica,sans-Serif" font-size="14.00">Hurt_BigState &#160;</text>
<polygon fill="none" stroke="black" points="44.25,-570.12 44.25,-591.88 141.75,-591.88 141.75,-570.12 44.25,-570.12"/>
<text text-anchor="start" x="47.25" y="-576.58" font-family="Helvetica,sans-Serif" font-size="12.00" fill="#838b8b">1.00s: Done</text>
<text text-anchor="start" x="111.75" y="-576.58" font-family="Helvetica,sans-Serif" font-size="14.00"> &#160;</text>
</g>
<!-- Hurt_BigState&#45;&gt;PreAttack -->
<g id="edge8" class="edge">
<title>Hurt_BigState&#45;&gt;PreAttack</title>
<path fill="none" stroke="#cdc8b1" d="M149.57,-591.88C187.81,-591.88 238.08,-591.88 274.53,-591.88"/>
<polygon fill="#cdc8b1" stroke="#cdc8b1" points="274.33,-595.38 284.33,-591.88 274.33,-588.38 274.33,-595.38"/>
</g>
<!-- PostureBreak -->
<g id="node11" class="node">
<title>PostureBreak</title>
<polygon fill="none" stroke="black" points="45.38,-521.88 45.38,-543.62 140.62,-543.62 140.62,-521.88 45.38,-521.88"/>
<text text-anchor="start" x="48.38" y="-527.33" font-family="Helvetica,sans-Serif" font-size="14.00">PostureBreak &#160;</text>
<polygon fill="none" stroke="black" points="45.38,-500.12 45.38,-521.88 140.62,-521.88 140.62,-500.12 45.38,-500.12"/>
<text text-anchor="start" x="48.38" y="-506.57" font-family="Helvetica,sans-Serif" font-size="12.00" fill="#838b8b">1.50s: Done</text>
<text text-anchor="start" x="112.88" y="-506.57" font-family="Helvetica,sans-Serif" font-size="14.00"> &#160;</text>
</g>
<!-- PostureBreak&#45;&gt;PreAttack -->
<g id="edge9" class="edge">
<title>PostureBreak&#45;&gt;PreAttack</title>
<path fill="none" stroke="#cdc8b1" d="M148.41,-538.55C186.9,-550.35 238.02,-566.02 274.87,-577.32"/>
<polygon fill="#cdc8b1" stroke="#cdc8b1" points="273.78,-580.65 284.37,-580.23 275.83,-573.95 273.78,-580.65"/>
</g>
<!-- RollThrough -->
<g id="node12" class="node">
<title>RollThrough</title>
<polygon fill="none" stroke="black" points="34.12,-36 34.12,-57.75 151.88,-57.75 151.88,-36 34.12,-36"/>
<text text-anchor="start" x="52.5" y="-41.45" font-family="Helvetica,sans-Serif" font-size="14.00">RollThrough &#160;</text>
<polygon fill="none" stroke="black" points="34.12,-4 34.12,-36 151.88,-36 151.88,-4 34.12,-4"/>
<text text-anchor="start" x="37.12" y="-22.6" font-family="Helvetica,sans-Serif" font-size="12.00" fill="#838b8b">0.50s: LinkNextMove</text>
<text text-anchor="start" x="37.12" y="-8.7" font-family="Helvetica,sans-Serif" font-size="12.00" fill="#838b8b">0.58s: Done</text>
<text text-anchor="start" x="101.62" y="-8.7" font-family="Helvetica,sans-Serif" font-size="14.00"> &#160;</text>
</g>
<!-- RollThrough&#45;&gt;Engaging -->
<g id="edge10" class="edge">
<title>RollThrough&#45;&gt;Engaging</title>
<path fill="none" stroke="#cdc8b1" d="M155.78,-61.65C160.69,-64.62 165.49,-67.7 170,-70.88 219.56,-105.67 269.47,-155.71 298.07,-186.16"/>
<polygon fill="#cdc8b1" stroke="#cdc8b1" points="295.49,-188.52 304.86,-193.46 300.62,-183.76 295.49,-188.52"/>
</g>
<!-- RollThrough_linked -->
<g id="node13" class="node">
<title>RollThrough_linked</title>
<polygon fill="none" stroke="black" stroke-dasharray="1,5" points="375.45,-54.23 271.25,-54.23 271.25,-7.52 375.45,-7.52 375.45,-54.23"/>
<text text-anchor="start" x="291.1" y="-35.33" font-family="Helvetica,sans-Serif" font-size="14.00">Engaging &#160;</text>
<text text-anchor="start" x="276.85" y="-15.57" font-family="Helvetica,sans-Serif" font-size="14.00">Attack 3 throw &#160;</text>
</g>
<!-- RollThrough&#45;&gt;RollThrough_linked -->
<g id="edge11" class="edge">
<title>RollThrough&#45;&gt;RollThrough_linked</title>
<path fill="none" stroke="#66cdaa" d="M159.74,-30.88C191.19,-30.88 228.66,-30.88 259.7,-30.88"/>
<polygon fill="#66cdaa" stroke="#66cdaa" points="259.3,-34.38 269.3,-30.88 259.3,-27.38 259.3,-34.38"/>
<text text-anchor="middle" x="220.62" y="-33.33" font-family="Helvetica,sans-Serif" font-size="14.00" fill="#66cdaa">QueueEnd</text>
</g>
<!-- Wandering_Idle -->
<g id="node14" class="node">
<title>Wandering_Idle</title>
<polygon fill="none" stroke="black" points="163.62,-741.88 22.38,-741.88 22.38,-705.88 163.62,-705.88 163.62,-741.88"/>
<text text-anchor="middle" x="93" y="-718.45" font-family="Helvetica,sans-Serif" font-size="14.00">Wandering_Idle (Init)</text>
</g>
<!-- Level Once Sensor -->
<g id="node15" class="node">
<title>Level Once Sensor</title>
<polygon fill="none" stroke="black" points="158.75,-801.88 27.25,-801.88 27.25,-765.88 158.75,-765.88 158.75,-801.88"/>
<text text-anchor="middle" x="93" y="-778.45" font-family="Helvetica,sans-Serif" font-size="14.00">Level Once Sensor</text>
</g>
<!-- Level Once Sensor_linked -->
<g id="node16" class="node">
<title>Level Once Sensor_linked</title>
<polygon fill="none" stroke="black" stroke-dasharray="1,5" points="351.45,-793.88 295.25,-793.88 295.25,-757.88 351.45,-757.88 351.45,-793.88"/>
<text text-anchor="start" x="300.85" y="-770.45" font-family="Helvetica,sans-Serif" font-size="14.00">Attack &#160;</text>
</g>
<!-- Level Once Sensor&#45;&gt;Level Once Sensor_linked -->
<g id="edge12" class="edge">
<title>Level Once Sensor&#45;&gt;Level Once Sensor_linked</title>
<path fill="none" stroke="#66cdaa" d="M159.13,-781.59C199.34,-780.18 249.57,-778.42 283.61,-777.23"/>
<polygon fill="#66cdaa" stroke="#66cdaa" points="283.55,-780.74 293.42,-776.89 283.31,-773.74 283.55,-780.74"/>
<text text-anchor="middle" x="220.62" y="-782.8" font-family="Helvetica,sans-Serif" font-size="14.00" fill="#66cdaa">QueueEnd</text>
</g>
<!-- Level Once Sensor_mustuse -->
<g id="node17" class="node">
<title>Level Once Sensor_mustuse</title>
<polygon fill="none" stroke="black" stroke-dasharray="1,5" points="373.47,-847.88 273.22,-847.88 273.22,-811.88 373.47,-811.88 373.47,-847.88"/>
<text text-anchor="start" x="283.22" y="-824.45" font-family="Helvetica,sans-Serif" font-size="14.00">1 Undefined &#160;</text>
</g>
<!-- Level Once Sensor&#45;&gt;Level Once Sensor_mustuse -->
<g id="edge13" class="edge">
<title>Level Once Sensor&#45;&gt;Level Once Sensor_mustuse</title>
<path fill="none" stroke="#458b74" d="M159.13,-797C191.44,-803.5 230.22,-811.32 261.87,-817.69"/>
<polygon fill="#458b74" stroke="#458b74" points="260.77,-821.04 271.26,-819.58 262.15,-814.18 260.77,-821.04"/>
<text text-anchor="middle" x="220.62" y="-817.45" font-family="Helvetica,sans-Serif" font-size="14.00" fill="#458b74">Weight</text>
</g>
<!-- RunAwaySensor -->
<g id="node18" class="node">
<title>RunAwaySensor</title>
<polygon fill="none" stroke="black" points="151.25,-866.88 34.75,-866.88 34.75,-830.88 151.25,-830.88 151.25,-866.88"/>
<text text-anchor="middle" x="93" y="-843.45" font-family="Helvetica,sans-Serif" font-size="14.00">RunAwaySensor</text>
</g>
<!-- AttackSensor -->
<g id="node19" class="node">
<title>AttackSensor</title>
<polygon fill="none" stroke="black" points="141.12,-926.88 44.88,-926.88 44.88,-890.88 141.12,-890.88 141.12,-926.88"/>
<text text-anchor="middle" x="93" y="-903.45" font-family="Helvetica,sans-Serif" font-size="14.00">AttackSensor</text>
</g>
<!-- AttackSensor_linked -->
<g id="node20" class="node">
<title>AttackSensor_linked</title>
<polygon fill="none" stroke="black" stroke-dasharray="1,5" points="369.45,-951.98 277.25,-951.98 277.25,-865.77 369.45,-865.77 369.45,-951.98"/>
<text text-anchor="start" x="300.85" y="-933.08" font-family="Helvetica,sans-Serif" font-size="14.00">Attack &#160;</text>
<text text-anchor="start" x="282.85" y="-913.33" font-family="Helvetica,sans-Serif" font-size="14.00">RollThrough &#160;</text>
<text text-anchor="start" x="284.72" y="-893.58" font-family="Helvetica,sans-Serif" font-size="14.00">DangerKick &#160;</text>
<text text-anchor="start" x="300.85" y="-873.83" font-family="Helvetica,sans-Serif" font-size="14.00">Attack &#160;</text>
</g>
<!-- AttackSensor&#45;&gt;AttackSensor_linked -->
<g id="edge14" class="edge">
<title>AttackSensor&#45;&gt;AttackSensor_linked</title>
<path fill="none" stroke="#66cdaa" d="M141.59,-908.88C177.6,-908.88 227.2,-908.88 265.33,-908.88"/>
<polygon fill="#66cdaa" stroke="#66cdaa" points="265.25,-912.38 275.25,-908.88 265.25,-905.38 265.25,-912.38"/>
<text text-anchor="middle" x="220.62" y="-911.33" font-family="Helvetica,sans-Serif" font-size="14.00" fill="#66cdaa">QueueEnd</text>
</g>
<!-- DodgePredictSensor -->
<g id="node21" class="node">
<title>DodgePredictSensor</title>
<polygon fill="none" stroke="black" points="24,-987.88 24,-1009.62 162,-1009.62 162,-987.88 24,-987.88"/>
<text text-anchor="start" x="27" y="-993.33" font-family="Helvetica,sans-Serif" font-size="14.00">DodgePredictSensor &#160;</text>
<polygon fill="none" stroke="black" points="24,-966.12 24,-987.88 162,-987.88 162,-966.12 24,-966.12"/>
<text text-anchor="start" x="27" y="-972.58" font-family="Helvetica,sans-Serif" font-size="12.00" fill="#838b8b">if: Dodge</text>
<text text-anchor="start" x="75" y="-972.58" font-family="Helvetica,sans-Serif" font-size="14.00"> &#160;</text>
</g>
<!-- DodgePredictSensor_linked -->
<g id="node22" class="node">
<title>DodgePredictSensor_linked</title>
<polygon fill="none" stroke="black" stroke-dasharray="1,5" points="351.45,-1005.88 295.25,-1005.88 295.25,-969.88 351.45,-969.88 351.45,-1005.88"/>
<text text-anchor="start" x="300.85" y="-982.45" font-family="Helvetica,sans-Serif" font-size="14.00">Attack &#160;</text>
</g>
<!-- DodgePredictSensor&#45;&gt;DodgePredictSensor_linked -->
<g id="edge15" class="edge">
<title>DodgePredictSensor&#45;&gt;DodgePredictSensor_linked</title>
<path fill="none" stroke="#66cdaa" d="M169.72,-987.88C207.94,-987.88 252.67,-987.88 283.78,-987.88"/>
<polygon fill="#66cdaa" stroke="#66cdaa" points="283.49,-991.38 293.49,-987.88 283.49,-984.38 283.49,-991.38"/>
<text text-anchor="middle" x="220.62" y="-990.33" font-family="Helvetica,sans-Serif" font-size="14.00" fill="#66cdaa">QueueEnd</text>
</g>
<!-- AttackPredictSensor -->
<g id="node23" class="node">
<title>AttackPredictSensor</title>
<polygon fill="none" stroke="black" points="25.12,-1062.88 25.12,-1084.62 160.88,-1084.62 160.88,-1062.88 25.12,-1062.88"/>
<text text-anchor="start" x="28.12" y="-1068.33" font-family="Helvetica,sans-Serif" font-size="14.00">AttackPredictSensor &#160;</text>
<polygon fill="none" stroke="black" points="25.12,-1041.12 25.12,-1062.88 160.88,-1062.88 160.88,-1041.12 25.12,-1041.12"/>
<text text-anchor="start" x="28.12" y="-1047.58" font-family="Helvetica,sans-Serif" font-size="12.00" fill="#838b8b">if: Attack</text>
<text text-anchor="start" x="73.12" y="-1047.58" font-family="Helvetica,sans-Serif" font-size="14.00"> &#160;</text>
</g>
<!-- AttackPredictSensor_linked -->
<g id="node24" class="node">
<title>AttackPredictSensor_linked</title>
<polygon fill="none" stroke="black" stroke-dasharray="1,5" points="351.45,-1059.88 295.25,-1059.88 295.25,-1023.88 351.45,-1023.88 351.45,-1059.88"/>
<text text-anchor="start" x="300.85" y="-1036.45" font-family="Helvetica,sans-Serif" font-size="14.00">Attack &#160;</text>
</g>
<!-- AttackPredictSensor&#45;&gt;AttackPredictSensor_linked -->
<g id="edge16" class="edge">
<title>AttackPredictSensor&#45;&gt;AttackPredictSensor_linked</title>
<path fill="none" stroke="#66cdaa" d="M168.87,-1053.14C175.33,-1052.41 181.78,-1051.73 188,-1051.12 220.13,-1048.01 256.68,-1045.57 283.54,-1043.97"/>
<polygon fill="#66cdaa" stroke="#66cdaa" points="283.49,-1047.48 293.27,-1043.41 283.08,-1040.49 283.49,-1047.48"/>
<text text-anchor="middle" x="220.62" y="-1053.58" font-family="Helvetica,sans-Serif" font-size="14.00" fill="#66cdaa">QueueEnd</text>
</g>
<!-- AttackPredictSensor_mustuse -->
<g id="node25" class="node">
<title>AttackPredictSensor_mustuse</title>
<polygon fill="none" stroke="black" stroke-dasharray="1,5" points="355.85,-1113.88 290.85,-1113.88 290.85,-1077.88 355.85,-1077.88 355.85,-1113.88"/>
<text text-anchor="start" x="300.85" y="-1090.45" font-family="Helvetica,sans-Serif" font-size="14.00">1 Skip &#160;</text>
</g>
<!-- AttackPredictSensor&#45;&gt;AttackPredictSensor_mustuse -->
<g id="edge17" class="edge">
<title>AttackPredictSensor&#45;&gt;AttackPredictSensor_mustuse</title>
<path fill="none" stroke="#458b74" d="M168.77,-1073.68C205.33,-1078.96 248.04,-1085.14 279.12,-1089.63"/>
<polygon fill="#458b74" stroke="#458b74" points="278.53,-1093.08 288.93,-1091.05 279.54,-1086.15 278.53,-1093.08"/>
<text text-anchor="middle" x="220.62" y="-1087.65" font-family="Helvetica,sans-Serif" font-size="14.00" fill="#458b74">Weight</text>
</g>
<!-- AttackRunToSensor -->
<g id="node26" class="node">
<title>AttackRunToSensor</title>
<polygon fill="none" stroke="black" points="26.62,-1143.88 26.62,-1165.62 159.38,-1165.62 159.38,-1143.88 26.62,-1143.88"/>
<text text-anchor="start" x="29.62" y="-1149.33" font-family="Helvetica,sans-Serif" font-size="14.00">AttackRunToSensor &#160;</text>
<polygon fill="none" stroke="black" points="26.62,-1122.12 26.62,-1143.88 159.38,-1143.88 159.38,-1122.12 26.62,-1122.12"/>
<text text-anchor="start" x="29.62" y="-1128.58" font-family="Helvetica,sans-Serif" font-size="12.00" fill="#838b8b">if: state is Engaging</text>
<text text-anchor="start" x="133.88" y="-1128.58" font-family="Helvetica,sans-Serif" font-size="14.00"> &#160;</text>
</g>
<!-- AttackRunToSensor_linked -->
<g id="node27" class="node">
<title>AttackRunToSensor_linked</title>
<polygon fill="none" stroke="black" stroke-dasharray="1,5" points="351.45,-1167.88 295.25,-1167.88 295.25,-1131.88 351.45,-1131.88 351.45,-1167.88"/>
<text text-anchor="start" x="300.85" y="-1144.45" font-family="Helvetica,sans-Serif" font-size="14.00">Attack &#160;</text>
</g>
<!-- AttackRunToSensor&#45;&gt;AttackRunToSensor_linked -->
<g id="edge18" class="edge">
<title>AttackRunToSensor&#45;&gt;AttackRunToSensor_linked</title>
<path fill="none" stroke="#66cdaa" d="M167.19,-1145.8C205.83,-1146.81 251.68,-1148.02 283.48,-1148.85"/>
<polygon fill="#66cdaa" stroke="#66cdaa" points="283.33,-1152.35 293.42,-1149.11 283.51,-1145.35 283.33,-1152.35"/>
<text text-anchor="middle" x="220.62" y="-1150.38" font-family="Helvetica,sans-Serif" font-size="14.00" fill="#66cdaa">QueueEnd</text>
</g>
<!-- ShootAttackSensor -->
<g id="node28" class="node">
<title>ShootAttackSensor</title>
<polygon fill="none" stroke="black" points="158.75,-1223.88 27.25,-1223.88 27.25,-1187.88 158.75,-1187.88 158.75,-1223.88"/>
<text text-anchor="middle" x="93" y="-1200.45" font-family="Helvetica,sans-Serif" font-size="14.00">ShootAttackSensor</text>
</g>
<!-- ShootAttackSensor_linked -->
<g id="node29" class="node">
<title>ShootAttackSensor_linked</title>
<polygon fill="none" stroke="black" stroke-dasharray="1,5" points="375.45,-1221.88 271.25,-1221.88 271.25,-1185.88 375.45,-1185.88 375.45,-1221.88"/>
<text text-anchor="start" x="276.85" y="-1198.45" font-family="Helvetica,sans-Serif" font-size="14.00">Attack 3 throw &#160;</text>
</g>
<!-- ShootAttackSensor&#45;&gt;ShootAttackSensor_linked -->
<g id="edge19" class="edge">
<title>ShootAttackSensor&#45;&gt;ShootAttackSensor_linked</title>
<path fill="none" stroke="#66cdaa" d="M159.13,-1205.3C190.71,-1205.03 228.48,-1204.7 259.72,-1204.42"/>
<polygon fill="#66cdaa" stroke="#66cdaa" points="259.43,-1207.93 269.4,-1204.34 259.37,-1200.93 259.43,-1207.93"/>
<text text-anchor="middle" x="220.62" y="-1207.44" font-family="Helvetica,sans-Serif" font-size="14.00" fill="#66cdaa">QueueEnd</text>
</g>
<!-- AttackUpSensor -->
<g id="node30" class="node">
<title>AttackUpSensor</title>
<polygon fill="none" stroke="black" points="37.5,-1286.88 37.5,-1308.62 148.5,-1308.62 148.5,-1286.88 37.5,-1286.88"/>
<text text-anchor="start" x="40.5" y="-1292.33" font-family="Helvetica,sans-Serif" font-size="14.00">AttackUpSensor &#160;</text>
<polygon fill="none" stroke="black" points="37.5,-1265.12 37.5,-1286.88 148.5,-1286.88 148.5,-1265.12 37.5,-1265.12"/>
<text text-anchor="start" x="40.5" y="-1271.58" font-family="Helvetica,sans-Serif" font-size="12.00" fill="#838b8b">if not:</text>
<text text-anchor="start" x="69" y="-1271.58" font-family="Helvetica,sans-Serif" font-size="14.00"> &#160;</text>
</g>
<!-- AttackUpSensor_linked -->
<g id="node31" class="node">
<title>AttackUpSensor_linked</title>
<polygon fill="none" stroke="black" stroke-dasharray="1,5" points="351.45,-1275.88 295.25,-1275.88 295.25,-1239.88 351.45,-1239.88 351.45,-1275.88"/>
<text text-anchor="start" x="300.85" y="-1252.45" font-family="Helvetica,sans-Serif" font-size="14.00">Attack &#160;</text>
</g>
<!-- AttackUpSensor&#45;&gt;AttackUpSensor_linked -->
<g id="edge20" class="edge">
<title>AttackUpSensor&#45;&gt;AttackUpSensor_linked</title>
<path fill="none" stroke="#66cdaa" d="M156.4,-1278.95C197.09,-1273.78 248.92,-1267.2 283.73,-1262.78"/>
<polygon fill="#66cdaa" stroke="#66cdaa" points="283.87,-1266.29 293.35,-1261.56 282.99,-1259.35 283.87,-1266.29"/>
<text text-anchor="middle" x="220.62" y="-1276.56" font-family="Helvetica,sans-Serif" font-size="14.00" fill="#66cdaa">QueueEnd</text>
</g>
<!-- AttackUpSensor_mustuse -->
<g id="node32" class="node">
<title>AttackUpSensor_mustuse</title>
<polygon fill="none" stroke="black" stroke-dasharray="1,5" points="355.85,-1329.88 290.85,-1329.88 290.85,-1293.88 355.85,-1293.88 355.85,-1329.88"/>
<text text-anchor="start" x="300.85" y="-1306.45" font-family="Helvetica,sans-Serif" font-size="14.00">1 Skip &#160;</text>
</g>
<!-- AttackUpSensor&#45;&gt;AttackUpSensor_mustuse -->
<g id="edge21" class="edge">
<title>AttackUpSensor&#45;&gt;AttackUpSensor_mustuse</title>
<path fill="none" stroke="#458b74" d="M156.4,-1293.71C195.43,-1297.98 244.71,-1303.37 279.39,-1307.17"/>
<polygon fill="#458b74" stroke="#458b74" points="278.73,-1310.62 289.05,-1308.23 279.49,-1303.66 278.73,-1310.62"/>
<text text-anchor="middle" x="220.62" y="-1306.24" font-family="Helvetica,sans-Serif" font-size="14.00" fill="#458b74">Weight</text>
</g>
<!-- AttackDownSensor -->
<g id="node33" class="node">
<title>AttackDownSensor</title>
<polygon fill="none" stroke="black" points="158.38,-1448.88 27.62,-1448.88 27.62,-1412.88 158.38,-1412.88 158.38,-1448.88"/>
<text text-anchor="middle" x="93" y="-1425.45" font-family="Helvetica,sans-Serif" font-size="14.00">AttackDownSensor</text>
</g>
<!-- AttackDownSensor_linked -->
<g id="node34" class="node">
<title>AttackDownSensor_linked</title>
<polygon fill="none" stroke="black" stroke-dasharray="1,5" points="369.45,-1433.97 277.25,-1433.97 277.25,-1347.78 369.45,-1347.78 369.45,-1433.97"/>
<text text-anchor="start" x="300.85" y="-1415.08" font-family="Helvetica,sans-Serif" font-size="14.00">Attack &#160;</text>
<text text-anchor="start" x="282.85" y="-1395.33" font-family="Helvetica,sans-Serif" font-size="14.00">RollThrough &#160;</text>
<text text-anchor="start" x="284.72" y="-1375.58" font-family="Helvetica,sans-Serif" font-size="14.00">DangerKick &#160;</text>
<text text-anchor="start" x="300.85" y="-1355.83" font-family="Helvetica,sans-Serif" font-size="14.00">Attack &#160;</text>
</g>
<!-- AttackDownSensor&#45;&gt;AttackDownSensor_linked -->
<g id="edge22" class="edge">
<title>AttackDownSensor&#45;&gt;AttackDownSensor_linked</title>
<path fill="none" stroke="#66cdaa" d="M158.83,-1419.52C192.56,-1413.61 233.41,-1406.45 265.84,-1400.77"/>
<polygon fill="#66cdaa" stroke="#66cdaa" points="266.2,-1404.26 275.45,-1399.09 264.99,-1397.37 266.2,-1404.26"/>
<text text-anchor="middle" x="220.62" y="-1415.72" font-family="Helvetica,sans-Serif" font-size="14.00" fill="#66cdaa">QueueEnd</text>
</g>
<!-- AttackDownSensor_mustuse -->
<g id="node35" class="node">
<title>AttackDownSensor_mustuse</title>
<polygon fill="none" stroke="black" stroke-dasharray="1,5" points="355.85,-1487.88 290.85,-1487.88 290.85,-1451.88 355.85,-1451.88 355.85,-1487.88"/>
<text text-anchor="start" x="300.85" y="-1464.45" font-family="Helvetica,sans-Serif" font-size="14.00">1 Skip &#160;</text>
</g>
<!-- AttackDownSensor&#45;&gt;AttackDownSensor_mustuse -->
<g id="edge23" class="edge">
<title>AttackDownSensor&#45;&gt;AttackDownSensor_mustuse</title>
<path fill="none" stroke="#458b74" d="M158.83,-1441.95C197.56,-1448.56 245.69,-1456.78 279.67,-1462.59"/>
<polygon fill="#458b74" stroke="#458b74" points="278.68,-1465.97 289.13,-1464.2 279.86,-1459.07 278.68,-1465.97"/>
<text text-anchor="middle" x="220.62" y="-1459.71" font-family="Helvetica,sans-Serif" font-size="14.00" fill="#458b74">Weight</text>
</g>
</g>
</svg>
