<?xml version="1.0" encoding="UTF-8" standalone="no"?>
<!DOCTYPE svg PUBLIC "-//W3C//DTD SVG 1.1//EN"
 "http://www.w3.org/Graphics/SVG/1.1/DTD/svg11.dtd">
<!-- Generated by graphviz version 12.2.1 (20241206.2353)
 -->
<!-- Title: Foo Pages: 1 -->
<svg width="406pt" height="1026pt"
 viewBox="0.00 0.00 405.50 1025.75" xmlns="http://www.w3.org/2000/svg" xmlns:xlink="http://www.w3.org/1999/xlink">
<g id="graph0" class="graph" transform="scale(1 1) rotate(0) translate(4 1021.75)">
<title>Foo</title>
<polygon fill="white" stroke="none" points="-4,4 -4,-1021.75 401.5,-1021.75 401.5,4 -4,4"/>
<g id="clust1" class="cluster">
<title>cluster_attacksensors</title>
<polygon fill="none" stroke="black" points="8,-555.75 8,-1009.75 389.5,-1009.75 389.5,-555.75 8,-555.75"/>
<text text-anchor="middle" x="198.75" y="-992.45" font-family="Helvetica,sans-Serif" font-size="14.00">Attack Sensors</text>
</g>
<!-- Attack -->
<g id="node1" class="node">
<title>Attack</title>
<polygon fill="none" stroke="black" points="55.88,-25.75 55.88,-47.5 133.88,-47.5 133.88,-25.75 55.88,-25.75"/>
<text text-anchor="start" x="72.38" y="-31.2" font-family="Helvetica,sans-Serif" font-size="14.00">Attack &#160;</text>
<polygon fill="none" stroke="black" points="55.88,-4 55.88,-25.75 133.88,-25.75 133.88,-4 55.88,-4"/>
<text text-anchor="start" x="58.88" y="-10.45" font-family="Helvetica,sans-Serif" font-size="12.00" fill="#838b8b">1.50s: Done</text>
<text text-anchor="start" x="123.38" y="-10.45" font-family="Helvetica,sans-Serif" font-size="14.00"> &#160;</text>
</g>
<!-- PushAway -->
<g id="node2" class="node">
<title>PushAway</title>
<polygon fill="none" stroke="black" points="32.25,-105.88 32.25,-127.62 157.5,-127.62 157.5,-105.88 32.25,-105.88"/>
<text text-anchor="start" x="59.25" y="-111.33" font-family="Helvetica,sans-Serif" font-size="14.00">PushAway &#160;</text>
<polygon fill="none" stroke="black" points="32.25,-73.88 32.25,-105.88 157.5,-105.88 157.5,-73.88 32.25,-73.88"/>
<text text-anchor="start" x="35.25" y="-92.47" font-family="Helvetica,sans-Serif" font-size="12.00" fill="#838b8b">0.50s: Done</text>
<text text-anchor="start" x="35.25" y="-78.57" font-family="Helvetica,sans-Serif" font-size="12.00" fill="#838b8b">0.53s: LinkNextMove</text>
<text text-anchor="start" x="147" y="-78.57" font-family="Helvetica,sans-Serif" font-size="14.00"> &#160;</text>
</g>
<!-- PushAway_linked -->
<g id="node3" class="node">
<title>PushAway_linked</title>
<polygon fill="none" stroke="black" stroke-dasharray="1,5" points="358.35,-124.1 302.15,-124.1 302.15,-77.4 358.35,-77.4 358.35,-124.1"/>
<text text-anchor="start" x="307.75" y="-105.2" font-family="Helvetica,sans-Serif" font-size="14.00">Attack &#160;</text>
<text text-anchor="start" x="307.75" y="-85.45" font-family="Helvetica,sans-Serif" font-size="14.00">Attack &#160;</text>
</g>
<!-- PushAway&#45;&gt;PushAway_linked -->
<g id="edge1" class="edge">
<title>PushAway&#45;&gt;PushAway_linked</title>
<path fill="none" stroke="#66cdaa" d="M165.26,-100.75C206.25,-100.75 256.6,-100.75 290.62,-100.75"/>
<polygon fill="#66cdaa" stroke="#66cdaa" points="290.41,-104.25 300.41,-100.75 290.41,-97.25 290.41,-104.25"/>
<text text-anchor="middle" x="224.38" y="-103.2" font-family="Helvetica,sans-Serif" font-size="14.00" fill="#66cdaa">QueueEnd</text>
</g>
<!-- ShieldRegen -->
<g id="node4" class="node">
<title>ShieldRegen</title>
<polygon fill="none" stroke="black" points="49.5,-175.75 49.5,-197.5 140.25,-197.5 140.25,-175.75 49.5,-175.75"/>
<text text-anchor="start" x="52.5" y="-181.2" font-family="Helvetica,sans-Serif" font-size="14.00">ShieldRegen &#160;</text>
<polygon fill="none" stroke="black" points="49.5,-154 49.5,-175.75 140.25,-175.75 140.25,-154 49.5,-154"/>
<text text-anchor="start" x="52.5" y="-160.45" font-family="Helvetica,sans-Serif" font-size="12.00" fill="#838b8b">0.50s: Done</text>
<text text-anchor="start" x="117" y="-160.45" font-family="Helvetica,sans-Serif" font-size="14.00"> &#160;</text>
</g>
<!-- ShieldRegen_linked -->
<g id="node5" class="node">
<title>ShieldRegen_linked</title>
<polygon fill="none" stroke="black" stroke-dasharray="1,5" points="358.35,-199.1 302.15,-199.1 302.15,-152.4 358.35,-152.4 358.35,-199.1"/>
<text text-anchor="start" x="307.75" y="-180.2" font-family="Helvetica,sans-Serif" font-size="14.00">Attack &#160;</text>
<text text-anchor="start" x="307.75" y="-160.45" font-family="Helvetica,sans-Serif" font-size="14.00">Attack &#160;</text>
</g>
<!-- ShieldRegen&#45;&gt;ShieldRegen_linked -->
<g id="edge2" class="edge">
<title>ShieldRegen&#45;&gt;ShieldRegen_linked</title>
<path fill="none" stroke="#66cdaa" d="M148.25,-175.75C191.36,-175.75 251.51,-175.75 290.42,-175.75"/>
<polygon fill="#66cdaa" stroke="#66cdaa" points="290.26,-179.25 300.26,-175.75 290.26,-172.25 290.26,-179.25"/>
<text text-anchor="middle" x="224.38" y="-178.2" font-family="Helvetica,sans-Serif" font-size="14.00" fill="#66cdaa">QueueEnd</text>
</g>
<!-- AttackParrying -->
<g id="node6" class="node">
<title>AttackParrying</title>
<polygon fill="none" stroke="black" points="44.25,-245.75 44.25,-267.5 145.5,-267.5 145.5,-245.75 44.25,-245.75"/>
<text text-anchor="start" x="47.25" y="-251.2" font-family="Helvetica,sans-Serif" font-size="14.00">AttackParrying &#160;</text>
<polygon fill="none" stroke="black" points="44.25,-224 44.25,-245.75 145.5,-245.75 145.5,-224 44.25,-224"/>
<text text-anchor="start" x="47.25" y="-230.45" font-family="Helvetica,sans-Serif" font-size="12.00" fill="#838b8b">0.58s: Done</text>
<text text-anchor="start" x="111.75" y="-230.45" font-family="Helvetica,sans-Serif" font-size="14.00"> &#160;</text>
</g>
<!-- HurtState -->
<g id="node7" class="node">
<title>HurtState</title>
<polygon fill="none" stroke="black" points="55.88,-315.75 55.88,-337.5 133.88,-337.5 133.88,-315.75 55.88,-315.75"/>
<text text-anchor="start" x="62.62" y="-321.2" font-family="Helvetica,sans-Serif" font-size="14.00">HurtState &#160;</text>
<polygon fill="none" stroke="black" points="55.88,-294 55.88,-315.75 133.88,-315.75 133.88,-294 55.88,-294"/>
<text text-anchor="start" x="58.88" y="-300.45" font-family="Helvetica,sans-Serif" font-size="12.00" fill="#838b8b">0.17s: Done</text>
<text text-anchor="start" x="123.38" y="-300.45" font-family="Helvetica,sans-Serif" font-size="14.00"> &#160;</text>
</g>
<!-- Hurt_BigState -->
<g id="node8" class="node">
<title>Hurt_BigState</title>
<polygon fill="none" stroke="black" points="46.12,-385.75 46.12,-407.5 143.62,-407.5 143.62,-385.75 46.12,-385.75"/>
<text text-anchor="start" x="49.12" y="-391.2" font-family="Helvetica,sans-Serif" font-size="14.00">Hurt_BigState &#160;</text>
<polygon fill="none" stroke="black" points="46.12,-364 46.12,-385.75 143.62,-385.75 143.62,-364 46.12,-364"/>
<text text-anchor="start" x="49.12" y="-370.45" font-family="Helvetica,sans-Serif" font-size="12.00" fill="#838b8b">0.57s: Done</text>
<text text-anchor="start" x="113.62" y="-370.45" font-family="Helvetica,sans-Serif" font-size="14.00"> &#160;</text>
</g>
<!-- StandUp -->
<g id="node9" class="node">
<title>StandUp</title>
<polygon fill="none" stroke="black" points="36.38,-465.88 36.38,-487.62 153.38,-487.62 153.38,-465.88 36.38,-465.88"/>
<text text-anchor="start" x="64.88" y="-471.32" font-family="Helvetica,sans-Serif" font-size="14.00">StandUp &#160;</text>
<polygon fill="none" stroke="black" points="36.38,-433.88 36.38,-465.88 153.38,-465.88 153.38,-433.88 36.38,-433.88"/>
<text text-anchor="start" x="39.38" y="-452.48" font-family="Helvetica,sans-Serif" font-size="12.00" fill="#838b8b">0.00s: EnableGravity</text>
<text text-anchor="start" x="39.38" y="-438.58" font-family="Helvetica,sans-Serif" font-size="12.00" fill="#838b8b">2.08s: Done</text>
<text text-anchor="start" x="103.88" y="-438.58" font-family="Helvetica,sans-Serif" font-size="14.00"> &#160;</text>
</g>
<!-- Wandering_Idle -->
<g id="node10" class="node">
<title>Wandering_Idle</title>
<polygon fill="none" stroke="black" points="385.5,-478.75 275,-478.75 275,-442.75 385.5,-442.75 385.5,-478.75"/>
<text text-anchor="middle" x="330.25" y="-455.32" font-family="Helvetica,sans-Serif" font-size="14.00">Wandering_Idle</text>
</g>
<!-- StandUp&#45;&gt;Wandering_Idle -->
<g id="edge3" class="edge">
<title>StandUp&#45;&gt;Wandering_Idle</title>
<path fill="none" stroke="#cdc8b1" d="M161.19,-460.75C193.02,-460.75 231.21,-460.75 263.14,-460.75"/>
<polygon fill="#cdc8b1" stroke="#cdc8b1" points="263.09,-464.25 273.09,-460.75 263.09,-457.25 263.09,-464.25"/>
</g>
<!-- Seat -->
<g id="node11" class="node">
<title>Seat</title>
<polygon fill="none" stroke="black" points="132.12,-545.75 57.62,-545.75 57.62,-509.75 132.12,-509.75 132.12,-545.75"/>
<text text-anchor="middle" x="94.88" y="-522.33" font-family="Helvetica,sans-Serif" font-size="14.00">Seat (Init)</text>
</g>
<!-- Level Once Sensor -->
<g id="node12" class="node">
<title>Level Once Sensor</title>
<polygon fill="none" stroke="black" points="160.62,-599.75 29.12,-599.75 29.12,-563.75 160.62,-563.75 160.62,-599.75"/>
<text text-anchor="middle" x="94.88" y="-576.33" font-family="Helvetica,sans-Serif" font-size="14.00">Level Once Sensor</text>
</g>
<!-- Level Once Sensor_linked -->
<g id="node13" class="node">
<title>Level Once Sensor_linked</title>
<polygon fill="none" stroke="black" stroke-dasharray="1,5" points="358.35,-599.75 302.15,-599.75 302.15,-563.75 358.35,-563.75 358.35,-599.75"/>
<text text-anchor="start" x="307.75" y="-576.33" font-family="Helvetica,sans-Serif" font-size="14.00">Attack &#160;</text>
</g>
<!-- Level Once Sensor&#45;&gt;Level Once Sensor_linked -->
<g id="edge4" class="edge">
<title>Level Once Sensor&#45;&gt;Level Once Sensor_linked</title>
<path fill="none" stroke="#66cdaa" d="M160.88,-581.75C202.57,-581.75 255.28,-581.75 290.51,-581.75"/>
<polygon fill="#66cdaa" stroke="#66cdaa" points="290.24,-585.25 300.24,-581.75 290.24,-578.25 290.24,-585.25"/>
<text text-anchor="middle" x="224.38" y="-584.2" font-family="Helvetica,sans-Serif" font-size="14.00" fill="#66cdaa">QueueEnd</text>
</g>
<!-- Level Once Sensor_mustuse -->
<g id="node14" class="node">
<title>Level Once Sensor_mustuse</title>
<polygon fill="none" stroke="black" stroke-dasharray="1,5" points="368,-653.75 292.5,-653.75 292.5,-617.75 368,-617.75 368,-653.75"/>
<text text-anchor="start" x="302.5" y="-630.33" font-family="Helvetica,sans-Serif" font-size="14.00">1 Attack &#160;</text>
</g>
<!-- Level Once Sensor&#45;&gt;Level Once Sensor_mustuse -->
<g id="edge5" class="edge">
<title>Level Once Sensor&#45;&gt;Level Once Sensor_mustuse</title>
<path fill="none" stroke="#458b74" d="M160.88,-596.79C199.1,-605.63 246.58,-616.62 281.37,-624.67"/>
<polygon fill="#458b74" stroke="#458b74" points="280.18,-627.99 290.71,-626.83 281.76,-621.17 280.18,-627.99"/>
<text text-anchor="middle" x="224.38" y="-620.73" font-family="Helvetica,sans-Serif" font-size="14.00" fill="#458b74">Weight</text>
</g>
<!-- RunAwaySensor -->
<g id="node15" class="node">
<title>RunAwaySensor</title>
<polygon fill="none" stroke="black" points="153.12,-653.75 36.62,-653.75 36.62,-617.75 153.12,-617.75 153.12,-653.75"/>
<text text-anchor="middle" x="94.88" y="-630.33" font-family="Helvetica,sans-Serif" font-size="14.00">RunAwaySensor</text>
</g>
<!-- AttackSensor -->
<g id="node16" class="node">
<title>AttackSensor</title>
<polygon fill="none" stroke="black" points="143,-707.75 46.75,-707.75 46.75,-671.75 143,-671.75 143,-707.75"/>
<text text-anchor="middle" x="94.88" y="-684.33" font-family="Helvetica,sans-Serif" font-size="14.00">AttackSensor</text>
</g>
<!-- AttackSensor_linked -->
<g id="node17" class="node">
<title>AttackSensor_linked</title>
<polygon fill="none" stroke="black" stroke-dasharray="1,5" points="371.48,-707.75 289.02,-707.75 289.02,-671.75 371.48,-671.75 371.48,-707.75"/>
<text text-anchor="start" x="294.62" y="-684.33" font-family="Helvetica,sans-Serif" font-size="14.00">PushAway &#160;</text>
</g>
<!-- AttackSensor&#45;&gt;AttackSensor_linked -->
<g id="edge6" class="edge">
<title>AttackSensor&#45;&gt;AttackSensor_linked</title>
<path fill="none" stroke="#66cdaa" d="M143.38,-689.75C182.32,-689.75 237.34,-689.75 277.41,-689.75"/>
<polygon fill="#66cdaa" stroke="#66cdaa" points="277.3,-693.25 287.3,-689.75 277.3,-686.25 277.3,-693.25"/>
<text text-anchor="middle" x="224.38" y="-692.2" font-family="Helvetica,sans-Serif" font-size="14.00" fill="#66cdaa">QueueEnd</text>
</g>
<!-- DodgePredictSensor -->
<g id="node18" class="node">
<title>DodgePredictSensor</title>
<polygon fill="none" stroke="black" points="25.88,-751.75 25.88,-773.5 163.88,-773.5 163.88,-751.75 25.88,-751.75"/>
<text text-anchor="start" x="28.88" y="-757.2" font-family="Helvetica,sans-Serif" font-size="14.00">DodgePredictSensor &#160;</text>
<polygon fill="none" stroke="black" points="25.88,-730 25.88,-751.75 163.88,-751.75 163.88,-730 25.88,-730"/>
<text text-anchor="start" x="28.88" y="-736.45" font-family="Helvetica,sans-Serif" font-size="12.00" fill="#838b8b">if: rollingCondition</text>
<text text-anchor="start" x="125.62" y="-736.45" font-family="Helvetica,sans-Serif" font-size="14.00"> &#160;</text>
</g>
<!-- DodgePredictSensor_linked -->
<g id="node19" class="node">
<title>DodgePredictSensor_linked</title>
<polygon fill="none" stroke="black" stroke-dasharray="1,5" points="358.35,-761.75 302.15,-761.75 302.15,-725.75 358.35,-725.75 358.35,-761.75"/>
<text text-anchor="start" x="307.75" y="-738.33" font-family="Helvetica,sans-Serif" font-size="14.00">Attack &#160;</text>
</g>
<!-- DodgePredictSensor&#45;&gt;DodgePredictSensor_linked -->
<g id="edge7" class="edge">
<title>DodgePredictSensor&#45;&gt;DodgePredictSensor_linked</title>
<path fill="none" stroke="#66cdaa" d="M171.65,-749.15C211.35,-747.79 258.3,-746.18 290.57,-745.08"/>
<polygon fill="#66cdaa" stroke="#66cdaa" points="290.37,-748.59 300.24,-744.74 290.13,-741.59 290.37,-748.59"/>
<text text-anchor="middle" x="224.38" y="-750.68" font-family="Helvetica,sans-Serif" font-size="14.00" fill="#66cdaa">QueueEnd</text>
</g>
<!-- AttackPredictSensor -->
<g id="node20" class="node">
<title>AttackPredictSensor</title>
<polygon fill="none" stroke="black" points="27,-824.75 27,-846.5 162.75,-846.5 162.75,-824.75 27,-824.75"/>
<text text-anchor="start" x="30" y="-830.2" font-family="Helvetica,sans-Serif" font-size="14.00">AttackPredictSensor &#160;</text>
<polygon fill="none" stroke="black" points="27,-803 27,-824.75 162.75,-824.75 162.75,-803 27,-803"/>
<text text-anchor="start" x="30" y="-809.45" font-family="Helvetica,sans-Serif" font-size="12.00" fill="#838b8b">if: attackCondition</text>
<text text-anchor="start" x="125.25" y="-809.45" font-family="Helvetica,sans-Serif" font-size="14.00"> &#160;</text>
</g>
<!-- AttackPredictSensor_linked -->
<g id="node21" class="node">
<title>AttackPredictSensor_linked</title>
<polygon fill="none" stroke="black" stroke-dasharray="1,5" points="358.35,-815.75 302.15,-815.75 302.15,-779.75 358.35,-779.75 358.35,-815.75"/>
<text text-anchor="start" x="307.75" y="-792.33" font-family="Helvetica,sans-Serif" font-size="14.00">Attack &#160;</text>
</g>
<!-- AttackPredictSensor&#45;&gt;AttackPredictSensor_linked -->
<g id="edge8" class="edge">
<title>AttackPredictSensor&#45;&gt;AttackPredictSensor_linked</title>
<path fill="none" stroke="#66cdaa" d="M170.59,-810.05C177.72,-808.91 184.86,-807.87 191.75,-807 224.98,-802.82 262.99,-800.45 290.61,-799.15"/>
<polygon fill="#66cdaa" stroke="#66cdaa" points="290.42,-802.66 300.26,-798.73 290.11,-795.67 290.42,-802.66"/>
<text text-anchor="middle" x="224.38" y="-809.45" font-family="Helvetica,sans-Serif" font-size="14.00" fill="#66cdaa">QueueEnd</text>
</g>
<!-- AttackPredictSensor_mustuse -->
<g id="node22" class="node">
<title>AttackPredictSensor_mustuse</title>
<polygon fill="none" stroke="black" stroke-dasharray="1,5" points="381.5,-869.75 279,-869.75 279,-833.75 381.5,-833.75 381.5,-869.75"/>
<text text-anchor="start" x="289" y="-846.33" font-family="Helvetica,sans-Serif" font-size="14.00">1 PushAway &#160;</text>
</g>
<!-- AttackPredictSensor&#45;&gt;AttackPredictSensor_mustuse -->
<g id="edge9" class="edge">
<title>AttackPredictSensor&#45;&gt;AttackPredictSensor_mustuse</title>
<path fill="none" stroke="#458b74" d="M170.68,-833.4C202.01,-837.03 237.98,-841.19 267.73,-844.63"/>
<polygon fill="#458b74" stroke="#458b74" points="266.97,-848.07 277.31,-845.74 267.78,-841.11 266.97,-848.07"/>
<text text-anchor="middle" x="224.38" y="-845.47" font-family="Helvetica,sans-Serif" font-size="14.00" fill="#458b74">Weight</text>
</g>
<!-- AttackRunToSensor -->
<g id="node23" class="node">
<title>AttackRunToSensor</title>
<polygon fill="none" stroke="black" points="28.5,-897.75 28.5,-919.5 161.25,-919.5 161.25,-897.75 28.5,-897.75"/>
<text text-anchor="start" x="31.5" y="-903.2" font-family="Helvetica,sans-Serif" font-size="14.00">AttackRunToSensor &#160;</text>
<polygon fill="none" stroke="black" points="28.5,-876 28.5,-897.75 161.25,-897.75 161.25,-876 28.5,-876"/>
<text text-anchor="start" x="31.5" y="-882.45" font-family="Helvetica,sans-Serif" font-size="12.00" fill="#838b8b">if: state is Engaging</text>
<text text-anchor="start" x="135.75" y="-882.45" font-family="Helvetica,sans-Serif" font-size="14.00"> &#160;</text>
</g>
<!-- AttackRunToSensor_linked -->
<g id="node24" class="node">
<title>AttackRunToSensor_linked</title>
<polygon fill="none" stroke="black" stroke-dasharray="1,5" points="358.35,-923.75 302.15,-923.75 302.15,-887.75 358.35,-887.75 358.35,-923.75"/>
<text text-anchor="start" x="307.75" y="-900.33" font-family="Helvetica,sans-Serif" font-size="14.00">Attack &#160;</text>
</g>
<!-- AttackRunToSensor&#45;&gt;AttackRunToSensor_linked -->
<g id="edge10" class="edge">
<title>AttackRunToSensor&#45;&gt;AttackRunToSensor_linked</title>
<path fill="none" stroke="#66cdaa" d="M169.08,-900.26C209.2,-901.63 257.32,-903.28 290.28,-904.41"/>
<polygon fill="#66cdaa" stroke="#66cdaa" points="290.07,-907.91 300.18,-904.75 290.31,-900.91 290.07,-907.91"/>
<text text-anchor="middle" x="224.38" y="-905.61" font-family="Helvetica,sans-Serif" font-size="14.00" fill="#66cdaa">QueueEnd</text>
</g>
<!-- AttackSensor(noShield) -->
<g id="node25" class="node">
<title>AttackSensor(noShield)</title>
<polygon fill="none" stroke="black" points="173.75,-977.75 16,-977.75 16,-941.75 173.75,-941.75 173.75,-977.75"/>
<text text-anchor="middle" x="94.88" y="-954.33" font-family="Helvetica,sans-Serif" font-size="14.00">AttackSensor(noShield)</text>
</g>
<!-- AttackSensor(noShield)_linked -->
<g id="node26" class="node">
<title>AttackSensor(noShield)_linked</title>
<polygon fill="none" stroke="black" stroke-dasharray="1,5" points="358.35,-977.75 302.15,-977.75 302.15,-941.75 358.35,-941.75 358.35,-977.75"/>
<text text-anchor="start" x="307.75" y="-954.33" font-family="Helvetica,sans-Serif" font-size="14.00">Attack &#160;</text>
</g>
<!-- AttackSensor(noShield)&#45;&gt;AttackSensor(noShield)_linked -->
<g id="edge11" class="edge">
<title>AttackSensor(noShield)&#45;&gt;AttackSensor(noShield)_linked</title>
<path fill="none" stroke="#66cdaa" d="M174.23,-959.75C213.33,-959.75 258.89,-959.75 290.46,-959.75"/>
<polygon fill="#66cdaa" stroke="#66cdaa" points="290.31,-963.25 300.31,-959.75 290.31,-956.25 290.31,-963.25"/>
<text text-anchor="middle" x="224.38" y="-962.2" font-family="Helvetica,sans-Serif" font-size="14.00" fill="#66cdaa">QueueEnd</text>
</g>
</g>
</svg>
