<?xml version="1.0" encoding="UTF-8" standalone="no"?>
<!DOCTYPE svg PUBLIC "-//W3C//DTD SVG 1.1//EN"
 "http://www.w3.org/Graphics/SVG/1.1/DTD/svg11.dtd">
<!-- Generated by graphviz version 12.2.1 (20241206.2353)
 -->
<!-- Title: Foo Pages: 1 -->
<svg width="419pt" height="1024pt"
 viewBox="0.00 0.00 419.00 1024.00" xmlns="http://www.w3.org/2000/svg" xmlns:xlink="http://www.w3.org/1999/xlink">
<g id="graph0" class="graph" transform="scale(1 1) rotate(0) translate(4 1020)">
<title>Foo</title>
<polygon fill="white" stroke="none" points="-4,4 -4,-1020 415,-1020 415,4 -4,4"/>
<g id="clust1" class="cluster">
<title>cluster_attacksensors</title>
<polygon fill="none" stroke="black" points="8,-8 8,-462 403,-462 403,-8 8,-8"/>
<text text-anchor="middle" x="205.5" y="-444.7" font-family="Helvetica,sans-Serif" font-size="14.00">Attack Sensors</text>
</g>
<!-- Level Once Sensor -->
<g id="node1" class="node">
<title>Level Once Sensor</title>
<polygon fill="none" stroke="black" points="37.12,-23.12 37.12,-44.88 166.12,-44.88 166.12,-23.12 37.12,-23.12"/>
<text text-anchor="start" x="40.12" y="-28.57" font-family="Helvetica,sans-Serif" font-size="14.00">Level Once Sensor &#160;</text>
</g>
<!-- Level Once Sensor_linked -->
<g id="node2" class="node">
<title>Level Once Sensor_linked</title>
<polygon fill="none" stroke="black" stroke-dasharray="1,5" points="371.85,-52 315.65,-52 315.65,-16 371.85,-16 371.85,-52"/>
<text text-anchor="start" x="321.25" y="-28.57" font-family="Helvetica,sans-Serif" font-size="14.00">Attack &#160;</text>
</g>
<!-- Level Once Sensor&#45;&gt;Level Once Sensor_linked -->
<g id="edge1" class="edge">
<title>Level Once Sensor&#45;&gt;Level Once Sensor_linked</title>
<path fill="none" stroke="#66cdaa" d="M174.02,-34C216.62,-34 269.07,-34 304.07,-34"/>
<polygon fill="#66cdaa" stroke="#66cdaa" points="303.72,-37.5 313.72,-34 303.72,-30.5 303.72,-37.5"/>
<text text-anchor="middle" x="237.88" y="-36.45" font-family="Helvetica,sans-Serif" font-size="14.00" fill="#66cdaa">QueueEnd</text>
</g>
<!-- Level Once Sensor_weight -->
<g id="node3" class="node">
<title>Level Once Sensor_weight</title>
<polygon fill="none" stroke="black" stroke-dasharray="1,5" points="381.5,-106 306,-106 306,-70 381.5,-70 381.5,-106"/>
<text text-anchor="start" x="316" y="-82.58" font-family="Helvetica,sans-Serif" font-size="14.00">1 Attack &#160;</text>
</g>
<!-- Level Once Sensor&#45;&gt;Level Once Sensor_weight -->
<g id="edge2" class="edge">
<title>Level Once Sensor&#45;&gt;Level Once Sensor_weight</title>
<path fill="none" stroke="#458b74" d="M174.02,-50.06C212.9,-58.8 259.97,-69.38 294.5,-77.15"/>
<polygon fill="#458b74" stroke="#458b74" points="293.71,-80.56 304.23,-79.34 295.24,-73.73 293.71,-80.56"/>
<text text-anchor="middle" x="237.88" y="-72.98" font-family="Helvetica,sans-Serif" font-size="14.00" fill="#458b74">Weight</text>
</g>
<!-- RunAwaySensor -->
<g id="node4" class="node">
<title>RunAwaySensor</title>
<polygon fill="none" stroke="black" points="44.62,-77.12 44.62,-98.88 158.62,-98.88 158.62,-77.12 44.62,-77.12"/>
<text text-anchor="start" x="47.62" y="-82.58" font-family="Helvetica,sans-Serif" font-size="14.00">RunAwaySensor &#160;</text>
</g>
<!-- AttackSensor -->
<g id="node5" class="node">
<title>AttackSensor</title>
<polygon fill="none" stroke="black" points="54.75,-131.12 54.75,-152.88 148.5,-152.88 148.5,-131.12 54.75,-131.12"/>
<text text-anchor="start" x="57.75" y="-136.57" font-family="Helvetica,sans-Serif" font-size="14.00">AttackSensor &#160;</text>
</g>
<!-- AttackSensor_linked -->
<g id="node6" class="node">
<title>AttackSensor_linked</title>
<polygon fill="none" stroke="black" stroke-dasharray="1,5" points="384.98,-160 302.52,-160 302.52,-124 384.98,-124 384.98,-160"/>
<text text-anchor="start" x="308.12" y="-136.57" font-family="Helvetica,sans-Serif" font-size="14.00">PushAway &#160;</text>
</g>
<!-- AttackSensor&#45;&gt;AttackSensor_linked -->
<g id="edge3" class="edge">
<title>AttackSensor&#45;&gt;AttackSensor_linked</title>
<path fill="none" stroke="#66cdaa" d="M156.21,-142C196.47,-142 251.29,-142 291.08,-142"/>
<polygon fill="#66cdaa" stroke="#66cdaa" points="290.88,-145.5 300.88,-142 290.88,-138.5 290.88,-145.5"/>
<text text-anchor="middle" x="237.88" y="-144.45" font-family="Helvetica,sans-Serif" font-size="14.00" fill="#66cdaa">QueueEnd</text>
</g>
<!-- DodgePredictSensor -->
<g id="node7" class="node">
<title>DodgePredictSensor</title>
<polygon fill="none" stroke="black" points="32.62,-204 32.62,-225.75 170.62,-225.75 170.62,-204 32.62,-204"/>
<text text-anchor="start" x="35.62" y="-209.45" font-family="Helvetica,sans-Serif" font-size="14.00">DodgePredictSensor &#160;</text>
<polygon fill="none" stroke="black" points="32.62,-182.25 32.62,-204 170.62,-204 170.62,-182.25 32.62,-182.25"/>
<text text-anchor="start" x="35.62" y="-188.7" font-family="Helvetica,sans-Serif" font-size="12.00" fill="#838b8b">if: rollingCondition</text>
<text text-anchor="start" x="132.38" y="-188.7" font-family="Helvetica,sans-Serif" font-size="14.00"> &#160;</text>
</g>
<!-- DodgePredictSensor_linked -->
<g id="node8" class="node">
<title>DodgePredictSensor_linked</title>
<polygon fill="none" stroke="black" stroke-dasharray="1,5" points="371.85,-214 315.65,-214 315.65,-178 371.85,-178 371.85,-214"/>
<text text-anchor="start" x="321.25" y="-190.57" font-family="Helvetica,sans-Serif" font-size="14.00">Attack &#160;</text>
</g>
<!-- DodgePredictSensor&#45;&gt;DodgePredictSensor_linked -->
<g id="edge4" class="edge">
<title>DodgePredictSensor&#45;&gt;DodgePredictSensor_linked</title>
<path fill="none" stroke="#66cdaa" d="M178.6,-201.47C220.39,-200.08 270.45,-198.41 304.22,-197.28"/>
<polygon fill="#66cdaa" stroke="#66cdaa" points="304.05,-200.79 313.93,-196.96 303.81,-193.8 304.05,-200.79"/>
<text text-anchor="middle" x="237.88" y="-202.93" font-family="Helvetica,sans-Serif" font-size="14.00" fill="#66cdaa">QueueEnd</text>
</g>
<!-- AttackPredictSensor -->
<g id="node9" class="node">
<title>AttackPredictSensor</title>
<polygon fill="none" stroke="black" points="33.75,-277 33.75,-298.75 169.5,-298.75 169.5,-277 33.75,-277"/>
<text text-anchor="start" x="36.75" y="-282.45" font-family="Helvetica,sans-Serif" font-size="14.00">AttackPredictSensor &#160;</text>
<polygon fill="none" stroke="black" points="33.75,-255.25 33.75,-277 169.5,-277 169.5,-255.25 33.75,-255.25"/>
<text text-anchor="start" x="36.75" y="-261.7" font-family="Helvetica,sans-Serif" font-size="12.00" fill="#838b8b">if: attackCondition</text>
<text text-anchor="start" x="132" y="-261.7" font-family="Helvetica,sans-Serif" font-size="14.00"> &#160;</text>
</g>
<!-- AttackPredictSensor_linked -->
<g id="node10" class="node">
<title>AttackPredictSensor_linked</title>
<polygon fill="none" stroke="black" stroke-dasharray="1,5" points="371.85,-268 315.65,-268 315.65,-232 371.85,-232 371.85,-268"/>
<text text-anchor="start" x="321.25" y="-244.57" font-family="Helvetica,sans-Serif" font-size="14.00">Attack &#160;</text>
</g>
<!-- AttackPredictSensor&#45;&gt;AttackPredictSensor_linked -->
<g id="edge5" class="edge">
<title>AttackPredictSensor&#45;&gt;AttackPredictSensor_linked</title>
<path fill="none" stroke="#66cdaa" d="M177.32,-263.15C186.7,-261.68 196.18,-260.34 205.25,-259.25 238.51,-255.27 276.51,-252.87 304.13,-251.52"/>
<polygon fill="#66cdaa" stroke="#66cdaa" points="303.94,-255.04 313.77,-251.08 303.62,-248.04 303.94,-255.04"/>
<text text-anchor="middle" x="237.88" y="-261.7" font-family="Helvetica,sans-Serif" font-size="14.00" fill="#66cdaa">QueueEnd</text>
</g>
<!-- AttackPredictSensor_weight -->
<g id="node11" class="node">
<title>AttackPredictSensor_weight</title>
<polygon fill="none" stroke="black" stroke-dasharray="1,5" points="395,-322 292.5,-322 292.5,-286 395,-286 395,-322"/>
<text text-anchor="start" x="302.5" y="-298.57" font-family="Helvetica,sans-Serif" font-size="14.00">1 PushAway &#160;</text>
</g>
<!-- AttackPredictSensor&#45;&gt;AttackPredictSensor_weight -->
<g id="edge6" class="edge">
<title>AttackPredictSensor&#45;&gt;AttackPredictSensor_weight</title>
<path fill="none" stroke="#458b74" d="M177.29,-285.39C210.51,-289.13 249.19,-293.48 280.78,-297.03"/>
<polygon fill="#458b74" stroke="#458b74" points="280.25,-300.49 290.58,-298.13 281.03,-293.54 280.25,-300.49"/>
<text text-anchor="middle" x="237.88" y="-297.72" font-family="Helvetica,sans-Serif" font-size="14.00" fill="#458b74">Weight</text>
</g>
<!-- AttackRunToSensor -->
<g id="node12" class="node">
<title>AttackRunToSensor</title>
<polygon fill="none" stroke="black" points="35.25,-350 35.25,-371.75 168,-371.75 168,-350 35.25,-350"/>
<text text-anchor="start" x="38.25" y="-355.45" font-family="Helvetica,sans-Serif" font-size="14.00">AttackRunToSensor &#160;</text>
<polygon fill="none" stroke="black" points="35.25,-328.25 35.25,-350 168,-350 168,-328.25 35.25,-328.25"/>
<text text-anchor="start" x="38.25" y="-334.7" font-family="Helvetica,sans-Serif" font-size="12.00" fill="#838b8b">if: state is Engaging</text>
<text text-anchor="start" x="142.5" y="-334.7" font-family="Helvetica,sans-Serif" font-size="14.00"> &#160;</text>
</g>
<!-- AttackRunToSensor_linked -->
<g id="node13" class="node">
<title>AttackRunToSensor_linked</title>
<polygon fill="none" stroke="black" stroke-dasharray="1,5" points="371.85,-376 315.65,-376 315.65,-340 371.85,-340 371.85,-376"/>
<text text-anchor="start" x="321.25" y="-352.57" font-family="Helvetica,sans-Serif" font-size="14.00">Attack &#160;</text>
</g>
<!-- AttackRunToSensor&#45;&gt;AttackRunToSensor_linked -->
<g id="edge7" class="edge">
<title>AttackRunToSensor&#45;&gt;AttackRunToSensor_linked</title>
<path fill="none" stroke="#66cdaa" d="M175.98,-352.44C218.17,-353.85 269.48,-355.56 303.95,-356.71"/>
<polygon fill="#66cdaa" stroke="#66cdaa" points="303.78,-360.2 313.89,-357.04 304.01,-353.21 303.78,-360.2"/>
<text text-anchor="middle" x="237.88" y="-357.86" font-family="Helvetica,sans-Serif" font-size="14.00" fill="#66cdaa">QueueEnd</text>
</g>
<!-- AttackSensor(noShield) -->
<g id="node14" class="node">
<title>AttackSensor(noShield)</title>
<polygon fill="none" stroke="black" points="24,-401.12 24,-422.88 179.25,-422.88 179.25,-401.12 24,-401.12"/>
<text text-anchor="start" x="27" y="-406.57" font-family="Helvetica,sans-Serif" font-size="14.00">AttackSensor(noShield) &#160;</text>
</g>
<!-- AttackSensor(noShield)_linked -->
<g id="node15" class="node">
<title>AttackSensor(noShield)_linked</title>
<polygon fill="none" stroke="black" stroke-dasharray="1,5" points="371.85,-430 315.65,-430 315.65,-394 371.85,-394 371.85,-430"/>
<text text-anchor="start" x="321.25" y="-406.57" font-family="Helvetica,sans-Serif" font-size="14.00">Attack &#160;</text>
</g>
<!-- AttackSensor(noShield)&#45;&gt;AttackSensor(noShield)_linked -->
<g id="edge8" class="edge">
<title>AttackSensor(noShield)&#45;&gt;AttackSensor(noShield)_linked</title>
<path fill="none" stroke="#66cdaa" d="M186.95,-412C226.73,-412 272.27,-412 303.8,-412"/>
<polygon fill="#66cdaa" stroke="#66cdaa" points="303.64,-415.5 313.64,-412 303.64,-408.5 303.64,-415.5"/>
<text text-anchor="middle" x="237.88" y="-414.45" font-family="Helvetica,sans-Serif" font-size="14.00" fill="#66cdaa">QueueEnd</text>
</g>
<!-- Attack -->
<g id="node16" class="node">
<title>Attack</title>
<polygon fill="none" stroke="black" points="62.62,-496 62.62,-517.75 140.62,-517.75 140.62,-496 62.62,-496"/>
<text text-anchor="start" x="79.12" y="-501.45" font-family="Helvetica,sans-Serif" font-size="14.00">Attack &#160;</text>
<polygon fill="none" stroke="black" points="62.62,-474.25 62.62,-496 140.62,-496 140.62,-474.25 62.62,-474.25"/>
<text text-anchor="start" x="65.62" y="-480.7" font-family="Helvetica,sans-Serif" font-size="12.00" fill="#838b8b">1.50s: Done</text>
<text text-anchor="start" x="130.12" y="-480.7" font-family="Helvetica,sans-Serif" font-size="14.00"> &#160;</text>
</g>
<!-- PushAway_linked -->
<g id="node17" class="node">
<title>PushAway_linked</title>
<polygon fill="none" stroke="black" stroke-dasharray="1,5" points="371.85,-594.35 315.65,-594.35 315.65,-547.65 371.85,-547.65 371.85,-594.35"/>
<text text-anchor="start" x="321.25" y="-575.45" font-family="Helvetica,sans-Serif" font-size="14.00">Attack &#160;</text>
<text text-anchor="start" x="321.25" y="-555.7" font-family="Helvetica,sans-Serif" font-size="14.00">Attack &#160;</text>
</g>
<!-- PushAway -->
<g id="node18" class="node">
<title>PushAway</title>
<polygon fill="none" stroke="black" points="39,-576.12 39,-597.88 164.25,-597.88 164.25,-576.12 39,-576.12"/>
<text text-anchor="start" x="66" y="-581.58" font-family="Helvetica,sans-Serif" font-size="14.00">PushAway &#160;</text>
<polygon fill="none" stroke="black" points="39,-544.12 39,-576.12 164.25,-576.12 164.25,-544.12 39,-544.12"/>
<text text-anchor="start" x="42" y="-562.73" font-family="Helvetica,sans-Serif" font-size="12.00" fill="#838b8b">0.50s: Done</text>
<text text-anchor="start" x="42" y="-548.83" font-family="Helvetica,sans-Serif" font-size="12.00" fill="#838b8b">0.53s: LinkNextMove</text>
<text text-anchor="start" x="153.75" y="-548.83" font-family="Helvetica,sans-Serif" font-size="14.00"> &#160;</text>
</g>
<!-- PushAway&#45;&gt;PushAway_linked -->
<g id="edge9" class="edge">
<title>PushAway&#45;&gt;PushAway_linked</title>
<path fill="none" stroke="#66cdaa" d="M172.08,-571C215.01,-571 268.51,-571 304.05,-571"/>
<polygon fill="#66cdaa" stroke="#66cdaa" points="303.86,-574.5 313.86,-571 303.86,-567.5 303.86,-574.5"/>
<text text-anchor="middle" x="237.88" y="-573.45" font-family="Helvetica,sans-Serif" font-size="14.00" fill="#66cdaa">QueueEnd</text>
</g>
<!-- ShieldRegen_linked -->
<g id="node19" class="node">
<title>ShieldRegen_linked</title>
<polygon fill="none" stroke="black" stroke-dasharray="1,5" points="371.85,-669.35 315.65,-669.35 315.65,-622.65 371.85,-622.65 371.85,-669.35"/>
<text text-anchor="start" x="321.25" y="-650.45" font-family="Helvetica,sans-Serif" font-size="14.00">Attack &#160;</text>
<text text-anchor="start" x="321.25" y="-630.7" font-family="Helvetica,sans-Serif" font-size="14.00">Attack &#160;</text>
</g>
<!-- ShieldRegen -->
<g id="node20" class="node">
<title>ShieldRegen</title>
<polygon fill="none" stroke="black" points="56.25,-646 56.25,-667.75 147,-667.75 147,-646 56.25,-646"/>
<text text-anchor="start" x="59.25" y="-651.45" font-family="Helvetica,sans-Serif" font-size="14.00">ShieldRegen &#160;</text>
<polygon fill="none" stroke="black" points="56.25,-624.25 56.25,-646 147,-646 147,-624.25 56.25,-624.25"/>
<text text-anchor="start" x="59.25" y="-630.7" font-family="Helvetica,sans-Serif" font-size="12.00" fill="#838b8b">0.50s: Done</text>
<text text-anchor="start" x="123.75" y="-630.7" font-family="Helvetica,sans-Serif" font-size="14.00"> &#160;</text>
</g>
<!-- ShieldRegen&#45;&gt;ShieldRegen_linked -->
<g id="edge10" class="edge">
<title>ShieldRegen&#45;&gt;ShieldRegen_linked</title>
<path fill="none" stroke="#66cdaa" d="M154.73,-646C199.67,-646 263.56,-646 304.08,-646"/>
<polygon fill="#66cdaa" stroke="#66cdaa" points="303.84,-649.5 313.84,-646 303.84,-642.5 303.84,-649.5"/>
<text text-anchor="middle" x="237.88" y="-648.45" font-family="Helvetica,sans-Serif" font-size="14.00" fill="#66cdaa">QueueEnd</text>
</g>
<!-- AttackParrying -->
<g id="node21" class="node">
<title>AttackParrying</title>
<polygon fill="none" stroke="black" points="51,-716 51,-737.75 152.25,-737.75 152.25,-716 51,-716"/>
<text text-anchor="start" x="54" y="-721.45" font-family="Helvetica,sans-Serif" font-size="14.00">AttackParrying &#160;</text>
<polygon fill="none" stroke="black" points="51,-694.25 51,-716 152.25,-716 152.25,-694.25 51,-694.25"/>
<text text-anchor="start" x="54" y="-700.7" font-family="Helvetica,sans-Serif" font-size="12.00" fill="#838b8b">0.58s: Done</text>
<text text-anchor="start" x="118.5" y="-700.7" font-family="Helvetica,sans-Serif" font-size="14.00"> &#160;</text>
</g>
<!-- HurtState -->
<g id="node22" class="node">
<title>HurtState</title>
<polygon fill="none" stroke="black" points="62.62,-786 62.62,-807.75 140.62,-807.75 140.62,-786 62.62,-786"/>
<text text-anchor="start" x="69.38" y="-791.45" font-family="Helvetica,sans-Serif" font-size="14.00">HurtState &#160;</text>
<polygon fill="none" stroke="black" points="62.62,-764.25 62.62,-786 140.62,-786 140.62,-764.25 62.62,-764.25"/>
<text text-anchor="start" x="65.62" y="-770.7" font-family="Helvetica,sans-Serif" font-size="12.00" fill="#838b8b">0.17s: Done</text>
<text text-anchor="start" x="130.12" y="-770.7" font-family="Helvetica,sans-Serif" font-size="14.00"> &#160;</text>
</g>
<!-- Hurt_BigState -->
<g id="node23" class="node">
<title>Hurt_BigState</title>
<polygon fill="none" stroke="black" points="52.88,-856 52.88,-877.75 150.38,-877.75 150.38,-856 52.88,-856"/>
<text text-anchor="start" x="55.88" y="-861.45" font-family="Helvetica,sans-Serif" font-size="14.00">Hurt_BigState &#160;</text>
<polygon fill="none" stroke="black" points="52.88,-834.25 52.88,-856 150.38,-856 150.38,-834.25 52.88,-834.25"/>
<text text-anchor="start" x="55.88" y="-840.7" font-family="Helvetica,sans-Serif" font-size="12.00" fill="#838b8b">0.57s: Done</text>
<text text-anchor="start" x="120.38" y="-840.7" font-family="Helvetica,sans-Serif" font-size="14.00"> &#160;</text>
</g>
<!-- StandUp -->
<g id="node24" class="node">
<title>StandUp</title>
<polygon fill="none" stroke="black" points="43.12,-936.12 43.12,-957.88 160.12,-957.88 160.12,-936.12 43.12,-936.12"/>
<text text-anchor="start" x="71.62" y="-941.58" font-family="Helvetica,sans-Serif" font-size="14.00">StandUp &#160;</text>
<polygon fill="none" stroke="black" points="43.12,-904.12 43.12,-936.12 160.12,-936.12 160.12,-904.12 43.12,-904.12"/>
<text text-anchor="start" x="46.12" y="-922.73" font-family="Helvetica,sans-Serif" font-size="12.00" fill="#838b8b">0.00s: EnableGravity</text>
<text text-anchor="start" x="46.12" y="-908.83" font-family="Helvetica,sans-Serif" font-size="12.00" fill="#838b8b">2.08s: Done</text>
<text text-anchor="start" x="110.62" y="-908.83" font-family="Helvetica,sans-Serif" font-size="14.00"> &#160;</text>
</g>
<!-- Wandering_Idle -->
<g id="node25" class="node">
<title>Wandering_Idle</title>
<polygon fill="none" stroke="black" points="399,-949 288.5,-949 288.5,-913 399,-913 399,-949"/>
<text text-anchor="middle" x="343.75" y="-925.58" font-family="Helvetica,sans-Serif" font-size="14.00">Wandering_Idle</text>
</g>
<!-- StandUp&#45;&gt;Wandering_Idle -->
<g id="edge11" class="edge">
<title>StandUp&#45;&gt;Wandering_Idle</title>
<path fill="none" stroke="#cdc8b1" d="M167.92,-931C201.74,-931 242.93,-931 276.83,-931"/>
<polygon fill="#cdc8b1" stroke="#cdc8b1" points="276.51,-934.5 286.51,-931 276.51,-927.5 276.51,-934.5"/>
</g>
<!-- Seat -->
<g id="node26" class="node">
<title>Seat</title>
<polygon fill="none" stroke="black" points="138.88,-1016 64.38,-1016 64.38,-980 138.88,-980 138.88,-1016"/>
<text text-anchor="middle" x="101.62" y="-992.58" font-family="Helvetica,sans-Serif" font-size="14.00">Seat (Init)</text>
</g>
</g>
</svg>
