<?xml version="1.0" encoding="UTF-8" standalone="no"?>
<!DOCTYPE svg PUBLIC "-//W3C//DTD SVG 1.1//EN"
 "http://www.w3.org/Graphics/SVG/1.1/DTD/svg11.dtd">
<!-- Generated by graphviz version 12.2.1 (20241206.2353)
 -->
<!-- Title: Foo Pages: 1 -->
<svg width="402pt" height="1050pt"
 viewBox="0.00 0.00 402.25 1049.88" xmlns="http://www.w3.org/2000/svg" xmlns:xlink="http://www.w3.org/1999/xlink">
<g id="graph0" class="graph" transform="scale(1 1) rotate(0) translate(4 1045.88)">
<title>Foo</title>
<polygon fill="white" stroke="none" points="-4,4 -4,-1045.88 398.25,-1045.88 398.25,4 -4,4"/>
<g id="clust1" class="cluster">
<title>cluster_attacksensors</title>
<polygon fill="none" stroke="black" points="8,-513.88 8,-1033.88 386.25,-1033.88 386.25,-513.88 8,-513.88"/>
<text text-anchor="middle" x="197.12" y="-1016.58" font-family="Helvetica,sans-Serif" font-size="14.00">Attack Sensors</text>
</g>
<!-- Attack -->
<g id="node1" class="node">
<title>Attack</title>
<polygon fill="none" stroke="black" points="54,-185.88 54,-207.62 132,-207.62 132,-185.88 54,-185.88"/>
<text text-anchor="start" x="70.5" y="-191.32" font-family="Helvetica,sans-Serif" font-size="14.00">Attack &#160;</text>
<polygon fill="none" stroke="black" points="54,-164.12 54,-185.88 132,-185.88 132,-164.12 54,-164.12"/>
<text text-anchor="start" x="57" y="-170.57" font-family="Helvetica,sans-Serif" font-size="12.00" fill="#838b8b">1.32s: Done</text>
<text text-anchor="start" x="121.5" y="-170.57" font-family="Helvetica,sans-Serif" font-size="14.00"> &#160;</text>
</g>
<!-- Engaging -->
<g id="node2" class="node">
<title>Engaging</title>
<polygon fill="none" stroke="black" points="364.62,-128.88 291.62,-128.88 291.62,-92.88 364.62,-92.88 364.62,-128.88"/>
<text text-anchor="middle" x="328.12" y="-105.45" font-family="Helvetica,sans-Serif" font-size="14.00">Engaging</text>
</g>
<!-- Attack&#45;&gt;Engaging -->
<g id="edge1" class="edge">
<title>Attack&#45;&gt;Engaging</title>
<path fill="none" stroke="#cdc8b1" d="M139.78,-171.15C180.47,-158.06 239.68,-139.01 280.6,-125.84"/>
<polygon fill="#cdc8b1" stroke="#cdc8b1" points="281.47,-129.24 289.92,-122.84 279.33,-122.57 281.47,-129.24"/>
</g>
<!-- AttackParrying -->
<g id="node3" class="node">
<title>AttackParrying</title>
<polygon fill="none" stroke="black" points="34.5,-116 34.5,-137.75 151.5,-137.75 151.5,-116 34.5,-116"/>
<text text-anchor="start" x="45.38" y="-121.45" font-family="Helvetica,sans-Serif" font-size="14.00">AttackParrying &#160;</text>
<polygon fill="none" stroke="black" points="34.5,-84 34.5,-116 151.5,-116 151.5,-84 34.5,-84"/>
<text text-anchor="start" x="37.5" y="-102.6" font-family="Helvetica,sans-Serif" font-size="12.00" fill="#838b8b">0.00s: EnableGravity</text>
<text text-anchor="start" x="37.5" y="-88.7" font-family="Helvetica,sans-Serif" font-size="12.00" fill="#838b8b">0.42s: Done</text>
<text text-anchor="start" x="102" y="-88.7" font-family="Helvetica,sans-Serif" font-size="14.00"> &#160;</text>
</g>
<!-- AttackParrying&#45;&gt;Engaging -->
<g id="edge2" class="edge">
<title>AttackParrying&#45;&gt;Engaging</title>
<path fill="none" stroke="#cdc8b1" d="M159.25,-110.88C197.61,-110.88 245.24,-110.88 279.96,-110.88"/>
<polygon fill="#cdc8b1" stroke="#cdc8b1" points="279.69,-114.38 289.69,-110.88 279.69,-107.38 279.69,-114.38"/>
</g>
<!-- HurtState -->
<g id="node4" class="node">
<title>HurtState</title>
<polygon fill="none" stroke="black" points="34.5,-426 34.5,-447.75 151.5,-447.75 151.5,-426 34.5,-426"/>
<text text-anchor="start" x="60.75" y="-431.45" font-family="Helvetica,sans-Serif" font-size="14.00">HurtState &#160;</text>
<polygon fill="none" stroke="black" points="34.5,-394 34.5,-426 151.5,-426 151.5,-394 34.5,-394"/>
<text text-anchor="start" x="37.5" y="-412.6" font-family="Helvetica,sans-Serif" font-size="12.00" fill="#838b8b">0.00s: EnableGravity</text>
<text text-anchor="start" x="37.5" y="-398.7" font-family="Helvetica,sans-Serif" font-size="12.00" fill="#838b8b">0.17s: Done</text>
<text text-anchor="start" x="102" y="-398.7" font-family="Helvetica,sans-Serif" font-size="14.00"> &#160;</text>
</g>
<!-- PreAttack -->
<g id="node5" class="node">
<title>PreAttack</title>
<polygon fill="none" stroke="black" points="365.38,-358.88 290.88,-358.88 290.88,-322.88 365.38,-322.88 365.38,-358.88"/>
<text text-anchor="middle" x="328.12" y="-335.45" font-family="Helvetica,sans-Serif" font-size="14.00">PreAttack</text>
</g>
<!-- HurtState&#45;&gt;PreAttack -->
<g id="edge3" class="edge">
<title>HurtState&#45;&gt;PreAttack</title>
<path fill="none" stroke="#cdc8b1" d="M159.25,-398.48C197.54,-385.35 245.05,-369.04 279.75,-357.13"/>
<polygon fill="#cdc8b1" stroke="#cdc8b1" points="280.78,-360.48 289.1,-353.92 278.51,-353.86 280.78,-360.48"/>
</g>
<!-- Hurt_BigState -->
<g id="node6" class="node">
<title>Hurt_BigState</title>
<polygon fill="none" stroke="black" points="34.5,-346 34.5,-367.75 151.5,-367.75 151.5,-346 34.5,-346"/>
<text text-anchor="start" x="47.25" y="-351.45" font-family="Helvetica,sans-Serif" font-size="14.00">Hurt_BigState &#160;</text>
<polygon fill="none" stroke="black" points="34.5,-314 34.5,-346 151.5,-346 151.5,-314 34.5,-314"/>
<text text-anchor="start" x="37.5" y="-332.6" font-family="Helvetica,sans-Serif" font-size="12.00" fill="#838b8b">0.00s: EnableGravity</text>
<text text-anchor="start" x="37.5" y="-318.7" font-family="Helvetica,sans-Serif" font-size="12.00" fill="#838b8b">1.00s: Done</text>
<text text-anchor="start" x="102" y="-318.7" font-family="Helvetica,sans-Serif" font-size="14.00"> &#160;</text>
</g>
<!-- Hurt_BigState&#45;&gt;PreAttack -->
<g id="edge4" class="edge">
<title>Hurt_BigState&#45;&gt;PreAttack</title>
<path fill="none" stroke="#cdc8b1" d="M159.25,-340.88C197.37,-340.88 244.64,-340.88 279.3,-340.88"/>
<polygon fill="#cdc8b1" stroke="#cdc8b1" points="279.02,-344.38 289.02,-340.88 279.02,-337.38 279.02,-344.38"/>
</g>
<!-- PostureBreak -->
<g id="node7" class="node">
<title>PostureBreak</title>
<polygon fill="none" stroke="black" points="34.5,-266 34.5,-287.75 151.5,-287.75 151.5,-266 34.5,-266"/>
<text text-anchor="start" x="48.38" y="-271.45" font-family="Helvetica,sans-Serif" font-size="14.00">PostureBreak &#160;</text>
<polygon fill="none" stroke="black" points="34.5,-234 34.5,-266 151.5,-266 151.5,-234 34.5,-234"/>
<text text-anchor="start" x="37.5" y="-252.6" font-family="Helvetica,sans-Serif" font-size="12.00" fill="#838b8b">0.00s: EnableGravity</text>
<text text-anchor="start" x="37.5" y="-238.7" font-family="Helvetica,sans-Serif" font-size="12.00" fill="#838b8b">3.50s: Done</text>
<text text-anchor="start" x="102" y="-238.7" font-family="Helvetica,sans-Serif" font-size="14.00"> &#160;</text>
</g>
<!-- PostureBreak&#45;&gt;PreAttack -->
<g id="edge5" class="edge">
<title>PostureBreak&#45;&gt;PreAttack</title>
<path fill="none" stroke="#cdc8b1" d="M159.25,-283.27C197.54,-296.4 245.05,-312.71 279.75,-324.62"/>
<polygon fill="#cdc8b1" stroke="#cdc8b1" points="278.51,-327.89 289.1,-327.83 280.78,-321.27 278.51,-327.89"/>
</g>
<!-- RollThrough -->
<g id="node8" class="node">
<title>RollThrough</title>
<polygon fill="none" stroke="black" points="34.12,-36 34.12,-57.75 151.88,-57.75 151.88,-36 34.12,-36"/>
<text text-anchor="start" x="52.5" y="-41.45" font-family="Helvetica,sans-Serif" font-size="14.00">RollThrough &#160;</text>
<polygon fill="none" stroke="black" points="34.12,-4 34.12,-36 151.88,-36 151.88,-4 34.12,-4"/>
<text text-anchor="start" x="37.12" y="-22.6" font-family="Helvetica,sans-Serif" font-size="12.00" fill="#838b8b">0.67s: LinkNextMove</text>
<text text-anchor="start" x="37.12" y="-8.7" font-family="Helvetica,sans-Serif" font-size="12.00" fill="#838b8b">0.68s: Done</text>
<text text-anchor="start" x="101.62" y="-8.7" font-family="Helvetica,sans-Serif" font-size="14.00"> &#160;</text>
</g>
<!-- RollThrough&#45;&gt;Engaging -->
<g id="edge6" class="edge">
<title>RollThrough&#45;&gt;Engaging</title>
<path fill="none" stroke="#cdc8b1" d="M159.87,-53.48C198.38,-66.7 246.07,-83.06 280.65,-94.93"/>
<polygon fill="#cdc8b1" stroke="#cdc8b1" points="279.37,-98.19 289.96,-98.12 281.64,-91.57 279.37,-98.19"/>
</g>
<!-- Wandering_Walking -->
<g id="node9" class="node">
<title>Wandering_Walking</title>
<polygon fill="none" stroke="black" points="176.75,-505.88 9.25,-505.88 9.25,-469.88 176.75,-469.88 176.75,-505.88"/>
<text text-anchor="middle" x="93" y="-482.45" font-family="Helvetica,sans-Serif" font-size="14.00">Wandering_Walking (Init)</text>
</g>
<!-- Level Once Sensor -->
<g id="node10" class="node">
<title>Level Once Sensor</title>
<polygon fill="none" stroke="black" points="158.75,-561.88 27.25,-561.88 27.25,-525.88 158.75,-525.88 158.75,-561.88"/>
<text text-anchor="middle" x="93" y="-538.45" font-family="Helvetica,sans-Serif" font-size="14.00">Level Once Sensor</text>
</g>
<!-- Level Once Sensor_linked -->
<g id="node11" class="node">
<title>Level Once Sensor_linked</title>
<polygon fill="none" stroke="black" stroke-dasharray="1,5" points="356.23,-557.88 300.02,-557.88 300.02,-521.88 356.23,-521.88 356.23,-557.88"/>
<text text-anchor="start" x="305.62" y="-534.45" font-family="Helvetica,sans-Serif" font-size="14.00">Attack &#160;</text>
</g>
<!-- Level Once Sensor&#45;&gt;Level Once Sensor_linked -->
<g id="edge7" class="edge">
<title>Level Once Sensor&#45;&gt;Level Once Sensor_linked</title>
<path fill="none" stroke="#66cdaa" d="M159.25,-542.76C200.88,-542.04 253.42,-541.14 288.53,-540.54"/>
<polygon fill="#66cdaa" stroke="#66cdaa" points="288.28,-544.04 298.22,-540.37 288.16,-537.04 288.28,-544.04"/>
<text text-anchor="middle" x="227.38" y="-544.56" font-family="Helvetica,sans-Serif" font-size="14.00" fill="#66cdaa">QueueEnd</text>
</g>
<!-- Level Once Sensor_mustuse -->
<g id="node12" class="node">
<title>Level Once Sensor_mustuse</title>
<polygon fill="none" stroke="black" stroke-dasharray="1,5" points="378.25,-611.88 278,-611.88 278,-575.88 378.25,-575.88 378.25,-611.88"/>
<text text-anchor="start" x="288" y="-588.45" font-family="Helvetica,sans-Serif" font-size="14.00">1 Undefined &#160;</text>
</g>
<!-- Level Once Sensor&#45;&gt;Level Once Sensor_mustuse -->
<g id="edge8" class="edge">
<title>Level Once Sensor&#45;&gt;Level Once Sensor_mustuse</title>
<path fill="none" stroke="#458b74" d="M159.25,-557.87C193.01,-565.11 233.95,-573.89 266.95,-580.97"/>
<polygon fill="#458b74" stroke="#458b74" points="265.83,-584.31 276.34,-582.98 267.29,-577.46 265.83,-584.31"/>
<text text-anchor="middle" x="227.38" y="-581.55" font-family="Helvetica,sans-Serif" font-size="14.00" fill="#458b74">Weight</text>
</g>
<!-- RunAwaySensor -->
<g id="node13" class="node">
<title>RunAwaySensor</title>
<polygon fill="none" stroke="black" points="151.25,-623.88 34.75,-623.88 34.75,-587.88 151.25,-587.88 151.25,-623.88"/>
<text text-anchor="middle" x="93" y="-600.45" font-family="Helvetica,sans-Serif" font-size="14.00">RunAwaySensor</text>
</g>
<!-- AttackSensor -->
<g id="node14" class="node">
<title>AttackSensor</title>
<polygon fill="none" stroke="black" points="141.12,-681.88 44.88,-681.88 44.88,-645.88 141.12,-645.88 141.12,-681.88"/>
<text text-anchor="middle" x="93" y="-658.45" font-family="Helvetica,sans-Serif" font-size="14.00">AttackSensor</text>
</g>
<!-- AttackSensor_linked -->
<g id="node15" class="node">
<title>AttackSensor_linked</title>
<polygon fill="none" stroke="black" stroke-dasharray="1,5" points="356.23,-665.88 300.02,-665.88 300.02,-629.88 356.23,-629.88 356.23,-665.88"/>
<text text-anchor="start" x="305.62" y="-642.45" font-family="Helvetica,sans-Serif" font-size="14.00">Attack &#160;</text>
</g>
<!-- AttackSensor&#45;&gt;AttackSensor_linked -->
<g id="edge9" class="edge">
<title>AttackSensor&#45;&gt;AttackSensor_linked</title>
<path fill="none" stroke="#66cdaa" d="M141.46,-660.62C184.84,-657.64 248.2,-653.29 288.54,-650.52"/>
<polygon fill="#66cdaa" stroke="#66cdaa" points="288.53,-654.03 298.26,-649.86 288.05,-647.05 288.53,-654.03"/>
<text text-anchor="middle" x="227.38" y="-659.28" font-family="Helvetica,sans-Serif" font-size="14.00" fill="#66cdaa">QueueEnd</text>
</g>
<!-- AttackSensor_mustuse -->
<g id="node16" class="node">
<title>AttackSensor_mustuse</title>
<polygon fill="none" stroke="black" stroke-dasharray="1,5" points="378.25,-731.62 278,-731.62 278,-684.12 378.25,-684.12 378.25,-731.62"/>
<text text-anchor="start" x="288" y="-712.33" font-family="Helvetica,sans-Serif" font-size="14.00">2 Undefined &#160;</text>
<text text-anchor="start" x="288" y="-692.58" font-family="Helvetica,sans-Serif" font-size="14.00">1 Undefined &#160;</text>
</g>
<!-- AttackSensor&#45;&gt;AttackSensor_mustuse -->
<g id="edge10" class="edge">
<title>AttackSensor&#45;&gt;AttackSensor_mustuse</title>
<path fill="none" stroke="#458b74" d="M141.46,-672.83C177.57,-679.65 227.52,-689.08 266.52,-696.44"/>
<polygon fill="#458b74" stroke="#458b74" points="265.76,-699.85 276.24,-698.27 267.06,-692.98 265.76,-699.85"/>
<text text-anchor="middle" x="227.38" y="-697.32" font-family="Helvetica,sans-Serif" font-size="14.00" fill="#458b74">Weight</text>
</g>
<!-- DodgePredictSensor -->
<g id="node17" class="node">
<title>DodgePredictSensor</title>
<polygon fill="none" stroke="black" points="24,-727.88 24,-749.62 162,-749.62 162,-727.88 24,-727.88"/>
<text text-anchor="start" x="27" y="-733.33" font-family="Helvetica,sans-Serif" font-size="14.00">DodgePredictSensor &#160;</text>
<polygon fill="none" stroke="black" points="24,-706.12 24,-727.88 162,-727.88 162,-706.12 24,-706.12"/>
<text text-anchor="start" x="27" y="-712.58" font-family="Helvetica,sans-Serif" font-size="12.00" fill="#838b8b">if: Dodge</text>
<text text-anchor="start" x="75" y="-712.58" font-family="Helvetica,sans-Serif" font-size="14.00"> &#160;</text>
</g>
<!-- DodgePredictSensor_linked -->
<g id="node18" class="node">
<title>DodgePredictSensor_linked</title>
<polygon fill="none" stroke="black" stroke-dasharray="1,5" points="356.23,-785.88 300.02,-785.88 300.02,-749.88 356.23,-749.88 356.23,-785.88"/>
<text text-anchor="start" x="305.62" y="-762.45" font-family="Helvetica,sans-Serif" font-size="14.00">Attack &#160;</text>
</g>
<!-- DodgePredictSensor&#45;&gt;DodgePredictSensor_linked -->
<g id="edge11" class="edge">
<title>DodgePredictSensor&#45;&gt;DodgePredictSensor_linked</title>
<path fill="none" stroke="#66cdaa" d="M169.69,-740.86C209.36,-747.67 256.25,-755.71 288.49,-761.25"/>
<polygon fill="#66cdaa" stroke="#66cdaa" points="287.72,-764.66 298.16,-762.91 288.9,-757.77 287.72,-764.66"/>
<text text-anchor="middle" x="227.38" y="-758.51" font-family="Helvetica,sans-Serif" font-size="14.00" fill="#66cdaa">QueueEnd</text>
</g>
<!-- AttackPredictSensor -->
<g id="node19" class="node">
<title>AttackPredictSensor</title>
<polygon fill="none" stroke="black" points="25.12,-797.88 25.12,-819.62 160.88,-819.62 160.88,-797.88 25.12,-797.88"/>
<text text-anchor="start" x="28.12" y="-803.33" font-family="Helvetica,sans-Serif" font-size="14.00">AttackPredictSensor &#160;</text>
<polygon fill="none" stroke="black" points="25.12,-776.12 25.12,-797.88 160.88,-797.88 160.88,-776.12 25.12,-776.12"/>
<text text-anchor="start" x="28.12" y="-782.58" font-family="Helvetica,sans-Serif" font-size="12.00" fill="#838b8b">if: Attack</text>
<text text-anchor="start" x="73.12" y="-782.58" font-family="Helvetica,sans-Serif" font-size="14.00"> &#160;</text>
</g>
<!-- AttackPredictSensor_linked -->
<g id="node20" class="node">
<title>AttackPredictSensor_linked</title>
<polygon fill="none" stroke="black" stroke-dasharray="1,5" points="356.23,-839.88 300.02,-839.88 300.02,-803.88 356.23,-803.88 356.23,-839.88"/>
<text text-anchor="start" x="305.62" y="-816.45" font-family="Helvetica,sans-Serif" font-size="14.00">Attack &#160;</text>
</g>
<!-- AttackPredictSensor&#45;&gt;AttackPredictSensor_linked -->
<g id="edge12" class="edge">
<title>AttackPredictSensor&#45;&gt;AttackPredictSensor_linked</title>
<path fill="none" stroke="#66cdaa" d="M168.72,-805.57C208.58,-809.67 255.96,-814.55 288.45,-817.89"/>
<polygon fill="#66cdaa" stroke="#66cdaa" points="287.89,-821.35 298.2,-818.9 288.61,-814.39 287.89,-821.35"/>
<text text-anchor="middle" x="227.38" y="-817.23" font-family="Helvetica,sans-Serif" font-size="14.00" fill="#66cdaa">QueueEnd</text>
</g>
<!-- AttackRunToSensor -->
<g id="node21" class="node">
<title>AttackRunToSensor</title>
<polygon fill="none" stroke="black" points="26.62,-867.88 26.62,-889.62 159.38,-889.62 159.38,-867.88 26.62,-867.88"/>
<text text-anchor="start" x="29.62" y="-873.33" font-family="Helvetica,sans-Serif" font-size="14.00">AttackRunToSensor &#160;</text>
<polygon fill="none" stroke="black" points="26.62,-846.12 26.62,-867.88 159.38,-867.88 159.38,-846.12 26.62,-846.12"/>
<text text-anchor="start" x="29.62" y="-852.58" font-family="Helvetica,sans-Serif" font-size="12.00" fill="#838b8b">if: state is Engaging</text>
<text text-anchor="start" x="133.88" y="-852.58" font-family="Helvetica,sans-Serif" font-size="14.00"> &#160;</text>
</g>
<!-- AttackRunToSensor_linked -->
<g id="node22" class="node">
<title>AttackRunToSensor_linked</title>
<polygon fill="none" stroke="black" stroke-dasharray="1,5" points="356.23,-893.88 300.02,-893.88 300.02,-857.88 356.23,-857.88 356.23,-893.88"/>
<text text-anchor="start" x="305.62" y="-870.45" font-family="Helvetica,sans-Serif" font-size="14.00">Attack &#160;</text>
</g>
<!-- AttackRunToSensor&#45;&gt;AttackRunToSensor_linked -->
<g id="edge13" class="edge">
<title>AttackRunToSensor&#45;&gt;AttackRunToSensor_linked</title>
<path fill="none" stroke="#66cdaa" d="M167.12,-870.38C207.2,-871.76 255.27,-873.41 288.2,-874.54"/>
<polygon fill="#66cdaa" stroke="#66cdaa" points="287.97,-878.03 298.08,-874.88 288.21,-871.04 287.97,-878.03"/>
<text text-anchor="middle" x="227.38" y="-875.96" font-family="Helvetica,sans-Serif" font-size="14.00" fill="#66cdaa">QueueEnd</text>
</g>
<!-- RollSensor (1) -->
<g id="node23" class="node">
<title>RollSensor (1)</title>
<polygon fill="none" stroke="black" points="144.12,-947.88 41.88,-947.88 41.88,-911.88 144.12,-911.88 144.12,-947.88"/>
<text text-anchor="middle" x="93" y="-924.45" font-family="Helvetica,sans-Serif" font-size="14.00">RollSensor (1)</text>
</g>
<!-- RollSensor (1)_linked -->
<g id="node24" class="node">
<title>RollSensor (1)_linked</title>
<polygon fill="none" stroke="black" stroke-dasharray="1,5" points="374.23,-947.88 282.02,-947.88 282.02,-911.88 374.23,-911.88 374.23,-947.88"/>
<text text-anchor="start" x="287.62" y="-924.45" font-family="Helvetica,sans-Serif" font-size="14.00">RollThrough &#160;</text>
</g>
<!-- RollSensor (1)&#45;&gt;RollSensor (1)_linked -->
<g id="edge14" class="edge">
<title>RollSensor (1)&#45;&gt;RollSensor (1)_linked</title>
<path fill="none" stroke="#66cdaa" d="M144.58,-929.88C181.6,-929.88 231.85,-929.88 270.26,-929.88"/>
<polygon fill="#66cdaa" stroke="#66cdaa" points="270.25,-933.38 280.25,-929.88 270.25,-926.38 270.25,-933.38"/>
<text text-anchor="middle" x="227.38" y="-932.33" font-family="Helvetica,sans-Serif" font-size="14.00" fill="#66cdaa">QueueEnd</text>
</g>
<!-- EspcaeSensor (1) -->
<g id="node25" class="node">
<title>EspcaeSensor (1)</title>
<polygon fill="none" stroke="black" points="155,-1001.88 31,-1001.88 31,-965.88 155,-965.88 155,-1001.88"/>
<text text-anchor="middle" x="93" y="-978.45" font-family="Helvetica,sans-Serif" font-size="14.00">EspcaeSensor (1)</text>
</g>
<!-- EspcaeSensor (1)_linked -->
<g id="node26" class="node">
<title>EspcaeSensor (1)_linked</title>
<polygon fill="none" stroke="black" stroke-dasharray="1,5" points="374.23,-1001.88 282.02,-1001.88 282.02,-965.88 374.23,-965.88 374.23,-1001.88"/>
<text text-anchor="start" x="287.62" y="-978.45" font-family="Helvetica,sans-Serif" font-size="14.00">RollThrough &#160;</text>
</g>
<!-- EspcaeSensor (1)&#45;&gt;EspcaeSensor (1)_linked -->
<g id="edge15" class="edge">
<title>EspcaeSensor (1)&#45;&gt;EspcaeSensor (1)_linked</title>
<path fill="none" stroke="#66cdaa" d="M155.25,-983.88C190.88,-983.88 235.5,-983.88 270.34,-983.88"/>
<polygon fill="#66cdaa" stroke="#66cdaa" points="270.24,-987.38 280.24,-983.88 270.24,-980.38 270.24,-987.38"/>
<text text-anchor="middle" x="227.38" y="-986.33" font-family="Helvetica,sans-Serif" font-size="14.00" fill="#66cdaa">QueueEnd</text>
</g>
</g>
</svg>
