<?xml version="1.0" encoding="UTF-8" standalone="no"?>
<!DOCTYPE svg PUBLIC "-//W3C//DTD SVG 1.1//EN"
 "http://www.w3.org/Graphics/SVG/1.1/DTD/svg11.dtd">
<!-- Generated by graphviz version 12.2.1 (20241206.2353)
 -->
<!-- Title: Foo Pages: 1 -->
<svg width="610pt" height="1898pt"
 viewBox="0.00 0.00 610.00 1898.00" xmlns="http://www.w3.org/2000/svg" xmlns:xlink="http://www.w3.org/1999/xlink">
<g id="graph0" class="graph" transform="scale(1 1) rotate(0) translate(4 1894)">
<title>Foo</title>
<polygon fill="white" stroke="none" points="-4,4 -4,-1894 606,-1894 606,4 -4,4"/>
<g id="clust1" class="cluster">
<title>cluster_attacksensors</title>
<polygon fill="none" stroke="black" points="8,-8 8,-408 411.35,-408 411.35,-8 8,-8"/>
<text text-anchor="middle" x="209.68" y="-390.7" font-family="Helvetica,sans-Serif" font-size="14.00">Attack Sensors</text>
</g>
<!-- Level Once Sensor -->
<g id="node1" class="node">
<title>Level Once Sensor</title>
<polygon fill="none" stroke="black" points="28.5,-24.12 28.5,-45.88 157.5,-45.88 157.5,-24.12 28.5,-24.12"/>
<text text-anchor="start" x="31.5" y="-29.57" font-family="Helvetica,sans-Serif" font-size="14.00">Level Once Sensor &#160;</text>
</g>
<!-- Level Once Sensor_linked -->
<g id="node2" class="node">
<title>Level Once Sensor_linked</title>
<polygon fill="none" stroke="black" stroke-dasharray="1,5" points="403.35,-106 291.65,-106 291.65,-70 403.35,-70 403.35,-106"/>
<text text-anchor="start" x="297.25" y="-82.58" font-family="Helvetica,sans-Serif" font-size="14.00">Attack_Prepare &#160;</text>
</g>
<!-- Level Once Sensor&#45;&gt;Level Once Sensor_linked -->
<g id="edge1" class="edge">
<title>Level Once Sensor&#45;&gt;Level Once Sensor_linked</title>
<path fill="none" stroke="#66cdaa" d="M165.34,-49.98C201.4,-57.54 244.88,-66.67 280.2,-74.08"/>
<polygon fill="#66cdaa" stroke="#66cdaa" points="279.38,-77.49 289.88,-76.12 280.81,-70.64 279.38,-77.49"/>
<text text-anchor="middle" x="220.62" y="-70.26" font-family="Helvetica,sans-Serif" font-size="14.00" fill="#66cdaa">QueueEnd</text>
</g>
<!-- Level Once Sensor_weight -->
<g id="node3" class="node">
<title>Level Once Sensor_weight</title>
<polygon fill="none" stroke="black" stroke-dasharray="1,5" points="397.62,-52 297.38,-52 297.38,-16 397.62,-16 397.62,-52"/>
<text text-anchor="start" x="307.38" y="-28.57" font-family="Helvetica,sans-Serif" font-size="14.00">1 Undefined &#160;</text>
</g>
<!-- Level Once Sensor&#45;&gt;Level Once Sensor_weight -->
<g id="edge2" class="edge">
<title>Level Once Sensor&#45;&gt;Level Once Sensor_weight</title>
<path fill="none" stroke="#458b74" d="M165.34,-34.72C203.24,-34.57 249.34,-34.38 285.55,-34.24"/>
<polygon fill="#458b74" stroke="#458b74" points="285.43,-37.74 295.42,-34.2 285.41,-30.74 285.43,-37.74"/>
<text text-anchor="middle" x="220.62" y="-37.07" font-family="Helvetica,sans-Serif" font-size="14.00" fill="#458b74">Weight</text>
</g>
<!-- RunAwaySensor -->
<g id="node4" class="node">
<title>RunAwaySensor</title>
<polygon fill="none" stroke="black" points="36,-81.12 36,-102.88 150,-102.88 150,-81.12 36,-81.12"/>
<text text-anchor="start" x="39" y="-86.58" font-family="Helvetica,sans-Serif" font-size="14.00">RunAwaySensor &#160;</text>
</g>
<!-- AttackSensor -->
<g id="node5" class="node">
<title>AttackSensor</title>
<polygon fill="none" stroke="black" points="46.12,-136.12 46.12,-157.88 139.88,-157.88 139.88,-136.12 46.12,-136.12"/>
<text text-anchor="start" x="49.12" y="-141.57" font-family="Helvetica,sans-Serif" font-size="14.00">AttackSensor &#160;</text>
</g>
<!-- AttackSensor_linked -->
<g id="node6" class="node">
<title>AttackSensor_linked</title>
<polygon fill="none" stroke="black" stroke-dasharray="1,5" points="403.35,-214 291.65,-214 291.65,-178 403.35,-178 403.35,-214"/>
<text text-anchor="start" x="297.25" y="-190.57" font-family="Helvetica,sans-Serif" font-size="14.00">Attack_Prepare &#160;</text>
</g>
<!-- AttackSensor&#45;&gt;AttackSensor_linked -->
<g id="edge3" class="edge">
<title>AttackSensor&#45;&gt;AttackSensor_linked</title>
<path fill="none" stroke="#66cdaa" d="M147.86,-157.45C186.6,-164.97 239.07,-175.15 280.36,-183.17"/>
<polygon fill="#66cdaa" stroke="#66cdaa" points="279.45,-186.55 289.93,-185.02 280.78,-179.68 279.45,-186.55"/>
<text text-anchor="middle" x="220.62" y="-179.78" font-family="Helvetica,sans-Serif" font-size="14.00" fill="#66cdaa">QueueEnd</text>
</g>
<!-- AttackSensor_weight -->
<g id="node7" class="node">
<title>AttackSensor_weight</title>
<polygon fill="none" stroke="black" stroke-dasharray="1,5" points="397.62,-160 297.38,-160 297.38,-124 397.62,-124 397.62,-160"/>
<text text-anchor="start" x="307.38" y="-136.57" font-family="Helvetica,sans-Serif" font-size="14.00">1 Undefined &#160;</text>
</g>
<!-- AttackSensor&#45;&gt;AttackSensor_weight -->
<g id="edge4" class="edge">
<title>AttackSensor&#45;&gt;AttackSensor_weight</title>
<path fill="none" stroke="#458b74" d="M147.86,-145.93C188.24,-145.13 243.54,-144.04 285.54,-143.21"/>
<polygon fill="#458b74" stroke="#458b74" points="285.57,-146.71 295.5,-143.01 285.43,-139.71 285.57,-146.71"/>
<text text-anchor="middle" x="220.62" y="-147.54" font-family="Helvetica,sans-Serif" font-size="14.00" fill="#458b74">Weight</text>
</g>
<!-- DodgePredictSensor -->
<g id="node8" class="node">
<title>DodgePredictSensor</title>
<polygon fill="none" stroke="black" points="24,-210 24,-231.75 162,-231.75 162,-210 24,-210"/>
<text text-anchor="start" x="27" y="-215.45" font-family="Helvetica,sans-Serif" font-size="14.00">DodgePredictSensor &#160;</text>
<polygon fill="none" stroke="black" points="24,-188.25 24,-210 162,-210 162,-188.25 24,-188.25"/>
<text text-anchor="start" x="27" y="-194.7" font-family="Helvetica,sans-Serif" font-size="12.00" fill="#838b8b">if: Dodge</text>
<text text-anchor="start" x="75" y="-194.7" font-family="Helvetica,sans-Serif" font-size="14.00"> &#160;</text>
</g>
<!-- DodgePredictSensor_linked -->
<g id="node9" class="node">
<title>DodgePredictSensor_linked</title>
<polygon fill="none" stroke="black" stroke-dasharray="1,5" points="403.35,-268 291.65,-268 291.65,-232 403.35,-232 403.35,-268"/>
<text text-anchor="start" x="297.25" y="-244.57" font-family="Helvetica,sans-Serif" font-size="14.00">Attack_Prepare &#160;</text>
</g>
<!-- DodgePredictSensor&#45;&gt;DodgePredictSensor_linked -->
<g id="edge5" class="edge">
<title>DodgePredictSensor&#45;&gt;DodgePredictSensor_linked</title>
<path fill="none" stroke="#66cdaa" d="M169.76,-222C204.87,-227.56 246.21,-234.11 280.08,-239.48"/>
<polygon fill="#66cdaa" stroke="#66cdaa" points="279.34,-242.9 289.77,-241.01 280.44,-235.99 279.34,-242.9"/>
<text text-anchor="middle" x="220.62" y="-237.21" font-family="Helvetica,sans-Serif" font-size="14.00" fill="#66cdaa">QueueEnd</text>
</g>
<!-- AttackPredictSensor -->
<g id="node10" class="node">
<title>AttackPredictSensor</title>
<polygon fill="none" stroke="black" points="25.12,-280 25.12,-301.75 160.88,-301.75 160.88,-280 25.12,-280"/>
<text text-anchor="start" x="28.12" y="-285.45" font-family="Helvetica,sans-Serif" font-size="14.00">AttackPredictSensor &#160;</text>
<polygon fill="none" stroke="black" points="25.12,-258.25 25.12,-280 160.88,-280 160.88,-258.25 25.12,-258.25"/>
<text text-anchor="start" x="28.12" y="-264.7" font-family="Helvetica,sans-Serif" font-size="12.00" fill="#838b8b">if: Attack</text>
<text text-anchor="start" x="73.12" y="-264.7" font-family="Helvetica,sans-Serif" font-size="14.00"> &#160;</text>
</g>
<!-- AttackPredictSensor_linked -->
<g id="node11" class="node">
<title>AttackPredictSensor_linked</title>
<polygon fill="none" stroke="black" stroke-dasharray="1,5" points="403.35,-322 291.65,-322 291.65,-286 403.35,-286 403.35,-322"/>
<text text-anchor="start" x="297.25" y="-298.57" font-family="Helvetica,sans-Serif" font-size="14.00">Attack_Prepare &#160;</text>
</g>
<!-- AttackPredictSensor&#45;&gt;AttackPredictSensor_linked -->
<g id="edge6" class="edge">
<title>AttackPredictSensor&#45;&gt;AttackPredictSensor_linked</title>
<path fill="none" stroke="#66cdaa" d="M168.73,-287.1C204.01,-290.46 245.76,-294.42 279.94,-297.67"/>
<polygon fill="#66cdaa" stroke="#66cdaa" points="279.42,-301.14 289.71,-298.6 280.09,-294.17 279.42,-301.14"/>
<text text-anchor="middle" x="220.62" y="-297.31" font-family="Helvetica,sans-Serif" font-size="14.00" fill="#66cdaa">QueueEnd</text>
</g>
<!-- AttackRunToSensor -->
<g id="node12" class="node">
<title>AttackRunToSensor</title>
<polygon fill="none" stroke="black" points="26.62,-350 26.62,-371.75 159.38,-371.75 159.38,-350 26.62,-350"/>
<text text-anchor="start" x="29.62" y="-355.45" font-family="Helvetica,sans-Serif" font-size="14.00">AttackRunToSensor &#160;</text>
<polygon fill="none" stroke="black" points="26.62,-328.25 26.62,-350 159.38,-350 159.38,-328.25 26.62,-328.25"/>
<text text-anchor="start" x="29.62" y="-334.7" font-family="Helvetica,sans-Serif" font-size="12.00" fill="#838b8b">if: state is Engaging</text>
<text text-anchor="start" x="133.88" y="-334.7" font-family="Helvetica,sans-Serif" font-size="14.00"> &#160;</text>
</g>
<!-- AttackRunToSensor_linked -->
<g id="node13" class="node">
<title>AttackRunToSensor_linked</title>
<polygon fill="none" stroke="black" stroke-dasharray="1,5" points="403.35,-376 291.65,-376 291.65,-340 403.35,-340 403.35,-376"/>
<text text-anchor="start" x="297.25" y="-352.57" font-family="Helvetica,sans-Serif" font-size="14.00">Attack_Prepare &#160;</text>
</g>
<!-- AttackRunToSensor&#45;&gt;AttackRunToSensor_linked -->
<g id="edge7" class="edge">
<title>AttackRunToSensor&#45;&gt;AttackRunToSensor_linked</title>
<path fill="none" stroke="#66cdaa" d="M167.37,-352.32C202.96,-353.45 245.38,-354.8 280.01,-355.89"/>
<polygon fill="#66cdaa" stroke="#66cdaa" points="279.81,-359.39 289.92,-356.21 280.03,-352.39 279.81,-359.39"/>
<text text-anchor="middle" x="220.62" y="-357.4" font-family="Helvetica,sans-Serif" font-size="14.00" fill="#66cdaa">QueueEnd</text>
</g>
<!-- Attack_Prepare -->
<g id="node14" class="node">
<title>Attack_Prepare</title>
<polygon fill="none" stroke="black" points="288.62,-1643.12 288.62,-1664.88 406.38,-1664.88 406.38,-1643.12 288.62,-1643.12"/>
<text text-anchor="start" x="297.25" y="-1648.58" font-family="Helvetica,sans-Serif" font-size="14.00">Attack_Prepare &#160;</text>
<polygon fill="none" stroke="black" points="288.62,-1611.12 288.62,-1643.12 406.38,-1643.12 406.38,-1611.12 288.62,-1611.12"/>
<text text-anchor="start" x="291.62" y="-1629.72" font-family="Helvetica,sans-Serif" font-size="12.00" fill="#838b8b">0.67s: LinkNextMove</text>
<text text-anchor="start" x="291.62" y="-1615.82" font-family="Helvetica,sans-Serif" font-size="12.00" fill="#838b8b">1.00s: Done</text>
<text text-anchor="start" x="356.12" y="-1615.82" font-family="Helvetica,sans-Serif" font-size="14.00"> &#160;</text>
</g>
<!-- Engaging -->
<g id="node15" class="node">
<title>Engaging</title>
<polygon fill="none" stroke="black" points="588.38,-1073 515.38,-1073 515.38,-1037 588.38,-1037 588.38,-1073"/>
<text text-anchor="middle" x="551.88" y="-1049.58" font-family="Helvetica,sans-Serif" font-size="14.00">Engaging</text>
</g>
<!-- Attack_Prepare&#45;&gt;Engaging -->
<g id="edge8" class="edge">
<title>Attack_Prepare&#45;&gt;Engaging</title>
<path fill="none" stroke="#cdc8b1" d="M414.11,-1620.74C440.19,-1610.41 467.74,-1594.39 483.75,-1570 503.11,-1540.51 496.48,-1287.88 501.75,-1253 510.96,-1192.07 530.34,-1122.49 541.82,-1084.17"/>
<polygon fill="#cdc8b1" stroke="#cdc8b1" points="545.11,-1085.36 544.67,-1074.78 538.41,-1083.33 545.11,-1085.36"/>
</g>
<!-- Attack_Prepare_weight -->
<g id="node16" class="node">
<title>Attack_Prepare_weight</title>
<polygon fill="none" stroke="black" stroke-dasharray="1,5" points="602,-1669.75 501.75,-1669.75 501.75,-1622.25 602,-1622.25 602,-1669.75"/>
<text text-anchor="start" x="511.75" y="-1650.45" font-family="Helvetica,sans-Serif" font-size="14.00">1 Undefined &#160;</text>
<text text-anchor="start" x="511.75" y="-1630.7" font-family="Helvetica,sans-Serif" font-size="14.00">1 Undefined &#160;</text>
</g>
<!-- Attack_Prepare&#45;&gt;Attack_Prepare_weight -->
<g id="edge9" class="edge">
<title>Attack_Prepare&#45;&gt;Attack_Prepare_weight</title>
<path fill="none" stroke="#458b74" d="M414.21,-1640.6C438.6,-1641.56 466.16,-1642.65 490.1,-1643.6"/>
<polygon fill="#458b74" stroke="#458b74" points="489.89,-1647.09 500.02,-1643.99 490.16,-1640.1 489.89,-1647.09"/>
<text text-anchor="middle" x="462.75" y="-1645.63" font-family="Helvetica,sans-Serif" font-size="14.00" fill="#458b74">Weight</text>
</g>
<!-- Attack_內側戳 -->
<g id="node17" class="node">
<title>Attack_內側戳</title>
<polygon fill="none" stroke="black" points="288.62,-1475.12 288.62,-1496.88 406.38,-1496.88 406.38,-1475.12 288.62,-1475.12"/>
<text text-anchor="start" x="295.38" y="-1480.58" font-family="Helvetica,sans-Serif" font-size="14.00">Attack_內側戳 &#160;</text>
<polygon fill="none" stroke="black" points="288.62,-1443.12 288.62,-1475.12 406.38,-1475.12 406.38,-1443.12 288.62,-1443.12"/>
<text text-anchor="start" x="291.62" y="-1461.72" font-family="Helvetica,sans-Serif" font-size="12.00" fill="#838b8b">1.08s: LinkNextMove</text>
<text text-anchor="start" x="291.62" y="-1447.82" font-family="Helvetica,sans-Serif" font-size="12.00" fill="#838b8b">1.25s: Done</text>
<text text-anchor="start" x="356.12" y="-1447.82" font-family="Helvetica,sans-Serif" font-size="14.00"> &#160;</text>
</g>
<!-- Attack_內側戳&#45;&gt;Engaging -->
<g id="edge10" class="edge">
<title>Attack_內側戳&#45;&gt;Engaging</title>
<path fill="none" stroke="#cdc8b1" d="M414.35,-1454.81C439.98,-1445.53 467.13,-1430.88 483.75,-1408 504.13,-1379.95 495.56,-1287.12 501.75,-1253 512.75,-1192.36 531.49,-1122.68 542.37,-1084.27"/>
<polygon fill="#cdc8b1" stroke="#cdc8b1" points="545.68,-1085.42 545.06,-1074.85 538.95,-1083.5 545.68,-1085.42"/>
</g>
<!-- Attack_內側戳_weight -->
<g id="node18" class="node">
<title>Attack_內側戳_weight</title>
<polygon fill="none" stroke="black" stroke-dasharray="1,5" points="602,-1479.75 501.75,-1479.75 501.75,-1432.25 602,-1432.25 602,-1479.75"/>
<text text-anchor="start" x="511.75" y="-1460.45" font-family="Helvetica,sans-Serif" font-size="14.00">2 Undefined &#160;</text>
<text text-anchor="start" x="511.75" y="-1440.7" font-family="Helvetica,sans-Serif" font-size="14.00">1 Undefined &#160;</text>
</g>
<!-- Attack_內側戳&#45;&gt;Attack_內側戳_weight -->
<g id="edge11" class="edge">
<title>Attack_內側戳&#45;&gt;Attack_內側戳_weight</title>
<path fill="none" stroke="#458b74" d="M414.21,-1465.45C438.6,-1463.77 466.16,-1461.86 490.1,-1460.2"/>
<polygon fill="#458b74" stroke="#458b74" points="490.28,-1463.7 500.02,-1459.52 489.8,-1456.72 490.28,-1463.7"/>
<text text-anchor="middle" x="462.75" y="-1465.87" font-family="Helvetica,sans-Serif" font-size="14.00" fill="#458b74">Weight</text>
</g>
<!-- TurnAround Attack -->
<g id="node19" class="node">
<title>TurnAround Attack</title>
<polygon fill="none" stroke="black" points="284.88,-1315.12 284.88,-1336.88 410.12,-1336.88 410.12,-1315.12 284.88,-1315.12"/>
<text text-anchor="start" x="287.88" y="-1320.58" font-family="Helvetica,sans-Serif" font-size="14.00">TurnAround Attack &#160;</text>
<polygon fill="none" stroke="black" points="284.88,-1283.12 284.88,-1315.12 410.12,-1315.12 410.12,-1283.12 284.88,-1283.12"/>
<text text-anchor="start" x="287.88" y="-1301.72" font-family="Helvetica,sans-Serif" font-size="12.00" fill="#838b8b">1.42s: LinkNextMove</text>
<text text-anchor="start" x="287.88" y="-1287.82" font-family="Helvetica,sans-Serif" font-size="12.00" fill="#838b8b">2.17s: Done</text>
<text text-anchor="start" x="352.38" y="-1287.82" font-family="Helvetica,sans-Serif" font-size="14.00"> &#160;</text>
</g>
<!-- TurnAround Attack&#45;&gt;Engaging -->
<g id="edge12" class="edge">
<title>TurnAround Attack&#45;&gt;Engaging</title>
<path fill="none" stroke="#cdc8b1" d="M412.61,-1279.19C416.55,-1276.32 420.31,-1273.25 423.75,-1270 481.56,-1215.35 521.8,-1128.62 539.96,-1083.85"/>
<polygon fill="#cdc8b1" stroke="#cdc8b1" points="543.11,-1085.41 543.54,-1074.82 536.6,-1082.83 543.11,-1085.41"/>
</g>
<!-- TurnAround Attack_weight -->
<g id="node20" class="node">
<title>TurnAround Attack_weight</title>
<polygon fill="none" stroke="black" stroke-dasharray="1,5" points="602,-1348.5 501.75,-1348.5 501.75,-1261.5 602,-1261.5 602,-1348.5"/>
<text text-anchor="start" x="511.75" y="-1329.2" font-family="Helvetica,sans-Serif" font-size="14.00">1 Undefined &#160;</text>
<text text-anchor="start" x="511.75" y="-1309.45" font-family="Helvetica,sans-Serif" font-size="14.00">0 Undefined &#160;</text>
<text text-anchor="start" x="511.75" y="-1289.7" font-family="Helvetica,sans-Serif" font-size="14.00">2 Undefined &#160;</text>
<text text-anchor="start" x="511.75" y="-1269.95" font-family="Helvetica,sans-Serif" font-size="14.00">1 Undefined &#160;</text>
</g>
<!-- TurnAround Attack&#45;&gt;TurnAround Attack_weight -->
<g id="edge13" class="edge">
<title>TurnAround Attack&#45;&gt;TurnAround Attack_weight</title>
<path fill="none" stroke="#458b74" d="M417.86,-1308.29C441.35,-1307.71 467.39,-1307.06 490.16,-1306.5"/>
<polygon fill="#458b74" stroke="#458b74" points="489.97,-1310.01 499.88,-1306.26 489.8,-1303.01 489.97,-1310.01"/>
<text text-anchor="middle" x="462.75" y="-1310.1" font-family="Helvetica,sans-Serif" font-size="14.00" fill="#458b74">Weight</text>
</g>
<!-- TurnAround Jump -->
<g id="node21" class="node">
<title>TurnAround Jump</title>
<polygon fill="none" stroke="black" points="286.38,-885.12 286.38,-906.88 408.62,-906.88 408.62,-885.12 286.38,-885.12"/>
<text text-anchor="start" x="289.38" y="-890.58" font-family="Helvetica,sans-Serif" font-size="14.00">TurnAround Jump &#160;</text>
<polygon fill="none" stroke="black" points="286.38,-853.12 286.38,-885.12 408.62,-885.12 408.62,-853.12 286.38,-853.12"/>
<text text-anchor="start" x="289.38" y="-871.73" font-family="Helvetica,sans-Serif" font-size="12.00" fill="#838b8b">0.75s: LinkNextMove</text>
<text text-anchor="start" x="289.38" y="-857.83" font-family="Helvetica,sans-Serif" font-size="12.00" fill="#838b8b">1.00s: Done</text>
<text text-anchor="start" x="353.88" y="-857.83" font-family="Helvetica,sans-Serif" font-size="14.00"> &#160;</text>
</g>
<!-- TurnAround Jump&#45;&gt;Engaging -->
<g id="edge14" class="edge">
<title>TurnAround Jump&#45;&gt;Engaging</title>
<path fill="none" stroke="#cdc8b1" d="M410.19,-910.87C414.88,-913.8 419.45,-916.85 423.75,-920 466.62,-951.44 507.08,-998.49 530.4,-1027.93"/>
<polygon fill="#cdc8b1" stroke="#cdc8b1" points="527.5,-1029.91 536.42,-1035.63 533.02,-1025.6 527.5,-1029.91"/>
</g>
<!-- TurnAround Jump_weight -->
<g id="node22" class="node">
<title>TurnAround Jump_weight</title>
<polygon fill="none" stroke="black" stroke-dasharray="1,5" points="602,-903.75 501.75,-903.75 501.75,-856.25 602,-856.25 602,-903.75"/>
<text text-anchor="start" x="511.75" y="-884.45" font-family="Helvetica,sans-Serif" font-size="14.00">1 Undefined &#160;</text>
<text text-anchor="start" x="511.75" y="-864.7" font-family="Helvetica,sans-Serif" font-size="14.00">0 Undefined &#160;</text>
</g>
<!-- TurnAround Jump&#45;&gt;TurnAround Jump_weight -->
<g id="edge15" class="edge">
<title>TurnAround Jump&#45;&gt;TurnAround Jump_weight</title>
<path fill="none" stroke="#458b74" d="M416.45,-880C440.22,-880 466.75,-880 489.91,-880"/>
<polygon fill="#458b74" stroke="#458b74" points="489.82,-883.5 499.82,-880 489.82,-876.5 489.82,-883.5"/>
<text text-anchor="middle" x="462.75" y="-882.45" font-family="Helvetica,sans-Serif" font-size="14.00" fill="#458b74">Weight</text>
</g>
<!-- Attack_收琴 -->
<g id="node23" class="node">
<title>Attack_收琴</title>
<polygon fill="none" stroke="black" points="288.62,-805.12 288.62,-826.88 406.38,-826.88 406.38,-805.12 288.62,-805.12"/>
<text text-anchor="start" x="304" y="-810.58" font-family="Helvetica,sans-Serif" font-size="14.00">Attack_收琴 &#160;</text>
<polygon fill="none" stroke="black" points="288.62,-773.12 288.62,-805.12 406.38,-805.12 406.38,-773.12 288.62,-773.12"/>
<text text-anchor="start" x="291.62" y="-791.73" font-family="Helvetica,sans-Serif" font-size="12.00" fill="#838b8b">0.75s: LinkNextMove</text>
<text text-anchor="start" x="291.62" y="-777.83" font-family="Helvetica,sans-Serif" font-size="12.00" fill="#838b8b">1.00s: Done</text>
<text text-anchor="start" x="356.12" y="-777.83" font-family="Helvetica,sans-Serif" font-size="14.00"> &#160;</text>
</g>
<!-- Attack_收琴&#45;&gt;Engaging -->
<g id="edge16" class="edge">
<title>Attack_收琴&#45;&gt;Engaging</title>
<path fill="none" stroke="#cdc8b1" d="M414.22,-824.94C438.9,-837.11 465.39,-853.96 483.75,-876 493.69,-887.93 524.95,-978.01 541.06,-1025.65"/>
<polygon fill="#cdc8b1" stroke="#cdc8b1" points="537.72,-1026.71 544.23,-1035.07 544.36,-1024.48 537.72,-1026.71"/>
</g>
<!-- Attack_收琴_weight -->
<g id="node24" class="node">
<title>Attack_收琴_weight</title>
<polygon fill="none" stroke="black" stroke-dasharray="1,5" points="584.38,-823 519.38,-823 519.38,-787 584.38,-787 584.38,-823"/>
<text text-anchor="start" x="529.38" y="-799.58" font-family="Helvetica,sans-Serif" font-size="14.00">1 Skip &#160;</text>
</g>
<!-- Attack_收琴&#45;&gt;Attack_收琴_weight -->
<g id="edge17" class="edge">
<title>Attack_收琴&#45;&gt;Attack_收琴_weight</title>
<path fill="none" stroke="#458b74" d="M414.21,-801.62C444.77,-802.38 480.28,-803.26 507.44,-803.93"/>
<polygon fill="#458b74" stroke="#458b74" points="507.31,-807.42 517.39,-804.17 507.48,-800.43 507.31,-807.42"/>
<text text-anchor="middle" x="462.75" y="-805.69" font-family="Helvetica,sans-Serif" font-size="14.00" fill="#458b74">Weight</text>
</g>
<!-- Attack_過身斬 -->
<g id="node25" class="node">
<title>Attack_過身斬</title>
<polygon fill="none" stroke="black" points="288.62,-1555.12 288.62,-1576.88 406.38,-1576.88 406.38,-1555.12 288.62,-1555.12"/>
<text text-anchor="start" x="295.38" y="-1560.58" font-family="Helvetica,sans-Serif" font-size="14.00">Attack_過身斬 &#160;</text>
<polygon fill="none" stroke="black" points="288.62,-1523.12 288.62,-1555.12 406.38,-1555.12 406.38,-1523.12 288.62,-1523.12"/>
<text text-anchor="start" x="291.62" y="-1541.72" font-family="Helvetica,sans-Serif" font-size="12.00" fill="#838b8b">2.83s: LinkNextMove</text>
<text text-anchor="start" x="291.62" y="-1527.82" font-family="Helvetica,sans-Serif" font-size="12.00" fill="#838b8b">3.08s: Done</text>
<text text-anchor="start" x="356.12" y="-1527.82" font-family="Helvetica,sans-Serif" font-size="14.00"> &#160;</text>
</g>
<!-- Attack_過身斬&#45;&gt;Engaging -->
<g id="edge18" class="edge">
<title>Attack_過身斬&#45;&gt;Engaging</title>
<path fill="none" stroke="#cdc8b1" d="M414.19,-1532.92C440.12,-1522.75 467.53,-1506.99 483.75,-1483 512.46,-1440.53 493.55,-1303.61 501.75,-1253 511.61,-1192.17 530.76,-1122.56 542.02,-1084.21"/>
<polygon fill="#cdc8b1" stroke="#cdc8b1" points="545.32,-1085.39 544.81,-1074.8 538.61,-1083.39 545.32,-1085.39"/>
</g>
<!-- Attack_過身斬_weight -->
<g id="node26" class="node">
<title>Attack_過身斬_weight</title>
<polygon fill="none" stroke="black" stroke-dasharray="1,5" points="602,-1604.38 501.75,-1604.38 501.75,-1497.62 602,-1497.62 602,-1604.38"/>
<text text-anchor="start" x="511.75" y="-1585.08" font-family="Helvetica,sans-Serif" font-size="14.00">0 Undefined &#160;</text>
<text text-anchor="start" x="529.38" y="-1565.33" font-family="Helvetica,sans-Serif" font-size="14.00">0 Skip &#160;</text>
<text text-anchor="start" x="511.75" y="-1545.58" font-family="Helvetica,sans-Serif" font-size="14.00">2 Undefined &#160;</text>
<text text-anchor="start" x="511.75" y="-1525.83" font-family="Helvetica,sans-Serif" font-size="14.00">0 Undefined &#160;</text>
<text text-anchor="start" x="511.75" y="-1506.08" font-family="Helvetica,sans-Serif" font-size="14.00">1 Undefined &#160;</text>
</g>
<!-- Attack_過身斬&#45;&gt;Attack_過身斬_weight -->
<g id="edge19" class="edge">
<title>Attack_過身斬&#45;&gt;Attack_過身斬_weight</title>
<path fill="none" stroke="#458b74" d="M414.21,-1550.32C438.6,-1550.45 466.16,-1550.58 490.1,-1550.7"/>
<polygon fill="#458b74" stroke="#458b74" points="490,-1554.2 500.01,-1550.75 490.03,-1547.2 490,-1554.2"/>
<text text-anchor="middle" x="462.75" y="-1553.1" font-family="Helvetica,sans-Serif" font-size="14.00" fill="#458b74">Weight</text>
</g>
<!-- Attack_跳斬 -->
<g id="node27" class="node">
<title>Attack_跳斬</title>
<polygon fill="none" stroke="black" points="288.62,-725.12 288.62,-746.88 406.38,-746.88 406.38,-725.12 288.62,-725.12"/>
<text text-anchor="start" x="304" y="-730.58" font-family="Helvetica,sans-Serif" font-size="14.00">Attack_跳斬 &#160;</text>
<polygon fill="none" stroke="black" points="288.62,-693.12 288.62,-725.12 406.38,-725.12 406.38,-693.12 288.62,-693.12"/>
<text text-anchor="start" x="291.62" y="-711.73" font-family="Helvetica,sans-Serif" font-size="12.00" fill="#838b8b">1.67s: LinkNextMove</text>
<text text-anchor="start" x="291.62" y="-697.83" font-family="Helvetica,sans-Serif" font-size="12.00" fill="#838b8b">2.42s: Done</text>
<text text-anchor="start" x="356.12" y="-697.83" font-family="Helvetica,sans-Serif" font-size="14.00"> &#160;</text>
</g>
<!-- Attack_跳斬&#45;&gt;Engaging -->
<g id="edge20" class="edge">
<title>Attack_跳斬&#45;&gt;Engaging</title>
<path fill="none" stroke="#cdc8b1" d="M414.33,-742.85C440.12,-755.17 467.39,-773.07 483.75,-798 512.13,-841.25 489.24,-862.8 501.75,-913 511.77,-953.22 528.28,-998.22 539.36,-1026.57"/>
<polygon fill="#cdc8b1" stroke="#cdc8b1" points="535.97,-1027.51 542.9,-1035.53 542.48,-1024.94 535.97,-1027.51"/>
</g>
<!-- Attack_跳斬_weight -->
<g id="node28" class="node">
<title>Attack_跳斬_weight</title>
<polygon fill="none" stroke="black" stroke-dasharray="1,5" points="602,-768.62 501.75,-768.62 501.75,-701.38 602,-701.38 602,-768.62"/>
<text text-anchor="start" x="511.75" y="-749.33" font-family="Helvetica,sans-Serif" font-size="14.00">1 Undefined &#160;</text>
<text text-anchor="start" x="511.75" y="-729.58" font-family="Helvetica,sans-Serif" font-size="14.00">1 Undefined &#160;</text>
<text text-anchor="start" x="529.38" y="-709.83" font-family="Helvetica,sans-Serif" font-size="14.00">0 Skip &#160;</text>
</g>
<!-- Attack_跳斬&#45;&gt;Attack_跳斬_weight -->
<g id="edge21" class="edge">
<title>Attack_跳斬&#45;&gt;Attack_跳斬_weight</title>
<path fill="none" stroke="#458b74" d="M414.21,-724.87C438.6,-726.68 466.16,-728.72 490.1,-730.5"/>
<polygon fill="#458b74" stroke="#458b74" points="489.79,-733.98 500.02,-731.23 490.3,-727 489.79,-733.98"/>
<text text-anchor="middle" x="462.75" y="-732.17" font-family="Helvetica,sans-Serif" font-size="14.00" fill="#458b74">Weight</text>
</g>
<!-- Attack_雙大反 -->
<g id="node29" class="node">
<title>Attack_雙大反</title>
<polygon fill="none" stroke="black" points="291.25,-1235.12 291.25,-1256.88 403.75,-1256.88 403.75,-1235.12 291.25,-1235.12"/>
<text text-anchor="start" x="295.38" y="-1240.58" font-family="Helvetica,sans-Serif" font-size="14.00">Attack_雙大反 &#160;</text>
<polygon fill="none" stroke="black" points="291.25,-1203.12 291.25,-1235.12 403.75,-1235.12 403.75,-1203.12 291.25,-1203.12"/>
<text text-anchor="start" x="294.25" y="-1221.72" font-family="Helvetica,sans-Serif" font-size="12.00" fill="#838b8b">2.00s: CheckFacing</text>
<text text-anchor="start" x="294.25" y="-1207.82" font-family="Helvetica,sans-Serif" font-size="12.00" fill="#838b8b">3.83s: Done</text>
<text text-anchor="start" x="358.75" y="-1207.82" font-family="Helvetica,sans-Serif" font-size="14.00"> &#160;</text>
</g>
<!-- Attack_雙大反&#45;&gt;Engaging -->
<g id="edge22" class="edge">
<title>Attack_雙大反&#45;&gt;Engaging</title>
<path fill="none" stroke="#cdc8b1" d="M410.25,-1199.21C414.93,-1196.27 419.48,-1193.19 423.75,-1190 466.35,-1158.21 506.89,-1111.26 530.3,-1081.94"/>
<polygon fill="#cdc8b1" stroke="#cdc8b1" points="532.9,-1084.29 536.34,-1074.27 527.4,-1079.95 532.9,-1084.29"/>
</g>
<!-- Attack_怪拍連擊 -->
<g id="node30" class="node">
<title>Attack_怪拍連擊</title>
<polygon fill="none" stroke="black" points="283.75,-1395.12 283.75,-1416.88 411.25,-1416.88 411.25,-1395.12 283.75,-1395.12"/>
<text text-anchor="start" x="286.75" y="-1400.58" font-family="Helvetica,sans-Serif" font-size="14.00">Attack_怪拍連擊 &#160;</text>
<polygon fill="none" stroke="black" points="283.75,-1363.12 283.75,-1395.12 411.25,-1395.12 411.25,-1363.12 283.75,-1363.12"/>
<text text-anchor="start" x="286.75" y="-1381.72" font-family="Helvetica,sans-Serif" font-size="12.00" fill="#838b8b">2.50s: LinkNextMove</text>
<text text-anchor="start" x="286.75" y="-1367.82" font-family="Helvetica,sans-Serif" font-size="12.00" fill="#838b8b">5.00s: Done</text>
<text text-anchor="start" x="351.25" y="-1367.82" font-family="Helvetica,sans-Serif" font-size="14.00"> &#160;</text>
</g>
<!-- Attack_怪拍連擊&#45;&gt;Engaging -->
<g id="edge23" class="edge">
<title>Attack_怪拍連擊&#45;&gt;Engaging</title>
<path fill="none" stroke="#cdc8b1" d="M418.96,-1370.93C442.61,-1361.31 467.16,-1347.23 483.75,-1327 505.21,-1300.82 493.67,-1285.87 501.75,-1253 516.49,-1193 533.95,-1122.83 543.58,-1084.21"/>
<polygon fill="#cdc8b1" stroke="#cdc8b1" points="546.92,-1085.3 545.94,-1074.75 540.13,-1083.61 546.92,-1085.3"/>
</g>
<!-- Attack_怪拍連擊_weight -->
<g id="node31" class="node">
<title>Attack_怪拍連擊_weight</title>
<polygon fill="none" stroke="black" stroke-dasharray="1,5" points="602,-1413.75 501.75,-1413.75 501.75,-1366.25 602,-1366.25 602,-1413.75"/>
<text text-anchor="start" x="511.75" y="-1394.45" font-family="Helvetica,sans-Serif" font-size="14.00">1 Undefined &#160;</text>
<text text-anchor="start" x="511.75" y="-1374.7" font-family="Helvetica,sans-Serif" font-size="14.00">2 Undefined &#160;</text>
</g>
<!-- Attack_怪拍連擊&#45;&gt;Attack_怪拍連擊_weight -->
<g id="edge24" class="edge">
<title>Attack_怪拍連擊&#45;&gt;Attack_怪拍連擊_weight</title>
<path fill="none" stroke="#458b74" d="M419,-1390C442.12,-1390 467.6,-1390 489.95,-1390"/>
<polygon fill="#458b74" stroke="#458b74" points="489.81,-1393.5 499.81,-1390 489.81,-1386.5 489.81,-1393.5"/>
<text text-anchor="middle" x="462.75" y="-1392.45" font-family="Helvetica,sans-Serif" font-size="14.00" fill="#458b74">Weight</text>
</g>
<!-- Attack_下打後拉 -->
<g id="node32" class="node">
<title>Attack_下打後拉</title>
<polygon fill="none" stroke="black" points="283.75,-645.12 283.75,-666.88 411.25,-666.88 411.25,-645.12 283.75,-645.12"/>
<text text-anchor="start" x="286.75" y="-650.58" font-family="Helvetica,sans-Serif" font-size="14.00">Attack_下打後拉 &#160;</text>
<polygon fill="none" stroke="black" points="283.75,-613.12 283.75,-645.12 411.25,-645.12 411.25,-613.12 283.75,-613.12"/>
<text text-anchor="start" x="286.75" y="-631.73" font-family="Helvetica,sans-Serif" font-size="12.00" fill="#838b8b">2.83s: LinkNextMove</text>
<text text-anchor="start" x="286.75" y="-617.83" font-family="Helvetica,sans-Serif" font-size="12.00" fill="#838b8b">3.33s: Done</text>
<text text-anchor="start" x="351.25" y="-617.83" font-family="Helvetica,sans-Serif" font-size="14.00"> &#160;</text>
</g>
<!-- Attack_下打後拉&#45;&gt;Engaging -->
<g id="edge25" class="edge">
<title>Attack_下打後拉&#45;&gt;Engaging</title>
<path fill="none" stroke="#cdc8b1" d="M419.11,-666.39C443.99,-679.45 469.33,-697.92 483.75,-723 504.89,-759.77 492.75,-871.55 501.75,-913 510.49,-953.28 527.16,-997.94 538.64,-1026.22"/>
<polygon fill="#cdc8b1" stroke="#cdc8b1" points="535.28,-1027.26 542.33,-1035.17 541.75,-1024.59 535.28,-1027.26"/>
</g>
<!-- Attack_下打後拉_weight -->
<g id="node33" class="node">
<title>Attack_下打後拉_weight</title>
<polygon fill="none" stroke="black" stroke-dasharray="1,5" points="602,-683.5 501.75,-683.5 501.75,-596.5 602,-596.5 602,-683.5"/>
<text text-anchor="start" x="511.75" y="-664.2" font-family="Helvetica,sans-Serif" font-size="14.00">2 Undefined &#160;</text>
<text text-anchor="start" x="511.75" y="-644.45" font-family="Helvetica,sans-Serif" font-size="14.00">1 Undefined &#160;</text>
<text text-anchor="start" x="511.75" y="-624.7" font-family="Helvetica,sans-Serif" font-size="14.00">1 Undefined &#160;</text>
<text text-anchor="start" x="511.75" y="-604.95" font-family="Helvetica,sans-Serif" font-size="14.00">1 Undefined &#160;</text>
</g>
<!-- Attack_下打後拉&#45;&gt;Attack_下打後拉_weight -->
<g id="edge26" class="edge">
<title>Attack_下打後拉&#45;&gt;Attack_下打後拉_weight</title>
<path fill="none" stroke="#458b74" d="M419,-640C442.12,-640 467.6,-640 489.95,-640"/>
<polygon fill="#458b74" stroke="#458b74" points="489.81,-643.5 499.81,-640 489.81,-636.5 489.81,-643.5"/>
<text text-anchor="middle" x="462.75" y="-642.45" font-family="Helvetica,sans-Serif" font-size="14.00" fill="#458b74">Weight</text>
</g>
<!-- Attack_內側下打 -->
<g id="node34" class="node">
<title>Attack_內側下打</title>
<polygon fill="none" stroke="black" points="279.25,-562.12 279.25,-583.88 415.75,-583.88 415.75,-562.12 279.25,-562.12"/>
<text text-anchor="start" x="286.75" y="-567.58" font-family="Helvetica,sans-Serif" font-size="14.00">Attack_內側下打 &#160;</text>
<polygon fill="none" stroke="black" points="279.25,-518.12 279.25,-562.12 415.75,-562.12 415.75,-518.12 279.25,-518.12"/>
<text text-anchor="start" x="282.25" y="-548.73" font-family="Helvetica,sans-Serif" font-size="12.00" fill="#838b8b">0.92s: LinkMoveInterrupt</text>
<text text-anchor="start" x="282.25" y="-536.73" font-family="Helvetica,sans-Serif" font-size="12.00" fill="#838b8b">1.08s: LinkNextMove</text>
<text text-anchor="start" x="282.25" y="-522.83" font-family="Helvetica,sans-Serif" font-size="12.00" fill="#838b8b">1.67s: Done</text>
<text text-anchor="start" x="346.75" y="-522.83" font-family="Helvetica,sans-Serif" font-size="14.00"> &#160;</text>
</g>
<!-- Attack_內側下打&#45;&gt;Engaging -->
<g id="edge27" class="edge">
<title>Attack_內側下打&#45;&gt;Engaging</title>
<path fill="none" stroke="#cdc8b1" d="M423.57,-581.49C446.76,-594.72 469.84,-612.65 483.75,-636 515.32,-688.99 489.56,-852.53 501.75,-913 509.9,-953.41 526.71,-998.04 538.38,-1026.28"/>
<polygon fill="#cdc8b1" stroke="#cdc8b1" points="535.03,-1027.35 542.13,-1035.22 541.48,-1024.64 535.03,-1027.35"/>
</g>
<!-- Attack_內側下打_weight -->
<g id="node35" class="node">
<title>Attack_內側下打_weight</title>
<polygon fill="none" stroke="black" stroke-dasharray="1,5" points="602,-578.5 501.75,-578.5 501.75,-491.5 602,-491.5 602,-578.5"/>
<text text-anchor="start" x="511.75" y="-559.2" font-family="Helvetica,sans-Serif" font-size="14.00">1 Undefined &#160;</text>
<text text-anchor="start" x="511.75" y="-539.45" font-family="Helvetica,sans-Serif" font-size="14.00">1 Undefined &#160;</text>
<text text-anchor="start" x="511.75" y="-519.7" font-family="Helvetica,sans-Serif" font-size="14.00">1 Undefined &#160;</text>
<text text-anchor="start" x="511.75" y="-499.95" font-family="Helvetica,sans-Serif" font-size="14.00">1 Undefined &#160;</text>
</g>
<!-- Attack_內側下打&#45;&gt;Attack_內側下打_weight -->
<g id="edge28" class="edge">
<title>Attack_內側下打&#45;&gt;Attack_內側下打_weight</title>
<path fill="none" stroke="#458b74" d="M423.57,-545.06C445.49,-543.33 469.17,-541.46 490.1,-539.81"/>
<polygon fill="#458b74" stroke="#458b74" points="490.21,-543.31 499.9,-539.03 489.65,-536.33 490.21,-543.31"/>
<text text-anchor="middle" x="462.75" y="-545.93" font-family="Helvetica,sans-Serif" font-size="14.00" fill="#458b74">Weight</text>
</g>
<!-- Attack_外側下打 -->
<g id="node36" class="node">
<title>Attack_外側下打</title>
<polygon fill="none" stroke="black" points="283.75,-464.12 283.75,-485.88 411.25,-485.88 411.25,-464.12 283.75,-464.12"/>
<text text-anchor="start" x="286.75" y="-469.57" font-family="Helvetica,sans-Serif" font-size="14.00">Attack_外側下打 &#160;</text>
<polygon fill="none" stroke="black" points="283.75,-420.12 283.75,-464.12 411.25,-464.12 411.25,-420.12 283.75,-420.12"/>
<text text-anchor="start" x="286.75" y="-450.73" font-family="Helvetica,sans-Serif" font-size="12.00" fill="#838b8b">0.33s: CheckFacing</text>
<text text-anchor="start" x="286.75" y="-438.73" font-family="Helvetica,sans-Serif" font-size="12.00" fill="#838b8b">1.83s: LinkNextMove</text>
<text text-anchor="start" x="286.75" y="-424.83" font-family="Helvetica,sans-Serif" font-size="12.00" fill="#838b8b">1.92s: Done</text>
<text text-anchor="start" x="351.25" y="-424.83" font-family="Helvetica,sans-Serif" font-size="14.00"> &#160;</text>
</g>
<!-- Attack_外側下打&#45;&gt;Engaging -->
<g id="edge29" class="edge">
<title>Attack_外側下打&#45;&gt;Engaging</title>
<path fill="none" stroke="#cdc8b1" d="M419.16,-480.27C443.89,-493.53 469.11,-512.1 483.75,-537 504.95,-573.06 493.83,-871.93 501.75,-913 509.55,-953.48 526.44,-998.09 538.23,-1026.31"/>
<polygon fill="#cdc8b1" stroke="#cdc8b1" points="534.89,-1027.41 542.02,-1035.24 541.33,-1024.67 534.89,-1027.41"/>
</g>
<!-- Attack_外側下打_weight -->
<g id="node37" class="node">
<title>Attack_外側下打_weight</title>
<polygon fill="none" stroke="black" stroke-dasharray="1,5" points="602,-473.75 501.75,-473.75 501.75,-426.25 602,-426.25 602,-473.75"/>
<text text-anchor="start" x="511.75" y="-454.45" font-family="Helvetica,sans-Serif" font-size="14.00">1 Undefined &#160;</text>
<text text-anchor="start" x="511.75" y="-434.7" font-family="Helvetica,sans-Serif" font-size="14.00">1 Undefined &#160;</text>
</g>
<!-- Attack_外側下打&#45;&gt;Attack_外側下打_weight -->
<g id="edge30" class="edge">
<title>Attack_外側下打&#45;&gt;Attack_外側下打_weight</title>
<path fill="none" stroke="#458b74" d="M419,-451.95C442.12,-451.61 467.6,-451.23 489.95,-450.9"/>
<polygon fill="#458b74" stroke="#458b74" points="489.86,-454.4 499.81,-450.76 489.75,-447.41 489.86,-454.4"/>
<text text-anchor="middle" x="462.75" y="-454.04" font-family="Helvetica,sans-Serif" font-size="14.00" fill="#458b74">Weight</text>
</g>
<!-- AttackParrying -->
<g id="node38" class="node">
<title>AttackParrying</title>
<polygon fill="none" stroke="black" points="296.88,-1098.12 296.88,-1119.88 398.12,-1119.88 398.12,-1098.12 296.88,-1098.12"/>
<text text-anchor="start" x="299.88" y="-1103.58" font-family="Helvetica,sans-Serif" font-size="14.00">AttackParrying &#160;</text>
</g>
<!-- AttackParrying&#45;&gt;Engaging -->
<g id="edge31" class="edge">
<title>AttackParrying&#45;&gt;Engaging</title>
<path fill="none" stroke="#cdc8b1" d="M405.95,-1093.67C437.04,-1085.38 474.94,-1075.26 504.19,-1067.46"/>
<polygon fill="#cdc8b1" stroke="#cdc8b1" points="504.72,-1070.94 513.48,-1064.98 502.92,-1064.17 504.72,-1070.94"/>
</g>
<!-- Hurt_BigState -->
<g id="node39" class="node">
<title>Hurt_BigState</title>
<polygon fill="none" stroke="black" points="44.25,-1740 44.25,-1761.75 141.75,-1761.75 141.75,-1740 44.25,-1740"/>
<text text-anchor="start" x="47.25" y="-1745.45" font-family="Helvetica,sans-Serif" font-size="14.00">Hurt_BigState &#160;</text>
<polygon fill="none" stroke="black" points="44.25,-1718.25 44.25,-1740 141.75,-1740 141.75,-1718.25 44.25,-1718.25"/>
<text text-anchor="start" x="47.25" y="-1724.7" font-family="Helvetica,sans-Serif" font-size="12.00" fill="#838b8b">3.00s: Done</text>
<text text-anchor="start" x="111.75" y="-1724.7" font-family="Helvetica,sans-Serif" font-size="14.00"> &#160;</text>
</g>
<!-- PreAttack -->
<g id="node40" class="node">
<title>PreAttack</title>
<polygon fill="none" stroke="black" points="384.75,-1723 310.25,-1723 310.25,-1687 384.75,-1687 384.75,-1723"/>
<text text-anchor="middle" x="347.5" y="-1699.58" font-family="Helvetica,sans-Serif" font-size="14.00">PreAttack</text>
</g>
<!-- Hurt_BigState&#45;&gt;PreAttack -->
<g id="edge32" class="edge">
<title>Hurt_BigState&#45;&gt;PreAttack</title>
<path fill="none" stroke="#cdc8b1" d="M149.72,-1732.28C194.42,-1726.08 256.49,-1717.48 298.89,-1711.6"/>
<polygon fill="#cdc8b1" stroke="#cdc8b1" points="299.1,-1715.1 308.53,-1710.26 298.14,-1708.17 299.1,-1715.1"/>
</g>
<!-- JumpBack -->
<g id="node41" class="node">
<title>JumpBack</title>
<polygon fill="none" stroke="black" points="308.88,-1044.12 308.88,-1065.88 386.12,-1065.88 386.12,-1044.12 308.88,-1044.12"/>
<text text-anchor="start" x="311.88" y="-1049.58" font-family="Helvetica,sans-Serif" font-size="14.00">JumpBack &#160;</text>
</g>
<!-- JumpBack&#45;&gt;Engaging -->
<g id="edge33" class="edge">
<title>JumpBack&#45;&gt;Engaging</title>
<path fill="none" stroke="#cdc8b1" d="M393.92,-1055C426.65,-1055 470.71,-1055 503.81,-1055"/>
<polygon fill="#cdc8b1" stroke="#cdc8b1" points="503.51,-1058.5 513.51,-1055 503.51,-1051.5 503.51,-1058.5"/>
</g>
<!-- LastHit -->
<g id="node42" class="node">
<title>LastHit</title>
<polygon fill="none" stroke="black" points="54,-1810 54,-1831.75 132,-1831.75 132,-1810 54,-1810"/>
<text text-anchor="start" x="68.25" y="-1815.45" font-family="Helvetica,sans-Serif" font-size="14.00">LastHit &#160;</text>
<polygon fill="none" stroke="black" points="54,-1788.25 54,-1810 132,-1810 132,-1788.25 54,-1788.25"/>
<text text-anchor="start" x="57" y="-1794.7" font-family="Helvetica,sans-Serif" font-size="12.00" fill="#838b8b">0.83s: Done</text>
<text text-anchor="start" x="121.5" y="-1794.7" font-family="Helvetica,sans-Serif" font-size="14.00"> &#160;</text>
</g>
<!-- DeadState -->
<g id="node43" class="node">
<title>DeadState</title>
<polygon fill="none" stroke="black" points="387.38,-1828 307.62,-1828 307.62,-1792 387.38,-1792 387.38,-1828"/>
<text text-anchor="middle" x="347.5" y="-1804.58" font-family="Helvetica,sans-Serif" font-size="14.00">DeadState</text>
</g>
<!-- LastHit&#45;&gt;DeadState -->
<g id="edge34" class="edge">
<title>LastHit&#45;&gt;DeadState</title>
<path fill="none" stroke="#cdc8b1" d="M139.73,-1810C183.78,-1810 250.3,-1810 295.92,-1810"/>
<polygon fill="#cdc8b1" stroke="#cdc8b1" points="295.82,-1813.5 305.82,-1810 295.82,-1806.5 295.82,-1813.5"/>
</g>
<!-- PostureBreak -->
<g id="node44" class="node">
<title>PostureBreak</title>
<polygon fill="none" stroke="black" points="45.38,-1670 45.38,-1691.75 140.62,-1691.75 140.62,-1670 45.38,-1670"/>
<text text-anchor="start" x="48.38" y="-1675.45" font-family="Helvetica,sans-Serif" font-size="14.00">PostureBreak &#160;</text>
<polygon fill="none" stroke="black" points="45.38,-1648.25 45.38,-1670 140.62,-1670 140.62,-1648.25 45.38,-1648.25"/>
<text text-anchor="start" x="48.38" y="-1654.7" font-family="Helvetica,sans-Serif" font-size="12.00" fill="#838b8b">3.00s: Done</text>
<text text-anchor="start" x="112.88" y="-1654.7" font-family="Helvetica,sans-Serif" font-size="14.00"> &#160;</text>
</g>
<!-- PostureBreak&#45;&gt;PreAttack -->
<g id="edge35" class="edge">
<title>PostureBreak&#45;&gt;PreAttack</title>
<path fill="none" stroke="#cdc8b1" d="M148.48,-1677.55C193.23,-1683.75 256,-1692.46 298.8,-1698.39"/>
<polygon fill="#cdc8b1" stroke="#cdc8b1" points="298.15,-1701.83 308.54,-1699.74 299.11,-1694.9 298.15,-1701.83"/>
</g>
<!-- RollThrough -->
<g id="node45" class="node">
<title>RollThrough</title>
<polygon fill="none" stroke="black" points="304,-990.12 304,-1011.88 391,-1011.88 391,-990.12 304,-990.12"/>
<text text-anchor="start" x="307" y="-995.58" font-family="Helvetica,sans-Serif" font-size="14.00">RollThrough &#160;</text>
</g>
<!-- RollThrough&#45;&gt;Engaging -->
<g id="edge36" class="edge">
<title>RollThrough&#45;&gt;Engaging</title>
<path fill="none" stroke="#cdc8b1" d="M398.79,-1014.42C431,-1023.01 472.53,-1034.09 504.04,-1042.5"/>
<polygon fill="#cdc8b1" stroke="#cdc8b1" points="503.14,-1045.89 513.7,-1045.08 504.95,-1039.12 503.14,-1045.89"/>
</g>
<!-- StandUp -->
<g id="node46" class="node">
<title>StandUp</title>
<polygon fill="none" stroke="black" points="314.5,-936.12 314.5,-957.88 380.5,-957.88 380.5,-936.12 314.5,-936.12"/>
<text text-anchor="start" x="317.5" y="-941.58" font-family="Helvetica,sans-Serif" font-size="14.00">StandUp &#160;</text>
</g>
<!-- StandUp&#45;&gt;Engaging -->
<g id="edge37" class="edge">
<title>StandUp&#45;&gt;Engaging</title>
<path fill="none" stroke="#cdc8b1" d="M388.24,-959.4C399.9,-963.53 412.53,-968.5 423.75,-974 456.73,-990.17 491.76,-1012.96 516.68,-1030.25"/>
<polygon fill="#cdc8b1" stroke="#cdc8b1" points="514.61,-1033.07 524.8,-1035.95 518.63,-1027.34 514.61,-1033.07"/>
</g>
<!-- ZEnterState -->
<g id="node47" class="node">
<title>ZEnterState</title>
<polygon fill="none" stroke="black" points="304.75,-1152.12 304.75,-1173.88 390.25,-1173.88 390.25,-1152.12 304.75,-1152.12"/>
<text text-anchor="start" x="307.75" y="-1157.58" font-family="Helvetica,sans-Serif" font-size="14.00">ZEnterState &#160;</text>
</g>
<!-- ZEnterState&#45;&gt;Engaging -->
<g id="edge38" class="edge">
<title>ZEnterState&#45;&gt;Engaging</title>
<path fill="none" stroke="#cdc8b1" d="M398.13,-1146.97C406.81,-1143.67 415.65,-1139.97 423.75,-1136 456.73,-1119.83 491.76,-1097.04 516.68,-1079.75"/>
<polygon fill="#cdc8b1" stroke="#cdc8b1" points="518.63,-1082.66 524.8,-1074.05 514.61,-1076.93 518.63,-1082.66"/>
</g>
<!-- ZExitState -->
<g id="node48" class="node">
<title>ZExitState</title>
<polygon fill="none" stroke="black" points="55.12,-1152.12 55.12,-1173.88 130.88,-1173.88 130.88,-1152.12 55.12,-1152.12"/>
<text text-anchor="start" x="58.12" y="-1157.58" font-family="Helvetica,sans-Serif" font-size="14.00">ZExitState &#160;</text>
</g>
<!-- ZExitState&#45;&gt;ZEnterState -->
<g id="edge39" class="edge">
<title>ZExitState&#45;&gt;ZEnterState</title>
<path fill="none" stroke="#cdc8b1" d="M138.85,-1163C179.66,-1163 240.24,-1163 285.45,-1163"/>
<polygon fill="#cdc8b1" stroke="#cdc8b1" points="285.37,-1166.5 295.37,-1163 285.37,-1159.5 285.37,-1166.5"/>
</g>
<!-- Wandering_Idle -->
<g id="node49" class="node">
<title>Wandering_Idle</title>
<polygon fill="none" stroke="black" points="163.62,-1890 22.38,-1890 22.38,-1854 163.62,-1854 163.62,-1890"/>
<text text-anchor="middle" x="93" y="-1866.58" font-family="Helvetica,sans-Serif" font-size="14.00">Wandering_Idle (Init)</text>
</g>
</g>
</svg>
