<?xml version="1.0" encoding="UTF-8" standalone="no"?>
<!DOCTYPE svg PUBLIC "-//W3C//DTD SVG 1.1//EN"
 "http://www.w3.org/Graphics/SVG/1.1/DTD/svg11.dtd">
<!-- Generated by graphviz version 12.2.1 (20241206.2353)
 -->
<!-- Title: Foo Pages: 1 -->
<svg width="610pt" height="1899pt"
 viewBox="0.00 0.00 610.00 1898.88" xmlns="http://www.w3.org/2000/svg" xmlns:xlink="http://www.w3.org/1999/xlink">
<g id="graph0" class="graph" transform="scale(1 1) rotate(0) translate(4 1894.88)">
<title>Foo</title>
<polygon fill="white" stroke="none" points="-4,4 -4,-1894.88 606,-1894.88 606,4 -4,4"/>
<g id="clust1" class="cluster">
<title>cluster_attacksensors</title>
<polygon fill="none" stroke="black" points="8,-1482.88 8,-1882.88 411.35,-1882.88 411.35,-1482.88 8,-1482.88"/>
<text text-anchor="middle" x="209.68" y="-1865.58" font-family="Helvetica,sans-Serif" font-size="14.00">Attack Sensors</text>
</g>
<!-- Attack_Prepare -->
<g id="node1" class="node">
<title>Attack_Prepare</title>
<polygon fill="none" stroke="black" points="288.62,-1227 288.62,-1248.75 406.38,-1248.75 406.38,-1227 288.62,-1227"/>
<text text-anchor="start" x="297.25" y="-1232.45" font-family="Helvetica,sans-Serif" font-size="14.00">Attack_Prepare &#160;</text>
<polygon fill="none" stroke="black" points="288.62,-1195 288.62,-1227 406.38,-1227 406.38,-1195 288.62,-1195"/>
<text text-anchor="start" x="291.62" y="-1213.6" font-family="Helvetica,sans-Serif" font-size="12.00" fill="#838b8b">0.67s: LinkNextMove</text>
<text text-anchor="start" x="291.62" y="-1199.7" font-family="Helvetica,sans-Serif" font-size="12.00" fill="#838b8b">1.00s: Done</text>
<text text-anchor="start" x="356.12" y="-1199.7" font-family="Helvetica,sans-Serif" font-size="14.00"> &#160;</text>
</g>
<!-- Engaging -->
<g id="node2" class="node">
<title>Engaging</title>
<polygon fill="none" stroke="black" points="588.38,-656.88 515.38,-656.88 515.38,-620.88 588.38,-620.88 588.38,-656.88"/>
<text text-anchor="middle" x="551.88" y="-633.45" font-family="Helvetica,sans-Serif" font-size="14.00">Engaging</text>
</g>
<!-- Attack_Prepare&#45;&gt;Engaging -->
<g id="edge1" class="edge">
<title>Attack_Prepare&#45;&gt;Engaging</title>
<path fill="none" stroke="#cdc8b1" d="M414.11,-1204.61C440.19,-1194.29 467.74,-1178.26 483.75,-1153.88 503.11,-1124.38 496.48,-871.76 501.75,-836.88 510.96,-775.94 530.34,-706.37 541.82,-668.05"/>
<polygon fill="#cdc8b1" stroke="#cdc8b1" points="545.11,-669.24 544.67,-658.65 538.41,-667.21 545.11,-669.24"/>
</g>
<!-- Attack_Prepare_mustuse -->
<g id="node3" class="node">
<title>Attack_Prepare_mustuse</title>
<polygon fill="none" stroke="black" stroke-dasharray="1,5" points="602,-1253.62 501.75,-1253.62 501.75,-1206.12 602,-1206.12 602,-1253.62"/>
<text text-anchor="start" x="511.75" y="-1234.33" font-family="Helvetica,sans-Serif" font-size="14.00">1 Undefined &#160;</text>
<text text-anchor="start" x="511.75" y="-1214.58" font-family="Helvetica,sans-Serif" font-size="14.00">1 Undefined &#160;</text>
</g>
<!-- Attack_Prepare&#45;&gt;Attack_Prepare_mustuse -->
<g id="edge2" class="edge">
<title>Attack_Prepare&#45;&gt;Attack_Prepare_mustuse</title>
<path fill="none" stroke="#458b74" d="M414.21,-1224.47C438.6,-1225.44 466.16,-1226.53 490.1,-1227.47"/>
<polygon fill="#458b74" stroke="#458b74" points="489.89,-1230.97 500.02,-1227.86 490.16,-1223.97 489.89,-1230.97"/>
<text text-anchor="middle" x="462.75" y="-1229.51" font-family="Helvetica,sans-Serif" font-size="14.00" fill="#458b74">Weight</text>
</g>
<!-- Attack_內側戳 -->
<g id="node4" class="node">
<title>Attack_內側戳</title>
<polygon fill="none" stroke="black" points="288.62,-1059 288.62,-1080.75 406.38,-1080.75 406.38,-1059 288.62,-1059"/>
<text text-anchor="start" x="295.38" y="-1064.45" font-family="Helvetica,sans-Serif" font-size="14.00">Attack_內側戳 &#160;</text>
<polygon fill="none" stroke="black" points="288.62,-1027 288.62,-1059 406.38,-1059 406.38,-1027 288.62,-1027"/>
<text text-anchor="start" x="291.62" y="-1045.6" font-family="Helvetica,sans-Serif" font-size="12.00" fill="#838b8b">1.08s: LinkNextMove</text>
<text text-anchor="start" x="291.62" y="-1031.7" font-family="Helvetica,sans-Serif" font-size="12.00" fill="#838b8b">1.25s: Done</text>
<text text-anchor="start" x="356.12" y="-1031.7" font-family="Helvetica,sans-Serif" font-size="14.00"> &#160;</text>
</g>
<!-- Attack_內側戳&#45;&gt;Engaging -->
<g id="edge3" class="edge">
<title>Attack_內側戳&#45;&gt;Engaging</title>
<path fill="none" stroke="#cdc8b1" d="M414.35,-1038.68C439.98,-1029.41 467.13,-1014.76 483.75,-991.88 504.13,-963.82 495.56,-870.99 501.75,-836.88 512.75,-776.24 531.49,-706.56 542.37,-668.14"/>
<polygon fill="#cdc8b1" stroke="#cdc8b1" points="545.68,-669.3 545.06,-658.72 538.95,-667.38 545.68,-669.3"/>
</g>
<!-- Attack_內側戳_mustuse -->
<g id="node5" class="node">
<title>Attack_內側戳_mustuse</title>
<polygon fill="none" stroke="black" stroke-dasharray="1,5" points="602,-1063.62 501.75,-1063.62 501.75,-1016.12 602,-1016.12 602,-1063.62"/>
<text text-anchor="start" x="511.75" y="-1044.33" font-family="Helvetica,sans-Serif" font-size="14.00">2 Undefined &#160;</text>
<text text-anchor="start" x="511.75" y="-1024.58" font-family="Helvetica,sans-Serif" font-size="14.00">1 Undefined &#160;</text>
</g>
<!-- Attack_內側戳&#45;&gt;Attack_內側戳_mustuse -->
<g id="edge4" class="edge">
<title>Attack_內側戳&#45;&gt;Attack_內側戳_mustuse</title>
<path fill="none" stroke="#458b74" d="M414.21,-1049.33C438.6,-1047.64 466.16,-1045.74 490.1,-1044.08"/>
<polygon fill="#458b74" stroke="#458b74" points="490.28,-1047.58 500.02,-1043.39 489.8,-1040.59 490.28,-1047.58"/>
<text text-anchor="middle" x="462.75" y="-1049.74" font-family="Helvetica,sans-Serif" font-size="14.00" fill="#458b74">Weight</text>
</g>
<!-- TurnAround Attack -->
<g id="node6" class="node">
<title>TurnAround Attack</title>
<polygon fill="none" stroke="black" points="284.88,-899 284.88,-920.75 410.12,-920.75 410.12,-899 284.88,-899"/>
<text text-anchor="start" x="287.88" y="-904.45" font-family="Helvetica,sans-Serif" font-size="14.00">TurnAround Attack &#160;</text>
<polygon fill="none" stroke="black" points="284.88,-867 284.88,-899 410.12,-899 410.12,-867 284.88,-867"/>
<text text-anchor="start" x="287.88" y="-885.6" font-family="Helvetica,sans-Serif" font-size="12.00" fill="#838b8b">1.42s: LinkNextMove</text>
<text text-anchor="start" x="287.88" y="-871.7" font-family="Helvetica,sans-Serif" font-size="12.00" fill="#838b8b">2.17s: Done</text>
<text text-anchor="start" x="352.38" y="-871.7" font-family="Helvetica,sans-Serif" font-size="14.00"> &#160;</text>
</g>
<!-- TurnAround Attack&#45;&gt;Engaging -->
<g id="edge5" class="edge">
<title>TurnAround Attack&#45;&gt;Engaging</title>
<path fill="none" stroke="#cdc8b1" d="M412.61,-863.06C416.55,-860.19 420.31,-857.13 423.75,-853.88 481.56,-799.23 521.8,-712.49 539.96,-667.72"/>
<polygon fill="#cdc8b1" stroke="#cdc8b1" points="543.11,-669.28 543.54,-658.7 536.6,-666.7 543.11,-669.28"/>
</g>
<!-- TurnAround Attack_mustuse -->
<g id="node7" class="node">
<title>TurnAround Attack_mustuse</title>
<polygon fill="none" stroke="black" stroke-dasharray="1,5" points="602,-932.38 501.75,-932.38 501.75,-845.38 602,-845.38 602,-932.38"/>
<text text-anchor="start" x="511.75" y="-913.08" font-family="Helvetica,sans-Serif" font-size="14.00">1 Undefined &#160;</text>
<text text-anchor="start" x="511.75" y="-893.33" font-family="Helvetica,sans-Serif" font-size="14.00">0 Undefined &#160;</text>
<text text-anchor="start" x="511.75" y="-873.58" font-family="Helvetica,sans-Serif" font-size="14.00">2 Undefined &#160;</text>
<text text-anchor="start" x="511.75" y="-853.83" font-family="Helvetica,sans-Serif" font-size="14.00">1 Undefined &#160;</text>
</g>
<!-- TurnAround Attack&#45;&gt;TurnAround Attack_mustuse -->
<g id="edge6" class="edge">
<title>TurnAround Attack&#45;&gt;TurnAround Attack_mustuse</title>
<path fill="none" stroke="#458b74" d="M417.86,-892.16C441.35,-891.58 467.39,-890.94 490.16,-890.38"/>
<polygon fill="#458b74" stroke="#458b74" points="489.97,-893.88 499.88,-890.13 489.8,-886.88 489.97,-893.88"/>
<text text-anchor="middle" x="462.75" y="-893.97" font-family="Helvetica,sans-Serif" font-size="14.00" fill="#458b74">Weight</text>
</g>
<!-- TurnAround Jump -->
<g id="node8" class="node">
<title>TurnAround Jump</title>
<polygon fill="none" stroke="black" points="286.38,-469 286.38,-490.75 408.62,-490.75 408.62,-469 286.38,-469"/>
<text text-anchor="start" x="289.38" y="-474.45" font-family="Helvetica,sans-Serif" font-size="14.00">TurnAround Jump &#160;</text>
<polygon fill="none" stroke="black" points="286.38,-437 286.38,-469 408.62,-469 408.62,-437 286.38,-437"/>
<text text-anchor="start" x="289.38" y="-455.6" font-family="Helvetica,sans-Serif" font-size="12.00" fill="#838b8b">0.75s: LinkNextMove</text>
<text text-anchor="start" x="289.38" y="-441.7" font-family="Helvetica,sans-Serif" font-size="12.00" fill="#838b8b">1.00s: Done</text>
<text text-anchor="start" x="353.88" y="-441.7" font-family="Helvetica,sans-Serif" font-size="14.00"> &#160;</text>
</g>
<!-- TurnAround Jump&#45;&gt;Engaging -->
<g id="edge7" class="edge">
<title>TurnAround Jump&#45;&gt;Engaging</title>
<path fill="none" stroke="#cdc8b1" d="M410.19,-494.75C414.88,-497.67 419.45,-500.73 423.75,-503.88 466.62,-535.31 507.08,-582.36 530.4,-611.8"/>
<polygon fill="#cdc8b1" stroke="#cdc8b1" points="527.5,-613.78 536.42,-619.51 533.02,-609.47 527.5,-613.78"/>
</g>
<!-- TurnAround Jump_mustuse -->
<g id="node9" class="node">
<title>TurnAround Jump_mustuse</title>
<polygon fill="none" stroke="black" stroke-dasharray="1,5" points="602,-487.62 501.75,-487.62 501.75,-440.12 602,-440.12 602,-487.62"/>
<text text-anchor="start" x="511.75" y="-468.32" font-family="Helvetica,sans-Serif" font-size="14.00">1 Undefined &#160;</text>
<text text-anchor="start" x="511.75" y="-448.57" font-family="Helvetica,sans-Serif" font-size="14.00">0 Undefined &#160;</text>
</g>
<!-- TurnAround Jump&#45;&gt;TurnAround Jump_mustuse -->
<g id="edge8" class="edge">
<title>TurnAround Jump&#45;&gt;TurnAround Jump_mustuse</title>
<path fill="none" stroke="#458b74" d="M416.45,-463.88C440.22,-463.88 466.75,-463.88 489.91,-463.88"/>
<polygon fill="#458b74" stroke="#458b74" points="489.82,-467.38 499.82,-463.88 489.82,-460.38 489.82,-467.38"/>
<text text-anchor="middle" x="462.75" y="-466.32" font-family="Helvetica,sans-Serif" font-size="14.00" fill="#458b74">Weight</text>
</g>
<!-- Attack_收琴 -->
<g id="node10" class="node">
<title>Attack_收琴</title>
<polygon fill="none" stroke="black" points="288.62,-389 288.62,-410.75 406.38,-410.75 406.38,-389 288.62,-389"/>
<text text-anchor="start" x="304" y="-394.45" font-family="Helvetica,sans-Serif" font-size="14.00">Attack_收琴 &#160;</text>
<polygon fill="none" stroke="black" points="288.62,-357 288.62,-389 406.38,-389 406.38,-357 288.62,-357"/>
<text text-anchor="start" x="291.62" y="-375.6" font-family="Helvetica,sans-Serif" font-size="12.00" fill="#838b8b">0.75s: LinkNextMove</text>
<text text-anchor="start" x="291.62" y="-361.7" font-family="Helvetica,sans-Serif" font-size="12.00" fill="#838b8b">1.00s: Done</text>
<text text-anchor="start" x="356.12" y="-361.7" font-family="Helvetica,sans-Serif" font-size="14.00"> &#160;</text>
</g>
<!-- Attack_收琴&#45;&gt;Engaging -->
<g id="edge9" class="edge">
<title>Attack_收琴&#45;&gt;Engaging</title>
<path fill="none" stroke="#cdc8b1" d="M414.22,-408.81C438.9,-420.98 465.39,-437.84 483.75,-459.88 493.69,-471.8 524.95,-561.89 541.06,-609.53"/>
<polygon fill="#cdc8b1" stroke="#cdc8b1" points="537.72,-610.59 544.23,-618.95 544.36,-608.35 537.72,-610.59"/>
</g>
<!-- Attack_收琴_mustuse -->
<g id="node11" class="node">
<title>Attack_收琴_mustuse</title>
<polygon fill="none" stroke="black" stroke-dasharray="1,5" points="584.38,-406.88 519.38,-406.88 519.38,-370.88 584.38,-370.88 584.38,-406.88"/>
<text text-anchor="start" x="529.38" y="-383.45" font-family="Helvetica,sans-Serif" font-size="14.00">1 Skip &#160;</text>
</g>
<!-- Attack_收琴&#45;&gt;Attack_收琴_mustuse -->
<g id="edge10" class="edge">
<title>Attack_收琴&#45;&gt;Attack_收琴_mustuse</title>
<path fill="none" stroke="#458b74" d="M414.21,-385.5C444.77,-386.25 480.28,-387.13 507.44,-387.8"/>
<polygon fill="#458b74" stroke="#458b74" points="507.31,-391.3 517.39,-388.05 507.48,-384.3 507.31,-391.3"/>
<text text-anchor="middle" x="462.75" y="-389.56" font-family="Helvetica,sans-Serif" font-size="14.00" fill="#458b74">Weight</text>
</g>
<!-- Attack_過身斬 -->
<g id="node12" class="node">
<title>Attack_過身斬</title>
<polygon fill="none" stroke="black" points="288.62,-1139 288.62,-1160.75 406.38,-1160.75 406.38,-1139 288.62,-1139"/>
<text text-anchor="start" x="295.38" y="-1144.45" font-family="Helvetica,sans-Serif" font-size="14.00">Attack_過身斬 &#160;</text>
<polygon fill="none" stroke="black" points="288.62,-1107 288.62,-1139 406.38,-1139 406.38,-1107 288.62,-1107"/>
<text text-anchor="start" x="291.62" y="-1125.6" font-family="Helvetica,sans-Serif" font-size="12.00" fill="#838b8b">2.83s: LinkNextMove</text>
<text text-anchor="start" x="291.62" y="-1111.7" font-family="Helvetica,sans-Serif" font-size="12.00" fill="#838b8b">3.08s: Done</text>
<text text-anchor="start" x="356.12" y="-1111.7" font-family="Helvetica,sans-Serif" font-size="14.00"> &#160;</text>
</g>
<!-- Attack_過身斬&#45;&gt;Engaging -->
<g id="edge11" class="edge">
<title>Attack_過身斬&#45;&gt;Engaging</title>
<path fill="none" stroke="#cdc8b1" d="M414.19,-1116.79C440.12,-1106.63 467.53,-1090.86 483.75,-1066.88 512.46,-1024.4 493.55,-887.48 501.75,-836.88 511.61,-776.04 530.76,-706.43 542.02,-668.08"/>
<polygon fill="#cdc8b1" stroke="#cdc8b1" points="545.32,-669.26 544.81,-658.68 538.61,-667.27 545.32,-669.26"/>
</g>
<!-- Attack_過身斬_mustuse -->
<g id="node13" class="node">
<title>Attack_過身斬_mustuse</title>
<polygon fill="none" stroke="black" stroke-dasharray="1,5" points="602,-1188.25 501.75,-1188.25 501.75,-1081.5 602,-1081.5 602,-1188.25"/>
<text text-anchor="start" x="511.75" y="-1168.95" font-family="Helvetica,sans-Serif" font-size="14.00">0 Undefined &#160;</text>
<text text-anchor="start" x="529.38" y="-1149.2" font-family="Helvetica,sans-Serif" font-size="14.00">0 Skip &#160;</text>
<text text-anchor="start" x="511.75" y="-1129.45" font-family="Helvetica,sans-Serif" font-size="14.00">2 Undefined &#160;</text>
<text text-anchor="start" x="511.75" y="-1109.7" font-family="Helvetica,sans-Serif" font-size="14.00">0 Undefined &#160;</text>
<text text-anchor="start" x="511.75" y="-1089.95" font-family="Helvetica,sans-Serif" font-size="14.00">1 Undefined &#160;</text>
</g>
<!-- Attack_過身斬&#45;&gt;Attack_過身斬_mustuse -->
<g id="edge12" class="edge">
<title>Attack_過身斬&#45;&gt;Attack_過身斬_mustuse</title>
<path fill="none" stroke="#458b74" d="M414.21,-1134.2C438.6,-1134.32 466.16,-1134.46 490.1,-1134.57"/>
<polygon fill="#458b74" stroke="#458b74" points="490,-1138.07 500.01,-1134.62 490.03,-1131.07 490,-1138.07"/>
<text text-anchor="middle" x="462.75" y="-1136.97" font-family="Helvetica,sans-Serif" font-size="14.00" fill="#458b74">Weight</text>
</g>
<!-- Attack_跳斬 -->
<g id="node14" class="node">
<title>Attack_跳斬</title>
<polygon fill="none" stroke="black" points="288.62,-309 288.62,-330.75 406.38,-330.75 406.38,-309 288.62,-309"/>
<text text-anchor="start" x="304" y="-314.45" font-family="Helvetica,sans-Serif" font-size="14.00">Attack_跳斬 &#160;</text>
<polygon fill="none" stroke="black" points="288.62,-277 288.62,-309 406.38,-309 406.38,-277 288.62,-277"/>
<text text-anchor="start" x="291.62" y="-295.6" font-family="Helvetica,sans-Serif" font-size="12.00" fill="#838b8b">1.67s: LinkNextMove</text>
<text text-anchor="start" x="291.62" y="-281.7" font-family="Helvetica,sans-Serif" font-size="12.00" fill="#838b8b">2.42s: Done</text>
<text text-anchor="start" x="356.12" y="-281.7" font-family="Helvetica,sans-Serif" font-size="14.00"> &#160;</text>
</g>
<!-- Attack_跳斬&#45;&gt;Engaging -->
<g id="edge13" class="edge">
<title>Attack_跳斬&#45;&gt;Engaging</title>
<path fill="none" stroke="#cdc8b1" d="M414.33,-326.72C440.12,-339.04 467.39,-356.95 483.75,-381.88 512.13,-425.13 489.24,-446.68 501.75,-496.88 511.77,-537.1 528.28,-582.1 539.36,-610.45"/>
<polygon fill="#cdc8b1" stroke="#cdc8b1" points="535.97,-611.39 542.9,-619.4 542.48,-608.81 535.97,-611.39"/>
</g>
<!-- Attack_跳斬_mustuse -->
<g id="node15" class="node">
<title>Attack_跳斬_mustuse</title>
<polygon fill="none" stroke="black" stroke-dasharray="1,5" points="602,-352.5 501.75,-352.5 501.75,-285.25 602,-285.25 602,-352.5"/>
<text text-anchor="start" x="511.75" y="-333.2" font-family="Helvetica,sans-Serif" font-size="14.00">1 Undefined &#160;</text>
<text text-anchor="start" x="511.75" y="-313.45" font-family="Helvetica,sans-Serif" font-size="14.00">1 Undefined &#160;</text>
<text text-anchor="start" x="529.38" y="-293.7" font-family="Helvetica,sans-Serif" font-size="14.00">0 Skip &#160;</text>
</g>
<!-- Attack_跳斬&#45;&gt;Attack_跳斬_mustuse -->
<g id="edge14" class="edge">
<title>Attack_跳斬&#45;&gt;Attack_跳斬_mustuse</title>
<path fill="none" stroke="#458b74" d="M414.21,-308.75C438.6,-310.55 466.16,-312.6 490.1,-314.37"/>
<polygon fill="#458b74" stroke="#458b74" points="489.79,-317.86 500.02,-315.11 490.3,-310.88 489.79,-317.86"/>
<text text-anchor="middle" x="462.75" y="-316.05" font-family="Helvetica,sans-Serif" font-size="14.00" fill="#458b74">Weight</text>
</g>
<!-- Attack_雙大反 -->
<g id="node16" class="node">
<title>Attack_雙大反</title>
<polygon fill="none" stroke="black" points="291.25,-819 291.25,-840.75 403.75,-840.75 403.75,-819 291.25,-819"/>
<text text-anchor="start" x="295.38" y="-824.45" font-family="Helvetica,sans-Serif" font-size="14.00">Attack_雙大反 &#160;</text>
<polygon fill="none" stroke="black" points="291.25,-787 291.25,-819 403.75,-819 403.75,-787 291.25,-787"/>
<text text-anchor="start" x="294.25" y="-805.6" font-family="Helvetica,sans-Serif" font-size="12.00" fill="#838b8b">2.00s: CheckFacing</text>
<text text-anchor="start" x="294.25" y="-791.7" font-family="Helvetica,sans-Serif" font-size="12.00" fill="#838b8b">3.83s: Done</text>
<text text-anchor="start" x="358.75" y="-791.7" font-family="Helvetica,sans-Serif" font-size="14.00"> &#160;</text>
</g>
<!-- Attack_雙大反&#45;&gt;Engaging -->
<g id="edge15" class="edge">
<title>Attack_雙大反&#45;&gt;Engaging</title>
<path fill="none" stroke="#cdc8b1" d="M410.25,-783.08C414.93,-780.14 419.48,-777.06 423.75,-773.88 466.35,-742.08 506.89,-695.13 530.3,-665.81"/>
<polygon fill="#cdc8b1" stroke="#cdc8b1" points="532.9,-668.16 536.34,-658.14 527.4,-663.83 532.9,-668.16"/>
</g>
<!-- Attack_怪拍連擊 -->
<g id="node17" class="node">
<title>Attack_怪拍連擊</title>
<polygon fill="none" stroke="black" points="283.75,-979 283.75,-1000.75 411.25,-1000.75 411.25,-979 283.75,-979"/>
<text text-anchor="start" x="286.75" y="-984.45" font-family="Helvetica,sans-Serif" font-size="14.00">Attack_怪拍連擊 &#160;</text>
<polygon fill="none" stroke="black" points="283.75,-947 283.75,-979 411.25,-979 411.25,-947 283.75,-947"/>
<text text-anchor="start" x="286.75" y="-965.6" font-family="Helvetica,sans-Serif" font-size="12.00" fill="#838b8b">2.50s: LinkNextMove</text>
<text text-anchor="start" x="286.75" y="-951.7" font-family="Helvetica,sans-Serif" font-size="12.00" fill="#838b8b">5.00s: Done</text>
<text text-anchor="start" x="351.25" y="-951.7" font-family="Helvetica,sans-Serif" font-size="14.00"> &#160;</text>
</g>
<!-- Attack_怪拍連擊&#45;&gt;Engaging -->
<g id="edge16" class="edge">
<title>Attack_怪拍連擊&#45;&gt;Engaging</title>
<path fill="none" stroke="#cdc8b1" d="M418.96,-954.81C442.61,-945.18 467.16,-931.11 483.75,-910.88 505.21,-884.7 493.67,-869.75 501.75,-836.88 516.49,-776.87 533.95,-706.7 543.58,-668.08"/>
<polygon fill="#cdc8b1" stroke="#cdc8b1" points="546.92,-669.18 545.94,-658.63 540.13,-667.48 546.92,-669.18"/>
</g>
<!-- Attack_怪拍連擊_mustuse -->
<g id="node18" class="node">
<title>Attack_怪拍連擊_mustuse</title>
<polygon fill="none" stroke="black" stroke-dasharray="1,5" points="602,-997.62 501.75,-997.62 501.75,-950.12 602,-950.12 602,-997.62"/>
<text text-anchor="start" x="511.75" y="-978.33" font-family="Helvetica,sans-Serif" font-size="14.00">1 Undefined &#160;</text>
<text text-anchor="start" x="511.75" y="-958.58" font-family="Helvetica,sans-Serif" font-size="14.00">2 Undefined &#160;</text>
</g>
<!-- Attack_怪拍連擊&#45;&gt;Attack_怪拍連擊_mustuse -->
<g id="edge17" class="edge">
<title>Attack_怪拍連擊&#45;&gt;Attack_怪拍連擊_mustuse</title>
<path fill="none" stroke="#458b74" d="M419,-973.88C442.12,-973.88 467.6,-973.88 489.95,-973.88"/>
<polygon fill="#458b74" stroke="#458b74" points="489.81,-977.38 499.81,-973.88 489.81,-970.38 489.81,-977.38"/>
<text text-anchor="middle" x="462.75" y="-976.33" font-family="Helvetica,sans-Serif" font-size="14.00" fill="#458b74">Weight</text>
</g>
<!-- Attack_下打後拉 -->
<g id="node19" class="node">
<title>Attack_下打後拉</title>
<polygon fill="none" stroke="black" points="283.75,-229 283.75,-250.75 411.25,-250.75 411.25,-229 283.75,-229"/>
<text text-anchor="start" x="286.75" y="-234.45" font-family="Helvetica,sans-Serif" font-size="14.00">Attack_下打後拉 &#160;</text>
<polygon fill="none" stroke="black" points="283.75,-197 283.75,-229 411.25,-229 411.25,-197 283.75,-197"/>
<text text-anchor="start" x="286.75" y="-215.6" font-family="Helvetica,sans-Serif" font-size="12.00" fill="#838b8b">2.83s: LinkNextMove</text>
<text text-anchor="start" x="286.75" y="-201.7" font-family="Helvetica,sans-Serif" font-size="12.00" fill="#838b8b">3.33s: Done</text>
<text text-anchor="start" x="351.25" y="-201.7" font-family="Helvetica,sans-Serif" font-size="14.00"> &#160;</text>
</g>
<!-- Attack_下打後拉&#45;&gt;Engaging -->
<g id="edge18" class="edge">
<title>Attack_下打後拉&#45;&gt;Engaging</title>
<path fill="none" stroke="#cdc8b1" d="M419.11,-250.26C443.99,-263.33 469.33,-281.8 483.75,-306.88 504.89,-343.64 492.75,-455.43 501.75,-496.88 510.49,-537.16 527.16,-581.82 538.64,-610.1"/>
<polygon fill="#cdc8b1" stroke="#cdc8b1" points="535.28,-611.14 542.33,-619.05 541.75,-608.47 535.28,-611.14"/>
</g>
<!-- Attack_下打後拉_mustuse -->
<g id="node20" class="node">
<title>Attack_下打後拉_mustuse</title>
<polygon fill="none" stroke="black" stroke-dasharray="1,5" points="602,-267.38 501.75,-267.38 501.75,-180.38 602,-180.38 602,-267.38"/>
<text text-anchor="start" x="511.75" y="-248.07" font-family="Helvetica,sans-Serif" font-size="14.00">2 Undefined &#160;</text>
<text text-anchor="start" x="511.75" y="-228.32" font-family="Helvetica,sans-Serif" font-size="14.00">1 Undefined &#160;</text>
<text text-anchor="start" x="511.75" y="-208.57" font-family="Helvetica,sans-Serif" font-size="14.00">1 Undefined &#160;</text>
<text text-anchor="start" x="511.75" y="-188.82" font-family="Helvetica,sans-Serif" font-size="14.00">1 Undefined &#160;</text>
</g>
<!-- Attack_下打後拉&#45;&gt;Attack_下打後拉_mustuse -->
<g id="edge19" class="edge">
<title>Attack_下打後拉&#45;&gt;Attack_下打後拉_mustuse</title>
<path fill="none" stroke="#458b74" d="M419,-223.88C442.12,-223.88 467.6,-223.88 489.95,-223.88"/>
<polygon fill="#458b74" stroke="#458b74" points="489.81,-227.38 499.81,-223.88 489.81,-220.38 489.81,-227.38"/>
<text text-anchor="middle" x="462.75" y="-226.32" font-family="Helvetica,sans-Serif" font-size="14.00" fill="#458b74">Weight</text>
</g>
<!-- Attack_內側下打 -->
<g id="node21" class="node">
<title>Attack_內側下打</title>
<polygon fill="none" stroke="black" points="279.25,-143 279.25,-164.75 415.75,-164.75 415.75,-143 279.25,-143"/>
<text text-anchor="start" x="286.75" y="-148.45" font-family="Helvetica,sans-Serif" font-size="14.00">Attack_內側下打 &#160;</text>
<polygon fill="none" stroke="black" points="279.25,-99 279.25,-143 415.75,-143 415.75,-99 279.25,-99"/>
<text text-anchor="start" x="282.25" y="-129.6" font-family="Helvetica,sans-Serif" font-size="12.00" fill="#838b8b">0.92s: LinkMoveInterrupt</text>
<text text-anchor="start" x="282.25" y="-117.6" font-family="Helvetica,sans-Serif" font-size="12.00" fill="#838b8b">1.08s: LinkNextMove</text>
<text text-anchor="start" x="282.25" y="-103.7" font-family="Helvetica,sans-Serif" font-size="12.00" fill="#838b8b">1.67s: Done</text>
<text text-anchor="start" x="346.75" y="-103.7" font-family="Helvetica,sans-Serif" font-size="14.00"> &#160;</text>
</g>
<!-- Attack_內側下打&#45;&gt;Engaging -->
<g id="edge20" class="edge">
<title>Attack_內側下打&#45;&gt;Engaging</title>
<path fill="none" stroke="#cdc8b1" d="M423.62,-163.98C446.82,-177.73 469.88,-196.18 483.75,-219.88 514.9,-273.12 489.56,-436.41 501.75,-496.88 509.9,-537.28 526.71,-581.91 538.38,-610.15"/>
<polygon fill="#cdc8b1" stroke="#cdc8b1" points="535.03,-611.23 542.13,-619.09 541.48,-608.52 535.03,-611.23"/>
</g>
<!-- Attack_內側下打_mustuse -->
<g id="node22" class="node">
<title>Attack_內側下打_mustuse</title>
<polygon fill="none" stroke="black" stroke-dasharray="1,5" points="602,-162.38 501.75,-162.38 501.75,-75.38 602,-75.38 602,-162.38"/>
<text text-anchor="start" x="511.75" y="-143.07" font-family="Helvetica,sans-Serif" font-size="14.00">1 Undefined &#160;</text>
<text text-anchor="start" x="511.75" y="-123.33" font-family="Helvetica,sans-Serif" font-size="14.00">1 Undefined &#160;</text>
<text text-anchor="start" x="511.75" y="-103.58" font-family="Helvetica,sans-Serif" font-size="14.00">1 Undefined &#160;</text>
<text text-anchor="start" x="511.75" y="-83.83" font-family="Helvetica,sans-Serif" font-size="14.00">1 Undefined &#160;</text>
</g>
<!-- Attack_內側下打&#45;&gt;Attack_內側下打_mustuse -->
<g id="edge21" class="edge">
<title>Attack_內側下打&#45;&gt;Attack_內側下打_mustuse</title>
<path fill="none" stroke="#458b74" d="M423.57,-127.05C445.49,-125.64 469.17,-124.12 490.1,-122.78"/>
<polygon fill="#458b74" stroke="#458b74" points="490.14,-126.28 499.9,-122.15 489.69,-119.3 490.14,-126.28"/>
<text text-anchor="middle" x="462.75" y="-128.21" font-family="Helvetica,sans-Serif" font-size="14.00" fill="#458b74">Weight</text>
</g>
<!-- Attack_外側下打 -->
<g id="node23" class="node">
<title>Attack_外側下打</title>
<polygon fill="none" stroke="black" points="283.75,-48 283.75,-69.75 411.25,-69.75 411.25,-48 283.75,-48"/>
<text text-anchor="start" x="286.75" y="-53.45" font-family="Helvetica,sans-Serif" font-size="14.00">Attack_外側下打 &#160;</text>
<polygon fill="none" stroke="black" points="283.75,-4 283.75,-48 411.25,-48 411.25,-4 283.75,-4"/>
<text text-anchor="start" x="286.75" y="-34.6" font-family="Helvetica,sans-Serif" font-size="12.00" fill="#838b8b">0.33s: CheckFacing</text>
<text text-anchor="start" x="286.75" y="-22.6" font-family="Helvetica,sans-Serif" font-size="12.00" fill="#838b8b">1.83s: LinkNextMove</text>
<text text-anchor="start" x="286.75" y="-8.7" font-family="Helvetica,sans-Serif" font-size="12.00" fill="#838b8b">1.92s: Done</text>
<text text-anchor="start" x="351.25" y="-8.7" font-family="Helvetica,sans-Serif" font-size="14.00"> &#160;</text>
</g>
<!-- Attack_外側下打&#45;&gt;Engaging -->
<g id="edge22" class="edge">
<title>Attack_外側下打&#45;&gt;Engaging</title>
<path fill="none" stroke="#cdc8b1" d="M419.14,-63.64C443.87,-76.71 469.1,-95.09 483.75,-119.88 505.1,-155.97 493.81,-455.7 501.75,-496.88 509.55,-537.35 526.44,-581.97 538.22,-610.18"/>
<polygon fill="#cdc8b1" stroke="#cdc8b1" points="534.89,-611.28 542.02,-619.11 541.33,-608.54 534.89,-611.28"/>
</g>
<!-- Attack_外側下打_mustuse -->
<g id="node24" class="node">
<title>Attack_外側下打_mustuse</title>
<polygon fill="none" stroke="black" stroke-dasharray="1,5" points="602,-57.62 501.75,-57.62 501.75,-10.12 602,-10.12 602,-57.62"/>
<text text-anchor="start" x="511.75" y="-38.33" font-family="Helvetica,sans-Serif" font-size="14.00">1 Undefined &#160;</text>
<text text-anchor="start" x="511.75" y="-18.57" font-family="Helvetica,sans-Serif" font-size="14.00">1 Undefined &#160;</text>
</g>
<!-- Attack_外側下打&#45;&gt;Attack_外側下打_mustuse -->
<g id="edge23" class="edge">
<title>Attack_外側下打&#45;&gt;Attack_外側下打_mustuse</title>
<path fill="none" stroke="#458b74" d="M419,-35.83C442.12,-35.49 467.6,-35.11 489.95,-34.78"/>
<polygon fill="#458b74" stroke="#458b74" points="489.86,-38.28 499.81,-34.63 489.75,-31.28 489.86,-38.28"/>
<text text-anchor="middle" x="462.75" y="-37.91" font-family="Helvetica,sans-Serif" font-size="14.00" fill="#458b74">Weight</text>
</g>
<!-- AttackParrying -->
<g id="node25" class="node">
<title>AttackParrying</title>
<polygon fill="none" stroke="black" points="399.38,-710.88 295.62,-710.88 295.62,-674.88 399.38,-674.88 399.38,-710.88"/>
<text text-anchor="middle" x="347.5" y="-687.45" font-family="Helvetica,sans-Serif" font-size="14.00">AttackParrying</text>
</g>
<!-- AttackParrying&#45;&gt;Engaging -->
<g id="edge24" class="edge">
<title>AttackParrying&#45;&gt;Engaging</title>
<path fill="none" stroke="#cdc8b1" d="M399.83,-679.18C431.85,-670.64 472.74,-659.72 503.91,-651.41"/>
<polygon fill="#cdc8b1" stroke="#cdc8b1" points="504.69,-654.82 513.45,-648.86 502.88,-648.06 504.69,-654.82"/>
</g>
<!-- Hurt_BigState -->
<g id="node26" class="node">
<title>Hurt_BigState</title>
<polygon fill="none" stroke="black" points="44.25,-1323.88 44.25,-1345.62 141.75,-1345.62 141.75,-1323.88 44.25,-1323.88"/>
<text text-anchor="start" x="47.25" y="-1329.33" font-family="Helvetica,sans-Serif" font-size="14.00">Hurt_BigState &#160;</text>
<polygon fill="none" stroke="black" points="44.25,-1302.12 44.25,-1323.88 141.75,-1323.88 141.75,-1302.12 44.25,-1302.12"/>
<text text-anchor="start" x="47.25" y="-1308.58" font-family="Helvetica,sans-Serif" font-size="12.00" fill="#838b8b">3.00s: Done</text>
<text text-anchor="start" x="111.75" y="-1308.58" font-family="Helvetica,sans-Serif" font-size="14.00"> &#160;</text>
</g>
<!-- PreAttack -->
<g id="node27" class="node">
<title>PreAttack</title>
<polygon fill="none" stroke="black" points="384.75,-1306.88 310.25,-1306.88 310.25,-1270.88 384.75,-1270.88 384.75,-1306.88"/>
<text text-anchor="middle" x="347.5" y="-1283.45" font-family="Helvetica,sans-Serif" font-size="14.00">PreAttack</text>
</g>
<!-- Hurt_BigState&#45;&gt;PreAttack -->
<g id="edge25" class="edge">
<title>Hurt_BigState&#45;&gt;PreAttack</title>
<path fill="none" stroke="#cdc8b1" d="M149.72,-1316.15C194.42,-1309.95 256.49,-1301.35 298.89,-1295.47"/>
<polygon fill="#cdc8b1" stroke="#cdc8b1" points="299.1,-1298.98 308.53,-1294.14 298.14,-1292.04 299.1,-1298.98"/>
</g>
<!-- JumpBack -->
<g id="node28" class="node">
<title>JumpBack</title>
<polygon fill="none" stroke="black" points="387.38,-656.88 307.62,-656.88 307.62,-620.88 387.38,-620.88 387.38,-656.88"/>
<text text-anchor="middle" x="347.5" y="-633.45" font-family="Helvetica,sans-Serif" font-size="14.00">JumpBack</text>
</g>
<!-- JumpBack&#45;&gt;Engaging -->
<g id="edge26" class="edge">
<title>JumpBack&#45;&gt;Engaging</title>
<path fill="none" stroke="#cdc8b1" d="M387.52,-638.88C420.65,-638.88 468.28,-638.88 503.57,-638.88"/>
<polygon fill="#cdc8b1" stroke="#cdc8b1" points="503.52,-642.38 513.52,-638.88 503.52,-635.38 503.52,-642.38"/>
</g>
<!-- LastHit -->
<g id="node29" class="node">
<title>LastHit</title>
<polygon fill="none" stroke="black" points="54,-1393.88 54,-1415.62 132,-1415.62 132,-1393.88 54,-1393.88"/>
<text text-anchor="start" x="68.25" y="-1399.33" font-family="Helvetica,sans-Serif" font-size="14.00">LastHit &#160;</text>
<polygon fill="none" stroke="black" points="54,-1372.12 54,-1393.88 132,-1393.88 132,-1372.12 54,-1372.12"/>
<text text-anchor="start" x="57" y="-1378.58" font-family="Helvetica,sans-Serif" font-size="12.00" fill="#838b8b">0.83s: Done</text>
<text text-anchor="start" x="121.5" y="-1378.58" font-family="Helvetica,sans-Serif" font-size="14.00"> &#160;</text>
</g>
<!-- DeadState -->
<g id="node30" class="node">
<title>DeadState</title>
<polygon fill="none" stroke="black" points="387.38,-1411.88 307.62,-1411.88 307.62,-1375.88 387.38,-1375.88 387.38,-1411.88"/>
<text text-anchor="middle" x="347.5" y="-1388.45" font-family="Helvetica,sans-Serif" font-size="14.00">DeadState</text>
</g>
<!-- LastHit&#45;&gt;DeadState -->
<g id="edge27" class="edge">
<title>LastHit&#45;&gt;DeadState</title>
<path fill="none" stroke="#cdc8b1" d="M139.73,-1393.88C183.78,-1393.88 250.3,-1393.88 295.92,-1393.88"/>
<polygon fill="#cdc8b1" stroke="#cdc8b1" points="295.82,-1397.38 305.82,-1393.88 295.82,-1390.38 295.82,-1397.38"/>
</g>
<!-- PostureBreak -->
<g id="node31" class="node">
<title>PostureBreak</title>
<polygon fill="none" stroke="black" points="45.38,-1253.88 45.38,-1275.62 140.62,-1275.62 140.62,-1253.88 45.38,-1253.88"/>
<text text-anchor="start" x="48.38" y="-1259.33" font-family="Helvetica,sans-Serif" font-size="14.00">PostureBreak &#160;</text>
<polygon fill="none" stroke="black" points="45.38,-1232.12 45.38,-1253.88 140.62,-1253.88 140.62,-1232.12 45.38,-1232.12"/>
<text text-anchor="start" x="48.38" y="-1238.58" font-family="Helvetica,sans-Serif" font-size="12.00" fill="#838b8b">3.00s: Done</text>
<text text-anchor="start" x="112.88" y="-1238.58" font-family="Helvetica,sans-Serif" font-size="14.00"> &#160;</text>
</g>
<!-- PostureBreak&#45;&gt;PreAttack -->
<g id="edge28" class="edge">
<title>PostureBreak&#45;&gt;PreAttack</title>
<path fill="none" stroke="#cdc8b1" d="M148.48,-1261.43C193.23,-1267.63 256,-1276.33 298.8,-1282.26"/>
<polygon fill="#cdc8b1" stroke="#cdc8b1" points="298.15,-1285.71 308.54,-1283.61 299.11,-1278.77 298.15,-1285.71"/>
</g>
<!-- RollThrough -->
<g id="node32" class="node">
<title>RollThrough</title>
<polygon fill="none" stroke="black" points="392.25,-602.88 302.75,-602.88 302.75,-566.88 392.25,-566.88 392.25,-602.88"/>
<text text-anchor="middle" x="347.5" y="-579.45" font-family="Helvetica,sans-Serif" font-size="14.00">RollThrough</text>
</g>
<!-- RollThrough&#45;&gt;Engaging -->
<g id="edge29" class="edge">
<title>RollThrough&#45;&gt;Engaging</title>
<path fill="none" stroke="#cdc8b1" d="M392.41,-596.59C425.42,-605.4 470.54,-617.44 504.2,-626.42"/>
<polygon fill="#cdc8b1" stroke="#cdc8b1" points="503.11,-629.75 513.68,-628.95 504.92,-622.99 503.11,-629.75"/>
</g>
<!-- StandUp -->
<g id="node33" class="node">
<title>StandUp</title>
<polygon fill="none" stroke="black" points="381.75,-548.88 313.25,-548.88 313.25,-512.88 381.75,-512.88 381.75,-548.88"/>
<text text-anchor="middle" x="347.5" y="-525.45" font-family="Helvetica,sans-Serif" font-size="14.00">StandUp</text>
</g>
<!-- StandUp&#45;&gt;Engaging -->
<g id="edge30" class="edge">
<title>StandUp&#45;&gt;Engaging</title>
<path fill="none" stroke="#cdc8b1" d="M382.12,-541.15C395.37,-545.66 410.54,-551.4 423.75,-557.88 456.73,-574.05 491.76,-596.84 516.68,-614.13"/>
<polygon fill="#cdc8b1" stroke="#cdc8b1" points="514.61,-616.94 524.8,-619.82 518.63,-611.21 514.61,-616.94"/>
</g>
<!-- ZEnterState -->
<g id="node34" class="node">
<title>ZEnterState</title>
<polygon fill="none" stroke="black" points="391.5,-764.88 303.5,-764.88 303.5,-728.88 391.5,-728.88 391.5,-764.88"/>
<text text-anchor="middle" x="347.5" y="-741.45" font-family="Helvetica,sans-Serif" font-size="14.00">ZEnterState</text>
</g>
<!-- ZEnterState&#45;&gt;Engaging -->
<g id="edge31" class="edge">
<title>ZEnterState&#45;&gt;Engaging</title>
<path fill="none" stroke="#cdc8b1" d="M391.77,-733.21C402.42,-729.35 413.66,-724.82 423.75,-719.88 456.73,-703.7 491.76,-680.91 516.68,-663.62"/>
<polygon fill="#cdc8b1" stroke="#cdc8b1" points="518.63,-666.54 524.8,-657.93 514.61,-660.81 518.63,-666.54"/>
</g>
<!-- ZExitState -->
<g id="node35" class="node">
<title>ZExitState</title>
<polygon fill="none" stroke="black" points="132.12,-764.88 53.88,-764.88 53.88,-728.88 132.12,-728.88 132.12,-764.88"/>
<text text-anchor="middle" x="93" y="-741.45" font-family="Helvetica,sans-Serif" font-size="14.00">ZExitState</text>
</g>
<!-- ZExitState&#45;&gt;ZEnterState -->
<g id="edge32" class="edge">
<title>ZExitState&#45;&gt;ZEnterState</title>
<path fill="none" stroke="#cdc8b1" d="M132.62,-746.88C175.12,-746.88 243.77,-746.88 291.79,-746.88"/>
<polygon fill="#cdc8b1" stroke="#cdc8b1" points="291.71,-750.38 301.71,-746.88 291.71,-743.38 291.71,-750.38"/>
</g>
<!-- Wandering_Idle -->
<g id="node36" class="node">
<title>Wandering_Idle</title>
<polygon fill="none" stroke="black" points="163.62,-1473.88 22.38,-1473.88 22.38,-1437.88 163.62,-1437.88 163.62,-1473.88"/>
<text text-anchor="middle" x="93" y="-1450.45" font-family="Helvetica,sans-Serif" font-size="14.00">Wandering_Idle (Init)</text>
</g>
<!-- Level Once Sensor -->
<g id="node37" class="node">
<title>Level Once Sensor</title>
<polygon fill="none" stroke="black" points="158.75,-1528.88 27.25,-1528.88 27.25,-1492.88 158.75,-1492.88 158.75,-1528.88"/>
<text text-anchor="middle" x="93" y="-1505.45" font-family="Helvetica,sans-Serif" font-size="14.00">Level Once Sensor</text>
</g>
<!-- Level Once Sensor_linked -->
<g id="node38" class="node">
<title>Level Once Sensor_linked</title>
<polygon fill="none" stroke="black" stroke-dasharray="1,5" points="403.35,-1526.88 291.65,-1526.88 291.65,-1490.88 403.35,-1490.88 403.35,-1526.88"/>
<text text-anchor="start" x="297.25" y="-1503.45" font-family="Helvetica,sans-Serif" font-size="14.00">Attack_Prepare &#160;</text>
</g>
<!-- Level Once Sensor&#45;&gt;Level Once Sensor_linked -->
<g id="edge33" class="edge">
<title>Level Once Sensor&#45;&gt;Level Once Sensor_linked</title>
<path fill="none" stroke="#66cdaa" d="M159.03,-1510.36C196.24,-1510.07 242.81,-1509.7 280.23,-1509.4"/>
<polygon fill="#66cdaa" stroke="#66cdaa" points="280.04,-1512.9 290.01,-1509.32 279.98,-1505.9 280.04,-1512.9"/>
<text text-anchor="middle" x="220.62" y="-1512.56" font-family="Helvetica,sans-Serif" font-size="14.00" fill="#66cdaa">QueueEnd</text>
</g>
<!-- Level Once Sensor_mustuse -->
<g id="node39" class="node">
<title>Level Once Sensor_mustuse</title>
<polygon fill="none" stroke="black" stroke-dasharray="1,5" points="397.62,-1580.88 297.38,-1580.88 297.38,-1544.88 397.62,-1544.88 397.62,-1580.88"/>
<text text-anchor="start" x="307.38" y="-1557.45" font-family="Helvetica,sans-Serif" font-size="14.00">1 Undefined &#160;</text>
</g>
<!-- Level Once Sensor&#45;&gt;Level Once Sensor_mustuse -->
<g id="edge34" class="edge">
<title>Level Once Sensor&#45;&gt;Level Once Sensor_mustuse</title>
<path fill="none" stroke="#458b74" d="M159.03,-1524.27C198.26,-1532.35 247.9,-1542.57 286.24,-1550.47"/>
<polygon fill="#458b74" stroke="#458b74" points="285.26,-1553.84 295.76,-1552.43 286.68,-1546.98 285.26,-1553.84"/>
<text text-anchor="middle" x="220.62" y="-1545.51" font-family="Helvetica,sans-Serif" font-size="14.00" fill="#458b74">Weight</text>
</g>
<!-- RunAwaySensor -->
<g id="node40" class="node">
<title>RunAwaySensor</title>
<polygon fill="none" stroke="black" points="151.25,-1583.88 34.75,-1583.88 34.75,-1547.88 151.25,-1547.88 151.25,-1583.88"/>
<text text-anchor="middle" x="93" y="-1560.45" font-family="Helvetica,sans-Serif" font-size="14.00">RunAwaySensor</text>
</g>
<!-- AttackSensor -->
<g id="node41" class="node">
<title>AttackSensor</title>
<polygon fill="none" stroke="black" points="141.12,-1639.88 44.88,-1639.88 44.88,-1603.88 141.12,-1603.88 141.12,-1639.88"/>
<text text-anchor="middle" x="93" y="-1616.45" font-family="Helvetica,sans-Serif" font-size="14.00">AttackSensor</text>
</g>
<!-- AttackSensor_linked -->
<g id="node42" class="node">
<title>AttackSensor_linked</title>
<polygon fill="none" stroke="black" stroke-dasharray="1,5" points="403.35,-1634.88 291.65,-1634.88 291.65,-1598.88 403.35,-1598.88 403.35,-1634.88"/>
<text text-anchor="start" x="297.25" y="-1611.45" font-family="Helvetica,sans-Serif" font-size="14.00">Attack_Prepare &#160;</text>
</g>
<!-- AttackSensor&#45;&gt;AttackSensor_linked -->
<g id="edge35" class="edge">
<title>AttackSensor&#45;&gt;AttackSensor_linked</title>
<path fill="none" stroke="#66cdaa" d="M141.49,-1620.93C180.57,-1620.16 236.41,-1619.05 279.95,-1618.19"/>
<polygon fill="#66cdaa" stroke="#66cdaa" points="279.87,-1621.7 289.79,-1618 279.73,-1614.7 279.87,-1621.7"/>
<text text-anchor="middle" x="220.62" y="-1622.42" font-family="Helvetica,sans-Serif" font-size="14.00" fill="#66cdaa">QueueEnd</text>
</g>
<!-- AttackSensor_mustuse -->
<g id="node43" class="node">
<title>AttackSensor_mustuse</title>
<polygon fill="none" stroke="black" stroke-dasharray="1,5" points="397.62,-1688.88 297.38,-1688.88 297.38,-1652.88 397.62,-1652.88 397.62,-1688.88"/>
<text text-anchor="start" x="307.38" y="-1665.45" font-family="Helvetica,sans-Serif" font-size="14.00">1 Undefined &#160;</text>
</g>
<!-- AttackSensor&#45;&gt;AttackSensor_mustuse -->
<g id="edge36" class="edge">
<title>AttackSensor&#45;&gt;AttackSensor_mustuse</title>
<path fill="none" stroke="#458b74" d="M141.49,-1631.09C182.36,-1639.02 241.57,-1650.51 285.86,-1659.11"/>
<polygon fill="#458b74" stroke="#458b74" points="285.09,-1662.52 295.58,-1660.99 286.43,-1655.65 285.09,-1662.52"/>
<text text-anchor="middle" x="220.62" y="-1654.65" font-family="Helvetica,sans-Serif" font-size="14.00" fill="#458b74">Weight</text>
</g>
<!-- DodgePredictSensor -->
<g id="node44" class="node">
<title>DodgePredictSensor</title>
<polygon fill="none" stroke="black" points="24,-1684.88 24,-1706.62 162,-1706.62 162,-1684.88 24,-1684.88"/>
<text text-anchor="start" x="27" y="-1690.33" font-family="Helvetica,sans-Serif" font-size="14.00">DodgePredictSensor &#160;</text>
<polygon fill="none" stroke="black" points="24,-1663.12 24,-1684.88 162,-1684.88 162,-1663.12 24,-1663.12"/>
<text text-anchor="start" x="27" y="-1669.58" font-family="Helvetica,sans-Serif" font-size="12.00" fill="#838b8b">if: Dodge</text>
<text text-anchor="start" x="75" y="-1669.58" font-family="Helvetica,sans-Serif" font-size="14.00"> &#160;</text>
</g>
<!-- DodgePredictSensor_linked -->
<g id="node45" class="node">
<title>DodgePredictSensor_linked</title>
<polygon fill="none" stroke="black" stroke-dasharray="1,5" points="403.35,-1742.88 291.65,-1742.88 291.65,-1706.88 403.35,-1706.88 403.35,-1742.88"/>
<text text-anchor="start" x="297.25" y="-1719.45" font-family="Helvetica,sans-Serif" font-size="14.00">Attack_Prepare &#160;</text>
</g>
<!-- DodgePredictSensor&#45;&gt;DodgePredictSensor_linked -->
<g id="edge37" class="edge">
<title>DodgePredictSensor&#45;&gt;DodgePredictSensor_linked</title>
<path fill="none" stroke="#66cdaa" d="M169.76,-1696.88C204.87,-1702.44 246.21,-1708.99 280.08,-1714.35"/>
<polygon fill="#66cdaa" stroke="#66cdaa" points="279.34,-1717.78 289.77,-1715.89 280.44,-1710.87 279.34,-1717.78"/>
<text text-anchor="middle" x="220.62" y="-1712.08" font-family="Helvetica,sans-Serif" font-size="14.00" fill="#66cdaa">QueueEnd</text>
</g>
<!-- AttackPredictSensor -->
<g id="node46" class="node">
<title>AttackPredictSensor</title>
<polygon fill="none" stroke="black" points="25.12,-1754.88 25.12,-1776.62 160.88,-1776.62 160.88,-1754.88 25.12,-1754.88"/>
<text text-anchor="start" x="28.12" y="-1760.33" font-family="Helvetica,sans-Serif" font-size="14.00">AttackPredictSensor &#160;</text>
<polygon fill="none" stroke="black" points="25.12,-1733.12 25.12,-1754.88 160.88,-1754.88 160.88,-1733.12 25.12,-1733.12"/>
<text text-anchor="start" x="28.12" y="-1739.58" font-family="Helvetica,sans-Serif" font-size="12.00" fill="#838b8b">if: Attack</text>
<text text-anchor="start" x="73.12" y="-1739.58" font-family="Helvetica,sans-Serif" font-size="14.00"> &#160;</text>
</g>
<!-- AttackPredictSensor_linked -->
<g id="node47" class="node">
<title>AttackPredictSensor_linked</title>
<polygon fill="none" stroke="black" stroke-dasharray="1,5" points="403.35,-1796.88 291.65,-1796.88 291.65,-1760.88 403.35,-1760.88 403.35,-1796.88"/>
<text text-anchor="start" x="297.25" y="-1773.45" font-family="Helvetica,sans-Serif" font-size="14.00">Attack_Prepare &#160;</text>
</g>
<!-- AttackPredictSensor&#45;&gt;AttackPredictSensor_linked -->
<g id="edge38" class="edge">
<title>AttackPredictSensor&#45;&gt;AttackPredictSensor_linked</title>
<path fill="none" stroke="#66cdaa" d="M168.73,-1761.98C204.01,-1765.33 245.76,-1769.3 279.94,-1772.55"/>
<polygon fill="#66cdaa" stroke="#66cdaa" points="279.42,-1776.02 289.71,-1773.48 280.09,-1769.05 279.42,-1776.02"/>
<text text-anchor="middle" x="220.62" y="-1772.18" font-family="Helvetica,sans-Serif" font-size="14.00" fill="#66cdaa">QueueEnd</text>
</g>
<!-- AttackRunToSensor -->
<g id="node48" class="node">
<title>AttackRunToSensor</title>
<polygon fill="none" stroke="black" points="26.62,-1824.88 26.62,-1846.62 159.38,-1846.62 159.38,-1824.88 26.62,-1824.88"/>
<text text-anchor="start" x="29.62" y="-1830.33" font-family="Helvetica,sans-Serif" font-size="14.00">AttackRunToSensor &#160;</text>
<polygon fill="none" stroke="black" points="26.62,-1803.12 26.62,-1824.88 159.38,-1824.88 159.38,-1803.12 26.62,-1803.12"/>
<text text-anchor="start" x="29.62" y="-1809.58" font-family="Helvetica,sans-Serif" font-size="12.00" fill="#838b8b">if: state is Engaging</text>
<text text-anchor="start" x="133.88" y="-1809.58" font-family="Helvetica,sans-Serif" font-size="14.00"> &#160;</text>
</g>
<!-- AttackRunToSensor_linked -->
<g id="node49" class="node">
<title>AttackRunToSensor_linked</title>
<polygon fill="none" stroke="black" stroke-dasharray="1,5" points="403.35,-1850.88 291.65,-1850.88 291.65,-1814.88 403.35,-1814.88 403.35,-1850.88"/>
<text text-anchor="start" x="297.25" y="-1827.45" font-family="Helvetica,sans-Serif" font-size="14.00">Attack_Prepare &#160;</text>
</g>
<!-- AttackRunToSensor&#45;&gt;AttackRunToSensor_linked -->
<g id="edge39" class="edge">
<title>AttackRunToSensor&#45;&gt;AttackRunToSensor_linked</title>
<path fill="none" stroke="#66cdaa" d="M167.37,-1827.2C202.96,-1828.33 245.38,-1829.67 280.01,-1830.77"/>
<polygon fill="#66cdaa" stroke="#66cdaa" points="279.81,-1834.26 289.92,-1831.08 280.03,-1827.27 279.81,-1834.26"/>
<text text-anchor="middle" x="220.62" y="-1832.28" font-family="Helvetica,sans-Serif" font-size="14.00" fill="#66cdaa">QueueEnd</text>
</g>
</g>
</svg>
