<?xml version="1.0" encoding="UTF-8" standalone="no"?>
<!DOCTYPE svg PUBLIC "-//W3C//DTD SVG 1.1//EN"
 "http://www.w3.org/Graphics/SVG/1.1/DTD/svg11.dtd">
<!-- Generated by graphviz version 12.2.1 (20241206.2353)
 -->
<!-- Title: Foo Pages: 1 -->
<svg width="383pt" height="960pt"
 viewBox="0.00 0.00 382.95 960.00" xmlns="http://www.w3.org/2000/svg" xmlns:xlink="http://www.w3.org/1999/xlink">
<g id="graph0" class="graph" transform="scale(1 1) rotate(0) translate(4 956)">
<title>Foo</title>
<polygon fill="white" stroke="none" points="-4,4 -4,-956 378.95,-956 378.95,4 -4,4"/>
<g id="clust1" class="cluster">
<title>cluster_attacksensors</title>
<polygon fill="none" stroke="black" points="8,-8 8,-456 366.95,-456 366.95,-8 8,-8"/>
<text text-anchor="middle" x="187.47" y="-438.7" font-family="Helvetica,sans-Serif" font-size="14.00">Attack Sensors</text>
</g>
<!-- Level Once Sensor -->
<g id="node1" class="node">
<title>Level Once Sensor</title>
<polygon fill="none" stroke="black" points="28.5,-23.12 28.5,-44.88 157.5,-44.88 157.5,-23.12 28.5,-23.12"/>
<text text-anchor="start" x="31.5" y="-28.57" font-family="Helvetica,sans-Serif" font-size="14.00">Level Once Sensor &#160;</text>
</g>
<!-- Level Once Sensor_linked -->
<g id="node2" class="node">
<title>Level Once Sensor_linked</title>
<polygon fill="none" stroke="black" stroke-dasharray="1,5" points="343.2,-52 287,-52 287,-16 343.2,-16 343.2,-52"/>
<text text-anchor="start" x="292.6" y="-28.57" font-family="Helvetica,sans-Serif" font-size="14.00">Attack &#160;</text>
</g>
<!-- Level Once Sensor&#45;&gt;Level Once Sensor_linked -->
<g id="edge1" class="edge">
<title>Level Once Sensor&#45;&gt;Level Once Sensor_linked</title>
<path fill="none" stroke="#66cdaa" d="M165.46,-34C201.92,-34 244.84,-34 275.17,-34"/>
<polygon fill="#66cdaa" stroke="#66cdaa" points="275.02,-37.5 285.02,-34 275.02,-30.5 275.02,-37.5"/>
<text text-anchor="middle" x="220.62" y="-36.45" font-family="Helvetica,sans-Serif" font-size="14.00" fill="#66cdaa">QueueEnd</text>
</g>
<!-- Level Once Sensor_weight -->
<g id="node3" class="node">
<title>Level Once Sensor_weight</title>
<polygon fill="none" stroke="black" stroke-dasharray="1,5" points="352.85,-106 277.35,-106 277.35,-70 352.85,-70 352.85,-106"/>
<text text-anchor="start" x="287.35" y="-82.58" font-family="Helvetica,sans-Serif" font-size="14.00">1 Attack &#160;</text>
</g>
<!-- Level Once Sensor&#45;&gt;Level Once Sensor_weight -->
<g id="edge2" class="edge">
<title>Level Once Sensor&#45;&gt;Level Once Sensor_weight</title>
<path fill="none" stroke="#458b74" d="M165.46,-51.53C198.41,-59.62 236.64,-68.99 266.07,-76.22"/>
<polygon fill="#458b74" stroke="#458b74" points="264.88,-79.53 275.43,-78.51 266.55,-72.73 264.88,-79.53"/>
<text text-anchor="middle" x="220.62" y="-74.49" font-family="Helvetica,sans-Serif" font-size="14.00" fill="#458b74">Weight</text>
</g>
<!-- RunAwaySensor -->
<g id="node4" class="node">
<title>RunAwaySensor</title>
<polygon fill="none" stroke="black" points="36,-77.12 36,-98.88 150,-98.88 150,-77.12 36,-77.12"/>
<text text-anchor="start" x="39" y="-82.58" font-family="Helvetica,sans-Serif" font-size="14.00">RunAwaySensor &#160;</text>
</g>
<!-- AttackSensor -->
<g id="node5" class="node">
<title>AttackSensor</title>
<polygon fill="none" stroke="black" points="46.12,-131.12 46.12,-152.88 139.88,-152.88 139.88,-131.12 46.12,-131.12"/>
<text text-anchor="start" x="49.12" y="-136.57" font-family="Helvetica,sans-Serif" font-size="14.00">AttackSensor &#160;</text>
</g>
<!-- AttackSensor_linked -->
<g id="node6" class="node">
<title>AttackSensor_linked</title>
<polygon fill="none" stroke="black" stroke-dasharray="1,5" points="343.2,-160 287,-160 287,-124 343.2,-124 343.2,-160"/>
<text text-anchor="start" x="292.6" y="-136.57" font-family="Helvetica,sans-Serif" font-size="14.00">Attack &#160;</text>
</g>
<!-- AttackSensor&#45;&gt;AttackSensor_linked -->
<g id="edge3" class="edge">
<title>AttackSensor&#45;&gt;AttackSensor_linked</title>
<path fill="none" stroke="#66cdaa" d="M147.84,-142C187.29,-142 239.91,-142 275.29,-142"/>
<polygon fill="#66cdaa" stroke="#66cdaa" points="275.08,-145.5 285.08,-142 275.08,-138.5 275.08,-145.5"/>
<text text-anchor="middle" x="220.62" y="-144.45" font-family="Helvetica,sans-Serif" font-size="14.00" fill="#66cdaa">QueueEnd</text>
</g>
<!-- DodgePredictSensor -->
<g id="node7" class="node">
<title>DodgePredictSensor</title>
<polygon fill="none" stroke="black" points="24,-204 24,-225.75 162,-225.75 162,-204 24,-204"/>
<text text-anchor="start" x="27" y="-209.45" font-family="Helvetica,sans-Serif" font-size="14.00">DodgePredictSensor &#160;</text>
<polygon fill="none" stroke="black" points="24,-182.25 24,-204 162,-204 162,-182.25 24,-182.25"/>
<text text-anchor="start" x="27" y="-188.7" font-family="Helvetica,sans-Serif" font-size="12.00" fill="#838b8b">if: rollingCondition</text>
<text text-anchor="start" x="123.75" y="-188.7" font-family="Helvetica,sans-Serif" font-size="14.00"> &#160;</text>
</g>
<!-- DodgePredictSensor_linked -->
<g id="node8" class="node">
<title>DodgePredictSensor_linked</title>
<polygon fill="none" stroke="black" stroke-dasharray="1,5" points="343.2,-222 287,-222 287,-186 343.2,-186 343.2,-222"/>
<text text-anchor="start" x="292.6" y="-198.57" font-family="Helvetica,sans-Serif" font-size="14.00">Attack &#160;</text>
</g>
<!-- DodgePredictSensor&#45;&gt;DodgePredictSensor_linked -->
<g id="edge4" class="edge">
<title>DodgePredictSensor&#45;&gt;DodgePredictSensor_linked</title>
<path fill="none" stroke="#66cdaa" d="M169.75,-204C205.27,-204 246.08,-204 275.23,-204"/>
<polygon fill="#66cdaa" stroke="#66cdaa" points="275.06,-207.5 285.06,-204 275.06,-200.5 275.06,-207.5"/>
<text text-anchor="middle" x="220.62" y="-206.45" font-family="Helvetica,sans-Serif" font-size="14.00" fill="#66cdaa">QueueEnd</text>
</g>
<!-- AttackPredictSensor -->
<g id="node9" class="node">
<title>AttackPredictSensor</title>
<polygon fill="none" stroke="black" points="25.12,-274 25.12,-295.75 160.88,-295.75 160.88,-274 25.12,-274"/>
<text text-anchor="start" x="28.12" y="-279.45" font-family="Helvetica,sans-Serif" font-size="14.00">AttackPredictSensor &#160;</text>
<polygon fill="none" stroke="black" points="25.12,-252.25 25.12,-274 160.88,-274 160.88,-252.25 25.12,-252.25"/>
<text text-anchor="start" x="28.12" y="-258.7" font-family="Helvetica,sans-Serif" font-size="12.00" fill="#838b8b">if: attackCondition</text>
<text text-anchor="start" x="123.38" y="-258.7" font-family="Helvetica,sans-Serif" font-size="14.00"> &#160;</text>
</g>
<!-- AttackPredictSensor_linked -->
<g id="node10" class="node">
<title>AttackPredictSensor_linked</title>
<polygon fill="none" stroke="black" stroke-dasharray="1,5" points="343.2,-292 287,-292 287,-256 343.2,-256 343.2,-292"/>
<text text-anchor="start" x="292.6" y="-268.57" font-family="Helvetica,sans-Serif" font-size="14.00">Attack &#160;</text>
</g>
<!-- AttackPredictSensor&#45;&gt;AttackPredictSensor_linked -->
<g id="edge5" class="edge">
<title>AttackPredictSensor&#45;&gt;AttackPredictSensor_linked</title>
<path fill="none" stroke="#66cdaa" d="M168.82,-274C204.53,-274 245.77,-274 275.17,-274"/>
<polygon fill="#66cdaa" stroke="#66cdaa" points="275.08,-277.5 285.08,-274 275.08,-270.5 275.08,-277.5"/>
<text text-anchor="middle" x="220.62" y="-276.45" font-family="Helvetica,sans-Serif" font-size="14.00" fill="#66cdaa">QueueEnd</text>
</g>
<!-- AttackRunToSensor -->
<g id="node11" class="node">
<title>AttackRunToSensor</title>
<polygon fill="none" stroke="black" points="26.62,-344 26.62,-365.75 159.38,-365.75 159.38,-344 26.62,-344"/>
<text text-anchor="start" x="29.62" y="-349.45" font-family="Helvetica,sans-Serif" font-size="14.00">AttackRunToSensor &#160;</text>
<polygon fill="none" stroke="black" points="26.62,-322.25 26.62,-344 159.38,-344 159.38,-322.25 26.62,-322.25"/>
<text text-anchor="start" x="29.62" y="-328.7" font-family="Helvetica,sans-Serif" font-size="12.00" fill="#838b8b">if: state is Engaging</text>
<text text-anchor="start" x="133.88" y="-328.7" font-family="Helvetica,sans-Serif" font-size="14.00"> &#160;</text>
</g>
<!-- AttackRunToSensor_linked -->
<g id="node12" class="node">
<title>AttackRunToSensor_linked</title>
<polygon fill="none" stroke="black" stroke-dasharray="1,5" points="343.2,-362 287,-362 287,-326 343.2,-326 343.2,-362"/>
<text text-anchor="start" x="292.6" y="-338.57" font-family="Helvetica,sans-Serif" font-size="14.00">Attack &#160;</text>
</g>
<!-- AttackRunToSensor&#45;&gt;AttackRunToSensor_linked -->
<g id="edge6" class="edge">
<title>AttackRunToSensor&#45;&gt;AttackRunToSensor_linked</title>
<path fill="none" stroke="#66cdaa" d="M167.29,-344C203.5,-344 245.71,-344 275.55,-344"/>
<polygon fill="#66cdaa" stroke="#66cdaa" points="275.22,-347.5 285.22,-344 275.22,-340.5 275.22,-347.5"/>
<text text-anchor="middle" x="220.62" y="-346.45" font-family="Helvetica,sans-Serif" font-size="14.00" fill="#66cdaa">QueueEnd</text>
</g>
<!-- JumpAttackSensor -->
<g id="node13" class="node">
<title>JumpAttackSensor</title>
<polygon fill="none" stroke="black" points="29.25,-395.12 29.25,-416.88 156.75,-416.88 156.75,-395.12 29.25,-395.12"/>
<text text-anchor="start" x="32.25" y="-400.57" font-family="Helvetica,sans-Serif" font-size="14.00">JumpAttackSensor &#160;</text>
</g>
<!-- JumpAttackSensor_linked -->
<g id="node14" class="node">
<title>JumpAttackSensor_linked</title>
<polygon fill="none" stroke="black" stroke-dasharray="1,5" points="358.95,-424 271.25,-424 271.25,-388 358.95,-388 358.95,-424"/>
<text text-anchor="start" x="276.85" y="-400.57" font-family="Helvetica,sans-Serif" font-size="14.00">DashAttack &#160;</text>
</g>
<!-- JumpAttackSensor&#45;&gt;JumpAttackSensor_linked -->
<g id="edge7" class="edge">
<title>JumpAttackSensor&#45;&gt;JumpAttackSensor_linked</title>
<path fill="none" stroke="#66cdaa" d="M164.55,-406C195.27,-406 230.73,-406 259.41,-406"/>
<polygon fill="#66cdaa" stroke="#66cdaa" points="259.33,-409.5 269.33,-406 259.33,-402.5 259.33,-409.5"/>
<text text-anchor="middle" x="220.62" y="-408.45" font-family="Helvetica,sans-Serif" font-size="14.00" fill="#66cdaa">QueueEnd</text>
</g>
<!-- Attack -->
<g id="node15" class="node">
<title>Attack</title>
<polygon fill="none" stroke="black" points="24.75,-662.12 24.75,-683.88 161.25,-683.88 161.25,-662.12 24.75,-662.12"/>
<text text-anchor="start" x="70.5" y="-667.58" font-family="Helvetica,sans-Serif" font-size="14.00">Attack &#160;</text>
<polygon fill="none" stroke="black" points="24.75,-630.12 24.75,-662.12 161.25,-662.12 161.25,-630.12 24.75,-630.12"/>
<text text-anchor="start" x="27.75" y="-648.73" font-family="Helvetica,sans-Serif" font-size="12.00" fill="#838b8b">0.83s: LinkMoveInterrupt</text>
<text text-anchor="start" x="27.75" y="-634.83" font-family="Helvetica,sans-Serif" font-size="12.00" fill="#838b8b">1.43s: Done</text>
<text text-anchor="start" x="92.25" y="-634.83" font-family="Helvetica,sans-Serif" font-size="14.00"> &#160;</text>
</g>
<!-- Engaging -->
<g id="node16" class="node">
<title>Engaging</title>
<polygon fill="none" stroke="black" points="351.6,-600 278.6,-600 278.6,-564 351.6,-564 351.6,-600"/>
<text text-anchor="middle" x="315.1" y="-576.58" font-family="Helvetica,sans-Serif" font-size="14.00">Engaging</text>
</g>
<!-- Attack&#45;&gt;Engaging -->
<g id="edge8" class="edge">
<title>Attack&#45;&gt;Engaging</title>
<path fill="none" stroke="#cdc8b1" d="M169.13,-631.4C201.67,-620.31 238.76,-607.67 267.28,-597.96"/>
<polygon fill="#cdc8b1" stroke="#cdc8b1" points="268.38,-601.28 276.71,-594.74 266.12,-594.65 268.38,-601.28"/>
</g>
<!-- Explode -->
<g id="node17" class="node">
<title>Explode</title>
<polygon fill="none" stroke="black" points="54,-872 54,-893.75 132,-893.75 132,-872 54,-872"/>
<text text-anchor="start" x="64.88" y="-877.45" font-family="Helvetica,sans-Serif" font-size="14.00">Explode &#160;</text>
<polygon fill="none" stroke="black" points="54,-850.25 54,-872 132,-872 132,-850.25 54,-850.25"/>
<text text-anchor="start" x="57" y="-856.7" font-family="Helvetica,sans-Serif" font-size="12.00" fill="#838b8b">0.17s: Done</text>
<text text-anchor="start" x="121.5" y="-856.7" font-family="Helvetica,sans-Serif" font-size="14.00"> &#160;</text>
</g>
<!-- DeadState -->
<g id="node18" class="node">
<title>DeadState</title>
<polygon fill="none" stroke="black" points="354.97,-820 275.22,-820 275.22,-784 354.97,-784 354.97,-820"/>
<text text-anchor="middle" x="315.1" y="-796.58" font-family="Helvetica,sans-Serif" font-size="14.00">DeadState</text>
</g>
<!-- Explode&#45;&gt;DeadState -->
<g id="edge9" class="edge">
<title>Explode&#45;&gt;DeadState</title>
<path fill="none" stroke="#cdc8b1" d="M139.87,-857.41C176.22,-845.85 226.93,-829.72 264.27,-817.85"/>
<polygon fill="#cdc8b1" stroke="#cdc8b1" points="265,-821.29 273.47,-814.92 262.88,-814.62 265,-821.29"/>
</g>
<!-- DashAttack -->
<g id="node19" class="node">
<title>DashAttack</title>
<polygon fill="none" stroke="black" points="51.75,-582 51.75,-603.75 134.25,-603.75 134.25,-582 51.75,-582"/>
<text text-anchor="start" x="54.75" y="-587.45" font-family="Helvetica,sans-Serif" font-size="14.00">DashAttack &#160;</text>
<polygon fill="none" stroke="black" points="51.75,-560.25 51.75,-582 134.25,-582 134.25,-560.25 51.75,-560.25"/>
<text text-anchor="start" x="54.75" y="-566.7" font-family="Helvetica,sans-Serif" font-size="12.00" fill="#838b8b">1.33s: Done</text>
<text text-anchor="start" x="119.25" y="-566.7" font-family="Helvetica,sans-Serif" font-size="14.00"> &#160;</text>
</g>
<!-- DashAttack&#45;&gt;Engaging -->
<g id="edge10" class="edge">
<title>DashAttack&#45;&gt;Engaging</title>
<path fill="none" stroke="#cdc8b1" d="M142.03,-582C179.01,-582 229.86,-582 266.69,-582"/>
<polygon fill="#cdc8b1" stroke="#cdc8b1" points="266.6,-585.5 276.6,-582 266.6,-578.5 266.6,-585.5"/>
</g>
<!-- AttackParrying -->
<g id="node20" class="node">
<title>AttackParrying</title>
<polygon fill="none" stroke="black" points="33,-512.12 33,-533.88 153,-533.88 153,-512.12 33,-512.12"/>
<text text-anchor="start" x="45.38" y="-517.58" font-family="Helvetica,sans-Serif" font-size="14.00">AttackParrying &#160;</text>
<polygon fill="none" stroke="black" points="33,-468.12 33,-512.12 153,-512.12 153,-468.12 33,-468.12"/>
<text text-anchor="start" x="36" y="-498.73" font-family="Helvetica,sans-Serif" font-size="12.00" fill="#838b8b">0.02s: DisableGravity</text>
<text text-anchor="start" x="36" y="-486.73" font-family="Helvetica,sans-Serif" font-size="12.00" fill="#838b8b">0.25s: EnableGravity</text>
<text text-anchor="start" x="36" y="-472.83" font-family="Helvetica,sans-Serif" font-size="12.00" fill="#838b8b">0.42s: Done</text>
<text text-anchor="start" x="100.5" y="-472.83" font-family="Helvetica,sans-Serif" font-size="14.00"> &#160;</text>
</g>
<!-- AttackParrying&#45;&gt;Engaging -->
<g id="edge11" class="edge">
<title>AttackParrying&#45;&gt;Engaging</title>
<path fill="none" stroke="#cdc8b1" d="M160.93,-525.63C195.44,-538.33 236.66,-553.5 267.65,-564.9"/>
<polygon fill="#cdc8b1" stroke="#cdc8b1" points="266.14,-568.08 276.73,-568.25 268.56,-561.51 266.14,-568.08"/>
</g>
<!-- HurtState -->
<g id="node21" class="node">
<title>HurtState</title>
<polygon fill="none" stroke="black" points="54,-802 54,-823.75 132,-823.75 132,-802 54,-802"/>
<text text-anchor="start" x="60.75" y="-807.45" font-family="Helvetica,sans-Serif" font-size="14.00">HurtState &#160;</text>
<polygon fill="none" stroke="black" points="54,-780.25 54,-802 132,-802 132,-780.25 54,-780.25"/>
<text text-anchor="start" x="57" y="-786.7" font-family="Helvetica,sans-Serif" font-size="12.00" fill="#838b8b">0.08s: Done</text>
<text text-anchor="start" x="121.5" y="-786.7" font-family="Helvetica,sans-Serif" font-size="14.00"> &#160;</text>
</g>
<!-- HurtState&#45;&gt;DeadState -->
<g id="edge12" class="edge">
<title>HurtState&#45;&gt;DeadState</title>
<path fill="none" stroke="#cdc8b1" d="M139.87,-802C176.07,-802 226.5,-802 263.79,-802"/>
<polygon fill="#cdc8b1" stroke="#cdc8b1" points="263.4,-805.5 273.4,-802 263.4,-798.5 263.4,-805.5"/>
</g>
<!-- Hurt_BigState -->
<g id="node22" class="node">
<title>Hurt_BigState</title>
<polygon fill="none" stroke="black" points="44.25,-732 44.25,-753.75 141.75,-753.75 141.75,-732 44.25,-732"/>
<text text-anchor="start" x="47.25" y="-737.45" font-family="Helvetica,sans-Serif" font-size="14.00">Hurt_BigState &#160;</text>
<polygon fill="none" stroke="black" points="44.25,-710.25 44.25,-732 141.75,-732 141.75,-710.25 44.25,-710.25"/>
<text text-anchor="start" x="47.25" y="-716.7" font-family="Helvetica,sans-Serif" font-size="12.00" fill="#838b8b">0.08s: Done</text>
<text text-anchor="start" x="111.75" y="-716.7" font-family="Helvetica,sans-Serif" font-size="14.00"> &#160;</text>
</g>
<!-- Hurt_BigState&#45;&gt;DeadState -->
<g id="edge13" class="edge">
<title>Hurt_BigState&#45;&gt;DeadState</title>
<path fill="none" stroke="#cdc8b1" d="M149.54,-749.66C184.82,-760.88 230.1,-775.28 264.22,-786.14"/>
<polygon fill="#cdc8b1" stroke="#cdc8b1" points="262.85,-789.37 273.44,-789.07 264.97,-782.7 262.85,-789.37"/>
</g>
<!-- Wandering_Idle -->
<g id="node23" class="node">
<title>Wandering_Idle</title>
<polygon fill="none" stroke="black" points="163.62,-952 22.38,-952 22.38,-916 163.62,-916 163.62,-952"/>
<text text-anchor="middle" x="93" y="-928.58" font-family="Helvetica,sans-Serif" font-size="14.00">Wandering_Idle (Init)</text>
</g>
</g>
</svg>
