<?xml version="1.0" encoding="UTF-8" standalone="no"?>
<!DOCTYPE svg PUBLIC "-//W3C//DTD SVG 1.1//EN"
 "http://www.w3.org/Graphics/SVG/1.1/DTD/svg11.dtd">
<!-- Generated by graphviz version 12.2.1 (20241206.2353)
 -->
<!-- Title: Foo Pages: 1 -->
<svg width="383pt" height="962pt"
 viewBox="0.00 0.00 382.95 961.88" xmlns="http://www.w3.org/2000/svg" xmlns:xlink="http://www.w3.org/1999/xlink">
<g id="graph0" class="graph" transform="scale(1 1) rotate(0) translate(4 957.88)">
<title>Foo</title>
<polygon fill="white" stroke="none" points="-4,4 -4,-957.88 378.95,-957.88 378.95,4 -4,4"/>
<g id="clust1" class="cluster">
<title>cluster_attacksensors</title>
<polygon fill="none" stroke="black" points="8,-497.88 8,-945.88 366.95,-945.88 366.95,-497.88 8,-497.88"/>
<text text-anchor="middle" x="187.47" y="-928.58" font-family="Helvetica,sans-Serif" font-size="14.00">Attack Sensors</text>
</g>
<!-- Attack -->
<g id="node1" class="node">
<title>Attack</title>
<polygon fill="none" stroke="black" points="24.75,-198 24.75,-219.75 161.25,-219.75 161.25,-198 24.75,-198"/>
<text text-anchor="start" x="70.5" y="-203.45" font-family="Helvetica,sans-Serif" font-size="14.00">Attack &#160;</text>
<polygon fill="none" stroke="black" points="24.75,-166 24.75,-198 161.25,-198 161.25,-166 24.75,-166"/>
<text text-anchor="start" x="27.75" y="-184.6" font-family="Helvetica,sans-Serif" font-size="12.00" fill="#838b8b">0.83s: LinkMoveInterrupt</text>
<text text-anchor="start" x="27.75" y="-170.7" font-family="Helvetica,sans-Serif" font-size="12.00" fill="#838b8b">1.43s: Done</text>
<text text-anchor="start" x="92.25" y="-170.7" font-family="Helvetica,sans-Serif" font-size="14.00"> &#160;</text>
</g>
<!-- Engaging -->
<g id="node2" class="node">
<title>Engaging</title>
<polygon fill="none" stroke="black" points="351.6,-135.88 278.6,-135.88 278.6,-99.88 351.6,-99.88 351.6,-135.88"/>
<text text-anchor="middle" x="315.1" y="-112.45" font-family="Helvetica,sans-Serif" font-size="14.00">Engaging</text>
</g>
<!-- Attack&#45;&gt;Engaging -->
<g id="edge1" class="edge">
<title>Attack&#45;&gt;Engaging</title>
<path fill="none" stroke="#cdc8b1" d="M169.13,-167.27C201.67,-156.19 238.76,-143.55 267.28,-133.83"/>
<polygon fill="#cdc8b1" stroke="#cdc8b1" points="268.38,-137.15 276.71,-130.61 266.12,-130.53 268.38,-137.15"/>
</g>
<!-- Explode -->
<g id="node3" class="node">
<title>Explode</title>
<polygon fill="none" stroke="black" points="54,-407.88 54,-429.62 132,-429.62 132,-407.88 54,-407.88"/>
<text text-anchor="start" x="64.88" y="-413.32" font-family="Helvetica,sans-Serif" font-size="14.00">Explode &#160;</text>
<polygon fill="none" stroke="black" points="54,-386.12 54,-407.88 132,-407.88 132,-386.12 54,-386.12"/>
<text text-anchor="start" x="57" y="-392.57" font-family="Helvetica,sans-Serif" font-size="12.00" fill="#838b8b">0.17s: Done</text>
<text text-anchor="start" x="121.5" y="-392.57" font-family="Helvetica,sans-Serif" font-size="14.00"> &#160;</text>
</g>
<!-- DeadState -->
<g id="node4" class="node">
<title>DeadState</title>
<polygon fill="none" stroke="black" points="354.97,-355.88 275.22,-355.88 275.22,-319.88 354.97,-319.88 354.97,-355.88"/>
<text text-anchor="middle" x="315.1" y="-332.45" font-family="Helvetica,sans-Serif" font-size="14.00">DeadState</text>
</g>
<!-- Explode&#45;&gt;DeadState -->
<g id="edge2" class="edge">
<title>Explode&#45;&gt;DeadState</title>
<path fill="none" stroke="#cdc8b1" d="M139.87,-393.29C176.22,-381.73 226.93,-365.6 264.27,-353.72"/>
<polygon fill="#cdc8b1" stroke="#cdc8b1" points="265,-357.16 273.47,-350.8 262.88,-350.49 265,-357.16"/>
</g>
<!-- DashAttack -->
<g id="node5" class="node">
<title>DashAttack</title>
<polygon fill="none" stroke="black" points="51.75,-117.88 51.75,-139.62 134.25,-139.62 134.25,-117.88 51.75,-117.88"/>
<text text-anchor="start" x="54.75" y="-123.33" font-family="Helvetica,sans-Serif" font-size="14.00">DashAttack &#160;</text>
<polygon fill="none" stroke="black" points="51.75,-96.12 51.75,-117.88 134.25,-117.88 134.25,-96.12 51.75,-96.12"/>
<text text-anchor="start" x="54.75" y="-102.58" font-family="Helvetica,sans-Serif" font-size="12.00" fill="#838b8b">1.33s: Done</text>
<text text-anchor="start" x="119.25" y="-102.58" font-family="Helvetica,sans-Serif" font-size="14.00"> &#160;</text>
</g>
<!-- DashAttack&#45;&gt;Engaging -->
<g id="edge3" class="edge">
<title>DashAttack&#45;&gt;Engaging</title>
<path fill="none" stroke="#cdc8b1" d="M142.03,-117.88C179.01,-117.88 229.86,-117.88 266.69,-117.88"/>
<polygon fill="#cdc8b1" stroke="#cdc8b1" points="266.6,-121.38 276.6,-117.88 266.6,-114.38 266.6,-121.38"/>
</g>
<!-- AttackParrying -->
<g id="node6" class="node">
<title>AttackParrying</title>
<polygon fill="none" stroke="black" points="33,-48 33,-69.75 153,-69.75 153,-48 33,-48"/>
<text text-anchor="start" x="45.38" y="-53.45" font-family="Helvetica,sans-Serif" font-size="14.00">AttackParrying &#160;</text>
<polygon fill="none" stroke="black" points="33,-4 33,-48 153,-48 153,-4 33,-4"/>
<text text-anchor="start" x="36" y="-34.6" font-family="Helvetica,sans-Serif" font-size="12.00" fill="#838b8b">0.02s: DisableGravity</text>
<text text-anchor="start" x="36" y="-22.6" font-family="Helvetica,sans-Serif" font-size="12.00" fill="#838b8b">0.25s: EnableGravity</text>
<text text-anchor="start" x="36" y="-8.7" font-family="Helvetica,sans-Serif" font-size="12.00" fill="#838b8b">0.42s: Done</text>
<text text-anchor="start" x="100.5" y="-8.7" font-family="Helvetica,sans-Serif" font-size="14.00"> &#160;</text>
</g>
<!-- AttackParrying&#45;&gt;Engaging -->
<g id="edge4" class="edge">
<title>AttackParrying&#45;&gt;Engaging</title>
<path fill="none" stroke="#cdc8b1" d="M160.93,-61.51C195.44,-74.21 236.66,-89.38 267.65,-100.78"/>
<polygon fill="#cdc8b1" stroke="#cdc8b1" points="266.14,-103.95 276.73,-104.12 268.56,-97.38 266.14,-103.95"/>
</g>
<!-- HurtState -->
<g id="node7" class="node">
<title>HurtState</title>
<polygon fill="none" stroke="black" points="54,-337.88 54,-359.62 132,-359.62 132,-337.88 54,-337.88"/>
<text text-anchor="start" x="60.75" y="-343.32" font-family="Helvetica,sans-Serif" font-size="14.00">HurtState &#160;</text>
<polygon fill="none" stroke="black" points="54,-316.12 54,-337.88 132,-337.88 132,-316.12 54,-316.12"/>
<text text-anchor="start" x="57" y="-322.57" font-family="Helvetica,sans-Serif" font-size="12.00" fill="#838b8b">0.08s: Done</text>
<text text-anchor="start" x="121.5" y="-322.57" font-family="Helvetica,sans-Serif" font-size="14.00"> &#160;</text>
</g>
<!-- HurtState&#45;&gt;DeadState -->
<g id="edge5" class="edge">
<title>HurtState&#45;&gt;DeadState</title>
<path fill="none" stroke="#cdc8b1" d="M139.87,-337.88C176.07,-337.88 226.5,-337.88 263.79,-337.88"/>
<polygon fill="#cdc8b1" stroke="#cdc8b1" points="263.4,-341.38 273.4,-337.88 263.4,-334.38 263.4,-341.38"/>
</g>
<!-- Hurt_BigState -->
<g id="node8" class="node">
<title>Hurt_BigState</title>
<polygon fill="none" stroke="black" points="44.25,-267.88 44.25,-289.62 141.75,-289.62 141.75,-267.88 44.25,-267.88"/>
<text text-anchor="start" x="47.25" y="-273.32" font-family="Helvetica,sans-Serif" font-size="14.00">Hurt_BigState &#160;</text>
<polygon fill="none" stroke="black" points="44.25,-246.12 44.25,-267.88 141.75,-267.88 141.75,-246.12 44.25,-246.12"/>
<text text-anchor="start" x="47.25" y="-252.57" font-family="Helvetica,sans-Serif" font-size="12.00" fill="#838b8b">0.08s: Done</text>
<text text-anchor="start" x="111.75" y="-252.57" font-family="Helvetica,sans-Serif" font-size="14.00"> &#160;</text>
</g>
<!-- Hurt_BigState&#45;&gt;DeadState -->
<g id="edge6" class="edge">
<title>Hurt_BigState&#45;&gt;DeadState</title>
<path fill="none" stroke="#cdc8b1" d="M149.54,-285.54C184.82,-296.76 230.1,-311.16 264.22,-322.01"/>
<polygon fill="#cdc8b1" stroke="#cdc8b1" points="262.85,-325.25 273.44,-324.94 264.97,-318.58 262.85,-325.25"/>
</g>
<!-- Wandering_Idle -->
<g id="node9" class="node">
<title>Wandering_Idle</title>
<polygon fill="none" stroke="black" points="163.62,-487.88 22.38,-487.88 22.38,-451.88 163.62,-451.88 163.62,-487.88"/>
<text text-anchor="middle" x="93" y="-464.45" font-family="Helvetica,sans-Serif" font-size="14.00">Wandering_Idle (Init)</text>
</g>
<!-- Level Once Sensor -->
<g id="node10" class="node">
<title>Level Once Sensor</title>
<polygon fill="none" stroke="black" points="158.75,-541.88 27.25,-541.88 27.25,-505.88 158.75,-505.88 158.75,-541.88"/>
<text text-anchor="middle" x="93" y="-518.45" font-family="Helvetica,sans-Serif" font-size="14.00">Level Once Sensor</text>
</g>
<!-- Level Once Sensor_linked -->
<g id="node11" class="node">
<title>Level Once Sensor_linked</title>
<polygon fill="none" stroke="black" stroke-dasharray="1,5" points="343.2,-541.88 287,-541.88 287,-505.88 343.2,-505.88 343.2,-541.88"/>
<text text-anchor="start" x="292.6" y="-518.45" font-family="Helvetica,sans-Serif" font-size="14.00">Attack &#160;</text>
</g>
<!-- Level Once Sensor&#45;&gt;Level Once Sensor_linked -->
<g id="edge7" class="edge">
<title>Level Once Sensor&#45;&gt;Level Once Sensor_linked</title>
<path fill="none" stroke="#66cdaa" d="M159.14,-523.88C196.96,-523.88 243.33,-523.88 275.43,-523.88"/>
<polygon fill="#66cdaa" stroke="#66cdaa" points="275.06,-527.38 285.06,-523.88 275.06,-520.38 275.06,-527.38"/>
<text text-anchor="middle" x="220.62" y="-526.33" font-family="Helvetica,sans-Serif" font-size="14.00" fill="#66cdaa">QueueEnd</text>
</g>
<!-- RunAwaySensor -->
<g id="node12" class="node">
<title>RunAwaySensor</title>
<polygon fill="none" stroke="black" points="151.25,-595.88 34.75,-595.88 34.75,-559.88 151.25,-559.88 151.25,-595.88"/>
<text text-anchor="middle" x="93" y="-572.45" font-family="Helvetica,sans-Serif" font-size="14.00">RunAwaySensor</text>
</g>
<!-- AttackSensor -->
<g id="node13" class="node">
<title>AttackSensor</title>
<polygon fill="none" stroke="black" points="141.12,-649.88 44.88,-649.88 44.88,-613.88 141.12,-613.88 141.12,-649.88"/>
<text text-anchor="middle" x="93" y="-626.45" font-family="Helvetica,sans-Serif" font-size="14.00">AttackSensor</text>
</g>
<!-- AttackSensor_linked -->
<g id="node14" class="node">
<title>AttackSensor_linked</title>
<polygon fill="none" stroke="black" stroke-dasharray="1,5" points="343.2,-649.88 287,-649.88 287,-613.88 343.2,-613.88 343.2,-649.88"/>
<text text-anchor="start" x="292.6" y="-626.45" font-family="Helvetica,sans-Serif" font-size="14.00">Attack &#160;</text>
</g>
<!-- AttackSensor&#45;&gt;AttackSensor_linked -->
<g id="edge8" class="edge">
<title>AttackSensor&#45;&gt;AttackSensor_linked</title>
<path fill="none" stroke="#66cdaa" d="M141.49,-631.88C181.51,-631.88 238.07,-631.88 275.39,-631.88"/>
<polygon fill="#66cdaa" stroke="#66cdaa" points="275.27,-635.38 285.27,-631.88 275.27,-628.38 275.27,-635.38"/>
<text text-anchor="middle" x="220.62" y="-634.33" font-family="Helvetica,sans-Serif" font-size="14.00" fill="#66cdaa">QueueEnd</text>
</g>
<!-- DodgePredictSensor -->
<g id="node15" class="node">
<title>DodgePredictSensor</title>
<polygon fill="none" stroke="black" points="24,-693.88 24,-715.62 162,-715.62 162,-693.88 24,-693.88"/>
<text text-anchor="start" x="27" y="-699.33" font-family="Helvetica,sans-Serif" font-size="14.00">DodgePredictSensor &#160;</text>
<polygon fill="none" stroke="black" points="24,-672.12 24,-693.88 162,-693.88 162,-672.12 24,-672.12"/>
<text text-anchor="start" x="27" y="-678.58" font-family="Helvetica,sans-Serif" font-size="12.00" fill="#838b8b">if: Dodge</text>
<text text-anchor="start" x="75" y="-678.58" font-family="Helvetica,sans-Serif" font-size="14.00"> &#160;</text>
</g>
<!-- DodgePredictSensor_linked -->
<g id="node16" class="node">
<title>DodgePredictSensor_linked</title>
<polygon fill="none" stroke="black" stroke-dasharray="1,5" points="343.2,-711.88 287,-711.88 287,-675.88 343.2,-675.88 343.2,-711.88"/>
<text text-anchor="start" x="292.6" y="-688.45" font-family="Helvetica,sans-Serif" font-size="14.00">Attack &#160;</text>
</g>
<!-- DodgePredictSensor&#45;&gt;DodgePredictSensor_linked -->
<g id="edge9" class="edge">
<title>DodgePredictSensor&#45;&gt;DodgePredictSensor_linked</title>
<path fill="none" stroke="#66cdaa" d="M169.75,-693.88C205.27,-693.88 246.08,-693.88 275.23,-693.88"/>
<polygon fill="#66cdaa" stroke="#66cdaa" points="275.06,-697.38 285.06,-693.88 275.06,-690.38 275.06,-697.38"/>
<text text-anchor="middle" x="220.62" y="-696.33" font-family="Helvetica,sans-Serif" font-size="14.00" fill="#66cdaa">QueueEnd</text>
</g>
<!-- AttackPredictSensor -->
<g id="node17" class="node">
<title>AttackPredictSensor</title>
<polygon fill="none" stroke="black" points="25.12,-763.88 25.12,-785.62 160.88,-785.62 160.88,-763.88 25.12,-763.88"/>
<text text-anchor="start" x="28.12" y="-769.33" font-family="Helvetica,sans-Serif" font-size="14.00">AttackPredictSensor &#160;</text>
<polygon fill="none" stroke="black" points="25.12,-742.12 25.12,-763.88 160.88,-763.88 160.88,-742.12 25.12,-742.12"/>
<text text-anchor="start" x="28.12" y="-748.58" font-family="Helvetica,sans-Serif" font-size="12.00" fill="#838b8b">if: Attack</text>
<text text-anchor="start" x="73.12" y="-748.58" font-family="Helvetica,sans-Serif" font-size="14.00"> &#160;</text>
</g>
<!-- AttackPredictSensor_linked -->
<g id="node18" class="node">
<title>AttackPredictSensor_linked</title>
<polygon fill="none" stroke="black" stroke-dasharray="1,5" points="343.2,-781.88 287,-781.88 287,-745.88 343.2,-745.88 343.2,-781.88"/>
<text text-anchor="start" x="292.6" y="-758.45" font-family="Helvetica,sans-Serif" font-size="14.00">Attack &#160;</text>
</g>
<!-- AttackPredictSensor&#45;&gt;AttackPredictSensor_linked -->
<g id="edge10" class="edge">
<title>AttackPredictSensor&#45;&gt;AttackPredictSensor_linked</title>
<path fill="none" stroke="#66cdaa" d="M168.82,-763.88C204.53,-763.88 245.77,-763.88 275.17,-763.88"/>
<polygon fill="#66cdaa" stroke="#66cdaa" points="275.08,-767.38 285.08,-763.88 275.08,-760.38 275.08,-767.38"/>
<text text-anchor="middle" x="220.62" y="-766.33" font-family="Helvetica,sans-Serif" font-size="14.00" fill="#66cdaa">QueueEnd</text>
</g>
<!-- AttackRunToSensor -->
<g id="node19" class="node">
<title>AttackRunToSensor</title>
<polygon fill="none" stroke="black" points="26.62,-833.88 26.62,-855.62 159.38,-855.62 159.38,-833.88 26.62,-833.88"/>
<text text-anchor="start" x="29.62" y="-839.33" font-family="Helvetica,sans-Serif" font-size="14.00">AttackRunToSensor &#160;</text>
<polygon fill="none" stroke="black" points="26.62,-812.12 26.62,-833.88 159.38,-833.88 159.38,-812.12 26.62,-812.12"/>
<text text-anchor="start" x="29.62" y="-818.58" font-family="Helvetica,sans-Serif" font-size="12.00" fill="#838b8b">if: state is Engaging</text>
<text text-anchor="start" x="133.88" y="-818.58" font-family="Helvetica,sans-Serif" font-size="14.00"> &#160;</text>
</g>
<!-- AttackRunToSensor_linked -->
<g id="node20" class="node">
<title>AttackRunToSensor_linked</title>
<polygon fill="none" stroke="black" stroke-dasharray="1,5" points="343.2,-851.88 287,-851.88 287,-815.88 343.2,-815.88 343.2,-851.88"/>
<text text-anchor="start" x="292.6" y="-828.45" font-family="Helvetica,sans-Serif" font-size="14.00">Attack &#160;</text>
</g>
<!-- AttackRunToSensor&#45;&gt;AttackRunToSensor_linked -->
<g id="edge11" class="edge">
<title>AttackRunToSensor&#45;&gt;AttackRunToSensor_linked</title>
<path fill="none" stroke="#66cdaa" d="M167.29,-833.88C203.5,-833.88 245.71,-833.88 275.55,-833.88"/>
<polygon fill="#66cdaa" stroke="#66cdaa" points="275.22,-837.38 285.22,-833.88 275.22,-830.38 275.22,-837.38"/>
<text text-anchor="middle" x="220.62" y="-836.33" font-family="Helvetica,sans-Serif" font-size="14.00" fill="#66cdaa">QueueEnd</text>
</g>
<!-- JumpAttackSensor -->
<g id="node21" class="node">
<title>JumpAttackSensor</title>
<polygon fill="none" stroke="black" points="158,-913.88 28,-913.88 28,-877.88 158,-877.88 158,-913.88"/>
<text text-anchor="middle" x="93" y="-890.45" font-family="Helvetica,sans-Serif" font-size="14.00">JumpAttackSensor</text>
</g>
<!-- JumpAttackSensor_linked -->
<g id="node22" class="node">
<title>JumpAttackSensor_linked</title>
<polygon fill="none" stroke="black" stroke-dasharray="1,5" points="358.95,-913.88 271.25,-913.88 271.25,-877.88 358.95,-877.88 358.95,-913.88"/>
<text text-anchor="start" x="276.85" y="-890.45" font-family="Helvetica,sans-Serif" font-size="14.00">DashAttack &#160;</text>
</g>
<!-- JumpAttackSensor&#45;&gt;JumpAttackSensor_linked -->
<g id="edge12" class="edge">
<title>JumpAttackSensor&#45;&gt;JumpAttackSensor_linked</title>
<path fill="none" stroke="#66cdaa" d="M158.25,-895.88C190.43,-895.88 228.97,-895.88 259.67,-895.88"/>
<polygon fill="#66cdaa" stroke="#66cdaa" points="259.51,-899.38 269.51,-895.88 259.51,-892.38 259.51,-899.38"/>
<text text-anchor="middle" x="220.62" y="-898.33" font-family="Helvetica,sans-Serif" font-size="14.00" fill="#66cdaa">QueueEnd</text>
</g>
</g>
</svg>
