<?xml version="1.0" encoding="UTF-8" standalone="no"?>
<!DOCTYPE svg PUBLIC "-//W3C//DTD SVG 1.1//EN"
 "http://www.w3.org/Graphics/SVG/1.1/DTD/svg11.dtd">
<!-- Generated by graphviz version 12.2.1 (20241206.2353)
 -->
<!-- Title: Foo Pages: 1 -->
<svg width="518pt" height="1012pt"
 viewBox="0.00 0.00 517.75 1012.00" xmlns="http://www.w3.org/2000/svg" xmlns:xlink="http://www.w3.org/1999/xlink">
<g id="graph0" class="graph" transform="scale(1 1) rotate(0) translate(4 1008)">
<title>Foo</title>
<polygon fill="white" stroke="none" points="-4,4 -4,-1008 513.75,-1008 513.75,4 -4,4"/>
<g id="clust1" class="cluster">
<title>cluster_attacksensors</title>
<polygon fill="none" stroke="black" points="8,-602 8,-996 393.62,-996 393.62,-602 8,-602"/>
<text text-anchor="middle" x="200.81" y="-978.7" font-family="Helvetica,sans-Serif" font-size="14.00">Attack Sensors</text>
</g>
<!-- Attack -->
<g id="node1" class="node">
<title>Attack</title>
<polygon fill="none" stroke="black" points="296.5,-404 296.5,-425.75 374.5,-425.75 374.5,-404 296.5,-404"/>
<text text-anchor="start" x="313" y="-409.45" font-family="Helvetica,sans-Serif" font-size="14.00">Attack &#160;</text>
<polygon fill="none" stroke="black" points="296.5,-382.25 296.5,-404 374.5,-404 374.5,-382.25 296.5,-382.25"/>
<text text-anchor="start" x="299.5" y="-388.7" font-family="Helvetica,sans-Serif" font-size="12.00" fill="#838b8b">2.00s: Done</text>
<text text-anchor="start" x="364" y="-388.7" font-family="Helvetica,sans-Serif" font-size="14.00"> &#160;</text>
</g>
<!-- Engaging -->
<g id="node2" class="node">
<title>Engaging</title>
<polygon fill="none" stroke="black" points="509.75,-214 436.75,-214 436.75,-178 509.75,-178 509.75,-214"/>
<text text-anchor="middle" x="473.25" y="-190.57" font-family="Helvetica,sans-Serif" font-size="14.00">Engaging</text>
</g>
<!-- Attack&#45;&gt;Engaging -->
<g id="edge1" class="edge">
<title>Attack&#45;&gt;Engaging</title>
<path fill="none" stroke="#cdc8b1" d="M382.44,-383.51C388.78,-379.34 394.81,-374.51 399.75,-369 437.42,-327 457.31,-262.61 466.23,-225.38"/>
<polygon fill="#cdc8b1" stroke="#cdc8b1" points="469.61,-226.31 468.41,-215.78 462.78,-224.75 469.61,-226.31"/>
</g>
<!-- FooAttached -->
<g id="node3" class="node">
<title>FooAttached</title>
<polygon fill="none" stroke="black" points="279.25,-334.12 279.25,-355.88 391.75,-355.88 391.75,-334.12 279.25,-334.12"/>
<text text-anchor="start" x="293.5" y="-339.57" font-family="Helvetica,sans-Serif" font-size="14.00">FooAttached &#160;</text>
<polygon fill="none" stroke="black" points="279.25,-290.12 279.25,-334.12 391.75,-334.12 391.75,-290.12 279.25,-290.12"/>
<text text-anchor="start" x="282.25" y="-320.73" font-family="Helvetica,sans-Serif" font-size="12.00" fill="#838b8b">2.00s: CheckFacing</text>
<text text-anchor="start" x="282.25" y="-308.73" font-family="Helvetica,sans-Serif" font-size="12.00" fill="#838b8b">3.00s: Done</text>
<text text-anchor="start" x="282.25" y="-294.83" font-family="Helvetica,sans-Serif" font-size="12.00" fill="#838b8b">8.50s: Done</text>
<text text-anchor="start" x="346.75" y="-294.83" font-family="Helvetica,sans-Serif" font-size="14.00"> &#160;</text>
</g>
<!-- FooAttached&#45;&gt;Engaging -->
<g id="edge2" class="edge">
<title>FooAttached&#45;&gt;Engaging</title>
<path fill="none" stroke="#cdc8b1" d="M388.97,-286.2C392.69,-283.18 396.32,-280.09 399.75,-277 418.18,-260.35 436.83,-239.4 450.59,-222.99"/>
<polygon fill="#cdc8b1" stroke="#cdc8b1" points="453.06,-225.49 456.74,-215.55 447.67,-221.03 453.06,-225.49"/>
</g>
<!-- AttackParrying -->
<g id="node4" class="node">
<title>AttackParrying</title>
<polygon fill="none" stroke="black" points="387.38,-268 283.62,-268 283.62,-232 387.38,-232 387.38,-268"/>
<text text-anchor="middle" x="335.5" y="-244.57" font-family="Helvetica,sans-Serif" font-size="14.00">AttackParrying</text>
</g>
<!-- AttackParrying&#45;&gt;Engaging -->
<g id="edge3" class="edge">
<title>AttackParrying&#45;&gt;Engaging</title>
<path fill="none" stroke="#cdc8b1" d="M382.84,-231.57C396.79,-226.02 412.1,-219.93 426.05,-214.38"/>
<polygon fill="#cdc8b1" stroke="#cdc8b1" points="427,-217.77 435,-210.82 424.41,-211.26 427,-217.77"/>
</g>
<!-- HurtState -->
<g id="node5" class="node">
<title>HurtState</title>
<polygon fill="none" stroke="black" points="129.5,-538 56.5,-538 56.5,-502 129.5,-502 129.5,-538"/>
<text text-anchor="middle" x="93" y="-514.58" font-family="Helvetica,sans-Serif" font-size="14.00">HurtState</text>
</g>
<!-- PreAttack -->
<g id="node6" class="node">
<title>PreAttack</title>
<polygon fill="none" stroke="black" points="372.75,-484 298.25,-484 298.25,-448 372.75,-448 372.75,-484"/>
<text text-anchor="middle" x="335.5" y="-460.57" font-family="Helvetica,sans-Serif" font-size="14.00">PreAttack</text>
</g>
<!-- HurtState&#45;&gt;PreAttack -->
<g id="edge4" class="edge">
<title>HurtState&#45;&gt;PreAttack</title>
<path fill="none" stroke="#cdc8b1" d="M129.75,-511.97C171.45,-502.61 240.58,-487.09 286.82,-476.7"/>
<polygon fill="#cdc8b1" stroke="#cdc8b1" points="287.3,-480.18 296.29,-474.58 285.77,-473.35 287.3,-480.18"/>
</g>
<!-- Hurt_BigState -->
<g id="node7" class="node">
<title>Hurt_BigState</title>
<polygon fill="none" stroke="black" points="143,-484 43,-484 43,-448 143,-448 143,-484"/>
<text text-anchor="middle" x="93" y="-460.57" font-family="Helvetica,sans-Serif" font-size="14.00">Hurt_BigState</text>
</g>
<!-- Hurt_BigState&#45;&gt;PreAttack -->
<g id="edge5" class="edge">
<title>Hurt_BigState&#45;&gt;PreAttack</title>
<path fill="none" stroke="#cdc8b1" d="M143.25,-466C185.11,-466 244.87,-466 286.4,-466"/>
<polygon fill="#cdc8b1" stroke="#cdc8b1" points="286.36,-469.5 296.36,-466 286.36,-462.5 286.36,-469.5"/>
</g>
<!-- JumpBack -->
<g id="node8" class="node">
<title>JumpBack</title>
<polygon fill="none" stroke="black" points="375.38,-214 295.62,-214 295.62,-178 375.38,-178 375.38,-214"/>
<text text-anchor="middle" x="335.5" y="-190.57" font-family="Helvetica,sans-Serif" font-size="14.00">JumpBack</text>
</g>
<!-- JumpBack&#45;&gt;Engaging -->
<g id="edge6" class="edge">
<title>JumpBack&#45;&gt;Engaging</title>
<path fill="none" stroke="#cdc8b1" d="M375.76,-196C391.14,-196 408.91,-196 424.98,-196"/>
<polygon fill="#cdc8b1" stroke="#cdc8b1" points="424.81,-199.5 434.81,-196 424.81,-192.5 424.81,-199.5"/>
</g>
<!-- PostureBreak -->
<g id="node9" class="node">
<title>PostureBreak</title>
<polygon fill="none" stroke="black" points="141.88,-430 44.12,-430 44.12,-394 141.88,-394 141.88,-430"/>
<text text-anchor="middle" x="93" y="-406.57" font-family="Helvetica,sans-Serif" font-size="14.00">PostureBreak</text>
</g>
<!-- PostureBreak&#45;&gt;PreAttack -->
<g id="edge7" class="edge">
<title>PostureBreak&#45;&gt;PreAttack</title>
<path fill="none" stroke="#cdc8b1" d="M142.09,-422.8C184.16,-432.24 244.91,-445.89 286.85,-455.3"/>
<polygon fill="#cdc8b1" stroke="#cdc8b1" points="285.88,-458.67 296.4,-457.45 287.41,-451.84 285.88,-458.67"/>
</g>
<!-- RollThrough -->
<g id="node10" class="node">
<title>RollThrough</title>
<polygon fill="none" stroke="black" points="380.25,-160 290.75,-160 290.75,-124 380.25,-124 380.25,-160"/>
<text text-anchor="middle" x="335.5" y="-136.57" font-family="Helvetica,sans-Serif" font-size="14.00">RollThrough</text>
</g>
<!-- RollThrough&#45;&gt;Engaging -->
<g id="edge8" class="edge">
<title>RollThrough&#45;&gt;Engaging</title>
<path fill="none" stroke="#cdc8b1" d="M380.57,-159.53C395.15,-165.33 411.41,-171.8 426.13,-177.66"/>
<polygon fill="#cdc8b1" stroke="#cdc8b1" points="424.55,-180.79 435.13,-181.24 427.14,-174.29 424.55,-180.79"/>
</g>
<!-- StandUp -->
<g id="node11" class="node">
<title>StandUp</title>
<polygon fill="none" stroke="black" points="296.5,-80 296.5,-101.75 374.5,-101.75 374.5,-80 296.5,-80"/>
<text text-anchor="start" x="305.5" y="-85.45" font-family="Helvetica,sans-Serif" font-size="14.00">StandUp &#160;</text>
<polygon fill="none" stroke="black" points="296.5,-58.25 296.5,-80 374.5,-80 374.5,-58.25 296.5,-58.25"/>
<text text-anchor="start" x="299.5" y="-64.7" font-family="Helvetica,sans-Serif" font-size="12.00" fill="#838b8b">0.67s: Done</text>
<text text-anchor="start" x="364" y="-64.7" font-family="Helvetica,sans-Serif" font-size="14.00"> &#160;</text>
</g>
<!-- StandUp&#45;&gt;Engaging -->
<g id="edge9" class="edge">
<title>StandUp&#45;&gt;Engaging</title>
<path fill="none" stroke="#cdc8b1" d="M382.26,-102.89C388.36,-106.63 394.35,-110.7 399.75,-115 419.42,-130.68 438.27,-152 451.81,-168.83"/>
<polygon fill="#cdc8b1" stroke="#cdc8b1" points="448.89,-170.77 457.82,-176.46 454.39,-166.44 448.89,-170.77"/>
</g>
<!-- ZEnterState -->
<g id="node12" class="node">
<title>ZEnterState</title>
<polygon fill="none" stroke="black" points="379.5,-36 291.5,-36 291.5,0 379.5,0 379.5,-36"/>
<text text-anchor="middle" x="335.5" y="-12.57" font-family="Helvetica,sans-Serif" font-size="14.00">ZEnterState</text>
</g>
<!-- ZEnterState&#45;&gt;Engaging -->
<g id="edge10" class="edge">
<title>ZEnterState&#45;&gt;Engaging</title>
<path fill="none" stroke="#cdc8b1" d="M379.9,-31.54C387.09,-35.12 394.06,-39.55 399.75,-45 435.09,-78.81 455.28,-133.36 464.98,-166.81"/>
<polygon fill="#cdc8b1" stroke="#cdc8b1" points="461.55,-167.53 467.58,-176.24 468.3,-165.67 461.55,-167.53"/>
</g>
<!-- ZExitState -->
<g id="node13" class="node">
<title>ZExitState</title>
<polygon fill="none" stroke="black" points="132.12,-36 53.88,-36 53.88,0 132.12,0 132.12,-36"/>
<text text-anchor="middle" x="93" y="-12.57" font-family="Helvetica,sans-Serif" font-size="14.00">ZExitState</text>
</g>
<!-- ZExitState&#45;&gt;ZEnterState -->
<g id="edge11" class="edge">
<title>ZExitState&#45;&gt;ZEnterState</title>
<path fill="none" stroke="#cdc8b1" d="M132.37,-18C172.27,-18 235.06,-18 280.06,-18"/>
<polygon fill="#cdc8b1" stroke="#cdc8b1" points="279.87,-21.5 289.87,-18 279.87,-14.5 279.87,-21.5"/>
</g>
<!-- Seat -->
<g id="node14" class="node">
<title>Seat</title>
<polygon fill="none" stroke="black" points="130.25,-592 55.75,-592 55.75,-556 130.25,-556 130.25,-592"/>
<text text-anchor="middle" x="93" y="-568.58" font-family="Helvetica,sans-Serif" font-size="14.00">Seat (Init)</text>
</g>
<!-- Level Once Sensor -->
<g id="node15" class="node">
<title>Level Once Sensor</title>
<polygon fill="none" stroke="black" points="158.75,-646 27.25,-646 27.25,-610 158.75,-610 158.75,-646"/>
<text text-anchor="middle" x="93" y="-622.58" font-family="Helvetica,sans-Serif" font-size="14.00">Level Once Sensor</text>
</g>
<!-- Level Once Sensor_linked -->
<g id="node16" class="node">
<title>Level Once Sensor_linked</title>
<polygon fill="none" stroke="black" stroke-dasharray="1,5" points="363.6,-646 307.4,-646 307.4,-610 363.6,-610 363.6,-646"/>
<text text-anchor="start" x="313" y="-622.58" font-family="Helvetica,sans-Serif" font-size="14.00">Attack &#160;</text>
</g>
<!-- Level Once Sensor&#45;&gt;Level Once Sensor_linked -->
<g id="edge12" class="edge">
<title>Level Once Sensor&#45;&gt;Level Once Sensor_linked</title>
<path fill="none" stroke="#66cdaa" d="M159.08,-628C202.77,-628 258.85,-628 295.69,-628"/>
<polygon fill="#66cdaa" stroke="#66cdaa" points="295.42,-631.5 305.42,-628 295.42,-624.5 295.42,-631.5"/>
<text text-anchor="middle" x="220.62" y="-630.45" font-family="Helvetica,sans-Serif" font-size="14.00" fill="#66cdaa">QueueEnd</text>
</g>
<!-- Level Once Sensor_mustuse -->
<g id="node17" class="node">
<title>Level Once Sensor_mustuse</title>
<polygon fill="none" stroke="black" stroke-dasharray="1,5" points="385.62,-700 285.38,-700 285.38,-664 385.62,-664 385.62,-700"/>
<text text-anchor="start" x="295.38" y="-676.58" font-family="Helvetica,sans-Serif" font-size="14.00">1 Undefined &#160;</text>
</g>
<!-- Level Once Sensor&#45;&gt;Level Once Sensor_mustuse -->
<g id="edge13" class="edge">
<title>Level Once Sensor&#45;&gt;Level Once Sensor_mustuse</title>
<path fill="none" stroke="#458b74" d="M159.08,-642.61C194.86,-650.65 238.95,-660.55 273.98,-668.41"/>
<polygon fill="#458b74" stroke="#458b74" points="273.01,-671.78 283.53,-670.56 274.54,-664.95 273.01,-671.78"/>
<text text-anchor="middle" x="220.62" y="-665.44" font-family="Helvetica,sans-Serif" font-size="14.00" fill="#458b74">Weight</text>
</g>
<!-- RunAwaySensor -->
<g id="node18" class="node">
<title>RunAwaySensor</title>
<polygon fill="none" stroke="black" points="151.25,-700 34.75,-700 34.75,-664 151.25,-664 151.25,-700"/>
<text text-anchor="middle" x="93" y="-676.58" font-family="Helvetica,sans-Serif" font-size="14.00">RunAwaySensor</text>
</g>
<!-- AttackSensor -->
<g id="node19" class="node">
<title>AttackSensor</title>
<polygon fill="none" stroke="black" points="141.12,-754 44.88,-754 44.88,-718 141.12,-718 141.12,-754"/>
<text text-anchor="middle" x="93" y="-730.58" font-family="Helvetica,sans-Serif" font-size="14.00">AttackSensor</text>
</g>
<!-- AttackSensor_linked -->
<g id="node20" class="node">
<title>AttackSensor_linked</title>
<polygon fill="none" stroke="black" stroke-dasharray="1,5" points="363.6,-754 307.4,-754 307.4,-718 363.6,-718 363.6,-754"/>
<text text-anchor="start" x="313" y="-730.58" font-family="Helvetica,sans-Serif" font-size="14.00">Attack &#160;</text>
</g>
<!-- AttackSensor&#45;&gt;AttackSensor_linked -->
<g id="edge14" class="edge">
<title>AttackSensor&#45;&gt;AttackSensor_linked</title>
<path fill="none" stroke="#66cdaa" d="M141.52,-736C186.59,-736 253.51,-736 295.53,-736"/>
<polygon fill="#66cdaa" stroke="#66cdaa" points="295.43,-739.5 305.43,-736 295.43,-732.5 295.43,-739.5"/>
<text text-anchor="middle" x="220.62" y="-738.45" font-family="Helvetica,sans-Serif" font-size="14.00" fill="#66cdaa">QueueEnd</text>
</g>
<!-- DodgePredictSensor -->
<g id="node21" class="node">
<title>DodgePredictSensor</title>
<polygon fill="none" stroke="black" points="24,-798 24,-819.75 162,-819.75 162,-798 24,-798"/>
<text text-anchor="start" x="27" y="-803.45" font-family="Helvetica,sans-Serif" font-size="14.00">DodgePredictSensor &#160;</text>
<polygon fill="none" stroke="black" points="24,-776.25 24,-798 162,-798 162,-776.25 24,-776.25"/>
<text text-anchor="start" x="27" y="-782.7" font-family="Helvetica,sans-Serif" font-size="12.00" fill="#838b8b">if: Dodge</text>
<text text-anchor="start" x="75" y="-782.7" font-family="Helvetica,sans-Serif" font-size="14.00"> &#160;</text>
</g>
<!-- DodgePredictSensor_linked -->
<g id="node22" class="node">
<title>DodgePredictSensor_linked</title>
<polygon fill="none" stroke="black" stroke-dasharray="1,5" points="363.6,-816 307.4,-816 307.4,-780 363.6,-780 363.6,-816"/>
<text text-anchor="start" x="313" y="-792.58" font-family="Helvetica,sans-Serif" font-size="14.00">Attack &#160;</text>
</g>
<!-- DodgePredictSensor&#45;&gt;DodgePredictSensor_linked -->
<g id="edge15" class="edge">
<title>DodgePredictSensor&#45;&gt;DodgePredictSensor_linked</title>
<path fill="none" stroke="#66cdaa" d="M169.77,-798C211.64,-798 261.9,-798 295.8,-798"/>
<polygon fill="#66cdaa" stroke="#66cdaa" points="295.55,-801.5 305.55,-798 295.55,-794.5 295.55,-801.5"/>
<text text-anchor="middle" x="220.62" y="-800.45" font-family="Helvetica,sans-Serif" font-size="14.00" fill="#66cdaa">QueueEnd</text>
</g>
<!-- AttackPredictSensor -->
<g id="node23" class="node">
<title>AttackPredictSensor</title>
<polygon fill="none" stroke="black" points="25.12,-868 25.12,-889.75 160.88,-889.75 160.88,-868 25.12,-868"/>
<text text-anchor="start" x="28.12" y="-873.45" font-family="Helvetica,sans-Serif" font-size="14.00">AttackPredictSensor &#160;</text>
<polygon fill="none" stroke="black" points="25.12,-846.25 25.12,-868 160.88,-868 160.88,-846.25 25.12,-846.25"/>
<text text-anchor="start" x="28.12" y="-852.7" font-family="Helvetica,sans-Serif" font-size="12.00" fill="#838b8b">if: Attack</text>
<text text-anchor="start" x="73.12" y="-852.7" font-family="Helvetica,sans-Serif" font-size="14.00"> &#160;</text>
</g>
<!-- AttackPredictSensor_linked -->
<g id="node24" class="node">
<title>AttackPredictSensor_linked</title>
<polygon fill="none" stroke="black" stroke-dasharray="1,5" points="363.6,-886 307.4,-886 307.4,-850 363.6,-850 363.6,-886"/>
<text text-anchor="start" x="313" y="-862.58" font-family="Helvetica,sans-Serif" font-size="14.00">Attack &#160;</text>
</g>
<!-- AttackPredictSensor&#45;&gt;AttackPredictSensor_linked -->
<g id="edge16" class="edge">
<title>AttackPredictSensor&#45;&gt;AttackPredictSensor_linked</title>
<path fill="none" stroke="#66cdaa" d="M168.78,-868C210.84,-868 261.6,-868 295.77,-868"/>
<polygon fill="#66cdaa" stroke="#66cdaa" points="295.61,-871.5 305.61,-868 295.61,-864.5 295.61,-871.5"/>
<text text-anchor="middle" x="220.62" y="-870.45" font-family="Helvetica,sans-Serif" font-size="14.00" fill="#66cdaa">QueueEnd</text>
</g>
<!-- AttackRunToSensor -->
<g id="node25" class="node">
<title>AttackRunToSensor</title>
<polygon fill="none" stroke="black" points="26.62,-938 26.62,-959.75 159.38,-959.75 159.38,-938 26.62,-938"/>
<text text-anchor="start" x="29.62" y="-943.45" font-family="Helvetica,sans-Serif" font-size="14.00">AttackRunToSensor &#160;</text>
<polygon fill="none" stroke="black" points="26.62,-916.25 26.62,-938 159.38,-938 159.38,-916.25 26.62,-916.25"/>
<text text-anchor="start" x="29.62" y="-922.7" font-family="Helvetica,sans-Serif" font-size="12.00" fill="#838b8b">if: state is Engaging</text>
<text text-anchor="start" x="133.88" y="-922.7" font-family="Helvetica,sans-Serif" font-size="14.00"> &#160;</text>
</g>
<!-- AttackRunToSensor_linked -->
<g id="node26" class="node">
<title>AttackRunToSensor_linked</title>
<polygon fill="none" stroke="black" stroke-dasharray="1,5" points="363.6,-956 307.4,-956 307.4,-920 363.6,-920 363.6,-956"/>
<text text-anchor="start" x="313" y="-932.58" font-family="Helvetica,sans-Serif" font-size="14.00">Attack &#160;</text>
</g>
<!-- AttackRunToSensor&#45;&gt;AttackRunToSensor_linked -->
<g id="edge17" class="edge">
<title>AttackRunToSensor&#45;&gt;AttackRunToSensor_linked</title>
<path fill="none" stroke="#66cdaa" d="M167.14,-938C209.42,-938 260.92,-938 295.54,-938"/>
<polygon fill="#66cdaa" stroke="#66cdaa" points="295.52,-941.5 305.52,-938 295.52,-934.5 295.52,-941.5"/>
<text text-anchor="middle" x="220.62" y="-940.45" font-family="Helvetica,sans-Serif" font-size="14.00" fill="#66cdaa">QueueEnd</text>
</g>
</g>
</svg>
