<?xml version="1.0" encoding="UTF-8" standalone="no"?>
<!DOCTYPE svg PUBLIC "-//W3C//DTD SVG 1.1//EN"
 "http://www.w3.org/Graphics/SVG/1.1/DTD/svg11.dtd">
<!-- Generated by graphviz version 12.2.1 (20241206.2353)
 -->
<!-- Title: Foo Pages: 1 -->
<svg width="518pt" height="1010pt"
 viewBox="0.00 0.00 517.75 1010.00" xmlns="http://www.w3.org/2000/svg" xmlns:xlink="http://www.w3.org/1999/xlink">
<g id="graph0" class="graph" transform="scale(1 1) rotate(0) translate(4 1006)">
<title>Foo</title>
<polygon fill="white" stroke="none" points="-4,4 -4,-1006 513.75,-1006 513.75,4 -4,4"/>
<g id="clust1" class="cluster">
<title>cluster_attacksensors</title>
<polygon fill="none" stroke="black" points="8,-8 8,-402 381.25,-402 381.25,-8 8,-8"/>
<text text-anchor="middle" x="194.62" y="-384.7" font-family="Helvetica,sans-Serif" font-size="14.00">Attack Sensors</text>
</g>
<!-- Level Once Sensor -->
<g id="node1" class="node">
<title>Level Once Sensor</title>
<polygon fill="none" stroke="black" points="28.5,-23.12 28.5,-44.88 157.5,-44.88 157.5,-23.12 28.5,-23.12"/>
<text text-anchor="start" x="31.5" y="-28.57" font-family="Helvetica,sans-Serif" font-size="14.00">Level Once Sensor &#160;</text>
</g>
<!-- Level Once Sensor_linked -->
<g id="node2" class="node">
<title>Level Once Sensor_linked</title>
<polygon fill="none" stroke="black" stroke-dasharray="1,5" points="363.6,-52 307.4,-52 307.4,-16 363.6,-16 363.6,-52"/>
<text text-anchor="start" x="313" y="-28.57" font-family="Helvetica,sans-Serif" font-size="14.00">Attack &#160;</text>
</g>
<!-- Level Once Sensor&#45;&gt;Level Once Sensor_linked -->
<g id="edge1" class="edge">
<title>Level Once Sensor&#45;&gt;Level Once Sensor_linked</title>
<path fill="none" stroke="#66cdaa" d="M165.18,-34C207.99,-34 260.81,-34 295.96,-34"/>
<polygon fill="#66cdaa" stroke="#66cdaa" points="295.65,-37.5 305.65,-34 295.65,-30.5 295.65,-37.5"/>
<text text-anchor="middle" x="220.62" y="-36.45" font-family="Helvetica,sans-Serif" font-size="14.00" fill="#66cdaa">QueueEnd</text>
</g>
<!-- Level Once Sensor_weight -->
<g id="node3" class="node">
<title>Level Once Sensor_weight</title>
<polygon fill="none" stroke="black" stroke-dasharray="1,5" points="373.25,-106 297.75,-106 297.75,-70 373.25,-70 373.25,-106"/>
<text text-anchor="start" x="307.75" y="-82.58" font-family="Helvetica,sans-Serif" font-size="14.00">1 Attack &#160;</text>
</g>
<!-- Level Once Sensor&#45;&gt;Level Once Sensor_weight -->
<g id="edge2" class="edge">
<title>Level Once Sensor&#45;&gt;Level Once Sensor_weight</title>
<path fill="none" stroke="#458b74" d="M165.18,-49.98C204.3,-58.77 251.78,-69.43 286.5,-77.22"/>
<polygon fill="#458b74" stroke="#458b74" points="285.3,-80.54 295.82,-79.31 286.83,-73.71 285.3,-80.54"/>
<text text-anchor="middle" x="220.62" y="-71.44" font-family="Helvetica,sans-Serif" font-size="14.00" fill="#458b74">Weight</text>
</g>
<!-- RunAwaySensor -->
<g id="node4" class="node">
<title>RunAwaySensor</title>
<polygon fill="none" stroke="black" points="36,-77.12 36,-98.88 150,-98.88 150,-77.12 36,-77.12"/>
<text text-anchor="start" x="39" y="-82.58" font-family="Helvetica,sans-Serif" font-size="14.00">RunAwaySensor &#160;</text>
</g>
<!-- AttackSensor -->
<g id="node5" class="node">
<title>AttackSensor</title>
<polygon fill="none" stroke="black" points="46.12,-131.12 46.12,-152.88 139.88,-152.88 139.88,-131.12 46.12,-131.12"/>
<text text-anchor="start" x="49.12" y="-136.57" font-family="Helvetica,sans-Serif" font-size="14.00">AttackSensor &#160;</text>
</g>
<!-- AttackSensor_linked -->
<g id="node6" class="node">
<title>AttackSensor_linked</title>
<polygon fill="none" stroke="black" stroke-dasharray="1,5" points="363.6,-160 307.4,-160 307.4,-124 363.6,-124 363.6,-160"/>
<text text-anchor="start" x="313" y="-136.57" font-family="Helvetica,sans-Serif" font-size="14.00">Attack &#160;</text>
</g>
<!-- AttackSensor&#45;&gt;AttackSensor_linked -->
<g id="edge3" class="edge">
<title>AttackSensor&#45;&gt;AttackSensor_linked</title>
<path fill="none" stroke="#66cdaa" d="M147.67,-142C192.56,-142 255.52,-142 295.66,-142"/>
<polygon fill="#66cdaa" stroke="#66cdaa" points="295.58,-145.5 305.58,-142 295.58,-138.5 295.58,-145.5"/>
<text text-anchor="middle" x="220.62" y="-144.45" font-family="Helvetica,sans-Serif" font-size="14.00" fill="#66cdaa">QueueEnd</text>
</g>
<!-- DodgePredictSensor -->
<g id="node7" class="node">
<title>DodgePredictSensor</title>
<polygon fill="none" stroke="black" points="24,-204 24,-225.75 162,-225.75 162,-204 24,-204"/>
<text text-anchor="start" x="27" y="-209.45" font-family="Helvetica,sans-Serif" font-size="14.00">DodgePredictSensor &#160;</text>
<polygon fill="none" stroke="black" points="24,-182.25 24,-204 162,-204 162,-182.25 24,-182.25"/>
<text text-anchor="start" x="27" y="-188.7" font-family="Helvetica,sans-Serif" font-size="12.00" fill="#838b8b">if: rollingCondition</text>
<text text-anchor="start" x="123.75" y="-188.7" font-family="Helvetica,sans-Serif" font-size="14.00"> &#160;</text>
</g>
<!-- DodgePredictSensor_linked -->
<g id="node8" class="node">
<title>DodgePredictSensor_linked</title>
<polygon fill="none" stroke="black" stroke-dasharray="1,5" points="363.6,-222 307.4,-222 307.4,-186 363.6,-186 363.6,-222"/>
<text text-anchor="start" x="313" y="-198.57" font-family="Helvetica,sans-Serif" font-size="14.00">Attack &#160;</text>
</g>
<!-- DodgePredictSensor&#45;&gt;DodgePredictSensor_linked -->
<g id="edge4" class="edge">
<title>DodgePredictSensor&#45;&gt;DodgePredictSensor_linked</title>
<path fill="none" stroke="#66cdaa" d="M169.77,-204C211.64,-204 261.9,-204 295.8,-204"/>
<polygon fill="#66cdaa" stroke="#66cdaa" points="295.55,-207.5 305.55,-204 295.55,-200.5 295.55,-207.5"/>
<text text-anchor="middle" x="220.62" y="-206.45" font-family="Helvetica,sans-Serif" font-size="14.00" fill="#66cdaa">QueueEnd</text>
</g>
<!-- AttackPredictSensor -->
<g id="node9" class="node">
<title>AttackPredictSensor</title>
<polygon fill="none" stroke="black" points="25.12,-274 25.12,-295.75 160.88,-295.75 160.88,-274 25.12,-274"/>
<text text-anchor="start" x="28.12" y="-279.45" font-family="Helvetica,sans-Serif" font-size="14.00">AttackPredictSensor &#160;</text>
<polygon fill="none" stroke="black" points="25.12,-252.25 25.12,-274 160.88,-274 160.88,-252.25 25.12,-252.25"/>
<text text-anchor="start" x="28.12" y="-258.7" font-family="Helvetica,sans-Serif" font-size="12.00" fill="#838b8b">if: attackCondition</text>
<text text-anchor="start" x="123.38" y="-258.7" font-family="Helvetica,sans-Serif" font-size="14.00"> &#160;</text>
</g>
<!-- AttackPredictSensor_linked -->
<g id="node10" class="node">
<title>AttackPredictSensor_linked</title>
<polygon fill="none" stroke="black" stroke-dasharray="1,5" points="363.6,-292 307.4,-292 307.4,-256 363.6,-256 363.6,-292"/>
<text text-anchor="start" x="313" y="-268.57" font-family="Helvetica,sans-Serif" font-size="14.00">Attack &#160;</text>
</g>
<!-- AttackPredictSensor&#45;&gt;AttackPredictSensor_linked -->
<g id="edge5" class="edge">
<title>AttackPredictSensor&#45;&gt;AttackPredictSensor_linked</title>
<path fill="none" stroke="#66cdaa" d="M168.78,-274C210.84,-274 261.6,-274 295.77,-274"/>
<polygon fill="#66cdaa" stroke="#66cdaa" points="295.61,-277.5 305.61,-274 295.61,-270.5 295.61,-277.5"/>
<text text-anchor="middle" x="220.62" y="-276.45" font-family="Helvetica,sans-Serif" font-size="14.00" fill="#66cdaa">QueueEnd</text>
</g>
<!-- AttackRunToSensor -->
<g id="node11" class="node">
<title>AttackRunToSensor</title>
<polygon fill="none" stroke="black" points="26.62,-344 26.62,-365.75 159.38,-365.75 159.38,-344 26.62,-344"/>
<text text-anchor="start" x="29.62" y="-349.45" font-family="Helvetica,sans-Serif" font-size="14.00">AttackRunToSensor &#160;</text>
<polygon fill="none" stroke="black" points="26.62,-322.25 26.62,-344 159.38,-344 159.38,-322.25 26.62,-322.25"/>
<text text-anchor="start" x="29.62" y="-328.7" font-family="Helvetica,sans-Serif" font-size="12.00" fill="#838b8b">if: state is Engaging</text>
<text text-anchor="start" x="133.88" y="-328.7" font-family="Helvetica,sans-Serif" font-size="14.00"> &#160;</text>
</g>
<!-- AttackRunToSensor_linked -->
<g id="node12" class="node">
<title>AttackRunToSensor_linked</title>
<polygon fill="none" stroke="black" stroke-dasharray="1,5" points="363.6,-362 307.4,-362 307.4,-326 363.6,-326 363.6,-362"/>
<text text-anchor="start" x="313" y="-338.57" font-family="Helvetica,sans-Serif" font-size="14.00">Attack &#160;</text>
</g>
<!-- AttackRunToSensor&#45;&gt;AttackRunToSensor_linked -->
<g id="edge6" class="edge">
<title>AttackRunToSensor&#45;&gt;AttackRunToSensor_linked</title>
<path fill="none" stroke="#66cdaa" d="M167.14,-344C209.42,-344 260.92,-344 295.54,-344"/>
<polygon fill="#66cdaa" stroke="#66cdaa" points="295.52,-347.5 305.52,-344 295.52,-340.5 295.52,-347.5"/>
<text text-anchor="middle" x="220.62" y="-346.45" font-family="Helvetica,sans-Serif" font-size="14.00" fill="#66cdaa">QueueEnd</text>
</g>
<!-- Attack -->
<g id="node13" class="node">
<title>Attack</title>
<polygon fill="none" stroke="black" points="296.5,-814 296.5,-835.75 374.5,-835.75 374.5,-814 296.5,-814"/>
<text text-anchor="start" x="313" y="-819.45" font-family="Helvetica,sans-Serif" font-size="14.00">Attack &#160;</text>
<polygon fill="none" stroke="black" points="296.5,-792.25 296.5,-814 374.5,-814 374.5,-792.25 296.5,-792.25"/>
<text text-anchor="start" x="299.5" y="-798.7" font-family="Helvetica,sans-Serif" font-size="12.00" fill="#838b8b">2.00s: Done</text>
<text text-anchor="start" x="364" y="-798.7" font-family="Helvetica,sans-Serif" font-size="14.00"> &#160;</text>
</g>
<!-- Engaging -->
<g id="node14" class="node">
<title>Engaging</title>
<polygon fill="none" stroke="black" points="509.75,-624 436.75,-624 436.75,-588 509.75,-588 509.75,-624"/>
<text text-anchor="middle" x="473.25" y="-600.58" font-family="Helvetica,sans-Serif" font-size="14.00">Engaging</text>
</g>
<!-- Attack&#45;&gt;Engaging -->
<g id="edge7" class="edge">
<title>Attack&#45;&gt;Engaging</title>
<path fill="none" stroke="#cdc8b1" d="M382.44,-793.51C388.78,-789.34 394.81,-784.51 399.75,-779 437.42,-737 457.31,-672.61 466.23,-635.38"/>
<polygon fill="#cdc8b1" stroke="#cdc8b1" points="469.61,-636.31 468.41,-625.78 462.78,-634.75 469.61,-636.31"/>
</g>
<!-- FooAttached -->
<g id="node15" class="node">
<title>FooAttached</title>
<polygon fill="none" stroke="black" points="279.25,-744.12 279.25,-765.88 391.75,-765.88 391.75,-744.12 279.25,-744.12"/>
<text text-anchor="start" x="293.5" y="-749.58" font-family="Helvetica,sans-Serif" font-size="14.00">FooAttached &#160;</text>
<polygon fill="none" stroke="black" points="279.25,-700.12 279.25,-744.12 391.75,-744.12 391.75,-700.12 279.25,-700.12"/>
<text text-anchor="start" x="282.25" y="-730.73" font-family="Helvetica,sans-Serif" font-size="12.00" fill="#838b8b">2.00s: CheckFacing</text>
<text text-anchor="start" x="282.25" y="-718.73" font-family="Helvetica,sans-Serif" font-size="12.00" fill="#838b8b">3.00s: Done</text>
<text text-anchor="start" x="282.25" y="-704.83" font-family="Helvetica,sans-Serif" font-size="12.00" fill="#838b8b">8.50s: Done</text>
<text text-anchor="start" x="346.75" y="-704.83" font-family="Helvetica,sans-Serif" font-size="14.00"> &#160;</text>
</g>
<!-- FooAttached&#45;&gt;Engaging -->
<g id="edge8" class="edge">
<title>FooAttached&#45;&gt;Engaging</title>
<path fill="none" stroke="#cdc8b1" d="M388.97,-696.2C392.69,-693.18 396.32,-690.09 399.75,-687 418.18,-670.35 436.83,-649.4 450.59,-632.99"/>
<polygon fill="#cdc8b1" stroke="#cdc8b1" points="453.06,-635.49 456.74,-625.55 447.67,-631.03 453.06,-635.49"/>
</g>
<!-- AttackParrying -->
<g id="node16" class="node">
<title>AttackParrying</title>
<polygon fill="none" stroke="black" points="284.88,-649.12 284.88,-670.88 386.12,-670.88 386.12,-649.12 284.88,-649.12"/>
<text text-anchor="start" x="287.88" y="-654.58" font-family="Helvetica,sans-Serif" font-size="14.00">AttackParrying &#160;</text>
</g>
<!-- AttackParrying&#45;&gt;Engaging -->
<g id="edge9" class="edge">
<title>AttackParrying&#45;&gt;Engaging</title>
<path fill="none" stroke="#cdc8b1" d="M381.7,-642.02C395.96,-636.35 411.73,-630.07 426.06,-624.38"/>
<polygon fill="#cdc8b1" stroke="#cdc8b1" points="427.28,-627.66 435.28,-620.71 424.69,-621.15 427.28,-627.66"/>
</g>
<!-- HurtState -->
<g id="node17" class="node">
<title>HurtState</title>
<polygon fill="none" stroke="black" points="57.75,-919.12 57.75,-940.88 128.25,-940.88 128.25,-919.12 57.75,-919.12"/>
<text text-anchor="start" x="60.75" y="-924.58" font-family="Helvetica,sans-Serif" font-size="14.00">HurtState &#160;</text>
</g>
<!-- PreAttack -->
<g id="node18" class="node">
<title>PreAttack</title>
<polygon fill="none" stroke="black" points="372.75,-894 298.25,-894 298.25,-858 372.75,-858 372.75,-894"/>
<text text-anchor="middle" x="335.5" y="-870.58" font-family="Helvetica,sans-Serif" font-size="14.00">PreAttack</text>
</g>
<!-- HurtState&#45;&gt;PreAttack -->
<g id="edge10" class="edge">
<title>HurtState&#45;&gt;PreAttack</title>
<path fill="none" stroke="#cdc8b1" d="M136.17,-920.53C178.3,-911.07 242.97,-896.55 286.92,-886.68"/>
<polygon fill="#cdc8b1" stroke="#cdc8b1" points="287.43,-890.16 296.42,-884.55 285.9,-883.33 287.43,-890.16"/>
</g>
<!-- Hurt_BigState -->
<g id="node19" class="node">
<title>Hurt_BigState</title>
<polygon fill="none" stroke="black" points="44.25,-865.12 44.25,-886.88 141.75,-886.88 141.75,-865.12 44.25,-865.12"/>
<text text-anchor="start" x="47.25" y="-870.58" font-family="Helvetica,sans-Serif" font-size="14.00">Hurt_BigState &#160;</text>
</g>
<!-- Hurt_BigState&#45;&gt;PreAttack -->
<g id="edge11" class="edge">
<title>Hurt_BigState&#45;&gt;PreAttack</title>
<path fill="none" stroke="#cdc8b1" d="M149.48,-876C190.93,-876 247.01,-876 286.53,-876"/>
<polygon fill="#cdc8b1" stroke="#cdc8b1" points="286.46,-879.5 296.46,-876 286.46,-872.5 286.46,-879.5"/>
</g>
<!-- JumpBack -->
<g id="node20" class="node">
<title>JumpBack</title>
<polygon fill="none" stroke="black" points="296.88,-595.12 296.88,-616.88 374.12,-616.88 374.12,-595.12 296.88,-595.12"/>
<text text-anchor="start" x="299.88" y="-600.58" font-family="Helvetica,sans-Serif" font-size="14.00">JumpBack &#160;</text>
</g>
<!-- JumpBack&#45;&gt;Engaging -->
<g id="edge12" class="edge">
<title>JumpBack&#45;&gt;Engaging</title>
<path fill="none" stroke="#cdc8b1" d="M382.08,-606C395.92,-606 411.15,-606 425.09,-606"/>
<polygon fill="#cdc8b1" stroke="#cdc8b1" points="424.93,-609.5 434.93,-606 424.93,-602.5 424.93,-609.5"/>
</g>
<!-- PostureBreak -->
<g id="node21" class="node">
<title>PostureBreak</title>
<polygon fill="none" stroke="black" points="45.38,-811.12 45.38,-832.88 140.62,-832.88 140.62,-811.12 45.38,-811.12"/>
<text text-anchor="start" x="48.38" y="-816.58" font-family="Helvetica,sans-Serif" font-size="14.00">PostureBreak &#160;</text>
</g>
<!-- PostureBreak&#45;&gt;PreAttack -->
<g id="edge13" class="edge">
<title>PostureBreak&#45;&gt;PreAttack</title>
<path fill="none" stroke="#cdc8b1" d="M148.57,-834.25C190.29,-843.62 247.21,-856.4 287.05,-865.35"/>
<polygon fill="#cdc8b1" stroke="#cdc8b1" points="286.06,-868.71 296.58,-867.49 287.59,-861.88 286.06,-868.71"/>
</g>
<!-- RollThrough -->
<g id="node22" class="node">
<title>RollThrough</title>
<polygon fill="none" stroke="black" points="292,-541.12 292,-562.88 379,-562.88 379,-541.12 292,-541.12"/>
<text text-anchor="start" x="295" y="-546.58" font-family="Helvetica,sans-Serif" font-size="14.00">RollThrough &#160;</text>
</g>
<!-- RollThrough&#45;&gt;Engaging -->
<g id="edge14" class="edge">
<title>RollThrough&#45;&gt;Engaging</title>
<path fill="none" stroke="#cdc8b1" d="M381.7,-569.98C395.96,-575.65 411.73,-581.93 426.06,-587.62"/>
<polygon fill="#cdc8b1" stroke="#cdc8b1" points="424.69,-590.85 435.28,-591.29 427.28,-584.34 424.69,-590.85"/>
</g>
<!-- StandUp -->
<g id="node23" class="node">
<title>StandUp</title>
<polygon fill="none" stroke="black" points="296.5,-490 296.5,-511.75 374.5,-511.75 374.5,-490 296.5,-490"/>
<text text-anchor="start" x="305.5" y="-495.45" font-family="Helvetica,sans-Serif" font-size="14.00">StandUp &#160;</text>
<polygon fill="none" stroke="black" points="296.5,-468.25 296.5,-490 374.5,-490 374.5,-468.25 296.5,-468.25"/>
<text text-anchor="start" x="299.5" y="-474.7" font-family="Helvetica,sans-Serif" font-size="12.00" fill="#838b8b">0.67s: Done</text>
<text text-anchor="start" x="364" y="-474.7" font-family="Helvetica,sans-Serif" font-size="14.00"> &#160;</text>
</g>
<!-- StandUp&#45;&gt;Engaging -->
<g id="edge15" class="edge">
<title>StandUp&#45;&gt;Engaging</title>
<path fill="none" stroke="#cdc8b1" d="M382.26,-512.89C388.36,-516.63 394.35,-520.7 399.75,-525 419.42,-540.68 438.27,-562 451.81,-578.83"/>
<polygon fill="#cdc8b1" stroke="#cdc8b1" points="448.89,-580.77 457.82,-586.46 454.39,-576.44 448.89,-580.77"/>
</g>
<!-- ZEnterState -->
<g id="node24" class="node">
<title>ZEnterState</title>
<polygon fill="none" stroke="black" points="292.75,-417.12 292.75,-438.88 378.25,-438.88 378.25,-417.12 292.75,-417.12"/>
<text text-anchor="start" x="295.75" y="-422.57" font-family="Helvetica,sans-Serif" font-size="14.00">ZEnterState &#160;</text>
</g>
<!-- ZEnterState&#45;&gt;Engaging -->
<g id="edge16" class="edge">
<title>ZEnterState&#45;&gt;Engaging</title>
<path fill="none" stroke="#cdc8b1" d="M386.03,-444.85C391,-447.76 395.7,-451.12 399.75,-455 435.09,-488.81 455.28,-543.36 464.98,-576.81"/>
<polygon fill="#cdc8b1" stroke="#cdc8b1" points="461.55,-577.53 467.58,-586.24 468.3,-575.67 461.55,-577.53"/>
</g>
<!-- ZExitState -->
<g id="node25" class="node">
<title>ZExitState</title>
<polygon fill="none" stroke="black" points="55.12,-417.12 55.12,-438.88 130.88,-438.88 130.88,-417.12 55.12,-417.12"/>
<text text-anchor="start" x="58.12" y="-422.57" font-family="Helvetica,sans-Serif" font-size="14.00">ZExitState &#160;</text>
</g>
<!-- ZExitState&#45;&gt;ZEnterState -->
<g id="edge17" class="edge">
<title>ZExitState&#45;&gt;ZEnterState</title>
<path fill="none" stroke="#cdc8b1" d="M138.67,-428C176.67,-428 231.59,-428 273.61,-428"/>
<polygon fill="#cdc8b1" stroke="#cdc8b1" points="273.58,-431.5 283.58,-428 273.58,-424.5 273.58,-431.5"/>
</g>
<!-- Seat -->
<g id="node26" class="node">
<title>Seat</title>
<polygon fill="none" stroke="black" points="130.25,-1002 55.75,-1002 55.75,-966 130.25,-966 130.25,-1002"/>
<text text-anchor="middle" x="93" y="-978.58" font-family="Helvetica,sans-Serif" font-size="14.00">Seat (Init)</text>
</g>
</g>
</svg>
