<?xml version="1.0" encoding="UTF-8" standalone="no"?>
<!DOCTYPE svg PUBLIC "-//W3C//DTD SVG 1.1//EN"
 "http://www.w3.org/Graphics/SVG/1.1/DTD/svg11.dtd">
<!-- Generated by graphviz version 12.2.1 (20241206.2353)
 -->
<!-- Title: Foo Pages: 1 -->
<svg width="396pt" height="1032pt"
 viewBox="0.00 0.00 395.50 1031.88" xmlns="http://www.w3.org/2000/svg" xmlns:xlink="http://www.w3.org/1999/xlink">
<g id="graph0" class="graph" transform="scale(1 1) rotate(0) translate(4 1027.88)">
<title>Foo</title>
<polygon fill="white" stroke="none" points="-4,4 -4,-1027.88 391.5,-1027.88 391.5,4 -4,4"/>
<g id="clust1" class="cluster">
<title>cluster_attacksensors</title>
<polygon fill="none" stroke="black" points="8,-561.88 8,-1015.88 379.5,-1015.88 379.5,-561.88 8,-561.88"/>
<text text-anchor="middle" x="193.75" y="-998.58" font-family="Helvetica,sans-Serif" font-size="14.00">Attack Sensors</text>
</g>
<!-- Attack -->
<g id="node1" class="node">
<title>Attack</title>
<polygon fill="none" stroke="black" points="34.12,-222 34.12,-243.75 151.88,-243.75 151.88,-222 34.12,-222"/>
<text text-anchor="start" x="70.5" y="-227.45" font-family="Helvetica,sans-Serif" font-size="14.00">Attack &#160;</text>
<polygon fill="none" stroke="black" points="34.12,-166 34.12,-222 151.88,-222 151.88,-166 34.12,-166"/>
<text text-anchor="start" x="37.12" y="-208.6" font-family="Helvetica,sans-Serif" font-size="12.00" fill="#838b8b">0.33s: CheckFacing</text>
<text text-anchor="start" x="37.12" y="-196.6" font-family="Helvetica,sans-Serif" font-size="12.00" fill="#838b8b">1.58s: CheckFacing</text>
<text text-anchor="start" x="37.12" y="-184.6" font-family="Helvetica,sans-Serif" font-size="12.00" fill="#838b8b">2.58s: LinkNextMove</text>
<text text-anchor="start" x="37.12" y="-170.7" font-family="Helvetica,sans-Serif" font-size="12.00" fill="#838b8b">2.92s: Done</text>
<text text-anchor="start" x="101.62" y="-170.7" font-family="Helvetica,sans-Serif" font-size="14.00"> &#160;</text>
</g>
<!-- Engaging -->
<g id="node2" class="node">
<title>Engaging</title>
<polygon fill="none" stroke="black" points="357.88,-135.88 284.88,-135.88 284.88,-99.88 357.88,-99.88 357.88,-135.88"/>
<text text-anchor="middle" x="321.38" y="-112.45" font-family="Helvetica,sans-Serif" font-size="14.00">Engaging</text>
</g>
<!-- Attack&#45;&gt;Engaging -->
<g id="edge1" class="edge">
<title>Attack&#45;&gt;Engaging</title>
<path fill="none" stroke="#cdc8b1" d="M159.78,-179.59C196.37,-165.53 241.04,-148.37 273.96,-135.71"/>
<polygon fill="#cdc8b1" stroke="#cdc8b1" points="275.16,-139 283.24,-132.15 272.65,-132.47 275.16,-139"/>
</g>
<!-- Attack_mustuse -->
<g id="node3" class="node">
<title>Attack_mustuse</title>
<polygon fill="none" stroke="black" stroke-dasharray="1,5" points="371.5,-222.88 271.25,-222.88 271.25,-186.88 371.5,-186.88 371.5,-222.88"/>
<text text-anchor="start" x="281.25" y="-199.45" font-family="Helvetica,sans-Serif" font-size="14.00">1 Undefined &#160;</text>
</g>
<!-- Attack&#45;&gt;Attack_mustuse -->
<g id="edge2" class="edge">
<title>Attack&#45;&gt;Attack_mustuse</title>
<path fill="none" stroke="#458b74" d="M159.78,-204.88C191.27,-204.88 228.72,-204.88 259.54,-204.88"/>
<polygon fill="#458b74" stroke="#458b74" points="259.49,-208.38 269.49,-204.88 259.49,-201.38 259.49,-208.38"/>
<text text-anchor="middle" x="220.62" y="-207.32" font-family="Helvetica,sans-Serif" font-size="14.00" fill="#458b74">Weight</text>
</g>
<!-- Shoot -->
<g id="node4" class="node">
<title>Shoot</title>
<polygon fill="none" stroke="black" points="54,-117.88 54,-139.62 132,-139.62 132,-117.88 54,-117.88"/>
<text text-anchor="start" x="71.62" y="-123.33" font-family="Helvetica,sans-Serif" font-size="14.00">Shoot &#160;</text>
<polygon fill="none" stroke="black" points="54,-96.12 54,-117.88 132,-117.88 132,-96.12 54,-96.12"/>
<text text-anchor="start" x="57" y="-102.58" font-family="Helvetica,sans-Serif" font-size="12.00" fill="#838b8b">2.27s: Done</text>
<text text-anchor="start" x="121.5" y="-102.58" font-family="Helvetica,sans-Serif" font-size="14.00"> &#160;</text>
</g>
<!-- Shoot&#45;&gt;Engaging -->
<g id="edge3" class="edge">
<title>Shoot&#45;&gt;Engaging</title>
<path fill="none" stroke="#cdc8b1" d="M139.81,-117.88C178.65,-117.88 234.13,-117.88 273.32,-117.88"/>
<polygon fill="#cdc8b1" stroke="#cdc8b1" points="273.15,-121.38 283.15,-117.88 273.15,-114.38 273.15,-121.38"/>
</g>
<!-- AttackParrying -->
<g id="node5" class="node">
<title>AttackParrying</title>
<polygon fill="none" stroke="black" points="34.12,-48 34.12,-69.75 151.88,-69.75 151.88,-48 34.12,-48"/>
<text text-anchor="start" x="45.38" y="-53.45" font-family="Helvetica,sans-Serif" font-size="14.00">AttackParrying &#160;</text>
<polygon fill="none" stroke="black" points="34.12,-4 34.12,-48 151.88,-48 151.88,-4 34.12,-4"/>
<text text-anchor="start" x="37.12" y="-34.6" font-family="Helvetica,sans-Serif" font-size="12.00" fill="#838b8b">0.00s: EnableGravity</text>
<text text-anchor="start" x="37.12" y="-22.6" font-family="Helvetica,sans-Serif" font-size="12.00" fill="#838b8b">2.40s: LinkNextMove</text>
<text text-anchor="start" x="37.12" y="-8.7" font-family="Helvetica,sans-Serif" font-size="12.00" fill="#838b8b">2.52s: Done</text>
<text text-anchor="start" x="101.62" y="-8.7" font-family="Helvetica,sans-Serif" font-size="14.00"> &#160;</text>
</g>
<!-- AttackParrying&#45;&gt;Engaging -->
<g id="edge4" class="edge">
<title>AttackParrying&#45;&gt;Engaging</title>
<path fill="none" stroke="#cdc8b1" d="M159.78,-60.41C196.37,-73.51 241.04,-89.49 273.96,-101.27"/>
<polygon fill="#cdc8b1" stroke="#cdc8b1" points="272.63,-104.51 283.22,-104.58 274.99,-97.92 272.63,-104.51"/>
</g>
<!-- HurtState -->
<g id="node6" class="node">
<title>HurtState</title>
<polygon fill="none" stroke="black" points="34.12,-394 34.12,-415.75 151.88,-415.75 151.88,-394 34.12,-394"/>
<text text-anchor="start" x="60.75" y="-399.45" font-family="Helvetica,sans-Serif" font-size="14.00">HurtState &#160;</text>
<polygon fill="none" stroke="black" points="34.12,-350 34.12,-394 151.88,-394 151.88,-350 34.12,-350"/>
<text text-anchor="start" x="37.12" y="-380.6" font-family="Helvetica,sans-Serif" font-size="12.00" fill="#838b8b">0.00s: EnableGravity</text>
<text text-anchor="start" x="37.12" y="-368.6" font-family="Helvetica,sans-Serif" font-size="12.00" fill="#838b8b">0.13s: LinkNextMove</text>
<text text-anchor="start" x="37.12" y="-354.7" font-family="Helvetica,sans-Serif" font-size="12.00" fill="#838b8b">0.17s: Done</text>
<text text-anchor="start" x="101.62" y="-354.7" font-family="Helvetica,sans-Serif" font-size="14.00"> &#160;</text>
</g>
<!-- PreAttack -->
<g id="node7" class="node">
<title>PreAttack</title>
<polygon fill="none" stroke="black" points="358.62,-322.88 284.12,-322.88 284.12,-286.88 358.62,-286.88 358.62,-322.88"/>
<text text-anchor="middle" x="321.38" y="-299.45" font-family="Helvetica,sans-Serif" font-size="14.00">PreAttack</text>
</g>
<!-- HurtState&#45;&gt;PreAttack -->
<g id="edge5" class="edge">
<title>HurtState&#45;&gt;PreAttack</title>
<path fill="none" stroke="#cdc8b1" d="M159.78,-360.21C196.02,-347.72 240.18,-332.51 273.01,-321.2"/>
<polygon fill="#cdc8b1" stroke="#cdc8b1" points="273.94,-324.58 282.25,-318.01 271.66,-317.96 273.94,-324.58"/>
</g>
<!-- HurtState_linked -->
<g id="node8" class="node">
<title>HurtState_linked</title>
<polygon fill="none" stroke="black" stroke-dasharray="1,5" points="349.48,-416.1 293.27,-416.1 293.27,-349.65 349.48,-349.65 349.48,-416.1"/>
<text text-anchor="start" x="298.88" y="-397.2" font-family="Helvetica,sans-Serif" font-size="14.00">Attack &#160;</text>
<text text-anchor="start" x="298.88" y="-377.45" font-family="Helvetica,sans-Serif" font-size="14.00">Attack &#160;</text>
<text text-anchor="start" x="298.88" y="-357.7" font-family="Helvetica,sans-Serif" font-size="14.00">Attack &#160;</text>
</g>
<!-- HurtState&#45;&gt;HurtState_linked -->
<g id="edge6" class="edge">
<title>HurtState&#45;&gt;HurtState_linked</title>
<path fill="none" stroke="#66cdaa" d="M159.78,-382.88C199.37,-382.88 248.4,-382.88 281.8,-382.88"/>
<polygon fill="#66cdaa" stroke="#66cdaa" points="281.4,-386.38 291.4,-382.88 281.4,-379.38 281.4,-386.38"/>
<text text-anchor="middle" x="220.62" y="-385.32" font-family="Helvetica,sans-Serif" font-size="14.00" fill="#66cdaa">QueueEnd</text>
</g>
<!-- Hurt_BigState -->
<g id="node9" class="node">
<title>Hurt_BigState</title>
<polygon fill="none" stroke="black" points="34.5,-302 34.5,-323.75 151.5,-323.75 151.5,-302 34.5,-302"/>
<text text-anchor="start" x="47.25" y="-307.45" font-family="Helvetica,sans-Serif" font-size="14.00">Hurt_BigState &#160;</text>
<polygon fill="none" stroke="black" points="34.5,-270 34.5,-302 151.5,-302 151.5,-270 34.5,-270"/>
<text text-anchor="start" x="37.5" y="-288.6" font-family="Helvetica,sans-Serif" font-size="12.00" fill="#838b8b">0.00s: EnableGravity</text>
<text text-anchor="start" x="37.5" y="-274.7" font-family="Helvetica,sans-Serif" font-size="12.00" fill="#838b8b">1.00s: Done</text>
<text text-anchor="start" x="102" y="-274.7" font-family="Helvetica,sans-Serif" font-size="14.00"> &#160;</text>
</g>
<!-- Hurt_BigState&#45;&gt;PreAttack -->
<g id="edge7" class="edge">
<title>Hurt_BigState&#45;&gt;PreAttack</title>
<path fill="none" stroke="#cdc8b1" d="M159.48,-299.19C195.69,-300.47 239.87,-302.03 272.77,-303.19"/>
<polygon fill="#cdc8b1" stroke="#cdc8b1" points="272.28,-306.68 282.39,-303.53 272.52,-299.68 272.28,-306.68"/>
</g>
<!-- PostureBreak -->
<g id="node10" class="node">
<title>PostureBreak</title>
<polygon fill="none" stroke="black" points="34.5,-474 34.5,-495.75 151.5,-495.75 151.5,-474 34.5,-474"/>
<text text-anchor="start" x="48.38" y="-479.45" font-family="Helvetica,sans-Serif" font-size="14.00">PostureBreak &#160;</text>
<polygon fill="none" stroke="black" points="34.5,-442 34.5,-474 151.5,-474 151.5,-442 34.5,-442"/>
<text text-anchor="start" x="37.5" y="-460.6" font-family="Helvetica,sans-Serif" font-size="12.00" fill="#838b8b">0.00s: EnableGravity</text>
<text text-anchor="start" x="37.5" y="-446.7" font-family="Helvetica,sans-Serif" font-size="12.00" fill="#838b8b">0.17s: Done</text>
<text text-anchor="start" x="102" y="-446.7" font-family="Helvetica,sans-Serif" font-size="14.00"> &#160;</text>
</g>
<!-- DeadState -->
<g id="node11" class="node">
<title>DeadState</title>
<polygon fill="none" stroke="black" points="361.25,-486.88 281.5,-486.88 281.5,-450.88 361.25,-450.88 361.25,-486.88"/>
<text text-anchor="middle" x="321.38" y="-463.45" font-family="Helvetica,sans-Serif" font-size="14.00">DeadState</text>
</g>
<!-- PostureBreak&#45;&gt;DeadState -->
<g id="edge8" class="edge">
<title>PostureBreak&#45;&gt;DeadState</title>
<path fill="none" stroke="#cdc8b1" d="M159.48,-468.88C194.6,-468.88 237.22,-468.88 269.77,-468.88"/>
<polygon fill="#cdc8b1" stroke="#cdc8b1" points="269.77,-472.38 279.76,-468.88 269.76,-465.38 269.77,-472.38"/>
</g>
<!-- Wandering_Idle -->
<g id="node12" class="node">
<title>Wandering_Idle</title>
<polygon fill="none" stroke="black" points="163.62,-553.88 22.38,-553.88 22.38,-517.88 163.62,-517.88 163.62,-553.88"/>
<text text-anchor="middle" x="93" y="-530.45" font-family="Helvetica,sans-Serif" font-size="14.00">Wandering_Idle (Init)</text>
</g>
<!-- Level Once Sensor -->
<g id="node13" class="node">
<title>Level Once Sensor</title>
<polygon fill="none" stroke="black" points="158.75,-609.88 27.25,-609.88 27.25,-573.88 158.75,-573.88 158.75,-609.88"/>
<text text-anchor="middle" x="93" y="-586.45" font-family="Helvetica,sans-Serif" font-size="14.00">Level Once Sensor</text>
</g>
<!-- Level Once Sensor_linked -->
<g id="node14" class="node">
<title>Level Once Sensor_linked</title>
<polygon fill="none" stroke="black" stroke-dasharray="1,5" points="349.48,-605.88 293.27,-605.88 293.27,-569.88 349.48,-569.88 349.48,-605.88"/>
<text text-anchor="start" x="298.88" y="-582.45" font-family="Helvetica,sans-Serif" font-size="14.00">Attack &#160;</text>
</g>
<!-- Level Once Sensor&#45;&gt;Level Once Sensor_linked -->
<g id="edge9" class="edge">
<title>Level Once Sensor&#45;&gt;Level Once Sensor_linked</title>
<path fill="none" stroke="#66cdaa" d="M159.17,-590.72C198.9,-590.02 248.31,-589.15 281.88,-588.56"/>
<polygon fill="#66cdaa" stroke="#66cdaa" points="281.61,-592.06 291.54,-588.38 281.48,-585.06 281.61,-592.06"/>
<text text-anchor="middle" x="220.62" y="-592.56" font-family="Helvetica,sans-Serif" font-size="14.00" fill="#66cdaa">QueueEnd</text>
</g>
<!-- Level Once Sensor_mustuse -->
<g id="node15" class="node">
<title>Level Once Sensor_mustuse</title>
<polygon fill="none" stroke="black" stroke-dasharray="1,5" points="371.5,-659.88 271.25,-659.88 271.25,-623.88 371.5,-623.88 371.5,-659.88"/>
<text text-anchor="start" x="281.25" y="-636.45" font-family="Helvetica,sans-Serif" font-size="14.00">1 Undefined &#160;</text>
</g>
<!-- Level Once Sensor&#45;&gt;Level Once Sensor_mustuse -->
<g id="edge10" class="edge">
<title>Level Once Sensor&#45;&gt;Level Once Sensor_mustuse</title>
<path fill="none" stroke="#458b74" d="M159.17,-606.27C190.93,-613.28 228.88,-621.67 259.98,-628.53"/>
<polygon fill="#458b74" stroke="#458b74" points="259.1,-631.93 269.62,-630.67 260.61,-625.09 259.1,-631.93"/>
<text text-anchor="middle" x="220.62" y="-628.15" font-family="Helvetica,sans-Serif" font-size="14.00" fill="#458b74">Weight</text>
</g>
<!-- TeleportSensor -->
<g id="node16" class="node">
<title>TeleportSensor</title>
<polygon fill="none" stroke="black" points="146.38,-665.88 39.63,-665.88 39.63,-629.88 146.38,-629.88 146.38,-665.88"/>
<text text-anchor="middle" x="93" y="-642.45" font-family="Helvetica,sans-Serif" font-size="14.00">TeleportSensor</text>
</g>
<!-- TeleportSensor_linked -->
<g id="node17" class="node">
<title>TeleportSensor_linked</title>
<polygon fill="none" stroke="black" stroke-dasharray="1,5" points="349.48,-713.88 293.27,-713.88 293.27,-677.88 349.48,-677.88 349.48,-713.88"/>
<text text-anchor="start" x="298.88" y="-690.45" font-family="Helvetica,sans-Serif" font-size="14.00">Attack &#160;</text>
</g>
<!-- TeleportSensor&#45;&gt;TeleportSensor_linked -->
<g id="edge11" class="edge">
<title>TeleportSensor&#45;&gt;TeleportSensor_linked</title>
<path fill="none" stroke="#66cdaa" d="M146.79,-659.07C188.23,-667.86 244.94,-679.88 282.11,-687.76"/>
<polygon fill="#66cdaa" stroke="#66cdaa" points="280.98,-691.1 291.49,-689.75 282.43,-684.25 280.98,-691.1"/>
<text text-anchor="middle" x="220.62" y="-682.8" font-family="Helvetica,sans-Serif" font-size="14.00" fill="#66cdaa">QueueEnd</text>
</g>
<!-- AttackSensor -->
<g id="node18" class="node">
<title>AttackSensor</title>
<polygon fill="none" stroke="black" points="141.12,-719.88 44.88,-719.88 44.88,-683.88 141.12,-683.88 141.12,-719.88"/>
<text text-anchor="middle" x="93" y="-696.45" font-family="Helvetica,sans-Serif" font-size="14.00">AttackSensor</text>
</g>
<!-- AttackSensor_linked -->
<g id="node19" class="node">
<title>AttackSensor_linked</title>
<polygon fill="none" stroke="black" stroke-dasharray="1,5" points="349.48,-767.88 293.27,-767.88 293.27,-731.88 349.48,-731.88 349.48,-767.88"/>
<text text-anchor="start" x="298.88" y="-744.45" font-family="Helvetica,sans-Serif" font-size="14.00">Attack &#160;</text>
</g>
<!-- AttackSensor&#45;&gt;AttackSensor_linked -->
<g id="edge12" class="edge">
<title>AttackSensor&#45;&gt;AttackSensor_linked</title>
<path fill="none" stroke="#66cdaa" d="M141.46,-711.94C183.23,-720.79 243.28,-733.53 282.06,-741.75"/>
<polygon fill="#66cdaa" stroke="#66cdaa" points="280.9,-745.08 291.41,-743.73 282.35,-738.23 280.9,-745.08"/>
<text text-anchor="middle" x="220.62" y="-736.8" font-family="Helvetica,sans-Serif" font-size="14.00" fill="#66cdaa">QueueEnd</text>
</g>
<!-- DodgePredictSensor -->
<g id="node20" class="node">
<title>DodgePredictSensor</title>
<polygon fill="none" stroke="black" points="24,-763.88 24,-785.62 162,-785.62 162,-763.88 24,-763.88"/>
<text text-anchor="start" x="27" y="-769.33" font-family="Helvetica,sans-Serif" font-size="14.00">DodgePredictSensor &#160;</text>
<polygon fill="none" stroke="black" points="24,-742.12 24,-763.88 162,-763.88 162,-742.12 24,-742.12"/>
<text text-anchor="start" x="27" y="-748.58" font-family="Helvetica,sans-Serif" font-size="12.00" fill="#838b8b">if: Dodge</text>
<text text-anchor="start" x="75" y="-748.58" font-family="Helvetica,sans-Serif" font-size="14.00"> &#160;</text>
</g>
<!-- DodgePredictSensor_linked -->
<g id="node21" class="node">
<title>DodgePredictSensor_linked</title>
<polygon fill="none" stroke="black" stroke-dasharray="1,5" points="349.48,-821.88 293.27,-821.88 293.27,-785.88 349.48,-785.88 349.48,-821.88"/>
<text text-anchor="start" x="298.88" y="-798.45" font-family="Helvetica,sans-Serif" font-size="14.00">Attack &#160;</text>
</g>
<!-- DodgePredictSensor&#45;&gt;DodgePredictSensor_linked -->
<g id="edge13" class="edge">
<title>DodgePredictSensor&#45;&gt;DodgePredictSensor_linked</title>
<path fill="none" stroke="#66cdaa" d="M169.69,-777.25C207.31,-783.9 251.14,-791.64 281.8,-797.06"/>
<polygon fill="#66cdaa" stroke="#66cdaa" points="280.92,-800.46 291.38,-798.75 282.14,-793.56 280.92,-800.46"/>
<text text-anchor="middle" x="220.62" y="-793.39" font-family="Helvetica,sans-Serif" font-size="14.00" fill="#66cdaa">QueueEnd</text>
</g>
<!-- AttackPredictSensor -->
<g id="node22" class="node">
<title>AttackPredictSensor</title>
<polygon fill="none" stroke="black" points="25.12,-833.88 25.12,-855.62 160.88,-855.62 160.88,-833.88 25.12,-833.88"/>
<text text-anchor="start" x="28.12" y="-839.33" font-family="Helvetica,sans-Serif" font-size="14.00">AttackPredictSensor &#160;</text>
<polygon fill="none" stroke="black" points="25.12,-812.12 25.12,-833.88 160.88,-833.88 160.88,-812.12 25.12,-812.12"/>
<text text-anchor="start" x="28.12" y="-818.58" font-family="Helvetica,sans-Serif" font-size="12.00" fill="#838b8b">if: Attack</text>
<text text-anchor="start" x="73.12" y="-818.58" font-family="Helvetica,sans-Serif" font-size="14.00"> &#160;</text>
</g>
<!-- AttackPredictSensor_linked -->
<g id="node23" class="node">
<title>AttackPredictSensor_linked</title>
<polygon fill="none" stroke="black" stroke-dasharray="1,5" points="349.48,-875.88 293.27,-875.88 293.27,-839.88 349.48,-839.88 349.48,-875.88"/>
<text text-anchor="start" x="298.88" y="-852.45" font-family="Helvetica,sans-Serif" font-size="14.00">Attack &#160;</text>
</g>
<!-- AttackPredictSensor&#45;&gt;AttackPredictSensor_linked -->
<g id="edge14" class="edge">
<title>AttackPredictSensor&#45;&gt;AttackPredictSensor_linked</title>
<path fill="none" stroke="#66cdaa" d="M168.75,-841.8C206.55,-845.81 250.84,-850.5 281.75,-853.78"/>
<polygon fill="#66cdaa" stroke="#66cdaa" points="281.09,-857.23 291.4,-854.8 281.83,-850.27 281.09,-857.23"/>
<text text-anchor="middle" x="220.62" y="-852.56" font-family="Helvetica,sans-Serif" font-size="14.00" fill="#66cdaa">QueueEnd</text>
</g>
<!-- AttackRunToSensor -->
<g id="node24" class="node">
<title>AttackRunToSensor</title>
<polygon fill="none" stroke="black" points="26.62,-903.88 26.62,-925.62 159.38,-925.62 159.38,-903.88 26.62,-903.88"/>
<text text-anchor="start" x="29.62" y="-909.33" font-family="Helvetica,sans-Serif" font-size="14.00">AttackRunToSensor &#160;</text>
<polygon fill="none" stroke="black" points="26.62,-882.12 26.62,-903.88 159.38,-903.88 159.38,-882.12 26.62,-882.12"/>
<text text-anchor="start" x="29.62" y="-888.58" font-family="Helvetica,sans-Serif" font-size="12.00" fill="#838b8b">if: state is Engaging</text>
<text text-anchor="start" x="133.88" y="-888.58" font-family="Helvetica,sans-Serif" font-size="14.00"> &#160;</text>
</g>
<!-- AttackRunToSensor_linked -->
<g id="node25" class="node">
<title>AttackRunToSensor_linked</title>
<polygon fill="none" stroke="black" stroke-dasharray="1,5" points="349.48,-929.88 293.27,-929.88 293.27,-893.88 349.48,-893.88 349.48,-929.88"/>
<text text-anchor="start" x="298.88" y="-906.45" font-family="Helvetica,sans-Serif" font-size="14.00">Attack &#160;</text>
</g>
<!-- AttackRunToSensor&#45;&gt;AttackRunToSensor_linked -->
<g id="edge15" class="edge">
<title>AttackRunToSensor&#45;&gt;AttackRunToSensor_linked</title>
<path fill="none" stroke="#66cdaa" d="M167.18,-906.46C205.21,-907.81 250.16,-909.39 281.49,-910.5"/>
<polygon fill="#66cdaa" stroke="#66cdaa" points="281.16,-913.99 291.28,-910.85 281.41,-907 281.16,-913.99"/>
<text text-anchor="middle" x="220.62" y="-911.74" font-family="Helvetica,sans-Serif" font-size="14.00" fill="#66cdaa">QueueEnd</text>
</g>
<!-- ShootSensor -->
<g id="node26" class="node">
<title>ShootSensor</title>
<polygon fill="none" stroke="black" points="140,-983.88 46,-983.88 46,-947.88 140,-947.88 140,-983.88"/>
<text text-anchor="middle" x="93" y="-960.45" font-family="Helvetica,sans-Serif" font-size="14.00">ShootSensor</text>
</g>
<!-- ShootSensor_linked -->
<g id="node27" class="node">
<title>ShootSensor_linked</title>
<polygon fill="none" stroke="black" stroke-dasharray="1,5" points="348.38,-983.88 294.38,-983.88 294.38,-947.88 348.38,-947.88 348.38,-983.88"/>
<text text-anchor="start" x="300" y="-960.45" font-family="Helvetica,sans-Serif" font-size="14.00">Shoot &#160;</text>
</g>
<!-- ShootSensor&#45;&gt;ShootSensor_linked -->
<g id="edge16" class="edge">
<title>ShootSensor&#45;&gt;ShootSensor_linked</title>
<path fill="none" stroke="#66cdaa" d="M140.36,-965.88C182.32,-965.88 243.39,-965.88 282.5,-965.88"/>
<polygon fill="#66cdaa" stroke="#66cdaa" points="282.37,-969.38 292.37,-965.88 282.37,-962.38 282.37,-969.38"/>
<text text-anchor="middle" x="220.62" y="-968.33" font-family="Helvetica,sans-Serif" font-size="14.00" fill="#66cdaa">QueueEnd</text>
</g>
</g>
</svg>
