<?xml version="1.0" encoding="UTF-8" standalone="no"?>
<!DOCTYPE svg PUBLIC "-//W3C//DTD SVG 1.1//EN"
 "http://www.w3.org/Graphics/SVG/1.1/DTD/svg11.dtd">
<!-- Generated by graphviz version 12.2.1 (20241206.2353)
 -->
<!-- Title: Foo Pages: 1 -->
<svg width="376pt" height="1134pt"
 viewBox="0.00 0.00 376.38 1134.00" xmlns="http://www.w3.org/2000/svg" xmlns:xlink="http://www.w3.org/1999/xlink">
<g id="graph0" class="graph" transform="scale(1 1) rotate(0) translate(4 1130)">
<title>Foo</title>
<polygon fill="white" stroke="none" points="-4,4 -4,-1130 372.38,-1130 372.38,4 -4,4"/>
<g id="clust1" class="cluster">
<title>cluster_attacksensors</title>
<polygon fill="none" stroke="black" points="8,-8 8,-472 360.38,-472 360.38,-8 8,-8"/>
<text text-anchor="middle" x="184.19" y="-454.7" font-family="Helvetica,sans-Serif" font-size="14.00">Attack Sensors</text>
</g>
<!-- Level Once Sensor -->
<g id="node1" class="node">
<title>Level Once Sensor</title>
<polygon fill="none" stroke="black" points="28.5,-33.12 28.5,-54.88 157.5,-54.88 157.5,-33.12 28.5,-33.12"/>
<text text-anchor="start" x="31.5" y="-38.58" font-family="Helvetica,sans-Serif" font-size="14.00">Level Once Sensor &#160;</text>
</g>
<!-- Level Once Sensor_linked -->
<g id="node2" class="node">
<title>Level Once Sensor_linked</title>
<polygon fill="none" stroke="black" stroke-dasharray="1,5" points="342.73,-52 286.52,-52 286.52,-16 342.73,-16 342.73,-52"/>
<text text-anchor="start" x="292.12" y="-28.57" font-family="Helvetica,sans-Serif" font-size="14.00">Attack &#160;</text>
</g>
<!-- Level Once Sensor&#45;&gt;Level Once Sensor_linked -->
<g id="edge1" class="edge">
<title>Level Once Sensor&#45;&gt;Level Once Sensor_linked</title>
<path fill="none" stroke="#66cdaa" d="M165.31,-40.75C201.68,-39.1 244.52,-37.15 274.78,-35.77"/>
<polygon fill="#66cdaa" stroke="#66cdaa" points="274.78,-39.27 284.61,-35.32 274.46,-32.28 274.78,-39.27"/>
<text text-anchor="middle" x="220.62" y="-42.05" font-family="Helvetica,sans-Serif" font-size="14.00" fill="#66cdaa">QueueEnd</text>
</g>
<!-- Level Once Sensor_weight -->
<g id="node3" class="node">
<title>Level Once Sensor_weight</title>
<polygon fill="none" stroke="black" stroke-dasharray="1,5" points="352.38,-106 276.88,-106 276.88,-70 352.38,-70 352.38,-106"/>
<text text-anchor="start" x="286.88" y="-82.58" font-family="Helvetica,sans-Serif" font-size="14.00">1 Attack &#160;</text>
</g>
<!-- Level Once Sensor&#45;&gt;Level Once Sensor_weight -->
<g id="edge2" class="edge">
<title>Level Once Sensor&#45;&gt;Level Once Sensor_weight</title>
<path fill="none" stroke="#458b74" d="M165.31,-58.29C198.04,-64.84 235.99,-72.45 265.31,-78.32"/>
<polygon fill="#458b74" stroke="#458b74" points="264.52,-81.73 275.02,-80.27 265.9,-74.87 264.52,-81.73"/>
<text text-anchor="middle" x="220.62" y="-77.45" font-family="Helvetica,sans-Serif" font-size="14.00" fill="#458b74">Weight</text>
</g>
<!-- TeleportSensor -->
<g id="node4" class="node">
<title>TeleportSensor</title>
<polygon fill="none" stroke="black" points="40.88,-93.12 40.88,-114.88 145.12,-114.88 145.12,-93.12 40.88,-93.12"/>
<text text-anchor="start" x="43.88" y="-98.58" font-family="Helvetica,sans-Serif" font-size="14.00">TeleportSensor &#160;</text>
</g>
<!-- TeleportSensor_linked -->
<g id="node5" class="node">
<title>TeleportSensor_linked</title>
<polygon fill="none" stroke="black" stroke-dasharray="1,5" points="342.73,-160 286.52,-160 286.52,-124 342.73,-124 342.73,-160"/>
<text text-anchor="start" x="292.12" y="-136.57" font-family="Helvetica,sans-Serif" font-size="14.00">Attack &#160;</text>
</g>
<!-- TeleportSensor&#45;&gt;TeleportSensor_linked -->
<g id="edge3" class="edge">
<title>TeleportSensor&#45;&gt;TeleportSensor_linked</title>
<path fill="none" stroke="#66cdaa" d="M152.86,-114.18C191.61,-120.89 241.25,-129.48 275.05,-135.33"/>
<polygon fill="#66cdaa" stroke="#66cdaa" points="274.36,-138.76 284.81,-137.01 275.56,-131.86 274.36,-138.76"/>
<text text-anchor="middle" x="220.62" y="-133.22" font-family="Helvetica,sans-Serif" font-size="14.00" fill="#66cdaa">QueueEnd</text>
</g>
<!-- AttackSensor -->
<g id="node6" class="node">
<title>AttackSensor</title>
<polygon fill="none" stroke="black" points="46.12,-147.12 46.12,-168.88 139.88,-168.88 139.88,-147.12 46.12,-147.12"/>
<text text-anchor="start" x="49.12" y="-152.57" font-family="Helvetica,sans-Serif" font-size="14.00">AttackSensor &#160;</text>
</g>
<!-- AttackSensor_linked -->
<g id="node7" class="node">
<title>AttackSensor_linked</title>
<polygon fill="none" stroke="black" stroke-dasharray="1,5" points="347.98,-224.35 281.27,-224.35 281.27,-177.65 347.98,-177.65 347.98,-224.35"/>
<text text-anchor="start" x="292.12" y="-205.45" font-family="Helvetica,sans-Serif" font-size="14.00">Attack &#160;</text>
<text text-anchor="start" x="286.88" y="-185.7" font-family="Helvetica,sans-Serif" font-size="14.00">Teleport &#160;</text>
</g>
<!-- AttackSensor&#45;&gt;AttackSensor_linked -->
<g id="edge4" class="edge">
<title>AttackSensor&#45;&gt;AttackSensor_linked</title>
<path fill="none" stroke="#66cdaa" d="M147.73,-168.52C185.31,-175.88 234.88,-185.58 270.02,-192.46"/>
<polygon fill="#66cdaa" stroke="#66cdaa" points="268.91,-195.81 279.4,-194.3 270.26,-188.94 268.91,-195.81"/>
<text text-anchor="middle" x="220.62" y="-190.74" font-family="Helvetica,sans-Serif" font-size="14.00" fill="#66cdaa">QueueEnd</text>
</g>
<!-- DodgePredictSensor -->
<g id="node8" class="node">
<title>DodgePredictSensor</title>
<polygon fill="none" stroke="black" points="24,-220 24,-241.75 162,-241.75 162,-220 24,-220"/>
<text text-anchor="start" x="27" y="-225.45" font-family="Helvetica,sans-Serif" font-size="14.00">DodgePredictSensor &#160;</text>
<polygon fill="none" stroke="black" points="24,-198.25 24,-220 162,-220 162,-198.25 24,-198.25"/>
<text text-anchor="start" x="27" y="-204.7" font-family="Helvetica,sans-Serif" font-size="12.00" fill="#838b8b">if: rollingCondition</text>
<text text-anchor="start" x="123.75" y="-204.7" font-family="Helvetica,sans-Serif" font-size="14.00"> &#160;</text>
</g>
<!-- DodgePredictSensor_linked -->
<g id="node9" class="node">
<title>DodgePredictSensor_linked</title>
<polygon fill="none" stroke="black" stroke-dasharray="1,5" points="342.73,-278 286.52,-278 286.52,-242 342.73,-242 342.73,-278"/>
<text text-anchor="start" x="292.12" y="-254.57" font-family="Helvetica,sans-Serif" font-size="14.00">Attack &#160;</text>
</g>
<!-- DodgePredictSensor&#45;&gt;DodgePredictSensor_linked -->
<g id="edge5" class="edge">
<title>DodgePredictSensor&#45;&gt;DodgePredictSensor_linked</title>
<path fill="none" stroke="#66cdaa" d="M169.89,-233.82C205.31,-240.27 245.94,-247.67 274.95,-252.96"/>
<polygon fill="#66cdaa" stroke="#66cdaa" points="274.28,-256.39 284.75,-254.74 275.54,-249.51 274.28,-256.39"/>
<text text-anchor="middle" x="220.62" y="-250.63" font-family="Helvetica,sans-Serif" font-size="14.00" fill="#66cdaa">QueueEnd</text>
</g>
<!-- AttackPredictSensor -->
<g id="node10" class="node">
<title>AttackPredictSensor</title>
<polygon fill="none" stroke="black" points="25.12,-290 25.12,-311.75 160.88,-311.75 160.88,-290 25.12,-290"/>
<text text-anchor="start" x="28.12" y="-295.45" font-family="Helvetica,sans-Serif" font-size="14.00">AttackPredictSensor &#160;</text>
<polygon fill="none" stroke="black" points="25.12,-268.25 25.12,-290 160.88,-290 160.88,-268.25 25.12,-268.25"/>
<text text-anchor="start" x="28.12" y="-274.7" font-family="Helvetica,sans-Serif" font-size="12.00" fill="#838b8b">if: attackCondition</text>
<text text-anchor="start" x="123.38" y="-274.7" font-family="Helvetica,sans-Serif" font-size="14.00"> &#160;</text>
</g>
<!-- AttackPredictSensor_linked -->
<g id="node11" class="node">
<title>AttackPredictSensor_linked</title>
<polygon fill="none" stroke="black" stroke-dasharray="1,5" points="342.73,-332 286.52,-332 286.52,-296 342.73,-296 342.73,-332"/>
<text text-anchor="start" x="292.12" y="-308.57" font-family="Helvetica,sans-Serif" font-size="14.00">Attack &#160;</text>
</g>
<!-- AttackPredictSensor&#45;&gt;AttackPredictSensor_linked -->
<g id="edge6" class="edge">
<title>AttackPredictSensor&#45;&gt;AttackPredictSensor_linked</title>
<path fill="none" stroke="#66cdaa" d="M168.66,-298.16C204.29,-302.05 245.44,-306.55 274.78,-309.75"/>
<polygon fill="#66cdaa" stroke="#66cdaa" points="274.36,-313.23 284.68,-310.84 275.12,-306.27 274.36,-313.23"/>
<text text-anchor="middle" x="220.62" y="-309.36" font-family="Helvetica,sans-Serif" font-size="14.00" fill="#66cdaa">QueueEnd</text>
</g>
<!-- AttackRunToSensor -->
<g id="node12" class="node">
<title>AttackRunToSensor</title>
<polygon fill="none" stroke="black" points="26.62,-360 26.62,-381.75 159.38,-381.75 159.38,-360 26.62,-360"/>
<text text-anchor="start" x="29.62" y="-365.45" font-family="Helvetica,sans-Serif" font-size="14.00">AttackRunToSensor &#160;</text>
<polygon fill="none" stroke="black" points="26.62,-338.25 26.62,-360 159.38,-360 159.38,-338.25 26.62,-338.25"/>
<text text-anchor="start" x="29.62" y="-344.7" font-family="Helvetica,sans-Serif" font-size="12.00" fill="#838b8b">if: state is Engaging</text>
<text text-anchor="start" x="133.88" y="-344.7" font-family="Helvetica,sans-Serif" font-size="14.00"> &#160;</text>
</g>
<!-- AttackRunToSensor_linked -->
<g id="node13" class="node">
<title>AttackRunToSensor_linked</title>
<polygon fill="none" stroke="black" stroke-dasharray="1,5" points="342.73,-386 286.52,-386 286.52,-350 342.73,-350 342.73,-386"/>
<text text-anchor="start" x="292.12" y="-362.57" font-family="Helvetica,sans-Serif" font-size="14.00">Attack &#160;</text>
</g>
<!-- AttackRunToSensor&#45;&gt;AttackRunToSensor_linked -->
<g id="edge7" class="edge">
<title>AttackRunToSensor&#45;&gt;AttackRunToSensor_linked</title>
<path fill="none" stroke="#66cdaa" d="M167.13,-362.66C203.15,-363.98 245.13,-365.5 274.89,-366.59"/>
<polygon fill="#66cdaa" stroke="#66cdaa" points="274.42,-370.07 284.54,-366.94 274.67,-363.08 274.42,-370.07"/>
<text text-anchor="middle" x="220.62" y="-368.09" font-family="Helvetica,sans-Serif" font-size="14.00" fill="#66cdaa">QueueEnd</text>
</g>
<!-- ShootSensor -->
<g id="node14" class="node">
<title>ShootSensor</title>
<polygon fill="none" stroke="black" points="47.25,-411.12 47.25,-432.88 138.75,-432.88 138.75,-411.12 47.25,-411.12"/>
<text text-anchor="start" x="50.25" y="-416.57" font-family="Helvetica,sans-Serif" font-size="14.00">ShootSensor &#160;</text>
</g>
<!-- ShootSensor_linked -->
<g id="node15" class="node">
<title>ShootSensor_linked</title>
<polygon fill="none" stroke="black" stroke-dasharray="1,5" points="341.62,-440 287.62,-440 287.62,-404 341.62,-404 341.62,-440"/>
<text text-anchor="start" x="293.25" y="-416.57" font-family="Helvetica,sans-Serif" font-size="14.00">Shoot &#160;</text>
</g>
<!-- ShootSensor&#45;&gt;ShootSensor_linked -->
<g id="edge8" class="edge">
<title>ShootSensor&#45;&gt;ShootSensor_linked</title>
<path fill="none" stroke="#66cdaa" d="M146.61,-422C186.51,-422 240.4,-422 276.04,-422"/>
<polygon fill="#66cdaa" stroke="#66cdaa" points="275.87,-425.5 285.87,-422 275.87,-418.5 275.87,-425.5"/>
<text text-anchor="middle" x="220.62" y="-424.45" font-family="Helvetica,sans-Serif" font-size="14.00" fill="#66cdaa">QueueEnd</text>
</g>
<!-- Attack -->
<g id="node16" class="node">
<title>Attack</title>
<polygon fill="none" stroke="black" points="34.12,-794.12 34.12,-815.88 151.88,-815.88 151.88,-794.12 34.12,-794.12"/>
<text text-anchor="start" x="70.5" y="-799.58" font-family="Helvetica,sans-Serif" font-size="14.00">Attack &#160;</text>
<polygon fill="none" stroke="black" points="34.12,-738.12 34.12,-794.12 151.88,-794.12 151.88,-738.12 34.12,-738.12"/>
<text text-anchor="start" x="37.12" y="-780.73" font-family="Helvetica,sans-Serif" font-size="12.00" fill="#838b8b">0.33s: CheckFacing</text>
<text text-anchor="start" x="37.12" y="-768.73" font-family="Helvetica,sans-Serif" font-size="12.00" fill="#838b8b">1.58s: CheckFacing</text>
<text text-anchor="start" x="37.12" y="-756.73" font-family="Helvetica,sans-Serif" font-size="12.00" fill="#838b8b">2.58s: LinkNextMove</text>
<text text-anchor="start" x="37.12" y="-742.83" font-family="Helvetica,sans-Serif" font-size="12.00" fill="#838b8b">2.92s: Done</text>
<text text-anchor="start" x="101.62" y="-742.83" font-family="Helvetica,sans-Serif" font-size="14.00"> &#160;</text>
</g>
<!-- Engaging -->
<g id="node17" class="node">
<title>Engaging</title>
<polygon fill="none" stroke="black" points="351.12,-667 278.12,-667 278.12,-631 351.12,-631 351.12,-667"/>
<text text-anchor="middle" x="314.62" y="-643.58" font-family="Helvetica,sans-Serif" font-size="14.00">Engaging</text>
</g>
<!-- Attack&#45;&gt;Engaging -->
<g id="edge9" class="edge">
<title>Attack&#45;&gt;Engaging</title>
<path fill="none" stroke="#cdc8b1" d="M159.6,-738.77C196.09,-717.5 240.42,-691.67 272.13,-673.19"/>
<polygon fill="#cdc8b1" stroke="#cdc8b1" points="273.77,-676.28 280.65,-668.22 270.24,-670.23 273.77,-676.28"/>
</g>
<!-- Attack_weight -->
<g id="node18" class="node">
<title>Attack_weight</title>
<polygon fill="none" stroke="black" stroke-dasharray="1,5" points="358,-795 271.25,-795 271.25,-759 358,-759 358,-795"/>
<text text-anchor="start" x="281.25" y="-771.58" font-family="Helvetica,sans-Serif" font-size="14.00">1 Teleport &#160;</text>
</g>
<!-- Attack&#45;&gt;Attack_weight -->
<g id="edge10" class="edge">
<title>Attack&#45;&gt;Attack_weight</title>
<path fill="none" stroke="#458b74" d="M159.6,-777C191.54,-777 229.47,-777 259.7,-777"/>
<polygon fill="#458b74" stroke="#458b74" points="259.37,-780.5 269.37,-777 259.37,-773.5 259.37,-780.5"/>
<text text-anchor="middle" x="220.62" y="-779.45" font-family="Helvetica,sans-Serif" font-size="14.00" fill="#458b74">Weight</text>
</g>
<!-- Shoot -->
<g id="node19" class="node">
<title>Shoot</title>
<polygon fill="none" stroke="black" points="54,-690 54,-711.75 132,-711.75 132,-690 54,-690"/>
<text text-anchor="start" x="71.62" y="-695.45" font-family="Helvetica,sans-Serif" font-size="14.00">Shoot &#160;</text>
<polygon fill="none" stroke="black" points="54,-668.25 54,-690 132,-690 132,-668.25 54,-668.25"/>
<text text-anchor="start" x="57" y="-674.7" font-family="Helvetica,sans-Serif" font-size="12.00" fill="#838b8b">2.27s: Done</text>
<text text-anchor="start" x="121.5" y="-674.7" font-family="Helvetica,sans-Serif" font-size="14.00"> &#160;</text>
</g>
<!-- Shoot&#45;&gt;Engaging -->
<g id="edge11" class="edge">
<title>Shoot&#45;&gt;Engaging</title>
<path fill="none" stroke="#cdc8b1" d="M139.77,-681.45C176.91,-674.52 229.08,-664.78 266.56,-657.79"/>
<polygon fill="#cdc8b1" stroke="#cdc8b1" points="267.01,-661.26 276.2,-655.99 265.73,-654.38 267.01,-661.26"/>
</g>
<!-- Teleport -->
<g id="node20" class="node">
<title>Teleport</title>
<polygon fill="none" stroke="black" points="36.75,-620.12 36.75,-641.88 149.25,-641.88 149.25,-620.12 36.75,-620.12"/>
<text text-anchor="start" x="65.25" y="-625.58" font-family="Helvetica,sans-Serif" font-size="14.00">Teleport &#160;</text>
<polygon fill="none" stroke="black" points="36.75,-576.12 36.75,-620.12 149.25,-620.12 149.25,-576.12 36.75,-576.12"/>
<text text-anchor="start" x="39.75" y="-606.73" font-family="Helvetica,sans-Serif" font-size="12.00" fill="#838b8b">0.50s: Shoot</text>
<text text-anchor="start" x="39.75" y="-594.73" font-family="Helvetica,sans-Serif" font-size="12.00" fill="#838b8b">0.92s: CheckFacing</text>
<text text-anchor="start" x="39.75" y="-580.83" font-family="Helvetica,sans-Serif" font-size="12.00" fill="#838b8b">1.85s: Done</text>
<text text-anchor="start" x="104.25" y="-580.83" font-family="Helvetica,sans-Serif" font-size="14.00"> &#160;</text>
</g>
<!-- Teleport&#45;&gt;Engaging -->
<g id="edge12" class="edge">
<title>Teleport&#45;&gt;Engaging</title>
<path fill="none" stroke="#cdc8b1" d="M157.23,-620.52C192.1,-626.87 234.67,-634.62 266.59,-640.43"/>
<polygon fill="#cdc8b1" stroke="#cdc8b1" points="265.88,-643.86 276.34,-642.21 267.13,-636.97 265.88,-643.86"/>
</g>
<!-- AttackParrying -->
<g id="node21" class="node">
<title>AttackParrying</title>
<polygon fill="none" stroke="black" points="34.12,-528.12 34.12,-549.88 151.88,-549.88 151.88,-528.12 34.12,-528.12"/>
<text text-anchor="start" x="45.38" y="-533.58" font-family="Helvetica,sans-Serif" font-size="14.00">AttackParrying &#160;</text>
<polygon fill="none" stroke="black" points="34.12,-484.12 34.12,-528.12 151.88,-528.12 151.88,-484.12 34.12,-484.12"/>
<text text-anchor="start" x="37.12" y="-514.73" font-family="Helvetica,sans-Serif" font-size="12.00" fill="#838b8b">0.00s: EnableGravity</text>
<text text-anchor="start" x="37.12" y="-502.73" font-family="Helvetica,sans-Serif" font-size="12.00" fill="#838b8b">2.40s: LinkNextMove</text>
<text text-anchor="start" x="37.12" y="-488.83" font-family="Helvetica,sans-Serif" font-size="12.00" fill="#838b8b">2.52s: Done</text>
<text text-anchor="start" x="101.62" y="-488.83" font-family="Helvetica,sans-Serif" font-size="14.00"> &#160;</text>
</g>
<!-- AttackParrying&#45;&gt;Engaging -->
<g id="edge13" class="edge">
<title>AttackParrying&#45;&gt;Engaging</title>
<path fill="none" stroke="#cdc8b1" d="M155.18,-553.77C192.91,-576.44 240.23,-604.89 273.3,-624.76"/>
<polygon fill="#cdc8b1" stroke="#cdc8b1" points="271.4,-627.71 281.78,-629.86 275.01,-621.71 271.4,-627.71"/>
</g>
<!-- HurtState -->
<g id="node22" class="node">
<title>HurtState</title>
<polygon fill="none" stroke="black" points="34.12,-966.12 34.12,-987.88 151.88,-987.88 151.88,-966.12 34.12,-966.12"/>
<text text-anchor="start" x="60.75" y="-971.58" font-family="Helvetica,sans-Serif" font-size="14.00">HurtState &#160;</text>
<polygon fill="none" stroke="black" points="34.12,-922.12 34.12,-966.12 151.88,-966.12 151.88,-922.12 34.12,-922.12"/>
<text text-anchor="start" x="37.12" y="-952.73" font-family="Helvetica,sans-Serif" font-size="12.00" fill="#838b8b">0.00s: EnableGravity</text>
<text text-anchor="start" x="37.12" y="-940.73" font-family="Helvetica,sans-Serif" font-size="12.00" fill="#838b8b">0.13s: LinkNextMove</text>
<text text-anchor="start" x="37.12" y="-926.83" font-family="Helvetica,sans-Serif" font-size="12.00" fill="#838b8b">0.17s: Done</text>
<text text-anchor="start" x="101.62" y="-926.83" font-family="Helvetica,sans-Serif" font-size="14.00"> &#160;</text>
</g>
<!-- PreAttack -->
<g id="node23" class="node">
<title>PreAttack</title>
<polygon fill="none" stroke="black" points="351.88,-895 277.38,-895 277.38,-859 351.88,-859 351.88,-895"/>
<text text-anchor="middle" x="314.62" y="-871.58" font-family="Helvetica,sans-Serif" font-size="14.00">PreAttack</text>
</g>
<!-- HurtState&#45;&gt;PreAttack -->
<g id="edge14" class="edge">
<title>HurtState&#45;&gt;PreAttack</title>
<path fill="none" stroke="#cdc8b1" d="M159.6,-931.7C193.97,-919.5 235.28,-904.82 266.46,-893.75"/>
<polygon fill="#cdc8b1" stroke="#cdc8b1" points="267.36,-897.14 275.62,-890.5 265.02,-890.55 267.36,-897.14"/>
</g>
<!-- HurtState_linked -->
<g id="node24" class="node">
<title>HurtState_linked</title>
<polygon fill="none" stroke="black" stroke-dasharray="1,5" points="342.73,-988.23 286.52,-988.23 286.52,-921.77 342.73,-921.77 342.73,-988.23"/>
<text text-anchor="start" x="292.12" y="-969.33" font-family="Helvetica,sans-Serif" font-size="14.00">Attack &#160;</text>
<text text-anchor="start" x="292.12" y="-949.58" font-family="Helvetica,sans-Serif" font-size="14.00">Attack &#160;</text>
<text text-anchor="start" x="292.12" y="-929.83" font-family="Helvetica,sans-Serif" font-size="14.00">Attack &#160;</text>
</g>
<!-- HurtState&#45;&gt;HurtState_linked -->
<g id="edge15" class="edge">
<title>HurtState&#45;&gt;HurtState_linked</title>
<path fill="none" stroke="#66cdaa" d="M159.6,-955C197.03,-955 242.7,-955 274.54,-955"/>
<polygon fill="#66cdaa" stroke="#66cdaa" points="274.51,-958.5 284.51,-955 274.51,-951.5 274.51,-958.5"/>
<text text-anchor="middle" x="220.62" y="-957.45" font-family="Helvetica,sans-Serif" font-size="14.00" fill="#66cdaa">QueueEnd</text>
</g>
<!-- Hurt_BigState -->
<g id="node25" class="node">
<title>Hurt_BigState</title>
<polygon fill="none" stroke="black" points="34.5,-874.12 34.5,-895.88 151.5,-895.88 151.5,-874.12 34.5,-874.12"/>
<text text-anchor="start" x="47.25" y="-879.58" font-family="Helvetica,sans-Serif" font-size="14.00">Hurt_BigState &#160;</text>
<polygon fill="none" stroke="black" points="34.5,-842.12 34.5,-874.12 151.5,-874.12 151.5,-842.12 34.5,-842.12"/>
<text text-anchor="start" x="37.5" y="-860.73" font-family="Helvetica,sans-Serif" font-size="12.00" fill="#838b8b">0.00s: EnableGravity</text>
<text text-anchor="start" x="37.5" y="-846.83" font-family="Helvetica,sans-Serif" font-size="12.00" fill="#838b8b">1.00s: Done</text>
<text text-anchor="start" x="102" y="-846.83" font-family="Helvetica,sans-Serif" font-size="14.00"> &#160;</text>
</g>
<!-- Hurt_BigState&#45;&gt;PreAttack -->
<g id="edge16" class="edge">
<title>Hurt_BigState&#45;&gt;PreAttack</title>
<path fill="none" stroke="#cdc8b1" d="M159.3,-871.38C193.38,-872.62 234.36,-874.11 265.52,-875.25"/>
<polygon fill="#cdc8b1" stroke="#cdc8b1" points="265.31,-878.74 275.43,-875.61 265.56,-871.75 265.31,-878.74"/>
</g>
<!-- PostureBreak -->
<g id="node26" class="node">
<title>PostureBreak</title>
<polygon fill="none" stroke="black" points="34.5,-1046.12 34.5,-1067.88 151.5,-1067.88 151.5,-1046.12 34.5,-1046.12"/>
<text text-anchor="start" x="48.38" y="-1051.58" font-family="Helvetica,sans-Serif" font-size="14.00">PostureBreak &#160;</text>
<polygon fill="none" stroke="black" points="34.5,-1014.12 34.5,-1046.12 151.5,-1046.12 151.5,-1014.12 34.5,-1014.12"/>
<text text-anchor="start" x="37.5" y="-1032.72" font-family="Helvetica,sans-Serif" font-size="12.00" fill="#838b8b">0.00s: EnableGravity</text>
<text text-anchor="start" x="37.5" y="-1018.82" font-family="Helvetica,sans-Serif" font-size="12.00" fill="#838b8b">0.17s: Done</text>
<text text-anchor="start" x="102" y="-1018.82" font-family="Helvetica,sans-Serif" font-size="14.00"> &#160;</text>
</g>
<!-- DeadState -->
<g id="node27" class="node">
<title>DeadState</title>
<polygon fill="none" stroke="black" points="354.5,-1059 274.75,-1059 274.75,-1023 354.5,-1023 354.5,-1059"/>
<text text-anchor="middle" x="314.62" y="-1035.58" font-family="Helvetica,sans-Serif" font-size="14.00">DeadState</text>
</g>
<!-- PostureBreak&#45;&gt;DeadState -->
<g id="edge17" class="edge">
<title>PostureBreak&#45;&gt;DeadState</title>
<path fill="none" stroke="#cdc8b1" d="M159.3,-1041C192.49,-1041 232.2,-1041 263.04,-1041"/>
<polygon fill="#cdc8b1" stroke="#cdc8b1" points="262.87,-1044.5 272.87,-1041 262.87,-1037.5 262.87,-1044.5"/>
</g>
<!-- Wandering_Idle -->
<g id="node28" class="node">
<title>Wandering_Idle</title>
<polygon fill="none" stroke="black" points="163.62,-1126 22.38,-1126 22.38,-1090 163.62,-1090 163.62,-1126"/>
<text text-anchor="middle" x="93" y="-1102.58" font-family="Helvetica,sans-Serif" font-size="14.00">Wandering_Idle (Init)</text>
</g>
</g>
</svg>
