<?xml version="1.0" encoding="UTF-8" standalone="no"?>
<!DOCTYPE svg PUBLIC "-//W3C//DTD SVG 1.1//EN"
 "http://www.w3.org/Graphics/SVG/1.1/DTD/svg11.dtd">
<!-- Generated by graphviz version 12.2.1 (20241206.2353)
 -->
<!-- Title: Foo Pages: 1 -->
<svg width="459pt" height="1919pt"
 viewBox="0.00 0.00 458.70 1919.38" xmlns="http://www.w3.org/2000/svg" xmlns:xlink="http://www.w3.org/1999/xlink">
<g id="graph0" class="graph" transform="scale(1 1) rotate(0) translate(4 1915.38)">
<title>Foo</title>
<polygon fill="white" stroke="none" points="-4,4 -4,-1915.38 454.7,-1915.38 454.7,4 -4,4"/>
<g id="clust1" class="cluster">
<title>cluster_attacksensors</title>
<polygon fill="none" stroke="black" points="8,-1278.38 8,-1903.38 442.7,-1903.38 442.7,-1278.38 8,-1278.38"/>
<text text-anchor="middle" x="225.35" y="-1886.08" font-family="Helvetica,sans-Serif" font-size="14.00">Attack Sensors</text>
</g>
<!-- Attack1 RunPush -->
<g id="node1" class="node">
<title>Attack1 RunPush</title>
<polygon fill="none" stroke="black" points="34.12,-1110.5 34.12,-1132.25 151.88,-1132.25 151.88,-1110.5 34.12,-1110.5"/>
<text text-anchor="start" x="37.12" y="-1115.95" font-family="Helvetica,sans-Serif" font-size="14.00">Attack1 RunPush &#160;</text>
<polygon fill="none" stroke="black" points="34.12,-1078.5 34.12,-1110.5 151.88,-1110.5 151.88,-1078.5 34.12,-1078.5"/>
<text text-anchor="start" x="37.12" y="-1097.1" font-family="Helvetica,sans-Serif" font-size="12.00" fill="#838b8b">2.50s: LinkNextMove</text>
<text text-anchor="start" x="37.12" y="-1083.2" font-family="Helvetica,sans-Serif" font-size="12.00" fill="#838b8b">3.17s: Done</text>
<text text-anchor="start" x="101.62" y="-1083.2" font-family="Helvetica,sans-Serif" font-size="14.00"> &#160;</text>
</g>
<!-- PreAttack -->
<g id="node2" class="node">
<title>PreAttack</title>
<polygon fill="none" stroke="black" points="393.6,-595.38 319.1,-595.38 319.1,-559.38 393.6,-559.38 393.6,-595.38"/>
<text text-anchor="middle" x="356.35" y="-571.95" font-family="Helvetica,sans-Serif" font-size="14.00">PreAttack</text>
</g>
<!-- Attack1 RunPush&#45;&gt;PreAttack -->
<g id="edge1" class="edge">
<title>Attack1 RunPush&#45;&gt;PreAttack</title>
<path fill="none" stroke="#cdc8b1" d="M159.78,-1096.26C195.31,-1087.73 236.57,-1071.23 260,-1039.38 291.29,-996.82 267.33,-854.1 278,-802.38 292.99,-729.74 325,-648.32 342.78,-606.16"/>
<polygon fill="#cdc8b1" stroke="#cdc8b1" points="345.99,-607.56 346.7,-596.99 339.55,-604.81 345.99,-607.56"/>
</g>
<!-- Attack1 RunPush_mustuse -->
<g id="node3" class="node">
<title>Attack1 RunPush_mustuse</title>
<polygon fill="none" stroke="black" stroke-dasharray="1,5" points="406.48,-1148.88 306.23,-1148.88 306.23,-1061.88 406.48,-1061.88 406.48,-1148.88"/>
<text text-anchor="start" x="316.23" y="-1129.58" font-family="Helvetica,sans-Serif" font-size="14.00">1 Undefined &#160;</text>
<text text-anchor="start" x="316.23" y="-1109.83" font-family="Helvetica,sans-Serif" font-size="14.00">1 Undefined &#160;</text>
<text text-anchor="start" x="316.23" y="-1090.08" font-family="Helvetica,sans-Serif" font-size="14.00">1 Undefined &#160;</text>
<text text-anchor="start" x="333.85" y="-1070.33" font-family="Helvetica,sans-Serif" font-size="14.00">1 Skip &#160;</text>
</g>
<!-- Attack1 RunPush&#45;&gt;Attack1 RunPush_mustuse -->
<g id="edge2" class="edge">
<title>Attack1 RunPush&#45;&gt;Attack1 RunPush_mustuse</title>
<path fill="none" stroke="#458b74" d="M159.61,-1105.38C200.99,-1105.38 254.04,-1105.38 294.48,-1105.38"/>
<polygon fill="#458b74" stroke="#458b74" points="294.28,-1108.88 304.28,-1105.38 294.28,-1101.88 294.28,-1108.88"/>
<text text-anchor="middle" x="227.38" y="-1107.83" font-family="Helvetica,sans-Serif" font-size="14.00" fill="#458b74">Weight</text>
</g>
<!-- DoubleAttack -->
<g id="node4" class="node">
<title>DoubleAttack</title>
<polygon fill="none" stroke="black" points="34.12,-938.5 34.12,-960.25 151.88,-960.25 151.88,-938.5 34.12,-938.5"/>
<text text-anchor="start" x="49.12" y="-943.95" font-family="Helvetica,sans-Serif" font-size="14.00">DoubleAttack &#160;</text>
<polygon fill="none" stroke="black" points="34.12,-894.5 34.12,-938.5 151.88,-938.5 151.88,-894.5 34.12,-894.5"/>
<text text-anchor="start" x="37.12" y="-925.1" font-family="Helvetica,sans-Serif" font-size="12.00" fill="#838b8b">1.00s: CheckFacing</text>
<text text-anchor="start" x="37.12" y="-913.1" font-family="Helvetica,sans-Serif" font-size="12.00" fill="#838b8b">1.83s: LinkNextMove</text>
<text text-anchor="start" x="37.12" y="-899.2" font-family="Helvetica,sans-Serif" font-size="12.00" fill="#838b8b">1.92s: Done</text>
<text text-anchor="start" x="101.62" y="-899.2" font-family="Helvetica,sans-Serif" font-size="14.00"> &#160;</text>
</g>
<!-- DoubleAttack&#45;&gt;PreAttack -->
<g id="edge3" class="edge">
<title>DoubleAttack&#45;&gt;PreAttack</title>
<path fill="none" stroke="#cdc8b1" d="M159.84,-912.54C193.83,-901.81 233.61,-884.02 260,-855.38 276.86,-837.08 269.96,-825.92 278,-802.38 302.04,-732.02 330.51,-649.37 345.3,-606.49"/>
<polygon fill="#cdc8b1" stroke="#cdc8b1" points="348.56,-607.77 348.52,-597.17 341.95,-605.48 348.56,-607.77"/>
</g>
<!-- DoubleAttack_mustuse -->
<g id="node5" class="node">
<title>DoubleAttack_mustuse</title>
<polygon fill="none" stroke="black" stroke-dasharray="1,5" points="406.48,-970.88 306.23,-970.88 306.23,-883.88 406.48,-883.88 406.48,-970.88"/>
<text text-anchor="start" x="316.23" y="-951.58" font-family="Helvetica,sans-Serif" font-size="14.00">2 Undefined &#160;</text>
<text text-anchor="start" x="316.23" y="-931.83" font-family="Helvetica,sans-Serif" font-size="14.00">0 Undefined &#160;</text>
<text text-anchor="start" x="316.23" y="-912.08" font-family="Helvetica,sans-Serif" font-size="14.00">0 Undefined &#160;</text>
<text text-anchor="start" x="316.23" y="-892.33" font-family="Helvetica,sans-Serif" font-size="14.00">1 Undefined &#160;</text>
</g>
<!-- DoubleAttack&#45;&gt;DoubleAttack_mustuse -->
<g id="edge4" class="edge">
<title>DoubleAttack&#45;&gt;DoubleAttack_mustuse</title>
<path fill="none" stroke="#458b74" d="M159.61,-927.38C200.99,-927.38 254.04,-927.38 294.48,-927.38"/>
<polygon fill="#458b74" stroke="#458b74" points="294.28,-930.88 304.28,-927.38 294.28,-923.88 294.28,-930.88"/>
<text text-anchor="middle" x="227.38" y="-929.83" font-family="Helvetica,sans-Serif" font-size="14.00" fill="#458b74">Weight</text>
</g>
<!-- DangerSpear -->
<g id="node6" class="node">
<title>DangerSpear</title>
<polygon fill="none" stroke="black" points="34.12,-502.5 34.12,-524.25 151.88,-524.25 151.88,-502.5 34.12,-502.5"/>
<text text-anchor="start" x="49.12" y="-507.95" font-family="Helvetica,sans-Serif" font-size="14.00">DangerSpear &#160;</text>
<polygon fill="none" stroke="black" points="34.12,-458.5 34.12,-502.5 151.88,-502.5 151.88,-458.5 34.12,-458.5"/>
<text text-anchor="start" x="37.12" y="-489.1" font-family="Helvetica,sans-Serif" font-size="12.00" fill="#838b8b">0.33s: CheckFacing</text>
<text text-anchor="start" x="37.12" y="-477.1" font-family="Helvetica,sans-Serif" font-size="12.00" fill="#838b8b">2.50s: LinkNextMove</text>
<text text-anchor="start" x="37.12" y="-463.2" font-family="Helvetica,sans-Serif" font-size="12.00" fill="#838b8b">2.57s: Done</text>
<text text-anchor="start" x="101.62" y="-463.2" font-family="Helvetica,sans-Serif" font-size="14.00"> &#160;</text>
</g>
<!-- DangerSpear&#45;&gt;PreAttack -->
<g id="edge5" class="edge">
<title>DangerSpear&#45;&gt;PreAttack</title>
<path fill="none" stroke="#cdc8b1" d="M159.61,-512.97C205.73,-528.14 266.38,-548.1 307.87,-561.75"/>
<polygon fill="#cdc8b1" stroke="#cdc8b1" points="306.74,-565.06 317.33,-564.86 308.93,-558.41 306.74,-565.06"/>
</g>
<!-- RunPoke(For Enaging) -->
<g id="node7" class="node">
<title>RunPoke(For Enaging)</title>
<polygon fill="none" stroke="black" points="17.25,-846.5 17.25,-868.25 168.75,-868.25 168.75,-846.5 17.25,-846.5"/>
<text text-anchor="start" x="20.25" y="-851.95" font-family="Helvetica,sans-Serif" font-size="14.00">RunPoke(For Enaging) &#160;</text>
<polygon fill="none" stroke="black" points="17.25,-802.5 17.25,-846.5 168.75,-846.5 168.75,-802.5 17.25,-802.5"/>
<text text-anchor="start" x="20.25" y="-833.1" font-family="Helvetica,sans-Serif" font-size="12.00" fill="#838b8b">0.00s: DangerHint</text>
<text text-anchor="start" x="20.25" y="-821.1" font-family="Helvetica,sans-Serif" font-size="12.00" fill="#838b8b">0.83s: LinkNextMove</text>
<text text-anchor="start" x="20.25" y="-807.2" font-family="Helvetica,sans-Serif" font-size="12.00" fill="#838b8b">1.00s: Done</text>
<text text-anchor="start" x="84.75" y="-807.2" font-family="Helvetica,sans-Serif" font-size="14.00"> &#160;</text>
</g>
<!-- RunPoke(For Enaging)&#45;&gt;PreAttack -->
<g id="edge6" class="edge">
<title>RunPoke(For Enaging)&#45;&gt;PreAttack</title>
<path fill="none" stroke="#cdc8b1" d="M164.29,-798.74C168.62,-795.74 172.82,-792.61 176.75,-789.38 244.98,-733.17 307.25,-648.47 336.98,-605.11"/>
<polygon fill="#cdc8b1" stroke="#cdc8b1" points="339.76,-607.25 342.48,-597.01 333.97,-603.32 339.76,-607.25"/>
</g>
<!-- RunPoke(For Enaging)_mustuse -->
<g id="node8" class="node">
<title>RunPoke(For Enaging)_mustuse</title>
<polygon fill="none" stroke="black" stroke-dasharray="1,5" points="388.85,-859.12 323.85,-859.12 323.85,-811.62 388.85,-811.62 388.85,-859.12"/>
<text text-anchor="start" x="333.85" y="-839.83" font-family="Helvetica,sans-Serif" font-size="14.00">1 Skip &#160;</text>
<text text-anchor="start" x="333.85" y="-820.08" font-family="Helvetica,sans-Serif" font-size="14.00">1 Skip &#160;</text>
</g>
<!-- RunPoke(For Enaging)&#45;&gt;RunPoke(For Enaging)_mustuse -->
<g id="edge7" class="edge">
<title>RunPoke(For Enaging)&#45;&gt;RunPoke(For Enaging)_mustuse</title>
<path fill="none" stroke="#458b74" d="M176.69,-835.38C221.63,-835.38 275.35,-835.38 312.08,-835.38"/>
<polygon fill="#458b74" stroke="#458b74" points="311.86,-838.88 321.86,-835.38 311.86,-831.88 311.86,-838.88"/>
<text text-anchor="middle" x="227.38" y="-837.83" font-family="Helvetica,sans-Serif" font-size="14.00" fill="#458b74">Weight</text>
</g>
<!-- FireSpead -->
<g id="node9" class="node">
<title>FireSpead</title>
<polygon fill="none" stroke="black" points="36.75,-754.5 36.75,-776.25 149.25,-776.25 149.25,-754.5 36.75,-754.5"/>
<text text-anchor="start" x="58.12" y="-759.95" font-family="Helvetica,sans-Serif" font-size="14.00">FireSpead &#160;</text>
<polygon fill="none" stroke="black" points="36.75,-710.5 36.75,-754.5 149.25,-754.5 149.25,-710.5 36.75,-710.5"/>
<text text-anchor="start" x="39.75" y="-741.1" font-family="Helvetica,sans-Serif" font-size="12.00" fill="#838b8b">0.00s: DangerHint</text>
<text text-anchor="start" x="39.75" y="-729.1" font-family="Helvetica,sans-Serif" font-size="12.00" fill="#838b8b">1.17s: CheckFacing</text>
<text text-anchor="start" x="39.75" y="-715.2" font-family="Helvetica,sans-Serif" font-size="12.00" fill="#838b8b">5.00s: Done</text>
<text text-anchor="start" x="104.25" y="-715.2" font-family="Helvetica,sans-Serif" font-size="14.00"> &#160;</text>
</g>
<!-- FireSpead&#45;&gt;PreAttack -->
<g id="edge8" class="edge">
<title>FireSpead&#45;&gt;PreAttack</title>
<path fill="none" stroke="#cdc8b1" d="M157.12,-709.01C163.8,-705.16 170.44,-701.24 176.75,-697.38 227.78,-666.12 284.88,-627 320.47,-602.09"/>
<polygon fill="#cdc8b1" stroke="#cdc8b1" points="322.06,-605.25 328.23,-596.64 318.04,-599.52 322.06,-605.25"/>
</g>
<!-- PokeDown -->
<g id="node10" class="node">
<title>PokeDown</title>
<polygon fill="none" stroke="black" points="34.12,-330.5 34.12,-352.25 151.88,-352.25 151.88,-330.5 34.12,-330.5"/>
<text text-anchor="start" x="56.62" y="-335.95" font-family="Helvetica,sans-Serif" font-size="14.00">PokeDown &#160;</text>
<polygon fill="none" stroke="black" points="34.12,-286.5 34.12,-330.5 151.88,-330.5 151.88,-286.5 34.12,-286.5"/>
<text text-anchor="start" x="37.12" y="-317.1" font-family="Helvetica,sans-Serif" font-size="12.00" fill="#838b8b">0.00s: DangerHint</text>
<text text-anchor="start" x="37.12" y="-305.1" font-family="Helvetica,sans-Serif" font-size="12.00" fill="#838b8b">0.83s: LinkNextMove</text>
<text text-anchor="start" x="37.12" y="-291.2" font-family="Helvetica,sans-Serif" font-size="12.00" fill="#838b8b">1.00s: Done</text>
<text text-anchor="start" x="101.62" y="-291.2" font-family="Helvetica,sans-Serif" font-size="14.00"> &#160;</text>
</g>
<!-- PokeDown&#45;&gt;PreAttack -->
<g id="edge9" class="edge">
<title>PokeDown&#45;&gt;PreAttack</title>
<path fill="none" stroke="#cdc8b1" d="M159.82,-353.44C165.71,-357.23 171.44,-361.23 176.75,-365.38 246.6,-419.93 308.38,-505.7 337.55,-549.54"/>
<polygon fill="#cdc8b1" stroke="#cdc8b1" points="334.51,-551.3 342.93,-557.73 340.36,-547.45 334.51,-551.3"/>
</g>
<!-- PokeDown_mustuse -->
<g id="node11" class="node">
<title>PokeDown_mustuse</title>
<polygon fill="none" stroke="black" stroke-dasharray="1,5" points="388.85,-354 323.85,-354 323.85,-286.75 388.85,-286.75 388.85,-354"/>
<text text-anchor="start" x="333.85" y="-334.7" font-family="Helvetica,sans-Serif" font-size="14.00">2 Skip &#160;</text>
<text text-anchor="start" x="333.85" y="-314.95" font-family="Helvetica,sans-Serif" font-size="14.00">1 Skip &#160;</text>
<text text-anchor="start" x="333.85" y="-295.2" font-family="Helvetica,sans-Serif" font-size="14.00">1 Skip &#160;</text>
</g>
<!-- PokeDown&#45;&gt;PokeDown_mustuse -->
<g id="edge10" class="edge">
<title>PokeDown&#45;&gt;PokeDown_mustuse</title>
<path fill="none" stroke="#458b74" d="M159.61,-319.63C207.33,-319.81 270.59,-320.05 312.1,-320.21"/>
<polygon fill="#458b74" stroke="#458b74" points="311.94,-323.71 321.95,-320.25 311.96,-316.71 311.94,-323.71"/>
<text text-anchor="middle" x="227.38" y="-322.44" font-family="Helvetica,sans-Serif" font-size="14.00" fill="#458b74">Weight</text>
</g>
<!-- PokeFlat -->
<g id="node12" class="node">
<title>PokeFlat</title>
<polygon fill="none" stroke="black" points="34.12,-1030.5 34.12,-1052.25 151.88,-1052.25 151.88,-1030.5 34.12,-1030.5"/>
<text text-anchor="start" x="62.62" y="-1035.95" font-family="Helvetica,sans-Serif" font-size="14.00">PokeFlat &#160;</text>
<polygon fill="none" stroke="black" points="34.12,-986.5 34.12,-1030.5 151.88,-1030.5 151.88,-986.5 34.12,-986.5"/>
<text text-anchor="start" x="37.12" y="-1017.1" font-family="Helvetica,sans-Serif" font-size="12.00" fill="#838b8b">0.00s: DangerHint</text>
<text text-anchor="start" x="37.12" y="-1005.1" font-family="Helvetica,sans-Serif" font-size="12.00" fill="#838b8b">0.83s: LinkNextMove</text>
<text text-anchor="start" x="37.12" y="-991.2" font-family="Helvetica,sans-Serif" font-size="12.00" fill="#838b8b">1.00s: Done</text>
<text text-anchor="start" x="101.62" y="-991.2" font-family="Helvetica,sans-Serif" font-size="14.00"> &#160;</text>
</g>
<!-- PokeFlat&#45;&gt;PreAttack -->
<g id="edge11" class="edge">
<title>PokeFlat&#45;&gt;PreAttack</title>
<path fill="none" stroke="#cdc8b1" d="M159.76,-1007.28C195.05,-997.28 236.09,-979.31 260,-947.38 279.46,-921.38 270.68,-834.01 278,-802.38 294.71,-730.12 326.03,-648.55 343.24,-606.26"/>
<polygon fill="#cdc8b1" stroke="#cdc8b1" points="346.46,-607.64 347.03,-597.06 339.99,-604.98 346.46,-607.64"/>
</g>
<!-- PokeFlat_mustuse -->
<g id="node13" class="node">
<title>PokeFlat_mustuse</title>
<polygon fill="none" stroke="black" stroke-dasharray="1,5" points="406.48,-1043.12 306.23,-1043.12 306.23,-995.62 406.48,-995.62 406.48,-1043.12"/>
<text text-anchor="start" x="316.23" y="-1023.83" font-family="Helvetica,sans-Serif" font-size="14.00">2 Undefined &#160;</text>
<text text-anchor="start" x="333.85" y="-1004.08" font-family="Helvetica,sans-Serif" font-size="14.00">0 Skip &#160;</text>
</g>
<!-- PokeFlat&#45;&gt;PokeFlat_mustuse -->
<g id="edge12" class="edge">
<title>PokeFlat&#45;&gt;PokeFlat_mustuse</title>
<path fill="none" stroke="#458b74" d="M159.61,-1019.38C200.99,-1019.38 254.04,-1019.38 294.48,-1019.38"/>
<polygon fill="#458b74" stroke="#458b74" points="294.28,-1022.88 304.28,-1019.38 294.28,-1015.88 294.28,-1022.88"/>
<text text-anchor="middle" x="227.38" y="-1021.83" font-family="Helvetica,sans-Serif" font-size="14.00" fill="#458b74">Weight</text>
</g>
<!-- Starter -->
<g id="node14" class="node">
<title>Starter</title>
<polygon fill="none" stroke="black" points="34.12,-238.5 34.12,-260.25 151.88,-260.25 151.88,-238.5 34.12,-238.5"/>
<text text-anchor="start" x="69" y="-243.95" font-family="Helvetica,sans-Serif" font-size="14.00">Starter &#160;</text>
<polygon fill="none" stroke="black" points="34.12,-194.5 34.12,-238.5 151.88,-238.5 151.88,-194.5 34.12,-194.5"/>
<text text-anchor="start" x="37.12" y="-225.1" font-family="Helvetica,sans-Serif" font-size="12.00" fill="#838b8b">0.00s: DangerHint</text>
<text text-anchor="start" x="37.12" y="-213.1" font-family="Helvetica,sans-Serif" font-size="12.00" fill="#838b8b">0.33s: LinkNextMove</text>
<text text-anchor="start" x="37.12" y="-199.2" font-family="Helvetica,sans-Serif" font-size="12.00" fill="#838b8b">0.50s: Done</text>
<text text-anchor="start" x="101.62" y="-199.2" font-family="Helvetica,sans-Serif" font-size="14.00"> &#160;</text>
</g>
<!-- Starter&#45;&gt;PreAttack -->
<g id="edge13" class="edge">
<title>Starter&#45;&gt;PreAttack</title>
<path fill="none" stroke="#cdc8b1" d="M159.71,-249.1C193.67,-263.27 233.45,-284.87 260,-315.38 261.01,-316.53 320.24,-480.23 344.83,-548.25"/>
<polygon fill="#cdc8b1" stroke="#cdc8b1" points="341.52,-549.41 348.21,-557.62 348.11,-547.03 341.52,-549.41"/>
</g>
<!-- Starter_mustuse -->
<g id="node15" class="node">
<title>Starter_mustuse</title>
<polygon fill="none" stroke="black" points="328.85,-239.25 328.85,-265 383.85,-265 383.85,-239.25 328.85,-239.25"/>
<text text-anchor="start" x="333.85" y="-246.7" font-family="Helvetica,sans-Serif" font-size="14.00">2 Skip &#160;</text>
<polygon fill="none" stroke="black" points="328.85,-213.5 328.85,-239.25 383.85,-239.25 383.85,-213.5 328.85,-213.5"/>
<text text-anchor="start" x="333.85" y="-220.95" font-family="Helvetica,sans-Serif" font-size="14.00">1 Skip &#160;</text>
<polygon fill="none" stroke="black" points="328.85,-187.75 328.85,-213.5 383.85,-213.5 383.85,-187.75 328.85,-187.75"/>
<text text-anchor="start" x="333.85" y="-195.2" font-family="Helvetica,sans-Serif" font-size="14.00">1 Skip &#160;</text>
</g>
<!-- Starter&#45;&gt;Starter_mustuse -->
<g id="edge14" class="edge">
<title>Starter&#45;&gt;Starter_mustuse</title>
<path fill="none" stroke="#458b74" d="M159.61,-227.12C206.37,-226.95 268.04,-226.71 309.56,-226.55"/>
<polygon fill="#458b74" stroke="#458b74" points="309.47,-230.05 319.45,-226.51 309.44,-223.05 309.47,-230.05"/>
<text text-anchor="middle" x="227.38" y="-229.41" font-family="Helvetica,sans-Serif" font-size="14.00" fill="#458b74">Weight</text>
</g>
<!-- PokeStart -->
<g id="node16" class="node">
<title>PokeStart</title>
<polygon fill="none" stroke="black" points="30.38,-146.5 30.38,-168.25 155.62,-168.25 155.62,-146.5 30.38,-146.5"/>
<text text-anchor="start" x="59.62" y="-151.95" font-family="Helvetica,sans-Serif" font-size="14.00">PokeStart &#160;</text>
<polygon fill="none" stroke="black" points="30.38,-114.5 30.38,-146.5 155.62,-146.5 155.62,-114.5 30.38,-114.5"/>
<text text-anchor="start" x="33.38" y="-133.1" font-family="Helvetica,sans-Serif" font-size="12.00" fill="#838b8b">0.00s: DangerHint</text>
<text text-anchor="start" x="33.38" y="-119.2" font-family="Helvetica,sans-Serif" font-size="12.00" fill="#838b8b">0.50s: LinkNextMove</text>
<text text-anchor="start" x="145.12" y="-119.2" font-family="Helvetica,sans-Serif" font-size="14.00"> &#160;</text>
</g>
<!-- PokeStart&#45;&gt;PreAttack -->
<g id="edge15" class="edge">
<title>PokeStart&#45;&gt;PreAttack</title>
<path fill="none" stroke="#cdc8b1" d="M163.3,-158.25C197.86,-170.32 237.08,-190.27 260,-222.38 296.71,-273.79 263.17,-301.96 278,-363.38 294.44,-431.47 325.22,-507.91 342.58,-548.46"/>
<polygon fill="#cdc8b1" stroke="#cdc8b1" points="339.32,-549.73 346.5,-557.52 345.74,-546.95 339.32,-549.73"/>
</g>
<!-- PokeStart_mustuse -->
<g id="node17" class="node">
<title>PokeStart_mustuse</title>
<polygon fill="none" stroke="black" points="328.85,-129.5 328.85,-155.25 383.85,-155.25 383.85,-129.5 328.85,-129.5"/>
<text text-anchor="start" x="333.85" y="-136.95" font-family="Helvetica,sans-Serif" font-size="14.00">1 Skip &#160;</text>
</g>
<!-- PokeStart&#45;&gt;PokeStart_mustuse -->
<g id="edge16" class="edge">
<title>PokeStart&#45;&gt;PokeStart_mustuse</title>
<path fill="none" stroke="#458b74" d="M163.35,-141.64C209.6,-141.82 269.09,-142.04 309.52,-142.2"/>
<polygon fill="#458b74" stroke="#458b74" points="309.37,-145.7 319.38,-142.24 309.4,-138.7 309.37,-145.7"/>
<text text-anchor="middle" x="227.38" y="-144.44" font-family="Helvetica,sans-Serif" font-size="14.00" fill="#458b74">Weight</text>
</g>
<!-- HurtState -->
<g id="node18" class="node">
<title>HurtState</title>
<polygon fill="none" stroke="black" points="34.5,-582.5 34.5,-604.25 151.5,-604.25 151.5,-582.5 34.5,-582.5"/>
<text text-anchor="start" x="60.75" y="-587.95" font-family="Helvetica,sans-Serif" font-size="14.00">HurtState &#160;</text>
<polygon fill="none" stroke="black" points="34.5,-550.5 34.5,-582.5 151.5,-582.5 151.5,-550.5 34.5,-550.5"/>
<text text-anchor="start" x="37.5" y="-569.1" font-family="Helvetica,sans-Serif" font-size="12.00" fill="#838b8b">0.00s: EnableGravity</text>
<text text-anchor="start" x="37.5" y="-555.2" font-family="Helvetica,sans-Serif" font-size="12.00" fill="#838b8b">0.18s: Done</text>
<text text-anchor="start" x="102" y="-555.2" font-family="Helvetica,sans-Serif" font-size="14.00"> &#160;</text>
</g>
<!-- HurtState&#45;&gt;PreAttack -->
<g id="edge17" class="edge">
<title>HurtState&#45;&gt;PreAttack</title>
<path fill="none" stroke="#cdc8b1" d="M159.28,-577.38C205.2,-577.38 265.64,-577.38 307.21,-577.38"/>
<polygon fill="#cdc8b1" stroke="#cdc8b1" points="307.16,-580.88 317.16,-577.38 307.16,-573.88 307.16,-580.88"/>
</g>
<!-- Hurt_BigState -->
<g id="node19" class="node">
<title>Hurt_BigState</title>
<polygon fill="none" stroke="black" points="34.5,-410.5 34.5,-432.25 151.5,-432.25 151.5,-410.5 34.5,-410.5"/>
<text text-anchor="start" x="47.25" y="-415.95" font-family="Helvetica,sans-Serif" font-size="14.00">Hurt_BigState &#160;</text>
<polygon fill="none" stroke="black" points="34.5,-378.5 34.5,-410.5 151.5,-410.5 151.5,-378.5 34.5,-378.5"/>
<text text-anchor="start" x="37.5" y="-397.1" font-family="Helvetica,sans-Serif" font-size="12.00" fill="#838b8b">0.00s: EnableGravity</text>
<text text-anchor="start" x="37.5" y="-383.2" font-family="Helvetica,sans-Serif" font-size="12.00" fill="#838b8b">2.00s: Done</text>
<text text-anchor="start" x="102" y="-383.2" font-family="Helvetica,sans-Serif" font-size="14.00"> &#160;</text>
</g>
<!-- Hurt_BigState&#45;&gt;PreAttack -->
<g id="edge18" class="edge">
<title>Hurt_BigState&#45;&gt;PreAttack</title>
<path fill="none" stroke="#cdc8b1" d="M159.21,-435.47C165.22,-438.67 171.15,-441.99 176.75,-445.38 231.43,-478.41 290.15,-523.98 324.77,-552.02"/>
<polygon fill="#cdc8b1" stroke="#cdc8b1" points="322.32,-554.53 332.28,-558.14 326.74,-549.11 322.32,-554.53"/>
</g>
<!-- JumpBack -->
<g id="node20" class="node">
<title>JumpBack</title>
<polygon fill="none" stroke="black" points="34.12,-65.5 34.12,-87.25 151.88,-87.25 151.88,-65.5 34.12,-65.5"/>
<text text-anchor="start" x="57.38" y="-70.95" font-family="Helvetica,sans-Serif" font-size="14.00">JumpBack &#160;</text>
<polygon fill="none" stroke="black" points="34.12,-21.5 34.12,-65.5 151.88,-65.5 151.88,-21.5 34.12,-21.5"/>
<text text-anchor="start" x="37.12" y="-52.1" font-family="Helvetica,sans-Serif" font-size="12.00" fill="#838b8b">0.00s: EnableGravity</text>
<text text-anchor="start" x="37.12" y="-40.1" font-family="Helvetica,sans-Serif" font-size="12.00" fill="#838b8b">0.50s: LinkNextMove</text>
<text text-anchor="start" x="37.12" y="-26.2" font-family="Helvetica,sans-Serif" font-size="12.00" fill="#838b8b">0.83s: Done</text>
<text text-anchor="start" x="101.62" y="-26.2" font-family="Helvetica,sans-Serif" font-size="14.00"> &#160;</text>
</g>
<!-- JumpBack&#45;&gt;PreAttack -->
<g id="edge19" class="edge">
<title>JumpBack&#45;&gt;PreAttack</title>
<path fill="none" stroke="#cdc8b1" d="M159.71,-70.23C195.44,-82.43 236.94,-103.18 260,-137.38 288.17,-179.15 267.34,-314.13 278,-363.38 292.82,-431.84 324.22,-508.14 342.12,-548.56"/>
<polygon fill="#cdc8b1" stroke="#cdc8b1" points="338.89,-549.9 346.17,-557.6 345.28,-547.04 338.89,-549.9"/>
</g>
<!-- JumpBack_mustuse -->
<g id="node21" class="node">
<title>JumpBack_mustuse</title>
<polygon fill="none" stroke="black" stroke-dasharray="1,5" points="406.48,-106.75 306.23,-106.75 306.23,0 406.48,0 406.48,-106.75"/>
<text text-anchor="start" x="316.23" y="-87.45" font-family="Helvetica,sans-Serif" font-size="14.00">2 Undefined &#160;</text>
<text text-anchor="start" x="316.23" y="-67.7" font-family="Helvetica,sans-Serif" font-size="14.00">1 Undefined &#160;</text>
<text text-anchor="start" x="316.23" y="-47.95" font-family="Helvetica,sans-Serif" font-size="14.00">1 Undefined &#160;</text>
<text text-anchor="start" x="333.85" y="-28.2" font-family="Helvetica,sans-Serif" font-size="14.00">2 Skip &#160;</text>
<text text-anchor="start" x="333.85" y="-8.45" font-family="Helvetica,sans-Serif" font-size="14.00">1 Skip &#160;</text>
</g>
<!-- JumpBack&#45;&gt;JumpBack_mustuse -->
<g id="edge20" class="edge">
<title>JumpBack&#45;&gt;JumpBack_mustuse</title>
<path fill="none" stroke="#458b74" d="M159.61,-54.12C200.99,-53.97 254.04,-53.76 294.48,-53.61"/>
<polygon fill="#458b74" stroke="#458b74" points="294.3,-57.11 304.28,-53.57 294.27,-50.11 294.3,-57.11"/>
<text text-anchor="middle" x="227.38" y="-56.41" font-family="Helvetica,sans-Serif" font-size="14.00" fill="#458b74">Weight</text>
</g>
<!-- LastHit -->
<g id="node22" class="node">
<title>LastHit</title>
<polygon fill="none" stroke="black" points="34.5,-1190.5 34.5,-1212.25 151.5,-1212.25 151.5,-1190.5 34.5,-1190.5"/>
<text text-anchor="start" x="68.25" y="-1195.95" font-family="Helvetica,sans-Serif" font-size="14.00">LastHit &#160;</text>
<polygon fill="none" stroke="black" points="34.5,-1158.5 34.5,-1190.5 151.5,-1190.5 151.5,-1158.5 34.5,-1158.5"/>
<text text-anchor="start" x="37.5" y="-1177.1" font-family="Helvetica,sans-Serif" font-size="12.00" fill="#838b8b">0.00s: EnableGravity</text>
<text text-anchor="start" x="37.5" y="-1163.2" font-family="Helvetica,sans-Serif" font-size="12.00" fill="#838b8b">1.00s: Done</text>
<text text-anchor="start" x="102" y="-1163.2" font-family="Helvetica,sans-Serif" font-size="14.00"> &#160;</text>
</g>
<!-- DeadState -->
<g id="node23" class="node">
<title>DeadState</title>
<polygon fill="none" stroke="black" points="396.23,-1203.38 316.48,-1203.38 316.48,-1167.38 396.23,-1167.38 396.23,-1203.38"/>
<text text-anchor="middle" x="356.35" y="-1179.95" font-family="Helvetica,sans-Serif" font-size="14.00">DeadState</text>
</g>
<!-- LastHit&#45;&gt;DeadState -->
<g id="edge21" class="edge">
<title>LastHit&#45;&gt;DeadState</title>
<path fill="none" stroke="#cdc8b1" d="M159.28,-1185.38C204.23,-1185.38 263.1,-1185.38 304.56,-1185.38"/>
<polygon fill="#cdc8b1" stroke="#cdc8b1" points="304.52,-1188.88 314.52,-1185.38 304.52,-1181.88 304.52,-1188.88"/>
</g>
<!-- PostureBreak -->
<g id="node24" class="node">
<title>PostureBreak</title>
<polygon fill="none" stroke="black" points="34.5,-662.5 34.5,-684.25 151.5,-684.25 151.5,-662.5 34.5,-662.5"/>
<text text-anchor="start" x="48.38" y="-667.95" font-family="Helvetica,sans-Serif" font-size="14.00">PostureBreak &#160;</text>
<polygon fill="none" stroke="black" points="34.5,-630.5 34.5,-662.5 151.5,-662.5 151.5,-630.5 34.5,-630.5"/>
<text text-anchor="start" x="37.5" y="-649.1" font-family="Helvetica,sans-Serif" font-size="12.00" fill="#838b8b">0.00s: EnableGravity</text>
<text text-anchor="start" x="37.5" y="-635.2" font-family="Helvetica,sans-Serif" font-size="12.00" fill="#838b8b">1.50s: Done</text>
<text text-anchor="start" x="102" y="-635.2" font-family="Helvetica,sans-Serif" font-size="14.00"> &#160;</text>
</g>
<!-- PostureBreak&#45;&gt;PreAttack -->
<g id="edge22" class="edge">
<title>PostureBreak&#45;&gt;PreAttack</title>
<path fill="none" stroke="#cdc8b1" d="M159.28,-637.39C205.39,-623.28 266.16,-604.68 307.74,-591.95"/>
<polygon fill="#cdc8b1" stroke="#cdc8b1" points="308.69,-595.32 317.22,-589.05 306.64,-588.63 308.69,-595.32"/>
</g>
<!-- Wandering_Idle -->
<g id="node25" class="node">
<title>Wandering_Idle</title>
<polygon fill="none" stroke="black" points="163.62,-1270.38 22.38,-1270.38 22.38,-1234.38 163.62,-1234.38 163.62,-1270.38"/>
<text text-anchor="middle" x="93" y="-1246.95" font-family="Helvetica,sans-Serif" font-size="14.00">Wandering_Idle (Init)</text>
</g>
<!-- Level Once Sensor -->
<g id="node26" class="node">
<title>Level Once Sensor</title>
<polygon fill="none" stroke="black" points="158.75,-1346.38 27.25,-1346.38 27.25,-1310.38 158.75,-1310.38 158.75,-1346.38"/>
<text text-anchor="middle" x="93" y="-1322.95" font-family="Helvetica,sans-Serif" font-size="14.00">Level Once Sensor</text>
</g>
<!-- Level Once Sensor_linked -->
<g id="node27" class="node">
<title>Level Once Sensor_linked</title>
<polygon fill="none" stroke="black" stroke-dasharray="1,5" points="417.83,-1322.38 294.88,-1322.38 294.88,-1286.38 417.83,-1286.38 417.83,-1322.38"/>
<text text-anchor="start" x="300.48" y="-1298.95" font-family="Helvetica,sans-Serif" font-size="14.00">Attack1 RunPush &#160;</text>
</g>
<!-- Level Once Sensor&#45;&gt;Level Once Sensor_linked -->
<g id="edge23" class="edge">
<title>Level Once Sensor&#45;&gt;Level Once Sensor_linked</title>
<path fill="none" stroke="#66cdaa" d="M159,-1320.41C170.88,-1319.06 183.18,-1317.74 194.75,-1316.62 223.74,-1313.83 255.72,-1311.28 283.47,-1309.24"/>
<polygon fill="#66cdaa" stroke="#66cdaa" points="283.44,-1312.75 293.16,-1308.54 282.94,-1305.77 283.44,-1312.75"/>
<text text-anchor="middle" x="227.38" y="-1319.08" font-family="Helvetica,sans-Serif" font-size="14.00" fill="#66cdaa">QueueEnd</text>
</g>
<!-- Level Once Sensor_mustuse -->
<g id="node28" class="node">
<title>Level Once Sensor_mustuse</title>
<polygon fill="none" stroke="black" stroke-dasharray="1,5" points="406.48,-1376.38 306.23,-1376.38 306.23,-1340.38 406.48,-1340.38 406.48,-1376.38"/>
<text text-anchor="start" x="316.23" y="-1352.95" font-family="Helvetica,sans-Serif" font-size="14.00">1 Undefined &#160;</text>
</g>
<!-- Level Once Sensor&#45;&gt;Level Once Sensor_mustuse -->
<g id="edge24" class="edge">
<title>Level Once Sensor&#45;&gt;Level Once Sensor_mustuse</title>
<path fill="none" stroke="#458b74" d="M158.94,-1335.83C200.44,-1340.59 253.91,-1346.73 294.58,-1351.4"/>
<polygon fill="#458b74" stroke="#458b74" points="294.12,-1354.87 304.45,-1352.53 294.92,-1347.91 294.12,-1354.87"/>
<text text-anchor="middle" x="227.38" y="-1349.39" font-family="Helvetica,sans-Serif" font-size="14.00" fill="#458b74">Weight</text>
</g>
<!-- RunAwaySensor -->
<g id="node29" class="node">
<title>RunAwaySensor</title>
<polygon fill="none" stroke="black" points="151.25,-1432.38 34.75,-1432.38 34.75,-1396.38 151.25,-1396.38 151.25,-1432.38"/>
<text text-anchor="middle" x="93" y="-1408.95" font-family="Helvetica,sans-Serif" font-size="14.00">RunAwaySensor</text>
</g>
<!-- AttackSensor -->
<g id="node30" class="node">
<title>AttackSensor</title>
<polygon fill="none" stroke="black" points="34.12,-1480.38 34.12,-1502.12 151.88,-1502.12 151.88,-1480.38 34.12,-1480.38"/>
<text text-anchor="start" x="49.12" y="-1485.83" font-family="Helvetica,sans-Serif" font-size="14.00">AttackSensor &#160;</text>
<polygon fill="none" stroke="black" points="34.12,-1458.62 34.12,-1480.38 151.88,-1480.38 151.88,-1458.62 34.12,-1458.62"/>
<text text-anchor="start" x="37.12" y="-1465.08" font-family="Helvetica,sans-Serif" font-size="12.00" fill="#838b8b">if: state is PreAttack</text>
<text text-anchor="start" x="141.38" y="-1465.08" font-family="Helvetica,sans-Serif" font-size="14.00"> &#160;</text>
</g>
<!-- AttackSensor_linked -->
<g id="node31" class="node">
<title>AttackSensor_linked</title>
<polygon fill="none" stroke="black" stroke-dasharray="1,5" points="405.83,-1430.38 306.88,-1430.38 306.88,-1394.38 405.83,-1394.38 405.83,-1430.38"/>
<text text-anchor="start" x="312.48" y="-1406.95" font-family="Helvetica,sans-Serif" font-size="14.00">DoubleAttack &#160;</text>
</g>
<!-- AttackSensor&#45;&gt;AttackSensor_linked -->
<g id="edge25" class="edge">
<title>AttackSensor&#45;&gt;AttackSensor_linked</title>
<path fill="none" stroke="#66cdaa" d="M159.61,-1463.3C201.35,-1452.44 254.98,-1438.49 295.55,-1427.93"/>
<polygon fill="#66cdaa" stroke="#66cdaa" points="296.36,-1431.34 305.16,-1425.43 294.6,-1424.57 296.36,-1431.34"/>
<text text-anchor="middle" x="227.38" y="-1454.92" font-family="Helvetica,sans-Serif" font-size="14.00" fill="#66cdaa">QueueEnd</text>
</g>
<!-- AttackSensor_mustuse -->
<g id="node32" class="node">
<title>AttackSensor_mustuse</title>
<polygon fill="none" stroke="black" stroke-dasharray="1,5" points="406.48,-1516 306.23,-1516 306.23,-1448.75 406.48,-1448.75 406.48,-1516"/>
<text text-anchor="start" x="316.23" y="-1496.7" font-family="Helvetica,sans-Serif" font-size="14.00">1 Undefined &#160;</text>
<text text-anchor="start" x="333.85" y="-1476.95" font-family="Helvetica,sans-Serif" font-size="14.00">2 Skip &#160;</text>
<text text-anchor="start" x="333.85" y="-1457.2" font-family="Helvetica,sans-Serif" font-size="14.00">1 Skip &#160;</text>
</g>
<!-- AttackSensor&#45;&gt;AttackSensor_mustuse -->
<g id="edge26" class="edge">
<title>AttackSensor&#45;&gt;AttackSensor_mustuse</title>
<path fill="none" stroke="#458b74" d="M159.61,-1480.88C200.99,-1481.19 254.04,-1481.6 294.48,-1481.91"/>
<polygon fill="#458b74" stroke="#458b74" points="294.26,-1485.41 304.28,-1481.98 294.31,-1478.41 294.26,-1485.41"/>
<text text-anchor="middle" x="227.38" y="-1484.06" font-family="Helvetica,sans-Serif" font-size="14.00" fill="#458b74">Weight</text>
</g>
<!-- DodgePredictSensor -->
<g id="node33" class="node">
<title>DodgePredictSensor</title>
<polygon fill="none" stroke="black" points="24,-1552.38 24,-1574.12 162,-1574.12 162,-1552.38 24,-1552.38"/>
<text text-anchor="start" x="27" y="-1557.83" font-family="Helvetica,sans-Serif" font-size="14.00">DodgePredictSensor &#160;</text>
<polygon fill="none" stroke="black" points="24,-1530.62 24,-1552.38 162,-1552.38 162,-1530.62 24,-1530.62"/>
<text text-anchor="start" x="27" y="-1537.08" font-family="Helvetica,sans-Serif" font-size="12.00" fill="#838b8b">if: Dodge</text>
<text text-anchor="start" x="75" y="-1537.08" font-family="Helvetica,sans-Serif" font-size="14.00"> &#160;</text>
</g>
<!-- DodgePredictSensor_linked -->
<g id="node34" class="node">
<title>DodgePredictSensor_linked</title>
<polygon fill="none" stroke="black" stroke-dasharray="1,5" points="405.83,-1570.38 306.88,-1570.38 306.88,-1534.38 405.83,-1534.38 405.83,-1570.38"/>
<text text-anchor="start" x="312.48" y="-1546.95" font-family="Helvetica,sans-Serif" font-size="14.00">DoubleAttack &#160;</text>
</g>
<!-- DodgePredictSensor&#45;&gt;DodgePredictSensor_linked -->
<g id="edge27" class="edge">
<title>DodgePredictSensor&#45;&gt;DodgePredictSensor_linked</title>
<path fill="none" stroke="#66cdaa" d="M169.94,-1552.38C209.83,-1552.38 258.01,-1552.38 295.26,-1552.38"/>
<polygon fill="#66cdaa" stroke="#66cdaa" points="294.93,-1555.88 304.93,-1552.38 294.93,-1548.88 294.93,-1555.88"/>
<text text-anchor="middle" x="227.38" y="-1554.83" font-family="Helvetica,sans-Serif" font-size="14.00" fill="#66cdaa">QueueEnd</text>
</g>
<!-- AttackPredictSensor -->
<g id="node35" class="node">
<title>AttackPredictSensor</title>
<polygon fill="none" stroke="black" points="25.12,-1638.38 25.12,-1660.12 160.88,-1660.12 160.88,-1638.38 25.12,-1638.38"/>
<text text-anchor="start" x="28.12" y="-1643.83" font-family="Helvetica,sans-Serif" font-size="14.00">AttackPredictSensor &#160;</text>
<polygon fill="none" stroke="black" points="25.12,-1616.62 25.12,-1638.38 160.88,-1638.38 160.88,-1616.62 25.12,-1616.62"/>
<text text-anchor="start" x="28.12" y="-1623.08" font-family="Helvetica,sans-Serif" font-size="12.00" fill="#838b8b">if: Attack</text>
<text text-anchor="start" x="73.12" y="-1623.08" font-family="Helvetica,sans-Serif" font-size="14.00"> &#160;</text>
</g>
<!-- AttackPredictSensor_linked -->
<g id="node36" class="node">
<title>AttackPredictSensor_linked</title>
<polygon fill="none" stroke="black" stroke-dasharray="1,5" points="417.83,-1624.38 294.88,-1624.38 294.88,-1588.38 417.83,-1588.38 417.83,-1624.38"/>
<text text-anchor="start" x="300.48" y="-1600.95" font-family="Helvetica,sans-Serif" font-size="14.00">Attack1 RunPush &#160;</text>
</g>
<!-- AttackPredictSensor&#45;&gt;AttackPredictSensor_linked -->
<g id="edge28" class="edge">
<title>AttackPredictSensor&#45;&gt;AttackPredictSensor_linked</title>
<path fill="none" stroke="#66cdaa" d="M168.54,-1629.25C204.62,-1624.83 247.75,-1619.55 283.47,-1615.18"/>
<polygon fill="#66cdaa" stroke="#66cdaa" points="283.78,-1618.66 293.28,-1613.97 282.93,-1611.72 283.78,-1618.66"/>
<text text-anchor="middle" x="227.38" y="-1627.69" font-family="Helvetica,sans-Serif" font-size="14.00" fill="#66cdaa">QueueEnd</text>
</g>
<!-- AttackPredictSensor_mustuse -->
<g id="node40" class="node">
<title>AttackPredictSensor_mustuse</title>
<polygon fill="none" stroke="black" stroke-dasharray="1,5" points="406.48,-1678.38 306.23,-1678.38 306.23,-1642.38 406.48,-1642.38 406.48,-1678.38"/>
<text text-anchor="start" x="316.23" y="-1654.95" font-family="Helvetica,sans-Serif" font-size="14.00">1 Undefined &#160;</text>
</g>
<!-- AttackPredictSensor&#45;&gt;AttackPredictSensor_mustuse -->
<g id="edge31" class="edge">
<title>AttackPredictSensor&#45;&gt;AttackPredictSensor_mustuse</title>
<path fill="none" stroke="#458b74" d="M168.54,-1644.65C208.47,-1648.01 257.02,-1652.1 294.63,-1655.26"/>
<polygon fill="#458b74" stroke="#458b74" points="294.15,-1658.74 304.41,-1656.09 294.74,-1651.76 294.15,-1658.74"/>
<text text-anchor="middle" x="227.38" y="-1654.44" font-family="Helvetica,sans-Serif" font-size="14.00" fill="#458b74">Weight</text>
</g>
<!-- AttackRunToSensor -->
<g id="node37" class="node">
<title>AttackRunToSensor</title>
<polygon fill="none" stroke="black" points="26.62,-1738.38 26.62,-1760.12 159.38,-1760.12 159.38,-1738.38 26.62,-1738.38"/>
<text text-anchor="start" x="29.62" y="-1743.83" font-family="Helvetica,sans-Serif" font-size="14.00">AttackRunToSensor &#160;</text>
<polygon fill="none" stroke="black" points="26.62,-1716.62 26.62,-1738.38 159.38,-1738.38 159.38,-1716.62 26.62,-1716.62"/>
<text text-anchor="start" x="29.62" y="-1723.08" font-family="Helvetica,sans-Serif" font-size="12.00" fill="#838b8b">if: state is Engaging</text>
<text text-anchor="start" x="133.88" y="-1723.08" font-family="Helvetica,sans-Serif" font-size="14.00"> &#160;</text>
</g>
<!-- AttackRunToSensor_linked -->
<g id="node38" class="node">
<title>AttackRunToSensor_linked</title>
<polygon fill="none" stroke="black" stroke-dasharray="1,5" points="434.7,-1732.38 278,-1732.38 278,-1696.38 434.7,-1696.38 434.7,-1732.38"/>
<text text-anchor="start" x="283.6" y="-1708.95" font-family="Helvetica,sans-Serif" font-size="14.00">RunPoke(For Enaging) &#160;</text>
</g>
<!-- AttackRunToSensor&#45;&gt;AttackRunToSensor_linked -->
<g id="edge29" class="edge">
<title>AttackRunToSensor&#45;&gt;AttackRunToSensor_linked</title>
<path fill="none" stroke="#66cdaa" d="M167.37,-1726.87C176.57,-1725.65 185.87,-1724.53 194.75,-1723.62 217.91,-1721.27 243.02,-1719.46 266.35,-1718.1"/>
<polygon fill="#66cdaa" stroke="#66cdaa" points="266.34,-1721.61 276.13,-1717.56 265.95,-1714.62 266.34,-1721.61"/>
<text text-anchor="middle" x="227.38" y="-1726.08" font-family="Helvetica,sans-Serif" font-size="14.00" fill="#66cdaa">QueueEnd</text>
</g>
<!-- AttackRunToSensor_mustuse -->
<g id="node39" class="node">
<title>AttackRunToSensor_mustuse</title>
<polygon fill="none" stroke="black" stroke-dasharray="1,5" points="406.48,-1786.38 306.23,-1786.38 306.23,-1750.38 406.48,-1750.38 406.48,-1786.38"/>
<text text-anchor="start" x="316.23" y="-1762.95" font-family="Helvetica,sans-Serif" font-size="14.00">1 Undefined &#160;</text>
</g>
<!-- AttackRunToSensor&#45;&gt;AttackRunToSensor_mustuse -->
<g id="edge30" class="edge">
<title>AttackRunToSensor&#45;&gt;AttackRunToSensor_mustuse</title>
<path fill="none" stroke="#458b74" d="M167.15,-1746.77C207.25,-1751.37 256.37,-1757.01 294.38,-1761.38"/>
<polygon fill="#458b74" stroke="#458b74" points="293.96,-1764.85 304.29,-1762.51 294.75,-1757.9 293.96,-1764.85"/>
<text text-anchor="middle" x="227.38" y="-1759.39" font-family="Helvetica,sans-Serif" font-size="14.00" fill="#458b74">Weight</text>
</g>
<!-- Jumpback Sensor -->
<g id="node41" class="node">
<title>Jumpback Sensor</title>
<polygon fill="none" stroke="black" points="155.38,-1856.38 30.63,-1856.38 30.63,-1820.38 155.38,-1820.38 155.38,-1856.38"/>
<text text-anchor="middle" x="93" y="-1832.95" font-family="Helvetica,sans-Serif" font-size="14.00">Jumpback Sensor</text>
</g>
<!-- Jumpback Sensor_mustuse -->
<g id="node42" class="node">
<title>Jumpback Sensor_mustuse</title>
<polygon fill="none" stroke="black" stroke-dasharray="1,5" points="388.85,-1872 323.85,-1872 323.85,-1804.75 388.85,-1804.75 388.85,-1872"/>
<text text-anchor="start" x="333.85" y="-1852.7" font-family="Helvetica,sans-Serif" font-size="14.00">2 Skip &#160;</text>
<text text-anchor="start" x="333.85" y="-1832.95" font-family="Helvetica,sans-Serif" font-size="14.00">1 Skip &#160;</text>
<text text-anchor="start" x="333.85" y="-1813.2" font-family="Helvetica,sans-Serif" font-size="14.00">1 Skip &#160;</text>
</g>
<!-- Jumpback Sensor&#45;&gt;Jumpback Sensor_mustuse -->
<g id="edge32" class="edge">
<title>Jumpback Sensor&#45;&gt;Jumpback Sensor_mustuse</title>
<path fill="none" stroke="#458b74" d="M155.61,-1838.38C203.75,-1838.38 269.44,-1838.38 312.12,-1838.38"/>
<polygon fill="#458b74" stroke="#458b74" points="312.01,-1841.88 322.01,-1838.38 312.01,-1834.88 312.01,-1841.88"/>
<text text-anchor="middle" x="227.38" y="-1840.83" font-family="Helvetica,sans-Serif" font-size="14.00" fill="#458b74">Weight</text>
</g>
</g>
</svg>
