<?xml version="1.0" encoding="UTF-8" standalone="no"?>
<!DOCTYPE svg PUBLIC "-//W3C//DTD SVG 1.1//EN"
 "http://www.w3.org/Graphics/SVG/1.1/DTD/svg11.dtd">
<!-- Generated by graphviz version 12.2.1 (20241206.2353)
 -->
<!-- Title: Foo Pages: 1 -->
<svg width="479pt" height="2089pt"
 viewBox="0.00 0.00 478.75 2089.00" xmlns="http://www.w3.org/2000/svg" xmlns:xlink="http://www.w3.org/1999/xlink">
<g id="graph0" class="graph" transform="scale(1 1) rotate(0) translate(4 2085)">
<title>Foo</title>
<polygon fill="white" stroke="none" points="-4,4 -4,-2085 474.75,-2085 474.75,4 -4,4"/>
<g id="clust1" class="cluster">
<title>cluster_attacksensors</title>
<polygon fill="none" stroke="black" points="8,-8 8,-737 462.75,-737 462.75,-8 8,-8"/>
<text text-anchor="middle" x="235.38" y="-719.7" font-family="Helvetica,sans-Serif" font-size="14.00">Attack Sensors</text>
</g>
<!-- Level Once Sensor -->
<g id="node1" class="node">
<title>Level Once Sensor</title>
<polygon fill="none" stroke="black" points="28.5,-44.12 28.5,-65.88 157.5,-65.88 157.5,-44.12 28.5,-44.12"/>
<text text-anchor="start" x="31.5" y="-49.58" font-family="Helvetica,sans-Serif" font-size="14.00">Level Once Sensor &#160;</text>
</g>
<!-- Level Once Sensor_linked -->
<g id="node2" class="node">
<title>Level Once Sensor_linked</title>
<polygon fill="none" stroke="black" stroke-dasharray="1,5" points="427.85,-52 304.9,-52 304.9,-16 427.85,-16 427.85,-52"/>
<text text-anchor="start" x="310.5" y="-28.57" font-family="Helvetica,sans-Serif" font-size="14.00">Attack1 RunPush &#160;</text>
</g>
<!-- Level Once Sensor&#45;&gt;Level Once Sensor_linked -->
<g id="edge1" class="edge">
<title>Level Once Sensor&#45;&gt;Level Once Sensor_linked</title>
<path fill="none" stroke="#66cdaa" d="M165.49,-46.11C175.31,-45.05 185.28,-44.06 194.75,-43.25 226.99,-40.5 262.73,-38.41 293.13,-36.92"/>
<polygon fill="#66cdaa" stroke="#66cdaa" points="293.17,-40.43 302.99,-36.46 292.84,-33.43 293.17,-40.43"/>
<text text-anchor="middle" x="227.38" y="-45.7" font-family="Helvetica,sans-Serif" font-size="14.00" fill="#66cdaa">QueueEnd</text>
</g>
<!-- Level Once Sensor_weight -->
<g id="node3" class="node">
<title>Level Once Sensor_weight</title>
<polygon fill="none" stroke="black" stroke-dasharray="1,5" points="437.5,-106 295.25,-106 295.25,-70 437.5,-70 437.5,-106"/>
<text text-anchor="start" x="305.25" y="-82.58" font-family="Helvetica,sans-Serif" font-size="14.00">1 Attack1 RunPush &#160;</text>
</g>
<!-- Level Once Sensor&#45;&gt;Level Once Sensor_weight -->
<g id="edge2" class="edge">
<title>Level Once Sensor&#45;&gt;Level Once Sensor_weight</title>
<path fill="none" stroke="#458b74" d="M165.3,-63.67C201.75,-68.1 246.26,-73.52 284.04,-78.11"/>
<polygon fill="#458b74" stroke="#458b74" points="283.17,-81.53 293.52,-79.26 284.01,-74.58 283.17,-81.53"/>
<text text-anchor="middle" x="227.38" y="-76.91" font-family="Helvetica,sans-Serif" font-size="14.00" fill="#458b74">Weight</text>
</g>
<!-- RunAwaySensor -->
<g id="node4" class="node">
<title>RunAwaySensor</title>
<polygon fill="none" stroke="black" points="36,-116.12 36,-137.88 150,-137.88 150,-116.12 36,-116.12"/>
<text text-anchor="start" x="39" y="-121.58" font-family="Helvetica,sans-Serif" font-size="14.00">RunAwaySensor &#160;</text>
</g>
<!-- AttackSensor -->
<g id="node5" class="node">
<title>AttackSensor</title>
<polygon fill="none" stroke="black" points="34.12,-228 34.12,-249.75 151.88,-249.75 151.88,-228 34.12,-228"/>
<text text-anchor="start" x="49.12" y="-233.45" font-family="Helvetica,sans-Serif" font-size="14.00">AttackSensor &#160;</text>
<polygon fill="none" stroke="black" points="34.12,-206.25 34.12,-228 151.88,-228 151.88,-206.25 34.12,-206.25"/>
<text text-anchor="start" x="37.12" y="-212.7" font-family="Helvetica,sans-Serif" font-size="12.00" fill="#838b8b">if: state is PreAttack</text>
<text text-anchor="start" x="141.38" y="-212.7" font-family="Helvetica,sans-Serif" font-size="14.00"> &#160;</text>
</g>
<!-- AttackSensor_linked -->
<g id="node6" class="node">
<title>AttackSensor_linked</title>
<polygon fill="none" stroke="black" stroke-dasharray="1,5" points="415.85,-246 316.9,-246 316.9,-210 415.85,-210 415.85,-246"/>
<text text-anchor="start" x="322.5" y="-222.57" font-family="Helvetica,sans-Serif" font-size="14.00">DoubleAttack &#160;</text>
</g>
<!-- AttackSensor&#45;&gt;AttackSensor_linked -->
<g id="edge3" class="edge">
<title>AttackSensor&#45;&gt;AttackSensor_linked</title>
<path fill="none" stroke="#66cdaa" d="M159.69,-228C203.95,-228 261.89,-228 304.99,-228"/>
<polygon fill="#66cdaa" stroke="#66cdaa" points="304.93,-231.5 314.93,-228 304.93,-224.5 304.93,-231.5"/>
<text text-anchor="middle" x="227.38" y="-230.45" font-family="Helvetica,sans-Serif" font-size="14.00" fill="#66cdaa">QueueEnd</text>
</g>
<!-- AttackSensor_mustuse -->
<g id="node7" class="node">
<title>AttackSensor_mustuse</title>
<polygon fill="none" stroke="black" points="317.5,-319.88 317.5,-345.62 415.25,-345.62 415.25,-319.88 317.5,-319.88"/>
<text text-anchor="start" x="333" y="-327.32" font-family="Helvetica,sans-Serif" font-size="14.00">PokeStart &#160;</text>
<polygon fill="none" stroke="black" points="317.5,-294.12 317.5,-319.88 415.25,-319.88 415.25,-294.12 317.5,-294.12"/>
<text text-anchor="start" x="322.5" y="-301.57" font-family="Helvetica,sans-Serif" font-size="14.00">DangerSpear &#160;</text>
<polygon fill="none" stroke="black" points="317.5,-268.38 317.5,-294.12 415.25,-294.12 415.25,-268.38 317.5,-268.38"/>
<text text-anchor="start" x="331.5" y="-275.82" font-family="Helvetica,sans-Serif" font-size="14.00">FireSpead &#160;</text>
</g>
<!-- AttackSensor&#45;&gt;AttackSensor_mustuse -->
<g id="edge4" class="edge">
<title>AttackSensor&#45;&gt;AttackSensor_mustuse</title>
<path fill="none" stroke="#ffc125" d="M159.69,-247.12C201.88,-259.41 256.51,-275.31 298.86,-287.64"/>
<polygon fill="#ffc125" stroke="#ffc125" points="297.87,-290.99 308.45,-290.43 299.82,-284.27 297.87,-290.99"/>
<text text-anchor="middle" x="227.38" y="-277.03" font-family="Helvetica,sans-Serif" font-size="14.00" fill="#ffc125">Initial</text>
</g>
<!-- AttackSensor_weight -->
<g id="node8" class="node">
<title>AttackSensor_weight</title>
<polygon fill="none" stroke="black" stroke-dasharray="1,5" points="417.62,-191.62 315.12,-191.62 315.12,-124.38 417.62,-124.38 417.62,-191.62"/>
<text text-anchor="start" x="325.12" y="-172.32" font-family="Helvetica,sans-Serif" font-size="14.00">1 JumpBack &#160;</text>
<text text-anchor="start" x="327.38" y="-152.57" font-family="Helvetica,sans-Serif" font-size="14.00">2 PokeStart &#160;</text>
<text text-anchor="start" x="336.75" y="-132.82" font-family="Helvetica,sans-Serif" font-size="14.00">1 Starter &#160;</text>
</g>
<!-- AttackSensor&#45;&gt;AttackSensor_weight -->
<g id="edge5" class="edge">
<title>AttackSensor&#45;&gt;AttackSensor_weight</title>
<path fill="none" stroke="#458b74" d="M159.69,-211.05C203.56,-199.74 260.87,-184.96 303.85,-173.87"/>
<polygon fill="#458b74" stroke="#458b74" points="304.45,-177.33 313.26,-171.44 302.71,-170.55 304.45,-177.33"/>
<text text-anchor="middle" x="227.38" y="-203.78" font-family="Helvetica,sans-Serif" font-size="14.00" fill="#458b74">Weight</text>
</g>
<!-- DodgePredictSensor -->
<g id="node9" class="node">
<title>DodgePredictSensor</title>
<polygon fill="none" stroke="black" points="24,-386 24,-407.75 162,-407.75 162,-386 24,-386"/>
<text text-anchor="start" x="27" y="-391.45" font-family="Helvetica,sans-Serif" font-size="14.00">DodgePredictSensor &#160;</text>
<polygon fill="none" stroke="black" points="24,-364.25 24,-386 162,-386 162,-364.25 24,-364.25"/>
<text text-anchor="start" x="27" y="-370.7" font-family="Helvetica,sans-Serif" font-size="12.00" fill="#838b8b">if: rollingCondition</text>
<text text-anchor="start" x="123.75" y="-370.7" font-family="Helvetica,sans-Serif" font-size="14.00"> &#160;</text>
</g>
<!-- DodgePredictSensor_linked -->
<g id="node10" class="node">
<title>DodgePredictSensor_linked</title>
<polygon fill="none" stroke="black" stroke-dasharray="1,5" points="415.85,-404 316.9,-404 316.9,-368 415.85,-368 415.85,-404"/>
<text text-anchor="start" x="322.5" y="-380.57" font-family="Helvetica,sans-Serif" font-size="14.00">DoubleAttack &#160;</text>
</g>
<!-- DodgePredictSensor&#45;&gt;DodgePredictSensor_linked -->
<g id="edge6" class="edge">
<title>DodgePredictSensor&#45;&gt;DodgePredictSensor_linked</title>
<path fill="none" stroke="#66cdaa" d="M169.95,-386C212.77,-386 265.5,-386 305.39,-386"/>
<polygon fill="#66cdaa" stroke="#66cdaa" points="305.29,-389.5 315.29,-386 305.29,-382.5 305.29,-389.5"/>
<text text-anchor="middle" x="227.38" y="-388.45" font-family="Helvetica,sans-Serif" font-size="14.00" fill="#66cdaa">QueueEnd</text>
</g>
<!-- AttackPredictSensor -->
<g id="node11" class="node">
<title>AttackPredictSensor</title>
<polygon fill="none" stroke="black" points="25.12,-481 25.12,-502.75 160.88,-502.75 160.88,-481 25.12,-481"/>
<text text-anchor="start" x="28.12" y="-486.45" font-family="Helvetica,sans-Serif" font-size="14.00">AttackPredictSensor &#160;</text>
<polygon fill="none" stroke="black" points="25.12,-459.25 25.12,-481 160.88,-481 160.88,-459.25 25.12,-459.25"/>
<text text-anchor="start" x="28.12" y="-465.7" font-family="Helvetica,sans-Serif" font-size="12.00" fill="#838b8b">if: attackCondition</text>
<text text-anchor="start" x="123.38" y="-465.7" font-family="Helvetica,sans-Serif" font-size="14.00"> &#160;</text>
</g>
<!-- AttackPredictSensor_linked -->
<g id="node12" class="node">
<title>AttackPredictSensor_linked</title>
<polygon fill="none" stroke="black" stroke-dasharray="1,5" points="427.85,-458 304.9,-458 304.9,-422 427.85,-422 427.85,-458"/>
<text text-anchor="start" x="310.5" y="-434.57" font-family="Helvetica,sans-Serif" font-size="14.00">Attack1 RunPush &#160;</text>
</g>
<!-- AttackPredictSensor&#45;&gt;AttackPredictSensor_linked -->
<g id="edge7" class="edge">
<title>AttackPredictSensor&#45;&gt;AttackPredictSensor_linked</title>
<path fill="none" stroke="#66cdaa" d="M168.87,-469.69C207.71,-463.82 254.93,-456.69 293.35,-450.88"/>
<polygon fill="#66cdaa" stroke="#66cdaa" points="293.59,-454.39 302.96,-449.43 292.54,-447.46 293.59,-454.39"/>
<text text-anchor="middle" x="227.38" y="-467.83" font-family="Helvetica,sans-Serif" font-size="14.00" fill="#66cdaa">QueueEnd</text>
</g>
<!-- AttackPredictSensor_weight -->
<g id="node16" class="node">
<title>AttackPredictSensor_weight</title>
<polygon fill="none" stroke="black" stroke-dasharray="1,5" points="417.62,-512 315.12,-512 315.12,-476 417.62,-476 417.62,-512"/>
<text text-anchor="start" x="325.12" y="-488.57" font-family="Helvetica,sans-Serif" font-size="14.00">1 JumpBack &#160;</text>
</g>
<!-- AttackPredictSensor&#45;&gt;AttackPredictSensor_weight -->
<g id="edge10" class="edge">
<title>AttackPredictSensor&#45;&gt;AttackPredictSensor_weight</title>
<path fill="none" stroke="#458b74" d="M168.87,-484.59C211.14,-486.61 263.33,-489.11 303.3,-491.03"/>
<polygon fill="#458b74" stroke="#458b74" points="303.09,-494.52 313.25,-491.5 303.43,-487.53 303.09,-494.52"/>
<text text-anchor="middle" x="227.38" y="-491.11" font-family="Helvetica,sans-Serif" font-size="14.00" fill="#458b74">Weight</text>
</g>
<!-- AttackRunToSensor -->
<g id="node13" class="node">
<title>AttackRunToSensor</title>
<polygon fill="none" stroke="black" points="26.62,-562 26.62,-583.75 159.38,-583.75 159.38,-562 26.62,-562"/>
<text text-anchor="start" x="29.62" y="-567.45" font-family="Helvetica,sans-Serif" font-size="14.00">AttackRunToSensor &#160;</text>
<polygon fill="none" stroke="black" points="26.62,-540.25 26.62,-562 159.38,-562 159.38,-540.25 26.62,-540.25"/>
<text text-anchor="start" x="29.62" y="-546.7" font-family="Helvetica,sans-Serif" font-size="12.00" fill="#838b8b">if: state is Engaging</text>
<text text-anchor="start" x="133.88" y="-546.7" font-family="Helvetica,sans-Serif" font-size="14.00"> &#160;</text>
</g>
<!-- AttackRunToSensor_linked -->
<g id="node14" class="node">
<title>AttackRunToSensor_linked</title>
<polygon fill="none" stroke="black" stroke-dasharray="1,5" points="444.73,-566 288.02,-566 288.02,-530 444.73,-530 444.73,-566"/>
<text text-anchor="start" x="293.62" y="-542.58" font-family="Helvetica,sans-Serif" font-size="14.00">RunPoke(For Enaging) &#160;</text>
</g>
<!-- AttackRunToSensor&#45;&gt;AttackRunToSensor_linked -->
<g id="edge8" class="edge">
<title>AttackRunToSensor&#45;&gt;AttackRunToSensor_linked</title>
<path fill="none" stroke="#66cdaa" d="M167.08,-558.23C200.79,-556.49 241.11,-554.41 276.56,-552.58"/>
<polygon fill="#66cdaa" stroke="#66cdaa" points="276.57,-556.09 286.38,-552.08 276.21,-549.1 276.57,-556.09"/>
<text text-anchor="middle" x="227.38" y="-559.12" font-family="Helvetica,sans-Serif" font-size="14.00" fill="#66cdaa">QueueEnd</text>
</g>
<!-- AttackRunToSensor_weight -->
<g id="node15" class="node">
<title>AttackRunToSensor_weight</title>
<polygon fill="none" stroke="black" stroke-dasharray="1,5" points="454.75,-620 278,-620 278,-584 454.75,-584 454.75,-620"/>
<text text-anchor="start" x="288" y="-596.58" font-family="Helvetica,sans-Serif" font-size="14.00">1 RunPoke(For Enaging) &#160;</text>
</g>
<!-- AttackRunToSensor&#45;&gt;AttackRunToSensor_weight -->
<g id="edge9" class="edge">
<title>AttackRunToSensor&#45;&gt;AttackRunToSensor_weight</title>
<path fill="none" stroke="#458b74" d="M167.08,-572.77C197.69,-577.28 233.74,-582.6 266.65,-587.45"/>
<polygon fill="#458b74" stroke="#458b74" points="265.77,-590.86 276.18,-588.85 266.79,-583.93 265.77,-590.86"/>
<text text-anchor="middle" x="227.38" y="-588.03" font-family="Helvetica,sans-Serif" font-size="14.00" fill="#458b74">Weight</text>
</g>
<!-- Jumpback Sensor -->
<g id="node17" class="node">
<title>Jumpback Sensor</title>
<polygon fill="none" stroke="black" points="31.88,-661.12 31.88,-682.88 154.12,-682.88 154.12,-661.12 31.88,-661.12"/>
<text text-anchor="start" x="34.88" y="-666.58" font-family="Helvetica,sans-Serif" font-size="14.00">Jumpback Sensor &#160;</text>
</g>
<!-- Jumpback Sensor_weight -->
<g id="node18" class="node">
<title>Jumpback Sensor_weight</title>
<polygon fill="none" stroke="black" stroke-dasharray="1,5" points="437.5,-705.62 295.25,-705.62 295.25,-638.38 437.5,-638.38 437.5,-705.62"/>
<text text-anchor="start" x="325.12" y="-686.33" font-family="Helvetica,sans-Serif" font-size="14.00">2 JumpBack &#160;</text>
<text text-anchor="start" x="305.25" y="-666.58" font-family="Helvetica,sans-Serif" font-size="14.00">1 Attack1 RunPush &#160;</text>
<text text-anchor="start" x="327.38" y="-646.83" font-family="Helvetica,sans-Serif" font-size="14.00">1 PokeStart &#160;</text>
</g>
<!-- Jumpback Sensor&#45;&gt;Jumpback Sensor_weight -->
<g id="edge11" class="edge">
<title>Jumpback Sensor&#45;&gt;Jumpback Sensor_weight</title>
<path fill="none" stroke="#458b74" d="M161.78,-672C198.79,-672 244.87,-672 283.84,-672"/>
<polygon fill="#458b74" stroke="#458b74" points="283.64,-675.5 293.64,-672 283.64,-668.5 283.64,-675.5"/>
<text text-anchor="middle" x="227.38" y="-674.45" font-family="Helvetica,sans-Serif" font-size="14.00" fill="#458b74">Weight</text>
</g>
<!-- Attack1 RunPush -->
<g id="node19" class="node">
<title>Attack1 RunPush</title>
<polygon fill="none" stroke="black" points="34.12,-1678.12 34.12,-1699.88 151.88,-1699.88 151.88,-1678.12 34.12,-1678.12"/>
<text text-anchor="start" x="37.12" y="-1683.58" font-family="Helvetica,sans-Serif" font-size="14.00">Attack1 RunPush &#160;</text>
<polygon fill="none" stroke="black" points="34.12,-1646.12 34.12,-1678.12 151.88,-1678.12 151.88,-1646.12 34.12,-1646.12"/>
<text text-anchor="start" x="37.12" y="-1664.72" font-family="Helvetica,sans-Serif" font-size="12.00" fill="#838b8b">2.50s: LinkNextMove</text>
<text text-anchor="start" x="37.12" y="-1650.82" font-family="Helvetica,sans-Serif" font-size="12.00" fill="#838b8b">3.17s: Done</text>
<text text-anchor="start" x="101.62" y="-1650.82" font-family="Helvetica,sans-Serif" font-size="14.00"> &#160;</text>
</g>
<!-- PreAttack -->
<g id="node20" class="node">
<title>PreAttack</title>
<polygon fill="none" stroke="black" points="403.62,-1341 329.12,-1341 329.12,-1305 403.62,-1305 403.62,-1341"/>
<text text-anchor="middle" x="366.38" y="-1317.58" font-family="Helvetica,sans-Serif" font-size="14.00">PreAttack</text>
</g>
<!-- Attack1 RunPush&#45;&gt;PreAttack -->
<g id="edge12" class="edge">
<title>Attack1 RunPush&#45;&gt;PreAttack</title>
<path fill="none" stroke="#cdc8b1" d="M159.83,-1648.68C166.22,-1644.25 172.06,-1639.06 176.75,-1633 201.73,-1600.75 173.01,-1577.52 194.75,-1543 214.08,-1512.31 235.56,-1520.79 260,-1494 300.46,-1449.64 334.17,-1387.59 351.9,-1351.72"/>
<polygon fill="#cdc8b1" stroke="#cdc8b1" points="354.99,-1353.36 356.22,-1342.84 348.7,-1350.3 354.99,-1353.36"/>
</g>
<!-- Attack1 RunPush_weight -->
<g id="node21" class="node">
<title>Attack1 RunPush_weight</title>
<polygon fill="none" stroke="black" stroke-dasharray="1,5" points="454.75,-1715.5 278,-1715.5 278,-1628.5 454.75,-1628.5 454.75,-1715.5"/>
<text text-anchor="start" x="288" y="-1696.2" font-family="Helvetica,sans-Serif" font-size="14.00">1 RunPoke(For Enaging) &#160;</text>
<text text-anchor="start" x="305.25" y="-1676.45" font-family="Helvetica,sans-Serif" font-size="14.00">1 Attack1 RunPush &#160;</text>
<text text-anchor="start" x="343.88" y="-1656.7" font-family="Helvetica,sans-Serif" font-size="14.00">1 Skip &#160;</text>
<text text-anchor="start" x="316.88" y="-1636.95" font-family="Helvetica,sans-Serif" font-size="14.00">1 DangerSpear &#160;</text>
</g>
<!-- Attack1 RunPush&#45;&gt;Attack1 RunPush_weight -->
<g id="edge13" class="edge">
<title>Attack1 RunPush&#45;&gt;Attack1 RunPush_weight</title>
<path fill="none" stroke="#458b74" d="M159.69,-1672.76C191.68,-1672.64 230.82,-1672.5 266.33,-1672.36"/>
<polygon fill="#458b74" stroke="#458b74" points="266.22,-1675.87 276.21,-1672.33 266.2,-1668.87 266.22,-1675.87"/>
<text text-anchor="middle" x="227.38" y="-1675.07" font-family="Helvetica,sans-Serif" font-size="14.00" fill="#458b74">Weight</text>
</g>
<!-- DoubleAttack -->
<g id="node22" class="node">
<title>DoubleAttack</title>
<polygon fill="none" stroke="black" points="34.12,-1873.12 34.12,-1894.88 151.88,-1894.88 151.88,-1873.12 34.12,-1873.12"/>
<text text-anchor="start" x="49.12" y="-1878.58" font-family="Helvetica,sans-Serif" font-size="14.00">DoubleAttack &#160;</text>
<polygon fill="none" stroke="black" points="34.12,-1829.12 34.12,-1873.12 151.88,-1873.12 151.88,-1829.12 34.12,-1829.12"/>
<text text-anchor="start" x="37.12" y="-1859.72" font-family="Helvetica,sans-Serif" font-size="12.00" fill="#838b8b">1.00s: CheckFacing</text>
<text text-anchor="start" x="37.12" y="-1847.72" font-family="Helvetica,sans-Serif" font-size="12.00" fill="#838b8b">1.83s: LinkNextMove</text>
<text text-anchor="start" x="37.12" y="-1833.82" font-family="Helvetica,sans-Serif" font-size="12.00" fill="#838b8b">1.92s: Done</text>
<text text-anchor="start" x="101.62" y="-1833.82" font-family="Helvetica,sans-Serif" font-size="14.00"> &#160;</text>
</g>
<!-- DoubleAttack&#45;&gt;PreAttack -->
<g id="edge14" class="edge">
<title>DoubleAttack&#45;&gt;PreAttack</title>
<path fill="none" stroke="#cdc8b1" d="M159.6,-1848.55C195.3,-1837.65 236.8,-1818.4 260,-1785 289.37,-1742.71 266.78,-1604.25 278,-1554 294.89,-1478.36 331.49,-1394.36 351.55,-1351.53"/>
<polygon fill="#cdc8b1" stroke="#cdc8b1" points="354.62,-1353.21 355.74,-1342.68 348.29,-1350.22 354.62,-1353.21"/>
</g>
<!-- DoubleAttack_mustuse -->
<g id="node23" class="node">
<title>DoubleAttack_mustuse</title>
<polygon fill="none" stroke="black" points="326.5,-1929.12 326.5,-1954.88 406.25,-1954.88 406.25,-1929.12 326.5,-1929.12"/>
<text text-anchor="start" x="331.5" y="-1936.58" font-family="Helvetica,sans-Serif" font-size="14.00">FireSpead &#160;</text>
</g>
<!-- DoubleAttack&#45;&gt;DoubleAttack_mustuse -->
<g id="edge15" class="edge">
<title>DoubleAttack&#45;&gt;DoubleAttack_mustuse</title>
<path fill="none" stroke="#ffc125" d="M159.69,-1881.37C204.86,-1894.68 264.27,-1912.2 307.63,-1924.98"/>
<polygon fill="#ffc125" stroke="#ffc125" points="306.53,-1928.3 317.11,-1927.77 308.51,-1921.59 306.53,-1928.3"/>
<text text-anchor="middle" x="227.38" y="-1911.62" font-family="Helvetica,sans-Serif" font-size="14.00" fill="#ffc125">Initial</text>
</g>
<!-- DoubleAttack_weight -->
<g id="node24" class="node">
<title>DoubleAttack_weight</title>
<polygon fill="none" stroke="black" stroke-dasharray="1,5" points="437.5,-1905.5 295.25,-1905.5 295.25,-1818.5 437.5,-1818.5 437.5,-1905.5"/>
<text text-anchor="start" x="305.25" y="-1886.2" font-family="Helvetica,sans-Serif" font-size="14.00">2 Attack1 RunPush &#160;</text>
<text text-anchor="start" x="316.88" y="-1866.45" font-family="Helvetica,sans-Serif" font-size="14.00">0 DangerSpear &#160;</text>
<text text-anchor="start" x="316.88" y="-1846.7" font-family="Helvetica,sans-Serif" font-size="14.00">0 DoubleAttack &#160;</text>
<text text-anchor="start" x="325.88" y="-1826.95" font-family="Helvetica,sans-Serif" font-size="14.00">1 FireSpead &#160;</text>
</g>
<!-- DoubleAttack&#45;&gt;DoubleAttack_weight -->
<g id="edge16" class="edge">
<title>DoubleAttack&#45;&gt;DoubleAttack_weight</title>
<path fill="none" stroke="#458b74" d="M159.69,-1862C196.96,-1862 243.92,-1862 283.56,-1862"/>
<polygon fill="#458b74" stroke="#458b74" points="283.55,-1865.5 293.55,-1862 283.55,-1858.5 283.55,-1865.5"/>
<text text-anchor="middle" x="227.38" y="-1864.45" font-family="Helvetica,sans-Serif" font-size="14.00" fill="#458b74">Weight</text>
</g>
<!-- DangerSpear -->
<g id="node25" class="node">
<title>DangerSpear</title>
<polygon fill="none" stroke="black" points="34.12,-1334.12 34.12,-1355.88 151.88,-1355.88 151.88,-1334.12 34.12,-1334.12"/>
<text text-anchor="start" x="49.12" y="-1339.58" font-family="Helvetica,sans-Serif" font-size="14.00">DangerSpear &#160;</text>
<polygon fill="none" stroke="black" points="34.12,-1290.12 34.12,-1334.12 151.88,-1334.12 151.88,-1290.12 34.12,-1290.12"/>
<text text-anchor="start" x="37.12" y="-1320.72" font-family="Helvetica,sans-Serif" font-size="12.00" fill="#838b8b">0.33s: CheckFacing</text>
<text text-anchor="start" x="37.12" y="-1308.72" font-family="Helvetica,sans-Serif" font-size="12.00" fill="#838b8b">2.50s: LinkNextMove</text>
<text text-anchor="start" x="37.12" y="-1294.82" font-family="Helvetica,sans-Serif" font-size="12.00" fill="#838b8b">2.57s: Done</text>
<text text-anchor="start" x="101.62" y="-1294.82" font-family="Helvetica,sans-Serif" font-size="14.00"> &#160;</text>
</g>
<!-- DangerSpear&#45;&gt;PreAttack -->
<g id="edge17" class="edge">
<title>DangerSpear&#45;&gt;PreAttack</title>
<path fill="none" stroke="#cdc8b1" d="M159.69,-1323C208.26,-1323 273.3,-1323 317.13,-1323"/>
<polygon fill="#cdc8b1" stroke="#cdc8b1" points="317.11,-1326.5 327.11,-1323 317.11,-1319.5 317.11,-1326.5"/>
</g>
<!-- RunPoke(For Enaging) -->
<g id="node26" class="node">
<title>RunPoke(For Enaging)</title>
<polygon fill="none" stroke="black" points="17.25,-1598.12 17.25,-1619.88 168.75,-1619.88 168.75,-1598.12 17.25,-1598.12"/>
<text text-anchor="start" x="20.25" y="-1603.58" font-family="Helvetica,sans-Serif" font-size="14.00">RunPoke(For Enaging) &#160;</text>
<polygon fill="none" stroke="black" points="17.25,-1554.12 17.25,-1598.12 168.75,-1598.12 168.75,-1554.12 17.25,-1554.12"/>
<text text-anchor="start" x="20.25" y="-1584.72" font-family="Helvetica,sans-Serif" font-size="12.00" fill="#838b8b">0.00s: DangerHint</text>
<text text-anchor="start" x="20.25" y="-1572.72" font-family="Helvetica,sans-Serif" font-size="12.00" fill="#838b8b">0.83s: LinkNextMove</text>
<text text-anchor="start" x="20.25" y="-1558.82" font-family="Helvetica,sans-Serif" font-size="12.00" fill="#838b8b">1.00s: Done</text>
<text text-anchor="start" x="84.75" y="-1558.82" font-family="Helvetica,sans-Serif" font-size="14.00"> &#160;</text>
</g>
<!-- RunPoke(For Enaging)&#45;&gt;PreAttack -->
<g id="edge18" class="edge">
<title>RunPoke(For Enaging)&#45;&gt;PreAttack</title>
<path fill="none" stroke="#cdc8b1" d="M164.84,-1550.24C168.99,-1547.29 173,-1544.2 176.75,-1541 186.62,-1532.57 186.47,-1528 194.75,-1518 245.6,-1456.57 307.85,-1386.7 341.33,-1349.54"/>
<polygon fill="#cdc8b1" stroke="#cdc8b1" points="343.69,-1352.15 347.79,-1342.38 338.49,-1347.46 343.69,-1352.15"/>
</g>
<!-- RunPoke(For Enaging)_weight -->
<g id="node27" class="node">
<title>RunPoke(For Enaging)_weight</title>
<polygon fill="none" stroke="black" stroke-dasharray="1,5" points="417.62,-1610.75 315.12,-1610.75 315.12,-1563.25 417.62,-1563.25 417.62,-1610.75"/>
<text text-anchor="start" x="325.12" y="-1591.45" font-family="Helvetica,sans-Serif" font-size="14.00">1 JumpBack &#160;</text>
<text text-anchor="start" x="343.88" y="-1571.7" font-family="Helvetica,sans-Serif" font-size="14.00">1 Skip &#160;</text>
</g>
<!-- RunPoke(For Enaging)&#45;&gt;RunPoke(For Enaging)_weight -->
<g id="edge19" class="edge">
<title>RunPoke(For Enaging)&#45;&gt;RunPoke(For Enaging)_weight</title>
<path fill="none" stroke="#458b74" d="M176.53,-1587C217.37,-1587 265.84,-1587 303.45,-1587"/>
<polygon fill="#458b74" stroke="#458b74" points="303.24,-1590.5 313.24,-1587 303.24,-1583.5 303.24,-1590.5"/>
<text text-anchor="middle" x="227.38" y="-1589.45" font-family="Helvetica,sans-Serif" font-size="14.00" fill="#458b74">Weight</text>
</g>
<!-- FireSpead -->
<g id="node28" class="node">
<title>FireSpead</title>
<polygon fill="none" stroke="black" points="36.75,-1506.12 36.75,-1527.88 149.25,-1527.88 149.25,-1506.12 36.75,-1506.12"/>
<text text-anchor="start" x="58.12" y="-1511.58" font-family="Helvetica,sans-Serif" font-size="14.00">FireSpead &#160;</text>
<polygon fill="none" stroke="black" points="36.75,-1462.12 36.75,-1506.12 149.25,-1506.12 149.25,-1462.12 36.75,-1462.12"/>
<text text-anchor="start" x="39.75" y="-1492.72" font-family="Helvetica,sans-Serif" font-size="12.00" fill="#838b8b">0.00s: DangerHint</text>
<text text-anchor="start" x="39.75" y="-1480.72" font-family="Helvetica,sans-Serif" font-size="12.00" fill="#838b8b">1.17s: CheckFacing</text>
<text text-anchor="start" x="39.75" y="-1466.82" font-family="Helvetica,sans-Serif" font-size="12.00" fill="#838b8b">5.00s: Done</text>
<text text-anchor="start" x="104.25" y="-1466.82" font-family="Helvetica,sans-Serif" font-size="14.00"> &#160;</text>
</g>
<!-- FireSpead&#45;&gt;PreAttack -->
<g id="edge20" class="edge">
<title>FireSpead&#45;&gt;PreAttack</title>
<path fill="none" stroke="#cdc8b1" d="M157.11,-1460.62C163.79,-1456.77 170.44,-1452.85 176.75,-1449 231.44,-1415.61 292.81,-1373.76 330.27,-1347.7"/>
<polygon fill="#cdc8b1" stroke="#cdc8b1" points="331.82,-1350.89 338.02,-1342.29 327.82,-1345.14 331.82,-1350.89"/>
</g>
<!-- PokeDown -->
<g id="node29" class="node">
<title>PokeDown</title>
<polygon fill="none" stroke="black" points="34.12,-1774.12 34.12,-1795.88 151.88,-1795.88 151.88,-1774.12 34.12,-1774.12"/>
<text text-anchor="start" x="56.62" y="-1779.58" font-family="Helvetica,sans-Serif" font-size="14.00">PokeDown &#160;</text>
<polygon fill="none" stroke="black" points="34.12,-1730.12 34.12,-1774.12 151.88,-1774.12 151.88,-1730.12 34.12,-1730.12"/>
<text text-anchor="start" x="37.12" y="-1760.72" font-family="Helvetica,sans-Serif" font-size="12.00" fill="#838b8b">0.00s: DangerHint</text>
<text text-anchor="start" x="37.12" y="-1748.72" font-family="Helvetica,sans-Serif" font-size="12.00" fill="#838b8b">0.83s: LinkNextMove</text>
<text text-anchor="start" x="37.12" y="-1734.82" font-family="Helvetica,sans-Serif" font-size="12.00" fill="#838b8b">1.00s: Done</text>
<text text-anchor="start" x="101.62" y="-1734.82" font-family="Helvetica,sans-Serif" font-size="14.00"> &#160;</text>
</g>
<!-- PokeDown&#45;&gt;PreAttack -->
<g id="edge21" class="edge">
<title>PokeDown&#45;&gt;PreAttack</title>
<path fill="none" stroke="#cdc8b1" d="M159.55,-1731.59C166.16,-1726.19 172.13,-1720.01 176.75,-1713 208.83,-1664.29 165.4,-1633.41 194.75,-1583 213.13,-1551.43 236.72,-1561.15 260,-1533 306.91,-1476.28 340.05,-1395.18 355.52,-1352.25"/>
<polygon fill="#cdc8b1" stroke="#cdc8b1" points="358.8,-1353.48 358.82,-1342.88 352.19,-1351.15 358.8,-1353.48"/>
</g>
<!-- PokeDown_weight -->
<g id="node30" class="node">
<title>PokeDown_weight</title>
<polygon fill="none" stroke="black" stroke-dasharray="1,5" points="454.75,-1800.62 278,-1800.62 278,-1733.38 454.75,-1733.38 454.75,-1800.62"/>
<text text-anchor="start" x="330.38" y="-1781.33" font-family="Helvetica,sans-Serif" font-size="14.00">2 PokeFlat &#160;</text>
<text text-anchor="start" x="316.88" y="-1761.58" font-family="Helvetica,sans-Serif" font-size="14.00">1 DangerSpear &#160;</text>
<text text-anchor="start" x="288" y="-1741.83" font-family="Helvetica,sans-Serif" font-size="14.00">1 RunPoke(For Enaging) &#160;</text>
</g>
<!-- PokeDown&#45;&gt;PokeDown_weight -->
<g id="edge22" class="edge">
<title>PokeDown&#45;&gt;PokeDown_weight</title>
<path fill="none" stroke="#458b74" d="M159.69,-1763.97C191.68,-1764.44 230.82,-1765.02 266.33,-1765.54"/>
<polygon fill="#458b74" stroke="#458b74" points="266.16,-1769.04 276.21,-1765.69 266.26,-1762.04 266.16,-1769.04"/>
<text text-anchor="middle" x="227.38" y="-1767.81" font-family="Helvetica,sans-Serif" font-size="14.00" fill="#458b74">Weight</text>
</g>
<!-- PokeFlat -->
<g id="node31" class="node">
<title>PokeFlat</title>
<polygon fill="none" stroke="black" points="34.12,-1082.12 34.12,-1103.88 151.88,-1103.88 151.88,-1082.12 34.12,-1082.12"/>
<text text-anchor="start" x="62.62" y="-1087.58" font-family="Helvetica,sans-Serif" font-size="14.00">PokeFlat &#160;</text>
<polygon fill="none" stroke="black" points="34.12,-1038.12 34.12,-1082.12 151.88,-1082.12 151.88,-1038.12 34.12,-1038.12"/>
<text text-anchor="start" x="37.12" y="-1068.72" font-family="Helvetica,sans-Serif" font-size="12.00" fill="#838b8b">0.00s: DangerHint</text>
<text text-anchor="start" x="37.12" y="-1056.72" font-family="Helvetica,sans-Serif" font-size="12.00" fill="#838b8b">0.83s: LinkNextMove</text>
<text text-anchor="start" x="37.12" y="-1042.82" font-family="Helvetica,sans-Serif" font-size="12.00" fill="#838b8b">1.00s: Done</text>
<text text-anchor="start" x="101.62" y="-1042.82" font-family="Helvetica,sans-Serif" font-size="14.00"> &#160;</text>
</g>
<!-- PokeFlat&#45;&gt;PreAttack -->
<g id="edge23" class="edge">
<title>PokeFlat&#45;&gt;PreAttack</title>
<path fill="none" stroke="#cdc8b1" d="M159.8,-1105.09C165.69,-1108.88 171.43,-1112.87 176.75,-1117 246.75,-1171.35 312.94,-1253.09 345.08,-1295.41"/>
<polygon fill="#cdc8b1" stroke="#cdc8b1" points="342.24,-1297.46 351.05,-1303.34 347.83,-1293.25 342.24,-1297.46"/>
</g>
<!-- PokeFlat_weight -->
<g id="node32" class="node">
<title>PokeFlat_weight</title>
<polygon fill="none" stroke="black" stroke-dasharray="1,5" points="418.38,-1127.75 314.38,-1127.75 314.38,-1080.25 418.38,-1080.25 418.38,-1127.75"/>
<text text-anchor="start" x="324.38" y="-1108.45" font-family="Helvetica,sans-Serif" font-size="14.00">2 PokeDown &#160;</text>
<text text-anchor="start" x="343.88" y="-1088.7" font-family="Helvetica,sans-Serif" font-size="14.00">0 Skip &#160;</text>
</g>
<!-- PokeFlat&#45;&gt;PokeFlat_weight -->
<g id="edge24" class="edge">
<title>PokeFlat&#45;&gt;PokeFlat_weight</title>
<path fill="none" stroke="#458b74" d="M159.69,-1078.99C203.23,-1084.28 260.01,-1091.19 302.88,-1096.4"/>
<polygon fill="#458b74" stroke="#458b74" points="302.44,-1099.87 312.79,-1097.61 303.29,-1092.92 302.44,-1099.87"/>
<text text-anchor="middle" x="227.38" y="-1092.91" font-family="Helvetica,sans-Serif" font-size="14.00" fill="#458b74">Weight</text>
</g>
<!-- Starter -->
<g id="node33" class="node">
<title>Starter</title>
<polygon fill="none" stroke="black" points="34.12,-990.12 34.12,-1011.88 151.88,-1011.88 151.88,-990.12 34.12,-990.12"/>
<text text-anchor="start" x="69" y="-995.58" font-family="Helvetica,sans-Serif" font-size="14.00">Starter &#160;</text>
<polygon fill="none" stroke="black" points="34.12,-946.12 34.12,-990.12 151.88,-990.12 151.88,-946.12 34.12,-946.12"/>
<text text-anchor="start" x="37.12" y="-976.73" font-family="Helvetica,sans-Serif" font-size="12.00" fill="#838b8b">0.00s: DangerHint</text>
<text text-anchor="start" x="37.12" y="-964.73" font-family="Helvetica,sans-Serif" font-size="12.00" fill="#838b8b">0.33s: LinkNextMove</text>
<text text-anchor="start" x="37.12" y="-950.83" font-family="Helvetica,sans-Serif" font-size="12.00" fill="#838b8b">0.50s: Done</text>
<text text-anchor="start" x="101.62" y="-950.83" font-family="Helvetica,sans-Serif" font-size="14.00"> &#160;</text>
</g>
<!-- Starter&#45;&gt;PreAttack -->
<g id="edge25" class="edge">
<title>Starter&#45;&gt;PreAttack</title>
<path fill="none" stroke="#cdc8b1" d="M159.71,-1010.9C165.81,-1015.19 171.62,-1019.9 176.75,-1025 188.32,-1036.51 182.61,-1046.1 194.75,-1057 218.23,-1078.09 238.5,-1061.9 260,-1085 276.66,-1102.91 268.79,-1114.34 278,-1137 301.18,-1194 332.79,-1258.62 350.94,-1294.72"/>
<polygon fill="#cdc8b1" stroke="#cdc8b1" points="347.59,-1295.85 355.22,-1303.2 353.84,-1292.69 347.59,-1295.85"/>
</g>
<!-- Starter_mustuse -->
<g id="node34" class="node">
<title>Starter_mustuse</title>
<polygon fill="none" stroke="black" points="326.5,-928.12 326.5,-953.88 406.25,-953.88 406.25,-928.12 326.5,-928.12"/>
<text text-anchor="start" x="331.5" y="-935.58" font-family="Helvetica,sans-Serif" font-size="14.00">FireSpead &#160;</text>
</g>
<!-- Starter&#45;&gt;Starter_mustuse -->
<g id="edge26" class="edge">
<title>Starter&#45;&gt;Starter_mustuse</title>
<path fill="none" stroke="#ffc125" d="M159.72,-959.6C171.31,-956.74 183.32,-954.13 194.75,-952.25 231.96,-946.14 274.25,-943.33 307.42,-942.04"/>
<polygon fill="#ffc125" stroke="#ffc125" points="307.37,-945.54 317.24,-941.7 307.12,-938.55 307.37,-945.54"/>
<text text-anchor="middle" x="227.38" y="-954.7" font-family="Helvetica,sans-Serif" font-size="14.00" fill="#ffc125">Initial</text>
</g>
<!-- Starter_weight -->
<g id="node35" class="node">
<title>Starter_weight</title>
<polygon fill="none" stroke="black" points="311.88,-1032.88 311.88,-1058.62 420.88,-1058.62 420.88,-1032.88 311.88,-1032.88"/>
<text text-anchor="start" x="316.88" y="-1040.33" font-family="Helvetica,sans-Serif" font-size="14.00">2 DoubleAttack &#160;</text>
<polygon fill="none" stroke="black" points="311.88,-1007.12 311.88,-1032.88 420.88,-1032.88 420.88,-1007.12 311.88,-1007.12"/>
<text text-anchor="start" x="316.88" y="-1014.58" font-family="Helvetica,sans-Serif" font-size="14.00">1 DangerSpear &#160;</text>
<polygon fill="none" stroke="black" points="311.88,-981.38 311.88,-1007.12 420.88,-1007.12 420.88,-981.38 311.88,-981.38"/>
<text text-anchor="start" x="325.88" y="-988.83" font-family="Helvetica,sans-Serif" font-size="14.00">1 FireSpead &#160;</text>
</g>
<!-- Starter&#45;&gt;Starter_weight -->
<g id="edge27" class="edge">
<title>Starter&#45;&gt;Starter_weight</title>
<path fill="none" stroke="#458b74" d="M159.69,-988.92C199.93,-995 251.46,-1002.79 292.89,-1009.05"/>
<polygon fill="#458b74" stroke="#458b74" points="292.1,-1012.47 302.51,-1010.5 293.15,-1005.55 292.1,-1012.47"/>
<text text-anchor="middle" x="227.38" y="-1005.62" font-family="Helvetica,sans-Serif" font-size="14.00" fill="#458b74">Weight</text>
</g>
<!-- PokeStart -->
<g id="node36" class="node">
<title>PokeStart</title>
<polygon fill="none" stroke="black" points="30.38,-894.12 30.38,-915.88 155.62,-915.88 155.62,-894.12 30.38,-894.12"/>
<text text-anchor="start" x="59.62" y="-899.58" font-family="Helvetica,sans-Serif" font-size="14.00">PokeStart &#160;</text>
<polygon fill="none" stroke="black" points="30.38,-862.12 30.38,-894.12 155.62,-894.12 155.62,-862.12 30.38,-862.12"/>
<text text-anchor="start" x="33.38" y="-880.73" font-family="Helvetica,sans-Serif" font-size="12.00" fill="#838b8b">0.00s: DangerHint</text>
<text text-anchor="start" x="33.38" y="-866.83" font-family="Helvetica,sans-Serif" font-size="12.00" fill="#838b8b">0.50s: LinkNextMove</text>
<text text-anchor="start" x="145.12" y="-866.83" font-family="Helvetica,sans-Serif" font-size="14.00"> &#160;</text>
</g>
<!-- PokeStart&#45;&gt;PreAttack -->
<g id="edge28" class="edge">
<title>PokeStart&#45;&gt;PreAttack</title>
<path fill="none" stroke="#cdc8b1" d="M163.5,-919.2C168.48,-923.29 173.01,-927.88 176.75,-933 203.13,-969.11 166.89,-997.02 194.75,-1032 214.41,-1056.68 239.73,-1035.81 260,-1060 282.57,-1086.94 266.47,-1103.8 278,-1137 298.14,-1194.97 330.67,-1259.02 349.84,-1294.8"/>
<polygon fill="#cdc8b1" stroke="#cdc8b1" points="346.55,-1296.07 354.38,-1303.2 352.71,-1292.74 346.55,-1296.07"/>
</g>
<!-- PokeStart_weight -->
<g id="node37" class="node">
<title>PokeStart_weight</title>
<polygon fill="none" stroke="black" points="325.38,-874.12 325.38,-899.88 407.38,-899.88 407.38,-874.12 325.38,-874.12"/>
<text text-anchor="start" x="330.38" y="-881.58" font-family="Helvetica,sans-Serif" font-size="14.00">1 PokeFlat &#160;</text>
</g>
<!-- PokeStart&#45;&gt;PokeStart_weight -->
<g id="edge29" class="edge">
<title>PokeStart&#45;&gt;PokeStart_weight</title>
<path fill="none" stroke="#458b74" d="M163.53,-888.49C207.6,-888.16 264,-887.75 305.97,-887.44"/>
<polygon fill="#458b74" stroke="#458b74" points="305.91,-890.94 315.89,-887.36 305.86,-883.94 305.91,-890.94"/>
<text text-anchor="middle" x="227.38" y="-890.69" font-family="Helvetica,sans-Serif" font-size="14.00" fill="#458b74">Weight</text>
</g>
<!-- HurtState -->
<g id="node38" class="node">
<title>HurtState</title>
<polygon fill="none" stroke="black" points="34.5,-1242.12 34.5,-1263.88 151.5,-1263.88 151.5,-1242.12 34.5,-1242.12"/>
<text text-anchor="start" x="60.75" y="-1247.58" font-family="Helvetica,sans-Serif" font-size="14.00">HurtState &#160;</text>
<polygon fill="none" stroke="black" points="34.5,-1210.12 34.5,-1242.12 151.5,-1242.12 151.5,-1210.12 34.5,-1210.12"/>
<text text-anchor="start" x="37.5" y="-1228.72" font-family="Helvetica,sans-Serif" font-size="12.00" fill="#838b8b">0.00s: EnableGravity</text>
<text text-anchor="start" x="37.5" y="-1214.82" font-family="Helvetica,sans-Serif" font-size="12.00" fill="#838b8b">0.18s: Done</text>
<text text-anchor="start" x="102" y="-1214.82" font-family="Helvetica,sans-Serif" font-size="14.00"> &#160;</text>
</g>
<!-- HurtState&#45;&gt;PreAttack -->
<g id="edge30" class="edge">
<title>HurtState&#45;&gt;PreAttack</title>
<path fill="none" stroke="#cdc8b1" d="M159.35,-1257.71C208.26,-1273.21 274.02,-1294.05 317.96,-1307.97"/>
<polygon fill="#cdc8b1" stroke="#cdc8b1" points="316.88,-1311.3 327.47,-1310.99 319,-1304.63 316.88,-1311.3"/>
</g>
<!-- Hurt_BigState -->
<g id="node39" class="node">
<title>Hurt_BigState</title>
<polygon fill="none" stroke="black" points="34.5,-1162.12 34.5,-1183.88 151.5,-1183.88 151.5,-1162.12 34.5,-1162.12"/>
<text text-anchor="start" x="47.25" y="-1167.58" font-family="Helvetica,sans-Serif" font-size="14.00">Hurt_BigState &#160;</text>
<polygon fill="none" stroke="black" points="34.5,-1130.12 34.5,-1162.12 151.5,-1162.12 151.5,-1130.12 34.5,-1130.12"/>
<text text-anchor="start" x="37.5" y="-1148.72" font-family="Helvetica,sans-Serif" font-size="12.00" fill="#838b8b">0.00s: EnableGravity</text>
<text text-anchor="start" x="37.5" y="-1134.82" font-family="Helvetica,sans-Serif" font-size="12.00" fill="#838b8b">2.00s: Done</text>
<text text-anchor="start" x="102" y="-1134.82" font-family="Helvetica,sans-Serif" font-size="14.00"> &#160;</text>
</g>
<!-- Hurt_BigState&#45;&gt;PreAttack -->
<g id="edge31" class="edge">
<title>Hurt_BigState&#45;&gt;PreAttack</title>
<path fill="none" stroke="#cdc8b1" d="M159.49,-1187.61C165.38,-1190.68 171.21,-1193.83 176.75,-1197 232.69,-1229 294.18,-1271.57 331.27,-1298.12"/>
<polygon fill="#cdc8b1" stroke="#cdc8b1" points="328.77,-1300.63 338.93,-1303.63 332.86,-1294.95 328.77,-1300.63"/>
</g>
<!-- JumpBack -->
<g id="node40" class="node">
<title>JumpBack</title>
<polygon fill="none" stroke="black" points="34.12,-813.12 34.12,-834.88 151.88,-834.88 151.88,-813.12 34.12,-813.12"/>
<text text-anchor="start" x="57.38" y="-818.58" font-family="Helvetica,sans-Serif" font-size="14.00">JumpBack &#160;</text>
<polygon fill="none" stroke="black" points="34.12,-769.12 34.12,-813.12 151.88,-813.12 151.88,-769.12 34.12,-769.12"/>
<text text-anchor="start" x="37.12" y="-799.73" font-family="Helvetica,sans-Serif" font-size="12.00" fill="#838b8b">0.00s: EnableGravity</text>
<text text-anchor="start" x="37.12" y="-787.73" font-family="Helvetica,sans-Serif" font-size="12.00" fill="#838b8b">0.50s: LinkNextMove</text>
<text text-anchor="start" x="37.12" y="-773.83" font-family="Helvetica,sans-Serif" font-size="12.00" fill="#838b8b">0.83s: Done</text>
<text text-anchor="start" x="101.62" y="-773.83" font-family="Helvetica,sans-Serif" font-size="14.00"> &#160;</text>
</g>
<!-- JumpBack&#45;&gt;PreAttack -->
<g id="edge32" class="edge">
<title>JumpBack&#45;&gt;PreAttack</title>
<path fill="none" stroke="#cdc8b1" d="M159.67,-830.93C166.26,-836.11 172.2,-842.11 176.75,-849 215.71,-907.97 152.57,-950.29 194.75,-1007 213.58,-1032.32 240.4,-1010.27 260,-1035 288.59,-1071.08 264.09,-1093.12 278,-1137 296.54,-1195.5 329.62,-1259.37 349.32,-1294.97"/>
<polygon fill="#cdc8b1" stroke="#cdc8b1" points="346.06,-1296.32 354,-1303.34 352.17,-1292.9 346.06,-1296.32"/>
</g>
<!-- JumpBack_weight -->
<g id="node41" class="node">
<title>JumpBack_weight</title>
<polygon fill="none" stroke="black" stroke-dasharray="1,5" points="437.5,-851.38 295.25,-851.38 295.25,-744.62 437.5,-744.62 437.5,-851.38"/>
<text text-anchor="start" x="316.88" y="-832.08" font-family="Helvetica,sans-Serif" font-size="14.00">2 DoubleAttack &#160;</text>
<text text-anchor="start" x="316.88" y="-812.33" font-family="Helvetica,sans-Serif" font-size="14.00">1 DangerSpear &#160;</text>
<text text-anchor="start" x="305.25" y="-792.58" font-family="Helvetica,sans-Serif" font-size="14.00">1 Attack1 RunPush &#160;</text>
<text text-anchor="start" x="343.88" y="-772.83" font-family="Helvetica,sans-Serif" font-size="14.00">2 Skip &#160;</text>
<text text-anchor="start" x="327.38" y="-753.08" font-family="Helvetica,sans-Serif" font-size="14.00">1 PokeStart &#160;</text>
</g>
<!-- JumpBack&#45;&gt;JumpBack_weight -->
<g id="edge33" class="edge">
<title>JumpBack&#45;&gt;JumpBack_weight</title>
<path fill="none" stroke="#458b74" d="M159.69,-801.03C196.96,-800.48 243.92,-799.79 283.56,-799.21"/>
<polygon fill="#458b74" stroke="#458b74" points="283.6,-802.71 293.55,-799.06 283.5,-795.71 283.6,-802.71"/>
<text text-anchor="middle" x="227.38" y="-802.93" font-family="Helvetica,sans-Serif" font-size="14.00" fill="#458b74">Weight</text>
</g>
<!-- LastHit -->
<g id="node42" class="node">
<title>LastHit</title>
<polygon fill="none" stroke="black" points="34.5,-2001.12 34.5,-2022.88 151.5,-2022.88 151.5,-2001.12 34.5,-2001.12"/>
<text text-anchor="start" x="68.25" y="-2006.58" font-family="Helvetica,sans-Serif" font-size="14.00">LastHit &#160;</text>
<polygon fill="none" stroke="black" points="34.5,-1969.12 34.5,-2001.12 151.5,-2001.12 151.5,-1969.12 34.5,-1969.12"/>
<text text-anchor="start" x="37.5" y="-1987.72" font-family="Helvetica,sans-Serif" font-size="12.00" fill="#838b8b">0.00s: EnableGravity</text>
<text text-anchor="start" x="37.5" y="-1973.82" font-family="Helvetica,sans-Serif" font-size="12.00" fill="#838b8b">1.00s: Done</text>
<text text-anchor="start" x="102" y="-1973.82" font-family="Helvetica,sans-Serif" font-size="14.00"> &#160;</text>
</g>
<!-- DeadState -->
<g id="node43" class="node">
<title>DeadState</title>
<polygon fill="none" stroke="black" points="406.25,-2014 326.5,-2014 326.5,-1978 406.25,-1978 406.25,-2014"/>
<text text-anchor="middle" x="366.38" y="-1990.58" font-family="Helvetica,sans-Serif" font-size="14.00">DeadState</text>
</g>
<!-- LastHit&#45;&gt;DeadState -->
<g id="edge34" class="edge">
<title>LastHit&#45;&gt;DeadState</title>
<path fill="none" stroke="#cdc8b1" d="M159.35,-1996C207.14,-1996 271.04,-1996 314.93,-1996"/>
<polygon fill="#cdc8b1" stroke="#cdc8b1" points="314.68,-1999.5 324.68,-1996 314.68,-1992.5 314.68,-1999.5"/>
</g>
<!-- PostureBreak -->
<g id="node44" class="node">
<title>PostureBreak</title>
<polygon fill="none" stroke="black" points="34.5,-1414.12 34.5,-1435.88 151.5,-1435.88 151.5,-1414.12 34.5,-1414.12"/>
<text text-anchor="start" x="48.38" y="-1419.58" font-family="Helvetica,sans-Serif" font-size="14.00">PostureBreak &#160;</text>
<polygon fill="none" stroke="black" points="34.5,-1382.12 34.5,-1414.12 151.5,-1414.12 151.5,-1382.12 34.5,-1382.12"/>
<text text-anchor="start" x="37.5" y="-1400.72" font-family="Helvetica,sans-Serif" font-size="12.00" fill="#838b8b">0.00s: EnableGravity</text>
<text text-anchor="start" x="37.5" y="-1386.82" font-family="Helvetica,sans-Serif" font-size="12.00" fill="#838b8b">1.50s: Done</text>
<text text-anchor="start" x="102" y="-1386.82" font-family="Helvetica,sans-Serif" font-size="14.00"> &#160;</text>
</g>
<!-- PostureBreak&#45;&gt;PreAttack -->
<g id="edge35" class="edge">
<title>PostureBreak&#45;&gt;PreAttack</title>
<path fill="none" stroke="#cdc8b1" d="M159.35,-1388.29C208.26,-1372.79 274.02,-1351.95 317.96,-1338.03"/>
<polygon fill="#cdc8b1" stroke="#cdc8b1" points="319,-1341.37 327.47,-1335.01 316.88,-1334.7 319,-1341.37"/>
</g>
<!-- Wandering_Idle -->
<g id="node45" class="node">
<title>Wandering_Idle</title>
<polygon fill="none" stroke="black" points="163.62,-2081 22.38,-2081 22.38,-2045 163.62,-2045 163.62,-2081"/>
<text text-anchor="middle" x="93" y="-2057.57" font-family="Helvetica,sans-Serif" font-size="14.00">Wandering_Idle (Init)</text>
</g>
</g>
</svg>
