<?xml version="1.0" encoding="UTF-8" standalone="no"?>
<!DOCTYPE svg PUBLIC "-//W3C//DTD SVG 1.1//EN"
 "http://www.w3.org/Graphics/SVG/1.1/DTD/svg11.dtd">
<!-- Generated by graphviz version 12.2.1 (20241206.2353)
 -->
<!-- Title: Foo Pages: 1 -->
<svg width="408pt" height="1224pt"
 viewBox="0.00 0.00 408.25 1224.00" xmlns="http://www.w3.org/2000/svg" xmlns:xlink="http://www.w3.org/1999/xlink">
<g id="graph0" class="graph" transform="scale(1 1) rotate(0) translate(4 1220)">
<title>Foo</title>
<polygon fill="white" stroke="none" points="-4,4 -4,-1220 404.25,-1220 404.25,4 -4,4"/>
<g id="clust1" class="cluster">
<title>cluster_attacksensors</title>
<polygon fill="none" stroke="black" points="8,-418 8,-1032 392.25,-1032 392.25,-418 8,-418"/>
<text text-anchor="middle" x="200.12" y="-1014.7" font-family="Helvetica,sans-Serif" font-size="14.00">Attack Sensors</text>
</g>
<!-- Level Once Sensor -->
<g id="node1" class="node">
<title>Level Once Sensor</title>
<polygon fill="none" stroke="black" points="28.5,-557.12 28.5,-578.88 157.5,-578.88 157.5,-557.12 28.5,-557.12"/>
<text text-anchor="start" x="31.5" y="-562.58" font-family="Helvetica,sans-Serif" font-size="14.00">Level Once Sensor &#160;</text>
</g>
<!-- Level Once Sensor_linked -->
<g id="node2" class="node">
<title>Level Once Sensor_linked</title>
<polygon fill="none" stroke="black" stroke-dasharray="1,5" points="369.73,-516 285.77,-516 285.77,-480 369.73,-480 369.73,-516"/>
<text text-anchor="start" x="291.38" y="-492.57" font-family="Helvetica,sans-Serif" font-size="14.00">StabAttack &#160;</text>
</g>
<!-- Level Once Sensor&#45;&gt;Level Once Sensor_linked -->
<g id="edge1" class="edge">
<title>Level Once Sensor&#45;&gt;Level Once Sensor_linked</title>
<path fill="none" stroke="#66cdaa" d="M147.57,-550.06C160.75,-545.76 174.86,-541.26 188,-537.25 216.5,-528.56 248.48,-519.47 274.55,-512.23"/>
<polygon fill="#66cdaa" stroke="#66cdaa" points="275.17,-515.69 283.88,-509.65 273.31,-508.94 275.17,-515.69"/>
<text text-anchor="middle" x="220.62" y="-539.7" font-family="Helvetica,sans-Serif" font-size="14.00" fill="#66cdaa">QueueEnd</text>
</g>
<!-- Level Once Sensor_weight -->
<g id="node3" class="node">
<title>Level Once Sensor_weight</title>
<polygon fill="none" stroke="black" stroke-dasharray="1,5" points="379.75,-570 275.75,-570 275.75,-534 379.75,-534 379.75,-570"/>
<text text-anchor="start" x="285.75" y="-546.58" font-family="Helvetica,sans-Serif" font-size="14.00">1 StabAttack &#160;</text>
</g>
<!-- Level Once Sensor&#45;&gt;Level Once Sensor_weight -->
<g id="edge2" class="edge">
<title>Level Once Sensor&#45;&gt;Level Once Sensor_weight</title>
<path fill="none" stroke="#458b74" d="M165.41,-563.09C196.93,-560.92 233.65,-558.4 264.09,-556.31"/>
<polygon fill="#458b74" stroke="#458b74" points="264.18,-559.81 273.91,-555.63 263.7,-552.83 264.18,-559.81"/>
<text text-anchor="middle" x="220.62" y="-563.88" font-family="Helvetica,sans-Serif" font-size="14.00" fill="#458b74">Weight</text>
</g>
<!-- RunAwaySensor -->
<g id="node4" class="node">
<title>RunAwaySensor</title>
<polygon fill="none" stroke="black" points="36,-503.12 36,-524.88 150,-524.88 150,-503.12 36,-503.12"/>
<text text-anchor="start" x="39" y="-508.57" font-family="Helvetica,sans-Serif" font-size="14.00">RunAwaySensor &#160;</text>
</g>
<!-- AttackSensor -->
<g id="node5" class="node">
<title>AttackSensor</title>
<polygon fill="none" stroke="black" points="46.12,-695.12 46.12,-716.88 139.88,-716.88 139.88,-695.12 46.12,-695.12"/>
<text text-anchor="start" x="49.12" y="-700.58" font-family="Helvetica,sans-Serif" font-size="14.00">AttackSensor &#160;</text>
</g>
<!-- AttackSensor_linked -->
<g id="node6" class="node">
<title>AttackSensor_linked</title>
<polygon fill="none" stroke="black" stroke-dasharray="1,5" points="374.23,-713.85 281.27,-713.85 281.27,-588.15 374.23,-588.15 374.23,-713.85"/>
<text text-anchor="start" x="291.38" y="-694.95" font-family="Helvetica,sans-Serif" font-size="14.00">StabAttack &#160;</text>
<text text-anchor="start" x="286.88" y="-675.2" font-family="Helvetica,sans-Serif" font-size="14.00">SwingAttack &#160;</text>
<text text-anchor="start" x="288.38" y="-655.45" font-family="Helvetica,sans-Serif" font-size="14.00">JumpAttack &#160;</text>
<text text-anchor="start" x="289.5" y="-635.7" font-family="Helvetica,sans-Serif" font-size="14.00">JumpShoot &#160;</text>
<text text-anchor="start" x="291.38" y="-615.95" font-family="Helvetica,sans-Serif" font-size="14.00">StabAttack &#160;</text>
<text text-anchor="start" x="286.88" y="-596.2" font-family="Helvetica,sans-Serif" font-size="14.00">SwingAttack &#160;</text>
</g>
<!-- AttackSensor&#45;&gt;AttackSensor_linked -->
<g id="edge3" class="edge">
<title>AttackSensor&#45;&gt;AttackSensor_linked</title>
<path fill="none" stroke="#66cdaa" d="M147.69,-693.31C184.19,-684.69 232.42,-673.29 269.62,-664.5"/>
<polygon fill="#66cdaa" stroke="#66cdaa" points="270.39,-667.91 279.32,-662.21 268.78,-661.1 270.39,-667.91"/>
<text text-anchor="middle" x="220.62" y="-685.88" font-family="Helvetica,sans-Serif" font-size="14.00" fill="#66cdaa">QueueEnd</text>
</g>
<!-- AttackSensor_weight -->
<g id="node7" class="node">
<title>AttackSensor_weight</title>
<polygon fill="none" stroke="black" stroke-dasharray="1,5" points="384.25,-838.38 271.25,-838.38 271.25,-731.62 384.25,-731.62 384.25,-838.38"/>
<text text-anchor="start" x="285.75" y="-819.08" font-family="Helvetica,sans-Serif" font-size="14.00">0 StabAttack &#160;</text>
<text text-anchor="start" x="282.75" y="-799.33" font-family="Helvetica,sans-Serif" font-size="14.00">1 JumpAttack &#160;</text>
<text text-anchor="start" x="283.88" y="-779.58" font-family="Helvetica,sans-Serif" font-size="14.00">1 JumpShoot &#160;</text>
<text text-anchor="start" x="281.62" y="-759.83" font-family="Helvetica,sans-Serif" font-size="14.00">1 RollThrough &#160;</text>
<text text-anchor="start" x="281.25" y="-740.08" font-family="Helvetica,sans-Serif" font-size="14.00">1 SwingAttack &#160;</text>
</g>
<!-- AttackSensor&#45;&gt;AttackSensor_weight -->
<g id="edge4" class="edge">
<title>AttackSensor&#45;&gt;AttackSensor_weight</title>
<path fill="none" stroke="#458b74" d="M146.81,-723.93C180.36,-735.31 224.07,-750.15 260.01,-762.35"/>
<polygon fill="#458b74" stroke="#458b74" points="258.87,-765.66 269.47,-765.56 261.12,-759.03 258.87,-765.66"/>
<text text-anchor="middle" x="220.62" y="-761.9" font-family="Helvetica,sans-Serif" font-size="14.00" fill="#458b74">Weight</text>
</g>
<!-- DodgePredictSensor -->
<g id="node8" class="node">
<title>DodgePredictSensor</title>
<polygon fill="none" stroke="black" points="24,-834 24,-855.75 162,-855.75 162,-834 24,-834"/>
<text text-anchor="start" x="27" y="-839.45" font-family="Helvetica,sans-Serif" font-size="14.00">DodgePredictSensor &#160;</text>
<polygon fill="none" stroke="black" points="24,-812.25 24,-834 162,-834 162,-812.25 24,-812.25"/>
<text text-anchor="start" x="27" y="-818.7" font-family="Helvetica,sans-Serif" font-size="12.00" fill="#838b8b">if: rollingCondition</text>
<text text-anchor="start" x="123.75" y="-818.7" font-family="Helvetica,sans-Serif" font-size="14.00"> &#160;</text>
</g>
<!-- DodgePredictSensor_linked -->
<g id="node9" class="node">
<title>DodgePredictSensor_linked</title>
<polygon fill="none" stroke="black" stroke-dasharray="1,5" points="369.73,-892 285.77,-892 285.77,-856 369.73,-856 369.73,-892"/>
<text text-anchor="start" x="291.38" y="-868.58" font-family="Helvetica,sans-Serif" font-size="14.00">StabAttack &#160;</text>
</g>
<!-- DodgePredictSensor&#45;&gt;DodgePredictSensor_linked -->
<g id="edge5" class="edge">
<title>DodgePredictSensor&#45;&gt;DodgePredictSensor_linked</title>
<path fill="none" stroke="#66cdaa" d="M169.89,-847.04C204.15,-852.93 243.76,-859.74 274.61,-865.04"/>
<polygon fill="#66cdaa" stroke="#66cdaa" points="273.61,-868.42 284.06,-866.66 274.8,-861.52 273.61,-868.42"/>
<text text-anchor="middle" x="220.62" y="-863.51" font-family="Helvetica,sans-Serif" font-size="14.00" fill="#66cdaa">QueueEnd</text>
</g>
<!-- AttackPredictSensor -->
<g id="node10" class="node">
<title>AttackPredictSensor</title>
<polygon fill="none" stroke="black" points="25.12,-904 25.12,-925.75 160.88,-925.75 160.88,-904 25.12,-904"/>
<text text-anchor="start" x="28.12" y="-909.45" font-family="Helvetica,sans-Serif" font-size="14.00">AttackPredictSensor &#160;</text>
<polygon fill="none" stroke="black" points="25.12,-882.25 25.12,-904 160.88,-904 160.88,-882.25 25.12,-882.25"/>
<text text-anchor="start" x="28.12" y="-888.7" font-family="Helvetica,sans-Serif" font-size="12.00" fill="#838b8b">if: attackCondition</text>
<text text-anchor="start" x="123.38" y="-888.7" font-family="Helvetica,sans-Serif" font-size="14.00"> &#160;</text>
</g>
<!-- AttackPredictSensor_linked -->
<g id="node11" class="node">
<title>AttackPredictSensor_linked</title>
<polygon fill="none" stroke="black" stroke-dasharray="1,5" points="369.73,-946 285.77,-946 285.77,-910 369.73,-910 369.73,-946"/>
<text text-anchor="start" x="291.38" y="-922.58" font-family="Helvetica,sans-Serif" font-size="14.00">StabAttack &#160;</text>
</g>
<!-- AttackPredictSensor&#45;&gt;AttackPredictSensor_linked -->
<g id="edge6" class="edge">
<title>AttackPredictSensor&#45;&gt;AttackPredictSensor_linked</title>
<path fill="none" stroke="#66cdaa" d="M168.6,-911.69C203.06,-915.25 243.16,-919.38 274.36,-922.6"/>
<polygon fill="#66cdaa" stroke="#66cdaa" points="273.61,-926.04 283.91,-923.58 274.33,-919.08 273.61,-926.04"/>
<text text-anchor="middle" x="220.62" y="-922.69" font-family="Helvetica,sans-Serif" font-size="14.00" fill="#66cdaa">QueueEnd</text>
</g>
<!-- AttackRunToSensor -->
<g id="node12" class="node">
<title>AttackRunToSensor</title>
<polygon fill="none" stroke="black" points="26.62,-974 26.62,-995.75 159.38,-995.75 159.38,-974 26.62,-974"/>
<text text-anchor="start" x="29.62" y="-979.45" font-family="Helvetica,sans-Serif" font-size="14.00">AttackRunToSensor &#160;</text>
<polygon fill="none" stroke="black" points="26.62,-952.25 26.62,-974 159.38,-974 159.38,-952.25 26.62,-952.25"/>
<text text-anchor="start" x="29.62" y="-958.7" font-family="Helvetica,sans-Serif" font-size="12.00" fill="#838b8b">if: state is Engaging</text>
<text text-anchor="start" x="133.88" y="-958.7" font-family="Helvetica,sans-Serif" font-size="14.00"> &#160;</text>
</g>
<!-- AttackRunToSensor_linked -->
<g id="node13" class="node">
<title>AttackRunToSensor_linked</title>
<polygon fill="none" stroke="black" stroke-dasharray="1,5" points="369.73,-1000 285.77,-1000 285.77,-964 369.73,-964 369.73,-1000"/>
<text text-anchor="start" x="291.38" y="-976.58" font-family="Helvetica,sans-Serif" font-size="14.00">StabAttack &#160;</text>
</g>
<!-- AttackRunToSensor&#45;&gt;AttackRunToSensor_linked -->
<g id="edge7" class="edge">
<title>AttackRunToSensor&#45;&gt;AttackRunToSensor_linked</title>
<path fill="none" stroke="#66cdaa" d="M167.32,-976.52C201.98,-977.71 242.56,-979.11 274.11,-980.19"/>
<polygon fill="#66cdaa" stroke="#66cdaa" points="273.66,-983.68 283.78,-980.52 273.91,-976.68 273.66,-983.68"/>
<text text-anchor="middle" x="220.62" y="-981.86" font-family="Helvetica,sans-Serif" font-size="14.00" fill="#66cdaa">QueueEnd</text>
</g>
<!-- RollThrough -->
<g id="node14" class="node">
<title>RollThrough</title>
<polygon fill="none" stroke="black" points="49.5,-452 49.5,-473.75 136.5,-473.75 136.5,-452 49.5,-452"/>
<text text-anchor="start" x="52.5" y="-457.45" font-family="Helvetica,sans-Serif" font-size="14.00">RollThrough &#160;</text>
<polygon fill="none" stroke="black" points="49.5,-430.25 49.5,-452 136.5,-452 136.5,-430.25 49.5,-430.25"/>
<text text-anchor="start" x="52.5" y="-436.7" font-family="Helvetica,sans-Serif" font-size="12.00" fill="#838b8b">0.50s: Done</text>
<text text-anchor="start" x="117" y="-436.7" font-family="Helvetica,sans-Serif" font-size="14.00"> &#160;</text>
</g>
<!-- RollThrough_linked -->
<g id="node15" class="node">
<title>RollThrough_linked</title>
<polygon fill="none" stroke="black" stroke-dasharray="1,5" points="373.85,-462 281.65,-462 281.65,-426 373.85,-426 373.85,-462"/>
<text text-anchor="start" x="287.25" y="-438.57" font-family="Helvetica,sans-Serif" font-size="14.00">RollThrough &#160;</text>
</g>
<!-- RollThrough&#45;&gt;RollThrough_linked -->
<g id="edge8" class="edge">
<title>RollThrough&#45;&gt;RollThrough_linked</title>
<path fill="none" stroke="#66cdaa" d="M144.22,-450.27C181.31,-449 231.84,-447.26 270.33,-445.94"/>
<polygon fill="#66cdaa" stroke="#66cdaa" points="269.97,-449.45 279.84,-445.61 269.73,-442.46 269.97,-449.45"/>
<text text-anchor="middle" x="220.62" y="-451.17" font-family="Helvetica,sans-Serif" font-size="14.00" fill="#66cdaa">QueueEnd</text>
</g>
<!-- Engaging -->
<g id="node17" class="node">
<title>Engaging</title>
<polygon fill="none" stroke="black" points="364.25,-303 291.25,-303 291.25,-267 364.25,-267 364.25,-303"/>
<text text-anchor="middle" x="327.75" y="-279.57" font-family="Helvetica,sans-Serif" font-size="14.00">Engaging</text>
</g>
<!-- RollThrough&#45;&gt;Engaging -->
<g id="edge19" class="edge">
<title>RollThrough&#45;&gt;Engaging</title>
<path fill="none" stroke="#cdc8b1" d="M144.48,-431.08C153.21,-426.81 162.03,-422.06 170,-417 219.48,-385.58 270.19,-339.94 300.05,-311.39"/>
<polygon fill="#cdc8b1" stroke="#cdc8b1" points="302.41,-313.98 307.18,-304.51 297.55,-308.94 302.41,-313.98"/>
</g>
<!-- StabAttack -->
<g id="node16" class="node">
<title>StabAttack</title>
<polygon fill="none" stroke="black" points="34.12,-382.12 34.12,-403.88 151.88,-403.88 151.88,-382.12 34.12,-382.12"/>
<text text-anchor="start" x="56.62" y="-387.57" font-family="Helvetica,sans-Serif" font-size="14.00">StabAttack &#160;</text>
<polygon fill="none" stroke="black" points="34.12,-350.12 34.12,-382.12 151.88,-382.12 151.88,-350.12 34.12,-350.12"/>
<text text-anchor="start" x="37.12" y="-368.73" font-family="Helvetica,sans-Serif" font-size="12.00" fill="#838b8b">0.75s: LinkNextMove</text>
<text text-anchor="start" x="37.12" y="-354.83" font-family="Helvetica,sans-Serif" font-size="12.00" fill="#838b8b">0.83s: Done</text>
<text text-anchor="start" x="101.62" y="-354.83" font-family="Helvetica,sans-Serif" font-size="14.00"> &#160;</text>
</g>
<!-- StabAttack&#45;&gt;Engaging -->
<g id="edge9" class="edge">
<title>StabAttack&#45;&gt;Engaging</title>
<path fill="none" stroke="#cdc8b1" d="M159.76,-351.01C198.38,-335.74 246.24,-316.83 280.8,-303.16"/>
<polygon fill="#cdc8b1" stroke="#cdc8b1" points="281.66,-306.59 289.67,-299.66 279.08,-300.08 281.66,-306.59"/>
</g>
<!-- SwingAttack -->
<g id="node18" class="node">
<title>SwingAttack</title>
<polygon fill="none" stroke="black" points="33,-198.12 33,-219.88 153,-219.88 153,-198.12 33,-198.12"/>
<text text-anchor="start" x="52.12" y="-203.57" font-family="Helvetica,sans-Serif" font-size="14.00">SwingAttack &#160;</text>
<polygon fill="none" stroke="black" points="33,-130.12 33,-198.12 153,-198.12 153,-130.12 33,-130.12"/>
<text text-anchor="start" x="36" y="-184.72" font-family="Helvetica,sans-Serif" font-size="12.00" fill="#838b8b">0.38s: Evaluate</text>
<text text-anchor="start" x="36" y="-172.72" font-family="Helvetica,sans-Serif" font-size="12.00" fill="#838b8b">0.92s: Evaluate</text>
<text text-anchor="start" x="36" y="-160.72" font-family="Helvetica,sans-Serif" font-size="12.00" fill="#838b8b">1.23s: ResetEvaluate</text>
<text text-anchor="start" x="36" y="-148.72" font-family="Helvetica,sans-Serif" font-size="12.00" fill="#838b8b">1.67s: LinkNextMove</text>
<text text-anchor="start" x="36" y="-134.82" font-family="Helvetica,sans-Serif" font-size="12.00" fill="#838b8b">1.83s: Done</text>
<text text-anchor="start" x="100.5" y="-134.82" font-family="Helvetica,sans-Serif" font-size="14.00"> &#160;</text>
</g>
<!-- SwingAttack&#45;&gt;Engaging -->
<g id="edge10" class="edge">
<title>SwingAttack&#45;&gt;Engaging</title>
<path fill="none" stroke="#cdc8b1" d="M160.93,-211.44C169.97,-216.12 179.17,-220.75 188,-225 218.48,-239.67 253.44,-254.78 280.64,-266.16"/>
<polygon fill="#cdc8b1" stroke="#cdc8b1" points="279.06,-269.29 289.64,-269.91 281.75,-262.83 279.06,-269.29"/>
</g>
<!-- SwingAttack_linked -->
<g id="node19" class="node">
<title>SwingAttack_linked</title>
<polygon fill="none" stroke="black" stroke-dasharray="1,5" points="374.23,-177.35 281.27,-177.35 281.27,-130.65 374.23,-130.65 374.23,-177.35"/>
<text text-anchor="start" x="291.38" y="-158.45" font-family="Helvetica,sans-Serif" font-size="14.00">StabAttack &#160;</text>
<text text-anchor="start" x="286.88" y="-138.7" font-family="Helvetica,sans-Serif" font-size="14.00">SwingAttack &#160;</text>
</g>
<!-- SwingAttack&#45;&gt;SwingAttack_linked -->
<g id="edge11" class="edge">
<title>SwingAttack&#45;&gt;SwingAttack_linked</title>
<path fill="none" stroke="#66cdaa" d="M160.7,-168.98C195.18,-165.87 236.84,-162.11 269.8,-159.14"/>
<polygon fill="#66cdaa" stroke="#66cdaa" points="269.91,-162.64 279.56,-158.26 269.29,-155.67 269.91,-162.64"/>
<text text-anchor="middle" x="220.62" y="-168.83" font-family="Helvetica,sans-Serif" font-size="14.00" fill="#66cdaa">QueueEnd</text>
</g>
<!-- SwingAttack_weight -->
<g id="node20" class="node">
<title>SwingAttack_weight</title>
<polygon fill="none" stroke="black" stroke-dasharray="1,5" points="383.88,-242.75 271.62,-242.75 271.62,-195.25 383.88,-195.25 383.88,-242.75"/>
<text text-anchor="start" x="285.75" y="-223.45" font-family="Helvetica,sans-Serif" font-size="14.00">1 StabAttack &#160;</text>
<text text-anchor="start" x="281.62" y="-203.7" font-family="Helvetica,sans-Serif" font-size="14.00">1 RollThrough &#160;</text>
</g>
<!-- SwingAttack&#45;&gt;SwingAttack_weight -->
<g id="edge12" class="edge">
<title>SwingAttack&#45;&gt;SwingAttack_weight</title>
<path fill="none" stroke="#458b74" d="M160.7,-187.61C191.92,-193.51 229.02,-200.53 260.23,-206.42"/>
<polygon fill="#458b74" stroke="#458b74" points="259.47,-209.84 269.95,-208.26 260.77,-202.96 259.47,-209.84"/>
<text text-anchor="middle" x="220.62" y="-207.22" font-family="Helvetica,sans-Serif" font-size="14.00" fill="#458b74">Weight</text>
</g>
<!-- JumpAttack -->
<g id="node21" class="node">
<title>JumpAttack</title>
<polygon fill="none" stroke="black" points="34.12,-82.12 34.12,-103.88 151.88,-103.88 151.88,-82.12 34.12,-82.12"/>
<text text-anchor="start" x="53.62" y="-87.58" font-family="Helvetica,sans-Serif" font-size="14.00">JumpAttack &#160;</text>
<polygon fill="none" stroke="black" points="34.12,-38.12 34.12,-82.12 151.88,-82.12 151.88,-38.12 34.12,-38.12"/>
<text text-anchor="start" x="37.12" y="-68.72" font-family="Helvetica,sans-Serif" font-size="12.00" fill="#838b8b">0.35s: CheckFacing</text>
<text text-anchor="start" x="37.12" y="-56.72" font-family="Helvetica,sans-Serif" font-size="12.00" fill="#838b8b">1.50s: LinkNextMove</text>
<text text-anchor="start" x="37.12" y="-42.82" font-family="Helvetica,sans-Serif" font-size="12.00" fill="#838b8b">1.67s: Done</text>
<text text-anchor="start" x="101.62" y="-42.82" font-family="Helvetica,sans-Serif" font-size="14.00"> &#160;</text>
</g>
<!-- JumpAttack&#45;&gt;Engaging -->
<g id="edge13" class="edge">
<title>JumpAttack&#45;&gt;Engaging</title>
<path fill="none" stroke="#cdc8b1" d="M159.68,-106.15C163.44,-109.52 166.93,-113.14 170,-117 186,-137.14 170.64,-153.02 188,-172 209.3,-195.29 231.75,-176.9 253.25,-200 269.91,-217.91 255.8,-233.04 271.25,-252 274.28,-255.71 277.84,-259.11 281.68,-262.19"/>
<polygon fill="#cdc8b1" stroke="#cdc8b1" points="279.58,-264.99 289.77,-267.92 283.63,-259.28 279.58,-264.99"/>
</g>
<!-- JumpAttack_linked -->
<g id="node22" class="node">
<title>JumpAttack_linked</title>
<polygon fill="none" stroke="black" stroke-dasharray="1,5" points="374.23,-100.35 281.27,-100.35 281.27,-53.65 374.23,-53.65 374.23,-100.35"/>
<text text-anchor="start" x="291.38" y="-81.45" font-family="Helvetica,sans-Serif" font-size="14.00">StabAttack &#160;</text>
<text text-anchor="start" x="286.88" y="-61.7" font-family="Helvetica,sans-Serif" font-size="14.00">SwingAttack &#160;</text>
</g>
<!-- JumpAttack&#45;&gt;JumpAttack_linked -->
<g id="edge14" class="edge">
<title>JumpAttack&#45;&gt;JumpAttack_linked</title>
<path fill="none" stroke="#66cdaa" d="M159.76,-72.7C194.4,-73.59 236.45,-74.67 269.7,-75.53"/>
<polygon fill="#66cdaa" stroke="#66cdaa" points="269.46,-79.02 279.55,-75.78 269.64,-72.03 269.46,-79.02"/>
<text text-anchor="middle" x="220.62" y="-77.51" font-family="Helvetica,sans-Serif" font-size="14.00" fill="#66cdaa">QueueEnd</text>
</g>
<!-- JumpAttack_weight -->
<g id="node23" class="node">
<title>JumpAttack_weight</title>
<polygon fill="none" stroke="black" stroke-dasharray="1,5" points="379.75,-36 275.75,-36 275.75,0 379.75,0 379.75,-36"/>
<text text-anchor="start" x="285.75" y="-12.57" font-family="Helvetica,sans-Serif" font-size="14.00">1 StabAttack &#160;</text>
</g>
<!-- JumpAttack&#45;&gt;JumpAttack_weight -->
<g id="edge15" class="edge">
<title>JumpAttack&#45;&gt;JumpAttack_weight</title>
<path fill="none" stroke="#458b74" d="M159.76,-56.02C192.59,-48.55 232.09,-39.55 264.43,-32.19"/>
<polygon fill="#458b74" stroke="#458b74" points="265.1,-35.63 274.08,-29.99 263.55,-28.8 265.1,-35.63"/>
<text text-anchor="middle" x="220.62" y="-51.7" font-family="Helvetica,sans-Serif" font-size="14.00" fill="#458b74">Weight</text>
</g>
<!-- JumpShoot -->
<g id="node24" class="node">
<title>JumpShoot</title>
<polygon fill="none" stroke="black" points="36.75,-302.12 36.75,-323.88 149.25,-323.88 149.25,-302.12 36.75,-302.12"/>
<text text-anchor="start" x="54.75" y="-307.57" font-family="Helvetica,sans-Serif" font-size="14.00">JumpShoot &#160;</text>
<polygon fill="none" stroke="black" points="36.75,-246.12 36.75,-302.12 149.25,-302.12 149.25,-246.12 36.75,-246.12"/>
<text text-anchor="start" x="39.75" y="-288.73" font-family="Helvetica,sans-Serif" font-size="12.00" fill="#838b8b">0.17s: CheckFacing</text>
<text text-anchor="start" x="39.75" y="-276.73" font-family="Helvetica,sans-Serif" font-size="12.00" fill="#838b8b">0.50s: CheckFacing</text>
<text text-anchor="start" x="39.75" y="-264.73" font-family="Helvetica,sans-Serif" font-size="12.00" fill="#838b8b">0.83s: Shoot</text>
<text text-anchor="start" x="39.75" y="-250.83" font-family="Helvetica,sans-Serif" font-size="12.00" fill="#838b8b">1.50s: Done</text>
<text text-anchor="start" x="104.25" y="-250.83" font-family="Helvetica,sans-Serif" font-size="14.00"> &#160;</text>
</g>
<!-- JumpShoot&#45;&gt;Engaging -->
<g id="edge16" class="edge">
<title>JumpShoot&#45;&gt;Engaging</title>
<path fill="none" stroke="#cdc8b1" d="M156.99,-285C195.57,-285 244.15,-285 279.45,-285"/>
<polygon fill="#cdc8b1" stroke="#cdc8b1" points="279.36,-288.5 289.36,-285 279.36,-281.5 279.36,-288.5"/>
</g>
<!-- HurtState -->
<g id="node25" class="node">
<title>HurtState</title>
<polygon fill="none" stroke="black" points="54,-1136 54,-1157.75 132,-1157.75 132,-1136 54,-1136"/>
<text text-anchor="start" x="60.75" y="-1141.45" font-family="Helvetica,sans-Serif" font-size="14.00">HurtState &#160;</text>
<polygon fill="none" stroke="black" points="54,-1114.25 54,-1136 132,-1136 132,-1114.25 54,-1114.25"/>
<text text-anchor="start" x="57" y="-1120.7" font-family="Helvetica,sans-Serif" font-size="12.00" fill="#838b8b">0.17s: Done</text>
<text text-anchor="start" x="121.5" y="-1120.7" font-family="Helvetica,sans-Serif" font-size="14.00"> &#160;</text>
</g>
<!-- PreAttack -->
<g id="node26" class="node">
<title>PreAttack</title>
<polygon fill="none" stroke="black" points="365,-1119 290.5,-1119 290.5,-1083 365,-1083 365,-1119"/>
<text text-anchor="middle" x="327.75" y="-1095.58" font-family="Helvetica,sans-Serif" font-size="14.00">PreAttack</text>
</g>
<!-- HurtState&#45;&gt;PreAttack -->
<g id="edge17" class="edge">
<title>HurtState&#45;&gt;PreAttack</title>
<path fill="none" stroke="#cdc8b1" d="M139.98,-1129.09C180.1,-1123.05 238.1,-1114.33 278.79,-1108.21"/>
<polygon fill="#cdc8b1" stroke="#cdc8b1" points="279.17,-1111.69 288.54,-1106.75 278.13,-1104.77 279.17,-1111.69"/>
</g>
<!-- Hurt_BigState -->
<g id="node27" class="node">
<title>Hurt_BigState</title>
<polygon fill="none" stroke="black" points="44.25,-1066 44.25,-1087.75 141.75,-1087.75 141.75,-1066 44.25,-1066"/>
<text text-anchor="start" x="47.25" y="-1071.45" font-family="Helvetica,sans-Serif" font-size="14.00">Hurt_BigState &#160;</text>
<polygon fill="none" stroke="black" points="44.25,-1044.25 44.25,-1066 141.75,-1066 141.75,-1044.25 44.25,-1044.25"/>
<text text-anchor="start" x="47.25" y="-1050.7" font-family="Helvetica,sans-Serif" font-size="12.00" fill="#838b8b">0.17s: Done</text>
<text text-anchor="start" x="111.75" y="-1050.7" font-family="Helvetica,sans-Serif" font-size="14.00"> &#160;</text>
</g>
<!-- Hurt_BigState&#45;&gt;PreAttack -->
<g id="edge18" class="edge">
<title>Hurt_BigState&#45;&gt;PreAttack</title>
<path fill="none" stroke="#cdc8b1" d="M149.75,-1074.38C189.24,-1080.32 241.65,-1088.2 279.17,-1093.85"/>
<polygon fill="#cdc8b1" stroke="#cdc8b1" points="278.4,-1097.27 288.81,-1095.29 279.44,-1090.35 278.4,-1097.27"/>
</g>
<!-- Wandering_Idle -->
<g id="node28" class="node">
<title>Wandering_Idle</title>
<polygon fill="none" stroke="black" points="163.62,-1216 22.38,-1216 22.38,-1180 163.62,-1180 163.62,-1216"/>
<text text-anchor="middle" x="93" y="-1192.58" font-family="Helvetica,sans-Serif" font-size="14.00">Wandering_Idle (Init)</text>
</g>
</g>
</svg>
