<?xml version="1.0" encoding="UTF-8" standalone="no"?>
<!DOCTYPE svg PUBLIC "-//W3C//DTD SVG 1.1//EN"
 "http://www.w3.org/Graphics/SVG/1.1/DTD/svg11.dtd">
<!-- Generated by graphviz version 12.2.1 (20241206.2353)
 -->
<!-- Title: Foo Pages: 1 -->
<svg width="408pt" height="1207pt"
 viewBox="0.00 0.00 408.25 1207.00" xmlns="http://www.w3.org/2000/svg" xmlns:xlink="http://www.w3.org/1999/xlink">
<g id="graph0" class="graph" transform="scale(1 1) rotate(0) translate(4 1203)">
<title>Foo</title>
<polygon fill="white" stroke="none" points="-4,4 -4,-1203 404.25,-1203 404.25,4 -4,4"/>
<g id="clust1" class="cluster">
<title>cluster_attacksensors</title>
<polygon fill="none" stroke="black" points="8,-8 8,-622 392.25,-622 392.25,-8 8,-8"/>
<text text-anchor="middle" x="200.12" y="-604.7" font-family="Helvetica,sans-Serif" font-size="14.00">Attack Sensors</text>
</g>
<!-- StabAttack -->
<g id="node1" class="node">
<title>StabAttack</title>
<polygon fill="none" stroke="black" points="34.12,-666.12 34.12,-687.88 151.88,-687.88 151.88,-666.12 34.12,-666.12"/>
<text text-anchor="start" x="56.62" y="-671.58" font-family="Helvetica,sans-Serif" font-size="14.00">StabAttack &#160;</text>
<polygon fill="none" stroke="black" points="34.12,-634.12 34.12,-666.12 151.88,-666.12 151.88,-634.12 34.12,-634.12"/>
<text text-anchor="start" x="37.12" y="-652.73" font-family="Helvetica,sans-Serif" font-size="12.00" fill="#838b8b">0.75s: LinkNextMove</text>
<text text-anchor="start" x="37.12" y="-638.83" font-family="Helvetica,sans-Serif" font-size="12.00" fill="#838b8b">0.83s: Done</text>
<text text-anchor="start" x="101.62" y="-638.83" font-family="Helvetica,sans-Serif" font-size="14.00"> &#160;</text>
</g>
<!-- Engaging -->
<g id="node2" class="node">
<title>Engaging</title>
<polygon fill="none" stroke="black" points="364.25,-771 291.25,-771 291.25,-735 364.25,-735 364.25,-771"/>
<text text-anchor="middle" x="327.75" y="-747.58" font-family="Helvetica,sans-Serif" font-size="14.00">Engaging</text>
</g>
<!-- StabAttack&#45;&gt;Engaging -->
<g id="edge1" class="edge">
<title>StabAttack&#45;&gt;Engaging</title>
<path fill="none" stroke="#cdc8b1" d="M159.76,-686.99C198.38,-702.26 246.24,-721.17 280.8,-734.84"/>
<polygon fill="#cdc8b1" stroke="#cdc8b1" points="279.08,-737.92 289.67,-738.34 281.66,-731.41 279.08,-737.92"/>
</g>
<!-- SwingAttack -->
<g id="node3" class="node">
<title>SwingAttack</title>
<polygon fill="none" stroke="black" points="33,-978.12 33,-999.88 153,-999.88 153,-978.12 33,-978.12"/>
<text text-anchor="start" x="52.12" y="-983.58" font-family="Helvetica,sans-Serif" font-size="14.00">SwingAttack &#160;</text>
<polygon fill="none" stroke="black" points="33,-910.12 33,-978.12 153,-978.12 153,-910.12 33,-910.12"/>
<text text-anchor="start" x="36" y="-964.73" font-family="Helvetica,sans-Serif" font-size="12.00" fill="#838b8b">0.38s: Evaluate</text>
<text text-anchor="start" x="36" y="-952.73" font-family="Helvetica,sans-Serif" font-size="12.00" fill="#838b8b">0.92s: Evaluate</text>
<text text-anchor="start" x="36" y="-940.73" font-family="Helvetica,sans-Serif" font-size="12.00" fill="#838b8b">1.23s: ResetEvaluate</text>
<text text-anchor="start" x="36" y="-928.73" font-family="Helvetica,sans-Serif" font-size="12.00" fill="#838b8b">1.67s: LinkNextMove</text>
<text text-anchor="start" x="36" y="-914.83" font-family="Helvetica,sans-Serif" font-size="12.00" fill="#838b8b">1.83s: Done</text>
<text text-anchor="start" x="100.5" y="-914.83" font-family="Helvetica,sans-Serif" font-size="14.00"> &#160;</text>
</g>
<!-- SwingAttack&#45;&gt;Engaging -->
<g id="edge2" class="edge">
<title>SwingAttack&#45;&gt;Engaging</title>
<path fill="none" stroke="#cdc8b1" d="M160.94,-941.7C193.59,-931.77 230.61,-914.77 253.25,-886 282.26,-849.13 243.6,-819.89 271.25,-782 274.06,-778.15 277.54,-774.76 281.37,-771.8"/>
<polygon fill="#cdc8b1" stroke="#cdc8b1" points="283.09,-774.86 289.55,-766.46 279.26,-769 283.09,-774.86"/>
</g>
<!-- SwingAttack_linked -->
<g id="node4" class="node">
<title>SwingAttack_linked</title>
<polygon fill="none" stroke="black" stroke-dasharray="1,5" points="374.23,-1037.35 281.27,-1037.35 281.27,-990.65 374.23,-990.65 374.23,-1037.35"/>
<text text-anchor="start" x="291.38" y="-1018.45" font-family="Helvetica,sans-Serif" font-size="14.00">StabAttack &#160;</text>
<text text-anchor="start" x="286.88" y="-998.7" font-family="Helvetica,sans-Serif" font-size="14.00">SwingAttack &#160;</text>
</g>
<!-- SwingAttack&#45;&gt;SwingAttack_linked -->
<g id="edge3" class="edge">
<title>SwingAttack&#45;&gt;SwingAttack_linked</title>
<path fill="none" stroke="#66cdaa" d="M160.7,-971.91C195.33,-980.69 237.2,-991.3 270.23,-999.67"/>
<polygon fill="#66cdaa" stroke="#66cdaa" points="269.05,-1002.98 279.6,-1002.05 270.77,-996.2 269.05,-1002.98"/>
<text text-anchor="middle" x="220.62" y="-997.37" font-family="Helvetica,sans-Serif" font-size="14.00" fill="#66cdaa">QueueEnd</text>
</g>
<!-- SwingAttack_mustuse -->
<g id="node5" class="node">
<title>SwingAttack_mustuse</title>
<polygon fill="none" stroke="black" stroke-dasharray="1,5" points="383.88,-972.75 271.62,-972.75 271.62,-925.25 383.88,-925.25 383.88,-972.75"/>
<text text-anchor="start" x="285.75" y="-953.45" font-family="Helvetica,sans-Serif" font-size="14.00">1 StabAttack &#160;</text>
<text text-anchor="start" x="281.62" y="-933.7" font-family="Helvetica,sans-Serif" font-size="14.00">1 RollThrough &#160;</text>
</g>
<!-- SwingAttack&#45;&gt;SwingAttack_mustuse -->
<g id="edge4" class="edge">
<title>SwingAttack&#45;&gt;SwingAttack_mustuse</title>
<path fill="none" stroke="#458b74" d="M160.7,-953.28C191.92,-952.48 229.02,-951.52 260.23,-950.71"/>
<polygon fill="#458b74" stroke="#458b74" points="260.01,-954.22 269.92,-950.47 259.83,-947.22 260.01,-954.22"/>
<text text-anchor="middle" x="220.62" y="-954.99" font-family="Helvetica,sans-Serif" font-size="14.00" fill="#458b74">Weight</text>
</g>
<!-- JumpAttack -->
<g id="node6" class="node">
<title>JumpAttack</title>
<polygon fill="none" stroke="black" points="34.12,-862.12 34.12,-883.88 151.88,-883.88 151.88,-862.12 34.12,-862.12"/>
<text text-anchor="start" x="53.62" y="-867.58" font-family="Helvetica,sans-Serif" font-size="14.00">JumpAttack &#160;</text>
<polygon fill="none" stroke="black" points="34.12,-818.12 34.12,-862.12 151.88,-862.12 151.88,-818.12 34.12,-818.12"/>
<text text-anchor="start" x="37.12" y="-848.73" font-family="Helvetica,sans-Serif" font-size="12.00" fill="#838b8b">0.35s: CheckFacing</text>
<text text-anchor="start" x="37.12" y="-836.73" font-family="Helvetica,sans-Serif" font-size="12.00" fill="#838b8b">1.50s: LinkNextMove</text>
<text text-anchor="start" x="37.12" y="-822.83" font-family="Helvetica,sans-Serif" font-size="12.00" fill="#838b8b">1.67s: Done</text>
<text text-anchor="start" x="101.62" y="-822.83" font-family="Helvetica,sans-Serif" font-size="14.00"> &#160;</text>
</g>
<!-- JumpAttack&#45;&gt;Engaging -->
<g id="edge5" class="edge">
<title>JumpAttack&#45;&gt;Engaging</title>
<path fill="none" stroke="#cdc8b1" d="M159.76,-823.31C198.38,-807.05 246.24,-786.9 280.8,-772.35"/>
<polygon fill="#cdc8b1" stroke="#cdc8b1" points="281.82,-775.71 289.68,-768.61 279.11,-769.26 281.82,-775.71"/>
</g>
<!-- JumpAttack_linked -->
<g id="node7" class="node">
<title>JumpAttack_linked</title>
<polygon fill="none" stroke="black" stroke-dasharray="1,5" points="374.23,-837.35 281.27,-837.35 281.27,-790.65 374.23,-790.65 374.23,-837.35"/>
<text text-anchor="start" x="291.38" y="-818.45" font-family="Helvetica,sans-Serif" font-size="14.00">StabAttack &#160;</text>
<text text-anchor="start" x="286.88" y="-798.7" font-family="Helvetica,sans-Serif" font-size="14.00">SwingAttack &#160;</text>
</g>
<!-- JumpAttack&#45;&gt;JumpAttack_linked -->
<g id="edge6" class="edge">
<title>JumpAttack&#45;&gt;JumpAttack_linked</title>
<path fill="none" stroke="#66cdaa" d="M159.76,-840.55C194.4,-835.04 236.45,-828.35 269.7,-823.07"/>
<polygon fill="#66cdaa" stroke="#66cdaa" points="270.24,-826.53 279.57,-821.5 269.14,-819.61 270.24,-826.53"/>
<text text-anchor="middle" x="220.62" y="-838.26" font-family="Helvetica,sans-Serif" font-size="14.00" fill="#66cdaa">QueueEnd</text>
</g>
<!-- JumpAttack_mustuse -->
<g id="node8" class="node">
<title>JumpAttack_mustuse</title>
<polygon fill="none" stroke="black" stroke-dasharray="1,5" points="379.75,-891 275.75,-891 275.75,-855 379.75,-855 379.75,-891"/>
<text text-anchor="start" x="285.75" y="-867.58" font-family="Helvetica,sans-Serif" font-size="14.00">1 StabAttack &#160;</text>
</g>
<!-- JumpAttack&#45;&gt;JumpAttack_mustuse -->
<g id="edge7" class="edge">
<title>JumpAttack&#45;&gt;JumpAttack_mustuse</title>
<path fill="none" stroke="#458b74" d="M159.76,-857.22C192.59,-860.32 232.09,-864.05 264.43,-867.11"/>
<polygon fill="#458b74" stroke="#458b74" points="263.76,-870.56 274.04,-868.02 264.42,-863.59 263.76,-870.56"/>
<text text-anchor="middle" x="220.62" y="-868.33" font-family="Helvetica,sans-Serif" font-size="14.00" fill="#458b74">Weight</text>
</g>
<!-- JumpShoot -->
<g id="node9" class="node">
<title>JumpShoot</title>
<polygon fill="none" stroke="black" points="36.75,-770.12 36.75,-791.88 149.25,-791.88 149.25,-770.12 36.75,-770.12"/>
<text text-anchor="start" x="54.75" y="-775.58" font-family="Helvetica,sans-Serif" font-size="14.00">JumpShoot &#160;</text>
<polygon fill="none" stroke="black" points="36.75,-714.12 36.75,-770.12 149.25,-770.12 149.25,-714.12 36.75,-714.12"/>
<text text-anchor="start" x="39.75" y="-756.73" font-family="Helvetica,sans-Serif" font-size="12.00" fill="#838b8b">0.17s: CheckFacing</text>
<text text-anchor="start" x="39.75" y="-744.73" font-family="Helvetica,sans-Serif" font-size="12.00" fill="#838b8b">0.50s: CheckFacing</text>
<text text-anchor="start" x="39.75" y="-732.73" font-family="Helvetica,sans-Serif" font-size="12.00" fill="#838b8b">0.83s: Shoot</text>
<text text-anchor="start" x="39.75" y="-718.83" font-family="Helvetica,sans-Serif" font-size="12.00" fill="#838b8b">1.50s: Done</text>
<text text-anchor="start" x="104.25" y="-718.83" font-family="Helvetica,sans-Serif" font-size="14.00"> &#160;</text>
</g>
<!-- JumpShoot&#45;&gt;Engaging -->
<g id="edge8" class="edge">
<title>JumpShoot&#45;&gt;Engaging</title>
<path fill="none" stroke="#cdc8b1" d="M156.99,-753C195.57,-753 244.15,-753 279.45,-753"/>
<polygon fill="#cdc8b1" stroke="#cdc8b1" points="279.36,-756.5 289.36,-753 279.36,-749.5 279.36,-756.5"/>
</g>
<!-- HurtState -->
<g id="node10" class="node">
<title>HurtState</title>
<polygon fill="none" stroke="black" points="54,-1119 54,-1140.75 132,-1140.75 132,-1119 54,-1119"/>
<text text-anchor="start" x="60.75" y="-1124.45" font-family="Helvetica,sans-Serif" font-size="14.00">HurtState &#160;</text>
<polygon fill="none" stroke="black" points="54,-1097.25 54,-1119 132,-1119 132,-1097.25 54,-1097.25"/>
<text text-anchor="start" x="57" y="-1103.7" font-family="Helvetica,sans-Serif" font-size="12.00" fill="#838b8b">0.17s: Done</text>
<text text-anchor="start" x="121.5" y="-1103.7" font-family="Helvetica,sans-Serif" font-size="14.00"> &#160;</text>
</g>
<!-- PreAttack -->
<g id="node11" class="node">
<title>PreAttack</title>
<polygon fill="none" stroke="black" points="365,-1114 290.5,-1114 290.5,-1078 365,-1078 365,-1114"/>
<text text-anchor="middle" x="327.75" y="-1090.58" font-family="Helvetica,sans-Serif" font-size="14.00">PreAttack</text>
</g>
<!-- HurtState&#45;&gt;PreAttack -->
<g id="edge9" class="edge">
<title>HurtState&#45;&gt;PreAttack</title>
<path fill="none" stroke="#cdc8b1" d="M139.98,-1114.46C180.1,-1110.49 238.1,-1104.76 278.79,-1100.74"/>
<polygon fill="#cdc8b1" stroke="#cdc8b1" points="278.93,-1104.24 288.53,-1099.78 278.24,-1097.28 278.93,-1104.24"/>
</g>
<!-- Hurt_BigState -->
<g id="node12" class="node">
<title>Hurt_BigState</title>
<polygon fill="none" stroke="black" points="44.25,-1049 44.25,-1070.75 141.75,-1070.75 141.75,-1049 44.25,-1049"/>
<text text-anchor="start" x="47.25" y="-1054.45" font-family="Helvetica,sans-Serif" font-size="14.00">Hurt_BigState &#160;</text>
<polygon fill="none" stroke="black" points="44.25,-1027.25 44.25,-1049 141.75,-1049 141.75,-1027.25 44.25,-1027.25"/>
<text text-anchor="start" x="47.25" y="-1033.7" font-family="Helvetica,sans-Serif" font-size="12.00" fill="#838b8b">0.17s: Done</text>
<text text-anchor="start" x="111.75" y="-1033.7" font-family="Helvetica,sans-Serif" font-size="14.00"> &#160;</text>
</g>
<!-- Hurt_BigState&#45;&gt;PreAttack -->
<g id="edge10" class="edge">
<title>Hurt_BigState&#45;&gt;PreAttack</title>
<path fill="none" stroke="#cdc8b1" d="M149.75,-1060.26C189.24,-1068.23 241.65,-1078.81 279.17,-1086.39"/>
<polygon fill="#cdc8b1" stroke="#cdc8b1" points="278.33,-1089.79 288.82,-1088.34 279.71,-1082.93 278.33,-1089.79"/>
</g>
<!-- RollThrough -->
<g id="node13" class="node">
<title>RollThrough</title>
<text text-anchor="middle" x="93" y="-566.58" font-family="Helvetica,sans-Serif" font-size="14.00">RollThrough</text>
</g>
<!-- RollThrough&#45;&gt;Engaging -->
<g id="edge11" class="edge">
<title>RollThrough&#45;&gt;Engaging</title>
<path fill="none" stroke="#cdc8b1" d="M123.82,-590C138.08,-598.91 155.23,-610.09 170,-621 216.62,-655.44 267.39,-699.51 298.14,-727"/>
<polygon fill="#cdc8b1" stroke="#cdc8b1" points="295.73,-729.54 305.51,-733.62 300.41,-724.33 295.73,-729.54"/>
</g>
<!-- RollThrough_linked -->
<g id="node28" class="node">
<title>RollThrough_linked</title>
<polygon fill="none" stroke="black" stroke-dasharray="1,5" points="373.85,-590 281.65,-590 281.65,-554 373.85,-554 373.85,-590"/>
<text text-anchor="start" x="287.25" y="-566.58" font-family="Helvetica,sans-Serif" font-size="14.00">RollThrough &#160;</text>
</g>
<!-- RollThrough&#45;&gt;RollThrough_linked -->
<g id="edge19" class="edge">
<title>RollThrough&#45;&gt;RollThrough_linked</title>
<path fill="none" stroke="#66cdaa" d="M137.51,-572C174.95,-572 229.23,-572 270.07,-572"/>
<polygon fill="#66cdaa" stroke="#66cdaa" points="269.96,-575.5 279.96,-572 269.96,-568.5 269.96,-575.5"/>
<text text-anchor="middle" x="220.62" y="-574.45" font-family="Helvetica,sans-Serif" font-size="14.00" fill="#66cdaa">QueueEnd</text>
</g>
<!-- Wandering_Idle -->
<g id="node14" class="node">
<title>Wandering_Idle</title>
<polygon fill="none" stroke="black" points="163.62,-1199 22.38,-1199 22.38,-1163 163.62,-1163 163.62,-1199"/>
<text text-anchor="middle" x="93" y="-1175.58" font-family="Helvetica,sans-Serif" font-size="14.00">Wandering_Idle (Init)</text>
</g>
<!-- Level Once Sensor -->
<g id="node15" class="node">
<title>Level Once Sensor</title>
<polygon fill="none" stroke="black" points="158.75,-77 27.25,-77 27.25,-41 158.75,-41 158.75,-77"/>
<text text-anchor="middle" x="93" y="-53.58" font-family="Helvetica,sans-Serif" font-size="14.00">Level Once Sensor</text>
</g>
<!-- Level Once Sensor_linked -->
<g id="node16" class="node">
<title>Level Once Sensor_linked</title>
<polygon fill="none" stroke="black" stroke-dasharray="1,5" points="369.73,-52 285.77,-52 285.77,-16 369.73,-16 369.73,-52"/>
<text text-anchor="start" x="291.38" y="-28.57" font-family="Helvetica,sans-Serif" font-size="14.00">StabAttack &#160;</text>
</g>
<!-- Level Once Sensor&#45;&gt;Level Once Sensor_linked -->
<g id="edge12" class="edge">
<title>Level Once Sensor&#45;&gt;Level Once Sensor_linked</title>
<path fill="none" stroke="#66cdaa" d="M159.11,-47.23C168.78,-45.73 178.63,-44.34 188,-43.25 216.28,-39.95 247.95,-37.72 273.89,-36.29"/>
<polygon fill="#66cdaa" stroke="#66cdaa" points="274.05,-39.78 283.86,-35.76 273.69,-32.79 274.05,-39.78"/>
<text text-anchor="middle" x="220.62" y="-45.7" font-family="Helvetica,sans-Serif" font-size="14.00" fill="#66cdaa">QueueEnd</text>
</g>
<!-- Level Once Sensor_mustuse -->
<g id="node17" class="node">
<title>Level Once Sensor_mustuse</title>
<polygon fill="none" stroke="black" stroke-dasharray="1,5" points="379.75,-106 275.75,-106 275.75,-70 379.75,-70 379.75,-106"/>
<text text-anchor="start" x="285.75" y="-82.58" font-family="Helvetica,sans-Serif" font-size="14.00">1 StabAttack &#160;</text>
</g>
<!-- Level Once Sensor&#45;&gt;Level Once Sensor_mustuse -->
<g id="edge13" class="edge">
<title>Level Once Sensor&#45;&gt;Level Once Sensor_mustuse</title>
<path fill="none" stroke="#458b74" d="M159.14,-67.12C191.99,-71.21 231.63,-76.15 264.11,-80.2"/>
<polygon fill="#458b74" stroke="#458b74" points="263.42,-83.64 273.78,-81.4 264.29,-76.69 263.42,-83.64"/>
<text text-anchor="middle" x="220.62" y="-81.07" font-family="Helvetica,sans-Serif" font-size="14.00" fill="#458b74">Weight</text>
</g>
<!-- RunAwaySensor -->
<g id="node18" class="node">
<title>RunAwaySensor</title>
<polygon fill="none" stroke="black" points="151.25,-293 34.75,-293 34.75,-257 151.25,-257 151.25,-293"/>
<text text-anchor="middle" x="93" y="-269.57" font-family="Helvetica,sans-Serif" font-size="14.00">RunAwaySensor</text>
</g>
<!-- AttackSensor -->
<g id="node19" class="node">
<title>AttackSensor</title>
<polygon fill="none" stroke="black" points="141.12,-230 44.88,-230 44.88,-194 141.12,-194 141.12,-230"/>
<text text-anchor="middle" x="93" y="-206.57" font-family="Helvetica,sans-Serif" font-size="14.00">AttackSensor</text>
</g>
<!-- AttackSensor_linked -->
<g id="node20" class="node">
<title>AttackSensor_linked</title>
<polygon fill="none" stroke="black" stroke-dasharray="1,5" points="374.23,-249.85 281.27,-249.85 281.27,-124.15 374.23,-124.15 374.23,-249.85"/>
<text text-anchor="start" x="291.38" y="-230.95" font-family="Helvetica,sans-Serif" font-size="14.00">StabAttack &#160;</text>
<text text-anchor="start" x="286.88" y="-211.2" font-family="Helvetica,sans-Serif" font-size="14.00">SwingAttack &#160;</text>
<text text-anchor="start" x="288.38" y="-191.45" font-family="Helvetica,sans-Serif" font-size="14.00">JumpAttack &#160;</text>
<text text-anchor="start" x="289.5" y="-171.7" font-family="Helvetica,sans-Serif" font-size="14.00">JumpShoot &#160;</text>
<text text-anchor="start" x="291.38" y="-151.95" font-family="Helvetica,sans-Serif" font-size="14.00">StabAttack &#160;</text>
<text text-anchor="start" x="286.88" y="-132.2" font-family="Helvetica,sans-Serif" font-size="14.00">SwingAttack &#160;</text>
</g>
<!-- AttackSensor&#45;&gt;AttackSensor_linked -->
<g id="edge14" class="edge">
<title>AttackSensor&#45;&gt;AttackSensor_linked</title>
<path fill="none" stroke="#66cdaa" d="M141.38,-206.91C178.52,-202.92 230.33,-197.36 269.74,-193.12"/>
<polygon fill="#66cdaa" stroke="#66cdaa" points="269.95,-196.62 279.52,-192.07 269.2,-189.66 269.95,-196.62"/>
<text text-anchor="middle" x="220.62" y="-204.19" font-family="Helvetica,sans-Serif" font-size="14.00" fill="#66cdaa">QueueEnd</text>
</g>
<!-- AttackSensor_mustuse -->
<g id="node21" class="node">
<title>AttackSensor_mustuse</title>
<polygon fill="none" stroke="black" stroke-dasharray="1,5" points="384.25,-374.38 271.25,-374.38 271.25,-267.62 384.25,-267.62 384.25,-374.38"/>
<text text-anchor="start" x="285.75" y="-355.07" font-family="Helvetica,sans-Serif" font-size="14.00">0 StabAttack &#160;</text>
<text text-anchor="start" x="282.75" y="-335.32" font-family="Helvetica,sans-Serif" font-size="14.00">1 JumpAttack &#160;</text>
<text text-anchor="start" x="283.88" y="-315.57" font-family="Helvetica,sans-Serif" font-size="14.00">1 JumpShoot &#160;</text>
<text text-anchor="start" x="281.62" y="-295.82" font-family="Helvetica,sans-Serif" font-size="14.00">1 RollThrough &#160;</text>
<text text-anchor="start" x="281.25" y="-276.07" font-family="Helvetica,sans-Serif" font-size="14.00">1 SwingAttack &#160;</text>
</g>
<!-- AttackSensor&#45;&gt;AttackSensor_mustuse -->
<g id="edge15" class="edge">
<title>AttackSensor&#45;&gt;AttackSensor_mustuse</title>
<path fill="none" stroke="#458b74" d="M133.48,-230.49C168.28,-246.78 219.67,-270.85 260.71,-290.07"/>
<polygon fill="#458b74" stroke="#458b74" points="258.99,-293.13 269.54,-294.21 261.96,-286.79 258.99,-293.13"/>
<text text-anchor="middle" x="220.62" y="-288.19" font-family="Helvetica,sans-Serif" font-size="14.00" fill="#458b74">Weight</text>
</g>
<!-- DodgePredictSensor -->
<g id="node22" class="node">
<title>DodgePredictSensor</title>
<polygon fill="none" stroke="black" points="24,-370 24,-391.75 162,-391.75 162,-370 24,-370"/>
<text text-anchor="start" x="27" y="-375.45" font-family="Helvetica,sans-Serif" font-size="14.00">DodgePredictSensor &#160;</text>
<polygon fill="none" stroke="black" points="24,-348.25 24,-370 162,-370 162,-348.25 24,-348.25"/>
<text text-anchor="start" x="27" y="-354.7" font-family="Helvetica,sans-Serif" font-size="12.00" fill="#838b8b">if: Dodge</text>
<text text-anchor="start" x="75" y="-354.7" font-family="Helvetica,sans-Serif" font-size="14.00"> &#160;</text>
</g>
<!-- DodgePredictSensor_linked -->
<g id="node23" class="node">
<title>DodgePredictSensor_linked</title>
<polygon fill="none" stroke="black" stroke-dasharray="1,5" points="369.73,-428 285.77,-428 285.77,-392 369.73,-392 369.73,-428"/>
<text text-anchor="start" x="291.38" y="-404.57" font-family="Helvetica,sans-Serif" font-size="14.00">StabAttack &#160;</text>
</g>
<!-- DodgePredictSensor&#45;&gt;DodgePredictSensor_linked -->
<g id="edge16" class="edge">
<title>DodgePredictSensor&#45;&gt;DodgePredictSensor_linked</title>
<path fill="none" stroke="#66cdaa" d="M169.89,-383.04C204.15,-388.93 243.76,-395.74 274.61,-401.04"/>
<polygon fill="#66cdaa" stroke="#66cdaa" points="273.61,-404.42 284.06,-402.66 274.8,-397.52 273.61,-404.42"/>
<text text-anchor="middle" x="220.62" y="-399.51" font-family="Helvetica,sans-Serif" font-size="14.00" fill="#66cdaa">QueueEnd</text>
</g>
<!-- AttackPredictSensor -->
<g id="node24" class="node">
<title>AttackPredictSensor</title>
<polygon fill="none" stroke="black" points="25.12,-440 25.12,-461.75 160.88,-461.75 160.88,-440 25.12,-440"/>
<text text-anchor="start" x="28.12" y="-445.45" font-family="Helvetica,sans-Serif" font-size="14.00">AttackPredictSensor &#160;</text>
<polygon fill="none" stroke="black" points="25.12,-418.25 25.12,-440 160.88,-440 160.88,-418.25 25.12,-418.25"/>
<text text-anchor="start" x="28.12" y="-424.7" font-family="Helvetica,sans-Serif" font-size="12.00" fill="#838b8b">if: Attack</text>
<text text-anchor="start" x="73.12" y="-424.7" font-family="Helvetica,sans-Serif" font-size="14.00"> &#160;</text>
</g>
<!-- AttackPredictSensor_linked -->
<g id="node25" class="node">
<title>AttackPredictSensor_linked</title>
<polygon fill="none" stroke="black" stroke-dasharray="1,5" points="369.73,-482 285.77,-482 285.77,-446 369.73,-446 369.73,-482"/>
<text text-anchor="start" x="291.38" y="-458.57" font-family="Helvetica,sans-Serif" font-size="14.00">StabAttack &#160;</text>
</g>
<!-- AttackPredictSensor&#45;&gt;AttackPredictSensor_linked -->
<g id="edge17" class="edge">
<title>AttackPredictSensor&#45;&gt;AttackPredictSensor_linked</title>
<path fill="none" stroke="#66cdaa" d="M168.6,-447.69C203.06,-451.25 243.16,-455.38 274.36,-458.6"/>
<polygon fill="#66cdaa" stroke="#66cdaa" points="273.61,-462.04 283.91,-459.58 274.33,-455.08 273.61,-462.04"/>
<text text-anchor="middle" x="220.62" y="-458.69" font-family="Helvetica,sans-Serif" font-size="14.00" fill="#66cdaa">QueueEnd</text>
</g>
<!-- AttackRunToSensor -->
<g id="node26" class="node">
<title>AttackRunToSensor</title>
<polygon fill="none" stroke="black" points="26.62,-510 26.62,-531.75 159.38,-531.75 159.38,-510 26.62,-510"/>
<text text-anchor="start" x="29.62" y="-515.45" font-family="Helvetica,sans-Serif" font-size="14.00">AttackRunToSensor &#160;</text>
<polygon fill="none" stroke="black" points="26.62,-488.25 26.62,-510 159.38,-510 159.38,-488.25 26.62,-488.25"/>
<text text-anchor="start" x="29.62" y="-494.7" font-family="Helvetica,sans-Serif" font-size="12.00" fill="#838b8b">if: state is Engaging</text>
<text text-anchor="start" x="133.88" y="-494.7" font-family="Helvetica,sans-Serif" font-size="14.00"> &#160;</text>
</g>
<!-- AttackRunToSensor_linked -->
<g id="node27" class="node">
<title>AttackRunToSensor_linked</title>
<polygon fill="none" stroke="black" stroke-dasharray="1,5" points="369.73,-536 285.77,-536 285.77,-500 369.73,-500 369.73,-536"/>
<text text-anchor="start" x="291.38" y="-512.58" font-family="Helvetica,sans-Serif" font-size="14.00">StabAttack &#160;</text>
</g>
<!-- AttackRunToSensor&#45;&gt;AttackRunToSensor_linked -->
<g id="edge18" class="edge">
<title>AttackRunToSensor&#45;&gt;AttackRunToSensor_linked</title>
<path fill="none" stroke="#66cdaa" d="M167.32,-512.52C201.98,-513.71 242.56,-515.11 274.11,-516.19"/>
<polygon fill="#66cdaa" stroke="#66cdaa" points="273.66,-519.68 283.78,-516.52 273.91,-512.68 273.66,-519.68"/>
<text text-anchor="middle" x="220.62" y="-517.86" font-family="Helvetica,sans-Serif" font-size="14.00" fill="#66cdaa">QueueEnd</text>
</g>
</g>
</svg>
