<?xml version="1.0" encoding="UTF-8" standalone="no"?>
<!DOCTYPE svg PUBLIC "-//W3C//DTD SVG 1.1//EN"
 "http://www.w3.org/Graphics/SVG/1.1/DTD/svg11.dtd">
<!-- Generated by graphviz version 12.2.1 (20241206.2353)
 -->
<!-- Title: Foo Pages: 1 -->
<svg width="525pt" height="821pt"
 viewBox="0.00 0.00 524.50 820.75" xmlns="http://www.w3.org/2000/svg" xmlns:xlink="http://www.w3.org/1999/xlink">
<g id="graph0" class="graph" transform="scale(1 1) rotate(0) translate(4 816.75)">
<title>Foo</title>
<polygon fill="white" stroke="none" points="-4,4 -4,-816.75 520.5,-816.75 520.5,4 -4,4"/>
<g id="clust1" class="cluster">
<title>cluster_attacksensors</title>
<polygon fill="none" stroke="black" points="8,-340.75 8,-804.75 393.35,-804.75 393.35,-340.75 8,-340.75"/>
<text text-anchor="middle" x="200.68" y="-787.45" font-family="Helvetica,sans-Serif" font-size="14.00">Attack Sensors</text>
</g>
<!-- Attack_Bark -->
<g id="node1" class="node">
<title>Attack_Bark</title>
<polygon fill="none" stroke="black" points="49.88,-250.75 49.88,-272.5 136.12,-272.5 136.12,-250.75 49.88,-250.75"/>
<text text-anchor="start" x="52.88" y="-256.2" font-family="Helvetica,sans-Serif" font-size="14.00">Attack_Bark &#160;</text>
<polygon fill="none" stroke="black" points="49.88,-229 49.88,-250.75 136.12,-250.75 136.12,-229 49.88,-229"/>
<text text-anchor="start" x="52.88" y="-235.45" font-family="Helvetica,sans-Serif" font-size="12.00" fill="#838b8b">0.92s: Done</text>
<text text-anchor="start" x="117.38" y="-235.45" font-family="Helvetica,sans-Serif" font-size="14.00"> &#160;</text>
</g>
<!-- Attack 2 Bite -->
<g id="node2" class="node">
<title>Attack 2 Bite</title>
<polygon fill="none" stroke="black" points="279.25,-255.88 279.25,-277.62 397,-277.62 397,-255.88 279.25,-255.88"/>
<text text-anchor="start" x="296.5" y="-261.32" font-family="Helvetica,sans-Serif" font-size="14.00">Attack 2 Bite &#160;</text>
<polygon fill="none" stroke="black" points="279.25,-223.88 279.25,-255.88 397,-255.88 397,-223.88 279.25,-223.88"/>
<text text-anchor="start" x="282.25" y="-242.47" font-family="Helvetica,sans-Serif" font-size="12.00" fill="#838b8b">1.00s: LinkNextMove</text>
<text text-anchor="start" x="282.25" y="-228.57" font-family="Helvetica,sans-Serif" font-size="12.00" fill="#838b8b">1.17s: Done</text>
<text text-anchor="start" x="346.75" y="-228.57" font-family="Helvetica,sans-Serif" font-size="14.00"> &#160;</text>
</g>
<!-- Attack_Bark&#45;&gt;Attack 2 Bite -->
<g id="edge1" class="edge">
<title>Attack_Bark&#45;&gt;Attack 2 Bite</title>
<path fill="none" stroke="#cdc8b1" d="M144.08,-250.75C177.61,-250.75 222.39,-250.75 260.38,-250.75"/>
<polygon fill="#cdc8b1" stroke="#cdc8b1" points="259.9,-254.25 269.9,-250.75 259.9,-247.25 259.9,-254.25"/>
</g>
<!-- PreAttack -->
<g id="node3" class="node">
<title>PreAttack</title>
<polygon fill="none" stroke="black" points="516.5,-150.75 442,-150.75 442,-114.75 516.5,-114.75 516.5,-150.75"/>
<text text-anchor="middle" x="479.25" y="-127.33" font-family="Helvetica,sans-Serif" font-size="14.00">PreAttack</text>
</g>
<!-- Attack 2 Bite&#45;&gt;PreAttack -->
<g id="edge2" class="edge">
<title>Attack 2 Bite&#45;&gt;PreAttack</title>
<path fill="none" stroke="#cdc8b1" d="M392.48,-220.1C396.82,-217.08 401.05,-213.95 405,-210.75 423.87,-195.45 442.58,-175.43 456.36,-159.5"/>
<polygon fill="#cdc8b1" stroke="#cdc8b1" points="458.69,-162.16 462.51,-152.28 453.36,-157.63 458.69,-162.16"/>
</g>
<!-- Attack 3 RunBite -->
<g id="node4" class="node">
<title>Attack 3 RunBite</title>
<polygon fill="none" stroke="black" points="279.25,-175.88 279.25,-197.62 397,-197.62 397,-175.88 279.25,-175.88"/>
<text text-anchor="start" x="284.12" y="-181.32" font-family="Helvetica,sans-Serif" font-size="14.00">Attack 3 RunBite &#160;</text>
<polygon fill="none" stroke="black" points="279.25,-143.88 279.25,-175.88 397,-175.88 397,-143.88 279.25,-143.88"/>
<text text-anchor="start" x="282.25" y="-162.47" font-family="Helvetica,sans-Serif" font-size="12.00" fill="#838b8b">1.17s: LinkNextMove</text>
<text text-anchor="start" x="282.25" y="-148.57" font-family="Helvetica,sans-Serif" font-size="12.00" fill="#838b8b">1.25s: Done</text>
<text text-anchor="start" x="346.75" y="-148.57" font-family="Helvetica,sans-Serif" font-size="14.00"> &#160;</text>
</g>
<!-- Attack 3 RunBite&#45;&gt;PreAttack -->
<g id="edge3" class="edge">
<title>Attack 3 RunBite&#45;&gt;PreAttack</title>
<path fill="none" stroke="#cdc8b1" d="M404.61,-152.86C413.34,-150.48 422.14,-148.07 430.48,-145.8"/>
<polygon fill="#cdc8b1" stroke="#cdc8b1" points="431.34,-149.19 440.06,-143.18 429.49,-142.44 431.34,-149.19"/>
</g>
<!-- HurtState -->
<g id="node5" class="node">
<title>HurtState</title>
<polygon fill="none" stroke="black" points="299.12,-95.75 299.12,-117.5 377.12,-117.5 377.12,-95.75 299.12,-95.75"/>
<text text-anchor="start" x="305.88" y="-101.2" font-family="Helvetica,sans-Serif" font-size="14.00">HurtState &#160;</text>
<polygon fill="none" stroke="black" points="299.12,-74 299.12,-95.75 377.12,-95.75 377.12,-74 299.12,-74"/>
<text text-anchor="start" x="302.12" y="-80.45" font-family="Helvetica,sans-Serif" font-size="12.00" fill="#838b8b">0.27s: Done</text>
<text text-anchor="start" x="366.62" y="-80.45" font-family="Helvetica,sans-Serif" font-size="14.00"> &#160;</text>
</g>
<!-- HurtState&#45;&gt;PreAttack -->
<g id="edge4" class="edge">
<title>HurtState&#45;&gt;PreAttack</title>
<path fill="none" stroke="#cdc8b1" d="M385.07,-107.97C399.7,-111.86 415.91,-116.17 430.66,-120.09"/>
<polygon fill="#cdc8b1" stroke="#cdc8b1" points="429.57,-123.43 440.14,-122.61 431.37,-116.66 429.57,-123.43"/>
</g>
<!-- Hurt_BigState -->
<g id="node6" class="node">
<title>Hurt_BigState</title>
<polygon fill="none" stroke="black" points="289.38,-25.75 289.38,-47.5 386.88,-47.5 386.88,-25.75 289.38,-25.75"/>
<text text-anchor="start" x="292.38" y="-31.2" font-family="Helvetica,sans-Serif" font-size="14.00">Hurt_BigState &#160;</text>
<polygon fill="none" stroke="black" points="289.38,-4 289.38,-25.75 386.88,-25.75 386.88,-4 289.38,-4"/>
<text text-anchor="start" x="292.38" y="-10.45" font-family="Helvetica,sans-Serif" font-size="12.00" fill="#838b8b">1.00s: Done</text>
<text text-anchor="start" x="356.88" y="-10.45" font-family="Helvetica,sans-Serif" font-size="14.00"> &#160;</text>
</g>
<!-- Hurt_BigState&#45;&gt;PreAttack -->
<g id="edge5" class="edge">
<title>Hurt_BigState&#45;&gt;PreAttack</title>
<path fill="none" stroke="#cdc8b1" d="M391.07,-51.49C395.89,-54.43 400.61,-57.53 405,-60.75 423.15,-74.06 441.21,-91.75 454.86,-106.26"/>
<polygon fill="#cdc8b1" stroke="#cdc8b1" points="451.97,-108.29 461.32,-113.27 457.12,-103.55 451.97,-108.29"/>
</g>
<!-- Wandering_Idle -->
<g id="node7" class="node">
<title>Wandering_Idle</title>
<polygon fill="none" stroke="black" points="163.62,-330.75 22.38,-330.75 22.38,-294.75 163.62,-294.75 163.62,-330.75"/>
<text text-anchor="middle" x="93" y="-307.32" font-family="Helvetica,sans-Serif" font-size="14.00">Wandering_Idle (Init)</text>
</g>
<!-- Level Once Sensor -->
<g id="node8" class="node">
<title>Level Once Sensor</title>
<polygon fill="none" stroke="black" points="158.75,-384.75 27.25,-384.75 27.25,-348.75 158.75,-348.75 158.75,-384.75"/>
<text text-anchor="middle" x="93" y="-361.32" font-family="Helvetica,sans-Serif" font-size="14.00">Level Once Sensor</text>
</g>
<!-- Level Once Sensor_linked -->
<g id="node9" class="node">
<title>Level Once Sensor_linked</title>
<polygon fill="none" stroke="black" stroke-dasharray="1,5" points="383.85,-384.75 292.4,-384.75 292.4,-348.75 383.85,-348.75 383.85,-384.75"/>
<text text-anchor="start" x="298" y="-361.32" font-family="Helvetica,sans-Serif" font-size="14.00">Attack_Bark &#160;</text>
</g>
<!-- Level Once Sensor&#45;&gt;Level Once Sensor_linked -->
<g id="edge6" class="edge">
<title>Level Once Sensor&#45;&gt;Level Once Sensor_linked</title>
<path fill="none" stroke="#66cdaa" d="M159.15,-366.75C197.1,-366.75 244.48,-366.75 280.8,-366.75"/>
<polygon fill="#66cdaa" stroke="#66cdaa" points="280.67,-370.25 290.67,-366.75 280.67,-363.25 280.67,-370.25"/>
<text text-anchor="middle" x="220.62" y="-369.2" font-family="Helvetica,sans-Serif" font-size="14.00" fill="#66cdaa">QueueEnd</text>
</g>
<!-- RunAwaySensor -->
<g id="node10" class="node">
<title>RunAwaySensor</title>
<polygon fill="none" stroke="black" points="151.25,-438.75 34.75,-438.75 34.75,-402.75 151.25,-402.75 151.25,-438.75"/>
<text text-anchor="middle" x="93" y="-415.32" font-family="Helvetica,sans-Serif" font-size="14.00">RunAwaySensor</text>
</g>
<!-- RunAwaySensor_linked -->
<g id="node11" class="node">
<title>RunAwaySensor_linked</title>
<polygon fill="none" stroke="black" stroke-dasharray="1,5" points="376.35,-438.75 299.9,-438.75 299.9,-402.75 376.35,-402.75 376.35,-438.75"/>
<text text-anchor="start" x="305.5" y="-415.32" font-family="Helvetica,sans-Serif" font-size="14.00">RunAway &#160;</text>
</g>
<!-- RunAwaySensor&#45;&gt;RunAwaySensor_linked -->
<g id="edge7" class="edge">
<title>RunAwaySensor&#45;&gt;RunAwaySensor_linked</title>
<path fill="none" stroke="#66cdaa" d="M151.62,-420.75C193.19,-420.75 248.72,-420.75 288.16,-420.75"/>
<polygon fill="#66cdaa" stroke="#66cdaa" points="288.08,-424.25 298.08,-420.75 288.08,-417.25 288.08,-424.25"/>
<text text-anchor="middle" x="220.62" y="-423.2" font-family="Helvetica,sans-Serif" font-size="14.00" fill="#66cdaa">QueueEnd</text>
</g>
<!-- AttackSensor -->
<g id="node12" class="node">
<title>AttackSensor</title>
<polygon fill="none" stroke="black" points="141.12,-492.75 44.88,-492.75 44.88,-456.75 141.12,-456.75 141.12,-492.75"/>
<text text-anchor="middle" x="93" y="-469.32" font-family="Helvetica,sans-Serif" font-size="14.00">AttackSensor</text>
</g>
<!-- AttackSensor_linked -->
<g id="node13" class="node">
<title>AttackSensor_linked</title>
<polygon fill="none" stroke="black" stroke-dasharray="1,5" points="383.85,-492.75 292.4,-492.75 292.4,-456.75 383.85,-456.75 383.85,-492.75"/>
<text text-anchor="start" x="298" y="-469.32" font-family="Helvetica,sans-Serif" font-size="14.00">Attack_Bark &#160;</text>
</g>
<!-- AttackSensor&#45;&gt;AttackSensor_linked -->
<g id="edge8" class="edge">
<title>AttackSensor&#45;&gt;AttackSensor_linked</title>
<path fill="none" stroke="#66cdaa" d="M141.45,-474.75C181.37,-474.75 238.52,-474.75 280.76,-474.75"/>
<polygon fill="#66cdaa" stroke="#66cdaa" points="280.74,-478.25 290.74,-474.75 280.74,-471.25 280.74,-478.25"/>
<text text-anchor="middle" x="220.62" y="-477.2" font-family="Helvetica,sans-Serif" font-size="14.00" fill="#66cdaa">QueueEnd</text>
</g>
<!-- DodgePredictSensor -->
<g id="node14" class="node">
<title>DodgePredictSensor</title>
<polygon fill="none" stroke="black" points="24,-536.75 24,-558.5 162,-558.5 162,-536.75 24,-536.75"/>
<text text-anchor="start" x="27" y="-542.2" font-family="Helvetica,sans-Serif" font-size="14.00">DodgePredictSensor &#160;</text>
<polygon fill="none" stroke="black" points="24,-515 24,-536.75 162,-536.75 162,-515 24,-515"/>
<text text-anchor="start" x="27" y="-521.45" font-family="Helvetica,sans-Serif" font-size="12.00" fill="#838b8b">if: Dodge</text>
<text text-anchor="start" x="75" y="-521.45" font-family="Helvetica,sans-Serif" font-size="14.00"> &#160;</text>
</g>
<!-- DodgePredictSensor_linked -->
<g id="node15" class="node">
<title>DodgePredictSensor_linked</title>
<polygon fill="none" stroke="black" stroke-dasharray="1,5" points="383.85,-554.75 292.4,-554.75 292.4,-518.75 383.85,-518.75 383.85,-554.75"/>
<text text-anchor="start" x="298" y="-531.33" font-family="Helvetica,sans-Serif" font-size="14.00">Attack_Bark &#160;</text>
</g>
<!-- DodgePredictSensor&#45;&gt;DodgePredictSensor_linked -->
<g id="edge9" class="edge">
<title>DodgePredictSensor&#45;&gt;DodgePredictSensor_linked</title>
<path fill="none" stroke="#66cdaa" d="M169.93,-536.75C205.82,-536.75 247.92,-536.75 280.9,-536.75"/>
<polygon fill="#66cdaa" stroke="#66cdaa" points="280.65,-540.25 290.65,-536.75 280.65,-533.25 280.65,-540.25"/>
<text text-anchor="middle" x="220.62" y="-539.2" font-family="Helvetica,sans-Serif" font-size="14.00" fill="#66cdaa">QueueEnd</text>
</g>
<!-- AttackPredictSensor -->
<g id="node16" class="node">
<title>AttackPredictSensor</title>
<polygon fill="none" stroke="black" points="25.12,-606.75 25.12,-628.5 160.88,-628.5 160.88,-606.75 25.12,-606.75"/>
<text text-anchor="start" x="28.12" y="-612.2" font-family="Helvetica,sans-Serif" font-size="14.00">AttackPredictSensor &#160;</text>
<polygon fill="none" stroke="black" points="25.12,-585 25.12,-606.75 160.88,-606.75 160.88,-585 25.12,-585"/>
<text text-anchor="start" x="28.12" y="-591.45" font-family="Helvetica,sans-Serif" font-size="12.00" fill="#838b8b">if: Attack</text>
<text text-anchor="start" x="73.12" y="-591.45" font-family="Helvetica,sans-Serif" font-size="14.00"> &#160;</text>
</g>
<!-- AttackPredictSensor_linked -->
<g id="node17" class="node">
<title>AttackPredictSensor_linked</title>
<polygon fill="none" stroke="black" stroke-dasharray="1,5" points="383.85,-624.75 292.4,-624.75 292.4,-588.75 383.85,-588.75 383.85,-624.75"/>
<text text-anchor="start" x="298" y="-601.33" font-family="Helvetica,sans-Serif" font-size="14.00">Attack_Bark &#160;</text>
</g>
<!-- AttackPredictSensor&#45;&gt;AttackPredictSensor_linked -->
<g id="edge10" class="edge">
<title>AttackPredictSensor&#45;&gt;AttackPredictSensor_linked</title>
<path fill="none" stroke="#66cdaa" d="M168.6,-606.75C204.68,-606.75 247.29,-606.75 280.64,-606.75"/>
<polygon fill="#66cdaa" stroke="#66cdaa" points="280.51,-610.25 290.51,-606.75 280.51,-603.25 280.51,-610.25"/>
<text text-anchor="middle" x="220.62" y="-609.2" font-family="Helvetica,sans-Serif" font-size="14.00" fill="#66cdaa">QueueEnd</text>
</g>
<!-- AttackRunToSensor -->
<g id="node18" class="node">
<title>AttackRunToSensor</title>
<polygon fill="none" stroke="black" points="26.62,-676.75 26.62,-698.5 159.38,-698.5 159.38,-676.75 26.62,-676.75"/>
<text text-anchor="start" x="29.62" y="-682.2" font-family="Helvetica,sans-Serif" font-size="14.00">AttackRunToSensor &#160;</text>
<polygon fill="none" stroke="black" points="26.62,-655 26.62,-676.75 159.38,-676.75 159.38,-655 26.62,-655"/>
<text text-anchor="start" x="29.62" y="-661.45" font-family="Helvetica,sans-Serif" font-size="12.00" fill="#838b8b">if: state is Engaging</text>
<text text-anchor="start" x="133.88" y="-661.45" font-family="Helvetica,sans-Serif" font-size="14.00"> &#160;</text>
</g>
<!-- AttackRunToSensor_linked -->
<g id="node19" class="node">
<title>AttackRunToSensor_linked</title>
<polygon fill="none" stroke="black" stroke-dasharray="1,5" points="383.85,-694.75 292.4,-694.75 292.4,-658.75 383.85,-658.75 383.85,-694.75"/>
<text text-anchor="start" x="298" y="-671.33" font-family="Helvetica,sans-Serif" font-size="14.00">Attack_Bark &#160;</text>
</g>
<!-- AttackRunToSensor&#45;&gt;AttackRunToSensor_linked -->
<g id="edge11" class="edge">
<title>AttackRunToSensor&#45;&gt;AttackRunToSensor_linked</title>
<path fill="none" stroke="#66cdaa" d="M167.28,-676.75C203.83,-676.75 247.34,-676.75 281.17,-676.75"/>
<polygon fill="#66cdaa" stroke="#66cdaa" points="280.74,-680.25 290.74,-676.75 280.74,-673.25 280.74,-680.25"/>
<text text-anchor="middle" x="220.62" y="-679.2" font-family="Helvetica,sans-Serif" font-size="14.00" fill="#66cdaa">QueueEnd</text>
</g>
<!-- AttackSensor_Far -->
<g id="node20" class="node">
<title>AttackSensor_Far</title>
<polygon fill="none" stroke="black" points="32.25,-746.75 32.25,-768.5 153.75,-768.5 153.75,-746.75 32.25,-746.75"/>
<text text-anchor="start" x="35.25" y="-752.2" font-family="Helvetica,sans-Serif" font-size="14.00">AttackSensor_Far &#160;</text>
<polygon fill="none" stroke="black" points="32.25,-725 32.25,-746.75 153.75,-746.75 153.75,-725 32.25,-725"/>
<text text-anchor="start" x="35.25" y="-731.45" font-family="Helvetica,sans-Serif" font-size="12.00" fill="#838b8b">if: state is Engaging</text>
<text text-anchor="start" x="139.5" y="-731.45" font-family="Helvetica,sans-Serif" font-size="14.00"> &#160;</text>
</g>
<!-- AttackSensor_Far_linked -->
<g id="node21" class="node">
<title>AttackSensor_Far_linked</title>
<polygon fill="none" stroke="black" stroke-dasharray="1,5" points="385.35,-764.75 290.9,-764.75 290.9,-728.75 385.35,-728.75 385.35,-764.75"/>
<text text-anchor="start" x="296.5" y="-741.33" font-family="Helvetica,sans-Serif" font-size="14.00">Attack 2 Bite &#160;</text>
</g>
<!-- AttackSensor_Far&#45;&gt;AttackSensor_Far_linked -->
<g id="edge12" class="edge">
<title>AttackSensor_Far&#45;&gt;AttackSensor_Far_linked</title>
<path fill="none" stroke="#66cdaa" d="M161.72,-746.75C198.74,-746.75 244.11,-746.75 279.44,-746.75"/>
<polygon fill="#66cdaa" stroke="#66cdaa" points="279.01,-750.25 289.01,-746.75 279.01,-743.25 279.01,-750.25"/>
<text text-anchor="middle" x="220.62" y="-749.2" font-family="Helvetica,sans-Serif" font-size="14.00" fill="#66cdaa">QueueEnd</text>
</g>
</g>
</svg>
