<?xml version="1.0" encoding="UTF-8" standalone="no"?>
<!DOCTYPE svg PUBLIC "-//W3C//DTD SVG 1.1//EN"
 "http://www.w3.org/Graphics/SVG/1.1/DTD/svg11.dtd">
<!-- Generated by graphviz version 12.2.1 (20241206.2353)
 -->
<!-- Title: Foo Pages: 1 -->
<svg width="605pt" height="1386pt"
 viewBox="0.00 0.00 604.70 1386.00" xmlns="http://www.w3.org/2000/svg" xmlns:xlink="http://www.w3.org/1999/xlink">
<g id="graph0" class="graph" transform="scale(1 1) rotate(0) translate(4 1382)">
<title>Foo</title>
<polygon fill="white" stroke="none" points="-4,4 -4,-1382 600.7,-1382 600.7,4 -4,4"/>
<g id="clust1" class="cluster">
<title>cluster_attacksensors</title>
<polygon fill="none" stroke="black" points="54.62,-8 54.62,-262 588.7,-262 588.7,-8 54.62,-8"/>
<text text-anchor="middle" x="321.66" y="-244.7" font-family="Helvetica,sans-Serif" font-size="14.00">Attack Sensors</text>
</g>
<!-- Level Once Sensor -->
<g id="node1" class="node">
<title>Level Once Sensor</title>
<polygon fill="none" stroke="black" points="75.13,-23.12 75.13,-44.88 204.13,-44.88 204.13,-23.12 75.13,-23.12"/>
<text text-anchor="start" x="78.13" y="-28.57" font-family="Helvetica,sans-Serif" font-size="14.00">Level Once Sensor &#160;</text>
</g>
<!-- Level Once Sensor_linked -->
<g id="node2" class="node">
<title>Level Once Sensor_linked</title>
<polygon fill="none" stroke="black" stroke-dasharray="1,5" points="580.7,-52 380.5,-52 380.5,-16 580.7,-16 580.7,-52"/>
<text text-anchor="start" x="386.1" y="-28.57" font-family="Helvetica,sans-Serif" font-size="14.00">Attack1_Triangle_ShootAttack &#160;</text>
</g>
<!-- Level Once Sensor&#45;&gt;Level Once Sensor_linked -->
<g id="edge1" class="edge">
<title>Level Once Sensor&#45;&gt;Level Once Sensor_linked</title>
<path fill="none" stroke="#66cdaa" d="M212.1,-34C257.61,-34 317.49,-34 369.05,-34"/>
<polygon fill="#66cdaa" stroke="#66cdaa" points="368.75,-37.5 378.75,-34 368.75,-30.5 368.75,-37.5"/>
<text text-anchor="middle" x="329.88" y="-36.45" font-family="Helvetica,sans-Serif" font-size="14.00" fill="#66cdaa">QueueEnd</text>
</g>
<!-- Level Once Sensor_weight -->
<g id="node3" class="node">
<title>Level Once Sensor_weight</title>
<polygon fill="none" stroke="black" stroke-dasharray="1,5" points="513.1,-106 448.1,-106 448.1,-70 513.1,-70 513.1,-106"/>
<text text-anchor="start" x="458.1" y="-82.58" font-family="Helvetica,sans-Serif" font-size="14.00">1 Skip &#160;</text>
</g>
<!-- Level Once Sensor&#45;&gt;Level Once Sensor_weight -->
<g id="edge2" class="edge">
<title>Level Once Sensor&#45;&gt;Level Once Sensor_weight</title>
<path fill="none" stroke="#458b74" d="M212.1,-45.39C280.06,-56.21 380.06,-72.14 436.57,-81.15"/>
<polygon fill="#458b74" stroke="#458b74" points="435.69,-84.55 446.11,-82.67 436.79,-77.64 435.69,-84.55"/>
<text text-anchor="middle" x="329.88" y="-71.44" font-family="Helvetica,sans-Serif" font-size="14.00" fill="#458b74">Weight</text>
</g>
<!-- RunAwaySensor -->
<g id="node4" class="node">
<title>RunAwaySensor</title>
<polygon fill="none" stroke="black" points="82.63,-77.12 82.63,-98.88 196.63,-98.88 196.63,-77.12 82.63,-77.12"/>
<text text-anchor="start" x="85.63" y="-82.58" font-family="Helvetica,sans-Serif" font-size="14.00">RunAwaySensor &#160;</text>
</g>
<!-- AttackSensor -->
<g id="node5" class="node">
<title>AttackSensor</title>
<polygon fill="none" stroke="black" points="92.75,-131.12 92.75,-152.88 186.5,-152.88 186.5,-131.12 92.75,-131.12"/>
<text text-anchor="start" x="95.75" y="-136.57" font-family="Helvetica,sans-Serif" font-size="14.00">AttackSensor &#160;</text>
</g>
<!-- AttackSensor_linked -->
<g id="node6" class="node">
<title>AttackSensor_linked</title>
<polygon fill="none" stroke="black" stroke-dasharray="1,5" points="580.7,-160 380.5,-160 380.5,-124 580.7,-124 580.7,-160"/>
<text text-anchor="start" x="386.1" y="-136.57" font-family="Helvetica,sans-Serif" font-size="14.00">Attack1_Triangle_ShootAttack &#160;</text>
</g>
<!-- AttackSensor&#45;&gt;AttackSensor_linked -->
<g id="edge3" class="edge">
<title>AttackSensor&#45;&gt;AttackSensor_linked</title>
<path fill="none" stroke="#66cdaa" d="M194.34,-142C241.08,-142 310.31,-142 368.87,-142"/>
<polygon fill="#66cdaa" stroke="#66cdaa" points="368.54,-145.5 378.54,-142 368.54,-138.5 368.54,-145.5"/>
<text text-anchor="middle" x="329.88" y="-144.45" font-family="Helvetica,sans-Serif" font-size="14.00" fill="#66cdaa">QueueEnd</text>
</g>
<!-- DodgePredictSensor -->
<g id="node7" class="node">
<title>DodgePredictSensor</title>
<polygon fill="none" stroke="black" points="70.63,-204 70.63,-225.75 208.63,-225.75 208.63,-204 70.63,-204"/>
<text text-anchor="start" x="73.63" y="-209.45" font-family="Helvetica,sans-Serif" font-size="14.00">DodgePredictSensor &#160;</text>
<polygon fill="none" stroke="black" points="70.63,-182.25 70.63,-204 208.63,-204 208.63,-182.25 70.63,-182.25"/>
<text text-anchor="start" x="73.63" y="-188.7" font-family="Helvetica,sans-Serif" font-size="12.00" fill="#838b8b">if: rollingCondition</text>
<text text-anchor="start" x="170.38" y="-188.7" font-family="Helvetica,sans-Serif" font-size="14.00"> &#160;</text>
</g>
<!-- DodgePredictSensor_linked -->
<g id="node8" class="node">
<title>DodgePredictSensor_linked</title>
<polygon fill="none" stroke="black" stroke-dasharray="1,5" points="580.7,-222 380.5,-222 380.5,-186 580.7,-186 580.7,-222"/>
<text text-anchor="start" x="386.1" y="-198.57" font-family="Helvetica,sans-Serif" font-size="14.00">Attack1_Triangle_ShootAttack &#160;</text>
</g>
<!-- DodgePredictSensor&#45;&gt;DodgePredictSensor_linked -->
<g id="edge4" class="edge">
<title>DodgePredictSensor&#45;&gt;DodgePredictSensor_linked</title>
<path fill="none" stroke="#66cdaa" d="M216.28,-204C261.08,-204 318.66,-204 368.54,-204"/>
<polygon fill="#66cdaa" stroke="#66cdaa" points="368.53,-207.5 378.53,-204 368.53,-200.5 368.53,-207.5"/>
<text text-anchor="middle" x="329.88" y="-206.45" font-family="Helvetica,sans-Serif" font-size="14.00" fill="#66cdaa">QueueEnd</text>
</g>
<!-- Attack1_Triangle_ShootAttack -->
<g id="node9" class="node">
<title>Attack1_Triangle_ShootAttack</title>
<polygon fill="none" stroke="black" points="42.13,-1228.12 42.13,-1249.88 237.13,-1249.88 237.13,-1228.12 42.13,-1228.12"/>
<text text-anchor="start" x="45.13" y="-1233.58" font-family="Helvetica,sans-Serif" font-size="14.00">Attack1_Triangle_ShootAttack &#160;</text>
<polygon fill="none" stroke="black" points="42.13,-1196.12 42.13,-1228.12 237.13,-1228.12 237.13,-1196.12 42.13,-1196.12"/>
<text text-anchor="start" x="45.13" y="-1214.72" font-family="Helvetica,sans-Serif" font-size="12.00" fill="#838b8b">2.33s: LinkNextMove</text>
<text text-anchor="start" x="45.13" y="-1200.82" font-family="Helvetica,sans-Serif" font-size="12.00" fill="#838b8b">2.92s: Done</text>
<text text-anchor="start" x="109.63" y="-1200.82" font-family="Helvetica,sans-Serif" font-size="14.00"> &#160;</text>
</g>
<!-- Engaging -->
<g id="node10" class="node">
<title>Engaging</title>
<polygon fill="none" stroke="black" points="517.1,-777 444.1,-777 444.1,-741 517.1,-741 517.1,-777"/>
<text text-anchor="middle" x="480.6" y="-753.58" font-family="Helvetica,sans-Serif" font-size="14.00">Engaging</text>
</g>
<!-- Attack1_Triangle_ShootAttack&#45;&gt;Engaging -->
<g id="edge5" class="edge">
<title>Attack1_Triangle_ShootAttack&#45;&gt;Engaging</title>
<path fill="none" stroke="#cdc8b1" d="M244.83,-1201.9C257.08,-1196.89 268.88,-1190.68 279.25,-1183 414.91,-1082.52 462.25,-866.64 475.34,-788.23"/>
<polygon fill="#cdc8b1" stroke="#cdc8b1" points="478.73,-789.19 476.86,-778.76 471.82,-788.09 478.73,-789.19"/>
</g>
<!-- Attack2_Teleport -->
<g id="node11" class="node">
<title>Attack2_Teleport</title>
<polygon fill="none" stroke="black" points="80.75,-1148.12 80.75,-1169.88 198.5,-1169.88 198.5,-1148.12 80.75,-1148.12"/>
<text text-anchor="start" x="85.63" y="-1153.58" font-family="Helvetica,sans-Serif" font-size="14.00">Attack2_Teleport &#160;</text>
<polygon fill="none" stroke="black" points="80.75,-1104.12 80.75,-1148.12 198.5,-1148.12 198.5,-1104.12 80.75,-1104.12"/>
<text text-anchor="start" x="83.75" y="-1134.72" font-family="Helvetica,sans-Serif" font-size="12.00" fill="#838b8b">0.58s: CheckFacing</text>
<text text-anchor="start" x="83.75" y="-1122.72" font-family="Helvetica,sans-Serif" font-size="12.00" fill="#838b8b">0.75s: LinkNextMove</text>
<text text-anchor="start" x="83.75" y="-1108.82" font-family="Helvetica,sans-Serif" font-size="12.00" fill="#838b8b">0.83s: Done</text>
<text text-anchor="start" x="148.25" y="-1108.82" font-family="Helvetica,sans-Serif" font-size="14.00"> &#160;</text>
</g>
<!-- Attack2_Teleport&#45;&gt;Engaging -->
<g id="edge6" class="edge">
<title>Attack2_Teleport&#45;&gt;Engaging</title>
<path fill="none" stroke="#cdc8b1" d="M206.46,-1123.75C230.83,-1116.72 257.74,-1106.26 279.25,-1091 389.3,-1012.89 449.85,-853.53 470.94,-788.07"/>
<polygon fill="#cdc8b1" stroke="#cdc8b1" points="474.2,-789.36 473.86,-778.77 467.53,-787.26 474.2,-789.36"/>
</g>
<!-- Attack3_Twin_ShootAttack -->
<g id="node12" class="node">
<title>Attack3_Twin_ShootAttack</title>
<polygon fill="none" stroke="black" points="52.63,-1056.12 52.63,-1077.88 226.63,-1077.88 226.63,-1056.12 52.63,-1056.12"/>
<text text-anchor="start" x="55.63" y="-1061.58" font-family="Helvetica,sans-Serif" font-size="14.00">Attack3_Twin_ShootAttack &#160;</text>
<polygon fill="none" stroke="black" points="52.63,-1024.12 52.63,-1056.12 226.63,-1056.12 226.63,-1024.12 52.63,-1024.12"/>
<text text-anchor="start" x="55.63" y="-1042.72" font-family="Helvetica,sans-Serif" font-size="12.00" fill="#838b8b">1.83s: LinkNextMove</text>
<text text-anchor="start" x="55.63" y="-1028.82" font-family="Helvetica,sans-Serif" font-size="12.00" fill="#838b8b">2.42s: Done</text>
<text text-anchor="start" x="120.13" y="-1028.82" font-family="Helvetica,sans-Serif" font-size="14.00"> &#160;</text>
</g>
<!-- Attack3_Twin_ShootAttack&#45;&gt;Engaging -->
<g id="edge7" class="edge">
<title>Attack3_Twin_ShootAttack&#45;&gt;Engaging</title>
<path fill="none" stroke="#cdc8b1" d="M234.51,-1032.06C250.15,-1026.66 265.68,-1019.77 279.25,-1011 369.5,-952.67 437.19,-839.83 465.31,-787.24"/>
<polygon fill="#cdc8b1" stroke="#cdc8b1" points="468.29,-789.09 469.84,-778.61 462.09,-785.83 468.29,-789.09"/>
</g>
<!-- 拋棄[4]Attack4_DangerCircle_Rush -->
<g id="node13" class="node">
<title>拋棄[4]Attack4_DangerCircle_Rush</title>
<polygon fill="none" stroke="black" points="23,-976.12 23,-997.88 256.25,-997.88 256.25,-976.12 23,-976.12"/>
<text text-anchor="start" x="26" y="-981.58" font-family="Helvetica,sans-Serif" font-size="14.00">拋棄[4]Attack4_DangerCircle_Rush &#160;</text>
<polygon fill="none" stroke="black" points="23,-944.12 23,-976.12 256.25,-976.12 256.25,-944.12 23,-944.12"/>
<text text-anchor="start" x="26" y="-962.73" font-family="Helvetica,sans-Serif" font-size="12.00" fill="#838b8b">3.17s: LinkNextMove</text>
<text text-anchor="start" x="26" y="-948.83" font-family="Helvetica,sans-Serif" font-size="12.00" fill="#838b8b">3.50s: Done</text>
<text text-anchor="start" x="90.5" y="-948.83" font-family="Helvetica,sans-Serif" font-size="14.00"> &#160;</text>
</g>
<!-- 拋棄[4]Attack4_DangerCircle_Rush&#45;&gt;Engaging -->
<g id="edge8" class="edge">
<title>拋棄[4]Attack4_DangerCircle_Rush&#45;&gt;Engaging</title>
<path fill="none" stroke="#cdc8b1" d="M259.95,-940.26C266.6,-937.41 273.08,-934.33 279.25,-931 351.32,-892.08 420.39,-823.7 455.53,-785.94"/>
<polygon fill="#cdc8b1" stroke="#cdc8b1" points="458.1,-788.33 462.29,-778.6 452.94,-783.59 458.1,-788.33"/>
</g>
<!-- 拋棄Attack5_SummonMonster -->
<g id="node14" class="node">
<title>拋棄Attack5_SummonMonster</title>
<polygon fill="none" stroke="black" points="36.88,-896.12 36.88,-917.88 242.38,-917.88 242.38,-896.12 36.88,-896.12"/>
<text text-anchor="start" x="39.88" y="-901.58" font-family="Helvetica,sans-Serif" font-size="14.00">拋棄Attack5_SummonMonster &#160;</text>
<polygon fill="none" stroke="black" points="36.88,-852.12 36.88,-896.12 242.38,-896.12 242.38,-852.12 36.88,-852.12"/>
<text text-anchor="start" x="39.88" y="-882.73" font-family="Helvetica,sans-Serif" font-size="12.00" fill="#838b8b">2.67s: CheckFacing</text>
<text text-anchor="start" x="39.88" y="-870.73" font-family="Helvetica,sans-Serif" font-size="12.00" fill="#838b8b">2.83s: LinkNextMove</text>
<text text-anchor="start" x="39.88" y="-856.83" font-family="Helvetica,sans-Serif" font-size="12.00" fill="#838b8b">3.00s: Done</text>
<text text-anchor="start" x="104.38" y="-856.83" font-family="Helvetica,sans-Serif" font-size="14.00"> &#160;</text>
</g>
<!-- 拋棄Attack5_SummonMonster&#45;&gt;Engaging -->
<g id="edge9" class="edge">
<title>拋棄Attack5_SummonMonster&#45;&gt;Engaging</title>
<path fill="none" stroke="#cdc8b1" d="M250.18,-849.32C260.04,-845.91 269.84,-842.44 279.25,-839 332.42,-819.58 392.65,-795.21 433.06,-778.5"/>
<polygon fill="#cdc8b1" stroke="#cdc8b1" points="434.36,-781.75 442.26,-774.68 431.68,-775.28 434.36,-781.75"/>
</g>
<!-- Attack6_QuickAttack_Normal_SingleShot -->
<g id="node15" class="node">
<title>Attack6_QuickAttack_Normal_SingleShot</title>
<polygon fill="none" stroke="black" points="8,-804.12 8,-825.88 271.25,-825.88 271.25,-804.12 8,-804.12"/>
<text text-anchor="start" x="11" y="-809.58" font-family="Helvetica,sans-Serif" font-size="14.00">Attack6_QuickAttack_Normal_SingleShot &#160;</text>
<polygon fill="none" stroke="black" points="8,-772.12 8,-804.12 271.25,-804.12 271.25,-772.12 8,-772.12"/>
<text text-anchor="start" x="11" y="-790.73" font-family="Helvetica,sans-Serif" font-size="12.00" fill="#838b8b">1.00s: LinkNextMove</text>
<text text-anchor="start" x="11" y="-776.83" font-family="Helvetica,sans-Serif" font-size="12.00" fill="#838b8b">1.33s: Done</text>
<text text-anchor="start" x="75.5" y="-776.83" font-family="Helvetica,sans-Serif" font-size="14.00"> &#160;</text>
</g>
<!-- Attack6_QuickAttack_Normal_SingleShot&#45;&gt;Engaging -->
<g id="edge10" class="edge">
<title>Attack6_QuickAttack_Normal_SingleShot&#45;&gt;Engaging</title>
<path fill="none" stroke="#cdc8b1" d="M278.99,-782.67C333.64,-776.22 392.76,-769.25 432.56,-764.55"/>
<polygon fill="#cdc8b1" stroke="#cdc8b1" points="432.74,-768.05 442.26,-763.41 431.92,-761.1 432.74,-768.05"/>
</g>
<!-- 拋棄[7]Attack7_QuickAttack_Danger -->
<g id="node16" class="node">
<title>拋棄[7]Attack7_QuickAttack_Danger</title>
<polygon fill="none" stroke="black" points="19.63,-724.12 19.63,-745.88 259.63,-745.88 259.63,-724.12 19.63,-724.12"/>
<text text-anchor="start" x="22.63" y="-729.58" font-family="Helvetica,sans-Serif" font-size="14.00">拋棄[7]Attack7_QuickAttack_Danger &#160;</text>
<polygon fill="none" stroke="black" points="19.63,-692.12 19.63,-724.12 259.63,-724.12 259.63,-692.12 19.63,-692.12"/>
<text text-anchor="start" x="22.63" y="-710.73" font-family="Helvetica,sans-Serif" font-size="12.00" fill="#838b8b">1.50s: LinkNextMove</text>
<text text-anchor="start" x="22.63" y="-696.83" font-family="Helvetica,sans-Serif" font-size="12.00" fill="#838b8b">2.08s: Done</text>
<text text-anchor="start" x="87.13" y="-696.83" font-family="Helvetica,sans-Serif" font-size="14.00"> &#160;</text>
</g>
<!-- 拋棄[7]Attack7_QuickAttack_Danger&#45;&gt;Engaging -->
<g id="edge11" class="edge">
<title>拋棄[7]Attack7_QuickAttack_Danger&#45;&gt;Engaging</title>
<path fill="none" stroke="#cdc8b1" d="M267.33,-733.95C324.91,-740.75 389.54,-748.37 432.2,-753.41"/>
<polygon fill="#cdc8b1" stroke="#cdc8b1" points="431.78,-756.88 442.12,-754.58 432.6,-749.93 431.78,-756.88"/>
</g>
<!-- Attack8_BallNearAttack -->
<g id="node17" class="node">
<title>Attack8_BallNearAttack</title>
<polygon fill="none" stroke="black" points="62,-644.12 62,-665.88 217.25,-665.88 217.25,-644.12 62,-644.12"/>
<text text-anchor="start" x="65" y="-649.58" font-family="Helvetica,sans-Serif" font-size="14.00">Attack8_BallNearAttack &#160;</text>
<polygon fill="none" stroke="black" points="62,-564.12 62,-644.12 217.25,-644.12 217.25,-564.12 62,-564.12"/>
<text text-anchor="start" x="65" y="-630.73" font-family="Helvetica,sans-Serif" font-size="12.00" fill="#838b8b">0.83s: EnableGravity</text>
<text text-anchor="start" x="65" y="-618.73" font-family="Helvetica,sans-Serif" font-size="12.00" fill="#838b8b">1.00s: DisableGravity</text>
<text text-anchor="start" x="65" y="-606.73" font-family="Helvetica,sans-Serif" font-size="12.00" fill="#838b8b">1.83s: LinkNextMove</text>
<text text-anchor="start" x="65" y="-594.73" font-family="Helvetica,sans-Serif" font-size="12.00" fill="#838b8b">1.83s: CheckFacing</text>
<text text-anchor="start" x="65" y="-582.73" font-family="Helvetica,sans-Serif" font-size="12.00" fill="#838b8b">3.92s: LinkNextMove</text>
<text text-anchor="start" x="65" y="-568.83" font-family="Helvetica,sans-Serif" font-size="12.00" fill="#838b8b">4.08s: Done</text>
<text text-anchor="start" x="129.5" y="-568.83" font-family="Helvetica,sans-Serif" font-size="14.00"> &#160;</text>
</g>
<!-- Attack8_BallNearAttack&#45;&gt;Engaging -->
<g id="edge12" class="edge">
<title>Attack8_BallNearAttack&#45;&gt;Engaging</title>
<path fill="none" stroke="#cdc8b1" d="M224.85,-650.78C290.71,-678.76 379.78,-716.6 433.28,-739.32"/>
<polygon fill="#cdc8b1" stroke="#cdc8b1" points="431.84,-742.51 442.41,-743.2 434.58,-736.07 431.84,-742.51"/>
</g>
<!-- 拋棄[9]Attack9_ThrowBallAttack -->
<g id="node18" class="node">
<title>拋棄[9]Attack9_ThrowBallAttack</title>
<polygon fill="none" stroke="black" points="33.13,-516.12 33.13,-537.88 246.13,-537.88 246.13,-516.12 33.13,-516.12"/>
<text text-anchor="start" x="36.13" y="-521.58" font-family="Helvetica,sans-Serif" font-size="14.00">拋棄[9]Attack9_ThrowBallAttack &#160;</text>
<polygon fill="none" stroke="black" points="33.13,-484.12 33.13,-516.12 246.13,-516.12 246.13,-484.12 33.13,-484.12"/>
<text text-anchor="start" x="36.13" y="-502.73" font-family="Helvetica,sans-Serif" font-size="12.00" fill="#838b8b">1.50s: LinkNextMove</text>
<text text-anchor="start" x="36.13" y="-488.83" font-family="Helvetica,sans-Serif" font-size="12.00" fill="#838b8b">2.08s: Done</text>
<text text-anchor="start" x="100.63" y="-488.83" font-family="Helvetica,sans-Serif" font-size="14.00"> &#160;</text>
</g>
<!-- 拋棄[9]Attack9_ThrowBallAttack&#45;&gt;Engaging -->
<g id="edge13" class="edge">
<title>拋棄[9]Attack9_ThrowBallAttack&#45;&gt;Engaging</title>
<path fill="none" stroke="#cdc8b1" d="M253.97,-538.23C262.77,-541.98 271.31,-546.21 279.25,-551 358.89,-599.01 428.3,-686.63 460.49,-731.27"/>
<polygon fill="#cdc8b1" stroke="#cdc8b1" points="457.62,-733.27 466.27,-739.39 463.33,-729.21 457.62,-733.27"/>
</g>
<!-- Hurt1 -->
<g id="node19" class="node">
<title>Hurt1</title>
<polygon fill="none" stroke="black" points="100.63,-436 100.63,-457.75 178.63,-457.75 178.63,-436 100.63,-436"/>
<text text-anchor="start" x="119.38" y="-441.45" font-family="Helvetica,sans-Serif" font-size="14.00">Hurt1 &#160;</text>
<polygon fill="none" stroke="black" points="100.63,-414.25 100.63,-436 178.63,-436 178.63,-414.25 100.63,-414.25"/>
<text text-anchor="start" x="103.63" y="-420.7" font-family="Helvetica,sans-Serif" font-size="12.00" fill="#838b8b">0.33s: Done</text>
<text text-anchor="start" x="168.13" y="-420.7" font-family="Helvetica,sans-Serif" font-size="14.00"> &#160;</text>
</g>
<!-- Hurt1&#45;&gt;Engaging -->
<g id="edge14" class="edge">
<title>Hurt1&#45;&gt;Engaging</title>
<path fill="none" stroke="#cdc8b1" d="M186.51,-440.91C214.78,-445.5 250.92,-454.29 279.25,-471 382.74,-532.06 445.71,-670.05 469.15,-730.14"/>
<polygon fill="#cdc8b1" stroke="#cdc8b1" points="465.82,-731.23 472.65,-739.33 472.36,-728.74 465.82,-731.23"/>
</g>
<!-- Hurt2 -->
<g id="node20" class="node">
<title>Hurt2</title>
<polygon fill="none" stroke="black" points="100.63,-366 100.63,-387.75 178.63,-387.75 178.63,-366 100.63,-366"/>
<text text-anchor="start" x="119.38" y="-371.45" font-family="Helvetica,sans-Serif" font-size="14.00">Hurt2 &#160;</text>
<polygon fill="none" stroke="black" points="100.63,-344.25 100.63,-366 178.63,-366 178.63,-344.25 100.63,-344.25"/>
<text text-anchor="start" x="103.63" y="-350.7" font-family="Helvetica,sans-Serif" font-size="12.00" fill="#838b8b">2.00s: Done</text>
<text text-anchor="start" x="168.13" y="-350.7" font-family="Helvetica,sans-Serif" font-size="14.00"> &#160;</text>
</g>
<!-- Hurt2&#45;&gt;Engaging -->
<g id="edge15" class="edge">
<title>Hurt2&#45;&gt;Engaging</title>
<path fill="none" stroke="#cdc8b1" d="M186.59,-371.37C214.73,-376.13 250.7,-384.93 279.25,-401 324.51,-426.47 333.3,-440.05 362.5,-483 418.14,-564.84 455.72,-677.35 471.38,-729.83"/>
<polygon fill="#cdc8b1" stroke="#cdc8b1" points="467.96,-730.61 474.13,-739.22 474.68,-728.64 467.96,-730.61"/>
</g>
<!-- LastHit -->
<g id="node21" class="node">
<title>LastHit</title>
<polygon fill="none" stroke="black" points="100.63,-1298 100.63,-1319.75 178.63,-1319.75 178.63,-1298 100.63,-1298"/>
<text text-anchor="start" x="114.88" y="-1303.45" font-family="Helvetica,sans-Serif" font-size="14.00">LastHit &#160;</text>
<polygon fill="none" stroke="black" points="100.63,-1276.25 100.63,-1298 178.63,-1298 178.63,-1276.25 100.63,-1276.25"/>
<text text-anchor="start" x="103.63" y="-1282.7" font-family="Helvetica,sans-Serif" font-size="12.00" fill="#838b8b">1.00s: Done</text>
<text text-anchor="start" x="168.13" y="-1282.7" font-family="Helvetica,sans-Serif" font-size="14.00"> &#160;</text>
</g>
<!-- DeadState -->
<g id="node22" class="node">
<title>DeadState</title>
<polygon fill="none" stroke="black" points="520.48,-1316 440.73,-1316 440.73,-1280 520.48,-1280 520.48,-1316"/>
<text text-anchor="middle" x="480.6" y="-1292.58" font-family="Helvetica,sans-Serif" font-size="14.00">DeadState</text>
</g>
<!-- LastHit&#45;&gt;DeadState -->
<g id="edge16" class="edge">
<title>LastHit&#45;&gt;DeadState</title>
<path fill="none" stroke="#cdc8b1" d="M186.34,-1298C249.59,-1298 363.4,-1298 429.09,-1298"/>
<polygon fill="#cdc8b1" stroke="#cdc8b1" points="428.87,-1301.5 438.87,-1298 428.87,-1294.5 428.87,-1301.5"/>
</g>
<!-- PostureBreak -->
<g id="node23" class="node">
<title>PostureBreak</title>
<polygon fill="none" stroke="black" points="92,-296 92,-317.75 187.25,-317.75 187.25,-296 92,-296"/>
<text text-anchor="start" x="95" y="-301.45" font-family="Helvetica,sans-Serif" font-size="14.00">PostureBreak &#160;</text>
<polygon fill="none" stroke="black" points="92,-274.25 92,-296 187.25,-296 187.25,-274.25 92,-274.25"/>
<text text-anchor="start" x="95" y="-280.7" font-family="Helvetica,sans-Serif" font-size="12.00" fill="#838b8b">2.00s: Done</text>
<text text-anchor="start" x="159.5" y="-280.7" font-family="Helvetica,sans-Serif" font-size="14.00"> &#160;</text>
</g>
<!-- PostureBreak&#45;&gt;Engaging -->
<g id="edge17" class="edge">
<title>PostureBreak&#45;&gt;Engaging</title>
<path fill="none" stroke="#cdc8b1" d="M194.93,-303.25C221.5,-308.37 253.28,-316.92 279.25,-331 323.56,-355.02 335.17,-365.66 362.5,-408 431.56,-514.99 463.88,-666.74 474.95,-729.78"/>
<polygon fill="#cdc8b1" stroke="#cdc8b1" points="471.45,-730.07 476.58,-739.34 478.35,-728.9 471.45,-730.07"/>
</g>
<!-- Idle -->
<g id="node24" class="node">
<title>Idle</title>
<polygon fill="none" stroke="black" points="173.88,-1378 105.38,-1378 105.38,-1342 173.88,-1342 173.88,-1378"/>
<text text-anchor="middle" x="139.63" y="-1354.58" font-family="Helvetica,sans-Serif" font-size="14.00">Idle (Init)</text>
</g>
</g>
</svg>
