<?xml version="1.0" encoding="UTF-8" standalone="no"?>
<!DOCTYPE svg PUBLIC "-//W3C//DTD SVG 1.1//EN"
 "http://www.w3.org/Graphics/SVG/1.1/DTD/svg11.dtd">
<!-- Generated by graphviz version 12.2.1 (20241206.2353)
 -->
<!-- Title: Foo Pages: 1 -->
<svg width="592pt" height="941pt"
 viewBox="0.00 0.00 592.25 941.00" xmlns="http://www.w3.org/2000/svg" xmlns:xlink="http://www.w3.org/1999/xlink">
<g id="graph0" class="graph" transform="scale(1 1) rotate(0) translate(4 937)">
<title>Foo</title>
<polygon fill="white" stroke="none" points="-4,4 -4,-937 588.25,-937 588.25,4 -4,4"/>
<g id="clust1" class="cluster">
<title>cluster_attacksensors</title>
<polygon fill="none" stroke="black" points="8,-8 8,-594 417.75,-594 417.75,-8 8,-8"/>
<text text-anchor="middle" x="212.88" y="-576.7" font-family="Helvetica,sans-Serif" font-size="14.00">Attack Sensors</text>
</g>
<!-- Level Once Sensor -->
<g id="node1" class="node">
<title>Level Once Sensor</title>
<polygon fill="none" stroke="black" points="28.5,-48.12 28.5,-69.88 157.5,-69.88 157.5,-48.12 28.5,-48.12"/>
<text text-anchor="start" x="31.5" y="-53.58" font-family="Helvetica,sans-Serif" font-size="14.00">Level Once Sensor &#160;</text>
</g>
<!-- Level Once Sensor_linked -->
<g id="node2" class="node">
<title>Level Once Sensor_linked</title>
<polygon fill="none" stroke="black" stroke-dasharray="1,5" points="386.23,-52 294.77,-52 294.77,-16 386.23,-16 386.23,-52"/>
<text text-anchor="start" x="300.38" y="-28.57" font-family="Helvetica,sans-Serif" font-size="14.00">Attack_Bark &#160;</text>
</g>
<!-- Level Once Sensor&#45;&gt;Level Once Sensor_linked -->
<g id="edge1" class="edge">
<title>Level Once Sensor&#45;&gt;Level Once Sensor_linked</title>
<path fill="none" stroke="#66cdaa" d="M165.49,-46.22C173.07,-45.1 180.68,-44.08 188,-43.25 219.3,-39.68 254.39,-37.43 282.92,-36.04"/>
<polygon fill="#66cdaa" stroke="#66cdaa" points="282.97,-39.54 292.8,-35.59 282.65,-32.55 282.97,-39.54"/>
<text text-anchor="middle" x="220.62" y="-45.7" font-family="Helvetica,sans-Serif" font-size="14.00" fill="#66cdaa">QueueEnd</text>
</g>
<!-- Level Once Sensor_weight -->
<g id="node3" class="node">
<title>Level Once Sensor_weight</title>
<polygon fill="none" stroke="black" stroke-dasharray="1,5" points="409.75,-106 271.25,-106 271.25,-70 409.75,-70 409.75,-106"/>
<text text-anchor="start" x="281.25" y="-82.58" font-family="Helvetica,sans-Serif" font-size="14.00">1 Attack 3 RunBite &#160;</text>
</g>
<!-- Level Once Sensor&#45;&gt;Level Once Sensor_weight -->
<g id="edge2" class="edge">
<title>Level Once Sensor&#45;&gt;Level Once Sensor_weight</title>
<path fill="none" stroke="#458b74" d="M165.34,-67.43C194.84,-70.91 229.17,-74.97 259.52,-78.55"/>
<polygon fill="#458b74" stroke="#458b74" points="259.1,-82.03 269.44,-79.72 259.92,-75.07 259.1,-82.03"/>
<text text-anchor="middle" x="220.62" y="-80.24" font-family="Helvetica,sans-Serif" font-size="14.00" fill="#458b74">Weight</text>
</g>
<!-- RunAwaySensor -->
<g id="node4" class="node">
<title>RunAwaySensor</title>
<polygon fill="none" stroke="black" points="36,-131.12 36,-152.88 150,-152.88 150,-131.12 36,-131.12"/>
<text text-anchor="start" x="39" y="-136.57" font-family="Helvetica,sans-Serif" font-size="14.00">RunAwaySensor &#160;</text>
</g>
<!-- RunAwaySensor_linked -->
<g id="node5" class="node">
<title>RunAwaySensor_linked</title>
<polygon fill="none" stroke="black" stroke-dasharray="1,5" points="378.73,-160 302.27,-160 302.27,-124 378.73,-124 378.73,-160"/>
<text text-anchor="start" x="307.88" y="-136.57" font-family="Helvetica,sans-Serif" font-size="14.00">RunAway &#160;</text>
</g>
<!-- RunAwaySensor&#45;&gt;RunAwaySensor_linked -->
<g id="edge3" class="edge">
<title>RunAwaySensor&#45;&gt;RunAwaySensor_linked</title>
<path fill="none" stroke="#66cdaa" d="M157.86,-142C199.32,-142 252.52,-142 290.62,-142"/>
<polygon fill="#66cdaa" stroke="#66cdaa" points="290.41,-145.5 300.41,-142 290.41,-138.5 290.41,-145.5"/>
<text text-anchor="middle" x="220.62" y="-144.45" font-family="Helvetica,sans-Serif" font-size="14.00" fill="#66cdaa">QueueEnd</text>
</g>
<!-- AttackSensor -->
<g id="node6" class="node">
<title>AttackSensor</title>
<polygon fill="none" stroke="black" points="46.12,-211.12 46.12,-232.88 139.88,-232.88 139.88,-211.12 46.12,-211.12"/>
<text text-anchor="start" x="49.12" y="-216.57" font-family="Helvetica,sans-Serif" font-size="14.00">AttackSensor &#160;</text>
</g>
<!-- AttackSensor_linked -->
<g id="node7" class="node">
<title>AttackSensor_linked</title>
<polygon fill="none" stroke="black" stroke-dasharray="1,5" points="386.23,-214 294.77,-214 294.77,-178 386.23,-178 386.23,-214"/>
<text text-anchor="start" x="300.38" y="-190.57" font-family="Helvetica,sans-Serif" font-size="14.00">Attack_Bark &#160;</text>
</g>
<!-- AttackSensor&#45;&gt;AttackSensor_linked -->
<g id="edge4" class="edge">
<title>AttackSensor&#45;&gt;AttackSensor_linked</title>
<path fill="none" stroke="#66cdaa" d="M147.61,-213.55C160.79,-211.64 174.89,-209.74 188,-208.25 219.34,-204.69 254.44,-201.79 282.96,-199.7"/>
<polygon fill="#66cdaa" stroke="#66cdaa" points="283.11,-203.2 292.84,-198.99 282.61,-196.22 283.11,-203.2"/>
<text text-anchor="middle" x="220.62" y="-210.7" font-family="Helvetica,sans-Serif" font-size="14.00" fill="#66cdaa">QueueEnd</text>
</g>
<!-- AttackSensor_weight -->
<g id="node8" class="node">
<title>AttackSensor_weight</title>
<polygon fill="none" stroke="black" stroke-dasharray="1,5" points="397.38,-279.75 283.62,-279.75 283.62,-232.25 397.38,-232.25 397.38,-279.75"/>
<text text-anchor="start" x="295.12" y="-260.45" font-family="Helvetica,sans-Serif" font-size="14.00">1 Attack_Bark &#160;</text>
<text text-anchor="start" x="293.62" y="-240.7" font-family="Helvetica,sans-Serif" font-size="14.00">0 Attack 2 Bite &#160;</text>
</g>
<!-- AttackSensor&#45;&gt;AttackSensor_weight -->
<g id="edge5" class="edge">
<title>AttackSensor&#45;&gt;AttackSensor_weight</title>
<path fill="none" stroke="#458b74" d="M147.57,-229.42C184.17,-234.49 232.95,-241.24 272.17,-246.68"/>
<polygon fill="#458b74" stroke="#458b74" points="271.6,-250.13 281.99,-248.03 272.56,-243.2 271.6,-250.13"/>
<text text-anchor="middle" x="220.62" y="-246.48" font-family="Helvetica,sans-Serif" font-size="14.00" fill="#458b74">Weight</text>
</g>
<!-- DodgePredictSensor -->
<g id="node9" class="node">
<title>DodgePredictSensor</title>
<polygon fill="none" stroke="black" points="24,-300 24,-321.75 162,-321.75 162,-300 24,-300"/>
<text text-anchor="start" x="27" y="-305.45" font-family="Helvetica,sans-Serif" font-size="14.00">DodgePredictSensor &#160;</text>
<polygon fill="none" stroke="black" points="24,-278.25 24,-300 162,-300 162,-278.25 24,-278.25"/>
<text text-anchor="start" x="27" y="-284.7" font-family="Helvetica,sans-Serif" font-size="12.00" fill="#838b8b">if: rollingCondition</text>
<text text-anchor="start" x="123.75" y="-284.7" font-family="Helvetica,sans-Serif" font-size="14.00"> &#160;</text>
</g>
<!-- DodgePredictSensor_linked -->
<g id="node10" class="node">
<title>DodgePredictSensor_linked</title>
<polygon fill="none" stroke="black" stroke-dasharray="1,5" points="386.23,-334 294.77,-334 294.77,-298 386.23,-298 386.23,-334"/>
<text text-anchor="start" x="300.38" y="-310.57" font-family="Helvetica,sans-Serif" font-size="14.00">Attack_Bark &#160;</text>
</g>
<!-- DodgePredictSensor&#45;&gt;DodgePredictSensor_linked -->
<g id="edge6" class="edge">
<title>DodgePredictSensor&#45;&gt;DodgePredictSensor_linked</title>
<path fill="none" stroke="#66cdaa" d="M170,-304.95C206.53,-307.33 249.55,-310.14 283.12,-312.33"/>
<polygon fill="#66cdaa" stroke="#66cdaa" points="282.85,-315.82 293.06,-312.97 283.3,-308.83 282.85,-315.82"/>
<text text-anchor="middle" x="220.62" y="-312.82" font-family="Helvetica,sans-Serif" font-size="14.00" fill="#66cdaa">QueueEnd</text>
</g>
<!-- AttackPredictSensor -->
<g id="node11" class="node">
<title>AttackPredictSensor</title>
<polygon fill="none" stroke="black" points="25.12,-370 25.12,-391.75 160.88,-391.75 160.88,-370 25.12,-370"/>
<text text-anchor="start" x="28.12" y="-375.45" font-family="Helvetica,sans-Serif" font-size="14.00">AttackPredictSensor &#160;</text>
<polygon fill="none" stroke="black" points="25.12,-348.25 25.12,-370 160.88,-370 160.88,-348.25 25.12,-348.25"/>
<text text-anchor="start" x="28.12" y="-354.7" font-family="Helvetica,sans-Serif" font-size="12.00" fill="#838b8b">if: attackCondition</text>
<text text-anchor="start" x="123.38" y="-354.7" font-family="Helvetica,sans-Serif" font-size="14.00"> &#160;</text>
</g>
<!-- AttackPredictSensor_linked -->
<g id="node12" class="node">
<title>AttackPredictSensor_linked</title>
<polygon fill="none" stroke="black" stroke-dasharray="1,5" points="386.23,-388 294.77,-388 294.77,-352 386.23,-352 386.23,-388"/>
<text text-anchor="start" x="300.38" y="-364.57" font-family="Helvetica,sans-Serif" font-size="14.00">Attack_Bark &#160;</text>
</g>
<!-- AttackPredictSensor&#45;&gt;AttackPredictSensor_linked -->
<g id="edge7" class="edge">
<title>AttackPredictSensor&#45;&gt;AttackPredictSensor_linked</title>
<path fill="none" stroke="#66cdaa" d="M168.66,-370C205.54,-370 249.3,-370 283.3,-370"/>
<polygon fill="#66cdaa" stroke="#66cdaa" points="282.92,-373.5 292.92,-370 282.92,-366.5 282.92,-373.5"/>
<text text-anchor="middle" x="220.62" y="-372.45" font-family="Helvetica,sans-Serif" font-size="14.00" fill="#66cdaa">QueueEnd</text>
</g>
<!-- AttackRunToSensor -->
<g id="node13" class="node">
<title>AttackRunToSensor</title>
<polygon fill="none" stroke="black" points="26.62,-440 26.62,-461.75 159.38,-461.75 159.38,-440 26.62,-440"/>
<text text-anchor="start" x="29.62" y="-445.45" font-family="Helvetica,sans-Serif" font-size="14.00">AttackRunToSensor &#160;</text>
<polygon fill="none" stroke="black" points="26.62,-418.25 26.62,-440 159.38,-440 159.38,-418.25 26.62,-418.25"/>
<text text-anchor="start" x="29.62" y="-424.7" font-family="Helvetica,sans-Serif" font-size="12.00" fill="#838b8b">if: state is Engaging</text>
<text text-anchor="start" x="133.88" y="-424.7" font-family="Helvetica,sans-Serif" font-size="14.00"> &#160;</text>
</g>
<!-- AttackRunToSensor_linked -->
<g id="node14" class="node">
<title>AttackRunToSensor_linked</title>
<polygon fill="none" stroke="black" stroke-dasharray="1,5" points="386.23,-442 294.77,-442 294.77,-406 386.23,-406 386.23,-442"/>
<text text-anchor="start" x="300.38" y="-418.57" font-family="Helvetica,sans-Serif" font-size="14.00">Attack_Bark &#160;</text>
</g>
<!-- AttackRunToSensor&#45;&gt;AttackRunToSensor_linked -->
<g id="edge8" class="edge">
<title>AttackRunToSensor&#45;&gt;AttackRunToSensor_linked</title>
<path fill="none" stroke="#66cdaa" d="M167.33,-435.22C204.39,-432.81 248.68,-429.92 283.05,-427.68"/>
<polygon fill="#66cdaa" stroke="#66cdaa" points="283.04,-431.19 292.79,-427.04 282.59,-424.2 283.04,-431.19"/>
<text text-anchor="middle" x="220.62" y="-435.88" font-family="Helvetica,sans-Serif" font-size="14.00" fill="#66cdaa">QueueEnd</text>
</g>
<!-- AttackSensor_Far -->
<g id="node15" class="node">
<title>AttackSensor_Far</title>
<polygon fill="none" stroke="black" points="32.25,-521 32.25,-542.75 153.75,-542.75 153.75,-521 32.25,-521"/>
<text text-anchor="start" x="35.25" y="-526.45" font-family="Helvetica,sans-Serif" font-size="14.00">AttackSensor_Far &#160;</text>
<polygon fill="none" stroke="black" points="32.25,-499.25 32.25,-521 153.75,-521 153.75,-499.25 32.25,-499.25"/>
<text text-anchor="start" x="35.25" y="-505.7" font-family="Helvetica,sans-Serif" font-size="12.00" fill="#838b8b">if: state is Engaging</text>
<text text-anchor="start" x="139.5" y="-505.7" font-family="Helvetica,sans-Serif" font-size="14.00"> &#160;</text>
</g>
<!-- AttackSensor_Far_linked -->
<g id="node16" class="node">
<title>AttackSensor_Far_linked</title>
<polygon fill="none" stroke="black" stroke-dasharray="1,5" points="387.73,-496 293.27,-496 293.27,-460 387.73,-460 387.73,-496"/>
<text text-anchor="start" x="298.88" y="-472.57" font-family="Helvetica,sans-Serif" font-size="14.00">Attack 2 Bite &#160;</text>
</g>
<!-- AttackSensor_Far&#45;&gt;AttackSensor_Far_linked -->
<g id="edge9" class="edge">
<title>AttackSensor_Far&#45;&gt;AttackSensor_Far_linked</title>
<path fill="none" stroke="#66cdaa" d="M161.73,-509.14C199.39,-502.54 245.74,-494.42 281.68,-488.13"/>
<polygon fill="#66cdaa" stroke="#66cdaa" points="282.22,-491.59 291.46,-486.41 281.01,-484.69 282.22,-491.59"/>
<text text-anchor="middle" x="220.62" y="-505.8" font-family="Helvetica,sans-Serif" font-size="14.00" fill="#66cdaa">QueueEnd</text>
</g>
<!-- AttackSensor_Far_weight -->
<g id="node17" class="node">
<title>AttackSensor_Far_weight</title>
<polygon fill="none" stroke="black" stroke-dasharray="1,5" points="409.75,-561.75 271.25,-561.75 271.25,-514.25 409.75,-514.25 409.75,-561.75"/>
<text text-anchor="start" x="295.12" y="-542.45" font-family="Helvetica,sans-Serif" font-size="14.00">0 Attack_Bark &#160;</text>
<text text-anchor="start" x="281.25" y="-522.7" font-family="Helvetica,sans-Serif" font-size="14.00">1 Attack 3 RunBite &#160;</text>
</g>
<!-- AttackSensor_Far&#45;&gt;AttackSensor_Far_weight -->
<g id="edge10" class="edge">
<title>AttackSensor_Far&#45;&gt;AttackSensor_Far_weight</title>
<path fill="none" stroke="#458b74" d="M161.73,-525.69C192.07,-527.79 228.06,-530.28 259.7,-532.47"/>
<polygon fill="#458b74" stroke="#458b74" points="259.41,-535.96 269.63,-533.16 259.89,-528.98 259.41,-535.96"/>
<text text-anchor="middle" x="220.62" y="-534.47" font-family="Helvetica,sans-Serif" font-size="14.00" fill="#458b74">Weight</text>
</g>
<!-- Attack_Bark -->
<g id="node18" class="node">
<title>Attack_Bark</title>
<polygon fill="none" stroke="black" points="49.88,-853 49.88,-874.75 136.12,-874.75 136.12,-853 49.88,-853"/>
<text text-anchor="start" x="52.88" y="-858.45" font-family="Helvetica,sans-Serif" font-size="14.00">Attack_Bark &#160;</text>
<polygon fill="none" stroke="black" points="49.88,-831.25 49.88,-853 136.12,-853 136.12,-831.25 49.88,-831.25"/>
<text text-anchor="start" x="52.88" y="-837.7" font-family="Helvetica,sans-Serif" font-size="12.00" fill="#838b8b">0.92s: Done</text>
<text text-anchor="start" x="117.38" y="-837.7" font-family="Helvetica,sans-Serif" font-size="14.00"> &#160;</text>
</g>
<!-- Attack 2 Bite -->
<g id="node19" class="node">
<title>Attack 2 Bite</title>
<polygon fill="none" stroke="black" points="281.62,-858.12 281.62,-879.88 399.38,-879.88 399.38,-858.12 281.62,-858.12"/>
<text text-anchor="start" x="298.88" y="-863.58" font-family="Helvetica,sans-Serif" font-size="14.00">Attack 2 Bite &#160;</text>
<polygon fill="none" stroke="black" points="281.62,-826.12 281.62,-858.12 399.38,-858.12 399.38,-826.12 281.62,-826.12"/>
<text text-anchor="start" x="284.62" y="-844.73" font-family="Helvetica,sans-Serif" font-size="12.00" fill="#838b8b">1.00s: LinkNextMove</text>
<text text-anchor="start" x="284.62" y="-830.83" font-family="Helvetica,sans-Serif" font-size="12.00" fill="#838b8b">1.17s: Done</text>
<text text-anchor="start" x="349.12" y="-830.83" font-family="Helvetica,sans-Serif" font-size="14.00"> &#160;</text>
</g>
<!-- Attack_Bark&#45;&gt;Attack 2 Bite -->
<g id="edge11" class="edge">
<title>Attack_Bark&#45;&gt;Attack 2 Bite</title>
<path fill="none" stroke="#cdc8b1" d="M143.98,-853C178.05,-853 223.82,-853 262.52,-853"/>
<polygon fill="#cdc8b1" stroke="#cdc8b1" points="262.24,-856.5 272.24,-853 262.24,-849.5 262.24,-856.5"/>
</g>
<!-- PreAttack -->
<g id="node20" class="node">
<title>PreAttack</title>
<polygon fill="none" stroke="black" points="573.25,-761 498.75,-761 498.75,-725 573.25,-725 573.25,-761"/>
<text text-anchor="middle" x="536" y="-737.58" font-family="Helvetica,sans-Serif" font-size="14.00">PreAttack</text>
</g>
<!-- Attack 2 Bite&#45;&gt;PreAttack -->
<g id="edge12" class="edge">
<title>Attack 2 Bite&#45;&gt;PreAttack</title>
<path fill="none" stroke="#cdc8b1" d="M400.78,-822.31C406.54,-819.21 412.27,-816.07 417.75,-813 444.05,-798.26 473.16,-780.89 495.79,-767.14"/>
<polygon fill="#cdc8b1" stroke="#cdc8b1" points="497.38,-770.28 504.09,-762.08 493.73,-764.3 497.38,-770.28"/>
</g>
<!-- Attack 2 Bite_weight -->
<g id="node21" class="node">
<title>Attack 2 Bite_weight</title>
<polygon fill="none" stroke="black" stroke-dasharray="1,5" points="584.25,-876.75 487.75,-876.75 487.75,-829.25 584.25,-829.25 584.25,-876.75"/>
<text text-anchor="start" x="497.75" y="-857.45" font-family="Helvetica,sans-Serif" font-size="14.00">1 RunAway &#160;</text>
<text text-anchor="start" x="513.5" y="-837.7" font-family="Helvetica,sans-Serif" font-size="14.00">1 Skip &#160;</text>
</g>
<!-- Attack 2 Bite&#45;&gt;Attack 2 Bite_weight -->
<g id="edge13" class="edge">
<title>Attack 2 Bite&#45;&gt;Attack 2 Bite_weight</title>
<path fill="none" stroke="#458b74" d="M407.28,-853C429.57,-853 454.31,-853 476.03,-853"/>
<polygon fill="#458b74" stroke="#458b74" points="475.91,-856.5 485.91,-853 475.91,-849.5 475.91,-856.5"/>
<text text-anchor="middle" x="448.75" y="-855.45" font-family="Helvetica,sans-Serif" font-size="14.00" fill="#458b74">Weight</text>
</g>
<!-- Attack 3 RunBite -->
<g id="node22" class="node">
<title>Attack 3 RunBite</title>
<polygon fill="none" stroke="black" points="281.62,-638.12 281.62,-659.88 399.38,-659.88 399.38,-638.12 281.62,-638.12"/>
<text text-anchor="start" x="286.5" y="-643.58" font-family="Helvetica,sans-Serif" font-size="14.00">Attack 3 RunBite &#160;</text>
<polygon fill="none" stroke="black" points="281.62,-606.12 281.62,-638.12 399.38,-638.12 399.38,-606.12 281.62,-606.12"/>
<text text-anchor="start" x="284.62" y="-624.73" font-family="Helvetica,sans-Serif" font-size="12.00" fill="#838b8b">1.17s: LinkNextMove</text>
<text text-anchor="start" x="284.62" y="-610.83" font-family="Helvetica,sans-Serif" font-size="12.00" fill="#838b8b">1.25s: Done</text>
<text text-anchor="start" x="349.12" y="-610.83" font-family="Helvetica,sans-Serif" font-size="14.00"> &#160;</text>
</g>
<!-- Attack 3 RunBite&#45;&gt;PreAttack -->
<g id="edge14" class="edge">
<title>Attack 3 RunBite&#45;&gt;PreAttack</title>
<path fill="none" stroke="#cdc8b1" d="M400.78,-663.69C406.54,-666.79 412.27,-669.93 417.75,-673 444.05,-687.74 473.16,-705.11 495.79,-718.86"/>
<polygon fill="#cdc8b1" stroke="#cdc8b1" points="493.73,-721.7 504.09,-723.92 497.38,-715.72 493.73,-721.7"/>
</g>
<!-- Attack 3 RunBite_weight -->
<g id="node23" class="node">
<title>Attack 3 RunBite_weight</title>
<polygon fill="none" stroke="black" stroke-dasharray="1,5" points="584.25,-656.75 487.75,-656.75 487.75,-609.25 584.25,-609.25 584.25,-656.75"/>
<text text-anchor="start" x="497.75" y="-637.45" font-family="Helvetica,sans-Serif" font-size="14.00">1 RunAway &#160;</text>
<text text-anchor="start" x="513.5" y="-617.7" font-family="Helvetica,sans-Serif" font-size="14.00">1 Skip &#160;</text>
</g>
<!-- Attack 3 RunBite&#45;&gt;Attack 3 RunBite_weight -->
<g id="edge15" class="edge">
<title>Attack 3 RunBite&#45;&gt;Attack 3 RunBite_weight</title>
<path fill="none" stroke="#458b74" d="M407.28,-633C429.57,-633 454.31,-633 476.03,-633"/>
<polygon fill="#458b74" stroke="#458b74" points="475.91,-636.5 485.91,-633 475.91,-629.5 475.91,-636.5"/>
<text text-anchor="middle" x="448.75" y="-635.45" font-family="Helvetica,sans-Serif" font-size="14.00" fill="#458b74">Weight</text>
</g>
<!-- HurtState -->
<g id="node24" class="node">
<title>HurtState</title>
<polygon fill="none" stroke="black" points="301.5,-708 301.5,-729.75 379.5,-729.75 379.5,-708 301.5,-708"/>
<text text-anchor="start" x="308.25" y="-713.45" font-family="Helvetica,sans-Serif" font-size="14.00">HurtState &#160;</text>
<polygon fill="none" stroke="black" points="301.5,-686.25 301.5,-708 379.5,-708 379.5,-686.25 301.5,-686.25"/>
<text text-anchor="start" x="304.5" y="-692.7" font-family="Helvetica,sans-Serif" font-size="12.00" fill="#838b8b">0.27s: Done</text>
<text text-anchor="start" x="369" y="-692.7" font-family="Helvetica,sans-Serif" font-size="14.00"> &#160;</text>
</g>
<!-- HurtState&#45;&gt;PreAttack -->
<g id="edge16" class="edge">
<title>HurtState&#45;&gt;PreAttack</title>
<path fill="none" stroke="#cdc8b1" d="M387.36,-716.29C417.48,-721.74 456.81,-728.86 487.3,-734.37"/>
<polygon fill="#cdc8b1" stroke="#cdc8b1" points="486.57,-737.8 497.03,-736.13 487.81,-730.91 486.57,-737.8"/>
</g>
<!-- Hurt_BigState -->
<g id="node25" class="node">
<title>Hurt_BigState</title>
<polygon fill="none" stroke="black" points="291.75,-778 291.75,-799.75 389.25,-799.75 389.25,-778 291.75,-778"/>
<text text-anchor="start" x="294.75" y="-783.45" font-family="Helvetica,sans-Serif" font-size="14.00">Hurt_BigState &#160;</text>
<polygon fill="none" stroke="black" points="291.75,-756.25 291.75,-778 389.25,-778 389.25,-756.25 291.75,-756.25"/>
<text text-anchor="start" x="294.75" y="-762.7" font-family="Helvetica,sans-Serif" font-size="12.00" fill="#838b8b">1.00s: Done</text>
<text text-anchor="start" x="359.25" y="-762.7" font-family="Helvetica,sans-Serif" font-size="14.00"> &#160;</text>
</g>
<!-- Hurt_BigState&#45;&gt;PreAttack -->
<g id="edge17" class="edge">
<title>Hurt_BigState&#45;&gt;PreAttack</title>
<path fill="none" stroke="#cdc8b1" d="M397.21,-767.92C425.64,-762.78 459.87,-756.59 487.1,-751.66"/>
<polygon fill="#cdc8b1" stroke="#cdc8b1" points="487.6,-755.13 496.82,-749.91 486.35,-748.24 487.6,-755.13"/>
</g>
<!-- Wandering_Idle -->
<g id="node26" class="node">
<title>Wandering_Idle</title>
<polygon fill="none" stroke="black" points="163.62,-933 22.38,-933 22.38,-897 163.62,-897 163.62,-933"/>
<text text-anchor="middle" x="93" y="-909.58" font-family="Helvetica,sans-Serif" font-size="14.00">Wandering_Idle (Init)</text>
</g>
</g>
</svg>
