<?xml version="1.0" encoding="UTF-8" standalone="no"?>
<!DOCTYPE svg PUBLIC "-//W3C//DTD SVG 1.1//EN"
 "http://www.w3.org/Graphics/SVG/1.1/DTD/svg11.dtd">
<!-- Generated by graphviz version 12.2.1 (20241206.2353)
 -->
<!-- Title: Foo Pages: 1 -->
<svg width="566pt" height="942pt"
 viewBox="0.00 0.00 565.50 941.88" xmlns="http://www.w3.org/2000/svg" xmlns:xlink="http://www.w3.org/1999/xlink">
<g id="graph0" class="graph" transform="scale(1 1) rotate(0) translate(4 937.88)">
<title>Foo</title>
<polygon fill="white" stroke="none" points="-4,4 -4,-937.88 561.5,-937.88 561.5,4 -4,4"/>
<g id="clust1" class="cluster">
<title>cluster_attacksensors</title>
<polygon fill="none" stroke="black" points="8,-339.88 8,-925.88 396.25,-925.88 396.25,-339.88 8,-339.88"/>
<text text-anchor="middle" x="202.12" y="-908.58" font-family="Helvetica,sans-Serif" font-size="14.00">Attack Sensors</text>
</g>
<!-- Attack_Bark -->
<g id="node1" class="node">
<title>Attack_Bark</title>
<polygon fill="none" stroke="black" points="49.88,-250.88 49.88,-272.62 136.12,-272.62 136.12,-250.88 49.88,-250.88"/>
<text text-anchor="start" x="52.88" y="-256.32" font-family="Helvetica,sans-Serif" font-size="14.00">Attack_Bark &#160;</text>
<polygon fill="none" stroke="black" points="49.88,-229.12 49.88,-250.88 136.12,-250.88 136.12,-229.12 49.88,-229.12"/>
<text text-anchor="start" x="52.88" y="-235.57" font-family="Helvetica,sans-Serif" font-size="12.00" fill="#838b8b">0.92s: Done</text>
<text text-anchor="start" x="117.38" y="-235.57" font-family="Helvetica,sans-Serif" font-size="14.00"> &#160;</text>
</g>
<!-- Attack 2 Bite -->
<g id="node2" class="node">
<title>Attack 2 Bite</title>
<polygon fill="none" stroke="black" points="279.25,-256 279.25,-277.75 397,-277.75 397,-256 279.25,-256"/>
<text text-anchor="start" x="296.5" y="-261.45" font-family="Helvetica,sans-Serif" font-size="14.00">Attack 2 Bite &#160;</text>
<polygon fill="none" stroke="black" points="279.25,-224 279.25,-256 397,-256 397,-224 279.25,-224"/>
<text text-anchor="start" x="282.25" y="-242.6" font-family="Helvetica,sans-Serif" font-size="12.00" fill="#838b8b">1.00s: LinkNextMove</text>
<text text-anchor="start" x="282.25" y="-228.7" font-family="Helvetica,sans-Serif" font-size="12.00" fill="#838b8b">1.17s: Done</text>
<text text-anchor="start" x="346.75" y="-228.7" font-family="Helvetica,sans-Serif" font-size="14.00"> &#160;</text>
</g>
<!-- Attack_Bark&#45;&gt;Attack 2 Bite -->
<g id="edge1" class="edge">
<title>Attack_Bark&#45;&gt;Attack 2 Bite</title>
<path fill="none" stroke="#cdc8b1" d="M144.08,-250.88C177.61,-250.88 222.39,-250.88 260.38,-250.88"/>
<polygon fill="#cdc8b1" stroke="#cdc8b1" points="259.9,-254.38 269.9,-250.88 259.9,-247.38 259.9,-254.38"/>
</g>
<!-- PreAttack -->
<g id="node3" class="node">
<title>PreAttack</title>
<polygon fill="none" stroke="black" points="557.5,-158.88 483,-158.88 483,-122.88 557.5,-122.88 557.5,-158.88"/>
<text text-anchor="middle" x="520.25" y="-135.45" font-family="Helvetica,sans-Serif" font-size="14.00">PreAttack</text>
</g>
<!-- Attack 2 Bite&#45;&gt;PreAttack -->
<g id="edge2" class="edge">
<title>Attack 2 Bite&#45;&gt;PreAttack</title>
<path fill="none" stroke="#cdc8b1" d="M389.85,-220.1C394.97,-216.99 400.09,-213.87 405,-210.88 429.8,-195.75 457.59,-178.72 479.55,-165.25"/>
<polygon fill="#cdc8b1" stroke="#cdc8b1" points="481.22,-168.34 487.91,-160.12 477.56,-162.37 481.22,-168.34"/>
</g>
<!-- Attack 2 Bite_mustuse -->
<g id="node4" class="node">
<title>Attack 2 Bite_mustuse</title>
<polygon fill="none" stroke="black" stroke-dasharray="1,5" points="552.75,-274.62 487.75,-274.62 487.75,-227.12 552.75,-227.12 552.75,-274.62"/>
<text text-anchor="start" x="497.75" y="-255.32" font-family="Helvetica,sans-Serif" font-size="14.00">1 Skip &#160;</text>
<text text-anchor="start" x="497.75" y="-235.57" font-family="Helvetica,sans-Serif" font-size="14.00">1 Skip &#160;</text>
</g>
<!-- Attack 2 Bite&#45;&gt;Attack 2 Bite_mustuse -->
<g id="edge3" class="edge">
<title>Attack 2 Bite&#45;&gt;Attack 2 Bite_mustuse</title>
<path fill="none" stroke="#458b74" d="M404.92,-250.88C428.66,-250.88 454.84,-250.88 476.14,-250.88"/>
<polygon fill="#458b74" stroke="#458b74" points="475.92,-254.38 485.92,-250.88 475.92,-247.38 475.92,-254.38"/>
<text text-anchor="middle" x="444" y="-253.32" font-family="Helvetica,sans-Serif" font-size="14.00" fill="#458b74">Weight</text>
</g>
<!-- Attack 3 RunBite -->
<g id="node5" class="node">
<title>Attack 3 RunBite</title>
<polygon fill="none" stroke="black" points="279.25,-36 279.25,-57.75 397,-57.75 397,-36 279.25,-36"/>
<text text-anchor="start" x="284.12" y="-41.45" font-family="Helvetica,sans-Serif" font-size="14.00">Attack 3 RunBite &#160;</text>
<polygon fill="none" stroke="black" points="279.25,-4 279.25,-36 397,-36 397,-4 279.25,-4"/>
<text text-anchor="start" x="282.25" y="-22.6" font-family="Helvetica,sans-Serif" font-size="12.00" fill="#838b8b">1.17s: LinkNextMove</text>
<text text-anchor="start" x="282.25" y="-8.7" font-family="Helvetica,sans-Serif" font-size="12.00" fill="#838b8b">1.25s: Done</text>
<text text-anchor="start" x="346.75" y="-8.7" font-family="Helvetica,sans-Serif" font-size="14.00"> &#160;</text>
</g>
<!-- Attack 3 RunBite&#45;&gt;PreAttack -->
<g id="edge4" class="edge">
<title>Attack 3 RunBite&#45;&gt;PreAttack</title>
<path fill="none" stroke="#cdc8b1" d="M389.85,-61.65C394.97,-64.76 400.09,-67.88 405,-70.88 429.8,-86 457.59,-103.03 479.55,-116.5"/>
<polygon fill="#cdc8b1" stroke="#cdc8b1" points="477.56,-119.38 487.91,-121.63 481.22,-113.41 477.56,-119.38"/>
</g>
<!-- Attack 3 RunBite_mustuse -->
<g id="node6" class="node">
<title>Attack 3 RunBite_mustuse</title>
<polygon fill="none" stroke="black" stroke-dasharray="1,5" points="552.75,-54.62 487.75,-54.62 487.75,-7.12 552.75,-7.12 552.75,-54.62"/>
<text text-anchor="start" x="497.75" y="-35.33" font-family="Helvetica,sans-Serif" font-size="14.00">1 Skip &#160;</text>
<text text-anchor="start" x="497.75" y="-15.57" font-family="Helvetica,sans-Serif" font-size="14.00">1 Skip &#160;</text>
</g>
<!-- Attack 3 RunBite&#45;&gt;Attack 3 RunBite_mustuse -->
<g id="edge5" class="edge">
<title>Attack 3 RunBite&#45;&gt;Attack 3 RunBite_mustuse</title>
<path fill="none" stroke="#458b74" d="M404.92,-30.88C428.66,-30.88 454.84,-30.88 476.14,-30.88"/>
<polygon fill="#458b74" stroke="#458b74" points="475.92,-34.38 485.92,-30.88 475.92,-27.38 475.92,-34.38"/>
<text text-anchor="middle" x="444" y="-33.33" font-family="Helvetica,sans-Serif" font-size="14.00" fill="#458b74">Weight</text>
</g>
<!-- HurtState -->
<g id="node7" class="node">
<title>HurtState</title>
<polygon fill="none" stroke="black" points="299.12,-105.88 299.12,-127.62 377.12,-127.62 377.12,-105.88 299.12,-105.88"/>
<text text-anchor="start" x="305.88" y="-111.33" font-family="Helvetica,sans-Serif" font-size="14.00">HurtState &#160;</text>
<polygon fill="none" stroke="black" points="299.12,-84.12 299.12,-105.88 377.12,-105.88 377.12,-84.12 299.12,-84.12"/>
<text text-anchor="start" x="302.12" y="-90.58" font-family="Helvetica,sans-Serif" font-size="12.00" fill="#838b8b">0.27s: Done</text>
<text text-anchor="start" x="366.62" y="-90.58" font-family="Helvetica,sans-Serif" font-size="14.00"> &#160;</text>
</g>
<!-- HurtState&#45;&gt;PreAttack -->
<g id="edge6" class="edge">
<title>HurtState&#45;&gt;PreAttack</title>
<path fill="none" stroke="#cdc8b1" d="M385.04,-114.8C411.58,-119.95 444.92,-126.43 471.73,-131.64"/>
<polygon fill="#cdc8b1" stroke="#cdc8b1" points="470.81,-135.03 481.29,-133.5 472.14,-128.16 470.81,-135.03"/>
</g>
<!-- Hurt_BigState -->
<g id="node8" class="node">
<title>Hurt_BigState</title>
<polygon fill="none" stroke="black" points="289.38,-175.88 289.38,-197.62 386.88,-197.62 386.88,-175.88 289.38,-175.88"/>
<text text-anchor="start" x="292.38" y="-181.32" font-family="Helvetica,sans-Serif" font-size="14.00">Hurt_BigState &#160;</text>
<polygon fill="none" stroke="black" points="289.38,-154.12 289.38,-175.88 386.88,-175.88 386.88,-154.12 289.38,-154.12"/>
<text text-anchor="start" x="292.38" y="-160.57" font-family="Helvetica,sans-Serif" font-size="12.00" fill="#838b8b">1.00s: Done</text>
<text text-anchor="start" x="356.88" y="-160.57" font-family="Helvetica,sans-Serif" font-size="14.00"> &#160;</text>
</g>
<!-- Hurt_BigState&#45;&gt;PreAttack -->
<g id="edge7" class="edge">
<title>Hurt_BigState&#45;&gt;PreAttack</title>
<path fill="none" stroke="#cdc8b1" d="M394.64,-165.09C419.24,-160.31 447.91,-154.74 471.53,-150.15"/>
<polygon fill="#cdc8b1" stroke="#cdc8b1" points="472.06,-153.61 481.2,-148.27 470.72,-146.74 472.06,-153.61"/>
</g>
<!-- Wandering_Idle -->
<g id="node9" class="node">
<title>Wandering_Idle</title>
<polygon fill="none" stroke="black" points="163.62,-330.88 22.38,-330.88 22.38,-294.88 163.62,-294.88 163.62,-330.88"/>
<text text-anchor="middle" x="93" y="-307.45" font-family="Helvetica,sans-Serif" font-size="14.00">Wandering_Idle (Init)</text>
</g>
<!-- Level Once Sensor -->
<g id="node10" class="node">
<title>Level Once Sensor</title>
<polygon fill="none" stroke="black" points="158.75,-388.88 27.25,-388.88 27.25,-352.88 158.75,-352.88 158.75,-388.88"/>
<text text-anchor="middle" x="93" y="-365.45" font-family="Helvetica,sans-Serif" font-size="14.00">Level Once Sensor</text>
</g>
<!-- Level Once Sensor_linked -->
<g id="node11" class="node">
<title>Level Once Sensor_linked</title>
<polygon fill="none" stroke="black" stroke-dasharray="1,5" points="383.85,-383.88 292.4,-383.88 292.4,-347.88 383.85,-347.88 383.85,-383.88"/>
<text text-anchor="start" x="298" y="-360.45" font-family="Helvetica,sans-Serif" font-size="14.00">Attack_Bark &#160;</text>
</g>
<!-- Level Once Sensor&#45;&gt;Level Once Sensor_linked -->
<g id="edge8" class="edge">
<title>Level Once Sensor&#45;&gt;Level Once Sensor_linked</title>
<path fill="none" stroke="#66cdaa" d="M159.15,-369.54C197.1,-368.75 244.48,-367.78 280.8,-367.03"/>
<polygon fill="#66cdaa" stroke="#66cdaa" points="280.75,-370.54 290.67,-366.83 280.6,-363.54 280.75,-370.54"/>
<text text-anchor="middle" x="220.62" y="-371.27" font-family="Helvetica,sans-Serif" font-size="14.00" fill="#66cdaa">QueueEnd</text>
</g>
<!-- Level Once Sensor_mustuse -->
<g id="node12" class="node">
<title>Level Once Sensor_mustuse</title>
<polygon fill="none" stroke="black" stroke-dasharray="1,5" points="388.25,-437.88 288,-437.88 288,-401.88 388.25,-401.88 388.25,-437.88"/>
<text text-anchor="start" x="298" y="-414.45" font-family="Helvetica,sans-Serif" font-size="14.00">1 Undefined &#160;</text>
</g>
<!-- Level Once Sensor&#45;&gt;Level Once Sensor_mustuse -->
<g id="edge9" class="edge">
<title>Level Once Sensor&#45;&gt;Level Once Sensor_mustuse</title>
<path fill="none" stroke="#458b74" d="M159.15,-384.01C195.58,-391.35 240.69,-400.44 276.38,-407.63"/>
<polygon fill="#458b74" stroke="#458b74" points="275.63,-411.05 286.13,-409.6 277.02,-404.19 275.63,-411.05"/>
<text text-anchor="middle" x="220.62" y="-405.08" font-family="Helvetica,sans-Serif" font-size="14.00" fill="#458b74">Weight</text>
</g>
<!-- RunAwaySensor -->
<g id="node13" class="node">
<title>RunAwaySensor</title>
<polygon fill="none" stroke="black" points="151.25,-491.88 34.75,-491.88 34.75,-455.88 151.25,-455.88 151.25,-491.88"/>
<text text-anchor="middle" x="93" y="-468.45" font-family="Helvetica,sans-Serif" font-size="14.00">RunAwaySensor</text>
</g>
<!-- RunAwaySensor_linked -->
<g id="node14" class="node">
<title>RunAwaySensor_linked</title>
<polygon fill="none" stroke="black" stroke-dasharray="1,5" points="376.35,-491.88 299.9,-491.88 299.9,-455.88 376.35,-455.88 376.35,-491.88"/>
<text text-anchor="start" x="305.5" y="-468.45" font-family="Helvetica,sans-Serif" font-size="14.00">RunAway &#160;</text>
</g>
<!-- RunAwaySensor&#45;&gt;RunAwaySensor_linked -->
<g id="edge10" class="edge">
<title>RunAwaySensor&#45;&gt;RunAwaySensor_linked</title>
<path fill="none" stroke="#66cdaa" d="M151.62,-473.88C193.19,-473.88 248.72,-473.88 288.16,-473.88"/>
<polygon fill="#66cdaa" stroke="#66cdaa" points="288.08,-477.38 298.08,-473.88 288.08,-470.38 288.08,-477.38"/>
<text text-anchor="middle" x="220.62" y="-476.32" font-family="Helvetica,sans-Serif" font-size="14.00" fill="#66cdaa">QueueEnd</text>
</g>
<!-- AttackSensor -->
<g id="node15" class="node">
<title>AttackSensor</title>
<polygon fill="none" stroke="black" points="141.12,-568.88 44.88,-568.88 44.88,-532.88 141.12,-532.88 141.12,-568.88"/>
<text text-anchor="middle" x="93" y="-545.45" font-family="Helvetica,sans-Serif" font-size="14.00">AttackSensor</text>
</g>
<!-- AttackSensor_linked -->
<g id="node16" class="node">
<title>AttackSensor_linked</title>
<polygon fill="none" stroke="black" stroke-dasharray="1,5" points="383.85,-545.88 292.4,-545.88 292.4,-509.88 383.85,-509.88 383.85,-545.88"/>
<text text-anchor="start" x="298" y="-522.45" font-family="Helvetica,sans-Serif" font-size="14.00">Attack_Bark &#160;</text>
</g>
<!-- AttackSensor&#45;&gt;AttackSensor_linked -->
<g id="edge11" class="edge">
<title>AttackSensor&#45;&gt;AttackSensor_linked</title>
<path fill="none" stroke="#66cdaa" d="M141.31,-545.17C156.23,-543.45 172.8,-541.62 188,-540.12 218.67,-537.11 252.95,-534.26 280.9,-532.07"/>
<polygon fill="#66cdaa" stroke="#66cdaa" points="280.86,-535.58 290.55,-531.32 280.31,-528.6 280.86,-535.58"/>
<text text-anchor="middle" x="220.62" y="-542.58" font-family="Helvetica,sans-Serif" font-size="14.00" fill="#66cdaa">QueueEnd</text>
</g>
<!-- AttackSensor_mustuse -->
<g id="node17" class="node">
<title>AttackSensor_mustuse</title>
<polygon fill="none" stroke="black" stroke-dasharray="1,5" points="388.25,-611.62 288,-611.62 288,-564.12 388.25,-564.12 388.25,-611.62"/>
<text text-anchor="start" x="298" y="-592.33" font-family="Helvetica,sans-Serif" font-size="14.00">1 Undefined &#160;</text>
<text text-anchor="start" x="298" y="-572.58" font-family="Helvetica,sans-Serif" font-size="14.00">0 Undefined &#160;</text>
</g>
<!-- AttackSensor&#45;&gt;AttackSensor_mustuse -->
<g id="edge12" class="edge">
<title>AttackSensor&#45;&gt;AttackSensor_mustuse</title>
<path fill="none" stroke="#458b74" d="M141.45,-558.1C180.06,-563.97 234.8,-572.3 276.57,-578.66"/>
<polygon fill="#458b74" stroke="#458b74" points="275.8,-582.08 286.21,-580.13 276.85,-575.16 275.8,-582.08"/>
<text text-anchor="middle" x="220.62" y="-577.3" font-family="Helvetica,sans-Serif" font-size="14.00" fill="#458b74">Weight</text>
</g>
<!-- DodgePredictSensor -->
<g id="node18" class="node">
<title>DodgePredictSensor</title>
<polygon fill="none" stroke="black" points="24,-631.88 24,-653.62 162,-653.62 162,-631.88 24,-631.88"/>
<text text-anchor="start" x="27" y="-637.33" font-family="Helvetica,sans-Serif" font-size="14.00">DodgePredictSensor &#160;</text>
<polygon fill="none" stroke="black" points="24,-610.12 24,-631.88 162,-631.88 162,-610.12 24,-610.12"/>
<text text-anchor="start" x="27" y="-616.58" font-family="Helvetica,sans-Serif" font-size="12.00" fill="#838b8b">if: Dodge</text>
<text text-anchor="start" x="75" y="-616.58" font-family="Helvetica,sans-Serif" font-size="14.00"> &#160;</text>
</g>
<!-- DodgePredictSensor_linked -->
<g id="node19" class="node">
<title>DodgePredictSensor_linked</title>
<polygon fill="none" stroke="black" stroke-dasharray="1,5" points="383.85,-665.88 292.4,-665.88 292.4,-629.88 383.85,-629.88 383.85,-665.88"/>
<text text-anchor="start" x="298" y="-642.45" font-family="Helvetica,sans-Serif" font-size="14.00">Attack_Bark &#160;</text>
</g>
<!-- DodgePredictSensor&#45;&gt;DodgePredictSensor_linked -->
<g id="edge13" class="edge">
<title>DodgePredictSensor&#45;&gt;DodgePredictSensor_linked</title>
<path fill="none" stroke="#66cdaa" d="M169.93,-636.87C205.82,-639.23 247.92,-642 280.9,-644.17"/>
<polygon fill="#66cdaa" stroke="#66cdaa" points="280.44,-647.65 290.65,-644.82 280.9,-640.67 280.44,-647.65"/>
<text text-anchor="middle" x="220.62" y="-644.69" font-family="Helvetica,sans-Serif" font-size="14.00" fill="#66cdaa">QueueEnd</text>
</g>
<!-- AttackPredictSensor -->
<g id="node20" class="node">
<title>AttackPredictSensor</title>
<polygon fill="none" stroke="black" points="25.12,-701.88 25.12,-723.62 160.88,-723.62 160.88,-701.88 25.12,-701.88"/>
<text text-anchor="start" x="28.12" y="-707.33" font-family="Helvetica,sans-Serif" font-size="14.00">AttackPredictSensor &#160;</text>
<polygon fill="none" stroke="black" points="25.12,-680.12 25.12,-701.88 160.88,-701.88 160.88,-680.12 25.12,-680.12"/>
<text text-anchor="start" x="28.12" y="-686.58" font-family="Helvetica,sans-Serif" font-size="12.00" fill="#838b8b">if: Attack</text>
<text text-anchor="start" x="73.12" y="-686.58" font-family="Helvetica,sans-Serif" font-size="14.00"> &#160;</text>
</g>
<!-- AttackPredictSensor_linked -->
<g id="node21" class="node">
<title>AttackPredictSensor_linked</title>
<polygon fill="none" stroke="black" stroke-dasharray="1,5" points="383.85,-719.88 292.4,-719.88 292.4,-683.88 383.85,-683.88 383.85,-719.88"/>
<text text-anchor="start" x="298" y="-696.45" font-family="Helvetica,sans-Serif" font-size="14.00">Attack_Bark &#160;</text>
</g>
<!-- AttackPredictSensor&#45;&gt;AttackPredictSensor_linked -->
<g id="edge14" class="edge">
<title>AttackPredictSensor&#45;&gt;AttackPredictSensor_linked</title>
<path fill="none" stroke="#66cdaa" d="M168.6,-701.88C204.68,-701.88 247.29,-701.88 280.64,-701.88"/>
<polygon fill="#66cdaa" stroke="#66cdaa" points="280.51,-705.38 290.51,-701.88 280.51,-698.38 280.51,-705.38"/>
<text text-anchor="middle" x="220.62" y="-704.33" font-family="Helvetica,sans-Serif" font-size="14.00" fill="#66cdaa">QueueEnd</text>
</g>
<!-- AttackRunToSensor -->
<g id="node22" class="node">
<title>AttackRunToSensor</title>
<polygon fill="none" stroke="black" points="26.62,-771.88 26.62,-793.62 159.38,-793.62 159.38,-771.88 26.62,-771.88"/>
<text text-anchor="start" x="29.62" y="-777.33" font-family="Helvetica,sans-Serif" font-size="14.00">AttackRunToSensor &#160;</text>
<polygon fill="none" stroke="black" points="26.62,-750.12 26.62,-771.88 159.38,-771.88 159.38,-750.12 26.62,-750.12"/>
<text text-anchor="start" x="29.62" y="-756.58" font-family="Helvetica,sans-Serif" font-size="12.00" fill="#838b8b">if: state is Engaging</text>
<text text-anchor="start" x="133.88" y="-756.58" font-family="Helvetica,sans-Serif" font-size="14.00"> &#160;</text>
</g>
<!-- AttackRunToSensor_linked -->
<g id="node23" class="node">
<title>AttackRunToSensor_linked</title>
<polygon fill="none" stroke="black" stroke-dasharray="1,5" points="383.85,-773.88 292.4,-773.88 292.4,-737.88 383.85,-737.88 383.85,-773.88"/>
<text text-anchor="start" x="298" y="-750.45" font-family="Helvetica,sans-Serif" font-size="14.00">Attack_Bark &#160;</text>
</g>
<!-- AttackRunToSensor&#45;&gt;AttackRunToSensor_linked -->
<g id="edge15" class="edge">
<title>AttackRunToSensor&#45;&gt;AttackRunToSensor_linked</title>
<path fill="none" stroke="#66cdaa" d="M167.28,-767.05C203.83,-764.65 247.34,-761.78 281.17,-759.56"/>
<polygon fill="#66cdaa" stroke="#66cdaa" points="280.99,-763.08 290.74,-758.93 280.53,-756.09 280.99,-763.08"/>
<text text-anchor="middle" x="220.62" y="-767.76" font-family="Helvetica,sans-Serif" font-size="14.00" fill="#66cdaa">QueueEnd</text>
</g>
<!-- AttackSensor_Far -->
<g id="node24" class="node">
<title>AttackSensor_Far</title>
<polygon fill="none" stroke="black" points="32.25,-852.88 32.25,-874.62 153.75,-874.62 153.75,-852.88 32.25,-852.88"/>
<text text-anchor="start" x="35.25" y="-858.33" font-family="Helvetica,sans-Serif" font-size="14.00">AttackSensor_Far &#160;</text>
<polygon fill="none" stroke="black" points="32.25,-831.12 32.25,-852.88 153.75,-852.88 153.75,-831.12 32.25,-831.12"/>
<text text-anchor="start" x="35.25" y="-837.58" font-family="Helvetica,sans-Serif" font-size="12.00" fill="#838b8b">if: state is Engaging</text>
<text text-anchor="start" x="139.5" y="-837.58" font-family="Helvetica,sans-Serif" font-size="14.00"> &#160;</text>
</g>
<!-- AttackSensor_Far_linked -->
<g id="node25" class="node">
<title>AttackSensor_Far_linked</title>
<polygon fill="none" stroke="black" stroke-dasharray="1,5" points="385.35,-827.88 290.9,-827.88 290.9,-791.88 385.35,-791.88 385.35,-827.88"/>
<text text-anchor="start" x="296.5" y="-804.45" font-family="Helvetica,sans-Serif" font-size="14.00">Attack 2 Bite &#160;</text>
</g>
<!-- AttackSensor_Far&#45;&gt;AttackSensor_Far_linked -->
<g id="edge16" class="edge">
<title>AttackSensor_Far&#45;&gt;AttackSensor_Far_linked</title>
<path fill="none" stroke="#66cdaa" d="M161.72,-840.9C198.74,-834.35 244.11,-826.33 279.44,-820.08"/>
<polygon fill="#66cdaa" stroke="#66cdaa" points="279.8,-823.57 289.04,-818.38 278.58,-816.68 279.8,-823.57"/>
<text text-anchor="middle" x="220.62" y="-837.68" font-family="Helvetica,sans-Serif" font-size="14.00" fill="#66cdaa">QueueEnd</text>
</g>
<!-- AttackSensor_Far_mustuse -->
<g id="node26" class="node">
<title>AttackSensor_Far_mustuse</title>
<polygon fill="none" stroke="black" stroke-dasharray="1,5" points="388.25,-893.62 288,-893.62 288,-846.12 388.25,-846.12 388.25,-893.62"/>
<text text-anchor="start" x="298" y="-874.33" font-family="Helvetica,sans-Serif" font-size="14.00">0 Undefined &#160;</text>
<text text-anchor="start" x="298" y="-854.58" font-family="Helvetica,sans-Serif" font-size="14.00">1 Undefined &#160;</text>
</g>
<!-- AttackSensor_Far&#45;&gt;AttackSensor_Far_mustuse -->
<g id="edge17" class="edge">
<title>AttackSensor_Far&#45;&gt;AttackSensor_Far_mustuse</title>
<path fill="none" stroke="#458b74" d="M161.72,-857.61C197.7,-860.13 241.56,-863.19 276.42,-865.63"/>
<polygon fill="#458b74" stroke="#458b74" points="276.15,-869.12 286.37,-866.33 276.64,-862.14 276.15,-869.12"/>
<text text-anchor="middle" x="220.62" y="-866.34" font-family="Helvetica,sans-Serif" font-size="14.00" fill="#458b74">Weight</text>
</g>
</g>
</svg>
