<?xml version="1.0" encoding="UTF-8" standalone="no"?>
<!DOCTYPE svg PUBLIC "-//W3C//DTD SVG 1.1//EN"
 "http://www.w3.org/Graphics/SVG/1.1/DTD/svg11.dtd">
<!-- Generated by graphviz version 12.2.1 (20241206.2353)
 -->
<!-- Title: Foo Pages: 1 -->
<svg width="587pt" height="1224pt"
 viewBox="0.00 0.00 586.95 1224.00" xmlns="http://www.w3.org/2000/svg" xmlns:xlink="http://www.w3.org/1999/xlink">
<g id="graph0" class="graph" transform="scale(1 1) rotate(0) translate(4 1220)">
<title>Foo</title>
<polygon fill="white" stroke="none" points="-4,4 -4,-1220 582.95,-1220 582.95,4 -4,4"/>
<g id="clust1" class="cluster">
<title>cluster_attacksensors</title>
<polygon fill="none" stroke="black" points="20.12,-8 20.12,-402 476.95,-402 476.95,-8 20.12,-8"/>
<text text-anchor="middle" x="248.54" y="-384.7" font-family="Helvetica,sans-Serif" font-size="14.00">Attack Sensors</text>
</g>
<!-- Level Once Sensor -->
<g id="node1" class="node">
<title>Level Once Sensor</title>
<polygon fill="none" stroke="black" points="40.63,-23.12 40.63,-44.88 169.63,-44.88 169.63,-23.12 40.63,-23.12"/>
<text text-anchor="start" x="43.63" y="-28.57" font-family="Helvetica,sans-Serif" font-size="14.00">Level Once Sensor &#160;</text>
</g>
<!-- Level Once Sensor_linked -->
<g id="node2" class="node">
<title>Level Once Sensor_linked</title>
<polygon fill="none" stroke="black" stroke-dasharray="1,5" points="468.95,-52 311.5,-52 311.5,-16 468.95,-16 468.95,-52"/>
<text text-anchor="start" x="317.1" y="-28.57" font-family="Helvetica,sans-Serif" font-size="14.00">Attack_TopDownAttack &#160;</text>
</g>
<!-- Level Once Sensor&#45;&gt;Level Once Sensor_linked -->
<g id="edge1" class="edge">
<title>Level Once Sensor&#45;&gt;Level Once Sensor_linked</title>
<path fill="none" stroke="#66cdaa" d="M177.56,-34C214.61,-34 260.23,-34 299.62,-34"/>
<polygon fill="#66cdaa" stroke="#66cdaa" points="299.57,-37.5 309.57,-34 299.57,-30.5 299.57,-37.5"/>
<text text-anchor="middle" x="260.88" y="-36.45" font-family="Helvetica,sans-Serif" font-size="14.00" fill="#66cdaa">QueueEnd</text>
</g>
<!-- RunAwaySensor -->
<g id="node3" class="node">
<title>RunAwaySensor</title>
<polygon fill="none" stroke="black" points="48.13,-77.12 48.13,-98.88 162.13,-98.88 162.13,-77.12 48.13,-77.12"/>
<text text-anchor="start" x="51.13" y="-82.58" font-family="Helvetica,sans-Serif" font-size="14.00">RunAwaySensor &#160;</text>
</g>
<!-- AttackSensor -->
<g id="node4" class="node">
<title>AttackSensor</title>
<polygon fill="none" stroke="black" points="58.25,-131.12 58.25,-152.88 152,-152.88 152,-131.12 58.25,-131.12"/>
<text text-anchor="start" x="61.25" y="-136.57" font-family="Helvetica,sans-Serif" font-size="14.00">AttackSensor &#160;</text>
</g>
<!-- AttackSensor_linked -->
<g id="node5" class="node">
<title>AttackSensor_linked</title>
<polygon fill="none" stroke="black" stroke-dasharray="1,5" points="468.95,-160 311.5,-160 311.5,-124 468.95,-124 468.95,-160"/>
<text text-anchor="start" x="317.1" y="-136.57" font-family="Helvetica,sans-Serif" font-size="14.00">Attack_TopDownAttack &#160;</text>
</g>
<!-- AttackSensor&#45;&gt;AttackSensor_linked -->
<g id="edge2" class="edge">
<title>AttackSensor&#45;&gt;AttackSensor_linked</title>
<path fill="none" stroke="#66cdaa" d="M159.71,-142C199.16,-142 253.73,-142 299.76,-142"/>
<polygon fill="#66cdaa" stroke="#66cdaa" points="299.75,-145.5 309.75,-142 299.75,-138.5 299.75,-145.5"/>
<text text-anchor="middle" x="260.88" y="-144.45" font-family="Helvetica,sans-Serif" font-size="14.00" fill="#66cdaa">QueueEnd</text>
</g>
<!-- DodgePredictSensor -->
<g id="node6" class="node">
<title>DodgePredictSensor</title>
<polygon fill="none" stroke="black" points="36.13,-204 36.13,-225.75 174.13,-225.75 174.13,-204 36.13,-204"/>
<text text-anchor="start" x="39.13" y="-209.45" font-family="Helvetica,sans-Serif" font-size="14.00">DodgePredictSensor &#160;</text>
<polygon fill="none" stroke="black" points="36.13,-182.25 36.13,-204 174.13,-204 174.13,-182.25 36.13,-182.25"/>
<text text-anchor="start" x="39.13" y="-188.7" font-family="Helvetica,sans-Serif" font-size="12.00" fill="#838b8b">if: Dodge</text>
<text text-anchor="start" x="87.13" y="-188.7" font-family="Helvetica,sans-Serif" font-size="14.00"> &#160;</text>
</g>
<!-- DodgePredictSensor_linked -->
<g id="node7" class="node">
<title>DodgePredictSensor_linked</title>
<polygon fill="none" stroke="black" stroke-dasharray="1,5" points="468.95,-222 311.5,-222 311.5,-186 468.95,-186 468.95,-222"/>
<text text-anchor="start" x="317.1" y="-198.57" font-family="Helvetica,sans-Serif" font-size="14.00">Attack_TopDownAttack &#160;</text>
</g>
<!-- DodgePredictSensor&#45;&gt;DodgePredictSensor_linked -->
<g id="edge3" class="edge">
<title>DodgePredictSensor&#45;&gt;DodgePredictSensor_linked</title>
<path fill="none" stroke="#66cdaa" d="M181.99,-204C218.36,-204 262.17,-204 300.12,-204"/>
<polygon fill="#66cdaa" stroke="#66cdaa" points="299.66,-207.5 309.66,-204 299.66,-200.5 299.66,-207.5"/>
<text text-anchor="middle" x="260.88" y="-206.45" font-family="Helvetica,sans-Serif" font-size="14.00" fill="#66cdaa">QueueEnd</text>
</g>
<!-- AttackPredictSensor -->
<g id="node8" class="node">
<title>AttackPredictSensor</title>
<polygon fill="none" stroke="black" points="37.25,-274 37.25,-295.75 173,-295.75 173,-274 37.25,-274"/>
<text text-anchor="start" x="40.25" y="-279.45" font-family="Helvetica,sans-Serif" font-size="14.00">AttackPredictSensor &#160;</text>
<polygon fill="none" stroke="black" points="37.25,-252.25 37.25,-274 173,-274 173,-252.25 37.25,-252.25"/>
<text text-anchor="start" x="40.25" y="-258.7" font-family="Helvetica,sans-Serif" font-size="12.00" fill="#838b8b">if: Attack</text>
<text text-anchor="start" x="85.25" y="-258.7" font-family="Helvetica,sans-Serif" font-size="14.00"> &#160;</text>
</g>
<!-- AttackPredictSensor_linked -->
<g id="node9" class="node">
<title>AttackPredictSensor_linked</title>
<polygon fill="none" stroke="black" stroke-dasharray="1,5" points="468.95,-292 311.5,-292 311.5,-256 468.95,-256 468.95,-292"/>
<text text-anchor="start" x="317.1" y="-268.57" font-family="Helvetica,sans-Serif" font-size="14.00">Attack_TopDownAttack &#160;</text>
</g>
<!-- AttackPredictSensor&#45;&gt;AttackPredictSensor_linked -->
<g id="edge4" class="edge">
<title>AttackPredictSensor&#45;&gt;AttackPredictSensor_linked</title>
<path fill="none" stroke="#66cdaa" d="M180.88,-274C217.41,-274 261.64,-274 299.93,-274"/>
<polygon fill="#66cdaa" stroke="#66cdaa" points="299.57,-277.5 309.57,-274 299.57,-270.5 299.57,-277.5"/>
<text text-anchor="middle" x="260.88" y="-276.45" font-family="Helvetica,sans-Serif" font-size="14.00" fill="#66cdaa">QueueEnd</text>
</g>
<!-- AttackRunToSensor -->
<g id="node10" class="node">
<title>AttackRunToSensor</title>
<polygon fill="none" stroke="black" points="38.75,-344 38.75,-365.75 171.5,-365.75 171.5,-344 38.75,-344"/>
<text text-anchor="start" x="41.75" y="-349.45" font-family="Helvetica,sans-Serif" font-size="14.00">AttackRunToSensor &#160;</text>
<polygon fill="none" stroke="black" points="38.75,-322.25 38.75,-344 171.5,-344 171.5,-322.25 38.75,-322.25"/>
<text text-anchor="start" x="41.75" y="-328.7" font-family="Helvetica,sans-Serif" font-size="12.00" fill="#838b8b">if: state is Engaging</text>
<text text-anchor="start" x="146" y="-328.7" font-family="Helvetica,sans-Serif" font-size="14.00"> &#160;</text>
</g>
<!-- AttackRunToSensor_linked -->
<g id="node11" class="node">
<title>AttackRunToSensor_linked</title>
<polygon fill="none" stroke="black" stroke-dasharray="1,5" points="468.95,-362 311.5,-362 311.5,-326 468.95,-326 468.95,-362"/>
<text text-anchor="start" x="317.1" y="-338.57" font-family="Helvetica,sans-Serif" font-size="14.00">Attack_TopDownAttack &#160;</text>
</g>
<!-- AttackRunToSensor&#45;&gt;AttackRunToSensor_linked -->
<g id="edge5" class="edge">
<title>AttackRunToSensor&#45;&gt;AttackRunToSensor_linked</title>
<path fill="none" stroke="#66cdaa" d="M179.4,-344C216.15,-344 260.99,-344 299.76,-344"/>
<polygon fill="#66cdaa" stroke="#66cdaa" points="299.54,-347.5 309.54,-344 299.54,-340.5 299.54,-347.5"/>
<text text-anchor="middle" x="260.88" y="-346.45" font-family="Helvetica,sans-Serif" font-size="14.00" fill="#66cdaa">QueueEnd</text>
</g>
<!-- Attack_TopDownAttack -->
<g id="node12" class="node">
<title>Attack_TopDownAttack</title>
<polygon fill="none" stroke="black" points="29,-758 29,-779.75 181.25,-779.75 181.25,-758 29,-758"/>
<text text-anchor="start" x="32" y="-763.45" font-family="Helvetica,sans-Serif" font-size="14.00">Attack_TopDownAttack &#160;</text>
<polygon fill="none" stroke="black" points="29,-736.25 29,-758 181.25,-758 181.25,-736.25 29,-736.25"/>
<text text-anchor="start" x="32" y="-742.7" font-family="Helvetica,sans-Serif" font-size="12.00" fill="#838b8b">1.33s: Done</text>
<text text-anchor="start" x="96.5" y="-742.7" font-family="Helvetica,sans-Serif" font-size="14.00"> &#160;</text>
</g>
<!-- DeadState -->
<g id="node13" class="node">
<title>DeadState</title>
<polygon fill="none" stroke="black" points="430.1,-621 350.35,-621 350.35,-585 430.1,-585 430.1,-621"/>
<text text-anchor="middle" x="390.23" y="-597.58" font-family="Helvetica,sans-Serif" font-size="14.00">DeadState</text>
</g>
<!-- Attack_TopDownAttack&#45;&gt;DeadState -->
<g id="edge6" class="edge">
<title>Attack_TopDownAttack&#45;&gt;DeadState</title>
<path fill="none" stroke="#cdc8b1" d="M189.08,-732.38C196.34,-729.46 203.49,-726.33 210.25,-723 265.09,-696 322.84,-654.58 357.44,-628.15"/>
<polygon fill="#cdc8b1" stroke="#cdc8b1" points="359.16,-631.24 364.94,-622.36 354.89,-625.7 359.16,-631.24"/>
</g>
<!-- Attack_SlowAttack -->
<g id="node14" class="node">
<title>Attack_SlowAttack</title>
<polygon fill="none" stroke="black" points="42.5,-688.12 42.5,-709.88 167.75,-709.88 167.75,-688.12 42.5,-688.12"/>
<text text-anchor="start" x="45.5" y="-693.58" font-family="Helvetica,sans-Serif" font-size="14.00">Attack_SlowAttack &#160;</text>
<polygon fill="none" stroke="black" points="42.5,-656.12 42.5,-688.12 167.75,-688.12 167.75,-656.12 42.5,-656.12"/>
<text text-anchor="start" x="45.5" y="-674.73" font-family="Helvetica,sans-Serif" font-size="12.00" fill="#838b8b">0.92s: CheckFacing</text>
<text text-anchor="start" x="45.5" y="-660.83" font-family="Helvetica,sans-Serif" font-size="12.00" fill="#838b8b">2.50s: Done</text>
<text text-anchor="start" x="110" y="-660.83" font-family="Helvetica,sans-Serif" font-size="14.00"> &#160;</text>
</g>
<!-- Attack_SlowAttack&#45;&gt;DeadState -->
<g id="edge7" class="edge">
<title>Attack_SlowAttack&#45;&gt;DeadState</title>
<path fill="none" stroke="#cdc8b1" d="M175.74,-663.33C226.3,-649.04 293.54,-630.04 338.94,-617.21"/>
<polygon fill="#cdc8b1" stroke="#cdc8b1" points="339.86,-620.59 348.53,-614.5 337.96,-613.85 339.86,-620.59"/>
</g>
<!-- Attack_QuickAttack -->
<g id="node15" class="node">
<title>Attack_QuickAttack</title>
<polygon fill="none" stroke="black" points="39.5,-608.12 39.5,-629.88 170.75,-629.88 170.75,-608.12 39.5,-608.12"/>
<text text-anchor="start" x="42.5" y="-613.58" font-family="Helvetica,sans-Serif" font-size="14.00">Attack_QuickAttack &#160;</text>
<polygon fill="none" stroke="black" points="39.5,-576.12 39.5,-608.12 170.75,-608.12 170.75,-576.12 39.5,-576.12"/>
<text text-anchor="start" x="42.5" y="-594.73" font-family="Helvetica,sans-Serif" font-size="12.00" fill="#838b8b">0.75s: CheckFacing</text>
<text text-anchor="start" x="42.5" y="-580.83" font-family="Helvetica,sans-Serif" font-size="12.00" fill="#838b8b">2.00s: Done</text>
<text text-anchor="start" x="107" y="-580.83" font-family="Helvetica,sans-Serif" font-size="14.00"> &#160;</text>
</g>
<!-- Attack_QuickAttack&#45;&gt;DeadState -->
<g id="edge8" class="edge">
<title>Attack_QuickAttack&#45;&gt;DeadState</title>
<path fill="none" stroke="#cdc8b1" d="M178.66,-603C228.74,-603 294.08,-603 338.6,-603"/>
<polygon fill="#cdc8b1" stroke="#cdc8b1" points="338.5,-606.5 348.5,-603 338.5,-599.5 338.5,-606.5"/>
</g>
<!-- Attack_HorizontalDangerPoke -->
<g id="node16" class="node">
<title>Attack_HorizontalDangerPoke</title>
<polygon fill="none" stroke="black" points="8,-528.12 8,-549.88 202.25,-549.88 202.25,-528.12 8,-528.12"/>
<text text-anchor="start" x="11" y="-533.58" font-family="Helvetica,sans-Serif" font-size="14.00">Attack_HorizontalDangerPoke &#160;</text>
<polygon fill="none" stroke="black" points="8,-484.12 8,-528.12 202.25,-528.12 202.25,-484.12 8,-484.12"/>
<text text-anchor="start" x="11" y="-514.73" font-family="Helvetica,sans-Serif" font-size="12.00" fill="#838b8b">0.83s: CheckFacing</text>
<text text-anchor="start" x="11" y="-502.73" font-family="Helvetica,sans-Serif" font-size="12.00" fill="#838b8b">1.33s: CheckFacing</text>
<text text-anchor="start" x="11" y="-488.83" font-family="Helvetica,sans-Serif" font-size="12.00" fill="#838b8b">2.33s: Done</text>
<text text-anchor="start" x="75.5" y="-488.83" font-family="Helvetica,sans-Serif" font-size="14.00"> &#160;</text>
</g>
<!-- Attack_HorizontalDangerPoke&#45;&gt;DeadState -->
<g id="edge9" class="edge">
<title>Attack_HorizontalDangerPoke&#45;&gt;DeadState</title>
<path fill="none" stroke="#cdc8b1" d="M209.93,-548.53C254.12,-561.96 303.61,-576.99 339.38,-587.86"/>
<polygon fill="#cdc8b1" stroke="#cdc8b1" points="337.98,-591.09 348.57,-590.65 340.02,-584.39 337.98,-591.09"/>
</g>
<!-- Attack_空單一斬 -->
<g id="node17" class="node">
<title>Attack_空單一斬</title>
<polygon fill="none" stroke="black" points="41.38,-436 41.38,-457.75 168.88,-457.75 168.88,-436 41.38,-436"/>
<text text-anchor="start" x="44.38" y="-441.45" font-family="Helvetica,sans-Serif" font-size="14.00">Attack_空單一斬 &#160;</text>
<polygon fill="none" stroke="black" points="41.38,-414.25 41.38,-436 168.88,-436 168.88,-414.25 41.38,-414.25"/>
<text text-anchor="start" x="44.38" y="-420.7" font-family="Helvetica,sans-Serif" font-size="12.00" fill="#838b8b">0.75s: Done</text>
<text text-anchor="start" x="108.88" y="-420.7" font-family="Helvetica,sans-Serif" font-size="14.00"> &#160;</text>
</g>
<!-- Attack_空單一斬&#45;&gt;DeadState -->
<g id="edge10" class="edge">
<title>Attack_空單一斬&#45;&gt;DeadState</title>
<path fill="none" stroke="#cdc8b1" d="M176.82,-456.43C188.25,-460.67 199.76,-465.54 210.25,-471 267.63,-500.86 326.55,-548.17 360.43,-577.3"/>
<polygon fill="#cdc8b1" stroke="#cdc8b1" points="357.91,-579.74 367.75,-583.66 362.5,-574.46 357.91,-579.74"/>
</g>
<!-- AttackParrying -->
<g id="node18" class="node">
<title>AttackParrying</title>
<polygon fill="none" stroke="black" points="339.6,-1025.12 339.6,-1046.88 440.85,-1046.88 440.85,-1025.12 339.6,-1025.12"/>
<text text-anchor="start" x="342.6" y="-1030.58" font-family="Helvetica,sans-Serif" font-size="14.00">AttackParrying &#160;</text>
</g>
<!-- Engaging -->
<g id="node19" class="node">
<title>Engaging</title>
<polygon fill="none" stroke="black" points="578.95,-946 505.95,-946 505.95,-910 578.95,-910 578.95,-946"/>
<text text-anchor="middle" x="542.45" y="-922.58" font-family="Helvetica,sans-Serif" font-size="14.00">Engaging</text>
</g>
<!-- AttackParrying&#45;&gt;Engaging -->
<g id="edge11" class="edge">
<title>AttackParrying&#45;&gt;Engaging</title>
<path fill="none" stroke="#cdc8b1" d="M448.77,-1023.09C458.65,-1019.45 468.46,-1014.83 476.95,-1009 496.89,-995.3 513.7,-973.62 525.15,-956.14"/>
<polygon fill="#cdc8b1" stroke="#cdc8b1" points="528.09,-958.03 530.45,-947.7 522.16,-954.3 528.09,-958.03"/>
</g>
<!-- HurtState -->
<g id="node20" class="node">
<title>HurtState</title>
<polygon fill="none" stroke="black" points="69.88,-1133.12 69.88,-1154.88 140.38,-1154.88 140.38,-1133.12 69.88,-1133.12"/>
<text text-anchor="start" x="72.88" y="-1138.58" font-family="Helvetica,sans-Serif" font-size="14.00">HurtState &#160;</text>
</g>
<!-- PreAttack -->
<g id="node21" class="node">
<title>PreAttack</title>
<polygon fill="none" stroke="black" points="427.48,-1108 352.98,-1108 352.98,-1072 427.48,-1072 427.48,-1108"/>
<text text-anchor="middle" x="390.23" y="-1084.58" font-family="Helvetica,sans-Serif" font-size="14.00">PreAttack</text>
</g>
<!-- HurtState&#45;&gt;PreAttack -->
<g id="edge12" class="edge">
<title>HurtState&#45;&gt;PreAttack</title>
<path fill="none" stroke="#cdc8b1" d="M148.2,-1135.97C199.97,-1126.1 287.63,-1109.38 341.76,-1099.05"/>
<polygon fill="#cdc8b1" stroke="#cdc8b1" points="342.12,-1102.55 351.28,-1097.24 340.81,-1095.67 342.12,-1102.55"/>
</g>
<!-- Hurt_BigState -->
<g id="node22" class="node">
<title>Hurt_BigState</title>
<polygon fill="none" stroke="black" points="56.38,-1079.12 56.38,-1100.88 153.88,-1100.88 153.88,-1079.12 56.38,-1079.12"/>
<text text-anchor="start" x="59.38" y="-1084.58" font-family="Helvetica,sans-Serif" font-size="14.00">Hurt_BigState &#160;</text>
</g>
<!-- Hurt_BigState&#45;&gt;PreAttack -->
<g id="edge13" class="edge">
<title>Hurt_BigState&#45;&gt;PreAttack</title>
<path fill="none" stroke="#cdc8b1" d="M161.72,-1090C214.04,-1090 291.59,-1090 341.27,-1090"/>
<polygon fill="#cdc8b1" stroke="#cdc8b1" points="341.14,-1093.5 351.14,-1090 341.14,-1086.5 341.14,-1093.5"/>
</g>
<!-- JumpBack -->
<g id="node23" class="node">
<title>JumpBack</title>
<polygon fill="none" stroke="black" points="351.6,-971.12 351.6,-992.88 428.85,-992.88 428.85,-971.12 351.6,-971.12"/>
<text text-anchor="start" x="354.6" y="-976.58" font-family="Helvetica,sans-Serif" font-size="14.00">JumpBack &#160;</text>
</g>
<!-- JumpBack&#45;&gt;Engaging -->
<g id="edge14" class="edge">
<title>JumpBack&#45;&gt;Engaging</title>
<path fill="none" stroke="#cdc8b1" d="M436.42,-968.61C449.57,-964.49 463.91,-959.77 476.95,-955 482.79,-952.86 488.88,-950.5 494.88,-948.08"/>
<polygon fill="#cdc8b1" stroke="#cdc8b1" points="496.19,-951.33 504.12,-944.3 493.54,-944.85 496.19,-951.33"/>
</g>
<!-- PostureBreak -->
<g id="node24" class="node">
<title>PostureBreak</title>
<polygon fill="none" stroke="black" points="57.5,-1025.12 57.5,-1046.88 152.75,-1046.88 152.75,-1025.12 57.5,-1025.12"/>
<text text-anchor="start" x="60.5" y="-1030.58" font-family="Helvetica,sans-Serif" font-size="14.00">PostureBreak &#160;</text>
</g>
<!-- PostureBreak&#45;&gt;PreAttack -->
<g id="edge15" class="edge">
<title>PostureBreak&#45;&gt;PreAttack</title>
<path fill="none" stroke="#cdc8b1" d="M160.71,-1046.41C213.18,-1056.42 291.68,-1071.39 341.66,-1080.93"/>
<polygon fill="#cdc8b1" stroke="#cdc8b1" points="340.83,-1084.33 351.31,-1082.77 342.14,-1077.46 340.83,-1084.33"/>
</g>
<!-- RollThrough -->
<g id="node25" class="node">
<title>RollThrough</title>
<polygon fill="none" stroke="black" points="346.73,-917.12 346.73,-938.88 433.73,-938.88 433.73,-917.12 346.73,-917.12"/>
<text text-anchor="start" x="349.73" y="-922.58" font-family="Helvetica,sans-Serif" font-size="14.00">RollThrough &#160;</text>
</g>
<!-- RollThrough&#45;&gt;Engaging -->
<g id="edge16" class="edge">
<title>RollThrough&#45;&gt;Engaging</title>
<path fill="none" stroke="#cdc8b1" d="M441.67,-928C458.7,-928 477.64,-928 494.41,-928"/>
<polygon fill="#cdc8b1" stroke="#cdc8b1" points="494.1,-931.5 504.1,-928 494.1,-924.5 494.1,-931.5"/>
</g>
<!-- StandUp -->
<g id="node26" class="node">
<title>StandUp</title>
<polygon fill="none" stroke="black" points="357.23,-863.12 357.23,-884.88 423.23,-884.88 423.23,-863.12 357.23,-863.12"/>
<text text-anchor="start" x="360.23" y="-868.58" font-family="Helvetica,sans-Serif" font-size="14.00">StandUp &#160;</text>
</g>
<!-- StandUp&#45;&gt;Engaging -->
<g id="edge17" class="edge">
<title>StandUp&#45;&gt;Engaging</title>
<path fill="none" stroke="#cdc8b1" d="M431.17,-885.75C445.68,-890.24 462.15,-895.58 476.95,-901 482.79,-903.14 488.88,-905.5 494.88,-907.92"/>
<polygon fill="#cdc8b1" stroke="#cdc8b1" points="493.54,-911.15 504.12,-911.7 496.19,-904.67 493.54,-911.15"/>
</g>
<!-- ZEnterState -->
<g id="node27" class="node">
<title>ZEnterState</title>
<polygon fill="none" stroke="black" points="347.48,-809.12 347.48,-830.88 432.98,-830.88 432.98,-809.12 347.48,-809.12"/>
<text text-anchor="start" x="350.48" y="-814.58" font-family="Helvetica,sans-Serif" font-size="14.00">ZEnterState &#160;</text>
</g>
<!-- ZEnterState&#45;&gt;Engaging -->
<g id="edge18" class="edge">
<title>ZEnterState&#45;&gt;Engaging</title>
<path fill="none" stroke="#cdc8b1" d="M440.69,-830.14C453.2,-834.12 466.15,-839.58 476.95,-847 496.89,-860.7 513.7,-882.38 525.15,-899.86"/>
<polygon fill="#cdc8b1" stroke="#cdc8b1" points="522.16,-901.7 530.45,-908.3 528.09,-897.97 522.16,-901.7"/>
</g>
<!-- ZExitState -->
<g id="node28" class="node">
<title>ZExitState</title>
<polygon fill="none" stroke="black" points="67.25,-809.12 67.25,-830.88 143,-830.88 143,-809.12 67.25,-809.12"/>
<text text-anchor="start" x="70.25" y="-814.58" font-family="Helvetica,sans-Serif" font-size="14.00">ZExitState &#160;</text>
</g>
<!-- ZExitState&#45;&gt;ZEnterState -->
<g id="edge19" class="edge">
<title>ZExitState&#45;&gt;ZEnterState</title>
<path fill="none" stroke="#cdc8b1" d="M150.98,-820C198.92,-820 275.19,-820 328.48,-820"/>
<polygon fill="#cdc8b1" stroke="#cdc8b1" points="328.31,-823.5 338.31,-820 328.31,-816.5 328.31,-823.5"/>
</g>
<!-- Wandering_Idle -->
<g id="node29" class="node">
<title>Wandering_Idle</title>
<polygon fill="none" stroke="black" points="175.75,-1216 34.5,-1216 34.5,-1180 175.75,-1180 175.75,-1216"/>
<text text-anchor="middle" x="105.13" y="-1192.58" font-family="Helvetica,sans-Serif" font-size="14.00">Wandering_Idle (Init)</text>
</g>
</g>
</svg>
