<?xml version="1.0" encoding="UTF-8" standalone="no"?>
<!DOCTYPE svg PUBLIC "-//W3C//DTD SVG 1.1//EN"
 "http://www.w3.org/Graphics/SVG/1.1/DTD/svg11.dtd">
<!-- Generated by graphviz version 12.2.1 (20241206.2353)
 -->
<!-- Title: Foo Pages: 1 -->
<svg width="587pt" height="1226pt"
 viewBox="0.00 0.00 586.95 1225.75" xmlns="http://www.w3.org/2000/svg" xmlns:xlink="http://www.w3.org/1999/xlink">
<g id="graph0" class="graph" transform="scale(1 1) rotate(0) translate(4 1221.75)">
<title>Foo</title>
<polygon fill="white" stroke="none" points="-4,4 -4,-1221.75 582.95,-1221.75 582.95,4 -4,4"/>
<g id="clust1" class="cluster">
<title>cluster_attacksensors</title>
<polygon fill="none" stroke="black" points="20.12,-815.75 20.12,-1209.75 476.95,-1209.75 476.95,-815.75 20.12,-815.75"/>
<text text-anchor="middle" x="248.54" y="-1192.45" font-family="Helvetica,sans-Serif" font-size="14.00">Attack Sensors</text>
</g>
<!-- Attack_TopDownAttack -->
<g id="node1" class="node">
<title>Attack_TopDownAttack</title>
<polygon fill="none" stroke="black" points="29,-347.75 29,-369.5 181.25,-369.5 181.25,-347.75 29,-347.75"/>
<text text-anchor="start" x="32" y="-353.2" font-family="Helvetica,sans-Serif" font-size="14.00">Attack_TopDownAttack &#160;</text>
<polygon fill="none" stroke="black" points="29,-326 29,-347.75 181.25,-347.75 181.25,-326 29,-326"/>
<text text-anchor="start" x="32" y="-332.45" font-family="Helvetica,sans-Serif" font-size="12.00" fill="#838b8b">1.33s: Done</text>
<text text-anchor="start" x="96.5" y="-332.45" font-family="Helvetica,sans-Serif" font-size="14.00"> &#160;</text>
</g>
<!-- DeadState -->
<g id="node2" class="node">
<title>DeadState</title>
<polygon fill="none" stroke="black" points="430.1,-210.75 350.35,-210.75 350.35,-174.75 430.1,-174.75 430.1,-210.75"/>
<text text-anchor="middle" x="390.23" y="-187.32" font-family="Helvetica,sans-Serif" font-size="14.00">DeadState</text>
</g>
<!-- Attack_TopDownAttack&#45;&gt;DeadState -->
<g id="edge1" class="edge">
<title>Attack_TopDownAttack&#45;&gt;DeadState</title>
<path fill="none" stroke="#cdc8b1" d="M189.08,-322.13C196.34,-319.21 203.49,-316.08 210.25,-312.75 265.09,-285.75 322.84,-244.33 357.44,-217.9"/>
<polygon fill="#cdc8b1" stroke="#cdc8b1" points="359.16,-220.99 364.94,-212.11 354.89,-215.45 359.16,-220.99"/>
</g>
<!-- Attack_SlowAttack -->
<g id="node3" class="node">
<title>Attack_SlowAttack</title>
<polygon fill="none" stroke="black" points="42.5,-277.88 42.5,-299.62 167.75,-299.62 167.75,-277.88 42.5,-277.88"/>
<text text-anchor="start" x="45.5" y="-283.32" font-family="Helvetica,sans-Serif" font-size="14.00">Attack_SlowAttack &#160;</text>
<polygon fill="none" stroke="black" points="42.5,-245.88 42.5,-277.88 167.75,-277.88 167.75,-245.88 42.5,-245.88"/>
<text text-anchor="start" x="45.5" y="-264.48" font-family="Helvetica,sans-Serif" font-size="12.00" fill="#838b8b">0.92s: CheckFacing</text>
<text text-anchor="start" x="45.5" y="-250.58" font-family="Helvetica,sans-Serif" font-size="12.00" fill="#838b8b">2.50s: Done</text>
<text text-anchor="start" x="110" y="-250.58" font-family="Helvetica,sans-Serif" font-size="14.00"> &#160;</text>
</g>
<!-- Attack_SlowAttack&#45;&gt;DeadState -->
<g id="edge2" class="edge">
<title>Attack_SlowAttack&#45;&gt;DeadState</title>
<path fill="none" stroke="#cdc8b1" d="M175.74,-253.08C226.3,-238.79 293.54,-219.79 338.94,-206.96"/>
<polygon fill="#cdc8b1" stroke="#cdc8b1" points="339.86,-210.34 348.53,-204.25 337.96,-203.6 339.86,-210.34"/>
</g>
<!-- Attack_QuickAttack -->
<g id="node4" class="node">
<title>Attack_QuickAttack</title>
<polygon fill="none" stroke="black" points="39.5,-197.88 39.5,-219.62 170.75,-219.62 170.75,-197.88 39.5,-197.88"/>
<text text-anchor="start" x="42.5" y="-203.32" font-family="Helvetica,sans-Serif" font-size="14.00">Attack_QuickAttack &#160;</text>
<polygon fill="none" stroke="black" points="39.5,-165.88 39.5,-197.88 170.75,-197.88 170.75,-165.88 39.5,-165.88"/>
<text text-anchor="start" x="42.5" y="-184.47" font-family="Helvetica,sans-Serif" font-size="12.00" fill="#838b8b">0.75s: CheckFacing</text>
<text text-anchor="start" x="42.5" y="-170.57" font-family="Helvetica,sans-Serif" font-size="12.00" fill="#838b8b">2.00s: Done</text>
<text text-anchor="start" x="107" y="-170.57" font-family="Helvetica,sans-Serif" font-size="14.00"> &#160;</text>
</g>
<!-- Attack_QuickAttack&#45;&gt;DeadState -->
<g id="edge3" class="edge">
<title>Attack_QuickAttack&#45;&gt;DeadState</title>
<path fill="none" stroke="#cdc8b1" d="M178.66,-192.75C228.74,-192.75 294.08,-192.75 338.6,-192.75"/>
<polygon fill="#cdc8b1" stroke="#cdc8b1" points="338.5,-196.25 348.5,-192.75 338.5,-189.25 338.5,-196.25"/>
</g>
<!-- Attack_HorizontalDangerPoke -->
<g id="node5" class="node">
<title>Attack_HorizontalDangerPoke</title>
<polygon fill="none" stroke="black" points="8,-117.88 8,-139.62 202.25,-139.62 202.25,-117.88 8,-117.88"/>
<text text-anchor="start" x="11" y="-123.33" font-family="Helvetica,sans-Serif" font-size="14.00">Attack_HorizontalDangerPoke &#160;</text>
<polygon fill="none" stroke="black" points="8,-73.88 8,-117.88 202.25,-117.88 202.25,-73.88 8,-73.88"/>
<text text-anchor="start" x="11" y="-104.47" font-family="Helvetica,sans-Serif" font-size="12.00" fill="#838b8b">0.83s: CheckFacing</text>
<text text-anchor="start" x="11" y="-92.47" font-family="Helvetica,sans-Serif" font-size="12.00" fill="#838b8b">1.33s: CheckFacing</text>
<text text-anchor="start" x="11" y="-78.57" font-family="Helvetica,sans-Serif" font-size="12.00" fill="#838b8b">2.33s: Done</text>
<text text-anchor="start" x="75.5" y="-78.57" font-family="Helvetica,sans-Serif" font-size="14.00"> &#160;</text>
</g>
<!-- Attack_HorizontalDangerPoke&#45;&gt;DeadState -->
<g id="edge4" class="edge">
<title>Attack_HorizontalDangerPoke&#45;&gt;DeadState</title>
<path fill="none" stroke="#cdc8b1" d="M209.93,-138.28C254.12,-151.71 303.61,-166.74 339.38,-177.61"/>
<polygon fill="#cdc8b1" stroke="#cdc8b1" points="337.98,-180.84 348.57,-180.4 340.02,-174.14 337.98,-180.84"/>
</g>
<!-- Attack_空單一斬 -->
<g id="node6" class="node">
<title>Attack_空單一斬</title>
<polygon fill="none" stroke="black" points="41.38,-25.75 41.38,-47.5 168.88,-47.5 168.88,-25.75 41.38,-25.75"/>
<text text-anchor="start" x="44.38" y="-31.2" font-family="Helvetica,sans-Serif" font-size="14.00">Attack_空單一斬 &#160;</text>
<polygon fill="none" stroke="black" points="41.38,-4 41.38,-25.75 168.88,-25.75 168.88,-4 41.38,-4"/>
<text text-anchor="start" x="44.38" y="-10.45" font-family="Helvetica,sans-Serif" font-size="12.00" fill="#838b8b">0.75s: Done</text>
<text text-anchor="start" x="108.88" y="-10.45" font-family="Helvetica,sans-Serif" font-size="14.00"> &#160;</text>
</g>
<!-- Attack_空單一斬&#45;&gt;DeadState -->
<g id="edge5" class="edge">
<title>Attack_空單一斬&#45;&gt;DeadState</title>
<path fill="none" stroke="#cdc8b1" d="M176.82,-46.18C188.25,-50.42 199.76,-55.29 210.25,-60.75 267.63,-90.61 326.55,-137.92 360.43,-167.05"/>
<polygon fill="#cdc8b1" stroke="#cdc8b1" points="357.91,-169.49 367.75,-173.41 362.5,-164.21 357.91,-169.49"/>
</g>
<!-- AttackParrying -->
<g id="node7" class="node">
<title>AttackParrying</title>
<polygon fill="none" stroke="black" points="442.1,-643.75 338.35,-643.75 338.35,-607.75 442.1,-607.75 442.1,-643.75"/>
<text text-anchor="middle" x="390.23" y="-620.33" font-family="Helvetica,sans-Serif" font-size="14.00">AttackParrying</text>
</g>
<!-- Engaging -->
<g id="node8" class="node">
<title>Engaging</title>
<polygon fill="none" stroke="black" points="578.95,-535.75 505.95,-535.75 505.95,-499.75 578.95,-499.75 578.95,-535.75"/>
<text text-anchor="middle" x="542.45" y="-512.33" font-family="Helvetica,sans-Serif" font-size="14.00">Engaging</text>
</g>
<!-- AttackParrying&#45;&gt;Engaging -->
<g id="edge6" class="edge">
<title>AttackParrying&#45;&gt;Engaging</title>
<path fill="none" stroke="#cdc8b1" d="M442.48,-615.03C454.43,-611.1 466.66,-605.82 476.95,-598.75 496.89,-585.05 513.7,-563.37 525.15,-545.89"/>
<polygon fill="#cdc8b1" stroke="#cdc8b1" points="528.09,-547.78 530.45,-537.45 522.16,-544.05 528.09,-547.78"/>
</g>
<!-- HurtState -->
<g id="node9" class="node">
<title>HurtState</title>
<polygon fill="none" stroke="black" points="141.63,-751.75 68.63,-751.75 68.63,-715.75 141.63,-715.75 141.63,-751.75"/>
<text text-anchor="middle" x="105.13" y="-728.33" font-family="Helvetica,sans-Serif" font-size="14.00">HurtState</text>
</g>
<!-- PreAttack -->
<g id="node10" class="node">
<title>PreAttack</title>
<polygon fill="none" stroke="black" points="427.48,-697.75 352.98,-697.75 352.98,-661.75 427.48,-661.75 427.48,-697.75"/>
<text text-anchor="middle" x="390.23" y="-674.33" font-family="Helvetica,sans-Serif" font-size="14.00">PreAttack</text>
</g>
<!-- HurtState&#45;&gt;PreAttack -->
<g id="edge7" class="edge">
<title>HurtState&#45;&gt;PreAttack</title>
<path fill="none" stroke="#cdc8b1" d="M141.98,-726.91C192.65,-717.25 285.29,-699.57 341.66,-688.82"/>
<polygon fill="#cdc8b1" stroke="#cdc8b1" points="342.11,-692.3 351.28,-686.99 340.8,-685.42 342.11,-692.3"/>
</g>
<!-- Hurt_BigState -->
<g id="node11" class="node">
<title>Hurt_BigState</title>
<polygon fill="none" stroke="black" points="155.13,-697.75 55.13,-697.75 55.13,-661.75 155.13,-661.75 155.13,-697.75"/>
<text text-anchor="middle" x="105.13" y="-674.33" font-family="Helvetica,sans-Serif" font-size="14.00">Hurt_BigState</text>
</g>
<!-- Hurt_BigState&#45;&gt;PreAttack -->
<g id="edge8" class="edge">
<title>Hurt_BigState&#45;&gt;PreAttack</title>
<path fill="none" stroke="#cdc8b1" d="M155.44,-679.75C207.61,-679.75 289.4,-679.75 341.11,-679.75"/>
<polygon fill="#cdc8b1" stroke="#cdc8b1" points="341.11,-683.25 351.11,-679.75 341.11,-676.25 341.11,-683.25"/>
</g>
<!-- JumpBack -->
<g id="node12" class="node">
<title>JumpBack</title>
<polygon fill="none" stroke="black" points="430.1,-589.75 350.35,-589.75 350.35,-553.75 430.1,-553.75 430.1,-589.75"/>
<text text-anchor="middle" x="390.23" y="-566.33" font-family="Helvetica,sans-Serif" font-size="14.00">JumpBack</text>
</g>
<!-- JumpBack&#45;&gt;Engaging -->
<g id="edge9" class="edge">
<title>JumpBack&#45;&gt;Engaging</title>
<path fill="none" stroke="#cdc8b1" d="M430.31,-560.26C445.03,-555.72 461.86,-550.27 476.95,-544.75 482.79,-542.61 488.88,-540.25 494.88,-537.83"/>
<polygon fill="#cdc8b1" stroke="#cdc8b1" points="496.19,-541.08 504.12,-534.05 493.54,-534.6 496.19,-541.08"/>
</g>
<!-- PostureBreak -->
<g id="node13" class="node">
<title>PostureBreak</title>
<polygon fill="none" stroke="black" points="154,-643.75 56.25,-643.75 56.25,-607.75 154,-607.75 154,-643.75"/>
<text text-anchor="middle" x="105.13" y="-620.33" font-family="Helvetica,sans-Serif" font-size="14.00">PostureBreak</text>
</g>
<!-- PostureBreak&#45;&gt;PreAttack -->
<g id="edge10" class="edge">
<title>PostureBreak&#45;&gt;PreAttack</title>
<path fill="none" stroke="#cdc8b1" d="M154.47,-634.97C206.74,-644.94 289.53,-660.73 341.54,-670.65"/>
<polygon fill="#cdc8b1" stroke="#cdc8b1" points="340.82,-674.08 351.3,-672.52 342.13,-667.2 340.82,-674.08"/>
</g>
<!-- RollThrough -->
<g id="node14" class="node">
<title>RollThrough</title>
<polygon fill="none" stroke="black" points="434.98,-535.75 345.48,-535.75 345.48,-499.75 434.98,-499.75 434.98,-535.75"/>
<text text-anchor="middle" x="390.23" y="-512.33" font-family="Helvetica,sans-Serif" font-size="14.00">RollThrough</text>
</g>
<!-- RollThrough&#45;&gt;Engaging -->
<g id="edge11" class="edge">
<title>RollThrough&#45;&gt;Engaging</title>
<path fill="none" stroke="#cdc8b1" d="M435.08,-517.75C453.73,-517.75 475.5,-517.75 494.48,-517.75"/>
<polygon fill="#cdc8b1" stroke="#cdc8b1" points="494.36,-521.25 504.36,-517.75 494.36,-514.25 494.36,-521.25"/>
</g>
<!-- StandUp -->
<g id="node15" class="node">
<title>StandUp</title>
<polygon fill="none" stroke="black" points="424.48,-481.75 355.98,-481.75 355.98,-445.75 424.48,-445.75 424.48,-481.75"/>
<text text-anchor="middle" x="390.23" y="-458.32" font-family="Helvetica,sans-Serif" font-size="14.00">StandUp</text>
</g>
<!-- StandUp&#45;&gt;Engaging -->
<g id="edge12" class="edge">
<title>StandUp&#45;&gt;Engaging</title>
<path fill="none" stroke="#cdc8b1" d="M424.85,-473.56C440.76,-478.4 459.95,-484.53 476.95,-490.75 482.79,-492.89 488.88,-495.25 494.88,-497.67"/>
<polygon fill="#cdc8b1" stroke="#cdc8b1" points="493.54,-500.9 504.12,-501.45 496.19,-494.42 493.54,-500.9"/>
</g>
<!-- ZEnterState -->
<g id="node16" class="node">
<title>ZEnterState</title>
<polygon fill="none" stroke="black" points="434.23,-427.75 346.23,-427.75 346.23,-391.75 434.23,-391.75 434.23,-427.75"/>
<text text-anchor="middle" x="390.23" y="-404.32" font-family="Helvetica,sans-Serif" font-size="14.00">ZEnterState</text>
</g>
<!-- ZEnterState&#45;&gt;Engaging -->
<g id="edge13" class="edge">
<title>ZEnterState&#45;&gt;Engaging</title>
<path fill="none" stroke="#cdc8b1" d="M434.48,-418.02C448.83,-422.11 464.34,-428.09 476.95,-436.75 496.89,-450.45 513.7,-472.13 525.15,-489.61"/>
<polygon fill="#cdc8b1" stroke="#cdc8b1" points="522.16,-491.45 530.45,-498.05 528.09,-487.72 522.16,-491.45"/>
</g>
<!-- ZExitState -->
<g id="node17" class="node">
<title>ZExitState</title>
<polygon fill="none" stroke="black" points="144.25,-427.75 66,-427.75 66,-391.75 144.25,-391.75 144.25,-427.75"/>
<text text-anchor="middle" x="105.13" y="-404.32" font-family="Helvetica,sans-Serif" font-size="14.00">ZExitState</text>
</g>
<!-- ZExitState&#45;&gt;ZEnterState -->
<g id="edge14" class="edge">
<title>ZExitState&#45;&gt;ZEnterState</title>
<path fill="none" stroke="#cdc8b1" d="M144.6,-409.75C193.58,-409.75 278.51,-409.75 334.29,-409.75"/>
<polygon fill="#cdc8b1" stroke="#cdc8b1" points="334.21,-413.25 344.21,-409.75 334.21,-406.25 334.21,-413.25"/>
</g>
<!-- Wandering_Idle -->
<g id="node18" class="node">
<title>Wandering_Idle</title>
<polygon fill="none" stroke="black" points="175.75,-805.75 34.5,-805.75 34.5,-769.75 175.75,-769.75 175.75,-805.75"/>
<text text-anchor="middle" x="105.13" y="-782.33" font-family="Helvetica,sans-Serif" font-size="14.00">Wandering_Idle (Init)</text>
</g>
<!-- Level Once Sensor -->
<g id="node19" class="node">
<title>Level Once Sensor</title>
<polygon fill="none" stroke="black" points="170.88,-859.75 39.38,-859.75 39.38,-823.75 170.88,-823.75 170.88,-859.75"/>
<text text-anchor="middle" x="105.13" y="-836.33" font-family="Helvetica,sans-Serif" font-size="14.00">Level Once Sensor</text>
</g>
<!-- Level Once Sensor_linked -->
<g id="node20" class="node">
<title>Level Once Sensor_linked</title>
<polygon fill="none" stroke="black" stroke-dasharray="1,5" points="468.95,-859.75 311.5,-859.75 311.5,-823.75 468.95,-823.75 468.95,-859.75"/>
<text text-anchor="start" x="317.1" y="-836.33" font-family="Helvetica,sans-Serif" font-size="14.00">Attack_TopDownAttack &#160;</text>
</g>
<!-- Level Once Sensor&#45;&gt;Level Once Sensor_linked -->
<g id="edge15" class="edge">
<title>Level Once Sensor&#45;&gt;Level Once Sensor_linked</title>
<path fill="none" stroke="#66cdaa" d="M171.07,-841.75C209.28,-841.75 258.14,-841.75 299.93,-841.75"/>
<polygon fill="#66cdaa" stroke="#66cdaa" points="299.72,-845.25 309.72,-841.75 299.72,-838.25 299.72,-845.25"/>
<text text-anchor="middle" x="260.88" y="-844.2" font-family="Helvetica,sans-Serif" font-size="14.00" fill="#66cdaa">QueueEnd</text>
</g>
<!-- RunAwaySensor -->
<g id="node21" class="node">
<title>RunAwaySensor</title>
<polygon fill="none" stroke="black" points="163.38,-913.75 46.88,-913.75 46.88,-877.75 163.38,-877.75 163.38,-913.75"/>
<text text-anchor="middle" x="105.13" y="-890.33" font-family="Helvetica,sans-Serif" font-size="14.00">RunAwaySensor</text>
</g>
<!-- AttackSensor -->
<g id="node22" class="node">
<title>AttackSensor</title>
<polygon fill="none" stroke="black" points="153.25,-967.75 57,-967.75 57,-931.75 153.25,-931.75 153.25,-967.75"/>
<text text-anchor="middle" x="105.13" y="-944.33" font-family="Helvetica,sans-Serif" font-size="14.00">AttackSensor</text>
</g>
<!-- AttackSensor_linked -->
<g id="node23" class="node">
<title>AttackSensor_linked</title>
<polygon fill="none" stroke="black" stroke-dasharray="1,5" points="468.95,-967.75 311.5,-967.75 311.5,-931.75 468.95,-931.75 468.95,-967.75"/>
<text text-anchor="start" x="317.1" y="-944.33" font-family="Helvetica,sans-Serif" font-size="14.00">Attack_TopDownAttack &#160;</text>
</g>
<!-- AttackSensor&#45;&gt;AttackSensor_linked -->
<g id="edge16" class="edge">
<title>AttackSensor&#45;&gt;AttackSensor_linked</title>
<path fill="none" stroke="#66cdaa" d="M153.51,-949.75C193.29,-949.75 251.24,-949.75 299.72,-949.75"/>
<polygon fill="#66cdaa" stroke="#66cdaa" points="299.67,-953.25 309.67,-949.75 299.67,-946.25 299.67,-953.25"/>
<text text-anchor="middle" x="260.88" y="-952.2" font-family="Helvetica,sans-Serif" font-size="14.00" fill="#66cdaa">QueueEnd</text>
</g>
<!-- DodgePredictSensor -->
<g id="node24" class="node">
<title>DodgePredictSensor</title>
<polygon fill="none" stroke="black" points="36.13,-1011.75 36.13,-1033.5 174.13,-1033.5 174.13,-1011.75 36.13,-1011.75"/>
<text text-anchor="start" x="39.13" y="-1017.2" font-family="Helvetica,sans-Serif" font-size="14.00">DodgePredictSensor &#160;</text>
<polygon fill="none" stroke="black" points="36.13,-990 36.13,-1011.75 174.13,-1011.75 174.13,-990 36.13,-990"/>
<text text-anchor="start" x="39.13" y="-996.45" font-family="Helvetica,sans-Serif" font-size="12.00" fill="#838b8b">if: Dodge</text>
<text text-anchor="start" x="87.13" y="-996.45" font-family="Helvetica,sans-Serif" font-size="14.00"> &#160;</text>
</g>
<!-- DodgePredictSensor_linked -->
<g id="node25" class="node">
<title>DodgePredictSensor_linked</title>
<polygon fill="none" stroke="black" stroke-dasharray="1,5" points="468.95,-1029.75 311.5,-1029.75 311.5,-993.75 468.95,-993.75 468.95,-1029.75"/>
<text text-anchor="start" x="317.1" y="-1006.33" font-family="Helvetica,sans-Serif" font-size="14.00">Attack_TopDownAttack &#160;</text>
</g>
<!-- DodgePredictSensor&#45;&gt;DodgePredictSensor_linked -->
<g id="edge17" class="edge">
<title>DodgePredictSensor&#45;&gt;DodgePredictSensor_linked</title>
<path fill="none" stroke="#66cdaa" d="M181.99,-1011.75C218.36,-1011.75 262.17,-1011.75 300.12,-1011.75"/>
<polygon fill="#66cdaa" stroke="#66cdaa" points="299.66,-1015.25 309.66,-1011.75 299.66,-1008.25 299.66,-1015.25"/>
<text text-anchor="middle" x="260.88" y="-1014.2" font-family="Helvetica,sans-Serif" font-size="14.00" fill="#66cdaa">QueueEnd</text>
</g>
<!-- AttackPredictSensor -->
<g id="node26" class="node">
<title>AttackPredictSensor</title>
<polygon fill="none" stroke="black" points="37.25,-1081.75 37.25,-1103.5 173,-1103.5 173,-1081.75 37.25,-1081.75"/>
<text text-anchor="start" x="40.25" y="-1087.2" font-family="Helvetica,sans-Serif" font-size="14.00">AttackPredictSensor &#160;</text>
<polygon fill="none" stroke="black" points="37.25,-1060 37.25,-1081.75 173,-1081.75 173,-1060 37.25,-1060"/>
<text text-anchor="start" x="40.25" y="-1066.45" font-family="Helvetica,sans-Serif" font-size="12.00" fill="#838b8b">if: Attack</text>
<text text-anchor="start" x="85.25" y="-1066.45" font-family="Helvetica,sans-Serif" font-size="14.00"> &#160;</text>
</g>
<!-- AttackPredictSensor_linked -->
<g id="node27" class="node">
<title>AttackPredictSensor_linked</title>
<polygon fill="none" stroke="black" stroke-dasharray="1,5" points="468.95,-1099.75 311.5,-1099.75 311.5,-1063.75 468.95,-1063.75 468.95,-1099.75"/>
<text text-anchor="start" x="317.1" y="-1076.33" font-family="Helvetica,sans-Serif" font-size="14.00">Attack_TopDownAttack &#160;</text>
</g>
<!-- AttackPredictSensor&#45;&gt;AttackPredictSensor_linked -->
<g id="edge18" class="edge">
<title>AttackPredictSensor&#45;&gt;AttackPredictSensor_linked</title>
<path fill="none" stroke="#66cdaa" d="M180.88,-1081.75C217.41,-1081.75 261.64,-1081.75 299.93,-1081.75"/>
<polygon fill="#66cdaa" stroke="#66cdaa" points="299.57,-1085.25 309.57,-1081.75 299.57,-1078.25 299.57,-1085.25"/>
<text text-anchor="middle" x="260.88" y="-1084.2" font-family="Helvetica,sans-Serif" font-size="14.00" fill="#66cdaa">QueueEnd</text>
</g>
<!-- AttackRunToSensor -->
<g id="node28" class="node">
<title>AttackRunToSensor</title>
<polygon fill="none" stroke="black" points="38.75,-1151.75 38.75,-1173.5 171.5,-1173.5 171.5,-1151.75 38.75,-1151.75"/>
<text text-anchor="start" x="41.75" y="-1157.2" font-family="Helvetica,sans-Serif" font-size="14.00">AttackRunToSensor &#160;</text>
<polygon fill="none" stroke="black" points="38.75,-1130 38.75,-1151.75 171.5,-1151.75 171.5,-1130 38.75,-1130"/>
<text text-anchor="start" x="41.75" y="-1136.45" font-family="Helvetica,sans-Serif" font-size="12.00" fill="#838b8b">if: state is Engaging</text>
<text text-anchor="start" x="146" y="-1136.45" font-family="Helvetica,sans-Serif" font-size="14.00"> &#160;</text>
</g>
<!-- AttackRunToSensor_linked -->
<g id="node29" class="node">
<title>AttackRunToSensor_linked</title>
<polygon fill="none" stroke="black" stroke-dasharray="1,5" points="468.95,-1169.75 311.5,-1169.75 311.5,-1133.75 468.95,-1133.75 468.95,-1169.75"/>
<text text-anchor="start" x="317.1" y="-1146.33" font-family="Helvetica,sans-Serif" font-size="14.00">Attack_TopDownAttack &#160;</text>
</g>
<!-- AttackRunToSensor&#45;&gt;AttackRunToSensor_linked -->
<g id="edge19" class="edge">
<title>AttackRunToSensor&#45;&gt;AttackRunToSensor_linked</title>
<path fill="none" stroke="#66cdaa" d="M179.4,-1151.75C216.15,-1151.75 260.99,-1151.75 299.76,-1151.75"/>
<polygon fill="#66cdaa" stroke="#66cdaa" points="299.54,-1155.25 309.54,-1151.75 299.54,-1148.25 299.54,-1155.25"/>
<text text-anchor="middle" x="260.88" y="-1154.2" font-family="Helvetica,sans-Serif" font-size="14.00" fill="#66cdaa">QueueEnd</text>
</g>
</g>
</svg>
