<?xml version="1.0" encoding="UTF-8" standalone="no"?>
<!DOCTYPE svg PUBLIC "-//W3C//DTD SVG 1.1//EN"
 "http://www.w3.org/Graphics/SVG/1.1/DTD/svg11.dtd">
<!-- Generated by graphviz version 12.2.1 (20241206.2353)
 -->
<!-- Title: Foo Pages: 1 -->
<svg width="488pt" height="1835pt"
 viewBox="0.00 0.00 487.75 1835.00" xmlns="http://www.w3.org/2000/svg" xmlns:xlink="http://www.w3.org/1999/xlink">
<g id="graph0" class="graph" transform="scale(1 1) rotate(0) translate(4 1831)">
<title>Foo</title>
<polygon fill="white" stroke="none" points="-4,4 -4,-1831 483.75,-1831 483.75,4 -4,4"/>
<g id="clust1" class="cluster">
<title>cluster_attacksensors</title>
<polygon fill="none" stroke="black" points="8,-8 8,-556 471.75,-556 471.75,-8 8,-8"/>
<text text-anchor="middle" x="239.88" y="-538.7" font-family="Helvetica,sans-Serif" font-size="14.00">Attack Sensors</text>
</g>
<!-- Level Once Sensor -->
<g id="node1" class="node">
<title>Level Once Sensor</title>
<polygon fill="none" stroke="black" points="28.5,-50.12 28.5,-71.88 157.5,-71.88 157.5,-50.12 28.5,-50.12"/>
<text text-anchor="start" x="31.5" y="-55.58" font-family="Helvetica,sans-Serif" font-size="14.00">Level Once Sensor &#160;</text>
</g>
<!-- Level Once Sensor_linked -->
<g id="node2" class="node">
<title>Level Once Sensor_linked</title>
<polygon fill="none" stroke="black" stroke-dasharray="1,5" points="431.23,-52 313.52,-52 313.52,-16 431.23,-16 431.23,-52"/>
<text text-anchor="start" x="319.12" y="-28.57" font-family="Helvetica,sans-Serif" font-size="14.00">BackJumpShoot &#160;</text>
</g>
<!-- Level Once Sensor&#45;&gt;Level Once Sensor_linked -->
<g id="edge1" class="edge">
<title>Level Once Sensor&#45;&gt;Level Once Sensor_linked</title>
<path fill="none" stroke="#66cdaa" d="M165.36,-50.18C176.19,-48.73 187.26,-47.36 197.75,-46.25 232.01,-42.61 270.18,-39.78 302,-37.77"/>
<polygon fill="#66cdaa" stroke="#66cdaa" points="302.13,-41.27 311.9,-37.15 301.7,-34.28 302.13,-41.27"/>
<text text-anchor="middle" x="230.38" y="-48.7" font-family="Helvetica,sans-Serif" font-size="14.00" fill="#66cdaa">QueueEnd</text>
</g>
<!-- Level Once Sensor_weight -->
<g id="node3" class="node">
<title>Level Once Sensor_weight</title>
<polygon fill="none" stroke="black" stroke-dasharray="1,5" points="441.25,-106 303.5,-106 303.5,-70 441.25,-70 441.25,-106"/>
<text text-anchor="start" x="313.5" y="-82.58" font-family="Helvetica,sans-Serif" font-size="14.00">1 BackJumpShoot &#160;</text>
</g>
<!-- Level Once Sensor&#45;&gt;Level Once Sensor_weight -->
<g id="edge2" class="edge">
<title>Level Once Sensor&#45;&gt;Level Once Sensor_weight</title>
<path fill="none" stroke="#458b74" d="M165.43,-67.95C204.08,-71.72 251.93,-76.37 291.78,-80.25"/>
<polygon fill="#458b74" stroke="#458b74" points="291.26,-83.72 301.55,-81.2 291.93,-76.75 291.26,-83.72"/>
<text text-anchor="middle" x="230.38" y="-79.37" font-family="Helvetica,sans-Serif" font-size="14.00" fill="#458b74">Weight</text>
</g>
<!-- RunAwaySensor -->
<g id="node4" class="node">
<title>RunAwaySensor</title>
<polygon fill="none" stroke="black" points="36,-137.12 36,-158.88 150,-158.88 150,-137.12 36,-137.12"/>
<text text-anchor="start" x="39" y="-142.57" font-family="Helvetica,sans-Serif" font-size="14.00">RunAwaySensor &#160;</text>
</g>
<!-- AttackSensor -->
<g id="node5" class="node">
<title>AttackSensor</title>
<polygon fill="none" stroke="black" points="46.12,-202.12 46.12,-223.88 139.88,-223.88 139.88,-202.12 46.12,-202.12"/>
<text text-anchor="start" x="49.12" y="-207.57" font-family="Helvetica,sans-Serif" font-size="14.00">AttackSensor &#160;</text>
</g>
<!-- AttackSensor_linked -->
<g id="node6" class="node">
<title>AttackSensor_linked</title>
<polygon fill="none" stroke="black" stroke-dasharray="1,5" points="453.73,-190.22 291.02,-190.22 291.02,-123.78 453.73,-123.78 453.73,-190.22"/>
<text text-anchor="start" x="319.12" y="-171.32" font-family="Helvetica,sans-Serif" font-size="14.00">BackJumpShoot &#160;</text>
<text text-anchor="start" x="296.62" y="-151.57" font-family="Helvetica,sans-Serif" font-size="14.00">JumpJumpDoubleSlash &#160;</text>
<text text-anchor="start" x="309.75" y="-131.82" font-family="Helvetica,sans-Serif" font-size="14.00">JumpJumpAirSlash &#160;</text>
</g>
<!-- AttackSensor&#45;&gt;AttackSensor_linked -->
<g id="edge3" class="edge">
<title>AttackSensor&#45;&gt;AttackSensor_linked</title>
<path fill="none" stroke="#66cdaa" d="M147.81,-202.14C185.13,-194.6 235.77,-184.38 279.42,-175.57"/>
<polygon fill="#66cdaa" stroke="#66cdaa" points="280.05,-179.01 289.16,-173.6 278.67,-172.15 280.05,-179.01"/>
<text text-anchor="middle" x="230.38" y="-194.11" font-family="Helvetica,sans-Serif" font-size="14.00" fill="#66cdaa">QueueEnd</text>
</g>
<!-- AttackSensor_weight -->
<g id="node7" class="node">
<title>AttackSensor_weight</title>
<polygon fill="none" stroke="black" stroke-dasharray="1,5" points="463.75,-275.62 281,-275.62 281,-208.38 463.75,-208.38 463.75,-275.62"/>
<text text-anchor="start" x="313.5" y="-256.32" font-family="Helvetica,sans-Serif" font-size="14.00">1 BackJumpShoot &#160;</text>
<text text-anchor="start" x="291" y="-236.57" font-family="Helvetica,sans-Serif" font-size="14.00">2 JumpJumpDoubleSlash &#160;</text>
<text text-anchor="start" x="304.12" y="-216.82" font-family="Helvetica,sans-Serif" font-size="14.00">1 JumpJumpAirSlash &#160;</text>
</g>
<!-- AttackSensor&#45;&gt;AttackSensor_weight -->
<g id="edge4" class="edge">
<title>AttackSensor&#45;&gt;AttackSensor_weight</title>
<path fill="none" stroke="#458b74" d="M147.81,-218.63C182.3,-222.23 228.17,-227.03 269.38,-231.34"/>
<polygon fill="#458b74" stroke="#458b74" points="268.77,-234.79 279.08,-232.35 269.5,-227.83 268.77,-234.79"/>
<text text-anchor="middle" x="230.38" y="-232.55" font-family="Helvetica,sans-Serif" font-size="14.00" fill="#458b74">Weight</text>
</g>
<!-- DodgePredictSensor -->
<g id="node8" class="node">
<title>DodgePredictSensor</title>
<polygon fill="none" stroke="black" points="24,-312 24,-333.75 162,-333.75 162,-312 24,-312"/>
<text text-anchor="start" x="27" y="-317.45" font-family="Helvetica,sans-Serif" font-size="14.00">DodgePredictSensor &#160;</text>
<polygon fill="none" stroke="black" points="24,-290.25 24,-312 162,-312 162,-290.25 24,-290.25"/>
<text text-anchor="start" x="27" y="-296.7" font-family="Helvetica,sans-Serif" font-size="12.00" fill="#838b8b">if: rollingCondition</text>
<text text-anchor="start" x="123.75" y="-296.7" font-family="Helvetica,sans-Serif" font-size="14.00"> &#160;</text>
</g>
<!-- DodgePredictSensor_linked -->
<g id="node9" class="node">
<title>DodgePredictSensor_linked</title>
<polygon fill="none" stroke="black" stroke-dasharray="1,5" points="431.23,-330 313.52,-330 313.52,-294 431.23,-294 431.23,-330"/>
<text text-anchor="start" x="319.12" y="-306.57" font-family="Helvetica,sans-Serif" font-size="14.00">BackJumpShoot &#160;</text>
</g>
<!-- DodgePredictSensor&#45;&gt;DodgePredictSensor_linked -->
<g id="edge5" class="edge">
<title>DodgePredictSensor&#45;&gt;DodgePredictSensor_linked</title>
<path fill="none" stroke="#66cdaa" d="M169.79,-312C211.05,-312 261.73,-312 301.95,-312"/>
<polygon fill="#66cdaa" stroke="#66cdaa" points="301.76,-315.5 311.76,-312 301.76,-308.5 301.76,-315.5"/>
<text text-anchor="middle" x="230.38" y="-314.45" font-family="Helvetica,sans-Serif" font-size="14.00" fill="#66cdaa">QueueEnd</text>
</g>
<!-- AttackPredictSensor -->
<g id="node10" class="node">
<title>AttackPredictSensor</title>
<polygon fill="none" stroke="black" points="25.12,-411 25.12,-432.75 160.88,-432.75 160.88,-411 25.12,-411"/>
<text text-anchor="start" x="28.12" y="-416.45" font-family="Helvetica,sans-Serif" font-size="14.00">AttackPredictSensor &#160;</text>
<polygon fill="none" stroke="black" points="25.12,-389.25 25.12,-411 160.88,-411 160.88,-389.25 25.12,-389.25"/>
<text text-anchor="start" x="28.12" y="-395.7" font-family="Helvetica,sans-Serif" font-size="12.00" fill="#838b8b">if: attackCondition</text>
<text text-anchor="start" x="123.38" y="-395.7" font-family="Helvetica,sans-Serif" font-size="14.00"> &#160;</text>
</g>
<!-- AttackPredictSensor_linked -->
<g id="node11" class="node">
<title>AttackPredictSensor_linked</title>
<polygon fill="none" stroke="black" stroke-dasharray="1,5" points="431.23,-384 313.52,-384 313.52,-348 431.23,-348 431.23,-384"/>
<text text-anchor="start" x="319.12" y="-360.57" font-family="Helvetica,sans-Serif" font-size="14.00">BackJumpShoot &#160;</text>
</g>
<!-- AttackPredictSensor&#45;&gt;AttackPredictSensor_linked -->
<g id="edge6" class="edge">
<title>AttackPredictSensor&#45;&gt;AttackPredictSensor_linked</title>
<path fill="none" stroke="#66cdaa" d="M168.7,-398.88C210.2,-392.15 261.5,-383.82 302.11,-377.24"/>
<polygon fill="#66cdaa" stroke="#66cdaa" points="302.46,-380.73 311.77,-375.67 301.33,-373.82 302.46,-380.73"/>
<text text-anchor="middle" x="230.38" y="-396.3" font-family="Helvetica,sans-Serif" font-size="14.00" fill="#66cdaa">QueueEnd</text>
</g>
<!-- AttackPredictSensor_weight -->
<g id="node14" class="node">
<title>AttackPredictSensor_weight</title>
<polygon fill="none" stroke="black" stroke-dasharray="1,5" points="429.62,-469.62 315.12,-469.62 315.12,-402.38 429.62,-402.38 429.62,-469.62"/>
<text text-anchor="start" x="339" y="-450.32" font-family="Helvetica,sans-Serif" font-size="14.00">1 Teleport &#160;</text>
<text text-anchor="start" x="330" y="-430.57" font-family="Helvetica,sans-Serif" font-size="14.00">1 TopDanger &#160;</text>
<text text-anchor="start" x="325.12" y="-410.82" font-family="Helvetica,sans-Serif" font-size="14.00">0 DangerDash &#160;</text>
</g>
<!-- AttackPredictSensor&#45;&gt;AttackPredictSensor_weight -->
<g id="edge8" class="edge">
<title>AttackPredictSensor&#45;&gt;AttackPredictSensor_weight</title>
<path fill="none" stroke="#458b74" d="M168.7,-417.73C210.79,-421.53 262.96,-426.23 303.82,-429.91"/>
<polygon fill="#458b74" stroke="#458b74" points="303.25,-433.37 313.53,-430.79 303.88,-426.4 303.25,-433.37"/>
<text text-anchor="middle" x="230.38" y="-428.19" font-family="Helvetica,sans-Serif" font-size="14.00" fill="#458b74">Weight</text>
</g>
<!-- AttackRunToSensor -->
<g id="node12" class="node">
<title>AttackRunToSensor</title>
<polygon fill="none" stroke="black" points="26.62,-498 26.62,-519.75 159.38,-519.75 159.38,-498 26.62,-498"/>
<text text-anchor="start" x="29.62" y="-503.45" font-family="Helvetica,sans-Serif" font-size="14.00">AttackRunToSensor &#160;</text>
<polygon fill="none" stroke="black" points="26.62,-476.25 26.62,-498 159.38,-498 159.38,-476.25 26.62,-476.25"/>
<text text-anchor="start" x="29.62" y="-482.7" font-family="Helvetica,sans-Serif" font-size="12.00" fill="#838b8b">if: state is Engaging</text>
<text text-anchor="start" x="133.88" y="-482.7" font-family="Helvetica,sans-Serif" font-size="14.00"> &#160;</text>
</g>
<!-- AttackRunToSensor_linked -->
<g id="node13" class="node">
<title>AttackRunToSensor_linked</title>
<polygon fill="none" stroke="black" stroke-dasharray="1,5" points="431.23,-524 313.52,-524 313.52,-488 431.23,-488 431.23,-524"/>
<text text-anchor="start" x="319.12" y="-500.57" font-family="Helvetica,sans-Serif" font-size="14.00">BackJumpShoot &#160;</text>
</g>
<!-- AttackRunToSensor&#45;&gt;AttackRunToSensor_linked -->
<g id="edge7" class="edge">
<title>AttackRunToSensor&#45;&gt;AttackRunToSensor_linked</title>
<path fill="none" stroke="#66cdaa" d="M167.24,-500.11C208.91,-501.31 260.8,-502.81 301.83,-503.99"/>
<polygon fill="#66cdaa" stroke="#66cdaa" points="301.49,-507.49 311.59,-504.28 301.7,-500.49 301.49,-507.49"/>
<text text-anchor="middle" x="230.38" y="-505.17" font-family="Helvetica,sans-Serif" font-size="14.00" fill="#66cdaa">QueueEnd</text>
</g>
<!-- BackJumpShoot -->
<g id="node15" class="node">
<title>BackJumpShoot</title>
<polygon fill="none" stroke="black" points="36.75,-1128.12 36.75,-1149.88 149.25,-1149.88 149.25,-1128.12 36.75,-1128.12"/>
<text text-anchor="start" x="39.75" y="-1133.58" font-family="Helvetica,sans-Serif" font-size="14.00">BackJumpShoot &#160;</text>
<polygon fill="none" stroke="black" points="36.75,-1084.12 36.75,-1128.12 149.25,-1128.12 149.25,-1084.12 36.75,-1084.12"/>
<text text-anchor="start" x="39.75" y="-1114.72" font-family="Helvetica,sans-Serif" font-size="12.00" fill="#838b8b">0.42s: CheckFacing</text>
<text text-anchor="start" x="39.75" y="-1102.72" font-family="Helvetica,sans-Serif" font-size="12.00" fill="#838b8b">1.17s: CheckFacing</text>
<text text-anchor="start" x="39.75" y="-1088.82" font-family="Helvetica,sans-Serif" font-size="12.00" fill="#838b8b">1.92s: Done</text>
<text text-anchor="start" x="104.25" y="-1088.82" font-family="Helvetica,sans-Serif" font-size="14.00"> &#160;</text>
</g>
<!-- Engaging -->
<g id="node16" class="node">
<title>Engaging</title>
<polygon fill="none" stroke="black" points="408.88,-927 335.88,-927 335.88,-891 408.88,-891 408.88,-927"/>
<text text-anchor="middle" x="372.38" y="-903.58" font-family="Helvetica,sans-Serif" font-size="14.00">Engaging</text>
</g>
<!-- BackJumpShoot&#45;&gt;Engaging -->
<g id="edge9" class="edge">
<title>BackJumpShoot&#45;&gt;Engaging</title>
<path fill="none" stroke="#cdc8b1" d="M156.84,-1092.04C165.58,-1086.26 173.65,-1079.3 179.75,-1071 204.94,-1036.72 171.09,-1010.15 197.75,-977 217.53,-952.41 235.54,-964.55 263,-949 271.59,-944.14 272.15,-940.36 281,-936 294.69,-929.25 310.4,-923.84 324.84,-919.68"/>
<polygon fill="#cdc8b1" stroke="#cdc8b1" points="325.39,-923.16 334.12,-917.14 323.55,-916.4 325.39,-923.16"/>
</g>
<!-- BackJumpShoot_linked -->
<g id="node17" class="node">
<title>BackJumpShoot_linked</title>
<polygon fill="none" stroke="black" stroke-dasharray="1,5" points="453.73,-1169.35 291.02,-1169.35 291.02,-1122.65 453.73,-1122.65 453.73,-1169.35"/>
<text text-anchor="start" x="296.62" y="-1150.45" font-family="Helvetica,sans-Serif" font-size="14.00">JumpJumpDoubleSlash &#160;</text>
<text text-anchor="start" x="309.75" y="-1130.7" font-family="Helvetica,sans-Serif" font-size="14.00">JumpJumpAirSlash &#160;</text>
</g>
<!-- BackJumpShoot&#45;&gt;BackJumpShoot_linked -->
<g id="edge10" class="edge">
<title>BackJumpShoot&#45;&gt;BackJumpShoot_linked</title>
<path fill="none" stroke="#66cdaa" d="M156.94,-1123.58C193.1,-1127.36 239.16,-1132.18 279.32,-1136.38"/>
<polygon fill="#66cdaa" stroke="#66cdaa" points="278.94,-1139.85 289.25,-1137.41 279.66,-1132.89 278.94,-1139.85"/>
<text text-anchor="middle" x="230.38" y="-1136.55" font-family="Helvetica,sans-Serif" font-size="14.00" fill="#66cdaa">QueueEnd</text>
</g>
<!-- JumpJumpDoubleSlash -->
<g id="node18" class="node">
<title>JumpJumpDoubleSlash</title>
<polygon fill="none" stroke="black" points="14.25,-1404.12 14.25,-1425.88 171.75,-1425.88 171.75,-1404.12 14.25,-1404.12"/>
<text text-anchor="start" x="17.25" y="-1409.58" font-family="Helvetica,sans-Serif" font-size="14.00">JumpJumpDoubleSlash &#160;</text>
<polygon fill="none" stroke="black" points="14.25,-1336.12 14.25,-1404.12 171.75,-1404.12 171.75,-1336.12 14.25,-1336.12"/>
<text text-anchor="start" x="17.25" y="-1390.72" font-family="Helvetica,sans-Serif" font-size="12.00" fill="#838b8b">0.58s: CheckFacing</text>
<text text-anchor="start" x="17.25" y="-1378.72" font-family="Helvetica,sans-Serif" font-size="12.00" fill="#838b8b">1.08s: CheckFacing</text>
<text text-anchor="start" x="17.25" y="-1366.72" font-family="Helvetica,sans-Serif" font-size="12.00" fill="#838b8b">1.50s: CheckFacing</text>
<text text-anchor="start" x="17.25" y="-1354.72" font-family="Helvetica,sans-Serif" font-size="12.00" fill="#838b8b">2.00s: LinkNextMove</text>
<text text-anchor="start" x="17.25" y="-1340.82" font-family="Helvetica,sans-Serif" font-size="12.00" fill="#838b8b">3.50s: Done</text>
<text text-anchor="start" x="81.75" y="-1340.82" font-family="Helvetica,sans-Serif" font-size="14.00"> &#160;</text>
</g>
<!-- JumpJumpDoubleSlash&#45;&gt;Engaging -->
<g id="edge11" class="edge">
<title>JumpJumpDoubleSlash&#45;&gt;Engaging</title>
<path fill="none" stroke="#cdc8b1" d="M179.7,-1356.04C211.25,-1342.36 243.9,-1321.9 263,-1292 305.63,-1225.24 232.09,-998.31 281,-936 291.43,-922.71 308.14,-915.75 324.37,-912.17"/>
<polygon fill="#cdc8b1" stroke="#cdc8b1" points="324.72,-915.66 333.95,-910.46 323.49,-908.77 324.72,-915.66"/>
</g>
<!-- JumpJumpDoubleSlash_linked -->
<g id="node19" class="node">
<title>JumpJumpDoubleSlash_linked</title>
<polygon fill="none" stroke="black" stroke-dasharray="1,5" points="419.6,-1509.22 325.15,-1509.22 325.15,-1442.78 419.6,-1442.78 419.6,-1509.22"/>
<text text-anchor="start" x="340.12" y="-1490.33" font-family="Helvetica,sans-Serif" font-size="14.00">Engaging &#160;</text>
<text text-anchor="start" x="330.75" y="-1470.58" font-family="Helvetica,sans-Serif" font-size="14.00">DangerDash &#160;</text>
<text text-anchor="start" x="331.88" y="-1450.83" font-family="Helvetica,sans-Serif" font-size="14.00">RollThrough &#160;</text>
</g>
<!-- JumpJumpDoubleSlash&#45;&gt;JumpJumpDoubleSlash_linked -->
<g id="edge12" class="edge">
<title>JumpJumpDoubleSlash&#45;&gt;JumpJumpDoubleSlash_linked</title>
<path fill="none" stroke="#66cdaa" d="M179.48,-1410.28C223.28,-1425.28 275.42,-1443.14 314.29,-1456.45"/>
<polygon fill="#66cdaa" stroke="#66cdaa" points="312.85,-1459.66 323.45,-1459.58 315.12,-1453.03 312.85,-1459.66"/>
<text text-anchor="middle" x="230.38" y="-1439.46" font-family="Helvetica,sans-Serif" font-size="14.00" fill="#66cdaa">QueueEnd</text>
</g>
<!-- JumpJumpDoubleSlash_weight -->
<g id="node20" class="node">
<title>JumpJumpDoubleSlash_weight</title>
<polygon fill="none" stroke="black" stroke-dasharray="1,5" points="463.75,-1424.5 281,-1424.5 281,-1337.5 463.75,-1337.5 463.75,-1424.5"/>
<text text-anchor="start" x="325.12" y="-1405.2" font-family="Helvetica,sans-Serif" font-size="14.00">0 DangerDash &#160;</text>
<text text-anchor="start" x="339" y="-1385.45" font-family="Helvetica,sans-Serif" font-size="14.00">1 Teleport &#160;</text>
<text text-anchor="start" x="291" y="-1365.7" font-family="Helvetica,sans-Serif" font-size="14.00">0 JumpJumpDoubleSlash &#160;</text>
<text text-anchor="start" x="304.12" y="-1345.95" font-family="Helvetica,sans-Serif" font-size="14.00">0 JumpJumpAirSlash &#160;</text>
</g>
<!-- JumpJumpDoubleSlash&#45;&gt;JumpJumpDoubleSlash_weight -->
<g id="edge13" class="edge">
<title>JumpJumpDoubleSlash&#45;&gt;JumpJumpDoubleSlash_weight</title>
<path fill="none" stroke="#458b74" d="M179.48,-1381C208,-1381 240.04,-1381 269.66,-1381"/>
<polygon fill="#458b74" stroke="#458b74" points="269.37,-1384.5 279.37,-1381 269.37,-1377.5 269.37,-1384.5"/>
<text text-anchor="middle" x="230.38" y="-1383.45" font-family="Helvetica,sans-Serif" font-size="14.00" fill="#458b74">Weight</text>
</g>
<!-- JumpJumpAirSlash -->
<g id="node21" class="node">
<title>JumpJumpAirSlash</title>
<polygon fill="none" stroke="black" points="27.38,-1280.12 27.38,-1301.88 158.62,-1301.88 158.62,-1280.12 27.38,-1280.12"/>
<text text-anchor="start" x="30.38" y="-1285.58" font-family="Helvetica,sans-Serif" font-size="14.00">JumpJumpAirSlash &#160;</text>
<polygon fill="none" stroke="black" points="27.38,-1176.12 27.38,-1280.12 158.62,-1280.12 158.62,-1176.12 27.38,-1176.12"/>
<text text-anchor="start" x="30.38" y="-1266.72" font-family="Helvetica,sans-Serif" font-size="12.00" fill="#838b8b">0.57s: DisableGravity</text>
<text text-anchor="start" x="30.38" y="-1254.72" font-family="Helvetica,sans-Serif" font-size="12.00" fill="#838b8b">0.58s: CheckFacing</text>
<text text-anchor="start" x="30.38" y="-1242.72" font-family="Helvetica,sans-Serif" font-size="12.00" fill="#838b8b">0.85s: CheckFacing</text>
<text text-anchor="start" x="30.38" y="-1230.72" font-family="Helvetica,sans-Serif" font-size="12.00" fill="#838b8b">0.87s: EnableGravity</text>
<text text-anchor="start" x="30.38" y="-1218.72" font-family="Helvetica,sans-Serif" font-size="12.00" fill="#838b8b">1.17s: EnableGravity</text>
<text text-anchor="start" x="30.38" y="-1206.72" font-family="Helvetica,sans-Serif" font-size="12.00" fill="#838b8b">1.20s: ResetEvaluate</text>
<text text-anchor="start" x="30.38" y="-1194.72" font-family="Helvetica,sans-Serif" font-size="12.00" fill="#838b8b">1.92s: LinkNextMove</text>
<text text-anchor="start" x="30.38" y="-1180.82" font-family="Helvetica,sans-Serif" font-size="12.00" fill="#838b8b">2.50s: Done</text>
<text text-anchor="start" x="94.88" y="-1180.82" font-family="Helvetica,sans-Serif" font-size="14.00"> &#160;</text>
</g>
<!-- JumpJumpAirSlash&#45;&gt;Engaging -->
<g id="edge14" class="edge">
<title>JumpJumpAirSlash&#45;&gt;Engaging</title>
<path fill="none" stroke="#cdc8b1" d="M166.28,-1183.06C171.46,-1176.77 176.08,-1170.06 179.75,-1163 212.36,-1100.29 156.66,-1062.51 197.75,-1005 216.41,-978.88 240.31,-996.72 263,-974 276.21,-960.78 266.82,-948.17 281,-936 293.2,-925.53 309.33,-919.12 324.59,-915.19"/>
<polygon fill="#cdc8b1" stroke="#cdc8b1" points="325,-918.69 334,-913.08 323.47,-911.86 325,-918.69"/>
</g>
<!-- JumpJumpAirSlash_linked -->
<g id="node22" class="node">
<title>JumpJumpAirSlash_linked</title>
<polygon fill="none" stroke="black" stroke-dasharray="1,5" points="419.6,-1254.22 325.15,-1254.22 325.15,-1187.78 419.6,-1187.78 419.6,-1254.22"/>
<text text-anchor="start" x="340.12" y="-1235.33" font-family="Helvetica,sans-Serif" font-size="14.00">Engaging &#160;</text>
<text text-anchor="start" x="330.75" y="-1215.58" font-family="Helvetica,sans-Serif" font-size="14.00">DangerDash &#160;</text>
<text text-anchor="start" x="331.88" y="-1195.83" font-family="Helvetica,sans-Serif" font-size="14.00">RollThrough &#160;</text>
</g>
<!-- JumpJumpAirSlash&#45;&gt;JumpJumpAirSlash_linked -->
<g id="edge15" class="edge">
<title>JumpJumpAirSlash&#45;&gt;JumpJumpAirSlash_linked</title>
<path fill="none" stroke="#66cdaa" d="M166.51,-1234.29C212.39,-1231.32 270.88,-1227.52 313.61,-1224.75"/>
<polygon fill="#66cdaa" stroke="#66cdaa" points="313.68,-1228.25 323.43,-1224.11 313.23,-1221.27 313.68,-1228.25"/>
<text text-anchor="middle" x="230.38" y="-1234.59" font-family="Helvetica,sans-Serif" font-size="14.00" fill="#66cdaa">QueueEnd</text>
</g>
<!-- JumpJumpAirSlash_weight -->
<g id="node23" class="node">
<title>JumpJumpAirSlash_weight</title>
<polygon fill="none" stroke="black" stroke-dasharray="1,5" points="424.75,-1319.75 320,-1319.75 320,-1272.25 424.75,-1272.25 424.75,-1319.75"/>
<text text-anchor="start" x="339" y="-1300.45" font-family="Helvetica,sans-Serif" font-size="14.00">1 Teleport &#160;</text>
<text text-anchor="start" x="330" y="-1280.7" font-family="Helvetica,sans-Serif" font-size="14.00">1 TopDanger &#160;</text>
</g>
<!-- JumpJumpAirSlash&#45;&gt;JumpJumpAirSlash_weight -->
<g id="edge16" class="edge">
<title>JumpJumpAirSlash&#45;&gt;JumpJumpAirSlash_weight</title>
<path fill="none" stroke="#458b74" d="M166.51,-1253.9C210.63,-1262.97 266.4,-1274.43 308.61,-1283.1"/>
<polygon fill="#458b74" stroke="#458b74" points="307.88,-1286.52 318.38,-1285.11 309.29,-1279.67 307.88,-1286.52"/>
<text text-anchor="middle" x="230.38" y="-1275.06" font-family="Helvetica,sans-Serif" font-size="14.00" fill="#458b74">Weight</text>
</g>
<!-- DangerDash -->
<g id="node24" class="node">
<title>DangerDash</title>
<polygon fill="none" stroke="black" points="36.75,-944.12 36.75,-965.88 149.25,-965.88 149.25,-944.12 36.75,-944.12"/>
<text text-anchor="start" x="51.38" y="-949.58" font-family="Helvetica,sans-Serif" font-size="14.00">DangerDash &#160;</text>
<polygon fill="none" stroke="black" points="36.75,-912.12 36.75,-944.12 149.25,-944.12 149.25,-912.12 36.75,-912.12"/>
<text text-anchor="start" x="39.75" y="-930.73" font-family="Helvetica,sans-Serif" font-size="12.00" fill="#838b8b">0.00s: CheckFacing</text>
<text text-anchor="start" x="39.75" y="-916.83" font-family="Helvetica,sans-Serif" font-size="12.00" fill="#838b8b">2.98s: Done</text>
<text text-anchor="start" x="104.25" y="-916.83" font-family="Helvetica,sans-Serif" font-size="14.00"> &#160;</text>
</g>
<!-- DangerDash&#45;&gt;Engaging -->
<g id="edge17" class="edge">
<title>DangerDash&#45;&gt;Engaging</title>
<path fill="none" stroke="#cdc8b1" d="M157.08,-931.58C170.5,-930.04 184.59,-928.44 197.75,-927 240.51,-922.31 289.24,-917.29 324.16,-913.74"/>
<polygon fill="#cdc8b1" stroke="#cdc8b1" points="324.35,-917.24 333.94,-912.75 323.64,-910.28 324.35,-917.24"/>
</g>
<!-- Teleport -->
<g id="node25" class="node">
<title>Teleport</title>
<polygon fill="none" stroke="black" points="33,-1036.12 33,-1057.88 153,-1057.88 153,-1036.12 33,-1036.12"/>
<text text-anchor="start" x="65.25" y="-1041.58" font-family="Helvetica,sans-Serif" font-size="14.00">Teleport &#160;</text>
<polygon fill="none" stroke="black" points="33,-992.12 33,-1036.12 153,-1036.12 153,-992.12 33,-992.12"/>
<text text-anchor="start" x="36" y="-1022.73" font-family="Helvetica,sans-Serif" font-size="12.00" fill="#838b8b">0.00s: ResetEvaluate</text>
<text text-anchor="start" x="36" y="-1010.73" font-family="Helvetica,sans-Serif" font-size="12.00" fill="#838b8b">0.67s: LinkNextMove</text>
<text text-anchor="start" x="36" y="-996.83" font-family="Helvetica,sans-Serif" font-size="12.00" fill="#838b8b">0.93s: Done</text>
<text text-anchor="start" x="100.5" y="-996.83" font-family="Helvetica,sans-Serif" font-size="14.00"> &#160;</text>
</g>
<!-- Teleport&#45;&gt;Engaging -->
<g id="edge18" class="edge">
<title>Teleport&#45;&gt;Engaging</title>
<path fill="none" stroke="#cdc8b1" d="M160.83,-993.47C167.55,-989.06 174,-984.23 179.75,-979 190.42,-969.3 185.95,-960.29 197.75,-952 217.96,-937.79 280.15,-924.63 324.3,-916.7"/>
<polygon fill="#cdc8b1" stroke="#cdc8b1" points="324.65,-920.2 333.9,-915.02 323.44,-913.3 324.65,-920.2"/>
</g>
<!-- Teleport_mustuse -->
<g id="node26" class="node">
<title>Teleport_mustuse</title>
<polygon fill="none" stroke="black" points="329.12,-1074.12 329.12,-1099.88 415.62,-1099.88 415.62,-1074.12 329.12,-1074.12"/>
<text text-anchor="start" x="334.12" y="-1081.58" font-family="Helvetica,sans-Serif" font-size="14.00">DirectSlash &#160;</text>
</g>
<!-- Teleport&#45;&gt;Teleport_mustuse -->
<g id="edge19" class="edge">
<title>Teleport&#45;&gt;Teleport_mustuse</title>
<path fill="none" stroke="#ffc125" d="M160.79,-1039.93C206.21,-1050.08 265.85,-1063.41 310.06,-1073.3"/>
<polygon fill="#ffc125" stroke="#ffc125" points="309.24,-1076.7 319.76,-1075.46 310.76,-1069.87 309.24,-1076.7"/>
<text text-anchor="middle" x="230.38" y="-1064" font-family="Helvetica,sans-Serif" font-size="14.00" fill="#ffc125">Initial</text>
</g>
<!-- Teleport_weight -->
<g id="node27" class="node">
<title>Teleport_weight</title>
<polygon fill="none" stroke="black" stroke-dasharray="1,5" points="463.75,-1051.38 281,-1051.38 281,-944.62 463.75,-944.62 463.75,-1051.38"/>
<text text-anchor="start" x="325.12" y="-1032.08" font-family="Helvetica,sans-Serif" font-size="14.00">1 DangerDash &#160;</text>
<text text-anchor="start" x="349.88" y="-1012.33" font-family="Helvetica,sans-Serif" font-size="14.00">0 Skip &#160;</text>
<text text-anchor="start" x="328.5" y="-992.58" font-family="Helvetica,sans-Serif" font-size="14.00">2 DirectSlash &#160;</text>
<text text-anchor="start" x="291" y="-972.83" font-family="Helvetica,sans-Serif" font-size="14.00">1 JumpJumpDoubleSlash &#160;</text>
<text text-anchor="start" x="304.12" y="-953.08" font-family="Helvetica,sans-Serif" font-size="14.00">1 JumpJumpAirSlash &#160;</text>
</g>
<!-- Teleport&#45;&gt;Teleport_weight -->
<g id="edge20" class="edge">
<title>Teleport&#45;&gt;Teleport_weight</title>
<path fill="none" stroke="#458b74" d="M160.79,-1018.5C193.33,-1015.33 233.17,-1011.45 269.41,-1007.93"/>
<polygon fill="#458b74" stroke="#458b74" points="269.41,-1011.44 279.02,-1006.99 268.73,-1004.48 269.41,-1011.44"/>
<text text-anchor="middle" x="230.38" y="-1017.16" font-family="Helvetica,sans-Serif" font-size="14.00" fill="#458b74">Weight</text>
</g>
<!-- TopDanger -->
<g id="node28" class="node">
<title>TopDanger</title>
<polygon fill="none" stroke="black" points="34.12,-784.12 34.12,-805.88 151.88,-805.88 151.88,-784.12 34.12,-784.12"/>
<text text-anchor="start" x="56.25" y="-789.58" font-family="Helvetica,sans-Serif" font-size="14.00">TopDanger &#160;</text>
<polygon fill="none" stroke="black" points="34.12,-740.12 34.12,-784.12 151.88,-784.12 151.88,-740.12 34.12,-740.12"/>
<text text-anchor="start" x="37.12" y="-770.73" font-family="Helvetica,sans-Serif" font-size="12.00" fill="#838b8b">0.83s: CheckFacing</text>
<text text-anchor="start" x="37.12" y="-758.73" font-family="Helvetica,sans-Serif" font-size="12.00" fill="#838b8b">1.75s: LinkNextMove</text>
<text text-anchor="start" x="37.12" y="-744.83" font-family="Helvetica,sans-Serif" font-size="12.00" fill="#838b8b">2.50s: Done</text>
<text text-anchor="start" x="101.62" y="-744.83" font-family="Helvetica,sans-Serif" font-size="14.00"> &#160;</text>
</g>
<!-- TopDanger&#45;&gt;Engaging -->
<g id="edge21" class="edge">
<title>TopDanger&#45;&gt;Engaging</title>
<path fill="none" stroke="#cdc8b1" d="M159.73,-805.23C210.71,-830.23 280.08,-864.23 325.28,-886.4"/>
<polygon fill="#cdc8b1" stroke="#cdc8b1" points="323.5,-889.43 334.02,-890.69 326.58,-883.14 323.5,-889.43"/>
</g>
<!-- TopDanger_weight -->
<g id="node29" class="node">
<title>TopDanger_weight</title>
<polygon fill="none" stroke="black" stroke-dasharray="1,5" points="462.62,-797.75 282.12,-797.75 282.12,-750.25 462.62,-750.25 462.62,-797.75"/>
<text text-anchor="start" x="292.12" y="-778.45" font-family="Helvetica,sans-Serif" font-size="14.00">1 TopDangerNo Phantom &#160;</text>
<text text-anchor="start" x="339" y="-758.7" font-family="Helvetica,sans-Serif" font-size="14.00">2 Teleport &#160;</text>
</g>
<!-- TopDanger&#45;&gt;TopDanger_weight -->
<g id="edge22" class="edge">
<title>TopDanger&#45;&gt;TopDanger_weight</title>
<path fill="none" stroke="#458b74" d="M159.73,-773.24C192.76,-773.36 233.51,-773.5 270.4,-773.64"/>
<polygon fill="#458b74" stroke="#458b74" points="270.19,-777.14 280.2,-773.67 270.21,-770.14 270.19,-777.14"/>
<text text-anchor="middle" x="230.38" y="-776.04" font-family="Helvetica,sans-Serif" font-size="14.00" fill="#458b74">Weight</text>
</g>
<!-- DirectSlash -->
<g id="node30" class="node">
<title>DirectSlash</title>
<polygon fill="none" stroke="black" points="34.12,-692.12 34.12,-713.88 151.88,-713.88 151.88,-692.12 34.12,-692.12"/>
<text text-anchor="start" x="54.75" y="-697.58" font-family="Helvetica,sans-Serif" font-size="14.00">DirectSlash &#160;</text>
<polygon fill="none" stroke="black" points="34.12,-660.12 34.12,-692.12 151.88,-692.12 151.88,-660.12 34.12,-660.12"/>
<text text-anchor="start" x="37.12" y="-678.73" font-family="Helvetica,sans-Serif" font-size="12.00" fill="#838b8b">1.33s: LinkNextMove</text>
<text text-anchor="start" x="37.12" y="-664.83" font-family="Helvetica,sans-Serif" font-size="12.00" fill="#838b8b">2.50s: Done</text>
<text text-anchor="start" x="101.62" y="-664.83" font-family="Helvetica,sans-Serif" font-size="14.00"> &#160;</text>
</g>
<!-- DirectSlash&#45;&gt;Engaging -->
<g id="edge23" class="edge">
<title>DirectSlash&#45;&gt;Engaging</title>
<path fill="none" stroke="#cdc8b1" d="M159.49,-713.32C200.1,-730.65 247.4,-753.01 263,-769 276.05,-782.38 270.7,-791.41 281,-807 299.4,-834.86 324.98,-863 344.23,-882.64"/>
<polygon fill="#cdc8b1" stroke="#cdc8b1" points="341.71,-885.08 351.25,-889.71 346.68,-880.15 341.71,-885.08"/>
</g>
<!-- DirectSlash_weight -->
<g id="node31" class="node">
<title>DirectSlash_weight</title>
<polygon fill="none" stroke="black" stroke-dasharray="1,5" points="462.62,-718.62 282.12,-718.62 282.12,-651.38 462.62,-651.38 462.62,-718.62"/>
<text text-anchor="start" x="339" y="-699.33" font-family="Helvetica,sans-Serif" font-size="14.00">2 Teleport &#160;</text>
<text text-anchor="start" x="330" y="-679.58" font-family="Helvetica,sans-Serif" font-size="14.00">1 TopDanger &#160;</text>
<text text-anchor="start" x="292.12" y="-659.83" font-family="Helvetica,sans-Serif" font-size="14.00">1 TopDangerNo Phantom &#160;</text>
</g>
<!-- DirectSlash&#45;&gt;DirectSlash_weight -->
<g id="edge24" class="edge">
<title>DirectSlash&#45;&gt;DirectSlash_weight</title>
<path fill="none" stroke="#458b74" d="M159.73,-686.53C192.76,-686.29 233.51,-685.99 270.4,-685.73"/>
<polygon fill="#458b74" stroke="#458b74" points="270.23,-689.23 280.2,-685.66 270.18,-682.23 270.23,-689.23"/>
<text text-anchor="middle" x="230.38" y="-688.69" font-family="Helvetica,sans-Serif" font-size="14.00" fill="#458b74">Weight</text>
</g>
<!-- TopDangerNo Phantom -->
<g id="node32" class="node">
<title>TopDangerNo Phantom</title>
<polygon fill="none" stroke="black" points="15.38,-612.12 15.38,-633.88 170.62,-633.88 170.62,-612.12 15.38,-612.12"/>
<text text-anchor="start" x="18.38" y="-617.58" font-family="Helvetica,sans-Serif" font-size="14.00">TopDangerNo Phantom &#160;</text>
<polygon fill="none" stroke="black" points="15.38,-568.12 15.38,-612.12 170.62,-612.12 170.62,-568.12 15.38,-568.12"/>
<text text-anchor="start" x="18.38" y="-598.73" font-family="Helvetica,sans-Serif" font-size="12.00" fill="#838b8b">0.83s: CheckFacing</text>
<text text-anchor="start" x="18.38" y="-586.73" font-family="Helvetica,sans-Serif" font-size="12.00" fill="#838b8b">1.75s: LinkNextMove</text>
<text text-anchor="start" x="18.38" y="-572.83" font-family="Helvetica,sans-Serif" font-size="12.00" fill="#838b8b">2.50s: Done</text>
<text text-anchor="start" x="82.88" y="-572.83" font-family="Helvetica,sans-Serif" font-size="14.00"> &#160;</text>
</g>
<!-- TopDangerNo Phantom&#45;&gt;Engaging -->
<g id="edge25" class="edge">
<title>TopDangerNo Phantom&#45;&gt;Engaging</title>
<path fill="none" stroke="#cdc8b1" d="M170.83,-637.86C174.04,-640.72 177.04,-643.76 179.75,-647 196.27,-666.72 180.39,-683.02 197.75,-702 219.05,-725.29 242.73,-705.81 263,-730 285.57,-756.94 264.85,-775.78 281,-807 296.12,-836.24 321.5,-863.82 341.52,-882.91"/>
<polygon fill="#cdc8b1" stroke="#cdc8b1" points="338.92,-885.27 348.62,-889.53 343.69,-880.15 338.92,-885.27"/>
</g>
<!-- TopDangerNo Phantom_weight -->
<g id="node33" class="node">
<title>TopDangerNo Phantom_weight</title>
<polygon fill="none" stroke="black" stroke-dasharray="1,5" points="429.62,-619 315.12,-619 315.12,-583 429.62,-583 429.62,-619"/>
<text text-anchor="start" x="325.12" y="-595.58" font-family="Helvetica,sans-Serif" font-size="14.00">1 DangerDash &#160;</text>
</g>
<!-- TopDangerNo Phantom&#45;&gt;TopDangerNo Phantom_weight -->
<g id="edge26" class="edge">
<title>TopDangerNo Phantom&#45;&gt;TopDangerNo Phantom_weight</title>
<path fill="none" stroke="#458b74" d="M178.35,-601C218.51,-601 265.88,-601 303.65,-601"/>
<polygon fill="#458b74" stroke="#458b74" points="303.53,-604.5 313.53,-601 303.53,-597.5 303.53,-604.5"/>
<text text-anchor="middle" x="230.38" y="-603.45" font-family="Helvetica,sans-Serif" font-size="14.00" fill="#458b74">Weight</text>
</g>
<!-- HurtState -->
<g id="node34" class="node">
<title>HurtState</title>
<polygon fill="none" stroke="black" points="54,-1507 54,-1528.75 132,-1528.75 132,-1507 54,-1507"/>
<text text-anchor="start" x="60.75" y="-1512.45" font-family="Helvetica,sans-Serif" font-size="14.00">HurtState &#160;</text>
<polygon fill="none" stroke="black" points="54,-1485.25 54,-1507 132,-1507 132,-1485.25 54,-1485.25"/>
<text text-anchor="start" x="57" y="-1491.7" font-family="Helvetica,sans-Serif" font-size="12.00" fill="#838b8b">0.18s: Done</text>
<text text-anchor="start" x="121.5" y="-1491.7" font-family="Helvetica,sans-Serif" font-size="14.00"> &#160;</text>
</g>
<!-- PreAttack -->
<g id="node35" class="node">
<title>PreAttack</title>
<polygon fill="none" stroke="black" points="409.62,-1600 335.12,-1600 335.12,-1564 409.62,-1564 409.62,-1600"/>
<text text-anchor="middle" x="372.38" y="-1576.58" font-family="Helvetica,sans-Serif" font-size="14.00">PreAttack</text>
</g>
<!-- HurtState&#45;&gt;PreAttack -->
<g id="edge27" class="edge">
<title>HurtState&#45;&gt;PreAttack</title>
<path fill="none" stroke="#cdc8b1" d="M139.8,-1519.38C190.69,-1533.15 272.46,-1555.26 323.99,-1569.19"/>
<polygon fill="#cdc8b1" stroke="#cdc8b1" points="322.79,-1572.49 333.35,-1571.72 324.61,-1565.73 322.79,-1572.49"/>
</g>
<!-- Hurt_BigState -->
<g id="node36" class="node">
<title>Hurt_BigState</title>
<polygon fill="none" stroke="black" points="34.5,-1667.12 34.5,-1688.88 151.5,-1688.88 151.5,-1667.12 34.5,-1667.12"/>
<text text-anchor="start" x="47.25" y="-1672.58" font-family="Helvetica,sans-Serif" font-size="14.00">Hurt_BigState &#160;</text>
<polygon fill="none" stroke="black" points="34.5,-1635.12 34.5,-1667.12 151.5,-1667.12 151.5,-1635.12 34.5,-1635.12"/>
<text text-anchor="start" x="37.5" y="-1653.72" font-family="Helvetica,sans-Serif" font-size="12.00" fill="#838b8b">0.00s: EnableGravity</text>
<text text-anchor="start" x="37.5" y="-1639.82" font-family="Helvetica,sans-Serif" font-size="12.00" fill="#838b8b">1.00s: Done</text>
<text text-anchor="start" x="102" y="-1639.82" font-family="Helvetica,sans-Serif" font-size="14.00"> &#160;</text>
</g>
<!-- Hurt_BigState&#45;&gt;PreAttack -->
<g id="edge28" class="edge">
<title>Hurt_BigState&#45;&gt;PreAttack</title>
<path fill="none" stroke="#cdc8b1" d="M159.38,-1643.14C209.88,-1628.58 278.57,-1608.77 323.9,-1595.69"/>
<polygon fill="#cdc8b1" stroke="#cdc8b1" points="324.81,-1599.07 333.44,-1592.94 322.87,-1592.35 324.81,-1599.07"/>
</g>
<!-- LastHit -->
<g id="node37" class="node">
<title>LastHit</title>
<polygon fill="none" stroke="black" points="34.5,-1747.12 34.5,-1768.88 151.5,-1768.88 151.5,-1747.12 34.5,-1747.12"/>
<text text-anchor="start" x="68.25" y="-1752.58" font-family="Helvetica,sans-Serif" font-size="14.00">LastHit &#160;</text>
<polygon fill="none" stroke="black" points="34.5,-1715.12 34.5,-1747.12 151.5,-1747.12 151.5,-1715.12 34.5,-1715.12"/>
<text text-anchor="start" x="37.5" y="-1733.72" font-family="Helvetica,sans-Serif" font-size="12.00" fill="#838b8b">0.00s: EnableGravity</text>
<text text-anchor="start" x="37.5" y="-1719.82" font-family="Helvetica,sans-Serif" font-size="12.00" fill="#838b8b">0.50s: Done</text>
<text text-anchor="start" x="102" y="-1719.82" font-family="Helvetica,sans-Serif" font-size="14.00"> &#160;</text>
</g>
<!-- DeadState -->
<g id="node38" class="node">
<title>DeadState</title>
<polygon fill="none" stroke="black" points="412.25,-1760 332.5,-1760 332.5,-1724 412.25,-1724 412.25,-1760"/>
<text text-anchor="middle" x="372.38" y="-1736.58" font-family="Helvetica,sans-Serif" font-size="14.00">DeadState</text>
</g>
<!-- LastHit&#45;&gt;DeadState -->
<g id="edge29" class="edge">
<title>LastHit&#45;&gt;DeadState</title>
<path fill="none" stroke="#cdc8b1" d="M159.38,-1742C208.74,-1742 275.48,-1742 320.8,-1742"/>
<polygon fill="#cdc8b1" stroke="#cdc8b1" points="320.61,-1745.5 330.61,-1742 320.61,-1738.5 320.61,-1745.5"/>
</g>
<!-- PostureBreak -->
<g id="node39" class="node">
<title>PostureBreak</title>
<polygon fill="none" stroke="black" points="34.5,-1587.12 34.5,-1608.88 151.5,-1608.88 151.5,-1587.12 34.5,-1587.12"/>
<text text-anchor="start" x="48.38" y="-1592.58" font-family="Helvetica,sans-Serif" font-size="14.00">PostureBreak &#160;</text>
<polygon fill="none" stroke="black" points="34.5,-1555.12 34.5,-1587.12 151.5,-1587.12 151.5,-1555.12 34.5,-1555.12"/>
<text text-anchor="start" x="37.5" y="-1573.72" font-family="Helvetica,sans-Serif" font-size="12.00" fill="#838b8b">0.00s: EnableGravity</text>
<text text-anchor="start" x="37.5" y="-1559.82" font-family="Helvetica,sans-Serif" font-size="12.00" fill="#838b8b">1.50s: Done</text>
<text text-anchor="start" x="102" y="-1559.82" font-family="Helvetica,sans-Serif" font-size="14.00"> &#160;</text>
</g>
<!-- PostureBreak&#45;&gt;PreAttack -->
<g id="edge30" class="edge">
<title>PostureBreak&#45;&gt;PreAttack</title>
<path fill="none" stroke="#cdc8b1" d="M159.38,-1582C209.77,-1582 278.28,-1582 323.61,-1582"/>
<polygon fill="#cdc8b1" stroke="#cdc8b1" points="323.38,-1585.5 333.38,-1582 323.38,-1578.5 323.38,-1585.5"/>
</g>
<!-- RollThrough -->
<g id="node40" class="node">
<title>RollThrough</title>
<polygon fill="none" stroke="black" points="33,-864.12 33,-885.88 153,-885.88 153,-864.12 33,-864.12"/>
<text text-anchor="start" x="52.5" y="-869.58" font-family="Helvetica,sans-Serif" font-size="14.00">RollThrough &#160;</text>
<polygon fill="none" stroke="black" points="33,-832.12 33,-864.12 153,-864.12 153,-832.12 33,-832.12"/>
<text text-anchor="start" x="36" y="-850.73" font-family="Helvetica,sans-Serif" font-size="12.00" fill="#838b8b">0.00s: ResetEvaluate</text>
<text text-anchor="start" x="36" y="-836.83" font-family="Helvetica,sans-Serif" font-size="12.00" fill="#838b8b">0.58s: Done</text>
<text text-anchor="start" x="100.5" y="-836.83" font-family="Helvetica,sans-Serif" font-size="14.00"> &#160;</text>
</g>
<!-- RollThrough&#45;&gt;Engaging -->
<g id="edge31" class="edge">
<title>RollThrough&#45;&gt;Engaging</title>
<path fill="none" stroke="#cdc8b1" d="M160.79,-871.04C211.37,-880.16 279.59,-892.45 324.49,-900.55"/>
<polygon fill="#cdc8b1" stroke="#cdc8b1" points="323.71,-903.96 334.17,-902.29 324.95,-897.08 323.71,-903.96"/>
</g>
<!-- Wandering_Idle -->
<g id="node41" class="node">
<title>Wandering_Idle</title>
<polygon fill="none" stroke="black" points="163.62,-1827 22.38,-1827 22.38,-1791 163.62,-1791 163.62,-1827"/>
<text text-anchor="middle" x="93" y="-1803.58" font-family="Helvetica,sans-Serif" font-size="14.00">Wandering_Idle (Init)</text>
</g>
</g>
</svg>
