<?xml version="1.0" encoding="UTF-8" standalone="no"?>
<!DOCTYPE svg PUBLIC "-//W3C//DTD SVG 1.1//EN"
 "http://www.w3.org/Graphics/SVG/1.1/DTD/svg11.dtd">
<!-- Generated by graphviz version 12.2.1 (20241206.2353)
 -->
<!-- Title: Foo Pages: 1 -->
<svg width="505pt" height="724pt"
 viewBox="0.00 0.00 505.00 723.75" xmlns="http://www.w3.org/2000/svg" xmlns:xlink="http://www.w3.org/1999/xlink">
<g id="graph0" class="graph" transform="scale(1 1) rotate(0) translate(4 719.75)">
<title>Foo</title>
<polygon fill="white" stroke="none" points="-4,4 -4,-719.75 501,-719.75 501,4 -4,4"/>
<g id="clust1" class="cluster">
<title>cluster_attacksensors</title>
<polygon fill="none" stroke="black" points="8,-307.75 8,-707.75 384.25,-707.75 384.25,-307.75 8,-307.75"/>
<text text-anchor="middle" x="196.12" y="-690.45" font-family="Helvetica,sans-Serif" font-size="14.00">Attack Sensors</text>
</g>
<!-- RunAttack -->
<g id="node1" class="node">
<title>RunAttack</title>
<polygon fill="none" stroke="black" points="54,-95.75 54,-117.5 132,-117.5 132,-95.75 54,-95.75"/>
<text text-anchor="start" x="58.12" y="-101.2" font-family="Helvetica,sans-Serif" font-size="14.00">RunAttack &#160;</text>
<polygon fill="none" stroke="black" points="54,-74 54,-95.75 132,-95.75 132,-74 54,-74"/>
<text text-anchor="start" x="57" y="-80.45" font-family="Helvetica,sans-Serif" font-size="12.00" fill="#838b8b">2.08s: Done</text>
<text text-anchor="start" x="121.5" y="-80.45" font-family="Helvetica,sans-Serif" font-size="14.00"> &#160;</text>
</g>
<!--  KeepRun -->
<g id="node2" class="node">
<title> KeepRun</title>
<polygon fill="none" stroke="black" points="363.75,-78.75 287.75,-78.75 287.75,-42.75 363.75,-42.75 363.75,-78.75"/>
<text text-anchor="middle" x="325.75" y="-55.33" font-family="Helvetica,sans-Serif" font-size="14.00"> KeepRun</text>
</g>
<!-- RunAttack&#45;&gt; KeepRun -->
<g id="edge1" class="edge">
<title>RunAttack&#45;&gt; KeepRun</title>
<path fill="none" stroke="#cdc8b1" d="M139.86,-88.79C179.31,-82.81 236.02,-74.21 276.22,-68.11"/>
<polygon fill="#cdc8b1" stroke="#cdc8b1" points="276.49,-71.61 285.85,-66.65 275.44,-64.69 276.49,-71.61"/>
</g>
<!--  Explode Self -->
<g id="node3" class="node">
<title> Explode Self</title>
<polygon fill="none" stroke="black" points="279.25,-165.75 279.25,-187.5 372.25,-187.5 372.25,-165.75 279.25,-165.75"/>
<text text-anchor="start" x="282.25" y="-171.2" font-family="Helvetica,sans-Serif" font-size="14.00"> Explode Self &#160;</text>
<polygon fill="none" stroke="black" points="279.25,-144 279.25,-165.75 372.25,-165.75 372.25,-144 279.25,-144"/>
<text text-anchor="start" x="282.25" y="-150.45" font-family="Helvetica,sans-Serif" font-size="12.00" fill="#838b8b">0.08s: Done</text>
<text text-anchor="start" x="346.75" y="-150.45" font-family="Helvetica,sans-Serif" font-size="14.00"> &#160;</text>
</g>
<!-- DeadState -->
<g id="node4" class="node">
<title>DeadState</title>
<polygon fill="none" stroke="black" points="497,-183.75 417.25,-183.75 417.25,-147.75 497,-147.75 497,-183.75"/>
<text text-anchor="middle" x="457.12" y="-160.32" font-family="Helvetica,sans-Serif" font-size="14.00">DeadState</text>
</g>
<!--  Explode Self&#45;&gt;DeadState -->
<g id="edge2" class="edge">
<title> Explode Self&#45;&gt;DeadState</title>
<path fill="none" stroke="#cdc8b1" d="M380.12,-165.75C388.64,-165.75 397.42,-165.75 405.87,-165.75"/>
<polygon fill="#cdc8b1" stroke="#cdc8b1" points="405.59,-169.25 415.59,-165.75 405.59,-162.25 405.59,-169.25"/>
</g>
<!--  PrepareToExplode -->
<g id="node5" class="node">
<title> PrepareToExplode</title>
<polygon fill="none" stroke="black" points="28.88,-165.75 28.88,-187.5 157.12,-187.5 157.12,-165.75 28.88,-165.75"/>
<text text-anchor="start" x="31.88" y="-171.2" font-family="Helvetica,sans-Serif" font-size="14.00"> PrepareToExplode &#160;</text>
<polygon fill="none" stroke="black" points="28.88,-144 28.88,-165.75 157.12,-165.75 157.12,-144 28.88,-144"/>
<text text-anchor="start" x="31.88" y="-150.45" font-family="Helvetica,sans-Serif" font-size="12.00" fill="#838b8b">0.92s: Done</text>
<text text-anchor="start" x="96.38" y="-150.45" font-family="Helvetica,sans-Serif" font-size="14.00"> &#160;</text>
</g>
<!--  PrepareToExplode&#45;&gt; Explode Self -->
<g id="edge3" class="edge">
<title> PrepareToExplode&#45;&gt; Explode Self</title>
<path fill="none" stroke="#cdc8b1" d="M165.12,-165.75C195.39,-165.75 230.46,-165.75 260.01,-165.75"/>
<polygon fill="#cdc8b1" stroke="#cdc8b1" points="259.95,-169.25 269.95,-165.75 259.95,-162.25 259.95,-169.25"/>
</g>
<!--  QuickRunAttack -->
<g id="node6" class="node">
<title> QuickRunAttack</title>
<polygon fill="none" stroke="black" points="35.62,-25.75 35.62,-47.5 150.38,-47.5 150.38,-25.75 35.62,-25.75"/>
<text text-anchor="start" x="38.62" y="-31.2" font-family="Helvetica,sans-Serif" font-size="14.00"> QuickRunAttack &#160;</text>
<polygon fill="none" stroke="black" points="35.62,-4 35.62,-25.75 150.38,-25.75 150.38,-4 35.62,-4"/>
<text text-anchor="start" x="38.62" y="-10.45" font-family="Helvetica,sans-Serif" font-size="12.00" fill="#838b8b">1.33s: Done</text>
<text text-anchor="start" x="103.12" y="-10.45" font-family="Helvetica,sans-Serif" font-size="14.00"> &#160;</text>
</g>
<!--  QuickRunAttack&#45;&gt; KeepRun -->
<g id="edge4" class="edge">
<title> QuickRunAttack&#45;&gt; KeepRun</title>
<path fill="none" stroke="#cdc8b1" d="M158.28,-35.5C195.66,-41.17 242.01,-48.2 276.3,-53.4"/>
<polygon fill="#cdc8b1" stroke="#cdc8b1" points="275.53,-56.82 285.94,-54.86 276.58,-49.9 275.53,-56.82"/>
</g>
<!-- AttackParrying -->
<g id="node7" class="node">
<title>AttackParrying</title>
<polygon fill="none" stroke="black" points="144.88,-245.75 41.12,-245.75 41.12,-209.75 144.88,-209.75 144.88,-245.75"/>
<text text-anchor="middle" x="93" y="-222.32" font-family="Helvetica,sans-Serif" font-size="14.00">AttackParrying</text>
</g>
<!-- Wandering_Idle -->
<g id="node8" class="node">
<title>Wandering_Idle</title>
<polygon fill="none" stroke="black" points="163.62,-299.75 22.38,-299.75 22.38,-263.75 163.62,-263.75 163.62,-299.75"/>
<text text-anchor="middle" x="93" y="-276.32" font-family="Helvetica,sans-Serif" font-size="14.00">Wandering_Idle (Init)</text>
</g>
<!-- Level Once Sensor -->
<g id="node9" class="node">
<title>Level Once Sensor</title>
<polygon fill="none" stroke="black" points="158.75,-354.75 27.25,-354.75 27.25,-318.75 158.75,-318.75 158.75,-354.75"/>
<text text-anchor="middle" x="93" y="-331.32" font-family="Helvetica,sans-Serif" font-size="14.00">Level Once Sensor</text>
</g>
<!-- Level Once Sensor_linked -->
<g id="node10" class="node">
<title>Level Once Sensor_linked</title>
<polygon fill="none" stroke="black" stroke-dasharray="1,5" points="366.23,-351.75 285.27,-351.75 285.27,-315.75 366.23,-315.75 366.23,-351.75"/>
<text text-anchor="start" x="290.88" y="-328.32" font-family="Helvetica,sans-Serif" font-size="14.00">RunAttack &#160;</text>
</g>
<!-- Level Once Sensor&#45;&gt;Level Once Sensor_linked -->
<g id="edge5" class="edge">
<title>Level Once Sensor&#45;&gt;Level Once Sensor_linked</title>
<path fill="none" stroke="#66cdaa" d="M159.2,-335.9C195.44,-335.43 239.89,-334.85 273.6,-334.42"/>
<polygon fill="#66cdaa" stroke="#66cdaa" points="273.57,-337.92 283.53,-334.29 273.48,-330.92 273.57,-337.92"/>
<text text-anchor="middle" x="220.62" y="-337.97" font-family="Helvetica,sans-Serif" font-size="14.00" fill="#66cdaa">QueueEnd</text>
</g>
<!-- Level Once Sensor_mustuse -->
<g id="node11" class="node">
<title>Level Once Sensor_mustuse</title>
<polygon fill="none" stroke="black" stroke-dasharray="1,5" points="376.25,-405.75 275.25,-405.75 275.25,-369.75 376.25,-369.75 376.25,-405.75"/>
<text text-anchor="start" x="285.25" y="-382.32" font-family="Helvetica,sans-Serif" font-size="14.00">1 RunAttack &#160;</text>
</g>
<!-- Level Once Sensor&#45;&gt;Level Once Sensor_mustuse -->
<g id="edge6" class="edge">
<title>Level Once Sensor&#45;&gt;Level Once Sensor_mustuse</title>
<path fill="none" stroke="#458b74" d="M159.2,-351.16C192.1,-358.43 231.77,-367.2 264.02,-374.33"/>
<polygon fill="#458b74" stroke="#458b74" points="263.1,-377.71 273.62,-376.45 264.61,-370.87 263.1,-377.71"/>
<text text-anchor="middle" x="220.62" y="-373.7" font-family="Helvetica,sans-Serif" font-size="14.00" fill="#458b74">Weight</text>
</g>
<!-- RunAwaySensor -->
<g id="node12" class="node">
<title>RunAwaySensor</title>
<polygon fill="none" stroke="black" points="151.25,-410.75 34.75,-410.75 34.75,-374.75 151.25,-374.75 151.25,-410.75"/>
<text text-anchor="middle" x="93" y="-387.32" font-family="Helvetica,sans-Serif" font-size="14.00">RunAwaySensor</text>
</g>
<!-- AttackSensor -->
<g id="node13" class="node">
<title>AttackSensor</title>
<polygon fill="none" stroke="black" points="141.12,-465.75 44.88,-465.75 44.88,-429.75 141.12,-429.75 141.12,-465.75"/>
<text text-anchor="middle" x="93" y="-442.32" font-family="Helvetica,sans-Serif" font-size="14.00">AttackSensor</text>
</g>
<!-- AttackSensor_linked -->
<g id="node14" class="node">
<title>AttackSensor_linked</title>
<polygon fill="none" stroke="black" stroke-dasharray="1,5" points="366.23,-459.75 285.27,-459.75 285.27,-423.75 366.23,-423.75 366.23,-459.75"/>
<text text-anchor="start" x="290.88" y="-436.32" font-family="Helvetica,sans-Serif" font-size="14.00">RunAttack &#160;</text>
</g>
<!-- AttackSensor&#45;&gt;AttackSensor_linked -->
<g id="edge7" class="edge">
<title>AttackSensor&#45;&gt;AttackSensor_linked</title>
<path fill="none" stroke="#66cdaa" d="M141.53,-446.51C179.99,-445.51 234.06,-444.11 273.49,-443.08"/>
<polygon fill="#66cdaa" stroke="#66cdaa" points="273.54,-446.58 283.45,-442.82 273.36,-439.59 273.54,-446.58"/>
<text text-anchor="middle" x="220.62" y="-447.74" font-family="Helvetica,sans-Serif" font-size="14.00" fill="#66cdaa">QueueEnd</text>
</g>
<!-- AttackSensor_mustuse -->
<g id="node15" class="node">
<title>AttackSensor_mustuse</title>
<polygon fill="none" stroke="black" stroke-dasharray="1,5" points="376.25,-513.75 275.25,-513.75 275.25,-477.75 376.25,-477.75 376.25,-513.75"/>
<text text-anchor="start" x="285.25" y="-490.32" font-family="Helvetica,sans-Serif" font-size="14.00">1 RunAttack &#160;</text>
</g>
<!-- AttackSensor&#45;&gt;AttackSensor_mustuse -->
<g id="edge8" class="edge">
<title>AttackSensor&#45;&gt;AttackSensor_mustuse</title>
<path fill="none" stroke="#458b74" d="M141.53,-457.64C176.95,-465.01 225.61,-475.13 263.88,-483.09"/>
<polygon fill="#458b74" stroke="#458b74" points="262.9,-486.46 273.4,-485.07 264.33,-479.61 262.9,-486.46"/>
<text text-anchor="middle" x="220.62" y="-482.67" font-family="Helvetica,sans-Serif" font-size="14.00" fill="#458b74">Weight</text>
</g>
<!-- DodgePredictSensor -->
<g id="node16" class="node">
<title>DodgePredictSensor</title>
<polygon fill="none" stroke="black" points="24,-509.75 24,-531.5 162,-531.5 162,-509.75 24,-509.75"/>
<text text-anchor="start" x="27" y="-515.2" font-family="Helvetica,sans-Serif" font-size="14.00">DodgePredictSensor &#160;</text>
<polygon fill="none" stroke="black" points="24,-488 24,-509.75 162,-509.75 162,-488 24,-488"/>
<text text-anchor="start" x="27" y="-494.45" font-family="Helvetica,sans-Serif" font-size="12.00" fill="#838b8b">if: rollingCondition</text>
<text text-anchor="start" x="123.75" y="-494.45" font-family="Helvetica,sans-Serif" font-size="14.00"> &#160;</text>
</g>
<!-- DodgePredictSensor_linked -->
<g id="node17" class="node">
<title>DodgePredictSensor_linked</title>
<polygon fill="none" stroke="black" stroke-dasharray="1,5" points="366.23,-567.75 285.27,-567.75 285.27,-531.75 366.23,-531.75 366.23,-567.75"/>
<text text-anchor="start" x="290.88" y="-544.33" font-family="Helvetica,sans-Serif" font-size="14.00">RunAttack &#160;</text>
</g>
<!-- DodgePredictSensor&#45;&gt;DodgePredictSensor_linked -->
<g id="edge9" class="edge">
<title>DodgePredictSensor&#45;&gt;DodgePredictSensor_linked</title>
<path fill="none" stroke="#66cdaa" d="M169.88,-522.9C203.89,-528.8 243.11,-535.6 273.57,-540.88"/>
<polygon fill="#66cdaa" stroke="#66cdaa" points="272.84,-544.3 283.29,-542.56 274.04,-537.41 272.84,-544.3"/>
<text text-anchor="middle" x="220.62" y="-539.26" font-family="Helvetica,sans-Serif" font-size="14.00" fill="#66cdaa">QueueEnd</text>
</g>
<!-- AttackPredictSensor -->
<g id="node18" class="node">
<title>AttackPredictSensor</title>
<polygon fill="none" stroke="black" points="25.12,-579.75 25.12,-601.5 160.88,-601.5 160.88,-579.75 25.12,-579.75"/>
<text text-anchor="start" x="28.12" y="-585.2" font-family="Helvetica,sans-Serif" font-size="14.00">AttackPredictSensor &#160;</text>
<polygon fill="none" stroke="black" points="25.12,-558 25.12,-579.75 160.88,-579.75 160.88,-558 25.12,-558"/>
<text text-anchor="start" x="28.12" y="-564.45" font-family="Helvetica,sans-Serif" font-size="12.00" fill="#838b8b">if: attackCondition</text>
<text text-anchor="start" x="123.38" y="-564.45" font-family="Helvetica,sans-Serif" font-size="14.00"> &#160;</text>
</g>
<!-- AttackPredictSensor_linked -->
<g id="node19" class="node">
<title>AttackPredictSensor_linked</title>
<polygon fill="none" stroke="black" stroke-dasharray="1,5" points="366.23,-621.75 285.27,-621.75 285.27,-585.75 366.23,-585.75 366.23,-621.75"/>
<text text-anchor="start" x="290.88" y="-598.33" font-family="Helvetica,sans-Serif" font-size="14.00">RunAttack &#160;</text>
</g>
<!-- AttackPredictSensor&#45;&gt;AttackPredictSensor_linked -->
<g id="edge10" class="edge">
<title>AttackPredictSensor&#45;&gt;AttackPredictSensor_linked</title>
<path fill="none" stroke="#66cdaa" d="M168.6,-587.51C202.93,-591.08 242.78,-595.22 273.63,-598.43"/>
<polygon fill="#66cdaa" stroke="#66cdaa" points="273.17,-601.9 283.48,-599.46 273.9,-594.94 273.17,-601.9"/>
<text text-anchor="middle" x="220.62" y="-598.44" font-family="Helvetica,sans-Serif" font-size="14.00" fill="#66cdaa">QueueEnd</text>
</g>
<!-- AttackRunToSensor -->
<g id="node20" class="node">
<title>AttackRunToSensor</title>
<polygon fill="none" stroke="black" points="26.62,-649.75 26.62,-671.5 159.38,-671.5 159.38,-649.75 26.62,-649.75"/>
<text text-anchor="start" x="29.62" y="-655.2" font-family="Helvetica,sans-Serif" font-size="14.00">AttackRunToSensor &#160;</text>
<polygon fill="none" stroke="black" points="26.62,-628 26.62,-649.75 159.38,-649.75 159.38,-628 26.62,-628"/>
<text text-anchor="start" x="29.62" y="-634.45" font-family="Helvetica,sans-Serif" font-size="12.00" fill="#838b8b">if: state is Engaging</text>
<text text-anchor="start" x="133.88" y="-634.45" font-family="Helvetica,sans-Serif" font-size="14.00"> &#160;</text>
</g>
<!-- AttackRunToSensor_linked -->
<g id="node21" class="node">
<title>AttackRunToSensor_linked</title>
<polygon fill="none" stroke="black" stroke-dasharray="1,5" points="366.23,-675.75 285.27,-675.75 285.27,-639.75 366.23,-639.75 366.23,-675.75"/>
<text text-anchor="start" x="290.88" y="-652.33" font-family="Helvetica,sans-Serif" font-size="14.00">RunAttack &#160;</text>
</g>
<!-- AttackRunToSensor&#45;&gt;AttackRunToSensor_linked -->
<g id="edge11" class="edge">
<title>AttackRunToSensor&#45;&gt;AttackRunToSensor_linked</title>
<path fill="none" stroke="#66cdaa" d="M167.33,-652.29C201.85,-653.49 242.19,-654.89 273.39,-655.97"/>
<polygon fill="#66cdaa" stroke="#66cdaa" points="273.24,-659.47 283.35,-656.31 273.48,-652.47 273.24,-659.47"/>
<text text-anchor="middle" x="220.62" y="-657.61" font-family="Helvetica,sans-Serif" font-size="14.00" fill="#66cdaa">QueueEnd</text>
</g>
</g>
</svg>
