<?xml version="1.0" encoding="UTF-8" standalone="no"?>
<!DOCTYPE svg PUBLIC "-//W3C//DTD SVG 1.1//EN"
 "http://www.w3.org/Graphics/SVG/1.1/DTD/svg11.dtd">
<!-- Generated by graphviz version 12.2.1 (20241206.2353)
 -->
<!-- Title: Foo Pages: 1 -->
<svg width="505pt" height="724pt"
 viewBox="0.00 0.00 505.00 724.00" xmlns="http://www.w3.org/2000/svg" xmlns:xlink="http://www.w3.org/1999/xlink">
<g id="graph0" class="graph" transform="scale(1 1) rotate(0) translate(4 720)">
<title>Foo</title>
<polygon fill="white" stroke="none" points="-4,4 -4,-720 501,-720 501,4 -4,4"/>
<g id="clust1" class="cluster">
<title>cluster_attacksensors</title>
<polygon fill="none" stroke="black" points="8,-8 8,-408 384.25,-408 384.25,-8 8,-8"/>
<text text-anchor="middle" x="196.12" y="-390.7" font-family="Helvetica,sans-Serif" font-size="14.00">Attack Sensors</text>
</g>
<!-- Level Once Sensor -->
<g id="node1" class="node">
<title>Level Once Sensor</title>
<polygon fill="none" stroke="black" points="28.5,-24.12 28.5,-45.88 157.5,-45.88 157.5,-24.12 28.5,-24.12"/>
<text text-anchor="start" x="31.5" y="-29.57" font-family="Helvetica,sans-Serif" font-size="14.00">Level Once Sensor &#160;</text>
</g>
<!-- Level Once Sensor_linked -->
<g id="node2" class="node">
<title>Level Once Sensor_linked</title>
<polygon fill="none" stroke="black" stroke-dasharray="1,5" points="366.23,-52 285.27,-52 285.27,-16 366.23,-16 366.23,-52"/>
<text text-anchor="start" x="290.88" y="-28.57" font-family="Helvetica,sans-Serif" font-size="14.00">RunAttack &#160;</text>
</g>
<!-- Level Once Sensor&#45;&gt;Level Once Sensor_linked -->
<g id="edge1" class="edge">
<title>Level Once Sensor&#45;&gt;Level Once Sensor_linked</title>
<path fill="none" stroke="#66cdaa" d="M165.43,-34.69C200.44,-34.54 241.8,-34.36 273.6,-34.22"/>
<polygon fill="#66cdaa" stroke="#66cdaa" points="273.36,-37.72 283.35,-34.18 273.33,-30.72 273.36,-37.72"/>
<text text-anchor="middle" x="220.62" y="-37.04" font-family="Helvetica,sans-Serif" font-size="14.00" fill="#66cdaa">QueueEnd</text>
</g>
<!-- Level Once Sensor_weight -->
<g id="node3" class="node">
<title>Level Once Sensor_weight</title>
<polygon fill="none" stroke="black" stroke-dasharray="1,5" points="376.25,-106 275.25,-106 275.25,-70 376.25,-70 376.25,-106"/>
<text text-anchor="start" x="285.25" y="-82.58" font-family="Helvetica,sans-Serif" font-size="14.00">1 RunAttack &#160;</text>
</g>
<!-- Level Once Sensor&#45;&gt;Level Once Sensor_weight -->
<g id="edge2" class="edge">
<title>Level Once Sensor&#45;&gt;Level Once Sensor_weight</title>
<path fill="none" stroke="#458b74" d="M165.43,-51.41C197.02,-58.66 233.78,-67.11 264.03,-74.05"/>
<polygon fill="#458b74" stroke="#458b74" points="262.85,-77.37 273.38,-76.2 264.42,-70.55 262.85,-77.37"/>
<text text-anchor="middle" x="220.62" y="-73.31" font-family="Helvetica,sans-Serif" font-size="14.00" fill="#458b74">Weight</text>
</g>
<!-- RunAwaySensor -->
<g id="node4" class="node">
<title>RunAwaySensor</title>
<polygon fill="none" stroke="black" points="36,-79.12 36,-100.88 150,-100.88 150,-79.12 36,-79.12"/>
<text text-anchor="start" x="39" y="-84.58" font-family="Helvetica,sans-Serif" font-size="14.00">RunAwaySensor &#160;</text>
</g>
<!-- AttackSensor -->
<g id="node5" class="node">
<title>AttackSensor</title>
<polygon fill="none" stroke="black" points="46.12,-136.12 46.12,-157.88 139.88,-157.88 139.88,-136.12 46.12,-136.12"/>
<text text-anchor="start" x="49.12" y="-141.57" font-family="Helvetica,sans-Serif" font-size="14.00">AttackSensor &#160;</text>
</g>
<!-- AttackSensor_linked -->
<g id="node6" class="node">
<title>AttackSensor_linked</title>
<polygon fill="none" stroke="black" stroke-dasharray="1,5" points="366.23,-160 285.27,-160 285.27,-124 366.23,-124 366.23,-160"/>
<text text-anchor="start" x="290.88" y="-136.57" font-family="Helvetica,sans-Serif" font-size="14.00">RunAttack &#160;</text>
</g>
<!-- AttackSensor&#45;&gt;AttackSensor_linked -->
<g id="edge3" class="edge">
<title>AttackSensor&#45;&gt;AttackSensor_linked</title>
<path fill="none" stroke="#66cdaa" d="M147.81,-145.83C185.83,-145.01 236.46,-143.91 273.81,-143.1"/>
<polygon fill="#66cdaa" stroke="#66cdaa" points="273.52,-146.61 283.44,-142.9 273.37,-139.61 273.52,-146.61"/>
<text text-anchor="middle" x="220.62" y="-147.4" font-family="Helvetica,sans-Serif" font-size="14.00" fill="#66cdaa">QueueEnd</text>
</g>
<!-- AttackSensor_weight -->
<g id="node7" class="node">
<title>AttackSensor_weight</title>
<polygon fill="none" stroke="black" stroke-dasharray="1,5" points="376.25,-214 275.25,-214 275.25,-178 376.25,-178 376.25,-214"/>
<text text-anchor="start" x="285.25" y="-190.57" font-family="Helvetica,sans-Serif" font-size="14.00">1 RunAttack &#160;</text>
</g>
<!-- AttackSensor&#45;&gt;AttackSensor_weight -->
<g id="edge4" class="edge">
<title>AttackSensor&#45;&gt;AttackSensor_weight</title>
<path fill="none" stroke="#458b74" d="M147.81,-158.43C182.57,-165.81 227.87,-175.43 263.93,-183.09"/>
<polygon fill="#458b74" stroke="#458b74" points="262.82,-186.43 273.32,-185.08 264.27,-179.58 262.82,-186.43"/>
<text text-anchor="middle" x="220.62" y="-182.6" font-family="Helvetica,sans-Serif" font-size="14.00" fill="#458b74">Weight</text>
</g>
<!-- DodgePredictSensor -->
<g id="node8" class="node">
<title>DodgePredictSensor</title>
<polygon fill="none" stroke="black" points="24,-210 24,-231.75 162,-231.75 162,-210 24,-210"/>
<text text-anchor="start" x="27" y="-215.45" font-family="Helvetica,sans-Serif" font-size="14.00">DodgePredictSensor &#160;</text>
<polygon fill="none" stroke="black" points="24,-188.25 24,-210 162,-210 162,-188.25 24,-188.25"/>
<text text-anchor="start" x="27" y="-194.7" font-family="Helvetica,sans-Serif" font-size="12.00" fill="#838b8b">if: rollingCondition</text>
<text text-anchor="start" x="123.75" y="-194.7" font-family="Helvetica,sans-Serif" font-size="14.00"> &#160;</text>
</g>
<!-- DodgePredictSensor_linked -->
<g id="node9" class="node">
<title>DodgePredictSensor_linked</title>
<polygon fill="none" stroke="black" stroke-dasharray="1,5" points="366.23,-268 285.27,-268 285.27,-232 366.23,-232 366.23,-268"/>
<text text-anchor="start" x="290.88" y="-244.57" font-family="Helvetica,sans-Serif" font-size="14.00">RunAttack &#160;</text>
</g>
<!-- DodgePredictSensor&#45;&gt;DodgePredictSensor_linked -->
<g id="edge5" class="edge">
<title>DodgePredictSensor&#45;&gt;DodgePredictSensor_linked</title>
<path fill="none" stroke="#66cdaa" d="M169.88,-223.15C203.89,-229.05 243.11,-235.85 273.57,-241.13"/>
<polygon fill="#66cdaa" stroke="#66cdaa" points="272.84,-244.55 283.29,-242.81 274.04,-237.66 272.84,-244.55"/>
<text text-anchor="middle" x="220.62" y="-239.51" font-family="Helvetica,sans-Serif" font-size="14.00" fill="#66cdaa">QueueEnd</text>
</g>
<!-- AttackPredictSensor -->
<g id="node10" class="node">
<title>AttackPredictSensor</title>
<polygon fill="none" stroke="black" points="25.12,-280 25.12,-301.75 160.88,-301.75 160.88,-280 25.12,-280"/>
<text text-anchor="start" x="28.12" y="-285.45" font-family="Helvetica,sans-Serif" font-size="14.00">AttackPredictSensor &#160;</text>
<polygon fill="none" stroke="black" points="25.12,-258.25 25.12,-280 160.88,-280 160.88,-258.25 25.12,-258.25"/>
<text text-anchor="start" x="28.12" y="-264.7" font-family="Helvetica,sans-Serif" font-size="12.00" fill="#838b8b">if: attackCondition</text>
<text text-anchor="start" x="123.38" y="-264.7" font-family="Helvetica,sans-Serif" font-size="14.00"> &#160;</text>
</g>
<!-- AttackPredictSensor_linked -->
<g id="node11" class="node">
<title>AttackPredictSensor_linked</title>
<polygon fill="none" stroke="black" stroke-dasharray="1,5" points="366.23,-322 285.27,-322 285.27,-286 366.23,-286 366.23,-322"/>
<text text-anchor="start" x="290.88" y="-298.57" font-family="Helvetica,sans-Serif" font-size="14.00">RunAttack &#160;</text>
</g>
<!-- AttackPredictSensor&#45;&gt;AttackPredictSensor_linked -->
<g id="edge6" class="edge">
<title>AttackPredictSensor&#45;&gt;AttackPredictSensor_linked</title>
<path fill="none" stroke="#66cdaa" d="M168.6,-287.76C202.93,-291.33 242.78,-295.47 273.63,-298.68"/>
<polygon fill="#66cdaa" stroke="#66cdaa" points="273.17,-302.15 283.48,-299.71 273.9,-295.19 273.17,-302.15"/>
<text text-anchor="middle" x="220.62" y="-298.69" font-family="Helvetica,sans-Serif" font-size="14.00" fill="#66cdaa">QueueEnd</text>
</g>
<!-- AttackRunToSensor -->
<g id="node12" class="node">
<title>AttackRunToSensor</title>
<polygon fill="none" stroke="black" points="26.62,-350 26.62,-371.75 159.38,-371.75 159.38,-350 26.62,-350"/>
<text text-anchor="start" x="29.62" y="-355.45" font-family="Helvetica,sans-Serif" font-size="14.00">AttackRunToSensor &#160;</text>
<polygon fill="none" stroke="black" points="26.62,-328.25 26.62,-350 159.38,-350 159.38,-328.25 26.62,-328.25"/>
<text text-anchor="start" x="29.62" y="-334.7" font-family="Helvetica,sans-Serif" font-size="12.00" fill="#838b8b">if: state is Engaging</text>
<text text-anchor="start" x="133.88" y="-334.7" font-family="Helvetica,sans-Serif" font-size="14.00"> &#160;</text>
</g>
<!-- AttackRunToSensor_linked -->
<g id="node13" class="node">
<title>AttackRunToSensor_linked</title>
<polygon fill="none" stroke="black" stroke-dasharray="1,5" points="366.23,-376 285.27,-376 285.27,-340 366.23,-340 366.23,-376"/>
<text text-anchor="start" x="290.88" y="-352.57" font-family="Helvetica,sans-Serif" font-size="14.00">RunAttack &#160;</text>
</g>
<!-- AttackRunToSensor&#45;&gt;AttackRunToSensor_linked -->
<g id="edge7" class="edge">
<title>AttackRunToSensor&#45;&gt;AttackRunToSensor_linked</title>
<path fill="none" stroke="#66cdaa" d="M167.33,-352.54C201.85,-353.74 242.19,-355.14 273.39,-356.22"/>
<polygon fill="#66cdaa" stroke="#66cdaa" points="273.24,-359.72 283.35,-356.56 273.48,-352.72 273.24,-359.72"/>
<text text-anchor="middle" x="220.62" y="-357.86" font-family="Helvetica,sans-Serif" font-size="14.00" fill="#66cdaa">QueueEnd</text>
</g>
<!-- RunAttack -->
<g id="node14" class="node">
<title>RunAttack</title>
<polygon fill="none" stroke="black" points="54,-512 54,-533.75 132,-533.75 132,-512 54,-512"/>
<text text-anchor="start" x="58.12" y="-517.45" font-family="Helvetica,sans-Serif" font-size="14.00">RunAttack &#160;</text>
<polygon fill="none" stroke="black" points="54,-490.25 54,-512 132,-512 132,-490.25 54,-490.25"/>
<text text-anchor="start" x="57" y="-496.7" font-family="Helvetica,sans-Serif" font-size="12.00" fill="#838b8b">2.08s: Done</text>
<text text-anchor="start" x="121.5" y="-496.7" font-family="Helvetica,sans-Serif" font-size="14.00"> &#160;</text>
</g>
<!--  KeepRun -->
<g id="node15" class="node">
<title> KeepRun</title>
<polygon fill="none" stroke="black" points="289,-466.12 289,-487.88 362.5,-487.88 362.5,-466.12 289,-466.12"/>
<text text-anchor="start" x="292" y="-471.57" font-family="Helvetica,sans-Serif" font-size="14.00"> KeepRun &#160;</text>
</g>
<!-- RunAttack&#45;&gt; KeepRun -->
<g id="edge8" class="edge">
<title>RunAttack&#45;&gt; KeepRun</title>
<path fill="none" stroke="#cdc8b1" d="M139.86,-505.04C177.31,-499.36 230.32,-491.32 269.99,-485.31"/>
<polygon fill="#cdc8b1" stroke="#cdc8b1" points="270.46,-488.78 279.82,-483.82 269.41,-481.85 270.46,-488.78"/>
</g>
<!--  Explode Self -->
<g id="node16" class="node">
<title> Explode Self</title>
<polygon fill="none" stroke="black" points="279.25,-582 279.25,-603.75 372.25,-603.75 372.25,-582 279.25,-582"/>
<text text-anchor="start" x="282.25" y="-587.45" font-family="Helvetica,sans-Serif" font-size="14.00"> Explode Self &#160;</text>
<polygon fill="none" stroke="black" points="279.25,-560.25 279.25,-582 372.25,-582 372.25,-560.25 279.25,-560.25"/>
<text text-anchor="start" x="282.25" y="-566.7" font-family="Helvetica,sans-Serif" font-size="12.00" fill="#838b8b">0.08s: Done</text>
<text text-anchor="start" x="346.75" y="-566.7" font-family="Helvetica,sans-Serif" font-size="14.00"> &#160;</text>
</g>
<!-- DeadState -->
<g id="node17" class="node">
<title>DeadState</title>
<polygon fill="none" stroke="black" points="497,-600 417.25,-600 417.25,-564 497,-564 497,-600"/>
<text text-anchor="middle" x="457.12" y="-576.58" font-family="Helvetica,sans-Serif" font-size="14.00">DeadState</text>
</g>
<!--  Explode Self&#45;&gt;DeadState -->
<g id="edge9" class="edge">
<title> Explode Self&#45;&gt;DeadState</title>
<path fill="none" stroke="#cdc8b1" d="M380.12,-582C388.64,-582 397.42,-582 405.87,-582"/>
<polygon fill="#cdc8b1" stroke="#cdc8b1" points="405.59,-585.5 415.59,-582 405.59,-578.5 405.59,-585.5"/>
</g>
<!--  PrepareToExplode -->
<g id="node18" class="node">
<title> PrepareToExplode</title>
<polygon fill="none" stroke="black" points="28.88,-582 28.88,-603.75 157.12,-603.75 157.12,-582 28.88,-582"/>
<text text-anchor="start" x="31.88" y="-587.45" font-family="Helvetica,sans-Serif" font-size="14.00"> PrepareToExplode &#160;</text>
<polygon fill="none" stroke="black" points="28.88,-560.25 28.88,-582 157.12,-582 157.12,-560.25 28.88,-560.25"/>
<text text-anchor="start" x="31.88" y="-566.7" font-family="Helvetica,sans-Serif" font-size="12.00" fill="#838b8b">0.92s: Done</text>
<text text-anchor="start" x="96.38" y="-566.7" font-family="Helvetica,sans-Serif" font-size="14.00"> &#160;</text>
</g>
<!--  PrepareToExplode&#45;&gt; Explode Self -->
<g id="edge10" class="edge">
<title> PrepareToExplode&#45;&gt; Explode Self</title>
<path fill="none" stroke="#cdc8b1" d="M165.12,-582C195.39,-582 230.46,-582 260.01,-582"/>
<polygon fill="#cdc8b1" stroke="#cdc8b1" points="259.95,-585.5 269.95,-582 259.95,-578.5 259.95,-585.5"/>
</g>
<!--  QuickRunAttack -->
<g id="node19" class="node">
<title> QuickRunAttack</title>
<polygon fill="none" stroke="black" points="35.62,-442 35.62,-463.75 150.38,-463.75 150.38,-442 35.62,-442"/>
<text text-anchor="start" x="38.62" y="-447.45" font-family="Helvetica,sans-Serif" font-size="14.00"> QuickRunAttack &#160;</text>
<polygon fill="none" stroke="black" points="35.62,-420.25 35.62,-442 150.38,-442 150.38,-420.25 35.62,-420.25"/>
<text text-anchor="start" x="38.62" y="-426.7" font-family="Helvetica,sans-Serif" font-size="12.00" fill="#838b8b">1.33s: Done</text>
<text text-anchor="start" x="103.12" y="-426.7" font-family="Helvetica,sans-Serif" font-size="14.00"> &#160;</text>
</g>
<!--  QuickRunAttack&#45;&gt; KeepRun -->
<g id="edge11" class="edge">
<title> QuickRunAttack&#45;&gt; KeepRun</title>
<path fill="none" stroke="#cdc8b1" d="M158.28,-451.75C193.5,-457.09 236.69,-463.64 270.25,-468.73"/>
<polygon fill="#cdc8b1" stroke="#cdc8b1" points="269.33,-472.13 279.74,-470.17 270.37,-465.21 269.33,-472.13"/>
</g>
<!-- AttackParrying -->
<g id="node20" class="node">
<title>AttackParrying</title>
<polygon fill="none" stroke="black" points="42.38,-633.12 42.38,-654.88 143.62,-654.88 143.62,-633.12 42.38,-633.12"/>
<text text-anchor="start" x="45.38" y="-638.58" font-family="Helvetica,sans-Serif" font-size="14.00">AttackParrying &#160;</text>
</g>
<!-- Wandering_Idle -->
<g id="node21" class="node">
<title>Wandering_Idle</title>
<polygon fill="none" stroke="black" points="163.62,-716 22.38,-716 22.38,-680 163.62,-680 163.62,-716"/>
<text text-anchor="middle" x="93" y="-692.58" font-family="Helvetica,sans-Serif" font-size="14.00">Wandering_Idle (Init)</text>
</g>
</g>
</svg>
