<?xml version="1.0" encoding="UTF-8" standalone="no"?>
<!DOCTYPE svg PUBLIC "-//W3C//DTD SVG 1.1//EN"
 "http://www.w3.org/Graphics/SVG/1.1/DTD/svg11.dtd">
<!-- Generated by graphviz version 12.2.1 (20241206.2353)
 -->
<!-- Title: Foo Pages: 1 -->
<svg width="371pt" height="928pt"
 viewBox="0.00 0.00 370.75 928.00" xmlns="http://www.w3.org/2000/svg" xmlns:xlink="http://www.w3.org/1999/xlink">
<g id="graph0" class="graph" transform="scale(1 1) rotate(0) translate(4 924)">
<title>Foo</title>
<polygon fill="white" stroke="none" points="-4,4 -4,-924 366.75,-924 366.75,4 -4,4"/>
<g id="clust1" class="cluster">
<title>cluster_attacksensors</title>
<polygon fill="none" stroke="black" points="8,-8 8,-472 354.75,-472 354.75,-8 8,-8"/>
<text text-anchor="middle" x="181.38" y="-454.7" font-family="Helvetica,sans-Serif" font-size="14.00">Attack Sensors</text>
</g>
<!-- Level Once Sensor -->
<g id="node1" class="node">
<title>Level Once Sensor</title>
<polygon fill="none" stroke="black" points="28.5,-23.12 28.5,-44.88 157.5,-44.88 157.5,-23.12 28.5,-23.12"/>
<text text-anchor="start" x="31.5" y="-28.57" font-family="Helvetica,sans-Serif" font-size="14.00">Level Once Sensor &#160;</text>
</g>
<!-- Level Once Sensor_linked -->
<g id="node2" class="node">
<title>Level Once Sensor_linked</title>
<polygon fill="none" stroke="black" stroke-dasharray="1,5" points="337.1,-52 280.9,-52 280.9,-16 337.1,-16 337.1,-52"/>
<text text-anchor="start" x="286.5" y="-28.57" font-family="Helvetica,sans-Serif" font-size="14.00">Attack &#160;</text>
</g>
<!-- Level Once Sensor&#45;&gt;Level Once Sensor_linked -->
<g id="edge1" class="edge">
<title>Level Once Sensor&#45;&gt;Level Once Sensor_linked</title>
<path fill="none" stroke="#66cdaa" d="M165.26,-34C199.99,-34 240.4,-34 269.34,-34"/>
<polygon fill="#66cdaa" stroke="#66cdaa" points="269.09,-37.5 279.09,-34 269.09,-30.5 269.09,-37.5"/>
<text text-anchor="middle" x="220.62" y="-36.45" font-family="Helvetica,sans-Serif" font-size="14.00" fill="#66cdaa">QueueEnd</text>
</g>
<!-- Level Once Sensor_weight -->
<g id="node3" class="node">
<title>Level Once Sensor_weight</title>
<polygon fill="none" stroke="black" stroke-dasharray="1,5" points="346.75,-106 271.25,-106 271.25,-70 346.75,-70 346.75,-106"/>
<text text-anchor="start" x="281.25" y="-82.58" font-family="Helvetica,sans-Serif" font-size="14.00">1 Attack &#160;</text>
</g>
<!-- Level Once Sensor&#45;&gt;Level Once Sensor_weight -->
<g id="edge2" class="edge">
<title>Level Once Sensor&#45;&gt;Level Once Sensor_weight</title>
<path fill="none" stroke="#458b74" d="M165.26,-51.98C196.36,-59.83 232,-68.82 259.9,-75.86"/>
<polygon fill="#458b74" stroke="#458b74" points="258.93,-79.23 269.48,-78.28 260.64,-72.44 258.93,-79.23"/>
<text text-anchor="middle" x="220.62" y="-75.97" font-family="Helvetica,sans-Serif" font-size="14.00" fill="#458b74">Weight</text>
</g>
<!-- RunAwaySensor -->
<g id="node4" class="node">
<title>RunAwaySensor</title>
<polygon fill="none" stroke="black" points="36,-77.12 36,-98.88 150,-98.88 150,-77.12 36,-77.12"/>
<text text-anchor="start" x="39" y="-82.58" font-family="Helvetica,sans-Serif" font-size="14.00">RunAwaySensor &#160;</text>
</g>
<!-- AttackSensor -->
<g id="node5" class="node">
<title>AttackSensor</title>
<polygon fill="none" stroke="black" points="34.12,-150 34.12,-171.75 151.88,-171.75 151.88,-150 34.12,-150"/>
<text text-anchor="start" x="49.12" y="-155.45" font-family="Helvetica,sans-Serif" font-size="14.00">AttackSensor &#160;</text>
<polygon fill="none" stroke="black" points="34.12,-128.25 34.12,-150 151.88,-150 151.88,-128.25 34.12,-128.25"/>
<text text-anchor="start" x="37.12" y="-134.7" font-family="Helvetica,sans-Serif" font-size="12.00" fill="#838b8b">if: state is PreAttack</text>
<text text-anchor="start" x="141.38" y="-134.7" font-family="Helvetica,sans-Serif" font-size="14.00"> &#160;</text>
</g>
<!-- AttackSensor_linked -->
<g id="node6" class="node">
<title>AttackSensor_linked</title>
<polygon fill="none" stroke="black" stroke-dasharray="1,5" points="337.1,-168 280.9,-168 280.9,-132 337.1,-132 337.1,-168"/>
<text text-anchor="start" x="286.5" y="-144.57" font-family="Helvetica,sans-Serif" font-size="14.00">Attack &#160;</text>
</g>
<!-- AttackSensor&#45;&gt;AttackSensor_linked -->
<g id="edge3" class="edge">
<title>AttackSensor&#45;&gt;AttackSensor_linked</title>
<path fill="none" stroke="#66cdaa" d="M159.66,-150C195.46,-150 238.54,-150 269.03,-150"/>
<polygon fill="#66cdaa" stroke="#66cdaa" points="268.95,-153.5 278.95,-150 268.95,-146.5 268.95,-153.5"/>
<text text-anchor="middle" x="220.62" y="-152.45" font-family="Helvetica,sans-Serif" font-size="14.00" fill="#66cdaa">QueueEnd</text>
</g>
<!-- DodgePredictSensor -->
<g id="node7" class="node">
<title>DodgePredictSensor</title>
<polygon fill="none" stroke="black" points="24,-220 24,-241.75 162,-241.75 162,-220 24,-220"/>
<text text-anchor="start" x="27" y="-225.45" font-family="Helvetica,sans-Serif" font-size="14.00">DodgePredictSensor &#160;</text>
<polygon fill="none" stroke="black" points="24,-198.25 24,-220 162,-220 162,-198.25 24,-198.25"/>
<text text-anchor="start" x="27" y="-204.7" font-family="Helvetica,sans-Serif" font-size="12.00" fill="#838b8b">if: rollingCondition</text>
<text text-anchor="start" x="123.75" y="-204.7" font-family="Helvetica,sans-Serif" font-size="14.00"> &#160;</text>
</g>
<!-- DodgePredictSensor_linked -->
<g id="node8" class="node">
<title>DodgePredictSensor_linked</title>
<polygon fill="none" stroke="black" stroke-dasharray="1,5" points="337.1,-238 280.9,-238 280.9,-202 337.1,-202 337.1,-238"/>
<text text-anchor="start" x="286.5" y="-214.57" font-family="Helvetica,sans-Serif" font-size="14.00">Attack &#160;</text>
</g>
<!-- DodgePredictSensor&#45;&gt;DodgePredictSensor_linked -->
<g id="edge4" class="edge">
<title>DodgePredictSensor&#45;&gt;DodgePredictSensor_linked</title>
<path fill="none" stroke="#66cdaa" d="M169.75,-220C203.42,-220 241.61,-220 269.3,-220"/>
<polygon fill="#66cdaa" stroke="#66cdaa" points="268.98,-223.5 278.98,-220 268.98,-216.5 268.98,-223.5"/>
<text text-anchor="middle" x="220.62" y="-222.45" font-family="Helvetica,sans-Serif" font-size="14.00" fill="#66cdaa">QueueEnd</text>
</g>
<!-- AttackPredictSensor -->
<g id="node9" class="node">
<title>AttackPredictSensor</title>
<polygon fill="none" stroke="black" points="25.12,-290 25.12,-311.75 160.88,-311.75 160.88,-290 25.12,-290"/>
<text text-anchor="start" x="28.12" y="-295.45" font-family="Helvetica,sans-Serif" font-size="14.00">AttackPredictSensor &#160;</text>
<polygon fill="none" stroke="black" points="25.12,-268.25 25.12,-290 160.88,-290 160.88,-268.25 25.12,-268.25"/>
<text text-anchor="start" x="28.12" y="-274.7" font-family="Helvetica,sans-Serif" font-size="12.00" fill="#838b8b">if: attackCondition</text>
<text text-anchor="start" x="123.38" y="-274.7" font-family="Helvetica,sans-Serif" font-size="14.00"> &#160;</text>
</g>
<!-- AttackPredictSensor_linked -->
<g id="node10" class="node">
<title>AttackPredictSensor_linked</title>
<polygon fill="none" stroke="black" stroke-dasharray="1,5" points="337.1,-308 280.9,-308 280.9,-272 337.1,-272 337.1,-308"/>
<text text-anchor="start" x="286.5" y="-284.57" font-family="Helvetica,sans-Serif" font-size="14.00">Attack &#160;</text>
</g>
<!-- AttackPredictSensor&#45;&gt;AttackPredictSensor_linked -->
<g id="edge5" class="edge">
<title>AttackPredictSensor&#45;&gt;AttackPredictSensor_linked</title>
<path fill="none" stroke="#66cdaa" d="M168.85,-290C202.7,-290 241.29,-290 269.23,-290"/>
<polygon fill="#66cdaa" stroke="#66cdaa" points="268.99,-293.5 278.99,-290 268.99,-286.5 268.99,-293.5"/>
<text text-anchor="middle" x="220.62" y="-292.45" font-family="Helvetica,sans-Serif" font-size="14.00" fill="#66cdaa">QueueEnd</text>
</g>
<!-- AttackRunToSensor -->
<g id="node11" class="node">
<title>AttackRunToSensor</title>
<polygon fill="none" stroke="black" points="26.62,-360 26.62,-381.75 159.38,-381.75 159.38,-360 26.62,-360"/>
<text text-anchor="start" x="29.62" y="-365.45" font-family="Helvetica,sans-Serif" font-size="14.00">AttackRunToSensor &#160;</text>
<polygon fill="none" stroke="black" points="26.62,-338.25 26.62,-360 159.38,-360 159.38,-338.25 26.62,-338.25"/>
<text text-anchor="start" x="29.62" y="-344.7" font-family="Helvetica,sans-Serif" font-size="12.00" fill="#838b8b">if: state is Engaging</text>
<text text-anchor="start" x="133.88" y="-344.7" font-family="Helvetica,sans-Serif" font-size="14.00"> &#160;</text>
</g>
<!-- AttackRunToSensor_linked -->
<g id="node12" class="node">
<title>AttackRunToSensor_linked</title>
<polygon fill="none" stroke="black" stroke-dasharray="1,5" points="337.1,-378 280.9,-378 280.9,-342 337.1,-342 337.1,-378"/>
<text text-anchor="start" x="286.5" y="-354.57" font-family="Helvetica,sans-Serif" font-size="14.00">Attack &#160;</text>
</g>
<!-- AttackRunToSensor&#45;&gt;AttackRunToSensor_linked -->
<g id="edge6" class="edge">
<title>AttackRunToSensor&#45;&gt;AttackRunToSensor_linked</title>
<path fill="none" stroke="#66cdaa" d="M167.35,-360C201.54,-360 240.84,-360 269.19,-360"/>
<polygon fill="#66cdaa" stroke="#66cdaa" points="269.11,-363.5 279.11,-360 269.11,-356.5 269.11,-363.5"/>
<text text-anchor="middle" x="220.62" y="-362.45" font-family="Helvetica,sans-Serif" font-size="14.00" fill="#66cdaa">QueueEnd</text>
</g>
<!-- TouchSensor -->
<g id="node13" class="node">
<title>TouchSensor</title>
<polygon fill="none" stroke="black" points="46.88,-411.12 46.88,-432.88 139.12,-432.88 139.12,-411.12 46.88,-411.12"/>
<text text-anchor="start" x="49.88" y="-416.57" font-family="Helvetica,sans-Serif" font-size="14.00">TouchSensor &#160;</text>
</g>
<!-- TouchSensor_linked -->
<g id="node14" class="node">
<title>TouchSensor_linked</title>
<polygon fill="none" stroke="black" stroke-dasharray="1,5" points="337.1,-440 280.9,-440 280.9,-404 337.1,-404 337.1,-440"/>
<text text-anchor="start" x="286.5" y="-416.57" font-family="Helvetica,sans-Serif" font-size="14.00">Attack &#160;</text>
</g>
<!-- TouchSensor&#45;&gt;TouchSensor_linked -->
<g id="edge7" class="edge">
<title>TouchSensor&#45;&gt;TouchSensor_linked</title>
<path fill="none" stroke="#66cdaa" d="M146.9,-422C184.76,-422 234.9,-422 269.12,-422"/>
<polygon fill="#66cdaa" stroke="#66cdaa" points="269,-425.5 279,-422 269,-418.5 269,-425.5"/>
<text text-anchor="middle" x="220.62" y="-424.45" font-family="Helvetica,sans-Serif" font-size="14.00" fill="#66cdaa">QueueEnd</text>
</g>
<!-- Attack -->
<g id="node15" class="node">
<title>Attack</title>
<polygon fill="none" stroke="black" points="36.75,-840.12 36.75,-861.88 149.25,-861.88 149.25,-840.12 36.75,-840.12"/>
<text text-anchor="start" x="70.5" y="-845.58" font-family="Helvetica,sans-Serif" font-size="14.00">Attack &#160;</text>
<polygon fill="none" stroke="black" points="36.75,-784.12 36.75,-840.12 149.25,-840.12 149.25,-784.12 36.75,-784.12"/>
<text text-anchor="start" x="39.75" y="-826.73" font-family="Helvetica,sans-Serif" font-size="12.00" fill="#838b8b">0.25s: CheckFacing</text>
<text text-anchor="start" x="39.75" y="-814.73" font-family="Helvetica,sans-Serif" font-size="12.00" fill="#838b8b">0.47s: QTE</text>
<text text-anchor="start" x="39.75" y="-802.73" font-family="Helvetica,sans-Serif" font-size="12.00" fill="#838b8b">0.83s: QTE</text>
<text text-anchor="start" x="39.75" y="-788.83" font-family="Helvetica,sans-Serif" font-size="12.00" fill="#838b8b">1.25s: Done</text>
<text text-anchor="start" x="104.25" y="-788.83" font-family="Helvetica,sans-Serif" font-size="14.00"> &#160;</text>
</g>
<!-- PreAttack -->
<g id="node16" class="node">
<title>PreAttack</title>
<polygon fill="none" stroke="black" points="346.25,-674 271.75,-674 271.75,-638 346.25,-638 346.25,-674"/>
<text text-anchor="middle" x="309" y="-650.58" font-family="Helvetica,sans-Serif" font-size="14.00">PreAttack</text>
</g>
<!-- Attack&#45;&gt;PreAttack -->
<g id="edge8" class="edge">
<title>Attack&#45;&gt;PreAttack</title>
<path fill="none" stroke="#cdc8b1" d="M156.96,-780.61C161.41,-777.41 165.79,-774.18 170,-771 208.83,-741.64 251.62,-705.32 279.1,-681.45"/>
<polygon fill="#cdc8b1" stroke="#cdc8b1" points="281.08,-684.37 286.32,-675.16 276.48,-679.09 281.08,-684.37"/>
</g>
<!-- AttackParrying -->
<g id="node17" class="node">
<title>AttackParrying</title>
<polygon fill="none" stroke="black" points="42.38,-736.12 42.38,-757.88 143.62,-757.88 143.62,-736.12 42.38,-736.12"/>
<text text-anchor="start" x="45.38" y="-741.58" font-family="Helvetica,sans-Serif" font-size="14.00">AttackParrying &#160;</text>
<polygon fill="none" stroke="black" points="42.38,-704.12 42.38,-736.12 143.62,-736.12 143.62,-704.12 42.38,-704.12"/>
<text text-anchor="start" x="45.38" y="-722.73" font-family="Helvetica,sans-Serif" font-size="12.00" fill="#838b8b">0.08s: QTE</text>
<text text-anchor="start" x="45.38" y="-708.83" font-family="Helvetica,sans-Serif" font-size="12.00" fill="#838b8b">0.67s: Done</text>
<text text-anchor="start" x="109.88" y="-708.83" font-family="Helvetica,sans-Serif" font-size="14.00"> &#160;</text>
</g>
<!-- AttackParrying&#45;&gt;PreAttack -->
<g id="edge9" class="edge">
<title>AttackParrying&#45;&gt;PreAttack</title>
<path fill="none" stroke="#cdc8b1" d="M151.35,-710.9C185.61,-698.89 228.59,-683.83 260.87,-672.52"/>
<polygon fill="#cdc8b1" stroke="#cdc8b1" points="261.66,-675.95 269.94,-669.34 259.35,-669.34 261.66,-675.95"/>
</g>
<!-- HurtState -->
<g id="node18" class="node">
<title>HurtState</title>
<polygon fill="none" stroke="black" points="54,-656 54,-677.75 132,-677.75 132,-656 54,-656"/>
<text text-anchor="start" x="60.75" y="-661.45" font-family="Helvetica,sans-Serif" font-size="14.00">HurtState &#160;</text>
<polygon fill="none" stroke="black" points="54,-634.25 54,-656 132,-656 132,-634.25 54,-634.25"/>
<text text-anchor="start" x="57" y="-640.7" font-family="Helvetica,sans-Serif" font-size="12.00" fill="#838b8b">0.25s: Done</text>
<text text-anchor="start" x="121.5" y="-640.7" font-family="Helvetica,sans-Serif" font-size="14.00"> &#160;</text>
</g>
<!-- HurtState&#45;&gt;PreAttack -->
<g id="edge10" class="edge">
<title>HurtState&#45;&gt;PreAttack</title>
<path fill="none" stroke="#cdc8b1" d="M139.91,-656C175.37,-656 224.3,-656 260.22,-656"/>
<polygon fill="#cdc8b1" stroke="#cdc8b1" points="259.88,-659.5 269.88,-656 259.88,-652.5 259.88,-659.5"/>
</g>
<!-- Hurt_BigState -->
<g id="node19" class="node">
<title>Hurt_BigState</title>
<polygon fill="none" stroke="black" points="44.25,-586 44.25,-607.75 141.75,-607.75 141.75,-586 44.25,-586"/>
<text text-anchor="start" x="47.25" y="-591.45" font-family="Helvetica,sans-Serif" font-size="14.00">Hurt_BigState &#160;</text>
<polygon fill="none" stroke="black" points="44.25,-564.25 44.25,-586 141.75,-586 141.75,-564.25 44.25,-564.25"/>
<text text-anchor="start" x="47.25" y="-570.7" font-family="Helvetica,sans-Serif" font-size="12.00" fill="#838b8b">1.00s: Done</text>
<text text-anchor="start" x="111.75" y="-570.7" font-family="Helvetica,sans-Serif" font-size="14.00"> &#160;</text>
</g>
<!-- Hurt_BigState&#45;&gt;PreAttack -->
<g id="edge11" class="edge">
<title>Hurt_BigState&#45;&gt;PreAttack</title>
<path fill="none" stroke="#cdc8b1" d="M149.67,-604.21C184.16,-615.49 227.98,-629.82 260.77,-640.55"/>
<polygon fill="#cdc8b1" stroke="#cdc8b1" points="259.41,-643.79 270,-643.57 261.58,-637.13 259.41,-643.79"/>
</g>
<!-- PostureBreak -->
<g id="node20" class="node">
<title>PostureBreak</title>
<polygon fill="none" stroke="black" points="34.5,-516.12 34.5,-537.88 151.5,-537.88 151.5,-516.12 34.5,-516.12"/>
<text text-anchor="start" x="48.38" y="-521.58" font-family="Helvetica,sans-Serif" font-size="14.00">PostureBreak &#160;</text>
<polygon fill="none" stroke="black" points="34.5,-484.12 34.5,-516.12 151.5,-516.12 151.5,-484.12 34.5,-484.12"/>
<text text-anchor="start" x="37.5" y="-502.73" font-family="Helvetica,sans-Serif" font-size="12.00" fill="#838b8b">0.00s: EnableGravity</text>
<text text-anchor="start" x="37.5" y="-488.83" font-family="Helvetica,sans-Serif" font-size="12.00" fill="#838b8b">3.50s: Done</text>
<text text-anchor="start" x="102" y="-488.83" font-family="Helvetica,sans-Serif" font-size="14.00"> &#160;</text>
</g>
<!-- PostureBreak&#45;&gt;PreAttack -->
<g id="edge12" class="edge">
<title>PostureBreak&#45;&gt;PreAttack</title>
<path fill="none" stroke="#cdc8b1" d="M154.64,-541.82C159.9,-544.82 165.08,-547.9 170,-551 209.03,-575.6 216.61,-584.97 253.25,-613 260.77,-618.75 268.82,-625.01 276.36,-630.93"/>
<polygon fill="#cdc8b1" stroke="#cdc8b1" points="273.71,-633.3 283.74,-636.73 278.04,-627.8 273.71,-633.3"/>
</g>
<!-- Wandering_Idle -->
<g id="node21" class="node">
<title>Wandering_Idle</title>
<polygon fill="none" stroke="black" points="163.62,-920 22.38,-920 22.38,-884 163.62,-884 163.62,-920"/>
<text text-anchor="middle" x="93" y="-896.58" font-family="Helvetica,sans-Serif" font-size="14.00">Wandering_Idle (Init)</text>
</g>
</g>
</svg>
