<?xml version="1.0" encoding="UTF-8" standalone="no"?>
<!DOCTYPE svg PUBLIC "-//W3C//DTD SVG 1.1//EN"
 "http://www.w3.org/Graphics/SVG/1.1/DTD/svg11.dtd">
<!-- Generated by graphviz version 12.2.1 (20241206.2353)
 -->
<!-- Title: Foo Pages: 1 -->
<svg width="507pt" height="893pt"
 viewBox="0.00 0.00 506.50 893.00" xmlns="http://www.w3.org/2000/svg" xmlns:xlink="http://www.w3.org/1999/xlink">
<g id="graph0" class="graph" transform="scale(1 1) rotate(0) translate(4 889)">
<title>Foo</title>
<polygon fill="white" stroke="none" points="-4,4 -4,-889 502.5,-889 502.5,4 -4,4"/>
<g id="clust1" class="cluster">
<title>cluster_attacksensors</title>
<polygon fill="none" stroke="black" points="8,-8 8,-402 385.48,-402 385.48,-8 8,-8"/>
<text text-anchor="middle" x="196.74" y="-384.7" font-family="Helvetica,sans-Serif" font-size="14.00">Attack Sensors</text>
</g>
<!-- Level Once Sensor -->
<g id="node1" class="node">
<title>Level Once Sensor</title>
<polygon fill="none" stroke="black" points="28.5,-23.12 28.5,-44.88 157.5,-44.88 157.5,-23.12 28.5,-23.12"/>
<text text-anchor="start" x="31.5" y="-28.57" font-family="Helvetica,sans-Serif" font-size="14.00">Level Once Sensor &#160;</text>
</g>
<!-- Level Once Sensor_linked -->
<g id="node2" class="node">
<title>Level Once Sensor_linked</title>
<polygon fill="none" stroke="black" stroke-dasharray="1,5" points="377.48,-52 282.27,-52 282.27,-16 377.48,-16 377.48,-52"/>
<text text-anchor="start" x="287.88" y="-28.57" font-family="Helvetica,sans-Serif" font-size="14.00">FooAttached &#160;</text>
</g>
<!-- Level Once Sensor&#45;&gt;Level Once Sensor_linked -->
<g id="edge1" class="edge">
<title>Level Once Sensor&#45;&gt;Level Once Sensor_linked</title>
<path fill="none" stroke="#66cdaa" d="M165.43,-34C199.08,-34 238.73,-34 270.55,-34"/>
<polygon fill="#66cdaa" stroke="#66cdaa" points="270.37,-37.5 280.37,-34 270.37,-30.5 270.37,-37.5"/>
<text text-anchor="middle" x="220.62" y="-36.45" font-family="Helvetica,sans-Serif" font-size="14.00" fill="#66cdaa">QueueEnd</text>
</g>
<!-- Level Once Sensor_weight -->
<g id="node3" class="node">
<title>Level Once Sensor_weight</title>
<polygon fill="none" stroke="black" stroke-dasharray="1,5" points="367.62,-106 292.12,-106 292.12,-70 367.62,-70 367.62,-106"/>
<text text-anchor="start" x="302.12" y="-82.58" font-family="Helvetica,sans-Serif" font-size="14.00">1 Attack &#160;</text>
</g>
<!-- Level Once Sensor&#45;&gt;Level Once Sensor_weight -->
<g id="edge2" class="edge">
<title>Level Once Sensor&#45;&gt;Level Once Sensor_weight</title>
<path fill="none" stroke="#458b74" d="M165.43,-50.42C202.9,-59.04 247.79,-69.36 281.03,-77"/>
<polygon fill="#458b74" stroke="#458b74" points="279.83,-80.32 290.36,-79.15 281.4,-73.49 279.83,-80.32"/>
<text text-anchor="middle" x="220.62" y="-72.98" font-family="Helvetica,sans-Serif" font-size="14.00" fill="#458b74">Weight</text>
</g>
<!-- RunAwaySensor -->
<g id="node4" class="node">
<title>RunAwaySensor</title>
<polygon fill="none" stroke="black" points="36,-77.12 36,-98.88 150,-98.88 150,-77.12 36,-77.12"/>
<text text-anchor="start" x="39" y="-82.58" font-family="Helvetica,sans-Serif" font-size="14.00">RunAwaySensor &#160;</text>
</g>
<!-- AttackSensor -->
<g id="node5" class="node">
<title>AttackSensor</title>
<polygon fill="none" stroke="black" points="46.12,-131.12 46.12,-152.88 139.88,-152.88 139.88,-131.12 46.12,-131.12"/>
<text text-anchor="start" x="49.12" y="-136.57" font-family="Helvetica,sans-Serif" font-size="14.00">AttackSensor &#160;</text>
</g>
<!-- AttackSensor_linked -->
<g id="node6" class="node">
<title>AttackSensor_linked</title>
<polygon fill="none" stroke="black" stroke-dasharray="1,5" points="357.98,-160 301.77,-160 301.77,-124 357.98,-124 357.98,-160"/>
<text text-anchor="start" x="307.38" y="-136.57" font-family="Helvetica,sans-Serif" font-size="14.00">Attack &#160;</text>
</g>
<!-- AttackSensor&#45;&gt;AttackSensor_linked -->
<g id="edge3" class="edge">
<title>AttackSensor&#45;&gt;AttackSensor_linked</title>
<path fill="none" stroke="#66cdaa" d="M147.59,-142C191.03,-142 251.2,-142 290.09,-142"/>
<polygon fill="#66cdaa" stroke="#66cdaa" points="289.92,-145.5 299.92,-142 289.92,-138.5 289.92,-145.5"/>
<text text-anchor="middle" x="220.62" y="-144.45" font-family="Helvetica,sans-Serif" font-size="14.00" fill="#66cdaa">QueueEnd</text>
</g>
<!-- DodgePredictSensor -->
<g id="node7" class="node">
<title>DodgePredictSensor</title>
<polygon fill="none" stroke="black" points="24,-204 24,-225.75 162,-225.75 162,-204 24,-204"/>
<text text-anchor="start" x="27" y="-209.45" font-family="Helvetica,sans-Serif" font-size="14.00">DodgePredictSensor &#160;</text>
<polygon fill="none" stroke="black" points="24,-182.25 24,-204 162,-204 162,-182.25 24,-182.25"/>
<text text-anchor="start" x="27" y="-188.7" font-family="Helvetica,sans-Serif" font-size="12.00" fill="#838b8b">if: rollingCondition</text>
<text text-anchor="start" x="123.75" y="-188.7" font-family="Helvetica,sans-Serif" font-size="14.00"> &#160;</text>
</g>
<!-- DodgePredictSensor_linked -->
<g id="node8" class="node">
<title>DodgePredictSensor_linked</title>
<polygon fill="none" stroke="black" stroke-dasharray="1,5" points="377.48,-222 282.27,-222 282.27,-186 377.48,-186 377.48,-222"/>
<text text-anchor="start" x="287.88" y="-198.57" font-family="Helvetica,sans-Serif" font-size="14.00">FooAttached &#160;</text>
</g>
<!-- DodgePredictSensor&#45;&gt;DodgePredictSensor_linked -->
<g id="edge4" class="edge">
<title>DodgePredictSensor&#45;&gt;DodgePredictSensor_linked</title>
<path fill="none" stroke="#66cdaa" d="M169.93,-204C202.62,-204 240.22,-204 270.64,-204"/>
<polygon fill="#66cdaa" stroke="#66cdaa" points="270.41,-207.5 280.41,-204 270.41,-200.5 270.41,-207.5"/>
<text text-anchor="middle" x="220.62" y="-206.45" font-family="Helvetica,sans-Serif" font-size="14.00" fill="#66cdaa">QueueEnd</text>
</g>
<!-- AttackPredictSensor -->
<g id="node9" class="node">
<title>AttackPredictSensor</title>
<polygon fill="none" stroke="black" points="25.12,-274 25.12,-295.75 160.88,-295.75 160.88,-274 25.12,-274"/>
<text text-anchor="start" x="28.12" y="-279.45" font-family="Helvetica,sans-Serif" font-size="14.00">AttackPredictSensor &#160;</text>
<polygon fill="none" stroke="black" points="25.12,-252.25 25.12,-274 160.88,-274 160.88,-252.25 25.12,-252.25"/>
<text text-anchor="start" x="28.12" y="-258.7" font-family="Helvetica,sans-Serif" font-size="12.00" fill="#838b8b">if: attackCondition</text>
<text text-anchor="start" x="123.38" y="-258.7" font-family="Helvetica,sans-Serif" font-size="14.00"> &#160;</text>
</g>
<!-- AttackPredictSensor_linked -->
<g id="node10" class="node">
<title>AttackPredictSensor_linked</title>
<polygon fill="none" stroke="black" stroke-dasharray="1,5" points="377.48,-292 282.27,-292 282.27,-256 377.48,-256 377.48,-292"/>
<text text-anchor="start" x="287.88" y="-268.57" font-family="Helvetica,sans-Serif" font-size="14.00">FooAttached &#160;</text>
</g>
<!-- AttackPredictSensor&#45;&gt;AttackPredictSensor_linked -->
<g id="edge5" class="edge">
<title>AttackPredictSensor&#45;&gt;AttackPredictSensor_linked</title>
<path fill="none" stroke="#66cdaa" d="M168.64,-274C201.63,-274 239.85,-274 270.68,-274"/>
<polygon fill="#66cdaa" stroke="#66cdaa" points="270.6,-277.5 280.6,-274 270.6,-270.5 270.6,-277.5"/>
<text text-anchor="middle" x="220.62" y="-276.45" font-family="Helvetica,sans-Serif" font-size="14.00" fill="#66cdaa">QueueEnd</text>
</g>
<!-- AttackRunToSensor -->
<g id="node11" class="node">
<title>AttackRunToSensor</title>
<polygon fill="none" stroke="black" points="26.62,-344 26.62,-365.75 159.38,-365.75 159.38,-344 26.62,-344"/>
<text text-anchor="start" x="29.62" y="-349.45" font-family="Helvetica,sans-Serif" font-size="14.00">AttackRunToSensor &#160;</text>
<polygon fill="none" stroke="black" points="26.62,-322.25 26.62,-344 159.38,-344 159.38,-322.25 26.62,-322.25"/>
<text text-anchor="start" x="29.62" y="-328.7" font-family="Helvetica,sans-Serif" font-size="12.00" fill="#838b8b">if: state is Engaging</text>
<text text-anchor="start" x="133.88" y="-328.7" font-family="Helvetica,sans-Serif" font-size="14.00"> &#160;</text>
</g>
<!-- AttackRunToSensor_linked -->
<g id="node12" class="node">
<title>AttackRunToSensor_linked</title>
<polygon fill="none" stroke="black" stroke-dasharray="1,5" points="377.48,-362 282.27,-362 282.27,-326 377.48,-326 377.48,-362"/>
<text text-anchor="start" x="287.88" y="-338.57" font-family="Helvetica,sans-Serif" font-size="14.00">FooAttached &#160;</text>
</g>
<!-- AttackRunToSensor&#45;&gt;AttackRunToSensor_linked -->
<g id="edge6" class="edge">
<title>AttackRunToSensor&#45;&gt;AttackRunToSensor_linked</title>
<path fill="none" stroke="#66cdaa" d="M167.35,-344C200.68,-344 239.54,-344 270.8,-344"/>
<polygon fill="#66cdaa" stroke="#66cdaa" points="270.43,-347.5 280.43,-344 270.43,-340.5 270.43,-347.5"/>
<text text-anchor="middle" x="220.62" y="-346.45" font-family="Helvetica,sans-Serif" font-size="14.00" fill="#66cdaa">QueueEnd</text>
</g>
<!-- FooAttached -->
<g id="node13" class="node">
<title>FooAttached</title>
<polygon fill="none" stroke="black" points="284.88,-668 284.88,-689.75 374.88,-689.75 374.88,-668 284.88,-668"/>
<text text-anchor="start" x="287.88" y="-673.45" font-family="Helvetica,sans-Serif" font-size="14.00">FooAttached &#160;</text>
<polygon fill="none" stroke="black" points="284.88,-646.25 284.88,-668 374.88,-668 374.88,-646.25 284.88,-646.25"/>
<text text-anchor="start" x="287.88" y="-652.7" font-family="Helvetica,sans-Serif" font-size="12.00" fill="#838b8b">2.33s: Done</text>
<text text-anchor="start" x="352.38" y="-652.7" font-family="Helvetica,sans-Serif" font-size="14.00"> &#160;</text>
</g>
<!-- Engaging -->
<g id="node14" class="node">
<title>Engaging</title>
<polygon fill="none" stroke="black" points="498.5,-554 425.5,-554 425.5,-518 498.5,-518 498.5,-554"/>
<text text-anchor="middle" x="462" y="-530.58" font-family="Helvetica,sans-Serif" font-size="14.00">Engaging</text>
</g>
<!-- FooAttached&#45;&gt;Engaging -->
<g id="edge7" class="edge">
<title>FooAttached&#45;&gt;Engaging</title>
<path fill="none" stroke="#cdc8b1" d="M376.73,-642.45C380.86,-639.47 384.86,-636.31 388.5,-633 410.84,-612.71 430.91,-584.69 444.25,-563.97"/>
<polygon fill="#cdc8b1" stroke="#cdc8b1" points="447.06,-566.07 449.42,-555.74 441.14,-562.34 447.06,-566.07"/>
</g>
<!-- Attack -->
<g id="node15" class="node">
<title>Attack</title>
<polygon fill="none" stroke="black" points="290.88,-598 290.88,-619.75 368.88,-619.75 368.88,-598 290.88,-598"/>
<text text-anchor="start" x="307.38" y="-603.45" font-family="Helvetica,sans-Serif" font-size="14.00">Attack &#160;</text>
<polygon fill="none" stroke="black" points="290.88,-576.25 290.88,-598 368.88,-598 368.88,-576.25 290.88,-576.25"/>
<text text-anchor="start" x="293.88" y="-582.7" font-family="Helvetica,sans-Serif" font-size="12.00" fill="#838b8b">2.92s: Done</text>
<text text-anchor="start" x="358.38" y="-582.7" font-family="Helvetica,sans-Serif" font-size="14.00"> &#160;</text>
</g>
<!-- Attack&#45;&gt;Engaging -->
<g id="edge8" class="edge">
<title>Attack&#45;&gt;Engaging</title>
<path fill="none" stroke="#cdc8b1" d="M376.75,-576.14C389.21,-570.2 402.71,-563.77 415.17,-557.84"/>
<polygon fill="#cdc8b1" stroke="#cdc8b1" points="416.46,-561.1 423.98,-553.64 413.45,-554.78 416.46,-561.1"/>
</g>
<!-- AttackParrying -->
<g id="node16" class="node">
<title>AttackParrying</title>
<polygon fill="none" stroke="black" points="279.25,-525.12 279.25,-546.88 380.5,-546.88 380.5,-525.12 279.25,-525.12"/>
<text text-anchor="start" x="282.25" y="-530.58" font-family="Helvetica,sans-Serif" font-size="14.00">AttackParrying &#160;</text>
</g>
<!-- AttackParrying&#45;&gt;Engaging -->
<g id="edge9" class="edge">
<title>AttackParrying&#45;&gt;Engaging</title>
<path fill="none" stroke="#cdc8b1" d="M388.33,-536C396.84,-536 405.53,-536 413.81,-536"/>
<polygon fill="#cdc8b1" stroke="#cdc8b1" points="413.65,-539.5 423.65,-536 413.65,-532.5 413.65,-539.5"/>
</g>
<!-- HurtState -->
<g id="node17" class="node">
<title>HurtState</title>
<polygon fill="none" stroke="black" points="34.12,-735.12 34.12,-756.88 151.88,-756.88 151.88,-735.12 34.12,-735.12"/>
<text text-anchor="start" x="60.75" y="-740.58" font-family="Helvetica,sans-Serif" font-size="14.00">HurtState &#160;</text>
<polygon fill="none" stroke="black" points="34.12,-703.12 34.12,-735.12 151.88,-735.12 151.88,-703.12 34.12,-703.12"/>
<text text-anchor="start" x="37.12" y="-721.73" font-family="Helvetica,sans-Serif" font-size="12.00" fill="#838b8b">0.02s: LinkNextMove</text>
<text text-anchor="start" x="37.12" y="-707.83" font-family="Helvetica,sans-Serif" font-size="12.00" fill="#838b8b">0.17s: Done</text>
<text text-anchor="start" x="101.62" y="-707.83" font-family="Helvetica,sans-Serif" font-size="14.00"> &#160;</text>
</g>
<!-- PreAttack -->
<g id="node18" class="node">
<title>PreAttack</title>
<polygon fill="none" stroke="black" points="367.12,-748 292.62,-748 292.62,-712 367.12,-712 367.12,-748"/>
<text text-anchor="middle" x="329.88" y="-724.58" font-family="Helvetica,sans-Serif" font-size="14.00">PreAttack</text>
</g>
<!-- HurtState&#45;&gt;PreAttack -->
<g id="edge10" class="edge">
<title>HurtState&#45;&gt;PreAttack</title>
<path fill="none" stroke="#cdc8b1" d="M159.74,-730C198.27,-730 246.07,-730 281.02,-730"/>
<polygon fill="#cdc8b1" stroke="#cdc8b1" points="280.83,-733.5 290.83,-730 280.83,-726.5 280.83,-733.5"/>
</g>
<!-- PostureBreak -->
<g id="node19" class="node">
<title>PostureBreak</title>
<polygon fill="none" stroke="black" points="45.38,-805 45.38,-826.75 140.62,-826.75 140.62,-805 45.38,-805"/>
<text text-anchor="start" x="48.38" y="-810.45" font-family="Helvetica,sans-Serif" font-size="14.00">PostureBreak &#160;</text>
<polygon fill="none" stroke="black" points="45.38,-783.25 45.38,-805 140.62,-805 140.62,-783.25 45.38,-783.25"/>
<text text-anchor="start" x="48.38" y="-789.7" font-family="Helvetica,sans-Serif" font-size="12.00" fill="#838b8b">0.17s: Done</text>
<text text-anchor="start" x="112.88" y="-789.7" font-family="Helvetica,sans-Serif" font-size="14.00"> &#160;</text>
</g>
<!-- DeadState -->
<g id="node20" class="node">
<title>DeadState</title>
<polygon fill="none" stroke="black" points="369.75,-823 290,-823 290,-787 369.75,-787 369.75,-823"/>
<text text-anchor="middle" x="329.88" y="-799.58" font-family="Helvetica,sans-Serif" font-size="14.00">DeadState</text>
</g>
<!-- PostureBreak&#45;&gt;DeadState -->
<g id="edge11" class="edge">
<title>PostureBreak&#45;&gt;DeadState</title>
<path fill="none" stroke="#cdc8b1" d="M148.48,-805C187.65,-805 240.1,-805 278.35,-805"/>
<polygon fill="#cdc8b1" stroke="#cdc8b1" points="278.21,-808.5 288.21,-805 278.21,-801.5 278.21,-808.5"/>
</g>
<!-- StandUp -->
<g id="node21" class="node">
<title>StandUp</title>
<polygon fill="none" stroke="black" points="296.88,-471.12 296.88,-492.88 362.88,-492.88 362.88,-471.12 296.88,-471.12"/>
<text text-anchor="start" x="299.88" y="-476.57" font-family="Helvetica,sans-Serif" font-size="14.00">StandUp &#160;</text>
</g>
<!-- StandUp&#45;&gt;Engaging -->
<g id="edge12" class="edge">
<title>StandUp&#45;&gt;Engaging</title>
<path fill="none" stroke="#cdc8b1" d="M370.62,-498.5C384.58,-504.29 400.37,-510.84 414.81,-516.83"/>
<polygon fill="#cdc8b1" stroke="#cdc8b1" points="413.06,-519.89 423.64,-520.49 415.74,-513.43 413.06,-519.89"/>
</g>
<!-- ZEnterState -->
<g id="node22" class="node">
<title>ZEnterState</title>
<polygon fill="none" stroke="black" points="287.12,-417.12 287.12,-438.88 372.62,-438.88 372.62,-417.12 287.12,-417.12"/>
<text text-anchor="start" x="290.12" y="-422.57" font-family="Helvetica,sans-Serif" font-size="14.00">ZEnterState &#160;</text>
</g>
<!-- ZEnterState&#45;&gt;Engaging -->
<g id="edge13" class="edge">
<title>ZEnterState&#45;&gt;Engaging</title>
<path fill="none" stroke="#cdc8b1" d="M374.15,-445.91C379.17,-448.66 384.07,-451.7 388.5,-455 408.82,-470.11 427.75,-491.63 441.17,-508.69"/>
<polygon fill="#cdc8b1" stroke="#cdc8b1" points="438.25,-510.63 447.11,-516.44 443.8,-506.37 438.25,-510.63"/>
</g>
<!-- ZExitState -->
<g id="node23" class="node">
<title>ZExitState</title>
<polygon fill="none" stroke="black" points="55.12,-417.12 55.12,-438.88 130.88,-438.88 130.88,-417.12 55.12,-417.12"/>
<text text-anchor="start" x="58.12" y="-422.57" font-family="Helvetica,sans-Serif" font-size="14.00">ZExitState &#160;</text>
</g>
<!-- ZExitState&#45;&gt;ZEnterState -->
<g id="edge14" class="edge">
<title>ZExitState&#45;&gt;ZEnterState</title>
<path fill="none" stroke="#cdc8b1" d="M138.73,-428C175.39,-428 227.64,-428 268.1,-428"/>
<polygon fill="#cdc8b1" stroke="#cdc8b1" points="267.92,-431.5 277.92,-428 267.92,-424.5 267.92,-431.5"/>
</g>
<!-- Seat -->
<g id="node24" class="node">
<title>Seat</title>
<polygon fill="none" stroke="black" points="130.25,-885 55.75,-885 55.75,-849 130.25,-849 130.25,-885"/>
<text text-anchor="middle" x="93" y="-861.58" font-family="Helvetica,sans-Serif" font-size="14.00">Seat (Init)</text>
</g>
</g>
</svg>
