<?xml version="1.0" encoding="UTF-8" standalone="no"?>
<!DOCTYPE svg PUBLIC "-//W3C//DTD SVG 1.1//EN"
 "http://www.w3.org/Graphics/SVG/1.1/DTD/svg11.dtd">
<!-- Generated by graphviz version 12.2.1 (20241206.2353)
 -->
<!-- Title: Foo Pages: 1 -->
<svg width="495pt" height="895pt"
 viewBox="0.00 0.00 495.25 895.00" xmlns="http://www.w3.org/2000/svg" xmlns:xlink="http://www.w3.org/1999/xlink">
<g id="graph0" class="graph" transform="scale(1 1) rotate(0) translate(4 891)">
<title>Foo</title>
<polygon fill="white" stroke="none" points="-4,4 -4,-891 491.25,-891 491.25,4 -4,4"/>
<g id="clust1" class="cluster">
<title>cluster_attacksensors</title>
<polygon fill="none" stroke="black" points="8,-485 8,-879 382.38,-879 382.38,-485 8,-485"/>
<text text-anchor="middle" x="195.19" y="-861.7" font-family="Helvetica,sans-Serif" font-size="14.00">Attack Sensors</text>
</g>
<!-- FooAttached -->
<g id="node1" class="node">
<title>FooAttached</title>
<polygon fill="none" stroke="black" points="279.25,-258 279.25,-279.75 369.25,-279.75 369.25,-258 279.25,-258"/>
<text text-anchor="start" x="282.25" y="-263.45" font-family="Helvetica,sans-Serif" font-size="14.00">FooAttached &#160;</text>
<polygon fill="none" stroke="black" points="279.25,-236.25 279.25,-258 369.25,-258 369.25,-236.25 279.25,-236.25"/>
<text text-anchor="start" x="282.25" y="-242.7" font-family="Helvetica,sans-Serif" font-size="12.00" fill="#838b8b">2.33s: Done</text>
<text text-anchor="start" x="346.75" y="-242.7" font-family="Helvetica,sans-Serif" font-size="14.00"> &#160;</text>
</g>
<!-- Engaging -->
<g id="node2" class="node">
<title>Engaging</title>
<polygon fill="none" stroke="black" points="487.25,-144 414.25,-144 414.25,-108 487.25,-108 487.25,-144"/>
<text text-anchor="middle" x="450.75" y="-120.58" font-family="Helvetica,sans-Serif" font-size="14.00">Engaging</text>
</g>
<!-- FooAttached&#45;&gt;Engaging -->
<g id="edge1" class="edge">
<title>FooAttached&#45;&gt;Engaging</title>
<path fill="none" stroke="#cdc8b1" d="M371.11,-232.33C375.09,-229.4 378.91,-226.27 382.38,-223 403.67,-202.89 422.18,-175.02 434.38,-154.31"/>
<polygon fill="#cdc8b1" stroke="#cdc8b1" points="437.32,-156.22 439.26,-145.81 431.25,-152.74 437.32,-156.22"/>
</g>
<!-- Attack -->
<g id="node3" class="node">
<title>Attack</title>
<polygon fill="none" stroke="black" points="285.25,-188 285.25,-209.75 363.25,-209.75 363.25,-188 285.25,-188"/>
<text text-anchor="start" x="301.75" y="-193.45" font-family="Helvetica,sans-Serif" font-size="14.00">Attack &#160;</text>
<polygon fill="none" stroke="black" points="285.25,-166.25 285.25,-188 363.25,-188 363.25,-166.25 285.25,-166.25"/>
<text text-anchor="start" x="288.25" y="-172.7" font-family="Helvetica,sans-Serif" font-size="12.00" fill="#838b8b">2.92s: Done</text>
<text text-anchor="start" x="352.75" y="-172.7" font-family="Helvetica,sans-Serif" font-size="14.00"> &#160;</text>
</g>
<!-- Attack&#45;&gt;Engaging -->
<g id="edge2" class="edge">
<title>Attack&#45;&gt;Engaging</title>
<path fill="none" stroke="#cdc8b1" d="M370.9,-165.27C381.63,-159.92 393.07,-154.23 403.81,-148.88"/>
<polygon fill="#cdc8b1" stroke="#cdc8b1" points="405.1,-152.14 412.49,-144.55 401.98,-145.88 405.1,-152.14"/>
</g>
<!-- AttackParrying -->
<g id="node4" class="node">
<title>AttackParrying</title>
<polygon fill="none" stroke="black" points="376.12,-144 272.38,-144 272.38,-108 376.12,-108 376.12,-144"/>
<text text-anchor="middle" x="324.25" y="-120.58" font-family="Helvetica,sans-Serif" font-size="14.00">AttackParrying</text>
</g>
<!-- AttackParrying&#45;&gt;Engaging -->
<g id="edge3" class="edge">
<title>AttackParrying&#45;&gt;Engaging</title>
<path fill="none" stroke="#cdc8b1" d="M376.61,-126C385.27,-126 394.21,-126 402.75,-126"/>
<polygon fill="#cdc8b1" stroke="#cdc8b1" points="402.56,-129.5 412.56,-126 402.56,-122.5 402.56,-129.5"/>
</g>
<!-- HurtState -->
<g id="node5" class="node">
<title>HurtState</title>
<polygon fill="none" stroke="black" points="34.12,-325.12 34.12,-346.88 151.88,-346.88 151.88,-325.12 34.12,-325.12"/>
<text text-anchor="start" x="60.75" y="-330.57" font-family="Helvetica,sans-Serif" font-size="14.00">HurtState &#160;</text>
<polygon fill="none" stroke="black" points="34.12,-293.12 34.12,-325.12 151.88,-325.12 151.88,-293.12 34.12,-293.12"/>
<text text-anchor="start" x="37.12" y="-311.73" font-family="Helvetica,sans-Serif" font-size="12.00" fill="#838b8b">0.02s: LinkNextMove</text>
<text text-anchor="start" x="37.12" y="-297.83" font-family="Helvetica,sans-Serif" font-size="12.00" fill="#838b8b">0.17s: Done</text>
<text text-anchor="start" x="101.62" y="-297.83" font-family="Helvetica,sans-Serif" font-size="14.00"> &#160;</text>
</g>
<!-- PreAttack -->
<g id="node6" class="node">
<title>PreAttack</title>
<polygon fill="none" stroke="black" points="361.5,-338 287,-338 287,-302 361.5,-302 361.5,-338"/>
<text text-anchor="middle" x="324.25" y="-314.57" font-family="Helvetica,sans-Serif" font-size="14.00">PreAttack</text>
</g>
<!-- HurtState&#45;&gt;PreAttack -->
<g id="edge4" class="edge">
<title>HurtState&#45;&gt;PreAttack</title>
<path fill="none" stroke="#cdc8b1" d="M159.69,-320C196.62,-320 241.89,-320 275.43,-320"/>
<polygon fill="#cdc8b1" stroke="#cdc8b1" points="275.26,-323.5 285.26,-320 275.26,-316.5 275.26,-323.5"/>
</g>
<!-- PostureBreak -->
<g id="node7" class="node">
<title>PostureBreak</title>
<polygon fill="none" stroke="black" points="45.38,-395 45.38,-416.75 140.62,-416.75 140.62,-395 45.38,-395"/>
<text text-anchor="start" x="48.38" y="-400.45" font-family="Helvetica,sans-Serif" font-size="14.00">PostureBreak &#160;</text>
<polygon fill="none" stroke="black" points="45.38,-373.25 45.38,-395 140.62,-395 140.62,-373.25 45.38,-373.25"/>
<text text-anchor="start" x="48.38" y="-379.7" font-family="Helvetica,sans-Serif" font-size="12.00" fill="#838b8b">0.17s: Done</text>
<text text-anchor="start" x="112.88" y="-379.7" font-family="Helvetica,sans-Serif" font-size="14.00"> &#160;</text>
</g>
<!-- DeadState -->
<g id="node8" class="node">
<title>DeadState</title>
<polygon fill="none" stroke="black" points="364.12,-413 284.38,-413 284.38,-377 364.12,-377 364.12,-413"/>
<text text-anchor="middle" x="324.25" y="-389.57" font-family="Helvetica,sans-Serif" font-size="14.00">DeadState</text>
</g>
<!-- PostureBreak&#45;&gt;DeadState -->
<g id="edge5" class="edge">
<title>PostureBreak&#45;&gt;DeadState</title>
<path fill="none" stroke="#cdc8b1" d="M148.62,-395C186.26,-395 235.93,-395 272.67,-395"/>
<polygon fill="#cdc8b1" stroke="#cdc8b1" points="272.6,-398.5 282.6,-395 272.6,-391.5 272.6,-398.5"/>
</g>
<!-- StandUp -->
<g id="node9" class="node">
<title>StandUp</title>
<polygon fill="none" stroke="black" points="358.5,-90 290,-90 290,-54 358.5,-54 358.5,-90"/>
<text text-anchor="middle" x="324.25" y="-66.58" font-family="Helvetica,sans-Serif" font-size="14.00">StandUp</text>
</g>
<!-- StandUp&#45;&gt;Engaging -->
<g id="edge6" class="edge">
<title>StandUp&#45;&gt;Engaging</title>
<path fill="none" stroke="#cdc8b1" d="M358.94,-86.61C372.62,-92.54 388.64,-99.49 403.39,-105.89"/>
<polygon fill="#cdc8b1" stroke="#cdc8b1" points="401.9,-109.06 412.46,-109.83 404.68,-102.64 401.9,-109.06"/>
</g>
<!-- ZEnterState -->
<g id="node10" class="node">
<title>ZEnterState</title>
<polygon fill="none" stroke="black" points="368.25,-36 280.25,-36 280.25,0 368.25,0 368.25,-36"/>
<text text-anchor="middle" x="324.25" y="-12.57" font-family="Helvetica,sans-Serif" font-size="14.00">ZEnterState</text>
</g>
<!-- ZEnterState&#45;&gt;Engaging -->
<g id="edge7" class="edge">
<title>ZEnterState&#45;&gt;Engaging</title>
<path fill="none" stroke="#cdc8b1" d="M368.56,-35.95C373.41,-38.69 378.13,-41.71 382.38,-45 401.77,-60.03 419.34,-81.55 431.67,-98.63"/>
<polygon fill="#cdc8b1" stroke="#cdc8b1" points="428.48,-100.18 437.09,-106.36 434.21,-96.16 428.48,-100.18"/>
</g>
<!-- ZExitState -->
<g id="node11" class="node">
<title>ZExitState</title>
<polygon fill="none" stroke="black" points="132.12,-36 53.88,-36 53.88,0 132.12,0 132.12,-36"/>
<text text-anchor="middle" x="93" y="-12.57" font-family="Helvetica,sans-Serif" font-size="14.00">ZExitState</text>
</g>
<!-- ZExitState&#45;&gt;ZEnterState -->
<g id="edge8" class="edge">
<title>ZExitState&#45;&gt;ZEnterState</title>
<path fill="none" stroke="#cdc8b1" d="M132.37,-18C169.65,-18 226.64,-18 268.64,-18"/>
<polygon fill="#cdc8b1" stroke="#cdc8b1" points="268.55,-21.5 278.55,-18 268.55,-14.5 268.55,-21.5"/>
</g>
<!-- Seat -->
<g id="node12" class="node">
<title>Seat</title>
<polygon fill="none" stroke="black" points="130.25,-475 55.75,-475 55.75,-439 130.25,-439 130.25,-475"/>
<text text-anchor="middle" x="93" y="-451.57" font-family="Helvetica,sans-Serif" font-size="14.00">Seat (Init)</text>
</g>
<!-- Level Once Sensor -->
<g id="node13" class="node">
<title>Level Once Sensor</title>
<polygon fill="none" stroke="black" points="158.75,-529 27.25,-529 27.25,-493 158.75,-493 158.75,-529"/>
<text text-anchor="middle" x="93" y="-505.57" font-family="Helvetica,sans-Serif" font-size="14.00">Level Once Sensor</text>
</g>
<!-- Level Once Sensor_linked -->
<g id="node14" class="node">
<title>Level Once Sensor_linked</title>
<polygon fill="none" stroke="black" stroke-dasharray="1,5" points="371.85,-529 276.65,-529 276.65,-493 371.85,-493 371.85,-529"/>
<text text-anchor="start" x="282.25" y="-505.57" font-family="Helvetica,sans-Serif" font-size="14.00">FooAttached &#160;</text>
</g>
<!-- Level Once Sensor&#45;&gt;Level Once Sensor_linked -->
<g id="edge9" class="edge">
<title>Level Once Sensor&#45;&gt;Level Once Sensor_linked</title>
<path fill="none" stroke="#66cdaa" d="M159.08,-511C192.33,-511 232.46,-511 264.72,-511"/>
<polygon fill="#66cdaa" stroke="#66cdaa" points="264.71,-514.5 274.71,-511 264.71,-507.5 264.71,-514.5"/>
<text text-anchor="middle" x="220.62" y="-513.45" font-family="Helvetica,sans-Serif" font-size="14.00" fill="#66cdaa">QueueEnd</text>
</g>
<!-- Level Once Sensor_mustuse -->
<g id="node15" class="node">
<title>Level Once Sensor_mustuse</title>
<polygon fill="none" stroke="black" stroke-dasharray="1,5" points="374.38,-583 274.12,-583 274.12,-547 374.38,-547 374.38,-583"/>
<text text-anchor="start" x="284.12" y="-559.58" font-family="Helvetica,sans-Serif" font-size="14.00">1 Undefined &#160;</text>
</g>
<!-- Level Once Sensor&#45;&gt;Level Once Sensor_mustuse -->
<g id="edge10" class="edge">
<title>Level Once Sensor&#45;&gt;Level Once Sensor_mustuse</title>
<path fill="none" stroke="#458b74" d="M159.08,-526.33C191.64,-534 230.81,-543.23 262.73,-550.74"/>
<polygon fill="#458b74" stroke="#458b74" points="261.68,-554.09 272.21,-552.98 263.28,-547.28 261.68,-554.09"/>
<text text-anchor="middle" x="220.62" y="-549.98" font-family="Helvetica,sans-Serif" font-size="14.00" fill="#458b74">Weight</text>
</g>
<!-- RunAwaySensor -->
<g id="node16" class="node">
<title>RunAwaySensor</title>
<polygon fill="none" stroke="black" points="151.25,-583 34.75,-583 34.75,-547 151.25,-547 151.25,-583"/>
<text text-anchor="middle" x="93" y="-559.58" font-family="Helvetica,sans-Serif" font-size="14.00">RunAwaySensor</text>
</g>
<!-- AttackSensor -->
<g id="node17" class="node">
<title>AttackSensor</title>
<polygon fill="none" stroke="black" points="141.12,-637 44.88,-637 44.88,-601 141.12,-601 141.12,-637"/>
<text text-anchor="middle" x="93" y="-613.58" font-family="Helvetica,sans-Serif" font-size="14.00">AttackSensor</text>
</g>
<!-- AttackSensor_linked -->
<g id="node18" class="node">
<title>AttackSensor_linked</title>
<polygon fill="none" stroke="black" stroke-dasharray="1,5" points="352.35,-637 296.15,-637 296.15,-601 352.35,-601 352.35,-637"/>
<text text-anchor="start" x="301.75" y="-613.58" font-family="Helvetica,sans-Serif" font-size="14.00">Attack &#160;</text>
</g>
<!-- AttackSensor&#45;&gt;AttackSensor_linked -->
<g id="edge11" class="edge">
<title>AttackSensor&#45;&gt;AttackSensor_linked</title>
<path fill="none" stroke="#66cdaa" d="M141.5,-619C183.81,-619 244.97,-619 284.42,-619"/>
<polygon fill="#66cdaa" stroke="#66cdaa" points="284.4,-622.5 294.4,-619 284.4,-615.5 284.4,-622.5"/>
<text text-anchor="middle" x="220.62" y="-621.45" font-family="Helvetica,sans-Serif" font-size="14.00" fill="#66cdaa">QueueEnd</text>
</g>
<!-- DodgePredictSensor -->
<g id="node19" class="node">
<title>DodgePredictSensor</title>
<polygon fill="none" stroke="black" points="24,-681 24,-702.75 162,-702.75 162,-681 24,-681"/>
<text text-anchor="start" x="27" y="-686.45" font-family="Helvetica,sans-Serif" font-size="14.00">DodgePredictSensor &#160;</text>
<polygon fill="none" stroke="black" points="24,-659.25 24,-681 162,-681 162,-659.25 24,-659.25"/>
<text text-anchor="start" x="27" y="-665.7" font-family="Helvetica,sans-Serif" font-size="12.00" fill="#838b8b">if: Dodge</text>
<text text-anchor="start" x="75" y="-665.7" font-family="Helvetica,sans-Serif" font-size="14.00"> &#160;</text>
</g>
<!-- DodgePredictSensor_linked -->
<g id="node20" class="node">
<title>DodgePredictSensor_linked</title>
<polygon fill="none" stroke="black" stroke-dasharray="1,5" points="371.85,-699 276.65,-699 276.65,-663 371.85,-663 371.85,-699"/>
<text text-anchor="start" x="282.25" y="-675.58" font-family="Helvetica,sans-Serif" font-size="14.00">FooAttached &#160;</text>
</g>
<!-- DodgePredictSensor&#45;&gt;DodgePredictSensor_linked -->
<g id="edge12" class="edge">
<title>DodgePredictSensor&#45;&gt;DodgePredictSensor_linked</title>
<path fill="none" stroke="#66cdaa" d="M169.7,-681C200.79,-681 236.21,-681 265.19,-681"/>
<polygon fill="#66cdaa" stroke="#66cdaa" points="264.85,-684.5 274.85,-681 264.85,-677.5 264.85,-684.5"/>
<text text-anchor="middle" x="220.62" y="-683.45" font-family="Helvetica,sans-Serif" font-size="14.00" fill="#66cdaa">QueueEnd</text>
</g>
<!-- AttackPredictSensor -->
<g id="node21" class="node">
<title>AttackPredictSensor</title>
<polygon fill="none" stroke="black" points="25.12,-751 25.12,-772.75 160.88,-772.75 160.88,-751 25.12,-751"/>
<text text-anchor="start" x="28.12" y="-756.45" font-family="Helvetica,sans-Serif" font-size="14.00">AttackPredictSensor &#160;</text>
<polygon fill="none" stroke="black" points="25.12,-729.25 25.12,-751 160.88,-751 160.88,-729.25 25.12,-729.25"/>
<text text-anchor="start" x="28.12" y="-735.7" font-family="Helvetica,sans-Serif" font-size="12.00" fill="#838b8b">if: Attack</text>
<text text-anchor="start" x="73.12" y="-735.7" font-family="Helvetica,sans-Serif" font-size="14.00"> &#160;</text>
</g>
<!-- AttackPredictSensor_linked -->
<g id="node22" class="node">
<title>AttackPredictSensor_linked</title>
<polygon fill="none" stroke="black" stroke-dasharray="1,5" points="371.85,-769 276.65,-769 276.65,-733 371.85,-733 371.85,-769"/>
<text text-anchor="start" x="282.25" y="-745.58" font-family="Helvetica,sans-Serif" font-size="14.00">FooAttached &#160;</text>
</g>
<!-- AttackPredictSensor&#45;&gt;AttackPredictSensor_linked -->
<g id="edge13" class="edge">
<title>AttackPredictSensor&#45;&gt;AttackPredictSensor_linked</title>
<path fill="none" stroke="#66cdaa" d="M168.75,-751C200.01,-751 235.79,-751 265.04,-751"/>
<polygon fill="#66cdaa" stroke="#66cdaa" points="264.8,-754.5 274.8,-751 264.8,-747.5 264.8,-754.5"/>
<text text-anchor="middle" x="220.62" y="-753.45" font-family="Helvetica,sans-Serif" font-size="14.00" fill="#66cdaa">QueueEnd</text>
</g>
<!-- AttackRunToSensor -->
<g id="node23" class="node">
<title>AttackRunToSensor</title>
<polygon fill="none" stroke="black" points="26.62,-821 26.62,-842.75 159.38,-842.75 159.38,-821 26.62,-821"/>
<text text-anchor="start" x="29.62" y="-826.45" font-family="Helvetica,sans-Serif" font-size="14.00">AttackRunToSensor &#160;</text>
<polygon fill="none" stroke="black" points="26.62,-799.25 26.62,-821 159.38,-821 159.38,-799.25 26.62,-799.25"/>
<text text-anchor="start" x="29.62" y="-805.7" font-family="Helvetica,sans-Serif" font-size="12.00" fill="#838b8b">if: state is Engaging</text>
<text text-anchor="start" x="133.88" y="-805.7" font-family="Helvetica,sans-Serif" font-size="14.00"> &#160;</text>
</g>
<!-- AttackRunToSensor_linked -->
<g id="node24" class="node">
<title>AttackRunToSensor_linked</title>
<polygon fill="none" stroke="black" stroke-dasharray="1,5" points="371.85,-839 276.65,-839 276.65,-803 371.85,-803 371.85,-839"/>
<text text-anchor="start" x="282.25" y="-815.58" font-family="Helvetica,sans-Serif" font-size="14.00">FooAttached &#160;</text>
</g>
<!-- AttackRunToSensor&#45;&gt;AttackRunToSensor_linked -->
<g id="edge14" class="edge">
<title>AttackRunToSensor&#45;&gt;AttackRunToSensor_linked</title>
<path fill="none" stroke="#66cdaa" d="M167.17,-821C198.75,-821 235.18,-821 264.9,-821"/>
<polygon fill="#66cdaa" stroke="#66cdaa" points="264.84,-824.5 274.84,-821 264.84,-817.5 264.84,-824.5"/>
<text text-anchor="middle" x="220.62" y="-823.45" font-family="Helvetica,sans-Serif" font-size="14.00" fill="#66cdaa">QueueEnd</text>
</g>
</g>
</svg>
