<?xml version="1.0" encoding="UTF-8" standalone="no"?>
<!DOCTYPE svg PUBLIC "-//W3C//DTD SVG 1.1//EN"
 "http://www.w3.org/Graphics/SVG/1.1/DTD/svg11.dtd">
<!-- Generated by graphviz version 12.2.1 (20241206.2353)
 -->
<!-- Title: Foo Pages: 1 -->
<svg width="1015pt" height="1180pt"
 viewBox="0.00 0.00 1014.75 1179.75" xmlns="http://www.w3.org/2000/svg" xmlns:xlink="http://www.w3.org/1999/xlink">
<g id="graph0" class="graph" transform="scale(1 1) rotate(0) translate(4 1175.75)">
<title>Foo</title>
<polygon fill="white" stroke="none" points="-4,4 -4,-1175.75 1010.75,-1175.75 1010.75,4 -4,4"/>
<g id="clust1" class="cluster">
<title>cluster_attacksensors</title>
<polygon fill="none" stroke="black" points="8,-8 8,-628 487.1,-628 487.1,-8 8,-8"/>
<text text-anchor="middle" x="247.55" y="-610.7" font-family="Helvetica,sans-Serif" font-size="14.00">Attack Sensors</text>
</g>
<!-- Level Once Sensor -->
<g id="node1" class="node">
<title>Level Once Sensor</title>
<polygon fill="none" stroke="black" points="27.38,-45.12 27.38,-66.88 156.38,-66.88 156.38,-45.12 27.38,-45.12"/>
<text text-anchor="start" x="30.38" y="-50.58" font-family="Helvetica,sans-Serif" font-size="14.00">Level Once Sensor &#160;</text>
</g>
<!-- Level Once Sensor_linked -->
<g id="node2" class="node">
<title>Level Once Sensor_linked</title>
<polygon fill="none" stroke="black" stroke-dasharray="1,5" points="462.23,-52 313.77,-52 313.77,-16 462.23,-16 462.23,-52"/>
<text text-anchor="start" x="319.38" y="-28.57" font-family="Helvetica,sans-Serif" font-size="14.00"> AttackGrabInstantKill &#160;</text>
</g>
<!-- Level Once Sensor&#45;&gt;Level Once Sensor_linked -->
<g id="edge1" class="edge">
<title>Level Once Sensor&#45;&gt;Level Once Sensor_linked</title>
<path fill="none" stroke="#66cdaa" d="M164.3,-45.53C171.53,-44.67 178.78,-43.89 185.75,-43.25 223.78,-39.77 265.98,-37.58 301.87,-36.21"/>
<polygon fill="#66cdaa" stroke="#66cdaa" points="301.91,-39.71 311.78,-35.84 301.66,-32.71 301.91,-39.71"/>
<text text-anchor="middle" x="218.38" y="-45.7" font-family="Helvetica,sans-Serif" font-size="14.00" fill="#66cdaa">QueueEnd</text>
</g>
<!-- Level Once Sensor_weight -->
<g id="node3" class="node">
<title>Level Once Sensor_weight</title>
<polygon fill="none" stroke="black" stroke-dasharray="1,5" points="472.25,-106 303.75,-106 303.75,-70 472.25,-70 472.25,-106"/>
<text text-anchor="start" x="313.75" y="-82.58" font-family="Helvetica,sans-Serif" font-size="14.00">1 &#160;AttackGrabInstantKill &#160;</text>
</g>
<!-- Level Once Sensor&#45;&gt;Level Once Sensor_weight -->
<g id="edge2" class="edge">
<title>Level Once Sensor&#45;&gt;Level Once Sensor_weight</title>
<path fill="none" stroke="#458b74" d="M164.07,-63.75C202.54,-67.93 250.54,-73.15 292.14,-77.68"/>
<polygon fill="#458b74" stroke="#458b74" points="291.59,-81.14 301.91,-78.74 292.34,-74.18 291.59,-81.14"/>
<text text-anchor="middle" x="218.38" y="-75.41" font-family="Helvetica,sans-Serif" font-size="14.00" fill="#458b74">Weight</text>
</g>
<!-- RunAwaySensor -->
<g id="node4" class="node">
<title>RunAwaySensor</title>
<polygon fill="none" stroke="black" points="34.88,-113.12 34.88,-134.88 148.88,-134.88 148.88,-113.12 34.88,-113.12"/>
<text text-anchor="start" x="37.88" y="-118.58" font-family="Helvetica,sans-Serif" font-size="14.00">RunAwaySensor &#160;</text>
</g>
<!-- AttackSensor -->
<g id="node5" class="node">
<title>AttackSensor</title>
<polygon fill="none" stroke="black" points="45,-169.12 45,-190.88 138.75,-190.88 138.75,-169.12 45,-169.12"/>
<text text-anchor="start" x="48" y="-174.57" font-family="Helvetica,sans-Serif" font-size="14.00">AttackSensor &#160;</text>
</g>
<!-- AttackSensor_linked -->
<g id="node6" class="node">
<title>AttackSensor_linked</title>
<polygon fill="none" stroke="black" stroke-dasharray="1,5" points="468.98,-170.35 307.02,-170.35 307.02,-123.65 468.98,-123.65 468.98,-170.35"/>
<text text-anchor="start" x="312.62" y="-151.45" font-family="Helvetica,sans-Serif" font-size="14.00">3Slashes_ForBossFight &#160;</text>
<text text-anchor="start" x="355" y="-131.7" font-family="Helvetica,sans-Serif" font-size="14.00">Explosion &#160;</text>
</g>
<!-- AttackSensor&#45;&gt;AttackSensor_linked -->
<g id="edge3" class="edge">
<title>AttackSensor&#45;&gt;AttackSensor_linked</title>
<path fill="none" stroke="#66cdaa" d="M146.34,-171.6C159.23,-169.71 172.97,-167.81 185.75,-166.25 221.44,-161.9 260.78,-157.96 295.14,-154.78"/>
<polygon fill="#66cdaa" stroke="#66cdaa" points="295.45,-158.27 305.09,-153.87 294.81,-151.3 295.45,-158.27"/>
<text text-anchor="middle" x="218.38" y="-168.7" font-family="Helvetica,sans-Serif" font-size="14.00" fill="#66cdaa">QueueEnd</text>
</g>
<!-- AttackSensor_weight -->
<g id="node7" class="node">
<title>AttackSensor_weight</title>
<polygon fill="none" stroke="black" stroke-dasharray="1,5" points="479,-255.62 297,-255.62 297,-188.38 479,-188.38 479,-255.62"/>
<text text-anchor="start" x="344.88" y="-236.32" font-family="Helvetica,sans-Serif" font-size="14.00">2 DragPlayer &#160;</text>
<text text-anchor="start" x="349.38" y="-216.57" font-family="Helvetica,sans-Serif" font-size="14.00">0 Explosion &#160;</text>
<text text-anchor="start" x="307" y="-196.82" font-family="Helvetica,sans-Serif" font-size="14.00">1 3Slashes_ForBossFight &#160;</text>
</g>
<!-- AttackSensor&#45;&gt;AttackSensor_weight -->
<g id="edge4" class="edge">
<title>AttackSensor&#45;&gt;AttackSensor_weight</title>
<path fill="none" stroke="#458b74" d="M146.48,-187.65C185.13,-193.17 238.49,-200.79 285.13,-207.45"/>
<polygon fill="#458b74" stroke="#458b74" points="284.62,-210.92 295.02,-208.87 285.61,-203.99 284.62,-210.92"/>
<text text-anchor="middle" x="218.38" y="-204.71" font-family="Helvetica,sans-Serif" font-size="14.00" fill="#458b74">Weight</text>
</g>
<!-- TeleportSensor -->
<g id="node8" class="node">
<title>TeleportSensor</title>
<polygon fill="none" stroke="black" points="39.75,-273.12 39.75,-294.88 144,-294.88 144,-273.12 39.75,-273.12"/>
<text text-anchor="start" x="42.75" y="-278.57" font-family="Helvetica,sans-Serif" font-size="14.00">TeleportSensor &#160;</text>
</g>
<!-- TeleportSensor_linked -->
<g id="node9" class="node">
<title>TeleportSensor_linked</title>
<polygon fill="none" stroke="black" stroke-dasharray="1,5" points="479.1,-310 296.9,-310 296.9,-274 479.1,-274 479.1,-310"/>
<text text-anchor="start" x="302.5" y="-286.57" font-family="Helvetica,sans-Serif" font-size="14.00">Ｗarp In Teleport (no sight) &#160;</text>
</g>
<!-- TeleportSensor&#45;&gt;TeleportSensor_linked -->
<g id="edge5" class="edge">
<title>TeleportSensor&#45;&gt;TeleportSensor_linked</title>
<path fill="none" stroke="#66cdaa" d="M151.69,-285.6C189.78,-286.64 240.41,-288.01 284.94,-289.22"/>
<polygon fill="#66cdaa" stroke="#66cdaa" points="284.82,-292.72 294.91,-289.5 285.01,-285.72 284.82,-292.72"/>
<text text-anchor="middle" x="218.38" y="-290.69" font-family="Helvetica,sans-Serif" font-size="14.00" fill="#66cdaa">QueueEnd</text>
</g>
<!-- AttackPredictSensor -->
<g id="node10" class="node">
<title>AttackPredictSensor</title>
<polygon fill="none" stroke="black" points="24,-346 24,-367.75 159.75,-367.75 159.75,-346 24,-346"/>
<text text-anchor="start" x="27" y="-351.45" font-family="Helvetica,sans-Serif" font-size="14.00">AttackPredictSensor &#160;</text>
<polygon fill="none" stroke="black" points="24,-324.25 24,-346 159.75,-346 159.75,-324.25 24,-324.25"/>
<text text-anchor="start" x="27" y="-330.7" font-family="Helvetica,sans-Serif" font-size="12.00" fill="#838b8b">if: attackCondition</text>
<text text-anchor="start" x="122.25" y="-330.7" font-family="Helvetica,sans-Serif" font-size="14.00"> &#160;</text>
</g>
<!-- AttackPredictSensor_linked -->
<g id="node11" class="node">
<title>AttackPredictSensor_linked</title>
<polygon fill="none" stroke="black" stroke-dasharray="1,5" points="462.23,-364 313.77,-364 313.77,-328 462.23,-328 462.23,-364"/>
<text text-anchor="start" x="319.38" y="-340.57" font-family="Helvetica,sans-Serif" font-size="14.00"> AttackGrabInstantKill &#160;</text>
</g>
<!-- AttackPredictSensor&#45;&gt;AttackPredictSensor_linked -->
<g id="edge6" class="edge">
<title>AttackPredictSensor&#45;&gt;AttackPredictSensor_linked</title>
<path fill="none" stroke="#66cdaa" d="M167.48,-346C208.48,-346 259.5,-346 302.03,-346"/>
<polygon fill="#66cdaa" stroke="#66cdaa" points="301.98,-349.5 311.98,-346 301.98,-342.5 301.98,-349.5"/>
<text text-anchor="middle" x="218.38" y="-348.45" font-family="Helvetica,sans-Serif" font-size="14.00" fill="#66cdaa">QueueEnd</text>
</g>
<!-- AttackRunToSensor -->
<g id="node12" class="node">
<title>AttackRunToSensor</title>
<polygon fill="none" stroke="black" points="25.5,-416 25.5,-437.75 158.25,-437.75 158.25,-416 25.5,-416"/>
<text text-anchor="start" x="28.5" y="-421.45" font-family="Helvetica,sans-Serif" font-size="14.00">AttackRunToSensor &#160;</text>
<polygon fill="none" stroke="black" points="25.5,-394.25 25.5,-416 158.25,-416 158.25,-394.25 25.5,-394.25"/>
<text text-anchor="start" x="28.5" y="-400.7" font-family="Helvetica,sans-Serif" font-size="12.00" fill="#838b8b">if: state is Engaging</text>
<text text-anchor="start" x="132.75" y="-400.7" font-family="Helvetica,sans-Serif" font-size="14.00"> &#160;</text>
</g>
<!-- AttackRunToSensor_linked -->
<g id="node13" class="node">
<title>AttackRunToSensor_linked</title>
<polygon fill="none" stroke="black" stroke-dasharray="1,5" points="462.23,-418 313.77,-418 313.77,-382 462.23,-382 462.23,-418"/>
<text text-anchor="start" x="319.38" y="-394.57" font-family="Helvetica,sans-Serif" font-size="14.00"> AttackGrabInstantKill &#160;</text>
</g>
<!-- AttackRunToSensor&#45;&gt;AttackRunToSensor_linked -->
<g id="edge7" class="edge">
<title>AttackRunToSensor&#45;&gt;AttackRunToSensor_linked</title>
<path fill="none" stroke="#66cdaa" d="M165.96,-412.02C207.27,-409.78 259.11,-406.96 302.2,-404.61"/>
<polygon fill="#66cdaa" stroke="#66cdaa" points="302.22,-408.12 312.02,-404.08 301.84,-401.13 302.22,-408.12"/>
<text text-anchor="middle" x="218.38" y="-413.27" font-family="Helvetica,sans-Serif" font-size="14.00" fill="#66cdaa">QueueEnd</text>
</g>
<!-- FarAttackSensor -->
<g id="node14" class="node">
<title>FarAttackSensor</title>
<polygon fill="none" stroke="black" points="34.88,-522.12 34.88,-543.88 148.88,-543.88 148.88,-522.12 34.88,-522.12"/>
<text text-anchor="start" x="37.88" y="-527.58" font-family="Helvetica,sans-Serif" font-size="14.00">FarAttackSensor &#160;</text>
</g>
<!-- FarAttackSensor_linked -->
<g id="node15" class="node">
<title>FarAttackSensor_linked</title>
<polygon fill="none" stroke="black" stroke-dasharray="1,5" points="468.98,-541.98 307.02,-541.98 307.02,-436.02 468.98,-436.02 468.98,-541.98"/>
<text text-anchor="start" x="312.62" y="-523.08" font-family="Helvetica,sans-Serif" font-size="14.00">3Slashes_ForBossFight &#160;</text>
<text text-anchor="start" x="355" y="-503.32" font-family="Helvetica,sans-Serif" font-size="14.00">Explosion &#160;</text>
<text text-anchor="start" x="350.5" y="-483.57" font-family="Helvetica,sans-Serif" font-size="14.00">DragPlayer &#160;</text>
<text text-anchor="start" x="312.62" y="-463.82" font-family="Helvetica,sans-Serif" font-size="14.00">3Slashes_ForBossFight &#160;</text>
<text text-anchor="start" x="312.62" y="-444.07" font-family="Helvetica,sans-Serif" font-size="14.00">3Slashes_ForBossFight &#160;</text>
</g>
<!-- FarAttackSensor&#45;&gt;FarAttackSensor_linked -->
<g id="edge8" class="edge">
<title>FarAttackSensor&#45;&gt;FarAttackSensor_linked</title>
<path fill="none" stroke="#66cdaa" d="M156.7,-523.45C197.27,-517.38 250.45,-509.43 295.48,-502.69"/>
<polygon fill="#66cdaa" stroke="#66cdaa" points="295.87,-506.17 305.25,-501.23 294.84,-499.25 295.87,-506.17"/>
<text text-anchor="middle" x="218.38" y="-521.22" font-family="Helvetica,sans-Serif" font-size="14.00" fill="#66cdaa">QueueEnd</text>
</g>
<!-- FarAttackSensor_weight -->
<g id="node16" class="node">
<title>FarAttackSensor_weight</title>
<polygon fill="none" stroke="black" stroke-dasharray="1,5" points="441.12,-596 334.88,-596 334.88,-560 441.12,-560 441.12,-596"/>
<text text-anchor="start" x="344.88" y="-572.58" font-family="Helvetica,sans-Serif" font-size="14.00">1 DragPlayer &#160;</text>
</g>
<!-- FarAttackSensor&#45;&gt;FarAttackSensor_weight -->
<g id="edge9" class="edge">
<title>FarAttackSensor&#45;&gt;FarAttackSensor_weight</title>
<path fill="none" stroke="#458b74" d="M156.7,-542.76C206.07,-550.32 274.11,-560.73 323.42,-568.27"/>
<polygon fill="#458b74" stroke="#458b74" points="322.68,-571.7 333.09,-569.75 323.74,-564.78 322.68,-571.7"/>
<text text-anchor="middle" x="218.38" y="-559.3" font-family="Helvetica,sans-Serif" font-size="14.00" fill="#458b74">Weight</text>
</g>
<!--  AttackGrabInstantKill -->
<g id="node17" class="node">
<title> AttackGrabInstantKill</title>
<polygon fill="none" stroke="black" points="568.88,-1084 568.88,-1105.75 712.12,-1105.75 712.12,-1084 568.88,-1084"/>
<text text-anchor="start" x="571.88" y="-1089.45" font-family="Helvetica,sans-Serif" font-size="14.00"> AttackGrabInstantKill &#160;</text>
<polygon fill="none" stroke="black" points="568.88,-1062.25 568.88,-1084 712.12,-1084 712.12,-1062.25 568.88,-1062.25"/>
<text text-anchor="start" x="571.88" y="-1068.7" font-family="Helvetica,sans-Serif" font-size="12.00" fill="#838b8b">5.00s: Done</text>
<text text-anchor="start" x="636.38" y="-1068.7" font-family="Helvetica,sans-Serif" font-size="14.00"> &#160;</text>
</g>
<!-- Engaging -->
<g id="node18" class="node">
<title>Engaging</title>
<polygon fill="none" stroke="black" points="959,-803 886,-803 886,-767 959,-767 959,-803"/>
<text text-anchor="middle" x="922.5" y="-779.58" font-family="Helvetica,sans-Serif" font-size="14.00">Engaging</text>
</g>
<!--  AttackGrabInstantKill&#45;&gt;Engaging -->
<g id="edge10" class="edge">
<title> AttackGrabInstantKill&#45;&gt;Engaging</title>
<path fill="none" stroke="#cdc8b1" d="M720.11,-1070.81C755.37,-1061.03 794.68,-1044.12 820.25,-1015 842.58,-989.56 826.19,-972.63 838.25,-941 856.14,-894.1 885.14,-843.47 903.76,-813.01"/>
<polygon fill="#cdc8b1" stroke="#cdc8b1" points="906.57,-815.12 908.85,-804.77 900.61,-811.44 906.57,-815.12"/>
</g>
<!--  AttackGrabInstantKill_linked -->
<g id="node19" class="node">
<title> AttackGrabInstantKill_linked</title>
<polygon fill="none" stroke="black" stroke-dasharray="1,5" points="961.1,-1120.22 883.9,-1120.22 883.9,-1053.78 961.1,-1053.78 961.1,-1120.22"/>
<text text-anchor="start" x="890.25" y="-1101.33" font-family="Helvetica,sans-Serif" font-size="14.00">Engaging &#160;</text>
<text text-anchor="start" x="890.25" y="-1081.58" font-family="Helvetica,sans-Serif" font-size="14.00">Engaging &#160;</text>
<text text-anchor="start" x="889.5" y="-1061.83" font-family="Helvetica,sans-Serif" font-size="14.00">Explosion &#160;</text>
</g>
<!--  AttackGrabInstantKill&#45;&gt; AttackGrabInstantKill_linked -->
<g id="edge11" class="edge">
<title> AttackGrabInstantKill&#45;&gt; AttackGrabInstantKill_linked</title>
<path fill="none" stroke="#66cdaa" d="M719.87,-1084.84C768.67,-1085.36 829.95,-1086.02 872.07,-1086.47"/>
<polygon fill="#66cdaa" stroke="#66cdaa" points="871.87,-1089.97 881.9,-1086.58 871.94,-1082.97 871.87,-1089.97"/>
<text text-anchor="middle" x="787.62" y="-1088.31" font-family="Helvetica,sans-Serif" font-size="14.00" fill="#66cdaa">QueueEnd</text>
</g>
<!-- DeadLoop(ForBossFightCutscene) -->
<g id="node20" class="node">
<title>DeadLoop(ForBossFightCutscene)</title>
<polygon fill="none" stroke="black" points="277,-667 277,-688.75 499,-688.75 499,-667 277,-667"/>
<text text-anchor="start" x="280" y="-672.45" font-family="Helvetica,sans-Serif" font-size="14.00">DeadLoop(ForBossFightCutscene) &#160;</text>
<polygon fill="none" stroke="black" points="277,-645.25 277,-667 499,-667 499,-645.25 277,-645.25"/>
<text text-anchor="start" x="280" y="-651.7" font-family="Helvetica,sans-Serif" font-size="12.00" fill="#838b8b">0.00s: EnableGravity</text>
<text text-anchor="start" x="391" y="-651.7" font-family="Helvetica,sans-Serif" font-size="14.00"> &#160;</text>
</g>
<!-- Revive 復活 -->
<g id="node21" class="node">
<title>Revive 復活</title>
<polygon fill="none" stroke="black" points="594,-672.12 594,-693.88 687,-693.88 687,-672.12 594,-672.12"/>
<text text-anchor="start" x="597" y="-677.58" font-family="Helvetica,sans-Serif" font-size="14.00">Revive 復活 &#160;</text>
<polygon fill="none" stroke="black" points="594,-640.12 594,-672.12 687,-672.12 687,-640.12 594,-640.12"/>
<text text-anchor="start" x="597" y="-658.73" font-family="Helvetica,sans-Serif" font-size="12.00" fill="#838b8b">3.83s: Shoot</text>
<text text-anchor="start" x="597" y="-644.83" font-family="Helvetica,sans-Serif" font-size="12.00" fill="#838b8b">4.50s: Done</text>
<text text-anchor="start" x="661.5" y="-644.83" font-family="Helvetica,sans-Serif" font-size="14.00"> &#160;</text>
</g>
<!-- DeadLoop(ForBossFightCutscene)&#45;&gt;Revive 復活 -->
<g id="edge12" class="edge">
<title>DeadLoop(ForBossFightCutscene)&#45;&gt;Revive 復活</title>
<path fill="none" stroke="#cdc8b1" d="M506.91,-667C530.36,-667 554.16,-667 574.99,-667"/>
<polygon fill="#cdc8b1" stroke="#cdc8b1" points="574.73,-670.5 584.73,-667 574.73,-663.5 574.73,-670.5"/>
</g>
<!-- Revive 復活&#45;&gt;Engaging -->
<g id="edge24" class="edge">
<title>Revive 復活&#45;&gt;Engaging</title>
<path fill="none" stroke="#cdc8b1" d="M694.8,-689.29C708.55,-695.05 723.33,-701.25 737,-707 784.12,-726.83 837.95,-749.6 875.26,-765.4"/>
<polygon fill="#cdc8b1" stroke="#cdc8b1" points="873.83,-768.6 884.41,-769.28 876.56,-762.15 873.83,-768.6"/>
</g>
<!-- Ｗarp In Teleport (no sight) -->
<g id="node22" class="node">
<title>Ｗarp In Teleport (no sight)</title>
<polygon fill="none" stroke="black" points="552,-592 552,-613.75 729,-613.75 729,-592 552,-592"/>
<text text-anchor="start" x="555" y="-597.45" font-family="Helvetica,sans-Serif" font-size="14.00">Ｗarp In Teleport (no sight) &#160;</text>
<polygon fill="none" stroke="black" points="552,-570.25 552,-592 729,-592 729,-570.25 552,-570.25"/>
<text text-anchor="start" x="555" y="-576.7" font-family="Helvetica,sans-Serif" font-size="12.00" fill="#838b8b">4.00s: Done</text>
<text text-anchor="start" x="619.5" y="-576.7" font-family="Helvetica,sans-Serif" font-size="14.00"> &#160;</text>
</g>
<!-- Ｗarp In Teleport (no sight)&#45;&gt;Engaging -->
<g id="edge13" class="edge">
<title>Ｗarp In Teleport (no sight)&#45;&gt;Engaging</title>
<path fill="none" stroke="#cdc8b1" d="M718.72,-617.54C725.03,-620.45 731.21,-623.61 737,-627 800.57,-664.23 863.3,-724.22 896.73,-758.58"/>
<polygon fill="#cdc8b1" stroke="#cdc8b1" points="894.07,-760.86 903.53,-765.64 899.11,-756.01 894.07,-760.86"/>
</g>
<!-- DragPlayer -->
<g id="node23" class="node">
<title>DragPlayer</title>
<polygon fill="none" stroke="black" points="581.62,-522.12 581.62,-543.88 699.38,-543.88 699.38,-522.12 581.62,-522.12"/>
<text text-anchor="start" x="603" y="-527.58" font-family="Helvetica,sans-Serif" font-size="14.00">DragPlayer &#160;</text>
<polygon fill="none" stroke="black" points="581.62,-478.12 581.62,-522.12 699.38,-522.12 699.38,-478.12 581.62,-478.12"/>
<text text-anchor="start" x="584.62" y="-508.73" font-family="Helvetica,sans-Serif" font-size="12.00" fill="#838b8b">0.00s: CheckFacing</text>
<text text-anchor="start" x="584.62" y="-496.73" font-family="Helvetica,sans-Serif" font-size="12.00" fill="#838b8b">2.13s: LinkNextMove</text>
<text text-anchor="start" x="584.62" y="-482.83" font-family="Helvetica,sans-Serif" font-size="12.00" fill="#838b8b">2.25s: Done</text>
<text text-anchor="start" x="649.12" y="-482.83" font-family="Helvetica,sans-Serif" font-size="14.00"> &#160;</text>
</g>
<!-- DragPlayer&#45;&gt;Engaging -->
<g id="edge14" class="edge">
<title>DragPlayer&#45;&gt;Engaging</title>
<path fill="none" stroke="#cdc8b1" d="M707.27,-539.26C717.53,-544.63 727.78,-550.6 737,-557 815.53,-611.56 878.13,-708.77 905.91,-756.69"/>
<polygon fill="#cdc8b1" stroke="#cdc8b1" points="902.87,-758.41 910.86,-765.36 908.95,-754.94 902.87,-758.41"/>
</g>
<!-- DragPlayer_weight -->
<g id="node24" class="node">
<title>DragPlayer_weight</title>
<polygon fill="none" stroke="black" stroke-dasharray="1,5" points="1006.75,-529 838.25,-529 838.25,-493 1006.75,-493 1006.75,-529"/>
<text text-anchor="start" x="848.25" y="-505.57" font-family="Helvetica,sans-Serif" font-size="14.00">1 &#160;AttackGrabInstantKill &#160;</text>
</g>
<!-- DragPlayer&#45;&gt;DragPlayer_weight -->
<g id="edge15" class="edge">
<title>DragPlayer&#45;&gt;DragPlayer_weight</title>
<path fill="none" stroke="#458b74" d="M707.15,-511C742.68,-511 787.21,-511 826.46,-511"/>
<polygon fill="#458b74" stroke="#458b74" points="826.4,-514.5 836.4,-511 826.4,-507.5 826.4,-514.5"/>
<text text-anchor="middle" x="787.62" y="-513.45" font-family="Helvetica,sans-Serif" font-size="14.00" fill="#458b74">Weight</text>
</g>
<!-- Explosion -->
<g id="node25" class="node">
<title>Explosion</title>
<polygon fill="none" stroke="black" points="601.5,-916 601.5,-937.75 679.5,-937.75 679.5,-916 601.5,-916"/>
<text text-anchor="start" x="607.5" y="-921.45" font-family="Helvetica,sans-Serif" font-size="14.00">Explosion &#160;</text>
<polygon fill="none" stroke="black" points="601.5,-894.25 601.5,-916 679.5,-916 679.5,-894.25 601.5,-894.25"/>
<text text-anchor="start" x="604.5" y="-900.7" font-family="Helvetica,sans-Serif" font-size="12.00" fill="#838b8b">5.00s: Done</text>
<text text-anchor="start" x="669" y="-900.7" font-family="Helvetica,sans-Serif" font-size="14.00"> &#160;</text>
</g>
<!-- Explosion&#45;&gt;Engaging -->
<g id="edge16" class="edge">
<title>Explosion&#45;&gt;Engaging</title>
<path fill="none" stroke="#cdc8b1" d="M687.15,-900.62C703.1,-894.89 721.01,-888.06 737,-881 786.97,-858.95 842.31,-829.44 879.23,-808.98"/>
<polygon fill="#cdc8b1" stroke="#cdc8b1" points="880.77,-812.13 887.81,-804.2 877.37,-806.01 880.77,-812.13"/>
</g>
<!-- SummonMonster -->
<g id="node26" class="node">
<title>SummonMonster</title>
<polygon fill="none" stroke="black" points="581.25,-846.12 581.25,-867.88 699.75,-867.88 699.75,-846.12 581.25,-846.12"/>
<text text-anchor="start" x="584.25" y="-851.58" font-family="Helvetica,sans-Serif" font-size="14.00">SummonMonster &#160;</text>
<polygon fill="none" stroke="black" points="581.25,-790.12 581.25,-846.12 699.75,-846.12 699.75,-790.12 581.25,-790.12"/>
<text text-anchor="start" x="584.25" y="-832.73" font-family="Helvetica,sans-Serif" font-size="12.00" fill="#838b8b">0.78s: CheckFacing</text>
<text text-anchor="start" x="584.25" y="-820.73" font-family="Helvetica,sans-Serif" font-size="12.00" fill="#838b8b">0.83s: Shoot</text>
<text text-anchor="start" x="584.25" y="-808.73" font-family="Helvetica,sans-Serif" font-size="12.00" fill="#838b8b">2.42s: Shoot2</text>
<text text-anchor="start" x="584.25" y="-794.83" font-family="Helvetica,sans-Serif" font-size="12.00" fill="#838b8b">3.50s: Done</text>
<text text-anchor="start" x="648.75" y="-794.83" font-family="Helvetica,sans-Serif" font-size="14.00"> &#160;</text>
</g>
<!-- SummonMonster&#45;&gt;Engaging -->
<g id="edge17" class="edge">
<title>SummonMonster&#45;&gt;Engaging</title>
<path fill="none" stroke="#cdc8b1" d="M707.5,-818.63C758.81,-810.56 828.74,-799.58 874.49,-792.39"/>
<polygon fill="#cdc8b1" stroke="#cdc8b1" points="875.02,-795.85 884.36,-790.84 873.94,-788.93 875.02,-795.85"/>
</g>
<!-- 3Slashes_ForBossFight -->
<g id="node27" class="node">
<title>3Slashes_ForBossFight</title>
<polygon fill="none" stroke="black" points="562.12,-1008.12 562.12,-1029.88 718.88,-1029.88 718.88,-1008.12 562.12,-1008.12"/>
<text text-anchor="start" x="565.12" y="-1013.58" font-family="Helvetica,sans-Serif" font-size="14.00">3Slashes_ForBossFight &#160;</text>
<polygon fill="none" stroke="black" points="562.12,-964.12 562.12,-1008.12 718.88,-1008.12 718.88,-964.12 562.12,-964.12"/>
<text text-anchor="start" x="565.12" y="-994.73" font-family="Helvetica,sans-Serif" font-size="12.00" fill="#838b8b">1.08s: CheckFacing</text>
<text text-anchor="start" x="565.12" y="-982.73" font-family="Helvetica,sans-Serif" font-size="12.00" fill="#838b8b">1.83s: CheckFacing</text>
<text text-anchor="start" x="565.12" y="-968.83" font-family="Helvetica,sans-Serif" font-size="12.00" fill="#838b8b">3.52s: Done</text>
<text text-anchor="start" x="629.62" y="-968.83" font-family="Helvetica,sans-Serif" font-size="14.00"> &#160;</text>
</g>
<!-- 3Slashes_ForBossFight&#45;&gt;Engaging -->
<g id="edge18" class="edge">
<title>3Slashes_ForBossFight&#45;&gt;Engaging</title>
<path fill="none" stroke="#cdc8b1" d="M722.16,-960.22C727.27,-957.26 732.26,-954.18 737,-951 799.68,-908.96 862.96,-846.74 896.67,-811.63"/>
<polygon fill="#cdc8b1" stroke="#cdc8b1" points="899.19,-814.07 903.55,-804.41 894.12,-809.24 899.19,-814.07"/>
</g>
<!-- 3Slashes_ForBossFight_linked -->
<g id="node28" class="node">
<title>3Slashes_ForBossFight_linked</title>
<polygon fill="none" stroke="black" stroke-dasharray="1,5" points="961.1,-1036.1 883.9,-1036.1 883.9,-949.9 961.1,-949.9 961.1,-1036.1"/>
<text text-anchor="start" x="890.25" y="-1017.2" font-family="Helvetica,sans-Serif" font-size="14.00">Engaging &#160;</text>
<text text-anchor="start" x="890.25" y="-997.45" font-family="Helvetica,sans-Serif" font-size="14.00">Engaging &#160;</text>
<text text-anchor="start" x="889.5" y="-977.7" font-family="Helvetica,sans-Serif" font-size="14.00">Explosion &#160;</text>
<text text-anchor="start" x="890.25" y="-957.95" font-family="Helvetica,sans-Serif" font-size="14.00">Engaging &#160;</text>
</g>
<!-- 3Slashes_ForBossFight&#45;&gt;3Slashes_ForBossFight_linked -->
<g id="edge19" class="edge">
<title>3Slashes_ForBossFight&#45;&gt;3Slashes_ForBossFight_linked</title>
<path fill="none" stroke="#66cdaa" d="M726.65,-995.78C774.24,-995.1 831.88,-994.28 872.07,-993.71"/>
<polygon fill="#66cdaa" stroke="#66cdaa" points="871.97,-997.21 881.92,-993.57 871.87,-990.21 871.97,-997.21"/>
<text text-anchor="middle" x="787.62" y="-997.81" font-family="Helvetica,sans-Serif" font-size="14.00" fill="#66cdaa">QueueEnd</text>
</g>
<!-- AttackParrying -->
<g id="node29" class="node">
<title>AttackParrying</title>
<polygon fill="none" stroke="black" points="589.88,-742 589.88,-763.75 691.12,-763.75 691.12,-742 589.88,-742"/>
<text text-anchor="start" x="592.88" y="-747.45" font-family="Helvetica,sans-Serif" font-size="14.00">AttackParrying &#160;</text>
<polygon fill="none" stroke="black" points="589.88,-720.25 589.88,-742 691.12,-742 691.12,-720.25 589.88,-720.25"/>
<text text-anchor="start" x="592.88" y="-726.7" font-family="Helvetica,sans-Serif" font-size="12.00" fill="#838b8b">0.62s: Done</text>
<text text-anchor="start" x="657.38" y="-726.7" font-family="Helvetica,sans-Serif" font-size="14.00"> &#160;</text>
</g>
<!-- AttackParrying&#45;&gt;Engaging -->
<g id="edge20" class="edge">
<title>AttackParrying&#45;&gt;Engaging</title>
<path fill="none" stroke="#cdc8b1" d="M698.84,-750.81C750.68,-758.77 826.08,-770.35 874.46,-777.78"/>
<polygon fill="#cdc8b1" stroke="#cdc8b1" points="873.64,-781.19 884.05,-779.25 874.7,-774.27 873.64,-781.19"/>
</g>
<!-- Fake_Dead 假死 -->
<g id="node30" class="node">
<title>Fake_Dead 假死</title>
<polygon fill="none" stroke="black" points="31.12,-672.12 31.12,-693.88 152.62,-693.88 152.62,-672.12 31.12,-672.12"/>
<text text-anchor="start" x="34.12" y="-677.58" font-family="Helvetica,sans-Serif" font-size="14.00">Fake_Dead 假死 &#160;</text>
<polygon fill="none" stroke="black" points="31.12,-640.12 31.12,-672.12 152.62,-672.12 152.62,-640.12 31.12,-640.12"/>
<text text-anchor="start" x="34.12" y="-658.73" font-family="Helvetica,sans-Serif" font-size="12.00" fill="#838b8b">0.17s: Shoot</text>
<text text-anchor="start" x="34.12" y="-644.83" font-family="Helvetica,sans-Serif" font-size="12.00" fill="#838b8b">0.42s: Done</text>
<text text-anchor="start" x="98.62" y="-644.83" font-family="Helvetica,sans-Serif" font-size="14.00"> &#160;</text>
</g>
<!-- Fake_Dead 假死&#45;&gt;DeadLoop(ForBossFightCutscene) -->
<g id="edge21" class="edge">
<title>Fake_Dead 假死&#45;&gt;DeadLoop(ForBossFightCutscene)</title>
<path fill="none" stroke="#cdc8b1" d="M160.35,-667C189.3,-667 224.14,-667 257.73,-667"/>
<polygon fill="#cdc8b1" stroke="#cdc8b1" points="257.55,-670.5 267.55,-667 257.55,-663.5 257.55,-670.5"/>
</g>
<!-- HurtState -->
<g id="node31" class="node">
<title>HurtState</title>
<polygon fill="none" stroke="black" points="52.88,-951 52.88,-972.75 130.88,-972.75 130.88,-951 52.88,-951"/>
<text text-anchor="start" x="59.62" y="-956.45" font-family="Helvetica,sans-Serif" font-size="14.00">HurtState &#160;</text>
<polygon fill="none" stroke="black" points="52.88,-929.25 52.88,-951 130.88,-951 130.88,-929.25 52.88,-929.25"/>
<text text-anchor="start" x="55.88" y="-935.7" font-family="Helvetica,sans-Serif" font-size="12.00" fill="#838b8b">0.33s: Done</text>
<text text-anchor="start" x="120.38" y="-935.7" font-family="Helvetica,sans-Serif" font-size="14.00"> &#160;</text>
</g>
<!-- PreAttack -->
<g id="node32" class="node">
<title>PreAttack</title>
<polygon fill="none" stroke="black" points="425.25,-934 350.75,-934 350.75,-898 425.25,-898 425.25,-934"/>
<text text-anchor="middle" x="388" y="-910.58" font-family="Helvetica,sans-Serif" font-size="14.00">PreAttack</text>
</g>
<!-- HurtState&#45;&gt;PreAttack -->
<g id="edge22" class="edge">
<title>HurtState&#45;&gt;PreAttack</title>
<path fill="none" stroke="#cdc8b1" d="M138.83,-945.53C193.44,-939.03 284.08,-928.25 339.4,-921.66"/>
<polygon fill="#cdc8b1" stroke="#cdc8b1" points="339.62,-925.16 349.14,-920.51 338.79,-918.21 339.62,-925.16"/>
</g>
<!-- Hurt_BigState -->
<g id="node33" class="node">
<title>Hurt_BigState</title>
<polygon fill="none" stroke="black" points="43.12,-881 43.12,-902.75 140.62,-902.75 140.62,-881 43.12,-881"/>
<text text-anchor="start" x="46.12" y="-886.45" font-family="Helvetica,sans-Serif" font-size="14.00">Hurt_BigState &#160;</text>
<polygon fill="none" stroke="black" points="43.12,-859.25 43.12,-881 140.62,-881 140.62,-859.25 43.12,-859.25"/>
<text text-anchor="start" x="46.12" y="-865.7" font-family="Helvetica,sans-Serif" font-size="12.00" fill="#838b8b">0.33s: Done</text>
<text text-anchor="start" x="110.62" y="-865.7" font-family="Helvetica,sans-Serif" font-size="14.00"> &#160;</text>
</g>
<!-- Hurt_BigState&#45;&gt;PreAttack -->
<g id="edge23" class="edge">
<title>Hurt_BigState&#45;&gt;PreAttack</title>
<path fill="none" stroke="#cdc8b1" d="M148.54,-887.62C203.66,-894.18 287.16,-904.12 339.32,-910.33"/>
<polygon fill="#cdc8b1" stroke="#cdc8b1" points="338.74,-913.78 349.09,-911.49 339.57,-906.83 338.74,-913.78"/>
</g>
<!-- ZEnterState -->
<g id="node34" class="node">
<title>ZEnterState</title>
<polygon fill="none" stroke="black" points="345.25,-1146 345.25,-1167.75 430.75,-1167.75 430.75,-1146 345.25,-1146"/>
<text text-anchor="start" x="348.25" y="-1151.45" font-family="Helvetica,sans-Serif" font-size="14.00">ZEnterState &#160;</text>
<polygon fill="none" stroke="black" points="345.25,-1124.25 345.25,-1146 430.75,-1146 430.75,-1124.25 345.25,-1124.25"/>
<text text-anchor="start" x="348.25" y="-1130.7" font-family="Helvetica,sans-Serif" font-size="12.00" fill="#838b8b">2.50s: Done</text>
<text text-anchor="start" x="412.75" y="-1130.7" font-family="Helvetica,sans-Serif" font-size="14.00"> &#160;</text>
</g>
<!-- Wandering_Idle -->
<g id="node35" class="node">
<title>Wandering_Idle</title>
<polygon fill="none" stroke="black" points="695.75,-1164 585.25,-1164 585.25,-1128 695.75,-1128 695.75,-1164"/>
<text text-anchor="middle" x="640.5" y="-1140.58" font-family="Helvetica,sans-Serif" font-size="14.00">Wandering_Idle</text>
</g>
<!-- ZEnterState&#45;&gt;Wandering_Idle -->
<g id="edge25" class="edge">
<title>ZEnterState&#45;&gt;Wandering_Idle</title>
<path fill="none" stroke="#cdc8b1" d="M438.49,-1146C477.15,-1146 531.24,-1146 573.57,-1146"/>
<polygon fill="#cdc8b1" stroke="#cdc8b1" points="573.38,-1149.5 583.38,-1146 573.38,-1142.5 573.38,-1149.5"/>
</g>
<!-- ZExitState -->
<g id="node36" class="node">
<title>ZExitState</title>
<text text-anchor="middle" x="91.88" y="-1140.58" font-family="Helvetica,sans-Serif" font-size="14.00">ZExitState (Init)</text>
</g>
<!-- ZExitState&#45;&gt;ZEnterState -->
<g id="edge26" class="edge">
<title>ZExitState&#45;&gt;ZEnterState</title>
<path fill="none" stroke="#cdc8b1" d="M146.14,-1146C196.88,-1146 273.19,-1146 326.27,-1146"/>
<polygon fill="#cdc8b1" stroke="#cdc8b1" points="326.05,-1149.5 336.05,-1146 326.05,-1142.5 326.05,-1149.5"/>
</g>
</g>
</svg>
