<?xml version="1.0" encoding="UTF-8" standalone="no"?>
<!DOCTYPE svg PUBLIC "-//W3C//DTD SVG 1.1//EN"
 "http://www.w3.org/Graphics/SVG/1.1/DTD/svg11.dtd">
<!-- Generated by graphviz version 12.2.1 (20241206.2353)
 -->
<!-- Title: Foo Pages: 1 -->
<svg width="417pt" height="1249pt"
 viewBox="0.00 0.00 416.70 1248.75" xmlns="http://www.w3.org/2000/svg" xmlns:xlink="http://www.w3.org/1999/xlink">
<g id="graph0" class="graph" transform="scale(1 1) rotate(0) translate(4 1244.75)">
<title>Foo</title>
<polygon fill="white" stroke="none" points="-4,4 -4,-1244.75 412.7,-1244.75 412.7,4 -4,4"/>
<g id="clust1" class="cluster">
<title>cluster_attacksensors</title>
<polygon fill="none" stroke="black" points="8,-626.75 8,-1232.75 400.7,-1232.75 400.7,-626.75 8,-626.75"/>
<text text-anchor="middle" x="204.35" y="-1215.45" font-family="Helvetica,sans-Serif" font-size="14.00">Attack Sensors</text>
</g>
<!-- Heavy Forward 2 -->
<g id="node1" class="node">
<title>Heavy Forward 2</title>
<polygon fill="none" stroke="black" points="34.12,-328.88 34.12,-350.62 151.88,-350.62 151.88,-328.88 34.12,-328.88"/>
<text text-anchor="start" x="37.88" y="-334.32" font-family="Helvetica,sans-Serif" font-size="14.00">Heavy Forward 2 &#160;</text>
<polygon fill="none" stroke="black" points="34.12,-284.88 34.12,-328.88 151.88,-328.88 151.88,-284.88 34.12,-284.88"/>
<text text-anchor="start" x="37.12" y="-315.48" font-family="Helvetica,sans-Serif" font-size="12.00" fill="#838b8b">2.95s: CheckFacing</text>
<text text-anchor="start" x="37.12" y="-303.48" font-family="Helvetica,sans-Serif" font-size="12.00" fill="#838b8b">4.83s: LinkNextMove</text>
<text text-anchor="start" x="37.12" y="-289.58" font-family="Helvetica,sans-Serif" font-size="12.00" fill="#838b8b">5.00s: Done</text>
<text text-anchor="start" x="101.62" y="-289.58" font-family="Helvetica,sans-Serif" font-size="14.00"> &#160;</text>
</g>
<!-- Engaging -->
<g id="node2" class="node">
<title>Engaging</title>
<polygon fill="none" stroke="black" points="368.48,-217.75 295.48,-217.75 295.48,-181.75 368.48,-181.75 368.48,-217.75"/>
<text text-anchor="middle" x="331.98" y="-194.32" font-family="Helvetica,sans-Serif" font-size="14.00">Engaging</text>
</g>
<!-- Heavy Forward 2&#45;&gt;Engaging -->
<g id="edge1" class="edge">
<title>Heavy Forward 2&#45;&gt;Engaging</title>
<path fill="none" stroke="#cdc8b1" d="M159.7,-285.04C199.59,-265.17 249.52,-240.31 285.16,-222.56"/>
<polygon fill="#cdc8b1" stroke="#cdc8b1" points="286.53,-225.79 293.92,-218.2 283.41,-219.53 286.53,-225.79"/>
</g>
<!-- Heavy Forward 2_linked -->
<g id="node3" class="node">
<title>Heavy Forward 2_linked</title>
<polygon fill="none" stroke="black" stroke-dasharray="1,5" points="375.08,-335.75 288.88,-335.75 288.88,-299.75 375.08,-299.75 375.08,-335.75"/>
<text text-anchor="start" x="294.48" y="-312.32" font-family="Helvetica,sans-Serif" font-size="14.00">JumpSlash &#160;</text>
</g>
<!-- Heavy Forward 2&#45;&gt;Heavy Forward 2_linked -->
<g id="edge2" class="edge">
<title>Heavy Forward 2&#45;&gt;Heavy Forward 2_linked</title>
<path fill="none" stroke="#66cdaa" d="M159.7,-317.75C196.74,-317.75 242.43,-317.75 277.31,-317.75"/>
<polygon fill="#66cdaa" stroke="#66cdaa" points="277.18,-321.25 287.18,-317.75 277.18,-314.25 277.18,-321.25"/>
<text text-anchor="middle" x="220.62" y="-320.2" font-family="Helvetica,sans-Serif" font-size="14.00" fill="#66cdaa">QueueEnd</text>
</g>
<!-- Quadro Smash -->
<g id="node4" class="node">
<title>Quadro Smash</title>
<polygon fill="none" stroke="black" points="34.12,-86.88 34.12,-108.62 151.88,-108.62 151.88,-86.88 34.12,-86.88"/>
<text text-anchor="start" x="43.12" y="-92.33" font-family="Helvetica,sans-Serif" font-size="14.00">Quadro Smash &#160;</text>
<polygon fill="none" stroke="black" points="34.12,-42.88 34.12,-86.88 151.88,-86.88 151.88,-42.88 34.12,-42.88"/>
<text text-anchor="start" x="37.12" y="-73.47" font-family="Helvetica,sans-Serif" font-size="12.00" fill="#838b8b">2.67s: CheckFacing</text>
<text text-anchor="start" x="37.12" y="-61.47" font-family="Helvetica,sans-Serif" font-size="12.00" fill="#838b8b">4.92s: LinkNextMove</text>
<text text-anchor="start" x="37.12" y="-47.57" font-family="Helvetica,sans-Serif" font-size="12.00" fill="#838b8b">5.00s: Done</text>
<text text-anchor="start" x="101.62" y="-47.57" font-family="Helvetica,sans-Serif" font-size="14.00"> &#160;</text>
</g>
<!-- Quadro Smash&#45;&gt;Engaging -->
<g id="edge3" class="edge">
<title>Quadro Smash&#45;&gt;Engaging</title>
<path fill="none" stroke="#cdc8b1" d="M159.7,-110.13C199.84,-131.13 250.15,-157.45 285.83,-176.13"/>
<polygon fill="#cdc8b1" stroke="#cdc8b1" points="284.12,-179.18 294.6,-180.72 287.36,-172.98 284.12,-179.18"/>
</g>
<!-- Quadro Smash_linked -->
<g id="node5" class="node">
<title>Quadro Smash_linked</title>
<polygon fill="none" stroke="black" stroke-dasharray="1,5" points="375.08,-101.75 288.88,-101.75 288.88,-65.75 375.08,-65.75 375.08,-101.75"/>
<text text-anchor="start" x="294.48" y="-78.33" font-family="Helvetica,sans-Serif" font-size="14.00">JumpSlash &#160;</text>
</g>
<!-- Quadro Smash&#45;&gt;Quadro Smash_linked -->
<g id="edge4" class="edge">
<title>Quadro Smash&#45;&gt;Quadro Smash_linked</title>
<path fill="none" stroke="#66cdaa" d="M159.7,-77.97C196.74,-79.22 242.43,-80.76 277.31,-81.94"/>
<polygon fill="#66cdaa" stroke="#66cdaa" points="277.07,-85.43 287.18,-82.27 277.3,-78.44 277.07,-85.43"/>
<text text-anchor="middle" x="220.62" y="-83.38" font-family="Helvetica,sans-Serif" font-size="14.00" fill="#66cdaa">QueueEnd</text>
</g>
<!-- Quadro Smash_mustuse -->
<g id="node6" class="node">
<title>Quadro Smash_mustuse</title>
<polygon fill="none" stroke="black" stroke-dasharray="1,5" points="382.1,-47.5 281.85,-47.5 281.85,0 382.1,0 382.1,-47.5"/>
<text text-anchor="start" x="291.85" y="-28.2" font-family="Helvetica,sans-Serif" font-size="14.00">1 Undefined &#160;</text>
<text text-anchor="start" x="291.85" y="-8.45" font-family="Helvetica,sans-Serif" font-size="14.00">0 Undefined &#160;</text>
</g>
<!-- Quadro Smash&#45;&gt;Quadro Smash_mustuse -->
<g id="edge5" class="edge">
<title>Quadro Smash&#45;&gt;Quadro Smash_mustuse</title>
<path fill="none" stroke="#458b74" d="M159.7,-61.33C194.4,-53.72 236.7,-44.44 270.58,-37"/>
<polygon fill="#458b74" stroke="#458b74" points="271.23,-40.44 280.24,-34.88 269.73,-33.61 271.23,-40.44"/>
<text text-anchor="middle" x="220.62" y="-56.86" font-family="Helvetica,sans-Serif" font-size="14.00" fill="#458b74">Weight</text>
</g>
<!-- JumpSlash -->
<g id="node7" class="node">
<title>JumpSlash</title>
<polygon fill="none" stroke="black" points="52.5,-236.75 52.5,-258.5 133.5,-258.5 133.5,-236.75 52.5,-236.75"/>
<text text-anchor="start" x="55.5" y="-242.2" font-family="Helvetica,sans-Serif" font-size="14.00">JumpSlash &#160;</text>
<polygon fill="none" stroke="black" points="52.5,-215 52.5,-236.75 133.5,-236.75 133.5,-215 52.5,-215"/>
<text text-anchor="start" x="55.5" y="-221.45" font-family="Helvetica,sans-Serif" font-size="12.00" fill="#838b8b">3.33s: Done</text>
<text text-anchor="start" x="120" y="-221.45" font-family="Helvetica,sans-Serif" font-size="14.00"> &#160;</text>
</g>
<!-- JumpSlash&#45;&gt;Engaging -->
<g id="edge6" class="edge">
<title>JumpSlash&#45;&gt;Engaging</title>
<path fill="none" stroke="#cdc8b1" d="M141.39,-229.35C182.87,-222.87 242.8,-213.52 284.13,-207.06"/>
<polygon fill="#cdc8b1" stroke="#cdc8b1" points="284.42,-210.56 293.76,-205.56 283.34,-203.64 284.42,-210.56"/>
</g>
<!-- AttackParrying -->
<g id="node8" class="node">
<title>AttackParrying</title>
<polygon fill="none" stroke="black" points="34.5,-166.88 34.5,-188.62 151.5,-188.62 151.5,-166.88 34.5,-166.88"/>
<text text-anchor="start" x="45.38" y="-172.32" font-family="Helvetica,sans-Serif" font-size="14.00">AttackParrying &#160;</text>
<polygon fill="none" stroke="black" points="34.5,-134.88 34.5,-166.88 151.5,-166.88 151.5,-134.88 34.5,-134.88"/>
<text text-anchor="start" x="37.5" y="-153.47" font-family="Helvetica,sans-Serif" font-size="12.00" fill="#838b8b">0.00s: EnableGravity</text>
<text text-anchor="start" x="37.5" y="-139.57" font-family="Helvetica,sans-Serif" font-size="12.00" fill="#838b8b">1.77s: Done</text>
<text text-anchor="start" x="102" y="-139.57" font-family="Helvetica,sans-Serif" font-size="14.00"> &#160;</text>
</g>
<!-- AttackParrying&#45;&gt;Engaging -->
<g id="edge7" class="edge">
<title>AttackParrying&#45;&gt;Engaging</title>
<path fill="none" stroke="#cdc8b1" d="M159.38,-172.23C198.94,-178.58 248.46,-186.52 284.12,-192.24"/>
<polygon fill="#cdc8b1" stroke="#cdc8b1" points="283.25,-195.64 293.68,-193.77 284.36,-188.73 283.25,-195.64"/>
</g>
<!-- HurtState -->
<g id="node9" class="node">
<title>HurtState</title>
<polygon fill="none" stroke="black" points="54,-468.75 54,-490.5 132,-490.5 132,-468.75 54,-468.75"/>
<text text-anchor="start" x="60.75" y="-474.2" font-family="Helvetica,sans-Serif" font-size="14.00">HurtState &#160;</text>
<polygon fill="none" stroke="black" points="54,-447 54,-468.75 132,-468.75 132,-447 54,-447"/>
<text text-anchor="start" x="57" y="-453.45" font-family="Helvetica,sans-Serif" font-size="12.00" fill="#838b8b">0.33s: Done</text>
<text text-anchor="start" x="121.5" y="-453.45" font-family="Helvetica,sans-Serif" font-size="14.00"> &#160;</text>
</g>
<!-- PreAttack -->
<g id="node10" class="node">
<title>PreAttack</title>
<polygon fill="none" stroke="black" points="369.23,-451.75 294.73,-451.75 294.73,-415.75 369.23,-415.75 369.23,-451.75"/>
<text text-anchor="middle" x="331.98" y="-428.32" font-family="Helvetica,sans-Serif" font-size="14.00">PreAttack</text>
</g>
<!-- HurtState&#45;&gt;PreAttack -->
<g id="edge8" class="edge">
<title>HurtState&#45;&gt;PreAttack</title>
<path fill="none" stroke="#cdc8b1" d="M139.97,-461.96C181.19,-455.87 241.42,-446.98 283.19,-440.81"/>
<polygon fill="#cdc8b1" stroke="#cdc8b1" points="283.56,-444.29 292.95,-439.37 282.54,-437.37 283.56,-444.29"/>
</g>
<!-- Hurt_BigState -->
<g id="node11" class="node">
<title>Hurt_BigState</title>
<polygon fill="none" stroke="black" points="44.25,-398.75 44.25,-420.5 141.75,-420.5 141.75,-398.75 44.25,-398.75"/>
<text text-anchor="start" x="47.25" y="-404.2" font-family="Helvetica,sans-Serif" font-size="14.00">Hurt_BigState &#160;</text>
<polygon fill="none" stroke="black" points="44.25,-377 44.25,-398.75 141.75,-398.75 141.75,-377 44.25,-377"/>
<text text-anchor="start" x="47.25" y="-383.45" font-family="Helvetica,sans-Serif" font-size="12.00" fill="#838b8b">0.25s: Done</text>
<text text-anchor="start" x="111.75" y="-383.45" font-family="Helvetica,sans-Serif" font-size="14.00"> &#160;</text>
</g>
<!-- Hurt_BigState&#45;&gt;PreAttack -->
<g id="edge9" class="edge">
<title>Hurt_BigState&#45;&gt;PreAttack</title>
<path fill="none" stroke="#cdc8b1" d="M149.56,-406.96C190.28,-412.97 244.96,-421.05 283.61,-426.75"/>
<polygon fill="#cdc8b1" stroke="#cdc8b1" points="282.66,-430.15 293.06,-428.15 283.68,-423.23 282.66,-430.15"/>
</g>
<!-- LastHit -->
<g id="node12" class="node">
<title>LastHit</title>
<polygon fill="none" stroke="black" points="54,-538.75 54,-560.5 132,-560.5 132,-538.75 54,-538.75"/>
<text text-anchor="start" x="68.25" y="-544.2" font-family="Helvetica,sans-Serif" font-size="14.00">LastHit &#160;</text>
<polygon fill="none" stroke="black" points="54,-517 54,-538.75 132,-538.75 132,-517 54,-517"/>
<text text-anchor="start" x="57" y="-523.45" font-family="Helvetica,sans-Serif" font-size="12.00" fill="#838b8b">0.33s: Done</text>
<text text-anchor="start" x="121.5" y="-523.45" font-family="Helvetica,sans-Serif" font-size="14.00"> &#160;</text>
</g>
<!-- DeadState -->
<g id="node13" class="node">
<title>DeadState</title>
<polygon fill="none" stroke="black" points="371.85,-556.75 292.1,-556.75 292.1,-520.75 371.85,-520.75 371.85,-556.75"/>
<text text-anchor="middle" x="331.98" y="-533.33" font-family="Helvetica,sans-Serif" font-size="14.00">DeadState</text>
</g>
<!-- LastHit&#45;&gt;DeadState -->
<g id="edge10" class="edge">
<title>LastHit&#45;&gt;DeadState</title>
<path fill="none" stroke="#cdc8b1" d="M139.97,-538.75C180.33,-538.75 238.91,-538.75 280.54,-538.75"/>
<polygon fill="#cdc8b1" stroke="#cdc8b1" points="280.29,-542.25 290.29,-538.75 280.29,-535.25 280.29,-542.25"/>
</g>
<!-- Wandering_Idle -->
<g id="node14" class="node">
<title>Wandering_Idle</title>
<polygon fill="none" stroke="black" points="163.62,-618.75 22.38,-618.75 22.38,-582.75 163.62,-582.75 163.62,-618.75"/>
<text text-anchor="middle" x="93" y="-595.33" font-family="Helvetica,sans-Serif" font-size="14.00">Wandering_Idle (Init)</text>
</g>
<!-- Level Once Sensor -->
<g id="node15" class="node">
<title>Level Once Sensor</title>
<polygon fill="none" stroke="black" points="158.75,-695.75 27.25,-695.75 27.25,-659.75 158.75,-659.75 158.75,-695.75"/>
<text text-anchor="middle" x="93" y="-672.33" font-family="Helvetica,sans-Serif" font-size="14.00">Level Once Sensor</text>
</g>
<!-- Level Once Sensor_linked -->
<g id="node16" class="node">
<title>Level Once Sensor_linked</title>
<polygon fill="none" stroke="black" stroke-dasharray="1,5" points="392.7,-670.75 271.25,-670.75 271.25,-634.75 392.7,-634.75 392.7,-670.75"/>
<text text-anchor="start" x="276.85" y="-647.33" font-family="Helvetica,sans-Serif" font-size="14.00">Heavy Forward 2 &#160;</text>
</g>
<!-- Level Once Sensor&#45;&gt;Level Once Sensor_linked -->
<g id="edge11" class="edge">
<title>Level Once Sensor&#45;&gt;Level Once Sensor_linked</title>
<path fill="none" stroke="#66cdaa" d="M159.11,-665.96C168.77,-664.47 178.63,-663.09 188,-662 211.25,-659.31 236.73,-657.34 259.65,-655.94"/>
<polygon fill="#66cdaa" stroke="#66cdaa" points="259.74,-659.44 269.52,-655.36 259.33,-652.45 259.74,-659.44"/>
<text text-anchor="middle" x="220.62" y="-664.45" font-family="Helvetica,sans-Serif" font-size="14.00" fill="#66cdaa">QueueEnd</text>
</g>
<!-- Level Once Sensor_mustuse -->
<g id="node17" class="node">
<title>Level Once Sensor_mustuse</title>
<polygon fill="none" stroke="black" stroke-dasharray="1,5" points="382.1,-724.75 281.85,-724.75 281.85,-688.75 382.1,-688.75 382.1,-724.75"/>
<text text-anchor="start" x="291.85" y="-701.33" font-family="Helvetica,sans-Serif" font-size="14.00">1 Undefined &#160;</text>
</g>
<!-- Level Once Sensor&#45;&gt;Level Once Sensor_mustuse -->
<g id="edge12" class="edge">
<title>Level Once Sensor&#45;&gt;Level Once Sensor_mustuse</title>
<path fill="none" stroke="#458b74" d="M159.07,-685.71C193.78,-689.96 236.24,-695.16 270.27,-699.32"/>
<polygon fill="#458b74" stroke="#458b74" points="269.61,-702.77 279.96,-700.51 270.46,-695.82 269.61,-702.77"/>
<text text-anchor="middle" x="220.62" y="-698.99" font-family="Helvetica,sans-Serif" font-size="14.00" fill="#458b74">Weight</text>
</g>
<!-- RunAwaySensor -->
<g id="node18" class="node">
<title>RunAwaySensor</title>
<polygon fill="none" stroke="black" points="151.25,-778.75 34.75,-778.75 34.75,-742.75 151.25,-742.75 151.25,-778.75"/>
<text text-anchor="middle" x="93" y="-755.33" font-family="Helvetica,sans-Serif" font-size="14.00">RunAwaySensor</text>
</g>
<!-- RunAwaySensor_linked -->
<g id="node19" class="node">
<title>RunAwaySensor_linked</title>
<polygon fill="none" stroke="black" stroke-dasharray="1,5" points="392.7,-778.75 271.25,-778.75 271.25,-742.75 392.7,-742.75 392.7,-778.75"/>
<text text-anchor="start" x="276.85" y="-755.33" font-family="Helvetica,sans-Serif" font-size="14.00">Heavy Forward 2 &#160;</text>
</g>
<!-- RunAwaySensor&#45;&gt;RunAwaySensor_linked -->
<g id="edge13" class="edge">
<title>RunAwaySensor&#45;&gt;RunAwaySensor_linked</title>
<path fill="none" stroke="#66cdaa" d="M151.67,-760.75C184.16,-760.75 225.03,-760.75 259.54,-760.75"/>
<polygon fill="#66cdaa" stroke="#66cdaa" points="259.47,-764.25 269.47,-760.75 259.47,-757.25 259.47,-764.25"/>
<text text-anchor="middle" x="220.62" y="-763.2" font-family="Helvetica,sans-Serif" font-size="14.00" fill="#66cdaa">QueueEnd</text>
</g>
<!-- AttackSensor -->
<g id="node20" class="node">
<title>AttackSensor</title>
<polygon fill="none" stroke="black" points="141.12,-865.75 44.88,-865.75 44.88,-829.75 141.12,-829.75 141.12,-865.75"/>
<text text-anchor="middle" x="93" y="-842.33" font-family="Helvetica,sans-Serif" font-size="14.00">AttackSensor</text>
</g>
<!-- AttackSensor_linked -->
<g id="node21" class="node">
<title>AttackSensor_linked</title>
<polygon fill="none" stroke="black" stroke-dasharray="1,5" points="392.7,-843.1 271.25,-843.1 271.25,-796.4 392.7,-796.4 392.7,-843.1"/>
<text text-anchor="start" x="282.1" y="-824.2" font-family="Helvetica,sans-Serif" font-size="14.00">Quadro Smash &#160;</text>
<text text-anchor="start" x="276.85" y="-804.45" font-family="Helvetica,sans-Serif" font-size="14.00">Heavy Forward 2 &#160;</text>
</g>
<!-- AttackSensor&#45;&gt;AttackSensor_linked -->
<g id="edge14" class="edge">
<title>AttackSensor&#45;&gt;AttackSensor_linked</title>
<path fill="none" stroke="#66cdaa" d="M141.28,-840.4C156.21,-838.2 172.78,-835.87 188,-834 211.3,-831.14 236.79,-828.45 259.71,-826.2"/>
<polygon fill="#66cdaa" stroke="#66cdaa" points="259.96,-829.7 269.58,-825.25 259.28,-822.73 259.96,-829.7"/>
<text text-anchor="middle" x="220.62" y="-836.45" font-family="Helvetica,sans-Serif" font-size="14.00" fill="#66cdaa">QueueEnd</text>
</g>
<!-- AttackSensor_mustuse -->
<g id="node22" class="node">
<title>AttackSensor_mustuse</title>
<polygon fill="none" stroke="black" stroke-dasharray="1,5" points="364.48,-908.5 299.48,-908.5 299.48,-861 364.48,-861 364.48,-908.5"/>
<text text-anchor="start" x="309.48" y="-889.2" font-family="Helvetica,sans-Serif" font-size="14.00">2 Skip &#160;</text>
<text text-anchor="start" x="309.48" y="-869.45" font-family="Helvetica,sans-Serif" font-size="14.00">1 Skip &#160;</text>
</g>
<!-- AttackSensor&#45;&gt;AttackSensor_mustuse -->
<g id="edge15" class="edge">
<title>AttackSensor&#45;&gt;AttackSensor_mustuse</title>
<path fill="none" stroke="#458b74" d="M141.39,-855.15C184.14,-861.82 246.48,-871.56 287.86,-878.02"/>
<polygon fill="#458b74" stroke="#458b74" points="287.28,-881.47 297.7,-879.56 288.36,-874.55 287.28,-881.47"/>
<text text-anchor="middle" x="220.62" y="-874.18" font-family="Helvetica,sans-Serif" font-size="14.00" fill="#458b74">Weight</text>
</g>
<!-- DodgePredictSensor -->
<g id="node23" class="node">
<title>DodgePredictSensor</title>
<polygon fill="none" stroke="black" points="24,-926.75 24,-948.5 162,-948.5 162,-926.75 24,-926.75"/>
<text text-anchor="start" x="27" y="-932.2" font-family="Helvetica,sans-Serif" font-size="14.00">DodgePredictSensor &#160;</text>
<polygon fill="none" stroke="black" points="24,-905 24,-926.75 162,-926.75 162,-905 24,-905"/>
<text text-anchor="start" x="27" y="-911.45" font-family="Helvetica,sans-Serif" font-size="12.00" fill="#838b8b">if: Dodge</text>
<text text-anchor="start" x="75" y="-911.45" font-family="Helvetica,sans-Serif" font-size="14.00"> &#160;</text>
</g>
<!-- DodgePredictSensor_linked -->
<g id="node24" class="node">
<title>DodgePredictSensor_linked</title>
<polygon fill="none" stroke="black" stroke-dasharray="1,5" points="392.7,-962.75 271.25,-962.75 271.25,-926.75 392.7,-926.75 392.7,-962.75"/>
<text text-anchor="start" x="276.85" y="-939.33" font-family="Helvetica,sans-Serif" font-size="14.00">Heavy Forward 2 &#160;</text>
</g>
<!-- DodgePredictSensor&#45;&gt;DodgePredictSensor_linked -->
<g id="edge16" class="edge">
<title>DodgePredictSensor&#45;&gt;DodgePredictSensor_linked</title>
<path fill="none" stroke="#66cdaa" d="M169.96,-932.52C198.63,-934.7 231.14,-937.17 259.4,-939.31"/>
<polygon fill="#66cdaa" stroke="#66cdaa" points="259.07,-942.8 269.31,-940.07 259.6,-935.82 259.07,-942.8"/>
<text text-anchor="middle" x="220.62" y="-940.86" font-family="Helvetica,sans-Serif" font-size="14.00" fill="#66cdaa">QueueEnd</text>
</g>
<!-- AttackPredictSensor -->
<g id="node25" class="node">
<title>AttackPredictSensor</title>
<polygon fill="none" stroke="black" points="25.12,-996.75 25.12,-1018.5 160.88,-1018.5 160.88,-996.75 25.12,-996.75"/>
<text text-anchor="start" x="28.12" y="-1002.2" font-family="Helvetica,sans-Serif" font-size="14.00">AttackPredictSensor &#160;</text>
<polygon fill="none" stroke="black" points="25.12,-975 25.12,-996.75 160.88,-996.75 160.88,-975 25.12,-975"/>
<text text-anchor="start" x="28.12" y="-981.45" font-family="Helvetica,sans-Serif" font-size="12.00" fill="#838b8b">if: Attack</text>
<text text-anchor="start" x="73.12" y="-981.45" font-family="Helvetica,sans-Serif" font-size="14.00"> &#160;</text>
</g>
<!-- AttackPredictSensor_linked -->
<g id="node26" class="node">
<title>AttackPredictSensor_linked</title>
<polygon fill="none" stroke="black" stroke-dasharray="1,5" points="392.7,-1016.75 271.25,-1016.75 271.25,-980.75 392.7,-980.75 392.7,-1016.75"/>
<text text-anchor="start" x="276.85" y="-993.33" font-family="Helvetica,sans-Serif" font-size="14.00">Heavy Forward 2 &#160;</text>
</g>
<!-- AttackPredictSensor&#45;&gt;AttackPredictSensor_linked -->
<g id="edge17" class="edge">
<title>AttackPredictSensor&#45;&gt;AttackPredictSensor_linked</title>
<path fill="none" stroke="#66cdaa" d="M168.66,-997.38C197.76,-997.63 230.97,-997.91 259.74,-998.15"/>
<polygon fill="#66cdaa" stroke="#66cdaa" points="259.4,-1001.65 269.43,-998.23 259.46,-994.65 259.4,-1001.65"/>
<text text-anchor="middle" x="220.62" y="-1000.5" font-family="Helvetica,sans-Serif" font-size="14.00" fill="#66cdaa">QueueEnd</text>
</g>
<!-- AttackRunToSensor -->
<g id="node27" class="node">
<title>AttackRunToSensor</title>
<polygon fill="none" stroke="black" points="26.62,-1066.75 26.62,-1088.5 159.38,-1088.5 159.38,-1066.75 26.62,-1066.75"/>
<text text-anchor="start" x="29.62" y="-1072.2" font-family="Helvetica,sans-Serif" font-size="14.00">AttackRunToSensor &#160;</text>
<polygon fill="none" stroke="black" points="26.62,-1045 26.62,-1066.75 159.38,-1066.75 159.38,-1045 26.62,-1045"/>
<text text-anchor="start" x="29.62" y="-1051.45" font-family="Helvetica,sans-Serif" font-size="12.00" fill="#838b8b">if: state is Engaging</text>
<text text-anchor="start" x="133.88" y="-1051.45" font-family="Helvetica,sans-Serif" font-size="14.00"> &#160;</text>
</g>
<!-- AttackRunToSensor_linked -->
<g id="node28" class="node">
<title>AttackRunToSensor_linked</title>
<polygon fill="none" stroke="black" stroke-dasharray="1,5" points="392.7,-1070.75 271.25,-1070.75 271.25,-1034.75 392.7,-1034.75 392.7,-1070.75"/>
<text text-anchor="start" x="276.85" y="-1047.33" font-family="Helvetica,sans-Serif" font-size="14.00">Heavy Forward 2 &#160;</text>
</g>
<!-- AttackRunToSensor&#45;&gt;AttackRunToSensor_linked -->
<g id="edge18" class="edge">
<title>AttackRunToSensor&#45;&gt;AttackRunToSensor_linked</title>
<path fill="none" stroke="#66cdaa" d="M167.36,-1062.42C196.76,-1060.68 230.52,-1058.68 259.71,-1056.96"/>
<polygon fill="#66cdaa" stroke="#66cdaa" points="259.78,-1060.46 269.56,-1056.38 259.37,-1053.47 259.78,-1060.46"/>
<text text-anchor="middle" x="220.62" y="-1063.45" font-family="Helvetica,sans-Serif" font-size="14.00" fill="#66cdaa">QueueEnd</text>
</g>
<!-- AttackFarSensor -->
<g id="node29" class="node">
<title>AttackFarSensor</title>
<polygon fill="none" stroke="black" points="151.25,-1146.75 34.75,-1146.75 34.75,-1110.75 151.25,-1110.75 151.25,-1146.75"/>
<text text-anchor="middle" x="93" y="-1123.33" font-family="Helvetica,sans-Serif" font-size="14.00">AttackFarSensor</text>
</g>
<!-- AttackFarSensor_linked -->
<g id="node30" class="node">
<title>AttackFarSensor_linked</title>
<polygon fill="none" stroke="black" stroke-dasharray="1,5" points="392.7,-1135.1 271.25,-1135.1 271.25,-1088.4 392.7,-1088.4 392.7,-1135.1"/>
<text text-anchor="start" x="282.1" y="-1116.2" font-family="Helvetica,sans-Serif" font-size="14.00">Quadro Smash &#160;</text>
<text text-anchor="start" x="276.85" y="-1096.45" font-family="Helvetica,sans-Serif" font-size="14.00">Heavy Forward 2 &#160;</text>
</g>
<!-- AttackFarSensor&#45;&gt;AttackFarSensor_linked -->
<g id="edge19" class="edge">
<title>AttackFarSensor&#45;&gt;AttackFarSensor_linked</title>
<path fill="none" stroke="#66cdaa" d="M151.67,-1124.61C184.16,-1122.28 225.03,-1119.35 259.54,-1116.87"/>
<polygon fill="#66cdaa" stroke="#66cdaa" points="259.75,-1120.37 269.47,-1116.16 259.25,-1113.39 259.75,-1120.37"/>
<text text-anchor="middle" x="220.62" y="-1124.22" font-family="Helvetica,sans-Serif" font-size="14.00" fill="#66cdaa">QueueEnd</text>
</g>
<!-- AttackFarSensor_mustuse -->
<g id="node31" class="node">
<title>AttackFarSensor_mustuse</title>
<polygon fill="none" stroke="black" stroke-dasharray="1,5" points="382.1,-1200.5 281.85,-1200.5 281.85,-1153 382.1,-1153 382.1,-1200.5"/>
<text text-anchor="start" x="291.85" y="-1181.2" font-family="Helvetica,sans-Serif" font-size="14.00">1 Undefined &#160;</text>
<text text-anchor="start" x="291.85" y="-1161.45" font-family="Helvetica,sans-Serif" font-size="14.00">1 Undefined &#160;</text>
</g>
<!-- AttackFarSensor&#45;&gt;AttackFarSensor_mustuse -->
<g id="edge20" class="edge">
<title>AttackFarSensor&#45;&gt;AttackFarSensor_mustuse</title>
<path fill="none" stroke="#458b74" d="M151.67,-1140.43C187.67,-1147.72 233.96,-1157.1 270.49,-1164.5"/>
<polygon fill="#458b74" stroke="#458b74" points="269.51,-1167.87 280,-1166.43 270.9,-1161.01 269.51,-1167.87"/>
<text text-anchor="middle" x="220.62" y="-1162.3" font-family="Helvetica,sans-Serif" font-size="14.00" fill="#458b74">Weight</text>
</g>
<!-- DodgeAttackSensor -->
<g id="node32" class="node">
<title>DodgeAttackSensor</title>
<polygon fill="none" stroke="black" points="161,-1200.75 25,-1200.75 25,-1164.75 161,-1164.75 161,-1200.75"/>
<text text-anchor="middle" x="93" y="-1177.33" font-family="Helvetica,sans-Serif" font-size="14.00">DodgeAttackSensor</text>
</g>
</g>
</svg>
