<?xml version="1.0" encoding="UTF-8" standalone="no"?>
<!DOCTYPE svg PUBLIC "-//W3C//DTD SVG 1.1//EN"
 "http://www.w3.org/Graphics/SVG/1.1/DTD/svg11.dtd">
<!-- Generated by graphviz version 12.2.1 (20241206.2353)
 -->
<!-- Title: Foo Pages: 1 -->
<svg width="437pt" height="1249pt"
 viewBox="0.00 0.00 436.75 1249.00" xmlns="http://www.w3.org/2000/svg" xmlns:xlink="http://www.w3.org/1999/xlink">
<g id="graph0" class="graph" transform="scale(1 1) rotate(0) translate(4 1245)">
<title>Foo</title>
<polygon fill="white" stroke="none" points="-4,4 -4,-1245 432.75,-1245 432.75,4 -4,4"/>
<g id="clust1" class="cluster">
<title>cluster_attacksensors</title>
<polygon fill="none" stroke="black" points="8,-8 8,-614 420.75,-614 420.75,-8 8,-8"/>
<text text-anchor="middle" x="214.38" y="-596.7" font-family="Helvetica,sans-Serif" font-size="14.00">Attack Sensors</text>
</g>
<!-- Level Once Sensor -->
<g id="node1" class="node">
<title>Level Once Sensor</title>
<polygon fill="none" stroke="black" points="28.5,-50.12 28.5,-71.88 157.5,-71.88 157.5,-50.12 28.5,-50.12"/>
<text text-anchor="start" x="31.5" y="-55.58" font-family="Helvetica,sans-Serif" font-size="14.00">Level Once Sensor &#160;</text>
</g>
<!-- Level Once Sensor_linked -->
<g id="node2" class="node">
<title>Level Once Sensor_linked</title>
<polygon fill="none" stroke="black" stroke-dasharray="1,5" points="402.73,-52 281.27,-52 281.27,-16 402.73,-16 402.73,-52"/>
<text text-anchor="start" x="286.88" y="-28.57" font-family="Helvetica,sans-Serif" font-size="14.00">Heavy Forward 2 &#160;</text>
</g>
<!-- Level Once Sensor&#45;&gt;Level Once Sensor_linked -->
<g id="edge1" class="edge">
<title>Level Once Sensor&#45;&gt;Level Once Sensor_linked</title>
<path fill="none" stroke="#66cdaa" d="M165.45,-46.54C173.04,-45.29 180.67,-44.16 188,-43.25 214.57,-39.95 243.89,-37.82 269.69,-36.44"/>
<polygon fill="#66cdaa" stroke="#66cdaa" points="269.57,-39.95 279.38,-35.95 269.22,-32.96 269.57,-39.95"/>
<text text-anchor="middle" x="220.62" y="-45.7" font-family="Helvetica,sans-Serif" font-size="14.00" fill="#66cdaa">QueueEnd</text>
</g>
<!-- Level Once Sensor_weight -->
<g id="node3" class="node">
<title>Level Once Sensor_weight</title>
<polygon fill="none" stroke="black" stroke-dasharray="1,5" points="412.75,-106 271.25,-106 271.25,-70 412.75,-70 412.75,-106"/>
<text text-anchor="start" x="281.25" y="-82.58" font-family="Helvetica,sans-Serif" font-size="14.00">1 Heavy Forward 2 &#160;</text>
</g>
<!-- Level Once Sensor&#45;&gt;Level Once Sensor_weight -->
<g id="edge2" class="edge">
<title>Level Once Sensor&#45;&gt;Level Once Sensor_weight</title>
<path fill="none" stroke="#458b74" d="M165.44,-68.81C195.01,-72.04 229.45,-75.81 259.95,-79.14"/>
<polygon fill="#458b74" stroke="#458b74" points="259.17,-82.58 269.49,-80.18 259.93,-75.62 259.17,-82.58"/>
<text text-anchor="middle" x="220.62" y="-80.16" font-family="Helvetica,sans-Serif" font-size="14.00" fill="#458b74">Weight</text>
</g>
<!-- RunAwaySensor -->
<g id="node4" class="node">
<title>RunAwaySensor</title>
<polygon fill="none" stroke="black" points="36,-131.12 36,-152.88 150,-152.88 150,-131.12 36,-131.12"/>
<text text-anchor="start" x="39" y="-136.57" font-family="Helvetica,sans-Serif" font-size="14.00">RunAwaySensor &#160;</text>
</g>
<!-- RunAwaySensor_linked -->
<g id="node5" class="node">
<title>RunAwaySensor_linked</title>
<polygon fill="none" stroke="black" stroke-dasharray="1,5" points="402.73,-160 281.27,-160 281.27,-124 402.73,-124 402.73,-160"/>
<text text-anchor="start" x="286.88" y="-136.57" font-family="Helvetica,sans-Serif" font-size="14.00">Heavy Forward 2 &#160;</text>
</g>
<!-- RunAwaySensor&#45;&gt;RunAwaySensor_linked -->
<g id="edge3" class="edge">
<title>RunAwaySensor&#45;&gt;RunAwaySensor_linked</title>
<path fill="none" stroke="#66cdaa" d="M157.93,-142C192.24,-142 234.61,-142 269.95,-142"/>
<polygon fill="#66cdaa" stroke="#66cdaa" points="269.64,-145.5 279.64,-142 269.64,-138.5 269.64,-145.5"/>
<text text-anchor="middle" x="220.62" y="-144.45" font-family="Helvetica,sans-Serif" font-size="14.00" fill="#66cdaa">QueueEnd</text>
</g>
<!-- AttackSensor -->
<g id="node6" class="node">
<title>AttackSensor</title>
<polygon fill="none" stroke="black" points="46.12,-215.12 46.12,-236.88 139.88,-236.88 139.88,-215.12 46.12,-215.12"/>
<text text-anchor="start" x="49.12" y="-220.57" font-family="Helvetica,sans-Serif" font-size="14.00">AttackSensor &#160;</text>
</g>
<!-- AttackSensor_linked -->
<g id="node7" class="node">
<title>AttackSensor_linked</title>
<polygon fill="none" stroke="black" stroke-dasharray="1,5" points="402.73,-224.35 281.27,-224.35 281.27,-177.65 402.73,-177.65 402.73,-224.35"/>
<text text-anchor="start" x="292.12" y="-205.45" font-family="Helvetica,sans-Serif" font-size="14.00">Quadro Smash &#160;</text>
<text text-anchor="start" x="286.88" y="-185.7" font-family="Helvetica,sans-Serif" font-size="14.00">Heavy Forward 2 &#160;</text>
</g>
<!-- AttackSensor&#45;&gt;AttackSensor_linked -->
<g id="edge4" class="edge">
<title>AttackSensor&#45;&gt;AttackSensor_linked</title>
<path fill="none" stroke="#66cdaa" d="M147.66,-219.67C160.85,-218.16 174.93,-216.61 188,-215.25 214.7,-212.48 244.04,-209.69 269.83,-207.32"/>
<polygon fill="#66cdaa" stroke="#66cdaa" points="269.88,-210.83 279.52,-206.43 269.24,-203.86 269.88,-210.83"/>
<text text-anchor="middle" x="220.62" y="-217.7" font-family="Helvetica,sans-Serif" font-size="14.00" fill="#66cdaa">QueueEnd</text>
</g>
<!-- AttackSensor_weight -->
<g id="node8" class="node">
<title>AttackSensor_weight</title>
<polygon fill="none" stroke="black" stroke-dasharray="1,5" points="412.75,-289.75 271.25,-289.75 271.25,-242.25 412.75,-242.25 412.75,-289.75"/>
<text text-anchor="start" x="281.25" y="-270.45" font-family="Helvetica,sans-Serif" font-size="14.00">2 Heavy Forward 2 &#160;</text>
<text text-anchor="start" x="286.5" y="-250.7" font-family="Helvetica,sans-Serif" font-size="14.00">1 Quadro Smash &#160;</text>
</g>
<!-- AttackSensor&#45;&gt;AttackSensor_weight -->
<g id="edge5" class="edge">
<title>AttackSensor&#45;&gt;AttackSensor_weight</title>
<path fill="none" stroke="#458b74" d="M147.6,-234.68C180.38,-239.99 222.97,-246.89 259.84,-252.86"/>
<polygon fill="#458b74" stroke="#458b74" points="259.15,-256.29 269.58,-254.43 260.27,-249.38 259.15,-256.29"/>
<text text-anchor="middle" x="220.62" y="-253.21" font-family="Helvetica,sans-Serif" font-size="14.00" fill="#458b74">Weight</text>
</g>
<!-- DodgePredictSensor -->
<g id="node9" class="node">
<title>DodgePredictSensor</title>
<polygon fill="none" stroke="black" points="24,-308 24,-329.75 162,-329.75 162,-308 24,-308"/>
<text text-anchor="start" x="27" y="-313.45" font-family="Helvetica,sans-Serif" font-size="14.00">DodgePredictSensor &#160;</text>
<polygon fill="none" stroke="black" points="24,-286.25 24,-308 162,-308 162,-286.25 24,-286.25"/>
<text text-anchor="start" x="27" y="-292.7" font-family="Helvetica,sans-Serif" font-size="12.00" fill="#838b8b">if: rollingCondition</text>
<text text-anchor="start" x="123.75" y="-292.7" font-family="Helvetica,sans-Serif" font-size="14.00"> &#160;</text>
</g>
<!-- DodgePredictSensor_linked -->
<g id="node10" class="node">
<title>DodgePredictSensor_linked</title>
<polygon fill="none" stroke="black" stroke-dasharray="1,5" points="402.73,-344 281.27,-344 281.27,-308 402.73,-308 402.73,-344"/>
<text text-anchor="start" x="286.88" y="-320.57" font-family="Helvetica,sans-Serif" font-size="14.00">Heavy Forward 2 &#160;</text>
</g>
<!-- DodgePredictSensor&#45;&gt;DodgePredictSensor_linked -->
<g id="edge6" class="edge">
<title>DodgePredictSensor&#45;&gt;DodgePredictSensor_linked</title>
<path fill="none" stroke="#66cdaa" d="M169.79,-313.52C201.61,-315.84 238.44,-318.53 269.76,-320.81"/>
<polygon fill="#66cdaa" stroke="#66cdaa" points="269.3,-324.28 279.52,-321.52 269.8,-317.3 269.3,-324.28"/>
<text text-anchor="middle" x="220.62" y="-321.59" font-family="Helvetica,sans-Serif" font-size="14.00" fill="#66cdaa">QueueEnd</text>
</g>
<!-- AttackPredictSensor -->
<g id="node11" class="node">
<title>AttackPredictSensor</title>
<polygon fill="none" stroke="black" points="25.12,-378 25.12,-399.75 160.88,-399.75 160.88,-378 25.12,-378"/>
<text text-anchor="start" x="28.12" y="-383.45" font-family="Helvetica,sans-Serif" font-size="14.00">AttackPredictSensor &#160;</text>
<polygon fill="none" stroke="black" points="25.12,-356.25 25.12,-378 160.88,-378 160.88,-356.25 25.12,-356.25"/>
<text text-anchor="start" x="28.12" y="-362.7" font-family="Helvetica,sans-Serif" font-size="12.00" fill="#838b8b">if: attackCondition</text>
<text text-anchor="start" x="123.38" y="-362.7" font-family="Helvetica,sans-Serif" font-size="14.00"> &#160;</text>
</g>
<!-- AttackPredictSensor_linked -->
<g id="node12" class="node">
<title>AttackPredictSensor_linked</title>
<polygon fill="none" stroke="black" stroke-dasharray="1,5" points="402.73,-398 281.27,-398 281.27,-362 402.73,-362 402.73,-398"/>
<text text-anchor="start" x="286.88" y="-374.57" font-family="Helvetica,sans-Serif" font-size="14.00">Heavy Forward 2 &#160;</text>
</g>
<!-- AttackPredictSensor&#45;&gt;AttackPredictSensor_linked -->
<g id="edge7" class="edge">
<title>AttackPredictSensor&#45;&gt;AttackPredictSensor_linked</title>
<path fill="none" stroke="#66cdaa" d="M168.78,-378.61C200.77,-378.86 237.96,-379.17 269.58,-379.42"/>
<polygon fill="#66cdaa" stroke="#66cdaa" points="269.41,-382.92 279.44,-379.5 269.47,-375.92 269.41,-382.92"/>
<text text-anchor="middle" x="220.62" y="-381.69" font-family="Helvetica,sans-Serif" font-size="14.00" fill="#66cdaa">QueueEnd</text>
</g>
<!-- AttackRunToSensor -->
<g id="node13" class="node">
<title>AttackRunToSensor</title>
<polygon fill="none" stroke="black" points="26.62,-448 26.62,-469.75 159.38,-469.75 159.38,-448 26.62,-448"/>
<text text-anchor="start" x="29.62" y="-453.45" font-family="Helvetica,sans-Serif" font-size="14.00">AttackRunToSensor &#160;</text>
<polygon fill="none" stroke="black" points="26.62,-426.25 26.62,-448 159.38,-448 159.38,-426.25 26.62,-426.25"/>
<text text-anchor="start" x="29.62" y="-432.7" font-family="Helvetica,sans-Serif" font-size="12.00" fill="#838b8b">if: state is Engaging</text>
<text text-anchor="start" x="133.88" y="-432.7" font-family="Helvetica,sans-Serif" font-size="14.00"> &#160;</text>
</g>
<!-- AttackRunToSensor_linked -->
<g id="node14" class="node">
<title>AttackRunToSensor_linked</title>
<polygon fill="none" stroke="black" stroke-dasharray="1,5" points="402.73,-452 281.27,-452 281.27,-416 402.73,-416 402.73,-452"/>
<text text-anchor="start" x="286.88" y="-428.57" font-family="Helvetica,sans-Serif" font-size="14.00">Heavy Forward 2 &#160;</text>
</g>
<!-- AttackRunToSensor&#45;&gt;AttackRunToSensor_linked -->
<g id="edge8" class="edge">
<title>AttackRunToSensor&#45;&gt;AttackRunToSensor_linked</title>
<path fill="none" stroke="#66cdaa" d="M167.11,-443.86C199.55,-442.02 237.61,-439.86 269.83,-438.03"/>
<polygon fill="#66cdaa" stroke="#66cdaa" points="269.67,-441.55 279.45,-437.49 269.27,-434.56 269.67,-441.55"/>
<text text-anchor="middle" x="220.62" y="-445.12" font-family="Helvetica,sans-Serif" font-size="14.00" fill="#66cdaa">QueueEnd</text>
</g>
<!-- AttackFarSensor -->
<g id="node15" class="node">
<title>AttackFarSensor</title>
<polygon fill="none" stroke="black" points="36,-499.12 36,-520.88 150,-520.88 150,-499.12 36,-499.12"/>
<text text-anchor="start" x="39" y="-504.57" font-family="Helvetica,sans-Serif" font-size="14.00">AttackFarSensor &#160;</text>
</g>
<!-- AttackFarSensor_linked -->
<g id="node16" class="node">
<title>AttackFarSensor_linked</title>
<polygon fill="none" stroke="black" stroke-dasharray="1,5" points="402.73,-516.35 281.27,-516.35 281.27,-469.65 402.73,-469.65 402.73,-516.35"/>
<text text-anchor="start" x="292.12" y="-497.45" font-family="Helvetica,sans-Serif" font-size="14.00">Quadro Smash &#160;</text>
<text text-anchor="start" x="286.88" y="-477.7" font-family="Helvetica,sans-Serif" font-size="14.00">Heavy Forward 2 &#160;</text>
</g>
<!-- AttackFarSensor&#45;&gt;AttackFarSensor_linked -->
<g id="edge9" class="edge">
<title>AttackFarSensor&#45;&gt;AttackFarSensor_linked</title>
<path fill="none" stroke="#66cdaa" d="M157.93,-505.6C192.24,-503.24 234.61,-500.32 269.95,-497.89"/>
<polygon fill="#66cdaa" stroke="#66cdaa" points="269.91,-501.4 279.65,-497.22 269.43,-494.42 269.91,-501.4"/>
<text text-anchor="middle" x="220.62" y="-505.97" font-family="Helvetica,sans-Serif" font-size="14.00" fill="#66cdaa">QueueEnd</text>
</g>
<!-- AttackFarSensor_weight -->
<g id="node17" class="node">
<title>AttackFarSensor_weight</title>
<polygon fill="none" stroke="black" stroke-dasharray="1,5" points="412.75,-581.75 271.25,-581.75 271.25,-534.25 412.75,-534.25 412.75,-581.75"/>
<text text-anchor="start" x="281.25" y="-562.45" font-family="Helvetica,sans-Serif" font-size="14.00">1 Heavy Forward 2 &#160;</text>
<text text-anchor="start" x="298.88" y="-542.7" font-family="Helvetica,sans-Serif" font-size="14.00">1 JumpSlash &#160;</text>
</g>
<!-- AttackFarSensor&#45;&gt;AttackFarSensor_weight -->
<g id="edge10" class="edge">
<title>AttackFarSensor&#45;&gt;AttackFarSensor_weight</title>
<path fill="none" stroke="#458b74" d="M157.93,-522.42C189.01,-528.46 226.7,-535.79 259.79,-542.22"/>
<polygon fill="#458b74" stroke="#458b74" points="258.85,-545.6 269.34,-544.07 260.19,-538.73 258.85,-545.6"/>
<text text-anchor="middle" x="220.62" y="-542.16" font-family="Helvetica,sans-Serif" font-size="14.00" fill="#458b74">Weight</text>
</g>
<!-- DodgeAttackSensor -->
<g id="node18" class="node">
<title>DodgeAttackSensor</title>
<polygon fill="none" stroke="black" points="26.25,-553.12 26.25,-574.88 159.75,-574.88 159.75,-553.12 26.25,-553.12"/>
<text text-anchor="start" x="29.25" y="-558.58" font-family="Helvetica,sans-Serif" font-size="14.00">DodgeAttackSensor &#160;</text>
</g>
<!-- Heavy Forward 2 -->
<g id="node19" class="node">
<title>Heavy Forward 2</title>
<polygon fill="none" stroke="black" points="34.12,-951.12 34.12,-972.88 151.88,-972.88 151.88,-951.12 34.12,-951.12"/>
<text text-anchor="start" x="37.88" y="-956.58" font-family="Helvetica,sans-Serif" font-size="14.00">Heavy Forward 2 &#160;</text>
<polygon fill="none" stroke="black" points="34.12,-907.12 34.12,-951.12 151.88,-951.12 151.88,-907.12 34.12,-907.12"/>
<text text-anchor="start" x="37.12" y="-937.73" font-family="Helvetica,sans-Serif" font-size="12.00" fill="#838b8b">2.95s: CheckFacing</text>
<text text-anchor="start" x="37.12" y="-925.73" font-family="Helvetica,sans-Serif" font-size="12.00" fill="#838b8b">4.83s: LinkNextMove</text>
<text text-anchor="start" x="37.12" y="-911.83" font-family="Helvetica,sans-Serif" font-size="12.00" fill="#838b8b">5.00s: Done</text>
<text text-anchor="start" x="101.62" y="-911.83" font-family="Helvetica,sans-Serif" font-size="14.00"> &#160;</text>
</g>
<!-- Engaging -->
<g id="node20" class="node">
<title>Engaging</title>
<polygon fill="none" stroke="black" points="378.5,-840 305.5,-840 305.5,-804 378.5,-804 378.5,-840"/>
<text text-anchor="middle" x="342" y="-816.58" font-family="Helvetica,sans-Serif" font-size="14.00">Engaging</text>
</g>
<!-- Heavy Forward 2&#45;&gt;Engaging -->
<g id="edge11" class="edge">
<title>Heavy Forward 2&#45;&gt;Engaging</title>
<path fill="none" stroke="#cdc8b1" d="M159.87,-908.53C202.45,-888.19 256.82,-862.21 294.84,-844.05"/>
<polygon fill="#cdc8b1" stroke="#cdc8b1" points="296.22,-847.27 303.73,-839.8 293.2,-840.96 296.22,-847.27"/>
</g>
<!-- Heavy Forward 2_linked -->
<g id="node21" class="node">
<title>Heavy Forward 2_linked</title>
<polygon fill="none" stroke="black" stroke-dasharray="1,5" points="385.1,-958 298.9,-958 298.9,-922 385.1,-922 385.1,-958"/>
<text text-anchor="start" x="304.5" y="-934.58" font-family="Helvetica,sans-Serif" font-size="14.00">JumpSlash &#160;</text>
</g>
<!-- Heavy Forward 2&#45;&gt;Heavy Forward 2_linked -->
<g id="edge12" class="edge">
<title>Heavy Forward 2&#45;&gt;Heavy Forward 2_linked</title>
<path fill="none" stroke="#66cdaa" d="M159.87,-940C199.76,-940 249.99,-940 287.43,-940"/>
<polygon fill="#66cdaa" stroke="#66cdaa" points="287.1,-943.5 297.1,-940 287.1,-936.5 287.1,-943.5"/>
<text text-anchor="middle" x="220.62" y="-942.45" font-family="Helvetica,sans-Serif" font-size="14.00" fill="#66cdaa">QueueEnd</text>
</g>
<!-- Quadro Smash -->
<g id="node22" class="node">
<title>Quadro Smash</title>
<polygon fill="none" stroke="black" points="34.12,-709.12 34.12,-730.88 151.88,-730.88 151.88,-709.12 34.12,-709.12"/>
<text text-anchor="start" x="43.12" y="-714.58" font-family="Helvetica,sans-Serif" font-size="14.00">Quadro Smash &#160;</text>
<polygon fill="none" stroke="black" points="34.12,-665.12 34.12,-709.12 151.88,-709.12 151.88,-665.12 34.12,-665.12"/>
<text text-anchor="start" x="37.12" y="-695.73" font-family="Helvetica,sans-Serif" font-size="12.00" fill="#838b8b">2.67s: CheckFacing</text>
<text text-anchor="start" x="37.12" y="-683.73" font-family="Helvetica,sans-Serif" font-size="12.00" fill="#838b8b">4.92s: LinkNextMove</text>
<text text-anchor="start" x="37.12" y="-669.83" font-family="Helvetica,sans-Serif" font-size="12.00" fill="#838b8b">5.00s: Done</text>
<text text-anchor="start" x="101.62" y="-669.83" font-family="Helvetica,sans-Serif" font-size="14.00"> &#160;</text>
</g>
<!-- Quadro Smash&#45;&gt;Engaging -->
<g id="edge13" class="edge">
<title>Quadro Smash&#45;&gt;Engaging</title>
<path fill="none" stroke="#cdc8b1" d="M159.87,-731.07C202.45,-752.45 256.82,-779.74 294.84,-798.82"/>
<polygon fill="#cdc8b1" stroke="#cdc8b1" points="293.24,-801.94 303.75,-803.3 296.38,-795.68 293.24,-801.94"/>
</g>
<!-- Quadro Smash_linked -->
<g id="node23" class="node">
<title>Quadro Smash_linked</title>
<polygon fill="none" stroke="black" stroke-dasharray="1,5" points="385.1,-724 298.9,-724 298.9,-688 385.1,-688 385.1,-724"/>
<text text-anchor="start" x="304.5" y="-700.58" font-family="Helvetica,sans-Serif" font-size="14.00">JumpSlash &#160;</text>
</g>
<!-- Quadro Smash&#45;&gt;Quadro Smash_linked -->
<g id="edge14" class="edge">
<title>Quadro Smash&#45;&gt;Quadro Smash_linked</title>
<path fill="none" stroke="#66cdaa" d="M159.87,-700.13C199.76,-701.43 249.99,-703.05 287.43,-704.26"/>
<polygon fill="#66cdaa" stroke="#66cdaa" points="286.99,-707.75 297.1,-704.58 287.22,-700.76 286.99,-707.75"/>
<text text-anchor="middle" x="220.62" y="-705.4" font-family="Helvetica,sans-Serif" font-size="14.00" fill="#66cdaa">QueueEnd</text>
</g>
<!-- Quadro Smash_weight -->
<g id="node24" class="node">
<title>Quadro Smash_weight</title>
<polygon fill="none" stroke="black" stroke-dasharray="1,5" points="395.12,-669.75 288.88,-669.75 288.88,-622.25 395.12,-622.25 395.12,-669.75"/>
<text text-anchor="start" x="298.88" y="-650.45" font-family="Helvetica,sans-Serif" font-size="14.00">1 JumpSlash &#160;</text>
<text text-anchor="start" x="319.5" y="-630.7" font-family="Helvetica,sans-Serif" font-size="14.00">0 Skip &#160;</text>
</g>
<!-- Quadro Smash&#45;&gt;Quadro Smash_weight -->
<g id="edge15" class="edge">
<title>Quadro Smash&#45;&gt;Quadro Smash_weight</title>
<path fill="none" stroke="#458b74" d="M159.87,-684.13C196.39,-676.44 241.58,-666.93 277.69,-659.33"/>
<polygon fill="#458b74" stroke="#458b74" points="278.04,-662.83 287.1,-657.35 276.59,-655.98 278.04,-662.83"/>
<text text-anchor="middle" x="220.62" y="-680.64" font-family="Helvetica,sans-Serif" font-size="14.00" fill="#458b74">Weight</text>
</g>
<!-- JumpSlash -->
<g id="node25" class="node">
<title>JumpSlash</title>
<polygon fill="none" stroke="black" points="52.5,-859 52.5,-880.75 133.5,-880.75 133.5,-859 52.5,-859"/>
<text text-anchor="start" x="55.5" y="-864.45" font-family="Helvetica,sans-Serif" font-size="14.00">JumpSlash &#160;</text>
<polygon fill="none" stroke="black" points="52.5,-837.25 52.5,-859 133.5,-859 133.5,-837.25 52.5,-837.25"/>
<text text-anchor="start" x="55.5" y="-843.7" font-family="Helvetica,sans-Serif" font-size="12.00" fill="#838b8b">3.33s: Done</text>
<text text-anchor="start" x="120" y="-843.7" font-family="Helvetica,sans-Serif" font-size="14.00"> &#160;</text>
</g>
<!-- JumpSlash&#45;&gt;Engaging -->
<g id="edge16" class="edge">
<title>JumpSlash&#45;&gt;Engaging</title>
<path fill="none" stroke="#cdc8b1" d="M141.33,-851.91C185.18,-845.34 250.05,-835.62 293.84,-829.06"/>
<polygon fill="#cdc8b1" stroke="#cdc8b1" points="294.18,-832.55 303.55,-827.61 293.14,-825.63 294.18,-832.55"/>
</g>
<!-- AttackParrying -->
<g id="node26" class="node">
<title>AttackParrying</title>
<polygon fill="none" stroke="black" points="34.5,-789.12 34.5,-810.88 151.5,-810.88 151.5,-789.12 34.5,-789.12"/>
<text text-anchor="start" x="45.38" y="-794.58" font-family="Helvetica,sans-Serif" font-size="14.00">AttackParrying &#160;</text>
<polygon fill="none" stroke="black" points="34.5,-757.12 34.5,-789.12 151.5,-789.12 151.5,-757.12 34.5,-757.12"/>
<text text-anchor="start" x="37.5" y="-775.73" font-family="Helvetica,sans-Serif" font-size="12.00" fill="#838b8b">0.00s: EnableGravity</text>
<text text-anchor="start" x="37.5" y="-761.83" font-family="Helvetica,sans-Serif" font-size="12.00" fill="#838b8b">1.77s: Done</text>
<text text-anchor="start" x="102" y="-761.83" font-family="Helvetica,sans-Serif" font-size="14.00"> &#160;</text>
</g>
<!-- AttackParrying&#45;&gt;Engaging -->
<g id="edge17" class="edge">
<title>AttackParrying&#45;&gt;Engaging</title>
<path fill="none" stroke="#cdc8b1" d="M159.22,-794.03C201.58,-800.55 255.8,-808.89 293.96,-814.76"/>
<polygon fill="#cdc8b1" stroke="#cdc8b1" points="293.35,-818.21 303.76,-816.27 294.41,-811.29 293.35,-818.21"/>
</g>
<!-- HurtState -->
<g id="node27" class="node">
<title>HurtState</title>
<polygon fill="none" stroke="black" points="54,-1091 54,-1112.75 132,-1112.75 132,-1091 54,-1091"/>
<text text-anchor="start" x="60.75" y="-1096.45" font-family="Helvetica,sans-Serif" font-size="14.00">HurtState &#160;</text>
<polygon fill="none" stroke="black" points="54,-1069.25 54,-1091 132,-1091 132,-1069.25 54,-1069.25"/>
<text text-anchor="start" x="57" y="-1075.7" font-family="Helvetica,sans-Serif" font-size="12.00" fill="#838b8b">0.33s: Done</text>
<text text-anchor="start" x="121.5" y="-1075.7" font-family="Helvetica,sans-Serif" font-size="14.00"> &#160;</text>
</g>
<!-- PreAttack -->
<g id="node28" class="node">
<title>PreAttack</title>
<polygon fill="none" stroke="black" points="379.25,-1074 304.75,-1074 304.75,-1038 379.25,-1038 379.25,-1074"/>
<text text-anchor="middle" x="342" y="-1050.58" font-family="Helvetica,sans-Serif" font-size="14.00">PreAttack</text>
</g>
<!-- HurtState&#45;&gt;PreAttack -->
<g id="edge18" class="edge">
<title>HurtState&#45;&gt;PreAttack</title>
<path fill="none" stroke="#cdc8b1" d="M139.88,-1084.5C183.55,-1078.31 249,-1069.04 293.27,-1062.76"/>
<polygon fill="#cdc8b1" stroke="#cdc8b1" points="293.69,-1066.24 303.1,-1061.37 292.71,-1059.31 293.69,-1066.24"/>
</g>
<!-- Hurt_BigState -->
<g id="node29" class="node">
<title>Hurt_BigState</title>
<polygon fill="none" stroke="black" points="44.25,-1021 44.25,-1042.75 141.75,-1042.75 141.75,-1021 44.25,-1021"/>
<text text-anchor="start" x="47.25" y="-1026.45" font-family="Helvetica,sans-Serif" font-size="14.00">Hurt_BigState &#160;</text>
<polygon fill="none" stroke="black" points="44.25,-999.25 44.25,-1021 141.75,-1021 141.75,-999.25 44.25,-999.25"/>
<text text-anchor="start" x="47.25" y="-1005.7" font-family="Helvetica,sans-Serif" font-size="12.00" fill="#838b8b">0.25s: Done</text>
<text text-anchor="start" x="111.75" y="-1005.7" font-family="Helvetica,sans-Serif" font-size="14.00"> &#160;</text>
</g>
<!-- Hurt_BigState&#45;&gt;PreAttack -->
<g id="edge19" class="edge">
<title>Hurt_BigState&#45;&gt;PreAttack</title>
<path fill="none" stroke="#cdc8b1" d="M149.74,-1028.9C192.96,-1035.02 252.21,-1043.42 293.26,-1049.23"/>
<polygon fill="#cdc8b1" stroke="#cdc8b1" points="292.7,-1052.69 303.09,-1050.63 293.68,-1045.76 292.7,-1052.69"/>
</g>
<!-- LastHit -->
<g id="node30" class="node">
<title>LastHit</title>
<polygon fill="none" stroke="black" points="54,-1161 54,-1182.75 132,-1182.75 132,-1161 54,-1161"/>
<text text-anchor="start" x="68.25" y="-1166.45" font-family="Helvetica,sans-Serif" font-size="14.00">LastHit &#160;</text>
<polygon fill="none" stroke="black" points="54,-1139.25 54,-1161 132,-1161 132,-1139.25 54,-1139.25"/>
<text text-anchor="start" x="57" y="-1145.7" font-family="Helvetica,sans-Serif" font-size="12.00" fill="#838b8b">0.33s: Done</text>
<text text-anchor="start" x="121.5" y="-1145.7" font-family="Helvetica,sans-Serif" font-size="14.00"> &#160;</text>
</g>
<!-- DeadState -->
<g id="node31" class="node">
<title>DeadState</title>
<polygon fill="none" stroke="black" points="381.88,-1179 302.12,-1179 302.12,-1143 381.88,-1143 381.88,-1179"/>
<text text-anchor="middle" x="342" y="-1155.58" font-family="Helvetica,sans-Serif" font-size="14.00">DeadState</text>
</g>
<!-- LastHit&#45;&gt;DeadState -->
<g id="edge20" class="edge">
<title>LastHit&#45;&gt;DeadState</title>
<path fill="none" stroke="#cdc8b1" d="M139.88,-1161C182.65,-1161 246.32,-1161 290.52,-1161"/>
<polygon fill="#cdc8b1" stroke="#cdc8b1" points="290.36,-1164.5 300.36,-1161 290.36,-1157.5 290.36,-1164.5"/>
</g>
<!-- Wandering_Idle -->
<g id="node32" class="node">
<title>Wandering_Idle</title>
<polygon fill="none" stroke="black" points="163.62,-1241 22.38,-1241 22.38,-1205 163.62,-1205 163.62,-1241"/>
<text text-anchor="middle" x="93" y="-1217.58" font-family="Helvetica,sans-Serif" font-size="14.00">Wandering_Idle (Init)</text>
</g>
</g>
</svg>
