<?xml version="1.0" encoding="UTF-8" standalone="no"?>
<!DOCTYPE svg PUBLIC "-//W3C//DTD SVG 1.1//EN"
 "http://www.w3.org/Graphics/SVG/1.1/DTD/svg11.dtd">
<!-- Generated by graphviz version 12.2.1 (20241206.2353)
 -->
<!-- Title: Foo Pages: 1 -->
<svg width="194pt" height="510pt"
 viewBox="0.00 0.00 194.00 510.00" xmlns="http://www.w3.org/2000/svg" xmlns:xlink="http://www.w3.org/1999/xlink">
<g id="graph0" class="graph" transform="scale(1 1) rotate(0) translate(4 506)">
<title>Foo</title>
<polygon fill="white" stroke="none" points="-4,4 -4,-506 190,-506 190,4 -4,4"/>
<g id="clust1" class="cluster">
<title>cluster_attacksensors</title>
<polygon fill="none" stroke="black" points="8,-100 8,-494 178,-494 178,-100 8,-100"/>
<text text-anchor="middle" x="93" y="-476.7" font-family="Helvetica,sans-Serif" font-size="14.00">Attack Sensors</text>
</g>
<!-- HurtState -->
<g id="node1" class="node">
<title>HurtState</title>
<polygon fill="none" stroke="black" points="129.5,-36 56.5,-36 56.5,0 129.5,0 129.5,-36"/>
<text text-anchor="middle" x="93" y="-12.57" font-family="Helvetica,sans-Serif" font-size="14.00">HurtState</text>
</g>
<!-- Wandering_Idle -->
<g id="node2" class="node">
<title>Wandering_Idle</title>
<polygon fill="none" stroke="black" points="163.62,-90 22.38,-90 22.38,-54 163.62,-54 163.62,-90"/>
<text text-anchor="middle" x="93" y="-66.58" font-family="Helvetica,sans-Serif" font-size="14.00">Wandering_Idle (Init)</text>
</g>
<!-- Level Once Sensor -->
<g id="node3" class="node">
<title>Level Once Sensor</title>
<polygon fill="none" stroke="black" points="158.75,-144 27.25,-144 27.25,-108 158.75,-108 158.75,-144"/>
<text text-anchor="middle" x="93" y="-120.58" font-family="Helvetica,sans-Serif" font-size="14.00">Level Once Sensor</text>
</g>
<!-- RunAwaySensor -->
<g id="node4" class="node">
<title>RunAwaySensor</title>
<polygon fill="none" stroke="black" points="151.25,-198 34.75,-198 34.75,-162 151.25,-162 151.25,-198"/>
<text text-anchor="middle" x="93" y="-174.57" font-family="Helvetica,sans-Serif" font-size="14.00">RunAwaySensor</text>
</g>
<!-- AttackSensor -->
<g id="node5" class="node">
<title>AttackSensor</title>
<polygon fill="none" stroke="black" points="141.12,-252 44.88,-252 44.88,-216 141.12,-216 141.12,-252"/>
<text text-anchor="middle" x="93" y="-228.57" font-family="Helvetica,sans-Serif" font-size="14.00">AttackSensor</text>
</g>
<!-- DodgePredictSensor -->
<g id="node6" class="node">
<title>DodgePredictSensor</title>
<polygon fill="none" stroke="black" points="24,-296 24,-317.75 162,-317.75 162,-296 24,-296"/>
<text text-anchor="start" x="27" y="-301.45" font-family="Helvetica,sans-Serif" font-size="14.00">DodgePredictSensor &#160;</text>
<polygon fill="none" stroke="black" points="24,-274.25 24,-296 162,-296 162,-274.25 24,-274.25"/>
<text text-anchor="start" x="27" y="-280.7" font-family="Helvetica,sans-Serif" font-size="12.00" fill="#838b8b">if: Dodge</text>
<text text-anchor="start" x="75" y="-280.7" font-family="Helvetica,sans-Serif" font-size="14.00"> &#160;</text>
</g>
<!-- AttackPredictSensor -->
<g id="node7" class="node">
<title>AttackPredictSensor</title>
<polygon fill="none" stroke="black" points="25.12,-366 25.12,-387.75 160.88,-387.75 160.88,-366 25.12,-366"/>
<text text-anchor="start" x="28.12" y="-371.45" font-family="Helvetica,sans-Serif" font-size="14.00">AttackPredictSensor &#160;</text>
<polygon fill="none" stroke="black" points="25.12,-344.25 25.12,-366 160.88,-366 160.88,-344.25 25.12,-344.25"/>
<text text-anchor="start" x="28.12" y="-350.7" font-family="Helvetica,sans-Serif" font-size="12.00" fill="#838b8b">if: Attack</text>
<text text-anchor="start" x="73.12" y="-350.7" font-family="Helvetica,sans-Serif" font-size="14.00"> &#160;</text>
</g>
<!-- AttackRunToSensor -->
<g id="node8" class="node">
<title>AttackRunToSensor</title>
<polygon fill="none" stroke="black" points="26.62,-436 26.62,-457.75 159.38,-457.75 159.38,-436 26.62,-436"/>
<text text-anchor="start" x="29.62" y="-441.45" font-family="Helvetica,sans-Serif" font-size="14.00">AttackRunToSensor &#160;</text>
<polygon fill="none" stroke="black" points="26.62,-414.25 26.62,-436 159.38,-436 159.38,-414.25 26.62,-414.25"/>
<text text-anchor="start" x="29.62" y="-420.7" font-family="Helvetica,sans-Serif" font-size="12.00" fill="#838b8b">if: state is Engaging</text>
<text text-anchor="start" x="133.88" y="-420.7" font-family="Helvetica,sans-Serif" font-size="14.00"> &#160;</text>
</g>
</g>
</svg>
