<?xml version="1.0" encoding="UTF-8" standalone="no"?>
<!DOCTYPE svg PUBLIC "-//W3C//DTD SVG 1.1//EN"
 "http://www.w3.org/Graphics/SVG/1.1/DTD/svg11.dtd">
<!-- Generated by graphviz version 12.2.1 (20241206.2353)
 -->
<!-- Title: Foo Pages: 1 -->
<svg width="424pt" height="686pt"
 viewBox="0.00 0.00 424.20 685.75" xmlns="http://www.w3.org/2000/svg" xmlns:xlink="http://www.w3.org/1999/xlink">
<g id="graph0" class="graph" transform="scale(1 1) rotate(0) translate(4 681.75)">
<title>Foo</title>
<polygon fill="white" stroke="none" points="-4,4 -4,-681.75 420.2,-681.75 420.2,4 -4,4"/>
<g id="clust1" class="cluster">
<title>cluster_attacksensors</title>
<polygon fill="none" stroke="black" points="8,-8 8,-402 408.2,-402 408.2,-8 8,-8"/>
<text text-anchor="middle" x="208.1" y="-384.7" font-family="Helvetica,sans-Serif" font-size="14.00">Attack Sensors</text>
</g>
<!-- Level Once Sensor -->
<g id="node1" class="node">
<title>Level Once Sensor</title>
<polygon fill="none" stroke="black" points="28.5,-23.12 28.5,-44.88 157.5,-44.88 157.5,-23.12 28.5,-23.12"/>
<text text-anchor="start" x="31.5" y="-28.57" font-family="Helvetica,sans-Serif" font-size="14.00">Level Once Sensor &#160;</text>
</g>
<!-- Level Once Sensor_linked -->
<g id="node2" class="node">
<title>Level Once Sensor_linked</title>
<polygon fill="none" stroke="black" stroke-dasharray="1,5" points="367.2,-52 304.25,-52 304.25,-16 367.2,-16 367.2,-52"/>
<text text-anchor="start" x="309.85" y="-28.57" font-family="Helvetica,sans-Serif" font-size="14.00">Danger &#160;</text>
</g>
<!-- Level Once Sensor&#45;&gt;Level Once Sensor_linked -->
<g id="edge1" class="edge">
<title>Level Once Sensor&#45;&gt;Level Once Sensor_linked</title>
<path fill="none" stroke="#66cdaa" d="M165.25,-34C206.73,-34 257.6,-34 292.72,-34"/>
<polygon fill="#66cdaa" stroke="#66cdaa" points="292.48,-37.5 302.48,-34 292.48,-30.5 292.48,-37.5"/>
<text text-anchor="middle" x="220.62" y="-36.45" font-family="Helvetica,sans-Serif" font-size="14.00" fill="#66cdaa">QueueEnd</text>
</g>
<!-- RunAwaySensor -->
<g id="node3" class="node">
<title>RunAwaySensor</title>
<polygon fill="none" stroke="black" points="36,-77.12 36,-98.88 150,-98.88 150,-77.12 36,-77.12"/>
<text text-anchor="start" x="39" y="-82.58" font-family="Helvetica,sans-Serif" font-size="14.00">RunAwaySensor &#160;</text>
</g>
<!-- AttackSensor -->
<g id="node4" class="node">
<title>AttackSensor</title>
<polygon fill="none" stroke="black" points="46.12,-131.12 46.12,-152.88 139.88,-152.88 139.88,-131.12 46.12,-131.12"/>
<text text-anchor="start" x="49.12" y="-136.57" font-family="Helvetica,sans-Serif" font-size="14.00">AttackSensor &#160;</text>
</g>
<!-- AttackSensor_linked -->
<g id="node5" class="node">
<title>AttackSensor_linked</title>
<polygon fill="none" stroke="black" stroke-dasharray="1,5" points="400.2,-171.22 271.25,-171.22 271.25,-104.78 400.2,-104.78 400.2,-171.22"/>
<text text-anchor="start" x="309.85" y="-152.32" font-family="Helvetica,sans-Serif" font-size="14.00">Danger &#160;</text>
<text text-anchor="start" x="298.23" y="-132.57" font-family="Helvetica,sans-Serif" font-size="14.00">JumpSlash &#160;</text>
<text text-anchor="start" x="276.85" y="-112.83" font-family="Helvetica,sans-Serif" font-size="14.00">DoubleJumpSlash &#160;</text>
</g>
<!-- AttackSensor&#45;&gt;AttackSensor_linked -->
<g id="edge2" class="edge">
<title>AttackSensor&#45;&gt;AttackSensor_linked</title>
<path fill="none" stroke="#66cdaa" d="M147.72,-141.11C180.75,-140.56 223.55,-139.85 259.87,-139.24"/>
<polygon fill="#66cdaa" stroke="#66cdaa" points="259.46,-142.75 269.4,-139.09 259.35,-135.75 259.46,-142.75"/>
<text text-anchor="middle" x="220.62" y="-142.81" font-family="Helvetica,sans-Serif" font-size="14.00" fill="#66cdaa">QueueEnd</text>
</g>
<!-- DodgePredictSensor -->
<g id="node6" class="node">
<title>DodgePredictSensor</title>
<polygon fill="none" stroke="black" points="24,-204 24,-225.75 162,-225.75 162,-204 24,-204"/>
<text text-anchor="start" x="27" y="-209.45" font-family="Helvetica,sans-Serif" font-size="14.00">DodgePredictSensor &#160;</text>
<polygon fill="none" stroke="black" points="24,-182.25 24,-204 162,-204 162,-182.25 24,-182.25"/>
<text text-anchor="start" x="27" y="-188.7" font-family="Helvetica,sans-Serif" font-size="12.00" fill="#838b8b">if: rollingCondition</text>
<text text-anchor="start" x="123.75" y="-188.7" font-family="Helvetica,sans-Serif" font-size="14.00"> &#160;</text>
</g>
<!-- DodgePredictSensor_linked -->
<g id="node7" class="node">
<title>DodgePredictSensor_linked</title>
<polygon fill="none" stroke="black" stroke-dasharray="1,5" points="367.2,-225 304.25,-225 304.25,-189 367.2,-189 367.2,-225"/>
<text text-anchor="start" x="309.85" y="-201.57" font-family="Helvetica,sans-Serif" font-size="14.00">Danger &#160;</text>
</g>
<!-- DodgePredictSensor&#45;&gt;DodgePredictSensor_linked -->
<g id="edge3" class="edge">
<title>DodgePredictSensor&#45;&gt;DodgePredictSensor_linked</title>
<path fill="none" stroke="#66cdaa" d="M169.84,-204.95C210.4,-205.45 258.81,-206.05 292.64,-206.48"/>
<polygon fill="#66cdaa" stroke="#66cdaa" points="292.41,-209.97 302.45,-206.6 292.5,-202.97 292.41,-209.97"/>
<text text-anchor="middle" x="220.62" y="-208.39" font-family="Helvetica,sans-Serif" font-size="14.00" fill="#66cdaa">QueueEnd</text>
</g>
<!-- AttackPredictSensor -->
<g id="node8" class="node">
<title>AttackPredictSensor</title>
<polygon fill="none" stroke="black" points="25.12,-274 25.12,-295.75 160.88,-295.75 160.88,-274 25.12,-274"/>
<text text-anchor="start" x="28.12" y="-279.45" font-family="Helvetica,sans-Serif" font-size="14.00">AttackPredictSensor &#160;</text>
<polygon fill="none" stroke="black" points="25.12,-252.25 25.12,-274 160.88,-274 160.88,-252.25 25.12,-252.25"/>
<text text-anchor="start" x="28.12" y="-258.7" font-family="Helvetica,sans-Serif" font-size="12.00" fill="#838b8b">if: attackCondition</text>
<text text-anchor="start" x="123.38" y="-258.7" font-family="Helvetica,sans-Serif" font-size="14.00"> &#160;</text>
</g>
<!-- AttackPredictSensor_linked -->
<g id="node9" class="node">
<title>AttackPredictSensor_linked</title>
<polygon fill="none" stroke="black" stroke-dasharray="1,5" points="367.2,-292 304.25,-292 304.25,-256 367.2,-256 367.2,-292"/>
<text text-anchor="start" x="309.85" y="-268.57" font-family="Helvetica,sans-Serif" font-size="14.00">Danger &#160;</text>
</g>
<!-- AttackPredictSensor&#45;&gt;AttackPredictSensor_linked -->
<g id="edge4" class="edge">
<title>AttackPredictSensor&#45;&gt;AttackPredictSensor_linked</title>
<path fill="none" stroke="#66cdaa" d="M168.85,-274C209.59,-274 258.49,-274 292.6,-274"/>
<polygon fill="#66cdaa" stroke="#66cdaa" points="292.5,-277.5 302.5,-274 292.5,-270.5 292.5,-277.5"/>
<text text-anchor="middle" x="220.62" y="-276.45" font-family="Helvetica,sans-Serif" font-size="14.00" fill="#66cdaa">QueueEnd</text>
</g>
<!-- AttackRunToSensor -->
<g id="node10" class="node">
<title>AttackRunToSensor</title>
<polygon fill="none" stroke="black" points="26.62,-344 26.62,-365.75 159.38,-365.75 159.38,-344 26.62,-344"/>
<text text-anchor="start" x="29.62" y="-349.45" font-family="Helvetica,sans-Serif" font-size="14.00">AttackRunToSensor &#160;</text>
<polygon fill="none" stroke="black" points="26.62,-322.25 26.62,-344 159.38,-344 159.38,-322.25 26.62,-322.25"/>
<text text-anchor="start" x="29.62" y="-328.7" font-family="Helvetica,sans-Serif" font-size="12.00" fill="#838b8b">if: state is Engaging</text>
<text text-anchor="start" x="133.88" y="-328.7" font-family="Helvetica,sans-Serif" font-size="14.00"> &#160;</text>
</g>
<!-- AttackRunToSensor_linked -->
<g id="node11" class="node">
<title>AttackRunToSensor_linked</title>
<polygon fill="none" stroke="black" stroke-dasharray="1,5" points="367.2,-362 304.25,-362 304.25,-326 367.2,-326 367.2,-362"/>
<text text-anchor="start" x="309.85" y="-338.57" font-family="Helvetica,sans-Serif" font-size="14.00">Danger &#160;</text>
</g>
<!-- AttackRunToSensor&#45;&gt;AttackRunToSensor_linked -->
<g id="edge5" class="edge">
<title>AttackRunToSensor&#45;&gt;AttackRunToSensor_linked</title>
<path fill="none" stroke="#66cdaa" d="M167.21,-344C208.34,-344 258.21,-344 292.78,-344"/>
<polygon fill="#66cdaa" stroke="#66cdaa" points="292.37,-347.5 302.37,-344 292.37,-340.5 292.37,-347.5"/>
<text text-anchor="middle" x="220.62" y="-346.45" font-family="Helvetica,sans-Serif" font-size="14.00" fill="#66cdaa">QueueEnd</text>
</g>
<!-- Danger -->
<g id="node12" class="node">
<title>Danger</title>
<polygon fill="none" stroke="black" points="54,-652 54,-673.75 132,-673.75 132,-652 54,-652"/>
<text text-anchor="start" x="67.12" y="-657.45" font-family="Helvetica,sans-Serif" font-size="14.00">Danger &#160;</text>
<polygon fill="none" stroke="black" points="54,-630.25 54,-652 132,-652 132,-630.25 54,-630.25"/>
<text text-anchor="start" x="57" y="-636.7" font-family="Helvetica,sans-Serif" font-size="12.00" fill="#838b8b">1.70s: Done</text>
<text text-anchor="start" x="121.5" y="-636.7" font-family="Helvetica,sans-Serif" font-size="14.00"> &#160;</text>
</g>
<!-- DeadState -->
<g id="node13" class="node">
<title>DeadState</title>
<polygon fill="none" stroke="black" points="375.6,-559 295.85,-559 295.85,-523 375.6,-523 375.6,-559"/>
<text text-anchor="middle" x="335.73" y="-535.58" font-family="Helvetica,sans-Serif" font-size="14.00">DeadState</text>
</g>
<!-- Danger&#45;&gt;DeadState -->
<g id="edge6" class="edge">
<title>Danger&#45;&gt;DeadState</title>
<path fill="none" stroke="#cdc8b1" d="M139.82,-630.91C149.77,-626.32 160.24,-621.5 170,-617 208.71,-599.15 252.54,-578.93 285.25,-563.84"/>
<polygon fill="#cdc8b1" stroke="#cdc8b1" points="286.47,-567.13 294.08,-559.76 283.53,-560.77 286.47,-567.13"/>
</g>
<!-- JumpSlash -->
<g id="node14" class="node">
<title>JumpSlash</title>
<polygon fill="none" stroke="black" points="52.5,-582 52.5,-603.75 133.5,-603.75 133.5,-582 52.5,-582"/>
<text text-anchor="start" x="55.5" y="-587.45" font-family="Helvetica,sans-Serif" font-size="14.00">JumpSlash &#160;</text>
<polygon fill="none" stroke="black" points="52.5,-560.25 52.5,-582 133.5,-582 133.5,-560.25 52.5,-560.25"/>
<text text-anchor="start" x="55.5" y="-566.7" font-family="Helvetica,sans-Serif" font-size="12.00" fill="#838b8b">1.50s: Done</text>
<text text-anchor="start" x="120" y="-566.7" font-family="Helvetica,sans-Serif" font-size="14.00"> &#160;</text>
</g>
<!-- JumpSlash&#45;&gt;DeadState -->
<g id="edge7" class="edge">
<title>JumpSlash&#45;&gt;DeadState</title>
<path fill="none" stroke="#cdc8b1" d="M141.27,-573.95C182.54,-566.92 242.25,-556.75 284.39,-549.57"/>
<polygon fill="#cdc8b1" stroke="#cdc8b1" points="284.75,-553.06 294.02,-547.93 283.58,-546.16 284.75,-553.06"/>
</g>
<!-- DoubleJumpSlash -->
<g id="node15" class="node">
<title>DoubleJumpSlash</title>
<polygon fill="none" stroke="black" points="31.12,-512.12 31.12,-533.88 154.88,-533.88 154.88,-512.12 31.12,-512.12"/>
<text text-anchor="start" x="34.12" y="-517.58" font-family="Helvetica,sans-Serif" font-size="14.00">DoubleJumpSlash &#160;</text>
<polygon fill="none" stroke="black" points="31.12,-468.12 31.12,-512.12 154.88,-512.12 154.88,-468.12 31.12,-468.12"/>
<text text-anchor="start" x="34.12" y="-498.73" font-family="Helvetica,sans-Serif" font-size="12.00" fill="#838b8b">0.58s: CheckFacing</text>
<text text-anchor="start" x="34.12" y="-486.73" font-family="Helvetica,sans-Serif" font-size="12.00" fill="#838b8b">0.92s: CheckFacing</text>
<text text-anchor="start" x="34.12" y="-472.83" font-family="Helvetica,sans-Serif" font-size="12.00" fill="#838b8b">1.50s: Done</text>
<text text-anchor="start" x="98.62" y="-472.83" font-family="Helvetica,sans-Serif" font-size="14.00"> &#160;</text>
</g>
<!-- DoubleJumpSlash&#45;&gt;DeadState -->
<g id="edge8" class="edge">
<title>DoubleJumpSlash&#45;&gt;DeadState</title>
<path fill="none" stroke="#cdc8b1" d="M162.66,-512.41C201.53,-518.87 249.29,-526.8 284.62,-532.67"/>
<polygon fill="#cdc8b1" stroke="#cdc8b1" points="283.7,-536.07 294.13,-534.26 284.84,-529.16 283.7,-536.07"/>
</g>
<!-- HideState -->
<g id="node16" class="node">
<title>HideState</title>
<polygon fill="none" stroke="black" points="56.62,-417.12 56.62,-438.88 129.38,-438.88 129.38,-417.12 56.62,-417.12"/>
<text text-anchor="start" x="59.62" y="-422.57" font-family="Helvetica,sans-Serif" font-size="14.00">HideState &#160;</text>
</g>
<!-- HideState&#45;&gt;DeadState -->
<g id="edge9" class="edge">
<title>HideState&#45;&gt;DeadState</title>
<path fill="none" stroke="#cdc8b1" d="M137.02,-442.1C147.9,-445.99 159.48,-450.41 170,-455 213.01,-473.76 260.32,-498.96 293.17,-517.23"/>
<polygon fill="#cdc8b1" stroke="#cdc8b1" points="291.12,-520.1 301.55,-521.93 294.53,-513.99 291.12,-520.1"/>
</g>
</g>
</svg>
