<?xml version="1.0" encoding="UTF-8" standalone="no"?>
<!DOCTYPE svg PUBLIC "-//W3C//DTD SVG 1.1//EN"
 "http://www.w3.org/Graphics/SVG/1.1/DTD/svg11.dtd">
<!-- Generated by graphviz version 12.2.1 (20241206.2353)
 -->
<!-- Title: Foo Pages: 1 -->
<svg width="393pt" height="606pt"
 viewBox="0.00 0.00 392.75 605.88" xmlns="http://www.w3.org/2000/svg" xmlns:xlink="http://www.w3.org/1999/xlink">
<g id="graph0" class="graph" transform="scale(1 1) rotate(0) translate(4 601.88)">
<title>Foo</title>
<polygon fill="white" stroke="none" points="-4,4 -4,-601.88 388.75,-601.88 388.75,4 -4,4"/>
<g id="clust1" class="cluster">
<title>cluster_attacksensors</title>
<polygon fill="none" stroke="black" points="8,-195.88 8,-589.88 374.5,-589.88 374.5,-195.88 8,-195.88"/>
<text text-anchor="middle" x="191.25" y="-572.58" font-family="Helvetica,sans-Serif" font-size="14.00">Attack Sensors</text>
</g>
<!-- HurtState -->
<g id="node1" class="node">
<title>HurtState</title>
<polygon fill="none" stroke="black" points="45.38,-36 45.38,-57.75 140.62,-57.75 140.62,-36 45.38,-36"/>
<text text-anchor="start" x="60.75" y="-41.45" font-family="Helvetica,sans-Serif" font-size="14.00">HurtState &#160;</text>
<polygon fill="none" stroke="black" points="45.38,-4 45.38,-36 140.62,-36 140.62,-4 45.38,-4"/>
<text text-anchor="start" x="48.38" y="-22.6" font-family="Helvetica,sans-Serif" font-size="12.00" fill="#838b8b">0.00s: StartMove</text>
<text text-anchor="start" x="48.38" y="-8.7" font-family="Helvetica,sans-Serif" font-size="12.00" fill="#838b8b">0.33s: Done</text>
<text text-anchor="start" x="112.88" y="-8.7" font-family="Helvetica,sans-Serif" font-size="14.00"> &#160;</text>
</g>
<!-- Wandering_Walking -->
<g id="node2" class="node">
<title>Wandering_Walking</title>
<polygon fill="none" stroke="black" points="384.75,-48.88 248,-48.88 248,-12.88 384.75,-12.88 384.75,-48.88"/>
<text text-anchor="middle" x="316.38" y="-25.45" font-family="Helvetica,sans-Serif" font-size="14.00">Wandering_Walking</text>
</g>
<!-- HurtState&#45;&gt;Wandering_Walking -->
<g id="edge1" class="edge">
<title>HurtState&#45;&gt;Wandering_Walking</title>
<path fill="none" stroke="#cdc8b1" d="M148.44,-30.88C174.88,-30.88 207.17,-30.88 236.27,-30.88"/>
<polygon fill="#cdc8b1" stroke="#cdc8b1" points="236.16,-34.38 246.16,-30.88 236.16,-27.38 236.16,-34.38"/>
</g>
<!-- RollThrough -->
<g id="node3" class="node">
<title>RollThrough</title>
<polygon fill="none" stroke="black" points="49.5,-105.88 49.5,-127.62 136.5,-127.62 136.5,-105.88 49.5,-105.88"/>
<text text-anchor="start" x="52.5" y="-111.33" font-family="Helvetica,sans-Serif" font-size="14.00">RollThrough &#160;</text>
<polygon fill="none" stroke="black" points="49.5,-84.12 49.5,-105.88 136.5,-105.88 136.5,-84.12 49.5,-84.12"/>
<text text-anchor="start" x="52.5" y="-90.58" font-family="Helvetica,sans-Serif" font-size="12.00" fill="#838b8b">0.67s: Done</text>
<text text-anchor="start" x="117" y="-90.58" font-family="Helvetica,sans-Serif" font-size="14.00"> &#160;</text>
</g>
<!-- Engaging -->
<g id="node4" class="node">
<title>Engaging</title>
<polygon fill="none" stroke="black" points="352.88,-123.88 279.88,-123.88 279.88,-87.88 352.88,-87.88 352.88,-123.88"/>
<text text-anchor="middle" x="316.38" y="-100.45" font-family="Helvetica,sans-Serif" font-size="14.00">Engaging</text>
</g>
<!-- RollThrough&#45;&gt;Engaging -->
<g id="edge2" class="edge">
<title>RollThrough&#45;&gt;Engaging</title>
<path fill="none" stroke="#cdc8b1" d="M144.23,-105.88C181.41,-105.88 231.72,-105.88 268.16,-105.88"/>
<polygon fill="#cdc8b1" stroke="#cdc8b1" points="267.96,-109.38 277.96,-105.88 267.96,-102.38 267.96,-109.38"/>
</g>
<!-- Wandering_Idle -->
<g id="node5" class="node">
<title>Wandering_Idle</title>
<polygon fill="none" stroke="black" points="163.62,-185.88 22.38,-185.88 22.38,-149.88 163.62,-149.88 163.62,-185.88"/>
<text text-anchor="middle" x="93" y="-162.45" font-family="Helvetica,sans-Serif" font-size="14.00">Wandering_Idle (Init)</text>
</g>
<!-- Level Once Sensor -->
<g id="node6" class="node">
<title>Level Once Sensor</title>
<polygon fill="none" stroke="black" points="158.75,-239.88 27.25,-239.88 27.25,-203.88 158.75,-203.88 158.75,-239.88"/>
<text text-anchor="middle" x="93" y="-216.45" font-family="Helvetica,sans-Serif" font-size="14.00">Level Once Sensor</text>
</g>
<!-- Level Once Sensor_mustuse -->
<g id="node7" class="node">
<title>Level Once Sensor_mustuse</title>
<polygon fill="none" stroke="black" stroke-dasharray="1,5" points="366.5,-239.88 266.25,-239.88 266.25,-203.88 366.5,-203.88 366.5,-239.88"/>
<text text-anchor="start" x="276.25" y="-216.45" font-family="Helvetica,sans-Serif" font-size="14.00">1 Undefined &#160;</text>
</g>
<!-- Level Once Sensor&#45;&gt;Level Once Sensor_mustuse -->
<g id="edge3" class="edge">
<title>Level Once Sensor&#45;&gt;Level Once Sensor_mustuse</title>
<path fill="none" stroke="#458b74" d="M159.22,-221.88C189.4,-221.88 225.03,-221.88 254.63,-221.88"/>
<polygon fill="#458b74" stroke="#458b74" points="254.56,-225.38 264.56,-221.88 254.56,-218.38 254.56,-225.38"/>
<text text-anchor="middle" x="209" y="-224.32" font-family="Helvetica,sans-Serif" font-size="14.00" fill="#458b74">Weight</text>
</g>
<!-- RunAwaySensor -->
<g id="node8" class="node">
<title>RunAwaySensor</title>
<polygon fill="none" stroke="black" points="151.25,-293.88 34.75,-293.88 34.75,-257.88 151.25,-257.88 151.25,-293.88"/>
<text text-anchor="middle" x="93" y="-270.45" font-family="Helvetica,sans-Serif" font-size="14.00">RunAwaySensor</text>
</g>
<!-- AttackSensor -->
<g id="node9" class="node">
<title>AttackSensor</title>
<polygon fill="none" stroke="black" points="141.12,-347.88 44.88,-347.88 44.88,-311.88 141.12,-311.88 141.12,-347.88"/>
<text text-anchor="middle" x="93" y="-324.45" font-family="Helvetica,sans-Serif" font-size="14.00">AttackSensor</text>
</g>
<!-- DodgePredictSensor -->
<g id="node10" class="node">
<title>DodgePredictSensor</title>
<polygon fill="none" stroke="black" points="24,-391.88 24,-413.62 162,-413.62 162,-391.88 24,-391.88"/>
<text text-anchor="start" x="27" y="-397.32" font-family="Helvetica,sans-Serif" font-size="14.00">DodgePredictSensor &#160;</text>
<polygon fill="none" stroke="black" points="24,-370.12 24,-391.88 162,-391.88 162,-370.12 24,-370.12"/>
<text text-anchor="start" x="27" y="-376.57" font-family="Helvetica,sans-Serif" font-size="12.00" fill="#838b8b">if: Dodge</text>
<text text-anchor="start" x="75" y="-376.57" font-family="Helvetica,sans-Serif" font-size="14.00"> &#160;</text>
</g>
<!-- AttackPredictSensor -->
<g id="node11" class="node">
<title>AttackPredictSensor</title>
<polygon fill="none" stroke="black" points="25.12,-461.88 25.12,-483.62 160.88,-483.62 160.88,-461.88 25.12,-461.88"/>
<text text-anchor="start" x="28.12" y="-467.32" font-family="Helvetica,sans-Serif" font-size="14.00">AttackPredictSensor &#160;</text>
<polygon fill="none" stroke="black" points="25.12,-440.12 25.12,-461.88 160.88,-461.88 160.88,-440.12 25.12,-440.12"/>
<text text-anchor="start" x="28.12" y="-446.57" font-family="Helvetica,sans-Serif" font-size="12.00" fill="#838b8b">if: Attack</text>
<text text-anchor="start" x="73.12" y="-446.57" font-family="Helvetica,sans-Serif" font-size="14.00"> &#160;</text>
</g>
<!-- AttackRunToSensor -->
<g id="node12" class="node">
<title>AttackRunToSensor</title>
<polygon fill="none" stroke="black" points="26.62,-531.88 26.62,-553.62 159.38,-553.62 159.38,-531.88 26.62,-531.88"/>
<text text-anchor="start" x="29.62" y="-537.33" font-family="Helvetica,sans-Serif" font-size="14.00">AttackRunToSensor &#160;</text>
<polygon fill="none" stroke="black" points="26.62,-510.12 26.62,-531.88 159.38,-531.88 159.38,-510.12 26.62,-510.12"/>
<text text-anchor="start" x="29.62" y="-516.58" font-family="Helvetica,sans-Serif" font-size="12.00" fill="#838b8b">if: state is Engaging</text>
<text text-anchor="start" x="133.88" y="-516.58" font-family="Helvetica,sans-Serif" font-size="14.00"> &#160;</text>
</g>
</g>
</svg>
