<?xml version="1.0" encoding="UTF-8" standalone="no"?>
<!DOCTYPE svg PUBLIC "-//W3C//DTD SVG 1.1//EN"
 "http://www.w3.org/Graphics/SVG/1.1/DTD/svg11.dtd">
<!-- Generated by graphviz version 12.2.1 (20241206.2353)
 -->
<!-- Title: Foo Pages: 1 -->
<svg width="546pt" height="796pt"
 viewBox="0.00 0.00 545.50 795.75" xmlns="http://www.w3.org/2000/svg" xmlns:xlink="http://www.w3.org/1999/xlink">
<g id="graph0" class="graph" transform="scale(1 1) rotate(0) translate(4 791.75)">
<title>Foo</title>
<polygon fill="white" stroke="none" points="-4,4 -4,-791.75 541.5,-791.75 541.5,4 -4,4"/>
<g id="clust1" class="cluster">
<title>cluster_attacksensors</title>
<polygon fill="none" stroke="black" points="8,-385.75 8,-779.75 366.73,-779.75 366.73,-385.75 8,-385.75"/>
<text text-anchor="middle" x="187.36" y="-762.45" font-family="Helvetica,sans-Serif" font-size="14.00">Attack Sensors</text>
</g>
<!-- Attack -->
<g id="node1" class="node">
<title>Attack</title>
<polygon fill="none" stroke="black" points="54,-25.75 54,-47.5 132,-47.5 132,-25.75 54,-25.75"/>
<text text-anchor="start" x="70.5" y="-31.2" font-family="Helvetica,sans-Serif" font-size="14.00">Attack &#160;</text>
<polygon fill="none" stroke="black" points="54,-4 54,-25.75 132,-25.75 132,-4 54,-4"/>
<text text-anchor="start" x="57" y="-10.45" font-family="Helvetica,sans-Serif" font-size="12.00" fill="#838b8b">1.33s: Done</text>
<text text-anchor="start" x="121.5" y="-10.45" font-family="Helvetica,sans-Serif" font-size="14.00"> &#160;</text>
</g>
<!-- AttackParrying -->
<g id="node2" class="node">
<title>AttackParrying</title>
<polygon fill="none" stroke="black" points="144.88,-105.75 41.12,-105.75 41.12,-69.75 144.88,-69.75 144.88,-105.75"/>
<text text-anchor="middle" x="93" y="-82.33" font-family="Helvetica,sans-Serif" font-size="14.00">AttackParrying</text>
</g>
<!-- HurtState -->
<g id="node3" class="node">
<title>HurtState</title>
<polygon fill="none" stroke="black" points="129.5,-159.75 56.5,-159.75 56.5,-123.75 129.5,-123.75 129.5,-159.75"/>
<text text-anchor="middle" x="93" y="-136.32" font-family="Helvetica,sans-Serif" font-size="14.00">HurtState</text>
</g>
<!-- Hurt_BigState -->
<g id="node4" class="node">
<title>Hurt_BigState</title>
<polygon fill="none" stroke="black" points="143,-213.75 43,-213.75 43,-177.75 143,-177.75 143,-213.75"/>
<text text-anchor="middle" x="93" y="-190.32" font-family="Helvetica,sans-Serif" font-size="14.00">Hurt_BigState</text>
</g>
<!-- PostureBreak -->
<g id="node5" class="node">
<title>PostureBreak</title>
<polygon fill="none" stroke="black" points="141.88,-267.75 44.12,-267.75 44.12,-231.75 141.88,-231.75 141.88,-267.75"/>
<text text-anchor="middle" x="93" y="-244.32" font-family="Helvetica,sans-Serif" font-size="14.00">PostureBreak</text>
</g>
<!-- StandUp -->
<g id="node6" class="node">
<title>StandUp</title>
<polygon fill="none" stroke="black" points="127.25,-321.75 58.75,-321.75 58.75,-285.75 127.25,-285.75 127.25,-321.75"/>
<text text-anchor="middle" x="93" y="-298.32" font-family="Helvetica,sans-Serif" font-size="14.00">StandUp</text>
</g>
<!-- ZEnterState -->
<g id="node7" class="node">
<title>ZEnterState</title>
<text text-anchor="middle" x="330.62" y="-352.32" font-family="Helvetica,sans-Serif" font-size="14.00">ZEnterState (Init)</text>
</g>
<!-- Wandering_Idle -->
<g id="node8" class="node">
<title>Wandering_Idle</title>
<polygon fill="none" stroke="black" points="537.5,-375.75 427,-375.75 427,-339.75 537.5,-339.75 537.5,-375.75"/>
<text text-anchor="middle" x="482.25" y="-352.32" font-family="Helvetica,sans-Serif" font-size="14.00">Wandering_Idle</text>
</g>
<!-- ZEnterState&#45;&gt;Wandering_Idle -->
<g id="edge1" class="edge">
<title>ZEnterState&#45;&gt;Wandering_Idle</title>
<path fill="none" stroke="#cdc8b1" d="M389.9,-357.75C398.25,-357.75 406.89,-357.75 415.37,-357.75"/>
<polygon fill="#cdc8b1" stroke="#cdc8b1" points="415.29,-361.25 425.29,-357.75 415.29,-354.25 415.29,-361.25"/>
</g>
<!-- ZExitState -->
<g id="node9" class="node">
<title>ZExitState</title>
<polygon fill="none" stroke="black" points="132.12,-375.75 53.88,-375.75 53.88,-339.75 132.12,-339.75 132.12,-375.75"/>
<text text-anchor="middle" x="93" y="-352.32" font-family="Helvetica,sans-Serif" font-size="14.00">ZExitState</text>
</g>
<!-- ZExitState&#45;&gt;ZEnterState -->
<g id="edge2" class="edge">
<title>ZExitState&#45;&gt;ZEnterState</title>
<path fill="none" stroke="#cdc8b1" d="M132.38,-357.75C166.83,-357.75 218.24,-357.75 259.93,-357.75"/>
<polygon fill="#cdc8b1" stroke="#cdc8b1" points="259.9,-361.25 269.9,-357.75 259.9,-354.25 259.9,-361.25"/>
</g>
<!-- Level Once Sensor -->
<g id="node10" class="node">
<title>Level Once Sensor</title>
<polygon fill="none" stroke="black" points="158.75,-429.75 27.25,-429.75 27.25,-393.75 158.75,-393.75 158.75,-429.75"/>
<text text-anchor="middle" x="93" y="-406.32" font-family="Helvetica,sans-Serif" font-size="14.00">Level Once Sensor</text>
</g>
<!-- Level Once Sensor_linked -->
<g id="node11" class="node">
<title>Level Once Sensor_linked</title>
<polygon fill="none" stroke="black" stroke-dasharray="1,5" points="358.73,-429.75 302.52,-429.75 302.52,-393.75 358.73,-393.75 358.73,-429.75"/>
<text text-anchor="start" x="308.12" y="-406.32" font-family="Helvetica,sans-Serif" font-size="14.00">Attack &#160;</text>
</g>
<!-- Level Once Sensor&#45;&gt;Level Once Sensor_linked -->
<g id="edge3" class="edge">
<title>Level Once Sensor&#45;&gt;Level Once Sensor_linked</title>
<path fill="none" stroke="#66cdaa" d="M159.01,-411.75C201.35,-411.75 255.17,-411.75 290.92,-411.75"/>
<polygon fill="#66cdaa" stroke="#66cdaa" points="290.8,-415.25 300.8,-411.75 290.8,-408.25 290.8,-415.25"/>
<text text-anchor="middle" x="220.62" y="-414.2" font-family="Helvetica,sans-Serif" font-size="14.00" fill="#66cdaa">QueueEnd</text>
</g>
<!-- RunAwaySensor -->
<g id="node12" class="node">
<title>RunAwaySensor</title>
<polygon fill="none" stroke="black" points="151.25,-483.75 34.75,-483.75 34.75,-447.75 151.25,-447.75 151.25,-483.75"/>
<text text-anchor="middle" x="93" y="-460.32" font-family="Helvetica,sans-Serif" font-size="14.00">RunAwaySensor</text>
</g>
<!-- AttackSensor -->
<g id="node13" class="node">
<title>AttackSensor</title>
<polygon fill="none" stroke="black" points="141.12,-537.75 44.88,-537.75 44.88,-501.75 141.12,-501.75 141.12,-537.75"/>
<text text-anchor="middle" x="93" y="-514.33" font-family="Helvetica,sans-Serif" font-size="14.00">AttackSensor</text>
</g>
<!-- AttackSensor_linked -->
<g id="node14" class="node">
<title>AttackSensor_linked</title>
<polygon fill="none" stroke="black" stroke-dasharray="1,5" points="358.73,-537.75 302.52,-537.75 302.52,-501.75 358.73,-501.75 358.73,-537.75"/>
<text text-anchor="start" x="308.12" y="-514.33" font-family="Helvetica,sans-Serif" font-size="14.00">Attack &#160;</text>
</g>
<!-- AttackSensor&#45;&gt;AttackSensor_linked -->
<g id="edge4" class="edge">
<title>AttackSensor&#45;&gt;AttackSensor_linked</title>
<path fill="none" stroke="#66cdaa" d="M141.4,-519.75C185.31,-519.75 249.83,-519.75 290.78,-519.75"/>
<polygon fill="#66cdaa" stroke="#66cdaa" points="290.66,-523.25 300.66,-519.75 290.66,-516.25 290.66,-523.25"/>
<text text-anchor="middle" x="220.62" y="-522.2" font-family="Helvetica,sans-Serif" font-size="14.00" fill="#66cdaa">QueueEnd</text>
</g>
<!-- DodgePredictSensor -->
<g id="node15" class="node">
<title>DodgePredictSensor</title>
<polygon fill="none" stroke="black" points="24,-581.75 24,-603.5 162,-603.5 162,-581.75 24,-581.75"/>
<text text-anchor="start" x="27" y="-587.2" font-family="Helvetica,sans-Serif" font-size="14.00">DodgePredictSensor &#160;</text>
<polygon fill="none" stroke="black" points="24,-560 24,-581.75 162,-581.75 162,-560 24,-560"/>
<text text-anchor="start" x="27" y="-566.45" font-family="Helvetica,sans-Serif" font-size="12.00" fill="#838b8b">if: rollingCondition</text>
<text text-anchor="start" x="123.75" y="-566.45" font-family="Helvetica,sans-Serif" font-size="14.00"> &#160;</text>
</g>
<!-- DodgePredictSensor_linked -->
<g id="node16" class="node">
<title>DodgePredictSensor_linked</title>
<polygon fill="none" stroke="black" stroke-dasharray="1,5" points="358.73,-599.75 302.52,-599.75 302.52,-563.75 358.73,-563.75 358.73,-599.75"/>
<text text-anchor="start" x="308.12" y="-576.33" font-family="Helvetica,sans-Serif" font-size="14.00">Attack &#160;</text>
</g>
<!-- DodgePredictSensor&#45;&gt;DodgePredictSensor_linked -->
<g id="edge5" class="edge">
<title>DodgePredictSensor&#45;&gt;DodgePredictSensor_linked</title>
<path fill="none" stroke="#66cdaa" d="M169.85,-581.75C210.23,-581.75 258.17,-581.75 290.94,-581.75"/>
<polygon fill="#66cdaa" stroke="#66cdaa" points="290.76,-585.25 300.76,-581.75 290.76,-578.25 290.76,-585.25"/>
<text text-anchor="middle" x="220.62" y="-584.2" font-family="Helvetica,sans-Serif" font-size="14.00" fill="#66cdaa">QueueEnd</text>
</g>
<!-- AttackPredictSensor -->
<g id="node17" class="node">
<title>AttackPredictSensor</title>
<polygon fill="none" stroke="black" points="25.12,-651.75 25.12,-673.5 160.88,-673.5 160.88,-651.75 25.12,-651.75"/>
<text text-anchor="start" x="28.12" y="-657.2" font-family="Helvetica,sans-Serif" font-size="14.00">AttackPredictSensor &#160;</text>
<polygon fill="none" stroke="black" points="25.12,-630 25.12,-651.75 160.88,-651.75 160.88,-630 25.12,-630"/>
<text text-anchor="start" x="28.12" y="-636.45" font-family="Helvetica,sans-Serif" font-size="12.00" fill="#838b8b">if: attackCondition</text>
<text text-anchor="start" x="123.38" y="-636.45" font-family="Helvetica,sans-Serif" font-size="14.00"> &#160;</text>
</g>
<!-- AttackPredictSensor_linked -->
<g id="node18" class="node">
<title>AttackPredictSensor_linked</title>
<polygon fill="none" stroke="black" stroke-dasharray="1,5" points="358.73,-669.75 302.52,-669.75 302.52,-633.75 358.73,-633.75 358.73,-669.75"/>
<text text-anchor="start" x="308.12" y="-646.33" font-family="Helvetica,sans-Serif" font-size="14.00">Attack &#160;</text>
</g>
<!-- AttackPredictSensor&#45;&gt;AttackPredictSensor_linked -->
<g id="edge6" class="edge">
<title>AttackPredictSensor&#45;&gt;AttackPredictSensor_linked</title>
<path fill="none" stroke="#66cdaa" d="M168.55,-651.75C209.14,-651.75 257.68,-651.75 290.79,-651.75"/>
<polygon fill="#66cdaa" stroke="#66cdaa" points="290.74,-655.25 300.74,-651.75 290.74,-648.25 290.74,-655.25"/>
<text text-anchor="middle" x="220.62" y="-654.2" font-family="Helvetica,sans-Serif" font-size="14.00" fill="#66cdaa">QueueEnd</text>
</g>
<!-- AttackRunToSensor -->
<g id="node19" class="node">
<title>AttackRunToSensor</title>
<polygon fill="none" stroke="black" points="26.62,-721.75 26.62,-743.5 159.38,-743.5 159.38,-721.75 26.62,-721.75"/>
<text text-anchor="start" x="29.62" y="-727.2" font-family="Helvetica,sans-Serif" font-size="14.00">AttackRunToSensor &#160;</text>
<polygon fill="none" stroke="black" points="26.62,-700 26.62,-721.75 159.38,-721.75 159.38,-700 26.62,-700"/>
<text text-anchor="start" x="29.62" y="-706.45" font-family="Helvetica,sans-Serif" font-size="12.00" fill="#838b8b">if: state is Engaging</text>
<text text-anchor="start" x="133.88" y="-706.45" font-family="Helvetica,sans-Serif" font-size="14.00"> &#160;</text>
</g>
<!-- AttackRunToSensor_linked -->
<g id="node20" class="node">
<title>AttackRunToSensor_linked</title>
<polygon fill="none" stroke="black" stroke-dasharray="1,5" points="358.73,-739.75 302.52,-739.75 302.52,-703.75 358.73,-703.75 358.73,-739.75"/>
<text text-anchor="start" x="308.12" y="-716.33" font-family="Helvetica,sans-Serif" font-size="14.00">Attack &#160;</text>
</g>
<!-- AttackRunToSensor&#45;&gt;AttackRunToSensor_linked -->
<g id="edge7" class="edge">
<title>AttackRunToSensor&#45;&gt;AttackRunToSensor_linked</title>
<path fill="none" stroke="#66cdaa" d="M167.26,-721.75C208.23,-721.75 257.62,-721.75 291.09,-721.75"/>
<polygon fill="#66cdaa" stroke="#66cdaa" points="290.71,-725.25 300.71,-721.75 290.71,-718.25 290.71,-725.25"/>
<text text-anchor="middle" x="220.62" y="-724.2" font-family="Helvetica,sans-Serif" font-size="14.00" fill="#66cdaa">QueueEnd</text>
</g>
</g>
</svg>
