<?xml version="1.0" encoding="UTF-8" standalone="no"?>
<!DOCTYPE svg PUBLIC "-//W3C//DTD SVG 1.1//EN"
 "http://www.w3.org/Graphics/SVG/1.1/DTD/svg11.dtd">
<!-- Generated by graphviz version 12.2.1 (20241206.2353)
 -->
<!-- Title: Foo Pages: 1 -->
<svg width="416pt" height="836pt"
 viewBox="0.00 0.00 416.00 835.88" xmlns="http://www.w3.org/2000/svg" xmlns:xlink="http://www.w3.org/1999/xlink">
<g id="graph0" class="graph" transform="scale(1 1) rotate(0) translate(4 831.88)">
<title>Foo</title>
<polygon fill="white" stroke="none" points="-4,4 -4,-831.88 412,-831.88 412,4 -4,4"/>
<g id="clust1" class="cluster">
<title>cluster_attacksensors</title>
<polygon fill="none" stroke="black" points="8,-425.88 8,-819.88 397.75,-819.88 397.75,-425.88 8,-425.88"/>
<text text-anchor="middle" x="202.88" y="-802.58" font-family="Helvetica,sans-Serif" font-size="14.00">Attack Sensors</text>
</g>
<!-- SpawnState -->
<g id="node1" class="node">
<title>SpawnState</title>
<polygon fill="none" stroke="black" points="49.88,-36 49.88,-57.75 136.12,-57.75 136.12,-36 49.88,-36"/>
<text text-anchor="start" x="52.88" y="-41.45" font-family="Helvetica,sans-Serif" font-size="14.00">SpawnState &#160;</text>
<polygon fill="none" stroke="black" points="49.88,-4 49.88,-36 136.12,-36 136.12,-4 49.88,-4"/>
<text text-anchor="start" x="52.88" y="-22.6" font-family="Helvetica,sans-Serif" font-size="12.00" fill="#838b8b">0.62s: Shoot</text>
<text text-anchor="start" x="52.88" y="-8.7" font-family="Helvetica,sans-Serif" font-size="12.00" fill="#838b8b">1.83s: Done</text>
<text text-anchor="start" x="117.38" y="-8.7" font-family="Helvetica,sans-Serif" font-size="14.00"> &#160;</text>
</g>
<!-- Wandering_Walking -->
<g id="node2" class="node">
<title>Wandering_Walking</title>
<polygon fill="none" stroke="black" points="408,-48.88 271.25,-48.88 271.25,-12.88 408,-12.88 408,-48.88"/>
<text text-anchor="middle" x="339.62" y="-25.45" font-family="Helvetica,sans-Serif" font-size="14.00">Wandering_Walking</text>
</g>
<!-- SpawnState&#45;&gt;Wandering_Walking -->
<g id="edge1" class="edge">
<title>SpawnState&#45;&gt;Wandering_Walking</title>
<path fill="none" stroke="#cdc8b1" d="M144.09,-30.88C177.43,-30.88 221.91,-30.88 259.92,-30.88"/>
<polygon fill="#cdc8b1" stroke="#cdc8b1" points="259.46,-34.38 269.46,-30.88 259.46,-27.38 259.46,-34.38"/>
</g>
<!-- AttackParrying -->
<g id="node3" class="node">
<title>AttackParrying</title>
<polygon fill="none" stroke="black" points="34.5,-116 34.5,-137.75 151.5,-137.75 151.5,-116 34.5,-116"/>
<text text-anchor="start" x="45.38" y="-121.45" font-family="Helvetica,sans-Serif" font-size="14.00">AttackParrying &#160;</text>
<polygon fill="none" stroke="black" points="34.5,-84 34.5,-116 151.5,-116 151.5,-84 34.5,-84"/>
<text text-anchor="start" x="37.5" y="-102.6" font-family="Helvetica,sans-Serif" font-size="12.00" fill="#838b8b">0.00s: EnableGravity</text>
<text text-anchor="start" x="37.5" y="-88.7" font-family="Helvetica,sans-Serif" font-size="12.00" fill="#838b8b">1.83s: Done</text>
<text text-anchor="start" x="102" y="-88.7" font-family="Helvetica,sans-Serif" font-size="14.00"> &#160;</text>
</g>
<!-- Engaging -->
<g id="node4" class="node">
<title>Engaging</title>
<polygon fill="none" stroke="black" points="376.12,-128.88 303.12,-128.88 303.12,-92.88 376.12,-92.88 376.12,-128.88"/>
<text text-anchor="middle" x="339.62" y="-105.45" font-family="Helvetica,sans-Serif" font-size="14.00">Engaging</text>
</g>
<!-- AttackParrying&#45;&gt;Engaging -->
<g id="edge2" class="edge">
<title>AttackParrying&#45;&gt;Engaging</title>
<path fill="none" stroke="#cdc8b1" d="M159.23,-110.88C200.92,-110.88 254.01,-110.88 291.59,-110.88"/>
<polygon fill="#cdc8b1" stroke="#cdc8b1" points="291.21,-114.38 301.21,-110.88 291.21,-107.38 291.21,-114.38"/>
</g>
<!-- HurtState -->
<g id="node5" class="node">
<title>HurtState</title>
<polygon fill="none" stroke="black" points="54,-335.88 54,-357.62 132,-357.62 132,-335.88 54,-335.88"/>
<text text-anchor="start" x="60.75" y="-341.32" font-family="Helvetica,sans-Serif" font-size="14.00">HurtState &#160;</text>
<polygon fill="none" stroke="black" points="54,-314.12 54,-335.88 132,-335.88 132,-314.12 54,-314.12"/>
<text text-anchor="start" x="57" y="-320.57" font-family="Helvetica,sans-Serif" font-size="12.00" fill="#838b8b">0.15s: Done</text>
<text text-anchor="start" x="121.5" y="-320.57" font-family="Helvetica,sans-Serif" font-size="14.00"> &#160;</text>
</g>
<!-- PreAttack -->
<g id="node6" class="node">
<title>PreAttack</title>
<polygon fill="none" stroke="black" points="376.88,-283.88 302.38,-283.88 302.38,-247.88 376.88,-247.88 376.88,-283.88"/>
<text text-anchor="middle" x="339.62" y="-260.45" font-family="Helvetica,sans-Serif" font-size="14.00">PreAttack</text>
</g>
<!-- HurtState&#45;&gt;PreAttack -->
<g id="edge3" class="edge">
<title>HurtState&#45;&gt;PreAttack</title>
<path fill="none" stroke="#cdc8b1" d="M139.73,-322.79C182.85,-310.45 247.23,-292.03 290.98,-279.51"/>
<polygon fill="#cdc8b1" stroke="#cdc8b1" points="291.8,-282.92 300.45,-276.8 289.87,-276.19 291.8,-282.92"/>
</g>
<!-- Hurt_BigState -->
<g id="node7" class="node">
<title>Hurt_BigState</title>
<polygon fill="none" stroke="black" points="44.25,-265.88 44.25,-287.62 141.75,-287.62 141.75,-265.88 44.25,-265.88"/>
<text text-anchor="start" x="47.25" y="-271.32" font-family="Helvetica,sans-Serif" font-size="14.00">Hurt_BigState &#160;</text>
<polygon fill="none" stroke="black" points="44.25,-244.12 44.25,-265.88 141.75,-265.88 141.75,-244.12 44.25,-244.12"/>
<text text-anchor="start" x="47.25" y="-250.57" font-family="Helvetica,sans-Serif" font-size="12.00" fill="#838b8b">0.27s: Done</text>
<text text-anchor="start" x="111.75" y="-250.57" font-family="Helvetica,sans-Serif" font-size="14.00"> &#160;</text>
</g>
<!-- Hurt_BigState&#45;&gt;PreAttack -->
<g id="edge4" class="edge">
<title>Hurt_BigState&#45;&gt;PreAttack</title>
<path fill="none" stroke="#cdc8b1" d="M149.51,-265.88C191.98,-265.88 249.94,-265.88 290.47,-265.88"/>
<polygon fill="#cdc8b1" stroke="#cdc8b1" points="290.41,-269.38 300.41,-265.88 290.41,-262.38 290.41,-269.38"/>
</g>
<!-- PostureBreak -->
<g id="node8" class="node">
<title>PostureBreak</title>
<polygon fill="none" stroke="black" points="34.5,-196 34.5,-217.75 151.5,-217.75 151.5,-196 34.5,-196"/>
<text text-anchor="start" x="48.38" y="-201.45" font-family="Helvetica,sans-Serif" font-size="14.00">PostureBreak &#160;</text>
<polygon fill="none" stroke="black" points="34.5,-164 34.5,-196 151.5,-196 151.5,-164 34.5,-164"/>
<text text-anchor="start" x="37.5" y="-182.6" font-family="Helvetica,sans-Serif" font-size="12.00" fill="#838b8b">0.00s: EnableGravity</text>
<text text-anchor="start" x="37.5" y="-168.7" font-family="Helvetica,sans-Serif" font-size="12.00" fill="#838b8b">1.83s: Done</text>
<text text-anchor="start" x="102" y="-168.7" font-family="Helvetica,sans-Serif" font-size="14.00"> &#160;</text>
</g>
<!-- PostureBreak&#45;&gt;PreAttack -->
<g id="edge5" class="edge">
<title>PostureBreak&#45;&gt;PreAttack</title>
<path fill="none" stroke="#cdc8b1" d="M159.23,-210.88C200.84,-223.63 253.81,-239.87 291.38,-251.39"/>
<polygon fill="#cdc8b1" stroke="#cdc8b1" points="289.99,-254.63 300.58,-254.21 292.04,-247.93 289.99,-254.63"/>
</g>
<!-- Wandering_Idle -->
<g id="node9" class="node">
<title>Wandering_Idle</title>
<polygon fill="none" stroke="black" points="163.62,-415.88 22.38,-415.88 22.38,-379.88 163.62,-379.88 163.62,-415.88"/>
<text text-anchor="middle" x="93" y="-392.45" font-family="Helvetica,sans-Serif" font-size="14.00">Wandering_Idle (Init)</text>
</g>
<!-- Level Once Sensor -->
<g id="node10" class="node">
<title>Level Once Sensor</title>
<polygon fill="none" stroke="black" points="158.75,-469.88 27.25,-469.88 27.25,-433.88 158.75,-433.88 158.75,-469.88"/>
<text text-anchor="middle" x="93" y="-446.45" font-family="Helvetica,sans-Serif" font-size="14.00">Level Once Sensor</text>
</g>
<!-- Level Once Sensor_linked -->
<g id="node11" class="node">
<title>Level Once Sensor_linked</title>
<polygon fill="none" stroke="black" stroke-dasharray="1,5" points="385.35,-469.88 293.9,-469.88 293.9,-433.88 385.35,-433.88 385.35,-469.88"/>
<text text-anchor="start" x="299.5" y="-446.45" font-family="Helvetica,sans-Serif" font-size="14.00">SpawnState &#160;</text>
</g>
<!-- Level Once Sensor&#45;&gt;Level Once Sensor_linked -->
<g id="edge6" class="edge">
<title>Level Once Sensor&#45;&gt;Level Once Sensor_linked</title>
<path fill="none" stroke="#66cdaa" d="M159.23,-451.88C197.55,-451.88 245.49,-451.88 282.18,-451.88"/>
<polygon fill="#66cdaa" stroke="#66cdaa" points="282.15,-455.38 292.15,-451.88 282.15,-448.38 282.15,-455.38"/>
<text text-anchor="middle" x="220.62" y="-454.32" font-family="Helvetica,sans-Serif" font-size="14.00" fill="#66cdaa">QueueEnd</text>
</g>
<!-- Level Once Sensor_mustuse -->
<g id="node12" class="node">
<title>Level Once Sensor_mustuse</title>
<polygon fill="none" stroke="black" stroke-dasharray="1,5" points="389.75,-523.88 289.5,-523.88 289.5,-487.88 389.75,-487.88 389.75,-523.88"/>
<text text-anchor="start" x="299.5" y="-500.45" font-family="Helvetica,sans-Serif" font-size="14.00">1 Undefined &#160;</text>
</g>
<!-- Level Once Sensor&#45;&gt;Level Once Sensor_mustuse -->
<g id="edge7" class="edge">
<title>Level Once Sensor&#45;&gt;Level Once Sensor_mustuse</title>
<path fill="none" stroke="#458b74" d="M159.23,-466.28C196.17,-474.43 242.07,-484.56 278.19,-492.53"/>
<polygon fill="#458b74" stroke="#458b74" points="277.07,-495.87 287.59,-494.61 278.58,-489.04 277.07,-495.87"/>
<text text-anchor="middle" x="220.62" y="-489.32" font-family="Helvetica,sans-Serif" font-size="14.00" fill="#458b74">Weight</text>
</g>
<!-- RunAwaySensor -->
<g id="node13" class="node">
<title>RunAwaySensor</title>
<polygon fill="none" stroke="black" points="151.25,-523.88 34.75,-523.88 34.75,-487.88 151.25,-487.88 151.25,-523.88"/>
<text text-anchor="middle" x="93" y="-500.45" font-family="Helvetica,sans-Serif" font-size="14.00">RunAwaySensor</text>
</g>
<!-- AttackSensor -->
<g id="node14" class="node">
<title>AttackSensor</title>
<polygon fill="none" stroke="black" points="141.12,-577.88 44.88,-577.88 44.88,-541.88 141.12,-541.88 141.12,-577.88"/>
<text text-anchor="middle" x="93" y="-554.45" font-family="Helvetica,sans-Serif" font-size="14.00">AttackSensor</text>
</g>
<!-- AttackSensor_linked -->
<g id="node15" class="node">
<title>AttackSensor_linked</title>
<polygon fill="none" stroke="black" stroke-dasharray="1,5" points="385.35,-577.88 293.9,-577.88 293.9,-541.88 385.35,-541.88 385.35,-577.88"/>
<text text-anchor="start" x="299.5" y="-554.45" font-family="Helvetica,sans-Serif" font-size="14.00">SpawnState &#160;</text>
</g>
<!-- AttackSensor&#45;&gt;AttackSensor_linked -->
<g id="edge8" class="edge">
<title>AttackSensor&#45;&gt;AttackSensor_linked</title>
<path fill="none" stroke="#66cdaa" d="M141.46,-559.88C181.8,-559.88 239.8,-559.88 282.46,-559.88"/>
<polygon fill="#66cdaa" stroke="#66cdaa" points="282.26,-563.38 292.26,-559.88 282.26,-556.38 282.26,-563.38"/>
<text text-anchor="middle" x="220.62" y="-562.33" font-family="Helvetica,sans-Serif" font-size="14.00" fill="#66cdaa">QueueEnd</text>
</g>
<!-- DodgePredictSensor -->
<g id="node16" class="node">
<title>DodgePredictSensor</title>
<polygon fill="none" stroke="black" points="24,-621.88 24,-643.62 162,-643.62 162,-621.88 24,-621.88"/>
<text text-anchor="start" x="27" y="-627.33" font-family="Helvetica,sans-Serif" font-size="14.00">DodgePredictSensor &#160;</text>
<polygon fill="none" stroke="black" points="24,-600.12 24,-621.88 162,-621.88 162,-600.12 24,-600.12"/>
<text text-anchor="start" x="27" y="-606.58" font-family="Helvetica,sans-Serif" font-size="12.00" fill="#838b8b">if: Dodge</text>
<text text-anchor="start" x="75" y="-606.58" font-family="Helvetica,sans-Serif" font-size="14.00"> &#160;</text>
</g>
<!-- DodgePredictSensor_linked -->
<g id="node17" class="node">
<title>DodgePredictSensor_linked</title>
<polygon fill="none" stroke="black" stroke-dasharray="1,5" points="385.35,-639.88 293.9,-639.88 293.9,-603.88 385.35,-603.88 385.35,-639.88"/>
<text text-anchor="start" x="299.5" y="-616.45" font-family="Helvetica,sans-Serif" font-size="14.00">SpawnState &#160;</text>
</g>
<!-- DodgePredictSensor&#45;&gt;DodgePredictSensor_linked -->
<g id="edge9" class="edge">
<title>DodgePredictSensor&#45;&gt;DodgePredictSensor_linked</title>
<path fill="none" stroke="#66cdaa" d="M169.73,-621.88C206,-621.88 248.7,-621.88 282.1,-621.88"/>
<polygon fill="#66cdaa" stroke="#66cdaa" points="281.98,-625.38 291.98,-621.88 281.98,-618.38 281.98,-625.38"/>
<text text-anchor="middle" x="220.62" y="-624.33" font-family="Helvetica,sans-Serif" font-size="14.00" fill="#66cdaa">QueueEnd</text>
</g>
<!-- AttackPredictSensor -->
<g id="node18" class="node">
<title>AttackPredictSensor</title>
<polygon fill="none" stroke="black" points="25.12,-691.88 25.12,-713.62 160.88,-713.62 160.88,-691.88 25.12,-691.88"/>
<text text-anchor="start" x="28.12" y="-697.33" font-family="Helvetica,sans-Serif" font-size="14.00">AttackPredictSensor &#160;</text>
<polygon fill="none" stroke="black" points="25.12,-670.12 25.12,-691.88 160.88,-691.88 160.88,-670.12 25.12,-670.12"/>
<text text-anchor="start" x="28.12" y="-676.58" font-family="Helvetica,sans-Serif" font-size="12.00" fill="#838b8b">if: Attack</text>
<text text-anchor="start" x="73.12" y="-676.58" font-family="Helvetica,sans-Serif" font-size="14.00"> &#160;</text>
</g>
<!-- AttackPredictSensor_linked -->
<g id="node19" class="node">
<title>AttackPredictSensor_linked</title>
<polygon fill="none" stroke="black" stroke-dasharray="1,5" points="385.35,-709.88 293.9,-709.88 293.9,-673.88 385.35,-673.88 385.35,-709.88"/>
<text text-anchor="start" x="299.5" y="-686.45" font-family="Helvetica,sans-Serif" font-size="14.00">SpawnState &#160;</text>
</g>
<!-- AttackPredictSensor&#45;&gt;AttackPredictSensor_linked -->
<g id="edge10" class="edge">
<title>AttackPredictSensor&#45;&gt;AttackPredictSensor_linked</title>
<path fill="none" stroke="#66cdaa" d="M168.72,-691.88C205.17,-691.88 248.3,-691.88 281.99,-691.88"/>
<polygon fill="#66cdaa" stroke="#66cdaa" points="281.97,-695.38 291.97,-691.88 281.97,-688.38 281.97,-695.38"/>
<text text-anchor="middle" x="220.62" y="-694.33" font-family="Helvetica,sans-Serif" font-size="14.00" fill="#66cdaa">QueueEnd</text>
</g>
<!-- AttackRunToSensor -->
<g id="node20" class="node">
<title>AttackRunToSensor</title>
<polygon fill="none" stroke="black" points="26.62,-761.88 26.62,-783.62 159.38,-783.62 159.38,-761.88 26.62,-761.88"/>
<text text-anchor="start" x="29.62" y="-767.33" font-family="Helvetica,sans-Serif" font-size="14.00">AttackRunToSensor &#160;</text>
<polygon fill="none" stroke="black" points="26.62,-740.12 26.62,-761.88 159.38,-761.88 159.38,-740.12 26.62,-740.12"/>
<text text-anchor="start" x="29.62" y="-746.58" font-family="Helvetica,sans-Serif" font-size="12.00" fill="#838b8b">if: state is Engaging</text>
<text text-anchor="start" x="133.88" y="-746.58" font-family="Helvetica,sans-Serif" font-size="14.00"> &#160;</text>
</g>
<!-- AttackRunToSensor_linked -->
<g id="node21" class="node">
<title>AttackRunToSensor_linked</title>
<polygon fill="none" stroke="black" stroke-dasharray="1,5" points="385.35,-779.88 293.9,-779.88 293.9,-743.88 385.35,-743.88 385.35,-779.88"/>
<text text-anchor="start" x="299.5" y="-756.45" font-family="Helvetica,sans-Serif" font-size="14.00">SpawnState &#160;</text>
</g>
<!-- AttackRunToSensor&#45;&gt;AttackRunToSensor_linked -->
<g id="edge11" class="edge">
<title>AttackRunToSensor&#45;&gt;AttackRunToSensor_linked</title>
<path fill="none" stroke="#66cdaa" d="M167.06,-761.88C204,-761.88 248.13,-761.88 282.38,-761.88"/>
<polygon fill="#66cdaa" stroke="#66cdaa" points="282.08,-765.38 292.08,-761.88 282.08,-758.38 282.08,-765.38"/>
<text text-anchor="middle" x="220.62" y="-764.33" font-family="Helvetica,sans-Serif" font-size="14.00" fill="#66cdaa">QueueEnd</text>
</g>
</g>
</svg>
