<?xml version="1.0" encoding="UTF-8" standalone="no"?>
<!DOCTYPE svg PUBLIC "-//W3C//DTD SVG 1.1//EN"
 "http://www.w3.org/Graphics/SVG/1.1/DTD/svg11.dtd">
<!-- Generated by graphviz version 12.2.1 (20241206.2353)
 -->
<!-- Title: Foo Pages: 1 -->
<svg width="416pt" height="834pt"
 viewBox="0.00 0.00 416.00 834.00" xmlns="http://www.w3.org/2000/svg" xmlns:xlink="http://www.w3.org/1999/xlink">
<g id="graph0" class="graph" transform="scale(1 1) rotate(0) translate(4 830)">
<title>Foo</title>
<polygon fill="white" stroke="none" points="-4,4 -4,-830 412,-830 412,4 -4,4"/>
<g id="clust1" class="cluster">
<title>cluster_attacksensors</title>
<polygon fill="none" stroke="black" points="8,-8 8,-402 397.75,-402 397.75,-8 8,-8"/>
<text text-anchor="middle" x="202.88" y="-384.7" font-family="Helvetica,sans-Serif" font-size="14.00">Attack Sensors</text>
</g>
<!-- Level Once Sensor -->
<g id="node1" class="node">
<title>Level Once Sensor</title>
<polygon fill="none" stroke="black" points="28.5,-23.12 28.5,-44.88 157.5,-44.88 157.5,-23.12 28.5,-23.12"/>
<text text-anchor="start" x="31.5" y="-28.57" font-family="Helvetica,sans-Serif" font-size="14.00">Level Once Sensor &#160;</text>
</g>
<!-- Level Once Sensor_linked -->
<g id="node2" class="node">
<title>Level Once Sensor_linked</title>
<polygon fill="none" stroke="black" stroke-dasharray="1,5" points="385.35,-52 293.9,-52 293.9,-16 385.35,-16 385.35,-52"/>
<text text-anchor="start" x="299.5" y="-28.57" font-family="Helvetica,sans-Serif" font-size="14.00">SpawnState &#160;</text>
</g>
<!-- Level Once Sensor&#45;&gt;Level Once Sensor_linked -->
<g id="edge1" class="edge">
<title>Level Once Sensor&#45;&gt;Level Once Sensor_linked</title>
<path fill="none" stroke="#66cdaa" d="M165.41,-34C202.66,-34 247.58,-34 282.34,-34"/>
<polygon fill="#66cdaa" stroke="#66cdaa" points="282.2,-37.5 292.2,-34 282.2,-30.5 282.2,-37.5"/>
<text text-anchor="middle" x="220.62" y="-36.45" font-family="Helvetica,sans-Serif" font-size="14.00" fill="#66cdaa">QueueEnd</text>
</g>
<!-- Level Once Sensor_weight -->
<g id="node3" class="node">
<title>Level Once Sensor_weight</title>
<polygon fill="none" stroke="black" stroke-dasharray="1,5" points="389.75,-106 289.5,-106 289.5,-70 389.75,-70 389.75,-106"/>
<text text-anchor="start" x="299.5" y="-82.58" font-family="Helvetica,sans-Serif" font-size="14.00">1 Undefined &#160;</text>
</g>
<!-- Level Once Sensor&#45;&gt;Level Once Sensor_weight -->
<g id="edge2" class="edge">
<title>Level Once Sensor&#45;&gt;Level Once Sensor_weight</title>
<path fill="none" stroke="#458b74" d="M165.41,-49.76C201.14,-57.65 243.93,-67.1 278.03,-74.62"/>
<polygon fill="#458b74" stroke="#458b74" points="277.25,-78.04 287.77,-76.77 278.75,-71.2 277.25,-78.04"/>
<text text-anchor="middle" x="220.62" y="-71.44" font-family="Helvetica,sans-Serif" font-size="14.00" fill="#458b74">Weight</text>
</g>
<!-- RunAwaySensor -->
<g id="node4" class="node">
<title>RunAwaySensor</title>
<polygon fill="none" stroke="black" points="36,-77.12 36,-98.88 150,-98.88 150,-77.12 36,-77.12"/>
<text text-anchor="start" x="39" y="-82.58" font-family="Helvetica,sans-Serif" font-size="14.00">RunAwaySensor &#160;</text>
</g>
<!-- AttackSensor -->
<g id="node5" class="node">
<title>AttackSensor</title>
<polygon fill="none" stroke="black" points="46.12,-131.12 46.12,-152.88 139.88,-152.88 139.88,-131.12 46.12,-131.12"/>
<text text-anchor="start" x="49.12" y="-136.57" font-family="Helvetica,sans-Serif" font-size="14.00">AttackSensor &#160;</text>
</g>
<!-- AttackSensor_linked -->
<g id="node6" class="node">
<title>AttackSensor_linked</title>
<polygon fill="none" stroke="black" stroke-dasharray="1,5" points="385.35,-160 293.9,-160 293.9,-124 385.35,-124 385.35,-160"/>
<text text-anchor="start" x="299.5" y="-136.57" font-family="Helvetica,sans-Serif" font-size="14.00">SpawnState &#160;</text>
</g>
<!-- AttackSensor&#45;&gt;AttackSensor_linked -->
<g id="edge3" class="edge">
<title>AttackSensor&#45;&gt;AttackSensor_linked</title>
<path fill="none" stroke="#66cdaa" d="M147.68,-142C187.58,-142 241.88,-142 282.37,-142"/>
<polygon fill="#66cdaa" stroke="#66cdaa" points="282.16,-145.5 292.16,-142 282.16,-138.5 282.16,-145.5"/>
<text text-anchor="middle" x="220.62" y="-144.45" font-family="Helvetica,sans-Serif" font-size="14.00" fill="#66cdaa">QueueEnd</text>
</g>
<!-- DodgePredictSensor -->
<g id="node7" class="node">
<title>DodgePredictSensor</title>
<polygon fill="none" stroke="black" points="24,-204 24,-225.75 162,-225.75 162,-204 24,-204"/>
<text text-anchor="start" x="27" y="-209.45" font-family="Helvetica,sans-Serif" font-size="14.00">DodgePredictSensor &#160;</text>
<polygon fill="none" stroke="black" points="24,-182.25 24,-204 162,-204 162,-182.25 24,-182.25"/>
<text text-anchor="start" x="27" y="-188.7" font-family="Helvetica,sans-Serif" font-size="12.00" fill="#838b8b">if: Dodge</text>
<text text-anchor="start" x="75" y="-188.7" font-family="Helvetica,sans-Serif" font-size="14.00"> &#160;</text>
</g>
<!-- DodgePredictSensor_linked -->
<g id="node8" class="node">
<title>DodgePredictSensor_linked</title>
<polygon fill="none" stroke="black" stroke-dasharray="1,5" points="385.35,-222 293.9,-222 293.9,-186 385.35,-186 385.35,-222"/>
<text text-anchor="start" x="299.5" y="-198.57" font-family="Helvetica,sans-Serif" font-size="14.00">SpawnState &#160;</text>
</g>
<!-- DodgePredictSensor&#45;&gt;DodgePredictSensor_linked -->
<g id="edge4" class="edge">
<title>DodgePredictSensor&#45;&gt;DodgePredictSensor_linked</title>
<path fill="none" stroke="#66cdaa" d="M169.73,-204C206,-204 248.7,-204 282.1,-204"/>
<polygon fill="#66cdaa" stroke="#66cdaa" points="281.98,-207.5 291.98,-204 281.98,-200.5 281.98,-207.5"/>
<text text-anchor="middle" x="220.62" y="-206.45" font-family="Helvetica,sans-Serif" font-size="14.00" fill="#66cdaa">QueueEnd</text>
</g>
<!-- AttackPredictSensor -->
<g id="node9" class="node">
<title>AttackPredictSensor</title>
<polygon fill="none" stroke="black" points="25.12,-274 25.12,-295.75 160.88,-295.75 160.88,-274 25.12,-274"/>
<text text-anchor="start" x="28.12" y="-279.45" font-family="Helvetica,sans-Serif" font-size="14.00">AttackPredictSensor &#160;</text>
<polygon fill="none" stroke="black" points="25.12,-252.25 25.12,-274 160.88,-274 160.88,-252.25 25.12,-252.25"/>
<text text-anchor="start" x="28.12" y="-258.7" font-family="Helvetica,sans-Serif" font-size="12.00" fill="#838b8b">if: Attack</text>
<text text-anchor="start" x="73.12" y="-258.7" font-family="Helvetica,sans-Serif" font-size="14.00"> &#160;</text>
</g>
<!-- AttackPredictSensor_linked -->
<g id="node10" class="node">
<title>AttackPredictSensor_linked</title>
<polygon fill="none" stroke="black" stroke-dasharray="1,5" points="385.35,-292 293.9,-292 293.9,-256 385.35,-256 385.35,-292"/>
<text text-anchor="start" x="299.5" y="-268.57" font-family="Helvetica,sans-Serif" font-size="14.00">SpawnState &#160;</text>
</g>
<!-- AttackPredictSensor&#45;&gt;AttackPredictSensor_linked -->
<g id="edge5" class="edge">
<title>AttackPredictSensor&#45;&gt;AttackPredictSensor_linked</title>
<path fill="none" stroke="#66cdaa" d="M168.72,-274C205.17,-274 248.3,-274 281.99,-274"/>
<polygon fill="#66cdaa" stroke="#66cdaa" points="281.97,-277.5 291.97,-274 281.97,-270.5 281.97,-277.5"/>
<text text-anchor="middle" x="220.62" y="-276.45" font-family="Helvetica,sans-Serif" font-size="14.00" fill="#66cdaa">QueueEnd</text>
</g>
<!-- AttackRunToSensor -->
<g id="node11" class="node">
<title>AttackRunToSensor</title>
<polygon fill="none" stroke="black" points="26.62,-344 26.62,-365.75 159.38,-365.75 159.38,-344 26.62,-344"/>
<text text-anchor="start" x="29.62" y="-349.45" font-family="Helvetica,sans-Serif" font-size="14.00">AttackRunToSensor &#160;</text>
<polygon fill="none" stroke="black" points="26.62,-322.25 26.62,-344 159.38,-344 159.38,-322.25 26.62,-322.25"/>
<text text-anchor="start" x="29.62" y="-328.7" font-family="Helvetica,sans-Serif" font-size="12.00" fill="#838b8b">if: state is Engaging</text>
<text text-anchor="start" x="133.88" y="-328.7" font-family="Helvetica,sans-Serif" font-size="14.00"> &#160;</text>
</g>
<!-- AttackRunToSensor_linked -->
<g id="node12" class="node">
<title>AttackRunToSensor_linked</title>
<polygon fill="none" stroke="black" stroke-dasharray="1,5" points="385.35,-362 293.9,-362 293.9,-326 385.35,-326 385.35,-362"/>
<text text-anchor="start" x="299.5" y="-338.57" font-family="Helvetica,sans-Serif" font-size="14.00">SpawnState &#160;</text>
</g>
<!-- AttackRunToSensor&#45;&gt;AttackRunToSensor_linked -->
<g id="edge6" class="edge">
<title>AttackRunToSensor&#45;&gt;AttackRunToSensor_linked</title>
<path fill="none" stroke="#66cdaa" d="M167.06,-344C204,-344 248.13,-344 282.38,-344"/>
<polygon fill="#66cdaa" stroke="#66cdaa" points="282.08,-347.5 292.08,-344 282.08,-340.5 282.08,-347.5"/>
<text text-anchor="middle" x="220.62" y="-346.45" font-family="Helvetica,sans-Serif" font-size="14.00" fill="#66cdaa">QueueEnd</text>
</g>
<!-- SpawnState -->
<g id="node13" class="node">
<title>SpawnState</title>
<polygon fill="none" stroke="black" points="49.88,-446.12 49.88,-467.88 136.12,-467.88 136.12,-446.12 49.88,-446.12"/>
<text text-anchor="start" x="52.88" y="-451.57" font-family="Helvetica,sans-Serif" font-size="14.00">SpawnState &#160;</text>
<polygon fill="none" stroke="black" points="49.88,-414.12 49.88,-446.12 136.12,-446.12 136.12,-414.12 49.88,-414.12"/>
<text text-anchor="start" x="52.88" y="-432.73" font-family="Helvetica,sans-Serif" font-size="12.00" fill="#838b8b">0.62s: Shoot</text>
<text text-anchor="start" x="52.88" y="-418.83" font-family="Helvetica,sans-Serif" font-size="12.00" fill="#838b8b">1.83s: Done</text>
<text text-anchor="start" x="117.38" y="-418.83" font-family="Helvetica,sans-Serif" font-size="14.00"> &#160;</text>
</g>
<!-- Wandering_Walking -->
<g id="node14" class="node">
<title>Wandering_Walking</title>
<polygon fill="none" stroke="black" points="408,-459 271.25,-459 271.25,-423 408,-423 408,-459"/>
<text text-anchor="middle" x="339.62" y="-435.57" font-family="Helvetica,sans-Serif" font-size="14.00">Wandering_Walking</text>
</g>
<!-- SpawnState&#45;&gt;Wandering_Walking -->
<g id="edge7" class="edge">
<title>SpawnState&#45;&gt;Wandering_Walking</title>
<path fill="none" stroke="#cdc8b1" d="M144.09,-441C177.43,-441 221.91,-441 259.92,-441"/>
<polygon fill="#cdc8b1" stroke="#cdc8b1" points="259.46,-444.5 269.46,-441 259.46,-437.5 259.46,-444.5"/>
</g>
<!-- AttackParrying -->
<g id="node15" class="node">
<title>AttackParrying</title>
<polygon fill="none" stroke="black" points="34.5,-526.12 34.5,-547.88 151.5,-547.88 151.5,-526.12 34.5,-526.12"/>
<text text-anchor="start" x="45.38" y="-531.58" font-family="Helvetica,sans-Serif" font-size="14.00">AttackParrying &#160;</text>
<polygon fill="none" stroke="black" points="34.5,-494.12 34.5,-526.12 151.5,-526.12 151.5,-494.12 34.5,-494.12"/>
<text text-anchor="start" x="37.5" y="-512.73" font-family="Helvetica,sans-Serif" font-size="12.00" fill="#838b8b">0.00s: EnableGravity</text>
<text text-anchor="start" x="37.5" y="-498.83" font-family="Helvetica,sans-Serif" font-size="12.00" fill="#838b8b">1.83s: Done</text>
<text text-anchor="start" x="102" y="-498.83" font-family="Helvetica,sans-Serif" font-size="14.00"> &#160;</text>
</g>
<!-- Engaging -->
<g id="node16" class="node">
<title>Engaging</title>
<polygon fill="none" stroke="black" points="376.12,-539 303.12,-539 303.12,-503 376.12,-503 376.12,-539"/>
<text text-anchor="middle" x="339.62" y="-515.58" font-family="Helvetica,sans-Serif" font-size="14.00">Engaging</text>
</g>
<!-- AttackParrying&#45;&gt;Engaging -->
<g id="edge8" class="edge">
<title>AttackParrying&#45;&gt;Engaging</title>
<path fill="none" stroke="#cdc8b1" d="M159.23,-521C200.92,-521 254.01,-521 291.59,-521"/>
<polygon fill="#cdc8b1" stroke="#cdc8b1" points="291.21,-524.5 301.21,-521 291.21,-517.5 291.21,-524.5"/>
</g>
<!-- HurtState -->
<g id="node17" class="node">
<title>HurtState</title>
<polygon fill="none" stroke="black" points="54,-746 54,-767.75 132,-767.75 132,-746 54,-746"/>
<text text-anchor="start" x="60.75" y="-751.45" font-family="Helvetica,sans-Serif" font-size="14.00">HurtState &#160;</text>
<polygon fill="none" stroke="black" points="54,-724.25 54,-746 132,-746 132,-724.25 54,-724.25"/>
<text text-anchor="start" x="57" y="-730.7" font-family="Helvetica,sans-Serif" font-size="12.00" fill="#838b8b">0.15s: Done</text>
<text text-anchor="start" x="121.5" y="-730.7" font-family="Helvetica,sans-Serif" font-size="14.00"> &#160;</text>
</g>
<!-- PreAttack -->
<g id="node18" class="node">
<title>PreAttack</title>
<polygon fill="none" stroke="black" points="376.88,-694 302.38,-694 302.38,-658 376.88,-658 376.88,-694"/>
<text text-anchor="middle" x="339.62" y="-670.58" font-family="Helvetica,sans-Serif" font-size="14.00">PreAttack</text>
</g>
<!-- HurtState&#45;&gt;PreAttack -->
<g id="edge9" class="edge">
<title>HurtState&#45;&gt;PreAttack</title>
<path fill="none" stroke="#cdc8b1" d="M139.73,-732.92C182.85,-720.58 247.23,-702.15 290.98,-689.64"/>
<polygon fill="#cdc8b1" stroke="#cdc8b1" points="291.8,-693.04 300.45,-686.92 289.87,-686.31 291.8,-693.04"/>
</g>
<!-- Hurt_BigState -->
<g id="node19" class="node">
<title>Hurt_BigState</title>
<polygon fill="none" stroke="black" points="44.25,-676 44.25,-697.75 141.75,-697.75 141.75,-676 44.25,-676"/>
<text text-anchor="start" x="47.25" y="-681.45" font-family="Helvetica,sans-Serif" font-size="14.00">Hurt_BigState &#160;</text>
<polygon fill="none" stroke="black" points="44.25,-654.25 44.25,-676 141.75,-676 141.75,-654.25 44.25,-654.25"/>
<text text-anchor="start" x="47.25" y="-660.7" font-family="Helvetica,sans-Serif" font-size="12.00" fill="#838b8b">0.27s: Done</text>
<text text-anchor="start" x="111.75" y="-660.7" font-family="Helvetica,sans-Serif" font-size="14.00"> &#160;</text>
</g>
<!-- Hurt_BigState&#45;&gt;PreAttack -->
<g id="edge10" class="edge">
<title>Hurt_BigState&#45;&gt;PreAttack</title>
<path fill="none" stroke="#cdc8b1" d="M149.51,-676C191.98,-676 249.94,-676 290.47,-676"/>
<polygon fill="#cdc8b1" stroke="#cdc8b1" points="290.41,-679.5 300.41,-676 290.41,-672.5 290.41,-679.5"/>
</g>
<!-- PostureBreak -->
<g id="node20" class="node">
<title>PostureBreak</title>
<polygon fill="none" stroke="black" points="34.5,-606.12 34.5,-627.88 151.5,-627.88 151.5,-606.12 34.5,-606.12"/>
<text text-anchor="start" x="48.38" y="-611.58" font-family="Helvetica,sans-Serif" font-size="14.00">PostureBreak &#160;</text>
<polygon fill="none" stroke="black" points="34.5,-574.12 34.5,-606.12 151.5,-606.12 151.5,-574.12 34.5,-574.12"/>
<text text-anchor="start" x="37.5" y="-592.73" font-family="Helvetica,sans-Serif" font-size="12.00" fill="#838b8b">0.00s: EnableGravity</text>
<text text-anchor="start" x="37.5" y="-578.83" font-family="Helvetica,sans-Serif" font-size="12.00" fill="#838b8b">1.83s: Done</text>
<text text-anchor="start" x="102" y="-578.83" font-family="Helvetica,sans-Serif" font-size="14.00"> &#160;</text>
</g>
<!-- PostureBreak&#45;&gt;PreAttack -->
<g id="edge11" class="edge">
<title>PostureBreak&#45;&gt;PreAttack</title>
<path fill="none" stroke="#cdc8b1" d="M159.23,-621C200.84,-633.76 253.81,-650 291.38,-661.51"/>
<polygon fill="#cdc8b1" stroke="#cdc8b1" points="289.99,-664.75 300.58,-664.34 292.04,-658.06 289.99,-664.75"/>
</g>
<!-- Wandering_Idle -->
<g id="node21" class="node">
<title>Wandering_Idle</title>
<polygon fill="none" stroke="black" points="163.62,-826 22.38,-826 22.38,-790 163.62,-790 163.62,-826"/>
<text text-anchor="middle" x="93" y="-802.58" font-family="Helvetica,sans-Serif" font-size="14.00">Wandering_Idle (Init)</text>
</g>
</g>
</svg>
