<?xml version="1.0" encoding="UTF-8" standalone="no"?>
<!DOCTYPE svg PUBLIC "-//W3C//DTD SVG 1.1//EN"
 "http://www.w3.org/Graphics/SVG/1.1/DTD/svg11.dtd">
<!-- Generated by graphviz version 12.2.1 (20241206.2353)
 -->
<!-- Title: Foo Pages: 1 -->
<svg width="428pt" height="1124pt"
 viewBox="0.00 0.00 427.95 1123.88" xmlns="http://www.w3.org/2000/svg" xmlns:xlink="http://www.w3.org/1999/xlink">
<g id="graph0" class="graph" transform="scale(1 1) rotate(0) translate(4 1119.88)">
<title>Foo</title>
<polygon fill="white" stroke="none" points="-4,4 -4,-1119.88 423.95,-1119.88 423.95,4 -4,4"/>
<g id="clust1" class="cluster">
<title>cluster_attacksensors</title>
<polygon fill="none" stroke="black" points="8,-551.88 8,-1107.88 411.95,-1107.88 411.95,-551.88 8,-551.88"/>
<text text-anchor="middle" x="209.97" y="-1090.58" font-family="Helvetica,sans-Serif" font-size="14.00">Attack Sensors</text>
</g>
<!-- Attack -->
<g id="node1" class="node">
<title>Attack</title>
<polygon fill="none" stroke="black" points="34.12,-324 34.12,-345.75 151.88,-345.75 151.88,-324 34.12,-324"/>
<text text-anchor="start" x="70.5" y="-329.45" font-family="Helvetica,sans-Serif" font-size="14.00">Attack &#160;</text>
<polygon fill="none" stroke="black" points="34.12,-280 34.12,-324 151.88,-324 151.88,-280 34.12,-280"/>
<text text-anchor="start" x="37.12" y="-310.6" font-family="Helvetica,sans-Serif" font-size="12.00" fill="#838b8b">0.83s: CheckFacing</text>
<text text-anchor="start" x="37.12" y="-298.6" font-family="Helvetica,sans-Serif" font-size="12.00" fill="#838b8b">1.50s: LinkNextMove</text>
<text text-anchor="start" x="37.12" y="-284.7" font-family="Helvetica,sans-Serif" font-size="12.00" fill="#838b8b">2.83s: Done</text>
<text text-anchor="start" x="101.62" y="-284.7" font-family="Helvetica,sans-Serif" font-size="14.00"> &#160;</text>
</g>
<!-- Engaging -->
<g id="node2" class="node">
<title>Engaging</title>
<polygon fill="none" stroke="black" points="374.1,-195.88 301.1,-195.88 301.1,-159.88 374.1,-159.88 374.1,-195.88"/>
<text text-anchor="middle" x="337.6" y="-172.45" font-family="Helvetica,sans-Serif" font-size="14.00">Engaging</text>
</g>
<!-- Attack&#45;&gt;Engaging -->
<g id="edge1" class="edge">
<title>Attack&#45;&gt;Engaging</title>
<path fill="none" stroke="#cdc8b1" d="M159.65,-276.34C202.24,-252.64 256.5,-222.45 293.64,-201.78"/>
<polygon fill="#cdc8b1" stroke="#cdc8b1" points="295.28,-204.87 302.32,-196.95 291.88,-198.76 295.28,-204.87"/>
</g>
<!-- Attack_mustuse -->
<g id="node3" class="node">
<title>Attack_mustuse</title>
<polygon fill="none" stroke="black" stroke-dasharray="1,5" points="370.1,-336.62 305.1,-336.62 305.1,-289.12 370.1,-289.12 370.1,-336.62"/>
<text text-anchor="start" x="315.1" y="-317.32" font-family="Helvetica,sans-Serif" font-size="14.00">1 Skip &#160;</text>
<text text-anchor="start" x="315.1" y="-297.57" font-family="Helvetica,sans-Serif" font-size="14.00">0 Skip &#160;</text>
</g>
<!-- Attack&#45;&gt;Attack_mustuse -->
<g id="edge2" class="edge">
<title>Attack&#45;&gt;Attack_mustuse</title>
<path fill="none" stroke="#458b74" d="M159.65,-312.88C202.07,-312.88 256.08,-312.88 293.21,-312.88"/>
<polygon fill="#458b74" stroke="#458b74" points="293.12,-316.38 303.12,-312.88 293.12,-309.38 293.12,-316.38"/>
<text text-anchor="middle" x="220.62" y="-315.32" font-family="Helvetica,sans-Serif" font-size="14.00" fill="#458b74">Weight</text>
</g>
<!-- Attack2 -->
<g id="node4" class="node">
<title>Attack2</title>
<polygon fill="none" stroke="black" points="34.12,-60 34.12,-81.75 151.88,-81.75 151.88,-60 34.12,-60"/>
<text text-anchor="start" x="66.75" y="-65.45" font-family="Helvetica,sans-Serif" font-size="14.00">Attack2 &#160;</text>
<polygon fill="none" stroke="black" points="34.12,-4 34.12,-60 151.88,-60 151.88,-4 34.12,-4"/>
<text text-anchor="start" x="37.12" y="-46.6" font-family="Helvetica,sans-Serif" font-size="12.00" fill="#838b8b">0.67s: CheckFacing</text>
<text text-anchor="start" x="37.12" y="-34.6" font-family="Helvetica,sans-Serif" font-size="12.00" fill="#838b8b">1.05s: CheckFacing</text>
<text text-anchor="start" x="37.12" y="-22.6" font-family="Helvetica,sans-Serif" font-size="12.00" fill="#838b8b">1.50s: LinkNextMove</text>
<text text-anchor="start" x="37.12" y="-8.7" font-family="Helvetica,sans-Serif" font-size="12.00" fill="#838b8b">3.00s: Done</text>
<text text-anchor="start" x="101.62" y="-8.7" font-family="Helvetica,sans-Serif" font-size="14.00"> &#160;</text>
</g>
<!-- Attack2&#45;&gt;Engaging -->
<g id="edge3" class="edge">
<title>Attack2&#45;&gt;Engaging</title>
<path fill="none" stroke="#cdc8b1" d="M159.65,-79.41C202.24,-103.11 256.5,-133.3 293.64,-153.97"/>
<polygon fill="#cdc8b1" stroke="#cdc8b1" points="291.88,-156.99 302.32,-158.8 295.28,-150.88 291.88,-156.99"/>
</g>
<!-- Attack2_mustuse -->
<g id="node5" class="node">
<title>Attack2_mustuse</title>
<polygon fill="none" stroke="black" stroke-dasharray="1,5" points="370.1,-66.62 305.1,-66.62 305.1,-19.12 370.1,-19.12 370.1,-66.62"/>
<text text-anchor="start" x="315.1" y="-47.33" font-family="Helvetica,sans-Serif" font-size="14.00">1 Skip &#160;</text>
<text text-anchor="start" x="315.1" y="-27.57" font-family="Helvetica,sans-Serif" font-size="14.00">1 Skip &#160;</text>
</g>
<!-- Attack2&#45;&gt;Attack2_mustuse -->
<g id="edge4" class="edge">
<title>Attack2&#45;&gt;Attack2_mustuse</title>
<path fill="none" stroke="#458b74" d="M159.65,-42.88C202.07,-42.88 256.08,-42.88 293.21,-42.88"/>
<polygon fill="#458b74" stroke="#458b74" points="293.12,-46.38 303.12,-42.88 293.12,-39.38 293.12,-46.38"/>
<text text-anchor="middle" x="220.62" y="-45.33" font-family="Helvetica,sans-Serif" font-size="14.00" fill="#458b74">Weight</text>
</g>
<!-- Attack3 danger run -->
<g id="node6" class="node">
<title>Attack3 danger run</title>
<polygon fill="none" stroke="black" points="29.25,-140 29.25,-161.75 156.75,-161.75 156.75,-140 29.25,-140"/>
<text text-anchor="start" x="32.25" y="-145.45" font-family="Helvetica,sans-Serif" font-size="14.00">Attack3 danger run &#160;</text>
<polygon fill="none" stroke="black" points="29.25,-108 29.25,-140 156.75,-140 156.75,-108 29.25,-108"/>
<text text-anchor="start" x="32.25" y="-126.6" font-family="Helvetica,sans-Serif" font-size="12.00" fill="#838b8b">0.50s: CheckFacing</text>
<text text-anchor="start" x="32.25" y="-112.7" font-family="Helvetica,sans-Serif" font-size="12.00" fill="#838b8b">4.37s: Done</text>
<text text-anchor="start" x="96.75" y="-112.7" font-family="Helvetica,sans-Serif" font-size="14.00"> &#160;</text>
</g>
<!-- Attack3 danger run&#45;&gt;Engaging -->
<g id="edge5" class="edge">
<title>Attack3 danger run&#45;&gt;Engaging</title>
<path fill="none" stroke="#cdc8b1" d="M164.5,-147.37C204.77,-154.51 254.15,-163.26 289.68,-169.56"/>
<polygon fill="#cdc8b1" stroke="#cdc8b1" points="288.75,-172.95 299.21,-171.25 289.97,-166.06 288.75,-172.95"/>
</g>
<!-- Attack4 tripple hit -->
<g id="node7" class="node">
<title>Attack4 tripple hit</title>
<polygon fill="none" stroke="black" points="34.5,-232 34.5,-253.75 151.5,-253.75 151.5,-232 34.5,-232"/>
<text text-anchor="start" x="37.5" y="-237.45" font-family="Helvetica,sans-Serif" font-size="14.00">Attack4 tripple hit &#160;</text>
<polygon fill="none" stroke="black" points="34.5,-188 34.5,-232 151.5,-232 151.5,-188 34.5,-188"/>
<text text-anchor="start" x="37.5" y="-218.6" font-family="Helvetica,sans-Serif" font-size="12.00" fill="#838b8b">0.83s: CheckFacing</text>
<text text-anchor="start" x="37.5" y="-206.6" font-family="Helvetica,sans-Serif" font-size="12.00" fill="#838b8b">2.02s: CheckFacing</text>
<text text-anchor="start" x="37.5" y="-192.7" font-family="Helvetica,sans-Serif" font-size="12.00" fill="#838b8b">4.33s: Done</text>
<text text-anchor="start" x="102" y="-192.7" font-family="Helvetica,sans-Serif" font-size="14.00"> &#160;</text>
</g>
<!-- Attack4 tripple hit&#45;&gt;Engaging -->
<g id="edge6" class="edge">
<title>Attack4 tripple hit&#45;&gt;Engaging</title>
<path fill="none" stroke="#cdc8b1" d="M159.33,-209.3C200.54,-201.99 252.78,-192.73 289.85,-186.16"/>
<polygon fill="#cdc8b1" stroke="#cdc8b1" points="290.12,-189.67 299.35,-184.48 288.89,-182.78 290.12,-189.67"/>
</g>
<!-- HurtState -->
<g id="node8" class="node">
<title>HurtState</title>
<polygon fill="none" stroke="black" points="54,-463.88 54,-485.62 132,-485.62 132,-463.88 54,-463.88"/>
<text text-anchor="start" x="60.75" y="-469.32" font-family="Helvetica,sans-Serif" font-size="14.00">HurtState &#160;</text>
<polygon fill="none" stroke="black" points="54,-442.12 54,-463.88 132,-463.88 132,-442.12 54,-442.12"/>
<text text-anchor="start" x="57" y="-448.57" font-family="Helvetica,sans-Serif" font-size="12.00" fill="#838b8b">0.33s: Done</text>
<text text-anchor="start" x="121.5" y="-448.57" font-family="Helvetica,sans-Serif" font-size="14.00"> &#160;</text>
</g>
<!-- PreAttack -->
<g id="node9" class="node">
<title>PreAttack</title>
<polygon fill="none" stroke="black" points="374.85,-446.88 300.35,-446.88 300.35,-410.88 374.85,-410.88 374.85,-446.88"/>
<text text-anchor="middle" x="337.6" y="-423.45" font-family="Helvetica,sans-Serif" font-size="14.00">PreAttack</text>
</g>
<!-- HurtState&#45;&gt;PreAttack -->
<g id="edge7" class="edge">
<title>HurtState&#45;&gt;PreAttack</title>
<path fill="none" stroke="#cdc8b1" d="M139.92,-457.25C182.45,-451.11 245.46,-442.02 288.64,-435.79"/>
<polygon fill="#cdc8b1" stroke="#cdc8b1" points="289.08,-439.27 298.48,-434.37 288.08,-432.34 289.08,-439.27"/>
</g>
<!-- Hurt_BigState -->
<g id="node10" class="node">
<title>Hurt_BigState</title>
<polygon fill="none" stroke="black" points="44.25,-393.88 44.25,-415.62 141.75,-415.62 141.75,-393.88 44.25,-393.88"/>
<text text-anchor="start" x="47.25" y="-399.32" font-family="Helvetica,sans-Serif" font-size="14.00">Hurt_BigState &#160;</text>
<polygon fill="none" stroke="black" points="44.25,-372.12 44.25,-393.88 141.75,-393.88 141.75,-372.12 44.25,-372.12"/>
<text text-anchor="start" x="47.25" y="-378.57" font-family="Helvetica,sans-Serif" font-size="12.00" fill="#838b8b">1.00s: Done</text>
<text text-anchor="start" x="111.75" y="-378.57" font-family="Helvetica,sans-Serif" font-size="14.00"> &#160;</text>
</g>
<!-- Hurt_BigState&#45;&gt;PreAttack -->
<g id="edge8" class="edge">
<title>Hurt_BigState&#45;&gt;PreAttack</title>
<path fill="none" stroke="#cdc8b1" d="M149.66,-401.9C191.67,-407.97 248.73,-416.2 288.72,-421.97"/>
<polygon fill="#cdc8b1" stroke="#cdc8b1" points="288.13,-425.42 298.53,-423.38 289.13,-418.49 288.13,-425.42"/>
</g>
<!-- Wandering_Idle -->
<g id="node11" class="node">
<title>Wandering_Idle</title>
<polygon fill="none" stroke="black" points="163.62,-543.88 22.38,-543.88 22.38,-507.88 163.62,-507.88 163.62,-543.88"/>
<text text-anchor="middle" x="93" y="-520.45" font-family="Helvetica,sans-Serif" font-size="14.00">Wandering_Idle (Init)</text>
</g>
<!-- Level Once Sensor -->
<g id="node12" class="node">
<title>Level Once Sensor</title>
<polygon fill="none" stroke="black" points="158.75,-632.88 27.25,-632.88 27.25,-596.88 158.75,-596.88 158.75,-632.88"/>
<text text-anchor="middle" x="93" y="-609.45" font-family="Helvetica,sans-Serif" font-size="14.00">Level Once Sensor</text>
</g>
<!-- Level Once Sensor_linked -->
<g id="node13" class="node">
<title>Level Once Sensor_linked</title>
<polygon fill="none" stroke="black" stroke-dasharray="1,5" points="365.7,-595.88 309.5,-595.88 309.5,-559.88 365.7,-559.88 365.7,-595.88"/>
<text text-anchor="start" x="315.1" y="-572.45" font-family="Helvetica,sans-Serif" font-size="14.00">Attack &#160;</text>
</g>
<!-- Level Once Sensor&#45;&gt;Level Once Sensor_linked -->
<g id="edge9" class="edge">
<title>Level Once Sensor&#45;&gt;Level Once Sensor_linked</title>
<path fill="none" stroke="#66cdaa" d="M159.01,-604.96C203.34,-598.2 260.55,-589.47 297.89,-583.78"/>
<polygon fill="#66cdaa" stroke="#66cdaa" points="298.41,-587.24 307.77,-582.27 297.36,-580.32 298.41,-587.24"/>
<text text-anchor="middle" x="220.62" y="-602.14" font-family="Helvetica,sans-Serif" font-size="14.00" fill="#66cdaa">QueueEnd</text>
</g>
<!-- Level Once Sensor_mustuse -->
<g id="node14" class="node">
<title>Level Once Sensor_mustuse</title>
<polygon fill="none" stroke="black" stroke-dasharray="1,5" points="387.73,-649.88 287.48,-649.88 287.48,-613.88 387.73,-613.88 387.73,-649.88"/>
<text text-anchor="start" x="297.48" y="-626.45" font-family="Helvetica,sans-Serif" font-size="14.00">1 Undefined &#160;</text>
</g>
<!-- Level Once Sensor&#45;&gt;Level Once Sensor_mustuse -->
<g id="edge10" class="edge">
<title>Level Once Sensor&#45;&gt;Level Once Sensor_mustuse</title>
<path fill="none" stroke="#458b74" d="M159.01,-619.43C195.36,-621.98 240.37,-625.13 275.98,-627.63"/>
<polygon fill="#458b74" stroke="#458b74" points="275.46,-631.1 285.68,-628.31 275.95,-624.12 275.46,-631.1"/>
<text text-anchor="middle" x="220.62" y="-628.34" font-family="Helvetica,sans-Serif" font-size="14.00" fill="#458b74">Weight</text>
</g>
<!-- RunAwaySensor -->
<g id="node15" class="node">
<title>RunAwaySensor</title>
<polygon fill="none" stroke="black" points="151.25,-702.88 34.75,-702.88 34.75,-666.88 151.25,-666.88 151.25,-702.88"/>
<text text-anchor="middle" x="93" y="-679.45" font-family="Helvetica,sans-Serif" font-size="14.00">RunAwaySensor</text>
</g>
<!-- AttackSensor -->
<g id="node16" class="node">
<title>AttackSensor</title>
<polygon fill="none" stroke="black" points="141.12,-764.88 44.88,-764.88 44.88,-728.88 141.12,-728.88 141.12,-764.88"/>
<text text-anchor="middle" x="93" y="-741.45" font-family="Helvetica,sans-Serif" font-size="14.00">AttackSensor</text>
</g>
<!-- AttackSensor_linked -->
<g id="node17" class="node">
<title>AttackSensor_linked</title>
<polygon fill="none" stroke="black" stroke-dasharray="1,5" points="403.95,-773.85 271.25,-773.85 271.25,-667.9 403.95,-667.9 403.95,-773.85"/>
<text text-anchor="start" x="315.1" y="-754.95" font-family="Helvetica,sans-Serif" font-size="14.00">Attack &#160;</text>
<text text-anchor="start" x="311.35" y="-735.2" font-family="Helvetica,sans-Serif" font-size="14.00">Attack2 &#160;</text>
<text text-anchor="start" x="315.1" y="-715.45" font-family="Helvetica,sans-Serif" font-size="14.00">Attack &#160;</text>
<text text-anchor="start" x="311.35" y="-695.7" font-family="Helvetica,sans-Serif" font-size="14.00">Attack2 &#160;</text>
<text text-anchor="start" x="276.85" y="-675.95" font-family="Helvetica,sans-Serif" font-size="14.00">Attack3 danger run &#160;</text>
</g>
<!-- AttackSensor&#45;&gt;AttackSensor_linked -->
<g id="edge11" class="edge">
<title>AttackSensor&#45;&gt;AttackSensor_linked</title>
<path fill="none" stroke="#66cdaa" d="M141.35,-741.8C174.99,-738.2 220.89,-733.28 259.73,-729.11"/>
<polygon fill="#66cdaa" stroke="#66cdaa" points="259.94,-732.61 269.51,-728.07 259.19,-725.65 259.94,-732.61"/>
<text text-anchor="middle" x="220.62" y="-738.65" font-family="Helvetica,sans-Serif" font-size="14.00" fill="#66cdaa">QueueEnd</text>
</g>
<!-- AttackSensor_mustuse -->
<g id="node18" class="node">
<title>AttackSensor_mustuse</title>
<polygon fill="none" stroke="black" stroke-dasharray="1,5" points="370.1,-859.5 305.1,-859.5 305.1,-792.25 370.1,-792.25 370.1,-859.5"/>
<text text-anchor="start" x="315.1" y="-840.2" font-family="Helvetica,sans-Serif" font-size="14.00">1 Skip &#160;</text>
<text text-anchor="start" x="315.1" y="-820.45" font-family="Helvetica,sans-Serif" font-size="14.00">1 Skip &#160;</text>
<text text-anchor="start" x="315.1" y="-800.7" font-family="Helvetica,sans-Serif" font-size="14.00">1 Skip &#160;</text>
</g>
<!-- AttackSensor&#45;&gt;AttackSensor_mustuse -->
<g id="edge12" class="edge">
<title>AttackSensor&#45;&gt;AttackSensor_mustuse</title>
<path fill="none" stroke="#458b74" d="M141.35,-762.29C185.66,-776.72 251.24,-798.08 293.95,-811.99"/>
<polygon fill="#458b74" stroke="#458b74" points="292.79,-815.29 303.38,-815.06 294.96,-808.63 292.79,-815.29"/>
<text text-anchor="middle" x="220.62" y="-800.52" font-family="Helvetica,sans-Serif" font-size="14.00" fill="#458b74">Weight</text>
</g>
<!-- DodgePredictSensor -->
<g id="node19" class="node">
<title>DodgePredictSensor</title>
<polygon fill="none" stroke="black" points="24,-855.88 24,-877.62 162,-877.62 162,-855.88 24,-855.88"/>
<text text-anchor="start" x="27" y="-861.33" font-family="Helvetica,sans-Serif" font-size="14.00">DodgePredictSensor &#160;</text>
<polygon fill="none" stroke="black" points="24,-834.12 24,-855.88 162,-855.88 162,-834.12 24,-834.12"/>
<text text-anchor="start" x="27" y="-840.58" font-family="Helvetica,sans-Serif" font-size="12.00" fill="#838b8b">if: Dodge</text>
<text text-anchor="start" x="75" y="-840.58" font-family="Helvetica,sans-Serif" font-size="14.00"> &#160;</text>
</g>
<!-- DodgePredictSensor_linked -->
<g id="node20" class="node">
<title>DodgePredictSensor_linked</title>
<polygon fill="none" stroke="black" stroke-dasharray="1,5" points="365.7,-913.88 309.5,-913.88 309.5,-877.88 365.7,-877.88 365.7,-913.88"/>
<text text-anchor="start" x="315.1" y="-890.45" font-family="Helvetica,sans-Serif" font-size="14.00">Attack &#160;</text>
</g>
<!-- DodgePredictSensor&#45;&gt;DodgePredictSensor_linked -->
<g id="edge13" class="edge">
<title>DodgePredictSensor&#45;&gt;DodgePredictSensor_linked</title>
<path fill="none" stroke="#66cdaa" d="M169.76,-868.37C212.36,-875.39 263.71,-883.86 298.09,-889.53"/>
<polygon fill="#66cdaa" stroke="#66cdaa" points="297.14,-892.92 307.57,-891.09 298.27,-886.01 297.14,-892.92"/>
<text text-anchor="middle" x="220.62" y="-884.25" font-family="Helvetica,sans-Serif" font-size="14.00" fill="#66cdaa">QueueEnd</text>
</g>
<!-- AttackPredictSensor -->
<g id="node21" class="node">
<title>AttackPredictSensor</title>
<polygon fill="none" stroke="black" points="25.12,-925.88 25.12,-947.62 160.88,-947.62 160.88,-925.88 25.12,-925.88"/>
<text text-anchor="start" x="28.12" y="-931.33" font-family="Helvetica,sans-Serif" font-size="14.00">AttackPredictSensor &#160;</text>
<polygon fill="none" stroke="black" points="25.12,-904.12 25.12,-925.88 160.88,-925.88 160.88,-904.12 25.12,-904.12"/>
<text text-anchor="start" x="28.12" y="-910.58" font-family="Helvetica,sans-Serif" font-size="12.00" fill="#838b8b">if: Attack</text>
<text text-anchor="start" x="73.12" y="-910.58" font-family="Helvetica,sans-Serif" font-size="14.00"> &#160;</text>
</g>
<!-- AttackPredictSensor_linked -->
<g id="node22" class="node">
<title>AttackPredictSensor_linked</title>
<polygon fill="none" stroke="black" stroke-dasharray="1,5" points="365.7,-967.88 309.5,-967.88 309.5,-931.88 365.7,-931.88 365.7,-967.88"/>
<text text-anchor="start" x="315.1" y="-944.45" font-family="Helvetica,sans-Serif" font-size="14.00">Attack &#160;</text>
</g>
<!-- AttackPredictSensor&#45;&gt;AttackPredictSensor_linked -->
<g id="edge14" class="edge">
<title>AttackPredictSensor&#45;&gt;AttackPredictSensor_linked</title>
<path fill="none" stroke="#66cdaa" d="M168.77,-933.27C211.55,-937.5 263.42,-942.64 298.07,-946.06"/>
<polygon fill="#66cdaa" stroke="#66cdaa" points="297.32,-949.51 307.62,-947.01 298.01,-942.54 297.32,-949.51"/>
<text text-anchor="middle" x="220.62" y="-943.88" font-family="Helvetica,sans-Serif" font-size="14.00" fill="#66cdaa">QueueEnd</text>
</g>
<!-- AttackRunToSensor -->
<g id="node23" class="node">
<title>AttackRunToSensor</title>
<polygon fill="none" stroke="black" points="26.62,-995.88 26.62,-1017.62 159.38,-1017.62 159.38,-995.88 26.62,-995.88"/>
<text text-anchor="start" x="29.62" y="-1001.33" font-family="Helvetica,sans-Serif" font-size="14.00">AttackRunToSensor &#160;</text>
<polygon fill="none" stroke="black" points="26.62,-974.12 26.62,-995.88 159.38,-995.88 159.38,-974.12 26.62,-974.12"/>
<text text-anchor="start" x="29.62" y="-980.58" font-family="Helvetica,sans-Serif" font-size="12.00" fill="#838b8b">if: state is Engaging</text>
<text text-anchor="start" x="133.88" y="-980.58" font-family="Helvetica,sans-Serif" font-size="14.00"> &#160;</text>
</g>
<!-- AttackRunToSensor_linked -->
<g id="node24" class="node">
<title>AttackRunToSensor_linked</title>
<polygon fill="none" stroke="black" stroke-dasharray="1,5" points="365.7,-1021.88 309.5,-1021.88 309.5,-985.88 365.7,-985.88 365.7,-1021.88"/>
<text text-anchor="start" x="315.1" y="-998.45" font-family="Helvetica,sans-Serif" font-size="14.00">Attack &#160;</text>
</g>
<!-- AttackRunToSensor&#45;&gt;AttackRunToSensor_linked -->
<g id="edge15" class="edge">
<title>AttackRunToSensor&#45;&gt;AttackRunToSensor_linked</title>
<path fill="none" stroke="#66cdaa" d="M167.12,-998.29C210.11,-999.7 262.75,-1001.44 297.84,-1002.6"/>
<polygon fill="#66cdaa" stroke="#66cdaa" points="297.41,-1006.08 307.52,-1002.92 297.64,-999.09 297.41,-1006.08"/>
<text text-anchor="middle" x="220.62" y="-1003.51" font-family="Helvetica,sans-Serif" font-size="14.00" fill="#66cdaa">QueueEnd</text>
</g>
<!-- AttackSensor(chase) -->
<g id="node25" class="node">
<title>AttackSensor(chase)</title>
<polygon fill="none" stroke="black" points="163.62,-1075.88 22.38,-1075.88 22.38,-1039.88 163.62,-1039.88 163.62,-1075.88"/>
<text text-anchor="middle" x="93" y="-1052.45" font-family="Helvetica,sans-Serif" font-size="14.00">AttackSensor(chase)</text>
</g>
<!-- AttackSensor(chase)_linked -->
<g id="node26" class="node">
<title>AttackSensor(chase)_linked</title>
<polygon fill="none" stroke="black" stroke-dasharray="1,5" points="403.95,-1075.88 271.25,-1075.88 271.25,-1039.88 403.95,-1039.88 403.95,-1075.88"/>
<text text-anchor="start" x="276.85" y="-1052.45" font-family="Helvetica,sans-Serif" font-size="14.00">Attack3 danger run &#160;</text>
</g>
<!-- AttackSensor(chase)&#45;&gt;AttackSensor(chase)_linked -->
<g id="edge16" class="edge">
<title>AttackSensor(chase)&#45;&gt;AttackSensor(chase)_linked</title>
<path fill="none" stroke="#66cdaa" d="M163.84,-1057.88C193.89,-1057.88 229.1,-1057.88 259.87,-1057.88"/>
<polygon fill="#66cdaa" stroke="#66cdaa" points="259.48,-1061.38 269.48,-1057.88 259.48,-1054.38 259.48,-1061.38"/>
<text text-anchor="middle" x="220.62" y="-1060.33" font-family="Helvetica,sans-Serif" font-size="14.00" fill="#66cdaa">QueueEnd</text>
</g>
</g>
</svg>
