<?xml version="1.0" encoding="UTF-8" standalone="no"?>
<!DOCTYPE svg PUBLIC "-//W3C//DTD SVG 1.1//EN"
 "http://www.w3.org/Graphics/SVG/1.1/DTD/svg11.dtd">
<!-- Generated by graphviz version 12.2.1 (20241206.2353)
 -->
<!-- Title: Foo Pages: 1 -->
<svg width="396pt" height="930pt"
 viewBox="0.00 0.00 395.50 929.88" xmlns="http://www.w3.org/2000/svg" xmlns:xlink="http://www.w3.org/1999/xlink">
<g id="graph0" class="graph" transform="scale(1 1) rotate(0) translate(4 925.88)">
<title>Foo</title>
<polygon fill="white" stroke="none" points="-4,4 -4,-925.88 391.5,-925.88 391.5,4 -4,4"/>
<g id="clust1" class="cluster">
<title>cluster_attacksensors</title>
<polygon fill="none" stroke="black" points="8,-449.88 8,-913.88 379.5,-913.88 379.5,-449.88 8,-449.88"/>
<text text-anchor="middle" x="193.75" y="-896.58" font-family="Helvetica,sans-Serif" font-size="14.00">Attack Sensors</text>
</g>
<!-- Attack -->
<g id="node1" class="node">
<title>Attack</title>
<polygon fill="none" stroke="black" points="36.75,-360 36.75,-381.75 149.25,-381.75 149.25,-360 36.75,-360"/>
<text text-anchor="start" x="70.5" y="-365.45" font-family="Helvetica,sans-Serif" font-size="14.00">Attack &#160;</text>
<polygon fill="none" stroke="black" points="36.75,-304 36.75,-360 149.25,-360 149.25,-304 36.75,-304"/>
<text text-anchor="start" x="39.75" y="-346.6" font-family="Helvetica,sans-Serif" font-size="12.00" fill="#838b8b">0.25s: CheckFacing</text>
<text text-anchor="start" x="39.75" y="-334.6" font-family="Helvetica,sans-Serif" font-size="12.00" fill="#838b8b">0.47s: QTE</text>
<text text-anchor="start" x="39.75" y="-322.6" font-family="Helvetica,sans-Serif" font-size="12.00" fill="#838b8b">0.83s: QTE</text>
<text text-anchor="start" x="39.75" y="-308.7" font-family="Helvetica,sans-Serif" font-size="12.00" fill="#838b8b">1.25s: Done</text>
<text text-anchor="start" x="104.25" y="-308.7" font-family="Helvetica,sans-Serif" font-size="14.00"> &#160;</text>
</g>
<!-- PreAttack -->
<g id="node2" class="node">
<title>PreAttack</title>
<polygon fill="none" stroke="black" points="358.62,-193.88 284.12,-193.88 284.12,-157.88 358.62,-157.88 358.62,-193.88"/>
<text text-anchor="middle" x="321.38" y="-170.45" font-family="Helvetica,sans-Serif" font-size="14.00">PreAttack</text>
</g>
<!-- Attack&#45;&gt;PreAttack -->
<g id="edge1" class="edge">
<title>Attack&#45;&gt;PreAttack</title>
<path fill="none" stroke="#cdc8b1" d="M156.81,-300.29C161.29,-297.13 165.73,-293.97 170,-290.88 211.5,-260.84 258.21,-224.75 288.41,-201.11"/>
<polygon fill="#cdc8b1" stroke="#cdc8b1" points="290.32,-204.05 296.03,-195.12 286,-198.54 290.32,-204.05"/>
</g>
<!-- AttackParrying -->
<g id="node3" class="node">
<title>AttackParrying</title>
<polygon fill="none" stroke="black" points="42.38,-256 42.38,-277.75 143.62,-277.75 143.62,-256 42.38,-256"/>
<text text-anchor="start" x="45.38" y="-261.45" font-family="Helvetica,sans-Serif" font-size="14.00">AttackParrying &#160;</text>
<polygon fill="none" stroke="black" points="42.38,-224 42.38,-256 143.62,-256 143.62,-224 42.38,-224"/>
<text text-anchor="start" x="45.38" y="-242.6" font-family="Helvetica,sans-Serif" font-size="12.00" fill="#838b8b">0.08s: QTE</text>
<text text-anchor="start" x="45.38" y="-228.7" font-family="Helvetica,sans-Serif" font-size="12.00" fill="#838b8b">0.67s: Done</text>
<text text-anchor="start" x="109.88" y="-228.7" font-family="Helvetica,sans-Serif" font-size="14.00"> &#160;</text>
</g>
<!-- AttackParrying&#45;&gt;PreAttack -->
<g id="edge2" class="edge">
<title>AttackParrying&#45;&gt;PreAttack</title>
<path fill="none" stroke="#cdc8b1" d="M151.42,-231.85C189.17,-219.35 237.95,-203.18 273.38,-191.44"/>
<polygon fill="#cdc8b1" stroke="#cdc8b1" points="274.1,-194.89 282.49,-188.43 271.9,-188.25 274.1,-194.89"/>
</g>
<!-- HurtState -->
<g id="node4" class="node">
<title>HurtState</title>
<polygon fill="none" stroke="black" points="54,-175.88 54,-197.62 132,-197.62 132,-175.88 54,-175.88"/>
<text text-anchor="start" x="60.75" y="-181.32" font-family="Helvetica,sans-Serif" font-size="14.00">HurtState &#160;</text>
<polygon fill="none" stroke="black" points="54,-154.12 54,-175.88 132,-175.88 132,-154.12 54,-154.12"/>
<text text-anchor="start" x="57" y="-160.57" font-family="Helvetica,sans-Serif" font-size="12.00" fill="#838b8b">0.25s: Done</text>
<text text-anchor="start" x="121.5" y="-160.57" font-family="Helvetica,sans-Serif" font-size="14.00"> &#160;</text>
</g>
<!-- HurtState&#45;&gt;PreAttack -->
<g id="edge3" class="edge">
<title>HurtState&#45;&gt;PreAttack</title>
<path fill="none" stroke="#cdc8b1" d="M139.81,-175.88C178.41,-175.88 233.46,-175.88 272.6,-175.88"/>
<polygon fill="#cdc8b1" stroke="#cdc8b1" points="272.44,-179.38 282.44,-175.88 272.44,-172.38 272.44,-179.38"/>
</g>
<!-- Hurt_BigState -->
<g id="node5" class="node">
<title>Hurt_BigState</title>
<polygon fill="none" stroke="black" points="44.25,-105.88 44.25,-127.62 141.75,-127.62 141.75,-105.88 44.25,-105.88"/>
<text text-anchor="start" x="47.25" y="-111.33" font-family="Helvetica,sans-Serif" font-size="14.00">Hurt_BigState &#160;</text>
<polygon fill="none" stroke="black" points="44.25,-84.12 44.25,-105.88 141.75,-105.88 141.75,-84.12 44.25,-84.12"/>
<text text-anchor="start" x="47.25" y="-90.58" font-family="Helvetica,sans-Serif" font-size="12.00" fill="#838b8b">1.00s: Done</text>
<text text-anchor="start" x="111.75" y="-90.58" font-family="Helvetica,sans-Serif" font-size="14.00"> &#160;</text>
</g>
<!-- Hurt_BigState&#45;&gt;PreAttack -->
<g id="edge4" class="edge">
<title>Hurt_BigState&#45;&gt;PreAttack</title>
<path fill="none" stroke="#cdc8b1" d="M149.67,-123.09C187.51,-134.79 237.05,-150.11 273,-161.23"/>
<polygon fill="#cdc8b1" stroke="#cdc8b1" points="271.66,-164.48 282.25,-164.09 273.73,-157.79 271.66,-164.48"/>
</g>
<!-- PostureBreak -->
<g id="node6" class="node">
<title>PostureBreak</title>
<polygon fill="none" stroke="black" points="34.5,-36 34.5,-57.75 151.5,-57.75 151.5,-36 34.5,-36"/>
<text text-anchor="start" x="48.38" y="-41.45" font-family="Helvetica,sans-Serif" font-size="14.00">PostureBreak &#160;</text>
<polygon fill="none" stroke="black" points="34.5,-4 34.5,-36 151.5,-36 151.5,-4 34.5,-4"/>
<text text-anchor="start" x="37.5" y="-22.6" font-family="Helvetica,sans-Serif" font-size="12.00" fill="#838b8b">0.00s: EnableGravity</text>
<text text-anchor="start" x="37.5" y="-8.7" font-family="Helvetica,sans-Serif" font-size="12.00" fill="#838b8b">3.50s: Done</text>
<text text-anchor="start" x="102" y="-8.7" font-family="Helvetica,sans-Serif" font-size="14.00"> &#160;</text>
</g>
<!-- PostureBreak&#45;&gt;PreAttack -->
<g id="edge5" class="edge">
<title>PostureBreak&#45;&gt;PreAttack</title>
<path fill="none" stroke="#cdc8b1" d="M154.13,-61.63C159.55,-64.66 164.91,-67.77 170,-70.88 211.47,-96.13 256.89,-128.56 286.85,-150.65"/>
<polygon fill="#cdc8b1" stroke="#cdc8b1" points="284.67,-153.39 294.79,-156.53 288.84,-147.77 284.67,-153.39"/>
</g>
<!-- Wandering_Idle -->
<g id="node7" class="node">
<title>Wandering_Idle</title>
<polygon fill="none" stroke="black" points="163.62,-439.88 22.38,-439.88 22.38,-403.88 163.62,-403.88 163.62,-439.88"/>
<text text-anchor="middle" x="93" y="-416.45" font-family="Helvetica,sans-Serif" font-size="14.00">Wandering_Idle (Init)</text>
</g>
<!-- Level Once Sensor -->
<g id="node8" class="node">
<title>Level Once Sensor</title>
<polygon fill="none" stroke="black" points="158.75,-493.88 27.25,-493.88 27.25,-457.88 158.75,-457.88 158.75,-493.88"/>
<text text-anchor="middle" x="93" y="-470.45" font-family="Helvetica,sans-Serif" font-size="14.00">Level Once Sensor</text>
</g>
<!-- Level Once Sensor_linked -->
<g id="node9" class="node">
<title>Level Once Sensor_linked</title>
<polygon fill="none" stroke="black" stroke-dasharray="1,5" points="349.48,-493.88 293.27,-493.88 293.27,-457.88 349.48,-457.88 349.48,-493.88"/>
<text text-anchor="start" x="298.88" y="-470.45" font-family="Helvetica,sans-Serif" font-size="14.00">Attack &#160;</text>
</g>
<!-- Level Once Sensor&#45;&gt;Level Once Sensor_linked -->
<g id="edge6" class="edge">
<title>Level Once Sensor&#45;&gt;Level Once Sensor_linked</title>
<path fill="none" stroke="#66cdaa" d="M159.17,-475.88C198.9,-475.88 248.31,-475.88 281.88,-475.88"/>
<polygon fill="#66cdaa" stroke="#66cdaa" points="281.54,-479.38 291.54,-475.88 281.54,-472.38 281.54,-479.38"/>
<text text-anchor="middle" x="220.62" y="-478.32" font-family="Helvetica,sans-Serif" font-size="14.00" fill="#66cdaa">QueueEnd</text>
</g>
<!-- Level Once Sensor_mustuse -->
<g id="node10" class="node">
<title>Level Once Sensor_mustuse</title>
<polygon fill="none" stroke="black" stroke-dasharray="1,5" points="371.5,-547.88 271.25,-547.88 271.25,-511.88 371.5,-511.88 371.5,-547.88"/>
<text text-anchor="start" x="281.25" y="-524.45" font-family="Helvetica,sans-Serif" font-size="14.00">1 Undefined &#160;</text>
</g>
<!-- Level Once Sensor&#45;&gt;Level Once Sensor_mustuse -->
<g id="edge7" class="edge">
<title>Level Once Sensor&#45;&gt;Level Once Sensor_mustuse</title>
<path fill="none" stroke="#458b74" d="M159.17,-491.42C190.93,-499 228.88,-508.05 259.98,-515.47"/>
<polygon fill="#458b74" stroke="#458b74" points="259.09,-518.85 269.63,-517.77 260.71,-512.04 259.09,-518.85"/>
<text text-anchor="middle" x="220.62" y="-514.86" font-family="Helvetica,sans-Serif" font-size="14.00" fill="#458b74">Weight</text>
</g>
<!-- RunAwaySensor -->
<g id="node11" class="node">
<title>RunAwaySensor</title>
<polygon fill="none" stroke="black" points="151.25,-547.88 34.75,-547.88 34.75,-511.88 151.25,-511.88 151.25,-547.88"/>
<text text-anchor="middle" x="93" y="-524.45" font-family="Helvetica,sans-Serif" font-size="14.00">RunAwaySensor</text>
</g>
<!-- AttackSensor -->
<g id="node12" class="node">
<title>AttackSensor</title>
<polygon fill="none" stroke="black" points="34.12,-591.88 34.12,-613.62 151.88,-613.62 151.88,-591.88 34.12,-591.88"/>
<text text-anchor="start" x="49.12" y="-597.33" font-family="Helvetica,sans-Serif" font-size="14.00">AttackSensor &#160;</text>
<polygon fill="none" stroke="black" points="34.12,-570.12 34.12,-591.88 151.88,-591.88 151.88,-570.12 34.12,-570.12"/>
<text text-anchor="start" x="37.12" y="-576.58" font-family="Helvetica,sans-Serif" font-size="12.00" fill="#838b8b">if: state is PreAttack</text>
<text text-anchor="start" x="141.38" y="-576.58" font-family="Helvetica,sans-Serif" font-size="14.00"> &#160;</text>
</g>
<!-- AttackSensor_linked -->
<g id="node13" class="node">
<title>AttackSensor_linked</title>
<polygon fill="none" stroke="black" stroke-dasharray="1,5" points="349.48,-609.88 293.27,-609.88 293.27,-573.88 349.48,-573.88 349.48,-609.88"/>
<text text-anchor="start" x="298.88" y="-586.45" font-family="Helvetica,sans-Serif" font-size="14.00">Attack &#160;</text>
</g>
<!-- AttackSensor&#45;&gt;AttackSensor_linked -->
<g id="edge8" class="edge">
<title>AttackSensor&#45;&gt;AttackSensor_linked</title>
<path fill="none" stroke="#66cdaa" d="M159.78,-591.88C199.37,-591.88 248.4,-591.88 281.8,-591.88"/>
<polygon fill="#66cdaa" stroke="#66cdaa" points="281.4,-595.38 291.4,-591.88 281.4,-588.38 281.4,-595.38"/>
<text text-anchor="middle" x="220.62" y="-594.33" font-family="Helvetica,sans-Serif" font-size="14.00" fill="#66cdaa">QueueEnd</text>
</g>
<!-- DodgePredictSensor -->
<g id="node14" class="node">
<title>DodgePredictSensor</title>
<polygon fill="none" stroke="black" points="24,-661.88 24,-683.62 162,-683.62 162,-661.88 24,-661.88"/>
<text text-anchor="start" x="27" y="-667.33" font-family="Helvetica,sans-Serif" font-size="14.00">DodgePredictSensor &#160;</text>
<polygon fill="none" stroke="black" points="24,-640.12 24,-661.88 162,-661.88 162,-640.12 24,-640.12"/>
<text text-anchor="start" x="27" y="-646.58" font-family="Helvetica,sans-Serif" font-size="12.00" fill="#838b8b">if: Dodge</text>
<text text-anchor="start" x="75" y="-646.58" font-family="Helvetica,sans-Serif" font-size="14.00"> &#160;</text>
</g>
<!-- DodgePredictSensor_linked -->
<g id="node15" class="node">
<title>DodgePredictSensor_linked</title>
<polygon fill="none" stroke="black" stroke-dasharray="1,5" points="349.48,-679.88 293.27,-679.88 293.27,-643.88 349.48,-643.88 349.48,-679.88"/>
<text text-anchor="start" x="298.88" y="-656.45" font-family="Helvetica,sans-Serif" font-size="14.00">Attack &#160;</text>
</g>
<!-- DodgePredictSensor&#45;&gt;DodgePredictSensor_linked -->
<g id="edge9" class="edge">
<title>DodgePredictSensor&#45;&gt;DodgePredictSensor_linked</title>
<path fill="none" stroke="#66cdaa" d="M169.69,-661.88C207.14,-661.88 250.76,-661.88 281.4,-661.88"/>
<polygon fill="#66cdaa" stroke="#66cdaa" points="281.36,-665.38 291.36,-661.88 281.36,-658.38 281.36,-665.38"/>
<text text-anchor="middle" x="220.62" y="-664.33" font-family="Helvetica,sans-Serif" font-size="14.00" fill="#66cdaa">QueueEnd</text>
</g>
<!-- AttackPredictSensor -->
<g id="node16" class="node">
<title>AttackPredictSensor</title>
<polygon fill="none" stroke="black" points="25.12,-731.88 25.12,-753.62 160.88,-753.62 160.88,-731.88 25.12,-731.88"/>
<text text-anchor="start" x="28.12" y="-737.33" font-family="Helvetica,sans-Serif" font-size="14.00">AttackPredictSensor &#160;</text>
<polygon fill="none" stroke="black" points="25.12,-710.12 25.12,-731.88 160.88,-731.88 160.88,-710.12 25.12,-710.12"/>
<text text-anchor="start" x="28.12" y="-716.58" font-family="Helvetica,sans-Serif" font-size="12.00" fill="#838b8b">if: Attack</text>
<text text-anchor="start" x="73.12" y="-716.58" font-family="Helvetica,sans-Serif" font-size="14.00"> &#160;</text>
</g>
<!-- AttackPredictSensor_linked -->
<g id="node17" class="node">
<title>AttackPredictSensor_linked</title>
<polygon fill="none" stroke="black" stroke-dasharray="1,5" points="349.48,-749.88 293.27,-749.88 293.27,-713.88 349.48,-713.88 349.48,-749.88"/>
<text text-anchor="start" x="298.88" y="-726.45" font-family="Helvetica,sans-Serif" font-size="14.00">Attack &#160;</text>
</g>
<!-- AttackPredictSensor&#45;&gt;AttackPredictSensor_linked -->
<g id="edge10" class="edge">
<title>AttackPredictSensor&#45;&gt;AttackPredictSensor_linked</title>
<path fill="none" stroke="#66cdaa" d="M168.75,-731.88C206.55,-731.88 250.84,-731.88 281.75,-731.88"/>
<polygon fill="#66cdaa" stroke="#66cdaa" points="281.39,-735.38 291.39,-731.88 281.39,-728.38 281.39,-735.38"/>
<text text-anchor="middle" x="220.62" y="-734.33" font-family="Helvetica,sans-Serif" font-size="14.00" fill="#66cdaa">QueueEnd</text>
</g>
<!-- AttackRunToSensor -->
<g id="node18" class="node">
<title>AttackRunToSensor</title>
<polygon fill="none" stroke="black" points="26.62,-801.88 26.62,-823.62 159.38,-823.62 159.38,-801.88 26.62,-801.88"/>
<text text-anchor="start" x="29.62" y="-807.33" font-family="Helvetica,sans-Serif" font-size="14.00">AttackRunToSensor &#160;</text>
<polygon fill="none" stroke="black" points="26.62,-780.12 26.62,-801.88 159.38,-801.88 159.38,-780.12 26.62,-780.12"/>
<text text-anchor="start" x="29.62" y="-786.58" font-family="Helvetica,sans-Serif" font-size="12.00" fill="#838b8b">if: state is Engaging</text>
<text text-anchor="start" x="133.88" y="-786.58" font-family="Helvetica,sans-Serif" font-size="14.00"> &#160;</text>
</g>
<!-- AttackRunToSensor_linked -->
<g id="node19" class="node">
<title>AttackRunToSensor_linked</title>
<polygon fill="none" stroke="black" stroke-dasharray="1,5" points="349.48,-819.88 293.27,-819.88 293.27,-783.88 349.48,-783.88 349.48,-819.88"/>
<text text-anchor="start" x="298.88" y="-796.45" font-family="Helvetica,sans-Serif" font-size="14.00">Attack &#160;</text>
</g>
<!-- AttackRunToSensor&#45;&gt;AttackRunToSensor_linked -->
<g id="edge11" class="edge">
<title>AttackRunToSensor&#45;&gt;AttackRunToSensor_linked</title>
<path fill="none" stroke="#66cdaa" d="M167.18,-801.88C205.21,-801.88 250.16,-801.88 281.49,-801.88"/>
<polygon fill="#66cdaa" stroke="#66cdaa" points="281.28,-805.38 291.28,-801.88 281.27,-798.38 281.28,-805.38"/>
<text text-anchor="middle" x="220.62" y="-804.33" font-family="Helvetica,sans-Serif" font-size="14.00" fill="#66cdaa">QueueEnd</text>
</g>
<!-- TouchSensor -->
<g id="node20" class="node">
<title>TouchSensor</title>
<polygon fill="none" stroke="black" points="140.38,-881.88 45.62,-881.88 45.62,-845.88 140.38,-845.88 140.38,-881.88"/>
<text text-anchor="middle" x="93" y="-858.45" font-family="Helvetica,sans-Serif" font-size="14.00">TouchSensor</text>
</g>
<!-- TouchSensor_linked -->
<g id="node21" class="node">
<title>TouchSensor_linked</title>
<polygon fill="none" stroke="black" stroke-dasharray="1,5" points="349.48,-881.88 293.27,-881.88 293.27,-845.88 349.48,-845.88 349.48,-881.88"/>
<text text-anchor="start" x="298.88" y="-858.45" font-family="Helvetica,sans-Serif" font-size="14.00">Attack &#160;</text>
</g>
<!-- TouchSensor&#45;&gt;TouchSensor_linked -->
<g id="edge12" class="edge">
<title>TouchSensor&#45;&gt;TouchSensor_linked</title>
<path fill="none" stroke="#66cdaa" d="M140.63,-863.88C182.27,-863.88 242.55,-863.88 281.6,-863.88"/>
<polygon fill="#66cdaa" stroke="#66cdaa" points="281.48,-867.38 291.48,-863.88 281.48,-860.38 281.48,-867.38"/>
<text text-anchor="middle" x="220.62" y="-866.33" font-family="Helvetica,sans-Serif" font-size="14.00" fill="#66cdaa">QueueEnd</text>
</g>
</g>
</svg>
