<?xml version="1.0" encoding="UTF-8" standalone="no"?>
<!DOCTYPE svg PUBLIC "-//W3C//DTD SVG 1.1//EN"
 "http://www.w3.org/Graphics/SVG/1.1/DTD/svg11.dtd">
<!-- Generated by graphviz version 12.2.1 (20241206.2353)
 -->
<!-- Title: Foo Pages: 1 -->
<svg width="401pt" height="976pt"
 viewBox="0.00 0.00 400.75 976.00" xmlns="http://www.w3.org/2000/svg" xmlns:xlink="http://www.w3.org/1999/xlink">
<g id="graph0" class="graph" transform="scale(1 1) rotate(0) translate(4 972)">
<title>Foo</title>
<polygon fill="white" stroke="none" points="-4,4 -4,-972 396.75,-972 396.75,4 -4,4"/>
<g id="clust1" class="cluster">
<title>cluster_attacksensors</title>
<polygon fill="none" stroke="black" points="8,-8 8,-624 384.75,-624 384.75,-8 8,-8"/>
<text text-anchor="middle" x="196.38" y="-606.7" font-family="Helvetica,sans-Serif" font-size="14.00">Attack Sensors</text>
</g>
<!-- Level Once Sensor -->
<g id="node1" class="node">
<title>Level Once Sensor</title>
<polygon fill="none" stroke="black" points="28.5,-50.12 28.5,-71.88 157.5,-71.88 157.5,-50.12 28.5,-50.12"/>
<text text-anchor="start" x="31.5" y="-55.58" font-family="Helvetica,sans-Serif" font-size="14.00">Level Once Sensor &#160;</text>
</g>
<!-- Level Once Sensor_linked -->
<g id="node2" class="node">
<title>Level Once Sensor_linked</title>
<polygon fill="none" stroke="black" stroke-dasharray="1,5" points="366.73,-52 281.27,-52 281.27,-16 366.73,-16 366.73,-52"/>
<text text-anchor="start" x="286.88" y="-28.57" font-family="Helvetica,sans-Serif" font-size="14.00">JumpAway &#160;</text>
</g>
<!-- Level Once Sensor&#45;&gt;Level Once Sensor_linked -->
<g id="edge1" class="edge">
<title>Level Once Sensor&#45;&gt;Level Once Sensor_linked</title>
<path fill="none" stroke="#66cdaa" d="M165.27,-49.32C172.93,-48.21 180.62,-47.16 188,-46.25 214.82,-42.93 244.73,-40.13 269.58,-38.04"/>
<polygon fill="#66cdaa" stroke="#66cdaa" points="269.78,-41.54 279.46,-37.23 269.2,-34.56 269.78,-41.54"/>
<text text-anchor="middle" x="220.62" y="-48.7" font-family="Helvetica,sans-Serif" font-size="14.00" fill="#66cdaa">QueueEnd</text>
</g>
<!-- Level Once Sensor_weight -->
<g id="node3" class="node">
<title>Level Once Sensor_weight</title>
<polygon fill="none" stroke="black" stroke-dasharray="1,5" points="361,-106 287,-106 287,-70 361,-70 361,-106"/>
<text text-anchor="start" x="297" y="-82.58" font-family="Helvetica,sans-Serif" font-size="14.00">1 Shoot &#160;</text>
</g>
<!-- Level Once Sensor&#45;&gt;Level Once Sensor_weight -->
<g id="edge2" class="edge">
<title>Level Once Sensor&#45;&gt;Level Once Sensor_weight</title>
<path fill="none" stroke="#458b74" d="M165.2,-69.39C201.1,-73.63 243.66,-78.65 275.53,-82.4"/>
<polygon fill="#458b74" stroke="#458b74" points="274.91,-85.85 285.25,-83.55 275.73,-78.9 274.91,-85.85"/>
<text text-anchor="middle" x="220.62" y="-81.72" font-family="Helvetica,sans-Serif" font-size="14.00" fill="#458b74">Weight</text>
</g>
<!-- RunAwaySensor -->
<g id="node4" class="node">
<title>RunAwaySensor</title>
<polygon fill="none" stroke="black" points="36,-156.12 36,-177.88 150,-177.88 150,-156.12 36,-156.12"/>
<text text-anchor="start" x="39" y="-161.57" font-family="Helvetica,sans-Serif" font-size="14.00">RunAwaySensor &#160;</text>
</g>
<!-- RunAwaySensor_linked -->
<g id="node5" class="node">
<title>RunAwaySensor_linked</title>
<polygon fill="none" stroke="black" stroke-dasharray="1,5" points="362.23,-160 285.77,-160 285.77,-124 362.23,-124 362.23,-160"/>
<text text-anchor="start" x="291.38" y="-136.57" font-family="Helvetica,sans-Serif" font-size="14.00">RunAway &#160;</text>
</g>
<!-- RunAwaySensor&#45;&gt;RunAwaySensor_linked -->
<g id="edge3" class="edge">
<title>RunAwaySensor&#45;&gt;RunAwaySensor_linked</title>
<path fill="none" stroke="#66cdaa" d="M157.84,-155.44C167.91,-153.87 178.22,-152.4 188,-151.25 216.43,-147.9 248.37,-145.65 274.05,-144.2"/>
<polygon fill="#66cdaa" stroke="#66cdaa" points="274.07,-147.71 283.86,-143.67 273.69,-140.72 274.07,-147.71"/>
<text text-anchor="middle" x="220.62" y="-153.7" font-family="Helvetica,sans-Serif" font-size="14.00" fill="#66cdaa">QueueEnd</text>
</g>
<!-- RunAwaySensor_weight -->
<g id="node6" class="node">
<title>RunAwaySensor_weight</title>
<polygon fill="none" stroke="black" stroke-dasharray="1,5" points="372.25,-214 275.75,-214 275.75,-178 372.25,-178 372.25,-214"/>
<text text-anchor="start" x="285.75" y="-190.57" font-family="Helvetica,sans-Serif" font-size="14.00">1 RunAway &#160;</text>
</g>
<!-- RunAwaySensor&#45;&gt;RunAwaySensor_weight -->
<g id="edge4" class="edge">
<title>RunAwaySensor&#45;&gt;RunAwaySensor_weight</title>
<path fill="none" stroke="#458b74" d="M157.79,-175.08C191.17,-179.31 231.77,-184.45 264.36,-188.57"/>
<polygon fill="#458b74" stroke="#458b74" points="263.67,-192.01 274.03,-189.8 264.55,-185.07 263.67,-192.01"/>
<text text-anchor="middle" x="220.62" y="-189.07" font-family="Helvetica,sans-Serif" font-size="14.00" fill="#458b74">Weight</text>
</g>
<!-- AttackSensor -->
<g id="node7" class="node">
<title>AttackSensor</title>
<polygon fill="none" stroke="black" points="46.12,-234.12 46.12,-255.88 139.88,-255.88 139.88,-234.12 46.12,-234.12"/>
<text text-anchor="start" x="49.12" y="-239.57" font-family="Helvetica,sans-Serif" font-size="14.00">AttackSensor &#160;</text>
</g>
<!-- AttackSensor_linked -->
<g id="node8" class="node">
<title>AttackSensor_linked</title>
<polygon fill="none" stroke="black" stroke-dasharray="1,5" points="366.73,-268 281.27,-268 281.27,-232 366.73,-232 366.73,-268"/>
<text text-anchor="start" x="286.88" y="-244.57" font-family="Helvetica,sans-Serif" font-size="14.00">JumpAway &#160;</text>
</g>
<!-- AttackSensor&#45;&gt;AttackSensor_linked -->
<g id="edge5" class="edge">
<title>AttackSensor&#45;&gt;AttackSensor_linked</title>
<path fill="none" stroke="#66cdaa" d="M147.69,-246.17C184.43,-246.97 232.94,-248.03 269.62,-248.83"/>
<polygon fill="#66cdaa" stroke="#66cdaa" points="269.49,-252.33 279.56,-249.05 269.64,-245.33 269.49,-252.33"/>
<text text-anchor="middle" x="220.62" y="-250.83" font-family="Helvetica,sans-Serif" font-size="14.00" fill="#66cdaa">QueueEnd</text>
</g>
<!-- DodgePredictSensor -->
<g id="node9" class="node">
<title>DodgePredictSensor</title>
<polygon fill="none" stroke="black" points="24,-307 24,-328.75 162,-328.75 162,-307 24,-307"/>
<text text-anchor="start" x="27" y="-312.45" font-family="Helvetica,sans-Serif" font-size="14.00">DodgePredictSensor &#160;</text>
<polygon fill="none" stroke="black" points="24,-285.25 24,-307 162,-307 162,-285.25 24,-285.25"/>
<text text-anchor="start" x="27" y="-291.7" font-family="Helvetica,sans-Serif" font-size="12.00" fill="#838b8b">if: rollingCondition</text>
<text text-anchor="start" x="123.75" y="-291.7" font-family="Helvetica,sans-Serif" font-size="14.00"> &#160;</text>
</g>
<!-- DodgePredictSensor_linked -->
<g id="node10" class="node">
<title>DodgePredictSensor_linked</title>
<polygon fill="none" stroke="black" stroke-dasharray="1,5" points="366.73,-322 281.27,-322 281.27,-286 366.73,-286 366.73,-322"/>
<text text-anchor="start" x="286.88" y="-298.57" font-family="Helvetica,sans-Serif" font-size="14.00">JumpAway &#160;</text>
</g>
<!-- DodgePredictSensor&#45;&gt;DodgePredictSensor_linked -->
<g id="edge6" class="edge">
<title>DodgePredictSensor&#45;&gt;DodgePredictSensor_linked</title>
<path fill="none" stroke="#66cdaa" d="M169.94,-306.01C202.58,-305.58 239.95,-305.09 269.6,-304.7"/>
<polygon fill="#66cdaa" stroke="#66cdaa" points="269.5,-308.2 279.46,-304.57 269.41,-301.2 269.5,-308.2"/>
<text text-anchor="middle" x="220.62" y="-308.13" font-family="Helvetica,sans-Serif" font-size="14.00" fill="#66cdaa">QueueEnd</text>
</g>
<!-- AttackPredictSensor -->
<g id="node11" class="node">
<title>AttackPredictSensor</title>
<polygon fill="none" stroke="black" points="25.12,-385 25.12,-406.75 160.88,-406.75 160.88,-385 25.12,-385"/>
<text text-anchor="start" x="28.12" y="-390.45" font-family="Helvetica,sans-Serif" font-size="14.00">AttackPredictSensor &#160;</text>
<polygon fill="none" stroke="black" points="25.12,-363.25 25.12,-385 160.88,-385 160.88,-363.25 25.12,-363.25"/>
<text text-anchor="start" x="28.12" y="-369.7" font-family="Helvetica,sans-Serif" font-size="12.00" fill="#838b8b">if: attackCondition</text>
<text text-anchor="start" x="123.38" y="-369.7" font-family="Helvetica,sans-Serif" font-size="14.00"> &#160;</text>
</g>
<!-- AttackPredictSensor_linked -->
<g id="node12" class="node">
<title>AttackPredictSensor_linked</title>
<polygon fill="none" stroke="black" stroke-dasharray="1,5" points="366.73,-376 281.27,-376 281.27,-340 366.73,-340 366.73,-376"/>
<text text-anchor="start" x="286.88" y="-352.57" font-family="Helvetica,sans-Serif" font-size="14.00">JumpAway &#160;</text>
</g>
<!-- AttackPredictSensor&#45;&gt;AttackPredictSensor_linked -->
<g id="edge7" class="edge">
<title>AttackPredictSensor&#45;&gt;AttackPredictSensor_linked</title>
<path fill="none" stroke="#66cdaa" d="M168.78,-370.05C175.27,-369.01 181.74,-368.05 188,-367.25 214.75,-363.82 244.67,-361.61 269.52,-360.21"/>
<polygon fill="#66cdaa" stroke="#66cdaa" points="269.6,-363.71 279.4,-359.68 269.23,-356.72 269.6,-363.71"/>
<text text-anchor="middle" x="220.62" y="-369.7" font-family="Helvetica,sans-Serif" font-size="14.00" fill="#66cdaa">QueueEnd</text>
</g>
<!-- AttackPredictSensor_weight -->
<g id="node13" class="node">
<title>AttackPredictSensor_weight</title>
<polygon fill="none" stroke="black" stroke-dasharray="1,5" points="376.75,-430 271.25,-430 271.25,-394 376.75,-394 376.75,-430"/>
<text text-anchor="start" x="281.25" y="-406.57" font-family="Helvetica,sans-Serif" font-size="14.00">1 JumpAway &#160;</text>
</g>
<!-- AttackPredictSensor&#45;&gt;AttackPredictSensor_weight -->
<g id="edge8" class="edge">
<title>AttackPredictSensor&#45;&gt;AttackPredictSensor_weight</title>
<path fill="none" stroke="#458b74" d="M168.67,-393.8C198.03,-397.27 231.39,-401.2 259.57,-404.52"/>
<polygon fill="#458b74" stroke="#458b74" points="259.05,-407.98 269.39,-405.68 259.87,-401.03 259.05,-407.98"/>
<text text-anchor="middle" x="220.62" y="-405.72" font-family="Helvetica,sans-Serif" font-size="14.00" fill="#458b74">Weight</text>
</g>
<!-- AttackRunToSensor -->
<g id="node14" class="node">
<title>AttackRunToSensor</title>
<polygon fill="none" stroke="black" points="26.62,-466 26.62,-487.75 159.38,-487.75 159.38,-466 26.62,-466"/>
<text text-anchor="start" x="29.62" y="-471.45" font-family="Helvetica,sans-Serif" font-size="14.00">AttackRunToSensor &#160;</text>
<polygon fill="none" stroke="black" points="26.62,-444.25 26.62,-466 159.38,-466 159.38,-444.25 26.62,-444.25"/>
<text text-anchor="start" x="29.62" y="-450.7" font-family="Helvetica,sans-Serif" font-size="12.00" fill="#838b8b">if: state is Engaging</text>
<text text-anchor="start" x="133.88" y="-450.7" font-family="Helvetica,sans-Serif" font-size="14.00"> &#160;</text>
</g>
<!-- AttackRunToSensor_linked -->
<g id="node15" class="node">
<title>AttackRunToSensor_linked</title>
<polygon fill="none" stroke="black" stroke-dasharray="1,5" points="366.73,-484 281.27,-484 281.27,-448 366.73,-448 366.73,-484"/>
<text text-anchor="start" x="286.88" y="-460.57" font-family="Helvetica,sans-Serif" font-size="14.00">JumpAway &#160;</text>
</g>
<!-- AttackRunToSensor&#45;&gt;AttackRunToSensor_linked -->
<g id="edge9" class="edge">
<title>AttackRunToSensor&#45;&gt;AttackRunToSensor_linked</title>
<path fill="none" stroke="#66cdaa" d="M167.09,-466C200.4,-466 239.11,-466 269.63,-466"/>
<polygon fill="#66cdaa" stroke="#66cdaa" points="269.39,-469.5 279.39,-466 269.39,-462.5 269.39,-469.5"/>
<text text-anchor="middle" x="220.62" y="-468.45" font-family="Helvetica,sans-Serif" font-size="14.00" fill="#66cdaa">QueueEnd</text>
</g>
<!-- ShootSensor -->
<g id="node16" class="node">
<title>ShootSensor</title>
<polygon fill="none" stroke="black" points="47.25,-532.12 47.25,-553.88 138.75,-553.88 138.75,-532.12 47.25,-532.12"/>
<text text-anchor="start" x="50.25" y="-537.58" font-family="Helvetica,sans-Serif" font-size="14.00">ShootSensor &#160;</text>
</g>
<!-- ShootSensor_linked -->
<g id="node17" class="node">
<title>ShootSensor_linked</title>
<polygon fill="none" stroke="black" stroke-dasharray="1,5" points="351,-538 297,-538 297,-502 351,-502 351,-538"/>
<text text-anchor="start" x="302.62" y="-514.58" font-family="Helvetica,sans-Serif" font-size="14.00">Shoot &#160;</text>
</g>
<!-- ShootSensor&#45;&gt;ShootSensor_linked -->
<g id="edge10" class="edge">
<title>ShootSensor&#45;&gt;ShootSensor_linked</title>
<path fill="none" stroke="#66cdaa" d="M146.68,-536.76C160.14,-535.22 174.6,-533.62 188,-532.25 220.83,-528.88 258.21,-525.53 285.3,-523.18"/>
<polygon fill="#66cdaa" stroke="#66cdaa" points="285.43,-526.69 295.09,-522.34 284.83,-519.71 285.43,-526.69"/>
<text text-anchor="middle" x="220.62" y="-534.7" font-family="Helvetica,sans-Serif" font-size="14.00" fill="#66cdaa">QueueEnd</text>
</g>
<!-- ShootSensor_weight -->
<g id="node18" class="node">
<title>ShootSensor_weight</title>
<polygon fill="none" stroke="black" stroke-dasharray="1,5" points="361,-592 287,-592 287,-556 361,-556 361,-592"/>
<text text-anchor="start" x="297" y="-568.58" font-family="Helvetica,sans-Serif" font-size="14.00">1 Shoot &#160;</text>
</g>
<!-- ShootSensor&#45;&gt;ShootSensor_weight -->
<g id="edge11" class="edge">
<title>ShootSensor&#45;&gt;ShootSensor_weight</title>
<path fill="none" stroke="#458b74" d="M146.54,-550.11C185.43,-555.38 237.97,-562.49 275.59,-567.58"/>
<polygon fill="#458b74" stroke="#458b74" points="274.87,-571.02 285.25,-568.89 275.81,-564.08 274.87,-571.02"/>
<text text-anchor="middle" x="220.62" y="-566.42" font-family="Helvetica,sans-Serif" font-size="14.00" fill="#458b74">Weight</text>
</g>
<!-- JumpAway -->
<g id="node19" class="node">
<title>JumpAway</title>
<polygon fill="none" stroke="black" points="52.88,-728 52.88,-749.75 133.12,-749.75 133.12,-728 52.88,-728"/>
<text text-anchor="start" x="55.88" y="-733.45" font-family="Helvetica,sans-Serif" font-size="14.00">JumpAway &#160;</text>
<polygon fill="none" stroke="black" points="52.88,-706.25 52.88,-728 133.12,-728 133.12,-706.25 52.88,-706.25"/>
<text text-anchor="start" x="55.88" y="-712.7" font-family="Helvetica,sans-Serif" font-size="12.00" fill="#838b8b">1.17s: Done</text>
<text text-anchor="start" x="120.38" y="-712.7" font-family="Helvetica,sans-Serif" font-size="14.00"> &#160;</text>
</g>
<!-- Engaging -->
<g id="node20" class="node">
<title>Engaging</title>
<polygon fill="none" stroke="black" points="360.5,-711 287.5,-711 287.5,-675 360.5,-675 360.5,-711"/>
<text text-anchor="middle" x="324" y="-687.58" font-family="Helvetica,sans-Serif" font-size="14.00">Engaging</text>
</g>
<!-- JumpAway&#45;&gt;Engaging -->
<g id="edge12" class="edge">
<title>JumpAway&#45;&gt;Engaging</title>
<path fill="none" stroke="#cdc8b1" d="M140.89,-720.83C180.32,-714.81 236.39,-706.24 275.88,-700.2"/>
<polygon fill="#cdc8b1" stroke="#cdc8b1" points="276.2,-703.69 285.56,-698.72 275.14,-696.77 276.2,-703.69"/>
</g>
<!-- Shoot -->
<g id="node21" class="node">
<title>Shoot</title>
<polygon fill="none" stroke="black" points="54,-658 54,-679.75 132,-679.75 132,-658 54,-658"/>
<text text-anchor="start" x="71.62" y="-663.45" font-family="Helvetica,sans-Serif" font-size="14.00">Shoot &#160;</text>
<polygon fill="none" stroke="black" points="54,-636.25 54,-658 132,-658 132,-636.25 54,-636.25"/>
<text text-anchor="start" x="57" y="-642.7" font-family="Helvetica,sans-Serif" font-size="12.00" fill="#838b8b">2.00s: Done</text>
<text text-anchor="start" x="121.5" y="-642.7" font-family="Helvetica,sans-Serif" font-size="14.00"> &#160;</text>
</g>
<!-- Shoot&#45;&gt;Engaging -->
<g id="edge13" class="edge">
<title>Shoot&#45;&gt;Engaging</title>
<path fill="none" stroke="#cdc8b1" d="M139.79,-665C179.23,-671.03 235.93,-679.69 275.78,-685.78"/>
<polygon fill="#cdc8b1" stroke="#cdc8b1" points="275.15,-689.23 285.56,-687.28 276.2,-682.31 275.15,-689.23"/>
</g>
<!-- HurtState -->
<g id="node22" class="node">
<title>HurtState</title>
<polygon fill="none" stroke="black" points="34.5,-888.12 34.5,-909.88 151.5,-909.88 151.5,-888.12 34.5,-888.12"/>
<text text-anchor="start" x="60.75" y="-893.58" font-family="Helvetica,sans-Serif" font-size="14.00">HurtState &#160;</text>
<polygon fill="none" stroke="black" points="34.5,-856.12 34.5,-888.12 151.5,-888.12 151.5,-856.12 34.5,-856.12"/>
<text text-anchor="start" x="37.5" y="-874.73" font-family="Helvetica,sans-Serif" font-size="12.00" fill="#838b8b">0.00s: EnableGravity</text>
<text text-anchor="start" x="37.5" y="-860.83" font-family="Helvetica,sans-Serif" font-size="12.00" fill="#838b8b">0.17s: Done</text>
<text text-anchor="start" x="102" y="-860.83" font-family="Helvetica,sans-Serif" font-size="14.00"> &#160;</text>
</g>
<!-- PreAttack -->
<g id="node23" class="node">
<title>PreAttack</title>
<polygon fill="none" stroke="black" points="361.25,-861 286.75,-861 286.75,-825 361.25,-825 361.25,-861"/>
<text text-anchor="middle" x="324" y="-837.58" font-family="Helvetica,sans-Serif" font-size="14.00">PreAttack</text>
</g>
<!-- HurtState&#45;&gt;PreAttack -->
<g id="edge14" class="edge">
<title>HurtState&#45;&gt;PreAttack</title>
<path fill="none" stroke="#cdc8b1" d="M159.32,-871.59C196.37,-865.12 241.92,-857.16 275.55,-851.29"/>
<polygon fill="#cdc8b1" stroke="#cdc8b1" points="275.73,-854.81 284.97,-849.64 274.52,-847.92 275.73,-854.81"/>
</g>
<!-- Hurt_BigState -->
<g id="node24" class="node">
<title>Hurt_BigState</title>
<polygon fill="none" stroke="black" points="34.5,-808.12 34.5,-829.88 151.5,-829.88 151.5,-808.12 34.5,-808.12"/>
<text text-anchor="start" x="47.25" y="-813.58" font-family="Helvetica,sans-Serif" font-size="14.00">Hurt_BigState &#160;</text>
<polygon fill="none" stroke="black" points="34.5,-776.12 34.5,-808.12 151.5,-808.12 151.5,-776.12 34.5,-776.12"/>
<text text-anchor="start" x="37.5" y="-794.73" font-family="Helvetica,sans-Serif" font-size="12.00" fill="#838b8b">0.00s: EnableGravity</text>
<text text-anchor="start" x="37.5" y="-780.83" font-family="Helvetica,sans-Serif" font-size="12.00" fill="#838b8b">1.00s: Done</text>
<text text-anchor="start" x="102" y="-780.83" font-family="Helvetica,sans-Serif" font-size="14.00"> &#160;</text>
</g>
<!-- Hurt_BigState&#45;&gt;PreAttack -->
<g id="edge15" class="edge">
<title>Hurt_BigState&#45;&gt;PreAttack</title>
<path fill="none" stroke="#cdc8b1" d="M159.32,-814.41C196.37,-820.88 241.92,-828.84 275.55,-834.71"/>
<polygon fill="#cdc8b1" stroke="#cdc8b1" points="274.52,-838.08 284.97,-836.36 275.73,-831.19 274.52,-838.08"/>
</g>
<!-- Wandering_Idle -->
<g id="node25" class="node">
<title>Wandering_Idle</title>
<polygon fill="none" stroke="black" points="163.62,-968 22.38,-968 22.38,-932 163.62,-932 163.62,-968"/>
<text text-anchor="middle" x="93" y="-944.58" font-family="Helvetica,sans-Serif" font-size="14.00">Wandering_Idle (Init)</text>
</g>
</g>
</svg>
