<?xml version="1.0" encoding="UTF-8" standalone="no"?>
<!DOCTYPE svg PUBLIC "-//W3C//DTD SVG 1.1//EN"
 "http://www.w3.org/Graphics/SVG/1.1/DTD/svg11.dtd">
<!-- Generated by graphviz version 12.2.1 (20241206.2353)
 -->
<!-- Title: Foo Pages: 1 -->
<svg width="429pt" height="616pt"
 viewBox="0.00 0.00 428.98 615.75" xmlns="http://www.w3.org/2000/svg" xmlns:xlink="http://www.w3.org/1999/xlink">
<g id="graph0" class="graph" transform="scale(1 1) rotate(0) translate(4 611.75)">
<title>Foo</title>
<polygon fill="white" stroke="none" points="-4,4 -4,-611.75 424.98,-611.75 424.98,4 -4,4"/>
<g id="clust1" class="cluster">
<title>cluster_attacksensors</title>
<polygon fill="none" stroke="black" points="8,-345.75 8,-599.75 412.98,-599.75 412.98,-345.75 8,-345.75"/>
<text text-anchor="middle" x="210.49" y="-582.45" font-family="Helvetica,sans-Serif" font-size="14.00">Attack Sensors</text>
</g>
<!-- SlashAttack -->
<g id="node1" class="node">
<title>SlashAttack</title>
<polygon fill="none" stroke="black" points="36.75,-255.88 36.75,-277.62 149.25,-277.62 149.25,-255.88 36.75,-255.88"/>
<text text-anchor="start" x="53.62" y="-261.32" font-family="Helvetica,sans-Serif" font-size="14.00">SlashAttack &#160;</text>
<polygon fill="none" stroke="black" points="36.75,-223.88 36.75,-255.88 149.25,-255.88 149.25,-223.88 36.75,-223.88"/>
<text text-anchor="start" x="39.75" y="-242.47" font-family="Helvetica,sans-Serif" font-size="12.00" fill="#838b8b">0.50s: CheckFacing</text>
<text text-anchor="start" x="39.75" y="-228.57" font-family="Helvetica,sans-Serif" font-size="12.00" fill="#838b8b">1.67s: Done</text>
<text text-anchor="start" x="104.25" y="-228.57" font-family="Helvetica,sans-Serif" font-size="14.00"> &#160;</text>
</g>
<!-- Engaging -->
<g id="node2" class="node">
<title>Engaging</title>
<polygon fill="none" stroke="black" points="379.62,-151.75 306.62,-151.75 306.62,-115.75 379.62,-115.75 379.62,-151.75"/>
<text text-anchor="middle" x="343.12" y="-128.32" font-family="Helvetica,sans-Serif" font-size="14.00">Engaging</text>
</g>
<!-- SlashAttack&#45;&gt;Engaging -->
<g id="edge1" class="edge">
<title>SlashAttack&#45;&gt;Engaging</title>
<path fill="none" stroke="#cdc8b1" d="M156.93,-221.07C200.2,-200.67 256.7,-174.03 295.85,-155.57"/>
<polygon fill="#cdc8b1" stroke="#cdc8b1" points="297.24,-158.78 304.8,-151.35 294.26,-152.45 297.24,-158.78"/>
</g>
<!-- SlashAttack_mustuse -->
<g id="node3" class="node">
<title>SlashAttack_mustuse</title>
<polygon fill="none" stroke="black" stroke-dasharray="1,5" points="415,-268.75 271.25,-268.75 271.25,-232.75 415,-232.75 415,-268.75"/>
<text text-anchor="start" x="281.25" y="-245.32" font-family="Helvetica,sans-Serif" font-size="14.00">1 FlyingDashAttack &#160;</text>
</g>
<!-- SlashAttack&#45;&gt;SlashAttack_mustuse -->
<g id="edge2" class="edge">
<title>SlashAttack&#45;&gt;SlashAttack_mustuse</title>
<path fill="none" stroke="#458b74" d="M156.93,-250.75C188.15,-250.75 226.25,-250.75 259.76,-250.75"/>
<polygon fill="#458b74" stroke="#458b74" points="259.41,-254.25 269.41,-250.75 259.41,-247.25 259.41,-254.25"/>
<text text-anchor="middle" x="220.62" y="-253.2" font-family="Helvetica,sans-Serif" font-size="14.00" fill="#458b74">Weight</text>
</g>
<!-- FlyingDashAttack -->
<g id="node4" class="node">
<title>FlyingDashAttack</title>
<polygon fill="none" stroke="black" points="33.75,-175.88 33.75,-197.62 152.25,-197.62 152.25,-175.88 33.75,-175.88"/>
<text text-anchor="start" x="36.75" y="-181.32" font-family="Helvetica,sans-Serif" font-size="14.00">FlyingDashAttack &#160;</text>
<polygon fill="none" stroke="black" points="33.75,-143.88 33.75,-175.88 152.25,-175.88 152.25,-143.88 33.75,-143.88"/>
<text text-anchor="start" x="36.75" y="-162.47" font-family="Helvetica,sans-Serif" font-size="12.00" fill="#838b8b">0.50s: CheckFacing</text>
<text text-anchor="start" x="36.75" y="-148.57" font-family="Helvetica,sans-Serif" font-size="12.00" fill="#838b8b">2.00s: Done</text>
<text text-anchor="start" x="101.25" y="-148.57" font-family="Helvetica,sans-Serif" font-size="14.00"> &#160;</text>
</g>
<!-- FlyingDashAttack&#45;&gt;Engaging -->
<g id="edge3" class="edge">
<title>FlyingDashAttack&#45;&gt;Engaging</title>
<path fill="none" stroke="#cdc8b1" d="M160.17,-160.88C202.71,-154.54 256.96,-146.45 295.12,-140.76"/>
<polygon fill="#cdc8b1" stroke="#cdc8b1" points="295.54,-144.24 304.91,-139.3 294.51,-137.31 295.54,-144.24"/>
</g>
<!-- Hurt1 -->
<g id="node5" class="node">
<title>Hurt1</title>
<polygon fill="none" stroke="black" points="54,-95.75 54,-117.5 132,-117.5 132,-95.75 54,-95.75"/>
<text text-anchor="start" x="72.75" y="-101.2" font-family="Helvetica,sans-Serif" font-size="14.00">Hurt1 &#160;</text>
<polygon fill="none" stroke="black" points="54,-74 54,-95.75 132,-95.75 132,-74 54,-74"/>
<text text-anchor="start" x="57" y="-80.45" font-family="Helvetica,sans-Serif" font-size="12.00" fill="#838b8b">0.25s: Done</text>
<text text-anchor="start" x="121.5" y="-80.45" font-family="Helvetica,sans-Serif" font-size="14.00"> &#160;</text>
</g>
<!-- Hurt1&#45;&gt;Engaging -->
<g id="edge4" class="edge">
<title>Hurt1&#45;&gt;Engaging</title>
<path fill="none" stroke="#cdc8b1" d="M139.8,-102.76C183.98,-109.53 250.55,-119.73 295.13,-126.55"/>
<polygon fill="#cdc8b1" stroke="#cdc8b1" points="294.33,-129.97 304.75,-128.03 295.39,-123.05 294.33,-129.97"/>
</g>
<!-- Hurt2 -->
<g id="node6" class="node">
<title>Hurt2</title>
<polygon fill="none" stroke="black" points="54,-25.75 54,-47.5 132,-47.5 132,-25.75 54,-25.75"/>
<text text-anchor="start" x="72.75" y="-31.2" font-family="Helvetica,sans-Serif" font-size="14.00">Hurt2 &#160;</text>
<polygon fill="none" stroke="black" points="54,-4 54,-25.75 132,-25.75 132,-4 54,-4"/>
<text text-anchor="start" x="57" y="-10.45" font-family="Helvetica,sans-Serif" font-size="12.00" fill="#838b8b">1.00s: Done</text>
<text text-anchor="start" x="121.5" y="-10.45" font-family="Helvetica,sans-Serif" font-size="14.00"> &#160;</text>
</g>
<!-- Hurt2&#45;&gt;Engaging -->
<g id="edge5" class="edge">
<title>Hurt2&#45;&gt;Engaging</title>
<path fill="none" stroke="#cdc8b1" d="M139.8,-45.68C184.17,-65 251.12,-94.14 295.7,-113.54"/>
<polygon fill="#cdc8b1" stroke="#cdc8b1" points="294.29,-116.75 304.86,-117.53 297.08,-110.33 294.29,-116.75"/>
</g>
<!-- Idle -->
<g id="node7" class="node">
<title>Idle</title>
<polygon fill="none" stroke="black" points="127.25,-335.75 58.75,-335.75 58.75,-299.75 127.25,-299.75 127.25,-335.75"/>
<text text-anchor="middle" x="93" y="-312.32" font-family="Helvetica,sans-Serif" font-size="14.00">Idle (Init)</text>
</g>
<!-- Level Once Sensor -->
<g id="node8" class="node">
<title>Level Once Sensor</title>
<polygon fill="none" stroke="black" points="158.75,-389.75 27.25,-389.75 27.25,-353.75 158.75,-353.75 158.75,-389.75"/>
<text text-anchor="middle" x="93" y="-366.32" font-family="Helvetica,sans-Serif" font-size="14.00">Level Once Sensor</text>
</g>
<!-- Level Once Sensor_linked -->
<g id="node9" class="node">
<title>Level Once Sensor_linked</title>
<polygon fill="none" stroke="black" stroke-dasharray="1,5" points="388.1,-389.75 298.15,-389.75 298.15,-353.75 388.1,-353.75 388.1,-389.75"/>
<text text-anchor="start" x="303.75" y="-366.32" font-family="Helvetica,sans-Serif" font-size="14.00">SlashAttack &#160;</text>
</g>
<!-- Level Once Sensor&#45;&gt;Level Once Sensor_linked -->
<g id="edge6" class="edge">
<title>Level Once Sensor&#45;&gt;Level Once Sensor_linked</title>
<path fill="none" stroke="#66cdaa" d="M159.19,-371.75C198.75,-371.75 248.7,-371.75 286.41,-371.75"/>
<polygon fill="#66cdaa" stroke="#66cdaa" points="286.18,-375.25 296.18,-371.75 286.18,-368.25 286.18,-375.25"/>
<text text-anchor="middle" x="220.62" y="-374.2" font-family="Helvetica,sans-Serif" font-size="14.00" fill="#66cdaa">QueueEnd</text>
</g>
<!-- Level Once Sensor_mustuse -->
<g id="node10" class="node">
<title>Level Once Sensor_mustuse</title>
<polygon fill="none" stroke="black" stroke-dasharray="1,5" points="393.25,-443.75 293,-443.75 293,-407.75 393.25,-407.75 393.25,-443.75"/>
<text text-anchor="start" x="303" y="-420.32" font-family="Helvetica,sans-Serif" font-size="14.00">1 Undefined &#160;</text>
</g>
<!-- Level Once Sensor&#45;&gt;Level Once Sensor_mustuse -->
<g id="edge7" class="edge">
<title>Level Once Sensor&#45;&gt;Level Once Sensor_mustuse</title>
<path fill="none" stroke="#458b74" d="M159.19,-385.94C197.06,-394.18 244.45,-404.49 281.51,-412.56"/>
<polygon fill="#458b74" stroke="#458b74" points="280.66,-415.95 291.17,-414.66 282.15,-409.12 280.66,-415.95"/>
<text text-anchor="middle" x="220.62" y="-407.62" font-family="Helvetica,sans-Serif" font-size="14.00" fill="#458b74">Weight</text>
</g>
<!-- RunAwaySensor -->
<g id="node11" class="node">
<title>RunAwaySensor</title>
<polygon fill="none" stroke="black" points="151.25,-443.75 34.75,-443.75 34.75,-407.75 151.25,-407.75 151.25,-443.75"/>
<text text-anchor="middle" x="93" y="-420.32" font-family="Helvetica,sans-Serif" font-size="14.00">RunAwaySensor</text>
</g>
<!-- AttackSensor -->
<g id="node12" class="node">
<title>AttackSensor</title>
<polygon fill="none" stroke="black" points="141.12,-497.75 44.88,-497.75 44.88,-461.75 141.12,-461.75 141.12,-497.75"/>
<text text-anchor="middle" x="93" y="-474.32" font-family="Helvetica,sans-Serif" font-size="14.00">AttackSensor</text>
</g>
<!-- AttackSensor_linked -->
<g id="node13" class="node">
<title>AttackSensor_linked</title>
<polygon fill="none" stroke="black" stroke-dasharray="1,5" points="404.98,-497.75 281.27,-497.75 281.27,-461.75 404.98,-461.75 404.98,-497.75"/>
<text text-anchor="start" x="286.88" y="-474.32" font-family="Helvetica,sans-Serif" font-size="14.00">FlyingDashAttack &#160;</text>
</g>
<!-- AttackSensor&#45;&gt;AttackSensor_linked -->
<g id="edge8" class="edge">
<title>AttackSensor&#45;&gt;AttackSensor_linked</title>
<path fill="none" stroke="#66cdaa" d="M141.55,-479.75C177.82,-479.75 228.41,-479.75 269.7,-479.75"/>
<polygon fill="#66cdaa" stroke="#66cdaa" points="269.57,-483.25 279.57,-479.75 269.57,-476.25 269.57,-483.25"/>
<text text-anchor="middle" x="220.62" y="-482.2" font-family="Helvetica,sans-Serif" font-size="14.00" fill="#66cdaa">QueueEnd</text>
</g>
<!-- DodgePredictSensor -->
<g id="node14" class="node">
<title>DodgePredictSensor</title>
<polygon fill="none" stroke="black" points="24,-541.75 24,-563.5 162,-563.5 162,-541.75 24,-541.75"/>
<text text-anchor="start" x="27" y="-547.2" font-family="Helvetica,sans-Serif" font-size="14.00">DodgePredictSensor &#160;</text>
<polygon fill="none" stroke="black" points="24,-520 24,-541.75 162,-541.75 162,-520 24,-520"/>
<text text-anchor="start" x="27" y="-526.45" font-family="Helvetica,sans-Serif" font-size="12.00" fill="#838b8b">if: Dodge</text>
<text text-anchor="start" x="75" y="-526.45" font-family="Helvetica,sans-Serif" font-size="14.00"> &#160;</text>
</g>
<!-- DodgePredictSensor_linked -->
<g id="node15" class="node">
<title>DodgePredictSensor_linked</title>
<polygon fill="none" stroke="black" stroke-dasharray="1,5" points="388.1,-559.75 298.15,-559.75 298.15,-523.75 388.1,-523.75 388.1,-559.75"/>
<text text-anchor="start" x="303.75" y="-536.33" font-family="Helvetica,sans-Serif" font-size="14.00">SlashAttack &#160;</text>
</g>
<!-- DodgePredictSensor&#45;&gt;DodgePredictSensor_linked -->
<g id="edge9" class="edge">
<title>DodgePredictSensor&#45;&gt;DodgePredictSensor_linked</title>
<path fill="none" stroke="#66cdaa" d="M169.79,-541.75C207.44,-541.75 252.11,-541.75 286.53,-541.75"/>
<polygon fill="#66cdaa" stroke="#66cdaa" points="286.28,-545.25 296.28,-541.75 286.28,-538.25 286.28,-545.25"/>
<text text-anchor="middle" x="220.62" y="-544.2" font-family="Helvetica,sans-Serif" font-size="14.00" fill="#66cdaa">QueueEnd</text>
</g>
</g>
</svg>
