<?xml version="1.0" encoding="UTF-8" standalone="no"?>
<!DOCTYPE svg PUBLIC "-//W3C//DTD SVG 1.1//EN"
 "http://www.w3.org/Graphics/SVG/1.1/DTD/svg11.dtd">
<!-- Generated by graphviz version 12.2.1 (20241206.2353)
 -->
<!-- Title: Foo Pages: 1 -->
<svg width="450pt" height="718pt"
 viewBox="0.00 0.00 450.25 717.88" xmlns="http://www.w3.org/2000/svg" xmlns:xlink="http://www.w3.org/1999/xlink">
<g id="graph0" class="graph" transform="scale(1 1) rotate(0) translate(4 713.88)">
<title>Foo</title>
<polygon fill="white" stroke="none" points="-4,4 -4,-713.88 446.25,-713.88 446.25,4 -4,4"/>
<g id="clust1" class="cluster">
<title>cluster_attacksensors</title>
<polygon fill="none" stroke="black" points="8,-8 8,-420 434.25,-420 434.25,-8 8,-8"/>
<text text-anchor="middle" x="221.12" y="-402.7" font-family="Helvetica,sans-Serif" font-size="14.00">Attack Sensors</text>
</g>
<!-- Level Once Sensor -->
<g id="node1" class="node">
<title>Level Once Sensor</title>
<polygon fill="none" stroke="black" points="28.5,-26.12 28.5,-47.88 157.5,-47.88 157.5,-26.12 28.5,-26.12"/>
<text text-anchor="start" x="31.5" y="-31.57" font-family="Helvetica,sans-Serif" font-size="14.00">Level Once Sensor &#160;</text>
</g>
<!-- Level Once Sensor_linked -->
<g id="node2" class="node">
<title>Level Once Sensor_linked</title>
<polygon fill="none" stroke="black" stroke-dasharray="1,5" points="410.6,-52 286.9,-52 286.9,-16 410.6,-16 410.6,-52"/>
<text text-anchor="start" x="292.5" y="-28.57" font-family="Helvetica,sans-Serif" font-size="14.00">Attack 1 Heal Ally &#160;</text>
</g>
<!-- Level Once Sensor&#45;&gt;Level Once Sensor_linked -->
<g id="edge1" class="edge">
<title>Level Once Sensor&#45;&gt;Level Once Sensor_linked</title>
<path fill="none" stroke="#66cdaa" d="M165.36,-36.16C199.73,-35.75 240.88,-35.26 275.38,-34.86"/>
<polygon fill="#66cdaa" stroke="#66cdaa" points="275.34,-38.36 285.3,-34.74 275.26,-31.36 275.34,-38.36"/>
<text text-anchor="middle" x="220.62" y="-38.31" font-family="Helvetica,sans-Serif" font-size="14.00" fill="#66cdaa">QueueEnd</text>
</g>
<!-- Level Once Sensor_weight -->
<g id="node3" class="node">
<title>Level Once Sensor_weight</title>
<polygon fill="none" stroke="black" stroke-dasharray="1,5" points="420.25,-106 277.25,-106 277.25,-70 420.25,-70 420.25,-106"/>
<text text-anchor="start" x="287.25" y="-82.58" font-family="Helvetica,sans-Serif" font-size="14.00">1 Attack 1 Heal Ally &#160;</text>
</g>
<!-- Level Once Sensor&#45;&gt;Level Once Sensor_weight -->
<g id="edge2" class="edge">
<title>Level Once Sensor&#45;&gt;Level Once Sensor_weight</title>
<path fill="none" stroke="#458b74" d="M165.34,-51.43C172.99,-52.98 180.65,-54.52 188,-56 213.25,-61.08 240.75,-66.6 265.7,-71.59"/>
<polygon fill="#458b74" stroke="#458b74" points="264.99,-75.02 275.48,-73.55 266.37,-68.16 264.99,-75.02"/>
<text text-anchor="middle" x="220.62" y="-70.79" font-family="Helvetica,sans-Serif" font-size="14.00" fill="#458b74">Weight</text>
</g>
<!-- RunAwaySensor -->
<g id="node4" class="node">
<title>RunAwaySensor</title>
<polygon fill="none" stroke="black" points="36,-82.12 36,-103.88 150,-103.88 150,-82.12 36,-82.12"/>
<text text-anchor="start" x="39" y="-87.58" font-family="Helvetica,sans-Serif" font-size="14.00">RunAwaySensor &#160;</text>
</g>
<!-- AttackSensor -->
<g id="node5" class="node">
<title>AttackSensor</title>
<polygon fill="none" stroke="black" points="46.12,-145.12 46.12,-166.88 139.88,-166.88 139.88,-145.12 46.12,-145.12"/>
<text text-anchor="start" x="49.12" y="-150.57" font-family="Helvetica,sans-Serif" font-size="14.00">AttackSensor &#160;</text>
</g>
<!-- AttackSensor_linked -->
<g id="node6" class="node">
<title>AttackSensor_linked</title>
<polygon fill="none" stroke="black" stroke-dasharray="1,5" points="410.6,-160 286.9,-160 286.9,-124 410.6,-124 410.6,-160"/>
<text text-anchor="start" x="292.5" y="-136.57" font-family="Helvetica,sans-Serif" font-size="14.00">Attack 1 Heal Ally &#160;</text>
</g>
<!-- AttackSensor&#45;&gt;AttackSensor_linked -->
<g id="edge3" class="edge">
<title>AttackSensor&#45;&gt;AttackSensor_linked</title>
<path fill="none" stroke="#66cdaa" d="M147.81,-153.03C184.84,-150.99 234.45,-148.25 274.99,-146.01"/>
<polygon fill="#66cdaa" stroke="#66cdaa" points="275.13,-149.51 284.92,-145.47 274.75,-142.52 275.13,-149.51"/>
<text text-anchor="middle" x="220.62" y="-153.12" font-family="Helvetica,sans-Serif" font-size="14.00" fill="#66cdaa">QueueEnd</text>
</g>
<!-- AttackSensor_weight -->
<g id="node7" class="node">
<title>AttackSensor_weight</title>
<polygon fill="none" stroke="black" stroke-dasharray="1,5" points="426.25,-225.75 271.25,-225.75 271.25,-178.25 426.25,-178.25 426.25,-225.75"/>
<text text-anchor="start" x="287.25" y="-206.45" font-family="Helvetica,sans-Serif" font-size="14.00">0 Attack 1 Heal Ally &#160;</text>
<text text-anchor="start" x="281.25" y="-186.7" font-family="Helvetica,sans-Serif" font-size="14.00">1 Attack 2 Add Shield &#160;</text>
</g>
<!-- AttackSensor&#45;&gt;AttackSensor_weight -->
<g id="edge4" class="edge">
<title>AttackSensor&#45;&gt;AttackSensor_weight</title>
<path fill="none" stroke="#458b74" d="M147.81,-165.76C180.39,-171.66 222.71,-179.33 260.02,-186.1"/>
<polygon fill="#458b74" stroke="#458b74" points="258.95,-189.46 269.42,-187.8 260.2,-182.57 258.95,-189.46"/>
<text text-anchor="middle" x="220.62" y="-186.92" font-family="Helvetica,sans-Serif" font-size="14.00" fill="#458b74">Weight</text>
</g>
<!-- DodgePredictSensor -->
<g id="node8" class="node">
<title>DodgePredictSensor</title>
<polygon fill="none" stroke="black" points="24,-222 24,-243.75 162,-243.75 162,-222 24,-222"/>
<text text-anchor="start" x="27" y="-227.45" font-family="Helvetica,sans-Serif" font-size="14.00">DodgePredictSensor &#160;</text>
<polygon fill="none" stroke="black" points="24,-200.25 24,-222 162,-222 162,-200.25 24,-200.25"/>
<text text-anchor="start" x="27" y="-206.7" font-family="Helvetica,sans-Serif" font-size="12.00" fill="#838b8b">if: rollingCondition</text>
<text text-anchor="start" x="123.75" y="-206.7" font-family="Helvetica,sans-Serif" font-size="14.00"> &#160;</text>
</g>
<!-- DodgePredictSensor_linked -->
<g id="node9" class="node">
<title>DodgePredictSensor_linked</title>
<polygon fill="none" stroke="black" stroke-dasharray="1,5" points="410.6,-280 286.9,-280 286.9,-244 410.6,-244 410.6,-280"/>
<text text-anchor="start" x="292.5" y="-256.57" font-family="Helvetica,sans-Serif" font-size="14.00">Attack 1 Heal Ally &#160;</text>
</g>
<!-- DodgePredictSensor&#45;&gt;DodgePredictSensor_linked -->
<g id="edge5" class="edge">
<title>DodgePredictSensor&#45;&gt;DodgePredictSensor_linked</title>
<path fill="none" stroke="#66cdaa" d="M169.79,-233.95C203.38,-239.24 242.7,-245.44 275.83,-250.66"/>
<polygon fill="#66cdaa" stroke="#66cdaa" points="274.89,-254.06 285.31,-252.16 275.98,-247.14 274.89,-254.06"/>
<text text-anchor="middle" x="220.62" y="-249.21" font-family="Helvetica,sans-Serif" font-size="14.00" fill="#66cdaa">QueueEnd</text>
</g>
<!-- AttackPredictSensor -->
<g id="node10" class="node">
<title>AttackPredictSensor</title>
<polygon fill="none" stroke="black" points="25.12,-292 25.12,-313.75 160.88,-313.75 160.88,-292 25.12,-292"/>
<text text-anchor="start" x="28.12" y="-297.45" font-family="Helvetica,sans-Serif" font-size="14.00">AttackPredictSensor &#160;</text>
<polygon fill="none" stroke="black" points="25.12,-270.25 25.12,-292 160.88,-292 160.88,-270.25 25.12,-270.25"/>
<text text-anchor="start" x="28.12" y="-276.7" font-family="Helvetica,sans-Serif" font-size="12.00" fill="#838b8b">if: attackCondition</text>
<text text-anchor="start" x="123.38" y="-276.7" font-family="Helvetica,sans-Serif" font-size="14.00"> &#160;</text>
</g>
<!-- AttackPredictSensor_linked -->
<g id="node11" class="node">
<title>AttackPredictSensor_linked</title>
<polygon fill="none" stroke="black" stroke-dasharray="1,5" points="410.6,-334 286.9,-334 286.9,-298 410.6,-298 410.6,-334"/>
<text text-anchor="start" x="292.5" y="-310.57" font-family="Helvetica,sans-Serif" font-size="14.00">Attack 1 Heal Ally &#160;</text>
</g>
<!-- AttackPredictSensor&#45;&gt;AttackPredictSensor_linked -->
<g id="edge6" class="edge">
<title>AttackPredictSensor&#45;&gt;AttackPredictSensor_linked</title>
<path fill="none" stroke="#66cdaa" d="M168.76,-299.07C202.52,-302.26 242.23,-306.02 275.66,-309.18"/>
<polygon fill="#66cdaa" stroke="#66cdaa" points="274.95,-312.63 285.23,-310.09 275.61,-305.66 274.95,-312.63"/>
<text text-anchor="middle" x="220.62" y="-309.31" font-family="Helvetica,sans-Serif" font-size="14.00" fill="#66cdaa">QueueEnd</text>
</g>
<!-- AttackRunToSensor -->
<g id="node12" class="node">
<title>AttackRunToSensor</title>
<polygon fill="none" stroke="black" points="26.62,-362 26.62,-383.75 159.38,-383.75 159.38,-362 26.62,-362"/>
<text text-anchor="start" x="29.62" y="-367.45" font-family="Helvetica,sans-Serif" font-size="14.00">AttackRunToSensor &#160;</text>
<polygon fill="none" stroke="black" points="26.62,-340.25 26.62,-362 159.38,-362 159.38,-340.25 26.62,-340.25"/>
<text text-anchor="start" x="29.62" y="-346.7" font-family="Helvetica,sans-Serif" font-size="12.00" fill="#838b8b">if: state is Engaging</text>
<text text-anchor="start" x="133.88" y="-346.7" font-family="Helvetica,sans-Serif" font-size="14.00"> &#160;</text>
</g>
<!-- AttackRunToSensor_linked -->
<g id="node13" class="node">
<title>AttackRunToSensor_linked</title>
<polygon fill="none" stroke="black" stroke-dasharray="1,5" points="410.6,-388 286.9,-388 286.9,-352 410.6,-352 410.6,-388"/>
<text text-anchor="start" x="292.5" y="-364.57" font-family="Helvetica,sans-Serif" font-size="14.00">Attack 1 Heal Ally &#160;</text>
</g>
<!-- AttackRunToSensor&#45;&gt;AttackRunToSensor_linked -->
<g id="edge7" class="edge">
<title>AttackRunToSensor&#45;&gt;AttackRunToSensor_linked</title>
<path fill="none" stroke="#66cdaa" d="M167.05,-364.3C201.12,-365.38 241.55,-366.65 275.52,-367.72"/>
<polygon fill="#66cdaa" stroke="#66cdaa" points="275.15,-371.21 285.26,-368.03 275.37,-364.22 275.15,-371.21"/>
<text text-anchor="middle" x="220.62" y="-369.4" font-family="Helvetica,sans-Serif" font-size="14.00" fill="#66cdaa">QueueEnd</text>
</g>
<!-- Attack 1 Heal Ally -->
<g id="node14" class="node">
<title>Attack 1 Heal Ally</title>
<polygon fill="none" stroke="black" points="33.75,-454 33.75,-475.75 152.25,-475.75 152.25,-454 33.75,-454"/>
<text text-anchor="start" x="36.75" y="-459.45" font-family="Helvetica,sans-Serif" font-size="14.00">Attack 1 Heal Ally &#160;</text>
<polygon fill="none" stroke="black" points="33.75,-432.25 33.75,-454 152.25,-454 152.25,-432.25 33.75,-432.25"/>
<text text-anchor="start" x="36.75" y="-438.7" font-family="Helvetica,sans-Serif" font-size="12.00" fill="#838b8b">1.50s: Done</text>
<text text-anchor="start" x="101.25" y="-438.7" font-family="Helvetica,sans-Serif" font-size="14.00"> &#160;</text>
</g>
<!-- Attack 2 Add Shield -->
<g id="node15" class="node">
<title>Attack 2 Add Shield</title>
<polygon fill="none" stroke="black" points="27.75,-524 27.75,-545.75 158.25,-545.75 158.25,-524 27.75,-524"/>
<text text-anchor="start" x="30.75" y="-529.45" font-family="Helvetica,sans-Serif" font-size="14.00">Attack 2 Add Shield &#160;</text>
<polygon fill="none" stroke="black" points="27.75,-502.25 27.75,-524 158.25,-524 158.25,-502.25 27.75,-502.25"/>
<text text-anchor="start" x="30.75" y="-508.7" font-family="Helvetica,sans-Serif" font-size="12.00" fill="#838b8b">1.67s: Done</text>
<text text-anchor="start" x="95.25" y="-508.7" font-family="Helvetica,sans-Serif" font-size="14.00"> &#160;</text>
</g>
<!-- HurtState -->
<g id="node16" class="node">
<title>HurtState</title>
<polygon fill="none" stroke="black" points="34.5,-684.12 34.5,-705.88 151.5,-705.88 151.5,-684.12 34.5,-684.12"/>
<text text-anchor="start" x="60.75" y="-689.58" font-family="Helvetica,sans-Serif" font-size="14.00">HurtState &#160;</text>
<polygon fill="none" stroke="black" points="34.5,-652.12 34.5,-684.12 151.5,-684.12 151.5,-652.12 34.5,-652.12"/>
<text text-anchor="start" x="37.5" y="-670.73" font-family="Helvetica,sans-Serif" font-size="12.00" fill="#838b8b">0.00s: EnableGravity</text>
<text text-anchor="start" x="37.5" y="-656.83" font-family="Helvetica,sans-Serif" font-size="12.00" fill="#838b8b">0.17s: Done</text>
<text text-anchor="start" x="102" y="-656.83" font-family="Helvetica,sans-Serif" font-size="14.00"> &#160;</text>
</g>
<!-- Wandering_Idle -->
<g id="node17" class="node">
<title>Wandering_Idle</title>
<polygon fill="none" stroke="black" points="419.38,-657 278.12,-657 278.12,-621 419.38,-621 419.38,-657"/>
<text text-anchor="middle" x="348.75" y="-633.58" font-family="Helvetica,sans-Serif" font-size="14.00">Wandering_Idle (Init)</text>
</g>
<!-- HurtState&#45;&gt;Wandering_Idle -->
<g id="edge8" class="edge">
<title>HurtState&#45;&gt;Wandering_Idle</title>
<path fill="none" stroke="#cdc8b1" d="M159.35,-668.7C192.08,-663.54 232.01,-657.24 266.68,-651.78"/>
<polygon fill="#cdc8b1" stroke="#cdc8b1" points="266.9,-655.29 276.24,-650.27 265.81,-648.37 266.9,-655.29"/>
</g>
<!-- Hurt_BigState -->
<g id="node18" class="node">
<title>Hurt_BigState</title>
<polygon fill="none" stroke="black" points="34.5,-604.12 34.5,-625.88 151.5,-625.88 151.5,-604.12 34.5,-604.12"/>
<text text-anchor="start" x="47.25" y="-609.58" font-family="Helvetica,sans-Serif" font-size="14.00">Hurt_BigState &#160;</text>
<polygon fill="none" stroke="black" points="34.5,-572.12 34.5,-604.12 151.5,-604.12 151.5,-572.12 34.5,-572.12"/>
<text text-anchor="start" x="37.5" y="-590.73" font-family="Helvetica,sans-Serif" font-size="12.00" fill="#838b8b">0.00s: EnableGravity</text>
<text text-anchor="start" x="37.5" y="-576.83" font-family="Helvetica,sans-Serif" font-size="12.00" fill="#838b8b">1.00s: Done</text>
<text text-anchor="start" x="102" y="-576.83" font-family="Helvetica,sans-Serif" font-size="14.00"> &#160;</text>
</g>
<!-- Hurt_BigState&#45;&gt;Wandering_Idle -->
<g id="edge9" class="edge">
<title>Hurt_BigState&#45;&gt;Wandering_Idle</title>
<path fill="none" stroke="#cdc8b1" d="M159.35,-609.3C192.08,-614.46 232.01,-620.76 266.68,-626.22"/>
<polygon fill="#cdc8b1" stroke="#cdc8b1" points="265.81,-629.63 276.24,-627.73 266.9,-622.71 265.81,-629.63"/>
</g>
</g>
</svg>
