<?xml version="1.0" encoding="UTF-8" standalone="no"?>
<!DOCTYPE svg PUBLIC "-//W3C//DTD SVG 1.1//EN"
 "http://www.w3.org/Graphics/SVG/1.1/DTD/svg11.dtd">
<!-- Generated by graphviz version 12.2.1 (20241206.2353)
 -->
<!-- Title: Foo Pages: 1 -->
<svg width="432pt" height="1165pt"
 viewBox="0.00 0.00 432.25 1165.00" xmlns="http://www.w3.org/2000/svg" xmlns:xlink="http://www.w3.org/1999/xlink">
<g id="graph0" class="graph" transform="scale(1 1) rotate(0) translate(4 1161)">
<title>Foo</title>
<polygon fill="white" stroke="none" points="-4,4 -4,-1161 428.25,-1161 428.25,4 -4,4"/>
<g id="clust1" class="cluster">
<title>cluster_attacksensors</title>
<polygon fill="none" stroke="black" points="8,-8 8,-582 416.25,-582 416.25,-8 8,-8"/>
<text text-anchor="middle" x="212.12" y="-564.7" font-family="Helvetica,sans-Serif" font-size="14.00">Attack Sensors</text>
</g>
<!-- Level Once Sensor -->
<g id="node1" class="node">
<title>Level Once Sensor</title>
<polygon fill="none" stroke="black" points="28.5,-32.12 28.5,-53.88 157.5,-53.88 157.5,-32.12 28.5,-32.12"/>
<text text-anchor="start" x="31.5" y="-37.58" font-family="Helvetica,sans-Serif" font-size="14.00">Level Once Sensor &#160;</text>
</g>
<!-- Level Once Sensor_linked -->
<g id="node2" class="node">
<title>Level Once Sensor_linked</title>
<polygon fill="none" stroke="black" stroke-dasharray="1,5" points="398.6,-52 280.9,-52 280.9,-16 398.6,-16 398.6,-52"/>
<text text-anchor="start" x="286.5" y="-28.57" font-family="Helvetica,sans-Serif" font-size="14.00">Attack1_prepare &#160;</text>
</g>
<!-- Level Once Sensor&#45;&gt;Level Once Sensor_linked -->
<g id="edge1" class="edge">
<title>Level Once Sensor&#45;&gt;Level Once Sensor_linked</title>
<path fill="none" stroke="#66cdaa" d="M165.45,-40.37C198.27,-39.17 237.03,-37.74 269.56,-36.54"/>
<polygon fill="#66cdaa" stroke="#66cdaa" points="269.41,-40.05 279.28,-36.19 269.16,-33.06 269.41,-40.05"/>
<text text-anchor="middle" x="220.62" y="-41.76" font-family="Helvetica,sans-Serif" font-size="14.00" fill="#66cdaa">QueueEnd</text>
</g>
<!-- Level Once Sensor_weight -->
<g id="node3" class="node">
<title>Level Once Sensor_weight</title>
<polygon fill="none" stroke="black" stroke-dasharray="1,5" points="408.25,-106 271.25,-106 271.25,-70 408.25,-70 408.25,-106"/>
<text text-anchor="start" x="281.25" y="-82.58" font-family="Helvetica,sans-Serif" font-size="14.00">1 Attack1_prepare &#160;</text>
</g>
<!-- Level Once Sensor&#45;&gt;Level Once Sensor_weight -->
<g id="edge2" class="edge">
<title>Level Once Sensor&#45;&gt;Level Once Sensor_weight</title>
<path fill="none" stroke="#458b74" d="M165.45,-56.14C195.11,-61.59 229.62,-67.94 260,-73.52"/>
<polygon fill="#458b74" stroke="#458b74" points="259.04,-76.9 269.51,-75.27 260.3,-70.02 259.04,-76.9"/>
<text text-anchor="middle" x="220.62" y="-74.61" font-family="Helvetica,sans-Serif" font-size="14.00" fill="#458b74">Weight</text>
</g>
<!-- RunAwaySensor -->
<g id="node4" class="node">
<title>RunAwaySensor</title>
<polygon fill="none" stroke="black" points="36,-89.12 36,-110.88 150,-110.88 150,-89.12 36,-89.12"/>
<text text-anchor="start" x="39" y="-94.58" font-family="Helvetica,sans-Serif" font-size="14.00">RunAwaySensor &#160;</text>
</g>
<!-- AttackSensor -->
<g id="node5" class="node">
<title>AttackSensor</title>
<polygon fill="none" stroke="black" points="46.12,-166.12 46.12,-187.88 139.88,-187.88 139.88,-166.12 46.12,-166.12"/>
<text text-anchor="start" x="49.12" y="-171.57" font-family="Helvetica,sans-Serif" font-size="14.00">AttackSensor &#160;</text>
</g>
<!-- AttackSensor_linked -->
<g id="node6" class="node">
<title>AttackSensor_linked</title>
<polygon fill="none" stroke="black" stroke-dasharray="1,5" points="374.98,-160 304.52,-160 304.52,-124 374.98,-124 374.98,-160"/>
<text text-anchor="start" x="310.12" y="-136.57" font-family="Helvetica,sans-Serif" font-size="14.00">三連擊 &#160;</text>
</g>
<!-- AttackSensor&#45;&gt;AttackSensor_linked -->
<g id="edge3" class="edge">
<title>AttackSensor&#45;&gt;AttackSensor_linked</title>
<path fill="none" stroke="#66cdaa" d="M147.71,-169.32C191.09,-163.12 251.5,-154.48 292.69,-148.59"/>
<polygon fill="#66cdaa" stroke="#66cdaa" points="293.13,-152.06 302.54,-147.18 292.14,-145.13 293.13,-152.06"/>
<text text-anchor="middle" x="220.62" y="-165.08" font-family="Helvetica,sans-Serif" font-size="14.00" fill="#66cdaa">QueueEnd</text>
</g>
<!-- AttackSensor_weight -->
<g id="node7" class="node">
<title>AttackSensor_weight</title>
<polygon fill="none" stroke="black" stroke-dasharray="1,5" points="408.25,-214 271.25,-214 271.25,-178 408.25,-178 408.25,-214"/>
<text text-anchor="start" x="281.25" y="-190.57" font-family="Helvetica,sans-Serif" font-size="14.00">1 Attack1_prepare &#160;</text>
</g>
<!-- AttackSensor&#45;&gt;AttackSensor_weight -->
<g id="edge4" class="edge">
<title>AttackSensor&#45;&gt;AttackSensor_weight</title>
<path fill="none" stroke="#458b74" d="M147.71,-181.17C180.61,-183.72 223.3,-187.04 259.98,-189.89"/>
<polygon fill="#458b74" stroke="#458b74" points="259.4,-193.35 269.65,-190.64 259.95,-186.37 259.4,-193.35"/>
<text text-anchor="middle" x="220.62" y="-191.76" font-family="Helvetica,sans-Serif" font-size="14.00" fill="#458b74">Weight</text>
</g>
<!-- DodgePredictSensor -->
<g id="node8" class="node">
<title>DodgePredictSensor</title>
<polygon fill="none" stroke="black" points="24,-250 24,-271.75 162,-271.75 162,-250 24,-250"/>
<text text-anchor="start" x="27" y="-255.45" font-family="Helvetica,sans-Serif" font-size="14.00">DodgePredictSensor &#160;</text>
<polygon fill="none" stroke="black" points="24,-228.25 24,-250 162,-250 162,-228.25 24,-228.25"/>
<text text-anchor="start" x="27" y="-234.7" font-family="Helvetica,sans-Serif" font-size="12.00" fill="#838b8b">if: rollingCondition</text>
<text text-anchor="start" x="123.75" y="-234.7" font-family="Helvetica,sans-Serif" font-size="14.00"> &#160;</text>
</g>
<!-- DodgePredictSensor_linked -->
<g id="node9" class="node">
<title>DodgePredictSensor_linked</title>
<polygon fill="none" stroke="black" stroke-dasharray="1,5" points="398.6,-268 280.9,-268 280.9,-232 398.6,-232 398.6,-268"/>
<text text-anchor="start" x="286.5" y="-244.57" font-family="Helvetica,sans-Serif" font-size="14.00">Attack1_prepare &#160;</text>
</g>
<!-- DodgePredictSensor&#45;&gt;DodgePredictSensor_linked -->
<g id="edge5" class="edge">
<title>DodgePredictSensor&#45;&gt;DodgePredictSensor_linked</title>
<path fill="none" stroke="#66cdaa" d="M169.76,-250C201.52,-250 238.21,-250 269.26,-250"/>
<polygon fill="#66cdaa" stroke="#66cdaa" points="268.92,-253.5 278.92,-250 268.92,-246.5 268.92,-253.5"/>
<text text-anchor="middle" x="220.62" y="-252.45" font-family="Helvetica,sans-Serif" font-size="14.00" fill="#66cdaa">QueueEnd</text>
</g>
<!-- AttackPredictSensor -->
<g id="node10" class="node">
<title>AttackPredictSensor</title>
<polygon fill="none" stroke="black" points="25.12,-337 25.12,-358.75 160.88,-358.75 160.88,-337 25.12,-337"/>
<text text-anchor="start" x="28.12" y="-342.45" font-family="Helvetica,sans-Serif" font-size="14.00">AttackPredictSensor &#160;</text>
<polygon fill="none" stroke="black" points="25.12,-315.25 25.12,-337 160.88,-337 160.88,-315.25 25.12,-315.25"/>
<text text-anchor="start" x="28.12" y="-321.7" font-family="Helvetica,sans-Serif" font-size="12.00" fill="#838b8b">if: attackCondition</text>
<text text-anchor="start" x="123.38" y="-321.7" font-family="Helvetica,sans-Serif" font-size="14.00"> &#160;</text>
</g>
<!-- AttackPredictSensor_linked -->
<g id="node11" class="node">
<title>AttackPredictSensor_linked</title>
<polygon fill="none" stroke="black" stroke-dasharray="1,5" points="398.6,-322 280.9,-322 280.9,-286 398.6,-286 398.6,-322"/>
<text text-anchor="start" x="286.5" y="-298.57" font-family="Helvetica,sans-Serif" font-size="14.00">Attack1_prepare &#160;</text>
</g>
<!-- AttackPredictSensor&#45;&gt;AttackPredictSensor_linked -->
<g id="edge6" class="edge">
<title>AttackPredictSensor&#45;&gt;AttackPredictSensor_linked</title>
<path fill="none" stroke="#66cdaa" d="M168.76,-326.92C200.81,-322.6 238.03,-317.58 269.45,-313.34"/>
<polygon fill="#66cdaa" stroke="#66cdaa" points="269.81,-316.83 279.25,-312.02 268.87,-309.89 269.81,-316.83"/>
<text text-anchor="middle" x="220.62" y="-325.91" font-family="Helvetica,sans-Serif" font-size="14.00" fill="#66cdaa">QueueEnd</text>
</g>
<!-- AttackPredictSensor_weight -->
<g id="node14" class="node">
<title>AttackPredictSensor_weight</title>
<polygon fill="none" stroke="black" stroke-dasharray="1,5" points="391,-387.75 288.5,-387.75 288.5,-340.25 391,-340.25 391,-387.75"/>
<text text-anchor="start" x="298.5" y="-368.45" font-family="Helvetica,sans-Serif" font-size="14.00">1 JumpBack &#160;</text>
<text text-anchor="start" x="308.25" y="-348.7" font-family="Helvetica,sans-Serif" font-size="14.00">1 Attack4 &#160;</text>
</g>
<!-- AttackPredictSensor&#45;&gt;AttackPredictSensor_weight -->
<g id="edge8" class="edge">
<title>AttackPredictSensor&#45;&gt;AttackPredictSensor_weight</title>
<path fill="none" stroke="#458b74" d="M168.76,-345.25C203.34,-349.06 243.94,-353.54 276.78,-357.16"/>
<polygon fill="#458b74" stroke="#458b74" points="276.22,-360.62 286.55,-358.24 276.99,-353.67 276.22,-360.62"/>
<text text-anchor="middle" x="220.62" y="-356.95" font-family="Helvetica,sans-Serif" font-size="14.00" fill="#458b74">Weight</text>
</g>
<!-- AttackRunToSensor -->
<g id="node12" class="node">
<title>AttackRunToSensor</title>
<polygon fill="none" stroke="black" points="26.62,-424 26.62,-445.75 159.38,-445.75 159.38,-424 26.62,-424"/>
<text text-anchor="start" x="29.62" y="-429.45" font-family="Helvetica,sans-Serif" font-size="14.00">AttackRunToSensor &#160;</text>
<polygon fill="none" stroke="black" points="26.62,-402.25 26.62,-424 159.38,-424 159.38,-402.25 26.62,-402.25"/>
<text text-anchor="start" x="29.62" y="-408.7" font-family="Helvetica,sans-Serif" font-size="12.00" fill="#838b8b">if: state is Engaging</text>
<text text-anchor="start" x="133.88" y="-408.7" font-family="Helvetica,sans-Serif" font-size="14.00"> &#160;</text>
</g>
<!-- AttackRunToSensor_linked -->
<g id="node13" class="node">
<title>AttackRunToSensor_linked</title>
<polygon fill="none" stroke="black" stroke-dasharray="1,5" points="398.6,-442 280.9,-442 280.9,-406 398.6,-406 398.6,-442"/>
<text text-anchor="start" x="286.5" y="-418.57" font-family="Helvetica,sans-Serif" font-size="14.00">Attack1_prepare &#160;</text>
</g>
<!-- AttackRunToSensor&#45;&gt;AttackRunToSensor_linked -->
<g id="edge7" class="edge">
<title>AttackRunToSensor&#45;&gt;AttackRunToSensor_linked</title>
<path fill="none" stroke="#66cdaa" d="M167.1,-424C199.47,-424 237.36,-424 269.29,-424"/>
<polygon fill="#66cdaa" stroke="#66cdaa" points="269.25,-427.5 279.25,-424 269.25,-420.5 269.25,-427.5"/>
<text text-anchor="middle" x="220.62" y="-426.45" font-family="Helvetica,sans-Serif" font-size="14.00" fill="#66cdaa">QueueEnd</text>
</g>
<!-- FooPredictSensor -->
<g id="node15" class="node">
<title>FooPredictSensor</title>
<polygon fill="none" stroke="black" points="32.25,-508 32.25,-529.75 153.75,-529.75 153.75,-508 32.25,-508"/>
<text text-anchor="start" x="35.25" y="-513.45" font-family="Helvetica,sans-Serif" font-size="14.00">FooPredictSensor &#160;</text>
<polygon fill="none" stroke="black" points="32.25,-486.25 32.25,-508 153.75,-508 153.75,-486.25 32.25,-486.25"/>
<text text-anchor="start" x="35.25" y="-492.7" font-family="Helvetica,sans-Serif" font-size="12.00" fill="#838b8b">if: attackCondition</text>
<text text-anchor="start" x="130.5" y="-492.7" font-family="Helvetica,sans-Serif" font-size="14.00"> &#160;</text>
</g>
<!-- FooPredictSensor_linked -->
<g id="node16" class="node">
<title>FooPredictSensor_linked</title>
<polygon fill="none" stroke="black" stroke-dasharray="1,5" points="398.6,-496 280.9,-496 280.9,-460 398.6,-460 398.6,-496"/>
<text text-anchor="start" x="286.5" y="-472.57" font-family="Helvetica,sans-Serif" font-size="14.00">Attack1_prepare &#160;</text>
</g>
<!-- FooPredictSensor&#45;&gt;FooPredictSensor_linked -->
<g id="edge9" class="edge">
<title>FooPredictSensor&#45;&gt;FooPredictSensor_linked</title>
<path fill="none" stroke="#66cdaa" d="M161.53,-499.72C195.09,-495.61 235.59,-490.65 269.39,-486.5"/>
<polygon fill="#66cdaa" stroke="#66cdaa" points="269.58,-490 279.08,-485.31 268.73,-483.06 269.58,-490"/>
<text text-anchor="middle" x="220.62" y="-498.14" font-family="Helvetica,sans-Serif" font-size="14.00" fill="#66cdaa">QueueEnd</text>
</g>
<!-- FooPredictSensor_weight -->
<g id="node17" class="node">
<title>FooPredictSensor_weight</title>
<polygon fill="none" stroke="black" stroke-dasharray="1,5" points="381.25,-550 298.25,-550 298.25,-514 381.25,-514 381.25,-550"/>
<text text-anchor="start" x="308.25" y="-526.58" font-family="Helvetica,sans-Serif" font-size="14.00">1 Attack4 &#160;</text>
</g>
<!-- FooPredictSensor&#45;&gt;FooPredictSensor_weight -->
<g id="edge10" class="edge">
<title>FooPredictSensor&#45;&gt;FooPredictSensor_weight</title>
<path fill="none" stroke="#458b74" d="M161.53,-514.62C200.98,-518.49 250.02,-523.3 286.51,-526.88"/>
<polygon fill="#458b74" stroke="#458b74" points="286.08,-530.35 296.38,-527.84 286.77,-523.39 286.08,-530.35"/>
<text text-anchor="middle" x="220.62" y="-526" font-family="Helvetica,sans-Serif" font-size="14.00" fill="#458b74">Weight</text>
</g>
<!-- Attack1_prepare -->
<g id="node18" class="node">
<title>Attack1_prepare</title>
<polygon fill="none" stroke="black" points="34.12,-667.12 34.12,-688.88 151.88,-688.88 151.88,-667.12 34.12,-667.12"/>
<text text-anchor="start" x="39.75" y="-672.58" font-family="Helvetica,sans-Serif" font-size="14.00">Attack1_prepare &#160;</text>
<polygon fill="none" stroke="black" points="34.12,-635.12 34.12,-667.12 151.88,-667.12 151.88,-635.12 34.12,-635.12"/>
<text text-anchor="start" x="37.12" y="-653.73" font-family="Helvetica,sans-Serif" font-size="12.00" fill="#838b8b">0.67s: LinkNextMove</text>
<text text-anchor="start" x="37.12" y="-639.83" font-family="Helvetica,sans-Serif" font-size="12.00" fill="#838b8b">1.50s: Done</text>
<text text-anchor="start" x="101.62" y="-639.83" font-family="Helvetica,sans-Serif" font-size="14.00"> &#160;</text>
</g>
<!-- Engaging -->
<g id="node19" class="node">
<title>Engaging</title>
<polygon fill="none" stroke="black" points="376.25,-797 303.25,-797 303.25,-761 376.25,-761 376.25,-797"/>
<text text-anchor="middle" x="339.75" y="-773.58" font-family="Helvetica,sans-Serif" font-size="14.00">Engaging</text>
</g>
<!-- Attack1_prepare&#45;&gt;Engaging -->
<g id="edge11" class="edge">
<title>Attack1_prepare&#45;&gt;Engaging</title>
<path fill="none" stroke="#cdc8b1" d="M159.55,-682.72C189.79,-694.14 225.12,-710.25 253.25,-731 263.14,-738.3 261.25,-744.84 271.25,-752 277.67,-756.59 284.98,-760.56 292.36,-763.92"/>
<polygon fill="#cdc8b1" stroke="#cdc8b1" points="290.79,-767.05 301.37,-767.69 293.5,-760.6 290.79,-767.05"/>
</g>
<!-- Attack1_prepare_linked -->
<g id="node20" class="node">
<title>Attack1_prepare_linked</title>
<polygon fill="none" stroke="black" stroke-dasharray="1,5" points="374.98,-626 304.52,-626 304.52,-590 374.98,-590 374.98,-626"/>
<text text-anchor="start" x="310.12" y="-602.58" font-family="Helvetica,sans-Serif" font-size="14.00">三連擊 &#160;</text>
</g>
<!-- Attack1_prepare&#45;&gt;Attack1_prepare_linked -->
<g id="edge12" class="edge">
<title>Attack1_prepare&#45;&gt;Attack1_prepare_linked</title>
<path fill="none" stroke="#66cdaa" d="M159.59,-647.53C201.81,-638.21 255.61,-626.34 293.19,-618.05"/>
<polygon fill="#66cdaa" stroke="#66cdaa" points="293.81,-621.5 302.82,-615.93 292.3,-614.66 293.81,-621.5"/>
<text text-anchor="middle" x="220.62" y="-642.29" font-family="Helvetica,sans-Serif" font-size="14.00" fill="#66cdaa">QueueEnd</text>
</g>
<!-- Attack1_prepare_weight -->
<g id="node21" class="node">
<title>Attack1_prepare_weight</title>
<polygon fill="none" stroke="black" stroke-dasharray="1,5" points="385,-680 294.5,-680 294.5,-644 385,-644 385,-680"/>
<text text-anchor="start" x="304.5" y="-656.58" font-family="Helvetica,sans-Serif" font-size="14.00">1 三連擊 &#160;</text>
</g>
<!-- Attack1_prepare&#45;&gt;Attack1_prepare_weight -->
<g id="edge13" class="edge">
<title>Attack1_prepare&#45;&gt;Attack1_prepare_weight</title>
<path fill="none" stroke="#458b74" d="M159.59,-662C198.05,-662 246.12,-662 282.78,-662"/>
<polygon fill="#458b74" stroke="#458b74" points="282.75,-665.5 292.75,-662 282.75,-658.5 282.75,-665.5"/>
<text text-anchor="middle" x="220.62" y="-664.45" font-family="Helvetica,sans-Serif" font-size="14.00" fill="#458b74">Weight</text>
</g>
<!-- 三連擊 -->
<g id="node22" class="node">
<title>三連擊</title>
<polygon fill="none" stroke="black" points="34.12,-937.12 34.12,-958.88 151.88,-958.88 151.88,-937.12 34.12,-937.12"/>
<text text-anchor="start" x="63.38" y="-942.58" font-family="Helvetica,sans-Serif" font-size="14.00">三連擊 &#160;</text>
<polygon fill="none" stroke="black" points="34.12,-905.12 34.12,-937.12 151.88,-937.12 151.88,-905.12 34.12,-905.12"/>
<text text-anchor="start" x="37.12" y="-923.73" font-family="Helvetica,sans-Serif" font-size="12.00" fill="#838b8b">1.17s: LinkNextMove</text>
<text text-anchor="start" x="37.12" y="-909.83" font-family="Helvetica,sans-Serif" font-size="12.00" fill="#838b8b">1.50s: Done</text>
<text text-anchor="start" x="101.62" y="-909.83" font-family="Helvetica,sans-Serif" font-size="14.00"> &#160;</text>
</g>
<!-- 三連擊&#45;&gt;Engaging -->
<g id="edge14" class="edge">
<title>三連擊&#45;&gt;Engaging</title>
<path fill="none" stroke="#cdc8b1" d="M159.53,-919.31C191.81,-909.92 228.92,-893.91 253.25,-867 272.21,-846.03 252.22,-826.9 271.25,-806 277.04,-799.64 284.53,-794.75 292.41,-791.01"/>
<polygon fill="#cdc8b1" stroke="#cdc8b1" points="293.55,-794.32 301.47,-787.28 290.89,-787.85 293.55,-794.32"/>
</g>
<!-- 三連擊_weight -->
<g id="node23" class="node">
<title>三連擊_weight</title>
<polygon fill="none" stroke="black" stroke-dasharray="1,5" points="391,-967.62 288.5,-967.62 288.5,-900.38 391,-900.38 391,-967.62"/>
<text text-anchor="start" x="298.5" y="-948.33" font-family="Helvetica,sans-Serif" font-size="14.00">2 JumpBack &#160;</text>
<text text-anchor="start" x="317.25" y="-928.58" font-family="Helvetica,sans-Serif" font-size="14.00">0 Skip &#160;</text>
<text text-anchor="start" x="304.5" y="-908.83" font-family="Helvetica,sans-Serif" font-size="14.00">1 三連擊 &#160;</text>
</g>
<!-- 三連擊&#45;&gt;三連擊_weight -->
<g id="edge15" class="edge">
<title>三連擊&#45;&gt;三連擊_weight</title>
<path fill="none" stroke="#458b74" d="M159.59,-932.54C196,-932.83 241.04,-933.2 276.84,-933.49"/>
<polygon fill="#458b74" stroke="#458b74" points="276.58,-936.99 286.61,-933.57 276.64,-929.99 276.58,-936.99"/>
<text text-anchor="middle" x="220.62" y="-935.75" font-family="Helvetica,sans-Serif" font-size="14.00" fill="#458b74">Weight</text>
</g>
<!-- 一閃 -->
<g id="node24" class="node">
<title>一閃</title>
<polygon fill="none" stroke="black" points="34.12,-854.12 34.12,-875.88 151.88,-875.88 151.88,-854.12 34.12,-854.12"/>
<text text-anchor="start" x="72" y="-859.58" font-family="Helvetica,sans-Serif" font-size="14.00">一閃 &#160;</text>
<polygon fill="none" stroke="black" points="34.12,-810.12 34.12,-854.12 151.88,-854.12 151.88,-810.12 34.12,-810.12"/>
<text text-anchor="start" x="37.12" y="-840.73" font-family="Helvetica,sans-Serif" font-size="12.00" fill="#838b8b">0.00s: CheckFacing</text>
<text text-anchor="start" x="37.12" y="-828.73" font-family="Helvetica,sans-Serif" font-size="12.00" fill="#838b8b">1.08s: LinkNextMove</text>
<text text-anchor="start" x="37.12" y="-814.83" font-family="Helvetica,sans-Serif" font-size="12.00" fill="#838b8b">1.17s: Done</text>
<text text-anchor="start" x="101.62" y="-814.83" font-family="Helvetica,sans-Serif" font-size="14.00"> &#160;</text>
</g>
<!-- 一閃&#45;&gt;Engaging -->
<g id="edge16" class="edge">
<title>一閃&#45;&gt;Engaging</title>
<path fill="none" stroke="#cdc8b1" d="M159.59,-825.85C201.29,-814.94 254.3,-801.08 291.81,-791.27"/>
<polygon fill="#cdc8b1" stroke="#cdc8b1" points="292.67,-794.67 301.46,-788.75 290.9,-787.89 292.67,-794.67"/>
</g>
<!-- 一閃_weight -->
<g id="node25" class="node">
<title>一閃_weight</title>
<polygon fill="none" stroke="black" stroke-dasharray="1,5" points="391,-882.62 288.5,-882.62 288.5,-815.38 391,-815.38 391,-882.62"/>
<text text-anchor="start" x="298.5" y="-863.33" font-family="Helvetica,sans-Serif" font-size="14.00">1 JumpBack &#160;</text>
<text text-anchor="start" x="317.25" y="-843.58" font-family="Helvetica,sans-Serif" font-size="14.00">1 Skip &#160;</text>
<text text-anchor="start" x="317.25" y="-823.83" font-family="Helvetica,sans-Serif" font-size="14.00">1 Skip &#160;</text>
</g>
<!-- 一閃&#45;&gt;一閃_weight -->
<g id="edge17" class="edge">
<title>一閃&#45;&gt;一閃_weight</title>
<path fill="none" stroke="#458b74" d="M159.59,-844.61C196,-845.5 241.04,-846.6 276.84,-847.48"/>
<polygon fill="#458b74" stroke="#458b74" points="276.53,-850.98 286.61,-847.72 276.7,-843.98 276.53,-850.98"/>
<text text-anchor="middle" x="220.62" y="-849.34" font-family="Helvetica,sans-Serif" font-size="14.00" fill="#458b74">Weight</text>
</g>
<!-- HurtState -->
<g id="node26" class="node">
<title>HurtState</title>
<polygon fill="none" stroke="black" points="54,-1077 54,-1098.75 132,-1098.75 132,-1077 54,-1077"/>
<text text-anchor="start" x="60.75" y="-1082.45" font-family="Helvetica,sans-Serif" font-size="14.00">HurtState &#160;</text>
<polygon fill="none" stroke="black" points="54,-1055.25 54,-1077 132,-1077 132,-1055.25 54,-1055.25"/>
<text text-anchor="start" x="57" y="-1061.7" font-family="Helvetica,sans-Serif" font-size="12.00" fill="#838b8b">0.33s: Done</text>
<text text-anchor="start" x="121.5" y="-1061.7" font-family="Helvetica,sans-Serif" font-size="14.00"> &#160;</text>
</g>
<!-- PreAttack -->
<g id="node27" class="node">
<title>PreAttack</title>
<polygon fill="none" stroke="black" points="377,-1060 302.5,-1060 302.5,-1024 377,-1024 377,-1060"/>
<text text-anchor="middle" x="339.75" y="-1036.58" font-family="Helvetica,sans-Serif" font-size="14.00">PreAttack</text>
</g>
<!-- HurtState&#45;&gt;PreAttack -->
<g id="edge18" class="edge">
<title>HurtState&#45;&gt;PreAttack</title>
<path fill="none" stroke="#cdc8b1" d="M139.75,-1070.46C182.8,-1064.3 247.04,-1055.12 290.8,-1048.86"/>
<polygon fill="#cdc8b1" stroke="#cdc8b1" points="291.11,-1052.35 300.51,-1047.47 290.12,-1045.42 291.11,-1052.35"/>
</g>
<!-- Hurt_BigState -->
<g id="node28" class="node">
<title>Hurt_BigState</title>
<polygon fill="none" stroke="black" points="44.25,-1007 44.25,-1028.75 141.75,-1028.75 141.75,-1007 44.25,-1007"/>
<text text-anchor="start" x="47.25" y="-1012.45" font-family="Helvetica,sans-Serif" font-size="14.00">Hurt_BigState &#160;</text>
<polygon fill="none" stroke="black" points="44.25,-985.25 44.25,-1007 141.75,-1007 141.75,-985.25 44.25,-985.25"/>
<text text-anchor="start" x="47.25" y="-991.7" font-family="Helvetica,sans-Serif" font-size="12.00" fill="#838b8b">0.33s: Done</text>
<text text-anchor="start" x="111.75" y="-991.7" font-family="Helvetica,sans-Serif" font-size="14.00"> &#160;</text>
</g>
<!-- Hurt_BigState&#45;&gt;PreAttack -->
<g id="edge19" class="edge">
<title>Hurt_BigState&#45;&gt;PreAttack</title>
<path fill="none" stroke="#cdc8b1" d="M149.54,-1014.94C192.12,-1021.03 250.27,-1029.35 290.83,-1035.15"/>
<polygon fill="#cdc8b1" stroke="#cdc8b1" points="290.14,-1038.58 300.53,-1036.53 291.13,-1031.65 290.14,-1038.58"/>
</g>
<!-- JumpBack -->
<g id="node29" class="node">
<title>JumpBack</title>
<polygon fill="none" stroke="black" points="34.12,-757.12 34.12,-778.88 151.88,-778.88 151.88,-757.12 34.12,-757.12"/>
<text text-anchor="start" x="57.38" y="-762.58" font-family="Helvetica,sans-Serif" font-size="14.00">JumpBack &#160;</text>
<polygon fill="none" stroke="black" points="34.12,-725.12 34.12,-757.12 151.88,-757.12 151.88,-725.12 34.12,-725.12"/>
<text text-anchor="start" x="37.12" y="-743.73" font-family="Helvetica,sans-Serif" font-size="12.00" fill="#838b8b">0.33s: LinkNextMove</text>
<text text-anchor="start" x="37.12" y="-729.83" font-family="Helvetica,sans-Serif" font-size="12.00" fill="#838b8b">0.35s: Done</text>
<text text-anchor="start" x="101.62" y="-729.83" font-family="Helvetica,sans-Serif" font-size="14.00"> &#160;</text>
</g>
<!-- JumpBack&#45;&gt;Engaging -->
<g id="edge20" class="edge">
<title>JumpBack&#45;&gt;Engaging</title>
<path fill="none" stroke="#cdc8b1" d="M159.59,-759.24C201.29,-763.84 254.3,-769.68 291.81,-773.82"/>
<polygon fill="#cdc8b1" stroke="#cdc8b1" points="291.1,-777.26 301.42,-774.88 291.87,-770.31 291.1,-777.26"/>
</g>
<!-- JumpBack_weight -->
<g id="node30" class="node">
<title>JumpBack_weight</title>
<polygon fill="none" stroke="black" stroke-dasharray="1,5" points="376.38,-743 303.12,-743 303.12,-707 376.38,-707 376.38,-743"/>
<text text-anchor="start" x="313.12" y="-719.58" font-family="Helvetica,sans-Serif" font-size="14.00">2 一閃 &#160;</text>
</g>
<!-- JumpBack&#45;&gt;JumpBack_weight -->
<g id="edge21" class="edge">
<title>JumpBack&#45;&gt;JumpBack_weight</title>
<path fill="none" stroke="#458b74" d="M159.59,-744.76C201.29,-740.16 254.3,-734.32 291.81,-730.18"/>
<polygon fill="#458b74" stroke="#458b74" points="291.87,-733.69 301.42,-729.12 291.1,-726.74 291.87,-733.69"/>
<text text-anchor="middle" x="220.62" y="-743.37" font-family="Helvetica,sans-Serif" font-size="14.00" fill="#458b74">Weight</text>
</g>
<!-- Wandering_Idle -->
<g id="node31" class="node">
<title>Wandering_Idle</title>
<polygon fill="none" stroke="black" points="163.62,-1157 22.38,-1157 22.38,-1121 163.62,-1121 163.62,-1157"/>
<text text-anchor="middle" x="93" y="-1133.58" font-family="Helvetica,sans-Serif" font-size="14.00">Wandering_Idle (Init)</text>
</g>
</g>
</svg>
